<?xml version="1.0" standalone="yes"?>
<svg xmlns="http://www.w3.org/2000/svg" width="1920" height="1080">
<path style="fill:#fefefe; stroke:none;" d="M0 0L0 1080L1920 1080L1920 0L0 0z"/>
<path style="fill:#060606; stroke:none;" d="M1341 191C1338.11 194.423 1334.87 202.387 1329.95 203.133C1327.32 203.532 1325.55 200.839 1322.95 201.174C1319.17 201.661 1317.07 207.324 1314 203L1295 206L1288 201L1287 201C1282.49 206.279 1276.15 203.485 1270 203L1271 210L1254 212L1252 218C1246.46 217.217 1243.27 216.505 1241 211L1228 217C1229.15 229.229 1219.64 220.705 1215.02 226.607C1212.03 230.43 1215.57 235.931 1215.47 240C1215.38 243.724 1213.21 247.154 1213 251L1208 251C1208.05 253.246 1209.5 258.19 1208.02 260.017C1205.03 263.708 1198.09 258.709 1196.32 265.108C1193.76 274.404 1204.37 283.61 1196 291L1192 282L1191 286L1189 286L1182 281L1182 286L1178 285C1177.12 290.568 1178.89 296.651 1173 299L1192.76 336.961L1187 357L1187 358C1181.24 363.427 1183.89 367.567 1186 374L1193 376C1189.52 377.797 1188.76 379.269 1190 383C1210.9 383.304 1222.89 405.434 1217 424L1224.37 432.288L1232.01 428.394L1242 430L1253 421L1251 438L1236 437C1235.88 440.703 1232.61 444.726 1233.17 448.039C1234.02 453.097 1241.67 457.203 1238.93 462.906C1236.07 468.855 1222.63 467.425 1221.92 472.133C1221.31 476.151 1227.48 479.99 1228.36 484.001C1229.26 488.098 1225.48 491.958 1227.13 495.911C1229.78 502.303 1236.83 503.968 1240.39 509.108C1243.42 513.484 1239.43 518.341 1241.4 522.91C1245.52 532.415 1256.01 540.133 1260.39 549.108C1261.73 551.861 1261.13 555.068 1262.49 557.83C1267.47 567.96 1281.42 592.576 1296 586C1300.5 598.738 1310.35 584.303 1315 596C1328.21 595.625 1346.64 608.06 1355 592C1359.03 593.449 1362.41 593.421 1364 589C1369.79 593.981 1387.61 600.979 1388 589L1391 590L1392 587L1395 587C1398.42 593.057 1409.04 587.928 1411.81 582.857C1413.41 579.93 1412.25 576.136 1412 573C1418.13 572.181 1432.66 562.142 1436 557C1439.39 560.897 1441.31 567.261 1446.04 569.681C1450.4 571.907 1453.67 569.293 1458 569.167C1461.71 569.058 1472.59 576.87 1468 567C1471.6 564.981 1472.69 563.102 1473 559C1489.75 559.354 1478.09 544.286 1478 536L1481 537C1482.27 532.7 1484.86 522.853 1481 520L1481 519L1486.42 502.015L1497 481C1490.51 474.685 1493.44 463.566 1493 455C1484.04 452.34 1489.49 446.924 1490.13 440.961C1491.22 430.976 1492.21 409.593 1479 412C1475.97 406.498 1471.13 404.073 1465 404L1466 397C1449.98 392.994 1463.48 384.945 1456.26 376.434C1452.67 372.205 1447.78 375.447 1443.43 374.664C1437.82 373.654 1431.56 364.262 1432 359C1437.49 359.821 1438.87 354.215 1433.89 351.662C1430.14 349.74 1425.91 351.903 1422 352C1422.71 348.942 1422.67 347.732 1420 346L1418 340C1418.66 333.656 1422.87 324.661 1418 320L1418 319C1425.69 311.595 1425.21 304.331 1415.61 298.023C1413.47 296.614 1410.65 296.956 1408.8 294.968C1405.31 291.223 1404.85 284.688 1404 280L1400 282L1400 267L1398 269C1392.16 265.903 1390.44 261.354 1392 255L1388 250L1385 252L1384 252L1372 252C1371.51 248.082 1361.57 247.069 1358.87 241.866C1355.57 235.515 1361.38 228.055 1363 222L1361 222L1360.65 213L1365 196L1354 196C1352.44 187.371 1345.55 195.587 1341 191M647 193L637 209L636 209L634 201L629 207L628 207L626 200L624 202L623 202L620 198L619 198L610 212L603 209L604 212L601.726 225L596 241C593.614 240.092 591.392 238.774 589.002 237.905C576.617 233.401 579.368 249.4 572 255L569 249L567 249L564 258L558 255C555.818 261.216 550.797 262.178 545 260L544 264L543 264L542 261L541 261L541 269L530 272C525.417 263.743 523.77 275.329 522 279L521 279C516.712 275.945 513.367 279.809 509 281.201C499.907 284.098 493.994 288.443 506 295L502 300L498 299C492.525 306.264 487.537 309.964 479 313L482 324C478.234 324.838 475.523 327.473 471.961 328.385C464.663 330.253 460.119 323.632 455 320L454 326L448 325C448.188 328.089 449.335 332.898 447.887 335.726C446.624 338.195 443.022 338.97 442.89 342.108C442.739 345.727 446.659 347.694 447.388 350.999C448.843 357.591 439.071 357.901 435 359L437 362L426 365C429.895 378.272 442.773 385.689 441.624 399.001C441.1 405.075 445.739 412.078 436 411C437.046 417.778 443.135 422.958 449 426L449 428L444 434C435.496 432.446 424.645 437.534 429.09 448C436.945 466.494 459.456 470.945 450 494L449 494C451.182 484.807 446.358 478.677 438 475L437 486L419 481L423 491L417 490C416.117 493.304 416.043 495.08 419 497L416 504L423 505L426 516L418 518C419.459 522.863 423.181 524.396 428 525C428.137 536.585 436.278 539.256 446 539L444 542L464 544L462 552C470.459 554.219 475.893 562.751 485 561L481 583C487.055 584.856 484.879 597.15 485 603L497 598L497 600C481.11 604.334 485.327 623.089 500 625L501 631L510 621L512 621L507 643L500 633L498 633L497 636L500 640L494 637L491 640C490.563 636.534 487.996 637.289 485 638L485 633L483 633L484 640L480 637L474 636L473 641L475 644L472 640L471 640L471 643L468 641L467 644L464 642L464 638L460 643L455 640L453 643L454 652L453 652L450 648L449 654L440 660L440 656L439 656L438 659C434.823 657.238 430.916 655.016 428 658L426 656L425 656L424 656L421 659L422 664L417 662L416 672C409.972 675.798 409.662 685.959 412 692L408 694L408 690L407 690L408 701L407 701L404 697L403 712L400 708L394 709L393 729L391 727C381.466 735.774 387.573 746.59 392 756C388.083 756.658 386.567 758.417 385 762L386 762L388 760C389.181 769.29 399.599 775.255 395 784L400 788L404 786C402.579 789.485 401.46 794.027 406 795L405 799L409 793L410 793L410 801L416 803L415 808L416 808L417 806L424 820L429 819L435 830L438 832L437 829L450 836L448 834L449 830L455 838L461 842L460 839L468 842L468 836L474 837L475 840L483 841L484 841L484 836L489 837L489 836L487 836L487 835L492 835L494 838L492 840L492 841L497 844L496 838L504 843L507 839L506 844C511.302 843.18 517.457 840.396 519 835L520 835L520 840L532 831L542 830L545 825L552 817L554 820L552 815L556 815C557.812 813.499 558.022 813.842 559 816L560 816L561 812L563 813L563 805L567 807L575 799L579 802C584.523 797.139 586.844 790.281 587 783L589 784L590 778L587 769C591.365 768.446 588.615 764.583 587 762L593 760C592.7 754.948 589.282 745.221 596 745L594 721L596 721C593.515 714.29 588.043 701.141 592 695L588 694L587 698L583 696L584 685L579 688L577 681L566 676L561 660L560 660L560 667L556 664L556 663L556 657L551 660C551.236 655.373 550.238 653.06 546 651L548 654L544 655C542.793 651.4 541.262 651.452 538 653L537 649L533 651L532 645L529 649C525.499 646.226 523.904 645.712 520 648L518 645L518 650L517 650L516 644L513 646L510 644C515.061 642.173 517.169 641.921 520 637L522 642L530 642L534 638L534 640C538.814 638.683 544.87 634.166 549.942 635.336C555.133 636.535 555.677 644.833 562 641L563 641L572 643C571.885 649.362 578.196 660.054 585 659L591.146 677L592 689C597.152 687.031 599.688 683.201 603 690L606 689C606.482 693.275 607.637 695.288 612 696L616 679C621.398 679.202 622.755 675.351 625 671L626 671C627.747 673.286 629.252 674.404 630 671L637 676C636.414 665.836 639.151 656.675 648 651L657 666L664 655C666.366 663.328 673.098 662.309 676 655L684 661L684 648C688.783 647.449 689.844 645.683 690 641L696 646L701 625L714 632L715 629C723.382 629.253 725.875 624.646 727 617L728 617C731.875 629.162 739.068 634.741 735 648L739 644L745 645L744 641C748.356 646.087 744.232 649.323 739 651L741 654L736 660L740 656L744 657L744 650L747 656L738 663L738 664L743 678L744 678L748 671L747 680L752 680L752 679L749 679L753 676C753.436 680.978 751.737 683.805 748 687C755.717 696.996 744.346 709.533 740.803 719.089C737.65 727.593 741.11 735.406 741.286 744C741.366 747.967 739.707 752.059 740.433 755.985C744.306 776.948 758.046 801.795 775.089 814.582C781.112 819.1 790.859 818.749 796 824L836.999 845.259L867 838L868 835C876.347 836.04 896.409 841.573 902 833C908.248 833.886 909.638 828.623 912.377 824C918.208 814.157 923.036 803.681 929 794L929 798L933 805L934 805L935 789L937 789L939 800L940 800L940 793L943 797L944 797L945 794L949 795L948 788L951 798L953 796L954 796L960 800L961 796L968 797L972 785L972 789L976 788L977 792L976 792L975 790L975 797L982 792L983 798L988 796L982 792L981 779L991 792L996 789L995 782L997 784L998 784L1004 778L1001 784L1008 783L1012 775L1016 780L1017 774C1021.35 774.372 1025.43 773.771 1028 770L1029 770L1029 776L1032 772C1037.34 771.398 1043.05 766.392 1046 762L1040 761L1040 759L1041 758L1046 759L1046 755L1047 755L1049 763C1045.21 763.632 1048.04 769.425 1049 772L1050 772L1051 762L1055 766L1060 762L1056 763L1059 750L1064 759L1065 759L1064 750L1077 751L1076.59 734.874L1082 730L1083 730L1085 736L1086 736L1089 727L1090 730L1092 730L1093 729L1092 725C1098.6 723.04 1101.58 715.468 1101 709C1104.4 708.271 1103.99 706.194 1104 703L1103 703L1102 707L1101 707L1100 701L1104 702L1104 697L1108 698L1104 690L1109 691L1109 680L1107 682L1106 682C1108.6 676.676 1112.55 675.394 1110 669L1119 653L1120 659L1118 663L1115 662L1115 678L1116 678L1117 668L1120 670L1122 656L1124 656L1126 664L1131 660L1130 656C1121.03 655.805 1129.77 650.342 1133 648L1132 637L1134 637L1135 642C1139.58 640.262 1141.7 638.938 1143 634L1142 633L1140 633L1138 637L1134 630L1137 633L1138 627L1141 626C1140.46 623.399 1137.74 619.833 1138.74 617.251C1141.36 610.448 1149.3 611.187 1147 602L1146 602L1143 610C1139.44 604.724 1138.58 598.19 1140 592L1141 592L1141 599L1145 598L1148 588L1142 591C1137.77 588.398 1138.44 585.527 1139 581L1128 582L1128 577L1134 579L1136 568L1136 567L1126 564C1128.38 559.589 1129.05 557.15 1124 555L1124 553L1128 552L1128 551L1124 551L1129 545L1130 537C1124.29 537.44 1122.37 540.483 1122 546L1116 540C1124.24 529.519 1121.72 521.844 1116 511C1122.37 510.93 1128.66 509.522 1131 503L1142 507L1143 507C1147.45 502.555 1144.8 499.238 1142 497L1152 486L1156 480L1141 463L1148 460C1143.16 446.822 1137.17 425.101 1146 413L1143 412C1144.88 404.125 1146.61 394.707 1137 392L1134 369C1129.34 369.07 1124.75 367.459 1124.36 361.999C1123.58 351.133 1122.46 341.336 1116.58 331.406C1115.39 329.399 1115.72 326.448 1113.64 325.032C1110.89 323.154 1107.04 325.004 1104 324.759C1095.14 324.047 1085.86 321.274 1084 313C1082.08 313.389 1079.95 314.254 1078 314.316C1066.42 314.683 1074.08 299.463 1067.58 295.18C1062.8 292.032 1057.67 296.758 1053 297.424C1045.87 298.442 1035.78 289.953 1036 283L1040 284L1041 278C1034.3 275.352 1027.92 273.82 1025 282L1022 274L999 287.231L990 287.298L976.004 292.684L957 286L956 283L945 285L943 288C938.651 281.907 932.716 285.627 932 292C918.076 290.452 917.611 306.044 910.348 312.361C908.307 314.136 904.495 313.987 902 315C903.331 319.457 902.227 323.887 896.982 324.873C886.63 326.817 871.651 322.273 863.746 331.725C860.412 335.711 864.295 340.037 865.451 344C867.096 349.635 867.278 359.992 867.477 365.976C867.637 370.792 863.181 369.552 860 369L862 376C856.926 377.992 856.81 383.096 856 388L839 377C840.671 365.853 849.506 356.395 832 355L838 335L834 334L835 326L834 325L821 328L820 323L815 324C811.913 315.024 805.318 324.37 800 324.174C796.183 324.033 794.046 321.342 790 322L792 311L784 316L786 311L779 312L782 297L771 308L770 300L765 302L764 297L761 298L762 293L759 292L762 281L752 290L753 286L743 289L743 279L738 280L738 270L733 272L733 266L730 272L727 265L724 265L719 273L718 268L704 284L704 275L695 282L692 281L689 284L690 279L686 283L682 277L680 279L670 278L669 264L668 264L663 269L662 268C666.58 261.329 668.295 245.164 662 239L661 243L660 243L659 233L658 233L653 233L648 240C653.175 229.063 651.999 216.014 652 204L649 205L647 193M901 319L902 320L901 319z"/>
<path style="fill:#fefefe; stroke:none;" d="M1193 381L1194 382L1193 381M854 396L862 391C857.398 389.482 855.493 391.673 854 396M864 411L864 412L868 412L864 411M1107 503L1107 507L1110 503L1107 503z"/>
<path style="fill:#060606; stroke:none;" d="M1108 504L1109 505L1108 504z"/>
<path style="fill:#fefefe; stroke:none;" d="M1108 509L1111 512L1108 509M1112 509L1116 516L1112 509z"/>
<path style="fill:#060606; stroke:none;" d="M1120 513L1119 517L1123 516L1120 513z"/>
<path style="fill:#fefefe; stroke:none;" d="M1103 517L1107 516L1103 517z"/>
<path style="fill:#060606; stroke:none;" d="M1124 515L1126 517L1126 515L1124 515z"/>
<path style="fill:#fefefe; stroke:none;" d="M1116 518L1112 524L1120 528L1118 518L1116 518z"/>
<path style="fill:#060606; stroke:none;" d="M1126 528L1126 532L1126 528z"/>
<path style="fill:#fefefe; stroke:none;" d="M1111 537L1112 538L1111 537M1111 539L1112 540L1111 539z"/>
<path style="fill:#060606; stroke:none;" d="M1132 548L1134 552L1134 548L1132 548M1133 554L1134 558L1133 554z"/>
<path style="fill:#fefefe; stroke:none;" d="M1121 558L1121 561L1123 558L1121 558z"/>
<path style="fill:#060606; stroke:none;" d="M1137 565L1141 568L1137 565M1136 576L1145 576C1144.07 571.638 1136.93 571.638 1136 576M1143 581L1142 584L1143 581M1145 583L1145 584L1148 584L1145 583M1151 586L1150 590L1151 590L1151 586z"/>
<path style="fill:#fefefe; stroke:none;" d="M1129 589L1128 592L1129 589M1131 606L1131 608L1133 608L1133 606L1131 606M726 615L727 616L726 615z"/>
<path style="fill:#060606; stroke:none;" d="M1149 620L1149 625L1150 625L1149 620z"/>
<path style="fill:#fefefe; stroke:none;" d="M1135 621L1137 624L1135 621M1134 624L1133 627L1137 628L1137 627L1134 624z"/>
<path style="fill:#060606; stroke:none;" d="M1145 624L1146 636L1150 631L1146 632L1145 624z"/>
<path style="fill:#fefefe; stroke:none;" d="M759 631L760 632L759 631M750 633L751 634L750 633M749 648L750 648L754 635C748.487 637.781 749.001 642.443 749 648M520 636L521 637L520 636M1128 637L1129 638L1128 637z"/>
<path style="fill:#060606; stroke:none;" d="M467 639L468 640L467 639z"/>
<path style="fill:#fefefe; stroke:none;" d="M747 639L748 640L747 639M756 639L757 640L756 639M1127 639L1128 640L1127 639M456.333 642.667L456.667 643.333L456.333 642.667z"/>
<path style="fill:#060606; stroke:none;" d="M1137 645L1140 648L1137 645M731 653L732 654L731 653z"/>
<path style="fill:#fefefe; stroke:none;" d="M449 655L450 656L449 655M545.667 655.333L546.333 655.667L545.667 655.333M1120.67 655.333L1121.33 655.667L1120.67 655.333z"/>
<path style="fill:#060606; stroke:none;" d="M420 656L421 657L420 656z"/>
<path style="fill:#fefefe; stroke:none;" d="M738 656L739 657L738 656M432.667 658.333L433.333 658.667L432.667 658.333z"/>
<path style="fill:#060606; stroke:none;" d="M560 658L561 659L560 658M413 666L413 668L415 666L413 666M1124 667L1121 676L1126 667L1124 667M739 668L738 672L739 668M1130 671L1131 672L1130 671z"/>
<path style="fill:#fefefe; stroke:none;" d="M1105 672L1106 673L1105 672z"/>
<path style="fill:#060606; stroke:none;" d="M408 674L408 676L410 676L410 674L408 674z"/>
<path style="fill:#fefefe; stroke:none;" d="M756 674L757 675L756 674M1104 674L1105 675L1104 674z"/>
<path style="fill:#060606; stroke:none;" d="M571 675L572 676L571 675z"/>
<path style="fill:#fefefe; stroke:none;" d="M1096 675L1097 676L1096 675z"/>
<path style="fill:#060606; stroke:none;" d="M1127 675L1128 676L1127 675z"/>
<path style="fill:#fefefe; stroke:none;" d="M756.333 678.667L756.667 679.333L756.333 678.667z"/>
<path style="fill:#060606; stroke:none;" d="M406 679L407 680L406 679M1110 679L1111 684L1114 681L1113 679L1110 679z"/>
<path style="fill:#fefefe; stroke:none;" d="M570 680L571 684L572 684L570 680z"/>
<path style="fill:#060606; stroke:none;" d="M1119 681L1119 684L1120 684L1119 681z"/>
<path style="fill:#fefefe; stroke:none;" d="M754 683L755 684L754 683z"/>
<path style="fill:#060606; stroke:none;" d="M1121 683L1123 685L1123 683L1121 683M407.333 684.667L407.667 685.333L407.333 684.667z"/>
<path style="fill:#fefefe; stroke:none;" d="M574.333 685.667L574.667 686.333L574.333 685.667M1102 685L1103 690L1105 685L1102 685z"/>
<path style="fill:#060606; stroke:none;" d="M1114 688L1118 688L1117 685L1114 688z"/>
<path style="fill:#fefefe; stroke:none;" d="M580 688L582 691L580 688z"/>
<path style="fill:#060606; stroke:none;" d="M1112 691L1110 696L1114 691L1112 691z"/>
<path style="fill:#fefefe; stroke:none;" d="M1093 699L1094 700L1093 699z"/>
<path style="fill:#060606; stroke:none;" d="M1113 700L1112 704L1115 700L1113 700z"/>
<path style="fill:#fefefe; stroke:none;" d="M586.333 701.667L586.667 702.333L586.333 701.667M1097 703L1098 704L1097 703M586 704L587 705L586 704z"/>
<path style="fill:#060606; stroke:none;" d="M1108 705L1103 716C1110.01 715.466 1110 711.048 1110 705L1108 705z"/>
<path style="fill:#fefefe; stroke:none;" d="M1091 707L1092 708L1091 707M591 709L592 710L591 709z"/>
<path style="fill:#060606; stroke:none;" d="M1116.67 711.333L1117.33 711.667L1116.67 711.333z"/>
<path style="fill:#fefefe; stroke:none;" d="M1087 718L1087 719L1092 722L1093 722L1094 722L1096 717L1087 718z"/>
<path style="fill:#060606; stroke:none;" d="M1141 717L1139 722L1144 718L1143 717L1141 717M389 719L390 720L389 719z"/>
<path style="fill:#fefefe; stroke:none;" d="M592 719L593 720L592 719M1075 721L1076 725L1077 725L1075 721M1084 724L1088 721L1084 724z"/>
<path style="fill:#060606; stroke:none;" d="M1102 723L1104 726L1105 726L1104 722L1102 723M1098 723L1098 726L1099 726L1100 723L1098 723M384 728L385 729L384 728M600 729L600 732L601 732L600 729M1089 732L1088 737L1089 737L1089 732M1083 738C1082.1 741.337 1082.14 742.934 1085 745C1085.9 741.663 1085.86 740.065 1083 738z"/>
<path style="fill:#fefefe; stroke:none;" d="M1062 739L1061 741L1062 739M1076 740L1077 741L1076 740M1073 741L1072 747L1076 744L1076 743L1073 741M1066 743L1067 744L1066 743M1054 745L1056 748L1056 745L1054 745M392.333 750.667L392.667 751.333L392.333 750.667M586.667 751.333L587.333 751.667L586.667 751.333M1052.67 751.333L1053.33 751.667L1052.67 751.333z"/>
<path style="fill:#060606; stroke:none;" d="M385 753L386 754L385 753M387 753L388 754L387 753z"/>
<path style="fill:#fefefe; stroke:none;" d="M1026 762L1030 757L1026 762M1051 757L1050 761L1051 761L1051 757z"/>
<path style="fill:#060606; stroke:none;" d="M1069 759L1070 760L1069 759z"/>
<path style="fill:#fefefe; stroke:none;" d="M1036 760L1036 763L1037 763L1036 760z"/>
<path style="fill:#060606; stroke:none;" d="M1065 760L1063 764L1065 760M1080 761L1080 764L1082 764L1082 761L1080 761z"/>
<path style="fill:#fefefe; stroke:none;" d="M394.333 766.667L394.667 767.333L394.333 766.667M1032 768L1035 768L1034 766L1032 768M1023 768L1024 769L1023 768M1008 769L1010 772L1008 769z"/>
<path style="fill:#060606; stroke:none;" d="M1036 773L1036 776L1039 776L1039 773L1036 773M590 775L591 776L590 775M1022 776L1021 783C1024.05 781.014 1024.13 778.865 1022 776z"/>
<path style="fill:#fefefe; stroke:none;" d="M968 777L968 780L969 780L968 777M400 778L400 780L402 780L402 778L400 778M991 778L991 781L992 781L991 778z"/>
<path style="fill:#060606; stroke:none;" d="M1031 778L1032 779L1031 778z"/>
<path style="fill:#fefefe; stroke:none;" d="M973 779L973 783L974 783L973 779z"/>
<path style="fill:#060606; stroke:none;" d="M1027 779L1028 780L1027 779M1017 781L1018 782L1017 781z"/>
<path style="fill:#fefefe; stroke:none;" d="M398.333 782.667L398.667 783.333L398.333 782.667z"/>
<path style="fill:#060606; stroke:none;" d="M1010 782L1010 784L1012 784L1010 782z"/>
<path style="fill:#fefefe; stroke:none;" d="M989 783L990 789L991 789L992 783L989 783z"/>
<path style="fill:#060606; stroke:none;" d="M1016 784L1017 785L1016 784M1047 785L1048 786L1047 785z"/>
<path style="fill:#fefefe; stroke:none;" d="M964 786L964 788L967 788L967 786L964 786z"/>
<path style="fill:#060606; stroke:none;" d="M1003.33 786.667L1003.67 787.333L1003.33 786.667z"/>
<path style="fill:#fefefe; stroke:none;" d="M405 787L406 790L407 790L405 787M934 787L935 788L934 787z"/>
<path style="fill:#060606; stroke:none;" d="M997.333 789.667L997.667 790.333L997.333 789.667M589 790L590 791L589 790z"/>
<path style="fill:#fefefe; stroke:none;" d="M953 790L953 792L955 792L953 790M960 791L962 795L960 791z"/>
<path style="fill:#060606; stroke:none;" d="M1039 791L1040 792L1039 791z"/>
<path style="fill:#fefefe; stroke:none;" d="M965.333 792.667L965.667 793.333L965.333 792.667M975 792L976 793L975 792M958 794L957 796L959 796L958 794z"/>
<path style="fill:#060606; stroke:none;" d="M993 794L994 795L993 794M949 797L949 800L950 800L949 797z"/>
<path style="fill:#fefefe; stroke:none;" d="M578 799L579 800L578 799z"/>
<path style="fill:#060606; stroke:none;" d="M945 799L947 802L945 799M589 801L587 808L591 808L591 801L589 801M952 801L952 805L953 805L954 801L952 801M966 801L966 803L968 803L968 801L966 801M991.333 802.667L991.667 803.333L991.333 802.667M928 805L928 808L930 808L930 805L928 805M944 805L944 808L946 808L946 805L944 805M960 806L960 808L962 808L960 806M420 816L421 817L420 816M548 823L549 824L548 823z"/>
<path style="fill:#fefefe; stroke:none;" d="M532 827L535 829L532 827M460 833L461 834L460 833M460.667 835.333L461.333 835.667L460.667 835.333M528 835L529 836L528 835z"/>
<path style="fill:#060606; stroke:none;" d="M531 836L531 843L532 843L535 840L531 836M489 838L490 839L489 838z"/>
<path style="fill:#fefefe; stroke:none;" d="M466 839L467 840L466 839z"/>
<path style="fill:#060606; stroke:none;" d="M487 840L489 843L490 842L489 840L487 840z"/>
<path style="fill:#fefefe; stroke:none;" d="M508.333 840.667L508.667 841.333L508.333 840.667z"/>
<path style="fill:#060606; stroke:none;" d="M468 858L468 860L470 860L468 858z"/>
</svg>
