<?xml version="1.0" standalone="yes"?>
<svg xmlns="http://www.w3.org/2000/svg" width="1920" height="1080">
<path style="fill:#ffffff; stroke:none;" d="M0 0L0 1080L1920 1080L1920 0L0 0z"/>
<path style="fill:#030303; stroke:none;" d="M1300 233L1299 236C1268.3 229.369 1242.88 248.3 1226.42 271.985C1224.53 274.699 1220.98 276.302 1219.59 279.224C1212.24 294.672 1215.53 306.156 1215.25 322C1215.02 334.846 1210.53 346.942 1214.5 359.714C1216.42 365.887 1221.11 370.479 1224 376C1238.06 377.049 1238.02 394.867 1245.51 403.544C1252.16 411.254 1266.82 410.337 1276 408.25C1280.73 407.174 1285.28 409.8 1288 405L1290 405C1295.61 414.282 1310.44 415.423 1320 416.089C1340.48 417.517 1352.34 403.495 1365.43 389.043C1377.28 375.957 1388.42 363.01 1391.73 345C1394.64 329.09 1385.23 312.839 1382.38 298C1381.17 291.683 1384 285.271 1378.98 279.835C1364.86 264.538 1345.27 260.005 1338 239L1322.87 232.059L1300 233M665 269L666 270L665 269M596 300L595 300L590 297L588 304C582.286 302.178 579.615 303.667 577 309C572.218 308.813 571.597 311.723 571 316L567 314L566 314L557 326C549.288 324.536 529.593 332.249 529 340C516.735 340.111 515.198 352.816 510.261 361.996C507.627 366.893 503.899 370.352 503 376C491.98 376.838 493.906 387.901 493 396C487.66 395.914 488.162 400.088 490 404C481.613 408.565 486.469 415.03 486.115 422C485.739 429.408 482.199 432.425 486 440L482 439L477.542 449L481.628 459.576L480.12 469L486.588 493.871L502 518L507 518L508 519C506.02 527.104 512.725 546.898 520 551L518 560L522.816 567.611L534 586C542.054 585.232 543.035 590.734 549.184 594.35C554.15 597.271 560.654 598.307 566 601L566 597L571 600L579 602L580 602C583.568 599.119 585.319 599.244 586 604L593 603C595.639 610.844 601.116 622.615 611 621C615.214 627.59 620.858 632.139 628 627C631.594 637.837 640.821 628.977 647.089 625.849C657.56 620.624 672.991 618.94 675 605C686.463 609.258 691.143 603.853 692 593C703.657 602.485 718.632 593.889 732 599C735.845 594.333 738.908 595.249 743.985 593.142C751.527 590.012 754.826 584.562 764 586L777 576L775 571C788.365 563.605 788.878 547.576 793.599 535C797.682 524.122 800.135 513.145 803.608 502.004C804.706 498.482 808.058 496.343 809.079 492.914C810.889 486.834 809.351 480.172 810.211 474C811.313 466.087 814.509 458.029 816 450L812 448L812 447C818.631 442.675 815.279 431.139 809 428C814.913 409.347 797.51 395.14 786.839 382.491C784.351 379.541 785.026 375.621 783.411 372.39C781.77 369.106 776.428 364.984 773.741 362.304C770.795 359.366 766.305 358.682 763.584 355.702C754.605 345.868 751.821 332.473 742.255 323.299C737.263 318.512 732.606 321.613 727.104 319.978C721.168 318.213 709.804 306.177 704 316C698.891 311.683 695.774 312.098 690 315L689 311C685.219 311.689 682.274 312.495 680 309L667.13 310.678L635 289C629.003 299.265 616.283 288.161 609.039 288.375C604.015 288.523 598.535 296.326 596 300z"/>
<path style="fill:#ffffff; stroke:none;" d="M584 597L585 598L584 597z"/>
</svg>
