<?xml version="1.0" standalone="yes"?>
<svg xmlns="http://www.w3.org/2000/svg" width="1920" height="1080">
<path style="fill:#fcfcfc; stroke:none;" d="M0 0L0 1080L700 1080L698 1074L689 1078L694 1059L670 1071L667 1068L667 1065C675.607 1062.25 676.905 1056.97 674 1049L671 1049C667.421 1060.73 656.642 1065.63 647 1072L655 1057L632 1058C639.621 1044.12 649.238 1028.54 661.196 1017.61C666.08 1013.15 672.815 1013.19 677.726 1009.27C685.148 1003.36 688.752 995.296 693.742 988.108C698.007 981.965 705.913 982.683 709 975C701.495 972.221 693.908 977.487 687 980.22C677.626 983.928 671.741 993.371 665.502 1000.91C655.834 1012.59 643.789 1026.16 630.961 1034.4C626.572 1037.22 619.985 1036.35 615 1037.55C608.207 1039.19 602.133 1042.89 596 1046C598.449 1030.58 616.324 1026.32 625.393 1016.37C627.812 1013.72 625.79 1010.04 627.117 1007C628.839 1003.06 633.043 1000.86 635 997L629 1000L628 1000C627.317 987.754 643.121 979.673 650.625 971.406C653.552 968.181 654.19 963.664 659 963L666 949C659.289 946.032 657.191 943.832 650 947L650 943L643 942L642 945L640 945C637.584 936.511 642.778 935.295 650 936L644 929L650 928L650 927L646 925L645 927L644 926L641 913L640 913L640 920L639 920L626 892L625 892C622.114 898.014 620.071 901.143 613 900L618 891L615 894C609.67 893.449 606.451 894.213 606 900C593.163 900.42 598.602 909.909 600 918L596 916L596 918L593 917L593 934L590 933L589 942L586 943L584 940L586 968L574 954L580 992L576 993L574 987L573 987L574 992L565 981C558.035 987.827 565.242 996.307 563.64 1003.89C561.624 1013.44 554.09 1001.48 553 998L550 998L548 994L544 1006C544 996.288 542.644 992.031 532 994L533 989L532 989L530 991L526 982L524 982C521.663 984.413 520.664 985.233 518 983L517 983L516 988L513 982L512 982L508 996L507 996C506.772 991.858 506.153 989.312 502 988L497 999L495 998L494 1003L493 1003L491 987L490 987L488 1004L485 1003L498 1044L493 1043L487 1057L480 1051L476 1053L475 1053L468.746 1045.9L465.891 1035.92L459 1040L458 1031L452 1030C451.607 1035.21 449.178 1038.02 445 1041L442 1031L438 1038L433 1037L429 1041L430 1036C428.423 1031.22 427.359 1028.42 422 1028L422 1027L426 1027L431 1011L421 1018C420.507 1013.78 422.868 1009.64 418 1008L414 1012L412 1005L403 1020L398 1020L399 993L383 1000L386.534 989.594L399 975C390.391 974.431 377.128 985.205 374 993L373 993L371 970L360 977L359 973L358 973L357 975L344 965L340 968L337 965L336 968L334 968L328 963C334.905 959.665 346.987 953.639 347 945L342 948C342.758 943.874 349.579 923.136 341.855 922.736C338.374 922.556 335.035 926.607 332 928L341 913L343 915C347.809 897.946 340.662 906.345 329 907C329.364 898.481 345.576 893.837 334 886C332.665 891.534 330.817 893.81 325 894L325 893L329 893C328.272 890.375 326.773 888.117 326 892L325 892C324.736 883.86 320.817 883.57 314 882L303.727 893.104L297 910L291 911L290 910L293 903L284 904L290 900L290 899L282 897L286 894L285 891L290 879L280 880L280 871L285 877L286 877C287.529 871.945 300.285 867.606 292 863L290 866L289 863L288 863L288 866L284 861C273.385 862.698 278.741 852.532 283.209 848.148C287.997 843.451 292.607 847.547 297.852 845.254C300.789 843.97 305.303 835.915 307 833L299 833C295.358 836.569 288.82 834.784 284 834L289 821C282.697 823.735 279.01 825.669 272 824C279.089 818.895 284.794 818.721 281 808C275.25 809.111 270.549 810.402 266 806C270.336 805.463 273.182 805.885 274 801L278 800L252 794L251 794L248 796L220 784L225 780L224 775L235 772C232.816 768.81 228.592 767.986 232 764L232 762L228 761C229.92 757.442 232.02 756.683 236 757C239.18 750.995 235.668 750.069 233 745L243 744L243 734C239.404 735.446 234.185 740.065 230.17 739.173C227.303 738.536 225.548 735.335 222.985 734.026C216.605 730.767 204.851 727.417 198 730L196 725L214 718L217 720C218.065 710.116 222.788 706.17 218 697L227 696L227 695L214 688L214 687L220 688L218 677L237.996 682.533L260 696L260 693L261 693C264.229 696.133 269.195 701.936 273 697L260 687.086L231.015 674.304L217 659L234 665.556L246 668L247 663L274 674L273 659L277 662L280 661C282.695 665.986 286.115 664.642 291 664L294 658L299 649L296 650C295.291 645.556 293.394 644.335 289 644L289 635L295 634L297 638L304 636L304 631L294 628L289.588 611.325L274 601L279 602L280 597L282 600L289 600L290 597L301 600L300 597L304 598C304.333 586.37 319.374 600.143 324 591C315.635 587.201 305.644 581.049 315 572L315 571C308.293 569.956 301.817 560.259 300 554C296.728 555.325 295.512 555.523 293 553L286 556L285 552L278 556L286.794 544.001L278 530L283 532C282.755 521.586 270.357 505.696 262 500L262 499L263 497C268.006 496.445 265.251 492.378 264 489L266 491L267 491C274.813 488.035 280.137 500.156 286 504L282 492C288.652 494.348 291.543 491.707 293 485L302 485L304 488C306.126 474.346 320.385 479.532 327.853 473.276C333.684 468.391 333.754 460.545 343 460L360 443L356 443L357 437L353 436L353 434L369 427L369 426L357.174 418.256L352.616 426.88L330 446L319 449.992L291 460L286 451C281.455 452.173 278.834 452.091 278 447L276 447L273 452L275 440C278.517 439.828 279.284 438.361 280 435L277 439L271 439L270 439L270 444L269 444C268.645 440.099 267.349 428.148 274 430L275 430L279 428L270.913 423.853L274 406L280 412L281 407L278 408L286 404L282 397C276.985 396.78 275.875 393.65 276 389L277 389L278 394L279 394L279 379C283.474 376.099 282.269 370.494 278 368L281 360C287.068 362.268 294.745 362.873 296 355L292 356C292.956 348.868 293.447 342.005 300 338L298 329L299 329L302 332L299 313L300 312L303 315L304 315L306 314L305 312L305 311L310 320L322 310L328 304L330 308L327 295L330 302L331 302L332 294L327 287L335 289L335 292L341 291L341 289L338 285L341 286L337.436 273.599L327.028 266.571L324 253L325 253L332 256L324 250C324.166 248.286 324.564 246.999 323.224 245.579C320.72 242.926 316.059 244.099 313.252 241.427C308.873 237.26 313.27 232.592 318 233L325 222L326 222C332.891 226.136 332.079 216.111 336.317 214.252C341.664 211.907 345.843 220.514 350 213C352.892 212.687 353.072 211.923 353 209L357 208L360 201L358 193L362 194L370 187L370 190L376 190C376 185.547 381.788 186.214 384 189C391.094 185.58 398.519 196.059 404 200L405 197L406 197L406 201L414 186C415.006 174.774 422.083 192.022 423 195L426 194C427.093 197.188 429.958 198.922 431.282 202.018C432.508 204.888 431.642 208.098 432.743 211C435.694 218.781 442.221 220.631 449 223L451 215L466 228L469 221C461.814 217.259 459.484 211.642 462 204L463 204L468 210L469 205L476 210L473 199L474 199L474 203L475 203L476 192L472 190L479 189L475 179L479 179L480 179L483 182C483.73 174.226 471.897 167.194 476 161L471 147L478 150L483 142L482 146C484.758 144.476 485.772 141.473 482 141L482 133L484 133L484 138L489 137L490 140C495.723 136.844 495.542 127 496 121L497 121L505 126L509 112L510 112L514 115C516.682 110.709 520.065 109.484 525 109L522 98C535.418 98.0104 539.348 117.95 540 130L543 123L544 123L551 143L556 144L557 140C551.822 138.798 553.241 133.715 555 130L556 130L561 138L562 127L569 122C569.811 125.732 567.799 132.553 570.724 135.338C575.734 140.109 581.998 117.968 583 115L590 121L588 132L592 127L593 127L598 132C593.612 123.127 593.745 116.317 591.53 107C590.037 100.718 586.58 94.3081 592 89L592 96L595 96L597 91C596.917 95.1301 598.265 98.0651 602 100C599.558 81.7784 599.152 58.3691 606.04 40.9961C611.828 26.3979 621.948 15.7286 625 0L0 0z"/>
<path style="fill:#040404; stroke:none;" d="M602 100L597 91L595 96L592 96L592 89C588.164 91.4866 588.551 96.7696 589.339 101C591.266 111.342 591.808 123.244 598 132L593 127L592 127L588 132L590 121L583 115C581.768 117.649 575.266 139.406 570.738 134.534C568.143 131.742 570.03 125.585 569 122L562 127L561 138L556 130L555 130C552.582 133.798 551.527 138.858 557 140L556 144L551 143L544 123L543 123L540 130L534.43 107.089L531.483 99.0239L522 98L525 109C519.998 109.086 516.021 110.176 514 115L510 112L509 112L505 126L497 121L496 121C495.128 127.453 495.259 135.62 490 140L489 137L484 138L484 133L482 133L482 141C485.841 141.505 484.237 144.241 482 146L483 142C479.349 143.809 478.297 145.999 478 150L471 147L476 161C470.735 165.699 483.023 175.584 483 182L480 179L479 179L478 181L477 181L475 179L479 189L472 190L476 192L475 203L474 203L474 199L473 199L476 210L469 205L468 210L463 204L462 204C458.86 211.434 461.09 218.302 469 221L466 228L451 215L449 223C446.661 221.616 443.951 222.049 441.714 220.474C432.961 214.313 430.867 202.681 426 194L423 195C422.199 191.343 414.28 174.361 414 186L406 201L406 197L405 197L404 200C399.361 195.266 390.854 184.709 384 189C381.852 185.628 376.62 185.648 376 190L370 190L370 187L362 194L358 193L360 201C356.871 202.831 356.339 204.473 357 208L353 209C353.05 211.646 352.775 212.815 350 213C344.729 219.148 342.061 211.72 336.317 213.711C331.206 215.484 333.715 223.5 326 222L325 222C320.413 225.423 319.07 227.432 318 233C313.735 232.032 308.481 235.876 311.708 240.656C315.377 246.093 323.159 242.015 324 250L332 256L325 253L324 253L327.028 267.277L337.436 274.376L341 286L338 285L341 289L341 291L335 292L335 289L327 287L332 294L331 302L330 302L327 295L330 308L328 304C324.192 304.827 323.202 306.373 322 310L320 308L310 320L305 311L306 314L304 315L303 315L300 312L299 313L302 332L299 329L298 329L300 338C292.784 340.956 292.566 349.039 292 356L296 355C293.835 362.469 287.273 361.745 281 360L278 368C281.864 371.411 282.861 375.204 279 379L279 394L278 394L277 389L276 389C275.292 393.802 276.554 397.793 282 397L286 404L278 408L281 407L280 412L274 406L270.832 424.4L279 428L275 430L274 430C267.173 426.448 268.375 440.467 269 444L270 444L270 439L271 439L272 441L277 439L280 435L275 440L273 452C276.054 451.346 275.936 449.993 276 447L278 447C278.441 452.529 281.238 452.909 286 451L291 460L330 446L352.641 427.621L356.813 418.511L369 426L369 427L353 434L353 436L357 437L356 443L360 443L343 460C333.379 458.899 332.943 468.627 326.941 473.275C319.449 479.079 305.039 474.334 304 488L302 485L300 487L293 485C290.877 491.159 288.513 493.513 282 492L286 504C281.608 499.73 273.706 486.229 267 491L266 491L264 489C264.512 492.046 267.441 496.377 263 497L262 500C269.489 507.709 282.422 520.874 283 532L278 530L285.948 544.001L278 556L285 552L286 556L293 553C295.047 556.581 296.733 556.132 300 554C301.078 560.715 307.956 570.464 315 571L315 572C303.663 579.26 316.019 588.757 324 591C318.584 597.928 303.61 587.073 304 598L300 597L301 600L290 597L289 600L280 597L279 602L274 601L289.494 612.015L294 628L304 631L304 636L297 638L295 634L289 635L289 644C293.061 644.633 294.85 646.034 296 650L299 649L294 658L291 664C285.943 663.645 283.665 665.581 280 661L277 662L273 659L274 674L247 663L246 668L235 665.351L217 659L228.21 672.957L258 686.558L273 697L272 700L260 693L260 696L259 696C247.474 686.554 233.064 678.488 218 677L220 688L214 687L214 688L227 695L227 696L218 697L217 720L214 718L196 725L198 730C204.923 728.037 215.681 730.841 221.996 734.026C224.875 735.478 226.867 739.045 230.17 739.574C234.502 740.268 239.484 736.038 243 734L243 744L233 745C234.746 750.488 238.462 750.721 236 757C231.942 756.166 229.329 756.898 228 761L232 762L232 764C227.224 767.214 232.519 769.351 235 772L224 775L225 780L220 784L248 796L251 794L252 794L278 800L274 801C272.662 805.311 269.979 805.005 266 806C269.64 811.191 275.644 809.385 281 808C284.013 819.332 278.236 817.625 272 824C278.601 825.951 283.321 824.572 289 821L284 834C288.484 835.182 296.162 837.356 299 833L307 833C304.333 836.06 301.1 842.982 297.852 844.806C292.631 847.739 287.268 843.03 282.376 848.148C278.211 852.506 273.348 864.745 284 861C284.925 863.344 287.419 867.793 288 863L289 863L290 866L292 863C298.45 868.829 286.995 871.014 286 877L285 877L280 871L280 880L290 879L285 891L286 894L282 897L290 899L290 900L284 904L293 903L290 910L291 911L297 910L303.727 894.043L314 882C319.903 884.622 324.411 884.185 325 892L326 892L326 889L329 893L325 893L325 894C331.111 893.927 333.08 892.086 334 886C344.437 895.952 327.599 897.111 329 907L344.211 903.828L343 915L341 913C336.761 917.592 331.457 921.181 332 928C335.195 927.098 338.555 923.068 341.842 923.306C348.92 923.82 342.481 943.95 342 948L347 945C346.368 953.699 334.367 958.618 328 963L334 968L336 968C337.976 966.149 338.57 965.569 340 968L344 965L357 975L358 973L359 973L360 977L371 970L373 993L374 993C378.46 985.067 389.788 976.186 399 975L386.498 988.862L383 1000C389.574 1001.6 393.398 995.583 399 993L398 1020L403 1020L412 1005L414 1012L418 1008L421 1018L431 1011L426 1027L422 1027L422 1028C426.975 1028.79 428.041 1031.7 430 1036L429 1041L433 1037L438 1038L442 1031L445 1041C450 1038.64 451.823 1035.45 452 1030L458 1031L459 1040L465.816 1036.63L468.742 1046.79L475 1053L476 1053L480 1051L487 1057L493 1043L498 1044C498.394 1034.84 497.283 1028.41 492.906 1020.09C489.395 1013.42 485.37 1011.49 485 1003L488 1004L490 987L491 987L493 1003L494 1003L495 998L497 999L502 988C505.578 989.877 506.557 992.032 507 996L508 996L512 982L513 982L516 988L517 983L518 983C520.215 986.328 522.144 985.004 524 982L526 982L530 991L532 989L533 989L532 994C542.107 992.752 543.999 996.4 544 1006L548 994L551 995L550 998L553 998C553.791 1001.63 561.094 1013.89 563.678 1004.79C566 996.606 559.26 989.072 565 981L574 992L573 987L574 987L576 993L580 992L574 954L586 968L584 940L586 943L589 942L590 933L593 934L593 917L596 918L596 916L600 918C599.218 910.21 593.836 900.925 606 900C606.859 894.61 609.971 893.747 615 894L615 891L618 891L613 900C620.159 901.641 622.786 898.567 625 892L626 892L639 920L640 920L640 913L641 913L645 927L646 925L647 925L650 927L650 928L644 929L650 936C642.627 934.553 636.374 936.161 640 945L642 945L643 942L650 943L650 947C657.255 944.835 659.161 947.143 666 949C662.864 954.726 657.435 955.473 659 963C653.707 963.248 653.168 967.957 649.88 971.406C642.535 979.109 626.107 988.058 628 1000L629 1000L635 997C632.629 1000.1 628.763 1002.48 627.042 1006.01C625.459 1009.26 627.733 1013.44 624.953 1016.17C615.485 1025.46 597.411 1030.46 596 1046C602.354 1043.86 608.033 1039.98 614.576 1038.03C619.671 1036.52 626.277 1037.4 630.961 1034.97C643.878 1028.28 656.18 1012.77 665.502 1001.83C675.095 990.575 691.395 969.933 709 975L694.434 986.418L690.976 994.791L677.726 1008.57L662 1016.25L647.582 1034.99L632 1058L655 1057L647 1072C657.122 1067.49 668.552 1060.37 671 1049L674 1049C676.188 1057.28 675.161 1061.11 667 1065L667 1068L670 1071L694 1059C691.773 1067.01 686.803 1068.89 689 1078L698 1074L700 1080C715.62 1080 735.686 1083.41 750 1077C750.663 1080.09 753.923 1081.19 755.75 1077.89C759.643 1070.85 757.095 1056.49 752 1051C755.444 1048.99 755.918 1046.8 755 1043L763 1047L764 1056L769 1049L772 1060L769 1061L769 1080L773 1071L774 1071L774 1077C778.5 1075.54 779.59 1071.23 781 1067C786.285 1069.52 790.14 1074.48 792 1080C799.315 1080 813.089 1082.48 819 1078C821.839 1080.46 827.036 1081.5 828 1077C833.966 1081.03 855.355 1083.44 860 1077L861 1080L872 1080L878 1064L882 1066L882 1061L876 1064L879 1053L879 1056C888.587 1053.39 896.451 1041.97 891 1033L898 1026L899 1026L900 1041L904 1037C914.735 1040.26 902.552 1050.68 900 1056L910 1056L917 1026L918 1030L923 1028L924 1032L928 1032L928 1027C930.425 1031.43 931.858 1036.4 937 1038L938 1035C944.57 1040.52 929.683 1056.58 944 1061L940 1073L934 1071L933 1076C950.549 1075.48 942.576 1062.45 943.433 1052C943.812 1047.37 947.091 1043.57 947.787 1039C948.899 1031.7 945.593 1025.87 944 1019L949 1025C952.963 1025.98 953.703 1028.07 954 1032L959 1029C959.025 1031.76 959.317 1034.28 959.758 1037C960.658 1042.55 964.268 1052.28 968.146 1041C970.276 1034.79 968.298 1020.4 974 1017L974 1029C982.554 1024.88 979.665 1017.72 976 1011C981.397 1009.3 981.142 1004.86 980 1000L984 999L982 1006L984 1014C989.909 1014.93 991.85 1019.05 998 1016L996 1024L1000 1024L985 1052L989 1050L990 1053L987 1054L987 1056L988 1057C997.358 1057.93 997.185 1066.05 999 1073L1002 1069L1004 1069C1006.07 1072.54 1009.4 1073.63 1012 1070L1019 1072L1018 1057L1022 1062L1030 1060L1024 1046L1031 1048C1041.08 1037.86 1038.28 1059 1038.97 1062.96C1039.55 1066.24 1042.86 1068.79 1044 1072C1039.44 1071.31 1035.67 1072.06 1033 1076L1036 1080L1049 1080C1049.36 1071.57 1051.17 1062.45 1049.56 1054.04C1049.28 1052.59 1044.72 1046.91 1047.44 1046.17C1049.81 1045.52 1051.57 1049.34 1052.18 1051C1054.01 1056.03 1057.12 1077.42 1064 1062L1065 1062C1064.05 1067.93 1064.91 1073.7 1072 1074L1072 1080L1078 1077C1079.03 1081.81 1093.35 1079.98 1098 1080L1098 1071C1104.98 1075.06 1103.15 1079.99 1113 1080L1110 1075L1116 1078C1113.18 1063.53 1097.39 1059.01 1088.86 1047.96C1085.16 1043.15 1085.22 1036.77 1084.59 1031C1083.68 1022.6 1082.57 1019.26 1091 1013.84C1095.62 1010.87 1101.85 1011.93 1107 1010C1107.44 1005.43 1110.45 999.418 1115 998L1117 993L1119 993C1120.73 999.931 1122.3 1009.7 1130 1012L1128 1007L1131 1005L1135 1014L1136 1014L1135 1008L1135 1007C1138.22 1002.65 1136.23 990.02 1131 988L1131 969L1132 969C1137.07 983.679 1154.04 985.306 1153 1004C1160.31 1006.59 1171.08 1026.37 1173 1034C1177.92 1030.56 1174 1026.65 1173.8 1022C1173.32 1011.27 1167.14 1003.92 1168 993L1170 998L1174 998L1175 990L1179 991C1179.69 999.807 1187.6 992.138 1190 1000L1195 995C1195.02 1001.65 1196.74 1006.83 1203 1010L1206 1007C1207.54 1011.45 1213.57 1015.73 1218 1017C1217.61 1010.93 1209.71 1000.79 1216 997C1216.54 1004.21 1222.34 1008.71 1225.33 1015C1230.84 1026.61 1227.55 1052.81 1239 1060L1238 1033L1239 1033C1240.39 1038.31 1241.05 1042.73 1247 1044L1247 1029L1253 1032L1250 1021L1265 1016C1263.72 1009.17 1273.73 1002.58 1274 1012L1280 1009L1278 1006L1278 1005C1289.03 1002.59 1273.31 975.365 1272 968L1284 982L1288 981L1286 988L1290 988L1291 984L1297 989L1298 979L1302 979L1300 981L1303 988L1308 985L1315 994L1322 994C1320.77 990.795 1320.3 986.147 1318.14 983.498C1316.26 981.192 1312.75 980.708 1311.53 977.786C1307 966.98 1304.34 948.076 1306 937L1305 937L1304 940L1302 940L1301 933L1306 932L1312 957L1317 955L1318 955L1321 966L1324 969L1335 966C1334.43 977.42 1345.03 979.373 1340 967L1348 972L1349 963L1353 968L1354 965L1361 968L1362 968C1366 954.99 1380.63 960.395 1389 968C1389.98 964.734 1389.71 960.163 1393.15 958.357C1397.72 955.96 1412 957.127 1412.96 948.871C1413.44 944.76 1405.62 936.133 1403 933L1406 929L1412 933L1425 915L1434 921L1436 921L1438 917C1443.47 925.91 1452.99 915.371 1445 915L1445 907L1449 908L1449 904L1452 908L1453 908C1453.6 904.383 1453.25 902.806 1450 901L1447 904L1448 899C1443.41 896.9 1439.8 895.573 1440 890L1446 896L1454 890L1455 890L1459 893L1465 873L1469 874L1473 867L1473 866L1471 863L1484.53 862.915L1487.06 855.419L1496 851L1496 847L1500 848L1501 843L1502 843L1505 845L1505 841L1502 842L1500 835L1506 836C1510.08 831.58 1522.8 830.056 1518 821L1514 824L1515 819C1510.27 814.045 1515.15 812.677 1520 812L1520 811L1516 810L1518 807L1513 808L1518 805C1516.23 801.06 1515.6 799.109 1519 796L1519 795C1514.33 792.612 1511.82 789.948 1510 785C1487.05 783.204 1464.97 781.256 1443 790L1439 784L1439 782L1440 781L1453 780L1451 777C1454.01 774.997 1453.28 773.482 1451 771C1458.44 768.693 1478.49 769.317 1481 761C1489.19 761.914 1508.97 766.056 1512 756L1519 758L1520 755L1514 754L1514 753L1517 751C1512.24 747.997 1500.78 744.109 1510 739L1503 729C1507.2 728.91 1510.68 728.787 1513 725C1520.67 729.934 1524.16 720.157 1530.17 717.593C1536.23 715 1548.26 716.289 1555 716L1555 715C1548.28 712.332 1544.44 705.184 1537 708C1535.29 700.88 1530.61 700.019 1524 700L1524 699C1533.16 698.968 1533.59 695.364 1528 689L1525 690L1524 684L1527 685L1527 681L1524 682C1520.17 677.585 1514.47 679.775 1518 672L1519 672L1535.91 677.649L1558 706C1565.44 706.516 1571.22 709.297 1575 716L1582 714L1583 714L1582 711L1594 704L1590 693L1595 694C1595 682.603 1588.45 675.992 1583.78 666C1575.43 648.135 1572.68 626.503 1553 616L1553 615L1559 612L1559 611L1542 597C1553.13 601.602 1548.34 589.103 1546 583L1555 588L1551 577C1554.9 576.164 1553.98 573.61 1551 572L1551 571L1569 574.047L1584 581L1586 561L1582 544L1587 539L1582 538C1586.76 527.352 1578.35 520.36 1567 522L1568 515L1557 504L1557 503L1563 498L1561 489L1557 488L1557 487L1573 479C1577.03 486.935 1588.93 487.137 1597 488L1595 480L1590 477L1608 472L1613 468L1613 457L1617 456L1613 447C1606.27 447 1613.19 436.885 1618 436L1618 411L1603 413L1600 416C1602.6 404.121 1596.7 409.193 1589.01 407.964C1586.13 407.502 1583.82 404.876 1581 404L1584 395C1579.45 393.938 1577.1 390.555 1582 388L1578 374L1586 376C1585.11 369.857 1581.54 369.031 1576 369C1577.41 361.389 1576.09 355.506 1572 349L1566 352C1568.75 346.227 1571.98 338.267 1577.3 334.383C1584.68 328.994 1596.25 328.752 1604.37 325.244C1609.79 322.902 1606.49 314.785 1614 317L1616 313L1612 312L1618 302L1626 302L1636 296L1636 293L1633 291L1634 290C1641.12 294.47 1649.92 278.663 1638 276C1639.96 272.369 1647.21 268.954 1642 265L1641 269L1638 268L1640 257L1636 258L1634 251L1628 250L1634 244L1633 241L1620 241L1619 241L1601 246L1605 237L1606 240L1614 238L1614 237L1610 237L1604 229C1600.48 232.653 1598.12 231.698 1595 228L1562 235.336L1524 240L1523 236C1512.69 238.12 1499.01 238.648 1489 235C1484.37 240.314 1472.88 239.648 1466 240L1471 234C1467.96 224.38 1456.09 236.333 1454.59 230.677C1453.96 228.32 1456.52 224.423 1457 222L1435 228L1438 221L1422 226.906L1409 223.349L1388 225L1387 225L1378 233C1377.74 225.856 1375.61 215.9 1379.32 209.184C1382.51 203.402 1389.85 202.158 1391 195L1392 195L1393 197C1398.46 188.75 1401.86 179.2 1407.07 171.259C1410 166.804 1415.48 164.249 1417.39 159.004C1420.55 150.312 1418.51 140.74 1422.13 132C1427.45 119.176 1446.03 104.521 1439.11 88.1736C1437.27 83.8273 1432.02 82.3206 1429 79C1424.1 81.1759 1418.56 81.1777 1414.01 83.7546C1408.67 86.7826 1405.58 92.4495 1400.91 96.3495C1385.68 109.073 1375.4 117.437 1367 136L1365 131L1362 131L1357 152L1356 152L1353 142L1352 142L1343 148L1344 141L1337 145L1337 142L1335 142L1335 145C1328.11 139.582 1333.19 125.421 1331 118L1327 122L1316 121C1313.91 124.82 1311.86 124.223 1308 123L1302 129L1299 125L1298 130L1294 131L1293 131L1290 129L1289 144C1282.8 144.883 1276.52 147.201 1276 154L1275 154C1272.94 150.071 1270.32 149.236 1266 149L1269 138L1265 137L1268 133L1258 142L1254 131L1255 134L1250 131L1245 136C1241.5 125.095 1234.54 124.471 1224 123L1214 133L1213 133L1208 127L1207 127L1189 133L1195 146L1191 145C1189.29 154.678 1196.45 163.292 1182 160C1177.11 169.718 1173.69 163.439 1166.31 166.761C1163.08 168.218 1161.15 173.707 1158 176C1159.08 169.636 1161.08 161.428 1152 167L1157 152L1144 160L1141 159L1135 180L1127 169C1134.17 167.47 1138.54 149.511 1131 147C1128.22 156.028 1125.69 162.089 1118 168L1121 144L1117 152C1113.34 142.415 1122.66 126.911 1124 117C1129.42 116.168 1146.59 106.196 1138 100L1145 96L1147 84L1143 84C1142.94 79.3086 1142.39 77.0867 1138 75C1135.98 80.0512 1133.22 80.9382 1128 81L1128 84L1124 84L1126 75L1121 78L1119 67L1128 51C1121.16 46.9659 1126.45 42.7242 1128 37C1118.21 36.4843 1119.2 25.8143 1116 19L1112 26L1110 14L1104 16L1105 12L1099 15L1099 3L1081 16L1082 8L1078 7L1079 12L1068 14L1068 11L1063 10L1060 17L1059 17C1058.06 5.14014 1054.97 0 1043 0C1042.88 3.65894 1042.77 5.9845 1039 7L1040 0L1001 0L1001 20L1000 20L996 1L995 1C994.204 11.0892 996.949 25.485 988 32L990 0L985 0L986 8C967.517 0.249634 976.286 22.5195 971.822 30.9598C967.974 38.2349 960.111 38.7083 960 48L959 48L957 39C953.118 40.1775 952.301 42.0481 952 46L949 45L946 48L946 27C938.791 30.0801 938.446 35.3019 936 42L932 41L933 31L926 44L926 37L924 37L921 46C919.703 43.6462 920.233 38.6125 918.354 37.0316C914.274 33.5979 910.017 37.8947 908 31L902 35L901 35L885 27C890.752 24.1154 896.464 19.8157 897 13L891 16L887 11C877.953 19.9601 880.834 25.1299 878 37C866.772 29.5671 871.913 27.3308 874 17L868 24L864 23L864 25L858 21C856.187 24.6514 854.333 23.2129 851 22L849 28L848 28C846.117 16.2825 835.134 25.4811 827 25L832 42C821.396 33.7089 816.453 27.1788 810 16L809 16L800 17L799 21L801 22L803 22L804 20L805 26C798.7 23.3855 791.919 28.41 799 33L799 34L795 38L794 38L790 33L786.361 38.1111L788 48L786 48L780 29C775.058 29.3846 772.619 30.7056 770 35L772 36L777 33L772 40L771 40C769.899 36.6864 768.052 35.8987 766 39L762 32L761 32L755 49L755 52L746 45L746 52L738 48L739 43L732 46C731.175 42.1307 727.562 42.1796 724 42L730 56C725.827 55.3789 722.063 56.9628 721 52L726 52C723.838 47.4791 720.9 45.661 716 45L720 49L720 63C713.182 62.1074 709.792 58.466 708 52L700 51L699 57L695 55L695 60L699 57L700 57L704 68C699.023 68.4217 697.821 65.5508 695 62L691 67L684.943 40L692 0L646 0C640.678 0 631.247 -1.82349 626.433 0.603394C622.217 2.72888 621.465 13.6925 618.802 17.7407C603.114 41.5848 596.1 71.3838 602 100z"/>
<path style="fill:#fcfcfc; stroke:none;" d="M692 0L687.714 28L684.597 40L691 67L695 62C697.362 66.1934 698.807 69.1563 704 68L700 57L699 57L699 60L695 60L695 55L699 57L700 51L708 52C709.207 58.965 712.865 62.5258 720 63L720 49L716 45L726 52L721 52L720 55L730 56L724 42L732 46L739 43L738 48L746 52L746 45L755 52L755 49C761.732 46.3582 758.221 37.8318 761 32L762 32L766 39C768.439 36.9331 769.396 37.267 771 40L772 40L777 33L772 36L770 35L780 29L786 48L788 48L790 33L794 38L795 38L799 34L799 33C793.056 27.1556 798.995 24.2701 805 26L804 20L801 22L799 21L800 17C803.623 18.2383 805.952 18.4475 809 16L810 16C815.045 27.3492 820.488 35.7289 832 42L827 25C835.46 26.3463 845.035 16.7749 848 28L849 28L851 22C854.214 23.6921 856.795 25.2205 858 21L864 25L864 23L868 24L874 17C870.909 26.2886 865.931 31.6163 878 37L879.757 19.0193L887 11L891 16L897 13C895.957 19.494 890.051 23.42 885 27L901 35L902 35L908 31C909.261 38.9015 914.665 33.335 918.188 37.618C920.231 40.1022 918.429 43.2919 921 46L924 37L926 37L926 44L933 31L932 41L936 42C939.129 35.5374 939.423 31.1515 946 27L946 48L949 48L949 45L952 46L957 39L959 48L960 48C960.286 39.2788 968.126 38.6608 971.822 31.9066C976.935 22.5634 967.329 2.47021 986 8L985 0L913 0C907.959 0 891.197 -2.58704 890 3L889 3L889 0L692 0z"/>
<path style="fill:#040404; stroke:none;" d="M889 0L889 3L890 3L889 0z"/>
<path style="fill:#fcfcfc; stroke:none;" d="M988 32C997.351 27.4929 994.611 10.0535 995 1L996 1L1000 20L1001 20L1001 0L990.782 1.02771L990.812 11L988 32M1040 0L1039 7L1042 8L1043 0L1040 0M1054 0L1059 17L1060 17L1063 10L1068 11L1068 14L1079 12L1078 7L1082 8L1081 16L1099 3L1099 15L1105 12L1104 16L1110 14C1109.97 18.1804 1108.28 23.29 1112 26L1116 19C1118.21 25.7994 1118.2 38.0347 1128 37C1125.69 42.2321 1120.22 48.0195 1128 51L1119 67L1121 78L1126 75L1124 84L1128 84L1128 81C1133.33 80.9811 1136.61 80.6757 1138 75C1141.75 77.5773 1142.85 79.4505 1143 84L1147 84C1145.63 88.863 1142.44 90.9355 1145 96L1138 100C1144.48 107.424 1129.92 115.36 1124 117C1122.22 125.513 1112.61 144.148 1117 152L1121 144L1118 168C1126.18 163.742 1129.35 155.665 1131 147C1138.09 151.01 1133.9 166.519 1127 169L1135 180C1140.75 174.926 1139.17 165.994 1141 159L1144 160L1157 152L1152 167C1160.92 163.24 1158.66 169.355 1158 176C1162.25 173.952 1162.69 169.269 1166.31 167.233C1173.23 163.343 1178.17 170.832 1182 160C1196.66 164.644 1190.02 154.484 1191 145L1195 146L1189 133L1207 127L1208 127L1213 133L1214 133L1224 123C1234.57 125.942 1240.09 125.04 1245 136L1250 131L1255 134L1254 131L1258 142L1268 133L1265 137L1269 138L1266 149L1275 154L1276 154C1277.01 147.54 1283.18 145.446 1289 144L1290 129L1293 131L1294 131L1298 130L1299 125L1302 129L1308 123C1311.94 125.048 1314.53 125.79 1316 121L1327 122L1331 118C1332.56 123.789 1328.02 143.473 1335 145L1335 142L1337 142L1337 145L1344 141L1343 148L1352 142L1353 142L1356 152L1357 152L1362 131L1365 131L1367 136L1380.52 113.286L1401.83 96.3495L1413.04 84.9599L1429 79C1431.25 84.1765 1438.94 84.3108 1439.75 91C1441.84 108.167 1427.4 117.018 1422.03 131C1417.76 142.1 1421.2 154.977 1413.08 164C1406.51 171.31 1402.78 179.477 1397.94 188C1396.86 189.917 1393.89 196.616 1392 195L1391 195C1389.13 201.369 1382.45 202.933 1379.32 208.325C1375.55 214.82 1376.72 226.079 1378 233L1387 225L1388 225L1409 223.639L1422 227.402L1438 221L1435 228L1457 222C1456.41 223.798 1455.69 225.302 1454.9 227.02C1450.44 236.798 1467.36 227.093 1471 234L1466 240C1472.75 239.843 1485.45 241.268 1489 235C1497.65 239.16 1513.92 238.552 1523 236L1524 240L1552.96 237.085L1595 228C1597.38 232.17 1601.14 233.272 1604 229L1610 237L1614 237L1614 238L1605 237L1601 246L1619 241L1620 241L1634 244L1628 250L1634 251L1636 258L1640 257L1638 268L1641 269L1642 265C1646.31 269.734 1639.44 271.604 1638 276C1648.43 279.35 1641.3 293.717 1634 290L1633 291L1636 293L1636 296C1631.94 297.086 1627.49 297.746 1626 302L1618 302L1612 312L1616 313L1614 317C1606.49 313.34 1609.39 322.942 1603.56 325.018C1586.23 331.182 1572.72 332.294 1566 352L1572 349C1575.03 356.101 1576.97 361.165 1576 369C1581.37 369.491 1584.52 370.266 1586 376L1578 374L1582 388C1575.79 389.648 1578.66 395.081 1584 395L1581 404C1583.59 405.311 1586.06 408.029 1589.01 408.424C1596.69 409.449 1601.35 404.677 1600 416L1603 413L1618 411L1618 436C1613.15 436.657 1605.78 445.92 1613 447L1617 456L1613 457L1613 468L1608 472C1601.82 471.353 1595.15 473.692 1590 477L1595 480L1597 488C1588.06 485.904 1579.02 486.847 1573 479L1557 487L1557 488L1561 489C1559.12 492.487 1561.1 494.818 1563 498L1557 503L1557 504L1568 515L1567 522C1578.81 522.4 1585.22 526.667 1582 538L1587 539L1582 544L1586 561L1584 581L1551 571L1551 572C1552.99 574.239 1553.61 575.225 1551 577L1555 588L1546 583C1547.86 589.478 1552.54 599.958 1542 597C1542.83 600.884 1555.01 610.167 1559 611L1559 612L1553 615L1553 616C1562.41 623.584 1572.23 634.778 1576.99 646C1579.88 652.806 1580.64 660.279 1583.78 667C1588.21 676.462 1594.99 683.21 1595 694L1590 693L1594 704L1582 711L1583 714L1582 714L1581 712L1575 716C1572.46 709.113 1565.15 705.231 1558 706C1553.76 697.084 1543.72 681.409 1534.96 676.479C1529.82 673.587 1524.11 674.366 1519 672L1518 672C1513.77 679.26 1519.38 678.473 1524 682L1527 681L1527 685L1524 684L1525 690L1528 689C1531.83 695.291 1533.44 698.888 1524 699L1524 700C1530.53 700.059 1534.51 701.631 1537 708L1555 715L1555 716C1548.16 716.141 1535.43 714.873 1529.29 717.589C1523.1 720.324 1521 728.59 1513 725L1503 729L1510 739C1498.77 742.958 1511.93 748.709 1517 751L1514 753L1514 754L1520 755L1519 758L1512 756C1507.27 765.454 1489.99 761.653 1481 761C1476.7 769.358 1458.95 767.8 1451 771C1452.67 773.622 1453.03 774.612 1451 777L1453 780L1440 781L1439 782L1439 784L1443 790C1466.25 783.258 1486.11 784.04 1510 785C1511.23 790.35 1513.85 793.183 1519 795L1519 796C1514.75 798.492 1515.53 801.279 1518 805C1515.01 805.064 1513.65 804.946 1513 808L1518 807L1516 810L1520 811L1520 812C1515.22 812.265 1508.16 814.494 1515 819L1514 824L1518 821C1521.34 831.036 1509.54 830.213 1506 836L1500 835L1502 842L1505 841L1505 845L1502 843L1501 843L1500 848L1496 847L1496 851L1487.03 854.702L1484.48 862.424L1471 863L1473 866L1473 867L1469 874L1465 873C1459.33 880.384 1460.44 884.117 1459 893L1455 890L1454 890L1446 896L1440 890C1438.91 895.839 1443.05 897.392 1448 899L1447 904L1450 901L1453 908L1452 908L1449 904L1449 908L1445 907L1445 915C1451.97 915.632 1444.5 924.209 1438 917L1436 921L1434 921C1432.11 916.544 1429.39 916.19 1425 915C1421.01 921.889 1412.25 924.925 1412 933L1406 929L1403 933C1405.1 936.627 1412.85 944.692 1412.23 948.871C1410.97 957.351 1396.86 955.444 1392.32 958.322C1389.44 960.146 1389.71 965.008 1389 968C1385.11 963.064 1371.1 956.078 1364.6 960.153C1362.55 961.442 1362.52 965.858 1362 968L1361 968C1358.84 964.012 1355.38 964.386 1353 968L1349 963L1348 972L1340 967C1343.47 979.302 1334.85 976.092 1335 966L1324 969L1321 966C1322.4 961.117 1321.19 958.702 1318 955L1317 955L1312 957L1306 932L1301 933L1302 940L1304 940L1305 937L1306 937L1307.99 956.911L1311.36 978.607L1318.14 984.275L1322 994L1315 994L1308 985L1303 988L1302 979L1298 979L1297 989L1291 984L1290 988L1286 988L1288 981L1284 982L1272 968C1272.82 976.052 1288.51 1001.1 1278 1005L1278 1006L1280 1009L1274 1012C1275.18 1001.46 1261.94 1008.41 1265 1016L1250 1021L1253 1032L1247 1029L1247 1044C1241.55 1042.05 1240.76 1038.06 1239 1033L1238 1033L1239 1060C1228.08 1049.64 1231.19 1028.26 1225.78 1015C1223.15 1008.56 1217.06 1004 1216 997C1208.58 999.618 1217.31 1011.4 1218 1017L1206 1007L1203 1010C1197.73 1005.97 1195.08 1001.64 1195 995L1190 1000C1188.6 991.87 1180.28 998.953 1179 991L1175 990L1174 998L1170 998L1168 993C1166.7 1003.26 1172.35 1005.83 1174.15 1015C1174.65 1017.51 1173.04 1019.55 1173.1 1022C1173.23 1026.88 1177.36 1029.79 1173 1034C1171.94 1026.59 1160.33 1005.56 1153 1004C1155.16 985.582 1138.88 982.742 1132 969L1131 969L1131 988C1136.22 990.998 1137.43 1001.83 1135 1007L1135 1008L1136 1014L1135 1014L1131 1005L1128 1007L1130 1012C1122.73 1008.46 1121.33 1000.12 1119 993L1117 993L1115 998C1109.89 998.934 1107.1 1005.09 1107 1010C1102.27 1011.33 1096.28 1010.56 1092 1012.61C1082.06 1017.38 1083.02 1022.19 1084.22 1031C1085.03 1036.9 1084.95 1044.04 1088.86 1048.9C1097.47 1059.58 1112.36 1064.12 1116 1078L1110 1075C1114.07 1081.01 1119.36 1080 1126 1080L1160 1080L1308 1080L1920 1080L1920 0L1054 0z"/>
<path style="fill:#040404; stroke:none;" d="M1063 5L1063 9L1064 9L1063 5M889 6L889 8L891 8L889 6M1071 6L1071 10L1072 10L1071 6M832.667 7.33337L833.333 7.66663L832.667 7.33337M1085 7L1085 8L1088 8L1085 7z"/>
<path style="fill:#fcfcfc; stroke:none;" d="M982 8L980 15L981 15L982 8z"/>
<path style="fill:#040404; stroke:none;" d="M892 9L894 12L892 9z"/>
<path style="fill:#fcfcfc; stroke:none;" d="M1092 11L1092 12L1095 12L1092 11z"/>
<path style="fill:#040404; stroke:none;" d="M838 12C837.895 16.1261 840.643 17.3287 844 15L840 12L838 12z"/>
<path style="fill:#fcfcfc; stroke:none;" d="M1040 13L1039 16L1040 16L1040 13M886.333 16.6666L886.667 17.3334L886.333 16.6666M1067.33 16.6666L1067.67 17.3334L1067.33 16.6666M1076 17L1076 20L1079 19L1079 18L1076 17M888.667 19.3334L889.333 19.6666L888.667 19.3334M981 21L980 24L981 21z"/>
<path style="fill:#040404; stroke:none;" d="M828 23L829 24L828 23z"/>
<path style="fill:#fcfcfc; stroke:none;" d="M1115 23L1116 24L1115 23M886 24L887 25L886 24z"/>
<path style="fill:#040404; stroke:none;" d="M691 25L692 26L691 25z"/>
<path style="fill:#fcfcfc; stroke:none;" d="M843 25L844 26L843 25M1114.67 25.3334L1115.33 25.6666L1114.67 25.3334z"/>
<path style="fill:#040404; stroke:none;" d="M1121 25L1120 26L1120 27L1120 28L1123 25L1121 25z"/>
<path style="fill:#fcfcfc; stroke:none;" d="M1000 26L997 34C1000.45 32.1433 1002.24 29.5647 1000 26M976.333 27.6666L976.667 28.3334L976.333 27.6666z"/>
<path style="fill:#040404; stroke:none;" d="M783 29C784.479 32.6799 786.288 33.0017 790 32L790 30L783 29M876 28L878 32L876 28z"/>
<path style="fill:#fcfcfc; stroke:none;" d="M1112 29L1112 35L1113 35L1112 29M853 31L854 32L853 31M977 33L976 36L977 33M803 34L804 35L803 34M943.667 35.3334L944.333 35.6666L943.667 35.3334M1125 40L1126 41L1125 40M763 41L764 42L763 41M878 44L881 45L882 41L878 44M769 42L770 43L769 42M793 43L794 44L793 43M951.667 47.3334L952.333 47.6666L951.667 47.3334M921.333 49.6666L921.667 50.3334L921.333 49.6666M700 55C701.218 58.4445 702.287 59.8361 706 60L700 55M748 55L749 56L748 55M707 63L706 64L706 66L708 68L709 68L709 63L707 63M722 65L722 67L724 67L722 65z"/>
<path style="fill:#040404; stroke:none;" d="M1144 65L1147 68L1146 65L1144 65z"/>
<path style="fill:#fcfcfc; stroke:none;" d="M697 69L696 72L697 69z"/>
<path style="fill:#040404; stroke:none;" d="M1139.67 71.3333L1140.33 71.6667L1139.67 71.3333M1145 72C1143.86 78.9167 1148.67 82.9814 1155 80L1154 77L1156 74C1150.33 77.5515 1149.96 76.1268 1145 72z"/>
<path style="fill:#fcfcfc; stroke:none;" d="M702 73C701.09 76.9843 700.932 79.3636 705 81L704 73L702 73z"/>
<path style="fill:#040404; stroke:none;" d="M1132 75L1132 76L1136 76L1132 75M592 85L592 88L593 88L592 85M506.667 107.333L507.333 107.667L506.667 107.333M503 114L502 116L504 116L503 114z"/>
<path style="fill:#fcfcfc; stroke:none;" d="M695 121L692 119L691 132L696 131L693 142L700 137L698 146L693 145C692.645 149.537 691.019 154.713 697 155L696 160C702.574 160.784 709.486 161.906 713 168L718 167L716 171L736.867 176.728L754 188L753 177L762 176L758 169C766.125 168.722 770.53 176.948 777.945 178.288C781.333 178.9 782.536 175.409 783.815 172.995C788.295 164.537 785.961 160.679 784 152C775.878 167.775 769.754 159.421 757 154.258C739.118 147.018 722.242 138.515 710.2 123.209C705.687 117.473 696.971 110.559 695 121M1115 119L1115 120L1121 120L1115 119z"/>
<path style="fill:#040404; stroke:none;" d="M577 127L578 128L577 127z"/>
<path style="fill:#fcfcfc; stroke:none;" d="M564 129L564 132L565 132L564 129M1292.33 131.667L1292.67 132.333L1292.33 131.667M1099 147L1100 148L1099 147z"/>
<path style="fill:#040404; stroke:none;" d="M1127 147L1122 156C1125.76 154.695 1127.95 150.928 1127 147z"/>
<path style="fill:#fcfcfc; stroke:none;" d="M1196 148L1197 152L1198 152L1196 148z"/>
<path style="fill:#040404; stroke:none;" d="M694 149L695 150L694 149z"/>
<path style="fill:#fcfcfc; stroke:none;" d="M1257.67 151.333L1258.33 151.667L1257.67 151.333M477 152L477 154L479 154L479 152L477 152M1115 160L1118 158L1115 160M698 165C697.109 169.089 703.233 178.977 707 175L708 175C708.492 181.248 714.747 186.157 720 189C719.487 186.525 719.396 186.425 717 187L712 180L714 176L714 175L713 173L709 174L698 165M1105 173L1110 166C1106.29 167.487 1104.39 168.876 1105 173M1403 175L1404 176L1403 175z"/>
<path style="fill:#040404; stroke:none;" d="M481.667 177.333L482.333 177.667L481.667 177.333z"/>
<path style="fill:#fcfcfc; stroke:none;" d="M1113 178C1111.89 181.059 1111.43 183.235 1115 184L1113 178M716 179L717 180L716 179z"/>
<path style="fill:#040404; stroke:none;" d="M746.667 179.333L747.333 179.667L746.667 179.333z"/>
<path style="fill:#fcfcfc; stroke:none;" d="M1099.67 179.333L1100.33 179.667L1099.67 179.333z"/>
<path style="fill:#040404; stroke:none;" d="M409 185L409 187L411 185L409 185z"/>
<path style="fill:#fcfcfc; stroke:none;" d="M725 187L730 195L725 187M412.667 189.333L413.333 189.667L412.667 189.333M721 189L722 190L721 189M478 191L480 193L480 191L478 191M364 193L364 196L366 195L366 194L364 193M728 196L728 200L730 200L730 196L728 196z"/>
<path style="fill:#040404; stroke:none;" d="M356 197L357 198L356 197z"/>
<path style="fill:#fcfcfc; stroke:none;" d="M359 202L361 204L359 202M480 203L481 204L480 203M479 205L480 206L479 205M478 207L479 211L480 211L478 207M1373 217L1373 220L1374 220L1373 217z"/>
<path style="fill:#040404; stroke:none;" d="M1613 218L1613 220L1615 220L1615 218L1613 218z"/>
<path style="fill:#fcfcfc; stroke:none;" d="M452 219L453 220L452 219M335 220L338 224L335 220M454 221L458 228L454 221M450 223L451 224L450 223M453 227L454 228L453 227z"/>
<path style="fill:#040404; stroke:none;" d="M1598 227L1599 228L1598 227z"/>
<path style="fill:#fcfcfc; stroke:none;" d="M474 232L478 236L474 232M455 235L458 240L455 235M466 237L466 241L467 241L466 237M1519 238L1518 240L1520 240L1519 238M1515 239L1516 240L1515 239M332.667 251.333L333.333 251.667L332.667 251.333z"/>
<path style="fill:#040404; stroke:none;" d="M320.667 255.333L321.333 255.667L320.667 255.333z"/>
<path style="fill:#fcfcfc; stroke:none;" d="M1633 256L1632 258L1634 258L1633 256z"/>
<path style="fill:#040404; stroke:none;" d="M322 257L323 262L324 262L322 257z"/>
<path style="fill:#fcfcfc; stroke:none;" d="M336 257L343 264L336 257M346 259L347 260L346 259z"/>
<path style="fill:#040404; stroke:none;" d="M1643 263L1644 264L1643 263z"/>
<path style="fill:#fcfcfc; stroke:none;" d="M1638 271L1639 272L1638 271z"/>
<path style="fill:#040404; stroke:none;" d="M1648.33 272.667L1648.67 273.333L1648.33 272.667M1647 275L1648 276L1647 275M1649 281L1650 282L1649 281z"/>
<path style="fill:#fcfcfc; stroke:none;" d="M1635 289L1636 290L1635 289z"/>
<path style="fill:#040404; stroke:none;" d="M1646 292L1650 292L1649 289L1646 292M1616.67 311.333L1617.33 311.667L1616.67 311.333M1612.67 323.333L1613.33 323.667L1612.67 323.333z"/>
<path style="fill:#fcfcfc; stroke:none;" d="M309 332L308 325C302.795 326.729 304.046 331.173 309 332M1570 335L1571 337L1572 337L1573 335L1570 335z"/>
<path style="fill:#040404; stroke:none;" d="M293 338L294 339L293 338M288 346L292 341L288 346M279.333 358.667L279.667 359.333L279.333 358.667z"/>
<path style="fill:#fcfcfc; stroke:none;" d="M284 374L287 376L284 374z"/>
<path style="fill:#040404; stroke:none;" d="M269 393L273 397L274 396L274 394L269 393z"/>
<path style="fill:#fcfcfc; stroke:none;" d="M1592 416L1595 416L1594 414L1592 416M272 417L272 420L273 420L272 417M370 425L370 428C372.006 426.873 372.006 426.127 370 425M378 427L379 428L378 427M388.667 431.333L389.333 431.667L388.667 431.333M338 467L338 468L342 468L338 467M332 472L336 470C333.303 469.146 332.614 469.149 332 472M1593.33 481.667L1593.67 482.333L1593.33 481.667M1552 491L1553 494L1557 493L1552 491M306 559L307 560L306 559M319 574L318 576L320 576L319 574z"/>
<path style="fill:#040404; stroke:none;" d="M1555.33 577.667L1555.67 578.333L1555.33 577.667M298.667 595.333L299.333 595.667L298.667 595.333M285 617L285 620L288 620L288 617L285 617z"/>
<path style="fill:#fcfcfc; stroke:none;" d="M298 618L298 620L300 620L298 618z"/>
<path style="fill:#040404; stroke:none;" d="M288 634L287 636L288 634z"/>
<path style="fill:#fcfcfc; stroke:none;" d="M308 637L308 640L309 640L308 637M292 639L293 640L292 639M276.667 667.333L277.333 667.667L276.667 667.333M284 669L285 670L284 669M285 671L286 672L285 671z"/>
<path style="fill:#040404; stroke:none;" d="M1535 691L1536 692L1535 691M1534 693L1535 694L1534 693z"/>
<path style="fill:#fcfcfc; stroke:none;" d="M273 699L274 700L273 699z"/>
<path style="fill:#040404; stroke:none;" d="M1539.67 703.333L1540.33 703.667L1539.67 703.333z"/>
<path style="fill:#fcfcfc; stroke:none;" d="M306 724L312 726L313 722L306 724z"/>
<path style="fill:#040404; stroke:none;" d="M192 723L193 724L192 723z"/>
<path style="fill:#fcfcfc; stroke:none;" d="M314 723L315 724L314 723M317 725L317 732L323 733L324 732L317 725M1495 725L1499 728L1495 725M244.333 742.667L244.667 743.333L244.333 742.667M242 755L243 756L242 755M1458 759L1458 760L1462 760L1458 759M1470 759L1471 760L1470 759M1482 759L1483 760L1482 759M1424.67 771.333L1425.33 771.667L1424.67 771.333z"/>
<path style="fill:#040404; stroke:none;" d="M1516 800L1517 801L1516 800M1519 808L1520 809L1519 808z"/>
<path style="fill:#fcfcfc; stroke:none;" d="M290 819L291 820L290 819z"/>
<path style="fill:#040404; stroke:none;" d="M263 825L270 828L270 827L263 825M1502.67 847.333L1503.33 847.667L1502.67 847.333z"/>
<path style="fill:#fcfcfc; stroke:none;" d="M1471 866L1472 867L1471 866M303.667 867.333L304.333 867.667L303.667 867.333M298 871L299 872L298 871M296 873L295 876L296 876L297 876L296 873M596 879C595.165 884.045 598.349 894.425 602 898C604.248 888.914 603.115 885.741 596 879M299 883L300 884L299 883M338 883L340 885L340 883L338 883M596 891L597 892L596 891M349 894L346 901C348.84 899.156 350.159 897.343 349 894M597 896L598 900L597 896z"/>
<path style="fill:#040404; stroke:none;" d="M282 899L283 900L282 899M289 906L288 908L290 908L289 906z"/>
<path style="fill:#fcfcfc; stroke:none;" d="M589 911L590 912L589 911M1416 911L1416 916L1410 916L1416 922C1417.69 918.009 1418.76 914.645 1416 911M1430.67 911.333L1431.33 911.667L1430.67 911.333M1433 917L1436 916L1433 917z"/>
<path style="fill:#040404; stroke:none;" d="M1430 921L1428 928L1432 921L1430 921z"/>
<path style="fill:#fcfcfc; stroke:none;" d="M1402 922C1401.37 925.248 1401.67 927.025 1405 928L1402 922M587 925L587 932L588 932L587 925M1410 925L1411 926L1410 925M352.333 927.667L352.667 928.333L352.333 927.667z"/>
<path style="fill:#040404; stroke:none;" d="M328.667 929.333L329.333 929.667L328.667 929.333z"/>
<path style="fill:#fcfcfc; stroke:none;" d="M349 930L348 932L350 932L349 930M1402 931L1403 932L1402 931M573 935L574 936L573 935M658 938L657 940L659 940L658 938M1262 939L1265 942L1262 939z"/>
<path style="fill:#040404; stroke:none;" d="M632 946L636 943L632 946z"/>
<path style="fill:#fcfcfc; stroke:none;" d="M1266 943L1267 944L1266 943M568.667 946.333L569.333 946.667L568.667 946.333z"/>
<path style="fill:#040404; stroke:none;" d="M659 949L657 953L659 949z"/>
<path style="fill:#fcfcfc; stroke:none;" d="M1265 949L1265 956L1260 955C1262.47 960.615 1265.71 964.299 1272 965L1269 949L1265 949z"/>
<path style="fill:#040404; stroke:none;" d="M643 951L644 952L643 951M1415 951L1416 952L1415 951z"/>
<path style="fill:#fcfcfc; stroke:none;" d="M372 955L373 956L372 955M1328.67 957.333L1329.33 957.667L1328.67 957.333M378 959L376 965L377 965L380 962L380 961L378 959M381 959L382 960L381 959M1278.67 959.333L1279.33 959.667L1278.67 959.333M1286 961L1287 962L1286 961M1296 963L1297 964L1296 963M1361 963L1362 964L1361 963M373 967L374 968L373 967M1275 967L1276 968L1275 967M1283 969L1282 972L1283 969M1336.33 969.667L1336.67 970.333L1336.33 969.667M359 971L360 972L359 971M361 971L362 972L361 971M375 971L376 972L375 971M1239 971L1239 972L1242 972L1239 971M1296 973L1297 974L1296 973M491 975L492 976L491 975M664 975L657 985C660.741 983.1 664.613 979.471 664 975M490 977L491 978L490 977z"/>
<path style="fill:#040404; stroke:none;" d="M1344 977L1345 981L1346 981L1347 977L1344 977M359 979L360 980L359 979M369 979L370 980L369 979z"/>
<path style="fill:#fcfcfc; stroke:none;" d="M1169.67 979.333L1170.33 979.667L1169.67 979.333M1185 979C1185.47 981.403 1185.32 983.59 1185.53 986.001C1186.69 998.708 1196.89 983.95 1185 979M490 981L490 985L491 985L490 981M1161 981L1162 982L1161 981M1296 981L1297 982L1296 981z"/>
<path style="fill:#040404; stroke:none;" d="M1351 981L1353 984L1351 981z"/>
<path style="fill:#fcfcfc; stroke:none;" d="M519 983L521 985L521 983L519 983M1294 983L1296 985L1294 983M1268 985L1271 988L1268 985M1205 987L1204 992L1205 992L1207 987L1205 987M647 996L650 992L654 989L647 996M979 989L978 992L981 992L979 989M1154 989L1158 993L1154 989M401 991L402 992L401 991M632 991L633 992L632 991M1272.67 991.333L1273.33 991.667L1272.67 991.333z"/>
<path style="fill:#040404; stroke:none;" d="M371 992L372 993L371 992z"/>
<path style="fill:#fcfcfc; stroke:none;" d="M696.333 992.667L696.667 993.333L696.333 992.667z"/>
<path style="fill:#040404; stroke:none;" d="M502 994L504 996L504 994L502 994z"/>
<path style="fill:#fcfcfc; stroke:none;" d="M1157 994L1156 998L1157 998L1157 994M1274 994L1271 1000L1275 1001L1274 994M1191.33 995.667L1191.67 996.333L1191.33 995.667M1264 996L1265 1004C1269.72 1001.37 1268.48 997.98 1264 996M934.333 997.667L934.667 998.333L934.333 997.667M484 999L485 1000L484 999M979 999L980 1000L979 999M980 1000C980.88 1004.98 980.809 1008.48 976 1011C978.909 1018.74 981.973 1023.2 974 1029L974 1017C967.539 1019.17 970.261 1035.12 967.771 1040.99C966.697 1043.53 961.566 1048.75 960.333 1043.31C959.805 1040.98 960.394 1038.45 959.846 1036C959.312 1033.62 959.057 1031.44 959 1029L954 1032C953.869 1027.97 953.525 1024.93 949 1025L944 1019C944.912 1025.17 948.48 1030.62 947.894 1037C947.376 1042.65 943.132 1047.24 943.198 1053C943.313 1063.17 949.017 1074.93 933 1076L934 1071L940 1073L944 1061C931.27 1054.47 945.044 1039.08 938 1035L937 1038L928 1027L928 1032L924 1032L923 1028L918 1030L917 1026L915.562 1044L910 1056L900 1056C903.05 1051.57 915.517 1038.92 904 1037L900 1041L899 1026L898 1026L891 1033C895.269 1042.65 888.353 1051.94 879 1056L879 1053L876 1064L878 1061L882 1061L882 1066L878 1064C874.532 1069.28 871.527 1073.46 872 1080L1036 1080L1033 1076L1044 1072C1043.26 1068.46 1040.46 1066.31 1039.61 1062.96C1038.86 1060.01 1039.44 1035.06 1031 1048L1024 1046L1030 1060L1022 1062L1018 1057L1019 1072L1012 1070C1008.82 1072.73 1006.71 1071.98 1004 1069L1002 1069L999 1073C997.802 1065.6 997.834 1057.34 988 1057L987 1056L987 1054L989 1050L985 1052L1000 1024L996 1024L998 1016L984 1014L982 1006L984 999L980 1000z"/>
<path style="fill:#040404; stroke:none;" d="M1187 1003L1190 1006L1187 1003M1285 1003L1287 1010C1292.7 1008.38 1288.86 1004.21 1285 1003z"/>
<path style="fill:#fcfcfc; stroke:none;" d="M1277 1006L1276 1008L1277 1006z"/>
<path style="fill:#040404; stroke:none;" d="M1138.67 1007.33L1139.33 1007.67L1138.67 1007.33z"/>
<path style="fill:#fcfcfc; stroke:none;" d="M1161.67 1007.33L1162.33 1007.67L1161.67 1007.33M634.667 1011.33L635.333 1011.67L634.667 1011.33M996 1011L997 1012L996 1011M1214 1011L1215 1012L1214 1011z"/>
<path style="fill:#040404; stroke:none;" d="M1291 1013L1292 1014L1291 1013M427 1015L428 1016L427 1015z"/>
<path style="fill:#fcfcfc; stroke:none;" d="M941 1015L942 1016L941 1015M953 1015L954 1016L953 1015z"/>
<path style="fill:#040404; stroke:none;" d="M1139 1015L1140 1016L1139 1015M1281.67 1015.33L1282.33 1015.67L1281.67 1015.33M1141 1017L1144 1020L1141 1017z"/>
<path style="fill:#fcfcfc; stroke:none;" d="M927 1019L927 1020L930 1020L927 1019M1243 1019L1244 1023L1245 1023L1243 1019z"/>
<path style="fill:#040404; stroke:none;" d="M1144 1021L1145 1022L1144 1021M1292 1021L1292 1024L1293 1024L1294 1021L1292 1021z"/>
<path style="fill:#fcfcfc; stroke:none;" d="M1236 1026L1237 1033L1238 1033L1236 1026M882 1027L883 1028L882 1027M924 1027L925 1028L924 1027M1246 1027L1247 1028L1246 1027M935 1029L934 1032L938 1032L935 1029M1077 1030L1076 1036L1077 1036L1077 1030z"/>
<path style="fill:#040404; stroke:none;" d="M424 1033L425 1034L424 1033M972.667 1033.33L973.333 1033.67L972.667 1033.33z"/>
<path style="fill:#fcfcfc; stroke:none;" d="M489 1035L490 1036L489 1035M682 1035L682 1037L684 1035L682 1035M1023.33 1037.67L1023.67 1038.33L1023.33 1037.67M682 1038L680 1044L681 1044L682 1038M962.667 1039.33L963.333 1039.67L962.667 1039.33z"/>
<path style="fill:#040404; stroke:none;" d="M1176 1039L1177 1040L1176 1039z"/>
<path style="fill:#fcfcfc; stroke:none;" d="M862 1042L862 1044L864 1044L862 1042M755 1043L752 1051C757.444 1059.66 757.745 1070.31 755 1080L769 1080L769 1061L772 1060L769 1049L764 1056L763 1047L758 1043L755 1043M808 1043L809 1044L808 1043M786 1045L787 1046L786 1045M816 1045L817 1046L816 1045M1049 1080L1073 1079L1072 1074C1065.27 1073.27 1064.7 1067.65 1065 1062C1063.57 1063.37 1062.35 1065.26 1060.81 1066.47C1058.07 1068.61 1056.37 1065.11 1055.14 1063.02C1052.98 1059.34 1053.89 1045.68 1048.03 1045.64C1045.68 1045.62 1046.11 1048.22 1046.79 1049.59C1051.49 1059.12 1049.21 1069.61 1049 1080M1066 1045L1069 1050L1066 1045z"/>
<path style="fill:#040404; stroke:none;" d="M587 1047L587 1048L590 1048L587 1047z"/>
<path style="fill:#fcfcfc; stroke:none;" d="M772 1059L778 1051C773.213 1051.18 772.468 1054.72 772 1059M1020 1051L1020 1054L1022 1054L1022 1051L1020 1051M789 1052L791 1057L789 1052M1014 1055L1014 1056L1018 1057L1018 1056L1014 1055M1023.67 1055.33L1024.33 1055.67L1023.67 1055.33z"/>
<path style="fill:#040404; stroke:none;" d="M673 1057L674 1058L673 1057M648 1058L649 1059L648 1058z"/>
<path style="fill:#fcfcfc; stroke:none;" d="M813 1058L812 1066L814 1066L813 1058z"/>
<path style="fill:#040404; stroke:none;" d="M912.667 1059.33L913.333 1059.67L912.667 1059.33z"/>
<path style="fill:#fcfcfc; stroke:none;" d="M772 1061L773 1062L772 1061M777 1063L778 1064L777 1063M795 1063L794 1066L795 1066L795 1063M1010.67 1063.33L1011.33 1063.67L1010.67 1063.33M1086.67 1063.33L1087.33 1063.67L1086.67 1063.33M864 1065L861 1067L861 1068L866 1068L864 1065z"/>
<path style="fill:#040404; stroke:none;" d="M996 1065L997 1066L996 1065z"/>
<path style="fill:#fcfcfc; stroke:none;" d="M774 1067L774 1071L775 1071L776 1067L774 1067M781 1067L774 1077L774 1071L773 1071L771 1080L792 1080C790.826 1074.16 786.836 1068.67 781 1067M1080 1068L1078 1075C1081.14 1073.16 1082.13 1071.12 1080 1068M1088 1071L1088 1076L1090 1076L1090 1071L1088 1071M1098 1071L1098 1080L1104 1080L1101 1071L1098 1071z"/>
<path style="fill:#040404; stroke:none;" d="M670 1073L670 1076L671 1076L670 1073z"/>
<path style="fill:#fcfcfc; stroke:none;" d="M862 1073L861 1077L862 1073M869 1073L868 1076L869 1073M703 1076L706 1076L705 1074L703 1076M794.667 1075.33L795.333 1075.67L794.667 1075.33M746 1080L750 1077L746 1080M828 1077L831 1080L828 1077M860 1077L859 1080L860 1077M1076 1077L1074 1079L1074 1080L1078 1077L1076 1077M819 1078L818 1080L820 1080L819 1078M1088 1079L1088 1080L1092 1080L1088 1079M804 1079L805 1080L804 1079z"/>
</svg>
