<?xml version="1.0" standalone="yes"?>
<svg xmlns="http://www.w3.org/2000/svg" width="1920" height="1080">
<path style="fill:#fefefe; stroke:none;" d="M0 0L0 1080L1920 1080L1920 0L0 0z"/>
<path style="fill:#030303; stroke:none;" d="M607 159C601.031 155.295 600.407 165.578 596 168L596 179L593 175L592 175L584 188L582 188L580 183L577 190L571 189L569 198C562.159 198.856 565.676 214.172 566 219L565 219L560 209L559 212C555.505 210.423 553.773 210.256 551 213L550 213L545 201L543 201L540 204C539.272 200.649 538.403 199.588 535 199L538 208L527 202L525 207L521 196L519 196C513.143 206.484 509.005 208.93 510 222C502.51 224.173 504.623 229.978 506 236L500 237L496 235L500 248L491 242L491 258L476 249L469.978 265.089L476 280L460 266L464 284C457.614 277.461 453.81 268.557 444 267L443 270L441 268L441 272L440 273C435.44 270.473 432.526 265.58 427 268L427 262L426 262L426 266L415 260L415 264L412 263L412 267L398 266L394 263L397 288L400 291L386 288L392 295C387.023 302.352 400.708 312.362 407 314L407 316L397 319L397 324L400 328L392 325C390.262 329.91 390.648 332.316 393 337L386 338L384 344L382 344L381 341L362 339L359 342C360.489 346.998 364.057 349.699 369 351L369 352L357 354L359 360L372 367C368.926 373.51 371.64 376.264 378 378L377 386L372 386L376 392L371 393L379.696 398.228L396 411L396 412C385.547 411.465 375.103 404.452 368 416C375.785 417.231 382.572 422.539 389 426.833C404.816 437.4 422.417 450.808 434 466C418.341 463.291 410.923 443.309 394 441L403 456L390 450L392 456C385.883 458.451 386.224 470.096 385 476C378.932 473.417 372.091 472.07 366 475C366.506 481.06 369.723 481.653 371.717 486.414C375.345 495.079 366.999 499.749 380 503L382.517 518.022L374.001 521.823L358 529C356.79 537.093 368.751 533.892 371.292 541.018C372.822 545.311 368.235 549.884 367.394 554C366.395 558.892 368.544 563.454 370 568C365.756 566.674 362.484 566.812 363 572C359.2 572.796 358.295 574.163 358 578L357 578C355.148 574.02 346.595 569.612 349.068 577.019C351.271 583.615 359.204 586.679 362.002 593C363.773 597.001 362.157 603.457 363 608L359 608C360.295 617.685 374.671 619.078 371 629L370 629L361 624L361 627L342 633C343.449 638.145 347.19 640.965 352 643L352 644L338 646C343.391 651.695 349.807 655.218 344 663L344 664L353 671L339 684L345 685C337.214 701.042 326.27 684.659 315 687L324 704L317 708C322.99 709.677 328.413 714.998 332 720L327 722C329.523 728.337 339.603 724.733 340.775 731.043C341.591 735.439 335.941 737.967 332.424 738.603C325.688 739.821 318.016 735.68 311.015 737.717C305.518 739.316 301.071 746.143 296 749L300 759L296 758C296.604 760.654 297.723 763.688 296.752 766.381C295.429 770.055 289.556 773.156 292.774 777.683C297.606 784.48 314.028 779.495 320.981 781.318C332.768 784.409 317.843 788.587 314 789C315.807 797.237 316.943 802.798 325 807L324 811L329 809L330 814C345.502 812.485 337.525 829.75 334 838L338 840L335 841C336.934 846.826 350.318 845.797 356 847C353.073 852.712 355.621 858.663 360 863C355.409 868.89 363.512 869.711 368 869L371 877L378 876L376 902L381 895L391 893L395 900L396 900L403 897C401.216 907.058 409.084 926.018 419 911C419.986 913.326 420.102 917.413 421.89 919.214C425.733 923.087 427.345 916.659 427 914L436 927L435 933C439.666 934.601 442.019 937.152 443 942L448 942C456.535 927.362 461.229 940.458 463 950C468.38 948.828 471.367 946.623 472 941L476 946L480 939L497 944L496 928L501 932L498 914L499 914L503 922L506 921L512 928C512.066 925.509 512.085 921.959 515 924L516 919L526 931L527 931C526.993 920.471 523.091 914.239 519 905L528 912L525 902C537.291 902.145 536.173 910.669 538 920L541 920L547 915L544 897L545 897C546.721 900.046 547.784 900.276 551 899C552.449 903.235 553.646 906.35 558 908C560.247 900.813 564.578 905.794 569 908L574 908L573 881L582 884L579 867L583 866L581 864L581 863L583 861L584 861L588 865L589 860L606 866C610.804 859.939 619.198 874.671 624.004 875.952C636.628 879.319 639.825 890.232 649.089 898.856C656.303 905.573 668.615 908.956 678 911L677 901C681.085 900.15 689.942 899.135 692.848 896.106C696.076 892.743 693.237 888.402 691.637 885C687.777 876.794 681.571 870.169 678 862C685.8 856.309 672.222 839.951 671 833L681 832C680.272 825.907 677.46 819.392 671 818L675 806C683.545 808.724 693.427 802.604 691 816L700 811C701.73 818.999 717.961 818.941 725 819L719 834C723.909 845.086 723.644 841.888 718 852L724 852L733.458 861.925L725.09 870.376L715 888L724 883L725 886L757 878C756.819 883.564 753.045 893.554 760 896C760.316 890.222 763.375 883.485 770 886L771 886L774 881L777 882L790 873L792 884L794 881L794 890L805 879L810 897L814 893C822.968 899.838 812.29 907.271 811 916L812 916L813 913L815 913L816 920C797.695 922.039 813.743 934.809 814.728 943.001C815.295 947.72 811.583 951.815 810 956L828 946C823.643 953.826 820.006 958.776 820 968C828.833 963.24 828.243 956.736 839 962L839 964L835 968L854 970C855.897 976.112 858.235 977.339 856 984L862 990L865 989L870 992C874.26 982.808 880.533 974.545 884.664 965C891.595 948.982 891.482 935.108 909 927L910.154 942L904 964C909.935 958.968 911.323 953.914 920 956L921 953L922 953C921.229 957.17 920.157 961.285 924 964L924 959C930.912 959.499 934.826 955.408 937 949L938 949L939 954C943.262 953.279 944.71 950.992 946 947L947 947L952 952L952 941L962 948L971 923L974 929L979 925L980 925L983 936C987.387 934.544 986.985 931.15 987 927C996.363 935.682 994.94 950.369 1011 953L1016 947L1019 959C1026.92 950.428 1028.97 938.423 1029 927L1032 930C1036.93 927.31 1039.11 920.35 1038 915L1042 915C1042.01 929.493 1056.92 928.65 1069 926L1064 915C1070.94 916.131 1074.06 933.338 1080 930L1081 930L1083 932L1088 909L1089 909C1091.24 912.934 1096.05 915.497 1099 911L1108 914C1108.86 908.286 1102.34 902.905 1109 899L1114 904C1124.84 886.823 1129.39 913.527 1137 920L1138 914L1158 920L1158 919C1152.79 914.92 1151.3 908.555 1144 908L1162 883C1172.12 890.563 1172.28 877.681 1181.17 876.609C1186.21 876.001 1189.22 883.66 1193 877L1200 880L1208 864L1220 862L1224 874C1228.06 873.356 1229.48 871.756 1231 868L1232 868C1232.25 875.392 1237.69 876.314 1244 878C1245.4 873.319 1246.25 864.537 1253 869L1254 869L1256 865C1266.65 873.464 1270.52 860.945 1278 854L1284 866L1285 866C1287.74 863.185 1289.23 863.096 1293 864L1292 859C1295.95 857.693 1296.24 854.836 1297 851C1307.72 856.437 1300.34 841.844 1306.72 841.445C1312.52 841.082 1314.71 852.284 1319 855L1320 847L1321 847L1322 852L1325 849C1328.74 857.932 1335.26 865.649 1344 870L1347 859L1351 862L1354 860C1362.69 853.383 1364.57 834.808 1361 825C1367.33 824.713 1391.98 834.978 1390 823L1396 822C1395.65 815.129 1389.22 804.293 1397 800L1394 783L1397 782C1395.9 776.129 1392.37 766.721 1397 762L1396 760L1396 759L1414 773C1414 749.61 1394.02 729.828 1394 707L1396 707C1396.01 720.144 1408.72 730.555 1415 742L1416 742L1418 733L1419 733L1430 741L1429 735C1435.96 730.921 1430.31 725.871 1425 724L1425 723L1428 719L1429 719C1431.29 724.474 1440.21 729.29 1446 728L1443 721L1446 720C1445.86 712.859 1449.47 701.975 1440 700C1445.57 694.296 1453.95 697.697 1461 698L1460.16 685L1450.25 673.96L1447.77 662.152L1439.42 658.308L1419 640L1418.57 628L1424 611L1427 613C1430.06 604.743 1434.43 601.841 1431 593L1434 592L1434 585L1431 584L1431 583C1434.64 582.724 1437.58 579.785 1441.01 579.746C1445.6 579.694 1448.45 586.49 1452 581L1467 596L1472 595C1476.18 610.616 1489.95 619.223 1503 627.397C1508.05 630.564 1519.71 632.35 1519 624C1521.69 623.25 1532.54 623.29 1533.35 621.523C1536.49 614.674 1522.28 597.812 1519.19 592C1516.1 586.21 1511.92 569.567 1512.84 563.17C1513.27 560.133 1516.27 558.185 1516.62 554.996C1517.13 550.202 1512.86 547.352 1512.1 543.055C1511.07 537.242 1521.31 536.592 1525 537C1527.51 528.349 1529.95 526.262 1538 523C1534.92 516.87 1530.19 516.878 1531 509C1525.04 507.176 1527.25 501.985 1526 497L1529 496L1526 487L1533 483C1527.2 477.211 1519.17 473.312 1530 469L1530 467L1522 464L1522 463C1537.74 462.719 1544.76 450.614 1558 444C1557.2 438.847 1554.28 435.998 1549 436L1553 428L1547 426L1546 423L1533 424C1532.94 418.999 1532.31 416.612 1527 416L1535 392L1538 389C1521.42 381.742 1506.68 373.787 1488 376C1491.21 372.701 1498.8 371.776 1500.25 366.734C1501.37 362.859 1495.15 363.065 1493 363.289C1484.34 364.193 1470.83 368.157 1463 364L1457 366L1457 363L1477 360L1470 356L1470 355L1476 352L1476 347L1466 339L1470 340L1476 331C1470.96 329.222 1465.06 329.143 1464 323C1454.29 325.68 1461.42 314.261 1454 312L1454 311L1463 307L1447.93 290.867L1444.33 280.523L1433.27 278.062L1428 268L1433 259L1408 270L1422 255C1416.4 252.304 1412.33 253.07 1407 256L1410 249L1404.39 239.6L1396 235L1369 239C1369.83 236.253 1369.99 235 1367 235L1367.42 219L1381.01 197.961L1395 163L1392 164L1391 151L1386 152L1384 140C1376.34 139.426 1373.91 146.796 1369.05 151.576C1360.42 160.067 1354.01 167.296 1343 172.897C1334.16 177.396 1327.47 173.421 1321 183L1314 180C1313.9 171.578 1309.69 173.883 1305 169L1304 171L1303 171L1302 165C1294.08 167.669 1288.82 175.353 1284 182L1281 180L1280 183L1276 181L1274 187L1272 187L1269 181L1267 181L1265 185C1260.49 185.913 1261.25 190.046 1261 194L1257 185L1256 185L1254 193L1253 193L1249 181L1246 183L1245 183C1244.05 181.138 1241.83 175.298 1240 178L1239 178C1237.9 170.943 1229.69 170.056 1224 167C1222.1 173.243 1222.3 180.655 1214 177L1217 196C1213.7 195.492 1212.74 196.162 1211 199C1206.08 197.091 1202.31 201.579 1198 204C1195.68 199.164 1192.23 197.475 1187 197L1183 203C1184.85 209.651 1190.18 219.331 1182 223L1184 237L1176 236L1194 276L1181 256L1181 264L1180 264L1178 259L1174 260L1175 252L1174 251L1150 270L1152 255L1138 262C1135.6 256.177 1130.82 245.549 1124 249L1123 245L1119 250L1115 249L1100 257L1098 251L1096 251L1093 257L1097 223L1092 236L1084 236L1083 235L1089 225L1084 228C1082.75 222.186 1078.53 228.387 1077 231C1071.83 228.365 1069.68 234.544 1064.91 235.431C1056.27 237.039 1058.96 223.442 1059 219C1053.63 222.03 1050.77 230.078 1050 236L1041 236C1040.35 228.129 1040.88 220.942 1040.09 213.001C1039.77 209.857 1039.07 204.348 1034.3 205.792C1031.08 206.764 1028.81 213.671 1026 216L1030 201L1024 206C1024.06 199.57 1027.55 193.352 1026.84 187C1026.26 181.82 1022.77 177.29 1022.23 172C1021.74 167.24 1026 162.001 1020 160L1019 151L1014 155L1013 155L1012 155C1007.78 150.626 1005.86 162.28 1005 165L1004 165L1000 159L994 166L992 149L988 149L980 162L979 154L978 154C975.295 159.068 976.78 165.34 972.606 169.772C969.379 173.197 964.961 172.192 961.286 174.549C951.189 181.026 942.258 193.88 942 206L935.829 193.17L926 178L921 184L920 184L917 175C913.198 175 914 170.014 914 167L911 170L902 159C900.446 164.457 897.29 165.246 892 165L894 173C889.455 168.549 891 160.97 891 155C886.166 157.814 883.264 168.603 882 174L878 171L874.776 185.911L869 202L860 191L858 191L854.973 205.698L847.517 213.043L845 229L843 218C838.229 221.371 838.251 236.169 838 242L837 242L834 235C826.768 239.321 828.97 245.579 828 253C819.76 250.946 819.523 256.623 818 263L817 263L818 218L812 217L812 222C808.12 220.957 806.165 219.945 805 216L808 216L808 215L807 214L806 214L800.946 226L786 274L782 273C779.124 277.044 777.182 281.157 772 282C775.396 268.414 789.25 257.452 788 242L777 252L780 245L763 260C761.984 254.011 761.988 250.474 765 245C762.604 244.425 762.513 244.525 762 247L749 245L751 233L744 239L747 229L746 229C742.521 233.203 738.735 237.212 733 237L731 242L730 242L729 233C724.303 235.671 721.95 239.734 721 245L720 245C716.637 240.453 712.677 243.076 708 243L701 261L696 257L695 257L687 267L686 256L682 258L681 254C673.633 253.037 682.044 238.822 672 237C667.158 244.044 667.423 229.187 667 227L669 228L669 227L672 199L671 199L665 205C667.489 198.531 672.277 192.938 673.62 186C674.44 181.767 672.333 178.134 672.593 174C672.874 169.523 675.171 164.974 674.482 160.424C673.759 155.654 669.862 152.02 669.495 147C668.723 136.438 672.009 125.98 667 116L666 116L665 123L664 123L655 104L652 105L649 100L647 112L646 112L640 101L637 102C635.242 97.222 629.332 84.2493 623.027 93.4753C619.33 98.8857 621.512 108.765 620.025 115C618.967 119.438 615.649 122.666 614.38 127C611.31 137.485 610.323 148.539 607 159z"/>
<path style="fill:#fefefe; stroke:none;" d="M1012 156L1013 157L1012 156z"/>
<path style="fill:#030303; stroke:none;" d="M1031.98 158.086C1027.65 160.109 1027.36 167.656 1032.79 164.914C1036.26 163.162 1037.22 155.635 1031.98 158.086z"/>
<path style="fill:#fefefe; stroke:none;" d="M1003 165L1002 168L1003 165M572 192L572 196L573 196L572 192M532 208L533 209L532 208M850.333 210.667L850.667 211.333L850.333 210.667M526 211L527 212L526 211M506 224L506 225L506 226L509 225L509 224L506 224z"/>
<path style="fill:#030303; stroke:none;" d="M835 231L836 232L835 231z"/>
<path style="fill:#fefefe; stroke:none;" d="M501 237L502 238L501 237M1186.33 237.667L1186.67 238.333L1186.33 237.667M1395 238L1396 239L1395 238M501 239L503 241L501 239z"/>
<path style="fill:#030303; stroke:none;" d="M1110.67 239.333L1111.33 239.667L1110.67 239.333z"/>
<path style="fill:#fefefe; stroke:none;" d="M504.667 243.333L505.333 243.667L504.667 243.333M492 251L493 252L492 251M1116 253L1117 254L1116 253M681 258L682 259L681 258M761 260L759 264L761 260M474 261L474 264L477 264L477 261L474 261M471 265L472 266L471 265M487 265L486 268L487 265M1146 266L1146 268L1148 268L1148 266L1146 266M473 267L474 268L473 267M442 272L444 276L442 272M478 277L479 278L478 277M408 316L409 320C411.291 318.335 410.113 317.319 408 316z"/>
<path style="fill:#030303; stroke:none;" d="M388 327L389 328L388 327z"/>
<path style="fill:#fefefe; stroke:none;" d="M1456 347L1457 348L1456 347M1455.33 364.667L1455.67 365.333L1455.33 364.667M1446.67 367.333L1447.33 367.667L1446.67 367.333M374 413L375 414L374 413M404 457L406 460L404 457M436.667 467.333L437.333 467.667L436.667 467.333M440 471L440 472L444 472L440 471M394.667 474.333L395.333 474.667L394.667 474.333M452 484L452 486L454 486L452 484M372 497L373 498L372 497M386 539L387 540L386 539M395 556L395 557L399 556L395 556M408 556C405.248 557.538 396.72 562.885 396 558L376 561C378.049 568.879 388.993 576.365 396 580L397 577L404 576L404 571L400 571L410 560L408 556M407 571L407 572L411 572L407 571M1518 623L1519 624L1518 623M1441 719L1442 720L1441 719M710 807L710 808L717 808L710 807M1300 835L1301 836L1300 835M1290 851L1292 853L1292 851L1290 851M361.667 859.333L362.333 859.667L361.667 859.333M588 859L589 860L588 859M359 861L360 862L359 861z"/>
<path style="fill:#030303; stroke:none;" d="M1337 874L1336 880L1338 880L1337 874z"/>
<path style="fill:#fefefe; stroke:none;" d="M496 910L498 913L498 910L496 910M495 927L496 928L495 927M1079 929L1080 930L1079 929M458 933L459 934L458 933M831 941L832 942L831 941M861 944L864 944L863 942L861 944M844 947L844 948L847 948L844 947M840.667 951.333L841.333 951.667L840.667 951.333M860 951L861 952L860 951M859 954L857 961L859 954M838 955L839 956L838 955M844 958L843 960L845 960L844 958M874 967L874 976C876.882 973.481 876.151 969.839 874 967M854.667 968.333L855.333 968.667L854.667 968.333z"/>
</svg>
