<?xml version="1.0" standalone="yes"?>
<svg xmlns="http://www.w3.org/2000/svg" width="1920" height="1080">
<path style="fill:#fcfcfc; stroke:none;" d="M0 0L0 1080L701 1080L695 1073L689 1076L695 1059C688.891 1060.18 673.156 1071.84 669 1065C677.152 1063.32 677.435 1056.07 678 1049L676 1047L675 1047L662.91 1060.87L650 1068L657 1060L657 1057L651 1056L651 1053C630.117 1056.81 650.241 1033.72 654.785 1027C661.577 1016.95 669.11 1016.33 677.896 1009.98C686.931 1003.45 692.031 996.32 703 992L702 989C700.606 989.307 695.793 990.895 696.117 987.837C696.696 982.382 707.466 984.781 709.338 978.921C710.671 974.748 706.345 973.033 702.999 973.643C696.645 974.801 687.539 978.902 682.015 982.228C662.224 994.141 652.28 1028.48 628 1034L628 1033L631 1032L631 1031C623.193 1032.39 603.6 1037.55 599 1044L598 1044C600.532 1036.55 616.56 1017.94 625 1020L629 1016L633 1010C622.191 1010.35 633.791 1000.56 636 997L632 996L656 963L660 964C659.312 956.678 664.016 954.895 667 949C660.937 946.642 657.529 942.881 651 946L650 942L646 944L645 941L640 944C638.342 936.011 643.843 936.568 650 936L650 934L645 932L650 928L650 927C644.453 922.681 642.655 918.64 641 912L640 912L640 919L639 919L627 891C621.865 895.413 621.805 900.561 614 900L618 896L619 891L613 894L606 894L602 900L606 892L602 883L597 879L594 884L601 900C594.317 904.234 597.189 910.06 600 916L592 918L589 940L588 940L588 936L587 936L587 941L584 939L586 968L575 953L574 953L578 990C576.123 988.556 574.385 987.252 572.245 986.224C570.106 985.197 568.178 983.537 566.005 982.654C556.625 978.84 566.118 1003.99 560.838 1005.05C555.14 1006.2 551.527 996.07 548 993L546 1003L544 1003C544.747 995.696 541.599 991.822 534 994L533 989L530 990L525 981L524 981L523 984L521 984L520 980L516 988L514 988L513 982L512 988L509 992L503 987L492 1002L492 975L491 975L487 1002L486 1002L485 998L484 998C484.42 1007.78 487.133 1021.36 496 1027L496 1042L492 1041L492 1048C487.836 1049.29 486.565 1051.79 486 1056L479 1049L477 1049L476 1052C473.89 1050.13 470.589 1048.26 469.218 1045.74C467.319 1042.25 466.224 1026.96 461 1040L460 1040C458.787 1033.5 458.46 1031.3 452 1029L448 1040L446 1040L442 1031L437 1038L429 1040L431 1031C425.146 1026.36 425.146 1020.64 431 1016L430 1010L420 1015L420 1007L419 1007L414 1012L411 1005L404 1018L398 1018C397.541 1011.15 398.09 996.808 403 992L403 991L384 1000L387 996C384.897 989.721 389.04 988.483 391 983C396.801 982.713 400.306 977.741 396 973L374 992L375 979C368.302 979 375.799 968.214 376 966L360 976L364 971L359 967C353.668 973.714 351.243 965.296 346 964.167C344.594 963.864 332.147 965.605 335 964L335 963L332 960C339.476 957.009 347.108 952.626 348 944L342 948C343.844 942.469 348.496 928.699 345 928C347.524 916.821 335.874 926.026 332 928L341 913L342 916L343 916L345 901L328 906C332.506 896.417 341.384 896.524 336 885L330 893C328.257 889.64 322.133 879.938 318 884L314 882C311.257 886.542 306.705 888.805 303.699 893.04C298.634 900.176 299.916 908.184 290 910L294 903L289 902L289 896L285 896L290 877L287 878C286.546 873.376 302.631 863.386 290.04 863.512C288.673 863.525 287.344 863.796 286 864L283 860C273.268 863.499 282.029 849.747 285.104 847.329C289.462 843.902 296.704 846.244 302 844L307 833L299 833L284 834C286.953 829.74 290.303 826.362 289 821C282.729 823.581 278.922 825.647 272 824C274.918 821.901 277.657 821.941 280.671 820.405C283.888 818.766 283.445 811.904 281.141 809.642C276.997 805.574 270.89 811.807 267 805C272.755 806.01 274.323 804.282 278 800L278 799L260 794L249 795L248 795L246 792L245 792C240.439 793.377 226.289 788.996 224.286 783.998C223.312 781.568 224.437 777.731 224 775C228.916 776.819 231.56 773.96 236 772L230 768L232 761L229 760L229 758L240 752L240 751L233 748L233 746L245 744C244.996 739.175 245.237 735.896 241 733C231.315 743.287 212.881 728.555 200 728C203.961 721.446 209.712 720.313 217 720L222 706L223 706L226 708L221 699L228 695L218 692L218 689L222 688C218.8 678.688 227.076 680.783 233 682.081C243.424 684.365 251.795 692.762 261 698L260 695L277 704L272 699L272 696L271 696C266.478 693.577 263.676 688.711 259 686.302C244.309 678.736 229.284 677.248 221 661L222 660L235 668L246 666L274 674L275 673L274 659L280 661C281.881 666.949 286.123 664.732 291 664L294 661L295 654L299 656L299 649C296.187 646.605 291.926 643.93 293 640L293 639L290 635L304 638L304 631L294 628L289 620C296.764 607.252 279.698 608.332 275 601L280 602L280 599L301 600L301 597L305 598C304.709 589.05 319.736 597.486 326 591L310 583L313 573L317 574C314.922 570.451 313.092 569.476 309 570L304 557L300 558L300 553C296.455 555.437 294.996 555.006 292 552L287 556C284.772 552.051 282.53 552.871 279 555L289 543C284.191 539.947 278.962 536.969 278 531L284 532C283.302 518.537 268.589 514.626 266.221 503C265.595 499.922 267.348 489.361 271.995 491.35C277.643 493.769 280.606 500.911 286 504L283 492C288.165 495.38 294.278 494.13 294 487L302 486L304 488C306.037 474.918 327.247 474.706 337 470L331 469L351.209 451.288L359.098 444.981L357 437L353 436L369 427L369 426C366.054 424.29 359.96 416.999 356.403 418.422C353.879 419.432 353.405 426.175 350.811 428.366C338.038 439.152 325.192 445.564 310 451.429C305.692 453.092 299.667 457.817 295.039 457.483C291.058 457.196 287.637 452.575 285 450L278 452L280 445L275 446L279 433L276 438L268 440L270 429L280 428L280 427L270 424L271 420L275 421L276 420L275 410C279.883 411.723 281.561 410.028 281 405L286 404L276 391L277 391L280 394C279.565 383.685 284.313 375.515 279 366C280.766 365.047 281.008 362.601 283.083 361.917C288.603 360.097 295.366 363.84 296 355L292 356L296 342L296 345L300 338L300 337L298 336L298 335C303.166 331.466 304.279 317.125 306 311L307 311L313 321L323 310C324.795 305.214 326.311 306.221 330 308L330 298L331 299L329 302L332 294L329 288C331.52 289.129 335.895 292.651 338.721 291.914C343.442 290.685 340.015 276.896 338.142 274.21C335.366 270.229 329.435 270.001 327.028 265.857C325.138 262.604 325.846 258.458 324 255L332 256L330 249L325 250C325.251 243.323 316.372 241.978 311 240L312 234L314 236L322.237 225.612L333 221L334 221L338 224L339 217L338 217L338 220L334 220C335.293 208.532 344.727 220.786 351 214L352 218L353 218L357 204L362 206L359 193L363 193L366 196L369 189L370 189L371 192L373 192L374 189L387 187L388 187L390 192L396 191C398.51 196.624 402.182 199.983 408 202L415 182L416 186L419 184L426 198C433.2 200.14 430.403 207.642 433.164 212.826C436.961 219.954 443.977 221.97 451 224L450 219C453.213 222.259 452.438 224.742 452 229L454 227L458 229L451 215L466 228L469 224L469 221C461.695 216.771 461.885 212.699 461 205L468 210L469 206L476 210L476 192L473 192L479 189L476 181L482 183C485.293 175.152 479.986 173.211 476.434 166.83C474.316 163.027 471.749 152.355 472 148L479 154C478.745 150.616 478.331 141.943 483 148L487 146L486 137L488 137L489 140C495.241 138.122 494.882 131.001 498 126L498 125L496 123L506 127L509 124L507 115L514 116C516.376 111.288 520.134 110.921 525 110L524 99C535.655 99.881 537.591 121.723 541 131L542 131L543 126L544 126L551 144L556 145L557 136L556 136L556 140L553 133L556 134L554 131L562 138L562 133L566 132C565.578 127.898 566.877 125.63 570 123C569.525 129.014 567.167 135.751 575 137L583 116L586 122L590 121L588 132L592 127L593 127L594 132L598 132C593.884 123.182 593.708 116.161 591.53 107C590.012 100.612 586.785 94.5656 592 89L592 96L600 101L601 101C606.925 77.5481 593.816 45.017 616 26C615.803 23.4993 616.028 19.9193 619 22L626 0L0 0z"/>
<path style="fill:#040404; stroke:none;" d="M626 0L619 22L617 20L616 26C610.603 29.0629 608.429 36.4498 606.255 42C598.62 61.4935 604.146 81.2332 601 101L600 101L592 96L592 89C588.314 91.6042 588.559 96.8069 589.339 101C591.275 111.396 592.061 122.986 598 132L594 132L593 127L592 127L588 132L590 121L586 122L583 116L575 137C567.679 134.876 569.738 129.101 570 123C566.391 125.058 565.077 127.924 566 132L562 133L562 138L554 131L556 134L553 133L556 140L556 136L557 136L556 145L551 144L544 126L543 126L542 131L541 131C538.425 121.456 535.604 99.3777 524 99L525 110C520.101 110.623 515.589 110.764 514 116L507 115L509 124L506 127L496 123L498 125L498 126L489 140L488 137L486 137L487 146L483 148C478.779 140.655 478.572 150.594 479 154L472 148C469.513 160.912 485.478 171.636 482 183L476 181L479 189L473 192L476 192L476 210L469 206L468 210L461 205C461.39 212.484 461.012 217.892 469 221L469 224L466 228L451 215L458 229L452 229C452.749 224.88 453.88 221.615 450 219L451 224C444.372 221.017 438.023 219.545 433.703 212.826C430.416 207.715 433.678 199.442 426 198L419 184L416 186L415 182L408 202L396 191L390 192L388 187L387 187L374 189L373 192L371 192L370 189L369 189L366 196L363 193L359 193L362 206L357 204L353 218L352 218L351 214C344.143 219.244 334.649 208.285 334 220L338 217L339 217L338 224L334 221L333 221C329.674 224.019 325.642 222.405 322.162 224.908C318.062 227.857 318.86 235.812 312 234L311 240C315.939 242.576 324.869 243.475 325 250L330 249L332 256L324 255C325.51 258.565 325.043 263.577 327.028 266.701C329.307 270.286 334.728 270.843 337.486 274.21C339.554 276.734 343.701 290.776 338.316 291.69C335.823 292.113 331.486 288.787 329 288C328.216 291.43 328.578 292.864 332 294L329 302L331 299L330 298C326.689 301.465 328.995 303.889 330 308L328 305L323 310C317.68 310.885 315.291 316.483 313 321L307 311L306 311L298 335L298 336L300 337L300 338L296 345L296 342L292 356L296 355C293.633 363.164 284.25 360.806 279 366L280 394L277 391L276 391L286 404L281 405C280.87 409.54 279.489 410.723 275 410L276 420L275 421L271 420L270 424L280 427L280 428L270 429L268 440L276 438L279 433L275 446L280 445L278 452L285 450C293.489 461.661 299.983 455.682 311 451.429C326.052 445.618 337.836 439.16 350.811 429.046C353.881 426.652 353.661 420.063 356.201 418.712C359.021 417.213 366.051 424.833 369 426L369 427C362.853 428.608 356.65 430.428 353 436L357 437C357.188 439.526 359.337 443.529 358.098 445.812C352.614 455.914 334.439 457.456 331 469L337 470L324 476L318 475L306 481L303 488L302 486L300 488L294 487C293.876 493.801 288.116 494.441 283 492L286 504C283.177 501.558 280.722 498.766 278.166 496.039C270.319 487.668 262.678 492.816 265.986 504C269.29 515.171 282.681 519.123 284 532L278 531C278.501 537.355 283.51 540.586 289 543L279 555C282.584 553.578 284.222 553.055 287 556L292 552C294.573 555.753 296.649 556.147 300 553L300 558L304 557L309 570L317 574L313 573L310 583L326 591C323.656 592.703 321.096 595.163 318 595.052C313.069 594.876 303.362 588.257 305 598L301 597L301 600L280 599L280 602L275 601C276.927 609.994 295.924 605.417 289 620L294 628L304 631L304 638L290 635L293 639L293 640C290.985 644.007 295.758 647.099 299 649L299 656L295 654L294 661L291 664C286.106 663.724 282.807 666.279 280 661L277 662L274 659L275 673L274 674L246 666L235 668L222 660L221 661C226.628 677.696 244.426 679.313 258 686.302C263.105 688.931 266.274 695.067 272 696L272 699L274 698L277 704L260 695L261 698C252.873 691.578 243.15 684.171 233 681.883C227.305 680.6 217.216 678.55 222 688L218 689L218 692L228 695L221 699L226 708L223 706L222 706L217 720C209.856 720.147 202.99 720.734 200 728C211.492 728.915 233.607 744.532 241 733C244.584 736.451 244.983 739.145 245 744L233 746L233 748L240 751L240 752L229 758L229 760L232 761L230 768L236 772L224 775C224.188 777.932 222.731 782.265 224.081 784.865C226.324 789.186 241.24 794.501 245 792L246 792L248 795L249 795L260 794L278 799L278 800C273.934 803.387 272.601 805.531 267 805C269.61 812.614 275.929 806.315 280.482 809.777C283.175 811.825 283.419 817.947 280.607 819.973C277.745 822.036 274.688 821.255 272 824C278.563 825.94 283.284 824.39 289 821L284 834C288.242 834.787 296.488 836.811 299 833L307 833C303.793 836.777 300.905 838.673 302 844C296.625 845.677 288.393 843.748 284.209 847.315C280.756 850.259 273.92 865.547 283 860L286 864C287.433 863.894 288.865 863.755 290.306 863.823C304.183 864.475 278.729 877.238 290 877L285 896L289 896L289 902L294 903L290 910C300.456 909.162 298.934 899.945 304.418 893.04C307.677 888.938 311.937 887.017 314 882L318 884C322.838 882.263 327.324 889.488 330 893L336 885L338.423 892.424L328 906C335.104 908.007 338.956 904.352 345 901L343 916L342 916L341 913C336.84 917.714 332.495 921.366 332 928C336.475 926.605 346.017 917.253 345 928L342 948L348 944L335 963L335 964L333 965C336.923 965.621 341.015 964.582 344.914 965.161C350.107 965.932 354.527 973.172 359 967L364 971L360 976L376 966L374 968C372.808 971.039 370.484 978.286 375 979C372.545 983.637 372.428 987.018 374 992L396 973C399.317 977.916 396.781 982.189 391 983C388.168 988.215 384.052 989.777 387 996L384 1000L403 991L403 992C397.9 995.307 397.342 1012.07 398 1018L404 1018L411 1005L414 1012L419 1007L420 1007L420 1015L430 1010L431 1016C424.592 1019.36 424.592 1027.64 431 1031L429 1040L437 1038L442 1031L446 1040L448 1040L452 1029C457.962 1032.19 458.393 1033.35 460 1040L461 1040C467.359 1029.47 466.855 1041.32 468.757 1045.74C469.989 1048.61 473.516 1050.39 476 1052L477 1049L479 1049L486 1056L492 1048L492 1041L496 1042L496 1027C487.923 1019.58 484.837 1008.6 484 998L485 998L486 1002L487 1002L491 975L492 975L492 1002L503 987L509 992L512 988L513 982L514 988L516 988L520 980L521 984L523 984L524 981L525 981L530 990L533 989L534 994C541.257 992.448 544.169 995.995 544 1003L546 1003L548 993C549.664 995.027 551.188 997.053 552.577 999.282C553.473 1000.72 554.238 1002.32 555.495 1003.49C567.945 1015.09 558.848 985.244 563.488 983.192C566.732 981.757 574.973 988.451 578 990L574 953L575 953L586 968L584 939L587 941L587 936L588 936L588 940L589 940C589.683 931.029 596.28 928.144 592 918L600 916C597.774 909.46 595.28 905.341 601 900C598.931 894.414 599.658 887.046 594 884L597 879L602 883L606 892L602 900L606 894L613 894L619 891L618 896L614 900C621.785 901.261 622.61 896.352 627 891L639 919L640 919L640 912L641 912C642.271 918.721 643.592 923.603 650 927L650 928L645 932L650 934L650 936C643.689 936.139 637.57 935.515 640 944L645 941L646 944L650 942L651 946C657.63 943.662 660.751 947.374 667 949C662.826 954.464 658.702 956.535 660 964L656 963C648.921 974.662 634.766 982.578 632 996L636 997C633.229 1000.05 621.215 1011.98 633 1010L629 1016L625 1020C620.617 1017.7 617.814 1021.74 614.576 1024.56C608.327 1030 599.759 1035.32 598 1044L599 1044C605.828 1037.48 621.884 1033.63 631 1031L631 1032L628 1033L628 1034C633.642 1034.09 640.759 1026.85 644.999 1023.15C658.15 1011.68 668.592 989.636 684.001 981.684C688.536 979.344 703.066 971.135 707.663 974.786C716.127 981.507 694.081 983.709 695.752 988.568C696.416 990.5 701.31 990.759 703 992C690.95 994.999 686.329 1003.47 676.957 1009.98C668.394 1015.93 661.289 1016.38 654.785 1026C651.049 1031.53 642.372 1040.07 640.442 1046C638.001 1053.51 646.188 1054.14 651 1053L651 1056L657 1057L657 1060L650 1068C662.339 1063.14 665.901 1055.57 675 1047L676 1047L678 1049C676.574 1056.05 676.864 1062.27 669 1065C671.708 1072.67 689.539 1060.73 695 1059L689 1076L695 1073C697.442 1074.83 699.487 1078.18 702.259 1079.4C706.051 1081.06 711.936 1080 716 1080C727.82 1080 740.078 1082.24 750 1075L751 1078C761.166 1074.71 753.647 1059.38 753.603 1052.09C753.583 1048.86 755.71 1045.43 756 1042L763 1047L767 1055L769 1048L770 1054L773 1054L777 1050L778 1051C774.523 1057.06 763.667 1072.11 772 1078L776 1067L774 1076C778.52 1074.54 777.776 1070.3 781.329 1068.01C786.075 1064.94 791.23 1076.75 792 1080L813 1080L814 1071L815 1071L814 1080L821 1077L820 1080C823.511 1080 827.146 1080.99 828 1077C836.204 1082.54 849.41 1080 859 1080L863 1073L862 1080L872 1080L872 1076L868 1076L869 1073L872 1075L878 1064L879 1064L882 1066L881 1060L876 1064L879 1053L879 1056C884.257 1053.9 898.876 1041.17 891 1036L891 1033L898 1026L899 1026C900.403 1031.28 897.773 1038.09 903 1041C905.602 1038.33 909.489 1037.82 908.508 1043C907.592 1047.85 902.553 1051.18 901 1056L910 1056C912.028 1052.46 915.194 1049.15 915.736 1045C916.625 1038.2 913.138 1030.59 918 1025L918 1030L929 1026L936 1038L937 1034C944.457 1039.66 930.317 1058.61 945 1061L947.895 1038L944 1019C948.563 1022.7 953.531 1025.8 954 1032L959 1027C959.003 1031.94 958.285 1039 965 1038L965 1044L964 1044L962 1040L961 1040L960 1044L966 1046C968.901 1038.88 967.546 1020.75 974 1017L974 1028C982.337 1023.98 979.513 1017.04 975 1011L984 999L984.653 1010.7L993 1019L994 1019L997 1014L998 1014L996 1024L1001 1023L989.6 1043.17L988 1055L988 1056C997.116 1056.33 999.465 1064.45 998 1072L1002 1069L1004 1069C1008.61 1076.06 1011.01 1068.32 1016 1067C1015.51 1070.14 1015.96 1071 1019 1072L1014 1064L1014 1063C1018.59 1061.47 1017.82 1058.11 1014 1056L1014 1055L1022 1062L1030 1059L1024 1046L1031 1048L1031 1043C1042.12 1043.85 1038.82 1055.29 1039.69 1062.96C1040.05 1066.17 1042.94 1068.93 1044 1072L1035 1073C1036.21 1080.77 1042.56 1080 1049 1080C1049.36 1071.68 1051.11 1062.45 1049.53 1054.17C1049.15 1052.2 1044.57 1047.73 1046.74 1045.92C1051.44 1042 1053.93 1055.88 1052 1059C1055.51 1064.07 1057.26 1068.65 1064 1066L1068 1074L1072 1073C1073.11 1076.31 1074.55 1077 1078 1077C1078.73 1080.4 1084.93 1081.78 1087.28 1078.67C1089.18 1076.13 1087.96 1070.22 1089 1067L1090 1067C1090 1074.14 1089.42 1079.72 1098 1080L1099 1070L1100 1070C1102.76 1077.34 1104.92 1079.97 1113 1080L1111 1072L1114 1074C1112.05 1064.37 1097.11 1056.94 1090.44 1049.87C1087.16 1046.39 1086.31 1040.84 1083 1038L1081.74 1022.58L1096 1007L1096 1010L1106 1010C1107.52 1004.66 1109.1 998.392 1115 997L1117 992L1119 992C1120.71 999.079 1122.09 1009.64 1130 1012L1128 1008L1128 1007L1131 1005L1134 1009C1137.11 1003.85 1136.76 991.178 1131 988L1131 969L1132 969C1137.84 983.693 1154.06 984.899 1153 1004L1171 1024C1175.63 1012.16 1166.83 1005.1 1168 993L1173 996L1174 989L1180 991C1179.85 994.674 1182.99 997.53 1184.94 992.855C1187.34 987.114 1183.85 980.784 1187 975C1188.39 981.184 1190.38 990.645 1196 994C1194.44 1000.64 1197.09 1003.36 1200 1009L1205 1006L1218 1016L1214 1013C1215.01 1007.17 1209.98 1000.33 1216 997C1217.58 1004.24 1222.9 1008.48 1225.86 1015C1227.48 1018.57 1226.18 1023.09 1231 1023C1228.6 1034.36 1233.06 1045.26 1236 1056L1237 1056L1236 1025L1237 1025C1239.13 1030.81 1239.34 1039.9 1246 1042C1245.86 1035.25 1240.39 1021.57 1245 1017L1246 1026L1250 1025L1249 1019L1252 1020C1252 1015.29 1259.26 1017.63 1261.5 1014.83C1267.47 1007.38 1262.69 997.306 1260 990C1266.52 995.854 1267.4 997.499 1276 993C1276.38 998.291 1276.84 1001.52 1282 1004L1275.91 980L1272.39 970.344L1277 967C1274.99 976.124 1285.3 981.453 1293 979L1288 988L1299 971L1297 976C1301.58 979.425 1302.02 982.657 1303 988L1304 988L1304 985L1310 984L1319 992C1318.48 983.934 1307.37 978.267 1312 971L1302 947L1302 946L1306 938L1301 940C1300.72 933.95 1302.26 932.56 1308 931C1307.49 935.195 1310.33 950.065 1313.01 953.583C1314.86 956.011 1318.5 954.779 1320.49 957.387C1325.03 963.348 1322.16 966.304 1331 968L1335 964L1337 976L1342 976L1340 965L1346 971C1347.74 965.72 1348.35 963.504 1354 966L1365 956L1368 960C1375.04 958.77 1381.53 961.362 1388 964C1388.93 961.511 1389.6 958.428 1392.15 957.067C1396.2 954.901 1403.56 958.514 1400 951L1403 953C1417.54 949.946 1407.22 938.569 1401 931L1404 932L1405 932C1403.73 927.989 1399.3 924.82 1403 921C1403.64 926.088 1407.55 929.827 1412 932L1410 924L1414 926L1408 913L1416 915L1417 911L1418 911L1416 924L1425 915L1431 916L1430 909L1432 909L1440 920L1448 920L1449 915L1445 916L1441 905L1442 905L1443 907L1446 905L1449 908L1446 905L1444 897L1440 898L1438 891L1445 891L1447 896C1450.91 891.772 1453.33 890.206 1459 892C1457.94 885.62 1461.27 870.067 1469 872C1472.63 861.838 1472.86 860.044 1484 864L1485 862L1485 861C1482.33 853.039 1493.06 851.235 1496 845L1500 846C1500.45 841.758 1500.94 838.422 1497 836L1497 835L1505 836L1516 827L1510 826L1508 814L1516 804L1513 797L1516 794C1512.55 792.016 1511.45 787.919 1507.95 786.028C1501.25 782.421 1483.57 782.34 1476 782.96C1468.67 783.559 1459.94 784.681 1452.91 786.701C1450.44 787.409 1447.21 790.269 1444.55 789.415C1441.94 788.577 1440.26 784.173 1439 782L1440 781C1444.52 782.075 1451.1 783.239 1451 777L1454 773L1450 772L1450 771L1480 764L1480 760L1480 759C1487.16 761.229 1499.66 763.593 1506.98 761.196C1510.42 760.068 1515.11 754.468 1513.52 750.498C1512.24 747.295 1504.72 744.314 1502 742L1509 736L1502 729L1512 728L1513 725C1521.02 726.72 1523.17 720.016 1530 717.578C1536.39 715.297 1545.18 716.862 1552 716L1552 715L1543 707L1537 708C1535.14 701.428 1530.28 700.057 1524 700L1524 699C1532.15 697.898 1533.3 695.375 1528 689L1525 690L1525 682C1506.86 675.793 1525.42 670.369 1535.98 676.97C1542.44 681.011 1545.94 689.572 1550.45 695.486C1553.76 699.827 1558.23 702.274 1562 706C1567.63 705.97 1571.57 709.865 1575 714L1582 709C1591.15 710.738 1591.94 699.219 1590 693L1595 692C1593.07 681.811 1587.19 675.272 1583.23 666C1575.53 647.987 1571.9 625.63 1552 616L1556 614C1555.7 604.985 1546.58 602.672 1541 597C1552.44 598.407 1548 591.266 1546 583L1553 588L1554 588L1551 577L1554 576L1553 573L1550 573C1558.04 566.637 1575.1 576.468 1583 580L1586 564L1586 563C1581.97 557.035 1582.77 546.809 1585 540C1582.04 538.257 1580.87 536.18 1584 534C1583 522.351 1573.14 526.247 1566.89 520.215C1562.48 515.957 1562.29 508.49 1557 504L1557 503L1562 498L1560 492C1556.46 493.191 1554.86 493.514 1552 491L1560 490L1560 489L1557 487L1573 479C1577.07 488.494 1587.49 483.118 1594 488L1595 481L1594 484L1593 484C1590.31 474.078 1597.75 471.697 1607 472L1612 468C1612.17 463.194 1612.22 459.281 1616 456C1612.14 448.987 1604.74 439.279 1617 436L1611 432L1611 431C1615.87 429.965 1621.71 423.758 1616 420L1617 413L1600 416L1598 413L1602 412C1598.11 404.15 1592.62 410.807 1586.92 407.382C1581.49 404.126 1579.58 394.677 1577 389C1581.53 385.977 1578.04 377.915 1578 373L1585 375L1585 374L1585 373L1582 373L1582 369L1576 369L1575 361L1572 350L1566 352C1568.39 346.971 1574.57 339.664 1568 336L1568 335L1601 325L1601 323L1607 323L1607 321L1603 319L1606 318L1605 315C1611.08 313.253 1615.61 306.648 1618 301C1627.33 301.532 1630.78 292.222 1637 287L1637 292C1643.76 287.221 1638.58 276.803 1636 271L1638 269L1633 268C1635.15 262.934 1632.52 257.946 1627 257L1627 244L1620 242L1619 242L1600 246L1605 236L1606 236L1606 240L1610 240C1609.26 235.93 1608.51 233.108 1604 233L1605 231L1599 235C1592.76 226.046 1581.48 229.642 1573 232.66C1558.5 237.819 1534.77 243.661 1520 238L1521 241L1517 242L1519 237L1499 237.33L1465 240L1470 231L1466 229L1465 229C1455.87 235.42 1452.46 232.687 1457 223C1448.74 223.005 1442.05 224.551 1435 229L1437 223C1431.57 222.876 1427.24 226.76 1422.04 227.039C1418.56 227.227 1415.47 224.093 1412 223.612C1404.36 222.556 1395.82 224.713 1389 228L1388 225L1379 233L1377 233L1376 229L1379 225L1376 214L1376 213L1391 195L1394 196L1404 182L1405 176L1403 177L1403 176C1407.37 171.715 1415.17 164.354 1417.37 158.714C1420.75 150.092 1418.24 139.873 1421.98 131.039C1425.49 122.754 1434.7 117.195 1436.66 107.961C1438.83 97.7689 1442.31 83.35 1427 82.52C1412.64 81.7414 1407.92 91.314 1398 99.5571C1390.45 105.826 1382.28 109.721 1376.44 118.001C1372.46 123.639 1370.85 131.164 1366 136C1362.73 126.179 1357.75 143.832 1357 147L1356 147C1352.64 140.986 1347.76 146.175 1343 148L1344 141L1337 146L1337 142L1332 146L1331 119L1328 119C1324.64 122.746 1321.59 122.497 1317 121L1302 130L1299 126L1298 131L1295 130L1293 134L1292 134L1292 130L1290 130C1289.75 133.878 1289.26 141.293 1286.68 144.271C1282.34 149.284 1276.85 147.341 1276 155C1272.74 150.752 1270.18 149.849 1265 149C1267.15 143.731 1269.29 139.67 1263 137L1257 144L1256 133L1255 133L1254 136L1252 132L1247 137L1239.66 127.742L1224 124C1221 129.766 1215.48 135.038 1210 129L1206 132C1202.44 130.5 1191.86 128.924 1191.3 135.274C1190.99 138.834 1194.6 143.154 1195 147L1192 145C1189.1 154.578 1197.24 165.06 1182 161C1179.59 170.009 1172.36 167.061 1165 167C1163.56 171.351 1161.5 174.625 1157 176L1160 166C1156.24 164.566 1154.95 165.497 1152 168L1156 153L1151 158C1147.94 157.29 1146.73 157.331 1145 160L1141 159L1137 180L1135 180L1127.63 171.916L1132.11 164.946L1134 147L1118 168L1121 159L1115 160C1118.69 155.293 1121.67 151.143 1120 145L1117 152L1123 116L1136 112L1141 104C1139.32 99.7734 1139.2 97.4235 1144 96L1141 93L1147 88L1147 86C1143.18 82.5593 1139.66 71.8503 1136 82L1129 81L1124 85L1123 84L1126 75L1120 78L1124.65 54L1127 40L1127 39L1121 38L1114 23L1113 23L1109 26L1110 15L1104 16L1104 21L1103 21L1104 13L1098 16L1097 4L1096 4L1093 7L1096 12L1090 11L1091 16L1080 16L1080 12L1075 20C1075.06 16.1165 1073.45 14.663 1070 13L1069 16C1064.7 12.5836 1062.17 12.7805 1060 18L1059 18L1054 0C1050.81 0.0135498 1048.73 -0.402954 1048 3L1047 3L1047 0C1042.89 1.44617 1042.96 5.11987 1042 9L1040 9L1040 0L1002 0L1001 20L1000 20C999.782 15.2345 998.998 9.0022 995 6C993.969 15.7421 995.677 25.0624 989 33L989 0C984.781 1.48865 982.566 12.4917 982 17L981 17C980.118 13.1069 980.092 10.8575 983 8L983 7C968.406 5.43481 976.105 21.8297 972.968 29.9607C970.94 35.2166 964.555 39.0829 960 42L958 48L952 41C952.201 59.0058 944.893 36.9697 942 36L945 33L945 28L933 43L931 36L930 36L927 46L926 46L925 37L924 37L921 46L920 37L908 39L908 31C898.85 34.0442 893.178 33.567 885 26C890.568 24.6453 893.948 20.1885 896 15L887 13L886 16L890 20L884 15C876.844 17.4526 878.586 29.9961 880 36C872.515 36.2994 869.587 30.3319 868 24L874 18C866.954 21.4965 866.257 25.5911 858 22L851 23L849 28L843 26L843 25L846 24C841.581 20.0101 838.348 24.6063 835 28C834.107 23.8528 831.163 26.0698 828 27L828 28L832 43L810 18C805.423 19.8407 806.172 23.6187 806 28C799.77 23.7413 797.48 24.5536 797 32L801 32L793 38L792 33L791 33L786 37L788 48L780 29L771 40L769 36C764.252 39.1426 757.543 47.4758 756 53L750 47L745 53C740.987 50.3354 737.56 48.1425 738 43L729 45L730 57L720 57L725 68L721 68L707 53L702 55L706 60L701 60L700 61L702 66L708 62L709 70L708 70L707 66C701.999 70.8975 705.392 76.8539 705 83C700.377 77.7749 701.882 75.3209 703 69L698 68L696 72L696 64L690 68L684.275 40L691 0L626 0z"/>
<path style="fill:#fcfcfc; stroke:none;" d="M691 0L684.144 39L690 68L696 64L696 72L698 68L703 69C701.245 75.1542 699.32 78.4952 705 83L707 66L708 70L709 70L708 62L702 66L700 61L701 60L706 60L702 55L707 53L721 68L725 68L720 57L730 57L729 45L738 43C736.796 48.3562 740.388 50.937 745 53L750 47L756 53L769 36L771 40L780 29C780.649 34.2069 783.586 44.9756 788 48L786 37L791 33L792 33L793 38L801 32L797 32C798.4 25.0883 799.589 24.9556 806 28C806.376 23.6836 806.094 20.4476 810 18C814.213 28.9177 822.462 36.281 832 43C831.96 38.2395 831.848 31.2336 828 28L828 27L835 28C838.845 25.2147 841.36 20.774 846 24L843 25L843 26L849 28L851 23C854.118 24.1661 857.108 26.1432 858 22C865.562 26.6665 867.874 22.4866 874 18L868 24C869.213 30.3926 872.2 37.4725 880 36C878.832 29.4141 877.397 18.7603 884 15C884.978 18.4646 886.473 19.4824 890 20L886 16L886 15L887 13L896 15L885 26C891.432 34.4493 899.993 35.3801 908 31L908 39L920 37C918.849 40.8278 918.061 43.0024 921 46L924 37L925 37L926 46L927 46L930 36L931 36L933 43L945 28L945 33L942 36C946.626 38.6874 943.825 42.6962 946.319 46.7168C950.597 53.6152 952.219 44.2679 952 41L958 48L960 42C965.001 39.7683 971.616 35.4882 973.276 29.9607C975.982 20.9553 968.947 7.61633 983 7L983 8C979.519 10.2571 979.91 13.2692 981 17L982 17L986 0L691 0M989 0L989 33C996.292 26.8934 994.684 14.7795 995 6L1000 20L1001 20L1002 0L989 0M1040 9L1042 9L1044 0C1038.9 0.885254 1038.72 4.54492 1040 9M1047 0L1047 3L1048 3L1047 0M1054 0L1059 18L1060 18C1062.82 13.3577 1064.5 13.1904 1069 16L1070 13L1075 20L1078 21L1080 12L1080 16L1091 16L1090 11L1096 12L1093 7L1096 4L1097 4L1098 16L1104 13L1103 21L1104 21L1104 16L1110 15L1109 26L1113 23L1114 23L1121 38L1127 39L1127 40C1121.67 43.7913 1124.91 47.7565 1124.49 53C1123.73 62.3828 1118.68 67.7795 1120 78L1126 75L1123 84L1124 85L1129 81L1136 82C1141.03 72.8013 1142.21 83.0665 1147 86L1147 88L1141 93L1144 96C1138.53 96.8738 1138.39 99.6763 1141 104L1136 112L1123 116C1122.89 125.525 1111.94 143.81 1117 152L1120 145C1121.18 151.318 1117.81 154.758 1115 160L1121 159L1118 168L1134 147L1132.11 163.982L1126.92 171.916L1135 180L1137 180L1141 159L1145 160L1151 158L1156 153L1152 168L1160 166L1157 176C1161.98 175.163 1164.05 171.764 1165 167C1172.27 167.15 1180.45 170.552 1182 161C1197.34 166.467 1190.29 154.426 1192 145L1195 147C1194.79 142.913 1191.76 139.277 1191.67 135.557C1191.52 129.402 1202.8 130.996 1206 132L1207 129L1210 129C1214.39 136.487 1221.97 129.851 1224 124L1238.81 127.742L1247 137L1252 132L1254 136L1255 133L1256 133L1257 144C1260.87 142.836 1261.99 140.833 1263 137C1268.53 140.479 1266.55 143.535 1265 149L1276 155L1287.4 144.271L1290 130L1292 130L1292 134L1293 134L1295 130L1298 131L1299 126L1302 130L1317 121C1321.41 123.084 1325.46 123.749 1328 119L1331 119L1332 146L1337 142L1337 146L1344 141L1343 148C1348.09 146.794 1351.75 142.341 1356 147L1357 147C1358.15 143.582 1361.5 128.424 1366 136C1371.39 132.436 1373.29 123.286 1377.16 118.001C1383.92 108.759 1393.88 104.55 1402 96.9105C1406.43 92.7424 1410.07 86.2248 1416 84.0479C1423.25 81.3879 1435.76 82.4796 1438.78 91.0394C1440.1 94.8062 1437.52 104.051 1436.44 107.961C1434.16 116.293 1426.24 121.771 1422.41 129.17C1417.69 138.297 1420.26 148.538 1417.24 157.83C1415 164.754 1406.37 170.135 1403 177L1405 176L1404 182C1398.72 184.89 1395.78 190.363 1394 196L1391 195L1376 213L1376 214L1379 225L1376 229L1377 233L1379 233L1388 225L1389 228L1412 223.948L1422.04 227.478L1437 223L1435 229L1457 223C1450.59 232.56 1457.33 236.653 1465 229L1466 229L1470 231L1465 240L1501 237.799L1519 237L1517 242L1520 238C1531 243.723 1555.52 238.985 1567 235.265C1578.34 231.59 1588.92 225.127 1599 235L1605 231L1604 233L1605 233L1610 240L1606 240L1606 236L1605 236L1600 246L1619 242L1620 242L1627 244L1627 257C1632.07 258.582 1634.17 262.928 1633 268L1638 269L1636 271C1638.24 278.047 1643.12 285.464 1637 292L1637 287C1630.05 291.14 1627.26 301.053 1618 301L1605 315L1603 319L1607 321L1607 323L1601 323L1601 325L1584.03 331.428L1568 335L1568 336C1573.3 340.713 1567.9 346.433 1566 352L1572 350L1575 361L1576 369L1582 369L1582 373L1583 374L1585 373L1585 374L1585 375L1578 373L1577 389C1578.57 394.67 1581.49 405.287 1587 407.975C1593.09 410.94 1597.02 405.272 1602 412L1598 413L1600 416L1617 413L1616 420C1620.19 424.522 1615.83 429.269 1611 431L1611 432L1617 436C1604.79 437.987 1611.04 449.757 1616 456C1611.37 458.556 1612.06 463.197 1612 468L1607 472C1597.97 470.431 1588.72 474.348 1593 484L1594 484L1595 481L1594 488L1573 479L1557 487L1560 489L1560 490L1552 491C1554.39 494.274 1556.55 493.633 1560 492L1562 498L1557 503L1557 504C1560.98 508.795 1562.63 516.097 1566.51 520.331C1572.52 526.886 1581.21 522.711 1584 534C1579.43 534.98 1581.24 539.241 1585 540C1582.01 545.741 1581.36 558.236 1586 563L1586 564C1580.45 568.087 1583.19 574.246 1583 580C1574.7 575.139 1568.19 573.168 1559 572.112C1555.22 571.677 1552.65 569.385 1550 573L1553 573L1554 576L1551 577L1554 588L1553 588L1546 583C1547.48 590.939 1551.64 597.715 1541 597C1545.39 603.552 1555.32 605.109 1556 614L1552 616C1570.88 629.559 1574.75 647.159 1583.23 667C1587.02 675.862 1592.62 682.452 1595 692L1590 693C1591.3 699.435 1590.88 709.332 1582 709L1575 714C1572.21 709.062 1567.81 705.668 1562 706C1559.17 701.893 1554.25 699.545 1551.06 695.486C1544.28 686.83 1540.19 676.405 1528.83 672.765C1517.29 669.069 1510.91 678.344 1525 682L1525 690L1528 689C1531.97 695.959 1531.51 696.834 1524 699L1524 700C1530.19 700.15 1534.3 702.258 1537 708L1543 707L1552 715L1552 716L1529 717.574L1513 725L1512 728L1502 729L1509 736L1502 742C1504.49 745.01 1512.21 747.588 1513.28 750.989C1514.59 755.162 1509.4 760.109 1506 761.196C1498.76 763.505 1487.31 760.48 1480 759L1480 760L1482 761L1480 764L1450 771L1450 772L1454 773L1451 777C1449.58 782.736 1444.88 781.902 1440 781L1439 782C1440.21 784.997 1442.03 790.148 1446.05 789.832C1452.23 789.347 1459.7 785.857 1466 784.518C1477.45 782.086 1493.67 782.454 1505 785.318C1510.19 786.631 1511.28 792.363 1516 794L1516 797L1513 797L1516 804L1508 814L1510 826L1516 827L1505 836L1497 835L1497 836L1500 846L1496 845C1493.27 848.828 1479.94 855.508 1485 861L1485 862L1484 864C1473.31 858.627 1471.45 861.979 1469 872C1459.15 873.097 1458.12 884.146 1459 892C1453.34 889.069 1450.39 890.889 1447 896L1445 891L1438 891L1440 898L1444 897L1449 908L1446 905L1442 905L1441 905L1445 916L1449 915L1447 917L1448 920L1440 920L1432 909L1430 909L1431 916L1425 915L1416 924L1418 911L1417 911L1416 915L1408 913L1414 926L1410 924L1412 932L1403 921C1398.66 924.324 1403.18 928.378 1405 932L1404 932L1401 931C1405.87 939.3 1417.09 948.872 1403 953L1400 951C1402.13 958.612 1395.41 954.418 1391.31 957.032C1389.05 958.478 1388.65 961.619 1388 964C1382.05 960.666 1374.74 958.419 1368 960L1365 956L1354 966C1348.26 962.188 1347.39 965.447 1346 971L1340 965L1342 976L1337 976L1335 964L1331 968C1322.22 965.444 1325.62 962.132 1320.4 956.615C1318.43 954.535 1315.08 955.59 1313.31 953.478C1310.45 950.056 1308.17 935.502 1308 931C1301.73 932.243 1300.26 933.565 1301 940L1306 938L1302 946L1302 947L1312 971C1306.31 977.276 1317.57 984.924 1319 992L1310 984L1304 988L1303 988C1302.62 982.502 1302.35 978.638 1297 976L1299 971L1288 988L1293 979C1285.26 980.77 1276.24 975.951 1277 967C1274.5 967.403 1271.98 967.893 1272.11 971.059C1272.52 981.561 1280.58 993.022 1282 1004C1277.71 1000.87 1276.74 998.103 1276 993C1266.62 996.403 1267.58 994.539 1260 990C1262.03 997.817 1267.2 1006.06 1261.19 1013.78C1258.66 1017.04 1252.64 1015.53 1252 1020L1249 1019L1250 1025L1246 1026L1245 1017C1239.6 1020.5 1245.73 1035.78 1246 1042C1239.6 1038.65 1239.9 1030.93 1237 1025L1236 1025L1237 1056L1236 1056L1231 1023L1228 1024L1216 997C1209.25 999.239 1214.52 1007.54 1214 1013L1218 1016L1205 1006L1200 1009L1196 994L1187 975C1182.72 980.055 1186.48 986.066 1184.75 991.937C1183.42 996.417 1180.08 994.807 1180 991L1174 989L1173 996L1168 993L1171 1024C1162.69 1019.59 1162.19 1005.45 1153 1004C1155.18 985.438 1139.52 982.5 1132 969L1131 969L1131 988C1136.17 992.324 1136.54 1003.12 1134 1009L1131 1005L1128 1007L1128 1008L1130 1012C1122.48 1008.34 1121.26 999.339 1119 992L1117 992L1115 997C1108.78 996.904 1106.93 1004.75 1106 1010L1096 1010L1096 1007L1081.48 1022L1083 1038C1086.08 1041.99 1086.6 1046.91 1090.44 1050.74C1097.38 1057.67 1110.84 1064.7 1114 1074L1111 1072C1110.02 1079.68 1115.8 1080 1122 1080L1154 1080L1300 1080L1920 1080L1920 0L1054 0z"/>
<path style="fill:#040404; stroke:none;" d="M832.667 7.33337L833.333 7.66663L832.667 7.33337z"/>
<path style="fill:#fcfcfc; stroke:none;" d="M976 9L977 10L976 9M1040 12L1039 16L1040 12z"/>
<path style="fill:#040404; stroke:none;" d="M840 15L840 16L844 16L840 15z"/>
<path style="fill:#fcfcfc; stroke:none;" d="M1067 16L1067 21L1068 21L1067 16M1079 16L1080 17L1079 16z"/>
<path style="fill:#040404; stroke:none;" d="M801.667 19.3334L802.333 19.6666L801.667 19.3334z"/>
<path style="fill:#fcfcfc; stroke:none;" d="M981 20L980 24L981 20M1104 21L1105 22L1104 21z"/>
<path style="fill:#040404; stroke:none;" d="M1115 21L1118 24L1115 21z"/>
<path style="fill:#fcfcfc; stroke:none;" d="M884 25L884 26L888 25L884 25M976 25L976 30L977 30L978 25L976 25M1000 25L996 36C1000.37 33.7272 1002.92 29.4889 1000 25z"/>
<path style="fill:#040404; stroke:none;" d="M1121 27L1122 28L1121 27M784 29C784.856 32.0303 785.919 32.2831 789 32L784 29z"/>
<path style="fill:#fcfcfc; stroke:none;" d="M1111 29L1113 36L1114 29L1111 29z"/>
<path style="fill:#040404; stroke:none;" d="M773 31L773 32L776 32L773 31z"/>
<path style="fill:#fcfcfc; stroke:none;" d="M852.667 31.3334L853.333 31.6666L852.667 31.3334z"/>
<path style="fill:#040404; stroke:none;" d="M876.667 31.3334L877.333 31.6666L876.667 31.3334M932 31L930 35L932 31z"/>
<path style="fill:#fcfcfc; stroke:none;" d="M976 33L976 36L978 36L978 33L976 33M802 34L805 37L802 34z"/>
<path style="fill:#040404; stroke:none;" d="M760 35L760 42C763.822 39.8127 763.088 37.6604 760 35z"/>
<path style="fill:#fcfcfc; stroke:none;" d="M880 38L878 44L881 45L880 38M769 40L768 43L769 40M794 41L793 44L794 41M831 45L836 48L835 45L833 44L831 45z"/>
<path style="fill:#040404; stroke:none;" d="M719 47L720 48L719 47z"/>
<path style="fill:#fcfcfc; stroke:none;" d="M921 49L921 52L922 52L923 49L921 49z"/>
<path style="fill:#040404; stroke:none;" d="M722 52L725 52L724 50L722 52z"/>
<path style="fill:#fcfcfc; stroke:none;" d="M758 53L759 54L758 53M732 54L732 56L734 56L732 54M748.667 55.3334L749.333 55.6666L748.667 55.3334z"/>
<path style="fill:#040404; stroke:none;" d="M696 58L696 60L698 60L696 58M1144 66L1144 68L1146 68L1146 66L1144 66z"/>
<path style="fill:#fcfcfc; stroke:none;" d="M726.333 71.6667L726.667 72.3333L726.333 71.6667z"/>
<path style="fill:#040404; stroke:none;" d="M1139.67 71.3333L1140.33 71.6667L1139.67 71.3333M1145 72C1144.36 75.9554 1145.5 78.0579 1149 80L1145 72M1132 75L1132 76L1136 76L1132 75z"/>
<path style="fill:#fcfcfc; stroke:none;" d="M687.667 75.3333L688.333 75.6667L687.667 75.3333z"/>
<path style="fill:#040404; stroke:none;" d="M1151 79L1151 80L1154 80L1151 79z"/>
<path style="fill:#fcfcfc; stroke:none;" d="M1420 84L1421 85L1420 84z"/>
<path style="fill:#040404; stroke:none;" d="M592 85L592 88L593 88L592 85z"/>
<path style="fill:#fcfcfc; stroke:none;" d="M1113 91L1114 92L1113 91z"/>
<path style="fill:#040404; stroke:none;" d="M597 95L598 96L597 95z"/>
<path style="fill:#fcfcfc; stroke:none;" d="M600 102L599 104L601 104L600 102z"/>
<path style="fill:#040404; stroke:none;" d="M506.667 107.333L507.333 107.667L506.667 107.333z"/>
<path style="fill:#fcfcfc; stroke:none;" d="M695 121L694 118L693 118L691 132L696 131C694.541 135.222 689.871 138.994 695 142L697 141L698 137L699 137L698 145C688.61 144.639 692.268 156.402 696 161C693.32 161.443 694.277 163.717 695 166L696 166L699 161C695.614 171.875 709.93 184.71 720 189L721 188L717 179L712 180L714 174L700 162L704 161L713 168L717 167L716 171L740 177C741.423 183.975 747.969 185.625 754 188C754.839 179.989 753.388 178.153 762 176L759 169C766.873 169.066 773.678 177.089 780 181L783 179C782.906 174.322 784.525 171.106 788 168L783 152C776.701 167.789 769.737 159.036 758 154.279C739.266 146.688 725.043 137.972 711.518 123.209C706.193 117.397 696.253 108.55 695 121z"/>
<path style="fill:#040404; stroke:none;" d="M503 115L504 116L503 115z"/>
<path style="fill:#fcfcfc; stroke:none;" d="M516 115L517 116L516 115M1114 119L1114 120L1121 120L1114 119z"/>
<path style="fill:#040404; stroke:none;" d="M563.333 127.667L563.667 128.333L563.333 127.667M482 134L483 139L484 139L484 134L482 134M481 143L482 144L481 143z"/>
<path style="fill:#fcfcfc; stroke:none;" d="M1099 147L1100 148L1099 147M1195 147L1196 148L1195 147z"/>
<path style="fill:#040404; stroke:none;" d="M1126 148L1122 156C1125.53 154.972 1127.27 151.47 1126 148z"/>
<path style="fill:#fcfcfc; stroke:none;" d="M1356 148L1356 152L1357 152L1356 148z"/>
<path style="fill:#040404; stroke:none;" d="M694 149L695 150L694 149z"/>
<path style="fill:#fcfcfc; stroke:none;" d="M1196 149L1197 152L1198 152L1196 149M1257 151L1257 152L1260 152L1257 151M1145 160L1146 161L1145 160M1108 165L1105 173L1107 173L1110 165L1108 165z"/>
<path style="fill:#040404; stroke:none;" d="M481.667 177.333L482.333 177.667L481.667 177.333z"/>
<path style="fill:#fcfcfc; stroke:none;" d="M1113 178L1112 184L1116 184L1113 178M1099.67 179.333L1100.33 179.667L1099.67 179.333z"/>
<path style="fill:#040404; stroke:none;" d="M410 185L411 186L410 185z"/>
<path style="fill:#fcfcfc; stroke:none;" d="M724 185L728 200C733.646 195.681 728.091 188.39 724 185M786 187L787 188L786 187M412 189L412 196L414 196L414 189L412 189M416.667 189.333L417.333 189.667L416.667 189.333M721 189L722 190L721 189M478 190L478 193L480 193L480 190L478 190M418 191L419 192L418 191M757.667 191.333L758.333 191.667L757.667 191.333M412 199L413 200L412 199z"/>
<path style="fill:#040404; stroke:none;" d="M473 201L474 202L473 201z"/>
<path style="fill:#fcfcfc; stroke:none;" d="M480 203L481 204L480 203M479 205L479 211L480 211L479 205M361 208L362 211L361 208M1375 211L1376 212L1375 211M1373 217L1376 220L1376 219L1373 217z"/>
<path style="fill:#040404; stroke:none;" d="M1613 218L1613 220L1615 220L1613 218z"/>
<path style="fill:#fcfcfc; stroke:none;" d="M1432.33 229.667L1432.67 230.333L1432.33 229.667M475 231C474.478 234.092 474.919 235.14 478 236L475 231M1586 233L1587 234L1586 233M1590 233L1592 235L1592 233L1590 233M455 235L458 240L455 235M1585 235L1586 236L1585 235M466 237L466 240L467 240L466 237z"/>
<path style="fill:#040404; stroke:none;" d="M1629 243L1630 244L1629 243z"/>
<path style="fill:#fcfcfc; stroke:none;" d="M332 251L332 252L335 252L332 251z"/>
<path style="fill:#040404; stroke:none;" d="M1628.67 251.333L1629.33 251.667L1628.67 251.333M1632.67 255.333L1633.33 255.667L1632.67 255.333z"/>
<path style="fill:#fcfcfc; stroke:none;" d="M336 257C337.141 261.019 338.981 262.859 343 264L336 257M1625.67 257.333L1626.33 257.667L1625.67 257.333z"/>
<path style="fill:#040404; stroke:none;" d="M323.333 258.667L323.667 259.333L323.333 258.667z"/>
<path style="fill:#fcfcfc; stroke:none;" d="M346.333 258.667L346.667 259.333L346.333 258.667z"/>
<path style="fill:#040404; stroke:none;" d="M1635 259L1638 264L1635 259M1642.67 269.333L1643.33 269.667L1642.67 269.333M1643 279L1641 285C1643.55 283.35 1644.1 281.88 1643 279M338 285L338 288L340 288L340 285L338 285M1648 289L1647 292L1648 289M1633 293C1632.43 295.396 1632.53 295.487 1635 296L1633 293M327 296L327 299L328 299L327 296M300 313L301 316L302 316L300 313M1612 316L1615 313L1612 316z"/>
<path style="fill:#fcfcfc; stroke:none;" d="M1599 317L1602 320L1602 319L1599 317M303 326C304.19 329.676 305.077 331.348 309 332L309 325L303 326z"/>
<path style="fill:#040404; stroke:none;" d="M298 331L300 333L300 331L298 331M290 343L291 344L290 343z"/>
<path style="fill:#fcfcfc; stroke:none;" d="M284 367L285 368L284 367M284 373L285 379L284 373M282 381L282 382L286 380L282 381M282.333 385.667L282.667 386.333L282.333 385.667z"/>
<path style="fill:#040404; stroke:none;" d="M271 395L272 396L271 395M279.333 406.667L279.667 407.333L279.333 406.667z"/>
<path style="fill:#fcfcfc; stroke:none;" d="M1592 415L1592 416L1596 416L1592 415z"/>
<path style="fill:#040404; stroke:none;" d="M271 416L271 419L272 419L271 416z"/>
<path style="fill:#fcfcfc; stroke:none;" d="M1598 416L1599 417L1598 416M278 419L278 424L279 424L278 419M370 425C370.654 428.054 372.007 427.936 375 428L370 425M377 427L377 428L380 428L377 427M388.667 431.333L389.333 431.667L388.667 431.333M274.333 434.667L274.667 435.333L274.333 434.667M282.667 439.333L283.333 439.667L282.667 439.333z"/>
<path style="fill:#040404; stroke:none;" d="M356 442L357 443L356 442z"/>
<path style="fill:#fcfcfc; stroke:none;" d="M279 443L280 444L279 443M338 468L341 469L342 465L338 468z"/>
<path style="fill:#040404; stroke:none;" d="M292 489L293 490L292 489z"/>
<path style="fill:#fcfcfc; stroke:none;" d="M304 490L304 492L306 490L304 490M315 498L314 499L314 500L315 501L316 501L317 500L317 499L315 498M318 499L319 500L318 499z"/>
<path style="fill:#040404; stroke:none;" d="M1566 515L1567 516L1566 515z"/>
<path style="fill:#fcfcfc; stroke:none;" d="M288 531L289 532L288 531M306 559L307 560L306 559M318 573L320 576L318 573M1548 573L1549 574L1548 573z"/>
<path style="fill:#040404; stroke:none;" d="M299 595L300 596L299 595M303 596L304 597L303 596z"/>
<path style="fill:#fcfcfc; stroke:none;" d="M305 599L306 600L305 599z"/>
<path style="fill:#040404; stroke:none;" d="M285 617L288 620L285 617z"/>
<path style="fill:#fcfcfc; stroke:none;" d="M292 617L292 618L295 618L292 617M298 617L301 620L298 617M308 637L310 640L308 637z"/>
<path style="fill:#040404; stroke:none;" d="M289 641L290 642L289 641M290 643L291 644L290 643z"/>
<path style="fill:#fcfcfc; stroke:none;" d="M276 665L276 668L278 668L278 665L276 665M283 669L283 670L284 672L286 669L283 669M1513 671L1514 672L1513 671M281 672L282 673L281 672z"/>
<path style="fill:#040404; stroke:none;" d="M1526 681L1528 684L1526 681z"/>
<path style="fill:#fcfcfc; stroke:none;" d="M221 714L220 716L222 716L221 714z"/>
<path style="fill:#040404; stroke:none;" d="M1576 715L1577 716L1576 715z"/>
<path style="fill:#fcfcfc; stroke:none;" d="M306 724L311 728L312 728L313 722L306 724M314 723L315 724L314 723z"/>
<path style="fill:#040404; stroke:none;" d="M198 725L198 727L200 727L200 725L198 725z"/>
<path style="fill:#fcfcfc; stroke:none;" d="M317 725C316.297 730.307 317.901 731.86 323 733L324 732L317 725M1495 725L1495 729L1500 728L1500 727L1495 725M1487 735L1488 736L1487 735M1499 739L1500 740L1499 739z"/>
<path style="fill:#040404; stroke:none;" d="M1514 756L1517 756L1516 754L1514 756z"/>
<path style="fill:#fcfcfc; stroke:none;" d="M242 755L243 756L242 755M1458 759L1458 760L1462 760L1458 759M1466 759L1467 760L1466 759M1476.67 761.333L1477.33 761.667L1476.67 761.333M236 763L237 764L236 763M1424 771L1426 773L1426 771L1424 771M240.667 775.333L241.333 775.667L240.667 775.333M1427.67 775.333L1428.33 775.667L1427.67 775.333z"/>
<path style="fill:#040404; stroke:none;" d="M274 801L275 802L274 801z"/>
<path style="fill:#fcfcfc; stroke:none;" d="M1511 803L1512 804L1511 803z"/>
<path style="fill:#040404; stroke:none;" d="M1514 809L1517 807L1514 809M1514 810L1517 812L1514 810z"/>
<path style="fill:#fcfcfc; stroke:none;" d="M290 819L291 820L290 819z"/>
<path style="fill:#040404; stroke:none;" d="M1517 825L1520 824L1517 825M265 827L265 828L270 828L265 827z"/>
<path style="fill:#fcfcfc; stroke:none;" d="M1482 862L1483 863L1482 862M303.667 867.333L304.333 867.667L303.667 867.333M298 871L295 876L298 871z"/>
<path style="fill:#040404; stroke:none;" d="M279 874C280.413 877.834 281.987 878.67 286 878L283 873L279 874z"/>
<path style="fill:#fcfcfc; stroke:none;" d="M292 877L293 878L292 877M299 883L300 884L299 883M338 883L339 885L340 885L341 883L338 883M604 883L605 884L604 883M597 891L598 892L597 891M1433 891L1434 892L1433 891M349 893L346 901C349.139 898.96 350.401 896.62 349 893z"/>
<path style="fill:#040404; stroke:none;" d="M282.667 895.333L283.333 895.667L282.667 895.333z"/>
<path style="fill:#fcfcfc; stroke:none;" d="M595 897L598 900L595 897z"/>
<path style="fill:#040404; stroke:none;" d="M285 904L288 901L285 904M1450.67 903.333L1451.33 903.667L1450.67 903.333z"/>
<path style="fill:#fcfcfc; stroke:none;" d="M589 911L590 912L589 911M1420.67 915.333L1421.33 915.667L1420.67 915.333M1407 917L1408 918L1407 917z"/>
<path style="fill:#040404; stroke:none;" d="M1434 917L1433 918L1433 919L1433 920L1436 917L1434 917M1429 922L1428 928L1432 922L1429 922z"/>
<path style="fill:#fcfcfc; stroke:none;" d="M587 925L587 933L588 933L587 925M352 926L352 929L354 928L354 927L352 926M348 929L348 933L349 933L350 929L348 929M1400 929L1401 930L1400 929M573 935L574 936L573 935M584 935L585 936L584 935M658 937L656 940L660 940L658 937M1261 938C1262.26 942.1 1263.67 943.656 1268 944L1268 943L1261 938M652 939L652 940L655 940L652 939z"/>
<path style="fill:#040404; stroke:none;" d="M633.667 943.333L634.333 943.667L633.667 943.333z"/>
<path style="fill:#fcfcfc; stroke:none;" d="M1312 943L1313 944L1312 943M567 944L570 948L567 944M1265 956L1262 951C1252.89 952.993 1268.21 964.773 1272 966L1270 947C1265.4 948.69 1265.05 951.395 1265 956M1287 951L1288 952L1287 951M372.667 955.333L373.333 955.667L372.667 955.333M1050.67 955.333L1051.33 955.667L1050.67 955.333z"/>
<path style="fill:#040404; stroke:none;" d="M1403.67 955.333L1404.33 955.667L1403.67 955.333z"/>
<path style="fill:#fcfcfc; stroke:none;" d="M385 957L384 960L385 957M1328 957L1329 958L1328 957M378 959L376 965C378.394 962.972 379.583 961.857 378 959M381 959L382 960L381 959M1278.67 959.333L1279.33 959.667L1278.67 959.333M1285 959L1288 962L1285 959M1335 959L1335 963L1336 963L1335 959M1296 963L1296 967L1297 967L1296 963M1286 965L1287 966L1286 965M1240 969L1238 971L1238 972L1242 972L1240 969M1283 969L1282 972L1283 969M1290 969L1291 970L1290 969M375 971L375 977L376 977L375 971M377 971L378 972L377 971M1286 973L1285 976L1286 973M513.333 974.667L513.667 975.333L513.333 974.667M1159 974L1161 977L1159 974M656 986L666 975L656 986M1289 975L1290 976L1289 975M1169 977L1171 981L1169 977z"/>
<path style="fill:#040404; stroke:none;" d="M1345.33 978.667L1345.67 979.333L1345.33 978.667z"/>
<path style="fill:#fcfcfc; stroke:none;" d="M1161 980L1161 982L1163 982L1161 980M1267 983L1271 989L1272 988L1267 983M1290 983L1291 984L1290 983z"/>
<path style="fill:#040404; stroke:none;" d="M1296 983L1296 984L1299 984L1296 983M1351 983L1352 984L1351 983M519 985L520 986L519 985z"/>
<path style="fill:#fcfcfc; stroke:none;" d="M1256 985L1256 987L1258 987L1258 985L1256 985M638 986L635 991L638 992L638 986M1205 987L1204 992L1205 992L1207 987L1205 987M653 988L648 997L653 988M979 989L978 992L981 992L979 989M1154 989L1158 993L1154 989M1272 989L1273 990L1272 989M1271 991L1272 993L1273 993L1274 991L1271 991z"/>
<path style="fill:#040404; stroke:none;" d="M507.333 992.667L507.667 993.333L507.333 992.667M1186 993L1186 994L1190 995L1190 994L1186 993M502 994L504 996L504 994L502 994z"/>
<path style="fill:#fcfcfc; stroke:none;" d="M639 994L639 996L641 996L639 994M1157 994L1155 999L1157 994M496 995L497 996L496 995z"/>
<path style="fill:#040404; stroke:none;" d="M1190 996L1192 999L1190 996z"/>
<path style="fill:#fcfcfc; stroke:none;" d="M934.333 997.667L934.667 998.333L934.333 997.667M979 999L980 1000L979 999M975 1011C978.732 1018.02 981.634 1022.44 974 1028L974 1017C967.978 1019.02 967.805 1039.67 966 1046L960 1044L961 1040L962 1040L964 1044L965 1044L965 1038C958.763 1037.72 959.015 1032.07 959 1027L954 1032C953.796 1025.72 949.321 1021.91 944 1019C944.826 1025.1 948.419 1030.77 947.891 1037C947.09 1046.46 941.826 1050.99 945 1061C929.957 1056.55 946.039 1038.67 937 1034L936 1038L929 1026L918 1030L918 1025C912.484 1029.2 916.454 1038.89 915.348 1045C914.626 1048.99 911.476 1052.23 910 1056L901 1056C903.005 1051.82 907.413 1048.44 908.562 1043.99C909.956 1038.59 906.052 1036.06 903 1041L899 1026L898 1026L891 1033L891 1036C897.116 1042.48 884.364 1052.92 879 1056L879 1053C875.599 1056.24 875.357 1059.47 876 1064L881 1060L882 1066L879 1064L878 1064L872 1075L869 1073L868 1076L872 1076L872 1080L1038 1080L1035 1073L1044 1072C1043.31 1068.7 1040.66 1066.19 1040.18 1062.96C1039.01 1055.06 1042.39 1043.37 1031 1043L1031 1048L1024 1046L1030 1059L1022 1062C1020.53 1057.72 1018.52 1055.7 1014 1055L1014 1056C1017.09 1058.66 1017.82 1060.81 1014 1063L1014 1064L1019 1072L1016 1067L1013 1066C1010.77 1070.89 1008.38 1073.4 1004 1069L1002 1069L998 1072C1000.41 1064.2 997.433 1055.8 988 1056L988 1055L989.613 1044.09L1001 1023L996 1024L998 1014L997 1014L994 1019L993 1019L985.142 1010.7L984 999L975 1011z"/>
<path style="fill:#040404; stroke:none;" d="M1272 1004L1273 1004L1274 1002L1272 1004M1268 1004L1266 1008L1268 1004M1287 1005L1290 1010L1287 1005z"/>
<path style="fill:#fcfcfc; stroke:none;" d="M639 1007L640 1008L639 1007M1160 1007L1160 1008L1163 1008L1160 1007M1253 1009L1252 1012L1255 1012L1253 1009z"/>
<path style="fill:#040404; stroke:none;" d="M1275 1009L1276 1010L1275 1009z"/>
<path style="fill:#fcfcfc; stroke:none;" d="M634 1010L635 1013L636 1013L637 1010L634 1010z"/>
<path style="fill:#040404; stroke:none;" d="M1134 1012L1137 1010L1134 1012z"/>
<path style="fill:#fcfcfc; stroke:none;" d="M996 1011L997 1012L996 1011M941 1015L942 1016L941 1015M953.667 1015.33L954.333 1015.67L953.667 1015.33M1241 1015L1242 1016L1241 1015M926 1019L926 1020L929 1025L930 1025L930 1019L926 1019M918 1023L918 1025L920 1023L918 1023z"/>
<path style="fill:#040404; stroke:none;" d="M1172 1024L1173 1031L1174 1031L1174 1024L1172 1024M423.667 1027.33L424.333 1027.67L423.667 1027.33z"/>
<path style="fill:#fcfcfc; stroke:none;" d="M882 1027L883 1028L882 1027z"/>
<path style="fill:#040404; stroke:none;" d="M925 1028L925 1032L927 1032L927 1028L925 1028z"/>
<path style="fill:#fcfcfc; stroke:none;" d="M935 1029L934 1032L938 1033L935 1029M1077 1030L1076 1036L1078 1036L1077 1030M682 1034L678 1044L681 1045L684 1034L682 1034M488.667 1035.33L489.333 1035.67L488.667 1035.33M1023 1036L1023 1040L1024 1040L1025 1036L1023 1036M862 1041L864 1044L862 1041M1031 1041L1032 1042L1031 1041M1043 1041L1044 1042L1043 1041M756 1042C755.411 1045.2 752.885 1049.01 752.974 1052.09C753.206 1060.16 760.582 1072.84 751 1078L750 1075L744 1080L792 1080C791.48 1076.11 787.02 1064.96 781.415 1067.47C778.03 1068.98 777.612 1074.06 774 1076L776 1067C772.075 1069.6 772.039 1073.59 772 1078C764.601 1070.1 775.006 1058.74 778 1051L777 1050L773 1054L770 1054L769 1048L767 1055L763 1047L756 1042M723 1043L724 1044L723 1043M786 1043L787 1044L786 1043M808 1043L809 1044L808 1043M1043 1043L1044 1044L1043 1043M1049 1080C1054.56 1080 1076.78 1082.71 1078 1077L1072 1073L1068 1074L1064 1066C1057.31 1067.59 1056.09 1063.36 1052 1059C1054.96 1055.55 1052.21 1041.76 1046.61 1045.18C1043.33 1047.18 1048.55 1052.05 1049.12 1054.17C1051.26 1062.12 1049.16 1071.87 1049 1080M786 1045L785 1047L787 1047L786 1045M816.667 1045.33L817.333 1045.67L816.667 1045.33M1066 1045L1069 1050L1066 1045M788 1051L791 1060L786 1064C789.781 1062.48 792.078 1061.11 793 1057L791 1057L788 1051M1020 1051L1019 1056L1022 1051L1020 1051z"/>
<path style="fill:#040404; stroke:none;" d="M636 1053L636 1056L638 1056L638 1053L636 1053z"/>
<path style="fill:#fcfcfc; stroke:none;" d="M1023.67 1055.33L1024.33 1055.67L1023.67 1055.33M813 1057C812.055 1060.98 811.248 1064.57 815 1067L815 1057L813 1057z"/>
<path style="fill:#040404; stroke:none;" d="M912 1059L913 1060L912 1059z"/>
<path style="fill:#fcfcfc; stroke:none;" d="M1023 1059L1024 1060L1023 1059M1063 1064L1064 1065L1066 1062L1063 1064M1085 1063L1085 1064L1089 1064L1085 1063M776 1063L776 1064L779 1064L776 1063M793 1066L796 1063L793 1066M1010.67 1063.33L1011.33 1063.67L1010.67 1063.33M861 1067C863.696 1068.76 865.137 1068.04 866 1065L861 1067M875 1065L876 1066L875 1065z"/>
<path style="fill:#040404; stroke:none;" d="M940 1073C943.9 1071.48 945.124 1069 946 1065C941.893 1066.29 940.745 1068.9 940 1073z"/>
<path style="fill:#fcfcfc; stroke:none;" d="M1088.33 1065.67L1088.67 1066.33L1088.33 1065.67M794 1067L795 1068L794 1067M1089 1067L1087 1080L1092 1080L1089 1067M1080 1068L1078 1075C1081.29 1073.18 1082.28 1071.18 1080 1068M1099 1070L1098 1080L1105 1080L1099 1070M814 1071L813 1080L814 1080L814 1071z"/>
<path style="fill:#040404; stroke:none;" d="M934 1076L939 1076L938 1072L934 1076z"/>
<path style="fill:#fcfcfc; stroke:none;" d="M703 1073L703 1077L707 1076L707 1074L703 1073M862 1073L859 1080C862.428 1078.77 863.896 1076.25 862 1073M794.667 1075.33L795.333 1075.67L794.667 1075.33M818 1080L821 1077L818 1080M828 1077L831 1080L828 1077M804 1079L805 1080L804 1079z"/>
<path style="fill:#040404; stroke:none;" d="M1072.67 1079.33L1073.33 1079.67L1072.67 1079.33z"/>
</svg>
