<?xml version="1.0" standalone="yes"?>
<svg xmlns="http://www.w3.org/2000/svg" width="1920" height="1080">
<path style="fill:#fdfdfd; stroke:none;" d="M0 0L0 1080L1920 1080L1920 0L671 0C671.109 19.7432 675.328 40.2086 669 60C673.032 63.559 672.922 66.9548 672 72L674 69C681.264 77.3568 683.567 86.9776 687.524 96.8303C688.681 99.7106 691.233 101.768 691.548 105.004C692.501 114.793 685.724 127.116 684.454 137C683.729 142.649 686.902 147.53 687.841 152.961C690.001 165.452 686.377 179.903 700 188L699 177C708.128 183.242 721.339 192.677 724 204L728 203C728.909 208.425 731.984 207.169 736 205L737 208L741 208L743 198C746.842 200.378 748.548 197.63 750 194C757.097 198.394 761.147 203.228 770 204L770 199C762.307 196.538 769.964 188.718 772 184C779.117 188.021 785.397 198.372 788 206L789 206C792.942 195.9 788.107 187.548 787.325 177C786.591 167.107 791.085 158.789 782 151L780 158C766.844 158.928 753.114 149.349 743.87 140.414C741.006 137.645 732.024 131.599 737 128C735.865 121.809 732.704 121.082 727 120C729.915 114.765 734.351 117.21 739 119C739.883 115.696 739.957 113.92 737 112L737 111L739 110L740 110L740 112L742 112L740 105L772 113L774 107C768.719 103.74 761.617 99.757 761 93L770 93L767 76L781 80L780 71L781 71L783 76L801 78L797 82L797 83L803 90L806 88L806 87L802 81L812 81L812 84L820 79L824 83L821 65C830.783 71.356 829.632 68.7009 835 61L836 64L840 63C840.717 67.3925 842.962 68.572 847 70L847 58C851.092 57.5779 853.917 56.658 856 53L864.598 59.5911L868 70L870 61L880 64L879 54L880 53L882 53C885.724 58.4326 889.232 59.4997 888 67C894.833 63.1219 893.131 55.5465 895 49L898 58L902 57L903 64L904 64L905 62L909 74L918 73L918 78L924 80L930 69L931 75L932 75C933.655 72.3858 935.979 66.4949 939.201 65.6088C944.37 64.187 945.243 75.8847 945 79L950 75L951 79L952 79C955.766 73.6958 957.736 66.2052 965 66L969 62L968 80L969 80L974 69L973 72L976 73C982.099 61.5623 989.32 49.8608 1000 42L999 50L1000 50C1003.22 43.8965 1005.89 33.3531 1014 33L1011 50L1014 48L1023 47L1023 52C1036 50.4945 1035.71 42.6276 1044 35L1040 63L1041 63C1045.43 55.0833 1042.09 39.4935 1051 35L1056 52L1057 52L1061 47L1057 74L1055 70L1052 71L1052 72C1058.14 77.4052 1052.71 88.8616 1052 96C1058.59 91.4014 1055.43 83.5084 1066 84L1068 78L1063 76L1063 75L1072 67L1070 75C1075.71 72.1921 1079.14 65.934 1081 60L1083 60L1087 70L1095 69L1093 75L1100 71C1097.42 75.8395 1096.11 84.7267 1103 86C1105.35 99.4148 1093.99 112.085 1092 124L1086 126L1086 128L1091 128L1095 132L1106 118C1108.78 128.448 1096.82 134.832 1100 144C1090.74 144.659 1091.49 148.26 1089 156L1096 149C1098.07 151.49 1097.65 152.227 1096 155L1096 156L1091 169L1088 174L1095 167L1098 168L1099 159C1106.45 166.014 1100.33 177.351 1094 183L1094 184L1106 178L1104 184L1111 177L1111 188L1116 181L1120 181L1119 184L1125 184C1122.54 190.022 1120.09 195.486 1122 202L1138 183L1137 194L1149 181L1149 190L1152 187C1160.76 188.7 1166.5 181.553 1174.17 179.205C1179.82 177.475 1185.23 178.566 1191 176L1190 173L1196 174L1198 164L1200 165C1202.98 158.167 1204.61 152.227 1202 145L1211 150L1216 141L1227 148L1231 140L1234 142L1235 139L1239 140L1239 142C1244.78 143.68 1247.44 152.514 1248 158L1249 158L1251 149L1252 149L1261 174L1262 174C1265.5 169.448 1267.59 169.882 1272 173L1272 165L1275 163L1292 152L1296 141L1300 143L1301 143C1304.89 138.675 1311.1 132.755 1315 140L1322 135L1325 160L1332 160L1333 156L1336 159C1337.65 152.919 1343.39 149.149 1347 156C1355.76 152.017 1358.17 150.908 1361 141C1369.65 144.201 1370.53 134.472 1374.12 129C1379.66 120.558 1394.64 103.592 1405 101.668C1407.24 101.253 1409.73 101.659 1412 101.627C1435.23 101.296 1415.42 124.321 1411.97 134C1409.09 142.094 1411.95 151.513 1409.86 159.985C1408.22 166.654 1401.8 171.151 1398.51 177C1396.58 180.438 1396.86 184.535 1394.91 188C1387.21 201.695 1372.45 207.418 1371 224L1376 223C1374.95 225.77 1373.47 231.096 1377.29 232.688C1380.2 233.901 1384.31 230.479 1387.01 229.674C1395.09 227.272 1400.46 230.238 1408 225L1408 230L1424 231L1418 243L1418 244L1440 233C1442.13 244.456 1444.47 244.248 1455 240L1453 250L1458.64 256.933L1472 257L1472 259L1508 255.474L1521 256L1522 256C1526.82 253.473 1538.44 250.732 1539 259L1540 259L1546 255L1546 260C1531.72 264.242 1548.96 268.282 1551.68 270.603C1554.81 273.268 1553.02 277.409 1555.03 280.516C1557.56 284.436 1562.17 282.861 1566 283L1554 294L1567 295L1562.27 306.412L1549 310.221L1529 322L1530 335L1536 329L1537 333L1544 329C1545.77 337.536 1545.53 351.585 1557 351L1554 356L1559 357L1558 360C1563.81 363.588 1564.08 367.641 1564 374L1568 375L1566 380L1570 378L1565 390C1566.45 394.646 1568.18 397.654 1573 399C1568.33 404.722 1574.51 416.259 1582 415C1583.12 420.277 1592.09 422.918 1597 423L1591 436L1599 439L1599 440L1592.97 447.361L1580 452L1585 450L1591.59 455.347L1593 464C1584.62 468.09 1577.9 471 1568 471L1568 472L1574 472L1576 477C1562.77 474.535 1556.08 475.741 1546 485L1549 489L1541 491L1541 492L1551 495L1549 498L1553 499L1559 521L1570 531L1570 532L1566 534L1566 536C1571.57 541.833 1573.2 550.44 1564 553L1566 561L1539 557L1538 558L1537 569L1537 570L1544 579L1544 580C1540.17 582.857 1536.85 584.902 1538 590L1534 591C1535.93 597.54 1541.07 599.368 1544.09 605.004C1545.92 608.433 1545.27 612.483 1547.37 615.956C1550.25 620.734 1555.93 623.401 1559.37 628.001C1568.02 639.574 1576.15 657.652 1578 672L1565 687.137L1556.51 682.911L1538 663L1531 662L1532 659C1521.09 664.579 1512.93 653.755 1502 655L1510 658L1509 667C1504.33 667.862 1501.78 675.439 1505.75 679.066C1507.95 681.083 1512.2 681.275 1515 682L1515 684L1514 685L1503 685C1504.01 689.738 1509.95 689 1514 689L1514 690L1495 693C1500.02 700.898 1514.24 698.528 1517 710L1522 711C1511.72 719.499 1500.41 717 1488 717L1489 720L1482 717L1481 717L1481 724C1486.48 722.054 1487.95 728.002 1490 732L1480 733C1482.51 742.567 1488.35 741.401 1484 752L1488 750L1489 754L1478 753C1472.97 760.768 1460.81 754.461 1454 753L1448 754L1447 755C1451.39 762.557 1447.97 765.602 1440 767L1443 778C1431.53 775.827 1425.58 771.308 1419.48 761C1416.37 755.756 1415.49 749.277 1410 746C1416.62 761.967 1424.2 772.881 1436.9 784.464C1441.65 788.806 1443.48 793.83 1450 796C1451.99 786.395 1469.19 785.418 1475 792L1477 790L1481 793L1480.87 801.671L1464 812L1477 814L1477 822L1480 822L1480 826L1462 831L1462 832L1466 833L1458 837L1456 840L1456 841L1452 860C1448.36 862.012 1446.52 864.021 1443 861L1441 866C1438.33 867.732 1438.29 868.942 1439 872L1432 870L1433 876L1420 873L1419 876L1413 875L1411 888C1402.69 884.887 1398.27 885.415 1399 896L1392 891L1390 926L1385 919L1384 922L1383 922L1381 917L1380 917L1376 921L1377 924L1374 933L1373 933C1372.07 929.611 1371.85 926.931 1368 927L1372 936C1364.26 933.217 1358.92 931.857 1357 923L1354 923C1353.16 925.878 1351.59 927.149 1349.99 929.593C1338.44 947.248 1326.33 924.212 1324 912L1319 928L1316 923C1311.38 923.4 1310.31 921.131 1309 917C1301.34 917.961 1299.68 913.154 1297 907L1284 897L1286 913L1285 913L1280 907L1292 930C1284.88 932.543 1268.34 931.389 1268 921L1267 921L1266 925L1254 924L1248 950L1240 941L1238 948C1230.44 946.722 1226.36 953.157 1226 960C1219.94 953.498 1225.18 943.182 1212 944C1209.76 962.104 1223.12 969.644 1227 986L1218 979L1220 989L1219 989L1211 977L1209 981L1204 976L1201 977L1200 976L1201 969L1200 969L1199 972L1172 967L1170 949L1165 949L1167 956L1160 956L1159 949C1152.16 950.945 1158.35 957.669 1158.7 961.94C1158.91 964.424 1156.41 966.497 1156.08 969.018C1155.47 973.733 1157.26 978.28 1157 983L1154 982L1152 986C1148.46 983.193 1140.06 978.413 1137.92 974.853C1133.89 968.172 1137.41 964.01 1129 959C1127.66 962.815 1124.2 965.254 1122.95 969.014C1120.57 976.158 1123.84 989.076 1126 996L1122 998C1121.26 995.684 1120.65 993.276 1119.8 991C1114.08 975.747 1104.79 990.39 1098 995.449C1094.88 997.776 1083.43 1010.07 1082 1003C1078.63 1003.27 1073.29 1002.54 1070.3 1004.18C1065.4 1006.88 1065.02 1019.04 1064 1024L1067 1020L1068 1020L1069 1030L1063 1029L1064 1034L1068 1033L1075 1044L1076 1044L1076 1041L1086 1056L1073.21 1050.4L1065 1043L1065 1056C1048.48 1048.49 1046 1024.44 1046 1009L1045 1009L1039 1017L1038 1024L1032.75 1028.06L1037.79 1037L1047 1056C1038.08 1050.7 1040.08 1035.2 1026 1036L1025 1029L1024 1029C1020.25 1036.59 1019.71 1043.69 1012 1048L1015 1044L1015 1042L1011 1044L1010 1025L1004 1040C1005.02 1031.91 1007.24 1020.69 1003.94 1013.04C999.212 1002.07 990.118 995.531 991 982C985.971 977.856 985.779 973.166 985 967L984 967L984 974L981 973L976 989C966.474 985.989 969.729 996.441 971 1002L967 1002L968 1007L967 1007L964 1003L965 1012C959.458 1010.33 956.184 1005.24 952 1012L944 1009L944 1012L940 1011L943 1032C934.041 1024.78 930.396 1011.91 930 1001L929 1001L921 1016L921 1009C913.502 1013.6 910.787 1028.38 914 1036L906 1032L907 1019L906 1019L904 1028L902 1028L904 1019L899 1019L900 1024L888 1028L886 1040L885 1040C877.454 1026.36 871.513 1053.77 868 1057L865 1035L862 1034C857.222 1046.1 865.505 1055.75 854 1066L856 1057L848 1065L850 1051L842 1064L838 1063L839 1068L833 1070L834 1059L825 1074C826.639 1059.32 823.012 1050.78 817 1038L805 1044L803 1044L802 1041L800 1048C793.075 1041.6 799.772 1035.99 802 1029L791 1029L791 1024C782.808 1026.6 780.007 1026.73 780 1036L774 1041C769.833 1035.42 772.91 1032.12 774 1026L768 1032L760 1031L759 1025C743.539 1034.16 744.197 1059.32 726 1064C733.725 1055.39 728.889 1047.35 731.47 1037C734.058 1026.62 739.655 1020.13 744 1011C740.058 1009.39 735.337 1006.74 731.147 1009.18C725.292 1012.58 727.608 1019.44 719 1019L720 1022L707 1022C710.882 1015.85 716.723 1011.83 719.958 1005C722.359 999.932 721.613 993.733 724.326 989.039C726.603 985.101 733.246 982.632 734.119 978.13C735.402 971.513 726 967.345 721 968C718.914 955.485 703.429 958.853 702 966L701 966L704 959L686 964L686 960C674.644 963.341 675.118 970.874 668 978C668.224 972.781 668.802 966.777 671.049 962C672.831 958.212 677.456 954.476 677.083 950C675.986 936.835 660.781 929.796 652.089 923.437C647.277 919.916 644.064 913.984 641 909C632.343 906.508 630.597 892.993 626.876 886.019C623.527 879.744 613.862 875.442 607 875L608 880L597 869L600 878L591 870L590 870L593 905L589 901L591 909C585.447 909.616 590.88 921.623 592 926L585 920L582 936L578 935L578 942L577 942L575 935L572 935L572 940L566 931C550.67 939.251 567.129 952.218 565.993 961.873C565.365 967.214 558.252 962.58 556.004 961.339L550 958L552 985L540 973L539 981C529.885 979.529 529.309 969.836 526 963L524 963L522 967L521 967L518 961L517 961L516 974L515 974L512 971L506 980L506 969L504 969L501 983C495.815 979.565 495.899 976.88 496 971L485 973L484 976L485 977L488 976L488 979L485 978L478.394 994L478 1017L477 1017L476 1015C472.196 1019.66 468.632 1017.22 464 1015L453 1018L452 1013L449 1016L444 1016C439.814 1006.8 436 1001.53 436 991L424 997L423 992C420.67 992.729 414.119 997.274 412.083 996.133C409.965 994.948 414.894 986.601 414.473 984.019C413.615 978.756 408.78 979.143 405.877 975.695C402.289 971.435 408.826 962.769 412 960L412 959L404 958L395 968L398 948L395 943L394 942L388 949L383 949L375 942C375.917 938.838 376.251 934.25 380 934L379 931L387 924L387 923L386 907C383.695 911.592 384.332 916.501 382.402 921C379.282 928.271 373.741 931.36 368.185 936.235C363.803 940.079 362.592 945.05 356 944L360 905L358 911L347 912L354 889L348 887C346.957 893.563 343.074 896.772 337 899C341.805 887.286 343.508 878.383 342 866L336 870L338 864C327.396 868.585 319.889 882.039 306 878L302 887L301 887L301 892L300 892L301 880L296 882C298.632 875.784 303.521 870.203 310 868C307.568 860.905 301.882 864.106 298 868L301 860L301 859L293 857L299 852C303.658 844.257 319.897 837.122 317 827L299 828C298.054 819.644 295.481 815.831 287 818L293 812C290.82 804.658 284.516 804.449 278 806C279.736 800.373 279.124 797.972 276 793L272 794C270.578 790.375 268.827 789.463 265 790L266 783L256 786L257 783L246 771C256.672 767.011 257.523 763.68 255 753C263.158 751.699 259.888 746.067 257 741L253 742C254.45 727.919 244.373 729.47 234 727L234 725C242.652 721.438 248.552 719.451 258 722C259.453 715.48 250.884 712.779 248 707C254.338 709.685 260.699 707.588 267 709.56C274.397 711.876 280.137 720.285 285 726L286 726L285 721C299.224 724.402 319.473 741.435 334 731L306 718L307 715L286 700L276 696C274.792 688.393 270.179 680.266 262 680L262 679C267.308 678.03 270.939 680.07 276 680.078C283.552 680.089 289.806 674.848 295 684L307 670L307 665L299 666L299 663L315 664L307 651L304 652L302 643C307.569 646.286 311.21 653.338 317 647L319 652L321 652C324.288 642.892 318.502 643.144 313.893 636.794C310.507 632.129 310.816 627.012 305 624L305 623L320 628C319.155 617.023 305.359 616.938 299 610L305 611L303 607L318 611L317 606L322 601C326.399 601.832 337.665 607.229 339 601L351 606L352 602L345 599L346 595L329 588C331.427 575.638 322.963 576.886 317.188 567.957C315.158 564.819 316.291 561.244 314.667 558.015C312.909 554.516 309.35 552.085 307 549L314 548L307 544L310 540L310 539C304.601 536.581 292.154 531.161 299 524L299 523L288 513L315 522L316 518L325 526L322 516C329.572 521.355 334.194 521.289 343 520C341.282 514.761 343.823 512.583 349 512L349 511L332 503L346 496L326 496C332.323 488.612 334.099 488.108 325 483L321 484C334.892 473.247 349.816 467.943 366 462C364.797 459.598 362.006 457.517 361.403 454.907C359.502 446.678 371.029 446.625 373 441L362 434C368.263 431.081 377.15 426.502 384 430L385 430C384.425 427.304 382.83 426.337 380 425.694C375.43 424.656 371.428 425.049 367 422.722C363.205 420.728 359.899 416.169 355.083 417.111C351.297 417.852 353.39 422.456 351.667 424.972C349.387 428.3 344.222 431.144 341 433.583C331.927 440.451 319.715 441.045 309 441L313 431L312 431L312 434C300.053 432.183 311.297 425.225 315 419L311 420L311 415L307 414C306.067 408.358 301.981 408.402 297 408L298 399L301 400L306 385L306 389L307 389L308 382L312 384L310 371L307 372C308.511 366.551 312.152 364.653 309 359L317 357L311 348L314 348L314 352L315 352L311 346L322 340L326 336L326 335L325 328L330 328L330 327L320 326L323 321L330 322L345 312L345 311L343 309L348 308C343.724 299.321 344.156 298.707 354 300L350 281L354 282L351 267L354 269L350 253L347 254L339 247L340 243L352 248L348 244L347 239L351 243L360 243L359 246C364.918 240.778 360.024 234.869 360 228C364.176 228.753 368.674 229.945 370 225L386 233L383 215L387 214L391 218L389 210L390 209C393.866 209.815 397.364 207.737 401 209.007C408.109 211.49 413.716 220.923 421 219C421.628 223.042 423.744 231.093 428 232L424 223L423 223L425 210L429 222C433 222 436.245 230.415 437 234L438 234L439 232L440 241L441 241L446 234L446 233L445 229L449 234L447 231C452.626 231.629 458.453 242.831 460 248L461 248L464 236L468 242L462 231L468 234L469 234L472 229C472.544 233.848 474.479 236.205 479 238L472 223L478 228L479 228L474 217L478 218L487 182L491 186L492 186L489 167L493 162L500 164L498 157C503.159 155.288 502.4 148.747 503 144L512 141L512 144L517 140L518 140L522 153L524 153C524 149.09 520.984 138.735 526 138L526 131L528 131L543 161L545 159L546 159L549 167L550 167L551 165C552.603 171.714 551.572 179.763 558 184C557.078 178.889 550.056 169.144 558 167L559 162L562 167L561 153L568 164L569 164C568.308 160.34 564.539 150.8 570 150C570.242 142.572 574.119 142.64 580 140L582 141L586 150L587 150L589 135L590 135L594 137L594 142L595 142C595.985 138.588 599.117 134.544 598.917 131C598.487 123.349 593.232 118.181 597 110L599 114C610.834 100.332 604.597 85.7195 607.206 69C608.162 62.8727 612.229 57.2708 611 51C621.616 45.0444 624.475 25.9148 627 15L629 17L636 6L637 6L640 12L648 0L0 0z"/>
<path style="fill:#040404; stroke:none;" d="M640 12L637 6L636 6L627 15C623.078 27.0577 621.427 42.4088 611 51L605.325 79L607.376 98L599 114L597 110C592.396 116.777 597.73 124.092 598.215 131C598.466 134.574 595.636 138.432 595 142L594 142L594 137L590 135L589 135L587 150L586 150L580 140C573.448 142.091 570.092 142.228 570 150C564.493 150.692 568 160.221 569 164L568 164L561 153L562 167L559 162L558 167L555 166C552.928 173.012 556.08 177.458 558 184L550 167L549 167L546 159L545 159L543 161L528 131L526 131L526 138C520.746 138.66 523.986 148.894 524 153L522 153L518 140L517 140L512 144L512 141L509 141L503 144C502.08 148.957 502.826 154.339 498 157L500 164L493 162L489 167L492 186L491 186L487 182L478 218L474 217L479 228L478 228L472 223L479 238L472 229L469 234L468 234L468 231L462 231L468 242L464 236C459.995 238.888 461.267 243.494 461 248L460 248C458.979 242.412 453.02 231.271 447 231L449 234L445 229L446 233L446 234L441 241L440 241L438 234L437 234C436.129 229.434 433.904 223.066 429 222L425 210L423 223L424 223L425 221L428 232L421 219L400.925 208.398L390 209L389 210L391 218L387 214L383 215L386 233L370 225C367.912 229.307 364.242 228.384 360 228C360.005 234.979 363.626 240.134 359 246L360 243L351 243L347 239L348 244L352 248L340 243L339 247L347 254L350 253L354 269L351 267L354 282L350 281L354 300C344.463 297.665 341.698 299.361 348 308L343 309L345 311L345 312L330 322L323 321L320 326L330 327L330 328L325 328C323.744 331.164 323.005 332.98 326 335L326 336L322 340L311 346L315 352L314 352L314 348L311 348L317 357L309 359L307 372L310 371L312 384L308 382L307 389L306 389L306 385C300.44 388.315 302.561 394.487 301 400L298 399L297 408C301.71 408.969 305.453 408.873 307 414L311 415L311 420L315 419C312.328 422.313 304.872 427.235 305.194 431.917C305.494 436.273 311.342 433.96 312 431L313 431L309 441C324.505 441.493 338.038 438.215 349.852 427.406C352.461 425.018 351.833 419.301 354.523 417.902C357.111 416.557 359.94 418.655 362 420.015C368.202 424.108 381.337 424.144 385 430L384 430C379.071 424.982 366.75 430.871 362 434L373 441C370.198 445.812 356.667 448.278 361.553 456.674C362.679 458.608 364.655 460.194 366 462C350.844 466.02 331.855 472.072 321 484L325 483C333.704 489.239 330.697 487.781 326 496L346 496L332 503L349 511L349 512C343.535 512.303 340.798 514.482 343 520C333.908 520.768 330.231 520.071 322 516L325 526L316 518L315 522C306.344 516.112 298.347 514.19 288 513C290.217 518.19 293.749 521.069 299 523L299 524C290.017 529.891 305.139 537.439 310 539L310 540L307 544L314 548L307 549C308.925 552.808 312.835 555.114 314.593 559.004C316.092 562.321 314.909 565.731 317.152 568.896C323.111 577.302 330.16 576.201 329 588L346 595L345 599L352 602L351 606L339 601C335.584 606.249 327.222 601.675 322 601L317 606L318 611L303 607L305 611L299 610C304.188 618.55 318.191 616.517 320 628L305 623L305 624C309.908 627.84 310.352 632.798 313.798 637.401C318.39 643.535 323.223 643.205 321 652L319 652L317 647C310.658 651.967 308.028 645.384 302 643L304 652L307 651L315 664L299 663L299 666L307 665L307 670C299.032 671.244 299.996 679.238 295 684C291.719 674.394 283.051 679.286 276.424 679.823C271.358 680.234 267.418 677.714 262 679L262 680C269.694 680.576 274.183 689.037 276 696L286 700C289.052 706.767 300.381 712.252 307 715L306 718L334 731C314.891 738.629 303.263 723.289 285 721L286 726L285 726C282.249 720.364 274.147 711.212 268 709.333C261.67 707.399 254.582 708.936 248 707L258 722C249.489 718.546 241.596 720.49 234 725L234 727C244.212 730.019 253.383 728.104 253 742L257 741C259.098 746.347 262.646 750.781 255 753C256.642 764.001 256.33 765.776 246 771C249.204 775.196 251.376 782.444 257 783L256 786L266 783L265 790L272 794L276 793L278 806C284.839 804.731 289.703 805.212 293 812L287 818C295.461 816.771 297.182 820.144 299 828L317 827C319.194 837.582 302.263 842.998 299 852L293 857L301 859L301 860L298 868C302.574 864.677 306.455 861.78 310 868C303.131 869.386 297.74 875.308 296 882L301 880L300 892L301 892L301 887L302 887L303 889L306 878C317.908 883.557 329.384 869.504 338 864L336 870L342 866C342.8 878.721 340.502 886.75 337 899C343.669 897.469 347.377 893.866 348 887L350 890L354 889L347 912L358 911L360 905L356 944C362.524 946.293 363.907 940.988 368.185 937.043C373.767 931.896 380.127 928.731 382.977 921C384.6 916.596 384.284 911.604 386 907L387 923L387 924L379 931L380 934C376.046 934.812 375.644 938.304 375 942L383 949L388 949L394 942L395 943C394.478 946.092 394.919 947.14 398 948C396.07 955.523 393.063 959.865 395 968C399.866 966.56 402.122 962.525 404 958L412 959L412 960C408.186 962.203 402.021 971.178 405.26 975.695C407.623 978.99 412.493 978.769 413.924 983.058C415.941 989.107 405.807 1001.32 418.955 993.89C420.248 993.159 421.648 992.605 423 992L424 997L426 995C430.735 995.812 432.609 994.025 436 991C436 1001.33 438.224 1007.44 444 1016L449 1016L452 1013L453 1018C456.882 1017.28 463.06 1019.39 464 1015C468.057 1017.74 473.032 1020.11 476 1015L477 1017L478 1017L478.648 994L485 978L488 979L488 976L485 977L484 976L485 973L487 975L496 971C495.747 977.002 494.883 980.217 501 983L504 969L506 969L506 980C509.958 977.912 511.66 975.462 512 971L515 974L516 974L517 961L518 961L521 967L522 967L524 963L526 963C528.646 970.246 529.568 980.257 539 981L540 973L552 985L550 958C552.522 959.826 565.75 969.401 566.458 961.887C567.549 950.289 552.067 942.327 566 931L572 940L572 935L575 935L577 942L578 942L578 935L582 936L585 920L592 926C591.25 922.034 586.379 909.648 591 909L589 901L593 905L590 870L591 870C592.974 874.473 595.013 877.223 600 878L597 869C601.194 873.452 600.91 878.902 608 880L607 875C614.676 875.962 623.938 880.913 627.355 888.001C630.577 894.684 632.543 907.487 641 909C648.363 926.061 672.112 929.836 676.355 949C677.36 953.54 672.826 957.222 671.049 961C668.666 966.067 668.114 972.468 668 978L674.652 967.21L686 960L686 964L704 959L701 966L702 966C709.784 958.506 715.799 958.288 721 968C725.499 967.932 734.965 972.027 733.462 978.13C732.454 982.225 726.524 984.544 724.291 988.09C721.173 993.041 722.268 999.625 719.458 1005C716.13 1011.37 709.739 1015.63 707 1022L720 1022L719 1019C728.208 1020.42 725.581 1012.52 732.059 1009.19C735.933 1007.2 740.243 1009.93 744 1011C738.051 1019.28 733.236 1026.57 731.259 1037C729.279 1047.45 732.048 1054.72 726 1064C738.436 1062.19 739.755 1051.25 744.414 1042.09C747.264 1036.49 754.264 1029.12 759 1025L760 1031L768 1032L774 1026C772.323 1031.82 768.624 1036.2 774 1041L780 1036C780.032 1026.85 783.545 1027.15 791 1024L791 1029L802 1029C799.231 1034.86 792.071 1043.15 800 1048L802 1041L803 1044L805 1044L817 1038C821.419 1051.25 826.077 1059.2 825 1074L834 1059L833 1070L839 1068L838 1063L842 1064L850 1051L848 1065L856 1057L854 1066C858.981 1063.06 862.276 1056.86 861.88 1051C861.504 1045.45 856.993 1037.14 865 1035L868 1057C873.614 1053.72 875.01 1028.34 885 1040L886 1040L888 1028C893.532 1030.1 895.47 1026.55 900 1024L899 1019L904 1019L902 1028L904 1028L906 1019L907 1019L906 1032L914 1036C911.239 1027.27 914.129 1015.37 921 1009L921 1016C926.656 1014.21 927.001 1006.11 929 1001L930 1001C929.775 1011.08 933.094 1026.71 943 1032L940 1011L944 1012L944 1009L952 1012C956.978 1006.72 959.221 1011.04 965 1012L964 1003L967 1007L968 1007L967 1002L971 1002C970.182 996.438 966.705 986.857 976 989L981 973L984 974L984 967L985 967C985.47 972.951 985.368 978.84 991 982C989.503 995.965 999.286 1002.73 1003.94 1014.01C1007.05 1021.56 1004.63 1032.05 1004 1040L1010 1025L1011 1044L1012 1041L1015 1042L1015 1044L1012 1048C1020.07 1044.93 1021.34 1036.64 1024 1029L1025 1029L1026 1036C1039.81 1035.93 1037.53 1052.62 1047 1056L1037.79 1036L1033.34 1028.06L1038 1024L1039 1017C1042.56 1017.09 1043.97 1012.16 1045 1009L1046 1009C1046 1023.12 1047.67 1051.17 1065 1056L1065 1043L1086 1056C1085.66 1052.73 1076.74 1037.85 1076 1044L1075 1044L1068 1033L1064 1034L1063 1029L1069 1030L1068 1020L1067 1020L1064 1024L1070.3 1004.89L1082 1003L1081 1006C1093.24 1008.01 1109.62 973.46 1118.86 990.004C1120.24 992.472 1120.88 995.403 1122 998L1126 996L1123.18 970L1129 959L1137.27 974.853L1152 986L1157 983C1157.67 978.202 1155.18 973.716 1156.11 969C1156.63 966.388 1159.86 964.645 1159.56 961.972C1159.05 957.566 1152.26 951.477 1159 949L1160 956L1167 956L1165 949L1170 949L1172 967L1199 972L1200 969L1201 969L1200 976L1201 977L1204 976L1209 981L1211 977L1219 989L1220 989L1218 979L1227 986L1213.01 959.961L1212 944C1225.2 943.799 1219.02 954.798 1226 960C1226.69 953.331 1230.86 947.706 1238 948L1240 941L1248 950L1254 924L1266 925L1267 921L1268 921C1267.66 931.437 1284.97 933.514 1292 930L1280 907L1285 913L1286 913L1284 897C1289.55 900.025 1289.25 908.744 1297 907C1299.01 913.267 1301.35 919.059 1309 917C1309.99 921.473 1311.06 924.125 1316 923L1319 928L1324 912C1324.38 918.27 1325.35 924.726 1329.69 929.701C1338.94 940.319 1351.72 937.111 1354 923L1357 923C1358.12 931.964 1364.03 934.035 1372 936L1368 927L1371 926L1373 933L1374 933L1377 924L1376 921L1380 917L1381 917L1383 922L1384 922L1385 919L1390 926C1390.1 914.753 1396.03 902.041 1392 891L1399 896C1398.81 885.881 1402.94 886.14 1411 888L1413 875L1419 876L1420 873L1433 876L1432 870L1439 872L1441 866L1443 861C1445.95 865.044 1448.71 862.581 1452 860C1450.77 852.442 1461.05 848.449 1456 841L1456 840L1458 837L1466 833L1462 832L1462 831L1480 826L1480 822L1477 822L1477 814L1464 812L1481.35 801.671L1481 793L1475 792C1470.54 784.366 1451.06 786.753 1450 796C1444.27 793.135 1442.17 788.717 1437.79 784.464C1424.93 771.999 1419.09 761.111 1410 746C1423.36 757.713 1421.38 775.926 1443 778L1440 767C1447.95 766.529 1452.68 762.335 1447 755L1448 754C1450.91 755.393 1452.14 755.779 1454 753C1459.08 754.474 1476.17 761.545 1478 753L1489 754L1488 750L1484 752C1489.86 742.114 1483.77 741.822 1480 733L1490 732C1488.4 727.742 1486.54 720.652 1481 724L1481 717L1482 717C1483.08 720.836 1485.4 720.554 1489 720L1488 717C1499.26 717 1513.7 720.74 1522 711L1517 710C1517.18 699.034 1500.58 699.1 1495 693L1514 690L1514 689C1509.67 688.91 1505.46 688.903 1503 685L1514 685L1515 684L1515 682C1509.42 680.107 1496.51 670.922 1509 667L1510 658L1502 655C1511.97 655.666 1522.53 665.067 1532 659L1531 662L1538 663L1555.75 682.911L1564.83 687.64L1578 672C1576.82 657.176 1567.74 637.685 1558.62 626.019C1555.54 622.07 1550.74 620.062 1547.97 615.956C1545.43 612.186 1546.43 607.719 1544.22 604.015C1541.16 598.894 1536.39 596.823 1534 591L1538 590C1537.58 585.101 1540.8 583.276 1544 580L1544 579L1537 570L1537 569L1538 558L1539 557L1566 561L1564 553C1573.44 551.539 1572.7 540.774 1566 536L1566 534L1570 532L1570 531L1559 521L1553 499L1549 498L1551 495L1541 492L1541 491L1549 489L1546 485C1557.85 477.437 1561.72 475.193 1576 477L1574 472L1568 472L1568 471C1577.19 470.975 1585.8 470.004 1593 464L1591 459L1593 455L1585 450L1580 452L1591.94 448.237L1599 440L1599 439L1591 436L1597 423C1591.67 422.451 1584.88 419.643 1582 415C1574.76 415.234 1569.74 404.879 1573 399L1565 390C1568.57 387.371 1570.1 382.315 1570 378L1566 380L1568 375L1564 374C1564.21 367.718 1564.52 362.741 1558 360L1559 357L1554 356L1557 351C1545.93 351.041 1546.33 337.208 1544 329L1537 333L1536 329L1530 335L1529 322C1534.72 319.617 1539.38 315.199 1545 312.476C1556.99 306.668 1563.27 309.802 1567 295L1554 294L1566 283C1562.12 282.28 1557.51 283.767 1555.03 279.691C1553.34 276.916 1554.81 273.031 1552.4 270.603C1549.33 267.516 1533.14 266.366 1546 260L1546 255L1540 259L1539 259C1538.69 250.872 1526.69 252.507 1522 256L1521 256C1517.74 252.358 1512.28 255.163 1508 255.113C1495.58 254.967 1484 255.004 1472 259L1472 257L1459.41 256.802L1453 250L1455 240C1444.46 243.078 1442.73 244.327 1440 233L1418 244L1418 243L1424 231L1408 230L1408 225C1400.3 228.76 1371.55 238 1376 223L1371 224C1373.36 207.967 1387.31 202.524 1394.91 189C1396.86 185.535 1396.58 181.438 1398.51 178C1401.79 172.175 1408.2 167.589 1409.86 160.961C1412 152.451 1409.1 143.066 1411.97 135C1415.24 125.815 1435.69 101.36 1413 101.336C1410.42 101.334 1407.54 101.008 1405 101.36C1394.68 102.792 1379.56 119.701 1374.12 128C1370.58 133.402 1369.57 143.484 1361 141C1357.09 150.607 1354.97 150.687 1347 156C1344.45 147.934 1336.97 152.663 1336 159L1333 156L1332 160L1325 160L1322 135L1315 140C1312.34 131.62 1303.97 138.112 1301 143L1300 143L1296 141L1292 152L1275 163L1272 165L1272 173C1267.98 169.124 1264.74 168.563 1262 174L1261 174L1252 149L1251 149L1249 158L1248 158C1247.7 152.26 1245.3 143.152 1239 142L1239 140L1235 139L1234 142L1231 140L1227 148L1216 141L1211 150C1208.75 146.021 1206.41 145.406 1202 145C1203.98 152.708 1202.31 157.66 1200 165L1198 164L1196 174L1190 173L1191 176L1173.29 179.009L1152 187L1149 190L1149 181L1137 194L1138 183L1122 202L1125 184L1119 184L1120 181L1116 181L1111 188L1111 177L1104 184L1106 178L1094 184L1094 183C1100.68 178.935 1107.38 164.31 1099 159L1098 168L1095 167L1088 174L1091 169L1096 156L1096 155C1098.37 152.615 1098.97 150.998 1096 149L1089 156C1092.35 148.775 1091.15 145.696 1100 144C1097.57 134.384 1109.83 128.813 1106 118C1100.32 120.765 1096.35 125.86 1095 132L1091 128L1086 128L1086 126L1092 124C1095.06 112.923 1106.4 98.5213 1103 86C1096.23 84.0242 1097.85 76.0824 1100 71L1093 75L1095 69L1087 70L1083 60L1081 60L1070 75L1072 67L1063 75L1063 76L1068 78L1066 84C1055.5 82.7966 1057.73 89.957 1052 96C1053.08 89.6265 1058.74 75.7543 1052 72L1052 71L1055 70L1057 74L1061 47L1057 52L1056 52L1051 35C1042.57 37.558 1043.95 55.7158 1041 63L1040 63L1044 35C1035.06 40.4432 1035.24 49.3153 1023 52L1023 47L1014 48L1011 50L1014 33C1005.82 31.8197 1002.38 43.833 1000 50L999 50L1000 42L981.605 61.0895L973 72L974 69L969 80L968 80L969 62L965 66C957.66 65.1815 954.867 73.2114 952 79L951 79L950 75L945 79C947.643 64.6946 937.81 62.0297 932 75L931 75L930 69C925.37 71.5056 924.434 75.0232 924 80L918 78L918 73L909 74L904 64L903 64L902 57L898 58L895 49L888 67C889.683 59.6744 886.761 57.7674 882 53L880 53L879 54L880 64L870 61L868 70C862.034 63.4332 866.917 56.8151 856 53L847 58L847 70L840 63L836 64L835 61C827.972 67.7463 831.991 69.8588 821 65L824 83L820 79L812 84L812 81L802 81L806 87L806 88L803 90L797 83L797 82L801 78L783 76L781 71L780 71L781 80L767 76C765.579 81.6265 767.439 87.8964 770 93L761 93C761.155 100.06 767.998 104.475 774 107L772 113L740 105L742 112L740 110L739 110L737 111L737 112L739 119C734.764 116.78 728.959 114.103 727 120C732.452 121.366 735.283 122.289 737 128C729.018 129.711 743.133 140.439 745.611 142.944C754.037 151.464 768.193 159.24 780 158L782 151C789.689 160.359 786.429 166.315 787.184 177C787.939 187.678 791.557 195.585 789 206L788 206C786.215 198.49 779.477 186.768 772 184C769.36 188.294 761.185 197.468 770 199L770 204L750 194C748.131 197.108 746.746 199.364 743 198L741 208L737 208L736 205C732.063 206.416 729.463 207.655 728 203L724 204C722.559 193.168 708.428 181.319 699 177L700 188C689.078 178.195 689.093 168.05 688.239 155C687.859 149.196 684.169 143.799 684.543 138C685.233 127.299 691.411 116.675 691.772 106.001C691.914 101.774 688.945 99.5533 687.524 95.9105C683.94 86.7238 682.173 75.6235 674 69L672 72C673.134 67.2232 673.667 62.7264 669 60C676.898 41.6439 671.35 18.7607 671 0L667 0L664 5C661.722 0.211304 659.008 0.0177002 654 0L653 4L652 4L652 0C646.281 0.98291 643.6 7.83618 640 12z"/>
<path style="fill:#fdfdfd; stroke:none;" d="M652 0L652 4L653 4L654 0L652 0M662 0L664 5L667 0L662 0z"/>
<path style="fill:#040404; stroke:none;" d="M1011 24L1010 30C1013.18 28.1934 1013.5 26.6874 1011 24M674 33L674 37L675 37L676 33L674 33M1016 37L1016 42L1019 37L1016 37z"/>
<path style="fill:#fdfdfd; stroke:none;" d="M669 41L670 42L669 41z"/>
<path style="fill:#040404; stroke:none;" d="M1019 43L1021 46L1022 43L1019 43M1023 45L1026 48L1023 45M892.667 47.3334L893.333 47.6666L892.667 47.3334M1030 47L1031 48L1030 47z"/>
<path style="fill:#fdfdfd; stroke:none;" d="M996 55L997 56L996 55M961 69L961 73L964 69L961 69M785 76L788 78L785 76z"/>
<path style="fill:#040404; stroke:none;" d="M814 77L815 80L816 80L816 77L814 77z"/>
<path style="fill:#fdfdfd; stroke:none;" d="M911 78L910 80L912 80L911 78M826.667 83.3333L827.333 83.6667L826.667 83.3333M804.333 92.6667L804.667 93.3333L804.333 92.6667M1051 100L1052 101L1051 100z"/>
<path style="fill:#040404; stroke:none;" d="M1108 114L1108 116C1112.1 116.599 1113.37 114.967 1114 111L1108 114z"/>
<path style="fill:#fdfdfd; stroke:none;" d="M762 112L765 114L762 112M774 113L780 116L774 113z"/>
<path style="fill:#040404; stroke:none;" d="M1090 125L1092 127L1092 125L1090 125z"/>
<path style="fill:#fdfdfd; stroke:none;" d="M1080.67 135.333L1081.33 135.667L1080.67 135.333M1084 135L1085 136L1084 135M1067 155L1068 156L1067 155z"/>
<path style="fill:#040404; stroke:none;" d="M1108 159L1109 160L1108 159z"/>
<path style="fill:#fdfdfd; stroke:none;" d="M1074 161L1074 164L1076 164L1076 161L1074 161M1324 163L1324 167L1325 167L1324 163z"/>
<path style="fill:#040404; stroke:none;" d="M487 165L488 166L487 165z"/>
<path style="fill:#fdfdfd; stroke:none;" d="M570 165C570.835 169.555 572.268 171.624 577 172L577 171L570 165M562 168L565 172L562 168M556 169L557 170L556 169z"/>
<path style="fill:#040404; stroke:none;" d="M1116 179L1116 180L1122 180L1116 179z"/>
<path style="fill:#fdfdfd; stroke:none;" d="M1107 187L1107 190L1109 190L1109 187L1107 187M1117 187L1117 190L1118 190L1119 187L1117 187M683 191L684 192L683 191z"/>
<path style="fill:#040404; stroke:none;" d="M745 196L750 192C746.821 191.327 745.868 193.115 745 196M736 195L736 196L739 196L736 195M420 205L421 206L420 205z"/>
<path style="fill:#fdfdfd; stroke:none;" d="M790.333 206.667L790.667 207.333L790.333 206.667z"/>
<path style="fill:#040404; stroke:none;" d="M421 207L422 208L421 207z"/>
<path style="fill:#fdfdfd; stroke:none;" d="M399 209L400 210L399 209z"/>
<path style="fill:#040404; stroke:none;" d="M387 211L388 212L387 211z"/>
<path style="fill:#fdfdfd; stroke:none;" d="M674.667 211.333L675.333 211.667L674.667 211.333z"/>
<path style="fill:#040404; stroke:none;" d="M387 213L388 214L387 213M470.667 215.333L471.333 215.667L470.667 215.333z"/>
<path style="fill:#fdfdfd; stroke:none;" d="M740 221L741 222L740 221z"/>
<path style="fill:#040404; stroke:none;" d="M357 227L358 228L357 227z"/>
<path style="fill:#fdfdfd; stroke:none;" d="M688 227L689 228L688 227M372 229L373 230L372 229M365 235L366 236L365 235z"/>
<path style="fill:#040404; stroke:none;" d="M459 235L460 236L459 235z"/>
<path style="fill:#fdfdfd; stroke:none;" d="M1419 235L1420 236L1419 235M390.333 237.667L390.667 238.333L390.333 237.667z"/>
<path style="fill:#040404; stroke:none;" d="M350 239L351 240L350 239M354.667 239.333L355.333 239.667L354.667 239.333M1458 239L1459 240L1458 239z"/>
<path style="fill:#fdfdfd; stroke:none;" d="M449 243L450 244L449 243M451 247L452 248L451 247M1538.67 261.333L1539.33 261.667L1538.67 261.333z"/>
<path style="fill:#040404; stroke:none;" d="M1556 269L1557 270L1556 269z"/>
<path style="fill:#fdfdfd; stroke:none;" d="M354 271L355 272L354 271z"/>
<path style="fill:#040404; stroke:none;" d="M1555 273L1556 274L1558 271L1555 273z"/>
<path style="fill:#fdfdfd; stroke:none;" d="M356 277L358 280L356 277z"/>
<path style="fill:#040404; stroke:none;" d="M347.333 278.667L347.667 279.333L347.333 278.667M1571 291L1572 292L1571 291M341 306L343 308L341 306M336.667 315.333L337.333 315.667L336.667 315.333z"/>
<path style="fill:#fdfdfd; stroke:none;" d="M1505 327L1505 328L1510 328L1505 327M1496 333L1494 342L1498 343L1497 346L1500 347L1492 360L1512 352L1511 335L1496 333M318 357L319 358L318 357M316 417L317 418L316 417z"/>
<path style="fill:#040404; stroke:none;" d="M1600 423L1601 424L1600 423z"/>
<path style="fill:#fdfdfd; stroke:none;" d="M387 429L387 432L392 432L387 429z"/>
<path style="fill:#040404; stroke:none;" d="M303 430L303 434L304 434L303 430z"/>
<path style="fill:#fdfdfd; stroke:none;" d="M396 433L395 436L400 436L400 435L396 433M402 439L404 441L404 439L402 439M406.667 443.333L407.333 443.667L406.667 443.333M410.667 447.333L411.333 447.667L410.667 447.333z"/>
<path style="fill:#040404; stroke:none;" d="M359 450L358 452L360 452L359 450z"/>
<path style="fill:#fdfdfd; stroke:none;" d="M369 457L370 460L371 460L371 457L369 457M379 463L380 466L381 466L381 463L379 463z"/>
<path style="fill:#040404; stroke:none;" d="M1548 491L1549 492L1548 491M342 497L342 499L344 499L344 497L342 497z"/>
<path style="fill:#fdfdfd; stroke:none;" d="M353.667 511.333L354.333 511.667L353.667 511.333z"/>
<path style="fill:#040404; stroke:none;" d="M300.667 543.333L301.333 543.667L300.667 543.333M304.667 547.333L305.333 547.667L304.667 547.333z"/>
<path style="fill:#fdfdfd; stroke:none;" d="M1532 556L1535 556L1534 554L1532 556M334.667 563.333L335.333 563.667L334.667 563.333M1528 567L1528 568L1531 568L1528 567M343 605L345 608L343 605M1486 637L1496 642L1496 638L1486 637M1491 647L1492 652L1502 648C1498.68 642.921 1495.72 645.792 1491 647M304 647L305 648L304 647M1488 659L1489 660L1488 659z"/>
<path style="fill:#040404; stroke:none;" d="M1512.33 662.667L1512.67 663.333L1512.33 662.667M297 663L298 664L297 663z"/>
<path style="fill:#fdfdfd; stroke:none;" d="M320 665L320 668L322 668L322 665L320 665M1498.67 667.333L1499.33 667.667L1498.67 667.333M1499 676L1502 676L1501 674L1499 676M294 701L294 704L296 704L296 701L294 701M1486 714L1486 716L1488 716L1486 714M288 725L290 728L288 725M1406 736L1407 737L1406 736M1441 747L1441 748L1445 752L1446 752L1446 747L1441 747M1437 767L1438 770L1437 767M263 778L263 779L266 780L266 777L263 778M255.667 779.333L256.333 779.667L255.667 779.333z"/>
<path style="fill:#040404; stroke:none;" d="M253 783L254 784L253 783z"/>
<path style="fill:#fdfdfd; stroke:none;" d="M353 887L354 888L353 887z"/>
<path style="fill:#040404; stroke:none;" d="M335.667 899.333L336.333 899.667L335.667 899.333z"/>
<path style="fill:#fdfdfd; stroke:none;" d="M350 905L351 906L350 905M793 906L785 923L784 923L781 917L766 924L766 918C752.944 923.782 748.098 930.071 754.331 943C756.048 946.562 757.222 957.107 763.026 956.052C768.651 955.031 772.628 943.26 775.785 939.005C779.03 934.63 806.964 922.778 794 920C797.414 914.822 797.273 910.627 793 906M349 907L350 908L349 907M1183 907L1185 918L1187 918C1186.96 913.545 1187.08 909.495 1183 907z"/>
<path style="fill:#040404; stroke:none;" d="M591 909L592 910L591 909M345 910L344 912L346 912L345 910z"/>
<path style="fill:#fdfdfd; stroke:none;" d="M1312.33 914.667L1312.67 915.333L1312.33 914.667M1202 915L1200 920L1192 916L1191 917C1196.47 924.076 1201.13 934.982 1210 938L1202 921L1205 922L1202 915M583 919L584 920L583 919M1268 919L1269 920L1268 919M1279 922L1278 924L1280 924L1279 922M1367 923L1367 925L1369 925L1367 923M559 929L558 932L561 932L559 929z"/>
<path style="fill:#040404; stroke:none;" d="M1374 933L1376 936L1374 933M1288.67 937.333L1289.33 937.667L1288.67 937.333z"/>
<path style="fill:#fdfdfd; stroke:none;" d="M780 945L781 950L782 945L780 945z"/>
<path style="fill:#040404; stroke:none;" d="M1235 948L1236 949L1235 948M1237 952L1239 955L1237 952z"/>
<path style="fill:#fdfdfd; stroke:none;" d="M780 953L781 954L780 953M1148 954L1148 956L1153 963L1155 963L1156 962C1154.87 957.306 1153.42 953.215 1148 954M1143.33 954.667L1143.67 955.333L1143.33 954.667M764 968C770.729 966.962 776.584 960.655 780 955C773.877 956.655 765.085 961.329 764 968M1050 955L1053 957L1050 955z"/>
<path style="fill:#040404; stroke:none;" d="M1221 955L1222 956L1221 955z"/>
<path style="fill:#fdfdfd; stroke:none;" d="M1056 957L1058 961L1056 957M1203 957L1204 958L1203 957M687.667 959.333L688.333 959.667L687.667 959.333M1065 959L1065 960L1070 960L1065 959M396 963L397 964L396 963M1065 979L1067 971C1063.5 969.072 1063.13 966.878 1063 963C1052.42 963.81 1059.66 975.423 1065 979z"/>
<path style="fill:#040404; stroke:none;" d="M684.333 965.667L684.667 966.333L684.333 965.667M699 966L699 968L701 968L701 966L699 966M724 969L725 970L724 969z"/>
<path style="fill:#fdfdfd; stroke:none;" d="M1142 972L1148 974C1147.28 969.7 1145.13 968.897 1142 972M1203.67 971.333L1204.33 971.667L1203.67 971.333M1149 977L1152 980L1151 977L1149 977z"/>
<path style="fill:#040404; stroke:none;" d="M1198.67 977.333L1199.33 977.667L1198.67 977.333z"/>
<path style="fill:#fdfdfd; stroke:none;" d="M734 985L733 988C735.566 987.449 735.86 986.86 734 985M967.667 987.333L968.333 987.667L967.667 987.333z"/>
<path style="fill:#040404; stroke:none;" d="M1221 988L1224 994L1221 988z"/>
<path style="fill:#fdfdfd; stroke:none;" d="M728 991L729 992L728 991M933 995L934 1001L935 1001L935 995L933 995z"/>
<path style="fill:#040404; stroke:none;" d="M967 1008L968 1009L967 1008z"/>
<path style="fill:#fdfdfd; stroke:none;" d="M1032 1016L1033 1017L1032 1016M1032 1018L1033 1019L1032 1018M776 1021L777 1022L776 1021M1023 1023L1023 1024L1027 1024L1023 1023M765 1026L768 1023L765 1026M792 1023L793 1024L792 1023M873.667 1023.33L874.333 1023.67L873.667 1023.33M891.667 1023.33L892.333 1023.67L891.667 1023.33z"/>
<path style="fill:#040404; stroke:none;" d="M731 1027L732 1028L731 1027z"/>
<path style="fill:#fdfdfd; stroke:none;" d="M879 1033L884 1027C880.186 1027.66 879.43 1029.26 879 1033M1013 1031L1014 1032L1013 1031M808 1032L807 1038C810.321 1036.9 810.737 1035.41 811 1032L808 1032M849 1038L848 1039L856 1048L854 1040L849 1038z"/>
<path style="fill:#040404; stroke:none;" d="M1020 1038L1021 1039L1020 1038z"/>
<path style="fill:#fdfdfd; stroke:none;" d="M822 1044L826 1041L822 1044M1077 1047L1078 1048L1077 1047z"/>
<path style="fill:#040404; stroke:none;" d="M819 1048L819 1052L820 1052L821 1048L819 1048z"/>
<path style="fill:#fdfdfd; stroke:none;" d="M833 1048C832.669 1051.84 833.148 1054.65 837 1056L833 1048z"/>
<path style="fill:#040404; stroke:none;" d="M1068 1053L1068 1056L1070 1056L1070 1053L1068 1053M853 1066L854 1067L853 1066M853 1068L853 1072L855 1072L855 1068L853 1068z"/>
</svg>
