<?xml version="1.0" standalone="yes"?>
<svg xmlns="http://www.w3.org/2000/svg" width="1920" height="1080">
<path style="fill:#ffffff; stroke:none;" d="M0 0L0 1080L1920 1080L1920 0L0 0z"/>
<path style="fill:#131313; stroke:none;" d="M1327 247L1326 253C1328.76 251.194 1328.92 249.652 1327 247M1280 259C1274.02 254.876 1270.09 259.607 1266 264L1266 262L1263 266C1258.07 266.851 1250.94 270.452 1252 276C1247.14 278.771 1243.82 284.491 1243 290L1240 289L1239 296C1234.63 294.545 1232.38 301.449 1232 306C1231.68 309.851 1230.32 314.935 1231 319C1231.54 322.269 1235 327.843 1235 331C1235 333.721 1232.88 333.22 1232 333L1231 340L1232 340L1232 338L1233 338C1233 351.333 1237.08 365.47 1248 372L1253 372L1252 376L1256 374L1260 390L1274 390L1280 396L1281 396L1282 390L1293.96 392.768L1321.9 399.354L1336 394C1341.92 387.616 1354.35 378.657 1355 370L1356 370L1356 375L1357 375L1361 368L1367 356L1367 360L1368 360L1370 352L1370 346L1372 348L1373 348L1371 344L1371 343C1375.56 339.308 1372.8 333.983 1370 330L1374 330L1370 314L1371 314L1371 317L1372 317L1369 314L1366 309C1367.89 301.938 1369.26 298.628 1366 292L1369 294L1367 291L1366 291L1364 293C1363.02 290.05 1362.51 289.378 1365 290L1364 286L1363 286L1361 288L1360 281L1353 282L1355 279L1345 273L1343 274L1324 253L1315 252L1315 254L1289 257.088L1280 259M1344 271L1345 272L1344 271z"/>
<path style="fill:#ffffff; stroke:none;" d="M1242 291L1243 292L1242 291M1237 296L1238 297L1237 296M1367 297L1367 300L1368 300L1367 297z"/>
<path style="fill:#131313; stroke:none;" d="M1368 305L1370 308L1368 305M626 321L625 317L634 316C628.609 303.889 620.285 316 626 321M625 323L624 328L621 324L619 324L617 329L613 325L614 328C608.784 329.569 602.65 333.356 602 339L601 339L601 336L598 344L597 344L596 341L591 343L591 348L590 348L587 345L587 349L583 347L581 351L579 347L578 347L578 359L577 359L577 354L569 363L568 353L562 359L563 361L558 367L554 362L553 371L552 371L550 366L549 366C544.277 373.027 542.038 379.391 543 388L538 390L537 389L540 381L536 383L533 406L529 401L528 401L526 410L526 404L524 404L523 413L527 412C527.599 415.617 527.249 417.194 524 419L522.008 431.039L522 452L521 452L523 448L523 447C519.159 449.49 518.453 456.672 519 461L520 461L520 457L524 457L524 472L522 472L522 462L520 462L518 470L520 468L521 468L520 482L526 480L523 482L525 491L529 489L527 504C530.054 503.346 529.936 501.993 530 499L534 501L533 513L534 513L534 508C536.472 510.927 535.622 512.729 534 516L538 513L540 513L541 514L541 519L542 519L542 516L543 516L546 529L545 529L540 525C544.538 531.695 543.729 536.364 544 544L545 544L548 533L549 533L550 542C554.337 544.509 557.019 555.059 558 560L559 560L561 553L565 554L564 568L572 561L568 568C570.865 567.109 576.295 563.221 577 568L585 574L584 579L592 580L592 574L601 575L602 575L602 580L603 580L604 575L610 575L609 582L617 572L615 580L626 592L626 586L628 586L629 594L634 595L636 594L637 594L636 590C640.288 592.173 642.803 590.859 647 589L648 591L648 592L646 596L647 596L650 590L651 590L655 592L657 588L657 592L658 592L660 586L666 590L665 583L672 585L670 574L681 577L681 573L682 573L685 578L684 575L693 571L695 567L696 567L696 573L703 571L703 576L706 571L709 574L712 574L718 569L719 561L720 561C720.596 564.71 721.313 566.807 725 568L725 564L728 570L731 562L734 564L734 560L737 556L738 556L738 560L741 560L743 553L744 553L745 560L746 560L748 541L749 541L749 548C753.298 546.587 753.655 543.187 754 539L758 540L758 536L764 530L762 525L766 521L762 519L766 518L766 517L763 517L769 509L772 512L773 484L778 484L778 482L775 481L780 444L782 445L782 439L780 439L780 444L779 444L776.032 418.005L765.199 401L760 389L760 394C754.258 391.298 752.15 387.192 752 381L751 381L750 384L747 379L744 380L744 372L744 371L740 368L740 382L739 382L737 363L734 365L733 349L728 349L730 355L720 352L717 342L716 342L718 345L718 346L714 349L715 347L713 349L712 349L712 343L708 336L707 336L706 344L703 339L702 339L697 346L697 337L696 337C692.393 340.612 687.801 341.932 684 338C680.526 340.606 675.047 338.814 676 335L674 333L671 334L674 340L668 338L668 337L670 337L670 336L662 337L659 333L660 339L659 339C657.586 332.196 650.896 329.352 647 336L643 329L638 330L638 334L637 334L636 323L625 323M607 325L607 330L608 330L607 325M1231 326L1231 329L1232 329L1231 326z"/>
<path style="fill:#ffffff; stroke:none;" d="M629.333 327.667L629.667 328.333L629.333 327.667M633 327L634 328L633 327z"/>
<path style="fill:#131313; stroke:none;" d="M644 327L645 328L644 327z"/>
<path style="fill:#ffffff; stroke:none;" d="M610 333L612 336L610 333z"/>
<path style="fill:#131313; stroke:none;" d="M692 334L692 336L694 336L694 334L692 334M680.667 335.333L681.333 335.667L680.667 335.333z"/>
<path style="fill:#ffffff; stroke:none;" d="M673 336L674 337L673 336z"/>
<path style="fill:#131313; stroke:none;" d="M588 339L589 340L588 339z"/>
<path style="fill:#ffffff; stroke:none;" d="M683 343L684 344L683 343z"/>
<path style="fill:#131313; stroke:none;" d="M720 345L721 346L720 345M722 346L722 348L724 348L722 346z"/>
<path style="fill:#ffffff; stroke:none;" d="M717 348L717 352L718 352L717 348z"/>
<path style="fill:#131313; stroke:none;" d="M1233.33 350.667L1233.67 351.333L1233.33 350.667z"/>
<path style="fill:#ffffff; stroke:none;" d="M584.333 353.667L584.667 354.333L584.333 353.667M731 353L732 354L731 353M730 357L730 360L732 360L732 357L730 357M568 363L569 364L568 363z"/>
<path style="fill:#131313; stroke:none;" d="M538.667 371.333L539.333 371.667L538.667 371.333z"/>
<path style="fill:#ffffff; stroke:none;" d="M741.333 374.667L741.667 375.333L741.333 374.667z"/>
<path style="fill:#131313; stroke:none;" d="M750 375L751 376L750 375z"/>
<path style="fill:#ffffff; stroke:none;" d="M546 377L547 378L546 377z"/>
<path style="fill:#131313; stroke:none;" d="M1255.33 378.667L1255.67 379.333L1255.33 378.667M780 379L780 382L781 382L780 379z"/>
<path style="fill:#ffffff; stroke:none;" d="M545 380L545 383L546 383L545 380M550 381L552 384L552 381L550 381M746 381L746 392C749.178 389.223 748.196 384.215 746 381z"/>
<path style="fill:#131313; stroke:none;" d="M755.667 387.333L756.333 387.667L755.667 387.333M530 391L531 392L530 391z"/>
<path style="fill:#ffffff; stroke:none;" d="M749.667 391.333L750.333 391.667L749.667 391.333M538 392L538 396L540 396L540 392L538 392M761 393L758 400L763 396L761 393z"/>
<path style="fill:#131313; stroke:none;" d="M766 398L766 400L768 400L768 398L766 398M771.333 402.667L771.667 403.333L771.333 402.667z"/>
<path style="fill:#ffffff; stroke:none;" d="M765 405L765 409L766 409L765 405M532 407L533 408L532 407M530 408L531 409L530 408M770 413C769.922 417.46 768.688 421.075 774 422C773.939 418.116 773.538 415.044 770 413z"/>
<path style="fill:#131313; stroke:none;" d="M524.667 417.333L525.333 417.667L524.667 417.333M519 419L520 420L519 419M521.667 419.333L522.333 419.667L521.667 419.333M786 427L787 428L786 427z"/>
<path style="fill:#ffffff; stroke:none;" d="M524 428L524 439L525 439L528 435L527 432L529 433L529 432L524 428M775 429L775 433L776 433L775 429z"/>
<path style="fill:#131313; stroke:none;" d="M782.333 433.667L782.667 434.333L782.333 433.667z"/>
<path style="fill:#ffffff; stroke:none;" d="M530 435L531 436L530 435M775 435L776 436L775 435z"/>
<path style="fill:#131313; stroke:none;" d="M519 444L518 447L519 444z"/>
<path style="fill:#ffffff; stroke:none;" d="M774 445L775 449L772 452C775.11 450.166 775.927 448.165 774 445z"/>
<path style="fill:#131313; stroke:none;" d="M782 446L782 448L784 448L782 446z"/>
<path style="fill:#ffffff; stroke:none;" d="M526 448L526 451L527 451L526 448z"/>
<path style="fill:#131313; stroke:none;" d="M512 451L513 452L512 451z"/>
<path style="fill:#ffffff; stroke:none;" d="M524 455L525 456L524 455M775 455L776 456L775 455z"/>
<path style="fill:#131313; stroke:none;" d="M780 455L781 456L780 455M783 459L784 460L783 459z"/>
<path style="fill:#ffffff; stroke:none;" d="M773.333 462.667L773.667 463.333L773.333 462.667z"/>
<path style="fill:#131313; stroke:none;" d="M514.667 463.333L515.333 463.667L514.667 463.333M780.333 468.667L780.667 469.333L780.333 468.667z"/>
<path style="fill:#ffffff; stroke:none;" d="M773 475L774 476L773 475M530.333 486.667L530.667 487.333L530.333 486.667z"/>
<path style="fill:#131313; stroke:none;" d="M775 489L779 496L778 489L775 489M522 492L525 496L522 492z"/>
<path style="fill:#ffffff; stroke:none;" d="M762 495L763 496L762 495M767 498L766 500L768 500L767 498z"/>
<path style="fill:#131313; stroke:none;" d="M775 498L775 504L776 504L775 498z"/>
<path style="fill:#ffffff; stroke:none;" d="M544 507L545 508L544 507M763.333 509.667L763.667 510.333L763.333 509.667z"/>
<path style="fill:#131313; stroke:none;" d="M768 513L769 514L768 513M768.667 515.333L769.333 515.667L768.667 515.333z"/>
<path style="fill:#ffffff; stroke:none;" d="M762 517L763 518L762 517z"/>
<path style="fill:#131313; stroke:none;" d="M541 520L540 522L542 522L541 520z"/>
<path style="fill:#ffffff; stroke:none;" d="M755 521L756 522L755 521z"/>
<path style="fill:#131313; stroke:none;" d="M771 521L772 522L771 521z"/>
<path style="fill:#ffffff; stroke:none;" d="M755 523L756 524L755 523M758 529L758 532L759 532L758 529M559 549L558 552L559 549z"/>
<path style="fill:#131313; stroke:none;" d="M748 549L749 550L748 549z"/>
<path style="fill:#ffffff; stroke:none;" d="M738 550L738 556L741 555L741 551L740 551L740 553L739 553L738 550M557.333 554.667L557.667 555.333L557.333 554.667M727.333 562.667L727.667 563.333L727.333 562.667z"/>
<path style="fill:#131313; stroke:none;" d="M555 563L556 564L555 563z"/>
<path style="fill:#ffffff; stroke:none;" d="M579 563L581 568L581 563L579 563z"/>
<path style="fill:#131313; stroke:none;" d="M580 564L581 565L580 564z"/>
<path style="fill:#ffffff; stroke:none;" d="M698 566L697 569L698 566M605 569L604 572L605 573L608 572L607 569L605 569z"/>
<path style="fill:#131313; stroke:none;" d="M719 569L718 572L719 569z"/>
<path style="fill:#ffffff; stroke:none;" d="M682.333 570.667L682.667 571.333L682.333 570.667z"/>
<path style="fill:#131313; stroke:none;" d="M578 571L579 572L578 571z"/>
<path style="fill:#ffffff; stroke:none;" d="M589 571L586 577L589 578L591 576L589 571M704 571L705 572L704 571M711 571L712 572L711 571M596.333 573.667L596.667 574.333L596.333 573.667M611 575L612 576L611 575z"/>
<path style="fill:#131313; stroke:none;" d="M681.333 578.667L681.667 579.333L681.333 578.667M674.667 579.333L675.333 579.667L674.667 579.333M726.667 579.333L727.333 579.667L726.667 579.333M667 584L668 585L667 584M618 586L619 590L620 590L618 586M667.333 586.667L667.667 587.333L667.333 586.667M670.667 586.333L671.333 586.667L670.667 586.333M615 587L616 588L615 587M637 595L638 596L637 595z"/>
</svg>
