<?xml version="1.0" standalone="yes"?>
<svg xmlns="http://www.w3.org/2000/svg" width="1920" height="1080">
<path style="fill:#fefefe; stroke:none;" d="M0 0L0 1080L1920 1080L1920 0L0 0z"/>
<path style="fill:#030303; stroke:none;" d="M632 50L630 57L628 57L627 54C612.859 62.1781 615 94.8417 615 109C608.245 111.24 609.745 121.26 608.852 126.996C608.075 131.982 602.492 140.698 598 143L598 156L593 156L592 153L591 153L593 171L592 171L589 165L584 168L585 164L585 163L582 158L580 158C578.629 159.953 575.636 162.588 575.634 165.13C575.633 167.9 578.744 169.397 578.968 172.088C579.57 179.328 571.47 175.892 568 175L563 200L558 200L556 193L555 193C555.123 196.592 555.682 198.646 552 200C552.129 195.766 554.047 190.478 549 189L549 199L548 199C547.463 194.322 545.766 192.613 541 193L533 171L532 171C531.985 176.332 532.146 181.23 527 184C526.14 178.587 516.39 168.364 511.565 176.473C508.821 181.084 512.014 191.557 512 197L503 192L501 205C496.159 204.921 496.735 208.203 498 212C492.285 215.817 498.983 221.975 489 221L494 239L493 239L483 227C483.124 237.646 483.055 249.158 471 241L464 255L463 255L462 252L456 259L441 244L448 260L431.043 253.239L413 237L410 238L409 239L410 244L407 242L400 259L383 246L382 246C377.147 253.446 382.575 256.611 383.682 264C384.297 268.103 381.836 272.085 381 276L371 271L369 279L369 280C373.03 285.268 381.554 297.602 381 304L385 304C383.2 309.945 380.434 304.953 376.541 307.134C372.551 309.37 370.438 314.6 366 317L366 320C369.72 322.674 372.833 325.238 373 330L366 327L366 328C367.031 331.834 362.193 329.718 360 329L359 332C349.518 329.493 347.037 333.514 339 338L347 350C342.231 348.715 340.4 350.439 339 355C330.563 356.06 342.759 365.445 344 368L355 371L355 372L353 377L352 377L352 373L345 382C335.963 383.648 344.277 395.606 346 400L350 399L338 424C345.987 423.906 347.867 416.131 354.104 415.376C358.772 414.811 365.607 419.016 370 420.515C389.284 427.098 404.764 438.731 420 452C412.406 452.574 408.407 445.72 403 441.339C396.839 436.348 388.901 433.071 381 433C386.491 441.032 382.328 443.975 382 453L379 452L381 462L385 461C384.91 466.023 380.813 469.168 377 472L376 463L375 463L376 468L357 469C357.026 476.288 353.02 476.843 347 479L347 482L363 494L363 496C358.721 497.503 357.339 499.767 356 504C362.935 506.438 363.007 508.342 365 515C369.711 514.059 374.189 513.507 377 518C373.279 517.146 371.078 517.708 369 521L340.019 527.862L335 532L356 543L357 552C351.744 549.372 338.4 539.001 337 546L330 543C331.385 550.648 337.655 551.853 340.562 557.719C344.821 566.313 333.17 567.567 328 566L327 567L341.985 580.104L356 594L354 600L357 599L352 610L365 621C358.37 620.611 349.814 610.276 345 619L334 614L336 625L326 622L326 624C331.614 627.246 337.938 633.378 339 640L334 641C333.03 639.257 326.864 632.511 325.921 638.099C325.364 641.398 330.555 644.59 331.661 647.562C334.481 655.133 325.731 659.104 337 663L337.407 672.106L322 678L322 679L325 684C315.826 683.714 297.651 679.507 294 692C300.312 692.004 309.937 693.829 314.534 698.724C319.254 703.75 307.545 704.977 305 705C307.353 712.301 316.01 714.836 323 715C316.943 726.891 330.58 729 339 729L338 735L324 736.096L302 730L302 736C291.738 737.967 284.225 733.168 275 729C273.054 735.798 278.405 738.825 282 744L276 743L282 754L279 755L293 763L293 764C287.667 764.195 270.133 764.931 276.117 775.53C280.297 782.933 290.913 784.416 298 787C288.137 795.886 301.146 810.121 312 808C313.102 810.077 313.96 811.805 316 810L317 810L319 811L316 820L332 819C327.08 822.609 322.243 836.111 322 842C312.939 847.069 319.994 855.809 320 864C330.949 863.156 338.671 852.697 350 857C347.056 863.118 346.943 878.11 350 884L364 873C363.776 878.726 355.457 887.228 362 892L362 886L363 886L366 896C370.456 898.672 369.624 905.189 370 910L373 909L374 919C381.82 913.002 378.075 909.286 381.233 902.313C382.249 900.069 385.521 899.088 387 897L388 897L394.853 914.004L391 930L406 922L409 928L416 928C412.472 933.577 412.381 937.725 414 944C417.997 943.849 419.357 945.07 420 949L432 965L432 963L436 964L439 958L441 958L446 970L448 967C453.302 965.94 453.785 958.708 454 954L455 954L457 982L458 982L477.682 968.788L482.43 959.308L490 958L490 953L491 953C492.012 955.887 494.435 962.573 498 959L506 960L507 947L508 947L508 950L509 950L514 938L527 948L527 943L530 943L539 955C539.89 941.698 521.462 918.735 534 907C534.39 916.085 538.232 936.663 548 940L547 932C551.854 931.276 551 920.966 551 917C554.882 918.178 555.699 920.048 556 924L560 924L560 914L572 922L572 916L573 916L577 921C576.884 915.913 575.605 907.819 583 910C584.628 903.16 584.348 896.573 582 890C593.751 895.961 583.855 880.6 582 877L588 876L586 866L594 870L595 867C600.868 868.494 607.653 876.434 612 869C620.787 873.483 627.895 883.208 632 892L634 892L635 889C640.439 899.32 645.238 907.346 655 914.57C658.948 917.492 663.903 918.327 667.816 921.44C675.312 927.404 679.578 934.932 690 936L688 931L711 936L710 931L726 930L728 927L727 925L729 925C727.298 920.36 720.698 915.149 720.407 910.591C720.114 905.991 726.89 904.474 729.787 902.485C733.072 900.23 734.682 896.618 736 893L738 893C739.729 899.523 742.914 900.28 748 896C750.828 905.371 744.026 912.096 740 920L765.096 906.671L780 887C777.575 902.016 794.458 894.98 803 893L802 909L804 909L804 905L805 905L806 908C814.906 908.596 801.567 917.605 799 919C801.981 927.728 791.847 934.897 785 939L785 940L795 939L795 945L799 943C803.845 964.743 771.168 974.4 765 992L777 987L777 988L774 989C780.221 999.101 788.013 980.654 795.539 985.102C797.131 986.043 795.488 997.242 796 1000L802 997L799 995C804.043 994.353 815.741 992.372 816 987L820 987L817 1001C830.557 998.259 832.09 985.177 840 977L839 984L836.87 1003L842 1019L843 1019L846 1011L849 1011C853.589 1028.5 862.625 1002.99 871 1007L872 1007L872 1003L876 1004L891 979L892 979C892.107 987.157 893.791 1004.22 906 996L910 1000L915 992L916 996C918.939 994.821 923.197 994.841 925.722 993.144C930.362 990.027 929.044 984.396 936 986L938 967L943 976L945 976L944 960C948.493 962.12 949.903 960.061 952 956L953 956L953 972L955 969L960 980L970 943L976.853 954.938L990 964L990 959L992 962L997 961C997.321 967.19 1000.73 980.502 1006 984L1006 972L1010.56 987.826L1019 998L1025 990L1040 995L1039 1000L1040 1000L1040 997L1049 998C1047.72 993.063 1049.76 989.803 1049.61 985C1049.29 975.337 1039.72 959.894 1048 952L1045 948L1045 945L1059 935L1058 942L1062 941C1065.22 947.82 1082.39 953.077 1089 949L1093 960L1095 960L1095 949L1096 949L1101 958L1103 958C1105.1 952.768 1103.69 949.715 1101 945L1104 944L1100 941L1104 934L1104 942L1108 941C1108.25 944.703 1107.28 949.342 1109.32 952.656C1114.44 960.995 1121.12 949.484 1123 945L1125 945L1128 948L1128.77 938.108L1143 929C1150.92 933.493 1163.63 941.553 1173 940L1166 935L1170 929L1171 929C1173.77 935.816 1177.85 937.688 1185 938L1180 931L1180 929L1183 928L1183 927L1173.96 916.149L1156 912L1169 899C1174.31 899.798 1192.13 899.249 1195 895L1197 895C1201.14 903.854 1208.46 912.837 1218 916L1212 903L1221 906L1222 897L1224 904L1225 904L1230 895L1233 904L1236 899L1234 910L1241 905C1251.62 906.632 1251.28 894.508 1260 892L1262 885L1268 885L1270 888L1270 877L1275 885L1282 873L1290 884L1298 878L1297 875L1301 876L1300 873L1303 868L1304 868L1309 878L1310 878L1313 863L1314 863C1314.62 868.26 1316.43 884.969 1324 879L1324 883L1325 883L1325 875L1333 892L1341 898L1346 898C1350.91 893.04 1356.39 898.526 1358 904C1362.67 901.272 1366.14 884.553 1366 879L1378 888L1379 880L1368 854C1373.94 858.188 1379.68 860.854 1380 851L1381 851C1383.27 855.039 1385.58 855.614 1390 856L1392 843L1396 848L1396 843L1412 855L1413 855L1420 852L1417 844C1429.25 846.548 1420.13 833.812 1419.39 828.286C1418.7 823.067 1420.17 819.181 1418 814L1425 813C1426.94 804.557 1420.95 794.802 1416 787L1434 796L1436 794L1437 794L1420.45 769L1401 727C1414.35 733.375 1410.99 756.853 1426 762L1423 745L1424 745C1424.99 750.449 1427.52 754.449 1433 756L1432 751L1437 752C1438.61 748.4 1440.27 741.373 1445.02 740.769C1448.42 740.336 1450.9 744.292 1454 745.154C1458.34 746.36 1461.07 742.402 1464 740L1464 739L1458 736L1458 734L1462 733C1462.68 729.453 1465.64 725.637 1465.12 722.015C1464.49 717.531 1456.88 710.443 1462.6 705.909C1465.48 703.629 1470.77 705.889 1474 706.192C1478.65 706.628 1484.55 705.319 1489 704C1488.68 702.252 1487.56 696.421 1486 700L1485 700L1484 697C1472.74 693.466 1487.03 682.521 1492 680C1488.08 671.941 1477.67 672.013 1470 669L1471 667L1457 664L1467 660L1465 649C1455.82 644.469 1449.04 639.715 1453 629L1441 628L1439 623L1442 617L1433 618C1436.46 613.412 1444.19 611.528 1442 605L1459 598L1456 590L1473 605C1477.41 618.41 1487.82 623.042 1497.96 631.39C1506.2 638.171 1509.36 644.967 1521 645L1520 642L1540 649L1554.99 642.851L1552.89 632L1541.64 619L1528 600C1531.6 592.945 1525.17 587.115 1523.92 580C1523.04 574.995 1524.28 568.404 1524 563L1528 563L1520 547L1540 539L1553 536C1550.29 532.387 1544.35 528.344 1548 524C1545.68 518.027 1543.7 509.984 1537 508C1542.95 499.644 1532.83 490.635 1541 485C1540.02 478.641 1539.21 473.817 1546 471L1546 469L1540 468L1540 467L1566 460C1566.65 456.361 1566.11 448.271 1567.69 445.488C1569.12 442.984 1573.35 444.162 1575.38 442.121C1580.4 437.078 1566.82 433.738 1564 433C1564.92 430.63 1567.46 427.388 1567.37 424.846C1567.12 417.269 1553.08 417.722 1548 416C1552.2 409.096 1552.32 402.111 1543 402C1545.51 393.453 1554.79 391.297 1553 381C1547.01 380.405 1548.32 375.866 1548 371C1541.56 371.281 1534.14 372 1529 376C1529.65 369.595 1532.24 363.212 1528 358L1527 358L1520 359L1520 361L1516 360C1517.97 354.864 1518.94 351.304 1517 346C1505.61 359.372 1488.2 364 1471 364L1471 363C1476.94 362.877 1484.68 362.438 1488 357L1482 355L1482 353L1486 352C1483.95 347.445 1481.24 343.998 1476 344L1482 320L1471 320C1472.27 315.419 1479.37 309.621 1479.36 305.835C1479.36 302.632 1475.39 301.469 1473.56 299.506C1466.83 292.283 1462.68 288.11 1452 292L1454 288L1451 273L1435 272L1442 261L1439 262L1442 252L1423 261L1418 264L1418 263C1424.52 259.912 1430.21 253.281 1431 246L1417 252L1411 246C1412.53 243.055 1413.75 240.405 1411 238L1410 233L1409 233C1406.3 235.522 1404.21 236.371 1402 233C1393.69 233.247 1383.75 231.045 1379 239L1378 239L1371 238C1371.71 234.942 1371.67 233.732 1369 232L1369 229L1372 228C1366.35 214.113 1375.6 211.361 1382.41 200.911C1391.42 187.07 1404.84 165.089 1401 148L1398 149L1401 131L1396 132L1394 122C1379.6 123.036 1371.69 142.951 1362.38 152.91C1358.61 156.948 1353.91 158.514 1352 164L1348 162L1346 168L1344 168L1341 162C1336.26 165.361 1336.81 168.912 1330 167L1323 177L1322 177L1318 174L1320 169L1316 170L1315 157L1314 157L1310 160C1308.23 148.655 1301.92 156.227 1299 162L1298 162L1296 159L1295 159L1286 171L1281 170L1280 178L1279 178L1278 172L1276 172C1271.68 178.645 1262.48 177.359 1255 180L1253 169L1252 169L1252 178L1239 158L1238 158C1230.33 163.755 1228.46 164.505 1223 156C1218.36 158.56 1217.84 165.037 1217 170L1210 165L1209 186C1203.54 183.845 1196.81 184.924 1198 192L1195 191L1196 193L1195 193L1189 192C1186.1 188 1182.14 189.451 1178 191L1181 196L1172 197L1177 212C1172.72 212.038 1163.58 212.708 1167 219L1167 220L1166 223L1162 225L1161 220L1147 229L1146 221L1140 228L1142 215C1136.96 220.222 1132.58 230.767 1125 232L1132 211C1124.92 212.398 1119.14 215.192 1116 222L1113 221L1107 226L1108 215L1106 200L1096.3 201.318L1091 208L1092 194L1091 194L1088 208L1084 208L1085 199L1081 205L1080 205L1080 198L1074.25 211L1064 225L1071.39 204L1076 177L1068.02 192.66L1055 200C1062.12 188.812 1064.23 176.53 1059.76 164.7C1058.36 160.973 1059.54 157.502 1056 155L1048 172L1047 172L1058 137L1050 138L1053 123L1044 115L1038 124C1028.61 117.158 1034.12 102.274 1030 93L1025 91L1024 91C1021.81 98.2684 1014.26 110.284 1007 113L1005 109L1003 109C1001.93 113.487 1002.37 117.589 998 120L998 109L997 109L993 129L992 129L992 96C980.863 99.1284 980.081 114.179 980 124L978 124L980 102L970 115L970 116C972.818 118.972 972.104 121.315 970.571 125C967.28 132.908 965.114 140.41 964.188 149C963.581 154.638 966.52 159.569 962 164C962 157.103 963.2 147.581 960.258 141.148C958.443 137.176 950.762 135.888 948 139L945 138L944 141L943 141C942.739 132.794 937.78 130.567 933 125L930 125L925 148L918 134.207L907 144C909.987 139.068 913.793 117.505 904 119C903.502 109.267 900.283 103.553 890 106L889 98C882.808 102.014 886.457 113.658 885 120L884 120C880.177 112.892 875.407 107.391 867 107L867 117L862 108L865 136L858 130L858.353 139.957L852 152L848 151L848 164L846 164L842 149L834 145L824 142L825 171L824 172L820 171L821.802 182.004L820 200L819 200L809 166L802 168C800.787 164.548 799.741 162.938 796 163L797 168L796 168L795 166C794.916 186.475 797.664 204.656 793 225L790 223L785 234L784 234L781 222L769 239L765 223L763 223L760 231L759 231L760 221L753 224C749.347 217.964 743.783 225.591 743 230L737 231L736 220L734 220L732 230L724 229C724.363 222.694 720.713 206.099 710.367 210.293C708.102 211.212 706.494 216.081 705 218L699 209L700 224L703 224L701 232L699 232L696 221C691.925 223.879 693 229.455 693 234L683 231L681 236L677 231L675 234L673 233L671 237L669 237L668 236C672.778 227.441 667.664 222.358 669.88 214C671.512 207.846 676.234 202.956 677.606 196.996C682.242 176.847 678.32 156.186 676.938 136C676.28 126.383 679.289 116.556 676.566 107.039C674.695 100.499 668.64 93.8523 666 87L665 87L664 97C656.347 87.6373 655.253 70.5706 651 59L649 59L646 68L643 68C642.457 65.9208 639.276 55.5873 638 62L637 62L632 50z"/>
<path style="fill:#fefefe; stroke:none;" d="M637 63L638 64L637 63M607 133L608 134L607 133z"/>
<path style="fill:#030303; stroke:none;" d="M1053 134L1052 136L1054 136L1053 134z"/>
<path style="fill:#fefefe; stroke:none;" d="M607 139L606 144L608 144L607 139M947 140L948 141L947 140M919 147L920 148L919 147M829 149L828 156C831.656 154.715 831.871 152.573 831 149L829 149z"/>
<path style="fill:#030303; stroke:none;" d="M799 155L800 156L799 155z"/>
<path style="fill:#fefefe; stroke:none;" d="M594.333 156.667L594.667 157.333L594.333 156.667M854 159L855 160L854 159z"/>
<path style="fill:#030303; stroke:none;" d="M792 161L794 164L792 161M820 169L821 170L820 169z"/>
<path style="fill:#fefefe; stroke:none;" d="M1059 169L1058 171L1059 169M588.333 170.667L588.667 171.333L588.333 170.667M802 170L802 172L804 172L802 170M1056 171L1057 172L1056 171M826 174L826 176L828 176L828 174L826 174M1259.33 188.667L1259.67 189.333L1259.33 188.667z"/>
<path style="fill:#030303; stroke:none;" d="M1083 196L1086 196L1085 194L1083 196z"/>
<path style="fill:#fefefe; stroke:none;" d="M1054 200L1052 204L1054 200M1100 204L1100 206L1102 206L1102 204L1100 204z"/>
<path style="fill:#030303; stroke:none;" d="M697 205L698 206L697 205z"/>
<path style="fill:#fefefe; stroke:none;" d="M1079.33 206.667L1079.67 207.333L1079.33 206.667M1049 208L1049 211L1050 211L1049 208M1086 213L1088 216L1086 213M1103 223L1103 224L1106 224L1103 223M1139 229L1140 230L1139 229M1138 231L1139 232L1138 231M1135 233L1133 242L1137 233L1135 233z"/>
<path style="fill:#030303; stroke:none;" d="M439 243L440 244L439 243z"/>
<path style="fill:#fefefe; stroke:none;" d="M398 259L399 260L398 259M459 261L459 262L462 263L459 261M451 265L452 266L451 265M784 265L779 272C783.963 272.186 785.014 269.477 786 265L784 265M466 266L473 276L466 266M454 267L455 268L454 267M1410.67 267.333L1411.33 267.667L1410.67 267.333M1414 267L1415 268L1414 267M383 272L385 274L385 272L383 272M381 276L383 278L383 276L381 276M372.333 278.667L372.667 279.333L372.333 278.667M475 279L476 280L475 279M385 303L386 304L385 303M374.333 312.667L374.667 313.333L374.333 312.667M368.667 330.333L369.333 330.667L368.667 330.333z"/>
<path style="fill:#030303; stroke:none;" d="M344.667 331.333L345.333 331.667L344.667 331.333z"/>
<path style="fill:#fefefe; stroke:none;" d="M1468.67 363.333L1469.33 363.667L1468.67 363.333z"/>
<path style="fill:#030303; stroke:none;" d="M339 390L340 391L339 390z"/>
<path style="fill:#fefefe; stroke:none;" d="M352 400L353 401L352 400M352 403L352 404L355 404L352 403M1563 433L1564 434L1563 433M387 442L390 445L387 442M420 452C422.266 457.366 425.976 463.06 432 464L420 452M1538 467L1539 468L1538 467M441 471L442 472L441 471M1527 471L1528 472L1527 471M359 475L360 476L359 475M359 543L361 546L362 546L367 544L368 539L359 543M362 549L363 550L362 549M1454 584L1456 588L1454 584M1447 587L1448 588L1447 587z"/>
<path style="fill:#030303; stroke:none;" d="M1460 597L1461 598L1460 597z"/>
<path style="fill:#fefefe; stroke:none;" d="M1435.67 607.333L1436.33 607.667L1435.67 607.333M1442 607L1443 608L1442 607M347 616L351 620L347 616M345 619L346 620L345 619M365 621C366.278 623.898 368.25 624.483 369 621L365 621z"/>
<path style="fill:#030303; stroke:none;" d="M366 622L367 623L366 622M291 690L290 692L292 692L291 690z"/>
<path style="fill:#fefefe; stroke:none;" d="M1459 717L1462 720L1462 719L1459 717M324 719L324 722L325 722L324 719M1397 719L1398 720L1397 719M1399 723L1400 724L1399 723M1437 735L1438 736L1437 735z"/>
<path style="fill:#030303; stroke:none;" d="M1444 741L1445 742L1444 741z"/>
<path style="fill:#fefefe; stroke:none;" d="M313.667 807.333L314.333 807.667L313.667 807.333M320 811L321 812L320 811M1416 818L1416 820L1418 820L1418 818L1416 818M691 824L690 828L694 828L693 850L691 848L690 860L699 878L697 878C703.07 898.435 716.106 879.998 718 868L714 868L718 862L710 865L705 861L702 862C703.669 852.145 715.476 833.382 704 827L701 829L697 832L698 827L693 824L691 824M1415 851L1416 852L1415 851M1367 853L1368 854L1367 853M1375.33 878.667L1375.67 879.333L1375.33 878.667M1266 879L1267 880L1266 879M1217 886L1217 890L1218 890L1217 886M634.667 887.333L635.333 887.667L634.667 887.333M390 895L390 898L392 898L392 895L390 895M1181 895L1181 897L1183 897L1183 895L1181 895M578 903L579 907L580 907L578 903M394 906L393 908L395 908L394 906M416 925L420 928L416 925M724 928L725 929L724 928M546 931L547 932L546 931M1062 932L1064 936L1066 931L1062 932M1089 931L1088 932L1092 935L1089 931M1097 935L1098 936L1097 935M969 938L969 941L971 940L971 939L969 938M420 943L421 944L420 943M455 948L455 954L456 954L455 948M1005 962L1007 965L1005 962M1021.67 971.333L1022.33 971.667L1021.67 971.333M842 977L842 980L844 980L844 977L842 977M802 983L803 984L802 983M798 997L799 998L798 997z"/>
</svg>
