<?xml version="1.0" standalone="yes"?>
<svg xmlns="http://www.w3.org/2000/svg" width="1920" height="1080">
<path style="fill:#fdfdfd; stroke:none;" d="M0 0L0 1080L714 1080C711.505 1067.85 716.241 1061.05 720.603 1050.09C722.923 1044.26 727.252 1044.14 726 1037C720.681 1040.23 719.264 1049.12 712 1047L713 1052L712 1049L703 1056L712 1036L699 1048L707 1027L706 1027L704 1035L699 1033L697 1044L690 1043C687.693 1035.1 681.732 1026.14 673 1032L673 1023L683 1020C682.844 1013.83 685.866 1013.22 689.611 1008.9C693.808 1004.05 696.535 999.681 702 995.924C711.082 989.681 721.525 987.261 723 974L713 970L714 967L685 978L686 975L680 975C680.836 980.708 676.112 982.741 671 983L666 994L663 993L652.213 1000.11L636 1020C639.181 1009.38 648.297 998.614 655.21 990.015C659.553 984.613 665.196 980.228 666 973L640 1003C643.311 988.522 654.054 978.799 662.775 967.714C666.737 962.68 665.686 958.244 672 955L663 933L662 936L661 936C658.933 931.584 647.658 920.65 643 920L641 911L638 915L626.606 890.585L615.333 886.478L611 876L610 882L601 882L602 879L596 877L595 877C591.666 881.873 594.5 883.063 596.167 887.667C597.726 891.972 594.441 894.419 594 898C593.72 900.274 594.8 916.999 594 911L593 911L592 932L590 932L589 925L586 925L586 932L583 931L579 953L566 937L562 944L566 945C566.05 948.078 565.704 950.586 569 951C569.678 954.99 577.502 974.346 570.319 975.579C566.344 976.261 560.807 970.286 557 969L559 996L555 997L547 983L544 983L544 992L535 992L527 975L523 978L522 978L521 973L516 982L514 982L514 973L513 973L506 988L503 984L497 990L498 987L495 992L494 992L493 975L490 974L488.822 985.772L482.073 994.019L487.095 1025L484 1038C481.289 1037.42 480.605 1037.23 480 1040L474 1040C472.034 1032.25 461.914 1024.06 454 1023L449 1032C444.791 1027.79 440.936 1023.5 437 1031L436 1031C436.296 1027.12 435.709 1025.43 432 1024C433.175 1017.17 435.082 1006.7 426 1006L426 1001L418 1004L419 1001L416 999L408 1008L405 1006L404 1009L403 1009C400.588 998.751 407.68 995.549 411 987L406 985C402.209 989.235 398.291 989.995 393 988L397 988L396 983C402.061 980.622 402.213 971.676 404 966L393 976L383 980L388 972L383 968L388 953L379 954L375 964C369.813 959.195 374.649 954.655 376 949L375 949C370.413 954.137 368.182 950.594 368 945L367 945C364.119 954.028 361.504 954.904 354 960L353 953L352 953L352 956L351 952L351 951L345 954L355 941L352 940L353 937L348 940C348.871 934.449 360.518 925.684 350 924C352.457 919.944 352.371 917.318 348 915C345.352 919.235 342.862 919.942 338 920C342.142 914.749 355.453 895.271 348 890C347.05 898.525 337.179 904.586 329 904L329 903C333.584 900.226 341.789 893.687 338 888L338 887L342 881L338 880L338 875L335 877L335 871C330.28 872.011 332.105 879.89 331 884L329 884C326.555 880.119 321.014 878.723 317 881L316 881L313 879L311 884L306 883L297 904L297 893L293 892L295 887L290 888C294.725 880.586 298.231 871.099 307 868L307 865L303 864L297 868L298 859C294.315 860.398 279.97 860.193 285.542 853.012C289.67 847.69 294.093 850.302 299.085 847.767C304.384 845.076 309.238 836.507 311 831L290 832L292 819L280 824C282.759 820.907 292.33 810.125 284.67 807.529C280.932 806.262 275.959 808.202 272 808L272 807C274.77 805.891 279.91 799.81 275.667 797.247C267.864 792.532 255.029 790.161 246 788.048C242.656 787.265 236.042 786.31 238 782L243 774L235 773L240 770L244 770L242 767L251 764L251 763L239 764L240 757L246 758L248 749L246 750L248 734C240.571 731.804 227.678 733.404 221.363 729.388C216.89 726.543 221.655 719.707 225.104 718.083C228.246 716.603 231.999 719.077 235 720L237 710L237 709L233 708C234.341 704.357 236.734 694.999 240.429 693.284C243.433 691.89 248.265 694.91 251.039 695.941C259.95 699.251 276.164 707.015 280 716L299 720C295.052 708.454 287.382 709.003 279.426 702.491C277.902 701.243 279.045 700.721 280 700L280 699L276 700L265 685L244 676C245.303 671.708 247.735 671.139 252 671L252 672L248 673L254 676C257.243 671.003 261.381 674.769 265.961 675.651C271.578 676.734 276.567 674.58 282 674.833C285.098 674.976 287.846 677.189 290.941 677.037C299.406 676.621 290.915 668.862 287 668L287 666L304 656L296.921 640.665L312 648L311 645L314 644C310.925 638.764 307.02 635.377 308 629L306 632L305 632C303.753 627.26 301.544 623.989 297 622L297 621L312 623L313 619L290 608L290 601L311 608L308 601L312 597L314 596L328 600L329.292 591.278L316 579L323 584L324 584L328 580C324.066 574.299 316.498 571.439 312.409 565.551C309.081 560.759 309.905 554.809 304.545 550.757C301.496 548.452 296.536 551.477 294.181 548.528C292.086 545.905 294.994 544.63 297 544L297 543C292.217 542.566 289.372 541.266 287 537L296 536L296 535C291.24 531.574 282.199 522.321 284 516L284 515C280.406 511.086 276.381 507.574 278 502C283.564 507.638 286.105 504.708 293 504L294 501L295 501C297.353 506.647 299.503 511.124 306 512L306 509L310 509L307 500L331 516L330 507C319.796 508.185 327.683 500.346 334 500L334 499L314 496L314 493L324 492C320.243 487.894 316.314 487.705 311 488C316.092 474.013 336.304 471.687 349 466C345.967 449.358 362.772 452.659 367 441L362 442L361 442L361 438L360 438L358 440L359 432L381 428L381 427C376.426 426.14 371.161 426.08 367 423.803C363.918 422.117 360.132 416.914 356.188 417.832C353.353 418.492 351.779 426.091 348.981 428.29C334.686 439.524 311.048 455.085 292 448L296 439L293 441L292 441L289 431C306.342 423.143 284.367 418.311 285 411L290 412C290.259 405.945 286.878 396.656 288.185 391.428C289.783 385.038 301.262 382.589 296 375L299 369L292 368L306.654 355.212L301 347L304 348L303 340L303 339L314 336L314 323L318 324L321 316L324 318L326 311C334.673 310.809 337.198 300.761 334 294C336.754 293.948 340.246 295.351 342.856 294.354C349.845 291.684 340.642 276.431 341 271L340 265L344 264L340 257L348 261C346.926 255.967 343.437 253.942 339 257L332 244L332 243L327 240L329 234L335 237L332 227L347 229L348 233L351 232L350 229L353 228L349 221L362 224L362 220L366 216L369 217L370 213L366 215C368.183 207.767 369.722 204.396 377 202L380 204C380.637 200.179 385.636 199.544 386 201L387 201L388 195L413 207L413 212L414 209L415 209L418 217C420.034 215.231 420.034 213.769 418 212L418 195L418 200L422 199C426.486 207.289 429.71 209.95 429 220L436 219L436 222L451 227C452.914 231.69 453.812 238.319 459 240L454 232L454 231L455 229L460 232L458 223L466 230C471.486 223.511 470.288 220.908 464 215C468.24 213.486 471.462 209.85 475 214L476 211L480 212L482 183L486 184L485.315 174.245L478 157L481 160L483 157L484 160L488 159L487 153L495 152L494 145L497 147L498 147L500 133L506 140L507 140L511 133L514 141L515 141L512 126L519 128L518 119L522 122L523 117L524 117L524 120L525 120L527 114L528 114C532.335 121.276 533.994 127.543 534 136C538.894 137.497 540.824 141.617 543 146L546 145L556 158L561 154L560 145L565 155L566 155L567 132C569.661 136.468 574.439 140.15 576 133L579 134L581 131L584 140L585 140C584.438 135.527 583.575 132.367 587 129L591 133L592 130L599 132C593.971 120.935 592.243 111.372 592 99C595.578 100.877 596.557 103.032 597 107L602 108L603 97L606 98C605.531 93.416 603.093 89.5312 602.525 85C600.987 72.7361 604.556 57.4468 608.894 46C611.614 38.8236 616.708 34.8923 620.583 28.7909C625.015 21.8137 628.625 8.17993 629 0L0 0z"/>
<path style="fill:#040404; stroke:none;" d="M629 0C628.287 8.11816 624.822 20.8669 620.583 27.8958C616.876 34.0432 611.608 37.8394 608.894 45C601.691 64.0056 602.61 78.9249 606 98L603 97L602 108L597 107C596.772 102.858 596.153 100.312 592 99C590.755 109.713 593.029 123.114 599 132L592 130L591 133L587 129C582.982 131.605 584.218 135.787 585 140L584 140L581 131L579 134L576 133C573.678 139.234 570.139 135.769 567 132L566 155L565 155L560 145L561 154L558 153L556 158L546 145L543 146C541.344 141.183 539.358 136.901 534 136C533.999 127.761 533.339 120.62 528 114L527 114L525 120L524 120L524 117L523 117L522 122L518 119L519 128L512 126L515 141L514 141L511 133L507 140L506 140L500 133L498 147L497 147L494 145L495 152L487 153L488 159L483 157L481 160L478 157L484.822 174.259L486 184L482 183L480 212L476 211L475 214L474 211L464 215C469.301 221.997 470.181 222.677 466 230L458 223L460 232L455 229L454 232L459 240L451 227L436 222L436 219L429 220C430.2 210.29 427.886 206.427 422 199L418 200L418 195C412.659 198.794 418.757 206.337 418 212L418 217L415 209L414 209L413 212L413 207L388 195L387 201L386 201L385 199L380 204L377 202C369.347 203.919 367.64 207.357 366 215L370 213L369 217L366 216L362 220L362 224L349 221L353 228L350 229L351 232L348 233L347 229L332 227L335 237L329 234L327 240L332 243L332 244L339 257C343.533 254.621 346.335 256.371 348 261L340 257L344 264L340 265L341 271C339.914 276.56 349.856 292.085 341.941 294.191C339.547 294.828 336.506 293.826 334 294C336.239 300.74 334.623 310.212 326 311L324 318L321 316L318 324L314 323L314 336L303 339L303 340L304 348L301 347L306.23 355.619L292 368L299 369L296 375C300.01 382.669 289.684 384.499 288.032 391.015C286.633 396.536 290.124 405.778 290 412L285 411C283.664 416.871 301.875 421.515 293.903 427.786C292.389 428.976 290.616 429.958 289 431L292 441L293 441L296 439L292 448C300.112 452.07 306.912 449.04 315 446.438C328.856 441.978 338.324 437.845 349.941 428.29C352.744 425.985 352.928 419.839 355.488 418.546C358.757 416.895 362.655 421.67 365 423.266C369.613 426.406 375.596 426.621 381 427L381 428C373.073 428.017 366.069 428.097 359 432L358 440L360 438L361 438L361 442L362 442L363 440L367 441C360.67 451.507 345.169 449.856 349 466C337.012 469.849 314.067 474.599 311 488L324 492L314 493L314 496L334 499L334 500C326.497 500.181 319.91 509.128 330 507L331 516L307 500L310 509L306 509L306 512C299.843 510.523 297.99 506.114 295 501L294 501L293 504C286.284 503.463 284.17 506.511 278 502C275.909 507.644 279.595 511.621 284 515L284 516C281.116 521.96 290.873 532.557 296 535L296 536L287 537C288.785 541.897 292.058 542.77 297 543L297 544C294.744 544.378 291.119 545.655 293.662 548.611C296.351 551.737 301.331 548.682 304.545 551.473C309.393 555.683 309.038 561.618 312.398 566.335C316.521 572.122 323.108 575.173 328 580L324 584L323 584C321.622 580.314 319.98 578.763 316 579L328.763 591.278L328 600L314 596L312 597L308 601L311 608L290 601L290 608L313 619L312 623C307.643 619.273 302.395 620.985 297 621L297 622L305 632L306 632L308 629C306.534 635.463 310.098 639.126 314 644L312 648C310.1 646.987 297.183 634.696 295.921 641.218C295.399 643.911 302.824 652.601 304 656L287 666L287 668C290.103 668.9 299.68 675.73 291.389 677.083C288.568 677.544 285.778 674.629 283 674.333C279.481 673.959 276.237 676.242 272.778 676.028C267.8 675.72 263.703 673.424 259 673.028C256.002 672.775 254.611 673.149 254 676L248 673L252 672L252 671C247.566 671.053 244.802 671.194 244 676L265 685L276 700L280 699L280 700L277 700L288.014 706.843L299 720C292.371 716.612 287.421 715.083 280 716C277.524 706.557 259.629 698.859 251 695.573C248.099 694.469 243.658 691.523 240.43 692.718C236.429 694.199 234.013 704.248 233 708L237 709L237 710L235 720C232.018 718.678 228.478 716.391 225.104 717.622C221.699 718.864 216.719 725.506 219.913 728.851C224.441 733.593 241.38 732.424 248 734L246 750L248 749L246 758L240 757L239 764L251 763L251 764L242 767L244 770L240 770L235 773L236 776L243 774L238 782C234.316 785.632 242.145 787.509 244.91 788.25C253.619 790.583 268.309 792.332 275.423 798.019C278.86 800.766 274.29 805.601 272 807L272 808C275.927 808.614 280.089 806.648 283.814 807.603C292.084 809.723 282.299 820.466 280 824L292 819L290 832L311 831C308.58 836.278 304.164 844.193 299.01 847.113C293.893 850.011 289.042 847.366 284.873 853.012C279.409 860.414 293.857 861.264 298 859L297 868L303 864L307 865L307 868C298.119 870.159 293.548 880.195 290 888L295 887L293 892L297 893C295.368 897.296 294.206 899.976 297 904L306 883L311 884L313 879L316 881L317 881C321.49 879.219 325.72 880.554 329 884L331 884L335 871L335 877L338 875L338 880L342 881L338 887L338 888C340.053 894.482 333.452 899.012 329 903L329 904C337.569 905.384 347.51 898.937 348 890C354.632 897.169 341.587 913.194 338 920C342.919 919.983 345.954 919.883 348 915C351.731 917.95 352.052 919.782 350 924C358.822 926.646 348.444 934.225 348 940L353 937L352 940L355 941L345 954L351 951L351 952C348.292 953.688 351.16 957.222 352 953L353 953L354 960C362.35 955.984 364.747 954.121 367 945L368 945C368.067 950.676 370.92 956.19 375 949L376 949C374.156 953.985 369.019 960.297 375 964L379 954L388 953L383 968L388 972C384.029 973.305 383.543 976.081 383 980L393 976L404 966C401.458 971.883 401.88 979.479 396 983L397 988L393 988C397.621 991.097 403.168 989.663 406 985L411 987C406.49 994.79 400.09 999.131 403 1009L404 1009L405 1006L408 1008L416 999L419 1001L418 1004L426 1001L426 1006C435.028 1007.43 432.368 1017.07 432 1024C435.227 1025.85 436.065 1027.29 436 1031L437 1031C442.205 1024.46 443.912 1028.6 449 1032L454 1023C461.697 1024.83 471.241 1032.6 474 1040L480 1040L484 1038L487.53 1026L481.994 995.911L489.258 985.772L490 974L493 975L494 992L495 992L498 987L497 990L503 984L506 988C510.999 986.243 511.969 977.805 513 973L514 973L514 982L516 982L521 973L522 978L523 978L527 975L535 992L544 992L544 983L547 983L555 997L559 996L557 969C560.547 970.753 566.711 977.067 570.867 975.873C577.711 973.906 570.117 955.177 569 951C565.713 950.57 566.05 947.96 566 945L562 944L566 937L579 953L583 931L586 932L586 925L589 925L590 932L592 932L593 911L594 911L594 914L594.609 900.975L596.478 890.985L595 877L596 877L602 879L601 882L610 882L611 876L615.027 886.583L626.606 891.313L638 915L641 911L643 920L661 936L662 936L663 933L672 955C665.304 957.417 666.619 961.812 662.775 966.83C654.273 977.931 641.949 988.097 640 1003L666 973C662.472 990.546 639.376 1001.51 636 1020L652.213 1001.04L663 993L666 994L671 983C676.221 983.612 682.27 980.843 680 975L686 975L685 978L714 967L713 970L723 974C719.668 990.569 699.61 995.929 689.611 1007.96C685.788 1012.56 682.533 1013.54 683 1020L673 1023L673 1032C682.085 1027.77 686.823 1035.14 690 1043L697 1044L699 1033L704 1035L706 1027L707 1027L699 1048L712 1036L703 1056C707.525 1054.68 707.917 1047.05 713 1052L712 1047C719.195 1049.72 721.45 1041.17 726 1037C726.617 1043.52 722.798 1043.86 720.603 1049.17C716.214 1059.8 710.267 1068.04 714 1080L728 1078L729 1078L736 1080L744 1059L748.977 1059.15L750.965 1051L761 1037C761.379 1041.31 762.116 1044.75 766 1047L769 1039C767.088 1051.26 781.848 1047.11 782 1060C789.23 1057.46 784.577 1044.14 785 1038L788 1048L792 1052L793 1052L792 1047C799.879 1054.89 794.816 1063.68 792 1072L803 1074L804 1063L805 1063L808 1080L809 1080L812 1050L813 1050L816 1076L822 1072L822 1080C826.362 1079.65 827.55 1078.01 829 1074L834 1077C834.572 1081.55 840.194 1080.28 842 1077L844 1077C844.47 1079.82 852.871 1082.35 856 1080C859.512 1077.37 857.091 1071.5 858 1069C859.196 1065.71 868.17 1062.32 867 1067L870 1063L874 1064L875 1047L880 1048C879.418 1043.47 877.969 1040.04 882 1037L882 1051L893 1040C890.741 1032.62 895.45 1031.35 898 1025C899.423 1027.02 901.666 1031.46 904 1029L905 1029L900 1036L910 1035L906 1053C918.156 1050.44 913.82 1038.52 914.401 1030C914.689 1025.78 917.518 1020.04 919 1016C920.3 1021.18 920.94 1024.49 927 1024L925 1019L930 1017L933.049 1027.36L941.596 1038L941 1055C950.479 1039.92 943.48 1028.38 941 1013L950 1021L955 1013C955.632 1016.73 963.234 1038.27 967.833 1026.87C969.608 1022.46 965.605 1018.52 966 1014L970 1016L971 1007L977 1008L975 1003C980.514 1001.82 978.446 993.251 978 989L985 996L984 985L988 985C987.378 991.212 986.478 1003.58 990.854 1008.6C993.021 1011.08 996.731 1010.1 998.491 1013.23C1001.77 1019.07 1001.17 1026.12 1004 1032C996.719 1035.98 994.325 1054.39 1004 1056L1006 1064L1014 1060L1012 1055L1020 1049L1025 1052C1022.46 1044.08 1021.86 1039.09 1024 1031L1025 1031L1025 1038C1040.07 1041.73 1048.38 1062.35 1042 1076L1043 1077C1056.96 1069.67 1044.47 1048.28 1040.18 1039C1038.31 1034.95 1030.79 1026.37 1039 1026L1044 1018C1041.27 1030.58 1050.01 1041.51 1055.34 1052C1056.77 1054.82 1056.12 1060.15 1059.19 1061.72C1062.21 1063.26 1067 1060.96 1070 1060L1070 1064L1066 1063C1065.34 1067.44 1066.89 1067.45 1070 1065L1069 1068L1075 1061L1078 1066L1084 1066L1084 1060C1096.27 1063.32 1090.21 1065.97 1093 1076L1098 1068L1102 1072L1104 1072C1105.69 1061.63 1092.77 1055.13 1086.9 1048.42C1083.62 1044.67 1081.86 1040.04 1079 1036L1078 1036L1072 1038L1071 1035L1074 1035L1074 1030C1076.28 1027.98 1075.74 1026.31 1074 1024L1074 1023C1082.98 1017.3 1088.09 1008.85 1096.04 1002.3C1102.94 996.609 1111.06 995.923 1115 987L1117 987C1119.46 994.575 1120.96 1006.6 1128 1011C1127.88 1007.24 1128.65 1005.73 1132 1004C1129.92 991.523 1125.85 979.922 1129 967C1133.83 970.181 1134.07 972.587 1135 978C1142.79 978.933 1147.3 983.374 1151 990L1158 989L1160 995L1160 996L1158 1000L1164 1004L1165.6 990.015L1159 972L1163 972L1163 980C1167.01 978.039 1169.11 975.385 1170 971L1175 971C1170.81 982.206 1183.87 975.033 1188 973L1197 998L1209 1002C1207.66 998.594 1209.25 983.498 1214.71 989.257C1221.43 996.361 1222.23 1016.76 1232 1020L1228 1001L1232 1010C1238.24 1006.46 1236.02 996.324 1244 1000C1245.61 992.639 1248.51 981.746 1242.18 975.6C1238.94 972.455 1232.03 970.63 1228 968L1228 967C1234.83 964.531 1246.22 968.983 1248 976L1249 976C1249.62 969.8 1247.59 965.922 1244 961L1261 967L1261 968L1255 972C1257.67 971.272 1268.62 970.129 1269.54 967.816C1270.59 965.17 1265.39 964.733 1264.02 963.977C1258.86 961.145 1253.28 951.289 1260 948L1260 937L1257 936L1257 935C1270.79 937.05 1268.63 950.446 1275 959L1273 938L1277 939C1276 945.5 1275.67 955.335 1284 956L1285 947L1292 947C1290.94 953.798 1293.91 958.464 1301 959L1299 963L1304 968L1305 968C1305 950.782 1290.25 931.553 1295 915L1291 912L1296 911C1296.56 921.798 1305.71 922.825 1311.44 930.185C1315.01 934.78 1315.49 941.309 1319 946L1327 942L1327 944L1322 950L1334 947L1333 952L1337 953L1340 945L1341 945C1342.62 949.388 1345.55 950.409 1348 946L1350 946L1354 954L1358.57 946.708L1379 948L1378 941L1381 942L1383 935C1384.26 940.467 1387.59 943.734 1392 947L1390 935L1401 942L1394 918L1399 924L1398 911L1402 912C1405.97 905.511 1407.57 901.447 1415 899L1416 902L1419 902L1422 897L1423 897L1424 902L1430 896C1431.08 899.521 1432.34 900.32 1436 900L1436 899L1429 887L1433 885L1434 888L1437 888C1440.13 883.893 1445.62 877.995 1449.47 874.584C1455.16 869.547 1465.22 868.02 1458 859L1470 858L1468 856L1468 855L1479 841C1492.51 842.333 1492.04 821.869 1492 814L1488 812L1489 807L1502 804L1497 800L1497 795C1499.77 789.51 1490.56 788.681 1487 787.211C1477.83 783.431 1449.01 782.255 1450 796L1434 779L1450 780L1450 775L1445 769L1463 768C1462.37 763.307 1460.56 761.248 1456 760C1462.76 755.277 1476 757.991 1484 758.729C1487.84 759.083 1494.33 760.122 1497 757L1503 758L1504 754L1495 749L1502 747L1494 737L1502 736L1502 735C1498.53 733.518 1489.6 727.256 1495.95 723.394C1499.77 721.067 1510.17 721.871 1514.99 720.981C1521.53 719.771 1528.21 715.809 1535 714L1534 710L1528 706L1527 706L1524 708L1528 704L1514 697L1521 696L1519 687L1523 688L1521 686L1522 683L1507 678L1515 670L1516 666L1521 669L1523 665L1538 672.394L1550.21 688.505L1570 704L1575 702C1575.79 698.806 1576.72 698.132 1580 698C1582.07 692.971 1583.82 688.294 1582 683C1589.82 680.801 1582.12 667.454 1579.59 663C1573.1 651.567 1572.22 638.84 1563.68 628C1558.42 621.333 1547.96 618.569 1549 609L1553 610C1550.09 603.875 1543.78 598.887 1537 598L1548 582L1549 582L1543 575L1543 573L1546 572L1544 567C1557.33 563.551 1563.78 569.741 1576 571C1575.65 565.414 1578.84 559.184 1573 556C1578.77 549.597 1579.76 535.366 1574.92 527.343C1573.53 525.043 1570.14 525.032 1568.08 523.487C1564.14 520.515 1561.64 515.798 1559.24 511.59C1555.02 504.182 1560.26 495.865 1550 494L1556 486L1552 486L1551 481L1554 485L1573 477C1576.61 482.705 1582.28 482.412 1588 480L1581 477L1582 473C1589.43 473.796 1602.99 471.598 1601 462C1606.84 460.754 1603.87 454.68 1602 451L1599 449L1602 449L1608 437L1602 433C1608.02 431.254 1607.65 426.036 1610 421L1593.14 416.683L1575 404L1575 403C1579.39 397.812 1574.82 393.768 1574.19 388C1573.65 383.103 1575.16 378.002 1575 373L1571 373C1572.38 365.294 1571.55 358.243 1563 356L1565 347L1556 344C1556 339.007 1555.5 333.869 1560.06 330.589C1563.54 328.087 1567.4 328.708 1570 325L1566 325L1564 321L1577 320L1575 315L1583 314L1580 312L1601 304L1599 300L1601 297L1604 298L1610 292L1612 287C1608.18 285.841 1604.72 284.443 1602 288L1601 288L1603 285L1610 269L1604 272L1604 269L1600 270L1596 265L1595 268L1594 268L1591 255L1579 259L1578 259L1574 256C1572.29 258.355 1567.71 261.782 1567 257C1570.56 258.848 1571.69 256.239 1573 253L1575 254L1577 246L1576 246L1575 248C1572.41 243.659 1566.64 243.613 1562 242.491C1550.1 239.613 1524.74 243.214 1515 251L1514 251L1509 249L1506 252L1502 246L1501 246L1498 248L1497 245L1481 243.818L1464 251C1462.61 247.006 1461.32 244.713 1457 244L1457 243C1460.63 240.835 1461.7 238.139 1462 234C1455.6 235.969 1451.73 237.961 1445 236L1445 235L1450 229C1440.38 227.811 1435.33 231.921 1427 236L1428 227L1411 228C1408.7 220.163 1387.3 228.971 1381 229L1379 234C1375.88 229.401 1377.89 221.949 1372 220L1391 194C1397.08 193.016 1399.74 184.44 1399 179L1416 160C1414.83 150.722 1413.66 141.968 1417.35 133C1422.09 121.5 1431.05 114.395 1432.33 101.015C1433.25 91.32 1421.03 89.6617 1415 94C1413.03 84.8115 1394.58 104.668 1393 109C1378.16 106.781 1372.59 131.813 1365 140L1362 136L1358 152L1350 149L1349 152L1347 148L1342 146L1337 152L1336 149L1335 149L1330 154L1328 128L1320 127L1320 130L1316 129L1315 133L1310 129C1305.55 130.48 1302.85 132.669 1301 137L1292 137C1288.65 145.036 1288.33 152.867 1279 157.002C1272.83 159.738 1268.13 158.151 1262 163L1262 157C1252.47 155.577 1255.06 146.33 1253 139L1251 139L1247 146C1244.41 133.095 1236.81 133.018 1226 131L1224 138L1212 135L1208 139L1203 135L1202 139L1198 137L1196 155L1198 157L1198 158C1194.56 160.283 1194.89 164.713 1191.69 166.992C1185.19 171.614 1167.62 172.186 1167 180L1155 175L1151 180C1151.26 174.001 1153.16 169.299 1148 165L1141 169C1140.21 177.754 1130.03 194.922 1123 200C1123.08 190.022 1139.47 179.282 1123 176L1127 163L1110 186C1113.92 178.97 1114.99 170.947 1115 163L1114 163L1104 176L1103 176L1113.63 158.004L1113.19 148.385L1117 133C1112.78 134.432 1110.6 138.708 1107 134C1112.29 130.489 1109.73 123.869 1113.56 119.39C1117.47 114.823 1124.46 113.296 1128.26 108.541C1132.48 103.266 1131.78 93.2027 1131 87C1124.75 90.3495 1121.88 97.8073 1119 104L1116 103L1117 106L1114 106L1114 105L1114 102L1107 104C1109.54 99.7949 1117.81 83.2463 1113 80C1115.83 72.232 1117.92 60.0583 1116 52C1112.04 53.8768 1111.18 51.6459 1110 48L1108 56L1107 56L1107 53L1103 52L1103 45L1101 45L1095 48L1098 43C1090.85 44.5798 1092.9 39.0811 1096 35L1096 34C1083.43 27.8777 1076.14 46.7648 1070 53L1071 35L1067 36L1060 29L1055 34L1053 10L1051 10L1046 32L1044 32L1043 17L1037 38L1036 38C1035.96 33.3363 1035.93 29.5557 1031 28L1031 27L1036 24L1036 23C1031.87 15.8744 1034.02 7.72681 1035 0C1024.93 2.14636 1026.24 18.2826 1017 20C1021.8 11.9064 1020.11 8.50305 1018 0L1013 0L1009 12L1008 12L1008 0C1000.78 5.50977 1004.42 22.192 1002.31 29.9993C1000.57 36.4254 994.021 42.8221 991 49L990 49L998 19C992.985 23.3147 988.171 54.2822 978 37L976 37L973 44C960.09 43.1451 961.115 54.9528 953 61C950.982 57.5795 948.793 57.5009 945 58L945 51L942 45C932.632 48.8331 930.057 55.5448 924 62L920 53L909 50L904 52L897 39L891 38L883 35L886 52C880.572 48.5117 876.695 45.7358 876 39L871 48L870 48L863 36L857 40L854 39L856 45L855 45L847 35L844 42L840 40L839 53L823 38L822 38L820 44L824 55L823 55L812 37L811 37L812 50L806 51L806 56L802 53L798 55L799 60C795.619 57.1177 792.377 54.2244 787.999 52.983C782.625 51.459 777.929 55.9257 776 49L772 56L769 55L769 51L768 51L768 57C764.136 57.3002 762.652 58.0892 762 62L747 67L743 63C743.741 68.6581 746.618 72.4804 751 76L743 79L741 75L746 92L743 87L742 87C736.541 95.4924 727.031 81.0355 719.059 82.8271C713.866 83.9941 716.237 91.7365 713 95L713 96L718 102L714 99L703 103L711 111C710.067 117.245 717.178 117.575 720.258 122.094C722.029 124.692 721.759 128.131 723.742 130.586C732.723 141.707 746.377 148.437 759 153.966C767.546 157.709 781.124 167.83 782 151L783 151C788.105 165.758 785.933 180.508 787 196C779.148 188.994 777.485 176.983 765 175C760.67 184.526 759.833 187.971 764 198L761 199C756.833 190.968 743.4 182.106 735.005 178.782C729.87 176.75 728.338 181.411 731 185L731 186C729.014 189.622 730.757 192.801 734 195L734 196C730.49 198.572 731.703 200.783 734 204L731 205C725.053 187.507 701.726 181.986 693.434 166.985C689.574 160.002 691.979 150.528 692 143L688 144L692 135L689 137L694.414 106L697.998 97.054L693 87L689 88L691 79L684 79L681 56L678 57L679.927 34L685 14L684 14L682 17L680 0L629 0z"/>
<path style="fill:#fdfdfd; stroke:none;" d="M680 0L682 17L684 14L685 14L679.927 33L678 57L681 56L684 79L691 79L689 88L693 87C693.313 91.0423 698.019 93.9671 697.688 97.4429C696.467 110.289 686.62 123.299 689 137L692 135L688 144L692 143C691.936 150.676 689.652 159.62 692.938 166.985C696.766 175.564 711.636 183.782 718.579 190.375C722.571 194.165 728.359 204.101 734 204C732.214 200.587 731.416 199.038 734 196L734 195C731.276 192.287 729.509 189.765 731 186L731 185C728.401 179.398 732.088 177.072 737.015 180.488C742.409 184.229 748.961 187.214 753.996 191.278C757.414 194.036 759.383 198.075 764 198C760.822 187.28 762.167 185.222 765 175C777.08 178.153 778.248 190.683 787 196C786.726 181.358 789.527 164.442 783 151L782 151C780.204 168.405 766.805 156.187 758 153.221C746.251 149.263 731.281 139.923 723.742 129.776C721.838 127.214 722.121 123.779 720.258 121.188C717.158 116.876 711.268 116.96 711 111L703 103L714 99L718 102C717.432 98.4178 716.492 97.0566 713 96L713 95C717.266 92.2236 713.746 85.022 719.062 83.4421C727 81.0834 737.673 97.1746 742 87L743 87L746 92L741 75L743 79L751 76L743 63L747 67L762 62C763.057 58.5083 764.418 57.5681 768 57L768 51L769 51L772 56L776 49C777.237 56.5504 782.697 51.677 787.999 53.3241C792.182 54.6234 795.348 57.7522 799 60L798 55L802 53L806 56L806 51L812 50L811 37L812 37L823 55L824 55L820 44L822 38L823 38C826.413 44.58 832.407 49.7159 839 53L840 40L844 42L847 35L855 45L856 45L854 39L857 40L863 36L870 48L871 48L876 39C876.358 45.8756 879.825 49.2911 886 52L883 35C885.305 37.131 888.218 40.7363 891 38L897 39L904 52L909 50L920 53L924 62L928.56 54.5493L942 45L945 51L945 58L953 61C962.012 56.554 959.993 43.8516 973 44L976 37L978 37C985.44 56.1996 994.865 23.0737 998 19L990 49L991 49C1001.95 33.2496 1004.24 19.0306 1006 0L680 0M1008 0L1008 12L1009 12L1013 0L1008 0M1018 0C1019.28 8.98657 1020.63 11.1764 1017 20C1022.12 19.1345 1031.14 5.00146 1032 0L1018 0M1035 0C1033.65 7.18347 1030.89 16.8448 1036 23L1036 24L1031 27L1031 28C1035.29 30.252 1035.89 33.3658 1036 38L1037 38L1043 17L1044 32L1046 32L1051 10L1053 10L1055 34C1058.4 33.4126 1059.27 32.3507 1060 29L1067 36L1071 35L1070 53C1073.45 50.6296 1072.63 47.2319 1074.84 44.0671C1078.48 38.8513 1089.89 31.9635 1096 34L1096 35C1092.06 38.6447 1090.67 45.3676 1098 43L1095 48L1101 45L1103 45L1103 52L1107 53L1107 56L1108 56L1110 48C1110.55 52.0846 1111.92 54.7721 1116 52L1113 80C1118.09 84.2657 1111.08 87.3201 1110.28 92C1109.88 94.3147 1111.81 96.7088 1111.03 98.8889C1110.14 101.373 1107.62 101.112 1107 104L1114 102L1115 103L1114 106L1117 106L1116 103L1119 104L1131 87C1131.5 93.339 1132.34 103.455 1127.57 108.541C1123.51 112.862 1116.4 114.583 1112.94 119.39C1109.63 123.983 1111.33 129.656 1107 134C1110.08 139.285 1113.15 135.116 1117 133L1112.98 147.961L1113.58 157.015L1103 176L1104 176C1110.08 172.665 1111.44 169.613 1114 163L1115 163L1110 186C1116.82 184.911 1113.97 180.796 1116.19 175.925C1118.43 171.017 1122.59 166.005 1127 163L1123 176C1138.03 180.103 1123.03 189.676 1123 200C1130.47 196.429 1140.61 177.319 1141 169L1148 165C1152.28 170.075 1151.13 173.793 1151 180L1155 175C1158.16 179.286 1161.87 179.943 1167 180C1167.37 177.708 1167.7 175.747 1170.15 174.78C1172.63 173.799 1175.43 174.799 1178 174.106C1184.41 172.378 1201.14 163.71 1196 155C1201.26 151.532 1197.43 142.533 1198 137L1202 139L1203 135L1208 139L1212 135L1224 138L1226 131C1236.9 134.351 1242.71 133.246 1247 146L1251 139L1253 139C1254.54 146.502 1252.15 156.269 1262 157L1262 163C1268.23 159.378 1273.06 159.981 1279 157.693C1288.51 154.028 1289.54 145.269 1292 137L1301 137L1310 129L1315 133L1316 129L1320 130L1320 127L1328 128C1325.16 138.095 1327.97 144.221 1330 154L1335 149L1336 149L1337 152L1342 146L1347 148L1349 152L1350 149L1358 152L1362 136L1365 140C1375.09 132.338 1376.66 109.359 1393 109C1395.99 104.749 1410.25 87.0101 1415 94C1421.52 90.412 1433.25 91.916 1431.93 102.004C1430.29 114.503 1421.83 121.128 1417.35 132C1413.59 141.122 1414.24 150.552 1416 160L1399 179C1399.8 183.815 1395.17 195.043 1391 194L1372 220L1379 234L1381 229C1387.96 229.486 1407.22 220.4 1411 228L1428 227L1427 236L1450 229L1445 235L1445 236C1451.37 238.645 1455.99 236.668 1462 234L1457 243L1457 244L1464 251L1466 249L1481 244.279L1497 245L1498 248L1501 246L1502 246L1506 252L1509 249L1514 251L1515 251C1527.24 244.109 1548.21 240.015 1562 243.109C1566.77 244.18 1571.75 244.071 1575 248L1576 246L1577 246L1575 254L1573 253C1571.34 255.754 1570.36 257.661 1567 257C1567.61 261.832 1572.47 259.02 1574 256L1578 259L1579 259L1591 255L1594 268L1595 268L1596 265L1600 270L1604 269L1604 272L1605 272L1606 272L1610 269L1603 285L1601 288L1602 288L1612 287L1610 292L1604 298L1601 297L1599 300L1601 304L1580 312L1583 314L1575 315L1577 320L1564 321L1566 325L1570 325C1561.74 333.025 1556 329.985 1556 344L1565 347L1563 356C1571.08 359.452 1571.53 365.038 1571 373L1575 373L1574.19 389L1575 403L1575 404L1592.3 416.683L1610 421L1602 433L1608 437C1604.6 441.166 1600.57 443.113 1602 449L1599 449C1599.51 451.475 1599.6 451.575 1602 451C1603.42 455.242 1605.42 459.179 1601 462C1602.03 471.235 1589.41 473.482 1582 473L1581 477L1588 480C1581.74 481.98 1577.68 482.032 1573 477L1554 485L1551 481L1552 486L1556 486L1550 494C1559.19 496.74 1555.06 504.991 1559.24 512.428C1563.38 519.772 1569.76 521.739 1574.23 527.448C1576.44 530.264 1575.37 534.83 1575.58 538.089C1576.2 547.358 1578.54 547.482 1573 556C1577.76 560.15 1575.1 565.331 1576 571C1563.94 568.817 1557.17 562.541 1544 567L1546 572L1543 573L1543 575L1549 582L1548 582L1547 580L1537 598C1543.71 599.542 1549.06 604.505 1553 610L1549 609C1547.2 618.674 1558.35 622.295 1563.61 629C1571.71 639.332 1572.39 651.189 1578.43 662C1581.35 667.241 1589.11 678.613 1582 683L1580 698C1576.42 697.473 1574.94 698.297 1575 702L1570 704L1551.1 688.505L1538.61 672.314L1523 665L1521 669L1516 666L1515 670C1509.77 669.921 1508.74 673.695 1507 678L1522 683L1523 688L1519 687L1521 696L1514 697L1528 704L1524 708L1527 706L1528 706L1534 710L1535 714C1527.31 715.056 1522.01 719.216 1514.99 720.812C1509.66 722.022 1500.45 720.625 1495.94 722.863C1488.55 726.533 1497.91 733.927 1502 735L1502 736L1494 737L1502 747L1495 749L1504 754L1503 758L1497 757C1485.94 764.463 1465.34 750.496 1456 760C1460.08 761.678 1461.96 763.691 1463 768L1445 769L1450 775L1450 780L1434 779C1437.56 784.997 1443.57 793.103 1450 796C1449.66 782.642 1476.92 783.63 1486 787.224C1489.84 788.742 1498.52 789.388 1497 795L1497 800L1502 804L1489 807L1488 812L1492 814C1491.55 822.981 1492.3 839.623 1479 841L1468 855L1468 856L1470 858L1458 859C1464.95 870.403 1441.82 878.431 1437 888L1434 888L1433 885L1429 887C1430.29 891.836 1430.96 897 1436 899L1436 900L1430 896L1424 902L1423 897L1422 897L1419 902L1416 902L1415 899C1407.35 900.918 1405.09 904.838 1402 912L1398 911L1399 924L1394 918L1401 942L1390 935L1392 947L1383 935L1381 942L1378 941L1379 948C1367.25 946.048 1359.91 942.441 1354 954L1350 946L1348 946C1345.03 949.294 1343.17 948.738 1341 945L1340 945L1337 953L1333 952L1334 947L1322 950L1327 944L1327 942C1322.92 941.241 1321.07 942.462 1319 946C1316.29 940.865 1315.12 933.8 1311.44 929.329C1305.78 922.47 1297.05 921.154 1296 911L1291 912L1295 915L1295.95 925.845L1305 968L1304 968L1299 963L1301 959C1294.4 957.978 1291.62 953.409 1292 947L1285 947L1284 956C1276.08 954.707 1276.47 945.443 1277 939L1273 938L1275 959C1270.65 950.699 1269.95 934.249 1257 935L1257 936L1260 937L1260 948C1252.73 950.318 1258.18 961.203 1263.06 963.977C1264.36 964.717 1269.78 965.147 1269.23 967.536C1268.79 969.445 1257.29 971.119 1255 972L1261 968L1261 967L1244 961L1249 976L1248 976C1246.85 968.765 1234.49 963.626 1228 967L1228 968C1232.11 971.689 1237.56 972.292 1241.45 975.585C1248.25 981.344 1245.05 992.656 1244 1000C1237.07 995.471 1236.63 1005.73 1232 1010C1231.95 1005.84 1231.83 1003.11 1228 1001L1232 1020C1222.2 1014.6 1222.67 996.93 1215.32 989.192C1209.15 982.694 1206.87 997.916 1209 1002L1197 998L1188 973C1183.81 974.247 1171.89 981.673 1175 971L1170 971L1163 980L1163 972L1159 972C1157.29 980.203 1163.38 983.136 1165.33 990.015C1166.54 994.301 1164.05 999.523 1164 1004L1158 1000L1160 996L1160 995L1158 989L1151 990C1148.44 983.242 1142.64 977.473 1135 978C1134.65 972.369 1134.51 969.506 1129 967C1124.94 978.409 1129.02 992.858 1132 1004C1128.05 1005.2 1127.34 1007 1128 1011L1117 987L1115 987L1096.04 1001.55L1074 1023L1074 1024L1074 1030L1074 1035L1071 1035L1072 1038L1078 1036L1079 1036C1082 1041.72 1084.61 1047.27 1089.3 1051.85C1095.07 1057.5 1104.29 1062.89 1104 1072L1102 1072L1098 1068L1093 1076C1091.76 1066.15 1096.44 1061.64 1084 1060L1084 1066L1078 1066L1075 1061L1069 1068L1070 1065L1068 1068L1065 1067L1066 1063L1070 1064L1070 1060C1066.84 1060.54 1062.27 1062.76 1059.25 1061.14C1056.51 1059.66 1056.87 1053.71 1055.38 1051C1049.69 1040.65 1042.22 1030.51 1044 1018L1039 1026C1036.8 1025.68 1033.61 1025.6 1034.17 1028.97C1036.53 1043.15 1060.71 1062.96 1043 1077L1042 1076C1050.39 1063.71 1039.58 1040.27 1025 1038L1025 1031L1024 1031C1021.28 1038.45 1021.79 1044.79 1025 1052L1020 1049L1012 1055L1014 1060L1006 1064L1004 1056C994.104 1053 997.916 1037.03 1004 1032C1001.73 1025.77 1002.09 1018.19 998.491 1012.43C996.78 1009.7 993.245 1010.78 991.228 1008.51C986.546 1003.25 987.668 991.53 988 985L984 985L985 996L978 989C978.346 993.9 979.659 999.991 975 1003L977 1008L971 1007L970 1016L966 1014C965.019 1018.44 968.785 1021.77 967.705 1025.94C964.483 1038.4 955.877 1016.3 955 1013L950 1021L941 1013L946.47 1037L941 1055L942.174 1038L933.664 1027.32L930 1017L925 1019L927 1024C921.294 1024.18 920.577 1020.79 919 1016C911.938 1027.05 920.631 1047.8 906 1053L910 1035L900 1036L905 1029L904 1029L903 1031L898 1025C894.496 1030.95 889.945 1032.72 893 1040L882 1051L882 1037C877.578 1039.57 879.148 1043.59 880 1048L875 1047L874 1064L870 1063L867 1067C866.433 1063 861.527 1065.4 859.491 1067.68C857.301 1070.12 856.846 1076.73 856 1080L1920 1080L1920 0L1035 0M1031 25L1032 26L1031 25z"/>
<path style="fill:#040404; stroke:none;" d="M1080 27L1081 28L1080 27M881 31L881 32L884 32L881 31M984 33L984 36L986 33L984 33z"/>
<path style="fill:#fdfdfd; stroke:none;" d="M1030 34L1030 35L1034 36L1034 33L1030 34z"/>
<path style="fill:#040404; stroke:none;" d="M1079 35L1079 36L1082 36L1079 35z"/>
<path style="fill:#fdfdfd; stroke:none;" d="M1034 38L1035 39L1034 38z"/>
<path style="fill:#040404; stroke:none;" d="M819 39L820 40L819 39M1102 39L1104 41L1104 39L1102 39z"/>
<path style="fill:#fdfdfd; stroke:none;" d="M1035.33 40.6666L1035.67 41.3334L1035.33 40.6666M1075.67 45.3334L1076.33 45.6666L1075.67 45.3334M989 49L989 52L990 52L989 49M933 52L932 58L935 52L933 52M812 54L811 56L813 56L812 54M839 54L840 55L839 54M1102 62L1107 56C1103.51 57.0567 1102.57 58.4176 1102 62z"/>
<path style="fill:#040404; stroke:none;" d="M742 60L743 61L742 60z"/>
<path style="fill:#fdfdfd; stroke:none;" d="M679 61L680 62L679 61M930 62L930 64L933 65L934 61L930 62M763 64L766 62L763 64M934 67L935 68L934 67M947 67L947 70L948 70L947 67M1060 76L1058 80C1060.65 79.4324 1061.35 78.4122 1060 76M750 77L751 84L755 84L756 83L756 79L752 81L750 77z"/>
<path style="fill:#040404; stroke:none;" d="M715 80L720 80L715 80M711 81L710 84L714 84L711 81M739.333 85.6667L739.667 86.3333L739.333 85.6667z"/>
<path style="fill:#fdfdfd; stroke:none;" d="M742 92L742 94L744 92L742 92M720 93L720 96L723 96L723 93L720 93M1107 95L1108 96L1107 95z"/>
<path style="fill:#040404; stroke:none;" d="M700 99L700 100L703 100L700 99z"/>
<path style="fill:#fdfdfd; stroke:none;" d="M1117 104L1118 105L1117 104z"/>
<path style="fill:#040404; stroke:none;" d="M506.667 107.333L507.333 107.667L506.667 107.333z"/>
<path style="fill:#fdfdfd; stroke:none;" d="M598 110L599 111L598 110M1100 118L1101 118L1103 116C1100.86 114.882 1100.47 115.749 1100 118z"/>
<path style="fill:#040404; stroke:none;" d="M498 135L499 136L498 135z"/>
<path style="fill:#fdfdfd; stroke:none;" d="M1210.33 139.667L1210.67 140.333L1210.33 139.667M1098 145L1099 149L1100 149L1100 145L1098 145M1092.67 149.333L1093.33 149.667L1092.67 149.333M555 160L556 161L555 160M489 175L490 176L489 175z"/>
<path style="fill:#040404; stroke:none;" d="M1163 175L1164 176L1163 175z"/>
<path style="fill:#fdfdfd; stroke:none;" d="M1101 176L1099 181L1103 176L1101 176z"/>
<path style="fill:#040404; stroke:none;" d="M720 184L723 181L728 184L728 179C723.617 178.282 721.711 180.036 720 184z"/>
<path style="fill:#fdfdfd; stroke:none;" d="M1141 183C1140.72 186.081 1140.97 187.144 1144 188L1141 183z"/>
<path style="fill:#040404; stroke:none;" d="M414.667 187.333L415.333 187.667L414.667 187.333z"/>
<path style="fill:#fdfdfd; stroke:none;" d="M1139 191L1140 192L1139 191z"/>
<path style="fill:#040404; stroke:none;" d="M377 199L378 200L377 199M478 201L476 204L477 206L478 206L478 201z"/>
<path style="fill:#fdfdfd; stroke:none;" d="M372 205L372 208L373 208L372 205z"/>
<path style="fill:#040404; stroke:none;" d="M476 207L477 208L476 207z"/>
<path style="fill:#fdfdfd; stroke:none;" d="M369 211L370 212L369 211z"/>
<path style="fill:#040404; stroke:none;" d="M465 211L466 212L465 211z"/>
<path style="fill:#fdfdfd; stroke:none;" d="M372 217L372 220L374 220L374 217L372 217z"/>
<path style="fill:#040404; stroke:none;" d="M348 225L350 228L348 225z"/>
<path style="fill:#fdfdfd; stroke:none;" d="M473 229L477 237C477.567 233.025 476.134 231.391 473 229M352 233L352 236L354 236L354 233L352 233M442 235L443 236L442 235M466 237L466 242L467 242L466 237M1422 240L1425 241L1427 237L1422 240M440 239L441 240L440 239z"/>
<path style="fill:#040404; stroke:none;" d="M1596.33 262.667L1596.67 263.333L1596.33 262.667M335.667 263.333L336.333 263.667L335.667 263.333z"/>
<path style="fill:#fdfdfd; stroke:none;" d="M344.333 269.667L344.667 270.333L344.333 269.667M1597 282L1592 287L1592 288L1599 283L1597 282M347.667 291.333L348.333 291.667L347.667 291.333M1561 323L1562 324L1561 323z"/>
<path style="fill:#040404; stroke:none;" d="M311 325L312 326L311 325z"/>
<path style="fill:#fdfdfd; stroke:none;" d="M317 328L316 332L320 332L317 328z"/>
<path style="fill:#040404; stroke:none;" d="M301 345L302 346L301 345z"/>
<path style="fill:#fdfdfd; stroke:none;" d="M1506 347L1506 350L1508 350L1508 347L1506 347M292.333 389.667L292.667 390.333L292.333 389.667M1591 419L1592 420L1591 419z"/>
<path style="fill:#040404; stroke:none;" d="M292 426L293 427L292 426z"/>
<path style="fill:#fdfdfd; stroke:none;" d="M383.667 427.333L384.333 427.667L383.667 427.333z"/>
<path style="fill:#040404; stroke:none;" d="M284 431L287 434L288 429L284 431z"/>
<path style="fill:#fdfdfd; stroke:none;" d="M388 429L392 432L388 429M395 435L395 436L398 436L395 435z"/>
<path style="fill:#040404; stroke:none;" d="M286 436L285 438L287 438L286 436z"/>
<path style="fill:#fdfdfd; stroke:none;" d="M402.667 439.333L403.333 439.667L402.667 439.333M352 465L355 461L362 462C358.298 456.202 349.823 456.959 352 465z"/>
<path style="fill:#040404; stroke:none;" d="M360 460L361 461L360 460M311.667 495.333L312.333 495.667L311.667 495.333z"/>
<path style="fill:#fdfdfd; stroke:none;" d="M299 539L299 540L302 540L299 539M1575 541L1576 542L1575 541M1543 569L1544 570L1543 569M330 597L330 601L333 597L330 597M336.333 598.667L336.667 599.333L336.333 598.667M317.667 623.333L318.333 623.667L317.667 623.333z"/>
<path style="fill:#040404; stroke:none;" d="M294.667 625.333L295.333 625.667L294.667 625.333z"/>
<path style="fill:#fdfdfd; stroke:none;" d="M314.667 639.333L315.333 639.667L314.667 639.333z"/>
<path style="fill:#040404; stroke:none;" d="M308 643L310 645L308 643z"/>
<path style="fill:#fdfdfd; stroke:none;" d="M321 647L322 648L321 647M306.667 659.333L307.333 659.667L306.667 659.333M1506 687L1507 688L1506 687M1499 695L1499 696L1505 696L1499 695M1511.67 695.333L1512.33 695.667L1511.67 695.333M240.667 707.333L241.333 707.667L240.667 707.333M240 719L241 720L240 719M300 721L312 732L312 728C318.005 732.619 321.484 733.395 329 732C319.7 723.543 312.238 721 300 721M1488.67 723.333L1489.33 723.667L1488.67 723.333M222.667 727.333L223.333 727.667L222.667 727.333M332 731L333 732L332 731M1486 735L1486 738L1487 738L1488 735L1486 735M248.333 737.667L248.667 738.333L248.333 737.667M1488 737L1488 740L1491 740L1491 737L1488 737M1442 747L1443 748L1442 747z"/>
<path style="fill:#040404; stroke:none;" d="M243.667 749.333L244.333 749.667L243.667 749.333z"/>
<path style="fill:#fdfdfd; stroke:none;" d="M250 749L250 752L251 752L250 749z"/>
<path style="fill:#040404; stroke:none;" d="M245 755L246 756L245 755z"/>
<path style="fill:#fdfdfd; stroke:none;" d="M1415 755L1416 756L1415 755M1416 757L1417 761L1418 761L1416 757M1419 762L1418 763C1421.35 768.125 1425.07 774.778 1431 777L1419 762z"/>
<path style="fill:#040404; stroke:none;" d="M1466.33 762.667L1466.67 763.333L1466.33 762.667M239 787L240 788L239 787M250 790L251 791L250 790z"/>
<path style="fill:#fdfdfd; stroke:none;" d="M268.667 791.333L269.333 791.667L268.667 791.333z"/>
<path style="fill:#040404; stroke:none;" d="M270 807L271 808L270 807z"/>
<path style="fill:#fdfdfd; stroke:none;" d="M1487.33 808.667L1487.67 809.333L1487.33 808.667z"/>
<path style="fill:#040404; stroke:none;" d="M279 822L277 823L277 824L279 822M275 823L276 824L275 823z"/>
<path style="fill:#fdfdfd; stroke:none;" d="M340 859L341 860L340 859z"/>
<path style="fill:#040404; stroke:none;" d="M296 868L288 873L287 874L287 876L288 877L290 877L291 874L293 876L296 868z"/>
<path style="fill:#fdfdfd; stroke:none;" d="M340 871L342 874L340 871M598 871L599 872L598 871M1444 875L1446 877L1444 875M298 883L298 884L301 884L298 883M1435.33 883.667L1435.67 884.333L1435.33 883.667z"/>
<path style="fill:#040404; stroke:none;" d="M308 884L309 885L308 884z"/>
<path style="fill:#fdfdfd; stroke:none;" d="M593 887L594 888L593 887z"/>
<path style="fill:#040404; stroke:none;" d="M610 892L613 889L610 892z"/>
<path style="fill:#fdfdfd; stroke:none;" d="M1417.67 899.333L1418.33 899.667L1417.67 899.333M589 909L588 912L589 909M385 915L385 917L387 915L385 915M1394 915L1394 917L1396 917L1396 915L1394 915M354.667 919.333L355.333 919.667L354.667 919.333M792 924L796 926L796 921L792 924M384 922L385 923L384 922M760 943L781 932L780 925C774.251 927.436 758.597 936.701 760 943M1379 933L1381 936L1379 933M565 935L566 936L565 935M573 935L574 936L573 935M1377 939L1378 940L1377 939M1291.67 943.333L1292.33 943.667L1291.67 943.333M1371 943L1372 944L1371 943z"/>
<path style="fill:#040404; stroke:none;" d="M1381 943L1382 944L1381 943z"/>
<path style="fill:#fdfdfd; stroke:none;" d="M576 947L577 948L576 947M1168 949L1170 952L1168 949z"/>
<path style="fill:#040404; stroke:none;" d="M367 954L368 957L367 954z"/>
<path style="fill:#fdfdfd; stroke:none;" d="M1242 954L1243 959L1244 959L1242 954M1049 955L1049 956L1054 956L1049 955z"/>
<path style="fill:#040404; stroke:none;" d="M1324 955L1326 957L1326 955L1324 955z"/>
<path style="fill:#fdfdfd; stroke:none;" d="M1220 959L1221 960L1220 959M388 961L389 962L388 961M1222 963L1222 964L1225 965L1222 963M1136 966L1136 968L1138 968L1136 966M1157 967L1157 970L1158 970L1159 967L1157 967M1168 967L1169 968L1168 967M1245 967L1246 968L1245 967M1144 972L1147 969L1144 972z"/>
<path style="fill:#040404; stroke:none;" d="M1250 969L1250 971L1252 969L1250 969z"/>
<path style="fill:#fdfdfd; stroke:none;" d="M1193 972L1195 976L1193 972z"/>
<path style="fill:#040404; stroke:none;" d="M1245 973L1246 974L1245 973M1268 974L1269 975L1268 974z"/>
<path style="fill:#fdfdfd; stroke:none;" d="M982.667 979.333L983.333 979.667L982.667 979.333M1150.67 979.333L1151.33 979.667L1150.67 979.333z"/>
<path style="fill:#040404; stroke:none;" d="M1177 981L1182 988L1180 981L1177 981z"/>
<path style="fill:#fdfdfd; stroke:none;" d="M487 983L488 984L487 983M988 983L989 984L988 983M1221 983L1225 988L1221 983z"/>
<path style="fill:#040404; stroke:none;" d="M545 985L546 986L545 985z"/>
<path style="fill:#fdfdfd; stroke:none;" d="M1207 994L1208 985C1204.02 987.197 1202.85 991.304 1207 994M1226 989L1227 995L1228 995L1226 989M971 991L972 992L971 991z"/>
<path style="fill:#040404; stroke:none;" d="M1152 993L1156 996L1155 992L1152 993z"/>
<path style="fill:#fdfdfd; stroke:none;" d="M419 995L420 996L419 995M976 995L978 997L978 995L976 995z"/>
<path style="fill:#040404; stroke:none;" d="M980.333 996.667L980.667 997.333L980.333 996.667z"/>
<path style="fill:#fdfdfd; stroke:none;" d="M1236 996L1234 1000L1236 996M934 997L934 1000L936 1000L936 997L934 997M406 1003L407 1004L406 1003M706 1005L707 1006L706 1005M927 1005L926 1008L927 1005M705 1007L706 1008L705 1007z"/>
<path style="fill:#040404; stroke:none;" d="M1164.67 1009.33L1165.33 1009.67L1164.67 1009.33z"/>
<path style="fill:#fdfdfd; stroke:none;" d="M695 1011L696 1012L695 1011M689 1016L693 1013L689 1016M919 1015L920 1016L919 1015M899 1019L899 1020L902 1020L899 1019z"/>
<path style="fill:#040404; stroke:none;" d="M952 1019L952 1022L954 1022L954 1019L952 1019z"/>
<path style="fill:#fdfdfd; stroke:none;" d="M720 1027L720 1029L722 1027L720 1027M881 1027L881 1028L884 1028L881 1027M1008 1027L1008 1029L1010 1027L1008 1027M783 1028C782.363 1031.33 782.706 1032.84 786 1034L783 1028M716 1032L717 1033L719 1030L716 1032M795 1031L790 1040L794 1040L797 1031L795 1031M889 1031L890 1032L889 1031M715 1033L713 1037L715 1033M760 1037C753.959 1041.96 750.408 1060.88 744 1059L736 1080L808 1080L805 1063L804 1063L803 1074L792 1072C795.677 1065.27 800.449 1052.6 792 1047L793 1052L792 1052L788 1048L785 1038C784.251 1044.81 788.953 1055.94 782 1060C781.954 1047.02 768.285 1051.06 769 1039C765.013 1039.85 766 1043.49 766 1047L760 1037M849.667 1039.33L850.333 1039.67L849.667 1039.33M1007 1040C1006.11 1044.32 1004.32 1046.11 1000 1047L1000 1048L1008 1048L1007 1040M861 1041L862 1045L865 1044L864 1041L861 1041M808 1043L810 1048L810 1043L808 1043M817 1044L816 1048L817 1044M1069 1051L1069 1045C1064.7 1046.42 1064.97 1049.38 1069 1051z"/>
<path style="fill:#040404; stroke:none;" d="M696 1049L696 1051L698 1049L696 1049z"/>
<path style="fill:#fdfdfd; stroke:none;" d="M812 1050L809 1080L822 1080L822 1072L816 1076C816.023 1067.58 818.383 1056.73 812 1050M864 1052L864 1056L865 1056L864 1052z"/>
<path style="fill:#040404; stroke:none;" d="M779 1053L778 1058L779 1058L779 1053z"/>
<path style="fill:#fdfdfd; stroke:none;" d="M722.667 1055.33L723.333 1055.67L722.667 1055.33M835.667 1055.33L836.333 1055.67L835.667 1055.33M1004 1055L1005 1056L1004 1055M1080 1055L1081 1056L1080 1055M1080 1060L1083 1060L1082 1058L1080 1060M799 1059L799 1062L800 1062L801 1059L799 1059M862 1059L863 1060L862 1059z"/>
<path style="fill:#040404; stroke:none;" d="M867 1068L868 1069L867 1068z"/>
<path style="fill:#fdfdfd; stroke:none;" d="M851 1071L852 1072L851 1071M836 1073L835 1076L836 1076L836 1073z"/>
<path style="fill:#040404; stroke:none;" d="M866 1073L865 1074L865 1075L865 1076L868 1073L866 1073z"/>
<path style="fill:#fdfdfd; stroke:none;" d="M829 1074L827 1080L834 1080L834 1077L829 1074M726.667 1075.33L727.333 1075.67L726.667 1075.33M727 1077L728 1078L727 1077M841 1080L845 1080L844 1077L841 1080M728.333 1078.67L728.667 1079.33L728.333 1078.67z"/>
</svg>
