<?xml version="1.0" standalone="yes"?>
<svg xmlns="http://www.w3.org/2000/svg" width="1920" height="1080">
<path style="fill:#fefefe; stroke:none;" d="M0 0L0 1080L1920 1080L1920 0L0 0z"/>
<path style="fill:#020202; stroke:none;" d="M629 157C626.105 159.042 622.057 159.663 619.701 162.395C612.982 170.186 610.001 186.09 610 196C595.283 183.182 594.81 214.779 595 224L594 224C592.023 220.94 590.096 221.12 588 224L587 224L582 218L582 224L581 224L578 214C576.314 223.921 574.324 229.263 566.35 234.338C564.563 235.476 563.219 238.807 560.877 238.794C556.858 238.771 555.054 231.874 550.318 233.662C546.831 234.979 548.516 240.384 549 243L544 237L536 235L531 235L533 237L531 252C526.231 251.445 518.071 251.744 514.419 255.444C511.316 258.59 512.053 262.516 508 265L510 272L505 276L503 276L492 269L488 271C485.924 276.57 489.699 279.219 492 284L486 279L485 279L485 288L481 287L486 300L481 304L462 298L465 304C461.597 304.729 462.013 306.806 462 310C451.746 301.165 446.159 297.395 433 296L433 303L428 305L431 312C421.289 310.386 423.21 322.663 424.721 329C425.631 332.819 432.45 343.267 431.654 345.867C430.255 350.44 421.552 349 418 349L418 354L402 355L407 364L401 365L418 388L414 389L420 395C413.139 401.358 421.299 411.8 428 415L429 432L406 425C404.635 434.225 412.97 439.591 418.907 445.286C424.306 450.464 428.452 456.77 434 461.91C441.194 468.574 450.826 473.193 452 484L451 484C445.252 470.433 427.629 470.774 418 461L417 461C415.287 469.464 412.416 467.807 405 470C404.928 472.279 403.712 475.589 405.07 477.633C408.706 483.105 414.155 477.938 411 488C406.181 484.67 399.589 485.711 394 487L402 495L402 496L396 495C398.517 505.875 401.953 510.537 412 515L408 517L409 520L395 525L399 530L397 536L417 541C414.061 557.078 431.935 552.946 443 555L454 562L464 563L469 581C463.043 579.263 459.789 582.967 457 588L456 585L442.671 596.553L433 598L434 604L430 602C427.434 610.463 421.627 604.655 415.999 603.728C407.6 602.344 395.91 598.709 388.473 605.085C384.987 608.073 387.787 614.163 387.891 618C388.008 622.266 385.431 625.068 384.429 629C383.439 632.886 384.757 637.098 383.682 640.937C382.158 646.38 377.261 642.001 374 641L367.951 657.001L369.921 665L367.149 677L373 688C357.486 685.174 368.507 697.329 362.307 703.088C359.076 706.089 349.899 703.493 346 703C345.981 708.294 345.502 710.906 341 714C344.586 722.25 357.436 732.574 345.906 740.215C339.587 744.403 332.612 740.888 328 748L335 751C335.609 754.985 338.597 758.04 338.95 762C339.672 770.104 332.188 776.28 344 779C344.608 786.626 353.577 785.002 355.566 792.04C356.924 796.848 353.236 802.303 355.408 806.787C357.04 810.156 361.703 812.519 364.161 815.44C367.718 819.665 368.731 825.281 372.309 829.776C374.377 832.374 377.852 833.242 379.543 836.144C383.88 843.584 384.763 855.693 391.105 861.71C395.951 866.308 414.973 889.527 422 879L424 879L427 888C435.219 886.723 442.082 878.528 447 889L463 895.123L486 896L495 882L496 882L500 886L501 883C503.899 884.02 505.308 884.228 506 881L515 890L521 883L534 888L534 879L538 880L540 875L542 875L545 881L546 881L552 880L553 875L556 874L557 874C565.543 878.105 562.43 861.777 563 858L567 856C571.378 855.789 588.08 843.215 589 839L602.174 852.972L618 852.295L632 856L635 841L648 834C645.813 827.577 634.073 812.829 645 812C644.338 805.739 644.196 800.21 648 795C644.95 792.605 643.098 790.358 647 788C646.41 780.193 646.329 767.151 655 764C653.598 758.634 656.236 751.968 660 748C655.219 737.053 654.065 727 655 715C649.176 712.707 645.224 707.742 653 705C656.106 717.924 668.914 719.703 679.999 723.764C683.571 725.072 689.453 729.566 687.445 734.211C685.254 739.28 676.918 737.833 674 744C678.492 744.003 686.071 743.291 689.639 746.599C692.687 749.426 689.597 753.52 690.901 756.942C692.521 761.192 696.537 760.25 699.473 762.629C701.471 764.248 699.829 766.654 700.703 768.677C702.262 772.291 708.619 767.781 711 767L711 776C721.068 773.846 723.014 784.502 732 785L730 793C731.976 793.608 734.917 793.771 736.597 795.024C741.968 799.029 732.145 806.46 735.782 811.775C739.325 816.951 745.975 815.673 750.985 817.603C756.405 819.691 759.419 826.645 760 832L753 827L754 832L748 834L751 842L765.054 849.524L784.412 847.812L789 857C792.79 855.535 797.967 849.808 801 854C811.097 851.215 812.853 858.177 818 866C825.008 865.336 826.954 869.911 831 875L838 873C838.607 879.209 835.166 883.175 834.018 889C833.183 893.234 835.369 903.671 841.83 900.863C848.777 897.845 852.233 887.85 859 884C858.499 886.025 855.441 891.256 857.661 892.867C861.858 895.913 866.496 887.143 870.826 888.344C883.787 891.938 889.286 914.68 903.532 899.576C905.437 897.556 906.765 895.459 908 893L918 898C920.935 890.369 929.576 878.728 938.999 880.498C952.989 883.126 967.581 906.377 978 883L981 883L983 888L984 888L995 876L997 876L1004 885L1010 877C1014.83 878.76 1021.15 880.145 1025.49 876.272C1029.44 872.752 1029.69 867.963 1036 867.253C1043.24 866.438 1053.28 875.728 1057 867L1059 872L1064 866C1068.01 867.57 1069.3 864.602 1073.09 865.015C1078.03 865.555 1081.47 871.141 1086.96 869.218C1095.56 866.2 1097.05 859.381 1108 860C1111.2 851.578 1116.67 853.898 1124 851.28C1132.12 848.38 1142.71 838.919 1143 830L1151 828L1144 820C1149.48 814.825 1155.55 817.921 1162 819.182C1172.3 821.196 1183.96 818.098 1189 830L1206 820L1208 825L1220 820C1222.06 826.192 1226.03 820.686 1229 818L1231 822C1236.27 818.03 1239.17 815.663 1245 820C1248.12 813.372 1253.81 814.735 1258 820L1278 816.941L1297 814L1307.21 800.147L1317 791L1327 787L1328 790L1346 786C1347.41 783.407 1351.08 782.295 1351.97 779.687C1353.79 774.348 1349.86 769.386 1356 766C1355.4 755.209 1358.16 755.962 1362.88 747.828C1365.01 744.149 1364.45 740.023 1368.22 737.29C1372.52 734.177 1381.14 733.591 1384.15 729.362C1386.99 725.369 1380.44 722.034 1380.92 718C1381.36 714.265 1385.78 711.105 1387.66 708C1390.33 703.577 1391.04 697.82 1393 693C1389.16 688.94 1388.67 683.804 1393 680C1389.71 669.771 1390.56 658.187 1388.34 647.985C1386.9 641.404 1381.62 637.267 1382.12 630C1382.51 624.276 1385 613.93 1391 612L1395 597L1413 604L1413 600L1416 600L1415 593L1418 595L1416 581L1422 585L1422 575L1426 571L1436.01 569.478L1453 578.973L1467.96 582.846L1489 598L1488 589C1489.8 588.871 1491.32 588.749 1493.02 588.117C1507.22 582.859 1492.85 575.484 1500 568L1489 549C1498.36 545.742 1495.69 539.471 1494 532L1498 532C1496.07 523.249 1502.64 521.222 1505.38 514.701C1507.49 509.681 1503.98 507.272 1509 503C1507.67 499.211 1506.14 496.112 1507.06 492.001C1508.28 486.544 1518.59 476.924 1507 476L1503 463L1509 460L1507 455L1503 456C1507.16 446.791 1511.69 445.73 1521 444L1521 443C1515.55 432.658 1517.38 424.119 1503 424L1510 405L1485 400L1485 394L1480 396L1483 389L1470 389C1469.61 384.826 1473.35 375.331 1471.84 372.514C1465.98 361.574 1443.41 376.005 1437 365L1450 363L1450 361L1446 358L1457 352L1457 351L1451 348L1451 340L1447 342C1445.04 335.964 1441.85 336.005 1436 336C1437.95 331.869 1436.11 320.287 1432 318C1433.24 314.14 1437.41 310.748 1437.93 306.914C1438.4 303.428 1435.42 301.775 1433.58 299.407C1427.44 291.489 1424.68 291.724 1414 292L1418 283C1413.67 280.64 1414.35 278.168 1416 274L1412 273L1406 278L1407 275C1398.24 272.366 1406.47 266.163 1408 261L1405 262L1405 259L1404 259L1398 263L1398 253C1395.61 251.334 1395.88 250.66 1397 248L1397 247C1391.13 242.348 1384.7 245.084 1379 249L1377 244C1356.59 248.242 1364.44 227.115 1367.06 216C1368.08 211.657 1366.39 208.357 1368.64 204.001C1370.66 200.064 1374.32 197.039 1375.99 192.961C1377.51 189.275 1377 184.899 1377 181L1369 182C1363.75 167.948 1355.01 175.054 1348 185L1347 185C1340.85 180.805 1335.06 190.735 1334 196L1325 189C1322.46 192.261 1319.04 196.328 1314.3 195.56C1310.41 194.93 1310.2 190.149 1306 193L1305 193L1302 188L1275 200C1272.88 195.609 1268.12 192.326 1267 199L1266 199L1264 197L1258 207L1259 210L1251 201L1250 201L1249 204L1246 205C1242.41 196.671 1239.77 193.247 1231 195L1223.19 206.001L1221.23 215.188L1207 214L1206 220L1202 219L1205 233C1199.64 237.613 1201.3 251.311 1200 258L1191 250L1190 250C1185.92 260.094 1196.1 276.995 1199 287L1198 287L1188 271L1187 271L1186 275C1181.96 272.176 1172.57 272.669 1179 277L1178 281L1169 277C1168.11 281.732 1168.58 289.753 1166.11 293.776C1164.28 296.771 1158.84 297.643 1159.75 302.018C1162.7 316.282 1176.99 319.812 1182.59 331.576C1185.71 338.15 1177.36 358.237 1171.66 362.308C1169.19 364.064 1164.92 363.516 1162 364L1164 359L1152 360C1155.76 348.566 1161.01 339.23 1146.91 331.144C1143.81 329.363 1135.85 331.74 1134.35 328.642C1132.18 324.141 1135.64 313.457 1135 308L1110.04 309.367L1098 308L1102 304C1097.79 296.404 1093.3 305.065 1087.51 303.779C1080.37 302.191 1084.09 290.595 1085 286C1071.03 280.884 1056.21 292.331 1042 292L1058 279L1050 280L1059.08 271.068L1051 258L1043 259L1044 255L1031 260C1035.83 246.337 1016.2 250.31 1009.17 254.674C1004 257.892 1003.6 264.643 999.62 268.851C996.991 271.63 994.504 271.721 991 271L976 279C975.214 274.458 972.352 273.367 968 274L952 265L951 265L948 268C945.246 263.106 932.581 260.346 927 261.603C923.713 262.343 920.733 265.396 917.144 264.164C914.263 263.174 913.267 259.444 912 257C898.469 258.674 903.876 267.867 897.397 275.687C893.405 280.505 888.689 280.365 886 287L884 287L882 283C875.505 289.417 870.529 294.205 870 304L852.228 296.801L847.972 306.772L838 310L835 299C828.991 297.083 828.215 301.783 822.996 303.343C814.224 305.966 806.976 298.677 802 293L798 300L797 300L798 295C788.419 289.357 792.536 284.064 793 275C786.066 279.171 782.462 291.844 779 299L778 299L778 289L774 294C759.995 286.484 768.035 279.643 772 268C767.362 267.339 765.453 269.777 764 274L763 274L764 265L751 280L751 274L748 275L747 263L744 264L743 261L739 262L740 252L728 249L724 259L723 255C716.987 258.81 714.204 265.432 712 272L710 272L708 261L694 274L694 271L693 271L692 271L690 276L684 275L684 268L679 272C678.109 267.649 676.538 265.854 672 266L673 255L671 252L667 254L666 225L660 227L657 214L656 214C656.75 204.501 668.395 176.234 656 172L654 161L652 161L650 165L648 163C642.36 165.783 642.017 170.195 642 176L640 176L637 165L634 166L629 157z"/>
<path style="fill:#fefefe; stroke:none;" d="M1260.33 208.667L1260.67 209.333L1260.33 208.667M655 214L655 218L656 218L655 214z"/>
<path style="fill:#020202; stroke:none;" d="M575.333 216.667L575.667 217.333L575.333 216.667M497.667 255.333L498.333 255.667L497.667 255.333z"/>
<path style="fill:#fefefe; stroke:none;" d="M1046.67 279.333L1047.33 279.667L1046.67 279.333M777 299L776 301L777 299M486.667 301.333L487.333 301.667L486.667 301.333M1172 375L1172 382L1179 380L1178 377L1175 378L1176 375L1172 375M430 426L430 428L432 428L430 426M1233 457C1224.09 462.789 1238.09 467.801 1233 457z"/>
<path style="fill:#020202; stroke:none;" d="M404.667 467.333L405.333 467.667L404.667 467.333z"/>
<path style="fill:#fefefe; stroke:none;" d="M417 468L422 472L417 468M1207 484L1208 477C1203.37 477.001 1185.66 477.004 1187.83 485.687C1188.59 488.702 1193.28 487.905 1194.21 491.148C1195.46 495.479 1187.61 503.794 1194.97 505.597C1205.47 508.171 1214.28 488.131 1207 484M1213 504L1214 504L1217 497L1213 504M1222 499L1222 508L1224 508L1222 499M400 505L403 504L400 505M1412 599L1413 600L1412 599M1386 603L1386 606L1387 606L1386 603z"/>
<path style="fill:#020202; stroke:none;" d="M1157 821L1157 824L1158 824L1157 821M595 849L596 850L595 849z"/>
</svg>
