<?xml version="1.0" standalone="yes"?>
<svg xmlns="http://www.w3.org/2000/svg" width="1920" height="1080">
<path style="fill:#fefefe; stroke:none;" d="M0 0L0 1080L1920 1080L1920 0L0 0z"/>
<path style="fill:#030303; stroke:none;" d="M633 49L623.415 55.615L617.378 72L610.005 116L607 129L608 132C599.94 136.398 598.507 145.883 597 154L590 153L593 170L592 170L587 164L585 167L586 164L586 163L580 157C578.79 159.548 575.755 162.215 575.465 165.05C575.166 167.973 578.031 169.467 578.558 172.085C580.041 179.462 570.195 175.453 567 175L564 179C565.757 185.731 562.779 207.804 556 193L555 193L555 200L551 188L550 188L549 198L548 198C547.459 193.202 545.785 190.753 541 193L534 171L532 171L530 184L528 184C525.084 174.07 519.444 172.673 510 175L512 197L505 191L503 191L501 204C491.399 203.845 499.809 222.432 491 220L490 220L493 237L483 227L481 246L471 241L464 253C459.558 252.999 457.254 254.741 456 259L441 244L447 259L441 260C433.375 252.505 423.351 248.327 420 237L416 239L414 235C410.36 236.524 409.309 238.079 409 242L397 258C396.431 250.785 387.289 247.704 381 246C378.291 252.435 388.582 271.136 378.877 273.409C375.953 274.094 372.537 270.627 369 271L368 278C370.908 284.924 375.412 295.017 382 299L382 306L385 305L375 305L375 312C365.239 314.661 365.585 321.619 374 326L373 330L367 326L365 332L364 332L359 329L359 332L349 329L339 337L348 349L340 349L339 355L335 355L336 362L355 371L355 372C345.992 372.701 337.556 386.493 340 395L343 394L344 400C352.822 402.686 337.055 416.785 338 424C341.45 423.988 344.996 424.223 347.701 421.683C349.929 419.592 350.795 415.224 354.444 415.218C359.348 415.211 365.428 419.042 370 420.691C389.248 427.633 404.656 438.637 420 452C412.357 452.578 408.411 445.581 402.985 441.184C396.795 436.169 388.915 433.066 381 433L387 439C383.592 444.226 381.032 445.449 383 452L378 451C378.645 456.069 378.747 461.542 385 461L378 472L376 469C377.11 465.941 377.569 463.765 374 463L376 468C369.586 468.001 361.422 467.147 356 471L356 472C357.931 476.961 348.64 478.381 345 479L363 496C357.834 497.076 356.687 500.043 356 505L365.434 514.382L377 517L358 524.387L334 530L334 532L355 543L356 551L328 541C329.901 549.312 337.303 552.163 339.998 559.103C341.992 564.236 336.866 568.173 332.005 567.096C329.981 566.647 327.989 565.61 326 565L332.001 572.931L356 594L354 600L357 599L357 604L351 610L364 622C358.24 619.43 349.681 610.517 345 619L334 614L336 624L326 621L339 640L334 641C331.442 636.403 326.069 633.51 324 640C334.556 645.64 330.343 651.376 328 660L337 665L335 664L335 665L339 672C332.913 673.93 324.135 672.902 322 680L325 681L325 684C313.385 683.501 300.441 679.633 293 692L317 699C314.175 704.148 310.603 704.949 305 705C307.311 712.79 315.688 714.844 323 715C316.223 726.665 330.855 729 339 729L338 735L322 735.945L300 729C301.458 744.384 281.221 731.064 274 729L278 755L278 756L293 763L293 764C287.138 764 267.876 765.653 276.614 776.636C281.578 782.875 290.009 784.448 297 787L297 788C282.759 796.737 308.721 812.575 318 811L314 817L332 819C326.966 822.69 321.89 836.045 322 842C317.586 844.365 316.05 847.188 315 852C320.234 855.058 317.118 861.394 320.618 863.647C324.353 866.052 341.423 857.011 344 854L350 857C346.381 862.084 347.07 878.938 350 884L361 876L362 873L359 892L362 892L362 886L363 886L370 913L371 913L372 909L373 909L374 911L374 912L373 920L375 920L381.368 910.996L381.233 902.429L387 897L388 897L394.41 914.015L390 930L394 927C399.96 930.746 403.631 921.526 409 928L414 927L414 946L419 944L420 951L424 951C424 954.676 430.315 970.661 432 963L436 965L441 959L445 970C452.196 967.837 453.681 961.991 454 955L455 955L456 982C462.049 978.865 473.111 973.589 477.853 968.802C482.249 964.365 480.986 954.839 490 958L490 954L491 954L495 962L499 959L500 959L507 960C506.125 952.546 511.2 943.811 517 939L522 948L526 949L527 944L540 956C538.91 943.498 531.779 933.581 531.35 921.17C531.173 916.079 529.963 910.614 534 907C534.552 919.865 539.587 930.012 546 941L548 941L549 940L547 934C551.253 930.564 550.986 923.088 551 918C554.492 919.057 555.432 920.418 556 924C561.418 923.052 559.931 918.501 560 914L567 916L572 922L572 916L573 916L577 921L578 920L579 908L580 908L582 912L583 912C583.948 904.496 585.031 897.154 582 890C593.451 897.959 584.36 880.733 582 877L588 877L586 867L592 871L593 871L595 867C600.578 869.272 607.886 876.454 612 869C621.731 872.746 625.22 883.725 631.472 890.889C633.447 893.152 634.477 892.379 635 890L636 890C640.839 910.207 661.123 914.867 673.972 928C676.748 930.838 688.369 940.61 690 933L712 936L712 932L717 929L727 932C730.985 921.063 721.192 919.886 721.207 911.043C721.213 907.666 734.912 896.421 738 894C740.378 899.859 743.354 899.877 748 896L749 908L739 920C746.267 918.964 760.578 912.578 765.214 906.891C770.537 900.364 772.309 892.496 779 887C779.378 904.649 793.578 891.563 804 896L802 910L804 910L804 906C812.4 911.247 804.852 915.329 799 919C802.51 929.278 789.879 933.72 784 940L795 940L795 946L798 944C800.689 959.16 784.687 970.015 774.714 979.561C770.496 983.599 764.39 986.506 765 993L774 990L773 996L774 996L774 992L780 995C783.843 988.426 789.458 987.071 796 984C796.088 991.226 790.366 999.093 801 1000C804.636 993.025 813.631 990.595 820 987L815 1004C829.327 999.076 831.058 986.245 840 977L835.66 1003L840 1022L846 1012L848 1012L852 1020L864.17 1009.73L874 1006L874 1005L872 1003C880.999 1003.76 886.698 988.502 891 982L895 999C905.304 998.844 907.166 999.677 915 993L915 997C924.973 994.266 925.349 991.195 933 985L934 988L936 988L938 967L946 976L944 960L949 963L952 956L953 972L957 970L957 980C964.909 977.229 968.546 951.801 970 944L978.247 957.683L990 964L991 959L992 959L993 964L996 963L1004 985L1006 985L1006 973L1008 973C1008.96 985.013 1013.18 990.181 1019 1000L1026 991L1030 994C1034.64 993.853 1036.52 995.702 1038 1000L1050 1000C1049.53 994.026 1050.54 987.875 1049.7 982C1048.44 973.157 1040.79 958.793 1049 952L1046 945L1059 935L1058 943C1067.55 943.903 1078.23 954.22 1089 950L1092 960C1097.25 958.256 1095.36 953.526 1095 949L1096 949C1097.37 953.598 1099.27 956.639 1104 958C1105.23 952.634 1103.73 949.606 1101 945L1108 943L1108 956C1116.55 957.1 1119.59 953.905 1123 946L1125 946L1127 950L1128 950C1128 946.843 1127.41 943.062 1128.36 940.019C1129.8 935.46 1133.22 935.97 1137 934.841C1140.02 933.938 1143.25 930.686 1146.58 931.542C1154.82 933.665 1165.18 943.402 1174 940L1174 939C1170.37 935.797 1169.26 933.827 1170 929L1171 929L1180 939L1185 939L1182 931L1182 930L1182 929L1184 927L1173 915.609L1156 912C1162.63 903.44 1183.27 892.66 1193 900L1195 895L1197 895C1200.87 904.323 1209.75 913.877 1219 918L1214 904C1223.93 905.648 1223.71 902.466 1230 896C1230.2 902.314 1236.1 916.953 1241 905C1249.67 907.887 1260.18 892.614 1263 885L1270 888L1271 877L1272 877L1275 886L1285 875L1290 884L1298 876L1301 878L1303 870L1310 880L1311 880L1313 867L1314 867C1314.9 873.002 1317.22 879.129 1322 883L1324 879L1326 884L1327 877L1328 877C1328.65 879.731 1332.48 894.713 1335 891L1340 898L1346 899C1350.84 893.126 1355.32 898.467 1358 904C1363.13 902.288 1367.24 885.59 1368 880L1369 880L1378 888L1377 881L1380 880L1371 857C1376.67 860.887 1383.49 856.952 1390 856L1389 845L1396 849L1396 843L1412 856L1420 852L1417 845C1429.91 844.847 1421.76 836.444 1420.15 829.089C1419.07 824.144 1419.38 818.089 1419 813L1425 815C1429.4 803.85 1419.56 799.618 1419 789C1423.62 792.311 1429.45 798.131 1435 794L1436 794L1440 796L1440 795C1419.99 775.613 1415.05 749.599 1401 727C1414.35 733.53 1411.86 756.108 1426 763L1423 746L1424 746C1425.15 750.885 1427.62 754.512 1432 757L1433 753L1437 754C1438.67 748.786 1439.53 742.418 1446 742L1444 739C1453.8 744.833 1455.26 747.326 1465 740L1463 737L1458 736C1467.32 725.853 1463.95 717.405 1462 705L1490 704C1488.15 698.611 1481.17 697.658 1479.89 692.934C1478.33 687.179 1490.15 684.321 1491.18 678.842C1492.22 673.298 1484.5 673.038 1481 672.406C1475.77 671.461 1473.63 667.536 1468.99 665.743C1465.28 664.312 1460.89 665.111 1457 664L1457 663L1470 660L1465 653L1468 652L1450 633C1453.71 631.975 1455.18 630.805 1456 627L1442 628L1442 617L1433 618C1436.58 613.286 1445.28 611.835 1443 605L1462 598L1458 596L1460 590L1474 606C1475.51 619.615 1490.02 624.373 1498.83 632.274C1502.96 635.977 1505.89 641.258 1511 643.821C1514.58 645.618 1519.17 645.604 1523 647L1521 643L1543 651L1543 645C1553.69 648.25 1560.42 642.339 1553.2 632C1543.51 618.124 1535.63 607.487 1529.01 592.039C1526.4 585.964 1520.16 578.377 1527 573L1527.18 561.196L1520 547L1543 544L1542 540L1553 536L1545 528L1545 526L1549 524L1549 523C1545.71 517.824 1544.1 510.37 1538 508C1541.49 500.659 1538.98 494.953 1536 488C1542.59 484.865 1538.79 481.582 1540.78 476.054C1541.84 473.128 1545.02 471.266 1547 469L1541 468L1541 467L1554 461.186L1565.99 458.386L1568.02 445.688L1578 442C1575.99 435.475 1569.22 436.491 1566.01 431.664C1563.93 428.551 1569.23 426.435 1567.82 423.093C1565.36 417.249 1553.25 417.389 1548 416C1552.8 409.461 1553.67 402.115 1544 402L1554 381C1546.73 379.852 1551.08 375.448 1547.24 371.644C1543.08 367.523 1532.37 373.239 1529 376L1531 372L1530 358L1517 360L1518 345L1516 345C1511.66 355.554 1497.01 361.497 1486 362L1488 356L1482 353L1487 352C1484.47 347.556 1481.45 343.539 1476 344L1481.96 331.964L1485 319L1472 320C1472.81 314.423 1479.03 310.837 1479.53 305.936C1479.91 302.299 1475.82 300.792 1473.8 298.531C1467.3 291.251 1461.97 288.551 1452 291C1457.97 276.435 1448.1 273.056 1436 272L1443 261L1439 261L1445 252L1445 251C1436.3 251.764 1430.63 256.886 1424 262L1433 247L1420.09 250.801L1411 246C1413.61 241.106 1412.82 237.635 1410 233L1402 236L1402 232C1393.88 233.976 1383.53 230.549 1379 239L1377 236L1372 237L1369 232C1372.28 225.419 1368.14 218.966 1371.9 212.184C1374.2 208.022 1379.03 206.361 1381.79 202.624C1393.08 187.315 1401.56 166.755 1402 148L1399 149L1401.05 132.299L1394 121C1380 122.076 1371.26 143.152 1362.33 152.867C1358.66 156.871 1354.38 157.742 1352 163L1348 162L1346 168L1344 168C1341.56 159.198 1336.78 168.44 1330 166L1324 176L1319 174L1320 169C1313.26 168.257 1314.6 162.16 1315 157L1310 160C1309.1 148.37 1301.65 155.557 1299 162L1296 159L1295 159L1285 171L1281 169L1280 177L1279 177L1278 171L1276 171C1271.75 178.838 1263.15 176.839 1255 179L1253 169L1252 169L1252 177C1242.81 172.621 1242.07 148.759 1230 165L1229 165L1223 156C1218.53 158.462 1217.98 164.243 1217 169L1210 165L1208 184C1202.43 183.076 1196.58 185.721 1198 192L1189 192L1179 189L1180 196L1171 198L1177 211L1166.47 214.318L1161 224L1163 219L1151 226L1150 226L1148 228L1146 221L1141 228L1140 228L1143 215C1137.61 217.976 1131.22 225.973 1130 232L1125 232L1134 211L1133 210C1126.36 212.196 1120.32 213.082 1117 220L1114 219L1109 225L1106 199L1101 203L1100 199L1091 208L1092 193L1090 193L1088 208L1084 208L1087 196L1087 195L1083 193L1081 204L1080 204L1080 197L1079 197C1074.33 206.535 1073.76 214.712 1065 222L1071.83 203L1077 175C1071.94 178.073 1068.53 187.201 1069 193L1058 198C1060.12 180.69 1065.34 170.389 1058 153L1057 153L1049 170L1048 170L1059 137L1055 133L1050 136L1052.79 122.274L1045 114C1040.7 116.147 1039.25 119.486 1038 124L1036 124L1032 120L1034 97L1030 90L1024 91C1019.44 97.994 1015.14 110.723 1006 112L1006 108C1001.51 110.473 1001.38 115.222 1001 120L998 108L997 108L993 128L992 128L992 95C980.569 100.11 980.001 112.896 980 124L978 124L980 101L969 114L973 118C968.262 128.136 965.459 137.911 964.185 149C963.547 154.555 966.397 159.678 962 164C964.495 148.877 962.785 132.384 944 137C942.592 133.777 935.039 120.393 929.833 125.661C927.557 127.964 929.775 132.223 929.432 134.996C928.834 139.825 925.166 142.819 925 148L919 131L917 131C913.924 136.49 914.216 142.873 907 144C916.079 130.245 905.475 114.261 899 102L891 106L888 95C883.361 101.752 885.562 111.278 885 119L884 119C881.782 110.958 875.105 106.073 867 106L869 116L868 116L862 107C858.117 116.203 861.303 126.29 865 135L860 129L856 130C858.315 138.749 857.373 141.558 850 147L850 148L851 152L847 149L848 164L846 164C845.785 153.643 839.575 145.15 829 143L829 144L831 144L831 145L822 139C822.615 148.67 827.037 162.736 823 172L819 167L821.245 182.004L820 197L819 197C816.518 187.431 814.953 163.703 802 165L797 161L794 164L794 160L792 160C794.715 181.785 796.204 199.866 794 222L784 232L781 220L768 238L765 222L763 222L760 231L759 231L760 221L749.21 221.335L743 226L743 230L737 231L736 220L734 220L732 230L724 229C725.688 219.478 721.42 215.844 716 209L709 209L705 217L697 203C695.774 208.074 697.542 222.087 703 224L699 232L696 219L688 234C685.266 229.203 682.348 232.218 679 235C676.577 228.747 672.822 232.423 671 237L669 237L668 236L672 221C667.862 220.459 669.075 216.082 670.194 213C672.795 205.843 680.281 197.878 678.694 190C677.026 181.716 680.644 174.334 680.972 166C681.371 155.869 677.532 146.097 677.111 136C676.703 126.216 680.45 114.628 676.5 105.083C675.203 101.95 671.787 100.362 670.389 97C668.718 92.9829 667.907 88.2278 665 85L664 96C655.572 87.5552 660.246 62.5223 648 59L645 68L639 56L638 56L638 61L637 61L633 49M1031 87L1032 88L1031 87z"/>
<path style="fill:#fefefe; stroke:none;" d="M867 116L868 117L867 116z"/>
<path style="fill:#030303; stroke:none;" d="M949 131L950 132L949 131z"/>
<path style="fill:#fefefe; stroke:none;" d="M607 141L607 144L608 144L607 141M919 147L920 148L919 147M829 151L829 156L831 151L829 151M597 154L598 155L597 154z"/>
<path style="fill:#030303; stroke:none;" d="M798 155L800 157L800 155L798 155z"/>
<path style="fill:#fefefe; stroke:none;" d="M1059 169L1060 170L1059 169M802 171L803 172L802 171M1208 185L1209 186L1208 185M1259 189L1260 190L1259 189M1053.33 202.667L1053.67 203.333L1053.33 202.667M1100 205L1101 206L1100 205M1086.33 214.667L1086.67 215.333L1086.33 214.667M1064.33 222.667L1064.67 223.333L1064.33 222.667M1135 233L1134 242L1137 233L1135 233M493 237L494 238L493 237M1411 237L1412 238L1411 237z"/>
<path style="fill:#030303; stroke:none;" d="M438.667 243.333L439.333 243.667L438.667 243.333z"/>
<path style="fill:#fefefe; stroke:none;" d="M1422 260L1418 263L1418 264C1420.72 263.536 1422.45 262.975 1422 260M460 261L461 262L460 261M784 265L779 272C783.904 271.612 784.476 269.281 786 265L784 265M466 267L473 276L466 267M1410.67 267.333L1411.33 267.667L1410.67 267.333M384 273L385 274L384 273M382 276L383 277L382 276M372 279L373 280L372 279z"/>
<path style="fill:#030303; stroke:none;" d="M372 303L372 306L373 306L372 303M344.667 331.333L345.333 331.667L344.667 331.333z"/>
<path style="fill:#fefefe; stroke:none;" d="M1472 363L1472 364L1486 363L1472 363M1468 363L1469 364L1468 363M1528 368L1529 369L1528 368M340 391L341 392L340 391M353 403L354 404L353 403z"/>
<path style="fill:#030303; stroke:none;" d="M1571 423L1572 424L1571 423z"/>
<path style="fill:#fefefe; stroke:none;" d="M387 442L389 445L389 442L387 442M421 453L422 454L421 453M421 455L421 456L432 464L421 455M441 471L442 472L441 471M1527 471L1528 472L1527 471z"/>
<path style="fill:#030303; stroke:none;" d="M1551 471L1552 472L1551 471z"/>
<path style="fill:#fefefe; stroke:none;" d="M359 475L360 476L359 475M360 543L360 544C364.302 543.859 366.462 543.182 368 539L360 543z"/>
<path style="fill:#030303; stroke:none;" d="M1528 572L1530 576L1528 572z"/>
<path style="fill:#fefefe; stroke:none;" d="M1454 585L1454 588L1455 588L1454 585M1456 591L1457 592L1456 591M1528.67 599.333L1529.33 599.667L1528.67 599.333M1435.67 607.333L1436.33 607.667L1435.67 607.333M348 617L351 620L348 617M365 621L366 622L365 621M367 623L368 624L367 623z"/>
<path style="fill:#030303; stroke:none;" d="M291 689L290 692L291 689z"/>
<path style="fill:#fefefe; stroke:none;" d="M1460.67 719.333L1461.33 719.667L1460.67 719.333M324.333 720.667L324.667 721.333L324.333 720.667M1399 723L1400 724L1399 723M280 741L282 744L280 741M1434 793L1435 794L1434 793M296 799L297 800L296 799M314 807L315 808L314 807M1416.67 819.333L1417.33 819.667L1416.67 819.333M691 824L690 828L691 824M695 827L693 858L690 858L701 878L701 879L698 880L707 889L718 872L714 868L717 861L710 866C709.349 862.979 708.086 862.914 706 865L705 865C697.461 854.378 710.772 842.067 708 830L697 832L698 827L695 827M1368 854L1371 857L1368 854z"/>
<path style="fill:#030303; stroke:none;" d="M703 864L704 865L703 864z"/>
<path style="fill:#fefefe; stroke:none;" d="M1297 875L1298 876L1297 875M1325 875L1326 876L1325 875M1366.67 879.333L1367.33 879.667L1366.67 879.333M1375 879L1376 880L1375 879M1217.33 887.667L1217.67 888.333L1217.33 887.667M390 895L390 898L392 898L392 895L390 895M1220 897L1222 900L1222 897L1220 897M578 903L579 907L580 907L578 903M1212 903L1213 904L1212 903M394 907L395 908L394 907M527 919L528 920L527 919M416 925L420 928L416 925M688 931L689 932L688 931M1062 932L1063 936L1064 936L1066 931L1062 932M1089 931L1091 934L1089 931M1167 932L1166 934L1168 934L1167 932M1103 936L1101 940C1103.65 939.432 1104.35 938.412 1103 936M969 939L970 940L969 939M798 943L799 944L798 943M507 947L508 948L507 947M455.333 949.667L455.667 950.333L455.333 949.667M455 952L456 953L455 952M1021.67 971.333L1022.33 971.667L1021.67 971.333M843 977L842 980L843 977M802 983L803 984L802 983M774.667 987.333L775.333 987.667L774.667 987.333M799 995L800 996L799 995z"/>
</svg>
