<?xml version="1.0" standalone="yes"?>
<svg xmlns="http://www.w3.org/2000/svg" width="1920" height="1080">
<path style="fill:#fefefe; stroke:none;" d="M0 0L0 1080L1920 1080L1920 0L0 0z"/>
<path style="fill:#030303; stroke:none;" d="M648 181L639 196C636.452 190.809 632.392 185.001 629 193L628 193L626 185L625 185L624 187L623 187L622 183C614.338 187.518 612.472 199.315 609 207L604 203L602 203L596 236L594 236L593 233L580 234L579 230L578 230C575.749 236.176 577.96 245.344 572 249L567 243L561 252L556 245C554.54 249.478 552.614 257.802 547 253L544 254L542 250L541 250L536 253L536 264C526.819 262.922 521.254 260.147 521 272L508 278.092L495 278L492 288L499 291L499 292C491.115 294.914 495.083 296.636 491.732 302.687C490.128 305.583 487.135 305.558 486 309C473.663 307.67 472.939 308.04 479 320C473.667 319.939 468.939 318.618 466 324C460.194 318.54 454.762 310.249 446 311L447 316C440.132 317.146 434.042 333.807 436.487 340C437.69 343.049 443.649 348.27 442.539 351.593C441.15 355.747 431.471 352.432 430 359C405.297 354.689 431.92 388.805 437 396L432 399L432 400L438 408L428 407L443 424C439.502 425.928 439.125 428.122 439 432L419 435C421.988 456.638 450.127 463.771 453 485C443.893 479.871 439.231 472.514 428 471L435 485C431.814 482.297 424.151 473.167 420 477L414 475L417 487L409 493L409 494L416 500C402.273 503.809 418.736 511.499 423 516L412 517L425 544C434.06 546.158 444.564 544.038 453.13 547.072C457.466 548.608 465.986 556.932 469.741 560.22C472.499 562.635 478.374 566.283 479.056 570.015C480.198 576.263 470.466 585.672 482 587L473.491 602.346L465 602.857L448 609C447.659 613.479 446.266 615.501 442 617L442 621L439 619C433.587 628.648 424.345 617.407 420 624C412.553 621.759 402.288 624.153 402 633C393.171 633.686 394.395 641.537 392.326 647.961C389.258 657.49 386.682 665.088 385.093 674.911C384.517 678.476 380.264 680.007 380.377 683.964C380.485 687.779 383.969 689.685 387 691L387 692L378 693C377.321 700.825 369.036 711.028 361 711C363.166 720.849 356.234 731.882 353.015 741C351.155 746.271 349.711 751.563 355 755L358 776L367.706 793.819L381.956 811.089L387.019 824.892L398.106 834.174L402.569 845.91L436 868L475.015 871.499L500 865.414L515.089 871.697L529.942 868.532L536.259 862.323L544 864L558 846C567.497 844.613 566.689 836.66 573.017 832.421C583.923 825.114 592.931 831.28 604 834L611 813C622.62 815.831 622.039 804.707 620 797C627.144 794.65 628.366 777.411 624 772L624 771C627.385 767.108 627.146 762.826 626 758C632.173 754.537 630.721 749.162 632.491 743.17C633.946 738.244 637.31 730.107 636.458 725C635.59 719.79 630.339 714.134 628.309 709C625.75 702.53 626.184 696.623 625.336 690C624.657 684.694 621.754 681.551 626 677L627 682L629 682L631 677C638.121 688.328 641.171 661.153 642 655L648 655C648.312 660.688 653.45 670.07 659 672L662 657L663 657L671 673C664.671 684.513 675.656 681.838 682 688C670.846 693.981 683.088 703.994 689.274 709.427C693.337 712.997 699.475 712.029 703.837 714.985C707.932 717.759 704.818 723.144 708.434 726.238C719.451 735.662 729.855 735.374 733 752C727.087 755.487 728.571 764.046 728 770C736.77 774.926 745.063 786.157 747.582 796.039C748.435 799.385 747.065 803.552 748.603 806.682C750.079 809.682 754.091 808.443 756.262 810.603C759.643 813.967 760.596 818.491 764.715 821.776C773.958 829.147 786.808 834.906 798 838.804C801.909 840.165 806.206 839.595 809.996 841.423C814.646 843.665 816.79 848.641 821.015 851.397C826.096 854.713 831.505 854.135 836 859L841 853L843 853L855 863C860.879 861.697 867.799 862.946 871 857C874.117 859.426 877.698 865.959 881 861L888 867C891.857 866.112 894.686 864.873 896 861C902.685 861 909.077 859.814 910 868C915.54 867.048 916.805 861.616 919 857L920 857C925.889 864.07 930.815 858.47 938 858.819C941.665 858.998 944.227 862.695 948 862.339C955.923 861.59 962.242 852.935 969.039 850.202C972.715 848.724 975.475 852.087 979 851.856C983.346 851.571 988.403 846.305 992 844L998 850L999 845C1007.99 851.961 1021.43 849.272 1030.96 842.48C1034.56 839.913 1036.74 835.738 1041.02 834.213C1050.6 830.792 1058.21 835.595 1068 834.321C1074.13 833.523 1081.44 828.284 1086.96 825.508C1094.96 821.482 1107.34 811.398 1104 802C1112.64 799.223 1123.89 794.617 1128 786C1139.31 788.569 1134.44 777.364 1130 772L1130 771C1135.36 768.942 1142.34 768.088 1145.7 762.87C1150.93 754.741 1146.2 739.838 1161 740L1160 737L1164 736L1167 744L1166 741L1173 746L1176 748L1179 746C1181.51 749.673 1183.4 752.058 1188 751L1189 752L1190 756L1189 760L1193 758L1196 766L1197 766L1199 762L1199 771L1204 767L1204 771L1207 768L1208 768L1208 772L1211 769L1214 771L1214 766C1216.44 767.494 1218.5 770.116 1219 766L1220 766L1220 768L1221 768L1221 765L1222 765L1222 768C1225.83 767.696 1227.17 766.795 1228 763L1232 767C1236.15 764.018 1238.09 762.973 1243 765L1245 761L1248 765L1250 761L1250 764L1258 759L1256 766L1263 761L1264 761L1265 763L1277 757C1277.66 760.15 1279.34 760.15 1280 757C1285.49 757.532 1287.35 752.872 1288 748L1289 748L1290 750L1294 744L1295 744L1295 748L1301 740L1306 742L1306 737L1307 737L1308 740L1311 740L1316 725L1319 726L1324 709L1328 713L1328 702L1328 701L1328 700L1330 694L1332 694L1332 698L1337 693L1333 691L1340 679L1341 668L1338 668L1336 661L1340 660L1340 658C1336.58 654.982 1336.06 652.407 1337 648L1341 654L1342 654L1341 646C1335.31 645.891 1336.46 641.403 1337 637L1338 637L1339 641L1340 641L1335 626C1339.51 626 1338.12 616.635 1335 615L1335 614L1337 611L1339 612L1340 607L1341 607L1342 610L1357 597L1358 600L1365 595L1371 603L1372 603L1373 597L1375 599L1376 599L1389 600L1389 595L1394 591L1396 591L1398 596L1404 596L1405 596L1412 592C1415.03 578.402 1423.13 561.408 1440 566L1439 563C1446.39 570.365 1447.85 572.674 1458 576L1463 571C1465.42 578.112 1470.58 580.206 1477 583C1476.15 574.909 1484.52 566.153 1491 562C1488.69 554.139 1477.32 542.758 1490 540C1481.17 520.202 1499.29 499.912 1504 481C1493.45 475.46 1500.98 469.709 1499.18 461C1498.39 457.152 1494.05 451.948 1495.3 448.04C1496.25 445.091 1499.53 443.434 1502 442L1495.89 423.961L1495.22 409.322L1485 407.427L1469 400C1472.51 391.462 1466.59 392.238 1460 392C1460.34 387.39 1464.48 383.544 1463.59 378.99C1461.62 368.943 1449.75 373.647 1443 371.798C1437.86 370.389 1434.81 365.118 1432 361L1441 364L1446 351L1441 350L1442 346C1436.65 344.553 1429.76 346.377 1430 339L1424 340C1422 332.572 1429.96 324.272 1423 320L1429 304C1420.75 299.968 1420.25 295.219 1410 296C1410.97 290.648 1411.27 286.893 1406 284L1408 279L1402 280C1400.35 273.825 1399.62 271.929 1403 266C1392.53 262.809 1393.55 259.332 1392 249L1385 250L1384 250L1374 252L1376 247L1363 246L1364 243C1356.04 238.948 1361.17 230.328 1363.17 224C1364.59 219.511 1361.53 215.45 1362.54 211C1364.38 202.89 1371.68 199.149 1369 190L1362 193L1357 184L1343 192L1342 189L1340 189L1330 203C1326.6 196.884 1321.16 196.453 1318 203L1316 203L1315 200L1310 202L1309 199L1303 202C1298.87 193.816 1286.32 200.87 1279 201.452C1276.02 201.69 1272.08 199.38 1269.36 201.069C1267.22 202.396 1267.77 204.937 1268 207L1264 207C1260.94 212.649 1257.15 210.185 1252 209L1252 216C1247.19 213.296 1243.9 207.162 1239.72 205.137C1229.88 200.363 1226.5 217.957 1225 223L1224 223C1208.15 211.072 1210.53 239.663 1210 248L1206 246C1204.19 255.316 1208.06 260.522 1195 258C1190.44 267.902 1199.39 278.777 1199 289L1190 278L1190 286L1189 286L1182 277L1172 289L1174 296C1167.18 298.507 1169.32 306.275 1171.34 311.985C1174.72 321.519 1189.07 324.086 1189.33 337C1189.5 345.907 1179.23 354.405 1181 364L1184 384L1191 388C1213.19 385.714 1220.01 411.242 1213 428L1219 428L1219 437C1228.88 437.777 1230.17 427.854 1241 433L1247 426L1247 436L1232 433C1231.98 437.82 1228.68 443.567 1229.71 448C1230.82 452.791 1239.3 458.625 1236.26 463.811C1232.27 470.629 1220.29 464.933 1217.16 471.314C1215 475.71 1221.66 480.82 1222.14 485.004C1222.6 489.059 1218.1 492.921 1216 496C1224.55 498.137 1226.49 500.823 1229 509C1233.61 507.571 1235.96 508.205 1239 512C1229.25 517.375 1243.82 536.55 1247 544C1252.06 544.934 1253.13 548.346 1252 553L1244 556L1246 550L1232 552L1231 552L1231 542L1229 542L1228 546L1225 542C1219.24 543.08 1212.08 546.531 1208 541L1200 546L1200 543L1197 544L1196 541L1195 541L1192 548L1191 548L1191 544L1178 548L1178 547C1184.35 543.756 1179.2 535.398 1180 529L1169.62 517.738L1163.02 513.686L1164.18 505L1167.03 479.21L1178.49 472.058L1188 456L1188 455L1180.91 447.693L1172.39 446.958L1165 438L1158.55 427.892L1159.26 415L1154 394C1151.08 392.897 1146.89 392.425 1144.99 389.697C1138.35 380.159 1146.4 369.197 1131 364L1138 352L1133 338C1123.67 334.929 1123.84 325.523 1120 317L1107 320.257L1090 317C1089.26 313.927 1089.36 308.218 1084.96 308.542C1082.75 308.704 1079.6 311.73 1077.51 310.122C1072.75 306.442 1078.96 297.269 1073.72 292.318C1067.42 286.361 1058.83 293.91 1052 294.437C1048.03 294.743 1043.92 292.579 1040 292L1040 288L1046 287L1048 271L1041 272L1042 267C1035.92 267.418 1028.25 270.936 1027 263C1017.36 265.393 1006.15 272.785 1002 282L987.015 282.894L979.196 289.481L969 288L967 282L953 277L951 283L949 283C945.251 274.578 937.936 273.644 931 279L930 287L922 282L919 291C911.33 290.879 909.991 304.103 908 310C901.262 308.456 897.271 313.55 898 320C883.242 318.35 865.916 319.029 854 328C854.745 335.813 848.974 338.245 845 344C842.602 338.581 845.246 329.046 839 328L839 319L831 321C827.858 317.476 816.036 311.763 811.174 313.618C806.987 315.215 803.889 320.516 800 323C799.308 319.772 797.899 319.98 795 321L798 307L789 308C788.823 304.564 787.277 304.259 784 304L787 290L772 306L773 297C768.194 297.059 765.151 295.976 764 291C760.069 286.413 764.776 282.086 766 277L758 282L757 279C747.691 286.11 747.59 283.989 743 275L741 276L740 276L740 266L734 268L735 260L730 268L729 268L729 259L720 268L720 263L706 280L706 269C698.924 272.302 697.408 278.864 689 277C685.192 280.735 683.201 278.396 682 274L678 276L677 273C668.28 274.959 670 264.89 670 259L667 263L666 263L665.566 241.043L660 232L657 232L657 226L654 228L653 228C652.366 219.96 659.385 192.877 651 190L650 181L648 181z"/>
<path style="fill:#fefefe; stroke:none;" d="M651 233L650 236L651 233M660 241L661 242L660 241M665 264L665 268L666 268L665 264M690 281L690 284L691 284L692 281L690 281M1036 285L1039 288L1036 285M503.667 295.333L504.333 295.667L503.667 295.333z"/>
<path style="fill:#030303; stroke:none;" d="M800.667 307.333L801.333 307.667L800.667 307.333z"/>
<path style="fill:#fefefe; stroke:none;" d="M1219 427L1220 428L1219 427z"/>
<path style="fill:#030303; stroke:none;" d="M1187.33 444.667L1187.67 445.333L1187.33 444.667z"/>
<path style="fill:#fefefe; stroke:none;" d="M420 477L421 478L420 477z"/>
<path style="fill:#030303; stroke:none;" d="M1210 481L1211 485L1214 481L1210 481z"/>
<path style="fill:#fefefe; stroke:none;" d="M435 485L436 486L435 485z"/>
<path style="fill:#030303; stroke:none;" d="M1192 539L1193 540L1192 539M1217.67 539.333L1218.33 539.667L1217.67 539.333M1214 541L1214 543L1216 541L1214 541z"/>
<path style="fill:#fefefe; stroke:none;" d="M1193 545L1195 547L1195 545L1193 545M1208.33 545.667L1208.67 546.333L1208.33 545.667M1228 546L1229 547L1228 546z"/>
<path style="fill:#030303; stroke:none;" d="M1234 546L1234 549L1236 549L1236 546L1234 546z"/>
<path style="fill:#fefefe; stroke:none;" d="M1255.67 551.333L1256.33 551.667L1255.67 551.333M1240 557L1241 558L1240 557M1333.67 615.333L1334.33 615.667L1333.67 615.333M1338 633L1339 634L1338 633z"/>
<path style="fill:#030303; stroke:none;" d="M1342 635L1343 636L1342 635M1343 637L1344 638L1343 637M1339 662L1341 666L1339 662z"/>
<path style="fill:#fefefe; stroke:none;" d="M1336 674L1336 676L1338 676L1338 674L1336 674z"/>
<path style="fill:#030303; stroke:none;" d="M1337.33 698.667L1337.67 699.333L1337.33 698.667M1332.33 701.667L1332.67 702.333L1332.33 701.667M1335 709L1336 710L1335 709z"/>
<path style="fill:#fefefe; stroke:none;" d="M1315 716L1314 720L1316 722L1320 717L1315 716M1312 726L1312 731L1313 731L1312 726z"/>
<path style="fill:#030303; stroke:none;" d="M1318 727L1319 728L1318 727z"/>
<path style="fill:#fefefe; stroke:none;" d="M1308 733L1309 734L1308 733M1155 735L1155 736L1160 736L1155 735M1308 735L1309 736L1308 735z"/>
<path style="fill:#030303; stroke:none;" d="M1307 741L1308 742L1307 741M1293 748L1292 752L1293 748z"/>
<path style="fill:#fefefe; stroke:none;" d="M1283 753L1281 757L1282 757L1283 753z"/>
<path style="fill:#030303; stroke:none;" d="M1186 758L1186 760L1188 760L1186 758M1282 759L1283 760L1282 759M1269 762L1269 765L1270 765L1269 762M1275.33 762.667L1275.67 763.333L1275.33 762.667M1244 766L1244 768L1246 766L1244 766M1256 767L1257 768L1256 767M1196 769L1190 774L1195 780L1196 769M1234 769L1234 772L1236 772L1236 769L1234 769z"/>
</svg>
