<?xml version="1.0" standalone="yes"?>
<svg xmlns="http://www.w3.org/2000/svg" width="1920" height="1080">
<path style="fill:#fefefe; stroke:none;" d="M0 0L0 1080L1920 1080L1920 0L0 0z"/>
<path style="fill:#030303; stroke:none;" d="M608 170L602 168L585 198L580 194L580 199L577 196C565.647 198.851 565.744 215.262 569 224L561 217L561 222L560 222L553 217L552 220L551 220C550.147 217.818 545.457 205.212 544 212L540 211L531 215C526.374 219.392 523.767 215.326 521 211L518 213L517 209L515 209L516 232L509 229L513 242L508 239L508 244L501 243C501.143 247.505 499.58 249.389 495 249L494 256L499 262L496 265L495 265C491.668 258.906 483.091 252.879 476 254L476 256C479.903 259.816 477.009 263.321 476 268L481 277C474.607 283.125 469.628 274.204 464 271L470 292C464.319 287.596 460.263 280.932 454.626 276.747C451.025 274.073 448.407 276.122 449 280C441.498 280.158 434.603 279.358 430 273L427 274C424.948 270.343 423.167 269.073 419 270L420 274L406 272C405.134 280.166 408.472 285.042 412 292L410 290L409 290L408 290L397 293L396 294L411.264 317.169L407.565 327.596L411 337L398 335L397 342C393.526 342.577 392.577 343.526 392 347C386.95 344.58 383.788 344.612 380 349L379 349L374 346L376 350L369 347L377 360L371 358L385 376L380 375C381.73 381.431 384.403 393.4 392 393L388 397L407 418L410 420C403.331 418.655 392.942 407.762 387 416L385 413C380.303 420.876 390.43 425.318 395.7 429.505C410.59 441.334 424.083 455.069 438 468C422.468 468.552 415.803 448.388 400 447L410 464L396 454C394.735 457.336 389.921 462.279 393 465L393 466L390 473L396 473L396 476L391 474L392 478L375 476C373.812 481.795 377.932 483.079 379.272 488.05C381.547 496.492 376.128 498.469 387 503C385.61 507.63 386 511.394 391 513L392 518C385.01 519.517 371.841 523.838 368 530L373 531L372 534L376 535L375 540L380 541C377.354 547.099 375.237 549.799 379 556L394 550L395 550L404 551L404 552C400.679 553.099 400.263 554.59 400 558L409 554L411 565C414.873 567.968 417.342 572.342 422.039 574.147C429.188 576.893 441.876 569.3 439 582L422 584L421 587C416.171 584.038 406.804 578.883 404 586L394 586C391.882 578.536 384.971 575.022 378 573L376 580C371.828 577.952 359.574 578.126 362.161 586.015C363.778 590.946 370.271 594.422 370.573 599.911C370.858 605.099 363.47 608.99 365.623 614.711C368.182 621.512 376.177 622.279 375 631C368.329 629.278 362.566 628.621 356 631L359 636L350 637L357 643L356 648L347 649C350.312 654.029 356.47 659.575 351 665L351 668C360.582 674.778 358.764 682.486 347 683C350.888 701.531 335.731 693.09 325 693C325.298 697.842 325.191 700.876 330 703C327.488 706.518 326.448 709.162 331 711L334 720L331 724C333.495 725.149 335.99 725.867 338.56 726.787C346.539 729.643 342.945 736.298 336.999 738.786C327.718 742.669 313.519 732.967 309 748C312.993 752.345 306.894 759.168 305 764C308.861 767.775 307.377 770.494 303 773L303 775L317.039 778.956L328.682 778.761L333 788C325.682 790.221 325.946 805.134 332.314 808.887C336.483 811.344 342.968 809.755 345.624 815.224C348.286 820.703 340.355 825.8 342.939 831.71C344.404 835.059 348.834 839.082 352 836L353 836C355.366 838.691 358.755 840.839 360.352 844.104C363.51 850.561 362.858 864.958 373 862L376 872L382 871L382 892C393.632 891.091 407.581 892.694 408 907L413 906L414 909L415 909L422 904C423.016 912.824 430.157 906.874 435.791 910.808C441.45 914.759 443.501 921.906 449 926L450 923L454 924L454 920L459 924L462 922L465 934L467 934L468 931L475 934C478.683 928.939 481.949 927.611 488 929L494.901 917L497 902L498 902C498.054 908.401 498.903 913.041 506 914L506 909L511 912L512 909L524 918L518 899L519 899L524 904C526.632 887.855 537.421 907.656 540 912L541 912L543 895L560 898L560 896L565 900L566 900L567 896L572 896L569 873L576 877L576 863L580 864C579.846 859.288 581.769 858.984 586 860L593 854L619 872L621 872L632 870C639.464 884.392 648.972 892.494 664 896C663.59 891.099 664.597 886.829 660 884L669 881L676 884C684.001 871.267 670.718 865.189 669 853L672 854C674.103 845.294 663.555 835.515 657 831L671 825L663 811C667.182 809.611 666.89 806.918 666 803L694 792L694 796L704 794L705 795L703 805L716 799L717 799L724 808L712 811C715.961 820.537 727.271 813.337 732.264 821.174C735.279 825.907 727.753 834.185 729 840L732 840L733 837L735 837C735.677 842.997 731.515 843.989 728 848C743.083 856.045 737.788 860.507 731 872L745 871L746 876L760 868C760.622 869.668 761.255 871.326 761.799 873.021C766.117 886.484 770.856 873.575 777 870L778 874L784 871L783 874C791.413 870.671 793 875.155 797 882L799 882C801.235 876.389 803.088 874.855 809 874L813 886L817 884L823.928 892.183L815.782 908L817 924L822 920L823 920L816 932C825.067 936.175 826.755 933.632 836 931L838 948C847.817 946.224 848.27 947.873 851 957C857.322 953.91 859.841 947.772 860 941L865 941L862 954C868.71 959.306 867.19 964.399 869 972L870 972L881 952L881 958L882 958C890.219 947.709 886.681 935.366 893.144 925.001C897.336 918.278 905.388 916.454 910 924L917 919L914 930L919 929L920 938L932 932L933 942C941.08 940.147 942.299 937.734 950 942L969 913C974.201 916.995 977.358 911.604 981.152 913.971C985.95 916.964 982.64 923.637 990 923L994 932L1005 936L1006 928L1017 933L1020 924L1017 920C1021.22 916.21 1031.12 907.699 1037 907.862C1042.2 908.005 1047.67 911.037 1053 911.652C1057.02 912.116 1060.21 910.22 1064.04 910.262C1068.58 910.31 1071.06 913.392 1075 910L1076 910L1079 912C1081.25 904.171 1077.22 893.658 1073 887L1083 901C1088.09 898.32 1094.23 895.273 1099 900L1101 900L1099 885L1112 894L1113 890C1122.28 894.061 1132.41 895.543 1140 904L1142 904C1143.12 899.294 1141.82 890.129 1145.6 886.642C1148.79 883.698 1154.22 884.472 1157.96 880.906C1162.54 876.539 1165.32 871.03 1172 870L1172 874L1187 866L1187 855L1199 860L1202 857L1203 861C1207.11 858.034 1209.43 855.103 1210 850L1214 850L1215 856C1220.02 853.154 1222.47 851.703 1225 858L1227 858C1231.4 852.48 1235.97 852.799 1238 860L1244 860L1248 851C1250.53 852.595 1253.91 856.254 1257.05 856.264C1261.98 856.279 1266.09 849.667 1272 849.175C1282.18 848.328 1283.06 854.977 1293 848L1289 844L1289 842L1292 841L1296 844L1298 833L1302 836L1304 836L1305 833L1315 840L1313 827L1318 832C1330.06 831.341 1325.94 838.925 1332.42 845.889C1334.67 848.31 1336.37 847.934 1337 845L1341 846C1348.95 833.891 1359.07 832.286 1354 815C1358.74 815.223 1388.55 821.084 1378 808L1378 807L1378 784L1381 784L1380 775L1387 778L1382 760L1386 760L1387 754C1389.73 755.196 1403.3 758.819 1404.96 756.574C1407.49 753.144 1403.76 746.439 1402.71 743C1399.27 731.713 1391.84 718.82 1394 707L1396 707C1398.14 715.994 1403.45 722.791 1411 728L1409 713L1410 713C1411.29 720.476 1415 725.914 1422 729C1424.54 720.678 1426.16 716.206 1436 718L1431 708L1436 709C1437.66 703.335 1436.55 697.08 1430 696L1430 695C1444.1 694.236 1443.66 688.584 1439.49 677C1438.42 674.037 1439.14 670.775 1437.38 668.039C1433.76 662.396 1427.14 661.437 1422.17 657.671C1410.82 649.067 1402.41 630.158 1415 620L1415 617L1411 613L1416 616L1417 613L1420 614C1422.48 606.612 1424.44 603.034 1422 595L1428 594C1425.66 586.592 1428.13 583.869 1430 577L1435 580C1439.11 573.686 1445.01 582.33 1450 578L1451 578C1454.74 581.927 1462.07 593.372 1468 590L1469 590C1478.82 606.259 1489.08 617.389 1508 622L1511 619L1510 614L1514 612L1525 610L1516 589L1510 583L1513 579C1511.59 573.771 1507.1 565.282 1507.44 560.104C1507.63 557.221 1510.8 556.181 1511.92 553.791C1513.94 549.458 1508.8 543.298 1505 542L1508 534C1521.24 533.727 1519.44 523.349 1530 520L1530 519L1520 508C1521.57 505.402 1524.01 502.229 1523.27 499C1522.56 495.895 1517.8 492.761 1519.26 489.317C1520.71 485.878 1527.72 487.54 1527.65 482.891C1527.54 475.489 1518.81 475.486 1523 467L1513 464L1513 463L1530 460L1525 456L1525 455C1533.09 453.91 1538 448.967 1546 452C1546.37 444.764 1548.5 438.961 1540 436L1541 433L1546 432L1545 429L1540 430L1541 427L1536 428L1535 428L1521.46 416.721L1528 391L1509 388L1510 383L1482 378C1484.52 374.99 1492.13 373.669 1493.29 370.586C1494.98 366.075 1487.74 365.345 1485 365.34C1474.72 365.318 1464.33 366 1454 366L1470 357L1465 358C1465.09 353.481 1467.99 352.872 1472 352C1470.89 344.88 1460.82 342.309 1469 336L1469 333L1462 329C1454.19 328.536 1452.3 321.849 1452 315L1449 316L1456 308L1443.65 291.714L1441 281L1432 284C1429.78 280.672 1427.86 281.996 1426 285L1425 285C1426.77 279.808 1430.38 274.846 1424 272L1426 265L1412 272L1411 269L1406 272L1417 257L1414 258C1412.55 252.926 1410.21 256.987 1406.78 255.597C1401.95 253.636 1402.44 246.655 1404 243L1401 242L1403 239L1393 237C1379.03 245.12 1362.07 240.054 1366 221C1370.19 200.629 1396.67 182.856 1386 160L1381 161L1375.78 150.907L1369.05 155.005L1353 174C1347.99 171.218 1342.49 177.321 1337.72 179.196C1334.46 180.476 1331.21 178.642 1327.91 179.488C1320.4 181.414 1320.61 185.843 1312 184C1311.71 175.085 1302 177.915 1298 170L1295 180L1289 180L1276 187L1274 192C1270.19 181.726 1262.35 186.925 1263 196L1257 189L1256 189L1255 199L1254 199L1249 186C1242.82 187.666 1234.21 177.126 1228 174L1226 184L1218 183L1216 208C1210.56 203.803 1202.58 204.358 1196 206L1191 203L1188.41 228.714L1192 246L1191 246C1188.68 241.003 1185.17 239.415 1180 238L1194 277L1182 259L1182 268L1180 268L1178 261L1176 261C1170.99 270.104 1170.34 270.134 1161 268L1160 284L1156 285L1156 281C1150.05 281.152 1135.18 288.469 1136 279C1126.67 275.163 1127.94 265.223 1116 269L1116 266L1115 266L1114 266C1110.76 272.288 1108.28 271.071 1106 265L1104 265C1100.62 270.5 1091.1 268.843 1088.13 262.772C1086.73 259.891 1087.14 246.452 1088 243L1083 246L1081 241L1066 251L1069 241L1060 245C1054.99 239.235 1044.83 242.235 1039 245C1038.47 242.124 1040.01 218.694 1034 228L1022 221L1017 236L1016 236L1017 230L1006 234C1009.22 223.483 1013.48 209.009 1011.54 198C1010.71 193.306 1009.9 187.681 1005 186C1001.2 192.829 997.462 185.965 992.108 186.903C988.135 187.599 987.031 193.836 986 197L985 197L984 191L980 187C976.511 187 971.949 191.205 973 187L965 197L963 193L960 193L948.6 203.171L942 221C931.202 218.055 929.604 202.008 918 204C915.39 199.312 913.425 193.574 908 192L908 185L893 205L892 191C885.668 194.99 886 209.16 886 216L885 216L884 210L882 210L880 224L876 223L873 238L869 227C864.204 230.011 862.539 238.592 862 244L856 233L854 233L843.394 248.044L840 272L839 272C832.228 256.924 832.112 270.363 825 276C823.969 271.274 825.861 266.021 820 265L821 272C808.602 271.765 812.497 248.67 811 241C798.372 242.963 798.281 255.173 793.968 265C790.198 273.593 784.226 281.342 784 291L782 291L784 277C777.782 278.012 776.57 283.586 775 289C773.227 286.416 769.774 283.333 769.952 279.985C770.552 268.735 785.074 267.787 781 254L779 254L774 260L771 257L774 249L758 268L759 251L750 254L751 250L748 252L748 239L742 241L739 244L743 237C737.854 236.92 733.475 241.16 732 246L725 239L716 255L711 250L706 251C706.881 258.814 700.754 262.12 695 266L696 263L687 268L686 258L681 263L677 241L675 244L672 241L670 241L669 244L668 244L666 208L669 209L668 206L661 212L665 207L669.725 191L670.786 170L667.096 158L665 133C660.487 130.708 657.982 126.934 657 122L656 122L651 124L648 119L646 132L644 132C644 127.772 638.75 117.833 637 126C635.334 122.421 634.004 112.985 629.779 111.792C622.954 109.866 622.48 121.103 620.829 125C614.666 139.55 611.945 154.758 608 170z"/>
<path style="fill:#fefefe; stroke:none;" d="M628.667 112.333L629.333 112.667L628.667 112.333M596 186L597 191L598 191L596 186M1208 205L1208 208L1209 208L1208 205M1007 222L1008 223L1007 222z"/>
<path style="fill:#030303; stroke:none;" d="M1110.67 239.333L1111.33 239.667L1110.67 239.333z"/>
<path style="fill:#fefefe; stroke:none;" d="M1400 240L1401 241L1400 240z"/>
<path style="fill:#030303; stroke:none;" d="M1405 251L1406 252L1405 251z"/>
<path style="fill:#fefefe; stroke:none;" d="M770 259L771 260L770 259z"/>
<path style="fill:#030303; stroke:none;" d="M1427 263L1428 264L1427 263z"/>
<path style="fill:#fefefe; stroke:none;" d="M486 265L486 268L488 268L488 265L486 265M695 268L696 269L695 268M420 275L421 276L420 275M1194 277L1195 278L1194 277M1195 279L1196 280L1195 279M472 293L472 296L473 296L472 293M399 339L400 340L399 339M401 340L404 344L401 340M1459 343L1460 344L1459 343M1456 345L1456 348L1458 345L1456 345M392.667 347.333L393.333 347.667L392.667 347.333M381 349L382 350L381 349M1445 367L1445 368L1450 366L1445 367M1479.67 375.333L1480.33 375.667L1479.67 375.333M1538 429L1539 430L1538 429M439 468L445 472L445 471L439 468M450 479L451 483L452 483L452 479L450 479M1522 481L1525 484L1522 481M408 483L409 484L408 483M452 484L453 485L452 484M381 495L381 496L384 496L381 495M387 537L385 540C387.251 539.527 388.118 539.14 387 537M368.333 608.667L368.667 609.333L368.333 608.667M362 639L363 640L362 639M1407 712L1410 712L1409 710L1407 712M1381 759L1382 760L1381 759M694.667 791.333L695.333 791.667L694.667 791.333M1286 837L1287 841L1288 841L1286 837M1096 883L1097 885L1098 885L1099 883L1096 883M569 887L570 888L569 887M823.667 919.333L824.333 919.667L823.667 919.333z"/>
<path style="fill:#030303; stroke:none;" d="M1025 921L1024 924L1027 924L1025 921M1008 933L1008 936L1011 936L1011 933L1008 933z"/>
<path style="fill:#fefefe; stroke:none;" d="M882 951L883 952L882 951z"/>
</svg>
