<?xml version="1.0" standalone="yes"?>
<svg xmlns="http://www.w3.org/2000/svg" width="1920" height="1080">
<path style="fill:#fdfdfd; stroke:none;" d="M0 0L0 1080L1920 1080L1920 0L0 0z"/>
<path style="fill:#030303; stroke:none;" d="M642 19L638 24L638 21L635 23L634 20C629.022 23.2354 627.833 28.3401 627 34L626 34L625 32C611.053 59.3575 608.748 87.371 605 117L604 117C602.681 115.546 600.681 114.784 599.648 117.323C598.032 121.295 600.441 126.806 599.707 131C598.93 135.438 595.814 140.792 594 145L591 142L592 140L592 139L591 139L588 141L588 155L587 155C577.725 131.712 558.997 164.347 578 171L578 172C570.066 172.408 569.556 165.193 564 161C564.297 166.807 566.686 175.102 558 170L560 194L559 194L552 177L550 177L549 180L548 180L546 169L544 169L543 175L542 175L541 167L540 170L539 170C538.831 162.088 535.47 152.672 528 149L528 155L527 155L524 150L524 160L511 151L510 161L507 159C501.056 166.276 502.308 171.661 506 180L500 173C491.853 175.969 494.825 185.016 494 192C488.085 193.194 489.914 201.44 491 206L487 204L486 212L482 212C482.051 216.468 481.993 218.957 477 219L480 228L477 225L475 225L474 226L479 238L472 235L471 235L468 236L468 242L463 239L462 248L460 248L452 240L454 252L453 252L444 237L443 237L440 241L429 224L431 240L430 240L429 237L428 240L427 240C424.646 233.169 422.339 226.934 416 222.722C413.081 220.783 408.003 218.508 407 223L406 223C402.741 217.771 396.538 217.93 394.264 224.005C392.315 229.209 393.739 239.069 396 244L376 231L376 232L378 233L375 235L369 233L370 242L365 239C369.131 253.701 364.729 258.651 351 253L357 264L354 265L367 293L359 289L359 304L353 304L352 304L348 302C350.529 308.192 356.373 318.2 346 319L346 320L346 324L347 321L331 326L334 332L332 329L327 331L327 332C330.685 338.299 328.586 344.753 321 345L319 352C326.154 356.66 312.672 373.215 327 371L317 383L317 384L322 388L313 389C310.012 397.549 306.969 403.551 318 405L316 411L328 407L316 429L319 433C322.422 434.783 324.56 436.612 327 433L328 436C338.605 435.133 351.861 428.766 352 417L369 422.767L393 432C385.52 431.968 364.206 424.269 371 440L378 437L368 456L375 460C370.653 460.143 368.736 460.909 367 465C358.568 463.356 351.591 468.051 344 471L347 476C340.991 476.502 333.213 474.971 331 482L338 482C334.53 492.114 342.153 489.413 346 496L351 495C348.667 497.974 341.347 503.924 345.607 507.99C349.703 511.898 354.849 507.843 356 515L348 515L353 521L326.83 527.733L318 529L317 529C312.693 522.959 309.744 523.245 303 523C303.408 531.899 307.854 533.396 313.239 539.274C317.679 544.12 320.274 550.268 325.039 554.956C328.959 558.812 334.191 560.175 338 564L316 553C316.649 567.877 323.176 576.114 338 579C333.817 585.359 347.759 599.192 354 601C351.89 605.707 349.779 605.687 345 605L346 608L340 604C336.583 604.645 331.483 604.16 331 608L322 607L317 616L312 615L312 616L329 632L312 627C315.16 633.007 319.84 639.874 326 643C324.514 645.637 321.643 655.626 318 651C303.978 654.095 322.764 662.783 326 669L325 670L310 665C310.975 675.668 302.215 680.436 294 687C291.855 680.32 288.292 680.149 282 679L280 694C284.464 694.497 286.995 695.936 289 700C296.873 700.432 297.024 705.936 302.105 710.696C308.223 716.426 316.54 722.247 323.184 727.487C327.466 730.864 332.583 728.499 335 734C332.021 733.484 329.435 732.596 329 736L293 725L296 727L296 728C293.598 728.76 290.557 730.667 288 729.837C278.149 726.642 269.587 705.754 263.135 722.71C262.325 724.839 261.883 725.732 262 728L259 726L254 729L266 739L267 744C263.543 746.336 265.104 748.83 267 752L264 753L264 756L267 760L257 769L255 776C260.024 778.601 262.118 777.101 267 775L266 780L270 779L271 787L271 788C283.404 792.419 285.688 807.153 300 810L296 816C301.099 816.924 304.269 819.028 306 824L311 821L313 825C318.354 824.855 322.602 828.187 319.062 833.791C315.284 839.77 305.909 847.234 300 851C303.67 854.203 304.125 855.555 302 860L312 867C305.6 869.562 302.628 873.027 302 880L306 880L307 876C319.049 878.31 331.948 865.44 341 859C345.715 873.18 341.822 881.891 340 896L348 887C352.558 887.515 355.115 886.202 357 882L358 882C357.653 889.481 353.653 897.235 349 903L349 904L353 909L357 899L363 910L364 910L367 906L365 916C360.072 916.007 358.526 918.391 360 923L366 921L364 932C378.897 926.589 382.998 919.711 383 904C397.881 912.16 378.783 932.414 380 944L384 941L385 941L387 944L388 944L400 934L399 940L402 938L403 952C399.502 953.928 399.125 956.122 399 960L414 959C410.646 964.526 410.301 968.778 417 971L416 976L420.603 987.598L438.068 982.693L444 1003L446 1003L448 996L449 996C449.884 1001.67 452.238 1006.35 458 1008C462.749 1001.15 465.131 1000.67 473 1002L480 979C486.233 976.931 483.015 968.286 483 963L486 963L486 972C487.834 970.986 490.218 968.462 492.421 968.608C497.778 968.963 502.606 979.096 503 967L509 974L515 957L516 957L516 960L519 960L518 950C521.816 953.538 523.093 956.892 522 962L524 959L534 974L536 962L547 974L542.189 947L537 933L538 933C541.208 944.611 548.95 954.147 560 959L554 933L559 936C558.06 930.597 559.177 926.983 563 923C562.403 929.956 570.539 931.849 576 934C576.9 930.985 577.816 930.062 581 930C581.005 923.795 581.357 917.635 589 921C589.691 916.943 588.576 914.13 585 912C588.374 907.557 588.38 904.384 588 899L592 901L591 884L588 884C590.766 879.756 591.335 876.078 588 872L588 871L591 869L598 877L597 869L599 869C600.214 873.819 600.794 876.721 606 878L605 875L612 875L615 873C617.414 878.115 621.975 879.112 625.443 883.144C630.85 889.43 630.459 905.158 641 905C644.943 916.893 655.317 919.939 663.957 927.34C667.94 930.752 670.143 935.653 673.888 939.295C679.865 945.106 688.27 946.28 685 956L689 952C694.638 953.327 708.284 954.942 712 950L716 953L738 969L736 959L740 961L741 958C747.593 960.603 747.481 955.443 753 954C751.259 948.845 750.765 942.883 748.584 938.001C747.625 935.852 745.031 933.144 745.689 930.616C746.567 927.241 751.783 924.818 754.424 922.961C761.275 918.147 766.364 915.484 769 907L782.786 913.123L797 899L800 915L796 920C804.219 925.189 790.581 929.297 788 934C776.815 931.64 769.273 949.071 768 958L782 944C783.438 948.774 782.7 961.953 778.798 965.298C774.379 969.086 767.158 970.366 762.089 973.27C755.815 976.865 748.333 982.082 741 983L730 1000L739 995C739.662 1003.28 745.644 996.426 748.802 1001.33C751.898 1006.14 746.673 1010.28 752 1015L757 1008L754 1018C750.784 1016.72 749.721 1016.95 748 1020L752 1024C744.396 1024.99 740.256 1027.94 740 1036L741 1036C749.842 1024.39 771.662 1023.5 777 1009L780 1014L784 1015L789 1009C788.112 1020.67 792.5 1019.95 802 1016C802.292 1017.39 802.492 1018.68 803.058 1020C807.7 1030.83 810.915 1016.24 816.593 1018.35C817.457 1018.67 821.217 1034.63 822 1037L824 1031C831.127 1038.51 822.751 1050.25 831 1056L833 1046L842 1058L847.778 1046L844.472 1034.17L847 1034C850.027 1034.56 852.112 1038.09 855.114 1038C867.448 1037.63 865.105 1019.13 872 1015C871.872 1018.51 872.626 1019.91 876 1021C873.29 1026.72 870.817 1029.32 872 1036L885 1027L891 1021L896 1024C898.97 1019.02 902.317 1017.47 908 1017L909 1026L911 1026L920 1007L925 1008L927 998L933 1002L933 993L934 993L937 1014L953 989L957 999L966 996L962 985L963 984C971.118 985.533 971.821 973.059 973 967L975 967L977 974L979 974C979.693 969.642 980.99 967.004 985 965L988 978L994 977L998 1000C1006.29 1005.01 1010.54 1037.66 1018 1015L1019 1015C1021.04 1019.38 1023.47 1020.66 1028 1022L1028 1024L1024 1026L1024 1028L1030 1032L1032 1013L1034 1013L1035 1020L1038 1015L1047 1008C1047 1023.91 1047.58 1036.3 1065 1041L1066 1035L1063 1036C1060.04 1029.14 1063.24 1025.02 1063.61 1018C1063.87 1012.99 1061.8 1008.14 1062.04 1003C1062.46 993.995 1066.05 986.59 1054 984C1061.3 974.174 1055.91 964.064 1049 955L1056 956L1052 939L1053 938L1056 939L1061 958L1081 957L1075 975L1074 973L1073 973L1072 977L1074 980L1082 977L1086 991L1092 992L1104.79 985.568L1111.99 979.635L1120 985C1119.98 980.035 1117.1 952.075 1130 959.863C1137.49 964.383 1135.39 975.335 1144 976L1141 972L1141 971C1145.81 969.378 1147.79 970.52 1152 973C1153.51 965.643 1144.46 958.223 1138 956C1142.97 952.034 1155.83 948.43 1162 950C1163.49 945.093 1168.7 944.052 1171.23 949.305C1172.51 951.966 1172.43 974.194 1181.66 962.811C1182.57 961.685 1183.25 960.236 1184 959L1179 955L1183 951L1210 972L1198 952C1199.36 948.252 1202.44 944.144 1202.1 940C1201.35 930.898 1191.55 921.158 1183 920L1181 905C1185.61 906.364 1187.17 909.419 1188 914L1198 915L1197 911C1211.27 915.092 1211.73 937.426 1227 942L1229 938L1236 943C1236.33 937.748 1239.99 919.405 1244 917L1245 924C1252.39 921.57 1260.08 912.921 1265 907L1271 920L1273 920L1275 916L1276 916L1276 920L1280 913C1269.17 909.709 1282.96 896.682 1284 890L1297 901L1302 905L1307 904L1306 894L1311 895L1320 908L1321 898L1325 898L1328.6 916.856L1336 924L1342 925L1345 917L1348 918L1352 907L1362 928L1365 928L1366 921L1371 922C1372.01 913.335 1369.39 911.721 1377 906L1386 912L1385 903L1390 904L1385 881L1387 877C1393 882.062 1400.72 877.538 1408 876L1405 865L1429 872L1426 865L1433 867C1434.4 862.247 1433.89 859.024 1431 855C1440.24 855.805 1445.76 856.144 1448 845C1441.46 839.747 1442.7 831.782 1452 833L1454 827L1457 828L1464 824L1461 815C1447.29 810.911 1462.26 800.58 1470 800C1469.44 789.692 1454.21 785.434 1451 796C1444.4 794.981 1441.47 789.603 1436.91 785.286C1423.74 772.817 1413.83 758.386 1408 741L1409 741C1413.74 750.863 1422.4 775.458 1436 774C1431.16 765.421 1436.78 766.11 1444 764L1440 745L1446 745C1446.63 749.374 1446.87 753.018 1452 751L1452 753L1466 755L1467 754L1466 749L1483 752L1475 732L1484 726C1478.54 723.217 1474.45 718.998 1482 716L1482 714L1467 709C1472.84 710.51 1478.34 709.371 1484 710.419C1492.67 712.023 1502.73 719.237 1510 711L1506 710L1507 707L1492 694C1493.83 689.798 1492.39 688.351 1488 688L1488 687L1504 691L1503 681L1506 682L1506 681L1498 676C1499.96 671.258 1498.15 668.754 1495 665L1500 664C1496.41 660.341 1489.94 660.499 1485 661L1493 653L1479 652L1479 651C1486.15 646.62 1479.04 642.203 1474 640L1474 638L1479 636L1476 631C1492.4 624.365 1494.53 639.22 1505.04 647.367C1508.7 650.209 1513.43 654.475 1518 655.57C1525.68 657.413 1533.22 655.845 1540.49 660.319C1547.61 664.706 1550.51 673.267 1559 676L1558 670C1586.04 667.766 1558.73 630.303 1549.72 620.424C1546.76 617.181 1544.03 614.006 1542.12 610C1539.8 605.11 1536.23 600.135 1534.65 595C1533.15 590.135 1535.05 586.771 1531 583C1545.3 579.095 1530.55 568.506 1535 559L1529 553L1544.17 552.015L1558 556L1558 549L1565 547C1562.8 540.607 1564.13 533.729 1556 532L1556 531C1562.46 529.163 1551.44 506.348 1547 504L1548 495L1540 491L1547 484L1548 481L1548 480L1545 480L1545 479L1550 478L1546 475L1564 473C1563.41 469.597 1562.35 468.728 1559 468L1559 467C1566.85 466.693 1576.94 472.588 1581 463C1586.33 462.754 1585.67 459.062 1584 455L1581 456C1575.22 443.328 1587.29 449.683 1592 442L1586 440L1588 435L1585 436L1581 426L1583 428L1584 428L1587 424L1587 423L1580 422L1581 419L1566 416L1568 412L1568 411L1564.31 399.414L1558 391L1567 384L1563 380L1559 367L1550 357L1544 361L1543 349L1540 350L1541 339L1535 341L1534 338L1527 345C1526.65 339.062 1525.72 330.145 1519 329C1514.47 332.985 1512.05 335.608 1511.32 342C1511.02 344.549 1512.71 348.723 1511.05 350.853C1507.94 354.838 1496.75 358.507 1492 361L1491 360L1499 351L1489 352L1490 341L1487 342C1485.54 319.334 1509.08 319.44 1523.51 309.146C1527.14 306.562 1531.25 306.383 1533 302L1517 302L1513 291L1508 292L1508 291C1513.99 287.475 1520 278.546 1516 272L1515 272L1514 274L1513 274L1508 272L1514 263L1499 265.066L1486.99 261.059L1461 266.541L1448 268L1447 268L1445 262C1449.56 260.231 1452.64 257.793 1454 253L1449 252L1453 243L1437 249L1436 252L1435 252L1438 237L1417 246L1416 241L1420 239C1417.36 231.512 1413.07 231.874 1406 232L1406 227L1392 232C1390.77 226.355 1377.18 234.86 1373 236L1372.8 214.001L1387.29 198.003L1397.16 178L1408.67 155L1406.3 141L1408 131C1412.55 127.587 1417.15 117.583 1416 112L1412 113C1406.79 103.852 1396.39 108.035 1390.04 113.375C1380.8 121.136 1376.85 130.564 1369.75 139.71C1364.92 145.946 1358.13 150.558 1353 157C1349.77 155.334 1348.64 157.059 1347 160L1346 160C1345.44 152.937 1341.03 155.047 1336 157L1336 166L1335 166L1334 159L1333 159L1332 164L1327 162L1324 171L1323 171L1320 144L1314 147L1313 147L1312 141L1307 144C1302.49 144.205 1300.87 146.738 1300 151L1295 149C1292.72 153.27 1286.98 160.314 1282 161L1276 166L1273 174L1260 174L1259 169L1258 169L1258 174L1256 174L1252 157L1251 157L1246 163C1246.88 158.057 1243.35 142.569 1235.11 146.175C1231.8 147.621 1230.79 154.06 1229 157C1226.42 152.106 1224.36 145.583 1218 147L1219 150L1215 150C1213.55 154.648 1210.39 155.526 1207 152L1206 152L1203 173L1200 171L1190 184L1178 181L1178 184L1174 183L1173 190C1161.3 188.184 1147.28 199.56 1143 210L1142 210L1147 192C1143.37 192.346 1134.97 192.203 1132.17 193.826C1123.75 198.714 1125.92 204.064 1115 200C1116.24 194.207 1114.16 189.883 1108 193L1102 184L1101 184L1100 186L1099 186L1092 184C1095.17 179.924 1098.32 177.467 1097 172L1095 172L1089 177L1085 186L1086 178L1082 181L1087 168L1084 168L1089 166C1087.41 152.575 1093.36 145.549 1098 134L1088 136C1087.35 140.089 1085.67 141.296 1082 143C1082.3 146.218 1083.08 151.885 1079 148C1077.57 154.897 1078.62 161.635 1073 167L1075.66 150L1075.71 138.015L1089.15 116L1091 99L1090 99L1090 102L1082 92L1083 87L1086 87L1086 86L1083 86L1082 81C1077.44 83.3695 1076.26 87.0435 1076 92L1075 92L1075 89L1070 89C1063.57 94.9174 1051.54 88.9229 1055 104L1052 106L1051 106L1047 104C1047.16 96.8369 1053.02 83.8296 1046 79C1047.26 75.8362 1048 74.0196 1045 72C1050.18 65.1558 1054.69 63.2932 1049 55L1048 55L1048 60L1045 59C1042.17 63.7961 1038.11 66.0029 1037 59C1028.02 60.084 1028.47 64.0944 1027 72L1023 69L1023 78L1016 79L1015 78L1017 72L1008 67L1007 71L1005 71L1005 50L990 71L990 61C983.889 64.4684 983.875 72.0811 981.15 77.946C978.337 84.0009 973.643 86.9164 972 94C964.581 91.6063 963.324 102.409 961 108L960 108L960 87C952.501 89.34 949.046 88.8404 947 97L940 94C939.845 91.9379 939.579 90.4644 938.714 88.571C930.944 71.5747 928.028 95.3704 922 102L920 91L914 93L913 97C910.035 92.8788 905.497 85.1819 903.75 80.5324C901.38 74.223 902.765 69.3268 896 66L890 71L890 72L897 76C888.955 77.7871 886.113 72.4238 885 65C879.617 68.6688 873.073 77.5761 872 84L876 90L859 71C856.207 74.4412 854.457 75.7062 850 75L850 80L846 77C838.284 79.3818 840.754 85.9316 842 92L839 87C832.102 91.4763 845.322 112.225 846 120L845 120L840 104C836.362 104 830.548 105.19 827.394 103.089C824.717 101.306 824.333 97.2579 820.867 96.4915C811.968 94.5237 807.445 103.226 800 93L788 94C788.787 100.227 790.279 105.477 784 109C785.435 113.865 799.096 135.003 785 123L781 132C778.682 125.577 773.349 123.093 767 126L768 130C761.444 123.035 757.991 121.013 749 125L751 135L751 136C752.445 138.69 752.709 142.353 754.603 144.722C760.09 151.588 776.036 160.539 782 151L783 151C790.691 161.414 787.87 169.179 789.518 181C790.635 189.015 793.32 196.693 792.953 205C792.721 210.263 790.565 214.604 791 220L788 220C788 209.835 786.083 197.109 776 192L774 195L774 196C777.008 199.889 781.845 212.37 773.003 212.623C768.243 212.76 767.395 206.774 763.242 205.421C756.246 203.143 755.52 207.628 751.416 211.4C745.58 216.766 742.085 213.81 742 224L740 210L736 207L732 212L728 209L728 216L727 216C724.972 205.55 719.185 192.224 708 189L710 201L703 191L699 192C696.26 184.697 690.534 173.968 682 178C687.822 162.381 682.916 152.446 683 137L682 137L682 140L681 140C683.751 124.013 685.799 113.297 684.161 97C683.533 90.7532 680.639 81.9116 673 83L665.23 65.1697L668 55L661 60C666.492 49.5231 665.88 30.5078 664 19L653 28L656 24L654 21L646 23L642 19z"/>
<path style="fill:#fdfdfd; stroke:none;" d="M635 27L636 28L635 27z"/>
<path style="fill:#030303; stroke:none;" d="M1044.67 51.3334L1045.33 51.6666L1044.67 51.3334z"/>
<path style="fill:#fdfdfd; stroke:none;" d="M660 64L661 65L660 64M990 72L991 76L992 76L990 72M1005 72L1005 80L1006 80L1005 72M1011 72L1010 76L1013 72L1011 72M957 89L957 92L958 92L957 89M876 92L879 96L876 92M970 96L970 99L971 99L970 96z"/>
<path style="fill:#030303; stroke:none;" d="M830 97L830 100L832 100L832 97L830 97z"/>
<path style="fill:#fdfdfd; stroke:none;" d="M1085 100L1086 101L1085 100M959 112L958 116L959 116L959 112z"/>
<path style="fill:#030303; stroke:none;" d="M1098 132L1099 133L1098 132z"/>
<path style="fill:#fdfdfd; stroke:none;" d="M1068 143L1069 144L1068 143M1067 158L1068 158L1069 155L1072 156L1074 147C1069.27 149.272 1066.29 152.603 1067 158M528 157L529 160L530 160L528 157z"/>
<path style="fill:#030303; stroke:none;" d="M1092 157L1092 161L1093 161L1092 157z"/>
<path style="fill:#fdfdfd; stroke:none;" d="M1071 159L1072 160L1071 159M589 161L591 164L589 161M1066 161L1066 164L1068 164L1068 161L1066 161z"/>
<path style="fill:#030303; stroke:none;" d="M498 165L499 166L498 165z"/>
<path style="fill:#fdfdfd; stroke:none;" d="M1083 169L1084 170L1083 169M1082 171L1079 177L1080 177L1082 171M496 175L497 176L496 175M1077 177L1078 178L1077 177M1076 179L1076 184L1077 184L1078 179L1076 179M1081 181L1082 182L1081 181M1080 183L1081 184L1080 183M1102 187L1103 188L1102 187M682 189L681 195L684 199C686.752 195.264 687.399 189.949 682 189M1075.33 190.667L1075.67 191.333L1075.33 190.667M494 193L495 194L494 193M1073 199L1074 200L1073 199M1073 202L1074 205L1073 202z"/>
<path style="fill:#030303; stroke:none;" d="M774 205L774 208L776 208L776 205L774 205z"/>
<path style="fill:#fdfdfd; stroke:none;" d="M675 206C668.724 217.838 685.027 214.85 675 206z"/>
<path style="fill:#030303; stroke:none;" d="M482 207L484 210L485 207L482 207z"/>
<path style="fill:#fdfdfd; stroke:none;" d="M1070 209L1067 216L1070 209z"/>
<path style="fill:#030303; stroke:none;" d="M426 219L427 220L426 219z"/>
<path style="fill:#fdfdfd; stroke:none;" d="M688 225L688 229L689 229L688 225z"/>
<path style="fill:#030303; stroke:none;" d="M362 235L363 236L362 235z"/>
<path style="fill:#fdfdfd; stroke:none;" d="M470.667 237.333L471.333 237.667L470.667 237.333M373 240L376 244L373 240M428 240L429 241L428 240M371 241L372 242L371 241M443 241L445 244L445 241L443 241M432 243L433 244L432 243M468 243L469 244L468 243M396 244L399 248L396 244M1415 247L1416 248L1415 247M400 249L401 250L400 249M436 255L437 256L436 255M366 260L370 257L366 260z"/>
<path style="fill:#030303; stroke:none;" d="M1512 269L1513 270L1512 269z"/>
<path style="fill:#fdfdfd; stroke:none;" d="M469 271L470 272L469 271z"/>
<path style="fill:#030303; stroke:none;" d="M1518 293L1520 296L1518 293z"/>
<path style="fill:#fdfdfd; stroke:none;" d="M1510 296L1511 301L1513 301L1514 296L1510 296M1514 301L1515 302L1514 301M1521.67 307.333L1522.33 307.667L1521.67 307.333z"/>
<path style="fill:#030303; stroke:none;" d="M349 311L350 312L349 311z"/>
<path style="fill:#fdfdfd; stroke:none;" d="M1513 311L1514 312L1513 311M322 349L322 352L323 352L322 349M1479 363L1479 364L1482 364L1479 363M324.333 386.667L324.667 387.333L324.333 386.667M330 407L329 409L330 407M328 413L329 414L328 413M327 431L328 432L327 431M394 433C394.729 436.403 396.806 435.987 400 436L394 433M402 437C403.085 440.807 404.991 443.411 409 444L411 449L412 449L402 437z"/>
<path style="fill:#030303; stroke:none;" d="M1589 439L1590 440L1589 439z"/>
<path style="fill:#fdfdfd; stroke:none;" d="M414 450L414 451L419 452L419 451L414 450M426 459L427 460L426 459M378 461L380 468C381.151 464.566 380.714 463.388 378 461M384.333 462.667L384.667 463.333L384.333 462.667M1550 467L1551 468L1550 467M344.333 486.667L344.667 487.333L344.333 486.667M352.667 495.333L353.333 495.667L352.667 495.333M359 509L358 511L360 511L359 509M1526 551L1527 552L1526 551M1528 569L1532 568L1528 569M1459 603L1459 604L1463 605L1463 606L1452 611L1452 612L1472 618C1473.1 609.489 1467.44 602.032 1459 603z"/>
<path style="fill:#030303; stroke:none;" d="M342 603L343 604L342 603z"/>
<path style="fill:#fdfdfd; stroke:none;" d="M336 608L336 610L338 610L336 608M340 611L338 614L340 611M348 611L349 612L348 611M356 613L359 616L356 613M1455 639L1456 640L1455 639M332 671L333 672L332 671M283 682L283 688L284 688L285 682L283 682M1490 683L1491 684L1490 683M279 685L280 686L279 685M300 697L303 702L304 702L304 697L300 697M306 697C307.057 700.492 308.418 701.432 312 702L312 699L306 697z"/>
<path style="fill:#030303; stroke:none;" d="M1502.67 699.333L1503.33 699.667L1502.67 699.333M252 725L250 728L254 728L252 725z"/>
<path style="fill:#fdfdfd; stroke:none;" d="M1404 731L1407 741L1408 741L1404 731M1466.67 731.333L1467.33 731.667L1466.67 731.333M1470.67 731.333L1471.33 731.667L1470.67 731.333z"/>
<path style="fill:#030303; stroke:none;" d="M261 743L262 744L261 743z"/>
<path style="fill:#fdfdfd; stroke:none;" d="M1438 759L1439 760L1438 759M276 786L279 783L276 786z"/>
<path style="fill:#030303; stroke:none;" d="M282.667 803.333L283.333 803.667L282.667 803.333z"/>
<path style="fill:#fdfdfd; stroke:none;" d="M1438.67 835.333L1439.33 835.667L1438.67 835.333M344 859L345 860L344 859M613.333 871.667L613.667 872.333L613.333 871.667M359 877L359 880L360 880L359 877M358 881L359 882L358 881M586 895L587 899L588 899L586 895z"/>
<path style="fill:#030303; stroke:none;" d="M1280 901L1282 904L1280 901z"/>
<path style="fill:#fdfdfd; stroke:none;" d="M1385 901L1386 902L1385 901M770 903L771 904L770 903M729 907L730 913L731 913L739 908L739 904L729 907M1377 905L1378 906L1377 905M1168 907L1168 910L1170 910L1170 907L1168 907M532.333 910.667L532.667 911.333L532.333 910.667M532 916L532 918L534 918L534 916L532 916M1341 921L1342 922L1341 921M534 925L537 933L534 925M1233 933L1234 934L1233 933M1234.67 935.333L1235.33 935.667L1234.67 935.333z"/>
<path style="fill:#030303; stroke:none;" d="M1242.67 939.333L1243.33 939.667L1242.67 939.333z"/>
<path style="fill:#fdfdfd; stroke:none;" d="M1155 941C1156.14 944.422 1157.57 944.784 1161 944L1155 941M791 943L792 944L791 943M1186 945L1187 946L1186 945M789 947L790 948L789 947M1185.67 947.333L1186.33 947.667L1185.67 947.333M1133 949L1136 956L1133 949z"/>
<path style="fill:#030303; stroke:none;" d="M768 959L769 960L768 959z"/>
<path style="fill:#fdfdfd; stroke:none;" d="M1177 959L1178 960L1177 959M1087 979L1088 980L1087 979M953 983L953 985L955 983L953 983M748 995L748 996L753 996L748 995M782 1003L783 1004L782 1003z"/>
<path style="fill:#030303; stroke:none;" d="M932 1003L933 1004L932 1003z"/>
<path style="fill:#fdfdfd; stroke:none;" d="M1047 1007L1048 1008L1047 1007M816 1011L817 1012L816 1011M828 1016L831 1013L828 1016M770 1015L771 1016L770 1015M802.667 1015.33L803.333 1015.67L802.667 1015.33z"/>
<path style="fill:#030303; stroke:none;" d="M782 1016L783 1020L786 1017L782 1016z"/>
<path style="fill:#fdfdfd; stroke:none;" d="M836 1017L837 1018L836 1017M835 1019L836 1020L835 1019z"/>
<path style="fill:#030303; stroke:none;" d="M784 1021L785 1022L784 1021M871.333 1022.67L871.667 1023.33L871.333 1022.67z"/>
<path style="fill:#fdfdfd; stroke:none;" d="M853 1029L853 1033L856 1032L853 1029M832 1039L833 1040L832 1039z"/>
<path style="fill:#030303; stroke:none;" d="M855 1041L855 1044L856 1044L855 1041z"/>
</svg>
