<?xml version="1.0" standalone="yes"?>
<svg xmlns="http://www.w3.org/2000/svg" width="1920" height="1080">
<path style="fill:#fdfdfd; stroke:none;" d="M0 0L0 1080L711 1080L710.028 1066.02L726 1041L723 1040L713 1058L712 1058C708.759 1054.86 702.738 1065.73 699 1068L701 1052L695 1055L694 1049L687 1052C685.77 1045.03 688.884 1033.79 679 1033C678.458 1037.81 676.91 1039.55 672 1039L666 1044C666.981 1040.62 665.291 1033.13 664 1039L663 1039L660 1032C663.307 1027.79 665.416 1021.92 669.329 1018.32C673.64 1014.35 680.272 1013.38 684.946 1009.24C694.152 1001.08 701.918 992.398 714 988L712 984L712 983C724.895 980.783 713.632 970.514 706.015 969.712C701.928 969.282 698.578 973.798 694.996 975.326C681.06 981.27 669.391 988.937 661 1002L652 1003L653 1006L649 1007C646.809 1017.83 635.157 1020.93 627 1026L643 1003L637 1009L635 1009L634 1008C638.228 998.203 644.964 985.542 651.379 977C657.405 968.976 668.401 958.97 668.599 948C668.684 943.258 664.984 938.169 663 934L661 938L660 935L655 934L651 937L651.637 928.213L645 920L641 911L640 911L638 916L627 890L618 898L620 889L614 889L608 892C611.298 887.53 616.612 882.096 612 877L609 883L600 882L602 879L595 878C592.795 883.237 596.605 884.231 597.333 889C597.968 893.154 594.827 894.697 594.167 898C593.385 901.906 596.139 907.2 596.667 911C596.97 913.181 594.526 916.949 594 913L593 913C591.553 920.91 596.771 928.826 588 933L588 925L587 925L586 935L583 933L581 956C575.033 950.686 569.93 947.122 568 939L563 944L568 950L570 949C571.19 958.896 580.948 975.219 569 982L570 979L566 980L564 973L559 975L560 980C552.269 984.454 565.868 999.093 558 1002L558 997L555 1000L548 986L547 986L546 996L545 996C542.328 992.188 538.416 992.092 534 992C532.974 986.331 529.788 979.735 524 978L523 981L522 981L522 977L519 976L518 976L516 985L515 985L511 981L509 989L504 985L503 985L499 994L496 993L494 1000L493 1000C492.813 994.534 494.99 976.283 489 975C490.452 981.101 490.64 989.459 483 991L484.708 1013L492 1033L487 1033L484 1046L471 1044C470.62 1033.93 461.282 1026.36 451 1027L449 1034L439 1029L437 1034L432 1032L433 1027C424.765 1027 432.541 1012.33 431 1007L423 1009L424 1004L415 1008L416 1003C410.86 1004.06 408.754 1007.23 407 1012L406 1012L406 1009L401 1012C402.475 1004.36 399.874 996.85 408 992L407 987L388 993L387 992C392.61 984.459 402.763 980.939 400 970C395.653 971.449 393.711 973.976 390 976C387.637 977.289 387.406 981.568 384 981C380.607 980.435 379.455 975.114 383 976L380 966L380 970L383 959L384 959L385 961L388 955L384 958L379 955L372 964L371 968L370 968L369 958L367 961C362.427 958.996 359.626 961.167 355.09 960.684C348.38 959.968 348.16 955.831 341 960L340 957C344.889 953.832 353.899 946.086 353 940L344 944L346 935C350.432 932.699 353.628 929.886 355 925L348 926L352 919L347 923C342.588 920.658 338.876 920.574 336 925L335 925L340 914L342 916L343 916C344.31 909.894 353.488 894.927 348 891C346.764 899.007 336.917 906.069 329 904C336.083 895.128 339.508 891.625 341 880L338 881L337 877L336 877L333 877L331 889L329 889L327 882L316 882L315 879L303.349 892.005L295 906L295 901L291 900C291.854 897.303 291.851 896.614 289 896L289 895L290.248 885.039L300 868L294 876L286 876L286 874C294.419 871.384 296.993 867.594 297 859L296 859L290 864L280 858C286.29 847.422 293.913 848.653 304 844L303 838L309 836C306.877 830.736 301.439 832.123 297 834L298 831L287 832L291 828L292 819L273 824L273 823C282.788 819.889 284.978 817.395 285 807L268 808L268 807C274.184 806.658 276.106 803.616 278 798C268.508 795.405 250.079 787.347 241 792L235 785C231.37 784.644 230.162 783.681 230 780C233.76 780.58 235.556 778.353 232 776L232 774C236.085 772.567 238.726 771.292 240 767L236 766L236 759C238.767 758.395 238.577 757.711 238 755L244 756L243 747L245 748C248.748 735.324 244.324 730.676 232 736L212 727L212 725C217.099 722.574 227.247 717.424 225 711L237 696L230 692C237.008 683.29 242.277 689.552 250 693.742C264.098 701.389 276.781 711.182 293 712L278.729 702.092L260 685.843L232 669L243 672L242 669C251.804 670.819 263.047 675.297 272.91 675.444C277.578 675.513 282.67 671.155 286 676C289.595 675.439 290.989 674.548 292 671L287 672C285.893 662 298.162 662.807 301.239 654.871C302.556 651.474 300.337 648.017 299 645L296 646C292.318 632.879 306.723 643.827 313 644L313 643C310.006 643 304.102 630.859 304 627L299 628L297 623L294 621L303 620L303 618L284 605C293.112 600.905 296.467 601.88 306 604L309 595C312.221 594.858 314.863 595.777 318.004 596.313C320.629 596.762 330.289 595.066 327.168 590.466C323.729 585.396 308.545 583.145 320 576C321.928 579.498 324.122 579.875 328 580L328 579L307 564L303 549L298 554L288 550L291 545L282 536L282 535L287 534L288 534L290 536C289.67 525.794 280.482 521.162 275.979 512.985C273.578 508.625 274.152 501.038 273 496L284 506C296.302 498.319 294.249 504.348 304 512L299 502L304 504C301.762 496.067 308.36 494.298 315 492L315 490C309.348 486.352 307.237 480.844 315.015 477.473C325.518 472.921 338.71 473.133 348 465L339 464L348 460L352 449C357.334 449.986 360.747 446.633 363 442C347.936 434.486 368.152 428.788 375 428C370.886 423.867 358.404 416.412 353 419L353 420C354.972 426.645 346.988 430.27 342.576 434.184C332.189 443.399 313.857 451.193 300 452.751C295.77 453.226 292.461 450.99 288 452L291 443L289 441L287 439L283 438L283 437L283 428C287.162 428.194 289.657 428.326 291 424C280.462 423.196 283.846 412.458 284 405L289 404C286.42 395.085 284.456 392.342 287 383L290 384L290 376L291 376L292 385L293 385C294.84 376.943 297.125 367.968 286 370L286 369L303 357L303 355L296 348L296 347L301 342L304 344L305 334L308 335L314 327L310 328L304 323L307 319L306 323L314 324C316.149 319.8 319.255 316.72 324 316L324 308L325 307C328.453 308.313 331.476 309.103 334 306L331 307L333 305L336 297L334 292C339.675 293.733 341.595 292.775 345 288L345 287L337 266L331 268L333 260L344 264L321 235C326.299 234.596 328.391 232.266 327 227L347 228L341 218L347 221L348 221L356 221L357 217L363 218L366 201L382 199L383 193L403.169 202.54L417 211C417.63 207.752 417.33 205.975 414 205L414 192L415 191C422.499 195.508 429.423 202.921 429 212L432 211L430 218L434 220L435 217L447 228L451 225L452 230L455 227L460 232L455 219C462.134 223.782 461.873 229.885 471 225L464 209L476 212L477 197L480 199L478 195L482 196L482 195C477.09 188.485 484.942 183.667 484.378 177C483.865 170.928 478.244 162.897 476 157L483 156C483.757 151.083 486.293 149.742 491 151C494.866 143.103 493.797 131.89 504 129L507 136L512 132C510.565 126.724 510.28 123.063 516 121L517 124L518 124L517 116L520 115L523 117L528 107L529 107C531.758 115.103 536.184 123.193 535 132L541 138C547.597 138.287 552.821 149.65 556 155L560 141L561 141L564 152L566 152L566 138L566 129L568 129C569.366 143.932 581.511 131.924 582 123L583 123L584 126L588 127L586 126L586 127L587 132L593 129L599 132C595.66 125.412 583.766 98.9974 596 97L597 105L601 106L602 95L606 97C600.023 77.7344 601.439 58.6784 609.961 40C616.208 26.3069 625.477 15.2213 629 0L0 0z"/>
<path style="fill:#040404; stroke:none;" d="M606 97L602 95L601 106L597 105L596 97C584.039 97.9538 594.544 125.896 599 132L593 129L592 132L587 132L586 126L588 127L584 126L583 123L582 123C581.096 131.108 570.207 142.776 568 129L566 129L566 138L566 152L564 152L561 141L560 141L556 155C553.677 149.473 547.594 137.046 541 138L535 132C536.777 123.723 532.496 114.388 529 107L528 107L523 117L520 115L517 116L518 124L517 124L516 121C509.701 122.345 510.046 126.742 512 132L507 136L504 129C493.735 130.598 493.911 143.073 491 151C486.355 148.925 482.679 150.62 483 156L476 157C477.63 163.33 484.126 171.716 483.964 178C483.823 183.446 476.42 190.123 482 195L482 196L478 195L480 199L477 197L476 212L464 209C462.152 217.429 467.293 217.879 471 225C461.025 228.737 463.307 222.854 455 219L460 232L455 227L452 230L451 225L447 228C445.489 224.963 435.349 213.866 434 220L430 218L432 211L429 212C430.025 203.05 423.306 194.357 415 191L414 192L414 205L417 211C413.098 204.374 408.86 205.604 403.17 201.977C395.351 196.993 393.067 192.491 383 193L382 199C376.736 196.316 371.275 199.034 366 201L363 218L357 217L356 221L348 221L347 221L341 218L347 228L327 227C327.809 231.956 325.916 234.232 321 235L344 264L333 260L331 268L337 266L345 287L345 288C341.167 291.812 339.514 293.082 334 292L336 297L331 307L334 306L325 307L324 308L324 316C319.034 315.706 315.444 319.383 314 324L306 323L307 319L304 323L310 328L314 327L308 335L305 334C302.521 337.745 302.728 339.776 304 344L301 342L296 347L296 348L303 355L303 357L286 369L286 370C297.064 368.729 293.93 376.944 293 385L292 385L291 376L290 376L290 384L287 383C283.513 392.105 285.425 395.479 289 404L284 405C283.671 412.671 280.117 423.643 291 424C289.139 427.876 287.097 428.045 283 428L283 437L283 438L287 439L291 443L288 452C292.353 451.33 295.91 453.772 300 453.223C313.863 451.361 331.973 444.092 342.576 434.958C346.587 431.501 356.996 426.028 353 420L353 419C358.864 417.168 369.784 424.612 375 428C369.937 428.265 364.405 427.913 360.063 431.029C354.726 434.859 357.728 440.418 363 442C360.1 446.037 357.203 449.193 352 449L348 460C343.754 459.425 341.312 460.354 339 464L348 465C337.258 471.624 324.772 472.309 314.04 477.438C306.405 481.086 308.641 487.169 315 490L315 492C308.088 493.656 300.664 495.974 304 504L299 502L304 512C296.032 503.124 294.824 496.537 284 506L273 496C273.742 501.046 273.348 509.755 275.904 513.961C280.459 521.453 289.296 526.575 290 536L288 534L287 534L282 535L282 536L291 545C287.946 545.654 288.064 547.007 288 550L298 554L303 549L307 564L328 579L328 580L320 576C305.002 582.365 328.173 587.558 327.218 592.269C325.803 599.248 313.175 594.62 309 595L306 604C296.993 600.853 292.251 599.73 284 605L303 618L303 620L294 621L297 623L299 628L304 627C304.194 631.47 308.469 642.288 313 643L313 644L311 645C306.149 640.867 290.833 633.5 296 646L299 645C299.933 648.039 302.293 651.698 300.766 654.871C297.14 662.409 284.93 661.971 287 672L292 671L286 676C285.224 672.378 281.403 672.557 278.083 673.556C266.745 676.966 253.86 670.246 242 669L243 672L232 669C237.005 677.402 249.694 680.715 258 685.274C265.265 689.262 270.5 696.649 277.09 701.532C282.496 705.538 287.852 706.866 293 712C274.405 710.151 258.898 697.863 243 688.556C237.528 685.353 232.91 686.587 230 692L237 696L225 711C226.616 717.19 216.504 721.924 212 725L212 727L232 736C244.219 732.153 248.122 734.889 245 748L243 747L244 756L238 755L236 759L236 766L240 767L232 774L232 776C234.28 778.674 233.373 779.852 230 780C229.402 784.079 230.962 785.351 235 785L241 792C251.554 788.026 267.052 796.167 278 798C275.588 803.026 273.883 806.339 268 807L268 808L285 807C284.919 817.43 282.02 819.162 273 823L273 824C281.369 824.172 284.669 823.171 292 819L291 828L287 832L298 831L297 834C301.646 832.546 306.112 831.405 309 836L303 838L304 844C294.077 847.115 284.518 847.258 280 858L290 864L296 859L297 859C296.97 867.41 293.54 870.67 286 874L286 876L294 876L300 868L290.16 884.089L289 895L289 896L291 900L295 901L295 906L303.306 893L315 879L316 882L327 882L329 889L331 889L333 877L336 877L337 877L341 880L337.887 893.907L329 904C336.959 907.417 347.383 899.183 348 891C352.569 896.245 343.948 909.103 343 916L342 916L340 914L335 925L336 925C339.601 921.231 342.262 921.035 347 923L352 919L348 926L355 925L346 935L344 944L353 940C352.722 946.338 344.449 952.721 340 957L340 958L341 960L355.09 961.226L367 961L369 958L370 968L371 968L372 964L379 955L384 958L388 955L384 959L383 959C381.28 962.485 376.146 966.561 380 970L380 966L383 976C379.586 976.553 381.872 980.827 384.963 980.5C390.336 979.931 395.461 972.625 400 970C401.854 981.699 391.45 983.076 387 992L388 993L407 987L408 992C399.477 995.333 401.713 1004.81 401 1012C403.559 1011.26 405.554 1008.65 406 1012L407 1012L416 1003L415 1008L424 1004L423 1009L431 1007C432.11 1013.09 424.413 1025.12 433 1027L432 1032L437 1034L439 1029L449 1034L451 1027C460.9 1028.22 470.092 1033.56 471 1044L484 1046L487 1033L492 1033L484.708 1012L483 991C490.936 990.236 490.794 981.07 489 975C495.188 979.012 492.447 993.369 493 1000L494 1000C494.71 996.535 495.513 994.892 499 994L503 985L504 985L509 989L511 981L515 985L516 985L518 976L519 976L522 977L522 981L523 981L524 978C529.256 980.618 532.367 986.486 534 992L545 996L546 996L547 986L548 986L555 1000L558 997L558 1002C564.923 1000.03 555.019 985.811 560 980L559 975L564 973L566 980L570 979L569 982C581.189 977.836 571.889 957.272 570 949L568 950L563 944L568 939C569.228 947.193 574.271 951.661 581 956L583 933L586 935L587 925L588 925L588 933C597.207 929.947 592.102 920.609 593 913L594 913L594 916C598.143 911.892 595.512 906.354 595.197 901.015C594.965 897.093 597.445 893.918 597.343 889.996C597.226 885.503 594.222 882.701 595 878L602 879L600 882L609 883L612 877C615.832 882.733 610.665 886.771 608 892C611.314 892.499 612.38 891.941 614 889L620 889L618 898L627 890L638 916L640 911L641 911L645 920L651.496 928.819L651 937L655 934L661 938L663 934C664.485 938.355 668.368 943.368 668.27 948C668.059 957.961 657.898 967.847 652.174 975C645.633 983.175 636.933 998.032 634 1008L635 1009L637 1009L643 1003L627 1026C635.683 1021.92 647.764 1018.06 649 1007L653 1006L652 1003L661 1002C672.05 990.152 681.013 981.794 695.985 975.326C698.97 974.036 701.786 970.457 705.039 970.167C712.843 969.47 723.649 979.357 712 983L712 984L714 988C702.048 990.735 693.524 1000.68 684.946 1008.41C680.148 1012.73 674.061 1013.86 669.329 1017.6C665.305 1020.78 662.512 1027.57 660 1032L663 1039L664 1039L664 1036L666 1044L672 1039C677.28 1040.11 678.714 1038.16 679 1033C688.663 1034.58 684.942 1045.16 687 1052L694 1049L695 1055L701 1052L699 1068L712 1058L713 1058L723 1040L726 1041C718.507 1055.2 707.776 1062.7 711 1080L740 1080L745 1067L744 1070C750.965 1070.6 748.905 1063.76 753 1060C751.639 1050.18 753.083 1046.39 760 1041L761 1041L765 1050L767 1046L780 1051L780 1052L773 1065C777.607 1062.3 779.602 1059.06 781 1054L782 1054L783 1064C789.472 1057.84 785.48 1050.56 785 1043L788 1043C788.325 1047.9 790 1054.26 795 1056L796 1068L790 1069C790.581 1072.49 791.44 1073.55 795 1073L796 1080L805 1076L806 1080L811 1080C811.659 1072.44 809.237 1060.49 815 1055L815 1080L820 1073L821 1073L821 1080C824.692 1079.88 826.777 1079.69 828 1076C833.367 1079.86 851.706 1083.81 857.415 1078.4C861.955 1074.09 860.138 1068.15 866 1064L865 1076L871 1072L870 1065L874 1066C875.5 1058.31 873.983 1055 880 1049C883.223 1053.99 885.781 1049.15 888.255 1046C892.578 1040.47 895.346 1031.71 898 1025L904 1031L900 1038L902 1035L909 1035L904 1054C913.371 1053.29 916.7 1044.49 915.525 1036C915.022 1032.36 913.601 1025.05 918.823 1023.74C921.079 1023.17 924.691 1025.55 927 1026L925 1019L930 1018L932 1030C937.743 1030.55 940.576 1035.13 943 1040C937.346 1043.46 937.125 1054.76 943 1058C943.132 1042.06 951.94 1029.8 940 1015L941 1014C949.369 1022.91 959.999 1022.89 960 1036L966 1033L967 1039L968 1039L970 1016L974 1017C975.423 1009.17 980.569 1005.34 978 997C987.713 1001.12 983.978 989.927 986 985C989.052 994.65 983.435 1010.54 994 1016L993 1011C1008.29 1015.6 995.564 1035.76 994 1045C998.2 1047.32 1004.06 1076.28 1011 1065L1008 1063C1013.73 1062.38 1016.38 1060.54 1013 1055L1020 1051L1022 1051L1027 1055C1027.22 1051.37 1026.07 1049.9 1023 1048L1025 1034L1028 1040L1025 1040L1025 1044L1029 1044L1028 1040C1043.76 1042.24 1039.15 1061.16 1046 1072L1040 1077L1047 1079C1048.57 1071.33 1051.22 1061.67 1048.35 1053.95C1046.05 1047.75 1039.93 1042.34 1039.1 1035.42C1038.63 1031.46 1040.81 1027.06 1041 1023L1042 1023L1043 1035L1043 1036L1055.23 1053L1058.3 1062.95L1067 1062C1064.34 1066.11 1065.36 1068.09 1068 1072L1083 1067L1084 1080L1085 1080L1085 1061L1094 1063L1093 1067L1092 1067L1090 1065C1091.45 1071.09 1090.58 1075.87 1096 1080L1098 1069L1101 1069L1106 1076C1113.14 1064.59 1093.09 1055.76 1087.05 1047.96C1082.94 1042.65 1082.69 1037.12 1081 1031L1079 1031L1078 1036C1072.84 1030.56 1078.84 1022.36 1083.01 1018C1087.17 1013.65 1090.75 1007.81 1095.51 1004.15C1103.11 998.313 1110.02 995.534 1117 988C1120.11 995.623 1121.01 1008.07 1129 1012C1128.35 1007.88 1128.13 1006.14 1132 1004L1133 1007L1134 1007L1136 1001L1129 991C1131.15 983.654 1124.8 973.147 1133 969L1135 978C1146.35 979.768 1149.35 987.798 1154 997L1157 996L1153 990C1160.16 990.329 1157.78 997.376 1156 1002L1160 1003L1159 1006L1164 1007C1162.14 1011.01 1163.42 1012.65 1166 1016L1171 1016C1167.99 1007.09 1160.35 986.012 1169.43 977.927C1171.91 975.715 1176.93 979.131 1179.95 978.809C1183.5 978.428 1185.09 974.661 1188 973L1197 1001L1201 999L1213 1008L1211 987L1214 991C1220.71 996.79 1226.56 1013.42 1229 1022L1232 1021C1232 1026.43 1230.85 1033.75 1236 1037L1232 1013L1233 1013L1238 1020C1237.99 1015.8 1237.5 1002.41 1245 1008L1242 1009L1243 1012L1245 1012C1249.83 1004.7 1249.73 1001.29 1248 993L1253 996L1250 977L1253 978L1256 984L1255 974C1259.19 974.036 1261.93 972.67 1264 969L1271 984L1274 984C1273.75 980.055 1272.56 969.577 1270.2 966.588C1265.68 960.841 1249.57 953.11 1265 948L1260 935C1263.52 938.552 1267.56 942.18 1269.31 947C1272.44 955.602 1269.44 962.136 1280 965L1275 947L1276 947C1276.22 948.683 1276.39 950.381 1276.86 952.02C1280.47 964.498 1286.41 949.566 1291 948L1288 961L1290 961L1290 956L1294 961L1297 960L1304 976C1308.6 972.909 1306.47 968.725 1306.09 964C1305.2 952.599 1300.97 940.05 1295 930C1298.36 927.545 1297.47 924.832 1297 921C1309.12 926.666 1314.96 936.927 1316 950L1326 943C1317.62 948.94 1322.55 953.849 1324 962C1328.21 961.95 1332.08 961.955 1332 957L1331 957L1327 961L1329 951L1340 960L1341 956L1344 957L1344 953L1348 953L1348 952C1353.43 954.892 1357.23 959.359 1360 951L1382 952L1381 937L1382 937C1383.78 942.967 1388.61 948.886 1394 952L1396 943L1400 948L1402 948C1404.62 938.912 1401.53 934.189 1398 926L1401 928C1400.23 924.02 1398.46 920.667 1403 919L1402 916L1405 917L1406 915L1406 914L1404 911L1407 908L1412 907L1413 907L1422 907L1424 904L1427 908L1428 901L1428 905L1436 908L1435 912C1439.18 911.108 1439.84 905.907 1436 904L1436 903L1433 889L1435 889L1436 892L1437 892C1441.97 885.414 1453.8 885.544 1451 875L1457 877L1464 870L1463 865L1464 867L1465 867L1462 860C1471.62 860.586 1478.23 859.892 1474 849C1479.01 850.028 1483.37 847.999 1485 843L1490 844C1492.18 838.024 1492.03 828.348 1500 828C1501.59 822.717 1501.43 820.204 1496 818C1497.79 809.851 1497.38 809.677 1505 806C1502.17 799.659 1503.59 796.166 1506 790C1492.82 785.987 1476.66 781.798 1463 785.58C1455.79 787.576 1449.71 787.587 1449 796L1435 779L1438 782L1451 780C1450.22 776.286 1449.79 773.33 1446 772L1446 771C1451.17 770.369 1462.24 770.297 1464 765L1467 766L1468 760L1463 764L1457 759C1469.73 755.627 1484.95 761.59 1498 760.542C1504.88 759.989 1507.42 754.002 1500 752L1500 750L1506 749C1503.12 744.605 1499.37 740.615 1494 740L1494 739L1504 738C1502.57 733.392 1498.69 730.722 1494 730C1495.36 721.302 1501.07 726.682 1507 725.097C1520.81 721.408 1529.14 715.703 1544 716C1542.75 711.583 1540.24 711.096 1536 712L1531 703L1515 698L1515 697L1529 696L1529 693L1525 696L1524 696L1522.09 683.314L1511 673L1512 671L1517 670L1516 668L1516 667C1519.44 669.316 1521.22 669.918 1525 668L1524 670L1525 670C1538.13 669.864 1548.81 683.939 1551 696L1577 708L1578 704C1584.24 701.018 1589.24 690.112 1589.4 683.17C1589.52 677.892 1584.49 671.698 1582.42 667C1576.55 653.651 1573.58 639.909 1564.47 628C1559.99 622.142 1552.79 618.963 1550 612L1555 612L1540 596C1545.97 593.521 1546.73 588.881 1545 583L1550 582L1545 568L1545 567L1566 567C1568.78 572.059 1573.67 572.962 1579 574L1580 565L1578 551L1582 552L1577.4 538.665L1577.97 527.499L1566.03 520.467L1555 505L1559 495C1554.61 494.665 1552.71 493.444 1552 489L1557 484C1561.3 484.115 1570.48 481.309 1572 477L1573 477C1575.4 481.615 1583.33 486.818 1587 481L1588 481L1588 484L1591 483C1589.21 478.479 1586.85 476.544 1582 476L1582 475C1589.07 474.937 1604.86 473.174 1604 464C1609.32 460.26 1608.25 452.221 1603 449L1609 440L1605 436L1614 428L1613 419L1591 416C1591.73 408.416 1583.31 408.96 1579.91 403.671C1576.12 397.77 1578.07 388.379 1574 383L1574 382L1578 371L1573 372L1570 353L1563 356C1565.72 351.129 1568.18 346.452 1566 341L1565 341L1563 344L1557 335C1563.12 332.781 1572.91 332.2 1577.93 328.347C1581.22 325.819 1580.79 322.367 1582.89 319.224C1585.08 315.947 1590.11 312.794 1593.29 310.438C1598.85 306.312 1609.03 304.182 1611 297L1612 300L1616 297L1613 296C1615.99 290.427 1618.48 291.29 1624 292L1625 285L1620 281L1619 281L1620 284L1617 279L1616 279L1616 282L1612 282C1612.46 277.458 1616.66 271.716 1615.8 267.313C1615.18 264.15 1609.07 261.858 1607 264L1606 264L1606 256L1600 259L1604 252L1604 251L1581 252L1591 244L1588 239L1587 239C1583.27 241.903 1581.62 242.064 1579 238L1577 238L1575 242L1573 242L1572 237L1509 248C1506.76 243.685 1499.97 239.458 1496 244C1488.36 241.145 1481.69 243.523 1474 244.556C1470.51 245.024 1465.81 244.245 1465 248L1464 248L1464 243L1462 244L1464.54 234.423L1448 236C1455.38 219.336 1435.15 230.853 1428 234L1431 227L1416 225L1415 225L1412 228C1409.26 219.758 1381.49 226.496 1379 234L1378 225L1372 220L1373 216L1374 218L1375 218C1374.52 215.091 1374.14 211.285 1377 212L1391 195L1394 196C1396.12 190.372 1401.45 185.068 1399 179C1404.43 175.861 1414.56 164.023 1416.12 158C1418.47 148.882 1415.49 140.286 1419.53 131C1424.77 118.959 1436.58 111.18 1434.81 96.0394C1432.68 77.7336 1407 92.6903 1401 98.1697C1395.64 103.058 1389.25 106.274 1384.01 111.105C1375.6 118.875 1372.04 128.132 1367 138L1366 138L1361 134L1358 152L1352 146L1354 150L1342 145L1337 152L1336 149L1331 152L1329 123C1325.16 124.491 1311.56 130.794 1311 127C1306.7 128.045 1294.23 133.285 1291.3 136.63C1289 139.262 1290.23 142.911 1288.98 145.956C1286.62 151.685 1276.19 156.217 1271 153C1267.82 155.579 1266.56 156.184 1263 154L1262 154L1256 156L1253 137C1242.3 143.24 1245.43 131.979 1236.98 129.968C1228.23 127.887 1226.18 133.346 1219 135.114C1216.08 135.833 1212.79 133.69 1210 133L1209 138L1202 133L1201 136C1193.07 137.563 1198.35 147.491 1198 153L1196 149L1195 149L1193 154C1196.38 154 1194.45 162.64 1192.67 164.833C1190.71 167.231 1189.48 165.391 1187.17 165.333C1185.76 165.298 1186.09 167.193 1186 168L1183 166L1162 175L1162 180L1155 173L1153 178L1152 178L1151 162L1144 168L1141 162L1133 186L1132 186C1131.94 179.671 1130.81 176.376 1124 176L1131 157L1129 157L1116 175L1115 175L1116 163C1110.8 164.564 1109.74 169.006 1109 174L1104 174C1105.08 167.008 1113.21 160.109 1118 155L1118 154C1111.66 148.183 1117.51 131.842 1120 124L1112 119C1128.18 114.493 1133.96 104.19 1134 88L1135 88L1136 94L1137 94L1139 87L1142 88L1142 80L1138 79L1137 84C1125.3 83.0337 1127.55 96.41 1119.7 98.4229C1112.96 100.15 1111.52 91.7063 1115 88L1115 93C1121.93 86.5281 1115.1 77.112 1116.21 69C1116.9 63.9939 1120.22 58.9391 1120.37 54.0039C1120.46 51.0939 1118.81 49.0277 1117 47L1120 41L1116 45L1110 40L1109 40L1108 46C1104.75 41.4838 1103.94 36.4567 1105 31C1101.42 31.7634 1101.35 34.6357 1101 38L1099 33C1095.59 29.864 1091.67 20.7961 1087 28L1078 27L1080 31L1080 32C1076.22 33.5037 1072.7 34.2681 1074 29L1064 30L1064 23L1058 30C1055.88 21.1194 1058.17 6.20837 1050 0L1047 24L1046 24L1046 7L1045 7L1036 28L1040 11L1036 0L1020 3C1018.9 -2.15051 1008.41 0 1004 0C1003.92 9.41553 1004.75 33.5039 995 37L999 16L988 35L987 19C982.748 19.911 983.997 25.2939 983 29L981 29L979 26C977.173 30.6871 977.985 33.5413 983 35L980 40C979.144 36.9698 978.081 36.7169 975 37L975 34L974 34C965.659 39.9994 959.02 49.199 956 59L955 59L952 51L947 56L943 39C938.007 40.6659 936.98 46.2455 936 51L932 46L923 49L922 53L917 52L920 47L914 41L905 42L904 47L899 44L904 40L904 39L890 33L889 33L889 38C885.439 34.939 883.998 31.6958 884 27L880 27L884 48L878 48C877.149 41.304 875.915 36.359 869 34L868 35L870 42L856 29L849 36L843 29L842 35L841 35L837 33L836.357 46.5339L831.544 45.7971L812 30L814 37L819 44L809 35C807.015 46.5138 810.54 47.5831 797 47L799 51C790.6 52.5465 782.596 48.843 780 41L771 45L776 44C772.343 48.8337 766.588 47.2697 766 55C761.939 55.6332 760.15 57.0342 759 61L751 59C745.301 65.4398 746.348 55.8395 740.961 55.7122C729.93 55.4515 743.162 72.4945 744 76L742 73C736.688 75.7 734.362 80.2297 736 86L726 77L721 79L719 76L719 75L720 70L714 71L718 76L715 82L706 73C706.79 79.3459 709.03 84.4109 707.563 90.9985C705.906 98.4444 700.743 94.0582 700 89C696.013 88.3632 694.645 87.0912 695 83L693 73L691 73L685 76L680.143 43L686.96 18.0146L686 0L647 0C642.36 0 634.656 -1.47229 630.419 0.603394C624.768 3.37158 622.169 18.5101 619.596 24C617.065 29.4012 612.466 33.5077 609.961 39C602.052 56.3353 597.97 79.2214 606 97z"/>
<path style="fill:#fdfdfd; stroke:none;" d="M686 0L686.728 18.0934L680.054 43L685 76L691 73L693 73C692.908 77.1285 691.21 80.2573 695 83C693.995 87.4147 695.681 88.6635 700 89C700.362 93.7886 705.679 99.3875 707.661 91.9699C709.527 84.988 707.427 79.6802 706 73L715 82L718 76L714 71L720 70L719 75L719 76L721 79L726 77C727.882 81.3204 731.493 84.598 736 86C734.399 79.9517 737.583 73.0585 744 76C743.404 71.5762 732.299 59.5605 739.158 56.6049C744.865 54.1459 746.198 67.0321 751 59L759 61L766 55L776 44L771 45L780 41C782.083 49.2621 790.448 53.3231 799 51L797 47C810.457 48.071 808.34 46.8721 809 35L819 44L814 37L812 30L830.88 45.8511L836.393 47.338L837 33L841 35L842 35L843 29L849 36C853.251 35.1005 854.978 33.1959 856 29L870 42L868 35L869 34C875.244 37.251 876.753 41.408 878 48L884 48L880 27L884 27C883.323 31.6476 884.849 35.6382 889 38L889 33L890 33C892.907 37.4773 898.905 38.4928 904 39L904 40L899 44L904 47L905 42L914 41C914.636 44.9933 916.007 46.3641 920 47L917 52L922 53L923 49L932 46L936 51L943 39L947 56L952 51L955 59L956 59C960.327 49.3032 966.175 40.2684 975 34L975 37C978.032 36.7855 978.946 37.1324 980 40L983 35C978.724 32.8928 977.896 30.5658 979 26L981 29L983 29L987 19L988 35L999 16L995 37C1005.09 34.8519 1003.98 8.94019 1004 0L686 0M1020 3L1023 0L1020 3M1036 0L1040 11L1036 28C1041.11 24.6133 1044.16 12.9633 1045 7L1046 7L1046 24L1047 24L1050 0L1036 0M1052 0L1058 30L1064 23L1064 30L1074 29C1072.07 34.7047 1076.09 34.3616 1080 32L1080 31L1078 27L1087 28C1092.92 22.0452 1094.47 30.2427 1099 33L1101 38L1105 31C1103.62 36.0198 1104.19 42.2745 1108 46L1109 40L1110 40L1116 45L1120 41L1117 47C1122.37 55.0232 1116.51 61.3325 1116.04 70C1115.59 78.4082 1120.69 85.6568 1115 93L1115 88C1110.1 91.5336 1113.16 100.393 1119.7 99.0972C1127.18 97.6135 1126.05 83.7079 1137 84L1138 79L1142 80L1142 88L1139 87L1137 94L1136 94L1135 88L1134 88C1133.86 104.852 1126.98 112.546 1112 119C1114.26 122.342 1115.81 124.159 1120 124C1117.08 130.914 1111.25 149.563 1118 154L1118 155C1112.51 159.13 1104.53 166.967 1104 174L1109 174C1110.13 169.143 1111.36 165.317 1116 163L1115 175L1116 175L1129 157L1131 157L1124 176C1130.27 176.704 1131.86 180.038 1132 186L1133 186C1137.67 177.031 1140.54 172.383 1141 162L1144 168L1151 162L1152 178L1153 178L1155 173L1162 180L1162 175C1168.23 172.432 1180.52 172.39 1183 166L1186 168C1187.79 165.367 1190.12 167.292 1192.37 165.306C1194.62 163.322 1196.27 154.548 1193 154L1195 149L1196 149L1198 153C1198.59 147.474 1193.74 138.385 1201 136L1202 133L1209 138L1210 133L1236.98 130.698L1245.39 139.623L1253 137L1256 156L1262 154L1263 154C1266.14 157.172 1268.27 156.215 1271 153C1275.64 156.964 1286.51 152.407 1288.99 146.892C1290.38 143.815 1289.02 139.902 1291.35 137.26C1294.59 133.594 1306.33 128.845 1311 127C1311.57 131.665 1325.44 125.039 1329 123L1331 152L1336 149L1336 152L1337 152L1342 145L1354 150L1352 146L1358 152L1361 134L1366 138L1367 138C1373.34 128.699 1376.26 119.075 1385 111.105C1389.98 106.567 1396 103.767 1401 99.0887C1406.75 93.7032 1433.58 77.7072 1434.68 97.0146C1435.51 111.51 1424.61 118.324 1419.53 130C1415.46 139.353 1418.05 147.815 1415.83 157C1414.17 163.844 1404.36 174.37 1399 179L1394 196L1391 195L1377 212C1374.09 212.462 1374.66 215.383 1375 218L1374 218L1373 216L1372 220L1378 225C1376.65 228.816 1376.03 231 1379 234C1382.32 227.03 1407.61 220.258 1412 228L1415 225L1416 225C1420.5 229.594 1425.36 226.219 1431 227L1428 234C1436.26 231.533 1453.11 219.211 1448 236L1464.25 234.246L1462 244L1464 243L1464 248L1465 248L1465 245L1496 244C1500.82 240.408 1505.75 243.864 1509 248L1572 237L1573 242L1575 242L1577 238L1579 238C1581.05 242.806 1583.69 242.941 1587 239L1588 239L1591 244L1581 252L1604 251L1604 252L1600 259L1606 256L1606 264L1607 264C1619.69 258.527 1612.23 277.609 1612 282L1616 279L1617 279C1617.06 281.993 1616.95 283.346 1620 284L1619 281L1620 281L1625 285L1624 292C1618.47 290.771 1615.24 289.637 1613 296L1616 297C1613.64 298.761 1613.13 299.008 1611 297L1611 300L1583.5 317.684L1576.97 328.387L1557 335L1563 344L1565 341L1566 341C1567.86 346.622 1565.04 350.828 1563 356L1570 353L1573 372L1578 371L1574 382L1574 383L1579.26 403.671L1591 416L1613 419L1614 428C1609.85 429.889 1606.36 431.454 1605 436L1609 440C1604.92 442.012 1603.62 444.587 1603 449C1607.71 453.388 1608.57 459.138 1604 464C1603.1 472.783 1589.49 474.824 1582 475L1582 476L1588 481L1587 481C1582.12 485.567 1576.48 481.44 1573 477L1572 477C1569.51 481.261 1561.73 483.073 1557 484L1552 489C1552.38 493.89 1554.28 494.845 1559 495L1555 505L1565.42 520.467L1577.4 527.499L1577.12 539.089L1582 552L1578 551L1580 565L1579 574L1566 567L1545 567L1545 568L1550 582L1545 583C1546.42 589.054 1545.42 592.696 1540 596L1555 612L1550 612C1552.01 619.525 1559.88 622.994 1564.47 629C1571.74 638.517 1574.06 648.314 1578.21 659C1584.3 674.66 1596.33 690.778 1578 704L1577 708C1568.54 705.066 1560.16 693.789 1551 696C1550.04 684.061 1537.29 667.432 1524 670L1525 668L1524 668L1516 667L1517 670L1512 671L1511 673L1521.98 684.147L1524 696L1525 696L1525 693L1529 693L1529 696L1515 697L1515 698L1531 703C1529.35 707.698 1532.95 708.862 1536 712C1540.13 711.499 1542.21 712.125 1544 716C1529.19 715.366 1520.68 720.532 1507 724.62C1501.01 726.41 1494.7 720.93 1494 730L1504 738L1494 739L1494 740L1506 749L1500 750L1500 752C1506.8 754.787 1503.48 760.212 1497 760.212C1485.18 760.213 1468.1 754.99 1457 759L1463 764L1468 760L1467 766L1464 765C1461.09 770.269 1451.61 769.847 1446 771L1446 772L1451 780L1438 782L1435 779L1449 796C1450.49 788.055 1455.93 787.772 1463 785.863C1476.97 782.092 1492.36 786.713 1506 790C1502.84 795.72 1501.46 800.147 1505 806C1496.96 808.683 1496.92 809.857 1496 818C1500.66 820.805 1500.89 822.857 1500 828C1491.98 826.839 1491.54 838.163 1490 844L1485 843C1482.61 847.419 1479 849.4 1474 849C1476.55 859.711 1471.72 860.228 1462 860L1465 867L1464 867L1463 865L1464 870L1457 877L1451 875C1452.89 886.073 1440.89 884.205 1437 892L1436 892L1435 889L1433 889L1436 903L1436 904C1438.51 907.054 1438.41 909.823 1435 912L1436 908L1428 905L1428 901L1427 908L1424 904L1422 907L1413 907L1412 907L1407 908L1404 911L1406 914L1405 917L1403 916L1402 916L1403 919C1398.36 920.317 1399.93 924.198 1401 928L1398 926C1400.48 934.416 1403.9 938.802 1402 948L1400 948L1396 943L1394 952L1382 937L1381 937L1382 952L1360 951C1356.32 958.717 1353.78 953.891 1348 952L1348 953L1350 954L1344 953L1344 957L1341 956L1340 960L1329 951L1327 961L1331 957L1332 957C1330.92 961.369 1328.22 961.863 1324 962C1323.12 953.394 1318.8 950.013 1326 943L1316 950C1315.47 937.674 1309.8 924.633 1297 921L1295 930C1299.51 940.957 1305.48 952.216 1306.04 964C1306.28 968.988 1307.94 972.179 1304 976L1297 960L1294 961L1290 956L1290 961L1288 961L1291 948C1285.61 949.155 1280.87 963.585 1276.86 951.043C1276.45 949.749 1276.26 948.327 1276 947L1275 947L1280 965C1267.21 960.243 1271.7 943.308 1260 935L1265 948C1256.42 950.163 1255.86 957.434 1263.27 963.262C1265.26 964.828 1268.51 964.89 1270.03 967.029C1272.2 970.091 1273.52 980.058 1274 984L1271 984L1264 969L1255 974L1256 984L1250 977L1253 996L1248 993C1249.17 1001.64 1248.72 1004.04 1245 1012L1243 1012L1242 1009L1245 1008L1244 1005C1236.47 1007.18 1237.95 1013.58 1238 1020L1233 1013L1232 1013L1236 1037C1231.5 1032.71 1232 1026.85 1232 1021L1229 1022C1227.44 1014.45 1220.69 994.779 1214 991L1211 987L1213 1008L1201 999L1197 1001L1188 973C1184.73 974.129 1183.39 978.004 1179.95 978.578C1176.65 979.126 1172.65 975.598 1169.6 977.364C1165.08 979.978 1166.13 988.005 1166.57 992C1167.62 1001.39 1166.62 1006.63 1171 1016L1166 1016L1164 1007L1159 1006L1160 1003L1156 1002C1158.17 997.789 1160.43 988.865 1153 990L1157 996L1154 997C1150.71 988.191 1146.14 977.48 1135 978L1133 969C1124.49 971.584 1130.57 984.15 1129 991L1136 1001L1134 1007L1133 1007L1132 1004C1127.72 1005.66 1127.93 1007.87 1129 1012C1121.2 1006.33 1121.43 995.907 1117 988C1104.24 997.898 1091.95 1006.78 1081.11 1019C1077.71 1022.83 1072.49 1032.38 1078 1036L1079 1031L1081 1031C1082.18 1038.02 1082.84 1044.17 1087.82 1049.82C1094.46 1057.34 1111.01 1064.45 1106 1076L1101 1069L1098 1069L1096 1080L1108 1078L1109 1078L1123 1080L1160 1080L1310 1080L1920 1080L1920 0L1052 0z"/>
<path style="fill:#040404; stroke:none;" d="M1062 17L1062 20L1064 20L1064 17L1062 17M880 19L881 20L880 19M978 19L979 20L978 19z"/>
<path style="fill:#fdfdfd; stroke:none;" d="M1018 19L1019 20L1018 19M1080.67 29.3334L1081.33 29.6666L1080.67 29.3334z"/>
<path style="fill:#040404; stroke:none;" d="M803 30L807 33L807 32L803 30z"/>
<path style="fill:#fdfdfd; stroke:none;" d="M1088.33 30.6666L1088.67 31.3334L1088.33 30.6666M844 34L843 40L844 40L844 34M1032 35L1033 36L1032 35M1072 36L1072 42L1076 40L1076 39L1074 36L1072 36M972 37L972 38L975 38L972 37M987 42L989 37C985.959 37.9357 983.942 39.6233 987 42z"/>
<path style="fill:#040404; stroke:none;" d="M1115 37L1116 38L1115 37z"/>
<path style="fill:#fdfdfd; stroke:none;" d="M888 39L889 40L888 39M994 39L995 40L994 39M1099 40L1099 44L1100 44L1099 40z"/>
<path style="fill:#040404; stroke:none;" d="M1113 40L1114 41L1113 40M807 41L808 42L807 41z"/>
<path style="fill:#fdfdfd; stroke:none;" d="M993 42L991 48L992 48L993 42z"/>
<path style="fill:#040404; stroke:none;" d="M806 43L807 44L806 43M804 45L804 47L806 47L806 45L804 45z"/>
<path style="fill:#fdfdfd; stroke:none;" d="M1098 47L1099 48L1098 47M777 50L777 52L779 52L779 50L777 50M989 50L990 51L989 50z"/>
<path style="fill:#040404; stroke:none;" d="M747 51L747 53L749 51L747 51z"/>
<path style="fill:#fdfdfd; stroke:none;" d="M932 56L935 53L932 56M925 56L925 60L926 60L925 56M1103 59L1104 60L1103 59M931 63L932 64L931 63M739 81L742 84L739 81M712 87C711.717 90.0806 711.97 91.1442 715 92L714 87L712 87z"/>
<path style="fill:#040404; stroke:none;" d="M1417 87L1418 88L1417 87z"/>
<path style="fill:#fdfdfd; stroke:none;" d="M738 89L739 90L738 89M721.333 94.6667L721.667 95.3333L721.333 94.6667z"/>
<path style="fill:#040404; stroke:none;" d="M1135.33 98.6667L1135.67 99.3333L1135.33 98.6667z"/>
<path style="fill:#fdfdfd; stroke:none;" d="M1113 99L1114 100L1113 99M688 136L689 136L691 132L694 133L694 136L688 143L693 141C692.391 149.235 690.06 160.29 694.434 167.957C700.851 179.207 717.796 184.23 724 196L728 196L728 200L733 196L729 185L723 183L722 186L716 184L722 180L727 176L728 179C737.661 174.94 751.191 189.146 760 194L761 189L762 173C769.462 173.285 774.888 183.605 780.945 182.963C785.275 182.504 784.709 177.027 785.223 174C786.784 164.815 787.727 160.693 783 152L782 152C779.371 166.475 768.358 158.361 760 154.68C746.619 148.786 734.376 142.357 723.275 132.455C719.816 129.37 718.432 124.554 714.958 121.286C712.071 118.57 697.377 106.8 701 104L694.897 106.279L688 136z"/>
<path style="fill:#040404; stroke:none;" d="M506.667 107.333L507.333 107.667L506.667 107.333M587 123L589 125L589 123L587 123z"/>
<path style="fill:#fdfdfd; stroke:none;" d="M583 129L582 132L583 129M1111 133L1109 136L1113 136L1111 133z"/>
<path style="fill:#040404; stroke:none;" d="M1195 135L1195 139L1196 139L1195 135z"/>
<path style="fill:#fdfdfd; stroke:none;" d="M1199 136L1200 137L1199 136z"/>
<path style="fill:#040404; stroke:none;" d="M486 139L489 144L490 144L486 139M563 139L564 140L563 139z"/>
<path style="fill:#fdfdfd; stroke:none;" d="M1099 145C1098.43 147.396 1098.53 147.487 1101 148L1099 145M1093 149L1094 150L1093 149z"/>
<path style="fill:#040404; stroke:none;" d="M475 153L474 156L475 153z"/>
<path style="fill:#fdfdfd; stroke:none;" d="M485 157L485 160L487 157L485 157z"/>
<path style="fill:#040404; stroke:none;" d="M1152 159L1153 160L1152 159M1117 161L1118 162L1117 161M477 163L477 168L478 168L477 163M762 171L763 172L762 171M1156 171L1157 172L1156 171M714 172L719 178L720 174L714 172z"/>
<path style="fill:#fdfdfd; stroke:none;" d="M1114 176L1112 186C1114.92 183.114 1115.36 179.876 1114 176M1164 176L1164 178L1166 178L1164 176M1101 177L1099 180L1100 181L1101 177z"/>
<path style="fill:#040404; stroke:none;" d="M756 179L757 180L756 179z"/>
<path style="fill:#fdfdfd; stroke:none;" d="M484 183L485 184L484 183z"/>
<path style="fill:#040404; stroke:none;" d="M479 184L480 185L479 184z"/>
<path style="fill:#fdfdfd; stroke:none;" d="M785 185L784 194C787.113 191.252 787.979 189.058 787 185L785 185M1141 185L1142 186L1141 185z"/>
<path style="fill:#040404; stroke:none;" d="M722 186L723 187L722 186M413 187L413 188L416 188L413 187z"/>
<path style="fill:#fdfdfd; stroke:none;" d="M1124 196C1129.06 195.162 1129.93 191.613 1131 187C1125.74 188.113 1124.29 190.794 1124 196z"/>
<path style="fill:#040404; stroke:none;" d="M724 190L725 191L724 190z"/>
<path style="fill:#fdfdfd; stroke:none;" d="M1139 191L1140 192L1139 191M761 195L762 196L761 195M762 197L763 198L762 197z"/>
<path style="fill:#040404; stroke:none;" d="M365.667 199.333L366.333 199.667L365.667 199.333z"/>
<path style="fill:#fdfdfd; stroke:none;" d="M480 201L479 212L480 212L480 201M731.667 203.333L732.333 203.667L731.667 203.333z"/>
<path style="fill:#040404; stroke:none;" d="M463.333 207.667L463.667 208.333L463.333 207.667z"/>
<path style="fill:#fdfdfd; stroke:none;" d="M368 213L368 216L369 216L368 213z"/>
<path style="fill:#040404; stroke:none;" d="M1376 215L1377 216L1376 215M326 226L327 227L326 226z"/>
<path style="fill:#fdfdfd; stroke:none;" d="M329 229L332 233L331 229L329 229M348 229L350 232L348 229M474 230C473.649 233.582 474.556 234.913 478 236L474 230M455 235L458 240L457 235L455 235z"/>
<path style="fill:#040404; stroke:none;" d="M1575 235L1576 236L1575 235z"/>
<path style="fill:#fdfdfd; stroke:none;" d="M466 237L468 240L466 237M1424 239L1425 240L1424 239M1585.67 243.333L1586.33 243.667L1585.67 243.333z"/>
<path style="fill:#040404; stroke:none;" d="M326 244L326 246L328 246L326 244z"/>
<path style="fill:#fdfdfd; stroke:none;" d="M1578 254L1576 255L1576 256L1578 254M344 256L348 260L344 256z"/>
<path style="fill:#040404; stroke:none;" d="M1613 259L1613 260L1616 260L1613 259M327 263L328 264L327 263M1619 264L1618 268L1619 264M1624.67 279.333L1625.33 279.667L1624.67 279.333M1616 293L1618 296L1616 293M1598 309L1598 312L1601 311L1601 310L1598 309M308 319L309 320L308 319z"/>
<path style="fill:#fdfdfd; stroke:none;" d="M1574 323L1574 324L1578 324L1574 323M1571 327L1572 328L1571 327M316 329L318 332L318 329L316 329z"/>
<path style="fill:#040404; stroke:none;" d="M1584 329L1585 330L1584 329M1584 331L1585 332L1584 331z"/>
<path style="fill:#fdfdfd; stroke:none;" d="M304 355L304 358L306 355L304 355M296 369L298 372L296 369z"/>
<path style="fill:#040404; stroke:none;" d="M1580 371L1581 372L1580 371z"/>
<path style="fill:#fdfdfd; stroke:none;" d="M286.667 407.333L287.333 407.667L286.667 407.333z"/>
<path style="fill:#040404; stroke:none;" d="M1593 412L1596 412L1595 410L1593 412M278 413L276 416C278.251 415.527 279.118 415.14 278 413z"/>
<path style="fill:#fdfdfd; stroke:none;" d="M376 427L376 428L381 428L376 427M383 427L384 428L383 427M290 429L291 430L290 429M388 429L392 432L392 431L388 429M396 435L397 436L396 435z"/>
<path style="fill:#040404; stroke:none;" d="M281 436L280 440L281 436M287 448L288 449L287 448z"/>
<path style="fill:#fdfdfd; stroke:none;" d="M353 458L352 464L356 464L355 460L361 460L353 458M360.667 461.333L361.333 461.667L360.667 461.333z"/>
<path style="fill:#040404; stroke:none;" d="M306 486L308 490L306 486z"/>
<path style="fill:#fdfdfd; stroke:none;" d="M316 489C316.729 492.403 318.806 491.987 322 492L316 489M309 497C315.331 507.302 319.3 504.045 328 500L309 497M330.667 499.333L331.333 499.667L330.667 499.333M308.333 506.667L308.667 507.333L308.333 506.667M322 507L326 512L322 507M278 511L279 512L278 511M1539 595L1540 596L1539 595M308 605L310 608L308 605M1548.67 611.333L1549.33 611.667L1548.67 611.333M310.667 619.333L311.333 619.667L310.667 619.333z"/>
<path style="fill:#040404; stroke:none;" d="M294.667 625.333L295.333 625.667L294.667 625.333M294 637L293 639L294 637z"/>
<path style="fill:#fdfdfd; stroke:none;" d="M308 645L311 648L308 645z"/>
<path style="fill:#040404; stroke:none;" d="M282 667L283 668L282 667M288 672L289 673L288 672z"/>
<path style="fill:#fdfdfd; stroke:none;" d="M293 673L294 674L293 673M1510 675L1511 676L1510 675M1500 695L1500 696L1504 696L1500 695M1511 695L1512 696L1511 695M228 716L231 713L228 716M302 721L309 730L312 730L312 727C318 731.648 320.083 733.469 328 732C319.348 724.171 313.61 720.992 302 721M311 731L312 732L311 731M1487 735L1488 736L1487 735M1489.67 739.333L1490.33 739.667L1489.67 739.333M1442 747L1443 748L1442 747M1499 747L1500 748L1499 747M245.667 751.333L246.333 751.667L245.667 751.333M1417 759L1418 760L1417 759z"/>
<path style="fill:#040404; stroke:none;" d="M1471 762L1470 764L1472 764L1471 762z"/>
<path style="fill:#fdfdfd; stroke:none;" d="M248 763L249 764L248 763M1419 763L1419 765L1421 763L1419 763M1422 767C1423.59 771.717 1426.26 775.251 1431 777L1422 767M240.667 775.333L241.333 775.667L240.667 775.333M253 789L254 790L253 789z"/>
<path style="fill:#040404; stroke:none;" d="M1504 800C1504.96 803.06 1505.8 803.862 1509 804L1504 800z"/>
<path style="fill:#fdfdfd; stroke:none;" d="M287.333 810.667L287.667 811.333L287.333 810.667M1492 811L1493 812L1492 811M286 813L287 814L286 813M310 831L311 832L310 831M340 859L341 860L340 859M301 867L301 868L307 865L301 867M1457.67 871.333L1458.33 871.667L1457.67 871.333M341 873L342 874L341 873z"/>
<path style="fill:#040404; stroke:none;" d="M292 879L293 880L292 879M336 880L336 884L337 884L336 880z"/>
<path style="fill:#fdfdfd; stroke:none;" d="M299 883L300 884L299 883M1428 899L1428 901L1430 899L1428 899M1408 903L1408 904L1411 904L1408 903M589 909L588 912L589 909M1401 913L1401 916L1403 913L1401 913M1398 914L1398 916L1400 916L1398 914M1395 919L1394 924L1395 919M794 922L794 924L796 924L796 922L794 922M1396.67 925.333L1397.33 925.667L1396.67 925.333M778 927L772 932C775.49 931.729 778.202 930.934 778 927M573 935L574 936L573 935z"/>
<path style="fill:#040404; stroke:none;" d="M641.667 939.333L642.333 939.667L641.667 939.333z"/>
<path style="fill:#fdfdfd; stroke:none;" d="M1274 939L1275 940L1274 939z"/>
<path style="fill:#040404; stroke:none;" d="M1303 940L1302 944L1303 944L1303 940z"/>
<path style="fill:#fdfdfd; stroke:none;" d="M1291.67 943.333L1292.33 943.667L1291.67 943.333M367 947L366 952L367 947M1168 949L1170 952L1168 949M1347 951L1348 952L1347 951M373 953L372 956L373 953M669.667 953.333L670.333 953.667L669.667 953.333z"/>
<path style="fill:#040404; stroke:none;" d="M1263 953L1264 954L1263 953z"/>
<path style="fill:#fdfdfd; stroke:none;" d="M1049 955L1049 956L1053 956L1049 955z"/>
<path style="fill:#040404; stroke:none;" d="M336 959L336 960L339 960L336 959M1342.67 959.333L1343.33 959.667L1342.67 959.333z"/>
<path style="fill:#fdfdfd; stroke:none;" d="M1247 961C1247.79 965.953 1251.01 967.546 1254 963L1247 961z"/>
<path style="fill:#040404; stroke:none;" d="M369.333 962.667L369.667 963.333L369.333 962.667M1282 962L1282 968L1283 968L1284 962L1282 962z"/>
<path style="fill:#fdfdfd; stroke:none;" d="M1232 966C1233.65 971.368 1236.56 972.59 1242 972L1242 970L1232 966M1136 967L1137 968L1136 967M1145 969L1144 972L1147 972L1145 969M386 971L387 972L386 971M1244 971L1245 972L1244 971M513 973L513 976L514 976L513 973M1159 973C1159.43 977.693 1159.84 982.321 1164 985L1162 973L1159 973M664 974L645 998L646 999C653.052 993.624 663.94 982.663 666 974L664 974M1246 975L1247 976L1246 975z"/>
<path style="fill:#040404; stroke:none;" d="M1263.67 975.333L1264.33 975.667L1263.67 975.333M1169 989L1169 990L1176 986L1181 989L1185 984C1178.5 976.641 1174.5 984.683 1169 989M521 981L522 982L521 981M1260 981L1261 984L1260 981M378 983L379 984L378 983z"/>
<path style="fill:#fdfdfd; stroke:none;" d="M1221 983L1224 986L1221 983z"/>
<path style="fill:#040404; stroke:none;" d="M1168 984L1169 985L1168 984z"/>
<path style="fill:#fdfdfd; stroke:none;" d="M985 985C984.473 990.777 987.048 999.016 978 997L974 1017L970 1016L968 1039L967 1039L966 1033L960 1036C960 1023.29 950.612 1021.35 941 1014L940 1015C943.894 1021.54 947.809 1030.13 947.184 1038C946.637 1044.91 943.02 1050.7 943 1058C937.429 1053.36 937.757 1044.85 943 1040C941.24 1034.69 938.109 1029.48 932 1030L930 1018L925 1019L927 1026C924.511 1025.19 920.874 1022.58 918.225 1023.48C912.713 1025.35 915.033 1033.06 915.447 1037C916.286 1044.99 912.332 1052.71 904 1054C907.694 1046.72 910.052 1043.37 909 1035L900 1038L904 1031L898 1025C896.36 1027.83 893.407 1030.35 892.151 1033.29C890.621 1036.86 887.597 1056.19 880 1049C873.194 1053.94 874.806 1058.45 874 1066L870 1065L871 1072L865 1076L866 1064C859.298 1067.3 859.755 1073.67 857 1080L863 1077L864 1080L1084 1080L1083 1067L1068 1072L1067 1062L1064 1061C1062.06 1062.75 1059.82 1064.35 1057.64 1061.66C1055.9 1059.52 1056.81 1056.49 1056.1 1054C1054.22 1047.48 1048.95 1039.3 1043 1036L1043 1035L1042 1023L1041 1023L1039.14 1037L1048.44 1056L1047 1079L1040 1077L1046 1072C1041.12 1060.88 1042.95 1041.1 1028 1040L1029 1044L1025 1044L1025 1040L1028 1040L1025 1034C1020.53 1037.17 1023.65 1043.17 1023 1048L1027 1055L1022 1051L1020 1051L1013 1055C1015.69 1060.74 1013.41 1061.48 1008 1063L1011 1065C1002.5 1074.12 999.831 1046.94 994 1045C996.163 1036.83 1008.81 1013.61 993 1011L994 1016C982.878 1007.46 992.975 994.17 985 985M1206 985L1204 992L1206 985M979 989L981 994L979 989M1227 990L1227 992L1229 992L1227 990M971 991L972 992L971 991z"/>
<path style="fill:#040404; stroke:none;" d="M1213 992L1212 996L1216 995L1216 993L1215 992L1213 992z"/>
<path style="fill:#fdfdfd; stroke:none;" d="M419 995L420 996L419 995M934 997L934 1000L936 1000L936 997L934 997M1239 999L1240 1000L1239 999M975 1003L976 1004L975 1003M1228.67 1003.33L1229.33 1003.67L1228.67 1003.33M926.667 1007.33L927.333 1007.67L926.667 1007.33M954 1013L952 1016C954.251 1015.53 955.118 1015.14 954 1013M1167 1013L1168 1014L1167 1013M966 1015L967 1019L968 1019L968 1015L966 1015z"/>
<path style="fill:#040404; stroke:none;" d="M976 1016L975 1020L978 1019L976 1016z"/>
<path style="fill:#fdfdfd; stroke:none;" d="M951.333 1018.67L951.667 1019.33L951.333 1018.67z"/>
<path style="fill:#040404; stroke:none;" d="M1238 1021L1240 1028L1241 1028L1238 1021z"/>
<path style="fill:#fdfdfd; stroke:none;" d="M1033 1028L1033 1029L1036 1031L1038 1027L1033 1028z"/>
<path style="fill:#040404; stroke:none;" d="M622.667 1027.33L623.333 1027.67L622.667 1027.33z"/>
<path style="fill:#fdfdfd; stroke:none;" d="M720.667 1027.33L721.333 1027.67L720.667 1027.33M881 1027L881 1028L884 1028L881 1027M1008.67 1027.33L1009.33 1027.67L1008.67 1027.33M783 1029L786 1032L783 1029M1002 1029L1002 1032L1003 1032L1002 1029M717 1031L718 1032L717 1031M998 1033L998 1036L1000 1033L998 1033M794 1034L794 1036L796 1036L796 1034L794 1034M1073 1035L1074 1038L1073 1035M880 1038L879 1042L883 1039L880 1038M849 1039L850 1040L849 1039z"/>
<path style="fill:#040404; stroke:none;" d="M469 1041L469 1044L470 1044L469 1041z"/>
<path style="fill:#fdfdfd; stroke:none;" d="M753 1060L744 1070L745 1068L745 1067C740.767 1070 740.105 1075.09 740 1080L796 1080L795 1073C791.749 1072.87 790.948 1072.1 790 1069L796 1068L795 1056C790.605 1053.46 788.638 1047.9 788 1043L785 1043C785.239 1051.25 788.483 1056.59 783 1064L782 1054L781 1054L773 1065L780 1052L780 1051L767 1046L765 1050L761 1041L760 1041L759 1043C751.459 1037.86 752.125 1056.12 753 1060M862 1041L861 1042L861 1043L861 1044L865 1044L864 1041L862 1041M1007 1041L1005 1048L1007 1041M767 1042L766 1044L768 1044L767 1042M808 1043L808 1046L809 1046L808 1043M695 1046L695 1047L699 1048L698 1045L695 1046M816 1045L816 1047L818 1045L816 1045M1066 1045L1066 1050L1070 1049L1069 1045L1066 1045M703 1047L704 1048L703 1047M813 1055L811 1080L815 1080L815 1055L813 1055M799 1059L800 1060L799 1059M1068 1061L1069 1062L1068 1061M1076 1061L1077 1062L1076 1061M1085 1061L1085 1080L1095 1080L1090 1065L1092 1067L1093 1067L1094 1063L1085 1061M1075 1063L1075 1064L1078 1064L1075 1063z"/>
<path style="fill:#040404; stroke:none;" d="M772.333 1066.67L772.667 1067.33L772.333 1066.67z"/>
<path style="fill:#fdfdfd; stroke:none;" d="M804 1067L805 1068L804 1067M804 1069L804 1071L806 1069L804 1069M804 1072L805 1073L804 1072M820 1073L816 1080C820.545 1079.64 823.005 1077.13 820 1073M801 1080L806 1080L805 1076L801 1080M828 1076L827 1080L832 1080L830 1076L828 1076z"/>
<path style="fill:#040404; stroke:none;" d="M863 1077L862 1080L863 1077M1108.33 1078.67L1108.67 1079.33L1108.33 1078.67z"/>
<path style="fill:#fdfdfd; stroke:none;" d="M842 1079L843 1080L842 1079z"/>
</svg>
