<?xml version="1.0" standalone="yes"?>
<svg xmlns="http://www.w3.org/2000/svg" width="1920" height="1080">
<path style="fill:#fefefe; stroke:none;" d="M0 0L0 1080L1920 1080L1920 0L0 0z"/>
<path style="fill:#030303; stroke:none;" d="M624 144C614.812 154.646 609.607 174.099 609 188C598.239 178.303 592.007 203.178 592 212L588 218L583 208L582 208L581 212L580 212L580 209L574 209L573 228C568.113 229.134 563.529 230.423 561 235L553 227L543 227L544 232C540.969 229.7 528.066 224.769 525.698 230.473C524.31 233.815 527.319 241.78 527 246L520 241L520 250C508.02 247.363 504.15 257.452 506 268L503 272L488 263C490.037 267.432 487.349 269.139 483 269L484 284L474 283C475.526 286.13 483.092 298.341 476.362 299.775C471.424 300.827 464.258 292.001 461 289L460 289L459 296L456 300C446.36 291.784 436.802 289.366 425 286L427 298L423 297C421.251 301.588 420.075 303.3 415 302C416.796 314.209 418.031 336.451 430 343L430 344L413.92 345.394L395 352L398 362L392 361L396 367L407 383L407 384L402 387L414 402L412 408C415.861 410.021 428.341 427.07 418.87 427.982C414.045 428.446 405.618 421.92 401 420C397.321 430.416 406.821 436.844 413.996 442.92C421.518 449.289 427.512 457.271 435 463.815C441.995 469.928 450.638 473.76 452 484L451 484C446.625 472.072 436.526 472.39 427.015 466.521C421.945 463.392 418.42 458.702 413 456L412 457C417.357 470.541 403.826 464.954 396 463C399.557 472.679 398.876 483.749 412 479L411 486L402 486L401 483L385 483L396 491L396 492L391 493C394.377 500.997 395.053 515.938 408 513C403.289 521.871 391.86 521.451 384 526L384 527C389.805 531.212 392.529 534.643 392 542L410 546L408 544L408 543L414 543L414 544C409.359 548.338 414.923 556.79 420.05 558.356C423.016 559.263 426.253 556.883 429 556L447 566L456 565C456.344 571.042 452.603 572.946 449.197 577.259C441.727 586.718 441.655 590.463 429 593L426 599L391 591.738L377 595C378.559 603.083 385.956 613.038 376 619C377.231 625.209 385.906 644.022 371 635C370.35 637.336 370.759 640.564 369.688 642.683C367.3 647.407 362.7 644.992 364 652L357 656C362.375 658.857 366.08 664.005 361 669L365.999 682.941L358.228 688.318L358 702L340 699L336.603 715.039L349 736C341.511 739.087 333.112 738.715 326.174 741.603C321.37 743.604 320.639 748.561 325 751L324 758L330 764C325.599 766.38 323.36 771.087 323 776C328.549 775.877 334.56 776.065 337.142 782.043C338.079 784.213 337.416 787.533 339.028 789.343C341.862 792.524 345.96 788.108 349 793C341.58 798.083 347.842 805.685 351.506 811C358.196 820.704 361.868 836.627 376 839L376 840L373 840L376 852L382 851L381 864C392.265 868.956 396.028 887.787 411 887L416 894L423 891C424.536 898.169 436.449 898.108 438 891L446 902C451.002 901.241 455.876 901.329 459 897L465 911L469 909L470 913C472.923 911.45 474.329 908.541 477.129 906.911C484.451 902.65 493.206 901.728 497 892L500 896L504 893L508 894L509 890L511 890L516 898L517 891L522 893L523 889L537 895L537 887L540 888L542 883L546 888L556 888L557 885L559 886L560 883L564 884L565 864L572 866C572.166 851.93 585.139 847.507 596 852L595 845C600.966 852.743 602.518 857.521 612 862L612 859L618 862L618 858L621 854C628.961 861.836 632.682 868.367 644 872L642 859L648 860L653 853L656 854C656.015 849.723 658.49 843.964 657.346 840C655.59 833.91 648.433 830.197 648.948 823.055C649.238 819.042 654.601 818.646 654.836 814.892C655.284 807.749 647.276 804.522 657 800L653 796C656.776 785.735 660.403 776.047 663.897 766C665.694 760.834 665.474 752.648 672.042 750.407C675.35 749.279 678.326 752.55 681 754C674.44 764.69 678.232 771.04 691 768L688 785L702 777.451L716.513 782.434L724 789L723 796L733 797C732.318 801.493 727.703 805.323 728.539 809.985C730.688 821.966 751.803 815.435 757 826L747 825L750 832C744.401 832.12 737.706 833.805 743 840L746 848L755.318 856.245L778 857C776.383 867.433 789.212 862.765 796 862L797 865C800.994 863.668 805.115 859.525 808 864L819 873L822 870L824.318 878.789L831.929 884.183L825.934 900.985L830 914L840 916L841 911L847 902L848 902C848 904.882 848.068 920.524 854.597 916.248C858.272 913.842 859.254 907.941 863 905L863 911L870 909C869.089 914.235 870.008 916.481 874 920L875 920L878 917C878.273 921.022 880.574 936.848 888.142 927.667C891.331 923.799 891.183 918.214 894.809 914.105C898.694 909.703 904.93 906.874 910 904C912.714 910.673 919.054 913.01 926 914L926.434 896.484L936 889L937 889C937.208 899.095 940.335 905.579 950 910C953.57 904.341 975.699 898.686 982.826 899.851C986.278 900.415 988.426 903.405 992 904L992 898L1010.86 899.373L1022 892L1024 886C1027.81 886.555 1029.15 885.302 1031 882L1037 885L1043 876L1045 886L1066 884L1064 875L1080.95 876.161L1090 886C1094.12 879.585 1105.54 867.289 1112 876C1116.51 875.105 1119.13 874.419 1121 870L1127 872C1130.57 864.285 1138.38 862.671 1144.89 858.01C1151.69 853.147 1149.8 846.835 1160 848L1160 841C1165.17 842.28 1169.64 842.766 1172 848L1180 846L1178 852C1183.5 849.435 1188.04 844.778 1190 839C1195.39 839.462 1197.12 835.872 1198 831L1202 840L1223 836L1224 829L1228 829L1228 834L1250 828C1251.93 831.565 1253 831.362 1256 829L1260 836L1260 831L1277 836L1279 836L1291 822L1292 822L1301 824L1316 806L1317 806L1324 812L1326 812L1327 808L1332 811C1334.76 806.635 1337.92 804.793 1343 804L1343 800C1347.97 800.614 1359.15 798.716 1361.87 793.682C1363.28 791.068 1360.74 777.464 1360 774C1365.74 770.564 1364.6 765.705 1363 760C1375.9 756.919 1367.51 756.414 1370.66 747.213C1371.64 744.349 1375.36 742.601 1377 740C1381.25 743.558 1390.63 745.233 1392.68 737.892C1394.79 730.351 1388.98 724.889 1388.38 718C1387.77 710.889 1395.87 701.943 1401 698L1400 708C1403.64 706.771 1407.93 708.658 1410.77 707.555C1419.83 704.035 1412.2 689.581 1410 685C1412.91 684.904 1417.77 684.564 1415.43 680.405C1411.07 672.645 1403.52 667.216 1399.56 659C1397.35 654.416 1400.22 649.522 1397.99 645.089C1395.48 640.123 1389.82 637.336 1390.38 631C1391.28 620.895 1399.91 612.907 1402 603L1404 606L1413 607L1414 607L1419 604L1417 585L1424 588C1424 585.409 1423.76 582.644 1424.26 580.089C1427.57 563.282 1448.68 578.064 1456.04 581.485C1461 583.794 1467.47 584.385 1471.56 588.233C1475.73 592.154 1477.94 597.938 1482.21 601.683C1485.41 604.495 1490.91 605.307 1495 606C1495.18 602.206 1495.67 597.362 1499.77 595.693C1502.49 594.586 1506.01 596.803 1507.93 593.678C1511.79 587.404 1502.58 577.664 1501 572L1504 572C1503.61 564.87 1499.27 558.636 1494 554L1494 553L1504 548C1500.83 539.332 1495.96 531.287 1508 528L1505 524L1505 523L1513 520C1512.82 516.626 1510.99 513.428 1510.97 510.17C1510.94 506.919 1513.76 504.376 1513.73 501.003C1513.66 491.605 1507.52 489.625 1518 484L1514 478C1517.32 472.591 1508.13 467.341 1506 462C1508.88 461.156 1513.35 460.381 1514.13 456.895C1514.58 454.835 1512.39 452.091 1513.97 450.318C1515.88 448.163 1520.46 449.162 1523 448.427C1530.37 446.294 1531.25 438.641 1524 436C1528.12 426.909 1516.43 422.066 1509 422L1516 402L1511 398C1506.55 397.596 1500.17 397.83 1496.17 395.864C1487.51 391.601 1485.88 384.695 1475 388C1474.89 384.51 1474.91 381.93 1471 382L1482 372C1473.77 360.579 1448.53 374.017 1438 366L1459 360L1457 355C1460.95 353.798 1461.66 351.995 1461 348C1451.35 349.943 1455.54 343.432 1458 338L1453 337L1453 334L1452 334L1440 332C1440.37 324.731 1444 319.935 1436 316L1445 305L1434.4 289.132L1420 290C1420.09 284.769 1421 280.944 1416 278L1420 269L1408 278L1408 273L1402 272L1402 271L1412 264C1408.89 258.219 1404.13 259.445 1399 262C1398.4 252.754 1398.69 248.751 1394 241L1391 244L1382 246L1381 242C1377.37 242.625 1372.89 245.206 1369.26 243.628C1358.24 238.833 1365.64 223.166 1367.94 216.089C1368.97 212.898 1367.16 210.267 1368.86 206.996C1371.91 201.124 1377.29 196.356 1379.37 190C1380.97 185.089 1380.65 180.048 1381 175L1373 176L1370 166C1361.07 166.284 1358.14 172.564 1351.91 177.762C1349.23 180.001 1345.94 179.883 1343 181.524C1338.52 184.022 1335.35 188.284 1331 191C1330.35 187.078 1328.76 186.015 1325 185C1321.74 191.032 1318.84 192.938 1312 193L1309 185L1308 185L1296 183C1295.73 186.602 1295.05 189.497 1291 188C1285 190.466 1275.67 197.627 1272 191L1259 198C1258.18 208.763 1251.52 196.419 1245 199C1242.42 192.836 1239.09 188.898 1233 186C1230.86 190.508 1227.64 190.469 1224.84 193.789C1220.16 199.345 1220.16 208.355 1221 215L1202 211L1202 216L1199 215L1198 256L1188 247C1183.59 257.262 1195.03 272.624 1197 283L1196 283L1185 267L1184 272L1176 267L1173 277L1166 273C1165.62 283.151 1168.05 295.834 1156 293C1153.84 300.579 1156.37 306.697 1163 311C1159.45 324.386 1193.85 332.593 1174.79 348.49C1172.57 350.341 1169.69 351.116 1167 352C1172.02 339.579 1161.91 329.391 1149.96 326.248C1147.04 325.48 1141.88 328.006 1139.79 325.458C1136.55 321.521 1141.59 308.756 1142 304C1138.13 304.126 1135.2 304.494 1133 301L1126 304L1114 304L1109 300L1108 293L1092 296C1094.73 283.464 1090.09 276.021 1077 282C1077 278.591 1077.63 274.211 1075.82 271.149C1071.96 264.605 1068.41 271.999 1068 276L1061 274L1061 273C1064.9 270.509 1064.29 267.235 1064 263L1060 266C1052.74 263.44 1055.79 258.613 1058 253L1057 252L1048 256L1050 251L1035 253L1033 243C1025.68 240.359 1023.55 243.843 1017 246.436C1014.53 247.414 1011.76 246.588 1009.38 247.617C1004.53 249.707 994.819 262.958 994 268L988 268L982 240L977 248L976 248L975 233L961 245L960 245L958 238L954 239L953 235L940.281 249.558L923 237L922 244L921 244L910 229L908 229L907 236C888.539 236.571 894.11 264.268 897 276C893.269 272.346 896.072 264.633 892.415 262.086C886.442 257.927 885.946 278.654 880 266L878 266L877 272C874.002 272.39 870.161 272.55 868.303 275.314C866.56 277.908 866.906 284.356 863.28 285.32C857.885 286.755 854.335 277.795 849.911 276.751C842.469 274.994 842.408 293.559 841 298L835.401 288.176L824 296C823.791 278.481 804.077 283.626 794 288L798 269C785.618 273.295 787.339 287.529 780 296L780 283L774 292L772 292C765.048 279.421 770.275 277.339 777 266L767 266L766 261L755 277L754 277L753 271L749 272L748 271L752 258L745 262L740 256L740 255L743 250L742 249L738 251L735 246L734 249L728 246L724 255L725 251L712 267L710 256L694 273L693 268L689 276L688 276L688 271L687 271L685 273L685 264L684 264L683 268C674.407 263.268 673.987 255.693 672 247L667 250L666 218L662 225L661 225L662 220L662 219C655.289 206.424 665.807 189.472 664.698 176C663.815 165.282 655.53 157.165 654 147L648 149L643 158L639 151C633.812 150.959 632.712 148.547 631 144L626 144L624 144M1238 181L1237 184L1238 181z"/>
<path style="fill:#fefefe; stroke:none;" d="M1381 246L1382 247L1381 246M1034 253L1035 254L1034 253z"/>
<path style="fill:#030303; stroke:none;" d="M497.667 255.333L498.333 255.667L497.667 255.333z"/>
<path style="fill:#fefefe; stroke:none;" d="M484.333 274.667L484.667 275.333L484.333 274.667M1059 274L1058 276L1060 276L1059 274z"/>
<path style="fill:#030303; stroke:none;" d="M428 275L431 281L431 275L428 275z"/>
<path style="fill:#fefefe; stroke:none;" d="M1175 276L1178 280L1175 276M486 277L487 280L488 280L486 277M1062 277L1058 286L1065 277L1062 277M1197 283L1198 284L1197 283M1418.33 289.667L1418.67 290.333L1418.33 289.667M480 301L484 300L480 301M397 356L398 357L397 356z"/>
<path style="fill:#030303; stroke:none;" d="M1460 584L1461 585L1460 584z"/>
<path style="fill:#fefefe; stroke:none;" d="M1400.33 602.667L1400.67 603.333L1400.33 602.667M665 724L663 742C674.698 739.109 677.652 729.042 665 724M758 829L759 832L760 832L758 829M549 885L550 886L549 885M450 899L451 900L450 899z"/>
</svg>
