<?xml version="1.0" standalone="yes"?>
<svg xmlns="http://www.w3.org/2000/svg" width="1920" height="1080">
<path style="fill:#fefefe; stroke:none;" d="M0 0L0 1080L1920 1080L1920 0L0 0z"/>
<path style="fill:#030303; stroke:none;" d="M632 59C629.505 61.7435 628.259 61.6465 625 60C616.119 74.7665 618.872 88.3433 616.302 104.575C615.511 109.569 611.876 113.141 610.61 118.001C608.511 126.051 608.356 135.704 608 144L606 144L607 135C600.738 139.238 598.335 148.986 600 156L592 157L593 172L592 172L592 169L589 172L588 172L587 169L590 168L589 165C586.046 166.426 582.28 167.583 584 163L576 165C578.371 172.262 579.476 172.025 577 180L567 177L569 188C562.915 190.236 563.048 196.253 563 202L558 202L558 197L556 197L556 201C551.849 198.711 552.016 195.421 552 191L550 191L549 200L548 200L544 194L541 196L532 177L533 188C529.032 185.47 524.526 178.17 520 181C518.439 178.33 513.578 175.198 512.357 180.149C511.227 184.734 511.94 193.388 513 198L504 194L499 214L496 215L499 224L490 222L493 224L493 225L490 226L495 241L494 241L485 230L479.852 246.409L470 244L471 247L465 256L459 255L463 264L443 245L442 246L452 266L435 257.611L425.722 249.833L423 252L421 245L416 247L417 243L412 241L411 241L410 248L406 246L400 260C396.371 257.034 390.15 248.629 384.243 250.458C378.404 252.265 386.622 269.19 389 272L386 273L388 277L384 280L372 273L375.358 289L388 310L378 309L369 319L375 335L360 330L350.209 332.051L341 338L341 340C347.384 343.419 351.832 351.357 341 351L338 360L357 371C356.023 373.984 355.1 378.02 359 378L346 381L347 388L343 388C343.71 392.294 345.734 393.59 350 393C350.156 396.174 353.738 403.457 357 399L358 399L360 404C351.073 404.914 345.314 408.127 345 418L344 418L344 415L343 415L345 421C348.017 419.475 350.59 415.617 354.015 415.212C359.514 414.562 367.997 418.938 373 421.012C390.86 428.417 405.496 439.369 420 452C408.053 452.903 397.127 427.884 384 436L391 447C384.805 443.612 381.417 444.703 384 452C375.982 456.918 384.403 458.594 384.531 463.669C384.614 466.965 379.297 470.358 377 472C375.317 466.07 366.821 469.291 362 469L362 472L361 472L358 471L360 476L349 479L364 496C360 497.516 358.754 499.874 358 504L369 511L368 514L378 515C375.851 520.846 371.114 519.599 366 521.459C356.263 525 348.645 528.602 338 529L338 530L347 534L348 540L369 539L364 552L360 546L359 546L358 552C353.54 551.677 342.353 543.928 338.662 547.654C335.689 550.655 342.27 555.771 342.663 559.003C343.402 565.088 336.425 567.836 332 570L349 583L357.11 596.133L353 610L370 622L370 624L352 616L351 617L352 621L344 620L337 617L337 626L327 623C328.614 624.752 343.197 638.986 336.823 640.083C333.181 640.709 330.291 636.444 326 637L335 653L335 654L331 660C335.955 661.69 344.086 669.497 336.851 674.022C333.903 675.866 327.961 673.871 326.171 677.434C324.928 679.91 327.623 684.355 328 687C318.862 682.414 305.058 680.064 299 690C308.082 692.371 325.866 706.107 306 705C309.169 714.825 325.361 711.085 325 722L324 722L324 717L323 717C319.833 728.667 331.772 729 340 729C336.124 743.156 315.249 732.009 306.043 733.228C301.617 733.815 299.891 738.272 294.996 737.771C290.864 737.348 285.351 732.625 281.322 733.816C277.706 734.885 281.384 742.15 279 745C281.398 754.349 283.598 759.676 293 762L293 764C283.729 765.747 280.31 767.324 276 776L289.174 784.397L302 788C295.206 790.6 297.162 798.867 301.684 803.277C305.904 807.392 310.663 807.123 316 807L314 810L316 808L317 808L321 812L316 818L333 820C326.159 822.515 329.8 827.161 327.536 832.424C324.767 838.864 318.817 843.719 318 851L323 861C329.095 859.814 346.27 849.16 349.852 858.13C350.97 860.93 348.93 864.943 349.175 868C349.445 871.354 350.402 873.855 349 877L349 878L350 882C355.005 880.781 355.961 876.161 360.204 874.465C366.675 871.879 360.003 886.376 360 890L362 890L362 885C369.378 891.902 370 898.199 370 908L374 907L375 915L388 897L392 908L395 906L392 926C397.656 925.612 402.68 926.122 405 920L407 924L410 926C414.425 925.1 418.352 923.585 421 928C414.651 929.351 414.052 934.214 414 940L418 938L419 938L422 946L426 947C425.133 950.185 427.202 962.965 432 958L435 960L436 960C441.188 957.054 445.112 960.493 446 966C454.337 961.913 453.163 952.718 455 945L458 976L471 965C474.416 970.128 487.759 955.141 490 951L491 951C492.029 955.275 493.136 959.077 498 959L497 955L498 955L503 959L504 943L509 946L512 942L512 936L525 944L526 939L538 951L526 917L527 917L528 920L532 906C539.048 913.381 535.196 931.895 547 936L546 927L548 927L548 932L549 932L549 909L550 909L558 922L559 922L560 913L567 913L572 920L572 915L573 915L576 919L578 903L581 908L583 908L581 889L587 891C588.199 883.755 579.618 879.181 586 873L585 865L599 867.657L607 871.833L614.7 870.323L634 891L634 887C637.21 890.337 637.526 895.076 640 898.935C642.643 903.059 649.401 908.348 653.139 911.801C658.251 916.522 665.563 917.178 670.741 922.259C672.878 924.357 684.061 936.485 685 929L707 932L703 925L704 924C707.83 925.612 723.742 927.772 723.627 920.891C723.539 915.565 716.488 912.173 719.176 906.734C721.685 901.658 725.672 903.221 729.791 900.821C733.409 898.713 735.056 894.883 739 893L740 897L749 893L750.88 902.714L746 916C752.511 913.762 761.758 908.155 766.239 902.867C771.504 896.655 772.981 885.895 783 887L782 896C794.47 895.734 806.439 887.479 803 906L811 907L793 936C796.442 938.163 796.369 940.113 796 944L804 938C800.251 959.219 783.614 966.665 774 984L781 986L780 983L803 982L797 992C803.141 993.192 813.665 989.15 819 986L821 996C824.458 995.295 826.323 994.542 827 991C835.226 990.374 837.028 981.913 839 975L840 975L841 981L842 981L844 977L841 992L844 993L839 1004L846 1003L846 1004L843 1012L852 1005C850.706 1010.1 850.207 1013.82 855 1017C856.863 1013.43 858.504 1008.15 862.133 1006.02C866.607 1003.4 874.224 1004.04 878.034 1000.39C885.491 993.242 890.781 977.658 894 968L895 968C894.102 975.106 893.733 1001.49 907 990C911.351 994.029 913.508 989.405 914 985L916 985L916 990C924.68 989.315 927.011 988.115 930 980L932 983C936.973 978.871 937.73 972.701 935 967C939.785 966.651 941.081 970.113 943 974L944 974L944 959C948.528 961.119 950.291 958.703 954 956L953 968L957 967L958 975C963.374 970.524 961.811 963.405 963 957C970.439 955.449 967.53 942.624 970 937C972.772 942.972 985.549 969.825 994 955C1001.77 959.285 995.123 974.129 1006 976L1004 961C1009.79 964.396 1010.15 981.306 1011 988L1024 992L1024 986L1045 992L1045.84 977.004L1043.55 960L1042 949C1045.06 945.042 1056.97 930.331 1060 940C1063.36 941.298 1064.11 944.359 1067.08 946.056C1070.59 948.053 1086.38 949.823 1087 947L1095 958L1094 949L1100 956L1102 956L1101 944L1089 931L1093 934L1094 934L1096 930L1092 925L1098 922L1101 933L1105 931C1106.14 935.306 1107.87 937.315 1112 939C1110.86 943.409 1111.95 948.994 1117.96 947.663C1124.34 946.251 1125.53 937.464 1130.33 933.919C1141.37 925.77 1153.15 932.859 1165 936L1163 929L1172 928L1176 936L1182 936L1173.89 917.653L1154 912C1159.28 905.207 1167.9 897.211 1177 897C1188.84 882.529 1201.74 904.374 1211 909L1211 900L1212 900L1214 902C1217.4 894.07 1215.72 890.351 1214 882L1226 898L1226 893L1232 893L1232 898L1237 891L1238 891L1237 906C1246.13 903.854 1250.58 899.503 1252 890L1260 890L1261 881L1267 882L1268 885L1271 875L1272 875L1275 881L1277 881L1283 869C1285.81 878.742 1292.78 884.282 1297 872C1302.59 871.305 1301 863.294 1301 859L1302 859L1309 873L1312 858L1313 858C1315.01 865.573 1315.48 873.95 1322 879L1325 873L1327 873L1332 884L1336 883L1340 894L1346 893C1350.58 891.069 1356.09 896.645 1359 900L1360 900L1365 877L1375 884L1372 873L1375 874L1367 851L1374 856L1378 848C1384.22 851.766 1387.31 850.5 1386 843L1392 841L1393 844L1411 849C1415.89 854.16 1413.02 842.034 1412 840L1413 839L1415 839L1420 842L1414 825L1418 824C1413.75 814.52 1419.76 812.855 1419.97 804C1420.12 797.677 1414.34 788.236 1411 783C1419.08 786.414 1423.55 794.616 1432 788C1419.09 768.393 1409.45 747.901 1401 726C1411.77 734.282 1411.1 753.744 1424 759L1422 741L1423 741C1424.34 746.642 1425.99 752.262 1432 754L1432 750L1436 750C1437.29 746.923 1440.64 738.772 1444.63 738.596C1452.04 738.27 1453.55 747.734 1461 740L1461 739C1456.22 733.13 1461.47 727.965 1462 721C1457.63 718.401 1457.18 705.679 1463.11 703.927C1467.82 702.536 1473.16 707.393 1477 703L1486 704C1484.34 700.196 1478.07 696.796 1478.18 692.711C1478.34 686.742 1487.36 684.755 1484.52 678.019C1481.31 670.391 1470.73 675.279 1468 666C1462.58 666.064 1458.72 666.316 1456 661L1459 662L1459 659L1464 655L1460 654L1462 650L1461 648C1455.07 644.947 1443.3 638.633 1448 631C1438.2 628.551 1438.39 626.122 1440 617L1430 620L1444 601C1458.94 603.423 1452.7 591.677 1454 583L1455 583C1457.28 587.911 1468.2 603.122 1473 604C1477.48 617.15 1487.3 622.287 1497.83 629.965C1505.95 635.889 1509.13 640.679 1519 644C1523.54 640.036 1526.81 644.31 1531.98 644.792C1534.15 644.994 1549.61 641.319 1551.26 639.971C1555.09 636.844 1551.02 630.677 1548.79 628.001C1541.3 619.022 1528.81 605.926 1527 594L1528 594L1530 596C1527.04 590.458 1522.11 584.036 1522.11 577.424C1522.11 566.784 1527.87 556.61 1518 548L1518 547L1538 541L1538 537C1554.31 538.645 1545.04 510.092 1535 508C1538 504.413 1539.79 500.97 1534 500L1534 499L1539 498L1535 487C1541.5 484.846 1536.97 480.381 1534 477C1537.8 476.705 1539.62 476.025 1539 472L1545 470L1536 468L1536 467C1542.91 465.569 1560.3 460.794 1564.25 454.895C1566.13 452.088 1564.62 448.936 1566.06 446.187C1567.57 443.299 1571.45 444.117 1573.29 441.663C1577.54 435.981 1564.84 434.787 1562 434L1562 427L1565 426C1562.1 415.753 1551.94 419.853 1544 420L1547 403L1541 404C1542 397.775 1559.51 383.555 1546 382C1546.44 369.167 1537.19 373.955 1528 376L1527 371L1526 373L1525 373L1527 361L1512 364C1513.44 361.718 1518.3 355.447 1513.68 353.661C1509.66 352.108 1502.73 357.827 1499 359.252C1488.88 363.119 1478.69 364 1468 364L1468 363L1486 360L1486 357L1480 356L1484 352L1476.23 340.875L1480.98 331.911L1482 322L1481 321L1475 324L1471 313L1468 312L1468 311L1478 305L1466.65 293.934L1450 292C1451.61 284.465 1452.35 280.219 1449 273L1433 272L1441 253L1423 262L1418 264L1430 249L1419.13 251.521L1410 246L1410 235C1406.22 235.689 1403.27 236.495 1401 233L1388 236C1384.85 231.298 1381.16 235.461 1379 239L1378 239L1371 239L1372 233C1370.11 230.789 1370.11 230.211 1372 228C1364.53 212.183 1382.52 202.18 1389.37 189C1393.03 181.948 1398.78 169.732 1399.81 162C1400.99 153.158 1398 143.14 1398 134L1394 136C1393.45 129.032 1390.05 120.317 1382.33 128.148C1374.32 136.265 1369.49 147.388 1361.25 155.687C1356.39 160.578 1348.89 162.159 1346 169L1339 165C1336.89 168.755 1334.63 169.302 1331 167L1323 178C1317.29 173.14 1314.16 168.613 1314 161L1310 163L1305 154L1304 154L1299 163C1292.91 159.317 1287 167.897 1285 173L1281 172L1280 180L1279 180L1278 173L1273 180C1266.22 177.37 1262.12 177.162 1257 183L1252 171L1252 180L1251 180L1238.7 162.503L1229.26 164.236L1221 158L1217 172L1214 172L1210 167L1210 188C1200.06 184 1200.17 190.87 1198 198C1192.88 191.969 1187.52 190.935 1180 191C1181.55 197.084 1177.7 196.798 1173 199L1180 211C1171.51 217.738 1170.6 214.308 1170 226C1166.28 225.403 1163.24 225.792 1161 229L1160 229L1160 225L1144 236L1145 227L1138 232L1142 219C1137.03 221.662 1131.03 228.385 1130 234L1122 236L1129 218L1124 220C1118.57 218.775 1116.92 222.428 1115 227C1110 224.23 1105.9 230.629 1101 232C1103.11 221.935 1108.11 212.558 1105 202L1104 202L1102 208L1100 208L1100 203C1095.61 203.717 1094.43 205.962 1093 210L1092 210L1091 202L1085 218L1085 201C1080.31 204.173 1079.23 210.644 1079 216L1078 216L1079 205L1076 205C1075.74 213.801 1069.91 220.19 1063 225L1073 188L1067.7 195.714L1048 212C1050.45 198.44 1064.38 187.237 1060 172L1054 174L1056 166L1055 166L1045 178L1045.84 167L1053 143L1046 146L1049 127L1043 129L1043 123L1032 128L1029.02 109L1031 98C1017.34 100.963 1017.88 111.701 1010 120C1007.91 113.765 1000.88 122.26 995 119L994 130L987 103L985 103L978 126L977 111C966.775 125.714 964.998 146.837 965 164L960 164L959 146L952 148L949 144L940 153C941.45 147.521 944.117 137.968 935 140L934 136L936 137L936 136C931.202 133.294 926.646 145.898 926 150L918 150C919.125 145.064 920.752 140.384 916 137C915.764 144.253 912.499 144.799 906 144C908.725 140.454 910.015 137.563 905 136C907.975 131.907 910.596 123.88 903 124L900 109L898 109C893.935 113.305 892.103 109.133 888 107L885 123L871 113L866 122L866 150L865 150C863.364 144.954 856.951 141.837 855.037 149.055C853.939 153.195 857.044 157.388 856 162L854 162L849 153L848 154C849.254 159.202 849.238 162.342 845 166C844.584 160.718 841.032 156.613 836 155L836 156L835 168L829 159L827 159L829.893 174.004L829 188L827 183C819.12 184.674 828.302 202.709 819 206C818.559 197.261 814.622 172.695 804 171L805 178L799 169C794.619 173.31 797.702 178.496 798.035 184C798.648 194.139 801.017 223.168 791 229L791 225L782 234L781 227L778 227C776.208 232.672 773.688 237.7 768 240C767.375 235.36 766.88 229.698 762 228L760 233L759 233L758 224L753 227L752 227L748 221C745.648 227.036 742.468 230.863 736 232L736 223L734 223C729.811 240.46 720.809 221.093 717 215L711 213L704 219L700 213C700.317 222.783 706.719 225.823 699 235L695 226L694 236L686 237L688 242L684 237L682 237L681 240L674 235L673 235L670 238L669 238L667 235C674.096 228.235 667.632 218.59 670.852 210C676.413 195.166 680.52 178.493 679.624 162C679.139 153.073 674.863 143.86 675.213 135C675.764 121.039 676.352 113.442 669.767 101C668.103 97.8555 668.093 94.9821 665 93L664 103L662 103C661.725 91.5727 655.95 74.4634 647 67L646 77L645 77C644.249 74.68 639.321 63.3585 638 70L637 70L634 59L632 59z"/>
<path style="fill:#fefefe; stroke:none;" d="M659.333 96.6667L659.667 97.3333L659.333 96.6667M886 124L884 130L888 130L886 124M1000.33 126.667L1000.67 127.333L1000.33 126.667z"/>
<path style="fill:#030303; stroke:none;" d="M862 137L862 142L863 142L864 137L862 137z"/>
<path style="fill:#fefefe; stroke:none;" d="M917 150L918 151L917 150M1043 151L1044 152L1043 151M1397 151L1398 152L1397 151M922 169L921 172L922 169z"/>
<path style="fill:#030303; stroke:none;" d="M1318 171L1319 172L1318 171z"/>
<path style="fill:#fefefe; stroke:none;" d="M1215 172L1216 173L1215 172M804 180L805 184L806 184L806 180L804 180M1259 186L1259 191L1260 191L1259 186M675 189L674 192L675 189z"/>
<path style="fill:#030303; stroke:none;" d="M1091 199L1092 200L1091 199z"/>
<path style="fill:#fefefe; stroke:none;" d="M1091 210L1092 211L1091 210M1091.33 212.667L1091.67 213.333L1091.33 212.667M1077.33 216.667L1077.67 217.333L1077.33 216.667M1075 221L1076 222L1075 221M706 227L707 228L706 227M751 227L752 228L751 227z"/>
<path style="fill:#030303; stroke:none;" d="M1104.67 227.333L1105.33 227.667L1104.67 227.333z"/>
<path style="fill:#fefefe; stroke:none;" d="M1113 229L1114 230L1113 229M792 230L793 231L792 230M1090 231L1091 232L1090 231M1135 233L1134 244L1135 244L1138 233L1135 233M681 247L685 252L681 247M425 252L426 256L427 256L425 252M788 255L787 260L788 260L788 255M786 262L779 274C783.957 272.032 787.972 267.563 786 262M465 265L473 276L465 265M453.667 267.333L454.333 267.667L453.667 267.333M1410 267L1410 268L1413 268L1410 267M1414.67 267.333L1415.33 267.667L1414.67 267.333M387 273L388 274L387 273M393 275L394 276L393 275M475 279L476 280L475 279M385 281L384 282L387 284L385 281M388 303L389 304L388 303M376 329L377 330L376 329M375 335L376 336L375 335M362 403L362 404L365 404L362 403z"/>
<path style="fill:#030303; stroke:none;" d="M341 419L342 420L341 419z"/>
<path style="fill:#fefefe; stroke:none;" d="M393 447L394 448L393 447M420 452C421.437 457.595 426.237 463.103 432 464L420 452M441 470L441 472L443 472L441 470M1526 471L1526 472L1529 472L1526 471M1538 471L1539 472L1538 471z"/>
<path style="fill:#030303; stroke:none;" d="M336.333 530.667L336.667 531.333L336.333 530.667M335 547L336 548L335 547z"/>
<path style="fill:#fefefe; stroke:none;" d="M1447 586L1446 590L1450 588L1447 586M1448 591L1449 592L1448 591M1435 607L1439 608L1435 607M340.667 623.333L341.333 623.667L340.667 623.333M1463 669L1464 672L1466 672L1467 669L1466 668L1463 669M1454 715L1456 717L1456 715L1454 715M1397 719L1398 720L1397 719M1398 721L1401 724L1398 721M1400 725L1401 726L1400 725M1437 735L1438 736L1437 735M1441 735L1442 736L1441 735M303 737L302 740L303 740L303 737M693 840L692 840L691 838L692 844C686.007 847.677 689.449 854.025 689 860C694.674 865.003 692.619 870.608 694.341 877C695.817 882.477 701.04 887.247 704 892C710.088 890.17 722.7 869.169 719.525 863.073C716.64 857.535 708.99 861.987 706.622 854.995C704.096 847.535 720.746 823.991 702.005 823.194C699.949 823.107 697.855 824.266 696 825L695 822C686.245 826.222 691.917 832.776 693 840M1294 871L1296 873L1296 871L1294 871M1293 875L1294 876L1293 875M1265 877L1266 881L1267 881L1265 877z"/>
<path style="fill:#030303; stroke:none;" d="M1324 877L1325 878L1324 877M1324 879L1325 880L1324 879z"/>
<path style="fill:#fefefe; stroke:none;" d="M634 885L635 886L634 885M788 889L790 891L788 889M1232 891L1233 892L1232 891M390 895L390 898L392 898L392 895L390 895M1212.67 895.333L1213.33 895.667L1212.67 895.333M1209.67 899.333L1210.33 899.667L1209.67 899.333M558 911L559 912L558 911M415 923L416 924L415 923M1172 927L1173 928L1172 927M1062 931L1062 936L1066 931L1062 931M511 935L512 936L511 935z"/>
<path style="fill:#030303; stroke:none;" d="M791 937L790 940L793 938L791 937z"/>
<path style="fill:#fefefe; stroke:none;" d="M424 943L425 944L424 943M806 943L807 944L806 943M895 967L896 968L895 967M1021.67 971.333L1022.33 971.667L1021.67 971.333M1012 973L1013 974L1012 973M804 989L805 990L804 989M856 999L856 1001L858 999L856 999M854 1001L852 1005L854 1001z"/>
</svg>
