<?xml version="1.0" standalone="yes"?>
<svg xmlns="http://www.w3.org/2000/svg" width="1920" height="1080">
<path style="fill:#fdfdfd; stroke:none;" d="M0 0L0 1080L1920 1080L1920 0L0 0z"/>
<path style="fill:#040404; stroke:none;" d="M638 19L637 19L636 21C629.465 14.9539 627.576 27.4685 627 32L626 32L625 30C619.606 44.6234 610.367 59.3741 609.086 75C608.745 79.1523 605.637 86.0114 609 89L605 116L604 116L604 113L600 113L598 126L598 127C600.987 132.295 596.539 138.844 594 144L592 139C586.809 141.862 588.235 147.812 587 153C584.988 149.645 578.655 140.568 573.854 145.608C570.838 148.775 572.314 152.623 568 155C568.321 161.934 571.093 168.596 578 171L578 172L563 161L566 172L559 172L560 166L559 166L560 193L559 193L552 175L550 175L549 178L546 166L544 171L542 171C541.74 163.04 534.206 150.859 528 146L528 154L527 154L524 149L524 160L516 149L510 149C507.548 153.858 506.906 159.578 501 161L504 177L503 177L495 169C492.85 176.075 496.787 188.175 489 191L487 208L484 205L483 205L484 211L481 220L477 219L480 228L474 225L479 238L471 233L470 236L467 235L468 242L463 239L464 244L462 248L450 237L454 250L448 239L445 240L443 237L441 241L440 241L440 236L440 235L437 236C435.703 229.976 433.365 226.169 428 223C428.053 228.892 429.918 233.068 426 238C423.045 225.115 416.594 224.75 408 217L395 215L391 232L396 244L384 240C382.665 234.816 379.86 231.253 375 229L368 233L369 242L368 242L366 236L365 256L363 254L362 254C357.041 256.334 354.613 252.808 350 251L356.508 273L362 288L365 289L365 290L359 289L358 304L356 304L348 301L349 314L352 312L353 316L346 317C342.813 322.114 338.697 322.415 333 322L331 323L331 328L326 331L326 332L328 344C321.489 343.387 319.211 346.057 317 352L322 354C319.3 361.178 315.098 369.709 324 374L316 384L321 388L314 387L310 391L306 404L316 406L313 412L328 409C324.561 413.746 308.66 426.441 320 431L316 436C319.493 435.598 321.92 434.883 324 438L326 436C337.399 438.778 351.96 428.383 352 417L386 428L386 429C377.788 430.308 366.407 428.034 370 440L378 438C375.88 442.344 372.857 444.639 368 445L367 456L374 460C370.344 459.869 368.738 460.775 367 464C359.253 463.022 349.824 467.555 343 471L347 475L347 476C340.926 475.879 328.87 474.559 331 484L337 481L337.5 491.361L346 496L350 495L340 504L351 511L351 513L347 515L352 520L327 523L326 529L325 529L322 524L318 528C312.558 522.607 309.626 520.505 302 521C300.118 532.306 314.425 543.471 321 552L314 553C319.077 564.752 319.957 577.258 336 579L336 580C333.22 582.825 337.033 586.391 339.289 588.714C343.67 593.226 353.28 600.611 351 607L350 607L344 605L345 608L340 602L339 602L330 605L331 608L322 605C321.049 613.464 314.782 610.711 311 616L324 630L312 627L319 640C326.655 642.3 322.648 649.894 319 654L317 649L310 653L325 668L309 665C310.095 672.989 301.028 683.596 293 686C292.722 679.816 287.157 679.427 282 679C273.472 690.11 284.909 700.708 297 701C297.821 710.042 304.771 711.849 310 718L313 717C315.385 720.654 320.318 726.316 324.209 728.347C328.127 730.392 333.621 728.467 334 734C330.863 733.166 328.769 732.411 328 736L293 724L292 725L293 728L290 731C282.346 727.431 276.478 719.983 272 713L260 714L260 716L264 720L258 726L248 723C249.205 728.665 254.293 730.806 257.887 735.004C261.845 739.625 263.936 750.323 262 756L266 758L257 767L257 773L256 773L255 769L252 772L256 773C255.884 780.674 261.908 778.735 266 775L269 788L276 789C277.206 794.493 286.066 798.636 281 803L281 804L296 809L296 812L293 813L293 815C299.402 817.405 305.462 824.896 312 823L312 826C316.789 825.47 322.325 828.292 318.845 833.83C315.536 839.096 305.543 847.183 300 850C301.774 855.699 301.411 858.56 299 864C304.936 862.041 307.956 861.553 311 868C301.828 869.852 301.94 876.172 302 884L307 877C320.318 878.166 331.299 866.324 341 859L344.617 873L339 896C344.062 895.184 346.685 891.823 348 887C351.862 887.526 355.339 887.298 356 883C359.571 888.222 352.417 898.565 349 903L349 904L352 910L356 901L362 910L365 909L365 916C356.876 915.518 360.074 922.664 360 928L362 928L365 923L362 936C376.277 928.082 383.95 921.584 384 904C397.1 916.199 376.168 930.821 380 944C382.952 944 385.57 942.668 386 946L393 937L399 935L401.123 946.914L397 960L406 960L411 957L408 972L416 971L415 974L412 972C415.556 977.811 418.749 989.869 426 987L427 990C431.118 988.451 433.489 987.279 435 983L438 983C439.155 991.058 437.669 1001.67 447 1005L448 1001L459 1012L459 1007L464 1008C464.937 1002.14 468.498 1002.26 473 1005C478.627 990.301 483.318 978.415 483 963L486 972C491.207 969.573 497.1 967.424 496 976L501 978L503 967L507 975C512.83 971.194 514.976 965.727 515 959L520 962L518 951C522.299 954.758 522.312 958.589 522 964L525 960L533 976L535 976L537 964L548 978C550.759 967.079 543.827 952.577 541 942L542 942C545.515 950.399 552.454 958.724 562 960L554 935L560 938L561 926L570 936L571 936L571 931L572 931L577 936L576 931L582 932C580.57 924.267 581.213 917.575 590 922L589 900L592 901C591.995 893.117 593.267 878.062 588 872L588 871L591 869L598 877L597 869C600.999 872.881 600.589 877.133 607 878L605 875L614 873L615 873C617.54 878.384 622.81 879.498 626.15 884.058C629.837 889.091 630.383 895.701 633.61 900.999C635.443 904.011 637.419 907.222 641 906C646.113 918.353 656.057 920.06 664.671 928.468C672.571 936.18 676.3 945.091 687 950L683 958L700 953L701 956C717.49 950.443 726.381 960.112 737 972L739 972L740 963L750 964C750.689 959.712 751.962 957.698 756 956L746.677 931.093L760.907 919.741L769 907L770 907L770 914L784 916L795 900L796 900C796.178 902.877 795.764 906.075 799 906L796 920C798.159 922.046 799.723 924.706 796.586 926.988C783.608 936.431 768.071 940.194 767 960L783 945C782.553 950.657 781.432 961.464 776.838 965.235C771.089 969.956 759.257 970.498 757 978L738 981L727 1004L736 1004L733 1001L739 995L737 1000L745 999L745 1003L749 1000L750 1016L746 1022L751 1023L751 1024C741.29 1024.11 736.962 1030.65 738 1040C745.853 1033.55 762.113 1017.71 773 1020L778 1013L778 1024L783 1021L784 1024L798.892 1020.45L810 1028C810.569 1025.4 816.044 1016.74 816.383 1024.02C816.544 1027.47 813.09 1032.61 812 1036C817.922 1032.91 820.718 1032.71 822 1040L825 1034C828.452 1037.64 829.679 1042.06 825 1045L828 1060C832.814 1057.19 831.999 1052.02 832 1047L840 1060L848 1047L851 1048C848.523 1042.95 842.689 1036.1 847 1031L846 1034L856 1040L853 1041L858 1045L868 1025L871 1040C879.135 1034.82 877.766 1027.09 889 1026L892 1022L893 1026C902.428 1018.63 908 1014.16 908 1030L922 1007L923 1010L925 1010L928 999C930.95 1001.97 930.912 1004.05 930 1008L934 993C936.465 999.419 930.363 1013.31 938 1016L952 993L955 993L956 1002L957 1003L959 1003L960 997L966 998L964 985L973 984L973 971L976 971L978 976L985 965L987 978C996.77 977.889 992.423 984.864 995.35 992C998.449 999.555 1003.72 1005.67 1006.77 1013C1008.87 1018.05 1008.25 1023 1011 1028L1013 1028L1014 1023L1021 1024L1020 1021L1028 1024L1024 1025C1025.19 1029.73 1027.31 1033.3 1032 1035L1032 1013L1034 1013L1037 1021L1047 1008C1047 1020.55 1046.62 1030.81 1055 1041L1066 1042L1067 1035L1060 1028L1060 1027L1064 1026C1061.91 1014.03 1062.78 1001.8 1066 990L1057 983L1057 982C1063.52 975.399 1053.23 961.613 1050 955L1057 956L1054 945L1055 945L1066 965L1063 958C1065.1 957.666 1066.88 957.626 1069 957.719C1087.34 958.527 1069.57 969.947 1072 980C1068.77 980.692 1068.98 982.101 1070 985L1080 979L1080 985L1081 985L1083 983L1083 987L1080 988L1083 989L1084 989L1089 996L1104.54 986.568L1112 980.921L1122 988C1121.02 980.276 1117.66 972.343 1121.38 965.004C1123.12 961.565 1125.78 957.827 1130 960.002C1138.5 964.381 1134.69 977.365 1145 976L1141 971C1145.51 969.491 1147.42 969.917 1150 974L1152 974C1155.22 966.952 1149.03 965.384 1148 959L1145 960L1140 956L1140 954C1149.03 951.664 1156.57 948.182 1164 954L1162 947L1173 949C1168.91 959.141 1171.51 965.81 1183 965L1182 961L1186 962L1187 956L1192 963C1200.52 960.065 1203.18 970.739 1211 972L1203 954L1206 956L1199 952C1200.68 948.375 1203.79 944.201 1203.38 940C1202.54 931.28 1192.45 920.698 1184 920L1182 905C1185.98 908.006 1187.55 911.053 1188 916L1190 913L1198 916L1198 911C1208.19 914.787 1206.97 926.472 1212.69 933.667C1215.32 936.97 1220.72 939.217 1223.89 942.306C1226.28 944.641 1225.53 947.256 1229 948C1228.04 943.978 1228.88 939.864 1233 944L1236 944L1240 932L1241 932L1242 940L1244 940L1245 930C1240.54 926.282 1239.94 921.33 1244 917L1245 928L1247 928L1263 910C1266.19 913.291 1270.71 922.955 1275 917L1276 917L1275 924L1278 919L1282 920C1281.1 911.973 1272.36 909.56 1280 902L1284 906C1283.41 903.247 1280.97 891.151 1287.9 894.046C1291.03 895.355 1291.15 899.432 1293.34 901.65C1297.01 905.359 1303.05 908.533 1308 910L1307 897L1317 912L1318 912L1325 900L1331 924L1336 923C1337.87 926.7 1339.91 927.692 1344 928C1343.9 924.22 1343.97 921.197 1348 920L1350 909C1355.87 914.684 1360.63 921.318 1363 929L1367 928L1367 921L1372 924L1370 911L1378 912L1378 909L1381 909L1388 916L1387 904L1388 904L1389 907L1390 907L1389 882C1394.48 883.935 1397.29 883.319 1398 877L1404 877L1408 880L1408 868L1412 865L1430 873L1430 867L1435 869L1435 856L1445 859L1448.75 846.961L1443 835L1447 836L1463 828L1467 824L1467 822L1464 815L1456 812L1458 805C1464.39 806.182 1472.32 801.245 1474 795C1467.9 791.783 1453.71 783.306 1451 796C1444.25 794.638 1441.55 789.257 1436.79 784.876C1423.14 772.317 1415.89 758.575 1408 742C1419.72 752.824 1419.93 775.929 1440 776L1434 765L1445 764C1444.12 757.417 1447.12 751.651 1440 748L1440 746L1441 745L1446 745C1446.33 750.166 1446.74 753.151 1452 755L1470 754L1467 749L1471 753L1484 752L1484 745L1480 746C1479.98 741.579 1480.15 738.289 1476 736L1486 726L1477 719L1480 720L1484 713L1481 714L1480 711C1487.65 710.367 1499.9 719.82 1506.81 714.396C1511.53 710.695 1508.24 696.431 1501 701C1496.61 694.163 1491.57 687.629 1504 692L1503 683L1507 684L1499 673L1503 669L1497 665L1502 664C1499.12 659.337 1490.94 660.164 1486 661L1495 653C1489 652.526 1482.91 652.314 1485 645L1477 640L1477 638L1483 635L1482 629C1497.12 634.171 1501.42 647.617 1515.04 655.348C1523.25 660.009 1531.98 654.587 1539 663L1542 661L1560 680L1560 672C1574.94 671.305 1572.77 658.199 1568.2 648C1558.73 626.844 1541.14 611.783 1533 590C1535.57 587.753 1534.52 585.812 1532 584L1532 583C1542.76 582.404 1536.08 574.019 1538 567C1535.09 564.72 1533.48 563.117 1536 560L1536 559L1529 553L1538 552L1539 552L1543 554L1544 551C1549.49 555.507 1553.97 557.285 1561 556L1559 549L1566 548C1564.82 540.687 1564.18 535.591 1558 531L1561 530L1557 518L1556 518L1556 520L1555 520L1548 495L1541 492L1541 491L1550 477L1547 475L1557 472L1565 474L1565 467C1570.91 469.844 1586.92 470.01 1586.62 459.926C1586.49 455.408 1579.15 453.486 1580.33 449.108C1581.34 445.383 1589.94 445.524 1593 443L1593 442L1587 433L1585 435C1584.57 430.222 1585.2 427.121 1589 424L1589 423L1581 422L1582 419L1567 416C1569.09 408.747 1567.23 398.226 1560 395L1568 384L1558 372C1561.6 364.201 1552.54 353.868 1545 360L1542 337L1534 339L1534 337L1532 337L1529 344L1526 328L1519 327L1516 328L1511.37 350.146L1491 360L1499 350C1495.94 349.29 1494.73 349.331 1493 352L1491 352L1489.59 335.148L1497 328L1489 330C1494.06 321.24 1507.87 320.506 1517 316.204C1522.46 313.632 1527.1 309.485 1533 308L1536 304C1533.02 297.414 1526.9 300.283 1521 299L1520 287L1529 280L1526 273L1515 272L1520 262C1512.29 259.721 1507.15 264.31 1500 264.017C1492.23 263.698 1488.67 259.163 1480 261.378C1473.53 263.032 1460.2 268.141 1455 263L1445 264L1455 256L1455 254L1449 252L1454 243C1448.56 242.684 1442.93 245.364 1440 250L1438 250L1437.96 237.662L1433.42 238.329L1417 246L1421 237C1415.34 232.156 1413.48 231.684 1406 232L1407 227L1392 231C1388.63 227.459 1382.22 231.667 1380 235L1373 236C1375.43 228.016 1369.7 222.56 1372.47 215C1374.91 208.35 1381.77 205.424 1385.91 199.985C1393.92 189.457 1400.16 176.711 1406.28 165C1411.58 154.871 1405.89 148.582 1407.24 139.015C1408.55 129.716 1416.39 121.871 1419 113C1413.93 110.132 1407.29 104.848 1401 106.078C1385.95 109.019 1377.65 128.229 1369.7 138.985C1364.86 145.531 1358.07 150.26 1353 157L1346 158C1344.06 151.603 1340.39 154.936 1336 157L1336 166L1335 166L1334 159L1332 159L1331 164L1327 161L1324 169L1323 169L1320 143L1313 146C1311.42 136.119 1301.29 143.757 1300 150L1299 150L1296 146L1279 166L1276 165L1273 174L1259 169L1258 169L1258 173L1256 173L1252 155L1250 155L1247 162C1246.96 157.039 1242.53 140.301 1234.28 145.712C1231.02 147.848 1230.45 153.635 1229 157C1226.54 151.079 1224.84 146.099 1218 145C1214.24 150.718 1212.19 153.911 1205 152L1203 172L1200 170L1198 176L1192 175C1191.09 177.414 1190.19 181.316 1187.36 182.139C1183.44 183.28 1178.21 178.329 1177 184L1174 183L1165.88 187.858L1144 205C1147.44 199.53 1149.53 195.315 1147 189L1146 192L1135 194L1136 187C1127.98 193.867 1128.25 204.895 1116 200L1115 187L1114 187L1107 192C1105.34 184.156 1098.79 184.038 1092 184L1092 183C1097.42 180.345 1098.86 175.742 1099 170L1093 176L1084 176L1095 160L1095 158L1094 157L1092 157L1088 162C1088.76 156.385 1088.89 144.987 1095 143L1101 129L1088 134L1081 150L1080 150L1078 147C1078 153.643 1077.99 160.464 1074 166C1073.88 158.467 1073.89 143.551 1076.99 137C1081.21 128.05 1090.28 121.008 1093.14 111.576C1094.37 107.521 1092.29 97.9167 1088 97L1088 82L1087 82L1073 81L1075 88L1058 87L1053 105L1047 102C1049.48 94.6582 1052.21 85.6856 1050 78L1048 80L1047 80L1048.06 70.1698L1058 58L1051 58C1051.18 53.0652 1048.67 51.5245 1044 51L1048 54L1048 55L1045 55L1041 66L1037 56L1033 58C1032.25 54.5168 1030.28 55.1017 1029 58L1033 58L1033 59L1025 63L1025 64L1028 64L1027 68L1022 67L1022 71L1021 71L1019 65L1006 67L1006 46L990 71L992 56L978 75L973 90L972 91L966 90L963 102L962 102L963 81L953 85L945 92L946 86L938 88L938 76L930 79L924 96L920 96L922 91L916 92L918 88L918 87L915 85L916 93L914 96C910.616 92.6871 910.668 88.5599 911 84L910 84L909 86C903.902 79.8328 901.346 70.8253 900 63L895 63C893.555 67.0983 892.185 69.496 888 71L887 61L885 61L874 72L869 84C867.65 77.9811 863.974 67.3132 857 67L856 76L853 76L852 73L850 73L850 78L847 79C841.616 68.4873 829.77 85.3438 835 86L840 102L833 102L832 95L816.999 93.527L808.015 96.9591L799.911 92.7801L785 91L784 91L784 100L787 107L786 107L785 104L777 104L791 124L788 120L782 121L781 130L779 123C766.263 122.698 757.896 117.768 747 124C748.333 127.986 753.072 133.187 747 135C747.493 143.995 765.203 155.771 773.995 156.732C778.384 157.211 781.749 151.26 785.367 155.207C791.504 161.902 788.022 168.362 788.376 176C788.876 186.795 791.806 198.208 793 209L790 220L789 220C786.873 207.12 783.11 200.325 777 189C772.605 193.549 775.867 199.309 776 205L772 208L777 205C778.796 211.51 774.453 212.049 769 212C768.376 204.112 758.326 203.494 752 201C751.232 208.256 752.072 213.788 744 209L742 224L740 224L740 209L733 207L732 211L726 211C724.537 201.753 717.025 191.104 708 188L711 195L711 196L709 201L703 189L699 191C695.942 184.093 687.381 176.94 685.738 169.911C683.371 159.786 688.262 145.697 682 136L682 135C686.644 129.333 690.989 109.96 684 106C687.042 93.1885 681.294 79.7454 668 76L669 53L664 56C665.706 46.8099 665.245 37.2889 666.171 28C666.433 25.3698 668.537 20.1567 666.172 18.0323C663.005 15.1869 659.096 20.1742 657 22L657 16L656 19L655 19L654 16L652 16L651 19L646 15L638 19z"/>
<path style="fill:#fdfdfd; stroke:none;" d="M664 18L666 20L666 18L664 18z"/>
<path style="fill:#040404; stroke:none;" d="M668 47L668 50L670 47L668 47z"/>
<path style="fill:#fdfdfd; stroke:none;" d="M886 70L888 72L886 70M889 72C890.604 75.6245 892.055 76.5161 896 76L889 72M1018 72L1019 76L1023 75L1018 72M980 79L981 80L980 79z"/>
<path style="fill:#040404; stroke:none;" d="M1084.67 79.3333L1085.33 79.6667L1084.67 79.3333M1087 80L1088 81L1087 80z"/>
<path style="fill:#fdfdfd; stroke:none;" d="M874 87L875 88L874 87z"/>
<path style="fill:#040404; stroke:none;" d="M969 87L970 88L969 87z"/>
<path style="fill:#fdfdfd; stroke:none;" d="M876 93L878 96L876 93M926.333 93.6667L926.667 94.3333L926.333 93.6667M785 96L786 97L785 96M828 101L829 102L828 101M840 103L841 104L840 103z"/>
<path style="fill:#040404; stroke:none;" d="M506.667 107.333L507.333 107.667L506.667 107.333z"/>
<path style="fill:#fdfdfd; stroke:none;" d="M842 107L844 112L842 107M844.333 114.667L844.667 115.333L844.333 114.667z"/>
<path style="fill:#040404; stroke:none;" d="M745.667 119.333L746.333 119.667L745.667 119.333M744 125L747 128L744 125M1078.33 138.667L1078.67 139.333L1078.33 138.667z"/>
<path style="fill:#fdfdfd; stroke:none;" d="M1217 148L1219 150L1217 148M1071 149L1067 157L1072 155L1071 149M508.333 157.667L508.667 158.333L508.333 157.667M1066 161L1066 164L1068 161L1066 161M590 163L591 164L590 163z"/>
<path style="fill:#040404; stroke:none;" d="M498 165L499 166L498 165z"/>
<path style="fill:#fdfdfd; stroke:none;" d="M1084 168L1087 168L1086 166L1084 168M1082 171L1083 172L1082 171M1079 175L1080 176L1079 175M504 177L506 180L504 177M1083 178L1082 180L1084 180L1083 178M1076 179L1076 182L1078 179L1076 179M1084 184L1088 181L1084 184z"/>
<path style="fill:#040404; stroke:none;" d="M1107.67 183.333L1108.33 183.667L1107.67 183.333z"/>
<path style="fill:#fdfdfd; stroke:none;" d="M682 189L683 195L684 195L686 189L682 189M1075 191L1076 192L1075 191z"/>
<path style="fill:#040404; stroke:none;" d="M770.667 195.333L771.333 195.667L770.667 195.333z"/>
<path style="fill:#fdfdfd; stroke:none;" d="M684 197L684 199L686 197L684 197z"/>
<path style="fill:#040404; stroke:none;" d="M773 199L774 200L773 199z"/>
<path style="fill:#fdfdfd; stroke:none;" d="M675 207C673.307 211.343 673.722 213.823 678 216L677 207L675 207M1068 211L1068 216L1069 216L1070 211L1068 211z"/>
<path style="fill:#040404; stroke:none;" d="M425 217L428 220L427 217L425 217z"/>
<path style="fill:#fdfdfd; stroke:none;" d="M688 225L688 229L688 225M374 233L375 234L374 233z"/>
<path style="fill:#040404; stroke:none;" d="M362.333 234.667L362.667 235.333L362.333 234.667z"/>
<path style="fill:#fdfdfd; stroke:none;" d="M430.333 237.667L430.667 238.333L430.333 237.667M373 241L376 244L373 241M444 241L444 244L445 244L444 241M436 255L437 256L436 255z"/>
<path style="fill:#040404; stroke:none;" d="M1495 259L1496 260L1495 259z"/>
<path style="fill:#fdfdfd; stroke:none;" d="M355.667 263.333L356.333 263.667L355.667 263.333z"/>
<path style="fill:#040404; stroke:none;" d="M1521 265L1521 269L1523 265L1521 265M356 286L355 292L356 292L359 288L356 286z"/>
<path style="fill:#fdfdfd; stroke:none;" d="M1515.67 287.333L1516.33 287.667L1515.67 287.333z"/>
<path style="fill:#040404; stroke:none;" d="M1525 289L1524 296L1525 296L1527 289L1525 289z"/>
<path style="fill:#fdfdfd; stroke:none;" d="M1516 295L1517 300L1518 300L1516 295z"/>
<path style="fill:#040404; stroke:none;" d="M1538 299L1540 302L1540 299L1538 299M1540 303L1541 304L1540 303M348 315L349 316L348 315z"/>
<path style="fill:#fdfdfd; stroke:none;" d="M351 317L352 318L351 317M347 322L348 323L347 322z"/>
<path style="fill:#040404; stroke:none;" d="M326.667 323.333L327.333 323.667L326.667 323.333z"/>
<path style="fill:#fdfdfd; stroke:none;" d="M332 329L333 330L332 329M333 331L334 332L333 331z"/>
<path style="fill:#040404; stroke:none;" d="M325 339L326 340L325 339z"/>
<path style="fill:#fdfdfd; stroke:none;" d="M1489 351L1490 352L1489 351M325 371L326 372L325 371M386 429C387.835 432.111 389.835 432.927 393 431L386 429M394 434L394 435L400 436L394 434M402 437L407 445L408 445L402 437M1586 440L1589 440L1588 438L1586 440z"/>
<path style="fill:#040404; stroke:none;" d="M404 440L405 441L404 440z"/>
<path style="fill:#fdfdfd; stroke:none;" d="M409 445L411 449L412 449L409 445M417 450L417 452L419 452L417 450M378 462L379 467C381.654 464.94 380.636 463.513 378 462M384 463L385 464L384 463M344 487L345 488L344 487M352 495L353 496L352 495z"/>
<path style="fill:#040404; stroke:none;" d="M1552 507L1553 508L1552 507z"/>
<path style="fill:#fdfdfd; stroke:none;" d="M352 509L356 514L355 509L352 509M357 519L358 520L357 519z"/>
<path style="fill:#040404; stroke:none;" d="M314 551L315 552L314 551z"/>
<path style="fill:#fdfdfd; stroke:none;" d="M321 552L324 557L325 557L321 552M327 558C329.144 562.358 332.121 564.278 337 564L337 562L327 558M1528 567L1528 568L1532 568L1528 567z"/>
<path style="fill:#040404; stroke:none;" d="M342.667 603.333L343.333 603.667L342.667 603.333z"/>
<path style="fill:#fdfdfd; stroke:none;" d="M1461 603L1461 604L1465 605L1458 609L1470 618C1475.08 612.203 1467.45 603.212 1461 603M1454 611L1455 612L1454 611M339 612L338 614L340 614L339 612M356 613L357 614L356 613M357.667 615.333L358.333 615.667L357.667 615.333M327.667 631.333L328.333 631.667L327.667 631.333M1455 639L1456 640L1455 639z"/>
<path style="fill:#040404; stroke:none;" d="M304 663L305 664L304 663z"/>
<path style="fill:#fdfdfd; stroke:none;" d="M284.333 683.667L284.667 684.333L284.333 683.667M1490 683L1491 684L1490 683z"/>
<path style="fill:#040404; stroke:none;" d="M275 684L276 685L275 684z"/>
<path style="fill:#fdfdfd; stroke:none;" d="M283.667 686.333L284.333 686.667L283.667 686.333M1488 687L1488 688L1491 688L1488 687M1492.67 687.333L1493.33 687.667L1492.67 687.333z"/>
<path style="fill:#040404; stroke:none;" d="M1508 689L1509 690L1508 689M283 697L284 698L283 697z"/>
<path style="fill:#fdfdfd; stroke:none;" d="M301 697L301 700L302 700L303 697L301 697M306 697C306.856 700.03 307.919 700.283 311 700L311 699L306 697M1502 702L1506 704L1502 702z"/>
<path style="fill:#040404; stroke:none;" d="M1510 707L1511 708L1510 707z"/>
<path style="fill:#fdfdfd; stroke:none;" d="M1507 709L1508 710L1507 709M1468 711L1468 712L1477 712L1468 711z"/>
<path style="fill:#040404; stroke:none;" d="M288 723L288 724L291 724L288 723z"/>
<path style="fill:#fdfdfd; stroke:none;" d="M1466 731L1467 732L1466 731M1404 732L1407 741L1408 741L1404 732M264 741L266 744L264 741M1451 751L1452 752L1451 751M278 783L279 784L278 783M297 811L297 812L300 812L297 811M1431 855L1432 856L1431 855M303 856L304 857L303 856M302 860L303 861L302 860M1426 867L1426 868L1429 868L1426 867M359 879L360 880L359 879M1388 879L1389 880L1388 879M589 883L590 884L589 883M588 899L589 900L588 899M796 899L797 900L796 899M1281 899L1282 900L1281 899M1386 903L1387 904L1386 903M733 907L733 908C735.993 907.936 737.346 908.054 738 905L733 907M365 907L366 908L365 907M1168.67 907.333L1169.33 907.667L1168.67 907.333M732 909L733 910L732 909M532 916L533 917L532 916M364 921L365 922L364 921M534 927L535 932L536 932L534 927M364 932L365 933L364 932M537 934L541 942L537 934M1052 942L1055 939L1052 942M1156 943L1156 944L1161 944L1156 943M1185 947L1186 948L1185 947M1133 950L1132 951L1136 954L1133 950M1182 953L1182 958L1187 953L1182 953M536 963L537 964L536 963z"/>
<path style="fill:#040404; stroke:none;" d="M1187 968C1191.07 968.755 1193.25 968.321 1194 964C1190.31 964.12 1188.22 964.313 1187 968M1147 979L1148 980L1147 979M736 983L737 984L736 983M418 989L419 990L418 989z"/>
<path style="fill:#fdfdfd; stroke:none;" d="M732 1001L733 1002L732 1001z"/>
<path style="fill:#040404; stroke:none;" d="M745 1004L743 1008C745.649 1007.43 746.355 1006.41 745 1004M470 1005L471 1006L470 1005z"/>
<path style="fill:#fdfdfd; stroke:none;" d="M1047 1007L1048 1008L1047 1007M756 1009L754 1013L756 1009M787 1009L783 1015L783 1016L788 1017L789 1009L787 1009M829 1015L830 1016L829 1015M868 1020L872 1015L868 1020M1018.67 1019.33L1019.33 1019.67L1018.67 1019.33M874 1021L873 1022L873 1023L873 1024L876 1021L874 1021z"/>
<path style="fill:#040404; stroke:none;" d="M903 1021L903 1024L905 1024L905 1021L903 1021M1021 1025L1022 1026L1021 1025M1016.33 1028.67L1016.67 1029.33L1016.33 1028.67M804 1029L802 1038L804 1038L806 1029L804 1029z"/>
<path style="fill:#fdfdfd; stroke:none;" d="M853 1029L852 1032L856 1032L853 1029M832 1039L833 1040L832 1039z"/>
<path style="fill:#040404; stroke:none;" d="M1068 1039L1069 1044L1073 1044L1068 1039M1057.67 1043.33L1058.33 1043.67L1057.67 1043.33M856 1046L857 1047L856 1046z"/>
</svg>
