<?xml version="1.0" standalone="yes"?>
<svg xmlns="http://www.w3.org/2000/svg" width="1920" height="1080">
<path style="fill:#fdfdfd; stroke:none;" d="M0 0L0 1080L1920 1080L1920 0L0 0z"/>
<path style="fill:#040404; stroke:none;" d="M655 6L650 14L648 10L637 17L634 12L634 16C623.62 19.5215 616.853 46.1658 615 56C610.146 56.5856 609.619 64.8004 608.926 69C608.024 74.4634 605.845 81.5945 606.102 87C606.282 90.7908 608.601 94.1237 608.463 98C608.296 102.702 605.58 107.252 605 112L597 115C597.72 126.09 599.196 132.719 594 143L593 139L588 139L588 152L582 143L574 143C569.395 152.145 563.571 166.853 578 171L578 172C570.732 171.446 567.69 163.602 564 158L563 158L565 172C561.118 170.822 560.301 168.952 560 165L559 165C555.068 173.79 557.09 177.742 559 187L551 172L550 172L549 177L548 177C547.832 172.169 548.555 166.687 544 164L544 169L543 169L529 141L528 141L527 149L526 149L526 145L524 145L523 158L522 158L516 146L508 146C507.626 154.555 503.429 159.715 497 165L497 168L493 166L494 188L490 187L486 205L482 205L481 220L480 220L480 217L476 219L479 228L478 228L474 224L473 225L479 238L471 231L467 235L467 242L465 235L462 248L453 236L450 236L451 244L448 239L445 240L442 237L441 241L440 241L440 235L437 236L427 216L426 216L430 234L427 233L425 236C424.498 224.523 416.082 221.619 409 214L408 214C404.463 215.792 402.919 215.718 400 213L387 219L391 236L392 233L394 233L394 243L387 237L384 240L385 234L382 235C381.038 231.069 375.43 225.329 374 232L363 230L361 236L367 235L367 236L364 237C364.264 239.413 367.414 251.068 362 246L361 254L360 254L360 251L359 251L359 256L358 253C356.655 249.628 355.117 248.765 353 252L350 249L353 260L351 259L355 276C361.575 280.026 355.771 283.134 354.627 288.104C352.81 295.996 358.172 299.139 347 301L344 321L326 323L326 324L330 324L326 329L328 338L326 336L323 341L327 344C322.792 341.932 320.143 343.314 316 345L316 352L321 354C319.685 356.558 316.591 358.456 315.731 361.12C313.462 368.142 319.455 374.22 322 380C315.447 379.998 301.737 396.878 304.357 403.788C305.457 406.688 309.414 407.915 312 409L311 412L326 411L326 412C318.615 414.93 310.37 424.605 315 432L319 431L314 440L317 437C329.824 439.058 353.934 433.881 352 417L368 422.846L393 431L381.576 429.251L367 432L370 440L378 439L368 445C365.81 451.925 365.53 455.787 373 458L367 464C359.885 463.102 345.117 466.77 341 473L345 476L340 473L326 483L336 482L337 483L333 492L334 495C336.619 493.891 349.059 491.953 344.288 498.687C342.164 501.684 338.095 500.765 336 504L351 511L351 512L346 515L346 516L348 520L326 521L326 528L324 528L320 521L319 521C314.355 529.473 303.084 510.525 296 520L302.614 532.801L310.582 538.498L320 552L310 550L319.032 569.79L338.407 588.996L353 601L352 606L342 603L345 608L342 605L340 606L340 605L340 601L339 601C336.643 605.021 333.258 604.486 329 605L330 608L325 602L319.401 610.567L311 616L320 626L323 627L323 628L312 625C312.767 637.06 328.315 642.508 319 653L318 649C313.386 650.552 311.365 650.784 308 647L306 647L305 650L310.167 656L325 668L309 665C309.045 669.3 308.652 675.015 303 673L295 686C292.955 678.686 280.706 675.647 278 684L273 683C276.63 687.975 278.334 694.491 285 695L285 696L282 697L282 698L296 701C297.923 711.618 307.398 714.797 315.282 720.147C322.669 725.161 324.207 729.918 334 730L334 734L320 734.397L301.576 725.792L292 725L291 725L288 723L292 728C282.824 729.814 279.595 719.411 273.447 714.635C269.717 711.738 260.712 711.395 256 711C266.167 725.755 252.335 720.862 243 723L258.877 737.12L263 757L263 758L260 768L251 771L251 772L259 779L258 784L264 783C262.994 779.592 263.418 778.445 266 776L265 782L270 783L267 788C271.893 790.152 286.481 796.907 280 803L280 804C286.659 804.531 291.421 806.096 295 812L290 816L305 823L304 826L311 823L313 827L318 825C319.968 833.91 308.741 846.493 300 849L298 856L302 857L299 864C304.325 863.151 308.221 862.693 311 868C304.32 869.07 300.547 873.976 298 880L300 877L301 877L302 884L307 877C319.694 879.602 332.766 867.069 341 859L343.981 875L339 896L340 897C344.72 895.252 347.03 891.869 348 887L350 889L357 888L347 908L348 908L351 905L352 910L354 910L357 901L362 912L364 910L365 910C363.494 914.897 351.08 926.844 364 929L360 940C376.098 931.125 380.754 922.227 385 905L387 905C388.3 910.917 387.776 918.229 385.692 924C382.407 933.099 373.274 939.162 384 947L398 936L396 944L401 943C399.131 948.93 394.681 958.033 399 963L400 963L403 957L406 957L406 960L409 957L408 974L411 973L412 976C419.664 976.993 416.329 987.923 415 993L425 989L426 992L428 992L429 989L434 987L436 987C438.363 994.437 439.399 1010.87 451 1006C452.53 1012.85 457.868 1015.7 461 1008L464 1012L467 1007L474 1009L481 981L484 982L484 965L485 965L486 974L488 974L490 969C495.61 970.719 496.188 972.263 497 978L500 980L501 980L504 968L505 968L506 976C510.196 975.274 511.042 972.939 512 969L516 970L515 960L523 965L524 961L533 977L535 977L538 965L539 965C540.842 971.377 544.714 976.073 550 980C549.903 968.483 545.999 955.729 542 945L543 945C547.115 953.647 554.719 959.678 564 962L556 937L561 939L559 927L568 931L571 938L572 933L576 940L578 940L577 933L582 933L584 918L590 922L589 900L592 902L590 870L599 878L597 869L606 879L607 878L606 875L616 875C618.164 879.304 622.242 879.743 625.2 883.228C630.445 889.407 630.8 907.159 641 907C646.71 918.671 654.992 920.478 663.815 928.479C671.67 935.603 675.825 944.726 685 951L685 952L675 960L676 963C678.79 961.605 696.279 951.883 695 957C702.894 956.836 710.943 953.893 718.87 956.028C722.323 956.958 723.94 961.497 726.188 963.96C733.642 972.125 738.898 972.691 734 984L737 984L738 988C728.602 992.189 721.343 1003.89 720 1014L721 1014L737 1001L742 1003L749 1016C739.01 1019.98 735 1035.31 735 1045C743.446 1039.88 752.739 1024.87 763 1026C767.403 1020.34 772.975 1019.09 780 1019L775 1032L776 1032C781.505 1022.45 789.511 1025.66 797 1019L796 1023L801 1022L799 1027L803 1027L801 1039C805.613 1036.25 806.97 1032.19 806 1027L809 1029L815 1022L812 1029L812 1038C817.31 1034.12 819.692 1034.06 821 1041L826 1035L827 1035L824.282 1047.21L826 1064L830 1064L832 1047C839.462 1053.19 834.863 1056.35 834 1064C837.538 1062.76 837.803 1060.57 838 1057L839 1057L840 1062L842 1062L849 1049L852 1050L852 1055L855 1054L844 1033L856 1039L856 1040L853 1040L858 1056L860 1056L860.189 1038.02L868 1027L869 1027L870 1046L871 1046C873.771 1040.11 877.623 1028.85 884 1027L883 1033L887 1026C896.841 1029.93 895.966 1017.52 905 1019L907 1017C908.188 1021.71 905.721 1030.5 911 1032C911.841 1022.35 915.497 1014.13 922 1007L922 1013L930 1000C930.601 1003.23 929.282 1007.53 933 1008L936 1022L945 1002L950 1004L954 998L960 1004C960.388 998.927 962.124 997.832 967 999L968 998L965 985L975 984L973 975L979 976L985 966L987 979L993 977C994.173 985.723 993.188 992.297 996.979 1000.91C1001.11 1010.29 1008.74 1013.46 1006 1025L1009 1024L1010 1032L1015 1029L1015 1037L1019 1028L1035 1036L1032 1014L1033 1014L1038 1022L1044 1009L1047 1009L1047.85 1030L1060 1050L1064 1047L1060 1047C1061.29 1042.75 1063.93 1042.1 1068 1041C1068.98 1044.23 1074.46 1047.02 1073.11 1042.03C1070.83 1033.63 1061.35 1035.23 1066 1025L1063 1024C1066.56 1014.23 1058.72 995 1070.3 988.233C1072.49 986.953 1075.61 988.255 1078 988L1079 997L1084 995L1085 998L1087 994L1088 994L1088 1000L1096 991L1099 993L1100 993L1111.97 981.444L1124 994C1122.2 987.581 1115.65 961.084 1128.17 960.117C1137.68 959.384 1134.76 971.606 1138.6 975.392C1141.9 978.643 1146.96 973.982 1141 972L1141 971L1154 977L1149 957L1140 956L1155 949L1165 955C1164.9 953.151 1165.01 946.107 1168.81 949.006C1171.45 951.018 1169.87 957.8 1171.23 960.945C1173.34 965.848 1179.31 966.747 1184 968L1183 961L1184 961C1186.15 967.229 1196.34 973.518 1194 963C1203.88 964.475 1206.9 978.828 1218 976C1215.19 971.101 1210.76 967.646 1208.85 962C1206.4 954.739 1209.26 947.427 1207.3 941.089C1204.67 932.565 1192.84 920.031 1184 920L1182 905C1186.54 908.886 1187.74 913.148 1188 919L1189 919L1192 913L1200 918L1201 913C1207.01 919.971 1210.82 928.869 1212 938L1216 937L1222.75 942.25L1226 950L1231 948L1228 942L1229 941C1237.33 946.056 1236.28 939.92 1242 935L1243 942L1245 942L1246 941L1249 924L1255 918L1263 917L1264 912L1274 925L1278 921L1280 921L1284 924C1283.93 917.77 1282.25 912.329 1276 910L1278 904L1280 904L1284 908L1283 895C1294.38 896.272 1298.52 917.143 1311 912L1310 904L1316 914L1319 914L1322 902L1327.37 919.96L1339 930L1341 929L1341 931C1345.11 929.426 1346.56 926.815 1344 923L1352 916C1358.04 920.298 1360.97 922.309 1361 930L1368 932L1367 922L1374 926L1373 912L1381 911L1388 918L1387 907L1391 909L1391 886L1396 888L1399 879L1401 881L1407.71 880.689L1412 869L1412 871L1420 872L1425 874L1429 875L1431 868L1436 871L1436 857L1446 860L1445 855L1448 856C1449.5 849.95 1454.84 843.339 1447 840C1451.96 832.062 1464.54 831.432 1469.25 824.502C1474.51 816.779 1463.33 812.229 1458 812L1458 811C1460.62 810.272 1462.88 808.773 1459 808L1459 807C1466.14 806.522 1478.57 801.74 1475 793L1472 794C1471.61 785.526 1451.4 787.11 1451 796C1444.44 794.677 1442.21 789.834 1437.79 785.428C1425.54 773.213 1415.73 761.791 1410 745C1420.03 753.797 1421.52 778.878 1440 776L1433 768L1433 767L1446 764L1443 760C1444.92 758.303 1445.61 757.082 1446 760L1447 760L1440 746L1446 745C1446.41 750.743 1447.25 753.745 1453 756L1454 752L1466.91 755.681L1484 754L1485 744L1480 744L1480 743C1483.17 739.922 1478.58 736.122 1477 733L1484 732L1480 717L1484 718L1481 712L1481 711C1488.31 712.448 1504.83 722.634 1509 712L1510 712L1511 715L1515 714L1515 712L1514 711L1511 712L1510 709L1513 708L1513 707L1508 706C1510.43 701.302 1503.15 694.779 1502 700C1498.38 697.221 1495.15 694.792 1495 690C1500.13 690.625 1506.35 694.161 1510 689C1504.67 688.593 1502.71 685.01 1509 684C1507.63 680.099 1504.12 677.183 1500 677L1499 673L1504 674L1504 669L1497 668L1497 666L1505 663L1493 660L1495 652L1487 652L1492 644L1492 643L1483 644L1482 637L1488 631C1499.2 636.584 1503.73 649.621 1515 656.266C1524.86 662.076 1533.42 655.201 1541 667L1542 664L1543 664L1558 682L1560 682L1561 676C1576.21 677.701 1573.58 658.665 1569.83 650C1566.94 643.326 1564.03 635.745 1559.52 630C1555.19 624.474 1549.02 620.069 1545.49 613.999C1543.66 610.859 1544.22 607.269 1542.6 604.209C1540.5 600.257 1536 598.843 1535.07 593.999C1533.88 587.787 1539.19 584.467 1539.51 578.985C1539.75 574.935 1536.64 571.993 1538 568L1538 567L1533 564L1536 558L1530 553L1544 556C1548.16 553.864 1563.5 561.364 1560 551C1568.84 548.599 1568.6 539.82 1562 534L1562 533C1566.17 526.42 1553.49 515.253 1554 507L1550 499L1547 498L1549 495L1541 492L1546 489L1545 485L1550 478L1553 479L1554 478L1553 475L1568 474L1568 473L1565 469L1566 469L1567 471C1575.85 465.288 1588.89 471.307 1588 455L1579 452L1579 449L1583 446L1584 446C1590.09 450.518 1594.6 443.072 1597 438L1593 439L1593 437L1589 438C1587.99 431.478 1584.72 427.466 1592 424L1592 423L1571 414L1571 413L1573 411C1568.93 407.422 1566.03 404.21 1569 399L1565 395L1562 396L1568 381L1564 380L1560 371C1564.95 365.316 1553.41 353.758 1547 356L1541 334L1532 335L1529 343L1528 343L1526.96 329.299L1521 322L1520 322C1518.85 325.861 1515.73 327.596 1513.84 331.054C1509.92 338.211 1510.89 344.434 1512 352L1491 360L1499 349L1491 351C1491.38 342.036 1488.99 333.526 1500 332L1496 328L1510.71 322.826L1535 308L1536 308L1538 310L1538 307C1542.81 305.354 1545.81 303.718 1548 299L1541 300L1540 297L1536 299C1535.16 292.7 1537.26 290.18 1543 288C1539.68 284.829 1536.43 285.597 1535 290L1528 287L1537 276L1528 272L1524 270L1523 270L1527 259L1507.09 260.401L1494 258.039L1460.04 263.577L1451 260L1456 256L1456 253C1450.12 249.524 1454.16 246.333 1454 241L1439 249L1440 235L1435 235L1418 246L1421 237L1418 236L1419 233L1406 231L1407 227L1394 231L1374 234L1375 224L1370 223L1385.87 200.41L1397.77 178L1407.19 164L1408.74 138L1420 109L1416 110L1417 107L1406 103C1379.67 109.33 1371.79 141.895 1352 156L1352 154L1350 154L1348 158C1343.4 150.623 1336.6 154.111 1336 162L1335 162L1333 158L1331 164L1330 164L1330 161L1326 161L1325 168L1324 168L1320 141L1314 144C1310.73 134.947 1302.48 141.969 1300 148L1299 148L1298 144L1272 168L1272 174L1268 170L1267 170L1261 174L1259 168L1258 168L1258 173L1256 173L1252 151L1251 151L1249 160C1247 155.38 1241.58 138.199 1233.5 144.758C1230.02 147.579 1230.92 152.812 1228 156C1226.04 136.916 1214.76 152.255 1205 150L1202 169L1199 168L1197 176C1193.78 174.831 1192.02 174.424 1191 178L1189 177C1186.13 182.457 1177.69 181.605 1172 183L1174 186C1169.21 185.849 1165.69 184.439 1164 190L1159 188L1150 197L1148 185L1147 185L1145 191L1136 194L1137 186C1133.64 188.166 1125.06 204.769 1120.83 200.418C1119.17 198.705 1119.49 195.159 1118.51 193.005C1117.55 190.901 1116.6 189.239 1116 187L1107 192C1105.32 183.694 1100.18 183.857 1093 184C1096.53 180.295 1105.14 169.366 1099 165C1096.05 170.782 1091.28 174.491 1085 176L1096 160L1096 157L1092 156L1088 161L1092 143L1096 144L1103 127C1096.93 128.26 1087.87 134.1 1086 140L1082 138L1079 144C1080.43 139.813 1079.4 135.161 1081.44 131.286C1086.67 121.321 1095.46 115.251 1096 103L1092 104L1088.32 88.9105L1092 77C1083.47 74.3635 1068.78 75.1362 1073 87L1057 85L1052 103L1048 102C1052.59 90.7439 1053.85 80.2335 1047 70C1052.77 68.1961 1058.14 62.188 1057 56L1054 57C1053.64 55.6401 1053.32 54.2883 1052.8 52.9746C1046.78 37.7716 1043.56 63.1112 1040.3 62.3688C1037.93 61.8292 1037.44 51.2906 1037 49C1030.37 51.957 1028.87 55.3054 1028 62L1024 61L1023 65L1026 64L1027 68L1020 61C1014.37 64.6963 1006.9 66.9588 1011 57C1005.85 56.3272 1006.98 46.8087 1008 43L1007 42L994 61L995 53C982.864 57.0256 981.239 73.2656 974.836 82.7322C972.75 85.8162 967.016 86.4661 964 89L964 76L956 84L955 81L950 83L951 88L942.178 81.6868L937 72L923 94L922 94C921.669 89.4993 919.976 86.2398 916 84L917 79L913 89L912 89C911.942 84.1501 911.45 81.2862 906 82L901 61L896 59L895 59C893.986 64.3597 893.606 69.4048 887 68C887.882 64.1069 887.908 61.8575 885 59C881.919 63.3125 877.68 68.8295 872 69L872 81C868.88 79.1112 860.816 61.1844 857.023 65.6474C854.472 68.6494 856.222 72.8452 853 76L853 68L848 74C842.877 73.1063 840.289 73.8894 837 78L831 78L827 76L836 96L825 96C822.426 92.3868 818.282 91.7061 814 92L810 89L806 96L804 96L797 87L797 92L796 92C792.649 86.8211 784.689 84.8267 779 83L782 104L772 101L788 120L765.325 119.992L748 115L747 122L748 117L743 117L742 120L746 124L742 123L741 127C744.791 128.869 749.421 129.232 750 134L744 132C742.499 142.031 753.827 146.086 760.83 149.894C768.527 154.079 776.363 163.436 782 151C790.479 160.452 786.944 166.929 788.286 178C789.602 188.852 793.057 197.901 791 209C782.5 203.703 783.038 190.894 772 187L774 194L771 192L768 195L768 196C773.096 201.282 772.44 203.287 772 210L770 210L770 206C763.149 204.187 758.472 202.8 754 197L752 197L747 207L744 203L743 203L741 224L740 224L741 209L736 206L732 210L708 186L707 189L698 190L686.639 169.961L687.725 157L683.886 142.001L689 103L686 104C685.96 89.5718 679.708 84.5541 673 73L670 76L669 76L670 46L669 46L666 50L669 16L665 13L658 20L655 6M668 11L669 12L668 11z"/>
<path style="fill:#fdfdfd; stroke:none;" d="M1052 57L1053 58L1052 57M1029.67 59.3333L1030.33 59.6667L1029.67 59.3333M992 65L991 70L992 70L992 65z"/>
<path style="fill:#040404; stroke:none;" d="M671.333 69.6667L671.667 70.3333L671.333 69.6667M835 73L836 74L835 73z"/>
<path style="fill:#fdfdfd; stroke:none;" d="M892.667 75.3333L893.333 75.6667L892.667 75.3333z"/>
<path style="fill:#040404; stroke:none;" d="M907 75L908 76L907 75M786 83L787 84L786 83M808 86L807 89L808 86M1094 93L1098 100L1094 93z"/>
<path style="fill:#fdfdfd; stroke:none;" d="M785 103L786 104L785 103z"/>
<path style="fill:#040404; stroke:none;" d="M1102.67 123.333L1103.33 123.667L1102.67 123.333z"/>
<path style="fill:#fdfdfd; stroke:none;" d="M781 125L781 129L782 129L781 125z"/>
<path style="fill:#040404; stroke:none;" d="M1231 143L1232 144L1231 143z"/>
<path style="fill:#fdfdfd; stroke:none;" d="M1071 150L1070 154L1071 150z"/>
<path style="fill:#040404; stroke:none;" d="M1096 151L1097 152L1096 151z"/>
<path style="fill:#fdfdfd; stroke:none;" d="M1076 153L1078 157L1076 153M1067.33 154.667L1067.67 155.333L1067.33 154.667M1075 160L1074 164L1075 160M1335 164L1336 165L1335 164M499 165L503 173L499 165M1084.67 167.333L1085.33 167.667L1084.67 167.333M497 169L498 170L497 169M503 175L504 176L503 175M1082 179L1083 180L1082 179z"/>
<path style="fill:#040404; stroke:none;" d="M1106 184L1109 185L1110 181L1106 184M701 182L701 184L704 184L704 182L701 182z"/>
<path style="fill:#fdfdfd; stroke:none;" d="M1084 184L1087 184L1086 182L1084 184M1176 183L1177 184L1176 183M558 188L559 193L560 193L560 188L558 188M683 189L682 194L686 192L686 191L683 189M708 194L708 197L710 196L710 195L708 194M684 197L685 198L684 197M774 197L775 198L774 197M750 202L751 203L750 202M1146 203L1147 204L1146 203M486 205L486 208L487 208L486 205M776.333 205.667L776.667 206.333L776.333 205.667M747 212L751 211L750 207L747 212M774 212L778 208L774 212M674 209L677 215L676 209L674 209M1069 211L1068 213L1069 211M1068.33 214.667L1068.67 215.333L1068.33 214.667M390.333 222.667L390.667 223.333L390.333 222.667M688 225L687 228L690 228L688 225M383 236L384 237L383 236M368 238L368 240L370 240L370 238L368 238z"/>
<path style="fill:#040404; stroke:none;" d="M461 241L462 242L461 241z"/>
<path style="fill:#fdfdfd; stroke:none;" d="M374 242L374 244L376 244L374 242M394 243L395 244L394 243M450 245L453 250L450 245z"/>
<path style="fill:#040404; stroke:none;" d="M347 249L347 252L349 252L349 249L347 249M359 249L360 250L359 249z"/>
<path style="fill:#fdfdfd; stroke:none;" d="M1500 262L1500 264L1502 264L1502 262L1500 262M1447 263L1448 264L1447 263M1520 266L1518 269L1520 266M1523 271L1524 272L1523 271M361 283L361 288L362 288L361 283M1523.33 286.667L1523.67 287.333L1523.33 286.667M358 299L359 300L358 299M356 301L357 302L356 301M350 313L352 316L350 313M1494 323L1491 325L1490 330C1494.02 329.122 1495.63 326.99 1494 323z"/>
<path style="fill:#040404; stroke:none;" d="M1501 329L1505 332L1501 329z"/>
<path style="fill:#fdfdfd; stroke:none;" d="M1543 347L1544 348L1543 347z"/>
<path style="fill:#040404; stroke:none;" d="M317.667 377.333L318.333 377.667L317.667 377.333z"/>
<path style="fill:#fdfdfd; stroke:none;" d="M327 409L328 410L327 409M1571 415L1572 416L1571 415M315 425L316 426L315 425M394 434L394 435L400 436L394 434M402 437L408 444L404 441L402 437M410 446L410 448L412 448L410 446z"/>
<path style="fill:#040404; stroke:none;" d="M364.667 447.333L365.333 447.667L364.667 447.333z"/>
<path style="fill:#fdfdfd; stroke:none;" d="M417 451L418 452L417 451z"/>
<path style="fill:#040404; stroke:none;" d="M363 452L364 453L363 452M362.333 454.667L362.667 455.333L362.333 454.667z"/>
<path style="fill:#fdfdfd; stroke:none;" d="M373 459L374 460L373 459M379 462L381 466L379 462M384 463L385 464L384 463M1547 475L1548 476L1547 475M348 497L349 498L348 497M353 509L352 510L352 511L352 512L356 512L355 509L353 509z"/>
<path style="fill:#040404; stroke:none;" d="M344 515L345 516L344 515z"/>
<path style="fill:#fdfdfd; stroke:none;" d="M350 517L351 518L350 517M323 555L324 556L323 555M330 561L337 564L330 561M1528 567L1528 568L1531 568L1528 567M1532.67 583.333L1533.33 583.667L1532.67 583.333M1463 603L1463 604L1466 604L1463 603M1466 605L1460 609L1461 613L1464 611L1470 615L1468 605L1466 605z"/>
<path style="fill:#040404; stroke:none;" d="M306 614L311 613L306 614z"/>
<path style="fill:#fdfdfd; stroke:none;" d="M339 613L340 614L339 613z"/>
<path style="fill:#040404; stroke:none;" d="M1496 651L1496 653L1498 651L1496 651z"/>
<path style="fill:#fdfdfd; stroke:none;" d="M1488 659L1488 660L1492 660L1488 659z"/>
<path style="fill:#040404; stroke:none;" d="M302 663L302 664L307 664L302 663z"/>
<path style="fill:#fdfdfd; stroke:none;" d="M1488.67 687.333L1489.33 687.667L1488.67 687.333M307 699L307 700L310 700L307 699M1503.67 703.333L1504.33 703.667L1503.67 703.333M1469 711L1469 712L1472 712L1469 711M1477 719L1478 720L1477 719M1466 731L1467 732L1466 731M1405 735L1407 740L1408 740L1405 735M1408 743L1410 745L1408 743M1451 751L1452 752L1451 751M1466 751L1466 752L1470 752L1466 751z"/>
<path style="fill:#040404; stroke:none;" d="M257.333 754.667L257.667 755.333L257.333 754.667z"/>
<path style="fill:#fdfdfd; stroke:none;" d="M256 771L257 772L256 771M278 783L279 784L278 783M1475.33 796.667L1475.67 797.333L1475.33 796.667M298.667 811.333L299.333 811.667L298.667 811.333M1414 867L1415 868L1414 867M1427 867L1428 868L1427 867M357 887L358 888L357 887M1308 899L1310 902L1308 899M784 918L770 913C765.376 914.356 746.697 926.819 746.748 932.04C746.781 935.475 750.22 939.048 751.734 941.996C754.482 947.349 756.302 954.213 758 960L753 958L752 959L752 968C746.676 965.99 737.606 971 744.515 975.972C752.167 981.48 770.734 967.016 778 964L782 945L780 945L767 962C765.695 953.183 774.428 938.196 782.167 933.894C786.294 931.6 795.486 929.323 798.199 925.663C800.85 922.086 796.809 920.449 794 920C799.164 913.893 796.87 910.138 796 903C788.691 905.832 786.266 910.93 784 918M736 905L734 907L734 908L738 905L736 905M1242 919L1244 928L1244 919L1242 919M534 929L535 930L534 929M535 931L536 932L535 931M536 935L540 940L536 935M1053 939L1052 941L1053 939M541 943L542 944L541 943M1163 947L1164 948L1163 947M1200 949L1201 950L1200 949M1133 951L1134 952L1133 951M1200 951L1201 952L1200 951M519 952L521 960L522 960L519 952M1057 953L1056 958L1054 958L1050 955C1053.32 962.517 1062.89 973.81 1058 982L1058 983L1060 985L1062 983L1063 983C1066.13 985.992 1068.11 980.611 1069.15 977.996C1072.04 970.772 1077.33 965.947 1074 958L1073 958L1072 963L1071 963C1069.66 958.174 1067.65 957.543 1063 959L1067 968L1064 968L1057 953M1183 955L1183 956L1187 956L1183 955z"/>
<path style="fill:#040404; stroke:none;" d="M718 957L720 959L720 957L718 957z"/>
<path style="fill:#fdfdfd; stroke:none;" d="M1188 957L1187 962L1191 960L1188 957M1202 957L1206 963L1207 960L1202 957z"/>
<path style="fill:#040404; stroke:none;" d="M706.667 959.333L707.333 959.667L706.667 959.333z"/>
<path style="fill:#fdfdfd; stroke:none;" d="M1145 959L1146 960L1145 959M484 963L485 964L484 963M503 967L504 968L503 967z"/>
<path style="fill:#040404; stroke:none;" d="M745 968L746 971L747 971L747 968L745 968M1146 976L1149 980L1146 976z"/>
<path style="fill:#fdfdfd; stroke:none;" d="M933 994L933 1002C937.888 1000.61 936.07 996.606 933 994M737 995L736 999L737 999L739 996L737 995M787 1009L786 1015L789 1014L787 1009z"/>
<path style="fill:#040404; stroke:none;" d="M743.667 1015.33L744.333 1015.67L743.667 1015.33z"/>
<path style="fill:#fdfdfd; stroke:none;" d="M869 1016L868 1020L871 1016L869 1016z"/>
<path style="fill:#040404; stroke:none;" d="M903 1020L903 1025L904 1025L903 1020z"/>
<path style="fill:#fdfdfd; stroke:none;" d="M874 1021L874 1024L875 1024L874 1021M1023 1021L1022 1022L1022 1024L1023 1025L1027 1024L1027 1022L1023 1021M890 1023L890 1024L893 1024L890 1023M1015 1023L1016 1024L1015 1023z"/>
<path style="fill:#040404; stroke:none;" d="M1066.67 1023.33L1067.33 1023.67L1066.67 1023.33z"/>
<path style="fill:#fdfdfd; stroke:none;" d="M1061.67 1027.33L1062.33 1027.67L1061.67 1027.33M853 1029L852 1032L855 1032L853 1029M743 1035L744 1036L743 1035z"/>
</svg>
