<?xml version="1.0" standalone="yes"?>
<svg xmlns="http://www.w3.org/2000/svg" width="1920" height="1080">
<path style="fill:#fcfcfc; stroke:none;" d="M0 0L0 1080L541 1080L668 1080C678.017 1080 705.101 1085.05 708 1073C704.628 1072.42 702.968 1072.55 702 1076C696.923 1073.22 695.092 1073.84 690 1076L696 1059L675 1065L679.812 1048L683 1033L682 1033C678.758 1043.14 666.817 1058.22 657 1063C661.296 1052.25 651.041 1050.98 643 1052C644.272 1041.85 656.853 1022.92 665.093 1016.75C669.602 1013.38 675.503 1013.32 679.892 1009.89C683.134 1007.36 684.803 1003.52 687.965 1000.88C693.241 996.465 700.621 995.304 704 989L698 988L715 975C711.296 974.924 707.857 971.989 704.285 972.603C688.137 975.38 664.601 991.942 660 1008L656 1007C649.289 1022.37 637.855 1024.69 624.004 1031.04C618.675 1033.48 610.815 1037.95 605 1036L605 1035C613.893 1029.45 625.827 1020.64 631 1012L632 1012C635.304 1015.25 639.067 1009.71 641 1007L637 1010L628 1010L635 993L641.648 984L657 963L660 964C659.826 956.818 664.112 954.479 668 949L657 944L657 943L659 936C654.721 937.975 651.593 939.062 654 944L650 941L647 943L646 943L639 941C641.972 935.854 644.928 937.045 650 936L650 934L646 929L651 928C645.374 922.904 642.844 919.398 641 912L640 912L640 919L639 919L628 891L615 900L619 891L615 890C611.279 893.669 607.9 893.595 607 888L603 883L597 879L596 879L594 884C596.71 886.511 597.363 887.538 596 891L595 897L599 914L596 917L593 916L593.671 928.946L589 939L588 939L588 925L587 925L587 940L584 939L584 965L583 965L576 953C572.425 955.705 574.646 959.177 575.309 963C576.553 970.165 578.141 978.801 577 986L561 980L562.472 1000.93L558.036 1003.53L547 992L546 999C542.439 993.704 539.167 993.018 533 993L534 989L531 990L529 983L526 981L521 984L520 979L519 979L516 988L514 988L511 982L509 992L503 987L499 991L499 996L496 995L492 1001L492 975L491 975L485 998L484 998L496 1040L491 1037L490 1037L490 1047L486 1047L484 1053L483 1053C479.358 1048.27 474.377 1049.85 470.333 1046.1C466.739 1042.77 469.826 1029.48 461 1037C459 1031.98 457.367 1030.02 452 1029C451.242 1033.49 450.244 1035.98 446 1038L442 1031L438 1036L430 1039L432 1030C421.848 1024.71 432.014 1017.49 430 1010L422 1016C421.951 1011.84 421.83 1009.11 418 1007L414 1012L413 1005L411 1005L404 1017L402 1015L398 1016C400.083 1009.41 397.759 995.525 404 992L404 991L400 993C394.564 992.378 391.634 995.536 389 1000C387.896 997.271 385.736 993.092 387 990.167C390.234 982.678 400.754 982.769 398 973L396 973L373 990C373.881 985.477 374.202 981.515 379 980L377.113 967.015L381 957L365 973L367 968L367 967L362 969L362 966C354.95 967.673 350.487 968.673 347 961L343 961C341.413 964.257 339.56 964.574 337 962L335 963L350 943L343 946L347 931L349 933L350 928C345.967 927.445 346.861 923.772 343.687 922.086C339.73 919.983 334.892 925.973 332 928L341 913L343 915L345 901L328 906L338.802 892.025L336 883C332.088 883.838 332.375 888.43 332 892L329 892L327 885L320 881L319 881L314 882C310.798 886.021 306.025 888.858 303.274 893.171C298.782 900.211 299.327 906.578 291 910L294 903L289 902L291 897C284.069 892.642 290.662 883.574 290 877L287 878L286 873C291.485 872.172 295.171 869.269 297 864L287 864L287 860C275.466 861.886 277.974 853.234 285.325 847.696C289.571 844.497 296.882 846.505 302 844L307 833L299 833L295 836L295 832L285 834L289 821C282.729 823.581 278.922 825.647 272 824C274.918 821.9 277.675 821.947 280.683 820.401C284.112 818.64 284.016 812.018 281.333 809.643C276.833 805.659 270.933 811.884 267 805C270.411 805.598 281.596 800.515 275.523 797.717C263.428 792.145 246.614 797.563 236 788C229.985 790.276 225.685 786.129 223 781L226 780L226 776L236 772L236 769C230.761 767.056 231.871 762.632 230 758L241 752L234 745L245 744C244.996 739.175 245.237 735.896 241 733C233.925 739.897 207.716 732.643 203 724L223 716L222 707L227 708C225.357 704.487 221.815 700.123 228 700C229.318 694.083 225.184 692.717 220 692C221.399 689.69 222.279 683.075 224.523 681.948C230.937 678.726 241.751 686.075 246.17 689.712C253.39 695.655 268.751 703.777 278 704C272.666 688.452 250.532 684.857 238 677.725C231.778 674.185 227.008 667.789 223 662C228.331 664.307 236.146 670.399 241 666L242 666L275 674L275 668L276 668L276 671L280 673L286 672L278 665L275 666L274 660C281.203 663.665 282.907 665.231 291 664L294 655L299 656C298.368 649.448 296.865 645.684 291 642L291 641L292 637L302 637L305 640C304.093 632.871 302.13 627.908 294 628L290 619L294 620L297 618L296 614L295 614L292 616C294.113 606.848 279.802 607.039 276 601L291 598L292 598C295.333 600.895 299.39 601.836 301 597L306 600L304 593C312.225 592.15 320.966 599.816 326 590L311 584L312 575L320 576C317.041 567.548 305.315 568.996 307 558L300 556L302 553L299 553L295 556L291 551L290 551L288 554L287 554L282 552L285 550C290.203 541.056 282.595 540.684 279 533L284 534L284 531L289 532L289 531L268 504L269 504L270 491L284 504L286 504L283 494C293.37 497.2 294.747 488.508 304 488C306.1 474.986 327.32 474.671 337 470L332 468C335.549 463.684 338.006 460.296 344 460L361 443L353 436L369 427L369 426C366.07 424.1 360.106 416.988 356.356 418.422C353.673 419.448 353.507 426.097 350.81 428.316C338.517 438.432 326.697 444.958 312 450.234C299.993 454.544 295.142 459.111 285 449L278 452C282.272 446.623 279.918 439.63 280 433L277 436L276 433L272 435L281 428L275 411L287 404L283 394L282 394L281 397L277 396L277 395L283 388L280 390L281 382C291.34 382.402 282.984 371.787 286 367L285 366L281 369L282 361C288.266 362.705 293.833 362.341 297 356L294 343L298 345L299 334C303.208 333.098 301.92 329.422 301 326L302 326L304 332L309 332L309 325L304 326L302 317L305 318L308 313L311 322L313 322C316.571 315.368 322.25 304.263 330 308L328 303C332.056 300.512 331.984 297.487 332 293L329 294L328 289C331.143 289.785 336.434 293.223 339.566 291.633C344.142 289.309 340.182 275.533 337.525 272.64C334.656 269.516 329.329 269.605 327.028 265.775C325.391 263.051 326 259.044 326 256L334 256L334 255L331 252L335 252L335 251C326.6 249.072 313.753 242.05 317 233C321.173 232.476 319.409 227.176 323.083 224.94C330.518 220.415 338.546 228.803 340 217L335 218L336 213C340.546 215.122 345.296 219.407 350 216L351 216L354 218L358 205L361 206C360.29 209.057 360.331 210.268 363 212L363 199L360 200L360 194C362.932 195.336 365.179 196.814 366 193L369 196L370 196L368 191L375 194L375 190C380.125 189.651 387.006 186.847 390 192L408 202L415 183L416 183L416 186L420 185L422 196L426 195L426 199L429 198C433.271 210.511 434.889 219.207 448 226L446 223L451 224L451 220L454 223L454 224L453 230L454 227L459 230L452 217L466 228L470 224C465.605 216.265 461.137 214.905 462 205L464 205L468 210L469 206L476 210C474.97 204.432 473.771 192.39 479 189L477 181L482 183C485.424 174.839 479.351 172.792 476.084 166C474.125 161.927 472.738 153.669 472 149L479 154L480 145L481 145L482 148L488 146L486 137L488 137L490 141C497.066 136.524 495.234 124.07 506 128L507 125L509 127L510 127L509 115C512.216 116.276 513.279 116.046 515 113L516 113L516 116L517 116L519 111L523 113L526 100C538.194 106.687 531.483 125.364 543 132L543 129L544 129L545 129C547.595 135.234 549.435 143.182 556 146L559 140L557 136L556 136L555 140L554 140L552 135L556 132L557 132L561 141L562 141C562.522 135.248 565.667 126.822 570 123C569.376 129.443 567.339 134.273 574 138L582 118L586 119L585 122L589 121L588 127L588 132L591 129L594 129L594 132L598 132C594.217 122.869 593.74 115.359 591.391 106C589.915 100.119 587.274 95.0439 592 90L592 96C596.361 97.236 598.534 99.4462 599 104C604.297 99.967 601.623 86.1184 601.145 79.9606C600.039 65.7249 603.497 51.026 608.838 38C611.273 32.0605 615.734 27.401 617 21L618 24L619 24L627 0L0 0z"/>
<path style="fill:#040404; stroke:none;" d="M627 0L619 24L618 24L617 21C611.407 37.3767 602.362 49.9318 601.089 68C600.424 77.4451 605.339 96.6779 599 104C599.466 99.0529 596.741 96.7383 592 96L592 90C586.763 93.7003 589.606 100.904 591.1 106C593.871 115.457 592.627 123.064 598 132L594 129L591 129L588 132L588 127L589 121L585 122L586 119L582 118L574 138C568.119 133.169 569.668 129.789 570 123C565.113 125.855 562.257 135.481 562 141L561 141L557 132L556 132L556 135L552 135L554 140L555 140L556 136L557 136L559 140L556 146L543 129L543 132L542 132L541 132C537.56 123.27 535.493 103.412 526 100L523 113L519 111L517 116L516 116L516 113L515 113L509 115L510 127L509 127L507 125L506 128C495.851 122.969 495.803 135.601 490 141L488 137L486 137L488 146L482 148L481 145L480 145L479 154L472 149C472.437 153.823 473.877 162.643 476.009 166.83C479.316 173.323 484.41 175.125 482 183L477 181L479 189C473.673 190.141 474.767 205.416 476 210L469 206L468 210L464 205L462 205L461 206C461.611 215.047 464.416 217.303 470 224L466 228C460.986 223.644 459.342 218.072 452 217L459 230C456.113 228 455.195 226.725 453 230L454 224L454 223L451 220L451 224L446 223L448 226L432.95 211.911L429 198L426 199L426 195L422 196L420 185L416 183L415 183L408 202L390 192C388.078 186.266 379.816 189.178 375 190L375 194L368 191L370 196L369 196L366 193L360 194L360 200L363 199L363 212L358 205L354 218L351 216L350 216C344.695 218.285 341.079 214.607 336 213L335 218L340 217C337.604 229.399 329.567 219.05 322.111 224.722C318.973 227.11 321.257 232.376 317 233C312.105 242.088 326.519 249.89 335 251L335 252L331 252L334 255L334 256L326 256C326 259.167 325.196 263.808 327.028 266.582C329.275 269.986 334.33 269.985 337.121 272.756C339.701 275.317 339.783 279.662 340.576 283C341.228 285.745 342.505 290.963 338.316 291.704C335.344 292.229 331.067 289.477 328 289L329 294L332 293L328 303L330 308L328 305C321.008 307.153 315.609 315.496 313 322L311 322L308 313L305 318L302 317L304 326L309 325L309 332L304 332L302 326L301 326C301.618 329.536 302.189 331.91 299 334L298 345L294 343C294 347.681 292.859 353.013 297 356C292.733 361.655 288.597 362.329 282 361L281 369L285 366L286 367C281.922 371.474 291.241 381.79 281 382L280 390L283 388L277 395L277 396L281 397L282 394L283 394L287 404L275 411L281 428L272 435L276 433L276 436L277 436L280 433L278 452L285 449C292.918 459.991 300.435 455.358 311 451.123C326.093 445.072 337.606 439.021 350.811 428.969C353.557 426.879 354.258 419.424 356.812 418.681C359.944 417.769 365.983 424.645 369 426L369 427L353 436L361 443L344 460C337.779 459.346 334.997 463.135 332 468L337 470C327.34 472.986 304.981 475.552 304 488L283 494L286 504L284 504C281.034 498.297 276.003 493.388 270 491L269 504L268 504L267 502C267.005 508.71 282.826 528.752 289 531L289 532L284 531L284 534L279 533C281.451 541.702 288.942 540.345 285 550L282 552L287 554L288 554L290 551L291 551L295 556L299 553L302 553L300 556L307 558C304.557 568.797 315.595 568.365 320 576L312 575L311 584L326 590C319.04 598.978 312.897 591.097 304 593L306 600L301 597C298.607 601.23 295.764 600.263 292 598L291 598L276 601C277.572 608.373 293.969 606.195 292 616L295 614L296 614L297 618L294 620L290 619L294 628C301.706 628.362 303.722 633.245 305 640L302 637L292 637L291 641L291 642C295.862 646.305 297.705 649.775 299 656L294 655L291 664L274 660L275 666L278 665L286 672L280 673L276 668L275 668L275 674L242 666L241 666C235.384 669.111 228.849 663.842 223 662C233.926 684.995 266.428 681.792 278 704C262.71 703.173 251.78 687.361 237.996 683.809C234.77 682.977 226.747 679.594 223.827 682.042C221.831 683.717 221.087 689.506 220 692C224.906 693.071 228.471 694.442 228 700C221.231 699.729 224.57 704.441 227 708L222 707L223 716L203 724C205.493 731.592 218.547 731.632 224.961 734.144C227.713 735.221 229.911 737.65 233.039 737.48C236.407 737.297 239.162 735.631 241 733C244.584 736.451 244.983 739.145 245 744L234 745L241 752L230 758C231.316 762.887 230.276 767.75 236 769L236 772L226 776L226 780L223 781C224.865 786.437 230.283 791.391 236 788C244.436 798.882 264.108 792.43 275.422 798.182C280.856 800.945 269.47 805.234 267 805C269.576 812.513 275.827 806.57 280.591 809.762C283.8 811.913 283.923 817.811 280.683 819.974C277.684 821.975 274.724 821.218 272 824C278.563 825.94 283.284 824.39 289 821L285 834L295 832L295 836L299 833L307 833L302 844C296.691 845.946 288.699 844.127 284.514 847.657C277.4 853.655 274.945 863.658 287 860L287 864L297 864C294.51 868.701 291.097 871.496 286 873L287 878L290 877C290.336 883.093 283.444 893.953 291 897L289 902L294 903L291 910C299.962 907.346 298.953 900.001 303.878 893.171C306.917 888.956 311.47 886.667 314 882L319 881L320 881L327 885L326 888L329 892L332 892L336 883L338.164 893.249L328 906L345 901L343 915L341 913C336.97 917.749 332.488 921.469 332 928L342.853 922.345L350 928C349.741 930.464 349.538 932.777 347 931L343 946L350 943L335 963L337 962C339.103 965.156 341.987 964.568 343 961L347 961C349.348 969.27 355.381 968.567 362 966L362 969L367 967L367 968L364 968L365 973L381 957L376.642 967.015L379 980C373.767 980.909 373.602 985.345 373 990C379.179 987.823 392.225 978.641 396 973L398 973C400.14 985.632 380.129 985.64 389 1000C392.199 996.139 394.783 993.308 400 993L404 991L404 992C397.753 994.079 399.5 1009.91 398 1016L402 1015L404 1017L411 1005L413 1005L414 1012L418 1007L422 1016L430 1010C431.128 1016.76 421.101 1026.59 432 1030L430 1039L438 1036L442 1031L446 1038C450.718 1036.6 451.621 1033.62 452 1029C457.133 1030.57 458.414 1032.31 461 1037C470.323 1031.24 466.163 1043.18 470.319 1046.8C474.07 1050.07 479.074 1049.62 483 1053L484 1053L486 1047L490 1047L490 1037L491 1037L496 1040C498.387 1026.49 484.849 1012.4 484 998L485 998L485 1001C490.648 997.335 489.443 981.539 491 975L492 975L492 1001L496 995L499 996L499 991L503 987L509 992L511 982L514 988L516 988L519 979L520 979L521 984L526 981L529 983L531 990L534 989L533 993C539.107 993.055 541.883 994.594 546 999L547 992C550.949 995.05 552.393 1000.35 556.273 1003.14C565.396 1009.68 560.448 984.907 561 980L577 986L576 953L583 965L584 965L584 939L587 940L587 925L588 925L588 939L589 939L593.685 929.871L593 916L596 917L599 914L595 897C597.826 895.177 597.835 893.741 596 891C598.307 887.801 597.183 885.958 594 884L596 879L597 879L603 883L607 888C607.455 893.837 611.683 894.869 615 890L619 891L615 900C622.225 900.926 622.54 893.997 628 891L639 919L640 919L640 912L641 912C642.429 919.56 644.349 923.737 651 928L646 929L650 934L650 936C644.845 936.29 641.11 935.437 639 941L646 943L647 943L650 941L654 944C652.594 939.231 655.196 938.35 659 936L657 943L657 944L668 949C662.996 953.976 659.244 956.619 660 964L657 963L642.379 982L635 993L628 1010L637 1010L641 1007C638.398 1009.56 635.749 1013.35 632 1012L631 1012L605 1035L605 1036C611.187 1038.37 619.246 1033.63 625 1031.04C637.782 1025.3 651.773 1022.68 656 1007L660 1008C667.394 992.449 686.908 975.993 704.286 973.028C707.801 972.428 711.274 975.151 715 975L698 988L704 989L687.093 1000.88L676.996 1011.18L664.184 1016.75L651.391 1035L643 1052C651.188 1051.36 659.702 1052.5 657 1063C667.032 1060.06 679.592 1042.74 682 1033L683 1033L679.738 1047L675 1065L696 1059L690 1076L702 1076L708 1073L705 1080C718.962 1080 734.763 1082.58 747.089 1076.08C749.449 1074.83 753.02 1075.21 754.482 1072.67C757.599 1067.26 753.566 1058.67 753.228 1053.01C752.98 1048.87 755.948 1046.5 755 1042L763 1047L763 1051L769 1048L771 1054L773 1054L777 1050L778 1051C774.273 1059.36 768.299 1066.26 770 1076L771 1076L775 1065L776 1065L774 1076L790 1060L788 1051C793.908 1056.4 793.026 1061.62 786 1065L792 1080L813 1080L814 1071L815 1071L815 1080L821 1077L820 1080L828 1077L830 1077C833.132 1081.83 851.559 1081.65 856.787 1079.4C859.77 1078.11 861.133 1074.62 864 1073L862 1080L871 1080L868 1076L869 1073L872 1074C873.179 1070.38 875.969 1051.73 880 1056L881 1056C887.776 1048.46 895.505 1043.63 891 1033L898 1026L899 1026L900 1040L904 1036C913.736 1042.07 903.561 1048.26 902 1056L910 1056C911.871 1052.33 914.913 1049.18 915.517 1045C916.513 1038.1 912.796 1030.44 918 1025L918 1029C924.474 1028.35 930.32 1025.86 926 1019C934.385 1021.61 926.955 1031.62 936 1035L935 1029L942 1040C935.438 1043.62 935.814 1060.35 945 1060L947.892 1038L944 1019L948 1024C952.776 1024.51 953.915 1027.73 955 1032L956 1032L959 1027L961 1038L965 1037L966 1043C971.311 1036.32 966.602 1021.18 974 1017L975 1027L980 1024L975 1011L984 999C986.865 1007.93 983.48 1014.66 995 1018L994 1012L994 1011L1001 1023L993.992 1038.7L989.488 1044.14L992 1056C998.603 1059.38 1000.06 1065.3 998 1072C1002.16 1070.17 1005.17 1072.85 1008.74 1071.66C1013.7 1070 1018.74 1059.43 1014 1056L1014 1055L1023 1058L1022 1054L1026 1055L1026 1056L1025 1060L1028 1060C1029.29 1053.87 1027.39 1051.04 1024 1046L1031 1046L1030 1041C1042.09 1043.45 1038.23 1054.33 1039.84 1063C1040.43 1066.15 1042.97 1068.93 1044 1072L1035 1074C1038.42 1079.73 1042.7 1080.86 1049 1079L1049.13 1054L1042 1040L1057 1055L1057 1056C1050.77 1059.56 1056.36 1065.77 1061 1068L1062 1065L1064 1065C1065.2 1069.6 1066.97 1072.78 1072 1073L1073 1076L1076 1076L1082 1068L1079 1080L1087 1080C1087.93 1074.93 1089.67 1067.37 1085 1064L1085 1062L1086 1061L1088 1061C1089.66 1068.25 1087.96 1078.98 1097 1080L1099 1070L1100 1070C1102.53 1076.51 1104.68 1079.66 1112 1080L1109.25 1067.22L1086.49 1045L1079 1024L1102 1005L1103 1009L1105 1009L1117 991L1118 991C1121.01 998.086 1121.59 1009.49 1130 1012L1129 1005L1131 1005L1135 1008L1137 1001C1130.85 994.98 1129.49 977.233 1131 969C1139.85 980.431 1154.95 987.138 1153 1004L1163 1007C1158.69 1013.61 1165.6 1017.79 1168 1024C1178.58 1017.51 1166.37 1002.65 1168 993L1173 994C1173.58 988.778 1176.84 989.527 1181 991L1181 996C1186.5 993.111 1187.18 984.389 1183 980L1183 979L1186 973L1187 973L1200 1008L1202 1008L1203 1005L1208 1010L1214 1012L1213.42 998.06L1218.78 1003.96L1228 1024L1231 1023L1235 1051C1239.94 1042.75 1236.07 1032.83 1236 1024L1237 1024C1238.86 1029.72 1239.78 1037.49 1245 1041L1246 1040L1240 1015L1246 1017L1246 1024C1250.63 1020.13 1251.45 1011.73 1252 1006L1257 1014L1259 1014L1263.79 1003.96L1260 989C1264.17 992.154 1265.26 996.44 1271 996L1267 981L1281 1002C1278.87 993.068 1272.13 979.107 1272.3 970.306C1272.37 966.881 1275.45 966.753 1278 967L1276 972L1284 978L1288 967L1293 975L1298 969C1300.64 975.187 1301.41 984.811 1310 983L1317 989C1317.82 983.413 1312.12 980.99 1310.22 976C1307.71 969.381 1308.79 962.669 1307.65 956.001C1306.17 947.403 1302.7 947.097 1306 938L1301 940L1299 933L1308 929C1309.38 942.912 1316.37 953.241 1323.05 963.81C1327.09 970.193 1334.18 964.172 1335 959L1336 959L1337 974L1341 976L1340 963L1342 968L1345 969L1349 960L1353 963L1352 959L1360 964L1362 955L1368 957L1382 960.12L1392.01 955.532L1402 956L1400 949L1408 952L1406 944L1406 943L1400 921L1409 928L1408 922C1410.36 920.249 1409.83 918.343 1407 918C1407.13 911.318 1413.82 914.276 1418 911L1418 915L1422 914L1423 917C1425.16 915.561 1426.64 913.209 1428 916L1429 916L1429 909C1433.72 911.244 1439.14 914.599 1440 920C1447.38 917.552 1443 909.399 1440 905L1444 904L1445 904L1444 898C1439.84 897.531 1439.14 894.71 1438 891L1457 889L1459.18 879.089L1467 869L1471.37 862.477L1482 862L1482 854L1490 852L1492 845L1496 846C1499.37 841.618 1500.26 839.086 1496 835L1503 828L1504 828L1504 834L1506 834C1508.13 825.42 1508.33 821.711 1506 813L1512 812L1510 807L1515 803L1512 804L1511 804L1515 795C1501.17 776.401 1462.23 781.136 1444 792L1439 781C1443.65 781.863 1451.11 783.638 1451 777L1454 776L1450 771L1477 764L1476 761L1479 764L1480 759C1487.36 760.226 1497.65 763.464 1504.98 761.525C1509.53 760.324 1513.87 755.44 1509 752L1509 751L1513 753C1512.75 748.151 1506.23 745.423 1502 744L1503 739L1507 740L1502 729L1519 726L1521 721L1525 717L1549 716L1543 707L1536 709C1535.13 701.954 1528.94 700.542 1523 699L1523 698C1537.95 697.823 1524.2 689.149 1524 681L1515 680C1515.64 671.454 1527.49 668.508 1532 676C1537.59 676.238 1540.62 680.701 1543.7 685C1551.49 695.859 1561.61 707.508 1575.25 711.379C1586.31 714.519 1591.06 698.332 1589 691C1598.67 687.789 1586.97 673.967 1584.32 669C1574.6 650.734 1573.36 626.342 1552 616L1552 614L1556 614C1555.71 605.163 1546.52 602.627 1541 597L1550 596L1546 592L1546 583L1554 586L1551 573L1549 575L1548 572L1566.29 571.612L1583 576C1580.99 570.974 1583.32 568.908 1583.58 564C1583.96 556.898 1580.7 547.568 1585 541C1582.39 538.564 1580.27 536.446 1582 533L1581 529L1582 529L1583 531C1581.44 522.617 1572.25 525.019 1567.32 520.487C1562.33 515.9 1561.58 507.765 1556 503L1562 498L1560 493C1556.08 493.375 1553.1 493.629 1553 489L1560 490L1557 488L1557 487L1574 479L1593 488L1594 488L1589 477L1609.32 467.251L1615 454L1611 454C1609.59 446.707 1607.27 439.06 1616 436L1611 431C1615.85 429.722 1617.6 425.515 1619 421L1615 422L1616 414L1601 417L1600 417L1597 415L1602 412L1596 407C1577.52 413.677 1577.75 384.559 1578 373L1582 374L1582 369C1574.11 369.319 1574.65 360.14 1575 354L1571 350L1566 352L1571 339L1568 340L1567 335L1581 330C1584.73 332.314 1592.51 326.326 1595 323L1599 324L1599 323C1595.59 318.279 1604.13 314.406 1608 314L1619 298C1624.24 302.545 1634.99 289.73 1636 285L1640 286L1640 279L1634 280L1631 275L1631 274C1634.21 271.707 1633.64 269.217 1630 268L1633 263L1630 261L1628 264C1627.51 260.04 1616.82 257.54 1625 255C1623.68 248.865 1619.8 241.855 1613 247L1612 247C1608.35 243.729 1604.34 245.77 1600 247L1599 246L1604 235L1588 234L1584 236L1585 232L1589 233L1590 229C1571.64 234.819 1553.27 238.755 1534 239.869C1529.31 240.14 1518.73 243.846 1516 240L1513 241C1506.14 233.151 1481.78 240.25 1474 244C1473.15 240.042 1468.56 240.674 1465 240L1466.71 236.38C1471.21 226.073 1457.62 235.023 1454.37 232.928C1451.38 231 1454.67 226.966 1452.34 224.697C1447.82 220.285 1435.31 229.102 1432 232L1436 223L1422.04 227.156L1412 223.612L1389 228L1388 225C1383.45 227.45 1380.41 228.724 1379 234L1376 229L1379 225L1373 217L1374 217C1376.53 219.669 1378.42 216.189 1376 214L1376 213L1391 195L1394 196C1397.06 189.449 1404.19 182.479 1403 175C1420.59 163.589 1414.19 148.003 1420.99 132C1426.93 118.04 1437.3 110.385 1438.62 94.0038C1439.53 82.6783 1424.26 83.2931 1418 87C1416.14 78.3796 1404.39 94.3135 1401.97 96.3889C1386.75 109.443 1374.7 117.288 1367 137L1366 137L1366 133L1362 132C1359.12 137.871 1356.15 145.546 1358 152L1354 143L1342 148L1343 143L1333 148L1331 120L1317 122L1315 127C1308.97 124.63 1307.17 126.43 1302 130L1301 127L1300 127L1299 132L1294 131L1293 134L1290 131C1289.61 134.992 1289.3 141.577 1286.64 144.694C1281.87 150.304 1277.21 147.653 1276 156C1273.32 151.508 1271.32 149.978 1266 151L1268 140C1262.99 138.861 1262.2 141.607 1261 146C1256.88 142.734 1252.68 129.386 1247 138C1241.8 133.73 1240.75 126.879 1233 126.105C1223.86 125.191 1216.84 137.478 1210 129C1205.46 130.648 1192.73 129.409 1192.29 136.094C1192.05 139.737 1195.06 143.127 1195 147L1192 145C1189.73 153.865 1197.03 167.008 1182 161L1182 167L1167.18 169.033L1157 176L1157 164L1156 164L1152 168L1156 154L1146 157L1147 162L1141 160L1135 181L1126.92 171.89L1131.57 164.896L1133 147L1118 168L1120 159L1116 161L1120 146L1119 146L1118 152L1115 152L1123 116C1128.13 115.187 1131.33 111.819 1133 107L1134 107L1135 111L1136 111L1140 102C1137.53 98.2731 1140.24 96.6 1144 96L1144 95L1140 95C1140.27 92.438 1147.58 77.6879 1139.96 77.635C1136.34 77.6099 1133.19 82.5269 1129 83L1129 85L1121 86L1125 76L1120 80C1117.83 68.7977 1122.02 64.351 1124.17 54C1125.09 49.5709 1123.45 43.8707 1124 39L1121 41C1119.97 35.413 1119.77 33.601 1114 32L1113 37L1112 37C1110.85 33.2281 1110.16 30.9703 1113 28L1113 27L1107 29L1107 19L1106 19L1106 24L1101 23L1101 17L1097 12L1083 20L1081 18L1080 18L1074 24L1075 17L1069 15L1068 26L1067 26L1065 13L1063 13L1058 20L1054 0L1048 0L1048 4L1046 4L1046 0L1044 0L1040 17L1039 17L1039 0L1002 0L1001 20L1000 20L995 8C994.999 17.1271 995.095 25.7542 989 33C986.516 23.2651 994.677 11.0189 986 3C986.077 7.86548 982.972 21.4252 979 24C980.606 19.8905 980.511 17.3818 976 16L976 12L982 7L974 11L974 29L975 29L978 25L976 32L960 43L957 51L958 47L952 41C952.784 45.5552 952.773 47.9613 949 51C946.394 45.8434 944.606 42.9286 946 37C939.104 35.9397 937.523 39.6522 937 46C933.227 43.9082 932.283 41.2103 932 37L927 47L926 47L925 38L924 38L922 47C918.388 43.9618 918.485 41.4958 919 37C914.686 36.0647 911.597 36.1849 909 40L908 40L908 33L889 32L883 23C888.956 24.0361 891.531 22.5459 894 17L887 14L890 23L883 15C874.928 22.4607 881.086 35.8228 882 45C879.114 43.2954 879.099 42.1842 880 39C874.621 35.3109 868.532 32.0028 868 25L851 24L849 30L847 30L843 26L845 24L845 23C840.551 23.8156 837.884 25.1968 839 30L834 31L835 26L834 25L832 25C829.529 33.377 834.484 40.0183 836 48L808 23C806.242 29.3776 802.841 26.2347 798 25L806 40L800 35L799 38L796 36L795 39C786.695 35.5 786.388 40.1664 789 47L785 48L780 32L779 32L768 44L769 37L767 37L756 54L748 48L745 54L743 54L736 45L730 47L735 56C732.22 56.0751 728 59.0511 728 55C721.496 61.2972 726.369 67.8016 728 75L727 75C724.212 68.8077 719.744 63.6213 713 67L713 61L707 60L710 72L707 66C701.589 71.2986 706.128 77.535 705 84C703.795 82.1535 701.074 80.0023 700.63 77.8472C699.822 73.933 704.536 70.579 699 69L695 73L696 67L689 71L686 52L684 54L683 54L690 0L627 0z"/>
<path style="fill:#fcfcfc; stroke:none;" d="M690 0L683 54L684 54L686 52L689 71L696 67L695 73L699 69C703.798 71.3743 699.659 73.7645 700.282 77.8472C700.653 80.2772 703.401 82.2856 705 84L707 66L710 72L707 60L713 61L713 67C720.036 64.5187 723.216 69.1786 727 75L728 75C726.961 67.0255 722.529 62.5257 728 55C727.977 59.4413 731.97 56.496 735 56L730 47L736 45L743 54L745 54L748 48L756 54L757 51C760.863 51.0939 765.681 40.5652 767 37L769 37L770 38L768 44L779 32L780 32L785 48L789 47C787.099 39.978 786.564 36.4542 795 39L796 36C798.46 37.361 799.39 38.0686 800 35L806 40L798 25C802.712 26.9232 806.903 29.8165 808 23L826.942 39.0154L836 48L832 25L834 25L835 26L834 31L839 30C838.601 25.4862 840.916 24.2284 845 23L845 24L843 26L847 30L849 30L851 24L868 25C868.236 32.204 873.851 36.0535 880 39C878.452 42.262 878.4 43.7935 882 45C881.474 34.724 875.962 24.2673 883 15L890 23L887 14L894 17C890.899 21.818 888.804 23.5455 883 23L889 32C897.148 32.2554 900.183 38.0812 908 33L908 40L909 40C912.165 36.8452 914.628 36.3911 919 37C918.19 41.4489 917.688 44.6202 922 47L924 38L925 38L926 47L927 47L932 37C932.128 41.3118 932.606 44.5339 937 46C937.828 40.0076 939.544 36.6696 946 37C944.322 42.6888 945.599 46.3304 949 51C953.64 48.6378 953.554 45.5901 952 41L958 47L957 51C959.992 48.5034 960.851 46.8362 960 43L976 32L978 25L975 29L974 29L974 11L982 7L976 12L976 16C979.75 17.9884 979.971 20.0009 979 24C982.722 23.2025 986.705 7.09302 986 3C993.79 13.2195 985.398 22.3351 989 33C996.133 27.0264 995 16.5413 995 8L1000 20L1001 20L1002 0L690 0M1039 0L1039 17L1040 17L1044 0L1039 0M1046 0L1046 4L1048 4L1048 0L1046 0M1054 0L1058 20L1063 13L1065 13L1067 26L1068 26L1069 15L1075 17L1074 24L1080 18L1081 18L1083 20L1097 12L1101 17L1101 23L1106 24L1106 19L1107 19L1107 29L1113 27L1113 28C1109.38 30.3748 1110.49 33.3883 1112 37L1113 37L1114 32C1119.52 34.0875 1119.47 35.7019 1121 41L1124 39C1122.96 44.1406 1124.71 49.3282 1123.66 54C1121.37 64.225 1117.15 69.0021 1120 80L1125 76L1121 86L1129 85L1129 83C1133.34 82.8763 1136.39 78.114 1139.95 78.2021C1146.67 78.368 1140.1 92.3868 1140 95L1144 95L1144 96C1140.38 96.2822 1136.12 98.5597 1140 102L1136 111L1135 111L1134 107L1133 107L1123 116L1115 152L1118 152L1119 146L1120 146L1116 161L1120 159L1118 168C1126.9 163.687 1128.36 154.875 1133 147L1131.57 163.957L1126.47 171.89L1135 181C1141.32 175.221 1139.34 167.542 1141 160L1147 162L1146 157L1156 154L1152 168L1156 164L1157 164L1157 176L1168.09 169.047L1182 167L1182 161C1197.04 168.946 1190.76 153.522 1192 145L1195 147C1195.25 143.245 1191.91 138.823 1192.72 135.519C1194.16 129.637 1205.69 131.185 1210 129C1215.66 139.11 1225.2 124.352 1234 126.394C1240.79 127.97 1241.55 135.038 1247 138C1254.08 131.198 1255.63 143.186 1261 146C1262.52 141.953 1263.31 139.594 1268 140L1266 151C1271.21 150.504 1272.84 152.175 1276 156L1287.39 144.695L1290 131L1293 134L1294 131L1299 132L1300 127L1301 127L1302 130C1307.69 127.377 1308.8 125.443 1315 127L1317 122C1322.97 123.884 1325.68 122.626 1331 120L1333 148L1343 143L1342 148L1354 143L1358 152L1362 132L1366 133L1366 137L1367 137C1371.16 129.713 1374.02 121.563 1379.6 115.171C1386.35 107.451 1395.37 103.278 1402.83 96.385C1405.97 93.482 1413.56 81.192 1418 87C1424.37 84.3976 1435.69 82.2963 1438.21 92.0394C1439.18 95.7848 1436.54 104.146 1435.58 108C1433.32 117.088 1424.54 122.66 1420.99 131C1417.32 139.635 1419.98 149.406 1416.69 158C1414.5 163.741 1407.41 170.706 1403 175L1394 196L1391 195L1376 213L1376 214C1377.33 216.3 1376.81 218.164 1374 217L1373 217L1376 220L1379 225L1376 229L1379 234L1388 225L1389 228L1411 223.843L1422.04 227.558L1436 223L1432 232C1435.93 229.484 1446.56 221.262 1451.55 224.928C1454.41 227.027 1450.67 231.701 1454.32 233.381C1462.22 237.019 1468.88 225.566 1465 240L1474 244L1516 240C1517.07 244.99 1528.46 240.096 1533 240C1551.32 239.615 1573.41 236.806 1590 229L1589 233L1585 232L1584 236L1588 234L1604 235L1599 246L1600 247L1612 247L1613 247C1620.08 243.302 1623.06 248.646 1625 255C1612.92 255 1628.46 262.147 1628 264L1630 261L1633 263L1630 268C1633.07 269.792 1633.29 271.291 1631 274L1631 275L1634 280L1640 279L1640 286L1636 285C1633.1 289.765 1625.11 300.895 1619 298L1608 314C1603.35 312.449 1592.5 321.7 1599 323L1599 324L1595 323C1591.91 325.731 1584.94 331.441 1581 330L1567 335L1568 340L1571 339L1566 352L1571 350L1575 354C1574.05 359.977 1573.99 370.322 1582 369L1582 374L1578 373C1577.27 383.349 1577.82 416.801 1596 407L1602 412L1597 415L1600 417L1601 417L1616 414L1615 422L1619 421L1611 431L1616 436C1606.82 437.909 1609.21 447.064 1611 454L1615 454L1608.02 467.87L1589 477L1594 488L1593 488L1593 485C1585.31 485.5 1579.26 485.346 1574 479L1557 487L1557 488L1560 490L1553 489C1552.8 494.046 1555.78 493.741 1560 493L1562 498L1556 503L1566.17 520.833L1576 523.5L1582 529L1581 529L1582 533C1578.97 535.931 1582.15 539.194 1585 541C1579.85 546.642 1583.54 557.245 1583.21 564C1582.96 569.04 1580.37 570.993 1583 576C1575.73 577.555 1566.55 572.271 1559 571.42C1554.73 570.939 1548.89 568.648 1549 575L1551 573L1554 586L1546 583L1546 592L1550 596L1541 597C1545.37 603.535 1555.32 605.195 1556 614L1552 614L1552 616C1571.78 630.214 1573.82 649.015 1583.81 669C1586.7 674.775 1597.72 686.177 1589 691C1590.38 697.796 1585.9 714.435 1575.25 710.921C1561.3 706.323 1551.87 695.374 1543.7 684C1540.64 679.739 1537.64 675.203 1532 676C1528.88 667.295 1515.28 671.312 1515 680L1524 681C1524.07 688.867 1536.33 697.567 1523 698L1523 699C1528.64 700.93 1534.42 702.445 1536 709L1543 707L1549 716L1525 717L1521 721L1519 726L1502 729L1507 740L1503 739L1502 744C1505.73 745.894 1512.34 748.539 1513 753L1509 751L1509 752C1512.8 756.358 1508.86 760.289 1504 761.525C1497.02 763.296 1487.21 759.658 1480 759L1479 764L1476 761L1477 764L1450 771L1454 776L1451 777C1449.47 783.183 1444.09 781.642 1439 781L1444 792C1466.56 782.699 1496.1 776.982 1515 795L1511 804L1512 804L1515 803L1510 807L1512 812L1506 813L1506 834L1504 834L1504 828L1503 828L1496 835C1499.41 839.476 1498.43 841.337 1496 846L1492 845L1490 852L1482 854L1482 862L1470.36 862.333L1467 869L1457 889L1438 891C1438.88 895.007 1439.55 897.796 1444 898L1445 904L1444 904L1443 902L1440 905C1442.48 910.273 1447 916.141 1440 920C1439.56 914.348 1434.24 910.517 1429 909L1429 916L1428 916L1428 913L1423 917L1422 914L1418 915L1418 911L1416 914C1411.28 912.568 1406.76 911.664 1407 918C1409.99 918.393 1409.82 920.031 1408 922L1409 928L1400 921L1406 943L1406 944L1408 952L1400 949L1402 956L1391.04 955.515L1382.7 959.953L1368 957L1362 955L1363 958L1360 964L1352 959L1353 963L1349 960L1345 969L1342 968L1340 963L1341 976L1337 974L1336 959L1335 959C1333.59 963.888 1326.72 969.617 1323.15 962.887C1317.12 951.492 1310.41 943.202 1308 929L1299 933L1301 940L1306 938C1301 947.551 1306.42 947.898 1307.57 957C1308.41 963.622 1307.46 970.574 1310.16 977.014C1312.08 981.595 1316.77 983.902 1317 989L1310 983C1301.64 983.944 1301.17 974.814 1298 969L1293 975L1288 967L1284 978L1276 972L1278 967C1274.79 966.259 1271.73 966.863 1272.07 971.019C1272.81 980.222 1278.34 993.005 1281 1002L1267 981L1271 996L1260 989L1263.54 1003.96L1259 1014L1257 1014L1252 1006L1246 1024L1246 1017L1240 1015L1246 1040L1245 1041L1237 1024L1236 1024L1235 1051L1231 1023L1228 1024C1226.37 1015.25 1223.28 1010.5 1218.78 1002.99C1217.95 1001.6 1215.52 995.322 1213.01 997.89C1210.38 1000.58 1213.9 1008.57 1214 1012L1208 1010L1203 1005L1202 1008L1200 1008L1187 973L1186 973L1183 979L1183 980C1185.96 985.35 1185.94 992.039 1181 996L1181 991C1177.01 989.091 1172.42 988.251 1173 994L1168 993C1164.98 1004.42 1177.98 1014.74 1168 1024C1166.45 1017.48 1160.1 1013.95 1163 1007L1153 1004C1155.82 988.536 1140.94 978.048 1131 969C1129.28 976.25 1130.39 996.716 1137 1001L1135 1008L1131 1005L1129 1005L1130 1012C1121.76 1007.99 1121.91 998.282 1118 991L1117 991C1110.7 995.817 1107.8 1001.74 1105 1009L1103 1009L1102 1005C1092.79 1008.89 1084.14 1015.18 1079 1024L1086.49 1046L1108.55 1067.22L1113.39 1079.4L1132 1080L1178 1080L1341 1080L1920 1080L1920 0L1054 0z"/>
<path style="fill:#040404; stroke:none;" d="M832.667 7.33337L833.333 7.66663L832.667 7.33337M1096 9L1096 11L1098 9L1096 9M1103 13L1104 14L1103 13M1101.67 15.3334L1102.33 15.6666L1101.67 15.3334M872 19L873 20L872 19z"/>
<path style="fill:#fcfcfc; stroke:none;" d="M1000 25L996 36C1000.51 33.748 1002.99 29.5747 1000 25M1102 25L1103 26L1102 25M1058 27L1059 28L1058 27M849 33L855 30L849 33z"/>
<path style="fill:#040404; stroke:none;" d="M785 32L788 32L787 30L785 32M876 31L877 32L876 31M941 31L939 35C941.649 34.4324 942.355 33.4122 941 31z"/>
<path style="fill:#fcfcfc; stroke:none;" d="M976 33L976 36L978 36L978 33L976 33z"/>
<path style="fill:#040404; stroke:none;" d="M759 37L762 42L763 37L759 37z"/>
<path style="fill:#fcfcfc; stroke:none;" d="M794 40L793 44L800 42L794 40M902.667 43.3334L903.333 43.6666L902.667 43.3334M921 48L921 52L922 52L921 48M934.333 48.6666L934.667 49.3334L934.333 48.6666M957 52L958 53L957 52M757 55L760 53L757 55M749 54L750 57L749 54z"/>
<path style="fill:#040404; stroke:none;" d="M703 55L704 56L703 55M721 58L721 60L723 60L723 58L721 58M701 61L703 66L705 62L701 61z"/>
<path style="fill:#fcfcfc; stroke:none;" d="M728 63L729 64L728 63M689 72L687 76L689 72z"/>
<path style="fill:#040404; stroke:none;" d="M1144 73L1147 78L1144 73M1132 75L1132 76L1135 76L1132 75z"/>
<path style="fill:#fcfcfc; stroke:none;" d="M712 77L714 79L714 77L712 77M1113.33 90.6667L1113.67 91.3333L1113.33 90.6667M1119 91L1120 92L1119 91z"/>
<path style="fill:#040404; stroke:none;" d="M506.667 107.333L507.333 107.667L506.667 107.333z"/>
<path style="fill:#fcfcfc; stroke:none;" d="M697 111L695 120L694 120L694 117L693 117L691 132L695 131C693.9 135.3 690.197 139.168 695 142L698 140L692 145C692 150.338 690.589 164.519 697 166C697.912 173.944 714.62 187.404 722 190L717 179L713 180C713.042 175.322 713.286 172.842 708 172L705 162L716 172L724 176L740 177C741.442 184.068 748.492 186.606 755 188C754.951 181.418 754.19 177.255 762 177L760 169C764.931 171.03 775.403 180.858 779.992 180.454C783.76 180.123 783.453 175.651 784.522 173C787.792 164.885 787.519 159.78 783 152C776.641 167.899 768.836 157.912 757 153.912C744.258 149.606 730.046 142.175 720.058 132.811C712.221 125.464 707.35 115.82 697 111M1122 115L1123 116L1122 115M1114 119L1114 120C1117.65 121.505 1119.8 121.291 1120 117L1114 119z"/>
<path style="fill:#040404; stroke:none;" d="M592 127L593 128L592 127M589 129L590 130L589 129z"/>
<path style="fill:#fcfcfc; stroke:none;" d="M689 133L690 134L689 133z"/>
<path style="fill:#040404; stroke:none;" d="M483 135L484 136L483 135M698.667 139.333L699.333 139.667L698.667 139.333z"/>
<path style="fill:#fcfcfc; stroke:none;" d="M558 143L559 144L558 143M692 143L693 144L692 143M490.333 146.667L490.667 147.333L490.333 146.667M556 147L557 148L556 147M1099 147L1100 148L1099 147M1195 147L1197 152L1198 152L1195 147z"/>
<path style="fill:#040404; stroke:none;" d="M1125 149L1122 156L1125 149z"/>
<path style="fill:#fcfcfc; stroke:none;" d="M1192 149L1193 150L1192 149M1256 151L1256 152L1260 154L1261 153L1260 149L1256 151M1263 150L1263 152L1265 150L1263 150M556 151L557 152L556 151z"/>
<path style="fill:#040404; stroke:none;" d="M695 159L696 160L695 159M696.667 163.333L697.333 163.667L696.667 163.333z"/>
<path style="fill:#fcfcfc; stroke:none;" d="M1108 165L1105 173C1108.58 171.123 1109.56 168.968 1110 165L1108 165z"/>
<path style="fill:#040404; stroke:none;" d="M482 177L483 178L482 177z"/>
<path style="fill:#fcfcfc; stroke:none;" d="M1113 178L1112 184L1116 184L1113 178M1099.67 179.333L1100.33 179.667L1099.67 179.333M1400 179L1401 180L1400 179M724 185L725 195L728 200L732 196L732 195L726 185L724 185M786 186L786 190L787 190L786 186z"/>
<path style="fill:#040404; stroke:none;" d="M380 188L381 189L380 188z"/>
<path style="fill:#fcfcfc; stroke:none;" d="M412 188L412 202L413 202L414 188L412 188M416 189L419 192L416 189M757 189L760 192L757 189M478 190L478 194L480 194L480 190L478 190M1127 193L1128 194L1127 193M1127 195L1128 196L1127 195M480 203L481 204L480 203M479 205L479 211L480 211L479 205M1375 211L1376 212L1375 211M432 215L433 216L432 215z"/>
<path style="fill:#040404; stroke:none;" d="M450 219L451 220L450 219z"/>
<path style="fill:#fcfcfc; stroke:none;" d="M340 223L345 228L340 223z"/>
<path style="fill:#040404; stroke:none;" d="M1454 223L1455 224L1454 223z"/>
<path style="fill:#fcfcfc; stroke:none;" d="M324 231L325 232L324 231M474 231L478 236L474 231M455 235L458 240L455 235M1583 236L1582 238L1583 236M466 237L466 240L467 240L466 237z"/>
<path style="fill:#040404; stroke:none;" d="M1608 237L1607 240L1608 237M312.333 238.667L312.667 239.333L312.333 238.667M1624 248L1628 247L1624 248M324.667 255.333L325.333 255.667L324.667 255.333z"/>
<path style="fill:#fcfcfc; stroke:none;" d="M335 257L343 264C341.695 259.955 339.031 258.102 335 257M346.333 258.667L346.667 259.333L346.333 258.667M328 261L331 264L328 261z"/>
<path style="fill:#040404; stroke:none;" d="M338 285L340 288L338 285M1639 287L1638 290L1639 287M1648 290L1647 292L1648 290M327 297L328 298L327 297M328.667 299.333L329.333 299.667L328.667 299.333M327.667 301.333L328.333 301.667L327.667 301.333z"/>
<path style="fill:#fcfcfc; stroke:none;" d="M1564 339L1565 340L1564 339z"/>
<path style="fill:#040404; stroke:none;" d="M290 343L291 344L290 343z"/>
<path style="fill:#fcfcfc; stroke:none;" d="M296.333 350.667L296.667 351.333L296.333 350.667M298 357L299 358L298 357z"/>
<path style="fill:#040404; stroke:none;" d="M282 377L282 381L284 377L282 377z"/>
<path style="fill:#fcfcfc; stroke:none;" d="M282.333 385.667L282.667 386.333L282.333 385.667z"/>
<path style="fill:#040404; stroke:none;" d="M1597.67 407.333L1598.33 407.667L1597.67 407.333z"/>
<path style="fill:#fcfcfc; stroke:none;" d="M1593 413L1592 416L1596 416L1593 413z"/>
<path style="fill:#040404; stroke:none;" d="M271 424L277 423C274.303 421.218 272.921 421.405 271 424z"/>
<path style="fill:#fcfcfc; stroke:none;" d="M284 425L285 426L284 425M370 425C370.654 428.054 372.007 427.936 375 428L370 425M377 427L377 428L380 428L377 427M388 429L391 432L388 429z"/>
<path style="fill:#040404; stroke:none;" d="M271 431L272 432L271 431M272 436L273 437L272 436z"/>
<path style="fill:#fcfcfc; stroke:none;" d="M282 439L284 441L284 439L282 439z"/>
<path style="fill:#040404; stroke:none;" d="M277 441L277 444L278 444L277 441z"/>
<path style="fill:#fcfcfc; stroke:none;" d="M338 465L339 469L343 465L338 465M345 465L346 466L345 465z"/>
<path style="fill:#040404; stroke:none;" d="M1594 481L1596 484L1594 481z"/>
<path style="fill:#fcfcfc; stroke:none;" d="M304 490L304 492L306 492L306 490L304 490M308 491L308 492L312 492L308 491M313 497L318 504L320 499L313 497z"/>
<path style="fill:#040404; stroke:none;" d="M1566 515L1567 516L1566 515z"/>
<path style="fill:#fcfcfc; stroke:none;" d="M1575 525L1576 526L1575 525z"/>
<path style="fill:#040404; stroke:none;" d="M280.333 552.667L280.667 553.333L280.333 552.667M290 553L291 554L290 553z"/>
<path style="fill:#fcfcfc; stroke:none;" d="M1547 575L1548 576L1547 575z"/>
<path style="fill:#040404; stroke:none;" d="M280.667 599.333L281.333 599.667L280.667 599.333z"/>
<path style="fill:#fcfcfc; stroke:none;" d="M294 611L295 612L294 611z"/>
<path style="fill:#040404; stroke:none;" d="M286 617L286 620L288 620L288 617L286 617z"/>
<path style="fill:#fcfcfc; stroke:none;" d="M298 617L298 620L301 620L301 617L298 617z"/>
<path style="fill:#040404; stroke:none;" d="M290 635L291 636L290 635z"/>
<path style="fill:#fcfcfc; stroke:none;" d="M308 637L308 642L309 642L308 637M306.333 638.667L306.667 639.333L306.333 638.667M309 645L310 646L309 645M309.667 647.333L310.333 647.667L309.667 647.333M239 669L240 670L239 669z"/>
<path style="fill:#040404; stroke:none;" d="M282 670L283 671L282 670z"/>
<path style="fill:#fcfcfc; stroke:none;" d="M290.667 671.333L291.333 671.667L290.667 671.333M1512.67 671.333L1513.33 671.667L1512.67 671.333M1513 677L1514 678L1513 677M1591 684L1592 685L1591 684z"/>
<path style="fill:#040404; stroke:none;" d="M1551 715L1552 716L1551 715z"/>
<path style="fill:#fcfcfc; stroke:none;" d="M305 721L311 728L315 724L315 723L313 721L305 721M323 733L324 732C319.333 721.108 312.249 730.597 323 733M1495 725L1496 730L1501 728L1495 725M1487 735L1488 736L1487 735M1498.67 739.333L1499.33 739.667L1498.67 739.333M1503 749L1504 750L1503 749M1505 751L1506 752L1505 751M1508 752L1509 757L1510 757L1508 752M243 753L242 756L243 753z"/>
<path style="fill:#040404; stroke:none;" d="M1515 755L1516 756L1515 755z"/>
<path style="fill:#fcfcfc; stroke:none;" d="M1457 759L1457 760L1462 760L1457 759M1466.67 759.333L1467.33 759.667L1466.67 759.333M1470 759L1471 760L1470 759M235 762L235 764L237 764L235 762M1468 763L1470 765L1470 763L1468 763M1424 771L1426 773L1426 771L1424 771M1446.67 771.333L1447.33 771.667L1446.67 771.333M240.667 775.333L241.333 775.667L240.667 775.333M1427.67 775.333L1428.33 775.667L1427.67 775.333M290.333 819.667L290.667 820.333L290.333 819.667z"/>
<path style="fill:#040404; stroke:none;" d="M1509 831L1510 832L1509 831z"/>
<path style="fill:#fcfcfc; stroke:none;" d="M1489.67 847.333L1490.33 847.667L1489.67 847.333M303.667 867.333L304.333 867.667L303.667 867.333M294 876L300 871L294 876M333 871L334 872L333 871z"/>
<path style="fill:#040404; stroke:none;" d="M279 875L279 876L286 878L283 873L279 875z"/>
<path style="fill:#fcfcfc; stroke:none;" d="M280 875L281 876L280 875M292.667 877.333L293.333 877.667L292.667 877.333M299 883L300 884L299 883M338 883L339 885L340 885L341 883L338 883M604 883L605 884L604 883M1433.67 891.333L1434.33 891.667L1433.67 891.333M349 893L346 901C349.139 898.96 350.401 896.62 349 893z"/>
<path style="fill:#040404; stroke:none;" d="M603 893L602 900C605.551 898.961 605.752 896.469 606 893L603 893M598 897L598 900L600 900L600 897L598 897M286.667 901.333L287.333 901.667L286.667 901.333M1447 907L1448 908L1447 907z"/>
<path style="fill:#fcfcfc; stroke:none;" d="M589 911L590 912L589 911z"/>
<path style="fill:#040404; stroke:none;" d="M1434 917L1434 920L1436 920L1436 917L1434 917M1417 922L1422 918L1417 922z"/>
<path style="fill:#fcfcfc; stroke:none;" d="M1407 921L1408 922L1407 921M1395.33 922.667L1395.67 923.333L1395.33 922.667z"/>
<path style="fill:#040404; stroke:none;" d="M1429 926L1432 923L1429 926z"/>
<path style="fill:#fcfcfc; stroke:none;" d="M352 925L352 930L355 928L355 927L352 925z"/>
<path style="fill:#040404; stroke:none;" d="M1412 925L1413 926L1412 925z"/>
<path style="fill:#fcfcfc; stroke:none;" d="M1400 929L1401 930L1400 929M573 935L574 936L573 935M584 935L585 936L584 935M1261 937C1261.54 941.766 1263.25 944.017 1268 945L1265 956L1261 950L1258 951C1259.96 958.767 1264.49 963.51 1272 966C1272.44 956.73 1269.69 941.994 1261 937z"/>
<path style="fill:#040404; stroke:none;" d="M654.667 941.333L655.333 941.667L654.667 941.333z"/>
<path style="fill:#fcfcfc; stroke:none;" d="M565 943L565 944L570 948L565 943M662 943L662 945L664 943L662 943z"/>
<path style="fill:#040404; stroke:none;" d="M1311 945L1312 946L1311 945z"/>
<path style="fill:#fcfcfc; stroke:none;" d="M1397 947L1398 950L1399 950L1397 947M571 949L572 950L571 949M572 951L573 952L572 951M1287 951L1288 952L1287 951M1388 951L1389 952L1388 951M1398 951L1399 952L1398 951M373 953L372 956L373 953M1050 955L1050 956L1053 956L1050 955M385 957L384 960L385 957M1328 957L1328 960L1329 960L1330 957L1328 957M1278 960L1281 960L1280 958L1278 960M1285 958C1284.59 961.823 1284.77 964.678 1288 967L1287 958L1285 958M1345 961L1347 963L1347 961L1345 961M1250 963L1250 964L1253 964L1250 963M1296 963L1296 969L1297 969L1298 963L1296 963z"/>
<path style="fill:#040404; stroke:none;" d="M584 965L585 966L584 965M585 967L586 968L585 967M374 969L373 972L374 969z"/>
<path style="fill:#fcfcfc; stroke:none;" d="M1283 969L1282 972L1283 969M1238 971L1238 972L1242 972L1238 971M380 971L381 972L380 971M1145 971L1146 972L1145 971M1264.67 971.333L1265.33 971.667L1264.67 971.333z"/>
<path style="fill:#040404; stroke:none;" d="M362 973L363 974L362 973z"/>
<path style="fill:#fcfcfc; stroke:none;" d="M513.333 974.667L513.667 975.333L513.333 974.667M1159 974L1161 977L1159 974M655 988L656 988L666 975C660.421 977.604 656.746 982.12 655 988z"/>
<path style="fill:#040404; stroke:none;" d="M1293 976L1292 982C1295.16 980.338 1296.33 978.151 1293 976z"/>
<path style="fill:#fcfcfc; stroke:none;" d="M1169 977L1171 982L1171 977L1169 977z"/>
<path style="fill:#040404; stroke:none;" d="M1285 977L1285 978L1289 979L1289 978L1285 977z"/>
<path style="fill:#fcfcfc; stroke:none;" d="M1251 979L1252 980L1251 979M1267 979L1268 980L1267 979M1161 980L1161 982L1163 982L1161 980M1171 983L1172 984L1171 983z"/>
<path style="fill:#040404; stroke:none;" d="M1297 983L1298 984L1297 983z"/>
<path style="fill:#fcfcfc; stroke:none;" d="M1257 984L1255 990L1257 984M1206 986L1204 992L1206 986z"/>
<path style="fill:#040404; stroke:none;" d="M636 987L637 988L636 987z"/>
<path style="fill:#fcfcfc; stroke:none;" d="M1166.67 987.333L1167.33 987.667L1166.67 987.333M653 988L648 997L653 988M979 989L978 992L981 992L979 989M1154 989L1155 1000C1158.34 996.436 1159.45 990.809 1154 989M640 993L638 997L640 993z"/>
<path style="fill:#040404; stroke:none;" d="M503 995L504 996L503 995M1115 995L1116 996L1115 995z"/>
<path style="fill:#fcfcfc; stroke:none;" d="M934 997L934 1000L935 1000L934 997z"/>
<path style="fill:#040404; stroke:none;" d="M1190 997L1190 999L1192 997L1190 997z"/>
<path style="fill:#fcfcfc; stroke:none;" d="M556 998L556 1000L558 1000L558 998L556 998M979 999L980 1000L979 999M975 1011L980 1024L975 1027L974 1017C967.207 1019.26 969.484 1036.77 966 1043L965 1037L961 1038L959 1027L956 1032L955 1032C954.368 1027.31 953.088 1024.22 948 1024L944 1019C944.512 1025.22 948.469 1030.73 947.888 1037C947.066 1045.88 941.043 1050.62 945 1060C935.444 1059.82 936.523 1044.56 942 1040L935 1029L936 1035C928.521 1030.73 933.99 1020.38 926 1019C928.884 1025.73 924.223 1027.92 918 1029L918 1025C912.112 1029.11 916.369 1038.72 915.081 1045C914.255 1049.03 911.306 1052.12 910 1056L902 1056C904.248 1049.37 914.563 1040.48 904 1036L900 1040L899 1026L898 1026L891 1033C894.112 1044.68 886.474 1046.86 881 1056L880 1056L880 1053C873.747 1055.62 873.481 1067.6 872 1074L869 1073L868 1076L871 1080L1039 1080L1035 1074L1044 1072C1043.34 1068.7 1041.17 1066.19 1040.44 1063C1038.48 1054.46 1042.4 1042.38 1030 1041L1031 1046L1024 1046L1028 1060L1025 1060L1026 1056L1026 1055L1022 1054L1023 1058L1014 1055L1014 1056C1017.49 1059.86 1013.75 1068.94 1008.74 1070.81C1004.75 1072.3 1002.38 1069.1 998 1072C1000.65 1065.67 999.221 1058.22 992 1056L989.874 1044.14L1001 1023L994 1011L994 1012L995 1018C984.176 1012.86 988.185 1008.04 984 999L975 1011z"/>
<path style="fill:#040404; stroke:none;" d="M1272 1001L1273 1002L1272 1001z"/>
<path style="fill:#fcfcfc; stroke:none;" d="M1200.67 1003.33L1201.33 1003.67L1200.67 1003.33z"/>
<path style="fill:#040404; stroke:none;" d="M1134.67 1011.33L1135.33 1011.67L1134.67 1011.33z"/>
<path style="fill:#fcfcfc; stroke:none;" d="M954 1014L953 1016L955 1016L954 1014z"/>
<path style="fill:#040404; stroke:none;" d="M1216.33 1014.67L1216.67 1015.33L1216.33 1014.67z"/>
<path style="fill:#fcfcfc; stroke:none;" d="M941 1015L942 1016L941 1015M1234 1018L1235 1019L1234 1018M951 1019L952 1020L951 1019M918 1023L918 1025L920 1023L918 1023M954 1023L955 1024L954 1023z"/>
<path style="fill:#040404; stroke:none;" d="M1171 1025L1175 1028L1174 1025L1171 1025z"/>
<path style="fill:#fcfcfc; stroke:none;" d="M882 1027L883 1028L882 1027z"/>
<path style="fill:#040404; stroke:none;" d="M926 1028L927 1029L926 1028z"/>
<path style="fill:#fcfcfc; stroke:none;" d="M1076 1036L1078 1036L1079 1029C1075.88 1030.81 1075.82 1032.49 1076 1036M488 1034L488 1036L490 1036L490 1034L488 1034M1024 1035L1023 1040L1024 1040L1024 1035z"/>
<path style="fill:#040404; stroke:none;" d="M935 1036L936 1037L935 1036z"/>
<path style="fill:#fcfcfc; stroke:none;" d="M488 1039L489 1040L488 1039M1042 1040L1048.84 1055L1048 1080C1061.03 1080 1080.79 1085.35 1082 1068L1076 1076L1073 1076L1072 1073C1067.36 1072.49 1065.6 1069.1 1064 1065L1062 1065L1061 1068C1056.73 1064.9 1052.36 1060.54 1057 1056L1057 1055L1042 1040M862 1041L864 1044L862 1041M755 1042L752.702 1052.04L753.997 1072.6L743 1080C758.347 1080 778.293 1083.35 793 1079L786 1065C793.218 1062.67 795.046 1055.26 788 1051L790 1060L774 1076L776 1065L775 1065L771 1076L770 1076L778 1051L777 1050L773 1054L771 1054L769 1048L763 1051L763 1047L755 1042M722 1043L722 1044L725 1044L722 1043M786 1043L785 1048L786 1043M808 1043L809 1044L808 1043M816.667 1045.33L817.333 1045.67L816.667 1045.33M1066 1045L1069 1050L1068 1045L1066 1045M996 1047L997 1048L996 1047M717 1051L716 1056L717 1051M1020 1051L1019 1056L1022 1051L1020 1051M813 1057C811.805 1061.05 811.247 1065.35 815 1068L815 1057L813 1057z"/>
<path style="fill:#040404; stroke:none;" d="M879 1061L880 1065L881 1065L881 1061L879 1061z"/>
<path style="fill:#fcfcfc; stroke:none;" d="M1002 1061L1000 1063L1000 1064C1002.25 1063.53 1003.12 1063.14 1002 1061M1086 1061L1085 1064C1088.92 1068.28 1087.64 1074.56 1087 1080L1093 1080L1093 1079L1088 1061L1086 1061M776 1065L780 1062L776 1065M794 1062L793 1068L795 1068L794 1062M1063 1064L1064 1065L1066 1062L1063 1064z"/>
<path style="fill:#040404; stroke:none;" d="M655.667 1063.33L656.333 1063.67L655.667 1063.33z"/>
<path style="fill:#fcfcfc; stroke:none;" d="M1010 1063L1012 1065L1012 1063L1010 1063z"/>
<path style="fill:#040404; stroke:none;" d="M673 1064L672 1068L673 1064z"/>
<path style="fill:#fcfcfc; stroke:none;" d="M865 1064L861 1067C863.889 1068.57 866.738 1067.39 865 1064z"/>
<path style="fill:#040404; stroke:none;" d="M941 1072L946 1065L941 1072M1015 1069L1018 1072L1015 1069z"/>
<path style="fill:#fcfcfc; stroke:none;" d="M1099 1070L1097 1080L1107 1080L1107 1079L1099 1070M814 1071L813 1080L815 1080L814 1071M861 1073L858 1080L862 1080L864 1073L861 1073z"/>
<path style="fill:#040404; stroke:none;" d="M935 1073L935 1076L938 1076L938 1073L935 1073z"/>
<path style="fill:#fcfcfc; stroke:none;" d="M794.667 1075.33L795.333 1075.67L794.667 1075.33M818 1080L821 1077L818 1080M827 1080L831 1080L830 1077L827 1080M804 1079L805 1080L804 1079z"/>
<path style="fill:#040404; stroke:none;" d="M1072.67 1079.33L1073.33 1079.67L1072.67 1079.33z"/>
</svg>
