<?xml version="1.0" standalone="yes"?>
<svg xmlns="http://www.w3.org/2000/svg" width="1920" height="1080">
<path style="fill:#ffffff; stroke:none;" d="M0 0L0 1080L1920 1080L1920 0L0 0z"/>
<path style="fill:#040404; stroke:none;" d="M1328 208L1327 208C1322.58 200.957 1319.48 206.052 1314 209L1310 205L1309 209L1288 205L1286 205L1285 208L1272 205C1271.66 215.565 1264.2 211.512 1257.1 215.109C1254.03 216.667 1251.79 221.017 1247.98 220.562C1243.83 220.065 1240.33 216.685 1236 216L1236 220C1231.16 220.792 1230.52 223.462 1230 228C1206.86 222.682 1225.58 252.679 1210 253L1212 263C1208.19 263.977 1203.51 261.634 1200.23 263.877C1191.35 269.947 1204.71 283.729 1196 292L1195 285L1193 285L1192 288C1182 281.739 1176.31 294.448 1177.27 304C1177.98 311.083 1184.3 314.281 1188.19 319.259C1190.53 322.272 1194.71 332.621 1195.67 336.286C1197.25 342.283 1183.83 352.149 1191 357C1185.41 362.573 1183.76 371.66 1194 372L1192 380C1201.33 384.822 1213.79 388.951 1218.74 399.104C1223.53 408.958 1220.29 419.881 1226 430L1243 425.08L1255 422C1251.62 433.39 1254.76 441.028 1240 438L1236 446C1237.89 450.789 1242.01 456.618 1240.42 462C1237.99 470.191 1215.82 473.972 1234 479C1229.04 495.61 1238.38 497.897 1244.17 511C1245.74 514.577 1243.9 518.382 1245.65 521.875C1247.54 525.667 1251.86 527.6 1253.58 531.576C1261.19 549.141 1273.62 585.023 1298 581L1300 588C1303.6 587.742 1308.62 585.929 1312 586.909C1319.58 589.109 1324.8 594.362 1333 592L1334 596C1341.9 592.919 1352.34 597.404 1354 586C1357.83 588.013 1361.36 588.589 1365 586C1370.25 593.206 1377.37 589.979 1385 593L1387 586L1394 582C1395.5 590.996 1402.31 584.559 1405 580L1406 580C1412.35 584.328 1410.79 572.531 1411 569C1421.4 571.504 1424.64 556.627 1434.15 555.613C1438.65 555.133 1440.9 563.068 1444.1 565.258C1448.17 568.036 1458.24 566.979 1463 566C1462.29 557.567 1470.82 550.65 1478 548L1473 533C1481.45 531.157 1478.86 515.047 1479.45 508.286C1479.75 504.727 1482.19 503.339 1480 500L1480 499C1488.52 490.487 1487.74 483.857 1488.52 473C1488.81 468.907 1491.34 464.22 1489.93 460.184C1488.8 456.956 1485.42 455.109 1483.96 451.999C1481.58 446.957 1480.71 427.874 1484 424L1483 415C1471.61 409.245 1459.33 404.133 1453.43 392.245C1451.32 387.992 1455.06 381.419 1451.97 377.757C1449.56 374.896 1445.06 377.986 1442.02 376.788C1436.22 374.511 1429.66 362.74 1428 357L1420 361C1414.78 350.028 1416.8 332.934 1417.06 321C1417.14 317.546 1419.84 314.493 1419.21 311C1417.69 302.645 1411.62 301.014 1406.31 296.197C1403.32 293.482 1401.83 289.06 1399 286L1403 283L1396 278C1398.48 269.592 1393.57 271.096 1390.44 265.28C1385.19 255.535 1385.23 250.283 1372 254L1358.03 242.829L1360 219L1356 219L1362 201L1354 204L1349 196C1339.4 197.213 1334.2 200.312 1328 208M644 205L636 218L634 218L633 212L627 216L625 211L621 214L620 209L604.858 217.857L601.87 231.155L596 246L584.313 241.867L578 258L567 253L567 265C560.612 260.443 554.427 266.853 547 267C544.622 271.552 541.329 274.875 536 274L535 277L528 274L525 283L512 283L512 288L502 286L507 304L488 312C487.052 315.102 486.251 315.866 483 316C481.937 321.42 485.55 330.606 477.776 333.307C472.29 335.214 464.406 328.036 460 333C452.233 331.231 457.241 342.966 448 345C449.076 347.844 452.403 351.725 451.978 354.826C451.088 361.302 436.948 362.809 434.328 369.143C431.074 377.01 443.932 389.342 449 394L449 395C443.03 401.13 448.169 405.873 451 412C449.589 412.295 448.305 412.514 446.96 413.058C434.197 418.221 450.401 422.655 451.37 428.123C451.787 430.48 448.013 433.902 447 436C439.066 433.592 429.475 439.484 432.731 449C438.825 466.803 465.121 474.789 448 496C450.234 487.554 449.512 482.139 441 478L440 479L440 488L428 483L427 486L423 485C424.206 490.379 421.785 494.178 422.591 499.014C424.02 507.588 435.383 510.256 425 518C428.921 530.972 447.985 535.642 459 538.211C465.462 539.718 469.507 543.648 467 550L478.184 557.003L488.82 560.243L487.515 572L488.269 595.667L499 600L490 609L494 611C491.339 616.807 495.948 621.507 502 621C504.012 628.048 508.531 619.019 512.597 621.046C515.884 622.685 513.504 630.328 513 633L532 635.811L552.896 633.003L564 641L565 641L566 641L566 639L574 639C575.67 644.575 579.593 656.074 586 655L596 682L610.85 687.654L616 674C620.519 673.296 622.526 671.284 624 667C627.503 668.238 629.101 668.332 631 665L632 665L636 670C636.952 660.439 640.855 654.095 649 649C650.226 651.215 652.379 659.881 654.278 660.539C657.706 661.726 659.179 655.219 662.019 654.345C667.437 652.677 672.718 662.377 674 651L680 657L684 656L683 643L688 644L689 639L695 642L701 621C709.176 624.818 711.185 630.832 720 624L721 626L722 626L726 613L727 613C729.116 620.139 735.989 635.597 742 640L748 627C765.251 634.27 756.455 603.018 766.21 598.086C769.052 596.648 772.293 599.231 775 600L774 595C778.725 600.63 784.082 609.66 791.015 612.897C799.697 616.952 803.192 609.851 799 603L807 604L804 595L807 591L822 592L817 567C827.228 565.421 826.312 557.84 817 556L817 547C829.638 553.736 831.239 539.541 833.699 530.911C838.116 515.415 848.77 499.693 840 483C845.415 483.667 852.805 478.608 856.772 482.272C861.708 486.834 858.501 495.798 863.588 499.992C868.272 503.853 875.339 505.657 879.606 510.228C882.704 513.546 882.273 518.306 885.032 521.698C887.918 525.246 893.253 526.552 896.621 529.684C899.6 532.455 900.476 536.705 903.479 539.505C910.959 546.479 923.622 550.199 924 562L947 572.577L958 572L962 569C964.403 578.986 972.71 575.774 977 569L978 569C982.788 573.778 993.364 573.578 1000 574L1001 570L1008 574C1009.71 565.812 1014.51 571.14 1019.77 568.662C1023.62 566.847 1024.75 560.745 1025 557C1029.17 557.907 1033.67 557.568 1035 553L1047 558C1050.83 552.434 1054.02 553.134 1060 555L1065 540L1068 544C1074.95 543.036 1076.64 539.595 1078 533L1084 535L1081 521C1092.3 517.361 1091.39 501.082 1102.13 497.255C1107.29 495.417 1111.26 504.129 1116.04 505.188C1122.75 506.674 1130.19 500.866 1137 500C1133.86 490.491 1138.14 481.145 1147 476L1137 460L1141 458C1138.48 445.799 1135.05 432.28 1134.8 420C1134.72 416.399 1137.36 413.551 1137.61 410C1138.3 400.122 1135.16 388.575 1132.82 379.09C1131.47 373.565 1125.28 372.048 1122.06 367.945C1117.7 362.401 1113.44 349.999 1113 343L1109 328L1080 324C1079.48 317.274 1073.82 316.784 1068 316C1067.64 311.923 1067.17 300.366 1063.57 298.043C1059.24 295.255 1055.33 301.224 1051 300.654C1044.72 299.825 1034.27 289.127 1031 284L1021 291L1020 286L990 291.968L975 296.414L954 288L953 293C945.95 291.34 932.582 288.353 935 299L928 297C923.669 305.454 914.929 304.636 917 316L916 316C909.74 309.52 904.5 323.266 905 328C898.932 328.559 889.571 326.507 886 332C880.297 329.355 869.836 330.109 867.969 338.104C865.992 346.572 877.439 371.485 864 373L866 380C856.629 383.435 863.287 390.136 866 396C856.636 402.072 869.205 408.372 873 412C856.701 412.349 871.851 425.762 861 432L858 407L855 407L857 399L849 398L849 397L852 397C851.981 391.732 851.816 388.669 846 388C846.983 379.114 840.384 380.832 834 381C836.5 375.36 841.458 367.711 836 363L833 364L834 360L827 354L831 352L829 333C817.388 333.238 816.742 329.594 808 323L807 323L787 327L788 317C784.712 318.106 783.287 318.5 782 315L776 320L775 320L779 303L770 308L769 302C760.544 304.28 758.085 293.608 759 287L750 293L749 290L740 292L742 281L737 283L735 274L731 276L731 273L730 273L726 276L725 269L724 269L716 273L703 286L702 279C696.84 280.644 693.378 284.51 688 282L687 282L681 280C671.988 282.722 668.186 277.671 668 269L664 269L661 274L665.708 261L663 243L659 246L658 237L655 240L653 237L647 243L650 210L648 210L648 216L646 216L646 205L644 205M604 209L605 210L604 209z"/>
<path style="fill:#ffffff; stroke:none;" d="M749 293L748 295L749 293z"/>
<path style="fill:#040404; stroke:none;" d="M832 338L831 340L833 340L832 338M445 395L446 396L445 395z"/>
<path style="fill:#ffffff; stroke:none;" d="M858 453L859 458L860 458L858 453M847 470C855.445 471.984 859.764 467.213 861 459C852.363 460.885 849.729 460.593 847 470M426 492L427 493L426 492M428.333 494.667L428.667 495.333L428.333 494.667z"/>
<path style="fill:#040404; stroke:none;" d="M851 649L848 651L848 652C850.348 651.706 851.951 651.507 851 649M831 659L826 658L825 658C823.606 662.694 820.674 663.744 816 664C814.193 667.116 812.509 667.184 809 667L801 676L796 674L788 677L784 688L781 686L777 706L774 705C773.34 708.584 773.015 720.511 767 716L765 731L763 729C762.555 734.464 766.211 738.802 767.533 744C769.966 753.563 767.046 765.456 775 773L778 770L785 792L788 791C789.805 796.19 793.434 799.121 799 799L814 809L817 808L819 813L825 819L841.089 819.949L865 819L865 814C869.78 816.331 872.618 813.836 874 809C881.455 812.46 894.617 819.369 896 806L899 808C901.723 802.39 902.878 787.866 910 787L914 776L916 778L917 778L922 776L930 757L931 757L931 760L932 760C935.038 748.124 934.407 736.271 931.009 725C929.847 721.144 931.969 715.576 927 715C926.419 711.844 925.756 705.721 924.5 703.167C922.359 698.813 912.131 692.158 916 687C913.804 685.182 910.934 680.306 910 685C906.332 680.103 903.576 666.207 896 672L897 667L896 667L895 669C892.045 665.743 889.407 664.3 885 665L871 663L870 659L865 661L864 656L863 656L859 656L855 654C850.016 657.007 832.284 650.955 831 659M875 659L876 660L875 659M783 668L783 673L786 672L786 669L783 668z"/>
<path style="fill:#ffffff; stroke:none;" d="M901 674L902 675L901 674z"/>
<path style="fill:#040404; stroke:none;" d="M908 675L909 676L908 675M783.667 679.333L784.333 679.667L783.667 679.333z"/>
<path style="fill:#ffffff; stroke:none;" d="M910.333 686.667L910.667 687.333L910.333 686.667z"/>
<path style="fill:#040404; stroke:none;" d="M918 689L918 692L919 692L918 689z"/>
<path style="fill:#ffffff; stroke:none;" d="M928 728L929 729L928 728M931 731L932 732L931 731z"/>
<path style="fill:#040404; stroke:none;" d="M764 753L764 756L766 756L766 753L764 753z"/>
<path style="fill:#ffffff; stroke:none;" d="M915 775L916 776L915 775z"/>
<path style="fill:#040404; stroke:none;" d="M906 792L906 795L907 795L906 792z"/>
<path style="fill:#ffffff; stroke:none;" d="M869 812L870 813L869 812z"/>
</svg>
