<?xml version="1.0" standalone="yes"?>
<svg xmlns="http://www.w3.org/2000/svg" width="1920" height="1080">
<path style="fill:#fefefe; stroke:none;" d="M0 0L0 1080L1920 1080L1920 0L0 0z"/>
<path style="fill:#030303; stroke:none;" d="M608 160C600.504 157.365 600.099 164.172 599 170L596 169L595 180L594 180L594 176L584 190L583 190L581 185L578 190L574 189L573 196L572 196L572 190L571 190C567.149 200.965 565.495 207.245 566 219L565 219L560 210L559 213C549.276 210.473 550.031 211.583 545 202L540 204L536 200L538 208L532 210C531.301 206.659 530.406 205.562 527 205L527 214L526 214L521 198L519 198C516.658 201.497 512.454 204.168 510.894 208.043C508.448 214.116 513.355 223.945 505 226L504 227L507 236L502 236L502 240L501 240L497 235L500 248L491 243L491 259C488.276 257.111 485.812 254.827 483 253.062C466.087 242.451 475.296 275.301 476 280L461 267L464 284L449 268.719L442 269L441 269L441 273L444 272L444 276C440.534 274.791 430.326 263.968 429 270L417 261C413.037 265.909 409.951 266.767 404 268L394 265L400 291L388 288L387 289L392 295L392 296L390 300L411 320L408 317L401 317L401 327L395 325L393 325C390.791 329.706 391.718 332.106 395 336C390.132 337.538 386.521 339.43 384 344L363 340C360.683 346.789 363.624 349.049 370 351L369 354L358 354L358 356C366.932 362.817 378.501 375.348 377 387L373 387L373 388L378 391C374.174 397.166 392.328 408.42 397 412C386.785 411.782 375.882 404.84 369 416C376.437 416.539 381.905 422.123 388 425.935C404.246 436.098 422.329 450.684 434 466C420.201 463.613 410.333 439.413 395 443L406 460C401.053 455.982 396.804 450.857 390 451L392 456C386.153 459.193 386.354 469.864 386 476C383.301 475.475 380.655 474.87 378 474.154C373.389 472.912 364.595 473.525 367.747 480.777C368.775 483.143 371.721 483.889 372.601 486.274C373.772 489.446 372.376 496.96 371 500C376.971 501.493 388.021 510.95 383.049 518.567C381.594 520.795 364.736 527.917 362 528L362 535L374 541C371.769 546.383 365.812 552.377 370 558L370 559L370 568C365.756 566.674 362.484 566.812 363 572C359.205 572.827 358.304 574.171 358 578L357 578C355.148 574.02 346.595 569.612 349.068 577.019C351.271 583.615 359.204 586.679 362.002 593C363.773 597.001 362.157 603.457 363 608L359 608C360.291 617.634 374.684 619.044 371 629L370 629L361 624C361 629.509 353.975 625.454 351.167 626.833C346.895 628.932 348.272 632.835 342 633L352 644L338 645C340.747 649.755 352.054 656.861 344 662L352 670C350.038 678.138 345.042 677.793 339 682L339 684L345 685C337.214 701.042 326.27 684.659 315 687L324 704L317 708C322.869 709.632 328.487 715.102 332 720L327 722C330.425 730.604 341.294 723.84 341 736L330 738.431L310.3 737.988L296 749L296 752C299.227 753.851 300.065 755.29 300 759L296 758C296.697 760.935 297.83 764.006 296.541 766.95C295.053 770.347 289.844 773.603 292.698 777.757C297.369 784.558 314.039 779.545 320.984 781.317C327.303 782.93 325.978 788.287 320.001 788.557C317.952 788.65 316.038 788.708 314 789L324 811L330 810L330 814C345.502 812.485 337.525 829.75 334 838L338 840L335 841L335 844L356 847C353.064 852.731 355.481 858.741 360 863C355.393 868.911 363.474 869.88 368 869L371 877L377 875C380.525 883.882 376.326 882.738 375.059 891C374.55 894.317 375.988 898.529 376 902L381 895L391 893L395 900L396 900L403 897C401.223 907.021 409.261 925.75 419 911C419.982 913.315 420.101 917.432 421.893 919.214C425.817 923.118 427.462 916.768 427 914L431 915C431.374 919.696 431.674 924.475 436 927L435 933C439.764 934.349 442.029 937.192 443 942L448 942C456.61 927.28 461.233 940.484 463 950C468.38 948.828 471.367 946.623 472 941L475 945L478 945L480 939L497 944L496 928L501 932L498 914L499 914L503 922L506 921L512 928C512.066 925.509 512.085 921.959 515 924L516 919L527 930C526.973 920.037 522.866 913.741 519 905L528 912L525 902C537.372 902.146 535.972 910.703 538 920L541 920L547 915L544 897L545 897C546.721 900.046 547.784 900.276 551 899C552.245 903.3 553.683 906.365 558 908C560.247 900.813 564.578 905.794 569 908L570 905L572 905L573 908L574 908L573 881L582 884L579 867L583 866L581 864L581 863L585 861L588 865L589 860L605 866L606 863L622.039 875.165L632.816 879.095L651 900.451L678 911C678.286 907.463 677.89 902.58 681.163 900.417C685.215 897.74 692.493 899.634 694.15 893.977C697.063 884.029 681.613 870.264 678 862C685.326 856.655 672.88 839.659 671 833L681 832C680.221 825.48 677.064 819.849 671 817L675 806C683.452 808.694 693.342 802.664 691 816L700 811L701 816L725 819C724.348 824.354 720.763 830.079 720.538 835.166C720.225 842.232 728.555 843.869 719 849L719 852L725 852L733.653 862.866L724.134 871.153L715 888L747 884L758 877C756.673 882.187 752.76 893.882 760 896C760.624 884.598 769.635 888.047 774 881L777 882L790 873L792 884L794 881L794 890L796 890L805 878L810 896L814 892C823.41 899.001 812.748 907.022 811 916L812 916L815 913L816 920C798.007 922.005 813.768 934.932 814.728 943.001C815.29 947.729 811.414 951.728 810 956L828 946C823.643 953.826 820.006 958.776 820 968L835 958L839 962L835 968L854 970C856.625 975.956 858.119 977.587 856 984L863 990L865 989C869.709 995.528 875.618 984.118 877.726 980C884.113 967.525 887.851 955.05 892.058 942.004C893.525 937.454 896.096 934.113 901 934L909 927L910.154 942L904 964C911.771 957.416 912.057 956.385 922 955C920.949 958.666 920.694 961.664 924 964L924 959C930.693 958.92 933.96 955.887 937 950C941.095 955.451 944.478 952.741 946 947L947 947L952 952L952 941L961 948L971 923L974 929L979 925L980 925L983 936L986 936L987 927C996.28 935.606 995.164 950.43 1011 953L1016 947L1018 958C1027.92 952.779 1028.97 937.059 1029 927C1036.58 930.001 1039.35 921.481 1038 915L1042 915C1042.01 931.353 1055.96 924.865 1068 927L1069 926L1064 915C1070.24 916.804 1074.67 932.999 1080 930L1083 932L1088 909L1089 909C1091.32 913.193 1096.07 916.019 1099 911L1108 914C1108.86 908.286 1102.34 902.905 1109 899L1112 904L1113 904C1127.12 888.815 1127.55 911.956 1137 920L1138 914L1158 920L1158 919L1145 908C1148.76 898.291 1156.93 888.48 1165 882L1166 886C1172.35 884.33 1174.64 878.102 1180.28 875.881C1186.23 873.54 1188.91 884.968 1194 876L1200 880L1205 873L1208 863L1217 864L1218 861L1220 861L1224 872L1232 866C1232.51 872.584 1237.75 875.81 1244 876C1244.18 870.416 1246.08 866.783 1251 864L1252 868L1264.59 866.392L1272 860L1272 856L1277 854L1278 854L1283 864L1292 863L1292 855L1293 855L1296 857L1296 851L1302 852L1303 841L1308 839L1317 853L1319 853L1320 846L1325 847C1328.54 856.354 1334.98 863.669 1344 868L1343 863L1346 859L1350 860L1351 855L1356 857C1360.61 845.037 1363.35 835.678 1360 823L1375 828L1375 824C1383.1 828.53 1389.84 830.092 1389 819L1395 821L1391 799C1397.96 793.923 1394.45 776.233 1391 770L1394 771C1393.97 769.344 1393.8 767.63 1393.86 765.976C1394.41 751.963 1407.67 770.515 1412 772C1414.64 763.056 1410.23 756.108 1407.09 748C1402.22 735.423 1394.01 720.413 1394 707L1396 707C1396.03 717.626 1402.44 720.941 1408.21 729C1410.87 732.714 1412.11 737.453 1416 740L1417 731L1430 740L1428 733L1432 733C1431.62 728.009 1429.64 726.472 1425 725L1430 719C1431.61 724.317 1439.68 727.631 1445 728L1440 718L1444 721L1445 701L1440 697C1447.36 696.684 1465.61 697.54 1458.64 684.105C1456.53 680.023 1451.28 679.037 1449.07 674.957C1446.36 669.965 1448.4 664.42 1445 659C1437.83 660.829 1435.24 654.703 1430.83 650.039C1424.49 643.336 1416.53 640.727 1417.28 630C1417.79 622.63 1425.02 619.006 1423 611L1428 610C1430.6 600.414 1433.41 592.501 1431 582C1434.11 581.226 1437.76 579.032 1441 579.447C1445.44 580.017 1448.53 586.358 1452 581L1467 596L1472 595C1476.17 610.593 1489.98 619.238 1503 627.397C1508.05 630.565 1519.71 632.35 1519 624C1521.69 623.25 1532.54 623.29 1533.35 621.523C1535.46 616.927 1527.17 604.946 1524.8 601C1519.01 591.393 1511.43 574.866 1512.79 563.17C1513.14 560.112 1516.19 558.167 1516.51 554.996C1516.99 550.266 1512.85 547.303 1512.1 543.055C1511.08 537.241 1521.3 536.591 1525 537C1527.29 528.439 1529.69 525.557 1538 523L1531 509C1524.79 507.115 1526.88 502.178 1526 497L1529 496L1526 487L1533 483L1522 472L1530 469L1530 467L1522 464L1522 463C1525.36 462.94 1531.6 463.81 1534.45 461.937C1537.34 460.045 1538.01 456.04 1541.17 454.164C1544.4 452.255 1548.54 452.712 1551.46 450.122C1557.35 444.888 1559.38 435.997 1549 436L1553 428L1547 426L1546 423L1534 424C1532.79 419.203 1532.34 416.615 1527 416L1532 409L1529 408L1538 389L1508 376.108L1494 374L1488 376L1501 368C1498.36 361.701 1493.76 363.454 1488 363.921C1479.8 364.587 1461.73 368.901 1455 364L1457 365L1456 363L1477 360L1470 356L1470 355L1476 352L1476 347L1466 339L1470 340L1476 331C1470.75 328.835 1466.13 328.967 1464 323C1458.36 323.924 1456.3 321.007 1459 316L1459 315L1454 312L1454 311L1462 308L1448.31 291.871L1444 279L1429 278C1430.58 273.762 1431.88 269.967 1427 268L1432 259L1431 259C1423.74 265.423 1416.29 268.355 1407 270C1409.44 265.16 1414.9 265.361 1417.57 260.891C1422.98 251.823 1411.68 253.425 1407 256L1410 250C1403.84 244.882 1405.45 235.949 1395 239L1396 235L1386 239L1385 236L1369 239C1369.83 236.253 1369.99 235 1367 235C1367.28 230.639 1365.87 222.565 1367.19 218.985C1375.31 196.947 1400.95 177.842 1390 152L1386 153L1383 141C1375.75 141.551 1373.73 147.846 1368.91 152.424C1360.2 160.692 1354.02 168.224 1343 173.667C1334.08 178.071 1326.66 173.128 1321 184L1309 172L1309 174L1307 174L1306 171L1303 172L1303 167C1292.29 165.685 1291.07 180.351 1281 181L1280 184L1276 181L1274 188L1269 181L1267 181L1265 185C1260.45 185.921 1261.45 190.072 1261 194L1258 187L1254 194L1253 194C1250.72 185.517 1250.77 186.164 1244.25 181.583C1242.47 180.334 1241.66 176.562 1240 179L1239 179L1237 172L1225 168C1221.91 174.804 1222.46 181.264 1214 177L1217 196L1211 199L1210 199L1209 197L1208 197L1198 204C1195.37 199.313 1192.24 198.126 1187 198L1188 203L1184 203C1185.67 209.265 1189.72 218.972 1183 223L1188 240C1185.98 238.607 1180.26 233.326 1178.24 237.361C1176.66 240.534 1180.72 245.401 1182.14 248C1187.03 256.962 1189.87 266.729 1194 276L1181 256L1181 264L1180 264L1178 259L1174 260L1174 251L1150 270L1152 255L1138 262C1135.25 255.345 1130.83 245.863 1123 249L1123 245L1119 250L1115 249L1100 257L1098 251L1096 251L1092 256L1097 223C1090.18 228.681 1094.69 236.506 1083 235L1089 228L1088 224L1087 224L1084 228C1082.82 222.592 1078.2 228.229 1077 231L1076 231C1072.26 227.885 1068.25 235.304 1064.25 235.688C1056.4 236.442 1058.99 223.244 1059 219C1053.72 222.11 1050.77 230.107 1050 236L1041 236C1040.35 228.129 1040.88 220.942 1040.09 213.001C1039.77 209.859 1039.07 204.346 1034.3 205.792C1031.1 206.762 1028.92 213.706 1026 216L1030 201L1025 207L1024 207C1024.02 200.263 1027.43 193.616 1026.82 187C1026.35 181.964 1023.04 177.299 1022.12 172.286C1021.25 167.464 1026.32 162.108 1020 160L1019 151L1014 155L1013 155L1012 155C1007.94 150.739 1005.86 162.31 1005 165L1004 165L1000 159L994 166L991 148L980 162L979 154C974.528 158.379 976.999 165.041 972.606 169.775C969.266 173.375 965.01 172.154 961.271 174.56C950.982 181.181 942.535 193.718 942 206L935.843 193.17L926 179L920 184L917 175C913.198 175 914 170.014 914 167L911 170L902 159C900.446 164.457 897.29 165.246 892 165L893 173L892 173L891 155C886.166 157.814 883.264 168.603 882 174L879 171L878 171L869 202L860 191L858 191L854.822 205.698L847.525 213.044L845 229L843 218C838.229 221.371 838.251 236.169 838 242L837 242L834 235C827.241 239.039 828.184 244.87 829 252L828 253C820.028 251.29 819.02 256.125 819 263L817 263L818 218L812 217L812 222C807.639 220.822 805.268 219.349 808 215C801.382 215.628 802.078 222.841 799.896 228C793.751 242.525 791.095 259.056 786 274L782 273C779.124 277.044 777.182 281.157 772 282L781.431 265.961L788 243L777 252L780 246C770.672 247.69 768.392 255.401 762 261L764 244L750 246L751 235L745 237L747 231L733 237L731 242L730 242L729 233C724.198 235.931 722.266 240.673 721 246C709.725 234.811 706.497 251.408 701.826 258.337C699.832 261.295 697.285 259.102 696 257L695 257L688 268L687 268L686 256L684 256L681 259C679.987 252.48 677.988 239.886 672 237C668.33 242.338 666.808 234.054 667.065 230.961C667.922 220.639 670.632 211.16 672 201L671 201L666 206L665 206C666.395 198.788 679.765 184.194 671 178L673.725 161L669.093 147L667 118L666 118L664 124C661.943 117.569 659.619 109.287 652 108L648 103L647 114L646 114L640 103L636 104C634.577 98.9532 628.996 86.6312 623.179 96.3055C619.886 101.782 622.115 110.01 620.428 116C616.275 130.748 610.01 144.182 608 160z"/>
<path style="fill:#fefefe; stroke:none;" d="M646 115L647 116L646 115M1012 156L1013 157L1012 156z"/>
<path style="fill:#030303; stroke:none;" d="M1031.98 158.086C1027.65 160.109 1027.36 167.656 1032.79 164.914C1036.26 163.162 1037.22 155.635 1031.98 158.086z"/>
<path style="fill:#fefefe; stroke:none;" d="M1003 165L1002 168L1003 165M880 175L881 176L880 175M850.333 210.667L850.667 211.333L850.333 210.667z"/>
<path style="fill:#030303; stroke:none;" d="M507 223L508 224L507 223z"/>
<path style="fill:#fefefe; stroke:none;" d="M744 237L745 238L744 237z"/>
<path style="fill:#030303; stroke:none;" d="M1110.67 239.333L1111.33 239.667L1110.67 239.333z"/>
<path style="fill:#fefefe; stroke:none;" d="M502 240L506 244L502 240M838 244L839 245L838 244M756 248L757 249L756 248M1405 248L1406 249L1405 248M492 251L493 252L492 251z"/>
<path style="fill:#030303; stroke:none;" d="M1420 255L1421 256L1420 255z"/>
<path style="fill:#fefefe; stroke:none;" d="M474 261L477 264L476 261L474 261M759 264L762 261L759 264M486 265L486 268L488 268L488 265L486 265M1146 266L1146 268L1148 268L1148 266L1146 266M473 267L473 269L475 269L475 267L473 267M478 277L478 280L479 280L478 277M1456 347L1457 348L1456 347M1446.67 367.333L1447.33 367.667L1446.67 367.333M374 412L374 415L376 414L376 413L374 412M372 413L373 414L372 413M436.667 467.333L437.333 467.667L436.667 467.333M440 471L440 472L444 472L440 471M395 474L396 475L395 474M452 484L454 486L452 484M384 503L385 504L384 503z"/>
<path style="fill:#030303; stroke:none;" d="M359 530L358 534L359 530z"/>
<path style="fill:#fefefe; stroke:none;" d="M386 539L387 540L386 539M376 561C378.161 568.932 388.946 576.34 396 580L397 577L404 576L404 570L401 570L401 569L411 560L411 559L409 556L396 561L399 554L376 561M407 572L411 571L407 572M1518 623L1519 624L1518 623M1439.33 715.667L1439.67 716.333L1439.33 715.667M1415 727L1416 728L1415 727M710 807L710 808L717 808L710 807M1300 835L1301 836L1300 835M1299 839L1300 840L1299 839M725.667 851.333L726.333 851.667L725.667 851.333M1290 851L1291 854L1292 854L1292 851L1290 851M361.667 859.333L362.333 859.667L361.667 859.333M359 861L360 862L359 861z"/>
<path style="fill:#030303; stroke:none;" d="M1337 874L1337 878L1338 878L1337 874z"/>
<path style="fill:#fefefe; stroke:none;" d="M496 910L496 912L498 912L498 910L496 910M495 927L496 928L495 927M458 933L459 934L458 933M831 941L832 942L831 941M861 944L864 944L863 942L861 944M844 947L844 948L848 948L844 947M840.667 951.333L841.333 951.667L840.667 951.333M860 951L861 952L860 951M921 953L922 954L921 953M859 954L857 961L859 954M838.667 955.333L839.333 955.667L838.667 955.333M844 958L843 960L845 960L844 958M874 967L874 976C876.882 973.481 876.151 969.839 874 967M854.667 968.333L855.333 968.667L854.667 968.333z"/>
</svg>
