<?xml version="1.0" standalone="yes"?>
<svg xmlns="http://www.w3.org/2000/svg" width="1920" height="1080">
<path style="fill:#fcfcfc; stroke:none;" d="M0 0L0 1080L611 1080L611 1077L604 1077C604.003 1050.51 637.381 1036.11 653.714 1018.92C658.689 1013.68 667.167 1009.45 668 1002L631.961 1033.44L609 1044.59L573 1067L572 1064L570 1066C562.829 1061.17 558.335 1070.13 552 1072C556.442 1065.41 560.717 1054.92 566.418 1049.65C571.832 1044.65 582.29 1042.58 588.906 1039.11C596.092 1035.34 602.92 1028.67 610 1024.19C619.531 1018.15 627.364 1011.4 617 1002C615.233 1008.47 609.399 1008.92 604 1012L603 1011C606.67 1003.93 615.437 994.095 622.174 989.633C629.635 984.692 638.392 981.817 643.46 973.982C647.532 967.686 652.302 962.865 650 955L657 948L657 946L656 945C650.502 947.64 645.547 954.528 643 960C638.348 957.558 638.045 953.928 638 949C641.661 949.32 642.925 948.521 644 945L641 947L640 947L637 945L626 954L627 951L621 954C625.05 944.36 630.275 944.564 636.889 937.778C639.349 935.254 639.458 932.741 636 932L636 931C643.463 931.703 645.494 927.825 643 921L642 924C636.324 919.042 630.995 904.358 629 897L624 897C621.385 901.583 618.154 902.847 613 903L613 906C609.988 901.827 605.015 900.351 601 904L606 904L602 912C601.423 908.526 600.474 907.577 597 907L600 920L596 917L594 935L590 935L590 944C577.798 945.947 590.652 969.394 591 977L585 976C585.367 972.3 584.066 970.997 581 969L585 1000L576 1001L577 999L568 992L568 987L567 987L565 999L565 1000C569.099 1010.26 561.699 1010.02 557 1015L556 1015L553 1001L543 1010L543 995C538.773 994.228 535.79 993.552 534 998C530.445 995.07 528.912 991.622 529 987L523 983L525 988L517 989L517 993L513 996L513 989L511 989L504 1000L503 990C499.104 992.729 498.397 997.444 498 1002L495 1001L495 1011C492.326 1009.25 491.173 1009.72 489 1012C497.392 1021.71 505.245 1034.68 503.231 1048C502.357 1053.78 498.326 1058.03 498 1064L491 1057L491 1066L488 1063L479 1055C476.523 1058.16 473.725 1055.89 472 1053L468 1054L467 1040L461 1050L460 1050L456 1037L444 1048L442 1032L441 1032L438 1047L427 1044L424 1048L427 1039L423 1039C422.33 1034.99 423.166 1033.41 427 1032L427 1031L425 1029L420 1025L424 1023L425 1016L424 1016L414 1022C414.388 1018.45 415.51 1017.57 419 1017L418 1009L413 1014L413 1011L410 1011L403 1032L401 1023L398 1026C390.52 1019.92 396.734 1012.33 397.481 1005C397.834 1001.55 396.381 998.545 397 995L384 1007L382 1012C380.74 1005.86 378.397 999.202 381.433 993.093C383.339 989.257 386.599 987.266 388 983C376.256 984.017 373.64 998.337 367 1006C368.125 1001.27 370.136 984.435 361 988C360.772 985.34 361.285 983.099 364 985L365 984L364 979L351.123 988.038L341 973L322 969L338.062 955.302L341.414 941L343 931L338 938L338 933C343.271 931.33 342.4 927.547 341 923L333 929L325 936L320 934L320 933C326.829 931.083 334.879 922.079 336 915L340 916L345 903C340.017 904.354 335.586 907.511 333 912L330 911L324 920L329.742 902.29L339 890L334 889L334 896C328.213 897.171 313.652 894.8 324 888C321.617 883.72 318.404 884.668 314 885C311.716 890.134 307.041 890.16 303.993 894.183C297.111 903.267 299.662 908.893 288 914L289 910L282 909L286 908L286 907L276 904L289 879L279 882C277.688 874.341 277.491 869.888 286 874L286 870L296 868L284 862L281 866L276 864C276.642 859.961 275.914 857.558 272 856L279 851L282 841L295 845L300 840L299 837L302 836L300 833C294.931 838.757 288.817 835.649 282 836L280 829L285 830L289 824L289 823L273 825C268.547 829.993 264.234 828.234 261 823L281 820L281 811L270 809L269 809L265 812C265.57 806.761 266.329 804.62 272 806C271.49 799.299 262.452 792.837 258 800L252 795L251 795C238.956 799.929 225.82 786.969 213 794C213.886 790.109 212.952 788.659 209 788L213 786L221 774C219.539 768.604 222.878 765.322 228 764L227 759L236 756L238 751C229.424 752.868 223.788 742.319 223 735L208 736L208 731L191 734C194.497 728.21 193.026 725.451 187 723L189 720L186 721L186 720L198.946 719.255L214 712L213 709L216 710L215 705L220 704L203 697L211 696L213 691L199 689L197 686C202.031 683.561 204.832 682.31 210 685C211.19 679.609 208.097 677.032 203 676C201.819 658.414 217.39 670.15 226 673C222.717 663.758 211.08 658.746 204.314 652.138C201.24 649.136 201.243 645.873 197 644L197 643C213.64 645.149 221.52 660.067 237 665L236 655C247.773 661.819 258.842 670.415 273 668L273 667L265 664L268 657L264 653L286 665L292.667 651.961L290 637L286 633L299 636L295 629L293 630L280 613L281 613L281 616C288.784 609.327 273.302 601.019 267 600C269.811 594.223 288.37 597.876 295 596L295 595L292 594L293 589L294 589L300 589C300.353 592.364 300.418 595.236 304 596L304 592L318 592L304 571L308 572C304.87 563.89 294.646 552.837 287 564L282 557L271 556L271 554C275.072 552.801 285.794 549.459 285.793 544.089C285.793 541.387 274.313 530.163 272 527L278 527C279.198 521.622 275.164 518.007 271.88 514.011C265.266 505.959 255.117 498.644 250 490L255 488L253 481L273 486L272 482L275 484L275 479L280 481L281 478L283 480L284 477C298.961 489.221 309.679 477.849 325 473C320.828 464.309 335.903 464.335 340 457C348.201 457.864 355.601 444.26 356 437L350 438C353.205 434.52 361.843 430.448 363.546 426.455C365.737 421.319 358.695 418.313 355 419C357.805 432.103 335.212 437.145 330 448C320.556 446.463 305.79 457.598 297 461.326C291.123 463.819 284.612 465.291 284 457L263 452L262 456L261 456L262 452L262 451C258.33 443.848 257.836 433.989 258 426C268.098 423.536 264.465 414.055 267 407L269 409L270 409C272.479 404.355 276.346 405.073 281 404L281 402L265 401L271 385C268.802 382.326 269.494 381.24 272 379L275 386L274 381L276 382L280 372L280 371L272 352L272 351L275 349C277.902 354.686 281.885 361.47 289 360L290 355L287 353L290 353L290 352L283 352L282 349L285 348C282.831 342.108 289.304 334.779 295 339L296 339L296 324L301 328L294 311L290 312C291.261 307.393 294.898 304.451 299 308C303.775 308.615 305.99 309.076 310 306L311 307C308.553 311.591 309.009 315.282 311 320L312 320L313 315C319.372 314.13 318.659 304.471 317 300L318 299L324 302L327 283L332 288C333.834 282.453 334.477 280.543 340 284C339.14 273.219 334.267 274.41 327.019 268.686C320.86 263.823 319.472 260.365 311 260L310 255L315 251L318 252L319 247C315.396 247 310.325 246.631 307 247C305.725 247.142 304.573 249.524 303 249C299.969 247.99 298.704 244.176 302 245L300 238L306 238C308.809 230.356 309.82 224.232 319 225L319 223L322 224L325 215L326 215L326 222L327 222L326 211L339 209L344 214L345 201L352 204L352 186L355 190L356 190C358.351 186.834 360.038 185.642 364 186L361 183L371 181L371 184L380 178L381 178L383 182L385 181L386 184L400 191L400 196L403 195L402 189L406 192L408 192L406 179L411 184C414.668 166.239 430.469 191.811 433.397 200C434.677 203.582 432.971 207.376 434.059 210.985C434.935 213.89 437.964 218.34 441 216C446.699 220.383 451.298 217.966 448 211C454.562 212.824 462.147 219.338 464 226C470.928 221.016 455.504 211.525 455 205L459 210L457 200L458 200L458 203L475 208L472 196L473 196L473 198L474 198L473 193L472 196L471 196L474.883 183.911L473 172L476 176L474 159C468.885 156.012 468.478 146.536 467 141L476 146L477 141L478 141L480 144L481 133L478 134L475 125L482 128L480 123C484.124 125.409 484.169 129.59 485 134L493 137L494 136L492 115C496.631 116.878 497.732 119.329 499 124L501 124C502.466 118.487 499.53 114.76 497 110L503 105L504 108L515 106L522 106L519 104C518.999 98.6252 516.771 90.9858 523 89L523 96L531 96L528 84C540.27 88.9165 538.519 106.807 539 118L541 118L542 110L552 130C554.364 125.353 556.393 122.96 560 128L558 127L561 135L562 135L564 121L568 123L569 118L570 118C572.407 124.619 567.153 133.302 574 137L580.414 117L583 106L584 107L588 120L589 120L590 111L590 115L592 115L588.194 97L594 77L595 77L593 92L594 92L595 88L597 88L599 92L600 92C599.869 74.7292 599.031 56.8737 603.519 40C606.629 28.3051 614.969 21.0565 616 8L620 10L622 0L0 0z"/>
<path style="fill:#040404; stroke:none;" d="M622 0L620 10L616 8C614.435 20.3743 606.504 27.7722 603.519 39C598.965 56.1243 599.641 74.4963 600 92L599 92L597 88L595 88L594 92L593 92L595 77L594 77L588.12 98L592 115L590 115L590 111L587 112L589 120L588 120L584 107L583 106L580.339 116L574 137C567.542 131.756 573.405 125.077 570 118L569 118L568 123L564 121L562 135L561 135L558 127L560 128L560 127C556 122.45 553.702 125.251 552 130L542 110L541 118L539 118C538.782 107.415 540.563 87.349 528 84L531 96L523 96L523 89C516.099 90.1993 518.996 98.6149 519 104L522 106L515 106L504 108L503 105L497 110L501 124L499 124C498.015 119.029 497.146 116.388 492 115L494 136L493 137L485 134C484.45 129.668 484.586 124.612 480 123L482 128L475 125C475.682 128.819 476.616 133.08 481 133L480 144L478 141L477 141L476 146L467 141C468.017 146.172 468.693 157.134 474 159L476 176L473 172L474.653 183.536L471 196L472 196L473 193L474 198L473 198L473 196L472 196L475 208L458 200L457 200L459 210L455 205C455.01 212.48 469.258 219.666 464 226C462.906 218.929 454.936 212.066 448 211C450.36 218.045 446.759 219.39 441 216C437.941 217.42 435.497 213.765 434.537 210.985C433.303 207.41 434.575 203.609 433.682 200C432.431 194.945 426.999 187.218 423.749 183.04C417.795 175.385 411.475 173.361 411 184L406 179L408 192L406 192L402 189L400 196L400 191C395.283 187.613 392.301 182.971 386 184L385 181L383 182L381 178L380 178L371 184L371 181L361 183L364 186C359.807 185.279 357.886 186.142 356 190L355 190L352 186L352 204L345 201L344 214L339 209L326 211L327 222L326 222L326 215L325 215L322 224L319 223L319 225C309.75 222.736 308.058 230.371 306 238L300 238L302 245C298.947 245.531 301.85 248.319 304.023 248.482C308.691 248.831 314.388 247.87 319 247L318 252L315 251L310 255L311 260C319.594 260.685 320.565 264.987 327.019 269.412C334.357 274.443 338.689 273.905 340 284C334.515 279.61 333.44 282.289 332 288L327 283L324 302L318 299L317 300C317.742 304.454 318.305 316.326 313 315L312 320L311 320L311 307L310 306L299 308C295.554 302.848 290.704 307.36 290 312L294 311L301 328L296 324L296 339L295 339C289.997 333.283 281.591 342.374 285 348L283 352L290 352L290 353L287 353L290 355L289 360C281.896 360.568 278.803 354.135 275 349L272 351L272 352L280 371L280 372C276.37 374.287 276.178 377.92 276 382L274 381L275 386L272 379C268.889 380.726 267.716 382.788 271 385L265 401L281 402L281 404C276.365 404.7 271.664 403.88 270 409L269 409L267 407L264 414L267 419L258 426C257.683 433.38 257.41 444.911 262 451L262 452L261 456L262 456L263 452L284 457C284.013 465.71 290.996 463.951 297 461.699C306.792 458.027 319.477 447.663 330 448C336.334 438.81 358.567 431.441 355 419C358.053 418.888 366.093 422.341 362.983 426.741C359.798 431.247 353.334 432.942 350 438L356 437C355.205 444.117 347.683 456.596 340 457C335.039 462.915 319.554 465.159 325 473L300 483.474L284 477L281 478L280 481L275 479L275 484L272 482L273 486L253 481L255 488L250 490C254.772 502.027 279.288 512.263 278 527L272 527C273.917 530.462 275.178 534.611 278.147 537.32C280.093 539.095 284.943 540.985 284.944 544.089C284.947 549.174 274.768 552.467 271 554L271 556L282 557L287 564C296.186 554.8 303.625 563.711 308 572L304 571C305.809 581.653 311.826 583.999 318 592L304 592L303 589L302 589L304 596L300 589L294 589L293 589L292 594L295 595L295 596C288.797 597.225 268.649 594.171 267 600C269.629 600.277 283.43 608.109 284 611C284.405 613.056 281.534 617.004 281 613L280 613C278.96 621.135 289.925 622.454 293 630L295 629L299 636L286 633L290 637L292.357 651.961L286 665C278.795 660.668 272.914 653.488 264 653L268 657L265 664L273 667L273 668C257.957 668.985 249.293 660.536 236 655L237 665C222.498 658.14 213.593 644.319 197 643L197 644L204.314 652.857L226 673C217.573 668.826 200.871 658.678 203 676C207.627 677.579 210.429 679.897 210 685C205.172 681.581 201.68 682.774 197 686L199 689L213 691L211 696L203 697C205.493 704.274 214.616 700.238 220 704L215 705L216 710L213 709L214 712L197.981 719.219L186 720L186 721L189 720L187 723C192.419 726.1 193.613 728.1 191 734L208 731L208 736L223 735C223.307 742.566 228.969 753.821 238 751L236 756L227 759L228 764C222.466 764.803 218.446 768.444 221 774C215.581 776.845 214.415 780.339 213 786L209 788C212.521 789.075 213.32 790.339 213 794C220.214 791.443 227.477 791.568 235 793.313C240.548 794.6 245.479 798.868 251 795L252 795L258 800C263.349 794.51 270.939 799.187 272 806C265.778 803.568 264.946 806.388 265 812L269 809L270 809L281 811L281 820L261 823C263.333 828.547 269.498 830.989 273 825L289 823L289 824L285 830L280 829L282 836C288.581 836.193 296.029 839.781 300 833L302 836L300 840L292.981 843.84L281.603 842.043L278.822 848.946L272 856C275.413 858.079 276.08 860.055 276 864L281 866L284 862C287.15 869.738 290.003 865.281 296 868L286 870L286 874C277.696 868.054 276.625 874.473 279 882L289 879L276 904L286 907L286 908L282 909L283 912L289 910L288 914L290 912C300.832 914.385 299.728 900.27 304.559 894.237C307.776 890.219 312.412 890.76 314 885C318.337 884.865 321.006 884.588 324 888C312.567 893.053 327.215 898.113 334 896L334 889L339 890L329.742 901.443L324 920L330 911L333 912L345 903L340 916L336 915C334.031 921.921 326.433 930 320 933L320 934L325 936L333 929L341 923C341.93 927.548 342.473 930.595 338 933L338 938C341.448 936.337 343.062 934.884 343 931L341.414 940L338.062 954.582L322 969L341 973L351.11 988.833L364 979L365 984L364 985L363 983L361 988L363 986C368.393 992.536 368.524 997.79 367 1006C375.303 999.25 375.852 985.393 388 983C382.678 994.293 377.792 998.514 382 1012L384 1007L397 995C396.033 998.624 397.505 1001.43 397.106 1005C396.369 1011.6 389.939 1021.37 398 1026L401 1023L403 1032C405.706 1024.01 404.463 1015.57 413 1011L413 1014L418 1009L419 1017C415.243 1017.3 413.599 1018.06 414 1022L424 1016L425 1016L424 1023L420 1025L425 1029L427 1031L427 1032C422.706 1032.94 421.877 1034.84 423 1039L427 1039L424 1048L427 1044L438 1047L441 1032L442 1032L444 1048L456 1037L460 1050L461 1050L467 1040L468 1054L472 1053C472.732 1056.5 477.926 1059.99 479 1055L488 1063L491 1066L491 1057L498 1064C498.641 1058.2 502.786 1053.78 503.535 1048C505.152 1035.53 498.752 1019.95 489 1012L495 1011L495 1001L498 1002L503 990L504 1000C508.541 997.639 509.635 993.706 511 989L513 989L513 996L517 993L517 989L525 988L523 983L529 987C528.682 991.676 529.75 995.681 534 998C536.384 994.151 538.779 994.515 543 995L543 1010L553 1001L556 1015L557 1015C562.413 1011.84 570.617 1008.59 565 1000L565 999L567 987L568 987L568 992L577 999L576 1001L585 1000L581 969L585 976L591 977C590.828 968.922 578.382 947.4 590 944L590 935L594 935L596 917L600 920L597 907L602 912L606 904L601 904C605.569 900.903 609.296 902.188 613 906L613 903C618.252 902.941 622.023 902.288 624 897L629 897C629.992 902.245 639.471 926.266 643 921C644.67 927.503 643.057 931.025 636 931L636 932L639 932L621 954L627 951L626 954L637 945L640 947L641 947L644 945L638 949C638.014 953.888 637.709 958.329 643 960L656 945L657 946L657 948L650 955C651.665 962.27 647.883 966.155 644.089 971.999C633.869 987.745 609.571 991.672 603 1011L604 1012C609.622 1009.76 616.251 1008.62 617 1002C626.18 1013.77 618.081 1018.51 607 1025.42C600.705 1029.35 595.173 1035.12 588.906 1038.63C582.147 1042.41 572.304 1044.16 566.418 1048.99C560.99 1053.45 555.039 1065.57 552 1072C558.957 1070.85 562.27 1062.14 570 1066L571 1064L572 1064L573 1067L586.184 1057.56L621 1038.52L632.911 1033.44L668 1002C666.598 1008.92 659.773 1011.45 655.258 1016.41C638.394 1034.95 604 1049.19 604 1077L611 1077L611 1080L622 1080C623.448 1071.04 633.67 1071.02 641 1071L641 1076L636 1080C642.473 1079.99 646.259 1079.4 649 1073L658 1075L655 1080C658.194 1079.99 660.271 1080.4 661 1077L662 1077L673 1080C673.712 1073.1 677.088 1070.25 684 1071L680 1080L763 1080C763.939 1072.57 764.758 1066.6 757 1063L759 1057L766 1059L765 1064L770 1064L768 1080C771.143 1080 776.779 1081.05 779.397 1078.97C782.002 1076.91 779.816 1073.31 781.461 1070.95C784.457 1066.65 790.178 1078.05 791 1080L874 1080L873 1073L880 1067L880 1071L886 1068C884.958 1064.7 881.785 1060.61 882.85 1057.06C885.906 1046.86 900.164 1046.35 891 1033L898 1028L899 1028C899.926 1033.82 899.152 1048.91 907 1037C909.318 1047.12 899.599 1051.5 896 1060C899.306 1059.45 904.036 1060.19 906.989 1058.88C919.362 1053.41 916.384 1039.28 915 1029L916 1029L919 1034L923 1029L925 1039L928 1035C933.645 1038.96 934.644 1039.69 941 1037C935.269 1047.97 932.689 1054.35 943 1064C934.045 1065.96 931.076 1071.67 929 1080L941 1076L941 1080L944 1080L946.849 1064L944.218 1051L948.941 1034L945 1019L946 1019L948 1026L952 1025L957.288 1039.63L953 1048C961.303 1049.39 968.532 1050.05 969 1040L974 1044C976.265 1031.24 982.639 1025.07 978 1012L983 1011L993 1027L999 1025L1000 1028C994.81 1029.94 978.609 1046.3 978.036 1052.08C977.416 1058.35 991.546 1061.58 996 1061L995 1080L1002 1080L1002 1071L1015 1080L1020 1080L1018 1073L1024 1075L1019 1059L1020 1059L1027 1068L1024 1064L1024 1063C1030.56 1060.2 1033.47 1060.13 1036 1053L1037 1053C1039.22 1059.76 1033.89 1064.72 1042 1069L1042 1070C1035.13 1070.2 1031.11 1073.05 1030 1080L1050 1080L1052 1061L1054 1061C1054.63 1067.89 1057.74 1069.36 1064 1071L1063 1074L1068 1080L1119 1080C1115.11 1061.21 1089.85 1058.53 1087 1040L1091 1040C1089.56 1031.51 1086.25 1026.65 1089 1018C1094.61 1019.84 1100.95 1018.49 1104 1024L1106 1024L1107 1023L1107 1021L1104 1020C1106.94 1016.41 1109.15 1013.21 1114 1013C1114.34 1006.06 1114.39 998.665 1120 994C1120.25 1001.8 1123.56 1012.94 1133 1011L1133 1020C1142.45 1019.68 1150.22 1027.56 1153 1036L1156 1034L1156 1033L1151.86 1023.38L1141.04 1011.11L1144 1005L1138 1004L1141 999L1137 998C1137.23 992.598 1138.64 988.518 1132 988L1136 977C1142.19 981.512 1148.12 984.314 1151.04 992C1152.41 995.587 1151.22 1000.33 1153.06 1003.54C1158.05 1012.26 1167.37 1021.08 1170.71 1030.75C1173.02 1037.43 1172.06 1043.17 1172 1050L1177 1041C1182.9 1041.1 1180.43 1036.71 1176 1036C1177.82 1030.87 1183.08 1022.85 1176 1020C1177.46 1011.66 1171.54 1008.31 1169 1001L1185 999L1185 995C1187.69 997.608 1188.42 999.804 1184 1000L1185 1014L1193 1017L1198 1028L1193 1004L1205 1016L1206 1012L1221 1022L1225 1026L1226 1023C1230.8 1028.98 1229.14 1037.63 1230.21 1045C1232.04 1057.57 1238.07 1067.02 1238 1080L1240 1080L1242.61 1066L1239 1044L1244 1064L1246 1064C1246.41 1059.9 1247.67 1053.02 1253 1055L1254 1055L1260 1044L1258 1021L1262 1021C1262.02 1027.74 1262.43 1034.56 1268 1039L1272 1029L1279 1032L1279 1025C1281.24 1028.3 1283.38 1029.6 1286 1026L1289 1036L1291 1036C1291.56 1033.56 1292.41 1027.51 1295 1032L1298 1030L1301 1033L1291 1000L1300 1008L1301 1005L1302 1005L1303 1008L1308 1007L1308 1006L1304 1004L1309 994L1312 998C1326.91 997.132 1331.49 1009.8 1342 1016C1341.68 1002.23 1332.75 1000.54 1325.42 990.995C1321.73 986.199 1321.58 978.589 1314 980L1309 963L1314 967C1317.03 966.785 1317.95 967.132 1319 970L1322 969L1335 984L1337 979L1343 980L1344 986L1353 987L1354 983L1357 988L1363 983L1359 981L1358 972L1366 974L1368 964C1373.35 969.251 1377.46 968.66 1384 966C1387.82 973.468 1400.98 976.03 1401 965L1409 963L1409 966L1414 966L1416 955L1416 960L1418 960L1418 953L1423 954L1424 953L1424 947L1415 942L1412 944L1413 937L1423 938L1428 936C1421.61 925.766 1421.94 926.056 1429 917L1430 917L1432 920C1428.08 922.16 1427.83 924.864 1429 929L1434 928L1434 923L1439 925L1440 925C1444.51 921.286 1443.97 928.48 1448.14 928.669C1451.96 928.842 1455.91 924.547 1460 924L1459 917L1453 918L1453 911L1458 912L1462 909L1459 900L1459 899L1461 898L1459 895L1463 895L1462 899L1466 896L1472 899C1474.12 891.048 1465.86 888.942 1464 882L1478 877L1472 872L1472 871L1483 867C1484.09 871.497 1483.82 875.136 1489 876C1487.64 870.622 1487.38 862.298 1493.22 859.103C1499.42 855.715 1506.08 860.418 1508 851L1512 852C1514.49 847.411 1515.72 842.281 1510 840C1511.89 836.767 1513.53 836.983 1517 838L1518 835C1521.64 835.854 1528.39 836.391 1525 831L1528 831L1529 827L1531 836C1541.89 833.654 1529.19 815.935 1538 812L1527 797L1528 795L1513.15 781.858L1500 781.571L1483 779.184L1454 784L1460 780L1460 779L1454 778L1454 777C1462.26 770.73 1468.92 766.38 1480 768L1481 765L1488 766L1493.02 761.946L1504 762.826L1526 760C1529.49 748.845 1518.65 750.922 1513 745L1510 746L1509 741L1516 742C1513 737.646 1511.56 733.177 1506 732L1506 731L1518 733C1521.25 729.069 1527.95 719.516 1533.04 718.607C1541.84 717.037 1557.83 721.851 1563 712L1589 720C1591.53 716.913 1593.25 717.024 1597 718L1601 690L1597 683L1586 667L1587 663L1580 651L1578 641L1560 619L1557 620L1561.08 614.701L1552.77 603.83L1549 584L1550 584L1555 590L1560 577C1563.62 577.966 1569.17 581.066 1572 578L1573 578L1589 588L1587 578L1588 578L1592 580C1589.66 572.704 1583.66 570.891 1592 565L1586 543L1595 546C1592.93 541.968 1584.74 535.851 1590 532C1586.75 525.794 1580.8 522.932 1574 522L1573 517L1568 518C1568.03 515.955 1567.37 506.631 1566 513L1565 513L1558 504L1558 503L1566 500C1565.19 494.95 1567.2 489.035 1561 488L1561 487L1572.71 483.363L1580.08 488.164L1597 491L1601 488L1601 487L1598 487L1596 475L1598 478L1615 472L1615 466C1623.16 463.202 1621.25 453.456 1615 450L1615 449L1618 442L1614 440L1614 439C1618.29 437.114 1627.51 430.723 1619 428C1623.05 420.9 1622.46 418.555 1621.46 411.001C1621.21 409.062 1622.26 405.585 1619.67 404.817C1615.91 403.702 1612.45 408.992 1610 411C1609.86 399.066 1594.84 405.764 1587 408L1587.31 397.17L1579 375L1584 378L1585 378L1589 376L1590 373L1593 374L1594 370L1583.52 367.437L1577 360C1581.18 354.795 1579.87 350.967 1578 345C1582.57 342.729 1594.18 336.482 1592 331C1602.81 330.18 1619.38 331.853 1625 320L1630 320L1631 307L1632 307L1632 312L1635 312L1635 303L1661 287L1661 285L1656 284L1656 283C1660.44 281.447 1666.63 271.707 1667 267L1658 269L1659 265L1655 264L1655 263L1661 262L1662 262L1661 258L1664 259L1659 257L1658 248L1654 248L1654 247L1657 245L1658 247L1659 247L1661 243L1649 244L1647 239L1653 236L1653 235C1649.05 235.083 1645.62 237.387 1644 233L1634 230C1626.15 236.175 1627.09 230.952 1630 225L1623 222L1620 224L1616 220L1615 223L1614 223L1615 217C1611.2 218.253 1610.74 220.624 1614 223L1614 224L1605 217L1605 220C1600.71 219.021 1598.55 219.273 1596 223L1595 223C1591.1 220.187 1587.08 221.818 1583 223.759C1575.73 227.222 1569.14 230.854 1561 231.651C1553.3 232.406 1544.38 230.06 1538 235L1537 228L1521.91 232.455L1489.96 231.04L1474 234C1471.28 225.438 1465.48 227.979 1458 228L1462 217L1443 222L1443 217L1421 228L1422 223C1409.7 225.173 1386.64 218.218 1379 232L1378 232L1382 224L1382 223C1374.27 209.396 1387.28 200.677 1398 194C1398.22 187.934 1403.66 183.737 1408 180L1407 171C1417.02 168.162 1427.32 149.459 1421 140L1421 139C1423.83 135.788 1424.83 131.532 1427.3 128C1435.21 116.729 1455.34 87.6326 1437.41 75.0633C1433.17 72.0893 1424.38 76.59 1419 75L1416 77C1408.51 90.3659 1394.45 97.215 1383.59 107.39C1376.97 113.591 1372.45 122.723 1369 131L1367 127C1362.25 129.967 1359.59 140.888 1355 138L1347 145L1346 139L1340 141L1339 137L1335 139L1333 130C1334.37 124.226 1340.31 115.46 1334 111L1333 117L1330 113L1326 120C1319.67 119.049 1313.33 112.865 1313 123L1312 123L1310 119L1309 119L1305 128L1298 120C1297.74 124.701 1295.37 129.402 1291 125C1288.31 129.399 1286.63 134.976 1288 140L1275 150C1268.71 141.355 1273.06 134.941 1278 127L1275 126L1276 117L1263 130.265L1248 128L1247 128C1247.23 123.424 1250.47 117.932 1246 115C1242.82 125.961 1230.89 117.469 1223.26 120.589C1219.6 122.083 1217.78 126.335 1213.58 127.067C1209.29 127.814 1205.99 123.539 1203 128L1193 126L1192 126L1188 127L1188 132L1184 131L1183 137L1188 140C1184.68 142.186 1185.38 144.401 1188 147L1188 148L1188 152L1180 157L1175 167L1174 167L1173 162C1158.65 170.214 1159.54 148.338 1160 141L1148 155L1149 144L1147 144C1142.17 154.399 1136.61 164.148 1138 176L1130 172C1134.33 166.575 1136.13 159.869 1135 153L1138 152L1137 149C1140.62 146.625 1139.51 143.612 1138 140L1137 140L1127 152L1127 146L1128 143L1124 145L1122 139L1118 140L1127.21 119.62L1143.66 110.567L1160 84L1159 63L1155 63L1155 69C1150.95 68.3603 1149.35 66.8497 1148 63L1149 63L1150 65L1153 55C1146.94 56.8318 1143.28 65.1452 1142 71L1139 69L1138 74L1132 65C1127.91 65.21 1125.92 64.7285 1124 61C1132.17 56.0773 1133.89 44.7455 1133 36L1130 38L1133 20L1126 24L1131 20L1131 18L1123 15L1125 11L1123 18L1118 18L1122 7L1117 9L1116 0L1114 0L1114 4L1111 4L1111 0C1099.16 0 1091.41 -1.24084 1082 6L1082 0L974 0C970.912 18.2272 974.486 33.6349 956 44C963.453 33.2716 958.917 31.2338 949 36L951 23L940 21L937 33L936 33L931 26L928 36C923.075 30.6248 919.497 29.363 923 22L916 23C911.559 32.5007 896.825 28.1481 888 28C893.679 21.1036 902.907 18.7345 897 9L900 0L891 4L891 0L886 0L888 8L868 20L873 9L867 15L866 15L864 10L862 10L857 24C850.808 18.84 853.224 9.64355 844 7L845 13C840.572 8.9248 836.355 4.49548 830 5C831.127 11.9659 833.381 14.9363 838 20L828 20L824 17L825 26L823 26L820 23L820 24L828 31C822.742 33.83 815.92 29.8154 814.314 23.9607C811.98 15.4493 817.885 8.26978 819 0L813 0C812.94 5.04565 812.306 7.89343 807 9L808 12L799 11C798.727 16.8683 797.187 20.3032 791 21L792 24L779 21L776 28C771.126 26.5336 769.516 22.9452 773 19L774 24C777.336 21.6785 777.791 17.8035 777 14L776 14L776 20L775 20L775 13L763 27C762.481 23.886 761.631 19.1577 765 20L766 14L764 18C758.457 16.5006 754.026 14.7205 752 9L751 9L752 23L745 23C746.1 29.1627 748.551 32.6437 755 33L758 48L737.576 30.3943L727 28L726 34L731 38L726 40C723.613 35.7168 721.059 37.5305 717 36.1304C709.18 33.433 700.871 30.077 699 42L692 29L695 0L622 0z"/>
<path style="fill:#fcfcfc; stroke:none;" d="M695 0L692 29L699 42C702.32 30.3009 708.889 34.2252 717 36.8116C720.95 38.0713 722.955 36.5649 726 40L731 38L726 34L727 28L741.931 33.9514L758 48L755 33C748.89 32.3134 746.628 28.6353 745 23L752 23L751 9L752 9C753.324 15.2301 758.268 16.8656 764 18L766 14L765 20C761.474 20.4764 762.121 24.1388 763 27L775 13L775 20L776 20L776 14L777 14L774 24L773 19C768.376 22.3745 770.98 27.1697 776 28L779 21L792 24L791 21C797.687 20.6296 798.866 17.2358 799 11L808 12L807 9C812.816 8.33057 812.981 5.26831 813 0L695 0M819 0C817.19 8.74585 811.708 15.6809 814.314 24.9105C815.871 30.4232 823.453 35.3074 828 31L820 24L820 23L823 26L825 26L824 17L828 20L838 20L830 5L845 13L844 7L857 24L862 10L864 10L866 15L867 15L873 9L868 20L871 17L888 8L886 0L819 0M891 0L891 4C894.692 3.87964 896.777 3.68665 898 0L891 0M900 0L897 9C901.635 19.5377 892.773 19.8357 888 28C896.182 28.5427 913.141 33.0382 916 23L923 22C918.369 28.8652 922.42 31.5658 928 36L931 26L936 33L937 33L940 21C944.005 23.2743 946.545 24.7402 951 23L949 36C959.074 33.0118 961.581 32.5731 956 44C972.404 38.3772 969.947 27.3347 970.854 14C971.178 9.245 973.525 4.77124 974 0L900 0M1082 0L1082 6L1087 0L1082 0M1111 0L1111 4L1114 4L1114 0L1111 0M1116 0L1117 9L1122 7L1118 18L1123 18L1125 11L1123 15L1131 18L1131 20L1126 24L1133 20L1130 38L1133 36C1133.45 45.5306 1131.3 54.3595 1124 61C1125.34 65.4023 1127.72 65.6575 1132 65L1138 74L1139 69L1142 71C1143.81 65.2383 1147.49 57.7682 1153 55L1149 63L1148 63C1148.9 67.3311 1150.63 68.662 1155 69L1155 63L1159 63L1160 84C1150.23 89.561 1149.57 102.843 1143.1 110.567C1139.5 114.869 1131.62 114.785 1127.21 118.823C1121.58 123.977 1120.79 133.159 1118 140L1122 139L1124 145L1128 143L1127 146L1127 152L1137 140L1138 140C1139.15 143.772 1139.84 146.03 1137 149L1138 152L1135 153C1135.58 160.191 1133.64 165.87 1130 172L1138 176C1137.31 163.646 1143.46 155.209 1147 144L1149 144L1148 155L1160 141C1159.21 147.451 1159.61 173.08 1173 162L1174 167L1175 167L1180 157L1188 152L1188 148L1188 147C1186.01 143.96 1185.47 142.728 1188 140L1183 137L1184 131L1188 132L1188 127L1192 126L1193 126L1203 128C1206.73 124.763 1209.25 128.163 1213.58 127.516C1218.23 126.82 1220.07 122.108 1224.13 120.593C1231.17 117.961 1244.23 126.096 1246 115L1247 128L1248 128L1263 130.922L1276 117L1275 126L1278 127C1272.5 133.377 1267.77 143.003 1275 150L1288 140L1291 125L1292 128C1296.7 126.997 1297.74 124.617 1298 120L1305 128L1309 119L1310 119L1312 123L1313 123C1313.72 113.366 1319.88 119.546 1326 120L1330 113L1333 117L1334 111C1339.47 116.839 1334 123.318 1333 130C1336.44 130 1335 136.121 1335 139L1339 137L1340 141L1346 139L1347 145L1355 138C1358.38 142.226 1365.22 129.22 1367 127L1369 131C1373.73 122.904 1377.39 113.876 1384.43 107.39C1394.37 98.2267 1411.42 90.5687 1416 77L1419 75C1424.43 77.2463 1433.32 72.1998 1437.41 75.6913C1454.51 90.2664 1434.9 115.309 1426.61 128C1424.34 131.472 1423.19 135.478 1421 139L1421 140C1424.76 151.438 1417.96 165.841 1407 171L1408 180C1402.86 182.939 1397.87 187.819 1398 194C1387.59 198.4 1372.32 211.063 1382 223L1382 224L1378 232L1379 232C1389.6 218.986 1408.18 226.252 1422 223L1421 228L1443 217L1443 222L1462 217L1458 228C1465.45 227.995 1470.49 226.289 1474 234L1489 231.143L1509 233.505L1537 228L1538 235C1547.46 229.5 1559.61 233.758 1570 230.239C1577.94 227.55 1586.45 219.341 1595 223L1596 223C1599 219.917 1600.77 219.345 1605 220L1605 217L1607 217C1607.88 221.335 1609.57 223.302 1614 224L1614 223C1611.6 220.203 1611.75 218.822 1615 217L1614 223L1615 223L1616 220L1620 224L1623 222L1630 225C1625.18 231.608 1627.52 237.332 1634 230C1637.21 232.96 1639.69 233.803 1644 233C1645.32 237.63 1649.17 235.364 1653 235L1653 236L1647 239L1649 244L1661 243L1659 247L1657 245L1654 247L1654 248L1658 248L1659 257L1664 259L1661 258L1662 262L1661 262L1655 263L1655 264L1659 265L1658 269L1667 267L1656 283L1656 284L1661 285L1661 287L1635 303L1635 312L1632 312L1632 307L1631 307L1630 320L1625 320C1617.08 331.56 1603.85 329.065 1592 331L1594 333L1594 334L1578 345C1579.3 351.319 1580.65 354.257 1577 360L1583.47 367.991L1594 370L1593 374L1590 373L1589 376L1585 378L1584 378L1579 375L1586.82 397.17L1587 408C1594.35 406.694 1609.62 399.542 1610 411C1612.69 409.521 1615.51 405.017 1618.83 405.256C1621.7 405.463 1621 409.075 1621.21 411.001C1622.03 418.408 1622.13 420.874 1619 428C1626.22 431.757 1618.14 436.371 1614 439L1614 440L1618 442L1615 449L1615 450C1620.84 454.453 1622.45 461.76 1615 466L1615 472L1598 478L1598 475L1596 475C1596.75 478.895 1596.78 486.096 1601 487L1601 488L1597 491L1580.92 487.914L1572 483.079L1561 487L1561 488C1566.66 489.734 1564.72 495.097 1566 500L1558 503L1558 504L1565 513L1566 513L1566 510L1569 511L1568 518L1573 517L1574 522C1580.71 523.63 1585.77 526.507 1590 532C1582.58 533.597 1592.97 543.139 1595 546L1586 543L1592 565C1582.82 569.515 1588.59 573.554 1592 580L1588 578L1587 578L1589 588L1573 578L1572 578L1560 577L1555 590L1550 584L1549 584L1552.33 604.778L1560.94 613.972L1557 620L1560 619C1560.85 626.569 1572.1 634.805 1576.6 641C1586.67 654.875 1584.69 680.07 1601 690L1597 718C1593.3 716.73 1591.07 716.435 1589 720L1563 712C1555.33 721.677 1542.17 715.932 1532.1 718.473C1527.21 719.708 1520.4 728.743 1518 733L1506 731L1506 732L1516 742L1509 741L1510 746L1513 745C1517.54 751.993 1528.67 748.45 1526 760L1503 762.812L1492.06 761.617L1488 766L1481 765L1480 768C1469.82 765.674 1460.7 769.405 1454 777L1454 778L1460 779L1460 780L1454 784L1483 779.326L1500 781.773L1512.57 781.997L1528 795L1527 797L1538 812L1535 812C1532.71 819.773 1539.24 830.28 1531 836C1532.1 832.14 1531.9 829.845 1529 827L1525 831C1526.92 836.185 1521.68 835.641 1518 835L1517 838C1513.5 836.412 1511.33 836.03 1510 840C1515.33 843.23 1513.98 846.97 1512 852L1508 851C1504.99 859.756 1499.63 855.78 1493.18 858.628C1487.06 861.335 1487.3 870.851 1489 876C1484.26 874.561 1484.32 871.296 1483 867L1472 871L1472 872L1478 877L1464 882L1472 899L1466 896L1462 899L1463 895L1459 895L1461 898L1459 900L1462 909L1458 912L1453 911L1453 918L1459 917L1460 924C1455.57 924.297 1452.44 927.929 1448.48 928.27C1444.58 928.606 1443.89 920.003 1440 925L1439 925L1434 923L1434 928L1429 929C1428.14 924.821 1428.71 922.75 1432 920L1430 917L1429 917C1420.75 924.494 1420.41 927.277 1428 936L1423 938L1413 937L1412 944L1415 942L1424 947L1424 953L1423 954L1418 953L1418 960L1416 960L1416 955C1412.39 957.762 1413.69 961.912 1414 966L1409 966L1409 963L1401 965C1400.18 976.2 1388.65 972.015 1384 966C1377.08 967.955 1374.07 968.365 1368 964L1366 974L1358 972L1359 981L1363 983L1357 988L1354 983L1353 987L1344 986L1343 980L1337 979L1335 984C1332.55 979.84 1323.62 969.919 1319 970C1318.14 966.97 1317.08 966.717 1314 967L1309 963L1314 980C1321.63 979.72 1321.55 987.056 1325.42 991.982C1332.6 1001.14 1341.31 1002.67 1342 1016C1332.96 1007.95 1326.24 996.529 1312 998L1309 994L1304 1004L1308 1006L1308 1007L1303 1008C1301.88 1005.39 1300.66 1004.93 1300 1008L1291 1000L1301 1033L1298 1030L1295 1032L1292 1029L1291 1036L1289 1036L1286 1026C1282.96 1028.61 1281.59 1027.79 1279 1025L1279 1032L1272 1029L1268 1039C1263.4 1033.81 1262.06 1027.85 1262 1021L1258 1021L1260 1044L1254 1055L1253 1055C1247.44 1051.91 1246.21 1059.92 1246 1064L1244 1064L1239 1044L1242.35 1066L1240 1080L1920 1080L1920 0L1116 0M991 3L992 10L993 10L991 3z"/>
<path style="fill:#040404; stroke:none;" d="M756 8L760 8L759 5L756 8z"/>
<path style="fill:#fcfcfc; stroke:none;" d="M1109 5L1110 6L1109 5M836 9L836 12L837 12L838 9L836 9z"/>
<path style="fill:#040404; stroke:none;" d="M744.667 11.3334L745.333 11.6666L744.667 11.3334z"/>
<path style="fill:#fcfcfc; stroke:none;" d="M845 13L845 18L842 20L851 20L845 13z"/>
<path style="fill:#040404; stroke:none;" d="M905 14L904 20L907 14L905 14z"/>
<path style="fill:#fcfcfc; stroke:none;" d="M992 14C991.366 15.9954 990.758 17.9879 990.197 20.0046C986.049 34.899 999.084 23.3502 992 14z"/>
<path style="fill:#040404; stroke:none;" d="M747 15L748 16L747 15M953 17L953 22L955 22L956 21L955 17L953 17z"/>
<path style="fill:#fcfcfc; stroke:none;" d="M861 20L864 20L863 18L861 20M875 35L876 35L878 26C875.587 22.6957 870.307 22.9103 870.296 28.0255C870.29 31.1287 873.047 33.0004 875 35z"/>
<path style="fill:#040404; stroke:none;" d="M905 23L904 27L907 23L905 23z"/>
<path style="fill:#fcfcfc; stroke:none;" d="M751 25L751 28L753 28L753 25L751 25z"/>
<path style="fill:#040404; stroke:none;" d="M923 26L926 28L926 27L923 26z"/>
<path style="fill:#fcfcfc; stroke:none;" d="M1000 28L998 32L1001 32L1000 28M691 29L691 32L692 32L691 29M768 30L768 34L770 30L768 30M737 32L738 33L737 32M732 33L736 36L732 33M911 33L911 36L913 33L911 33M1122 33L1123 36L1124 36L1122 33M783 35L784 36L783 35M928 39L929 40L928 39M920 40L920 45L921 45L922 40L920 40M700 41L704 44L700 41M880 41L880 44L881 44L880 41M927 42L928 43L927 42M950.333 42.6666L950.667 43.3334L950.333 42.6666M946 43L947 48L948 48L948 43L946 43M742 48L744 50L744 48L742 48z"/>
<path style="fill:#040404; stroke:none;" d="M1160.67 59.3333L1161.33 59.6667L1160.67 59.3333M1134 61L1134 66L1137 61L1134 61z"/>
<path style="fill:#fcfcfc; stroke:none;" d="M699 65L703 68L699 65z"/>
<path style="fill:#040404; stroke:none;" d="M1178 67L1179 68L1178 67z"/>
<path style="fill:#fcfcfc; stroke:none;" d="M1148 69L1149 70L1148 69M1155 69L1156 70L1155 69M1148.33 72.6667L1148.67 73.3333L1148.33 72.6667M1141 75L1142 76L1141 75M1144 79L1145 80L1144 79z"/>
<path style="fill:#040404; stroke:none;" d="M527 83L528 84L527 83z"/>
<path style="fill:#fcfcfc; stroke:none;" d="M1146 92L1151 92L1150 89L1146 92M1141 99L1141 100L1144 100L1141 99M500 111L501 112L500 111z"/>
<path style="fill:#040404; stroke:none;" d="M555.333 119.667L555.667 120.333L555.333 119.667z"/>
<path style="fill:#fcfcfc; stroke:none;" d="M693 119L694 120L693 119M697 119C695.232 123.177 694.46 137.411 698 140L702 133C703.287 142.933 691.744 159.163 710 161L709 157L712 157L713 166C719.354 166.179 734.918 182.236 741 173C745.463 175.07 748.962 177.986 753 174L754 174L761 176L754 167C763.708 164.922 768.136 174.871 776.96 175.804C785.076 176.662 787.171 163.132 785 158L774.985 163.926L756.961 155.353L715 134.101L697 119M592.333 120.667L592.667 121.333L592.333 120.667z"/>
<path style="fill:#040404; stroke:none;" d="M1281 121L1280 126L1284 121L1281 121z"/>
<path style="fill:#fcfcfc; stroke:none;" d="M557 129L558 130L557 129z"/>
<path style="fill:#040404; stroke:none;" d="M1126 130L1125 132L1127 132L1126 130z"/>
<path style="fill:#fcfcfc; stroke:none;" d="M588 131L588 132L591 132L588 131z"/>
<path style="fill:#040404; stroke:none;" d="M1123 133L1122 138L1123 138L1123 133z"/>
<path style="fill:#fcfcfc; stroke:none;" d="M485 135L486 136L485 135M491 138L492 139L491 138M726 139L727 140L726 139M1421 141L1422 142L1421 141M1419.67 143.333L1420.33 143.667L1419.67 143.333M1345 144L1343 148L1345 144M1267 148L1270 145L1267 148M1099 147L1100 148L1099 147M1122 147L1122 148L1125 148L1122 147M1116 149L1117 150L1116 149M1127 153L1122 164C1125.96 161.804 1128.37 157.509 1127 153M1188 153L1190 160L1191 160L1188 153M1418 153L1419 154L1418 153M699 157L700 158L699 157M1156 159L1153 165L1158 159L1156 159z"/>
<path style="fill:#040404; stroke:none;" d="M470 160L470 162L472 162L470 160M748 163L748 164L753 168L753 165L748 163z"/>
<path style="fill:#fcfcfc; stroke:none;" d="M1119 165L1118 168L1119 165M1104 172L1108 172L1109 167L1104 172M1163 167L1161 173L1163 167z"/>
<path style="fill:#040404; stroke:none;" d="M734 171L734 172L737 172L734 171M407 174L406 176L408 176L407 174z"/>
<path style="fill:#fcfcfc; stroke:none;" d="M705.333 174.667L705.667 175.333L705.333 174.667M478.667 177.333L479.333 177.667L478.667 177.333M483 177L484 178L483 177M709 177L709 180L710 180L709 177M742 177L744 182L744 177L742 177M750 179L751 180L750 179M1113 179C1112.25 181.946 1111.8 183.311 1115 184L1113 179M748 184L753 184L753 183L752 181L748 184M713 183L714 184L713 183M1401 183L1402 184L1401 183z"/>
<path style="fill:#040404; stroke:none;" d="M468 187L468 191L469 191L468 187M346 189L347 190L346 189z"/>
<path style="fill:#fcfcfc; stroke:none;" d="M474 189L475 190L474 189M423.667 190.333L424.333 190.667L423.667 190.333M479 191L480 192L479 191z"/>
<path style="fill:#040404; stroke:none;" d="M456 199L457 200L456 199z"/>
<path style="fill:#fcfcfc; stroke:none;" d="M475 199L476 200L475 199M729 199L730 200L729 199M347 207L348 208L347 207z"/>
<path style="fill:#040404; stroke:none;" d="M453 207L454 208L453 207z"/>
<path style="fill:#fcfcfc; stroke:none;" d="M478.667 207.333L479.333 207.667L478.667 207.333M467 208L468 209L467 208M1601 221L1601 222L1604 222L1601 221z"/>
<path style="fill:#040404; stroke:none;" d="M1633 221L1634 222L1633 221z"/>
<path style="fill:#fcfcfc; stroke:none;" d="M1377.33 222.667L1377.67 223.333L1377.33 222.667M455 223L456 224L455 223z"/>
<path style="fill:#040404; stroke:none;" d="M1631.67 223.333L1632.33 223.667L1631.67 223.333M306 227L306 231L307 231L308 227L306 227M1644.67 231.333L1645.33 231.667L1644.67 231.333z"/>
<path style="fill:#fcfcfc; stroke:none;" d="M1496 232L1497 233L1496 232M475 236L478 233L475 236M466.333 238.667L466.667 239.333L466.333 238.667M1643 242L1643 244L1645 244L1645 242L1643 242z"/>
<path style="fill:#040404; stroke:none;" d="M1662 244L1663 248L1664 248L1664 244L1662 244z"/>
<path style="fill:#fcfcfc; stroke:none;" d="M320 247L321 248L320 247z"/>
<path style="fill:#040404; stroke:none;" d="M1667 247L1668 248L1667 247M315 249L316 250L315 249z"/>
<path style="fill:#fcfcfc; stroke:none;" d="M330 255L331 256L330 255M1655 257L1656 258L1655 257M337 259L337 260L341 262L337 259z"/>
<path style="fill:#040404; stroke:none;" d="M1668.33 278.667L1668.67 279.333L1668.33 278.667M325 280L326 283L327 283L325 280z"/>
<path style="fill:#fcfcfc; stroke:none;" d="M337 292L340 290L337 292z"/>
<path style="fill:#040404; stroke:none;" d="M322 295L323 296L322 295M1644 303L1645 304L1644 303M289 307L290 308L289 307M314 309L314 312L315 312L316 309L314 309z"/>
<path style="fill:#fcfcfc; stroke:none;" d="M306 325L304 330L308 332L306 325M293 341L292 344L293 341M290.667 347.333L291.333 347.667L290.667 347.333M1574 350L1574 352L1576 352L1574 350M1577.67 355.333L1578.33 355.667L1577.67 355.333M292.667 359.333L293.333 359.667L292.667 359.333M1577 367L1578 368L1577 367z"/>
<path style="fill:#040404; stroke:none;" d="M264.667 383.333L265.333 383.667L264.667 383.333M267 386L268 387L267 386M260 387L260 390L261 390L260 387z"/>
<path style="fill:#fcfcfc; stroke:none;" d="M271 389L272 390L271 389z"/>
<path style="fill:#040404; stroke:none;" d="M258 391L264 396L258 391M258 395L259 396L258 395z"/>
<path style="fill:#fcfcfc; stroke:none;" d="M1585 399L1586 400L1585 399M268 413L268 417L269 417L270 413L268 413M1592.67 415.333L1593.33 415.667L1592.67 415.333M366 425L367 426L366 425M260 431L261 432L260 431z"/>
<path style="fill:#040404; stroke:none;" d="M253 435L256 440L253 435M251 438L250 440L252 440L251 438M347 439L347 440L351 440L347 439z"/>
<path style="fill:#fcfcfc; stroke:none;" d="M1595 479L1596 480L1595 479M1596 481L1597 482L1596 481z"/>
<path style="fill:#040404; stroke:none;" d="M1600.67 483.333L1601.33 483.667L1600.67 483.333z"/>
<path style="fill:#fcfcfc; stroke:none;" d="M256 489L257 490L256 489M1553 491L1554 492L1553 491z"/>
<path style="fill:#040404; stroke:none;" d="M1566 495L1567 496L1566 495z"/>
<path style="fill:#fcfcfc; stroke:none;" d="M1567.33 519.667L1567.67 520.333L1567.33 519.667M1585 535L1586 536L1585 535M284 553L283 556L284 553z"/>
<path style="fill:#040404; stroke:none;" d="M300 565L300 568L302 568L302 565L300 565z"/>
<path style="fill:#fcfcfc; stroke:none;" d="M309 574L310 575L309 574M309 576L308 578L310 578L309 576M296 597L300 600L296 597M1549 603L1550 604L1549 603M289 614L290 615L289 614z"/>
<path style="fill:#040404; stroke:none;" d="M274.667 615.333L275.333 615.667L274.667 615.333M1562 617L1563 618L1562 617M283 633L284 636L283 633z"/>
<path style="fill:#fcfcfc; stroke:none;" d="M294 646L294 648L296 648L294 646z"/>
<path style="fill:#040404; stroke:none;" d="M199.667 653.333L200.333 653.667L199.667 653.333z"/>
<path style="fill:#fcfcfc; stroke:none;" d="M228 675L228 676L232 676L228 675M1517 677L1518 680L1520 680L1520 676L1517 677M238 679L239 680L238 679M1530 679L1532 688L1528 687L1530 692L1533 687C1537.04 688.428 1539.28 689.608 1540 694L1536 694L1536 695C1541.62 700.693 1543.92 704.451 1552 707C1553.37 698.579 1538.25 681.204 1530 679M245 683L245 684L248 684L245 683M1525 685L1525 688L1526 688L1525 685M1535 697L1536 698L1535 697M1532.67 699.333L1533.33 699.667L1532.67 699.333M1536.67 701.333L1537.33 701.667L1536.67 701.333z"/>
<path style="fill:#040404; stroke:none;" d="M211 705L211 708L213 705L211 705z"/>
<path style="fill:#fcfcfc; stroke:none;" d="M1554 707L1552 712L1558 712L1554 707M1597 712L1598 713L1597 712z"/>
<path style="fill:#040404; stroke:none;" d="M184 724L187 724L186 722L184 724z"/>
<path style="fill:#fcfcfc; stroke:none;" d="M318 726C318.172 729.59 319.738 730.662 323 732L323 731L320 726L318 726M242 735L243 736L242 735M236 738L233 745L239 744C238.877 740.567 241.051 738.546 236 738M231 743L232 744L231 743z"/>
<path style="fill:#040404; stroke:none;" d="M225 750L228 752L225 750z"/>
<path style="fill:#fcfcfc; stroke:none;" d="M1460 759L1461 760L1460 759z"/>
<path style="fill:#040404; stroke:none;" d="M1490 765L1491 766L1490 765M1490 767L1491 768L1490 767M216.667 771.333L217.333 771.667L216.667 771.333z"/>
<path style="fill:#fcfcfc; stroke:none;" d="M223 771L223 772L226 772L223 771M1424.67 771.333L1425.33 771.667L1424.67 771.333M1440 783C1444.04 788.972 1446.55 786.88 1452 784L1452 783L1447 785L1440 783M272 800L277 800C275.172 797.631 274.115 798.073 272 800M1530.33 815.667L1530.67 816.333L1530.33 815.667M1532 821L1535 824L1532 821M296 845L297 846L296 845M1503 853L1501 856L1504 857L1503 853M1469 878L1470 879L1469 878M284.667 899.333L285.333 899.667L284.667 899.333M281 901L282 902L281 901z"/>
<path style="fill:#040404; stroke:none;" d="M272 903L273 904L272 903z"/>
<path style="fill:#fcfcfc; stroke:none;" d="M280.667 903.333L281.333 903.667L280.667 903.333z"/>
<path style="fill:#040404; stroke:none;" d="M1473.67 903.333L1474.33 903.667L1473.67 903.333M628 904L626 908L630 904L628 904M276.667 907.333L277.333 907.667L276.667 907.333M1464 910L1464 912L1466 912L1464 910z"/>
<path style="fill:#fcfcfc; stroke:none;" d="M1446.67 911.333L1447.33 911.667L1446.67 911.333M640.333 914.667L640.667 915.333L640.333 914.667z"/>
<path style="fill:#040404; stroke:none;" d="M1460 915L1461 916L1460 915z"/>
<path style="fill:#fcfcfc; stroke:none;" d="M640 917L640 920L642 920L642 917L640 917z"/>
<path style="fill:#040404; stroke:none;" d="M1437 925C1436.43 928.439 1437.02 930.116 1440 932L1437 925z"/>
<path style="fill:#fcfcfc; stroke:none;" d="M1403.33 926.667L1403.67 927.333L1403.33 926.667M587 927L588 928L587 927z"/>
<path style="fill:#040404; stroke:none;" d="M1452 928L1458 936C1459.38 931.578 1455.94 929.119 1452 928z"/>
<path style="fill:#fcfcfc; stroke:none;" d="M1407 931L1408 932L1407 931z"/>
<path style="fill:#040404; stroke:none;" d="M321 935L322 936L321 935z"/>
<path style="fill:#fcfcfc; stroke:none;" d="M647.667 935.333L648.333 935.667L647.667 935.333M1303 935L1303 938L1304 938L1305 935L1303 935z"/>
<path style="fill:#040404; stroke:none;" d="M592 937L593 938L592 937z"/>
<path style="fill:#fcfcfc; stroke:none;" d="M1304 945L1304 948L1306 948L1306 945L1304 945M1266 949L1266 953L1266 949M342 950L342 952L344 950L342 950z"/>
<path style="fill:#040404; stroke:none;" d="M635 955L633 960L637 960L635 955z"/>
<path style="fill:#fcfcfc; stroke:none;" d="M1263 957L1262 959L1262 960L1271 964L1266 961L1263 957M1396 968L1400 963L1396 968M579 965L582 968L579 965M326 967L326 969L328 967L326 967M1388 969L1389 970L1388 969M342 971L342 972L345 972L342 971M1332 971L1332 977L1335 976L1332 971z"/>
<path style="fill:#040404; stroke:none;" d="M1400 976L1408 976C1404.94 974.197 1402.4 972.966 1400 976z"/>
<path style="fill:#fcfcfc; stroke:none;" d="M390 980C393.176 980.549 395.276 980.396 396 977L390 980M1136 977L1132 988C1137.96 988.958 1137.09 992.915 1137 998L1141 999L1138 1004L1144 1005C1138.16 1015.23 1145.04 1015.01 1151.29 1023.38C1153.57 1026.42 1153.09 1030.55 1156 1033L1156 1034L1153 1036C1151.21 1026.95 1142.49 1019.22 1133 1020L1133 1011C1124.02 1011.99 1120.55 1001.6 1120 994C1113.98 997.329 1113.57 1006.64 1114 1013C1108.82 1012.27 1106.44 1015.8 1104 1020L1107 1021L1107 1023L1106 1024L1104 1024C1101.76 1017.65 1094.91 1019.2 1089 1018C1085.28 1026.37 1088.78 1031.72 1091 1040L1087 1040C1088.02 1053.35 1104.34 1058.92 1112.67 1066.43C1116.22 1069.63 1116.42 1077.39 1120.43 1079.4C1128.27 1083.31 1145.24 1080 1154 1080L1238 1080C1238.25 1066.28 1231.5 1056.28 1230.1 1043C1229.42 1036.51 1231.22 1027.39 1226 1023L1225 1026L1221 1022L1206 1012L1205 1016L1193 1004C1190.18 1010.5 1196.36 1020.84 1198 1028L1193 1017L1185 1014L1184 1000C1189.11 1000.79 1188.65 997.255 1185 995L1185 999L1169 1001L1176 1020C1182.45 1023.99 1177.29 1030.28 1176 1036C1179.61 1037.08 1181.67 1039.76 1177 1041L1172 1050C1172.15 1042.87 1173.36 1037.1 1170.84 1030.09C1167.27 1020.13 1157.65 1012.08 1153.19 1002.74C1151.7 999.634 1152.52 995.371 1151.4 992C1148.85 984.298 1142.87 980.474 1136 977M660 979L660 982L662 979L660 979M1355 979L1356 980L1355 979M1279 981L1284 1000L1290 1000L1279 981M658 983L659 984L658 983z"/>
<path style="fill:#040404; stroke:none;" d="M384.667 985.333L385.333 985.667L384.667 985.333M384 987L385 988L384 987M362 988L363 989L362 988M1363 988L1361 992L1365 991L1363 988z"/>
<path style="fill:#fcfcfc; stroke:none;" d="M490 991L491 992L490 991M504 991L505 992L504 991M651.667 991.333L652.333 991.667L651.667 991.333M1156.67 991.333L1157.33 991.667L1156.67 991.333M671 995L672 996L671 995M1294 995L1297 997L1294 995z"/>
<path style="fill:#040404; stroke:none;" d="M536 997L537 998L536 997z"/>
<path style="fill:#fcfcfc; stroke:none;" d="M1296 998L1297 1001L1300 999L1296 998M489 999L492 1004L489 999M548 999L549 1000L548 999M979 999L980 1000L979 999M1192.33 999.667L1192.67 1000.33L1192.33 999.667M1213 999L1215 1004L1216 1004L1213 999M625 1001L624 1004L625 1005L628 1004L627 1001L625 1001M981 1001L984 1004L983 1001L981 1001z"/>
<path style="fill:#040404; stroke:none;" d="M1314 1001L1314 1004L1315 1004L1316 1001L1314 1001z"/>
<path style="fill:#fcfcfc; stroke:none;" d="M411 1007L411 1010L412 1010L411 1007M1218 1007L1222 1023L1225 1023C1226.51 1016.79 1222.82 1010.78 1218 1007z"/>
<path style="fill:#040404; stroke:none;" d="M592 1009L592 1012L594 1012L594 1009L592 1009z"/>
<path style="fill:#fcfcfc; stroke:none;" d="M487 1011L488 1012L487 1011M978 1012L980.809 1023L974 1044L969 1040C968.091 1049.99 961.073 1048.5 953 1048L957.684 1040L952 1025L948 1026L946 1019L945 1019L948.807 1035L944.213 1050L946.679 1065L944 1080L995 1080L996 1061C991.913 1061.06 978.114 1057.68 978.766 1052.08C979.453 1046.18 994.978 1030.86 1000 1028L999 1025L993 1027L983 1011L978 1012M1277 1016L1277 1020L1282 1020L1277 1016M1136 1017L1137 1018L1136 1017M1286 1017L1287 1021L1291 1020L1286 1017M971 1019L969 1032C973.227 1029.2 973.795 1023.72 973 1019L971 1019M994.667 1019.33L995.333 1019.67L994.667 1019.33z"/>
<path style="fill:#040404; stroke:none;" d="M1109 1021C1108.43 1023.4 1108.52 1023.49 1111 1024L1109 1021M1101 1025L1104 1031L1103 1025L1101 1025M420 1028L418 1034L419 1034L420 1028z"/>
<path style="fill:#fcfcfc; stroke:none;" d="M898 1028L891 1033C894.507 1040.21 894.642 1045.09 888.42 1051.28C886.299 1053.39 883.248 1053.73 882.478 1057.06C881.587 1060.91 884.465 1064.69 886 1068L880 1071L880 1067L873 1073L874 1080L912 1080L927.683 1079.4L931.878 1072.04L943 1064C933.793 1052.08 936.92 1049.61 941 1037C934.502 1038.73 934.019 1037.85 928 1035L925 1039L923 1029L919 1034L916 1029L915 1029C915.867 1039.63 918.848 1051.91 906.985 1058.21C903.955 1059.82 899.41 1059.09 896 1060C900.756 1052.39 909.878 1046.83 907 1037C897.65 1047.02 901.439 1032.72 898 1028z"/>
<path style="fill:#040404; stroke:none;" d="M1225 1028L1224 1032L1225 1028M395.333 1030.67L395.667 1031.33L395.333 1030.67M1284 1030L1286 1034L1284 1030z"/>
<path style="fill:#fcfcfc; stroke:none;" d="M935.667 1031.33L936.333 1031.67L935.667 1031.33M1077 1033L1078 1034L1077 1033z"/>
<path style="fill:#040404; stroke:none;" d="M1267 1040L1268 1041L1267 1040M950 1047L950 1053C952.895 1051.07 952.82 1049.01 950 1047z"/>
<path style="fill:#fcfcfc; stroke:none;" d="M753 1051L753 1052L761 1053C760.067 1048.01 756.768 1049.05 753 1051M775 1051L774 1056L776 1056L775 1051M789 1053L791 1056L789 1053z"/>
<path style="fill:#040404; stroke:none;" d="M975 1053L974 1056L975 1053z"/>
<path style="fill:#fcfcfc; stroke:none;" d="M1036 1053C1032.49 1059.56 1030.36 1059.55 1024 1063L1024 1064L1027 1068L1020 1059L1019 1059L1024 1075L1018 1073L1020 1080L1030 1080C1031.65 1073.7 1035.49 1070.44 1042 1070L1042 1069L1036 1053z"/>
<path style="fill:#040404; stroke:none;" d="M962.333 1054.67L962.667 1055.33L962.333 1054.67z"/>
<path style="fill:#fcfcfc; stroke:none;" d="M878 1055L876 1062C878.518 1060.22 879.277 1057.91 878 1055M1015 1055L1016 1056L1015 1055M759 1057L757 1063C764.068 1067.74 763.613 1072.23 763 1080L768 1080L770 1064L765 1064L766 1059L759 1057z"/>
<path style="fill:#040404; stroke:none;" d="M912 1057C910.839 1061.65 911.757 1068.28 916 1071L914 1057L912 1057M1253 1057L1253 1060L1254 1060L1253 1057z"/>
<path style="fill:#fcfcfc; stroke:none;" d="M1052 1061L1050 1080L1068 1080L1063 1074L1064 1071C1058.22 1068.97 1055.03 1067.47 1054 1061L1052 1061M1064 1062L1063 1064L1065 1064L1064 1062M1011 1063L1012 1064L1011 1063z"/>
<path style="fill:#040404; stroke:none;" d="M486 1065L487 1066L486 1065z"/>
<path style="fill:#fcfcfc; stroke:none;" d="M862 1067L862 1068L866 1066L862 1067M1063 1067L1062 1069L1063 1067z"/>
<path style="fill:#040404; stroke:none;" d="M567 1072L571 1072L570 1068L567 1072M577 1069L577 1074L580 1069L577 1069z"/>
<path style="fill:#fcfcfc; stroke:none;" d="M780 1080L791 1080C790.416 1077.75 784.729 1065.57 781.345 1070.62C779.913 1072.76 780.596 1077.41 780 1080M937.667 1069.33L938.333 1069.67L937.667 1069.33M673 1080C680.121 1079.92 680.805 1076.77 684 1071C676.791 1069.44 673.366 1072.97 673 1080M1080 1070L1079 1072L1081 1072L1080 1070M622 1080L641 1076L641 1071C633.446 1071 622.778 1070.15 622 1080M1002 1071L1002 1080L1015 1080C1014.17 1075.04 1006.34 1073.55 1002 1071z"/>
<path style="fill:#040404; stroke:none;" d="M561 1072L562 1073L561 1072z"/>
<path style="fill:#fcfcfc; stroke:none;" d="M649 1073L645 1080C650.851 1080 654.502 1080.17 658 1075L649 1073M1099 1073L1100 1079L1101 1079L1101 1073L1099 1073M869 1074L868 1076L870 1076L869 1074M794.667 1075.33L795.333 1075.67L794.667 1075.33M863 1075L864 1076L863 1075M934 1079L934 1080L941 1080L941 1076L934 1079M661 1077L665 1080L665 1079L661 1077z"/>
<path style="fill:#040404; stroke:none;" d="M789 1078L790 1079L789 1078z"/>
<path style="fill:#fcfcfc; stroke:none;" d="M615.667 1079.33L616.333 1079.67L615.667 1079.33M682 1079L683 1080L682 1079M692 1079L693 1080L692 1079M696.667 1079.33L697.333 1079.67L696.667 1079.33M828 1079L829 1080L828 1079M859.667 1079.33L860.333 1079.67L859.667 1079.33M1034 1079L1035 1080L1034 1079z"/>
</svg>
