<?xml version="1.0" standalone="yes"?>
<svg xmlns="http://www.w3.org/2000/svg" width="1920" height="1080">
<path style="fill:#fefefe; stroke:none;" d="M0 0L0 1080L1920 1080L1920 0L0 0z"/>
<path style="fill:#030303; stroke:none;" d="M635 40L633 44L631 44L630 41C613.645 58.5972 616.651 77.9816 612.575 100C611.051 108.23 605.662 117.679 607 126C602.587 126.946 604 132.232 604 136L601 134L595 153L593 153L592 147L590 147L593 168L578 153L576 160L573 159C572.119 162.535 581.879 181.744 571.6 174.06C570.032 172.888 568.728 171.93 567 171C567 173.472 557.302 180.271 564 183L564 184L559 197L555 188L554 188L554 192L553 192L549 183L547 183L545 188L543 184L540 186L535 165L531 166L529 176L518 163C515.858 167.307 514.201 170.833 509 171C507.276 178.74 512.665 187.326 506 192L503 185L502 185L499 198L497 195C492.473 202.411 493.021 209.918 494 218L487 213L489 229L481 223L478 232L481 241L478 243C469.851 240.117 465.139 246.263 459 251L456 247L458 253L456 256L455 256C451.21 248.259 441.134 241.416 434 237L445 256L440 258L440 254L435 256C430.838 243.002 419.649 233.764 408 229L407 229L404 231L406 236L402 235L404 240L399 242C401.113 248.165 403.707 249.959 398 255L378 238L377 248L374 247L380 264L376 270L364 266C364.788 277.753 372.202 293.565 379 303C366.82 298.491 370.129 309.603 359 312C359.967 318.273 367.754 322.393 362 328L362 323L360 323L360 327L357 330L343 328C341.229 332.336 340.169 335.444 335 335L340.373 346.797L329 351L333 360L329 360L329 364L334 368L348 371L332 384L333 382L332 382L331 384C332.971 389.967 326.91 391.76 324 396L341 401C340.777 411.447 334.898 417.128 328 424C335.381 429.536 341.389 431.519 348.491 423.621C351.003 420.827 351.465 416.481 356.019 416.449C361.511 416.411 368.92 420.81 374 422.858C390.784 429.624 406.564 438.381 419 452C411.435 451.776 406.554 443.625 400.999 439.296C394.177 433.978 386.362 432.058 378 431C379.663 436.876 386.298 443.372 376 445C376.444 451.249 375.398 464.23 385 461L381 469L379 469L378 463L372 461C368.706 467.677 361.499 467.319 355 469L357 475C351.996 475.932 346.127 475.539 343 480L339 478L339 484C345.424 483.827 349.183 485.046 349 492C354.682 492.429 356.994 495.083 352 499L350 508L363 507C361.443 509.349 359.324 512.052 359.194 514.996C359.083 517.495 361.744 520.476 359.433 522.567C353.988 527.494 342.594 524.069 336.019 527.328C329.585 530.518 332.155 535.33 338 537L337 540L320 534C320.376 540.867 325.892 549.687 330.68 554.61C333.056 557.054 337.706 558.58 339.052 561.88C342.053 569.236 325.789 562.299 324 561C318.715 571.609 330.869 573.296 337.826 577.856C343.471 581.556 348.003 589.31 348 596L352 593L352 600L355 601L348 607L351 613C356.923 612.697 358.539 615.663 362 620C357.678 618.123 342.457 606.183 342 616L338 616L331 611L331 616L328 615L328 620L322 620L322 621L337 636L335 638L334 638C330.639 634.092 327.052 633.119 322 633C323.023 642.155 335.984 650.417 322 657L322 659L333 663L331 668L337 671L337 672C326.848 672.084 317.458 669.725 319 682C314.523 681.908 309.379 680.195 305.015 681.515C297.911 683.662 297.231 688.971 289 686C288.093 688.462 287.096 691.177 289.474 693.243C292.557 695.921 296.551 693.284 300 693.318C303.501 693.352 307.912 695.775 310.926 697.47C316.851 700.801 311.469 704.653 306.832 703.835C304.415 703.409 302.463 702.921 300 703L316.402 716.588L325.329 727.821L339 734C323.566 734.673 314.009 735.434 300 727L299 735L268 726C267.398 733.692 268.314 736.2 276 739L273 754L273 755L281 759L281 760L272.582 766.714L265 767L273.105 778.157L285.579 785.598L289.185 798.8L303 812L314 813L311 820L327 821L312 854L316 855C314.554 859.94 315.519 863.571 318 868L317 870L313 869C313.898 873.171 317.9 871.835 321 870.167C325.614 867.684 328.825 863.323 333.222 860.722C336.864 858.569 341.039 858.216 344 855L345 855C348.824 864.024 344.461 872.416 346.361 880.867C348.407 889.968 357.403 879.494 359 876L364 875C359.279 880.765 354.819 892.595 354 900L355 900L355 896C360.136 895.177 362.409 893.243 363 888L364 888L365 902L368 901L372 923C381.357 918.129 382.199 910.489 381 901L386 901C386.81 904.53 389.27 910.496 393 911L387 934C393.849 933.528 403.778 924.686 408 932L412 930C409.679 936.391 405.818 958.267 418 948L427 974L435 976L439 964L440 964L445 979L452 972C451.995 978.901 448.42 989.418 457 992L457 985L461 986L463 981L471 979L472 983C480.153 977.702 480.964 966.55 483 958L490 963L493 960C493.291 965.313 500.639 969.253 502 963L510 964L508 953L512 954L514.454 949.957C521.027 939.084 521.429 952.393 528 955C533.884 948.718 537.126 958.861 542 962L533.919 933L531 920L534 909C534.719 918.106 540.08 950.251 554 944C551.867 936.361 549.176 932.079 551 924C558.576 928.217 560.973 924.741 561 917L573 928L573 919L574 919L579 925L580 924L578 910L584 913L585 893L589 895C591.237 887.211 585.811 883.634 583 877L586 877L589 880L587 869L592 872L594 872C597.699 868.268 600.272 869.125 602 874L615 870L626.362 882.105L632.001 893.668L637 895C640.866 911.083 657.03 917.016 668.91 925.698C679.266 933.267 682.106 939.904 696 941L696 937C703.984 942.217 711.573 943.999 721 944L720 939L726 938C732.229 939.97 741.285 938.964 737.632 929.996C734.202 921.575 725.735 917.01 722 909L726 910C731 900.563 736.675 904.102 745 902L748 908C744.266 909.007 742.387 909.957 743 914C740.509 914.723 734.221 918.959 738.608 921.868C743.643 925.207 752.981 918.106 755 914C766.17 916.972 769.209 900.086 776 894L775 900L782 904L791.184 897.265L800 895L804 916L797 919L797 920C804.012 927.099 787.098 935.795 781 937C782.18 943.953 788.411 943.037 794 942L792 956L795 960C790.808 960.881 788.463 963.559 784.985 965.9C777.667 970.826 754.41 981.507 761 992L757 996L766 1003L770 1002L770 1006C773.283 1004.26 774.14 1002.71 774 999C780.32 1000.3 783.158 996.764 785 991C793.161 993.935 788.383 1000.92 793 1006L796 1001L806 1002L807 1002L813 999L813 1008C824.029 1004.26 829.533 992.173 838 985L830.383 1004L832 1016L835 1011L836 1011C838.087 1017.77 836.548 1022.5 830 1026C830.263 1029.41 830.679 1030.9 834 1032L856.726 1024.68L885 999C885.833 1008.48 890.962 1012.2 899 1006L899 1010C909.648 1012.59 921.125 1000.22 930 996L931 989L941 992C940.083 984.869 938.615 977.714 948 977L949 968L960 988L958 983C968.036 978.063 969.479 955.232 972 945C975.186 951.573 975.217 964.034 985 962L997.513 974.017L1004 997L1008 994L1011 1000C1017.55 1000.18 1018.92 1004.48 1021 1010L1023 1010L1027 994L1029 994L1030 1004C1034.04 1003.62 1036.39 1005.15 1040.17 1005.6C1049.75 1006.75 1051.9 1003.58 1052 1016L1056 1016L1055 1011C1059.21 1010.48 1059.18 1004.71 1058.94 1001C1058.54 994.828 1052.29 973.75 1047 972L1051 968L1048 945L1052 945C1051.84 940.621 1053.68 938.686 1057 936C1054.22 951.238 1069.06 948.613 1079 951.228C1084.84 952.765 1098.43 964.05 1099 970C1101.65 970.223 1104.34 971.73 1107 971.025C1116.91 968.402 1118.4 956.137 1125 950C1126.47 954.284 1128.48 956.296 1133 957L1130 941L1133 945L1136 939L1143 946C1148.53 942.163 1147.31 936.767 1146 931L1150 938L1177 946L1176 951L1177 951C1180.07 945.319 1183.62 942.367 1190 941L1190 947C1195.06 943.696 1192.03 934.023 1187 932C1188.91 926.542 1185.99 926.025 1182.37 922.586C1173.89 914.525 1169.19 914.753 1159 911L1166 910L1168 903L1197 905L1200 903L1199 906L1200 906L1201 904C1204.4 910.718 1216.29 926.413 1224 927L1222 912L1224 912L1225 916L1229 915L1236 920L1241 909L1248 912L1263 894C1268.27 896.251 1270.97 894.051 1273 889L1274 892C1278.89 891.159 1280.22 887.271 1282 883L1290 888L1304 882L1306 877L1308 877L1313 890L1314 890L1313 876L1329 894L1330 894L1330 890L1331 890L1334 904L1336 905L1340 903C1341.59 910.33 1349.32 902.231 1350 898C1353.62 901.199 1356.02 902.99 1356 908L1361 912C1369.3 908.825 1365.36 899.559 1364 893L1368 894L1373 892L1372 887L1380 897C1379.05 891.576 1382.06 888.177 1381.89 882.996C1381.72 877.878 1377.44 873.105 1377.57 868.343C1377.71 863.285 1389.13 863.64 1392 865L1393 865L1397 864L1394 854L1399 848C1404.69 854.784 1410.58 858.189 1419 861L1420 858L1427 860L1422 849L1427 847C1439.36 849.788 1428.13 834.768 1428 830L1422 828L1427 822L1429 824L1430 820L1440 821C1439.89 816.198 1439.23 812.677 1435 810L1430 799C1433.38 800.259 1443.93 805.246 1445.12 798.941C1446.03 794.078 1431.95 782.823 1428.73 779C1418.02 766.319 1405.68 745.878 1404 729L1405 729C1410.27 740.866 1415.93 762.893 1429 768L1429 757L1433 762L1435 762C1439.09 753.058 1440.13 746.179 1449 742C1451.79 747.687 1460.78 753.341 1464 745L1471 744C1469.19 740.813 1466.22 739.322 1469 736L1469 734C1462.67 731.433 1467.8 725.64 1471 728L1467 711C1465.69 709.436 1464.44 706.931 1467.65 706.339C1474.74 705.034 1486.26 707.82 1494 708C1495.65 697.952 1489.25 694.192 1480 694L1492 681L1496 684C1497.76 669.779 1478.73 664.105 1466 664L1466 663L1478 660C1474.82 654.327 1471.45 653.229 1472 646L1455 642L1454 638C1457.59 636.74 1470.65 627.32 1463.81 623.332C1459.57 620.864 1450.91 623.997 1446 624C1447.87 619.735 1447.92 615.618 1443 614L1443 613L1466 598C1471.57 612.92 1483.07 621.869 1494.96 631.669C1506.43 641.122 1511.31 648.634 1527 650L1526 647L1549 659L1549 653L1561 653C1562.55 632.002 1541.91 620.161 1533.41 602.246C1530.17 595.417 1531.05 584.044 1524 580L1531 578L1533 571C1527.67 569.547 1523.64 566.509 1531 564L1522 549L1528 547L1537.04 545.001L1548 548L1545 543C1546.93 542.874 1549.13 543.147 1551 542.657C1564.23 539.194 1544.47 529.505 1552 525L1543.52 507.424L1543.12 498.001L1539.49 490.665L1542.67 483.961L1545.24 473.618L1556 472L1547 468C1554.54 459.669 1578.58 468.93 1570.92 452.025C1570.1 450.218 1569.08 448.652 1568 447C1574.37 445.192 1589.14 437.692 1574 436C1573.19 432.279 1574.23 426.141 1572.86 423.101C1570.37 417.565 1561.04 416.851 1556 415L1558 409L1556 401L1550 400L1549 395C1552.3 393.396 1560.18 387.712 1556 384L1558 379L1550 380C1551.37 369.195 1548.48 364.18 1537 369L1535 354L1533 355L1528 354L1528 352L1523 354L1518 338C1513.59 341.674 1515.55 345.419 1512.97 349.787C1509.49 355.682 1494.49 361.004 1488 361L1493 355L1486 354C1487.55 350.738 1487.6 349.207 1484 348L1485 345L1476 344L1477 338C1485.57 337.566 1487.14 320.622 1488 314C1486.7 314.628 1483.49 316.782 1482.48 314.539C1481.15 311.582 1484.29 307.199 1484.05 304.043C1483.51 296.702 1474.41 287.026 1468 284L1470 278L1439 270L1447 257L1442 256L1446 249L1424 260L1435 243L1420 251L1420 247L1415 248L1415 237L1411 233C1407.23 233.904 1405.74 233.815 1403 231C1395.77 232.816 1384.18 230.023 1380 237L1372 237L1373 233L1369 232C1374.17 225.646 1368 219.218 1372.73 212.004C1375.25 208.148 1379.5 206.291 1382.31 202.791C1388.64 194.93 1391.44 185.917 1395.55 177C1398.5 170.599 1403.05 165.233 1404.09 158C1405.05 151.332 1401.34 146.02 1401.45 139.961C1401.53 135.438 1406.12 130.679 1405.14 126.259C1403.52 118.913 1394.67 113.943 1388.42 118.703C1380.85 124.473 1377.74 132.993 1371.83 140C1365.9 147.022 1356.29 153.113 1352 161L1348 159L1346 166L1344 159C1338.47 160.014 1336.41 162.461 1338 168L1334 168L1334 164C1329.85 165.146 1328.49 166.72 1328 171L1322 175L1320 165C1313.9 164.293 1316.65 157.414 1317 153L1312 156L1310 149C1303.25 149.94 1300.88 152.21 1300 159L1298 159L1297 155C1291.53 158.574 1287.33 161.745 1285 168L1280 170L1276 169C1272.17 176.634 1266.89 176.262 1259 175L1258 178L1256 178L1252 165L1251 165L1251 176C1245.3 169.887 1246.84 163.597 1242.98 157.193C1238.33 149.5 1232.51 158.188 1231 163L1229 163L1223 152C1216.58 155.182 1217.89 165.225 1209 161L1206 181L1202 179L1195 183L1194 190C1187.93 188.981 1176.59 182.931 1177 194C1167.93 195.979 1168.53 200.291 1171 208C1161.94 209.789 1160.16 215.209 1154 221L1151 210L1147 212L1146 209L1144 209L1128 231L1138 204C1131.56 204.298 1125.69 206.541 1121 211L1119 209C1106.59 221.894 1110.91 197.234 1110 193L1109 193L1092 196L1090 188L1089 188C1088.29 193.621 1089 204.759 1084 208C1086.26 201.794 1087.23 195.985 1084 190L1081 191L1078 189C1077.14 198.867 1074.7 214.927 1065 220L1071.79 204L1077.2 179L1086 157L1085 157L1065 191L1063 191L1068 166L1064 168L1062.88 151L1068 133L1067 133L1059 144L1069 121L1064 124L1063 113L1057 114L1056 114L1057 107L1049 111L1041 112L1041 108L1039 112L1036 112L1041 93C1035.26 89.3922 1039.25 82.5839 1040 77L1030 78L1017.33 92.0895L1009 109L1008 97L1006 97L1002 108L1001 108L1001 95L1000 95L992 108L997.121 93L997 79L985 96L985 89L981 89L969.966 110L966 134L965 134L966 121L961 130L955 128L952 114L944 120L944 124L942 124C942.032 120.099 941.261 106.578 936 116L935 116L932 110L931 110L924 130L921 123C914.976 124.005 914.444 131.53 911 136L912.656 118.004L910 104L903 104C903.049 97.501 903.056 94.3042 899 89L897 89L892 97L886 82L884 82L882 104L872 102C870.543 95.157 865.772 95.7322 860 97L859 94L855 95L856 117L851 115C848.269 124.325 854.41 132.184 856 141C850.15 138.191 848.532 135.821 846 130L835 138C835.856 130.087 831.419 125.203 824 123L821 129L819 129L815 124L815 142L810 139C811.842 145.244 812.584 149.886 810 156L816 164L812 165C808.538 157.348 804.313 149.51 797 145L800 144L800 143C795.601 143.146 794.083 144.127 792 148L783 141L773 146C777.255 150.345 783.678 147.968 787.49 153.444C790.637 157.963 791.475 166.609 792.154 172C794.019 186.79 800.71 214.133 787 225C785.851 219.976 785.414 212.856 780 211C780.508 216.236 773.052 233.498 769 236C769 230.903 770.449 224.978 769.732 220.019C769.164 216.085 766.235 214.642 764 218L760 217L759 220L756 220L754 215C749.632 217.755 734.837 232.254 738 217C731.838 218.83 732.403 223.526 732 229L731 229L728 225L727 228L726 228C727.378 216.333 720.942 210.283 715 201L714 201L713 204L716 205L716 206L706 208L707 203L692 193L690 208L696 212L695 215C691.665 214.426 690.029 214.593 689 218L685 217C686.786 222.609 690.678 226.07 688 232L685 226L680 229L680 225C658.554 218.929 681.225 200.923 680.781 189C680.38 178.244 682.295 168.081 681.919 157.089C681.704 150.798 678.891 145.327 679.015 139C679.349 122.098 683.823 108.747 672.922 94.5857C669.371 89.9725 669.279 83.0709 664 80L663 87C656.37 73.8646 656.12 59.524 656 45L648 54L647 54L643 46L642 52L640 52C639.997 46.7693 640.534 42.1171 635 40M897 87L898 88L897 87z"/>
<path style="fill:#fefefe; stroke:none;" d="M662 88L663 89L662 88M983 96L984 97L983 96M983 98L982 100L983 98z"/>
<path style="fill:#030303; stroke:none;" d="M1066 111L1067 112L1066 111M918 113L918 116L919 116L918 113z"/>
<path style="fill:#fefefe; stroke:none;" d="M856 118L856 124L857 124L856 118M964.333 134.667L964.667 135.333L964.333 134.667M911 141L909 144L911 141z"/>
<path style="fill:#030303; stroke:none;" d="M771.333 142.667L771.667 143.333L771.333 142.667z"/>
<path style="fill:#fefefe; stroke:none;" d="M1057 146L1056 149L1057 146M816 149L816 150L819 150L816 149M1055 152L1050 164C1053.88 161.743 1055.93 156.401 1055 152M1298 160L1299 161L1298 160M564 185L565 188L566 188L564 185z"/>
<path style="fill:#030303; stroke:none;" d="M1083 186L1083 188L1085 188L1083 186z"/>
<path style="fill:#fefefe; stroke:none;" d="M1080 192L1080 196L1083 192L1080 192M510 193L511 194L510 193M548 194L549 195L548 194M553.333 197.667L553.667 198.333L553.333 197.667z"/>
<path style="fill:#030303; stroke:none;" d="M688 211L689 212L688 211z"/>
<path style="fill:#fefefe; stroke:none;" d="M696 214L694 217L697 218L696 214M489 229L492 234L489 229z"/>
<path style="fill:#030303; stroke:none;" d="M1415 235L1416 236L1415 235z"/>
<path style="fill:#fefefe; stroke:none;" d="M451.333 252.667L451.667 253.333L451.333 252.667M458 253L459 254L458 253M454 256L455 257L454 256M379 266L380 270L381 270L381 266L379 266M784 266L783 268L785 268L784 266M1411 267L1412 268L1411 267M781 269L781 272L783 272L783 269L781 269M468 271L473 276L468 271z"/>
<path style="fill:#030303; stroke:none;" d="M362 275L362 276L365 276L362 275M338 325L338 328L340 328L340 325L338 325z"/>
<path style="fill:#fefefe; stroke:none;" d="M344 345L347 348L346 345L344 345M1485.33 354.667L1485.67 355.333L1485.33 354.667M1474 363L1474 364L1485 362L1474 363M1534 369L1534 371L1536 369L1534 369M338 427L339 428L338 427M384.667 441.333L385.333 441.667L384.667 441.333M380 449L380 452L382 452L382 449L380 449M422.667 455.333L423.333 455.667L422.667 455.333M425 457C426.107 460.907 428.093 462.893 432 464L425 457M360 493L359 496L362 496L360 493M363 520L377 517C373.033 512.461 365.699 515.624 363 520M342 538L342 540L344 540L342 538M366.667 539.333L367.333 539.667L366.667 539.333M341 563L342 564L341 563M1461 595L1462 596L1461 595M344 613L345 614L344 613M1436.67 615.333L1437.33 615.667L1436.67 615.333M348 617L350 619L350 617L348 617M1470 649L1471 650L1470 649M1462 661L1461 662L1461 663L1461 664L1464 661L1462 661M319 715L319 716L323 716L319 715M1399 723L1400 724L1399 723M1424 751L1425 752L1424 751M1426 755L1427 759L1428 759L1426 755M1435 755L1436 756L1435 755M286 762L289 764L286 762M1426.67 795.333L1427.33 795.667L1426.67 795.333z"/>
<path style="fill:#030303; stroke:none;" d="M1448 799L1448 800L1451 800L1448 799M1452 799L1453 800L1452 799z"/>
<path style="fill:#fefefe; stroke:none;" d="M1433 805L1433 807L1435 807L1433 805M328 819L328 821L330 819L328 819M1427 821L1428 822L1427 821M698 853L707 834L706 833C698.478 836.932 696.002 845.364 698 853M1398 847L1399 848L1398 847M712.333 866.667L712.667 867.333L712.333 866.667M710 868C702.464 873.441 703.748 875.634 705 884C712.359 881.611 713.62 874.118 710 868M1297 881L1298 882L1297 881M1272.33 882.667L1272.67 883.333L1272.33 882.667M702 883L703 884L702 883M1328 883L1329 888L1330 888L1328 883z"/>
<path style="fill:#030303; stroke:none;" d="M346 885L347 886L346 885z"/>
<path style="fill:#fefefe; stroke:none;" d="M583 891L584 892L583 891M368 899L369 900L368 899M387 899L388 900L387 899z"/>
<path style="fill:#030303; stroke:none;" d="M1380 899L1381 900L1380 899M1258 900L1259 901L1258 900M1368 903L1369 904L1368 903z"/>
<path style="fill:#fefefe; stroke:none;" d="M532 907L533 908L532 907M804 907L805 908L804 907M806 909L806 914L809 913L806 909M1063 931L1064 932L1063 931z"/>
<path style="fill:#030303; stroke:none;" d="M1148 941L1148 947L1149 947L1150 941L1148 941z"/>
<path style="fill:#fefefe; stroke:none;" d="M951 957L951 964L954 957L951 957z"/>
<path style="fill:#030303; stroke:none;" d="M1133 958L1133 959L1138 961C1137.14 957.919 1136.09 957.478 1133 958z"/>
<path style="fill:#fefefe; stroke:none;" d="M1098 959L1099 960L1098 959M992 967L993 968L992 967M452.333 970.667L452.667 971.333L452.333 970.667M837 980L840 980L839 978L837 980M842 979L843 980L842 979M840 987L841 988L840 987M769.667 991.333L770.333 991.667L769.667 991.333M900 1003L901 1004L900 1003z"/>
<path style="fill:#030303; stroke:none;" d="M826 1005L826 1010L827 1010L828 1005L826 1005z"/>
<path style="fill:#fefefe; stroke:none;" d="M847 1018L846 1020L848 1020L847 1018M842 1024L846 1021L842 1024z"/>
</svg>
