<?xml version="1.0" standalone="yes"?>
<svg xmlns="http://www.w3.org/2000/svg" width="1920" height="1080">
<path style="fill:#fdfdfd; stroke:none;" d="M0 0L0 1080L708 1080L707 1065L696 1070C696.91 1064.54 702.914 1059.91 699 1056L701 1056L701 1055L692 1056L694 1051L688 1056L684 1056L687 1040L680 1033C679.666 1043.28 669.893 1042.21 666 1050L664 1050L664 1042C649.538 1041.83 659.195 1027.6 664.414 1021.02C668.72 1015.59 674.554 1014.94 679.999 1011.39C684.864 1008.22 687.542 1003.21 692.018 999.684C697.821 995.116 705.047 992.543 711 988L711 987L718 975C695.059 965.466 673.73 986.678 660 1004L659 1004L656 1002L645 1020L618 1030C624.505 1020.96 641.083 1016.16 642 1004C637.396 1006.66 635.449 1008.27 630 1007C633.596 1003.08 639.185 999.64 641.436 994.714C643.091 991.093 641.593 986.648 643.917 983.299C650.847 973.306 667.244 962.403 668.306 949C668.661 944.528 664.495 938.276 663 934L662 934L662 940L661 940L660 935L650 938L651.292 928.379L644.854 921.815L641 911L640 911L640 918L639 918L630.018 898.001L625.752 891.346L617 900L620 891L614 889L608 892C611.752 881.445 602.826 881.374 595 878L596 891L596 892L594 897L598 915L593 915L589 935L588 935L588 925L587 925L586 938L585 938L583 935L584 954L581 957L566 940C565.197 944.94 568.355 946.906 570.377 951.089C574.972 960.601 579.772 978.445 568 984L563 975C553.929 983.375 561.843 993.132 561 1003L559 1003L558 997L556 997L556 1001L554 1001L550 991L546 990L547 996L544 993L534 993L529 981L527 980L524 980L523 983L519 976L518 976L515 985L511 981L509 990L503 986L502 990L499 995L496 993L492 1000C492.903 995.004 494.624 976.205 489 975C490.873 982.866 489.151 989.528 483 995L485.764 1014L493 1035L488 1033L484 1048C480.487 1046.74 473.103 1046.28 470.447 1044.09C464.918 1039.53 472.523 1031.79 460 1034C459.522 1027.99 456.199 1028.02 451 1028L449 1036L448 1036L439 1029L438 1034L432 1036L431 1036L428.336 1022L432 1009L427 1009L424 1013L423 1005L415 1008L415 1003C410.805 1004.74 408.217 1012.35 404.019 1012.54C395.143 1012.93 404.037 994.402 407 992L407 991C402.837 990.19 390.436 995.682 388.033 991.896C386.629 989.683 390.692 987.023 392.015 985.88C397.396 981.235 400.358 978.35 401 971L377 984C380.211 979.271 382.339 973.702 381 968L378 970L380 955L369 968L365 965L366 962L348 962L349 958L335 960L335 959C342.744 955.727 350.077 948.395 354 941L344 944L355 926L354 925L347 928L352 919L348 924C342.179 919.818 339.061 921.824 334 926L341 913L342 916L343 916L351 893C347.96 894.662 346.404 897.288 343.816 899.542C342.584 900.614 329.634 908.745 330.782 902.542C331.327 899.599 335.592 897.858 337.343 895.675C339.765 892.656 340.684 884.708 340 881L339 881L338 884L336 884L337 878C331.556 881.541 332.375 886.229 331 892L327 883L313 881C310.136 884.906 306.15 887.824 303.613 892.004C300.069 897.842 299.348 905.875 292 908L295 901L291 901L292 897L289 896L290.921 882.054L300 868C295.994 871.257 290.924 880.351 286 874C294.228 871.377 296.993 867.442 297 859L296 859L296 863L287 859L279 860L279 855L288.04 848.032L304 843L302 838L309 836C306.197 831.683 300.494 833.205 296 834L297 831L286 833L291 828L289 821L292 820L292 819L273 824C275.774 822.002 292.449 813.778 281.566 808.388C278.397 806.818 271.931 808.869 268 808L268 807C270.545 806.594 281.72 800.656 275.512 797.689C263.265 791.834 243.99 796.127 235 785L234 788L228 784L227 778L231 776L235 780L231 776C233.456 773.891 238.457 771.055 235 768C236.958 764.228 237.345 762.619 235 759L241 753L244 756L241 747L236 748C238.813 745.365 241.259 745.163 244 748L245 748L247 735L246 733C241.696 733.335 236.651 735.988 232.514 735.559C228.108 735.102 213.489 731.294 212.77 725.929C212.188 721.587 221.742 717.294 225 716L223 710L224 709L228 710L230 699L235 700L237 696L226 692C235.801 676.985 252.884 693.791 263 702L288 708C285.912 704.021 283.342 702.953 279 704C270.06 684.991 242.372 680.543 228 667L242 672L240 669C254.145 668.019 269.067 678.78 282.849 673.036C286.038 671.706 285.927 667.8 288.147 665.474C295.84 657.414 308.71 650.311 292 642L293 637L310 643L311 642L303 627L298 625L295 627L292 619L303 620C297.767 613.434 291.711 609.21 284 606L288 599L286 604L304 600L304 604L305 604L310 600L307 593C310.187 593.477 312.931 594.612 316 595.521C318.49 596.258 329.196 595.516 326.593 590.509C324.518 586.518 305.08 580.118 321 576C316.914 569.125 306.104 567.2 308 558L302 556L304 551L296 555L292 552L291 549L287 550L291 544L291 543L281 535L289 534C288.621 524.967 277.819 518.493 273.653 510.996C271.016 506.252 272.236 500.193 271 495L272 494L284 505L290.312 498.422L302 508L298 499L301 500L299 491L304 494L306 492C309.813 492.819 312.584 493.023 314 489L309 488L308 491L304 488L304 487C316.165 474.773 331.855 474.106 347 466L347 465L338 464L345 458L348 460L352 449C357.263 449.669 359.794 446.859 363 443L355 436L355 434L369 428L369 426L356.332 417.882L353.169 424.982L340.83 435.701L312 449.134L296.015 454.977L283 448L283 447L287 446L282 438L282 443L281 443L282 427L289 428C288.243 424.465 285.582 425.523 283.5 422.889C279.148 417.382 282.182 406.647 288 404C287.509 399.706 277.111 379.857 290 384L288 380L288 379L288 378L289 371L285 370L285 369L302 357L302 355L297 354L298 349L294 351C297.103 345.694 301.49 334.286 308 334C308 330.281 313.081 324.239 304 324L309 319L307 322L313 324L321 313L322 313L324 315C324.069 309.078 324.936 307.005 331 308L332 301L336 300L332 292L343 292L337 267L336 267L334 270L335 268L334 268L330 268C332.296 264.014 332.106 262.043 330 258L344 264C341.796 259.616 337.786 254.137 334.375 250.635C330.68 246.842 325.425 247.613 325 241L320 233L328 232L325 225L346 228L340 217L356 220L357 216L360 217L366 204L364 198L369 196L370 196L374 198L372 194L381 197L382 191L408 204L409 201L410 201L414 204L414 190L425 196L432 217L435 215L448 226L448 224L452 230L454 227L460 232L454 219C460.308 221.152 466.488 233.392 470 221L466 217L462 207L476 210L477 189L478 189L478 195L479 195L481 184L480 184L479 186L478 183C488.747 181.224 479.904 171.406 480 165L479 165L476 168C476.843 160.871 476.698 156.495 483 152L482 150L482 149L486 150L487 147L491 150L492 144L488 146L486 137L491 143L492 143C493.636 139.997 497.14 127.598 501.857 129.207C504.472 130.099 504.785 134.358 507 136L510 119L516 120C517.253 116.586 519.907 112.402 523 116L526 105L527 104L529 104L539 134C546.331 134.326 555.086 148.164 556 155L557 155L557 141L558 141L560 144L559 140L563 145L564 145L568 125L569 125C567.93 130.856 568.221 135.149 574 138L576 131L579 132L584 121L590 126L587 132L593 129L597 133L593.809 121.996L589 95L590 95L591 97C595.212 95.4533 598.144 102.657 601 105C604.995 88.2196 599.962 70.996 604.549 54.0393C609.697 35.0117 625.962 19.9191 628 0L0 0z"/>
<path style="fill:#040404; stroke:none;" d="M628 0L604.549 53.0895L601 105C597.347 101.347 594.608 92.3925 590 97L590 95L589 95L597 133L593 129L592 132L587 132L590 126L589 123C586.419 123.408 584 124.191 584 121L579 132L576 131L574 138C568.979 134.258 568.298 130.987 569 125L568 125C564.495 131.937 562.586 137.335 564 145L563 145L559 140L560 144L558 141L557 141L557 155L556 155C555.541 148.171 546.668 132.868 539 134L529 104L527 104L526 105L523 116L522 113L516 120L510 119L507 136C505.124 133.993 504.986 130.193 502.686 128.737C497.379 125.377 493.286 139.731 492 143L491 143L486 137L488 146L492 144L491 150L487 147L486 150L482 149L483 152C475.774 155.41 476.411 160.951 476 168L479 165L480 165C479.089 171.957 488.23 179.931 478 183C478.579 184.91 478.985 186.334 480 184L481 184L479 195L478 195L478 189L477 189L476 210L462 207C463.188 210.925 461.252 216.029 466 217L470 221C464.929 231.98 461.268 220.472 454 219L460 232L454 227L454 230L452 230L448 224L448 226L435 215L432 217L425 196L414 190L414 204L410 201L409 201L408 204C397.514 199.356 394.534 191.423 382 191L381 197L372 194L374 198L370 196L369 196L364 198L366 204L360 217L357 216L356 220L340 217L346 228L325 225L328 232L320 233C320.403 236.993 320.942 239.648 325 241C324.998 248.026 330.207 247.075 334.155 251.144C337.611 254.705 341.019 259.891 344 264L330 258L330 268L335 268L334 270L335 270L336 267L337 267L343 292L332 292L336 300L332 301L331 308C324.532 306.316 324.021 309.023 324 315L322 313L321 313L313 324L307 322L309 319C305.408 319.169 304.568 320.511 304 324C311.926 325.429 307.9 329.844 308 334C301.619 333.072 296.16 345.597 294 351L298 349L297 354L302 355L302 357C294.745 359.53 289.757 363.084 285 369L285 370L289 371L288 378L288 379L288 380L290 384L288 382L287 382C280.09 388.392 284.926 396.85 288 404C274.507 408.96 285.115 421.871 289 428L282 427L281 443L282 443L282 438L287 446L283 447L283 448L296.59 455.347L312.961 449.159L348.988 429.961L356.407 418.542L369 426L369 428L355 434L355 436L363 443L352 449L348 460L345 458L338 464L347 465L347 466C332.576 471.604 313.09 474.238 304 487L304 488L308 491L309 488L314 489L304 494L299 491L301 500L298 499L302 508C299.098 505.506 294.784 495.052 289.584 498.133C287.35 499.456 286.161 503.209 284 505L272 494L271 495L273.653 511.985L289 534L281 535L291 543L291 544L287 550L291 549L292 552L296 555L304 551L302 556L308 558C305.419 566.908 315.92 570.181 321 576C302.801 578.406 326.515 589.044 326.515 591.59C326.516 599.655 310.272 593.287 307 593L310 600L305 604L304 604L304 600L302 602C295.503 600.181 291.3 599.212 286 604L288 599L285 600L284 606L303 620L292 619L295 627L298 625C298.683 628.123 300.087 627.5 303 627L311 642L310 643L293 637L292 642C294.788 644.07 300.256 647.82 300.687 651.586C301.405 657.868 290.683 661.767 287.313 665.474C285.367 667.615 285.571 671.124 282.813 672.517C280.513 673.679 276.56 674.041 274 674.262C262.308 675.274 252.05 666.606 240 669L242 672L228 667C240.947 683.955 265.851 685.49 279 704C283.273 703.457 285.351 704.668 288 708C284.831 708.253 281.036 709.112 278 707.905C273.287 706.032 268.151 699.412 263 702C255.246 693.067 233.64 676.221 226 692L237 696L235 700L230 699L228 710L224 709L223 710L225 716C217.392 718.022 205.631 726.385 218.001 731.606C228.022 735.836 235.661 734.794 246 733L247 735L245 748L244 748C241.691 744.696 238.175 744.553 236 748L241 747L244 756L241 753L235 759L235 768C237.01 771.459 233.204 773.354 231 776L235 780L231 776L227 778L228 784L234 788L234 785L235 785C241.928 797.452 264.107 791.736 275.437 798.107C280.649 801.038 270.101 806.45 268 807L268 808C271.762 809.293 293.644 808.778 281.566 819.397C278.962 821.688 275.558 821.385 273 824C281.426 824.361 284.636 823.19 292 819L292 820L289 821L291 828C287.649 828.728 286.588 829.597 286 833L297 831L296 834C300.816 833.558 305.342 832.359 309 836L302 838L304 843L298 847L289 846L279 855L279 860L287 859C289.328 863.048 291.593 862.974 296 863L296 859L297 859C296.971 867.292 293.396 870.688 286 874C290.293 881.315 296.768 871.722 300 868L290.92 881.129L289 896L292 897L291 901L295 901L292 908C299.901 906.744 300.413 897.767 304.249 892.004C306.913 888.003 310.895 885.327 313 881L327 883L331 892L337 878L336 884L338 884L339 881L340 881C340.061 884.736 339.496 891.756 337.304 894.816C335.477 897.365 330.405 899.363 330.346 902.888C330.286 906.431 335.118 905.238 337 904.441C343.026 901.891 346.192 896.966 351 893L343 916L342 916L341 913L334 926C339.772 922.778 341.579 920.491 348 924L352 919L347 928L354 925L355 926L344 944L354 941L335 959L335 960C340.595 962.03 343.744 959.997 349 958L348 962L366 962L365 965L368 964L369 968C375.849 966.352 376.788 960.529 380 955L378 970L381 968L377 984L401 971C399.799 979.126 395.655 981.354 390.113 986.733C388.769 988.038 386.257 990.344 387.832 992.386C390.72 996.131 402.564 990.539 407 991L407 992C402.715 994.299 395.152 1011.5 403.133 1013.12C407.454 1014 411.54 1005.14 415 1003L415 1008L423 1005L424 1013L427 1009L432 1009L428.153 1022L431 1036L432 1036L438 1034L439 1029L448 1036L449 1036L451 1028C455.975 1028.44 459.094 1028.34 460 1034C471.964 1032.78 464.732 1039.18 469.657 1044.22C471.837 1046.45 480.728 1047.18 484 1048L488 1033L493 1035C494.451 1027.49 488.462 1019.75 485.764 1013C483.484 1007.3 483.926 1000.99 483 995C489.922 990.923 491.124 982.186 489 975C494.707 978.887 492.52 993.728 492 1000L496 993L499 995L502 990L503 986L509 990L511 981L515 985L518 976L519 976L523 983L524 980L527 980L527 982L529 981L534 993L544 993L547 996L546 990L550 991L554 1001L556 1001L556 997L558 997L559 1003L561 1003C563.004 992.271 555.075 985.387 563 975L568 984C587.837 978.366 565.99 950.199 566 940L581 957L584 954L583 935L585 938L586 938L587 925L588 925L588 935L589 935C595.919 927.916 591.354 923.557 593 915L598 915L594 897C596.357 895.448 597.344 894.597 596 892L596 891L595 878C602.325 882.603 610.595 881.208 608 892C611.332 892.638 612.842 892.294 614 889L620 891L617 900L625.486 891.77L629.615 898.001L639 918L640 918L640 911L641 911L650.764 928.379L650 938L660 935L661 940L662 940L662 934L663 934C664.15 938.388 668.243 944.625 667.799 949C666.521 961.598 651.213 973.488 643.881 982.545C641.027 986.07 643.147 990.912 640.987 994.714C638.272 999.494 633.003 1002.42 630 1007C635.525 1008.95 637.659 1007.62 642 1004C640.068 1016.51 623.065 1019.36 618 1030L645 1020L656 1002L659 1004L660 1004C672.444 992.834 680.093 982.204 695.996 975.677C698.8 974.526 702.037 971.333 705.089 971.282C708.91 971.219 714.222 973.949 718 975C715.514 978.663 708.828 982.413 711 987L711 988C699.044 994.632 690.777 1003.06 679.999 1010.7C674.86 1014.33 668.592 1014.93 664.414 1020.04C658.653 1027.1 648.991 1041.95 664 1042L664 1050L666 1050C671.377 1042.87 679.878 1043.36 680 1033L687 1040C681.471 1045.41 684.049 1049.13 684 1056L688 1056L694 1051L692 1056L701 1055L701 1056L699 1057L696 1070L707 1065L708 1080L741 1080C741.53 1073.05 746.1 1073.1 752 1072L755 1041L764 1050L769 1047C771.507 1050.81 773.938 1050.39 778 1049L771 1069L781 1059L782 1065L789 1049L796 1068L788 1066C788.447 1069.67 791.129 1078.78 795 1073L793 1080L806 1077C806.729 1080.4 808.806 1079.99 812 1080L813 1055L815 1080L820 1074L821 1074L821 1080C824.692 1079.88 826.777 1079.69 828 1076C832.855 1080.11 852.883 1083.9 858.03 1078.4C862.201 1073.95 861.017 1067.86 866 1064L862 1080L865 1077L866 1077L868 1079L870 1066L874 1066L875.757 1054.45L883.726 1052.17L891.157 1043.58L892.467 1034.21L898 1026L899 1026L900 1038L902 1035C913.834 1038.75 906.813 1046.52 903 1054C924.415 1057.37 907.153 1024.91 921 1023L918 1028L921 1025L928 1026L925 1019C932.729 1019.75 929.537 1026.63 932 1032L935 1029L936 1029L943 1040C936.456 1043.61 936.583 1055.29 943 1059L947.88 1037L944 1019L948 1024C958.663 1024.64 958.42 1028.27 961 1037L963 1037L966 1033L968 1040C968.001 1032.95 967.907 1021.14 973 1016L976 1023L977 1023L975 1010L979 1010C980.173 1003.8 981.335 1000.3 987 997L985 1009L985 1011L996 1016L994 1011C1008.16 1018.62 993.382 1037.43 992 1048L997 1046C998.402 1053.87 998.938 1061.94 1004.64 1068.55C1008.8 1073.37 1011.58 1066.73 1010 1063C1015.28 1062.17 1016.67 1059.62 1014 1055L1022 1051L1027 1056C1027.75 1051.95 1026.64 1049.91 1023 1048C1038.78 1028.56 1041.23 1062.18 1045 1072L1038 1074L1038 1076L1048 1080C1048.35 1071.87 1051.26 1062.1 1049.12 1054.09C1046.8 1045.4 1036.93 1040.21 1041 1030L1053.38 1050L1055.94 1061.9L1062 1066L1066 1061L1067 1072L1082 1068L1083 1080C1091.2 1077.19 1085.74 1067.04 1085 1061L1094 1064L1090 1065L1094 1080L1096 1080L1098 1069C1101.64 1071.99 1102.73 1077.29 1108 1075L1110 1080C1109.21 1057.93 1082.08 1053.44 1082 1031L1078 1036C1074.86 1032.24 1077.37 1030.18 1081 1028L1078 1024L1078 1023L1117 989C1120.25 996.33 1121.49 1008.04 1129 1012L1128 1005L1132 1008C1137.46 1004.99 1134.59 1001.74 1133.54 996.911C1131.58 987.96 1127.81 978.306 1130 969C1135.92 973.844 1148.24 982.413 1150 990L1154 998C1157.16 994.802 1156.33 992.586 1154 989C1160.53 992.589 1156.38 998.18 1156 1004L1159 1003L1164 1007C1159.97 1013.25 1165.71 1016.17 1171 1019L1166.28 1002L1166 985L1168 985L1169 991C1176.35 988.092 1177.44 989.292 1184 993L1182 980L1182 979L1187 973L1197 1002L1203 1004L1213 1010L1212 987L1213 987L1212 996L1216 993L1217 993C1218.12 1000.59 1224.85 1020.15 1232 1023L1234 1044L1235 1044L1236 1024L1241 1032L1239 1009L1249 1015L1257.49 998.127L1251 977C1253.35 982.102 1254.93 983.067 1260 985L1260 986L1258 988C1263.14 987.829 1267 985.376 1264 980L1265 985L1262 978L1257 980L1257 977L1265 978L1268 975C1268.95 980.585 1270.71 985.409 1276 988L1273 968L1273 967C1269.6 965.103 1265.32 964.339 1262.78 961.177C1259.61 957.236 1255.55 948.497 1264 951L1266 948L1266 947L1261 936L1269.66 948L1271.08 960.935L1279 969L1279 970L1282 968L1286 970L1284 961L1281 963L1280 963L1277 957C1284.98 958.068 1284.32 953.54 1289 949L1288 962L1293 969L1294 969L1296 961L1297 961L1306 978C1312.34 964.822 1299.54 950.909 1306 939L1300 940L1295 932L1295 931L1301 932L1302 930L1302 929L1298 923C1305.12 927.073 1312.94 931.773 1312 941L1319 950L1325 965C1330.52 964.189 1333.43 961.793 1333 956L1334 956L1337 968L1338 968L1344 955L1351 958L1350 956L1354 960L1365.83 951.487L1384 954L1382 941C1385.87 945.623 1389.86 951.702 1396 953L1396 944L1404 948L1400 919L1407 918C1405.85 909.054 1417.88 910.34 1424 907L1427 910C1430.19 907.073 1432.17 908.407 1434 912C1447.22 909.892 1435.88 896.373 1433 891L1438 892L1448 885L1449 885L1452 888L1454 878C1458.32 877.43 1459.67 875.23 1460 871C1469.41 874.135 1466.18 863.548 1463 861C1468.69 860.364 1476.23 862.246 1480 857L1477 858L1491.3 843.557L1504 824L1499 811L1504 808L1508 812L1505 808L1505 807L1510 803C1506.88 800.588 1504.06 797.817 1509 796C1507.64 786.633 1498.64 786.712 1491 785.9C1479.42 784.669 1453.75 779.819 1448 794L1438 784L1452 780C1451.56 777.452 1449.86 772.831 1451.73 770.603C1457.19 764.086 1467.52 772.25 1469 759C1477.95 760.107 1491.13 761.96 1499.96 760.62C1506.59 759.612 1508.04 753.468 1501 752L1502 749L1507 750L1498 740L1498 739L1505 738L1503 733L1500 734L1501 731C1499.6 730.63 1491.81 727.404 1496.37 725.468C1499.18 724.277 1502.22 727.073 1505 727.076C1509.79 727.08 1519.17 723.359 1521 719L1524 720C1528.05 713.745 1541.43 716.5 1548 716L1548 715C1543.61 712.584 1541.27 709.608 1536 711L1529.7 702.228L1520 697L1531 696L1524 693L1523 692C1526.09 678.504 1509.31 682.386 1518 669L1519 669L1538.7 676.304L1551.05 694.49L1566.29 703.831L1575.9 708.745L1589 697L1587 693C1592.22 682.579 1587.42 677.612 1583.23 668C1576.38 652.299 1571.64 623.345 1552 618L1554.1 609.914L1541 595L1546 596L1545 583L1551 579C1547.57 579 1546.16 571.505 1549.17 569.5C1553.69 566.484 1560.75 570.488 1566 568C1569.25 573.177 1575.16 575.137 1581 576L1582.72 549.996L1578.61 539.424L1579.21 527.93L1566.31 520.301L1556 504L1556 503C1559.43 499.964 1559.71 497.418 1559 493C1552.74 494.606 1551.67 489.445 1558 490L1557 485L1574 479L1575 482L1592 484C1588.52 470.902 1596.6 476.983 1603.45 469.711C1607.03 465.909 1607.96 460.177 1611 456L1611 455C1603.2 447.921 1605.24 442.279 1613 436L1610 433L1610 437L1609 437L1614 417L1592 416L1596 409C1586.58 410.309 1570.72 397.144 1579 388L1577 370L1573 372L1574 359L1571 360L1571 355L1573 356L1573 355L1570 355L1569 352L1567 353L1569 342L1566 339L1565 342C1553.04 335.789 1578.95 329.387 1583 327C1583.06 329.993 1582.95 331.346 1586 332L1583 324L1583 323L1585 321L1596 317L1596 313C1601.13 312.591 1605.56 311.923 1608 307L1600 308L1600 307C1606.76 306.152 1615.56 300.951 1619 295C1625.26 293.926 1630.89 287.134 1632 281C1627.73 278.991 1625.76 277.24 1621 279L1625 276L1625 275L1622 275L1623 263L1618 261L1615 264L1615 256L1614 256L1612 260L1611 260L1610 257L1612 253C1607.64 253.002 1606.78 250.991 1608 247L1593 252L1592 249L1591 249L1584 252L1584 251L1590 245C1594.21 244.95 1598.08 244.955 1598 240L1591 241C1588.1 235.786 1584.67 239.305 1580 240C1577.1 231.215 1568.29 236.725 1562 238.116C1551.18 240.507 1540.04 240.809 1529 242.05C1523.53 242.666 1518.53 244.744 1513 244L1510 246C1509.2 242.225 1504.57 241.534 1501 240.889C1492.46 239.348 1479.04 246.434 1472 242L1471 242L1463 243L1466 231L1449 236C1456.96 219.474 1437.76 227.651 1430 233C1431.37 224.111 1426.97 227.55 1421.09 227.427C1417.48 227.352 1416.45 224.853 1413 227C1410.31 222.873 1407.19 225.211 1403 225.174C1395.4 225.107 1381.28 225.467 1379 234L1373 217L1377 216L1377 215L1377 214L1375 214L1375 213L1375 212C1380.82 208.472 1389.13 201.641 1391 195L1394 196C1395.18 192.261 1404.43 181.194 1399 180L1399 179L1403 178L1402 175C1413.01 168.822 1415.75 158.069 1418 147C1415.62 143.132 1418.13 136.137 1419.71 132C1421.9 126.286 1426.9 123.001 1430.12 118C1437.89 105.936 1438.83 80.5886 1418 88L1417 85C1408.88 89.4692 1403.57 96.1954 1396.58 102.073C1382.63 113.787 1374.61 120.948 1367 138L1366 138L1362 133L1358 152L1355 145C1350.51 145.459 1344.99 149.458 1342 145L1338 150L1337 150L1332 150L1330 121L1314 129L1313 129L1300 129L1300 133C1296.67 132.644 1294.97 132.596 1294 136L1291 134C1287.75 142.918 1289 150.376 1277 151L1274 156L1273 151L1257 156L1254 137C1251.65 137.63 1248.53 139.897 1246.09 138.829C1241.69 136.895 1242.17 130.478 1237.02 129.074C1226.84 126.3 1223.61 132.798 1215 136L1210 132L1209 137L1196 133L1195 133L1193 135L1198 152L1194 149C1192.75 159.541 1193.12 160.706 1185 167L1182 165L1176 172L1169 169L1162 178L1155 165L1155 170C1150.93 164.838 1152.53 162.715 1154 157L1148 159L1145 166L1141 161L1139.43 173.996L1133 186L1132 186C1132.19 179.998 1131.74 176.51 1125 176L1131 154L1130 154L1116 172L1120 161L1114 160L1120 148L1119 148L1117 153L1116 153C1113.56 144.902 1118.67 131.118 1121 123L1115 124L1113 119L1122 118L1122 115L1125 116C1131.7 102.518 1142.13 93.4661 1142 77L1116 96C1121.28 86.0699 1116.3 80.0093 1116.7 70C1116.91 64.7783 1120.46 60.0628 1121.42 55C1122.37 49.9635 1120.11 44.1403 1120 39L1116 41L1117 36L1112 40L1111 40L1111 35L1108 35L1108 44L1106 44L1105 29L1102 31L1101 31L1099 29L1099 31L1094 17L1093 17L1086 25L1086 17L1085 17L1084 24L1081 23C1077.35 26.767 1074.63 26.6472 1072 22L1071 22L1072 25L1065 29L1065 17L1061 18C1061.53 22.3903 1060.95 25.6476 1057 28L1053 0L1050 0L1049 14L1048 14L1047 7L1044 7L1037 24L1037 0L1003 0C1003.05 10.0746 1004.83 32.2738 995 37C998.201 29.842 1000.53 21.8652 999 14L997 14C994.239 21.3732 994.906 27.8688 988 33L989 15L983 17L983 27L979 24L976 31L976 32L979 36L975 36L975 32L966 39L958 54L956 54L952 49L948 55L944 37C938.362 38.7401 937.095 44.6884 936 50L932 41L920 52C919.692 48.0282 918.674 46.5581 915 45L916 37C911.647 38.0609 906.138 42.816 904 37L892 36L888 34L884 32L885 19L881 17C878.867 27.4867 880.251 38.063 884 48L878 47C876.86 38.0342 873.882 32.199 864 34L859 27L857 27L850 36L842 27L841 33L833 32C833.843 33.9852 839.082 48.2955 833.61 47.2175C830.991 46.7015 829.516 41.5461 827.762 39.7338C823.953 35.799 816.201 30.4865 811 29L810 33L802 29C804.726 34.9667 809.55 38.6888 802 43L803 46L797 43L796 43L793 45L792 41L788 41L791 48C784.92 47.801 783.043 44.9314 780 40L777 41L776 37L775 37L771 46L765 49L766 43L765 43C762.761 48.3771 759.78 59.8608 753 60L755 56L755 55L751 53L749 62L747 62L746 61L747 57L739 53C735.624 57.2452 731.651 63.5473 734 69L728 68L732 80L722 74L723 71L718 66L716 66C714.336 70.1528 714.689 72.23 717 76L712 80L713 74L704 73C706.018 80.0798 707.297 83.035 702 89L702 83L699 87C694.392 82.2491 693.892 77.338 694 71L690 76L686 75L688 72L688 71L681.049 44L688.446 15L686 0L628 0z"/>
<path style="fill:#fdfdfd; stroke:none;" d="M686 0L688.161 15L680.688 46L685.482 60.0648L688 71L688 72L686 75L690 76L694 71C693.741 77.1362 693.417 83.059 699 87L702 83L702 89C708.135 84.1366 706.644 79.4903 704 73L713 74L712 80L717 76L716 66L718 66L723 71L722 74L732 80L728 68L734 69L732 67L739 53L747 57L746 61L747 62L749 62L751 53L755 55L755 56L753 60C760.08 60.2748 763.33 48.7975 765 43L766 43L765 49L771 46L775 37L776 37L777 41L780 40C782.472 45.7084 784.71 47.9252 791 48L788 41L792 41L793 45L796 43L797 43L803 46L802 43C810.155 39.9067 805.489 34.1345 802 29L810 33L811 29C816.438 31.5699 823.517 36.1906 827.733 40.5409C829.576 42.4425 830.415 46.7103 833.1 47.5177C839.873 49.5541 834.175 34.1877 833 32L841 33L842 27L850 36L857 27L859 27L864 34C873.579 32.9006 876.368 38.3735 878 47L884 48C880.955 37.1901 879.772 28.2098 881 17L885 19L884 32L888 34L892 36L904 37C905.7 42.9855 912.028 38.6005 916 37L915 45L920 52L932 41L936 50C937.659 44.7416 938.825 39.6539 944 37L948 55L952 49L956 54L958 54L966 39L975 32L975 36L979 36L976 32L976 31L979 24L983 27L983 17L989 15L988 33C995.453 29.334 994.993 21.1414 997 14L999 14L995 37C1005.27 34.03 1003.16 9.17883 1003 0L686 0M1037 0L1037 24C1041.36 21.1869 1043.49 12.0647 1044 7L1047 7L1048 14L1049 14L1050 0L1037 0M1053 0L1057 28C1061.58 26.3585 1061.91 22.3468 1061 18L1065 17L1065 29L1072 25L1071 22L1072 22C1073.91 27.1917 1077.97 27.656 1081 23L1084 24L1085 17L1086 17L1086 25C1090.71 23.9941 1091.7 21.3882 1093 17L1094 17L1099 31L1099 29L1101 31L1102 31L1105 29L1106 44L1108 44L1108 35L1111 35L1111 40L1112 40L1117 36L1116 41L1120 39L1121.22 54L1116.44 69L1116 96L1142 77C1142.02 88.523 1135.89 98.2372 1130.9 107.872C1129.2 111.158 1126.12 112.262 1125 116L1122 115L1122 118L1113 119L1115 124L1121 123C1118.15 130.218 1113.15 145.772 1116 153L1117 153L1119 148L1120 148L1114 160L1120 161L1116 172C1122.14 167.399 1127.22 161.136 1130 154L1131 154L1125 176C1131.28 176.958 1132.05 180.248 1132 186L1133 186L1141 161L1145 166C1148 164.161 1148.48 162.439 1148 159L1154 157C1151.84 162.33 1150.08 165.654 1155 170L1155 165C1159.15 169.839 1154.38 176.369 1162 178L1169 169L1176 172L1182 165L1185 167C1194.16 161.985 1193.4 159.26 1194 149L1198 152L1193 135L1195 133L1196 133L1209 137L1210 132L1215 136C1223.59 133.671 1226.76 126.877 1236.57 129.294C1246.37 131.707 1241.46 142.322 1254 137L1257 156L1273 151L1274 156L1277 151C1289 150.718 1288.5 143.549 1291 134L1294 136L1300 133L1300 129L1313 129L1314 129L1330 121L1332 150L1337 150L1338 150L1342 145C1343.28 150.996 1350.98 145.49 1355 145L1358 152L1362 133L1366 138L1367 138C1370.57 132.216 1372.21 125.463 1376.38 120.001C1386.46 106.785 1403.75 94.9733 1417 85L1418 88C1437.92 83.194 1438.39 104.165 1430.12 117C1426.67 122.356 1421.49 125.752 1419.36 132C1418.07 135.813 1414.77 144.049 1418 147C1414.79 158.624 1411.88 166.622 1402 175L1403 178L1399 179L1399 180L1402 180L1394 196L1391 195L1375 212L1375 213L1375 214L1377 214L1377 215L1377 216L1373 217L1379 234C1382.12 226.209 1406.91 220.985 1413 227C1418.87 224.773 1430.38 225.603 1430 233C1438.97 228.63 1454.52 219.453 1449 236L1466 231L1463 243L1471 242L1472 242C1481.21 248.93 1501.82 233.011 1510 246L1513 244C1518.63 245.208 1523.43 242.826 1529 242.157C1539.13 240.94 1550.15 241.433 1560 238.857C1566.85 237.065 1575.7 232.192 1580 240C1584.65 239.654 1587.45 237.054 1591 241L1598 240C1596.92 244.369 1594.22 244.863 1590 245L1584 251L1584 252L1593 252L1608 247C1606.02 251.057 1607.22 253.85 1612 253L1611 260L1612 260L1614 256L1615 256L1615 264L1618 261L1623 263C1621.4 266.53 1620.35 274.004 1625 275L1625 276L1621 279L1632 281C1630.29 286.728 1624.86 293.248 1619 295C1614.47 300.432 1606.95 305.49 1600 307L1600 308L1608 307C1604.83 311.282 1601.14 312.333 1596 313L1596 317L1593 316C1590.9 319.381 1589.1 321.108 1585 321L1583 323L1583 324L1586 332L1583 327C1577.47 329.313 1569.04 330.541 1564.3 333.653C1559.89 336.553 1560.04 340.491 1565 342L1566 339L1569 342L1567 353L1569 352L1570 355L1573 355L1573 356L1571 355L1571 356L1571 360L1574 359L1573 372L1577 370L1579 388C1574.73 390.849 1577.62 394.222 1578.85 398.17C1581.42 406.435 1586.89 411.574 1596 409L1592 416L1614 417L1609 437L1610 437L1610 433L1613 436C1604.56 440.52 1602.47 449.505 1611 455L1611 456C1607.09 459.778 1606.76 465.902 1602.7 469.708C1595.96 476.021 1586.69 471.466 1592 484L1575 482L1574 479L1557 485L1558 490C1551.02 488.411 1551.86 496.082 1559 493L1556 503L1556 504L1566.31 521.053L1578.69 528.02L1578.24 539L1582.41 550L1581 576L1566 568C1560.8 569.452 1554.1 567.176 1549.35 569.477C1545.37 571.403 1547.43 578.495 1551 579L1545 583L1546 596L1541 595L1553.1 608.975L1552 618C1569.38 625.709 1573.17 645.666 1579.78 661C1584.87 672.793 1591.59 680.236 1587 693L1589 697L1575.53 708.392L1567.04 703.751L1551.05 693.722L1539.53 676.304L1519 669L1518 669C1507.26 681.09 1525.07 679.221 1523 692L1524 693L1531 696L1520 697L1529.89 702.639L1536 711L1548 715L1548 716C1542.65 716.09 1525.37 713.624 1524 720L1521 719C1518.49 722.996 1509.75 726.509 1504.91 726.442C1502.09 726.403 1499.17 723.952 1496.32 724.827C1490.46 726.627 1499.02 730.681 1501 731L1500 734L1503 733L1505 738L1498 739L1498 740L1507 750L1501 752C1507.46 754.294 1505.41 759.988 1498.99 760.475C1489.69 761.18 1478.43 759.666 1469 759C1466.02 773.828 1446.94 763.363 1452 780L1438 784L1448 794C1455.85 780.824 1477.45 784.565 1490 785.9C1497.83 786.733 1506.68 787.012 1509 796C1503.88 797.455 1506.51 801.146 1510 803L1505 807L1505 808L1508 812L1504 808L1499 811L1504 824C1496.29 828.703 1496.18 836.326 1491.3 842.71C1486.06 849.551 1479.28 848.951 1477 858L1480 857L1463 861C1465.91 865.656 1468.06 872.039 1460 871C1459.39 874.8 1457.83 877.055 1454 878L1452 888L1449 885L1448 885L1438 892L1433 891C1435.02 897.252 1446.89 908.26 1434 912C1432.09 904.212 1426.57 911.318 1424 907C1417.69 909.702 1404.77 908.863 1407 918L1400 919L1404 948L1396 944L1396 953L1382 941L1384 954C1370.72 950.716 1364.49 950.836 1354 960L1350 956L1351 958L1350 958L1344 955L1338 968L1337 968L1334 956L1333 956C1333.09 961.665 1330.01 963.257 1325 965L1319 950L1312 941C1313.6 932.194 1305.67 925.674 1298 923L1302 929L1301 932L1295 931L1295 932L1300 940L1306 939C1298.45 949.223 1310.75 964.955 1306 978L1297 961L1296 961L1294 969L1293 969L1288 962L1289 949C1283.7 952.414 1284.96 957.185 1277 957L1280 963L1281 963L1284 961L1286 970L1282 968L1279 970L1279 969L1281 968C1278.02 965.869 1273.8 964.111 1271.83 960.895C1266.4 951.995 1270.9 943.987 1261 936C1261.22 940.783 1262.23 943.932 1266 947L1266 948L1264 951C1255.39 946.995 1259.24 957.187 1262.09 961.177C1264.57 964.65 1269.28 965.391 1273 967L1273 968L1276 988C1271.29 984.575 1269.48 980.528 1268 975L1265 978L1257 977L1257 980L1262 978L1265 985L1264 980C1265.51 985.208 1263.22 987.598 1258 988L1260 986L1260 985L1251 977L1257.06 998.127L1249 1015L1239 1009L1241 1032L1236 1024L1235 1044L1234 1044L1232 1023C1224.93 1018.71 1218.86 1001.12 1217 993L1216 993L1216 996L1212 996L1213 987L1212 987L1213 1010L1203 1004C1201.29 1001.05 1200.19 1000.91 1197 1002L1187 973L1182 979L1182 980L1184 993C1178.13 988.016 1175.92 987.056 1169 991L1168 985L1166 985L1165.8 1002L1171 1019C1166.32 1015.56 1161.49 1013.33 1164 1007L1159 1003L1156 1004C1156.69 998.696 1161.15 991.366 1154 989C1155.76 992.742 1156.19 994.419 1154 998L1150 990C1149.18 983.136 1135.89 972.2 1130 969C1128.38 974.49 1129.04 984.125 1130.84 989.575C1132.82 995.565 1137.65 1003.24 1132 1008L1128 1005L1129 1012L1117 989C1103.63 998.843 1088.71 1009.95 1078 1023L1078 1024L1081 1028C1077.1 1029.58 1073.47 1032.74 1078 1036L1082 1031C1082.02 1051.35 1100.64 1053.56 1108.64 1069.09C1110.23 1072.17 1109.64 1076.6 1110 1080L1920 1080L1920 0L1053 0z"/>
<path style="fill:#040404; stroke:none;" d="M977 23L979 23L980 17C977.059 18.62 976.501 19.6858 977 23M888 23L889 24L888 23M1098.67 23.3334L1099.33 23.6666L1098.67 23.3334M832 27L833 28L832 27M850.667 27.3334L851.333 27.6666L850.667 27.3334z"/>
<path style="fill:#fdfdfd; stroke:none;" d="M1075 28L1074 34L1077 34L1075 28z"/>
<path style="fill:#040404; stroke:none;" d="M866 29L867 30L866 29z"/>
<path style="fill:#fdfdfd; stroke:none;" d="M1100 31L1101 32L1100 31M811 33L814 36L811 33M1100.33 34.6666L1100.67 35.3334L1100.33 34.6666M844 35L845 36L844 35M886 35L888 37L888 35L886 35M1032 35L1033 36L1032 35M866 37L869 40L866 37M980 37L982 39L982 37L980 37M987 37L988 38L987 37M1072 37L1075 40L1074 37L1072 37z"/>
<path style="fill:#040404; stroke:none;" d="M782 39L783 40L782 39z"/>
<path style="fill:#fdfdfd; stroke:none;" d="M984 39L987 42L984 39M900 41L904 46L905 41L904 40L900 41M993 42L992 46L993 46L993 42M1114.33 42.6666L1114.67 43.3334L1114.33 42.6666M808 43L808 46L809 46L810 43L808 43z"/>
<path style="fill:#040404; stroke:none;" d="M923 46L926 43L923 46M952 43L953 44L952 43M683 45L684 46L683 45z"/>
<path style="fill:#fdfdfd; stroke:none;" d="M774.667 45.3334L775.333 45.6666L774.667 45.3334z"/>
<path style="fill:#040404; stroke:none;" d="M682 47L683 48L682 47z"/>
<path style="fill:#fdfdfd; stroke:none;" d="M991 47L992 48L991 47M791 48L791 49L795 50L791 48M763 53L766 50L763 53z"/>
<path style="fill:#040404; stroke:none;" d="M746 55L750 51L746 55z"/>
<path style="fill:#fdfdfd; stroke:none;" d="M932 56L935 53L932 56M925 58L926 59L925 58M735 67L736 76L738 76C740.039 71.66 739.978 68.5124 735 67z"/>
<path style="fill:#040404; stroke:none;" d="M700 71L701 72L700 71z"/>
<path style="fill:#fdfdfd; stroke:none;" d="M743.333 73.6667L743.667 74.3333L743.333 73.6667z"/>
<path style="fill:#040404; stroke:none;" d="M1144 75L1144 76L1147 76L1144 75z"/>
<path style="fill:#fdfdfd; stroke:none;" d="M722 76L722 78L724 78L722 76M735 77L736 78L735 77z"/>
<path style="fill:#040404; stroke:none;" d="M1122 87L1123 89L1124 89L1125 87L1122 87z"/>
<path style="fill:#fdfdfd; stroke:none;" d="M1113 89C1111.83 92.1874 1111.13 95.1714 1115 96L1115 89L1113 89M701 90C702.464 93.6577 704.598 94.334 707 91L701 90M604 94L604 97L605 97L604 94M1120 97L1120 100L1121 100L1122 97L1120 97z"/>
<path style="fill:#040404; stroke:none;" d="M506.667 107.333L507.333 107.667L506.667 107.333z"/>
<path style="fill:#fdfdfd; stroke:none;" d="M696 108C694.831 113.815 686.541 130.45 695 133L690 140L693 141C691.506 148.218 690.586 159.963 694.394 166.572C701.305 178.565 717.497 184.408 725 196L728 195L728 200L733 196L733 195L723 183L725 192L724 192C722.207 187.761 720.677 184.995 716 184L718 180L718 179L711 168L723 176L720 175L720 180L723 176L728 178L729 178C738.47 173.883 744.7 187.867 755 188C756.49 191.34 757.487 192.253 761 191L761 190L757 188L756 178L761 180L762 170L780 184L781 184C787.638 173.945 788.486 162.519 783 152L782 152C780.19 168.244 766.122 156.809 758 153.904C745.29 149.359 732.287 142.076 722.304 132.701C713.707 124.629 707.991 111.521 696 108z"/>
<path style="fill:#040404; stroke:none;" d="M694 119L695 120L694 119z"/>
<path style="fill:#fdfdfd; stroke:none;" d="M510 129L512 132L510 129M582 131L583 132L582 131z"/>
<path style="fill:#040404; stroke:none;" d="M1208 131L1209 132L1208 131z"/>
<path style="fill:#fdfdfd; stroke:none;" d="M1302 131L1303 132L1302 131M689 133L690 134L689 133M1111 134L1110 136L1112 136L1111 134M688 135L689 136L688 135M565 139L566 140L565 139M689 141L690 142L689 141z"/>
<path style="fill:#040404; stroke:none;" d="M696 141L693 143L693 144L696 141M1264 141L1262 149L1263 149L1264 141z"/>
<path style="fill:#fdfdfd; stroke:none;" d="M1099 145C1098.43 147.396 1098.53 147.487 1101 148L1099 145M564 146L565 151L566 151L564 146M1353 148L1354 149L1353 148M1093 149L1094 150L1093 149z"/>
<path style="fill:#040404; stroke:none;" d="M474 153L476 157L474 153z"/>
<path style="fill:#fdfdfd; stroke:none;" d="M480 155L481 156L480 155M485 157L485 160L486 160L487 157L485 157M478 163L479 164L478 163M1111 163L1112 164L1111 163z"/>
<path style="fill:#040404; stroke:none;" d="M705 165L706 166L705 165z"/>
<path style="fill:#fdfdfd; stroke:none;" d="M1108 165C1102.19 173.111 1108.98 173.391 1111 165L1108 165M1152.67 175.333L1153.33 175.667L1152.67 175.333M1114 176L1112 186C1114.92 183.114 1115.36 179.876 1114 176z"/>
<path style="fill:#040404; stroke:none;" d="M712.667 177.333L713.333 177.667L712.667 177.333z"/>
<path style="fill:#fdfdfd; stroke:none;" d="M1101 178L1099 179L1099 180L1101 178z"/>
<path style="fill:#040404; stroke:none;" d="M755 181L754 184L757 184L755 181z"/>
<path style="fill:#fdfdfd; stroke:none;" d="M785 185L785 192L787 192L785 185z"/>
<path style="fill:#040404; stroke:none;" d="M414 186L413 187L413 188L414 189L415 189L416 188L416 187L414 186M418 187L419 188L418 187M756 188L757 189L756 188z"/>
<path style="fill:#fdfdfd; stroke:none;" d="M1127 188L1124 195L1128 196L1127 188M1139 191L1140 192L1139 191z"/>
<path style="fill:#040404; stroke:none;" d="M367 195L366 197L367 195M371 196L372 197L371 196z"/>
<path style="fill:#fdfdfd; stroke:none;" d="M478 197L479 198L478 197M372 199L373 200L372 199M480 201L480 204L481 204L480 201z"/>
<path style="fill:#040404; stroke:none;" d="M430 203L431 204L430 203z"/>
<path style="fill:#fdfdfd; stroke:none;" d="M732 203L733 204L732 203M479 205L479 211L480 211L479 205M416.333 206.667L416.667 207.333L416.333 206.667M475 211L476 212L475 211M1374 215L1375 216L1374 215z"/>
<path style="fill:#040404; stroke:none;" d="M343 223L344 224L343 223M452 223L453 224L452 223M1432.33 226.667L1432.67 227.333L1432.33 226.667M321 227L322 228L321 227z"/>
<path style="fill:#fdfdfd; stroke:none;" d="M447 227L448 228L447 227M1412 227L1413 228L1412 227M330.333 230.667L330.667 231.333L330.333 230.667M474 230C473.872 233.508 474.626 234.907 478 236L474 230M455 235L458 240L455 235z"/>
<path style="fill:#040404; stroke:none;" d="M1582 235L1583 236L1582 235z"/>
<path style="fill:#fdfdfd; stroke:none;" d="M466 237L466 240L467 240L466 237z"/>
<path style="fill:#040404; stroke:none;" d="M318 238L319 239L318 238z"/>
<path style="fill:#fdfdfd; stroke:none;" d="M1424 239L1425 240L1424 239M1573.67 239.333L1574.33 239.667L1573.67 239.333M345 257L348 260L345 257z"/>
<path style="fill:#040404; stroke:none;" d="M327 260L326 264L327 260M337 271L338 272L337 271z"/>
<path style="fill:#fdfdfd; stroke:none;" d="M1622 280C1623.42 283.224 1624.44 284.362 1628 284L1622 280z"/>
<path style="fill:#040404; stroke:none;" d="M339 287L340 288L339 287M329 291L329 293L331 291L329 291M330 303L331 304L330 303M306.667 315.333L307.333 315.667L306.667 315.333z"/>
<path style="fill:#fdfdfd; stroke:none;" d="M317 329L318 330L317 329z"/>
<path style="fill:#040404; stroke:none;" d="M303 331L304 332L303 331z"/>
<path style="fill:#fdfdfd; stroke:none;" d="M1557 335L1558 336L1557 335M302 341L304 344L302 341M305 355L306 356L305 355M1563 355L1564 356L1563 355z"/>
<path style="fill:#040404; stroke:none;" d="M1580 369L1582 372L1580 369z"/>
<path style="fill:#fdfdfd; stroke:none;" d="M292 370L292 378L293 378L292 370z"/>
<path style="fill:#040404; stroke:none;" d="M287 380L288 381L287 380z"/>
<path style="fill:#fdfdfd; stroke:none;" d="M292 381L291 384L292 381z"/>
<path style="fill:#040404; stroke:none;" d="M279.667 395.333L280.333 395.667L279.667 395.333M276 413L277 417L280 413L276 413z"/>
<path style="fill:#fdfdfd; stroke:none;" d="M370 425C370.654 428.054 372.007 427.936 375 428L370 425M376 427L376 428L380 428L376 427M383 427L384 428L383 427M388 429L391 432L388 429z"/>
<path style="fill:#040404; stroke:none;" d="M278.667 431.333L279.333 431.667L278.667 431.333M277 434L276 436L278 436L277 434z"/>
<path style="fill:#fdfdfd; stroke:none;" d="M282 435L281 437L282 435M396 435L397 436L396 435z"/>
<path style="fill:#040404; stroke:none;" d="M282 443L283 444L282 443z"/>
<path style="fill:#fdfdfd; stroke:none;" d="M352 459L354 464L354 459L352 459M361 461L362 462L361 461M1583 475L1583 476L1588 476L1583 475M316 489L320 492L320 491L316 489M312 497C314.034 504.22 320.778 506.861 324 499L312 497M326 499L327 500L326 499M303 503L304 504L303 503M1555 504L1556 505L1555 504M302 509L303 510L302 509M1575 525L1576 526L1575 525M285 535L286 536L285 535M288 535L289 536L288 535M1579 553L1580 554L1579 553M321 577L323 579L321 577M326 579L327 580L326 579M1539 595L1540 596L1539 595z"/>
<path style="fill:#040404; stroke:none;" d="M1548 595L1549 596L1548 595M284 601L285 602L284 601M280.667 603.333L281.333 603.667L280.667 603.333z"/>
<path style="fill:#fdfdfd; stroke:none;" d="M308 605L309 606L308 605M309 607L310 608L309 607M1549 611L1550 614L1551 614L1549 611M310 619L311 620L310 619z"/>
<path style="fill:#040404; stroke:none;" d="M301 629L302 630L301 629z"/>
<path style="fill:#fdfdfd; stroke:none;" d="M298 645L299 646L298 645M308 645L311 648L308 645z"/>
<path style="fill:#040404; stroke:none;" d="M281 667L281 668L284 668L281 667z"/>
<path style="fill:#fdfdfd; stroke:none;" d="M290 671L291 674L292 674L292 671L290 671M1512.67 671.333L1513.33 671.667L1512.67 671.333M1587 694L1588 695L1587 694M1499 695L1499 696L1504 696L1499 695z"/>
<path style="fill:#040404; stroke:none;" d="M263 699L264 700L263 699z"/>
<path style="fill:#fdfdfd; stroke:none;" d="M303 720L310 730L311 730L312 727C317.076 730.817 320.563 734.855 327 731C318.335 724.357 313.299 722.425 303 720M1487 735L1488 736L1487 735z"/>
<path style="fill:#040404; stroke:none;" d="M1508 749L1509 750L1508 749z"/>
<path style="fill:#fdfdfd; stroke:none;" d="M246 751L247 752L246 751M1457 759L1457 760C1461.39 761.15 1464.41 762.316 1468 759L1467 758L1457 759z"/>
<path style="fill:#040404; stroke:none;" d="M1471 761L1470 764L1473 764L1471 761z"/>
<path style="fill:#fdfdfd; stroke:none;" d="M1419 763L1420 764L1419 763M238 767L238 770L240 770L240 767L238 767M1422 767L1429 776L1422 767M1446.67 771.333L1447.33 771.667L1446.67 771.333M240.667 775.333L241.333 775.667L240.667 775.333M1435 779L1438 782L1435 779z"/>
<path style="fill:#040404; stroke:none;" d="M228 787L229 788L228 787z"/>
<path style="fill:#fdfdfd; stroke:none;" d="M1504 795L1505 796L1504 795M287 811L288 812L287 811M1475 851L1476 852L1475 851M305 865L302 867L302 868C304.348 867.706 305.951 867.507 305 865M341 873L342 874L341 873z"/>
<path style="fill:#040404; stroke:none;" d="M282 875L283 876L282 875z"/>
<path style="fill:#fdfdfd; stroke:none;" d="M612 877L610 882L612 886L613 886L612 877M299 883L300 884L299 883M1426 903L1427 904L1426 903M589.333 910.667L589.667 911.333L589.333 910.667z"/>
<path style="fill:#040404; stroke:none;" d="M1419 910L1419 912L1421 912L1421 910L1419 910M1408 919L1409 920L1408 919z"/>
<path style="fill:#fdfdfd; stroke:none;" d="M1395 920L1395 924L1396 924L1395 920z"/>
<path style="fill:#040404; stroke:none;" d="M1405 923L1406 924L1405 923z"/>
<path style="fill:#fdfdfd; stroke:none;" d="M1399 927L1400 928L1399 927M573 935L574 936L573 935z"/>
<path style="fill:#040404; stroke:none;" d="M640 940L646 940L646 937L640 940z"/>
<path style="fill:#fdfdfd; stroke:none;" d="M1381 939L1382 940L1381 939M1292 943L1293 944L1292 943M1323.67 943.333L1324.33 943.667L1323.67 943.333z"/>
<path style="fill:#040404; stroke:none;" d="M1405 947L1406 948L1405 947z"/>
<path style="fill:#fdfdfd; stroke:none;" d="M367.333 950.667L367.667 951.333L367.333 950.667M1168.67 951.333L1169.33 951.667L1168.67 951.333M1276 951L1277 952L1276 951M1330.33 951.667L1330.67 952.333L1330.33 951.667M373 953L372 956L373 953z"/>
<path style="fill:#040404; stroke:none;" d="M572 953L573 954L572 953M1263 953L1264 954L1263 953z"/>
<path style="fill:#fdfdfd; stroke:none;" d="M386.667 955.333L387.333 955.667L386.667 955.333M1049 955L1049 956L1054 956L1049 955M1329 955L1328 960L1329 960L1331 955L1329 955M384 957L384 960L386 960L386 957L384 957M1291.33 958.667L1291.67 959.333L1291.33 958.667M1247 961C1247.84 964.833 1249.13 965.901 1253 965L1247 961M1292 961L1292 964L1293 964L1292 961M1136 967L1137 968L1136 967M1232.67 967.333L1233.33 967.667L1232.67 967.333M1237 969L1237 972L1243 972L1237 969M1265 970L1263 974L1264 974C1264.65 972.04 1265 971.446 1265 974L1266 974L1265 970M1144.67 971.333L1145.33 971.667L1144.67 971.333M513 973L513 976L514 976L513 973M1159 973C1159.64 977.616 1159.91 982.301 1164 985L1159 973M665 974C658.168 980.24 648.363 989.927 646 999C651.577 994.748 666.178 981.252 665 974M1168 977L1170 986L1178 979L1168 977z"/>
<path style="fill:#040404; stroke:none;" d="M1308 977L1307 981C1309.18 979.581 1309.64 979.079 1308 977M1173.67 980.333L1174.33 980.667L1173.67 980.333z"/>
<path style="fill:#fdfdfd; stroke:none;" d="M1221 983L1223 985L1223 983L1221 983z"/>
<path style="fill:#040404; stroke:none;" d="M1312 983L1313 984L1312 983z"/>
<path style="fill:#fdfdfd; stroke:none;" d="M645 985L644 988L645 985M1206 985L1204 992L1206 985z"/>
<path style="fill:#040404; stroke:none;" d="M375 986L376 987L375 986M706 986L705 988L707 988L706 986z"/>
<path style="fill:#fdfdfd; stroke:none;" d="M985 986L987 993L985 986M406 987L407 988L406 987M547.333 987.667L547.667 988.333L547.333 987.667M407 989L408 990L407 989M979 989L981 994L979 989z"/>
<path style="fill:#040404; stroke:none;" d="M1258 993L1259 994L1258 993M1267 993L1266 996L1267 993z"/>
<path style="fill:#fdfdfd; stroke:none;" d="M419 995L420 996L419 995M934 997L934 1000L936 1000L936 997L934 997M986 997C980.598 1000.22 979.76 1004.02 979 1010L975 1010L977 1023L976 1023L973 1016C967.237 1019.78 968 1033.46 968 1040L966 1033L963 1037L961 1037C958.981 1028.52 958.919 1022.87 948 1024L944 1019L947.801 1036L943 1059C937.125 1053.87 936.918 1045.06 943 1040L936 1029L935 1029L932 1032C930.286 1026.53 933.264 1018.29 925 1019L928 1026L921 1025L918 1028L921 1023C906.785 1023.67 924.204 1054.42 903 1054C907.989 1047.24 913.791 1037.6 902 1035L900 1038L899 1026L898 1026L891.855 1034.21L890.525 1043.58L883.726 1051.65L875.183 1054.43L874 1066L870 1066L868 1079L866 1077L865 1077C865.946 1081.42 871.23 1080 875 1080L907 1080L1042 1080L1038 1076L1038 1074L1045 1072C1044.16 1068.45 1041.65 1065.55 1040.99 1062C1039.83 1055.83 1041.14 1049.89 1037.58 1044.11C1033.53 1037.53 1025.7 1043 1023 1048L1027 1056L1022 1051L1014 1055C1015.89 1059.66 1015.08 1061.65 1010 1063C1010.73 1066.25 1008.36 1072.59 1004.77 1067.71C999.675 1060.8 999.088 1053.67 997 1046L992 1048C994.004 1039.24 1008.8 1015.79 994 1011L996 1016L985 1011L985 1009C988.66 1006.55 987.474 1000.76 986 997M979.333 999.667L979.667 1000.33L979.333 999.667z"/>
<path style="fill:#040404; stroke:none;" d="M1253.67 1005.33L1254.33 1005.67L1253.67 1005.33z"/>
<path style="fill:#fdfdfd; stroke:none;" d="M926 1007L927 1008L926 1007M953 1014L953 1016L955 1016L955 1014L953 1014M1232 1014L1236 1023L1237 1023L1232 1014M941.667 1015.33L942.333 1015.67L941.667 1015.33M966 1015L967 1016L966 1015M951 1019L952 1020L951 1019M954 1023L954 1025L956 1025L956 1023L954 1023M720 1027L721 1028L720 1027M881.667 1027.33L882.333 1027.67L881.667 1027.33M1008 1027L1009 1028L1008 1027M1035 1027L1036 1028L1035 1027M1002 1029L1002 1032L1003 1032L1002 1029M783 1030L783 1032L785 1032L783 1030M1040 1030C1038.17 1040.37 1045.34 1045.3 1048.56 1054.09C1051.31 1061.58 1048.16 1072.18 1048 1080L1083 1080L1082 1068L1067 1072L1066 1061L1062 1066C1054.32 1063.31 1057.41 1058.09 1054.85 1052C1051.61 1044.27 1044.97 1036.42 1040 1030M717 1031L718 1032L717 1031M901.667 1031.33L902.333 1031.67L901.667 1031.33M794.667 1035.33L795.333 1035.67L794.667 1035.33M1023 1035L1024 1042L1027 1040L1027 1039L1025 1035L1023 1035M879 1039L879 1041L882 1041L882 1039L879 1039M722 1041L723 1045L726 1044L726 1042L722 1041M755 1041L752 1072C745.703 1072.8 741.238 1072.74 741 1080L783 1080C788.668 1080 795.714 1080.52 795 1073L794 1076L788 1066L796 1068L789 1049L782 1065L781 1059L771 1069L778 1049C773.976 1049.85 772.01 1049.95 769 1047L764 1050C762.678 1045.32 759.543 1042.56 755 1041M861 1044L864 1041L861 1044M785 1043L787 1050L788 1043L785 1043M808 1043L808 1046L809 1046L808 1043M816.667 1045.33L817.333 1045.67L816.667 1045.33M1006 1045L1007 1046L1006 1045M1066 1045L1066 1050L1069 1050L1066 1045M719 1047L714 1060C717.713 1056.81 720.169 1051.95 719 1047z"/>
<path style="fill:#040404; stroke:none;" d="M786 1048L787 1049L786 1048z"/>
<path style="fill:#fdfdfd; stroke:none;" d="M781 1055L782 1056L781 1055M813 1055L812 1080L815 1080C815.157 1072.37 817.402 1061.72 813 1055M751 1061L752 1062L751 1061M1067.67 1061.33L1068.33 1061.67L1067.67 1061.33M1085 1061L1086 1080L1094 1080L1090 1065L1094 1064L1085 1061M749 1063L750 1064L749 1063z"/>
<path style="fill:#040404; stroke:none;" d="M792.667 1063.33L793.333 1063.67L792.667 1063.33z"/>
<path style="fill:#fdfdfd; stroke:none;" d="M1076.67 1063.33L1077.33 1063.67L1076.67 1063.33z"/>
<path style="fill:#040404; stroke:none;" d="M779 1064L775 1073L779 1064z"/>
<path style="fill:#fdfdfd; stroke:none;" d="M858 1080L862 1080L866 1064C861.055 1066.84 859.467 1074.61 858 1080M743 1067L744 1068L743 1067M1098 1069L1096 1080L1108 1080L1108 1075L1106 1077L1098 1069M820 1074L817 1080L821 1080L820 1074M828 1076L827 1080L832 1080L828 1076M801 1080C803.993 1079.94 805.346 1080.05 806 1077L801 1080z"/>
<path style="fill:#040404; stroke:none;" d="M1072 1079L1073 1080L1072 1079z"/>
</svg>
