<?xml version="1.0" standalone="yes"?>
<svg xmlns="http://www.w3.org/2000/svg" width="1920" height="1080">
<path style="fill:#fcfcfc; stroke:none;" d="M0 0L0 1080L486 1080L604 1080C612.479 1080 637.857 1084.13 643 1077L644 1080L670 1080L665.63 1069L673 1050L671 1050C668.313 1061.43 653.03 1069.64 644 1076L649 1062C643.771 1061.74 635.648 1066.47 632 1061L624 1064C627.315 1059.65 627.619 1054.41 630.653 1050C634.465 1044.46 640.305 1040.91 644.661 1035.91C648.552 1031.45 650.866 1026.33 655.289 1022.2C663.261 1014.74 672.706 1010.33 680.323 1002.59C683.802 999.048 685.339 994.125 688.44 990.289C692.75 984.957 697.363 983.285 698 976C679.971 980.545 671.461 994.563 660.138 1007.87C652.593 1016.73 642.161 1026.06 632.911 1033.33C625.511 1039.15 609.789 1036.53 607 1046L606 1046L606 1043L602 1043C598.572 1049.4 587.619 1048.77 581 1050C584.678 1045.7 589.531 1045.05 593.714 1041.6C603.766 1033.29 612.759 1019.49 626 1016L634 997L625 1000L627 993L621 998C623.124 990.871 627.467 990.364 632.911 986.444C642.052 979.863 651.559 972.161 655 961L658 962L655 954L660 948L661 953L666 949L656.896 945.291L641 954C643.262 949.992 647.75 945.483 643 942L642 945C633.105 940.192 644.143 933.854 644.684 927.169C645.067 922.427 642.211 917.525 641 913L640 913L640 920L638 920C637.116 911.132 632.797 898.557 624 895C621.461 899.736 616.939 903.22 613 898L617 896L617 895L612 893L611 893L597.198 907.005L599 920L597 917L594 934L585 944L585 939L584 939L587 970L576 956L575 956L579 980C581.877 980 580.926 992.94 578 994.667C572.166 998.11 570.854 984.333 566 984.333C558.945 984.333 565.162 1001.04 564.833 1004C564.436 1007.58 560.49 1008.14 561 1011L553 999L550 1000L550 995L549 995L544 1006C543.785 1000.03 542.898 989.264 534 995L533 995L526 983L523 983L518 988L518 984L517 984L512 987L506 996C506.584 984.7 499.042 993.876 498 1000L495 999L494 1004L493 1004L491 989L490 989C487.548 995.546 487.617 1001.46 490 1008L487 1006C484.679 1014.53 496.338 1024.06 498.817 1033C500.095 1037.6 500.486 1044.13 495 1045L488 1060L479 1051L477 1055L474 1055L464 1035L462 1041L452 1032L444 1044L442 1031L439 1040L433 1038L432 1042L428 1042C428 1038.48 425.423 1035.11 429 1036C428.355 1031.95 427.458 1028.93 423 1029L422 1025L425 1026L426 1015L424 1015L420 1018C420.472 1013.82 422.091 1010.48 418 1008L416 1013L415 1013L412 1005L411 1005L403 1022L396 1022L399 993C392.733 995.839 389.283 1002.26 382 1000L386 996L384 990C387.966 988.113 388.856 986.336 389 982C394.246 981.523 398.084 979.818 397 974L390 981C380.599 981.591 376.424 989.511 371 996L370 983L368 986C367.13 982.549 366.529 974.655 371 974L371 970L355 984L359 977L355 976L356 972L354 975L350 975L346 966L345 966C339.026 969.495 333.477 967.122 328 964C334.28 958.272 344.642 954.777 347 946L346 946L341 949C342.306 944.771 349.914 923.26 340.946 923.206C336.952 923.182 330.117 930.24 326 932L337 915C339.396 915.575 339.487 915.475 340 913L343 915L344.363 909.975C349.134 892.539 330.659 914.677 328.944 905.83C327.871 900.295 338.386 895.745 339 889L334 887L333 896L324.809 892.748L321.756 883.812L313 883C311.464 888.408 307.014 888.971 303.994 893.144C298.911 900.167 300.079 908.425 291 912L290 911L292 907L289 909L284 904L289 899L283 897L283 900L280 900L285 894L290 879L279 880L279 871L285 876L296 868L292 863L291 866L286 866L284 861L282 861L281 864L279 864C275.205 855.375 280.015 850.706 284 843C294.822 847.054 297.513 845.173 303 836L303 835L299 833C295.766 838.219 287.148 834.951 282 834L290 823L272 824L282 820L281 808L273 811L272 811L266 811C266.537 805.856 267.914 805.503 273 806L278 800C275.172 797.365 261.191 794.77 259 798L252 794L251 794L246 793L228 792L227 789L225 790L218 784L225 779L222 778L224 773L225 773C227.376 776.566 229.472 774.6 232 772L232 771L228 765L232 762L227 760L227 759L236 757L238 750C234.418 749.432 233.057 748.492 232 745L243 744L244 735L243 734L230.986 739.748L221.831 734.231L205 729.651L197.472 730.022L191 724L191 723C196.816 723.046 213.544 720.891 213 713C217.971 713.162 218.588 710.961 216 707C222.8 703.562 218.685 691.192 213 688C215.69 683.035 215.845 679.94 213 675C233.722 675.43 248.495 692.922 268 696L268 695C252.521 680.188 217.569 676.691 212 652L229 661.861L236 666.167L246.028 661.806L256.083 668.139L272 672L273 672L273 663L270 657L286 666L287 663L291 664L290 659L298 650L295 650L295 645L288 643L288 641C292.36 638.114 287.87 636.093 286 633L294 636L294 634L296 634L298 638L299 638L302 632L301 636L304 631C295.741 629.783 295.758 626.611 290.394 621.644C287.692 619.142 284.851 620.72 283 617C301.487 616.78 275.237 603.832 273 600L282.87 597.776L300 600L298 593L301 597L303 597C307.317 590.094 314.949 593.986 322 594L322 593L319 587C307.78 586.437 310.706 571.882 305.787 564.054C303.588 560.555 299.52 559.294 299 555L298 555L292 560L293 555L292 555L291 558L289 556L288 556L285 558L286 554L285 553L283 553L277 556L286.793 544.015L276 529L281 531C284.917 520.659 266.492 505.405 261 497L266 496L262 487L280 497L277 490L289 490L290 483L292 486L303 486C308.923 475.327 319.83 479.295 327.683 472.995C333.576 468.267 333.375 460.566 343 460L352 447C356.193 447.698 357.779 446.543 360 443L356 444L357 437L352 438L365 426L366 426L368 428C365.994 422.306 359.993 417.764 354 419C356.771 427.638 348.433 429.408 343.09 434.17C331.88 444.158 320.597 448.728 307 453.711C297.339 457.252 290.685 464.596 286 451C281.031 453.327 280.14 451.676 276 449L276 454L270 445L270 450L269 450C268.178 441.047 266.691 435.851 272 428L272 427C266.808 420.222 272.842 412.765 274 405C279.304 405.972 283.95 403.909 282 398L275 395L273 399L268 397L276.606 388.366L282 376L278 357C284.703 361.571 288.415 362.166 296 359L296 357C291.726 354.453 288.753 351.263 294 348L297 337L300 338C298.092 334.377 297.122 332.225 300 329L300 332L302 332C300.521 323.667 302.681 315.752 294 311L294 310L307 310L310 320L313 320C315.455 315.762 317.657 308.743 323 308L327 294L332 298L332 294C327.631 292.922 327.137 290.218 327 286L335 292L340 292L340 288L337 291L336 291L335 284L340 284C339.482 271.968 332.65 274.44 326.757 266.698C324.756 264.069 325.673 260.068 325 257L324 257L324 264L323 264L320 253L325 252C323.113 244.987 315.081 243.779 309 241L316 228L316 232L324 220L325 220C330.428 227.315 332.692 214.491 336.267 213.317C341.344 211.651 347.497 220.005 349 211L353 212L352 203L354 205L355 205L357 204L356 191L359 193L360 193L370 185L372 186L373 189L375 189L376 182L383 188L386 185C388.448 186.828 392.876 194.235 394 189L403 200L404 200L404 193L410 196L409 185L413 185L414 180C418.615 181.848 430.093 196.965 431.972 202.015C433.932 207.28 432.03 211.13 436.214 215.995C440.116 220.534 450.147 224.307 450 215L466 227L468 221L458 212L461 204L468 210L468 205L476 210L473 199L474 199L474 203L475 203L472 189L478 188L478 187L474 176L475 176L476 179L479 179L483 177L480 181L481 182C486.083 175.914 478.286 169.139 473 166L476 159C471.549 155.504 470.133 150.523 470 145L475 150L477 143L481 144L480 130C483.498 131.928 483.875 134.122 484 138L486 135L490 140L492 140L495 118L504 125L508 111L513 114L525 108L520 95L521 95C524.331 98.8123 530.909 96.7336 535 95L541 130L542 130L543 121L553 140L554 130L559 131L561 137L562.681 128.129L568 121C572.175 125.517 567.893 128.958 569.785 133.847C572.931 141.978 576.762 127.389 577 125L579 126L582 115L594 126L589 88L592 88L592 83L593 83C593.266 87.1639 591.085 91.423 595 94L596 89L599 97L600 97C600.048 79.7302 598.676 58.4998 604.725 42C610.17 27.1501 620.617 15.446 625 0L0 0z"/>
<path style="fill:#040404; stroke:none;" d="M600 97L599 97L596 89L595 94L593 83L592 83L592 88L589 88C588.48 100.111 590.411 114.189 594 126L582 115L579 126L577 125C576.706 126.736 576.357 128.335 575.842 130.024C571.27 145.002 570.754 122.947 568 121L562.613 127.295L561 137L559 131L554 130L553 140L543 121L542 130L541 130L535 95C530.18 96.5039 525.361 98.304 521 95L520 95L525 108C519.911 108.773 515.476 109.072 513 114L508 111L504 125L495 118L492 140L490 140L486 135L486 138L484 138C483.953 134.065 484.046 131.343 480 130L481 144L477 143L475 150L470 145C470.05 150.485 470.704 156.306 476 159L473 166C477.835 170.217 484.986 175.419 481 182L480 181L483 177L480 176L479 179L476 179L475 176L474 176L478 187L478 188L472 189L475 203L474 203L474 199L473 199L476 210L468 205L468 210L461 204L458 212L468 221L466 227C461.104 222.038 458.095 214.645 450 215C447.723 224.433 439.444 219.27 435.395 214C432.205 209.847 433.719 206.523 432.397 202.015C430.947 197.066 418.525 181.112 414 180L413 185L409 185L410 196L404 193L404 200L403 200L394 189L393 192L392 192L386 185L383 188L376 182L375 189L373 189L372 186L370 185L360 193L359 193L356 191C356 196.247 358.769 205.176 352 203L353 212L349 211C348.459 212.776 348.09 214.753 345.852 215.099C342.424 215.628 339.785 211.657 336.239 212.851C331.617 214.408 331.812 224.976 325 220L324 220L316 232L316 228C311.419 229.339 309.672 236.619 309 241C314.883 244.843 322.156 244.966 325 252L320 253L323 264L324 264L324 257L325 257C325.338 260.011 324.511 264.035 326.183 266.698C331.177 274.653 339.058 272.174 340 284L335 284L336 291L337 291L340 288L340 292L335 292L327 286C327.05 290.213 327.045 294.08 332 294L332 298L327 294L323 308C317.328 308.269 314.911 315.246 313 320L310 320L307 310L294 310L294 311C301.832 317.189 299.94 323.272 302 332L300 329C296.234 331.675 297.64 334.68 300 338L297 337L294 348C287.756 350.512 291.329 355.106 296 357L296 359C287.879 361.445 285.41 360.496 278 357L282 376L276.605 387.556L268 397L273 399L275 395C277.118 397.93 278.426 398.682 282 398C283.296 403.661 279.089 405.382 274 405C272.2 411.79 265.823 421.727 272 427L272 428C265.706 434.558 267.55 441.809 269 450L270 450L270 445L276 454L276 449C279.659 452.44 281.363 453.817 286 451C289.081 465.181 298.094 457.636 307 454.098C320.4 448.774 331.831 445.211 343.09 435.039C348.332 430.303 358.092 427.491 354 419C359.949 418.342 365.1 423.029 368 428L366 426L365 426L352 438L357 437L356 444L360 443L352 447L343 460C332.85 458.838 333 468.62 326.852 472.994C319.179 478.453 307.035 474.916 303 486L292 486L290 483L289 490L277 490L280 497C273.815 490.463 270.537 488.843 262 487L266 496L261 497C265.597 506.892 284.324 519.918 281 531L276 529L285.945 544.015L277 556L283 553L285 553L286 554L285 558L291 558L292 555L293 555L292 560L298 555L299 555L310.142 574L310.846 583.62L319 587L322 593L322 594C315.363 593.456 306.161 589.551 303 597L301 597L298 593L300 600L282.611 597.376L273 600C274.478 603.863 299.962 616.444 283 617C284.142 620.89 286.799 619.605 289.662 621.745C295.602 626.186 295.217 630.324 304 631L301 636L302 632L299 638L298 638L296 634L294 636L286 633C286.813 636.813 292.292 637.404 288 641L288 643L295 645L295 650L298 650L290 659L291 664L287 663L286 666L270 657L273 663L273 672L272 672L272 669C261.369 673.257 256.195 665.118 247.039 661.981C242.44 660.406 239.787 666.089 235.424 665.299C228.534 664.052 218.033 655.849 212 652C212.566 657.901 215.47 658.782 218.97 663.099C230.049 676.762 242.772 679.547 257.999 686.649C262.149 688.585 264.273 692.637 268 695L268 696C249.1 690.723 233.558 675.17 213 675C215.254 680.113 214.905 682.854 213 688C218.065 692.212 221.726 702.5 216 707C217.57 710.808 217.488 712.853 213 713L214 716L191 723L191 724L197.363 730.677L205 729.913L220.91 734.264L230.986 740.289L243 734L244 735L243 744L232 745C232.652 748.911 234.136 749.7 238 750L236 757L227 759L227 760L232 762L228 765L232 771L232 772C229.212 774.054 227.825 775.351 225 773L224 773L222 778L225 779L218 784L225 790L227 789L228 792L246 793C247.608 795.444 248.587 795.662 251 794L252 794L259 798C262.191 795.387 274.192 798.04 278 800C274.2 800.796 273.295 802.163 273 806C267.907 805.106 265.861 805.557 266 811L272 811L273 811L281 808L282 820L272 824L290 823L282 834C286.657 835.415 297.267 839.165 299 833L303 835L303 836C296.04 844.198 295.582 846.255 284 843C279.169 849.709 274.267 856.2 279 864L281 864L282 861L284 861L286 866L291 866L292 863L296 868L285 876L279 871L279 880L290 879L285 894L280 900L283 897L289 899L284 904L289 909L292 907L290 911L291 912C300.775 909.439 299.125 899.96 304.649 893.144C307.96 889.058 312.098 888.775 313 883L321.3 883.964L324.645 893.644L333 896L334 887L339 889C338.008 895.23 326.54 900.897 328.694 906.675C331.434 914.028 340.705 900.688 344.211 903.831C346.325 905.725 343.346 912.457 343 915L340 913L337 915L326 932C330.85 930.689 336.377 924.172 340.917 924.012C349.03 923.728 341.836 944.98 341 949L346 946L347 946L328 964C332.702 967.91 339.731 970.483 345 966L346 966L350 975L356 972L355 976L359 977L355 984L371 970L371 974C366.41 974.576 366.864 982.376 368 986L370 983L371 996C377.486 990.445 380.563 982.492 390 981L397 974C397.199 979.42 394.006 981.203 389 982L384 990L386 996L382 1000C389.005 1003.21 393.322 996.664 399 993L396 1022L403 1022L411 1005L412 1005L415 1013L416 1013L418 1008C421.42 1011.08 420.237 1013.74 420 1018L424 1015L426 1015L425 1026L422 1025L423 1029C426.951 1029.97 427.997 1032.18 429 1036L428 1042L432 1042L433 1038L439 1040L442 1031L444 1044C448.512 1041.22 451.597 1037.34 452 1032L462 1041L464 1035L474 1055L477 1055L479 1051L488 1060L495 1045C500.552 1045.14 500.251 1038.44 499.444 1034C497.626 1024 485.294 1015.17 487 1006L490 1008L490 989L491 989L493 1004L494 1004L495 999L498 1000C499.346 994.982 506.041 985.389 506 996L512 987C515.123 988.628 516.072 987.124 517 984L518 984L518 988L523 983L526 983L533 995L534 995C543.326 991.839 543.257 998.976 544 1006L549 995L550 995L550 1000L553 999C554.527 1004.28 555.607 1008.76 561 1011C561 1008.21 564.191 1008.26 564.833 1005C565.389 1002.18 559.794 985 566 985C571.309 985 571.397 998.63 578 995.167C581.06 993.562 582.024 979.44 579 980L575 956L576 956L587 970L584 939L585 939L585 944L594 934L597 917L599 920L597.585 906.58L611 893L612 893L617 895L617 896L613 898C616.407 903.864 622.205 900.11 624 895C632.298 899.927 636.438 910.813 638 920L640 920L640 913L641 913C641.939 917.772 644.884 923.118 644.227 927.996C643.467 933.638 631.749 941.678 642 945L643 942C646.527 946.168 642.722 949.569 641 954L655.957 945.697L666 949L661 953L660 948L655 954L658 962L655 961C651.983 967.751 647.513 974.576 641.675 979.278C634.61 984.969 622.759 988.319 621 998L627 993L625 1000L634 997C629.557 1005.05 624.883 1005.72 626 1016C612.357 1018.2 602.888 1033.5 592.83 1041.6C588.654 1044.96 583.86 1045.09 581 1050C587.478 1049.18 599.686 1050.21 602 1043L606 1046L607 1046C611.589 1036.62 625.875 1039.77 633.83 1033.33C655.94 1015.43 670.768 986.045 698 976L688.44 989.44L679.548 1002.59L661.001 1016.09L643.812 1035.91L630.008 1050L624 1064L632 1061C633.348 1067.29 644.728 1062.32 649 1062L644 1076C653.15 1071.73 669.569 1060.76 671 1050L673 1050C671.439 1060.57 658.699 1071.75 672 1080C673.095 1066.71 683.173 1066.59 693 1061C688.584 1068.51 684.476 1070.33 688 1080L696 1075C706.644 1084 726.372 1080 740 1080C744.342 1080 751.615 1081.39 755.567 1079.4C762.795 1075.75 757.271 1055.77 753 1052L753 1051L756 1043L762 1047L762 1056C765.829 1055.7 767.173 1054.79 768 1051L769 1051L768 1062L771 1063L768 1080C778.885 1079.49 780.996 1062.92 789.466 1074.98C790.613 1076.61 791.288 1078.16 792 1080C800.054 1080 824.449 1083.92 829 1077L830 1080C838.043 1080 853.479 1082.94 860 1078L873 1080L879 1064L883 1068C882.697 1064.61 880.332 1060.1 881.818 1056.89C885.998 1047.85 898.22 1044.89 891 1033L900 1027C899.978 1035.11 897.84 1044.77 908 1037C908.909 1045.84 902.928 1048.46 900 1056L906 1058L906 1055L911 1056L915.722 1045.99L918 1027L918 1031L924 1029L925 1033L927 1033L928 1027L929 1027C929.068 1031.31 935.449 1044.07 938 1035C941.441 1038.63 938.083 1042.51 937.43 1047C936.475 1053.56 938.357 1059.36 944 1063L944 1064L940 1072L936 1070L935 1070C928.386 1079.52 943.025 1076.12 945.347 1068.98C947.325 1062.9 943.343 1057.89 943.816 1052C944.354 1045.3 948.439 1040.15 948.201 1033C948.029 1027.86 943.913 1024.1 946 1019L948 1026L953 1025L954 1034L956 1031C960.98 1034.23 959.099 1041.01 958 1046C966.575 1049.43 968.842 1042.44 969 1035L974 1038L974 1032L974 1031C982.089 1025.11 980.819 1018.63 976 1011L980 1012L982 1007L983 1016L994 1020L997 1016L995 1024L1000 1025L982 1052C992.833 1058.29 995.189 1062.55 998 1074L1003 1069C1007.68 1074.44 1013.42 1073.34 1020 1072L1018 1057L1023 1063L1031 1060C1030.55 1054.49 1029.19 1050.5 1024 1048L1024 1047C1027.45 1047.54 1033.95 1045.58 1036.53 1046.75C1042.14 1049.29 1039.15 1059.46 1037 1063L1037 1064L1043 1071C1037.36 1070.43 1032.95 1072.02 1032 1078L1036 1077C1037.04 1081.85 1044.9 1080 1049 1080L1048 1045C1054.11 1052.82 1051.01 1071.2 1065 1067L1064 1072L1071.27 1079.39L1098 1080L1099 1071C1101.29 1073.41 1102.1 1078 1105.23 1079.4C1113.05 1082.9 1118.86 1077.58 1114.58 1070.02C1112.05 1065.54 1107.82 1065.32 1104.04 1062.49C1099.7 1059.23 1094.47 1053.73 1090.75 1049.73C1085.38 1043.94 1087.8 1040.67 1087.18 1034C1086.84 1030.33 1083.19 1027.12 1083.5 1023.42C1084.27 1014.11 1095.74 1013.99 1102 1013L1103 1017L1104 1017L1117 993C1122.79 998.62 1121.21 1009.6 1130 1012L1131 1009L1128 1008L1131 1005L1134 1014L1146 1022C1144.59 1016.9 1140 1015.01 1137.84 1010.28C1134.83 1003.7 1139.42 989.838 1131 988L1135 976C1146.15 983.251 1152.96 990.009 1153 1004C1158.65 1006.06 1158.08 1010.39 1160.85 1015C1166.61 1024.58 1174.57 1031.95 1174 1044L1180 1037L1175 1037C1176.72 1030.35 1176.7 1026.89 1173 1021C1179 1015.92 1168.39 1001.99 1168 995L1176 1000L1174 991C1175.99 992.475 1178.16 995.695 1180.45 996.512C1185.32 998.248 1186.67 993.759 1190 1000L1192 1000L1194 995L1195 995C1194.19 1001.89 1196.76 1008.77 1204 1011L1204 1007L1205 1007L1211 1011L1219 1020L1213 997L1216 997C1216.41 1004.49 1221.87 1008.49 1224.77 1015C1229.9 1026.51 1229.09 1038.12 1232.59 1050C1234.12 1055.19 1235.42 1060.34 1241 1062L1238 1037L1240 1037L1244 1053L1245 1053L1245 1046L1246 1045L1249 1046L1247 1033C1251.12 1034.13 1252.02 1035.83 1252 1040L1257 1034C1254.74 1031.51 1254.52 1030.04 1256 1027C1247 1021.41 1260.38 1018.55 1266 1022L1267 1022C1269.93 1019.11 1270.68 1017.42 1267 1015L1270 1014L1270 1013C1268.73 1009.73 1270.44 1008.1 1273 1006L1274 1007C1272.52 1015.82 1279.92 1011.09 1282 1006L1286 1007L1285 1015L1280 1014L1283 1020L1285 1016L1288 1016L1288 1012L1290 1012L1293 1016L1293 1006L1284 1003L1272 969C1277.3 971.987 1284.16 981.761 1284 988L1295 989L1293 992L1299 995L1302 985L1315 991L1313 996L1324 997L1325 996C1323.69 992.189 1321.15 985.457 1318.41 982.559C1316.58 980.62 1313.71 980.263 1312.36 977.772C1307.98 969.708 1307.03 955.119 1308 946L1310 946L1311 947L1312 960L1315 956L1322 960L1324 972L1328 972L1328 968L1336 969L1334 971L1334 972L1341 979L1350 967L1354 969C1356.88 966.495 1358.68 967.43 1362 969C1369.95 955.496 1381.02 966.765 1392 968L1391 960L1406 960L1406 954L1417 951L1417 950L1405 936L1406 929L1412 934L1412 929L1415 930L1416 925L1420 927L1426 915L1433 918L1433 920L1428 928C1431.7 926.135 1432.69 924.089 1433 920L1434 920L1452 924L1449 920L1449 919C1452.47 916.749 1451.81 913.727 1451 910L1450 910L1451 913L1445 914L1446 908L1451 905L1452 908L1457 902L1452 901L1454 891L1456 896L1457 896L1460 892L1461 892L1465 895L1466 894C1464.59 890.686 1463.65 889.444 1460 890L1461 878L1465 875L1474 868L1472 863L1486 866C1489.79 858.686 1487.5 852.395 1498 856L1496 853L1496 852L1497 848C1503.08 849.583 1513.3 841.779 1505 840C1507.34 834.778 1511.43 832.239 1517 834L1518 827L1521 830L1525 828L1519.84 818L1522 801L1517 800L1520 796L1520 795C1515.83 792.106 1512.42 785.931 1507.9 784.188C1504.18 782.755 1499.88 784.238 1496 783.895C1489.48 783.317 1483.63 781.221 1476.91 781.725C1471.28 782.148 1465.78 784.944 1460 785.231C1452.52 785.602 1441.83 791.214 1440 781L1454 782L1452 771L1480 767C1488.33 758.112 1493.95 764.189 1503.96 762.517C1509.81 761.54 1513.95 757.316 1520 758C1520.29 750.002 1510.61 746.052 1504 744L1512 740L1510 733L1504 732L1514 727L1513 730L1514 730L1532.04 717.307L1557 715L1557 714L1551 714C1550.14 710.97 1549.08 710.717 1546 711L1545 710L1546 707L1538 703L1540 706L1539 707L1531 700L1536 691L1532 693L1531 693L1525 685L1528 686L1529 681C1526.71 680.619 1514.93 679.822 1517.66 675.508C1518.98 673.426 1522.9 675.073 1524.83 675.137C1534.49 675.455 1541.9 683.152 1545 692L1547 691C1552.95 704.856 1566.01 710.475 1578 718L1578 715L1589 714L1593 710L1592 707L1596 706C1594.09 699.135 1597.58 693.851 1595.75 687C1593.68 679.304 1587.3 672.348 1583.94 665C1578.76 653.701 1577.05 643.51 1569.67 633.039C1565.59 627.259 1551.58 617.998 1560 612L1560 611C1556.76 608.722 1545.56 602.935 1551 599L1547 592L1548 584L1555 588L1552 577L1553 577L1556 580L1555 573C1560.5 575.151 1565.23 573.952 1570.42 575.489C1574.35 576.651 1577.83 580.973 1581.94 581.169C1586.52 581.388 1585.58 576.699 1583 575C1583.88 570.459 1588.4 562.976 1584 560L1583 555L1588 541L1584 536L1584 535C1587.57 530.276 1584.68 525.734 1579 526C1577.27 521.084 1570.52 521.432 1566 520L1568 515L1560 508L1557 503L1560 499L1564 500L1559 492L1559 491L1563 490L1563 489L1557 488L1557 487L1571 481.762L1580 486.359L1598 487L1595 478.059L1612.45 468.236L1619 455C1614.94 452.291 1609.83 442.518 1611 439C1611.8 436.599 1617.77 437.636 1619 436C1620.88 433.493 1617.14 431.58 1617 430C1616.6 425.602 1623.84 420.167 1618 419C1620.61 407.522 1612.48 414.413 1606.3 412.391C1602.81 411.248 1601.29 407.442 1597.96 406.161C1595.03 405.034 1592.84 407.484 1590 407.419C1584.81 407.3 1583.78 400.925 1583 397L1585 398L1582 395L1578 375L1586 376C1586.37 371.643 1583.48 367.451 1579 370L1578 370L1576 368L1576 367L1580 364L1578 350L1573 352L1573 349L1567 352C1568.59 346.934 1570.71 343.49 1576 342L1576 341C1572.85 334.339 1587.51 331.541 1592 329.369C1598.27 326.337 1605.41 328.874 1611.56 326.181C1616.13 324.179 1619.25 311.75 1620 307L1622 307L1622 312L1623 312C1624.83 301.873 1635.17 295.911 1644 292C1644.59 286.737 1646.67 284.406 1652 284L1648 280L1652 265L1646 260L1641 260L1645 256L1644 253L1642 255L1640 247L1637 250L1636 247L1630 248L1635 245C1636.47 234.938 1618.76 241.639 1613 240L1607 244C1612.24 237.366 1617.25 236.449 1618 227L1616 227L1612 234L1611 234C1607.73 229.112 1605.37 226.439 1600 230L1599 226L1590 225L1578 229.333L1525 239L1523 235L1516 235L1516 238C1499.91 231.182 1481.98 236.966 1466 240L1472 230L1453 231L1459 224L1459 223C1452.59 219.597 1444.54 222.781 1438 225L1438 220L1420 228C1418.47 222.766 1410.74 222.692 1406.13 223.537C1395.91 225.413 1384.3 223.137 1378 233L1379.89 224L1379.46 210.015L1391 196C1396.23 195.729 1399.35 187.487 1401 183C1406.57 181.887 1404.73 176.253 1407.02 172.17C1410.3 166.319 1422.18 160.565 1417 153L1421 145L1418 144C1420.75 139.245 1421.82 133.79 1424.59 129C1428.58 122.118 1435.43 116.318 1438.6 109C1439.98 105.794 1438.68 102.325 1439.5 99C1441.06 92.6303 1442.78 88.6884 1437.52 83.2276C1432.04 77.5306 1426.23 82.0043 1421 79L1401 95.7909L1378.92 114.004L1366 134L1367 131L1365 130C1359.79 132.733 1358.24 140.497 1357 146L1356 146L1354 141L1343 148L1344 140L1339 145L1337 141L1335 141L1334 144L1333 144C1333.4 140.594 1335.37 135.55 1331 135L1335 119L1328 117C1325.16 120.437 1322.81 121.717 1319 119L1318 119C1314.58 122.702 1313.01 124.146 1308 123L1302 128L1298 125C1296.49 128.843 1294.09 129.924 1291 127L1289 144C1282.87 143.256 1277.99 145.549 1275 151L1266 148C1267.49 144.693 1272.52 136.884 1266 137L1270 131C1264.18 132.226 1261.35 133.742 1261 140L1258 140L1255 129C1247.33 131.489 1243.96 134.199 1245 124C1232.5 125.321 1222.58 119.255 1214 132L1206 127L1196 132C1185.93 130.137 1191.31 136.612 1191.72 142C1192.23 148.795 1191.18 152.785 1193 160L1182 158C1180.05 162.968 1177.25 166.526 1172 168L1173 163L1158 176C1159.75 168.606 1162.66 160.677 1152 166L1157 151L1155 151C1151.49 154.87 1148.95 155.95 1144 154L1143 159L1140 159L1136 178L1127 174C1131.64 165.174 1137.49 156.77 1134 146L1132 146C1127.22 154.768 1126.19 161.344 1118 168C1120.84 160.531 1123.3 150.016 1121 142L1118 144C1118.57 132.785 1123.22 113.717 1137 113C1139.42 109.211 1145.48 102.181 1139 100L1145 97C1144.63 91.8058 1145.63 89.1101 1151 88L1150 83C1156.75 80.2716 1159.51 72.3108 1150 73L1152 78C1147.8 74.1422 1146.72 70.5859 1147 65L1143 66C1142.71 69.6884 1141.74 70.8787 1138 71L1136 81L1132 79L1132 78L1136 76L1136 73L1121 76L1129 49L1124 50L1128 35L1125 38L1120 28L1125 30L1125 19L1119 28L1111 12L1105 16L1106 7L1103 10L1102 10L1100 0L1087 6L1086 6L1078 5L1078 12L1071 4L1070 11L1065 10L1064 4L1062 4L1061 7L1055 0L1042 0L1040 7L1040 0L1010 0C1006.23 0 1000.95 -1.41577 1000 3L994 0C994.368 10.2224 997.1 25.3745 988 32L990 0L985 0L984 6C965.139 4.15796 976.568 22.1992 970.976 31.8156C967.822 37.2388 961.25 38.6665 959 45L957 45L958 40L958 39L953 37L951 45L948 43L949 48L946 48L947 25L932 40L933 30L926 44C927.113 37.5991 924.945 33.7822 919 31L919 32C923.054 35.9595 924.942 42.2317 918 44C921.46 38.2094 918.498 33.1956 917 27L916 27C915.72 32.1117 914.316 35.1594 909 36C908.387 28.1273 894.763 29.2699 888 29L898 13L893 16L892 16L888 10L891 13L893 13L895 7L890 0L888 0L879 28L876 28L876 32L879 31L880 35C866.294 34.7369 871.548 25.5481 875 18L874 17L872 17C867.032 23.2836 863.652 23.4789 859 17L858 24L843.015 20.8141L827 22L827 36L828 36L830 34L832 40C819.927 34.6057 808.998 23.8281 814 10C807.705 13.2552 796.083 14.6715 800 24C796.371 24.2012 788.735 26.5856 796 29L796 36C793.917 34.2438 783.081 21.3245 782 29C774.737 27.3362 771.594 30.7896 767 36L766 29C753.342 32.6504 763.226 44.1548 754 49L753 45L751 47L748 43L747 43L745 52L743 52L738 41L734 44L733 41L723 41L728 52L727 52C725.723 49.5399 715.251 37.6406 714.217 46.1443C713.536 51.7406 718.564 55.4119 717 62L715 62L714 59L712 60L710 49L706 52C700.224 47.902 696.871 51.8086 691 54L685 37L689 39L687 37L692 26L694 0L646 0C640.532 0 631.301 -1.77319 626.303 0.603394C622.049 2.62634 620.573 13.0441 617.914 17C601.075 42.0522 600.019 67.7462 600 97z"/>
<path style="fill:#fcfcfc; stroke:none;" d="M692 26C687.494 27.3179 687.496 32.848 687 37L689 36L689 39L685 37L691 54C696.908 52.389 700.081 48.9269 706 52L710 49L712 60L714 59L715 62L717 62C718.7 56.2482 710.866 34.6086 723.777 47.9746C724.973 49.213 725.96 50.6359 727 52L728 52L723 41L733 41L734 44L738 41L743 52L745 52L747 43L748 43L753 45L754 49C761.523 46.6239 756.675 40.9198 758.181 35.4784C759.07 32.2656 763.242 30.2723 766 29L767 36C772.257 31.7787 774.715 27.8235 782 29C782 21.4484 794.185 35.3561 796 36L796 29C790.548 25.8016 796.545 24.4829 800 24L798 22C801.299 13.9673 807.585 14.9292 814 10C807.864 22.7687 819.791 36.665 832 40L830 34L828 36L827 36L827 22C834.394 25.9152 836.343 21.1143 843.289 20.9807C848.482 20.8809 853.023 23.3116 858 24L859 17C862.637 24.0762 868.136 24.0536 872 17L874 17L875 18C870.462 24.6709 866.266 37.063 880 35L879 31L876 32L876 28L879 28L888 0L746 0L709 0C705.049 0 697.9 -1.354 694.51 1.02771C687.663 5.83838 691.43 19.4286 692 26M890 0L895 7L893 13L891 13L888 10L892 16L893 16L898 13L888 29C894.529 29.6212 907.858 28.8429 909 36C914.844 35.5486 915.868 32.4481 916 27L917 27L918 44L921 45C923.832 39.9135 924.251 35.4799 919 32L919 31C924.087 34.5962 926.593 37.6816 926 44L933 30L932 40L947 25L946 48L949 48L948 43L951 45L953 37L958 39L958 40L957 45L959 45C961.948 39.5613 968.991 37.2338 971.411 31.8156C975.858 21.8612 966.428 5.22729 984 6L985 0L981 2L980 2C979.213 -0.0471191 978.787 -0.046875 978 2C971.916 -2.26135 960.238 0 953 0L890 0z"/>
<path style="fill:#040404; stroke:none;" d="M977.333 0.666626L977.667 1.33337L977.333 0.666626M980.333 0.666626L980.667 1.33337L980.333 0.666626z"/>
<path style="fill:#fcfcfc; stroke:none;" d="M990 0L990.816 14L988 32C997.193 27.5692 994.942 8.91016 994 0L990 0M997 0L1000 3L997 0M1040 0L1040 7L1042 0L1040 0M1055 0C1055.64 4.05713 1057.24 5.47754 1061 7L1062 4L1064 4L1065 10L1070 11L1071 4L1078 12L1078 5L1086 6L1087 6C1091.74 8.90015 1095.31 4.25012 1097 0L1091 3L1090 0L1055 0z"/>
<path style="fill:#040404; stroke:none;" d="M1090 0L1090 3L1092 3L1092 0L1090 0z"/>
<path style="fill:#fcfcfc; stroke:none;" d="M1100 0L1102 10L1103 10L1106 7L1105 16L1111 12L1119 28L1125 19L1125 30L1120 28L1125 38L1128 35L1124 50L1129 49L1121 76L1136 73L1136 76L1132 78L1132 79L1136 81L1138 71C1142.02 71.1315 1143.36 70.075 1143 66L1147 65C1146.36 70.5547 1146.88 74.8886 1152 78L1150 73C1159.25 72.7654 1155.82 79.5438 1150 83L1151 88C1145.16 88.6665 1144.11 91.5093 1145 97L1139 100C1144.19 103.126 1138.91 108.808 1137 113C1122.99 111.537 1118.24 133.541 1118 144L1121 142C1122.83 150.411 1120.06 159.958 1118 168C1126.97 163.093 1128.51 154.862 1132 146L1134 146C1136.71 157.765 1130.45 164.026 1127 174L1136 178C1140.17 174.017 1139.56 164.619 1140 159L1143 159L1144 154C1148.73 156.473 1152.17 155.585 1155 151L1157 151L1152 166C1162.39 162.432 1159.15 168.356 1158 176L1173 163L1172 168C1177.77 167.109 1180.57 163.483 1182 158C1186 160.389 1188.44 161.64 1193 160C1192.47 156.596 1190.01 152.945 1190.13 149.576C1190.24 146.89 1192.41 144.741 1192.27 142C1191.98 136.6 1186.57 131.293 1196 132L1206 127L1214 132L1225.46 123.113L1245 124C1243.13 134.314 1247.62 132.396 1255 129L1258 140L1261 140C1261.66 134.14 1264.65 132.571 1270 131L1266 137L1269 136L1266 148L1275 151C1278.84 146.228 1282.83 143.99 1289 144L1291 127L1292 130L1298 125L1302 128L1308 123C1313.03 124.571 1315.13 123.318 1318 119L1319 119C1322.5 122.169 1325.82 120.987 1328 117L1335 119L1331 135C1335.36 135.57 1333.17 140.688 1333 144L1334 144L1335 141L1337 141L1339 145L1344 140L1343 148L1354 141L1356 146L1357 146C1359.17 139.872 1359.77 132.238 1367 131L1366 134L1380.47 113.015L1402 95.7909L1421 79C1424.85 83.1635 1432.86 78.1181 1438.29 85.0439C1442.76 90.7413 1439.87 93.8269 1439.14 100C1437.34 115.161 1424.4 129.615 1418 144L1421 145L1417 153C1421.11 161.001 1409.38 165.716 1406.59 172.17C1404.83 176.231 1405.99 181.347 1401 183C1398.84 187.044 1395.88 195.279 1391 196L1380.01 208.089L1379.63 223.576L1378 233C1384.64 225.752 1413.19 216.859 1420 228L1438 220L1438 225C1444.94 223.204 1452.12 220.144 1459 223L1459 224L1453 231L1472 230L1466 240C1483.23 238.143 1498.39 232.506 1516 238L1516 235L1523 235L1525 239L1577 230.222L1590 225L1599 226L1600 230C1605.5 227.571 1607.12 229.855 1611 234L1612 234L1616 227L1618 227L1607 244L1613 240C1619.14 242.689 1634.55 234.954 1635 245L1630 248L1637 250L1640 247L1642 255L1644 253L1645 256L1641 260L1646 260C1646.65 263.929 1648.21 264.571 1652 265L1648 280L1652 284C1646.24 284.189 1644.32 286.261 1644 292C1634.81 294.497 1624.03 302.034 1623 312L1622 312L1622 307L1620 307C1618.6 311.992 1616.22 323.259 1611.56 325.772C1604.99 329.31 1597.09 326.116 1590 329.872C1586.77 331.582 1570.04 335.205 1576 341L1576 342C1570.15 342.907 1568.2 346.519 1567 352L1573 349L1573 352L1578 350C1577.46 356.012 1575.41 358.666 1580 364L1576 367L1576 368L1578 370L1579 370C1583.49 369.339 1585.57 371.577 1586 376L1578 375L1582 395L1585 398L1583 397C1583.54 401.161 1584.42 408.064 1590 408.058C1592.44 408.055 1594.48 405.985 1596.99 406.536C1600.73 407.362 1602.79 411.708 1606.59 412.887C1612.79 414.811 1619.72 407.857 1618 419C1620.33 421.992 1618.36 424.608 1617.68 427.961C1617.26 430.065 1618.65 432.774 1617.71 434.661C1616.6 436.911 1613.43 437.026 1612.24 439.302C1609.69 444.2 1614.93 452.716 1619 455L1611.7 468.236L1594.19 478.059L1598 487L1572 481.488L1557 487L1557 488L1563 489L1563 490L1559 491L1559 492L1564 500L1560 499L1557 503L1560 508L1568 515L1566 520L1579 526C1584.74 526.053 1586.46 530.163 1584 535L1584 536L1588 541L1583 555L1584 560L1583 575C1584.6 576.742 1586.11 580.641 1581.94 580.543C1578.17 580.455 1574.63 576.423 1571 575.363C1566.04 573.912 1560.28 574.307 1555 573L1556 580L1553 577L1552 577L1555 588L1548 584L1547 592L1551 599C1542.62 600.795 1556.94 609.808 1560 611L1560 612C1550.1 617.113 1565.42 627.622 1569.03 633.039C1576.34 644.002 1578.59 654.329 1583.94 666C1587.18 673.094 1593.16 679.693 1595.47 687C1597.65 693.887 1593.4 699.046 1596 706L1592 707L1593 710L1589 714L1578 715L1578 718L1558.26 706.201L1547 691L1545 692C1542.62 682.133 1534.38 675.346 1524.42 674.853C1522.41 674.753 1519.41 673.337 1517.65 674.809C1512.06 679.472 1527.06 680.823 1529 681L1528 686L1525 685L1531 693L1532 693L1536 691L1531 700L1539 707L1540 706L1538 703L1546 707L1545 710L1546 711C1549.03 710.786 1549.95 711.132 1551 714L1557 714L1557 715L1530.18 717.564L1521.82 725.111L1514 730L1513 730L1514 727L1504 732L1510 733L1512 740L1504 744C1510 746.715 1519.85 750.351 1520 758C1513.71 756.703 1509.91 761.067 1503.96 762.26C1494.92 764.074 1486.48 756.954 1480 767C1471.21 764.174 1460.97 769.613 1452 771L1454 782L1440 781L1439 784C1447.74 792.011 1465.5 783.209 1477 782.188C1484.78 781.497 1500.9 781.492 1507.9 784.662C1512.64 786.81 1514.98 792.47 1520 795L1520 796L1517 800L1522 801L1519.44 818L1525 828L1521 830L1518 827L1517 834C1511.47 831.824 1506.6 834.196 1505 840C1512.45 844.908 1501.41 848.215 1497 848L1496 852L1496 853L1498 856C1487.64 850.829 1488.84 858.4 1486 866C1480.98 863.665 1477.59 861.123 1472 863L1474 868L1465 875L1461 878L1460 890L1466 894L1465 895L1461 892L1460 892L1457 896L1456 896L1454 891L1452 901L1457 902L1452 908L1451 905L1446 908L1445 914L1451 913L1450 910L1451 910L1449 919L1449 920L1452 924L1434 920L1433 920L1428 928L1433 920L1433 918L1426 915L1420 927L1416 925L1412 929L1412 934L1406 929L1405 936L1417 950L1417 951L1406 954L1406 960L1391 960L1392 968C1382.46 965.455 1367.58 955.097 1362 969C1358.85 966.951 1356.36 965.48 1354 969L1350 967L1341 979L1334 972L1334 971L1336 969L1328 968L1328 972L1324 972L1322 960L1315 956L1312 960L1310 946L1308 946C1306.36 954.41 1307.63 971.28 1312.32 978.571C1313.77 980.819 1316.72 981.279 1318.41 983.302C1321.09 986.499 1323.07 992.191 1325 996L1324 997L1313 996L1315 991L1302 985C1297.94 987.489 1298.63 990.724 1299 995L1293 992L1295 989L1284 988C1284.49 981.745 1278.05 971.051 1272 969L1284 1003L1293 1006L1293 1016L1290 1012L1288 1012L1288 1016L1285 1016L1283 1020L1284 1017L1280 1014L1285 1015L1286 1007L1282 1006C1279.62 1010.15 1273.73 1015.38 1274 1007L1273 1006C1270.23 1007.49 1267.31 1010.17 1270 1013L1270 1014L1267 1015L1270 1016L1267 1022L1266 1022C1259.57 1015.64 1246.82 1023.31 1256 1027C1254.05 1029.9 1254.06 1031.92 1257 1034L1252 1040C1252.23 1035.62 1251.51 1033.73 1247 1033L1249 1046L1246 1045L1245 1046L1245 1053L1244 1053L1240 1037L1238 1037L1241 1062C1228.04 1055.61 1229.75 1027.22 1225.19 1015C1222.73 1008.41 1216.8 1004.25 1216 997L1213 997L1219 1020L1211 1011L1205 1007L1204 1007L1204 1011C1197.55 1007.71 1194.62 1001.99 1195 995L1194 995L1192 1000L1190 1000C1187.63 993.425 1185.58 997.466 1180.83 996.242C1178.49 995.637 1176.36 992.168 1174 991L1176 1000L1168 995C1167.76 1003.31 1178.31 1014.34 1173 1021C1175.69 1027.23 1176.31 1030.25 1175 1037L1180 1037L1174 1044C1175.41 1031.75 1166.69 1023.7 1160.85 1014C1158.16 1009.52 1158.84 1005.26 1153 1004C1152.99 990.579 1147.47 981.513 1135 976L1131 988C1139.08 990.973 1134.48 1003.37 1137.43 1010.28C1139.47 1015.08 1144.02 1017.22 1146 1022L1134 1014L1131 1005L1128 1008L1131 1009L1130 1012L1117 993L1104 1017L1103 1017L1102 1013C1095.39 1013.34 1082.83 1014.06 1083.19 1024C1083.32 1027.58 1086.31 1030.44 1086.7 1034C1087.28 1039.39 1085.15 1042.94 1088.63 1047.95C1094.57 1056.48 1104.58 1060.67 1111.79 1067.3C1115.49 1070.7 1116.47 1075.23 1116 1080L1920 1080L1920 0L1100 0M1000 5L1000 18L1001 18L1000 5z"/>
<path style="fill:#040404; stroke:none;" d="M832 7L832 8L835 8L832 7M1111.67 7.33337L1112.33 7.66663L1111.67 7.33337z"/>
<path style="fill:#fcfcfc; stroke:none;" d="M1060 8L1058 12L1062 12L1060 8M981 9L980 12L981 9M1082 10L1084 14L1085 14L1088 9L1082 10M1071 12L1074 11L1071 12z"/>
<path style="fill:#040404; stroke:none;" d="M834 12C836.33 16.5282 839.215 17.4227 844 16C841.583 11.4396 838.606 12.1436 834 12z"/>
<path style="fill:#fcfcfc; stroke:none;" d="M1093 11L1094 12L1093 11z"/>
<path style="fill:#040404; stroke:none;" d="M616.667 14.3334L617.333 14.6666L616.667 14.3334M849 15L850 17L851 17L852 15L849 15M864 17L864 19L866 19L866 17L864 17z"/>
<path style="fill:#fcfcfc; stroke:none;" d="M886 17L887 18L886 17M889 19L890 20L889 19z"/>
<path style="fill:#040404; stroke:none;" d="M757 22L754 25C754.372 28.5237 754.334 30.9631 758 32L761 24L757 22z"/>
<path style="fill:#fcfcfc; stroke:none;" d="M803 25L806 24L803 25M980 23L981 24L980 23z"/>
<path style="fill:#040404; stroke:none;" d="M766 27L767 28L766 27M768.667 27.3334L769.333 27.6666L768.667 27.3334z"/>
<path style="fill:#fcfcfc; stroke:none;" d="M1000 27L998 34L1002 27L1000 27M781 30L783 38L785 38C785.567 34.025 784.134 32.3909 781 30M1112 31L1113 32L1112 31M762 33L764 38L765 38L762 33M775 33L774 36C776.566 35.4493 776.86 34.8602 775 33M788 33L789 34L788 33z"/>
<path style="fill:#040404; stroke:none;" d="M743 37L744 42L743 37M691 39L692 40L691 39M710.667 39.3334L711.333 39.6666L710.667 39.3334z"/>
<path style="fill:#fcfcfc; stroke:none;" d="M879 42L879 43L882 44L882 41L879 42M786 42L787 47L788 47L786 42M959 45L960 46L959 45M921 49L922 50L921 49M728 52L730 55L728 52M689 53L690 54L689 53M692 54L693 55L692 54M722 55L722 56L726 56L722 55M693 56L692 64L694 64L693 56M702 57L705 60L704 57L702 57M698 60C696.041 63.3471 697.272 65.6929 699 69L704 68L698 60M706 64L707 65L706 64z"/>
<path style="fill:#040404; stroke:none;" d="M1156 66L1156 68L1158 68L1156 66M1125 69L1128 72L1127 69L1125 69M1129 69L1130 70L1129 69z"/>
<path style="fill:#fcfcfc; stroke:none;" d="M1142 72L1140 76L1145 83L1146 83L1142 72M702 73L704 76L702 73M1152.33 74.6667L1152.67 75.3333L1152.33 74.6667M1128 78L1125 84C1127.63 82.421 1129.18 80.9805 1128 78M704 79L705 80L704 79M601 98L600 100L602 100L601 98z"/>
<path style="fill:#040404; stroke:none;" d="M506.667 107.333L507.333 107.667L506.667 107.333M502 113L504 118L504 113L502 113z"/>
<path style="fill:#fcfcfc; stroke:none;" d="M697 115L691 132L696 130L692 141L694 139L698 140L701 136L698 146L693 145L693 150L696 149L693 154L698 153L697 160L702 159L714 168L724.043 173.311L741 177L745 183L748 178L747 184L754 188L752 175L762 176L756 170L756 169C765.31 166.771 769.587 176.081 777.945 177.339C786.936 178.692 787.108 160.996 785 156L774.985 162.678L759 155.225L728 143C726.944 136.371 720.673 136.331 716.005 132.61C708.552 126.669 707.452 117.734 697 115M693 119L694 120L693 119M1117 119L1117 120L1120 120L1117 119z"/>
<path style="fill:#040404; stroke:none;" d="M565 123L566 124L565 123M1272 123L1274 128L1272 123M554 129L557 127C554.604 126.425 554.513 126.525 554 129z"/>
<path style="fill:#fcfcfc; stroke:none;" d="M594 127L597 132L594 127z"/>
<path style="fill:#040404; stroke:none;" d="M479 129L480 130L479 129M558 129L560 131L560 129L558 129z"/>
<path style="fill:#fcfcfc; stroke:none;" d="M590 129L588 132C590.251 131.527 591.118 131.14 590 129M564.333 130.667L564.667 131.333L564.333 130.667M1265 137L1266 138L1265 137M484 142L483 146L484 146L484 142M1117 146L1116 151L1117 151L1117 146M1099 147L1100 148L1099 147z"/>
<path style="fill:#040404; stroke:none;" d="M1125 147L1121 156C1126.1 155.767 1127.22 151.524 1128 147L1125 147z"/>
<path style="fill:#fcfcfc; stroke:none;" d="M1197 151L1198 152L1197 151M1275.33 152.667L1275.67 153.333L1275.33 152.667z"/>
<path style="fill:#040404; stroke:none;" d="M1420.33 154.667L1420.67 155.333L1420.33 154.667M1185 157L1185 159L1187 157L1185 157M710.333 158.667L710.667 159.333L710.333 158.667z"/>
<path style="fill:#fcfcfc; stroke:none;" d="M1116 159L1117 160L1116 159M699 165L699 172L700 172L699 165M1108 166L1104 172C1107.65 171.396 1109.98 169.662 1108 166M702 171L704 176C709.259 174.503 705.768 171.441 702 171M717 171L718 172L717 171z"/>
<path style="fill:#040404; stroke:none;" d="M727 173L728 174L727 173z"/>
<path style="fill:#fcfcfc; stroke:none;" d="M710 174C708.726 177.222 708.084 179.566 712 180L715 184L711 177L714 176L710 174M1403 175L1404 176L1403 175M1099.67 179.333L1100.33 179.667L1099.67 179.333M1113 179C1111.98 181.899 1111.77 183.308 1115 184L1113 179M716 185L717 186L716 185M717 187L717 188L720 189L717 187M478 190L478 192L480 192L480 190L478 190M726 191L729 193L726 191M728 197L730 200L728 197M358.333 198.667L358.667 199.333L358.333 198.667M479 206L479 211L480 211L479 206M1373 217L1373 220L1374 220L1373 217z"/>
<path style="fill:#040404; stroke:none;" d="M1613 217L1612 220L1615 220L1613 217z"/>
<path style="fill:#fcfcfc; stroke:none;" d="M454 221L458 228L454 221M1377 221L1379 225L1377 221M1437 225L1438 226L1437 225z"/>
<path style="fill:#040404; stroke:none;" d="M1612.33 227.667L1612.67 228.333L1612.33 227.667z"/>
<path style="fill:#fcfcfc; stroke:none;" d="M474 233L478 236L477 232L474 233M456 237L458 239L456 237M466 238L466 241L467 241L466 238M1484 238L1486 240L1486 238L1484 238z"/>
<path style="fill:#040404; stroke:none;" d="M1640 244L1642 238C1639.12 239.519 1636.83 241.589 1640 244z"/>
<path style="fill:#fcfcfc; stroke:none;" d="M1519 239L1520 240L1519 239M328 252L327 255L332 256L328 252z"/>
<path style="fill:#040404; stroke:none;" d="M316 253L316 258L318 258L318 253L316 253M1651 255L1652 256L1651 255z"/>
<path style="fill:#fcfcfc; stroke:none;" d="M336 257L343 264L336 257z"/>
<path style="fill:#040404; stroke:none;" d="M1652 263L1653 264L1652 263z"/>
<path style="fill:#fcfcfc; stroke:none;" d="M1646 269L1642 276C1646.36 275.288 1647.52 273.275 1648 269L1646 269M1646 279L1647 280L1646 279z"/>
<path style="fill:#040404; stroke:none;" d="M334 283L335 284L334 283M1646 293L1650 289L1646 293M1652 289L1653 290L1652 289z"/>
<path style="fill:#fcfcfc; stroke:none;" d="M330 301L331 302L330 301M327 303L328 304L327 303z"/>
<path style="fill:#040404; stroke:none;" d="M320 304L321 305L320 304z"/>
<path style="fill:#fcfcfc; stroke:none;" d="M328 305L329 308L330 308L330 305L328 305M1617 307L1618 308L1617 307z"/>
<path style="fill:#040404; stroke:none;" d="M291 311L292 312L291 311M314 311L315 312L314 311z"/>
<path style="fill:#fcfcfc; stroke:none;" d="M303 312L304 313L303 312M1612 319L1612 321L1614 321L1614 319L1612 319M305 325C304.341 328.995 305.048 330.798 309 332L308 325L305 325z"/>
<path style="fill:#040404; stroke:none;" d="M297 327L298 328L297 327M293 337L293 341L294 341L293 337M286 348L292 341L286 348M276 355L277 356L276 355z"/>
<path style="fill:#fcfcfc; stroke:none;" d="M285 375L286 376L285 375M278 389L279 390L278 389M1577 391L1581 394L1580 390L1577 391z"/>
<path style="fill:#040404; stroke:none;" d="M1607 407L1608 408L1607 407z"/>
<path style="fill:#fcfcfc; stroke:none;" d="M280.333 408.667L280.667 409.333L280.333 408.667M1600.67 413.333L1601.33 413.667L1600.67 413.333M1592 416L1595 416L1594 414L1592 416M1600 415L1601 416L1600 415z"/>
<path style="fill:#040404; stroke:none;" d="M265.333 423.667L265.667 424.333L265.333 423.667z"/>
<path style="fill:#fcfcfc; stroke:none;" d="M371 425L370 428L371 425M378.667 427.333L379.333 427.667L378.667 427.333M388.667 431.333L389.333 431.667L388.667 431.333z"/>
<path style="fill:#040404; stroke:none;" d="M262 435L263 440L264 440L266 435L262 435z"/>
<path style="fill:#fcfcfc; stroke:none;" d="M279 437L276 439L276 440L279 437M274 439L275 440L274 439z"/>
<path style="fill:#040404; stroke:none;" d="M327 467L328 468L327 467z"/>
<path style="fill:#fcfcfc; stroke:none;" d="M340.667 467.333L341.333 467.667L340.667 467.333M333 469L332 472L335 470L333 469M1553 493L1556 491L1553 493z"/>
<path style="fill:#040404; stroke:none;" d="M257 494L258 495L257 494z"/>
<path style="fill:#fcfcfc; stroke:none;" d="M282 498L285 504L286 504L282 498z"/>
<path style="fill:#040404; stroke:none;" d="M1566.67 511.333L1567.33 511.667L1566.67 511.333z"/>
<path style="fill:#fcfcfc; stroke:none;" d="M292 553L293 554L292 553M1552 571L1555 573L1552 571M1547 583L1548 584L1547 583z"/>
<path style="fill:#040404; stroke:none;" d="M302.667 591.333L303.333 591.667L302.667 591.333z"/>
<path style="fill:#fcfcfc; stroke:none;" d="M322.667 591.333L323.333 591.667L322.667 591.333M1542 597L1543 600L1544 600L1544 597L1542 597z"/>
<path style="fill:#040404; stroke:none;" d="M272 599L273 600L272 599M1560 613L1562 616L1560 613z"/>
<path style="fill:#fcfcfc; stroke:none;" d="M299 619L300 620L299 619z"/>
<path style="fill:#040404; stroke:none;" d="M298 636L299 637L298 636z"/>
<path style="fill:#fcfcfc; stroke:none;" d="M308 639L309 640L308 639z"/>
<path style="fill:#040404; stroke:none;" d="M211 651L212 652L211 651z"/>
<path style="fill:#fcfcfc; stroke:none;" d="M272 661L273 662L272 661z"/>
<path style="fill:#040404; stroke:none;" d="M268.667 663.333L269.333 663.667L268.667 663.333z"/>
<path style="fill:#fcfcfc; stroke:none;" d="M243 665L244 666L243 665z"/>
<path style="fill:#040404; stroke:none;" d="M1537.67 691.333L1538.33 691.667L1537.67 691.333z"/>
<path style="fill:#fcfcfc; stroke:none;" d="M220 695L220 696L223 696L220 695M268 697L269 698L268 697M270.667 698.333L271.333 698.667L270.667 698.333M1524.67 699.333L1525.33 699.667L1524.67 699.333M1528.67 699.333L1529.33 699.667L1528.67 699.333M216 718L217 719L216 718M307 721L312 726L310 721L307 721M314 723L315 724L314 723M318 725L317 732L324 732L320 725L318 725M1496 725L1495 728C1497.57 727.449 1497.86 726.86 1496 725M1516 753L1517 754L1516 753z"/>
<path style="fill:#040404; stroke:none;" d="M1522 755L1523 756L1522 755z"/>
<path style="fill:#fcfcfc; stroke:none;" d="M1459 759L1459 760L1462 760L1459 759z"/>
<path style="fill:#040404; stroke:none;" d="M1514 759L1515 760L1514 759M1519 759L1520 760L1519 759M224.667 767.333L225.333 767.667L224.667 767.333z"/>
<path style="fill:#fcfcfc; stroke:none;" d="M1424.67 771.333L1425.33 771.667L1424.67 771.333z"/>
<path style="fill:#040404; stroke:none;" d="M220 777L221 778L220 777M219 779L220 780L219 779z"/>
<path style="fill:#fcfcfc; stroke:none;" d="M1513 815L1514 817L1515 817L1516 815L1513 815z"/>
<path style="fill:#040404; stroke:none;" d="M1529 823L1530 824L1529 823M264 824C264.272 829.18 269.515 828.446 272 825L264 824z"/>
<path style="fill:#fcfcfc; stroke:none;" d="M305 835L306 836L305 835M1500.67 835.333L1501.33 835.667L1500.67 835.333M300 843L301 844L300 843z"/>
<path style="fill:#040404; stroke:none;" d="M1511 843L1512 844L1511 843z"/>
<path style="fill:#fcfcfc; stroke:none;" d="M1496 847L1497 848L1496 847M288 863L289 864L288 863M303 867L304 868L303 867M298 871L299 872L298 871M295 875L296 876L295 875z"/>
<path style="fill:#040404; stroke:none;" d="M1471.67 875.333L1472.33 875.667L1471.67 875.333z"/>
<path style="fill:#fcfcfc; stroke:none;" d="M596 881L602 896C604.024 889.273 601.68 886.593 598 881L596 881M338.667 883.333L339.333 883.667L338.667 883.333M287 889L288 890L287 889M327 890L327 892L329 892L327 890M1439 891L1440 896L1445 897L1446 896L1439 891M1450 893L1452 895L1450 893M349 896L348 900L349 900L349 896M596 897L596 900L597 900L596 897M1448.33 902.667L1448.67 903.333L1448.33 902.667M288 903L289 904L288 903M290 903L291 905L292 905L293 903L290 903M1430 911L1431 912L1430 911M1413 915L1412 920L1417 919L1417 915L1416 915L1413 915M593 918L593 922L594 922L593 918z"/>
<path style="fill:#040404; stroke:none;" d="M1426 919L1427 920L1426 919M640.333 920.667L640.667 921.333L640.333 920.667z"/>
<path style="fill:#fcfcfc; stroke:none;" d="M1402 924L1405 928L1402 924M587 926L587 932L588 932L587 926M646.333 926.667L646.667 927.333L646.333 926.667M348 930L348 932L350 932L350 930L348 930M645 933L650 936L645 933M1303 940L1306 937L1303 948L1307 948L1310 945L1311 941L1306 933C1301.6 933.737 1300.78 936.203 1303 940M658 939L659 940L658 939z"/>
<path style="fill:#040404; stroke:none;" d="M635 940L630 948C634.592 947.283 637.893 944.536 635 940z"/>
<path style="fill:#fcfcfc; stroke:none;" d="M648.333 944.667L648.667 945.333L648.333 944.667M1266 949L1266 956L1261 955C1262.55 960.733 1266 964.327 1272 965L1268 949L1266 949M659 953L660 954L659 953M372 955L373 956L372 955M377 960L376 964L377 960z"/>
<path style="fill:#040404; stroke:none;" d="M325 965L324 968L325 965z"/>
<path style="fill:#fcfcfc; stroke:none;" d="M373 967L374 968L373 967M1327 967L1328 968L1327 967z"/>
<path style="fill:#040404; stroke:none;" d="M583 968L584 969L583 968z"/>
<path style="fill:#fcfcfc; stroke:none;" d="M1131 970L1135 976L1131 970M1239.67 971.333L1240.33 971.667L1239.67 971.333M1282.67 971.333L1283.33 971.667L1282.67 971.333z"/>
<path style="fill:#040404; stroke:none;" d="M1330 973L1331 974L1330 973M1351 973L1352 974L1351 973z"/>
<path style="fill:#fcfcfc; stroke:none;" d="M701 975L701 976L704 978L705 978L707 975L701 975M513 975L514 976L513 975M664 975L657 984C660.975 982.778 664.375 979.353 664 975z"/>
<path style="fill:#040404; stroke:none;" d="M1344 977L1345 982L1347 982C1347.49 978.863 1347.04 978 1344 977z"/>
<path style="fill:#fcfcfc; stroke:none;" d="M1300 979L1301 980L1300 979z"/>
<path style="fill:#040404; stroke:none;" d="M1352 979L1350 984C1353.01 983.354 1353.5 981.613 1352 979z"/>
<path style="fill:#fcfcfc; stroke:none;" d="M1187 981C1186.06 986.123 1185.46 990.828 1191 993C1191.49 989.863 1191.04 989 1188 988L1190 981L1187 981M512.667 983.333L513.333 983.667L512.667 983.333M520 984L521 985L520 984z"/>
<path style="fill:#040404; stroke:none;" d="M352 985L353 986L352 985M521 987L522 988L521 987z"/>
<path style="fill:#fcfcfc; stroke:none;" d="M1205 987L1206 988L1205 987M652 989L648 996L650 992C652.391 992.012 653.117 991.313 652 989M978 992L981 992L980 990L978 992M1156 990L1156 992L1158 992L1156 990z"/>
<path style="fill:#040404; stroke:none;" d="M502 993L502 996L504 996L504 993L502 993z"/>
<path style="fill:#fcfcfc; stroke:none;" d="M1274 995L1274 997L1276 995L1274 995M979 999L980 1000L979 999M982 999L981 1005L985 1004L984 999L982 999M1266.67 999.333L1267.33 999.667L1266.67 999.333z"/>
<path style="fill:#040404; stroke:none;" d="M1327 999L1328 1000L1327 999M620 1002L625 1000L620 1002M1188 1002L1188 1008L1190 1002L1188 1002z"/>
<path style="fill:#fcfcfc; stroke:none;" d="M981 1007L980 1012L976 1011C979.908 1019.99 981.505 1023.25 974 1031L974 1032L974 1038L969 1035C968.66 1042.42 966.192 1048.11 958 1046C959.326 1041.85 961.802 1032.24 956 1031L954 1034L953 1025L948 1026L946 1019C943.209 1023.99 947.798 1028.16 948.062 1033.29C948.424 1040.33 944.12 1045.32 943.536 1052C943.08 1057.22 946.756 1061.7 945.602 1067C944.084 1073.97 930.043 1080.31 935 1070L936 1070L940 1072L944 1064L944 1063C939.859 1059.24 936.882 1054.86 937.326 1049C937.689 1044.22 942.784 1038.1 938 1035C933.743 1041.64 929.28 1031.13 929 1027L928 1027L927 1033L925 1033L924 1029L918 1031L918 1027C912.739 1030.42 916.859 1039.43 915.722 1045C914.898 1049.04 911.826 1051.91 911 1056L906 1055L906 1058L900 1056C904.09 1048.94 909.561 1045.84 908 1037C898.083 1042.03 899.994 1035.64 900 1027L891 1033C896.77 1046.04 884.676 1046.91 881.358 1057.06C880.23 1060.51 882.468 1064.56 883 1068L879 1064C875.438 1069.13 872.396 1073.61 873 1080L998 1080L1027 1080C1030.65 1080 1035.1 1081.22 1036 1077L1032 1078C1033.55 1072.61 1037.57 1070.69 1043 1071L1037 1064L1037 1063C1039.97 1059.56 1042.12 1048.85 1036.64 1046.17C1034.33 1045.05 1027.24 1047.29 1024 1047L1024 1048C1028.43 1051.22 1030.26 1054.61 1031 1060L1023 1063L1018 1057L1020 1072C1013.33 1072.73 1008.34 1073.49 1003 1069L998 1074C995.914 1062.89 993.98 1056.6 982 1052L1000 1025L995 1024L997 1016L994 1020L983 1016L981 1007z"/>
<path style="fill:#040404; stroke:none;" d="M1138.67 1007.33L1139.33 1007.67L1138.67 1007.33z"/>
<path style="fill:#fcfcfc; stroke:none;" d="M428.333 1011.67L428.667 1012.33L428.333 1011.67M635 1011L636 1012L635 1011z"/>
<path style="fill:#040404; stroke:none;" d="M1189 1013L1190 1014L1189 1013z"/>
<path style="fill:#fcfcfc; stroke:none;" d="M428 1014L428 1017L429 1017L428 1014M953 1015L954 1016L953 1015M971 1017L968 1031L968 1032L970 1034L971 1034C974.431 1028.8 974.753 1022.93 973 1017L971 1017z"/>
<path style="fill:#040404; stroke:none;" d="M1132 1017L1134 1019L1134 1017L1132 1017z"/>
<path style="fill:#fcfcfc; stroke:none;" d="M927 1019L927 1020L930 1020L927 1019z"/>
<path style="fill:#040404; stroke:none;" d="M1291 1021L1295 1024L1294 1021L1291 1021M1148.67 1023.33L1149.33 1023.67L1148.67 1023.33M1266 1024L1266 1028L1267 1028L1266 1024z"/>
<path style="fill:#fcfcfc; stroke:none;" d="M1237 1027L1237 1033L1238 1033L1237 1027M935 1029L938 1032L935 1029M1076 1031L1076 1035L1079 1031L1076 1031z"/>
<path style="fill:#040404; stroke:none;" d="M424 1033L424 1036L425 1036L424 1033M613 1040L612 1043L613 1040z"/>
<path style="fill:#fcfcfc; stroke:none;" d="M756 1043L753 1051L753 1052C758.943 1059.52 758.747 1070.99 757 1080L768 1080L771 1063L768 1062L769 1051L768 1051L762 1056L762 1047L756 1043M808 1043L809 1044L808 1043M816.667 1045.33L817.333 1045.67L816.667 1045.33M1048 1045L1049 1080L1070 1080L1064 1072L1065 1067C1049.98 1069.6 1055.88 1052.11 1048 1045M1066 1045L1068 1050L1066 1045z"/>
<path style="fill:#040404; stroke:none;" d="M956 1047L957 1048L956 1047z"/>
<path style="fill:#fcfcfc; stroke:none;" d="M774 1051L773 1057L777 1051L774 1051M1021 1052L1022 1053L1021 1052M788 1053L788 1056L791 1056L791 1053L788 1053M878 1054L877 1063C879.387 1059.98 880.161 1057.33 878 1054M1015 1055L1017 1057L1017 1055L1015 1055M1023 1055L1024 1056L1023 1055z"/>
<path style="fill:#040404; stroke:none;" d="M912 1057L913 1065L914 1065L914 1057L912 1057z"/>
<path style="fill:#fcfcfc; stroke:none;" d="M641 1060L642 1061L644 1058L641 1060M770 1060L771 1061L770 1060M813 1060L813 1065L814 1065L813 1060M672 1080L688 1080C685.298 1069.78 690.037 1069.27 693 1061C682.434 1065.06 672.566 1067.05 672 1080M772 1061L773 1062L772 1061M1063 1064L1064 1065L1066 1062L1063 1064M1010.67 1063.33L1011.33 1063.67L1010.67 1063.33M1086.67 1063.33L1087.33 1063.67L1086.67 1063.33M861 1067L861 1068C863.993 1067.94 865.346 1068.05 866 1065L861 1067M774.667 1067.33L775.333 1067.67L774.667 1067.33M775 1079L775 1080L792 1080C791.168 1076.5 786.507 1066.37 781.415 1069.14C778.448 1070.75 777.544 1076.46 775 1079M1079 1069L1078 1074L1081 1069L1079 1069z"/>
<path style="fill:#040404; stroke:none;" d="M578 1071L579 1072L578 1071z"/>
<path style="fill:#fcfcfc; stroke:none;" d="M1088 1071L1088 1076L1089 1076L1090 1071L1088 1071M1099 1071L1098 1080L1104 1080L1099 1071M869 1073L868 1076L869 1073M773.333 1074.67L773.667 1075.33L773.333 1074.67M862 1074L862 1076L864 1076L864 1074L862 1074M696 1075L690 1079L690 1080L700 1080L698 1075L696 1075M704.667 1075.33L705.333 1075.67L704.667 1075.33M794.667 1075.33L795.333 1075.67L794.667 1075.33M1070.67 1075.33L1071.33 1075.67L1070.67 1075.33M1111 1075L1113 1077L1113 1075L1111 1075z"/>
<path style="fill:#040404; stroke:none;" d="M643 1077L642 1080L643 1077z"/>
<path style="fill:#fcfcfc; stroke:none;" d="M828 1077L828 1080L830 1080L830 1077L828 1077M860 1078L859 1080L861 1080L860 1078M772.667 1079.33L773.333 1079.67L772.667 1079.33M1076.67 1079.33L1077.33 1079.67L1076.67 1079.33M1089.67 1079.33L1090.33 1079.67L1089.67 1079.33z"/>
</svg>
