<?xml version="1.0" standalone="yes"?>
<svg xmlns="http://www.w3.org/2000/svg" width="1920" height="1080">
<path style="fill:#fefefe; stroke:none;" d="M0 0L0 1080L1920 1080L1920 0L0 0z"/>
<path style="fill:#030303; stroke:none;" d="M630 69L629 73L628 73L627 70C617.897 74.3501 619.686 83.5438 618.576 92C617.849 97.5306 618.882 103.624 617.432 109C615.654 115.593 611.694 121.053 610.464 128C609.374 134.15 610.548 141.151 606 146L606 141C600.056 143.083 600.782 150.872 602 156C594.73 159.399 592.78 165.486 595 173L592 169L589 174C579.08 167.009 578.476 187.903 569 179L568 179L564 206L558 202L557 202L556 202L550 201L550 208L549 208L546 197L541 201L540 201L535 187L532 197L531 197C529.04 189.219 523.305 186.142 516 184L514 200L510 197L509 197C504.162 204.783 497.366 219.603 502 228L495 227L492 229L498 244L489 233L486 233L486 249L473 245L468 258L464 256C461.678 264.946 472.1 268.488 473 277C465.645 268.831 459.28 259.891 449 255L458 272L446 261L443 263C439.556 260.55 431.783 257.061 428 259C420.731 248.689 406.18 247.785 406 263C402.38 261.225 389.024 251.799 386.067 256.358C382.222 262.286 391.909 271.06 394 276L390 274C390.146 286.376 384.13 280.029 377 278L380 288L377 287L385.301 300.1L392.789 308.899L385 320C379.629 318.001 376.052 318.159 374 324L385 331L385 332C379.647 332.176 378.17 333.646 379 339C373.514 335.221 356.072 329.862 352 337L354 340L350 344L354 348C336.935 356.664 354.217 369.465 366 371L365 383L352 386C352.658 394.523 364.926 399.096 371 404L355 407L355 414C381.233 420.671 405.245 436.62 424 456C409.716 454.732 403.657 437.173 388 437L396 450L384 445L387 452C379.785 454.537 385.974 460.035 384.918 464.921C384.195 468.269 380.671 469.593 380 473C369.426 468.224 364.17 468.677 360 480C350.764 479.185 359.304 484.355 361 487L362 487L363 485L364 488L362 492L363 492L364 489C367.539 493.809 366.325 497.196 362 501C364.711 505.443 371.905 511.128 377 512C380.163 523.796 367.316 518.097 363 526L348 530L352 540C354.872 540.227 366.805 538.659 368.208 539.873C370.244 541.636 367.395 545.437 366.629 547.165C363.375 554.509 355.112 554.734 348 553C348.407 557.29 348.283 559.411 344 561L344 569L342 568L338 571C341.419 581.05 357.111 585.751 358.393 597.043C358.923 601.711 355.147 605.701 354 610L369.739 624.372L354 618L353 619L354 622L344 620L344 628L332 625C333.488 628.128 346.928 642.541 336.992 641.554C333.742 641.231 331.368 639.104 328 639L336 651L340 656L334 659C338.595 662.518 348.839 670.781 339.891 675.821C336.732 677.6 332.449 676.98 329 678L335 688C325.002 686.319 313.843 681.483 304 686C307.062 694.753 326.161 700.621 311 707L311 709C314.918 711.276 322.61 712.586 325.15 716.394C327.286 719.598 323.645 723.222 326.488 726.272C331.286 731.419 341.236 725.223 339 736L325 736.289L303 734L305 742C295.269 737.131 282.033 733.791 289 748C283.398 749.131 285.186 755.615 286 760L294 762L286 769C284.835 766.141 281.268 767.812 284 769L280 776L282 772L288 775L288 776L283 775L283 776L286 776C287.657 786.641 298.887 784.382 307 785L307 786C296.58 791.036 305.261 805.609 315 804C317.815 808.78 320.788 809.952 320 816L333 816C332.778 822.384 332.876 831.813 327 835L327 836L330 840C318.733 844.248 324.858 848.514 327 856C331.093 855.16 341.803 850.487 345.35 851.608C354.088 854.371 351.935 870.674 352 878L358 872L367 873C365.415 881.346 363.669 881.078 370 886L372 886L372 884L373 884L372 904L375 903L379 911C381.964 900.809 381.558 900.274 391 894L389 899L389 900L392 904L397 903C398.028 908.379 395.139 916.213 396.708 920.651C398.416 925.484 402.999 921.987 404 919C407.804 920.437 420.694 921.096 420.798 925.85C420.853 928.395 417.728 931.427 417 934L426 933L430 952C435.815 950.784 444.091 953.526 448 958C453.561 954.963 452.996 948.673 453 943L458 943C457.848 950.358 454.116 973.339 467.062 961.583C468.696 960.099 469.844 958.86 471 957L472 960L485 954L486 949L491 947C491.441 949.333 494.451 960.368 496 953L501 955L502 937L505 940L506 940C508.184 935.882 507.789 933.229 506 929L520 939L521 938L522 931L535 944L526 916L530 916C529.944 913.197 531.351 900.312 535.258 909.124C538.883 917.3 534.696 924.154 545 929L547 921L549 927L549 909L558 917L557 911L563 912L566 909L568 916L571 916L571 910L572 910L575 916L576 903L580 901L583 904L579 887L585 889L581.982 877L585 864L593 868L593 865C598.936 865.069 602.211 866.622 605 872L613.285 868.465L633 886L632 883L640.634 896.662L665 915.015L679 924.796L696 924C695.946 908.673 707.474 921.456 713.386 916.307C715.925 914.095 719.198 901.748 721 898C728.656 899.257 733.483 895.775 737 889L739 889C742.957 894.638 745.746 889.58 750.682 890.762C755.971 892.029 751.977 904.869 751 908L752 909C761.039 905.682 762.874 899.905 764 891L765 891C765.128 892.638 765.145 896.584 767.873 896.079C772.554 895.212 773.939 886.106 780 884.701C786.983 883.083 787.47 890.571 792.299 892.674C795.519 894.077 800.369 890.056 804 890L807 887L806 904L812 905C808.485 916.862 796.508 926.976 798 940L803 935C805.997 937.395 807.332 938.221 811 937C811.228 943.218 806.045 944.372 802.995 949.043C800.401 953.017 800.39 958.013 797.387 961.791C793.816 966.283 786.977 970.913 795 975L797 971L798 971C799.542 980.237 808.699 971.163 814 976L807 978C809.659 985.567 815.001 983.66 821 981L820 984L827 988L828 988L845 973L846 986L851 980L852 980L843 1000L849 996L850 1000L848 1003L864 995L864 996L854 1008C858.445 1007.25 860.276 1003.81 864.04 1001.64C867.641 999.571 872.215 1000.79 875.486 998.258C882.419 992.9 883.986 983.643 886.915 976C890.462 966.745 895.808 958.436 899 949L900 949C899.929 957.617 888.341 986.978 907 978L911 984L914 973L915 973L917 982L919 982C923.756 976.326 929.865 980.558 928 970L929 970L933 976L936 961L938 966L939 966L952 955L953 955L954 964L960 966C960.175 960.118 963.323 957.774 965.426 952.714C968.103 946.274 965.027 938.868 973 936C973.891 942.577 986.927 959.55 991 948L1004 970L1005 960L1007 960L1009 973L1013 971C1014.68 978.722 1013.15 983.366 1023 984L1024 978L1030 976L1031 976L1038 977L1043 953C1038.5 950.238 1037.5 944.165 1042.15 940.599C1047.75 936.298 1059.93 931.901 1067 931C1064.18 946.183 1072.79 941.866 1083 943.578C1088.57 944.514 1093.02 948.24 1099 949L1094 945C1097.68 937.729 1089.91 938.088 1089.33 931.957C1088.84 926.794 1093.76 921.812 1095 917L1114 936L1110 932C1113.84 929.498 1116.9 929.906 1117 935C1124.72 937.192 1129.16 930.952 1133 925L1134 925C1142.36 933.342 1151.2 927.187 1159.7 925.191C1162.64 924.502 1165.9 925.603 1169 925L1172 928C1173.3 912.26 1161.39 921.422 1155.59 911.942C1153.48 908.496 1156.1 901.718 1157 898C1167.79 902.255 1172.91 888.505 1182.93 887.782C1193.88 886.991 1195.91 897.051 1204.89 899.248C1208.43 900.115 1208.17 896.246 1208 894L1211 895C1214.77 887.148 1208.79 882.71 1208 875C1215.26 876.698 1221.81 879.528 1220 888C1232.53 891.029 1237.98 886.108 1244 900C1250.3 896.32 1245.75 879.264 1257 886L1258 875L1260 878L1264 875L1268 880L1269 880C1269.3 875.904 1270.28 873.857 1274 872L1275 875L1280 863C1282.41 868.604 1284.96 875.828 1291 878L1291 873L1294 874L1294 869L1297 870L1299 864L1298 856L1308 869L1310 850L1311 850C1312.94 855.988 1314.59 863.423 1317.42 868.972C1319.1 872.262 1322.2 872.744 1323 869C1332.62 871.855 1332.41 878.803 1338.8 884.393C1340.97 886.283 1352.65 889.2 1356 890L1356 872L1370 876L1368 869L1371 868L1366.59 852.058L1372.63 845.701L1373 837L1383 844L1383 838L1384 838L1391 840L1392 836L1393 836C1395.48 840.495 1398.69 839.812 1403 838L1405 844L1406 844L1407 841L1410 844L1409 833L1412 834L1408 817L1412 818L1409 812L1409 811L1409 810C1418.08 803.607 1406.31 780.722 1405 772L1423 788C1425.79 778.818 1420.72 774.186 1417.34 766C1410.6 749.62 1402.03 733.582 1396 717C1400.12 721.837 1405.61 727.411 1408.56 733.001C1412.54 740.56 1413.46 749.92 1422 754L1421 738L1427 750L1432 746L1435 748L1434 743C1439 740.446 1437.75 737.605 1436 733L1441 732C1442.29 733.609 1443.37 734.786 1445.06 736.005C1445.99 736.678 1446.99 737.387 1448 737.937C1458.04 743.401 1450.82 730.083 1457 728C1458.5 722.712 1456.43 708.025 1452 705C1459.82 701.845 1465.43 704.664 1472.85 703.487C1475.98 702.99 1477.02 700.003 1475 698L1475 690L1469 688L1469 687C1472.62 686.499 1482.66 683.166 1477.39 677.843C1471.96 672.35 1463.65 677.343 1461 668C1451.54 665.725 1457.08 660.349 1454.87 653.83C1451.67 644.413 1445.28 642.077 1436 642C1438.33 635.557 1436.28 629.568 1429 628L1434 621L1429 622C1428.17 614.705 1434.65 614.257 1438 609L1434 608L1453 593L1440 589L1444 590L1445 585L1456 583C1457.85 588.197 1467.48 601.087 1473 601C1475.09 614.952 1487.34 619.555 1497 627.278C1502.96 632.045 1506.34 637.787 1514 640L1515 637L1532 640L1530 636L1530 635L1545 636C1550 626.999 1539.67 621.243 1535.53 614C1527.39 599.761 1518.67 584.131 1519 567L1522 568C1521.9 564.391 1522.97 560.494 1522.05 556.996C1521.12 553.435 1517.09 549.04 1518.66 545.287C1521.09 539.468 1529.69 539.644 1535 539L1534 534L1543 534C1545.01 525.906 1541.44 511.225 1533 508L1533 505L1537 501L1532 500L1532 497L1536 496L1536 494L1530 491L1530 489L1537 486C1536.26 478.953 1530.76 475.407 1525 472L1525 471L1534 473C1535.14 465.074 1536.92 465.022 1545 464C1546.29 455.739 1554.31 457.562 1559.67 452.895C1564.52 448.674 1564.05 443.508 1571 440L1557 432L1557 427L1561 423L1541 420L1544 407L1535 399C1549.99 394.143 1544.64 388.258 1543 377L1520 375L1523 372L1523 371C1516.67 365.168 1512.65 368.783 1505 368L1511 357L1497 360.877L1467 364L1467 363L1484 359L1484 358L1478 356L1482 352C1480.15 348.911 1473.17 342.114 1473.65 338.757C1474.72 331.413 1482.12 333.484 1478 324L1472 327L1471 326L1472 323L1464 311L1473 308L1473 305L1460.96 294.724L1450.08 289.772L1448 275C1441.84 277.062 1435.97 274.938 1433 269L1437 268C1435.1 262.286 1436.01 260.154 1439 255L1417 264L1417 263C1421.49 259.837 1426.84 255.92 1426 250L1417.13 252.07L1407 248C1411.72 234.821 1397.1 232.313 1387 237L1386 233L1379 240L1377 240L1376 237L1370 240C1370.87 232.78 1366.82 223.566 1369.29 217C1372.37 208.791 1379.89 202.229 1384.81 195C1392.05 184.341 1398 167.814 1398 155L1395 156L1395 139L1391 142C1387.43 115.037 1368.94 149.887 1360.68 157.701C1355.13 162.94 1348.32 164.531 1345 172C1337.63 165.62 1325.96 172.704 1322 180L1318 178L1312 165L1308 167C1307.56 161.173 1303.31 157.513 1300 164C1293.05 163.081 1287.13 169.84 1285 176C1281.12 174.607 1280.31 176.155 1280 180L1279 180L1278 175L1274 182C1267.51 179.205 1265.5 179.254 1259 182L1260 192L1259 192L1254 178L1253 178L1254 184C1251.58 181.688 1247.57 174.458 1244 177L1243 177C1243 172.696 1240.4 162.868 1234 165C1232.58 165.474 1230.59 168.434 1229 168C1226.18 167.231 1226.21 159.088 1222 161C1216.41 163.543 1224.66 174.916 1217 173L1216 176L1213 171L1212 171C1209.39 183.727 1214.62 188.867 1200 191L1198 200L1197 200C1193.96 194.057 1189.09 193.442 1183 193C1182.28 197.556 1179.85 198.833 1176 201C1180.13 211.968 1185.36 215.057 1172 218L1177 230L1176 230L1168 229C1168.4 230.684 1169.13 232.336 1169.49 234.021C1172.13 246.694 1156.02 233.85 1153 233C1148.24 241.013 1145.9 245.774 1141 235L1139 235L1133 244C1132.8 238.699 1133.75 235.361 1138 232C1135.13 223.431 1127.04 236.35 1125 240L1123 240L1123 225C1118.23 225.753 1117.5 228.866 1113.79 231.312C1108.52 234.789 1104.45 231.801 1104 240L1100 241L1104 209C1093.33 206.554 1093.68 215.865 1092 224L1091 224L1091 209L1089 209L1084 218L1084 209C1078.55 210.895 1078.29 218.881 1078 224L1075 224L1076 215L1068 232L1066 232L1067 224L1066 224L1064 229L1062 229C1060.61 219.763 1066.27 212.264 1069 204C1060.14 202.161 1050.93 211.793 1047 219L1046 219C1046.04 206.219 1058.45 194.004 1055 182L1052 184L1052 177L1042 188L1044 164C1031.87 161.471 1042.76 148.187 1044 141L1038 140L1038 135L1033 142L1032 142L1032 135L1028 136L1026 115L1023 117L1019 114L1005.6 128.414L1001 139L998 148L1000 135C990.107 131.304 988.389 126.317 987 116C981.473 119.369 980.143 129.906 980 136L976 136L976 128C969.324 134.098 969.493 140.835 974 148L968 147C964.589 155.084 968.372 162.141 959 166C957.727 162.031 957.233 158.391 953 157C947.08 163.421 941.466 160.918 940 172L938 172L938 157L931 149L928 160L923 156L918 160L919 152L914 154L915 151L908 160C910.637 152.397 912.411 147.568 904 144L906 139L900 139L901 128L896 131L894 117C888.947 119.72 883.068 136.207 883 142L882 142C881.687 137.122 879.998 129.03 876 126C874.677 134.837 870.584 142.527 868.513 151C866.803 157.996 870.564 162.503 864 168C866.262 162.631 865.564 159.121 863 154L861 154L856 172L855 172L854 167L849 174C837.987 169.529 840 179.716 840 188L836 177L830 204L827 202L825 224L820 231L819 231L821.687 217L812 188L807 192L803 191C799.469 203.442 801.875 228.891 789 235L788 232L787 232L780 242C776.861 231.763 772.288 246.372 771 250L764 235L759 240L757 240L756 227L748 233L750 225L735 236L734 235L736 226C734.262 227.205 732.673 228.525 730.975 229.783C721.208 237.02 721.414 224.563 714 221L714 228L712 228L708 220L707 240L703 239L704 235L701 241L699 241L698 238C693.963 239.214 691.33 240.501 692 245L686 245C684.307 242.38 682.24 241.474 680 244L679 244C678.76 240.96 677.622 236.83 674 236.167C672.237 235.844 668.597 238.516 667.833 235.333C667.433 233.665 670.103 229.474 670 227C669.861 223.656 667.857 220.292 668 217C668.198 212.448 672.306 206.4 673.833 202C674.797 199.225 673.33 197.227 675 195L674 194L671 196C677.342 185.133 679.571 169.486 677.532 157C676.644 151.56 673.317 146.283 672.907 140.985C671.777 126.347 676.61 114.808 666 102L664 113L663 113L653 83L650 84L649 78L648 78L646 88L641 79C634.609 79.9442 634.631 73.8065 633 69L630 69z"/>
<path style="fill:#fefefe; stroke:none;" d="M894 132L893 138L895 138L894 132M1027 149L1026 152L1027 149M920 172L924 172L924 168L920 172M866 177L867 178L866 177M1263 181L1264 182L1263 181M804 192L805 193L804 192M808.333 193.667L808.667 194.333L808.333 193.667M830 204L831 205L830 204M1052.67 215.333L1053.33 215.667L1052.67 215.333M1090 229L1089 232L1092 232L1090 229M747 234L748 235L747 234M731 237L732 238L731 237M1106 238L1104 244C1106.55 242.35 1107.1 240.88 1106 238M681 244L679 253L680 253L681 251C686.541 256.151 687.862 246.565 681 244M788 253L777 277C785.91 271.944 789.786 263.068 790 253L788 253M429 259L430 260L429 259M432 262L437 269L432 262M1415 265L1408 267L1408 268C1410.57 267.998 1416.46 268.869 1415 265M486.333 266.667L486.667 267.333L486.333 266.667z"/>
<path style="fill:#030303; stroke:none;" d="M385 279L385 280L388 280L385 279z"/>
<path style="fill:#fefefe; stroke:none;" d="M475 279L476 280L475 279M775 279L776 280L775 279M385 334L385 335L389 336L385 334z"/>
<path style="fill:#030303; stroke:none;" d="M346.667 339.333L347.333 339.667L346.667 339.333z"/>
<path style="fill:#fefefe; stroke:none;" d="M382 339L383 343L384 343L382 339M1458 363L1458 366L1459 366L1458 363M1519 375L1520 376L1519 375M374 405L376 408L376 405L374 405z"/>
<path style="fill:#030303; stroke:none;" d="M1560 431L1561 432L1560 431z"/>
<path style="fill:#fefefe; stroke:none;" d="M396 450L399 452L399 451L396 450M424 456C424.38 461.025 426.375 463.164 431 465L432 464L424 456M436 467L437 468L436 467M441 471L441 472L444 472L441 471M398 563L398 564L404 564L407 560L398 563M381 563L382 564L381 563M395 563L396 564L395 563M390 565L390 568L393 568L393 565L390 565M340.333 651.667L340.667 652.333L340.333 651.667M1457.33 670.667L1457.67 671.333L1457.33 670.667M1459 672L1460 673L1459 672M1466 687L1467 688L1466 687M1394 707L1395 708L1394 707M1394 713L1395 714L1394 713M1428 723L1429 724L1428 723M1439 731L1440 732L1439 731M1404 771L1405 772L1404 771M1420 783L1420 784L1423 784L1420 783M682 843L682 844L690.703 875L706 899L707 899C707.292 884.828 722.639 873.93 726 861C722.568 860.673 721.109 859.401 718.428 857.295C716.289 855.614 712.201 855.357 711.032 852.732C709.567 849.44 712.385 846.022 713.312 843C715.086 837.22 715.47 828.286 712.076 823.059C708.062 816.875 691.51 819.056 688.046 825.3C684.727 831.28 687.614 836.581 682 843M1381 835L1383 838L1384 835L1381 835M1391 835L1392 836L1391 835M584 863L585 864L584 863M591 863L592 864L591 863M1288 863L1289 864L1288 863M1290.67 871.333L1291.33 871.667L1290.67 871.333M632 879L633 880L632 879z"/>
<path style="fill:#030303; stroke:none;" d="M362 883L363 884L362 883z"/>
<path style="fill:#fefefe; stroke:none;" d="M1343 883L1344 884L1343 883M374 895L375 896L374 895M392 899L393 900L392 899M814 899L814 902L815 902L814 899M711 905L712 906L711 905M525 913L525 916L526 916L525 913M810 919L811 920L810 919M1143 921L1144 922L1143 921M1150 923L1150 924L1154 924L1150 923M503 927L504 928L503 927M900.333 943.667L900.667 944.333L900.333 943.667M955 946L954 950L955 946M798 969L799 970L798 969M827.333 970.667L827.667 971.333L827.333 970.667M1022 970L1021 973L1024 971L1022 970M1029.33 970.667L1029.67 971.333L1029.33 970.667z"/>
<path style="fill:#030303; stroke:none;" d="M788.333 973.667L788.667 974.333L788.333 973.667z"/>
<path style="fill:#fefefe; stroke:none;" d="M825 974L820 979L820 980C823.582 979.416 826.033 977.883 825 974M852 979L853 980L852 979M849 995L850 996L849 995z"/>
</svg>
