<?xml version="1.0" standalone="yes"?>
<svg xmlns="http://www.w3.org/2000/svg" width="1920" height="1080">
<path style="fill:#fefefe; stroke:none;" d="M0 0L0 1080L1920 1080L1920 0L0 0z"/>
<path style="fill:#030303; stroke:none;" d="M630 80L629 84L623 81L619.401 110L608 156L606 156L605 148L603 148L599 163L598 163L596 161L595 174L592 171L591 171L589 180L585 179L584 182C579.022 177.443 576.968 184.603 571 184L564 209L556 208C553.282 204.936 550.91 207.196 549 210C547.454 204.561 546.387 196.871 540 202L536 193L534 193L534 204L528 194L525 198L524 198C523.601 185.721 516.007 191.672 516 201L508 201C507.697 207.63 507.046 218.379 501 222C502.386 226.812 502.64 230.078 497 231L499 234L493 231L499 244L488 236L487 255L486 255L480 252L474 247L473 256L467 259L466 263L474 277L455 261L458 274L444 263L444 268L443 268L442 264C438.199 265.265 438.232 267.312 439 271L425.83 258.502L407 257L410 261C404.769 269.629 397.125 256.451 391.473 259.327C386.936 261.636 394.9 275.727 395 280L392 279L392 280L396 284L393 285L394 289L380 282L385 300L389 299L400 311L380 326L391 335L391 336L381 334L384 344L383 344C375.178 330.802 362.268 339.666 352 341L360 347L351.042 356.945L358.91 364.51L376 384L367 383L359 392L374 398L373 404L376 401L384 408C374.575 407.615 370.323 405.9 362 411C367.083 417.826 376.743 420.385 384 424.565C399.071 433.245 424.431 448.903 432 465C417.17 461.044 408.528 437.94 391 439L401 454C396.295 451.062 392.571 447.824 387 450L384 454L388 468L380 471L385 472L362 475L362 476L365 480L361 481L367 485L367 503L375 508L377 507L381 520C372.636 520.661 367.127 523.044 359.965 527.027C357.082 528.63 351.8 530.263 354.223 534.629C357.75 540.985 368.805 536.142 369.716 541.074C371.127 548.707 361.642 554.934 359 561L356 560C353.891 568.484 356.113 569.032 347 565L345 574L342 573L354.826 587.04L360 606L355 607C359.827 614.416 363.605 618.833 372 622L371 627L356 620L357 624L345 623L347 628L336 629L336 632L345 639L345 640C340.081 642.469 337.207 642.883 332 641C333.82 649.604 347.665 650.263 337 659L349 670C344.959 676.521 339.513 678.672 332 679L332 680L339 690L316 685.019L308.345 687.318L321 704L313 707L313 708C317.282 710.589 323.619 711.426 326.177 716.287C327.838 719.443 324.676 722.696 327.373 725.682C332.9 731.802 340.221 724.735 340 736L306 735C305.378 743.131 298.351 741.001 292 741L288 752L291 760L294 768C287.814 768.994 283.932 776.275 290.152 780.713C298.537 786.695 311.726 778.572 319 786L316 784L315 784L305 790C308.996 798.792 317.258 807.885 324.545 814.106C327.418 816.559 332.918 814.156 334.883 817.357C337.832 822.163 334.443 831.467 331 835L328 847L333 852C345.191 849.659 350.281 847.623 355 862L352 863L352 864L355 865L355 874L368 872L366 882L378 881L379 882L379 884C372.484 887.823 369.9 892.722 372 900L375 899L376 907L381 897C385.555 897.77 387.609 895.876 391 893L395 902C403.204 902.371 398.889 914.43 401 920L403 920L404 917C410.264 921.054 413.515 919.553 420 917L420 922L423 928L428 925L432 944L450 952L452 941L455 942L456 937L457 937L460 960C465.2 958.004 470.559 955.15 473 950C478.571 953.746 483.824 949.411 486 944L492 945C493.31 949.291 495.805 949.614 500 950L499 934L505 936L500 919L501 919L503 926L504 923C511.012 930.14 517.325 939.371 517 923L532 938L524 910L527 915L528 915C528.55 912.831 528.445 911.225 528.559 909.015C528.77 904.899 532.461 903.71 534.907 907.233C539.036 913.183 532.993 922.317 543 924L543 917L544 917L545 920L546 917L547 917L548 924L550 924L546 904L554 912L556 912L558 908L562 910L563 905L564 905L568 912L570 912L571 909L575 912L579.141 898.83L578 885L584 888L580.734 876L584 862L585 862C586.858 865.287 588.195 866.33 592 866L591 863L605.196 868.279L613.961 867.85L629 882L630 882L634 879C636.287 894.743 650.196 902.267 662 909.563C672.679 916.164 676.26 922.132 689 916L686 909L694 910L693 907L705 908C704.373 894.304 693.226 883.58 687.111 872.015C683.836 865.82 685.3 857.772 683.686 851C682.64 846.613 679.518 843.657 679 839L683 839C684.108 834.886 684.698 827.214 687.252 824.093C692.659 817.489 712.596 813.372 717.968 822.34C722.029 829.121 713.523 842.482 714.982 849.856C715.648 853.219 722.124 856.333 724 860L730 858C729.517 864.39 724.804 867.092 720.927 871.718C716.029 877.564 708.544 890.355 709 898L711 898C716.423 892.659 720.436 894.798 727 894L727 890C732.062 895.408 732.973 890.188 738.089 888.236C742.446 886.574 749.979 886.106 755 885C753.953 890.64 751.809 901.227 757 905L766 888L766 892L786 880L785 884L793 893L795 893L807 885C807.11 890.361 805.423 899.757 811 902L817 895L807 919L814 916L807 920L799 936L802 933L804 933L811.503 939.317L806.641 948L798 965L800 968L812 961L811 968C814.798 971.07 815.568 973.186 815 978L834 963L834 964C829.575 966.846 827.946 971.938 829 977C837.011 977.542 838.761 974.332 846 971L848 981L855 979C847.303 991.394 852.506 993.368 864 995L862 1001C867.424 999.456 870.97 995.141 873 990L875 993C880.532 989.338 881.934 981.929 884.089 976C888.664 963.414 893.101 944.567 906 939C904.993 948.827 895.93 961.317 899.773 971.678C901.133 975.345 908.377 973.182 910.436 971.262C913.523 968.381 912.989 962.826 913 959L914 959C915.187 967.066 918.022 971.518 926 974L925 961L931 968L935 958L936 958C940.656 962.278 943.18 956.488 948.039 955.438C952.173 954.545 954.447 957.301 957 960C964.969 950.103 966.926 939.44 970 927L971 927L976 940L979 937L981 937C981.87 941.404 982.397 944.604 987 946L988 941L1001.78 957.397L1012 966L1016 965L1021 979C1021.26 976.725 1021.33 967.22 1025 972L1026 972L1026 959L1033 965L1032 945L1042 931L1045 931C1048.76 936.78 1061.33 930.398 1067 929C1068.03 933.729 1065.78 938.894 1071 941L1073 930L1074 930C1075.47 939.545 1083.9 940.096 1091 944L1087.31 931.557L1093 915L1113 926C1115.51 919.028 1124.69 907.278 1124 922C1127.25 922.605 1141.28 927.906 1142.08 923.846C1142.54 921.542 1140.08 918.537 1140 916L1144 926L1149 926L1146 924L1167 924L1152.47 910.01L1157 892L1160 896C1166.07 894.471 1170.08 890.98 1172 885L1173 885L1173 888L1183.72 882.026L1200 887L1205 893C1210.77 889.235 1207.37 883.498 1204 879C1207.58 877.563 1207.88 875.714 1208 872L1220 869L1218 876L1222 875C1222.4 887.21 1231.83 879.719 1238.61 883.411C1241.62 885.049 1243.16 889.755 1246 892L1248 875L1249 875L1256 880C1256.15 875.451 1257.25 873.577 1261 871L1268 875L1280 860L1289 874L1289 868L1293 870C1294.26 867.166 1295.93 856.002 1300.02 856.63C1302.98 857.087 1304.97 861.002 1308 862L1308 845L1321 865L1322 858L1323 858L1325 864L1328 862C1329.47 867.125 1333.29 869.027 1338 871L1336 880L1342 880L1342 877L1343 877L1351 882L1353 867L1362 872L1365 870L1361 863L1365 864C1364.9 860.664 1363.3 857.245 1363.51 854C1364.15 844.224 1368.53 841.466 1365 831L1380 836L1380 832L1396 836L1396 832L1405 834L1403 826L1406 828L1399 806C1409.43 812.389 1404.29 796.226 1403 791L1406 792L1400 763C1407.21 770.137 1408.06 780.988 1420 780C1419.72 754.479 1394.21 732.089 1394 707L1395 707C1395.89 718.853 1403.59 722.484 1408.86 732.004C1412.28 738.178 1412.1 745.682 1420 748L1420 737L1429.06 745.079L1438.06 732.281L1452 736L1448 725L1452 726L1450 722C1454.44 715.448 1448.56 709.115 1450.45 703.232C1450.95 701.651 1452.52 700.968 1454.02 700.719C1458.69 699.949 1463.69 701.977 1468.37 700.427C1472.89 698.928 1471.43 695.384 1468 694L1470 690L1464 688L1474 684L1474 680L1455 672L1457 669C1451.37 665.628 1445.8 653.293 1446 647L1428 640L1426.58 617.104L1446 593L1438 594C1437.18 583.492 1441.34 583.905 1449 584.429C1451.23 584.581 1453.46 583.124 1455.62 584.157C1460.78 586.617 1465.83 595.352 1469 600L1471 597C1473.69 602.097 1474.6 609.847 1481 611C1484.61 619.532 1491.39 620.35 1497.91 625.684C1501.28 628.443 1503.82 633.159 1508 634.778C1512.49 636.518 1519.99 635.373 1525 636L1525 631L1542 631C1541.69 618.298 1528 605.221 1522.33 594C1516.89 583.258 1517.8 570.312 1519.25 559C1520.41 549.955 1511.48 536.803 1528 540L1531 536L1529 533L1535 528L1540 530C1542.42 521.798 1538.09 518.613 1533 513L1536 512L1536 510L1531 508L1534 496L1527 492L1536 486L1524 471L1532 472L1532 464C1541.33 465.794 1549.26 454.314 1559 452L1566 438L1553 432L1557 425C1548.62 421.812 1543.93 421.295 1535 422L1535 421L1538 420L1538 407L1534 397C1540.09 395.787 1543.72 393.365 1545 387L1540 386L1540 381L1521.04 377.417L1512.9 371.472L1498 372L1506 364L1506 363L1507 360L1507 359L1467 364L1467 363C1471.83 362.753 1479.23 362.047 1481 357L1474 356L1474 355C1483.36 349.702 1472.54 345.782 1473 339.089C1473.32 334.379 1478.42 332.654 1478 327L1460 322L1459 318L1464 316L1458 312L1469 307L1469 305L1457.96 294.603L1449.19 289.852L1447.14 278.643L1431 274L1436 268L1432 264L1435 257L1407 268L1407 267C1415.35 265.056 1420.98 260.753 1425 253L1406 248C1408.18 240.223 1404.9 234.264 1396 238C1394.98 233.286 1389.58 236.307 1386 237L1385 234L1370 240C1369.7 234.123 1366.53 225.077 1367.72 219.714C1369.45 211.87 1377.4 204.495 1381.81 198C1388.68 187.874 1396.74 170.276 1397 158L1396 158L1394 160L1392 145L1391 145L1389 147C1388.56 144.95 1387.94 142.982 1387.39 140.96C1385.6 134.397 1381.53 132.631 1377.32 139.019C1373.64 144.622 1362.31 163.411 1355 162L1346 172C1335.84 170.495 1326.91 173.591 1321 182L1314 177L1311 167L1308 171L1307 171L1306 163C1298.41 161.877 1281.54 174.95 1280 182L1279 182L1277 177L1276 177L1274 184L1268 179L1267 179L1263 184L1261 183L1261 192L1256 182L1253 188C1251.15 182.565 1249.43 177.738 1243 180C1241.27 167.525 1231.17 171.748 1225 164L1223 164C1220.59 171.905 1221.34 178.002 1212 174L1214 191L1202 194L1204 200L1199 199L1200 202C1195.04 197.853 1180.75 191.07 1180.3 204.104C1180.14 209.029 1184 214.383 1184 220L1176 222L1181 232C1169.93 230.073 1175.96 237.357 1172.71 244C1170.24 249.035 1165.79 252.413 1161 255L1155 240L1138 252L1141 244L1140 243C1134.19 244.659 1132.19 242.98 1132 237L1127 242C1121.35 240.043 1118.66 240.133 1113 242L1112 237L1102 250L1102 245L1100 248C1091.35 242.887 1105.24 223.1 1098 214L1097 214C1092.27 221.067 1094.03 232.929 1084 234C1090.49 229.634 1090.94 223.416 1091 216L1084 220L1081 217L1078 226L1072 223C1070.11 228.523 1062.72 238.106 1061.1 225.998C1060.14 218.839 1064.33 211.925 1064 205L1053.26 219.812L1043 231L1042 231L1050 192L1046 192L1047 189L1037 193L1038 185L1037 185L1035 189C1034.05 183.162 1031.9 174.846 1032.72 169C1033.38 164.237 1039.55 159.647 1034 156C1037.57 144.522 1032.9 145.237 1026 152L1023 129L1014 137L1012 133L1010 133L1008 142C1001.45 143.068 1001.14 149.768 997 154L998 142L990 135L990 138L989 138L986 129L984 129L982 144L977 140L976 140L967.308 163.891L956 172C949.178 168.719 948.607 170.687 943 175L944 184C935.18 185.055 935.394 180.951 936 173L930 172L929 163L923 175L922 175L923 161L921 161L920 164L918 164C916.608 160.006 915.321 157.713 911 157L911 164L908 164C908 155.738 908.297 150.201 901 145C897.135 149.017 895.399 146.93 896 142L891 135L888 135L883 156L882 156L880 143C874.463 146.67 876.003 153.365 874.362 159C873.079 163.407 868.518 165.965 867.472 170.129C866.335 174.655 868.168 181.155 868 186L867 186L859 169L852 188C843.339 189.41 844.666 197.021 843 204L836 193L837 216C833.326 216.508 834.011 220.81 834 224L832 224L832 219C826.185 220.838 827.202 226.913 825.756 232C824.148 237.659 820.45 245.26 817 250C818.066 236.605 825.905 210.187 812 201L808 205C805.121 196.422 800.628 208.307 800.184 212C797.735 232.39 792.261 254.524 785 274C780.369 273.93 778.432 276.804 777 281L775 281L774 280L792 239L791 238L786 244L783 241L766 254C764.643 247.047 766.013 237.246 756 244L752 240L754 231L747 235L748 227L734 237L734 231C729.698 231.922 731.793 236.371 731 240L730 240L728 232L727 232L720 238C716.791 220.347 698.452 247.378 701 256L698 253L695 254L694 251L692 251L689 263L687 253L682 256L679 254C678.941 250.692 677.918 231.554 671 239C666.753 235.234 669.252 232.902 669.542 228C669.765 224.251 667.64 220.924 668.265 217.089C669.103 211.944 672.21 207.272 672.839 202.001C673.161 199.3 671.447 197.15 671.627 194.576C671.9 190.666 674.982 186.958 675.671 183C676.946 175.679 676.507 166.418 675.907 159C675.42 152.995 671.363 148.025 671.133 142C670.717 131.137 675.548 117.395 666 109L664 117L663 117L649 87L648 87L646 100L645 100L639 90L638 93L637 93L630 80z"/>
<path style="fill:#fefefe; stroke:none;" d="M982.333 145.667L982.667 146.333L982.333 145.667M891.667 146.333L892.333 146.667L891.667 146.333M900 152L899 155L900 152M883 160L883 165L884 165L883 160z"/>
<path style="fill:#030303; stroke:none;" d="M1046 187L1047 188L1046 187z"/>
<path style="fill:#fefefe; stroke:none;" d="M1214 191L1215 192L1214 191M669 197L669 202L670 202L669 197M1033 203L1034 204L1033 203M836 217L837 218L836 217M746 235L747 236L746 235M1112 243L1113 244L1112 243z"/>
<path style="fill:#030303; stroke:none;" d="M696 244L697 249L698 249L696 244z"/>
<path style="fill:#fefefe; stroke:none;" d="M763 249L763 253L764 253L763 249M1182 251L1185 259L1186 259L1182 251z"/>
<path style="fill:#030303; stroke:none;" d="M468 255L469 256L468 255z"/>
<path style="fill:#fefefe; stroke:none;" d="M765 255L766 256L765 255M470 259L471 260L470 259z"/>
<path style="fill:#030303; stroke:none;" d="M464 261L465 262L464 261M434 264L437 264L436 262L434 264z"/>
<path style="fill:#fefefe; stroke:none;" d="M486 266L486 268L488 268L488 266L486 266M439 271L440 272L439 271M459 276L460 277L459 276M474 277L476 280L474 277M1458 363L1458 366L1460 366L1460 363L1458 363M1455 365L1456 366L1455 365M364 389L364 392L367 392L367 389L364 389M376 399L377 400L376 399M388 453L388 456L391 455L391 454L388 453M1528 463L1529 464L1528 463M436 467L437 468L436 467M441 470L444 472L444 471L441 470M1523.33 472.667L1523.67 473.333L1523.33 472.667M369 485L372 488L369 485M1527 487L1528 488L1527 487M1527 501L1528 502L1527 501M407 557L387 568C395.67 572.161 402.403 565.074 409 560L407 557M379 561L385 572L385 559L379 561M394 573L396 576L394 573M360 606L363 608L363 607L360 606M344 629L345 630L344 629M1450.67 671.333L1451.33 671.667L1450.67 671.333M1449.67 699.333L1450.33 699.667L1449.67 699.333M1447 719L1448 720L1447 719M1428 721L1427 724C1429.57 723.449 1429.86 722.86 1428 721M1444 723L1445 724L1444 723M1434.67 727.333L1435.33 727.667L1434.67 727.333M315 737L316 738L315 737M1417.33 738.667L1417.67 739.333L1417.33 738.667M684 811L684 812L687 812L684 811M680 815L677 817L680 820L680 815M683 817L681 820L685 820L683 817M1402 824L1403 825L1402 824M1395 831L1396 832L1395 831z"/>
<path style="fill:#030303; stroke:none;" d="M324.667 847.333L325.333 847.667L324.667 847.333z"/>
<path style="fill:#fefefe; stroke:none;" d="M1288 863L1288 868L1289 868L1290 863L1288 863M786 879L787 880L786 879M373 895L374 897L375 897L376 895L373 895M1117 907L1115 912L1117 907M1070 923L1072 925L1072 923L1070 923M1072.33 926.667L1072.67 927.333L1072.33 926.667M862.667 943.333L863.333 943.667L862.667 943.333M955 945C953.487 949.082 953.757 951.361 958 953L955 945z"/>
<path style="fill:#030303; stroke:none;" d="M1041 954L1041 956L1043 956L1043 954L1041 954z"/>
<path style="fill:#fefefe; stroke:none;" d="M1016.33 963.667L1016.67 964.333L1016.33 963.667M855 991L856 992L855 991z"/>
</svg>
