<?xml version="1.0" standalone="yes"?>
<svg xmlns="http://www.w3.org/2000/svg" width="1920" height="1080">
<path style="fill:#fefefe; stroke:none;" d="M0 0L0 1080L1920 1080L1920 0L0 0z"/>
<path style="fill:#030303; stroke:none;" d="M631 120L629 124C622.347 122.464 620.69 129.798 618.865 135C614.39 147.753 610.735 160.74 608 174L606 174L605 171C599.194 176.093 598.02 183.632 598 191L597 191L595 185C589.851 188.156 590.046 194.434 590 200L587 199L586 204L585 204L583 199L581 199L580 202L578 202L576 198L575 198C567.365 207.675 571.153 215.904 568 226L567 226L562 221L561 225L558 223L558 230L555 220L551 222C544.33 208.031 538.062 221.167 528.039 220.123C524.046 219.707 522.505 215.833 518 216L517 213L516 213L522 232C512.038 230.654 514.471 238.234 513 245L511 245L508 241C505.869 245.277 501.855 248.162 500.569 253C499.711 256.226 501.731 262.14 498.647 264.364C494.589 267.291 488.431 257.339 484.13 256.906C474.592 255.946 480.657 277.649 481 282L465 276L474 296L452 279L451 284L433 282L430 273L428 275L427 275L422 273L422 277C407.812 276.51 409.799 283.188 414 294C406.551 291.244 397.566 300.263 407 302C405.746 308.737 410.24 310.423 412.222 316.089C415.03 324.117 408.193 330.745 418 336L402 339L402 340C404.767 343.229 402.014 344.441 400 341L394 348C384.559 346.069 386.201 349.503 379 354L379 352L377 352L376 356L381 360C373.989 364.676 391.606 376.46 395 380L385 379C389.118 384.26 395.719 393.179 395 400C399.499 403.023 406.921 405.578 405 412L415 424C405.965 419.801 400.28 415.001 390 415L390 420L388 418L387 418L402.039 434.286L438 468C424.079 468.743 416.822 452.905 404 449L410 464L396 457L392 471C396.256 473.472 395.278 475.59 395 480L377 479L383 487L381 492L388 495L388 496L382 497L382 499C387.772 501.311 393.029 512.313 396 518L373 527L375 534L380 533L382 536L379 537L379 539L388 537C386.505 542.2 380.24 542.86 378.89 547.22C377.796 550.756 382.556 551.665 385.001 551.7C392.619 551.808 397.207 547.913 405 551L401 556L408 553L413 564L424 565L422 572C428.438 573.854 430.701 571.801 435 567L442 571L441 584L430 583L430 588L423 587L423 590L422 590C413.304 585.471 402.838 591.277 395.325 586.958C391.692 584.87 388.544 576.255 383.319 577.752C379.878 578.737 381.698 584.596 382 587L368 581L365 588C371.766 593.508 373.476 599.819 375 608L371 607L372 612L367 611C368.105 620.917 386.647 632.421 367.002 631.469C364.662 631.356 362.341 631.094 360 631L364 640L354 639C359.481 644.539 356.973 647.418 351 651L355.711 660.385L354.731 667.089L361 684L349 687L351 700C343.421 697.927 332.491 690.377 328 700C330.806 702.402 331.342 703.545 330 707L330 708C333.523 713.563 334.116 717.664 333 724C340.379 725.976 351.087 733.534 338.999 738.517C332.801 741.072 326.393 739.505 320 739L322 744L313 746C315.687 752 311.896 753.308 311.542 758.946C311.362 761.802 314.58 763.107 314.535 765.69C314.467 769.652 309.553 771.308 312.184 775.856C315.806 782.12 322.888 775.94 327.981 777.644C332.577 779.181 332.793 784.075 334 788C330.369 790.389 331.561 793.099 335 795L333 808L341 807C343.066 810.245 347.389 810.862 348.384 815.019C349.396 819.248 345.893 821.989 345.816 825.911C345.708 831.46 358.368 838.655 363 838L371 860L380 855C377.322 859.352 373.615 871.603 383 868C383.086 872.028 383.455 884.268 386.028 887.172C387.744 889.109 392.601 889.105 395 890.099C403.289 893.533 408.895 896.287 414 904C418.604 902.06 420.732 901.818 424 906L428 903C431.395 903.947 435.993 904.18 438.772 906.473C443.785 910.608 447.228 924.209 455 913C460.894 917.494 462.893 921.146 465 928L467 924L473.88 927.099L492.731 914.74L497 900L501 911L506 904L512 904L513 904L520 912L517 895L520 900L528.579 896.055L539 906L543 890L547 894L548 894C552.254 891.686 558.644 899.329 560 893C562.593 894.8 565.081 897.267 566 893L570 894L568 885L571 886L568 869L576 875L575 859L576 859L577 862L578 862C578.848 857.234 580.849 858.011 584.611 856.333C597.139 850.746 602.415 861.586 614 865.528C617.685 866.782 626.949 870.879 628 866C639.047 875.401 642.495 886.472 658 888L656 877L669 874L670 871L673 872L664 849L669 850L654 827L666 820L660 809L664 808C663.783 803.352 663.971 800.809 669 800C668.756 797.597 666.972 793.848 667.657 791.562C669.791 784.44 679.283 788.311 672 778C682.651 777.655 674.767 790.72 673 796L697 788L699 793L709 791L706 800C710.184 798.893 715.517 796.548 719.911 797.407C731.762 799.727 721.806 809.043 717 812L717 813L750 824L735 827L735 828L738 829L738 830C733.777 831.13 731.901 832.665 731 837C736.996 837.894 737.448 841.232 733 845C734.501 849.741 739.556 853.082 744 855L742 861L751.039 868.659L758.982 866.917L767 875L768 875C776.32 867.284 782.328 871.279 792 869L797 876L811 871C811.18 878.437 815.773 881.417 820 887L821 887L823 885C829.35 897.631 816.321 904.095 820 918L828 910L823 930C836.956 925.236 840.909 929.7 845 943C849.858 941.253 851.494 941.822 856 944L858 935C864.42 937.521 866.919 941.186 867 948L871 946C871.287 954.727 881.529 953.377 886.009 947.672C890.948 941.383 890.842 928.64 891 921L902 915.65L913 920L914 917L917 917L917 927C927.277 926.952 927.931 923.831 936 918C936.013 922.6 937.061 933.177 944 929L945 929C951.902 942.382 956.392 924.658 958 918L960 920C963.991 917.859 964.418 913.273 968.044 910.951C981.741 902.182 988.464 924.027 998 927L1003 918L1012 922C1013.66 913.763 1020.24 913.253 1025.72 908.363C1029.08 905.367 1032 900.506 1035 897C1037.6 902.717 1052.05 906.979 1056 901L1064 903L1065 907L1067 907L1068 906L1068 900C1080.93 907.652 1070.2 884.785 1070 881C1075.42 885.218 1078.39 892.578 1086 891L1086 896C1095.42 895.973 1102.37 892.237 1095 883C1100.83 884.207 1105.45 891.012 1111 886C1114.21 888.247 1133.79 895.302 1137.4 892.882C1140.12 891.059 1140.81 882.183 1142 879L1145 880L1147 875C1157.06 874.831 1163.38 869.395 1172 865C1178.29 873.632 1186.12 849.845 1192.51 848.769C1194.5 848.435 1202.45 854.855 1205 856C1209.67 849.391 1212.09 840.522 1218 851L1225 845L1226 850C1234.66 846.427 1237.33 851.229 1246 852L1248 845L1255 846L1257 852L1259 852C1265.23 841.488 1279.01 847.972 1289 848L1284 835L1290 834L1291 838C1297.24 832.948 1302.34 829.648 1310 834L1311 834L1313 823L1327.57 827.483L1334 838L1334 833C1340.22 836.751 1343.14 832.742 1346 827L1350 828L1351.24 813.36L1376 811C1372.15 800.2 1366.02 767.736 1384 772L1378 753C1382.73 753.11 1395.91 754.883 1399.4 751.397C1402.56 748.229 1400.35 741.736 1399.6 738C1397.11 725.539 1392.11 717.855 1394 705L1397 705C1397.83 711.45 1399.05 718.002 1406 720L1407 710L1414 722L1418 720L1419 723L1422 714L1427 716C1428.22 710.825 1427.06 707.033 1432 704L1428 692L1436 694C1435.68 676.75 1429.55 661.575 1411 658C1411.4 648.774 1408.34 636.595 1399 632C1402.14 628.007 1412.99 620.258 1406 616L1406 614C1419.02 608.496 1425.16 607.288 1420 591L1426 592L1428 576L1433 578L1434 574C1439.78 575.678 1445.14 579.308 1451 577L1461.12 587.847L1468.73 589.488L1483.32 607.61L1503 616C1504.18 613.54 1504.77 610.274 1507.23 608.758C1510.25 606.904 1516.55 607.792 1517.67 603.769C1519.62 596.715 1512.71 589.655 1509.83 584.004C1507.43 579.304 1510.11 576.527 1509.03 571.999C1507.46 565.39 1502.1 559.679 1502 553C1504.41 553.446 1508.24 554.113 1508.98 550.771C1509.96 546.356 1504.13 543.449 1504.48 538.961C1504.97 532.561 1509.69 533.65 1513.43 530.811C1517.55 527.687 1518.94 522.738 1524 520L1524 518C1512.5 511.161 1521.13 509.774 1520.46 500.039C1520.05 493.935 1510.97 488.254 1522 486L1524 479L1520 478C1520.06 472.466 1517.46 467.58 1512 466C1513.73 460.527 1519.04 460.925 1524 460L1522 455L1543 444C1533.64 432.773 1530.76 420.367 1513 420C1517.01 415.269 1528.17 401.232 1521 396L1522 394C1517.64 392.181 1513.35 392.417 1509.05 391.022C1500.52 388.25 1493.92 380.619 1484 384L1478 375L1489 372C1482.98 360.057 1454.86 367.91 1444 368L1444 367L1468 360L1468 359C1462.88 356.895 1462.96 354.258 1468 352C1465.67 343.088 1461.35 344.711 1455 348L1466 336L1465 333L1459 335C1456.51 330.275 1453.04 328.999 1448 328C1450.12 321.981 1451.76 316.139 1444 314L1453 308C1450.71 303.09 1446.5 299.494 1443.47 295C1441.38 291.909 1441.92 287.146 1439.93 284.644C1436.33 280.109 1425.2 285.664 1422 288C1424.77 280.886 1429.14 276.723 1419 276L1425 265L1411 273C1410.53 269.787 1407.6 271.29 1405 272C1407.54 263.066 1415.17 265.779 1413 255L1404 258C1403.48 248.069 1400.39 243.411 1393 238L1384 243L1383 240C1380.4 240.455 1377.65 241.752 1375 241.753C1357.04 241.762 1371.56 213.43 1369 207C1380.68 199.741 1381.81 187.577 1385.99 175.999C1388.09 170.197 1386.19 163.311 1379 166C1374.95 145.591 1358.29 164.799 1353 175C1344.75 173.589 1339.78 180.745 1333 184C1328.18 176.77 1322.08 184.7 1320 190C1313.21 185.662 1310.27 177.546 1301 180L1296 173L1295 183C1291.5 181.767 1290.33 182.559 1289 186C1281.54 184.702 1279.46 188.826 1274 193L1270 185L1268 185L1263 196L1256 191L1256 202L1249 189C1242.59 189.233 1227.44 167.849 1227 186L1220 185L1216 209L1212 206L1211 206L1193 208C1192.02 213.922 1192.87 218.86 1196 224L1192 223L1194 249C1190.29 244.982 1187.9 241.038 1182 242L1193 277L1183 262L1182 269L1181 269C1176.1 260.359 1173.2 268.851 1171 274L1170 274L1162 269L1160 279L1162 292L1146 287.806L1131.03 292.861L1125 287C1126.22 279.476 1122.27 273.23 1115 279L1114 276L1104 282L1106 280L1106 279L1086.54 266.826L1083 253L1080 256L1080 249L1076 252C1070.59 250.66 1064.86 253.834 1065 246L1057 249L1057 246L1049 243L1048 243L1037 250L1036 250L1037 230C1031.22 232.902 1028.1 232.033 1022 231L1017 241L1012 242L1011 239L997 239L1004.35 216L1004 202L992 209L995 203C988.53 197.608 988.569 205.536 983 206C979.679 206.277 976.607 203.574 977 202C972.083 202.272 966.843 202.653 964 207L963 207L961 203L959 203L936 232C933.898 223.231 928.899 219.112 923 213L919 214C917.182 209.667 908.988 198.29 903.125 201.238C897.982 203.823 897.215 213.001 897 218L891 211L887 232L885 228L882 240C875.547 240.743 874.578 246.198 874 252L866 245L860 261L859 261L854 245C849.906 247.366 845.252 252.201 844.279 257.015C842.463 265.992 847.355 278.743 833 274C827.724 283.104 825.416 280.076 823 272C809.224 274.112 814.858 258.961 806.775 255.318C801.579 252.976 798.637 259.526 796.742 262.985C791.508 272.538 784.245 280.52 784 292L782 292L784 277C778.037 278.823 776.188 284.337 775 290L774 290L769 285C769.134 272.955 782.333 269.247 781 257L772 261L773 257L772 257L769 260L772 253L768 253C765.953 258.905 760.428 268.919 755 272L758 254L750 256L750 253L744 252L746 242L739 244L741 237C736.92 239.865 732.856 242.891 732 248L731 248L724 241L715 258L714 258L708 251L696 270L695 270L694 265L691 265L688 269L686 260L684 260L682 264L673 243L670 246L668 246C666.142 236.997 671.921 216.426 664 211L661 214C661.793 206.249 666.614 199.53 667.786 192C669.97 177.969 666.498 167.429 664.325 154C663.456 148.629 664.557 143.267 663 138L660 139L655 129L654 132L647 129L646 140L644 140C643.732 134.78 642.449 130.959 638 128L638 132L631 120z"/>
<path style="fill:#fefefe; stroke:none;" d="M1268 190L1269 191L1268 190M967 204L967 206L969 206L969 204L967 204M1193 211L1194 212L1193 211z"/>
<path style="fill:#030303; stroke:none;" d="M497.667 255.333L498.333 255.667L497.667 255.333z"/>
<path style="fill:#fefefe; stroke:none;" d="M1060 255L1059 261L1062 255L1060 255M1410 257L1412 260L1412 257L1410 257M1403 258L1404 259L1403 258M483 263L484 264L483 263M755 264L756 265L755 264M486 265L487 269L488 269L488 265L486 265M681 265L682 266L681 265z"/>
<path style="fill:#030303; stroke:none;" d="M822 267L822 269L824 267L822 267z"/>
<path style="fill:#fefefe; stroke:none;" d="M686 269L687 270L686 269M1410 273L1411 274L1410 273M1194 277L1196 280L1194 277M416.333 294.667L416.667 295.333L416.333 294.667M1155 309L1153 312C1155.25 311.527 1156.12 311.14 1155 309M416 425L417 428L418 428L416 425z"/>
<path style="fill:#030303; stroke:none;" d="M1543 449L1546 452L1543 449z"/>
<path style="fill:#fefefe; stroke:none;" d="M1507 463L1508 464L1507 463M439 468C440.271 471.322 441.433 472.357 445 472L445 471L439 468M450 479L451 484L452 484L450 479M408 481L408 485L409 485L410 481L408 481M410 485L411 486L410 485M424 564L425 565L424 564M1427 575L1428 576L1427 575M382 587L383 588L382 587M1419 607L1420 608L1419 607M600 855L601 856L600 855z"/>
<path style="fill:#030303; stroke:none;" d="M740.667 865.333L741.333 865.667L740.667 865.333z"/>
<path style="fill:#fefefe; stroke:none;" d="M383 867L384 868L383 867M567.333 883.667L567.667 884.333L567.333 883.667z"/>
<path style="fill:#030303; stroke:none;" d="M1025 921L1024 924L1027 924L1025 921z"/>
</svg>
