<?xml version="1.0" standalone="yes"?>
<svg xmlns="http://www.w3.org/2000/svg" width="1920" height="1080">
<path style="fill:#fcfcfc; stroke:none;" d="M0 0L0 1080L612 1080C610.794 1075.91 605.334 1073.34 605.532 1068.98C605.776 1063.6 613.051 1055.58 616.734 1051.92C629.869 1038.88 644.642 1028.75 657.514 1015.17C662.491 1009.92 668.26 1009.08 669 1001C655.019 1009.53 645.276 1023.85 631.961 1033.44C628.342 1036.05 623.856 1036.4 620 1038.53C610.556 1043.75 601.547 1050.07 592 1055.08C587.482 1057.45 581.455 1062.76 576.907 1064.09C568.037 1066.7 560.764 1061.02 555 1072L554 1072C556.081 1065.43 562.688 1053.15 568.225 1048.99C574.774 1044.08 584.098 1043.06 590.961 1038.3C602.065 1030.62 612.247 1020.79 624 1014L617 1002C615.243 1008.43 610.269 1008.05 605 1011L613.791 999L647.482 969L658 948C652.133 942.631 644.818 956.596 640 960L638 950C641.582 949.432 642.943 948.492 644 945L637 945L626 954L626 950L622 952C624.819 943.823 640.81 939.292 637 931C644.185 931.799 645.157 926.904 643 921L642 924C636.324 919.042 630.995 904.358 629 897L624 897C618.733 908.181 605.005 896.425 601 904L606 904L603 911L597 907L600 920L596 917L594 935L590 935L584.502 947.224L591 976L585 976L579 965L585 988C580.94 990.622 581.136 995.427 584 999L584 1000C575.434 1003.16 571.417 993.106 567 987L565 998C565.535 1002.24 567.297 1009.02 563.437 1012.31C561.396 1014.05 558.87 1013.02 557 1015L556 1015L553 1001C548.233 1002.01 545.36 1005.39 544 1010L543 1010L543 995C538.773 994.228 535.79 993.552 534 998L529 987L525 986L524 989L517 989L517 993L514 993L513 989L511 989L504 1000L503 990C499.104 992.729 498.397 997.444 498 1002L495 1001L496 1010L493 1007L492 1007L487 1010C494.388 1021.4 505.476 1031.87 502.823 1047C501.911 1052.2 498.699 1057.01 497 1062L491 1057L490 1065L484 1063L479 1055C476.505 1057.89 474.079 1055.39 472 1053L468 1054L467 1039L461 1049L460 1049L456 1037L444 1048L442 1032L441 1032L438 1047L427 1044L424 1048L427 1039L422 1038L427 1032L427 1031L425 1029C419.574 1027.77 424.3 1020.88 425 1017L414 1022L414 1017L419 1017L418 1009L413 1014L412 1007L411 1007L403 1032L402 1032L401 1023L398 1026L396 1026L397.556 1005.04L397 995L384 1007L382 1012C380.718 1005.76 378.579 999.341 381.513 993.093C383.37 989.139 386.999 987.524 388 983C377.322 983.925 372.573 996.245 369 1005L368 1005L368.389 993.015L365 984L365 983L364 979C357.713 982.732 355.122 989.223 347 986L341 972L327 970L328 966L327 966L326 970C319.373 964.43 336.824 956.621 341 953L344.319 933.17L341 923L325 936L323 936L336 915L340 916L345 903C335.285 905.64 330.551 913.52 324 920L326 911L328 912L339 890L334 889L333 897C327.169 896.959 315.764 895.311 324 888C319.794 880.424 312.696 886.48 310 892C300.872 891.217 302.15 902.439 298.4 907.98C295.798 911.826 291.914 912.286 288 914L289 910L283 912L282 910L282 909L286 907L276 904L276 903L289 879L279 881C277.295 873.422 278.259 870.89 286 874L287 870L289 872L290 872L296 868L284 862L281 866L276 864C276.642 859.961 275.914 857.558 272 856L278.822 849.871L282.318 842.356L291.996 844.323L300 840L299 837L302 836L300 833C294.559 839.435 282.4 837.452 280 829L285 830L289 824L289 823C283.695 824.199 269.951 829.884 265.167 827.592C259.166 824.717 277.299 820.12 281 820L281 811C275.93 808.703 270.061 809.943 265 812L264 806L272 806C271.488 799.236 262.504 792.754 258 800L252 795L251 795C239.274 799.799 225.534 785.728 214 794C213.7 790.136 212.911 788.652 209 788L213 786L221 774C220.568 768.846 223.515 766.099 228 764L227 759L238 751C233.195 751.072 230.153 749.917 229 745L224 744L223 735L208 736L208 731L191 734C194.754 727.784 192.351 725.656 187 722L187 721L198.985 719.508L214 712L213 709L217 711C215.962 707.24 216.454 705.734 220 704L204 697L212 696C211.931 686.565 204.803 689.267 198 686L212 684C210.427 679.119 208.191 676.591 203 676C203.858 660.347 217.706 670.859 226 673L201 645C214.429 644.343 224.279 660.816 237 665L236 656C249.482 660.561 257.885 670.578 273 668L273 667L265 664L268 657L264 656L264 654L286 665C289.754 657.16 292.699 653.874 292 645C288.191 642.885 288.6 640.793 290 637L286 633L291 632L299 636C297.781 632.241 292.611 625.226 289.571 622.599C285.662 619.222 280.508 620.492 280 614L284 616C285.238 607.923 274.399 601.188 267 600C269.606 594.648 288.515 597.835 295 596L293 591L300 590L304 596L304 592L318 592C315.34 586.793 309.101 584.555 306.818 578.999C304.495 573.346 309.211 567.997 303.502 562.804C295.9 555.891 285.706 566.757 282 556L271 556L285.654 545.003L272 527L278 527C279.735 519.126 266.113 505.79 260.776 500.129C257.026 496.15 249.328 493.609 255 488L253 482L273 486L277 484L276 480L281 482L281 478L282 478L283 480L284 477C300.676 489.641 307.867 475.66 325 474L323 466L326 468L340 457C348.056 457.849 355.607 444.154 356 437L349 440C352.417 435.61 361.642 430.986 363.593 426.505C365.832 421.364 358.779 418.15 355 419C356.874 429.22 342.197 435.671 335.17 440.951C325.336 448.338 315.561 450.909 305 456.478C300.482 458.861 294.587 463.87 289.094 463.419C285.375 463.114 284.58 458.735 281.738 457.031C276.637 453.974 269.38 454.631 264 451L261 454L259 434C254.22 426.639 268.997 419.164 271 413L267 417L267 407L269 409L270 409C272.411 404.628 276.513 405.072 281 404L281 402C275.839 398.91 272.389 399.871 267 402C265.124 395.322 264.324 389.475 273 390L270 388L272 379L274 386L275 386L274 381L280 371L272 351C279.209 352.65 280.819 361.681 289 360L288 357L291 355L287 355L288 351L283 350L285 347C284.465 341.442 289.427 334.867 295 339L296 339L296 325L301 328L294 311L290 312L298 305L299 309L300 309L310 306L311 307C308.558 311.581 308.137 317.025 313 320L313 315C315.964 314.612 316.16 312.853 316 310C320.006 307.393 318.333 303.221 318 299L319 299L324 302L327 283L332 288C333.824 283.158 334.972 281.585 340 284C337.889 272.679 323.003 260.517 311 260L310 255L315 249L316 249L318 252L319 247L303 249C302.426 244.71 300.071 238.728 306 238L309 230L312 232L311 224C314.774 225.887 318.494 225.53 319 223L322 224L325 215L326 215L326 222L327 222L326 211L344 214L345 202L351 206L355 201L352 186L353 186L354 190L356 190L359 185L360 185L364 187L362 183L370 181L373 185L381 178L383 182L385 181L386 184L403 196L402 189L406 192L408 192L406 179L412 183L410 177C420.342 175.825 431.399 191.988 433.528 201.039C434.685 205.959 432.263 210.13 435.969 214.603C440.632 220.23 453.188 220.913 448 211C454.562 212.824 462.147 219.338 464 226C470.928 221.016 455.504 211.525 455 205L459 210L458 204L458 203C462.842 202.92 464.352 205.182 467 209L468 209L467 206L475 209L471 196L474 198L471 187L476 188L473 172L476 176C481.075 172.659 472.778 165.155 474 159C468.725 156.091 468.76 146.646 468 141L476 146L477 141L478 141L481 144L481 133L478 134L475 125L482 128L481 122L485 134L490 139C496.015 135.161 493.794 121.068 492 115L494 117L497 116L499 124L501 124L498 111L501 112L503 105L504 108L510 110L523 106C519.508 100.104 518.046 95.8417 520 89L522 89L523 96L530 96L528 84L533 85L539 118L541 118L544 111C544.328 117.396 547.709 127.121 553 131L554 124L557 123L561 136L562 136L565 121L567 124L569 118L570 118C572.407 124.619 567.153 133.302 574 137L581 107L582 107L588 120L589 120L590 111L590 116L591 116C593.116 108.826 588.989 104.78 588.252 98C587.481 90.8976 591.493 83.8379 595 78L596 79L593 92L594 92L597 87L599 92L600 92C600 74.5573 598.864 55.9122 603.941 39C605.441 34.0044 609.406 30.6138 611.6 26C614.335 20.2462 615.095 14.0089 617 8L619 11L620 11L622 0L0 0z"/>
<path style="fill:#040404; stroke:none;" d="M622 0L620 11L619 11L617 8C614.674 13.511 614.207 19.5157 611.6 25C609.406 29.6138 605.441 33.0044 603.941 38C598.737 55.3367 600 74.1215 600 92L599 92L597 87L594 92L593 92L596 79L595 78C583.269 91.7579 594.307 101.94 591 116L590 116L590 111L587 112L589 120L588 120L582 107L581 107L574 137C567.542 131.756 573.405 125.077 570 118L569 118L567 124L565 121L562 136L561 136L557 123L554 124L553 131C548.461 125.974 544.678 117.755 544 111L541 118L539 118C538.151 107.238 539.02 94.2533 533 85L528 84L530 96L523 96L522 89L520 89C517.314 95.1271 518.953 100.956 523 106L510 110C508.279 106.954 507.216 106.724 504 108L503 105L501 112L498 111L501 124L499 124L497 116L492 115C493.633 121.857 495.29 133.647 490 139L485 134L481 122L482 128L475 125L478 134L481 133C479.478 137.427 478.642 139.74 481 144L478 141L477 141L476 146L468 141C468.431 146.276 468.501 157.175 474 159L476 176L473 172L476 188L471 187L474 198L471 196L475 209C472.495 206.583 467.88 203.279 468 209L467 209C464.876 204.647 462.987 202.622 458 203L458 204L459 210L455 205C455.01 212.48 469.258 219.666 464 226C462.906 218.929 454.936 212.066 448 211C451.962 221.092 440.275 219.679 435.956 213.782C432.619 209.226 434.909 204.971 433.563 200.089C431.164 191.388 420.532 174.509 410 177L412 183L406 179L408 192L406 192L402 189L403 196C396.726 192.28 394.758 183.242 386 184L385 181L383 182L381 178L373 185L370 181L362 183L364 187L360 185L359 185L356 190L354 190L353 186L352 186L355 201L351 206L345 202L344 214C337.952 210.476 332.836 210.531 326 211L327 222L326 222L326 215L325 215L322 224L319 223L311 224L312 232L309 230L306 238C299.498 238.301 302.067 244.475 303 249L319 247L318 252L316 249L315 249L310 255L311 260C322.53 260.919 337.403 273.25 340 284C334.882 280.443 333.451 282.7 332 288L327 283L324 302L319 299L318 299L316 310C316.502 312.51 315.579 315.645 313 315L313 320C308.762 316.084 308.851 312.106 311 307L310 306L300 309L299 309L298 305C293.786 306.369 290.773 307.35 290 312L294 311L301 328L296 325L296 339L295 339C290.392 333.733 282.164 341.782 285 347L283 350L288 351L287 355L291 355L288 357L289 360L272 351L280 371L274 381L275 386L274 386L272 379C267.983 381.299 269.428 383.95 270 388L273 388L273 390C264.129 388.586 264.511 395.354 267 402C272.447 400.429 275.656 399.756 281 402L281 404C276.581 404.821 271.594 404.196 270 409L269 409L267 407C264.767 410.822 264.178 413.38 267 417L271 413C268.312 418.1 253.321 427.442 259 434L261 454L264 451C269.079 455.204 275.541 454.24 280.87 457.063C284.145 458.798 284.922 463.547 289.094 463.722C295.085 463.974 301.031 459.099 306 456.478C316.226 451.086 325.773 449.127 335.17 441.633C342.202 436.024 357.915 429.739 355 419C358.181 418.728 366.124 422.413 363.03 426.791C359.289 432.083 352.554 433.681 349 440L356 437C355.203 444.133 347.664 456.597 340 457L326 468L323 466L325 474L300 483.565L284 477L282 478L281 478L281 482L276 480L277 484L273 486L253 482L255 488C247.746 492.513 256.256 496.522 259.892 500.129C265.463 505.655 278.666 519.116 278 527L272 527L284.793 545.003L271 556C275.512 557.723 277.709 558.696 282 556C284.398 567.75 296.171 556.094 303.502 563.495C308.59 568.634 304.239 573.466 306.163 578.999C308.114 584.612 314.528 587.5 318 592L304 592L303 589L302 589L304 596L300 590L293 591L295 596C288.963 597.192 268.542 594.572 267 600C274.022 602.038 284.405 608.066 284 616L280 614C280.01 620.629 284.598 619.335 288.772 622.599C292.123 625.22 296.978 632.241 299 636L291 632L286 633L290 637C288.1 640.678 287.591 643.539 292 645L286 665C279.565 661.13 272.111 652.209 264 654L264 656L268 657L265 664L273 667L273 668C257.593 669.008 250.141 659.351 236 656L237 665C226.252 659.735 213.151 642.953 201 645C204.88 658.214 219.776 661.518 226 673C217.673 669.808 203.376 660.465 203 676C207.818 676.993 209.922 679.672 212 684C206.128 683.584 203.282 682.09 198 686C204.312 690.464 210.899 686.479 212 696L204 697C206.282 704.043 214.772 700.347 220 704C216.034 705.264 215.589 707.232 217 711L213 709L214 712C206.276 710.936 204.52 716.737 198.282 719.382C194.582 720.95 190.92 719 187 721L187 722C191.639 726.271 193.837 727.593 191 734L208 731L208 736L223 735L224 744L229 745C228.915 750.549 233.12 751.639 238 751L227 759L228 764C222.931 765.428 219.816 768.622 221 774C215.581 776.845 214.415 780.339 213 786L209 788C212.492 789.057 213.432 790.418 214 794C220.18 790.651 229.299 791.432 236 793.583C241.113 795.225 245.92 798.559 251 795L252 795L258 800C263.432 794.424 270.931 799.098 272 806L264 806L265 812L281 811L281 820C277.459 820.042 259.824 823.604 263.623 827.154C267.59 830.861 284.224 824.695 289 823L289 824L285 830L280 829C281.351 837.65 295.692 840.655 300 833L302 836L299 837L300 840L291.996 843.897L281.603 842.121L278.822 848.946L272 856C275.413 858.079 276.08 860.055 276 864L281 866L284 862C287.42 869.529 291.058 864.079 296 868L290 872L289 872L287 870L286 874C278.108 869.125 276.584 873.36 279 881L289 879L276 903L276 904L286 907L282 909L283 912L289 910L288 914L290 912C303.358 914.942 298.109 893.157 310 892C313.776 886.7 318.465 881.651 324 888C313.48 893.973 327.198 897.541 333 897L334 889L339 890L328 912L326 911L324 920L345 903L340 916L336 915L323 936L325 936L341 923L343.832 933.17L341 953C336.716 955.568 317.797 965.249 326 970L327 966L328 966L327 970L341 972L347 986C354.529 990.539 358.637 983.749 364 979L365 983L365 984L368.021 993.015L368 1005L369 1005C373.762 996.552 377.339 985.1 388 983C386.569 986.912 383.263 988.621 381.513 992.184C378.522 998.274 380.103 1005.92 382 1012L384 1007L397 995C395.999 998.678 397.842 1001.48 397.237 1005.04C395.863 1013.11 393.359 1017.61 396 1026L398 1026L401 1023L402 1032L403 1032L411 1007L412 1007L413 1014L418 1009L419 1017L414 1017L414 1022L425 1017C423.782 1020.97 419.039 1027.78 425 1029L427 1031L427 1032C423.205 1032.83 422.304 1034.17 422 1038L427 1039L424 1048L427 1044L438 1047L441 1032L442 1032L444 1048L456 1037L460 1049L461 1049L467 1039L468 1054L472 1053C473.237 1055.97 477.917 1059.95 479 1055L484 1063L490 1065L491 1057L497 1062C506.602 1041.74 502.551 1026.18 487 1010L492 1007L493 1007L496 1010L495 1001L498 1002L503 990L504 1000C508.541 997.639 509.635 993.706 511 989L513 989L514 993L517 993L517 989L524 989L525 986L529 987C529.205 991.687 529.647 995.623 534 998C536.384 994.151 538.779 994.515 543 995L543 1010L544 1010L553 1001L556 1015L557 1015C565.128 1010.25 567.031 1008.94 565 998L567 987C570.383 993.546 575.659 1004.31 584 1000L584 999C581.581 994.785 581.395 991.507 585 988L579 965L585 976L591 976L584.832 948.108L590 935L594 935L596 917L600 920L597 907L603 911L606 904L601 904L602 901L604 903L605 903C611.803 900.398 620.469 906.317 624 897L629 897C629.992 902.245 639.471 926.266 643 921C644.487 926.788 643.661 930.812 637 931C639.475 940.161 624.044 942.589 622 952L626 950L626 954L637 945L644 945L638 950L640 960C646.29 957.059 650.793 944.83 658 948C649.788 951.21 652.046 961.714 647.482 968C637.97 981.102 624.224 986.225 613.791 998.014C609.996 1002.3 605.679 1005.03 605 1011C610.508 1008.76 616.249 1008.64 617 1002L624 1014C611.527 1018.83 600.983 1030.84 589.985 1038.3C583.332 1042.82 574.783 1044.03 568.225 1048.41C562.556 1052.2 555.276 1065.39 554 1072L555 1072C562.432 1062.36 567.331 1066.78 576.907 1064.42C581.643 1063.26 589.47 1057.14 594 1054.52C606.15 1047.5 621.923 1041.57 632.911 1033.44C645.919 1023.83 656.637 1011.36 669 1001C667.748 1008.82 661.56 1009.91 656.745 1015.17C644.302 1028.78 629.671 1038.29 616.734 1051.08C612.704 1055.07 605.447 1063.08 605.253 1068.98C605.102 1073.57 610.142 1076.2 612 1080L622 1080C623.556 1070.13 632.59 1071.67 640 1070L636 1080C645.026 1079.99 649.647 1071.09 658 1075L658 1076L656 1080L660 1077L673 1080C673.716 1073.05 676.768 1071.05 683 1069C682.652 1072 680.193 1076.79 683.333 1078.97C686.931 1081.47 694.77 1079.75 699.004 1079.88C713.983 1080.33 729.014 1080 744 1080C748.32 1080 757.852 1081.78 761.397 1078.97C767.937 1073.79 757.541 1063.02 759 1057L766 1059L765 1063L770 1063L768 1080C771.095 1080 776.695 1081.05 779.258 1078.97C781.397 1077.24 779.787 1069.78 783.174 1070.12C788.212 1070.61 789.51 1078.92 795.089 1079.85C819.858 1083.99 848.856 1080 874 1080C873.453 1074.24 876.137 1071.08 880 1067L880 1071L886 1068C884.97 1064.74 881.718 1060.56 882.711 1057.06C885.68 1046.58 900.165 1046.35 891 1033L899 1027C900.082 1032.55 898.758 1049.5 907 1037C909.181 1046.52 900.318 1052.25 896 1060C904.869 1058.44 914.997 1057.69 916.566 1046C917.258 1040.85 914.4 1034.53 917 1030L919 1034L923 1029L924 1038L928 1035C933.189 1038.47 935.112 1039.23 941 1037C935.316 1047.89 932.734 1054.39 943 1064C934.656 1066.46 930.099 1071.08 930 1080L941 1075C941.064 1077.99 940.946 1079.35 944 1080L946.902 1064L944.394 1050L948.905 1035L945 1019L946 1019L948 1026L952 1025L956.968 1040L953 1048C962.593 1049.95 967.453 1048.71 970 1039L971 1039L972 1044L974 1044C976.265 1031.24 982.639 1025.07 978 1012L983 1011L987 1020L994 1027L1000 1026L977 1051C979.982 1057.7 988.724 1061.95 996 1061L995 1080L1002 1080L1002 1071L1006 1076L1014 1074L1015 1080L1020 1080L1018 1073L1024 1074C1023.83 1070.33 1022.59 1069.47 1019 1070L1019 1060L1026 1068L1024 1064L1024 1063C1025.88 1062.2 1037.89 1055.74 1037.06 1055.04C1041.06 1058.4 1033.25 1064.03 1041 1067L1042 1069L1042 1070C1035.13 1070.2 1031.11 1073.05 1030 1080L1050 1080L1052 1061L1054 1061C1054.6 1067.55 1058.1 1071.69 1064 1067L1063 1074L1068 1080L1100 1080L1099 1073L1101 1073L1101 1080L1118 1080C1117.53 1059.89 1088.49 1058.79 1087 1039L1091 1040C1089.86 1035.21 1085.75 1028.94 1086.56 1024.01C1087.72 1016.96 1098.99 1019.04 1104 1020L1106 1024C1105.11 1017.31 1107.67 1013.47 1114 1011L1118 994L1119 994C1121.04 1001.56 1123.19 1013.02 1133 1011L1133 1020C1142.67 1019.67 1146.56 1028.29 1154 1032C1153.39 1024.53 1137.68 1011.47 1144 1008L1138 1004L1141 999C1136.77 996.398 1137.44 993.527 1138 989L1132 988L1136 977C1142.19 981.512 1148.12 984.314 1151.04 992C1152.39 995.535 1151.22 1000.26 1153.06 1003.41C1162.45 1019.51 1172.85 1029.49 1172 1049L1177 1041C1182.74 1040.73 1180.27 1036.7 1176 1036L1180 1021L1169 1001C1178.59 1000.34 1189.91 1000.43 1185 1014L1193 1017L1198 1028L1191 1007L1192 1007L1192 1009L1193 1009L1192 1005L1193 1004L1205 1016L1204 1011L1221 1022L1225 1025L1222 1023L1218 1007C1228.72 1018.95 1227.52 1031.48 1230.51 1046C1233.08 1058.43 1238.07 1067.09 1238 1080L1240 1080L1242.44 1065L1239 1044L1246 1064L1248 1053C1257.96 1054.14 1253.49 1047.67 1260 1044L1260 1043L1257 1021L1262 1021C1262.03 1029.97 1268.5 1044.06 1272 1028L1278 1032L1279 1025L1281 1029L1286 1025L1287 1025L1289 1035L1291 1035C1292.66 1028.24 1295.94 1029.83 1301 1033C1301.26 1023.8 1294.38 1000.79 1284 1000L1279 980L1280 980C1282.85 989.009 1286.12 1000.64 1297 1002L1300 1008L1299 1005C1304.97 1004.04 1309.25 999.057 1308 993L1312 998C1326.23 997.276 1330.86 1009.44 1342 1014C1341.86 1011.39 1337.47 997.168 1336 1004L1335 1004L1333 997C1323.31 994.285 1323.65 978.822 1313 980L1309 963L1319 969L1334 983L1335 983L1336 979L1338 981L1343 980C1345 985.528 1347.67 985.708 1353 987L1354 982L1357 988L1363 984C1358.4 979.561 1357.08 969.174 1366 974L1370 964C1373.23 969.982 1378.71 968.142 1384 966L1389 969C1390.49 974.083 1396.35 973.821 1398 969C1392.15 964.008 1407.07 960.747 1409 966L1413 966C1412.99 963.103 1412.09 953.4 1417 958L1418 953L1423 954L1416 942L1415 942L1412 944L1413 937L1427 936C1421.64 925.96 1420.86 923.627 1431 917L1432 919L1432 920C1428.08 922.16 1427.83 924.864 1429 929L1436 922L1438 922L1439 925C1442.61 922.852 1444.22 923.996 1445 928L1459 924L1457 917L1456 920L1454 920L1453 911L1458 912L1462 909L1459 895L1463 895L1463 899L1465 899L1466 895L1472 898L1464 881L1478 877L1472 873L1484 867C1484.04 871.531 1483.94 875.121 1489 876C1487.53 870.62 1487.35 863.466 1492.3 859.523C1496.72 856.007 1500.25 858.325 1503 852L1504 852L1504 857L1509 849L1510 849L1511 852C1514.04 847.632 1515.36 842.953 1510 840L1511 835L1518 837L1519 834C1523.04 836.116 1525.53 836.023 1528 832L1524 832L1524 831L1528 831L1529 827L1534 836L1535 824L1532 826C1532.52 819.486 1537.89 799.543 1527 799L1527 795L1511.98 781.703L1500 781.582L1481 779.68L1454 784L1458 779L1454 778C1460.58 769.834 1469.58 766.477 1480 768L1481 765L1488 766L1493.02 761.946L1505 762.7L1526 759L1525 750L1513 745L1510 746L1509 741L1516 742C1513 737.748 1511.44 733.157 1506 732L1506 731L1518 733C1521.03 728.993 1528.04 719.403 1533.04 718.361C1542.03 716.489 1558.47 722.058 1563 711L1579 719.317L1598 716L1596 710L1599 712L1601 690L1596 682L1580 651L1578 641L1560 619L1557 620C1557.9 616.985 1558.82 616.062 1562 616L1552.77 603.83L1549 584L1550 584L1553 590L1554 590C1555.96 586.491 1556.72 581.374 1560.16 578.913C1568.1 573.236 1582 585.613 1589 588L1587 578L1588 578L1592 580L1586 567L1591 566L1590.23 554L1586 543L1594 546C1592.99 542.236 1591.92 540.648 1588 540L1589 532C1585.88 525.325 1578.34 521.265 1571 522L1571 521L1573 517L1568 521L1567 521L1566 513L1565 513L1558 504L1558 503L1566 500L1563 496L1566 489L1560 488L1560 487L1572.71 483.364L1580.83 488.246L1598 490L1598 481L1595 481L1596 475L1598 478L1615 472L1615 465C1622.93 462.495 1620.86 453.512 1615 450L1615 449L1618 442L1614 440L1614 439L1624 432L1624 431L1619 428C1624.38 419.11 1620.84 414.415 1622 405L1609 410C1610.28 405.483 1605.65 402.26 1605 407C1595.38 403.493 1587.95 410.813 1585 399C1589.08 398.495 1580.18 379.589 1579 375L1584 378L1585 378L1589 376L1590 373L1593 374L1593 370L1581 367C1581.88 362.814 1581.34 360.947 1577 360C1580.67 355.431 1581.54 349.497 1576 346L1576 345C1581.13 343.92 1593.96 336.487 1592 331L1612 329.095L1629 320C1628.32 314.427 1629.73 308.764 1634 305L1632 312C1635.22 309.75 1635.39 306.748 1635 303C1641.97 300.058 1658.67 291.736 1660 284L1656 281L1659 282L1667 268C1662.85 269.282 1658.12 270.879 1658 265L1655 264L1664 257L1659 257L1654 246L1659 247L1660 243L1648 244L1647 238L1653 236L1653 235L1624 235L1630 228L1630 226L1619 224L1616 220C1612.58 225.49 1608.44 222.058 1607 217L1605 217L1600 222L1604 220L1604 219L1594 224C1592.96 219.155 1586.31 222.27 1583 223.889C1572.78 228.881 1565.39 231.868 1554 231.472C1549.54 231.318 1548.07 233.854 1544 231L1543 231L1538 235L1537 228C1532.4 228.949 1526.63 229.063 1525 234C1520.8 232.517 1498.59 230.253 1496 233L1495 233C1489.54 229.337 1479.32 233.417 1473 234C1472.3 224.836 1463.84 227.995 1457 228L1463 219L1443 222L1443 218L1421 228L1422 223C1409.65 225.19 1386.61 218.27 1379 232L1378 232L1382 224L1382 223C1374.14 209.363 1387.2 200.725 1398 194C1398.22 187.934 1403.66 183.737 1408 180C1405.63 169.889 1416.44 165.377 1420.68 157C1423.24 151.944 1420.55 147.116 1420 142L1423 144C1421.4 138.744 1423.54 133.65 1426.21 129C1430.54 121.473 1438.02 115.253 1441.16 107C1446.94 91.7759 1443.11 68.6263 1423 78L1419 75L1416 77C1408.46 90.5193 1394.51 97.1622 1383.59 107.39C1376.97 113.591 1372.45 122.723 1369 131L1367 127C1362.25 129.967 1359.59 140.888 1355 138L1347 145C1345.43 141.152 1344.13 139.609 1340 141L1339 138L1335 140L1333 130L1336 112L1335 112L1333 117L1330 113L1326 120C1319.83 119.547 1313.33 113.17 1313 123L1312 123L1310 119L1309 119L1305 128L1298 120C1297.51 124.36 1296.18 126.498 1292 128L1291 125L1288 140L1275 150L1274 150C1270.42 141.708 1270.53 134.723 1278 129L1278 127L1275 126L1276 117C1271.04 119.542 1271.66 123.606 1268.42 127.366C1263.15 133.467 1255.77 129.147 1250 126L1249 126L1246 128C1247.1 123.782 1250.11 118.009 1246 115L1244 122L1225.04 120.317L1214.42 126.964L1204 125L1203 128L1189 127L1183 136L1188 139L1188 140C1182.86 145.581 1190.94 153.606 1191 160L1188 154L1180 157L1174 167L1173 162C1158.54 170.32 1159.26 148.434 1160 141L1148 155L1149 144C1140.69 150.934 1136.9 165.546 1138 176L1131 174L1138 152L1137 149C1140.19 146.91 1139.62 144.536 1139 141L1136 141L1130 149L1129 149L1127 146L1128 143L1123 145C1122.42 141.526 1121.47 140.576 1118 140C1121.51 133.761 1121.61 125.684 1126.42 120.185C1130.88 115.072 1137.62 115.673 1142.41 111.836C1145.51 109.358 1145.56 103.458 1147.44 100.089C1152.2 91.5245 1160.61 86.116 1159 75C1164.79 71.488 1160.07 64.5645 1155 63L1156 70C1151.2 68.481 1149.25 66.4614 1147 62C1151.89 62.1922 1151.95 59.2746 1152 55C1146.59 57.9438 1143.56 65.2365 1142 71L1139 69L1137 75L1132 65L1125.58 62.902L1131.58 51L1133 36L1132 36L1130 38L1133 20C1130.38 22.72 1128.38 25.0029 1126 21L1131 20L1122 15L1123 18L1118 18L1116 0L1115 0L1111 4L1111 0L1088.39 0.602539L1082 6L1082 0L1004 0C997.182 0 981.299 -2.95337 975.638 1.02771C966.895 7.17603 973.233 19.976 971.772 28C970.59 34.4879 961.475 40.9484 956 44C961.458 33.6632 959.433 29.7753 949 37L951 23C947.058 23.8955 944.989 23.8116 942 21L941 21L935 34C935.93 30.002 934.592 28.7091 931 27L929 36C925.193 33.1724 918.159 29.3348 921 24L921 23L916 23L912 31L906 23L905 23L904 29L889 28C893.332 19.7422 902.748 19.4628 897 9C903.099 4.96484 894.147 4.12561 891 4L891 0L886 0L888 8L884 8L868 20L872 9L866 15L862 10L857 24C850.856 18.8796 853.049 9.59497 844 7L851 20L842 20L845 18C844.461 10.7378 837.403 4.05115 830 6L836 22L835 22L828 20L824 17C824.442 22.0338 822.448 29.2234 828 31C818.891 36.4105 812.13 23.6056 813.318 15.5139C814.078 10.3402 818.232 5.67249 819 0L813 0L808 12L799 11C799.035 16.879 797.048 20.3188 791 21L792 24L779 21L777 27C772.003 27.4314 770.729 24.5698 770 20L769 20L765 27L763 27L763 18C752.862 14.3665 751.134 18.3473 753 28L746 21C746.159 27.8026 747.697 32.3298 755 33L758 48L746 42C745.682 36.2418 743.291 33.9847 738 32C736.036 35.1384 734.809 35.455 732 33L737 32L737 30L726 29L726 34C730.353 35.4231 729.677 38.0435 726 40C723.626 35.9813 720.952 37.4563 717 36.1589C708.685 33.4296 702.009 31.0308 699 42L694 40C694.409 37.4103 693.481 25.0992 692 32L691 32L695 0L622 0z"/>
<path style="fill:#fcfcfc; stroke:none;" d="M695 0L691 32L692 32L692 29L694 40L699 42C703.467 31.1041 708.199 34.0404 717 36.8333C720.826 38.0474 723.003 36.8209 726 40C730.65 38.5785 731.154 34.8979 726 34L726 29L737 30L737 32L732 33C734.402 36.3341 736.536 35.6578 738 32C742.65 34.5027 745.387 36.5455 746 42L758 48L755 33C748.222 31.9114 746.333 27.4789 746 21L753 28C751.792 18.6018 752.834 15.3215 763 18L763 27L765 27L769 20L770 20C770.441 24.838 771.632 28.2184 777 27L779 21L792 24L791 21C797.189 20.6572 799.918 17.2073 799 11L808 12L813 0L695 0M819 0C817.032 9.41345 810.82 15.9324 814.588 25.9097C816.623 31.2988 823.538 35.3724 828 31C823.23 28.5192 824.83 22.0043 824 17L828 20L835 22L836 22L830 6C837.054 4.84778 843.978 11.15 845 18L842 20L851 20L844 7L857 24L862 10L866 15L872 9L868 20L871 17C876.999 16.3483 881.187 13.3074 884 8L888 8L886 0L819 0M891 0L891 4C894.484 4.33215 900.775 4.56091 897 9C901.33 20.1768 892.193 18.7136 889 28L904 29L905 23L906 23C906.346 27.4885 907.954 29.1608 912 31L916 23L921 23L921 24C916.272 28.5244 925.329 34.1283 929 36L931 27C934.055 29.1161 935.338 30.213 935 34L941 21L942 21C944.438 24.3799 947.199 24.1133 951 23L949 37C960.073 31.884 959.86 33.1653 956 44C976.056 37.1422 970.385 16.1798 975 0L891 0M1082 0L1082 6L1087 0L1082 0M1111 0L1111 4L1115 0L1111 0M1116 0L1118 18C1121.05 18.4838 1122.07 18.1766 1122 15L1131 20L1126 21C1127.74 26.2112 1130.72 23.3104 1133 20L1130 38L1132 36L1133 36C1132.69 40.088 1133.15 45.1095 1131.93 49C1130.18 54.6097 1118.24 67.1161 1132 65L1137 75L1139 69L1142 71L1152 55C1151.87 58.9941 1151.5 61.9072 1147 62C1148.77 67.0143 1150.81 68.8566 1156 70L1155 63C1159.73 65.4219 1163.89 70.8328 1159 75C1158.62 86.1019 1152.52 90.3359 1147.44 99.1705C1145.39 102.74 1145.44 108.372 1142.41 111.262C1138.14 115.344 1130.81 114.6 1126.42 119.329C1121.58 124.538 1120.64 133.54 1118 140L1123 145L1128 143L1127 146L1129 149L1130 149L1136 141L1139 141L1137 149L1138 152C1134.74 154.12 1130.32 170.168 1131 174L1138 176C1137.62 164.417 1141.51 152.879 1149 144L1148 155L1160 141C1158.86 147.727 1159.6 173.098 1173 162L1174 167C1177.81 164.227 1179.64 161.746 1180 157L1188 154L1191 160L1188 140L1188 139L1183 136L1189 127L1203 128L1204 125C1216.03 129.324 1215.54 122.531 1226.01 120.35C1231.34 119.242 1238.56 121.52 1244 122L1246 115C1249.05 118.829 1246.87 123.522 1246 128L1249 126L1250 126C1251.67 127.293 1253.06 127.723 1255.02 128.53C1269.08 134.311 1266.76 124.155 1276 117L1275 126L1278 127L1278 129C1269.81 133.235 1269.95 142.685 1274 150L1275 150L1288 140L1291 125L1292 128C1296.7 126.997 1297.74 124.617 1298 120L1305 128L1309 119L1310 119L1312 123L1313 123C1313.69 113.726 1319.92 119.803 1326 120L1330 113L1333 117L1335 112L1336 112L1333 130C1336.5 130 1335 137.039 1335 140L1339 138L1340 141C1344.05 140.063 1345.05 141.542 1347 145L1355 138C1358.38 142.226 1365.22 129.22 1367 127L1369 131C1373.87 122.652 1377.65 112.983 1385.29 106.633C1395.35 98.2603 1411.56 90.1642 1416 77L1419 75L1423 78C1426.81 76.7432 1431.74 74.3407 1435.85 75.7021C1445.79 78.9954 1443.96 98.6245 1441.16 106C1438.02 114.253 1430.54 120.473 1426.21 128C1423.47 132.766 1420.47 138.781 1423 144L1420 142C1420.12 146.753 1422.99 151.333 1420.68 156C1416.41 164.608 1404.91 169.533 1408 180C1402.86 182.939 1397.87 187.819 1398 194C1387.58 198.405 1372.24 211.08 1382 223L1382 224L1378 232L1379 232C1389.6 218.979 1408.13 226.265 1422 223L1421 228L1443 218L1443 222L1463 219L1457 228C1463.64 227.999 1471.68 225.523 1473 234L1495 233L1496 233L1525 234C1527.47 229.502 1532.35 229.307 1537 228L1538 235L1543 231L1544 231C1551.05 237.679 1572.27 229.587 1580 225.984C1584.04 224.1 1590.63 219.388 1594 224L1604 219L1604 220L1600 222C1603.59 221.831 1604.43 220.489 1605 217L1607 217C1607.83 222.331 1613.33 226.635 1616 220L1619 224L1630 226L1630 228L1624 235L1653 235L1653 236L1647 238L1648 244L1660 243L1659 247L1654 246L1659 257L1664 257L1655 264L1658 265C1657.76 271.192 1662.72 269.813 1667 268L1656 281L1660 284C1657.53 291.91 1642.03 298.821 1635 303L1632 312L1634 305C1629.11 307.853 1627.9 314.739 1629 320L1611 329.095L1592 331C1593.37 336.211 1580.71 343.33 1576 345L1576 346C1580.85 350.62 1580.37 354.699 1577 360C1580.83 361.419 1581.45 363.013 1581 367L1593 370L1593 374L1590 373L1589 376L1585 378L1584 378L1579 375L1587.33 397L1585 399C1587.32 411.277 1595 404.355 1605 407C1605 402.458 1610.29 405.107 1609 410L1612 411C1614.83 407.399 1617.22 404.843 1622 405L1619 428L1624 431L1624 432L1614 439L1614 440L1618 442L1615 449L1615 450C1620.27 454.535 1622.25 461.193 1615 465L1615 472L1598 478L1598 475L1596 475L1595 481L1598 481L1598 490L1580.83 487.63L1573 483.121L1560 487L1560 488L1566 489L1563 496L1566 500L1558 503L1558 504L1565 513L1566 513L1566 510L1569 511L1567 521L1568 521L1573 517L1574 520L1571 521L1571 522C1578.36 521.599 1584.89 526.206 1589 532L1588 540L1594 546L1586 543L1591 566L1586 567L1592 580L1588 578L1587 578L1589 588C1582.01 584.67 1567.91 572.774 1559.53 578.832C1556.28 581.185 1555.52 586.499 1554 590L1553 590L1550 584L1549 584C1545.72 597.109 1557.25 605.81 1562 616C1558.56 615.862 1557.59 616.598 1557 620L1560 619C1560.86 626.661 1572.11 634.606 1576.5 641C1586.05 654.899 1584.73 680.602 1601 690L1599 712L1596 710L1598 716L1580 719.062L1563 711C1556.22 722.092 1542.27 715.657 1532.1 718.322C1527.38 719.559 1520.13 728.777 1518 733L1506 731L1506 732L1516 742L1509 741L1510 746L1513 745C1515.64 749.068 1520.34 749.92 1525 750L1526 759L1503 762.812L1492.06 761.617L1488 766L1481 765L1480 768C1469.92 765.698 1459.38 769.064 1454 778L1458 779L1454 784L1481 779.924L1500 781.775L1511 781.707L1527 795L1527 799C1537.38 800.392 1532.28 819.407 1532 826L1535 824L1534 836L1529 827L1528 831L1524 831L1524 832L1528 832C1524.97 835.321 1523.16 835.635 1519 834L1518 837L1511 835L1510 840C1514.75 843.963 1513.52 847.035 1511 852L1510 849L1509 849L1504 857L1504 852L1503 852C1497.08 861.255 1483.19 860.363 1489 876C1484.46 874.565 1484.11 871.417 1484 867L1472 873L1478 877L1464 881L1472 898L1466 895L1465 899L1463 899L1463 895L1459 895L1462 909L1458 912L1453 911L1454 920L1456 920L1457 917L1459 924L1445 928C1445.07 923.586 1442.49 922.306 1439 925L1438 922L1436 922L1429 929C1428.14 924.821 1428.71 922.75 1432 920L1431 917C1420.11 921.825 1420.51 927.139 1427 936L1413 937L1412 944L1415 942L1416 942L1423 954L1418 953L1417 958L1416 955C1412.01 957.681 1412.85 961.635 1413 966L1409 966C1407.13 959.412 1391.41 964.829 1398 969C1395.41 973.175 1391.61 973.256 1389 969L1384 966C1378.49 967.523 1373.86 969.274 1370 964C1365.83 966.306 1366.28 969.612 1366 974C1357.8 967.671 1356.59 979.757 1363 984L1357 988L1354 982L1353 987C1347.91 985.43 1345.56 984.989 1343 980L1336 979L1335 983L1334 983C1332.01 978.843 1323.35 969.853 1319 969L1309 963L1313 980C1323.71 980.3 1322.6 995.223 1333 997L1335 1004L1336 1004L1336 1001L1342 1014C1332.1 1007.96 1325.6 995.873 1312 998L1308 993C1308.47 998.88 1304.56 1003.39 1299 1005L1300 1008L1297 1002C1285.96 999.526 1284.11 988.856 1280 980L1279 980L1284 1000C1294.2 1001.59 1300.64 1023.73 1301 1033C1296.3 1029.02 1292.01 1027.91 1291 1035L1289 1035L1288 1034L1287 1025L1286 1025L1281 1029L1279 1025L1278 1032L1272 1028C1267.42 1042.61 1262.08 1029.52 1262 1021L1257 1021L1260 1043L1260 1044C1253.29 1046.23 1257.45 1053.44 1248 1053L1246 1064L1239 1044L1242.13 1065L1240 1080L1920 1080L1920 0L1116 0M991 3L992 11L993 11L991 3M1108.67 5.33337L1109.33 5.66663L1108.67 5.33337z"/>
<path style="fill:#040404; stroke:none;" d="M756 8L759 8L758 6L756 8M1120 7L1120 10L1122 7L1120 7M751 9L752 10L751 9z"/>
<path style="fill:#fcfcfc; stroke:none;" d="M836 9L836 12L837 12L838 9L836 9z"/>
<path style="fill:#040404; stroke:none;" d="M1124 11L1125 12L1124 11M751.333 12.6666L751.667 13.3334L751.333 12.6666z"/>
<path style="fill:#fcfcfc; stroke:none;" d="M992 14L988 28C995.846 29.3195 995.517 18.6426 992 14z"/>
<path style="fill:#040404; stroke:none;" d="M747 15L748 16L747 15M764 15L765 16L764 15M772 15L771 20L774 20L774 24L778 17L776 20L775 20L774 15L772 15M904 15L904 20L906 20L907 15L904 15z"/>
<path style="fill:#fcfcfc; stroke:none;" d="M1000 15L1001 16L1000 15z"/>
<path style="fill:#040404; stroke:none;" d="M764.333 17.6666L764.667 18.3334L764.333 17.6666M953 17L953 22L955 22L955 17L953 17z"/>
<path style="fill:#fcfcfc; stroke:none;" d="M861.667 19.3334L862.333 19.6666L861.667 19.3334z"/>
<path style="fill:#040404; stroke:none;" d="M820.667 23.3334L821.333 23.6666L820.667 23.3334z"/>
<path style="fill:#fcfcfc; stroke:none;" d="M875 35L876 35L878 27C876.263 22.6941 870.308 22.4436 870.296 28.0255C870.29 31.1287 873.047 33.0004 875 35z"/>
<path style="fill:#040404; stroke:none;" d="M924 27L925 28L924 27z"/>
<path style="fill:#fcfcfc; stroke:none;" d="M1000 28L999 33L1000 33L1000 28M768 30L768 34L770 30L768 30M731 32L732 33L731 32M911 32L911 36L913 36L913 32L911 32M782 33L783 36L784 36L784 33L782 33M1122 33L1123 36L1124 36L1122 33M775 35L776 36L775 35M715 38L716 39L715 38M928 39L929 40L928 39M700 40L700 44L704 44L700 40M921 40L919 45L921 40M880 41L882 44L880 41M927 42L928 43L927 42M950.333 42.6666L950.667 43.3334L950.333 42.6666M946 43L947 48L948 48L948 43L946 43M741 46L742 47L741 46M742 48L744 50L744 48L742 48z"/>
<path style="fill:#040404; stroke:none;" d="M1160.67 59.3333L1161.33 59.6667L1160.67 59.3333M1134 61L1134 66L1137 61L1134 61z"/>
<path style="fill:#fcfcfc; stroke:none;" d="M700 65L699 68L703 68L700 65z"/>
<path style="fill:#040404; stroke:none;" d="M1178 67L1179 68L1178 67z"/>
<path style="fill:#fcfcfc; stroke:none;" d="M1148 69L1149 70L1148 69M1148.33 72.6667L1148.67 73.3333L1148.33 72.6667M1141 73L1141 76L1142 76L1141 73M1144.67 79.3333L1145.33 79.6667L1144.67 79.3333M1146 92L1151 92L1150 89L1146 92M1141 99L1141 100L1144 100L1141 99M693 119L694 120L693 119M697 119C695.363 122.87 694.027 126.421 698 129C696.98 132.816 694.286 137.283 698 140L702 133L698.649 151L713 166L728 173C731.687 176.584 749.662 177.295 753 174L754 174L761 176L755 166C762.622 167.702 769.657 175.198 776.985 175.955C785.62 176.848 787.268 163.352 785 158C780.921 159.312 779.6 163.659 774.985 163.926C768.323 164.311 764.081 159.507 758.83 156.351C752.647 152.634 744.527 149.46 738 146.317C734.581 144.671 730.373 145.7 727.259 143.4C721.261 138.97 713.468 134.119 708.144 128.791C703.836 124.479 703.69 120.223 697 119M592.333 120.667L592.667 121.333L592.333 120.667z"/>
<path style="fill:#040404; stroke:none;" d="M1282 121L1280 126C1282.59 124.562 1283.53 123.673 1282 121M559 127L560 128L559 127z"/>
<path style="fill:#fcfcfc; stroke:none;" d="M557 129L558 130L557 129M692.333 130.667L692.667 131.333L692.333 130.667z"/>
<path style="fill:#040404; stroke:none;" d="M1126 130L1125 132L1127 132L1126 130z"/>
<path style="fill:#fcfcfc; stroke:none;" d="M588 131L588 132L591 132L588 131M485 135L486 136L485 135z"/>
<path style="fill:#040404; stroke:none;" d="M1122.67 135.333L1123.33 135.667L1122.67 135.333z"/>
<path style="fill:#fcfcfc; stroke:none;" d="M726 139L727 140L726 139M1355 141L1356 142L1355 141M1345 144L1343 148L1345 144M1268 145L1267 146L1267 147L1267 148L1270 145L1268 145M1123 146L1122 147L1122 148L1123 149L1124 149L1125 148L1125 147L1123 146M1099 147L1100 148L1099 147M1116 149L1117 150L1116 149M1128 149L1122 164C1126.68 161.409 1129.84 154.186 1128 149M1418 153L1419 154L1418 153M699 157L700 158L699 157z"/>
<path style="fill:#040404; stroke:none;" d="M709 157L710 161L711 161L712 157L709 157M470 159L472 162L470 159z"/>
<path style="fill:#fcfcfc; stroke:none;" d="M1155 159L1153 165L1158 159L1155 159z"/>
<path style="fill:#040404; stroke:none;" d="M748 163L752 168L748 163z"/>
<path style="fill:#fcfcfc; stroke:none;" d="M1119 165L1119 168L1120 168L1119 165M1104 172L1108 172L1109 167L1104 172M1161 168L1161 173L1164 168L1161 168M698 169L699 170L698 169z"/>
<path style="fill:#040404; stroke:none;" d="M734.667 171.333L735.333 171.667L734.667 171.333M407 174L406 176L408 176L407 174z"/>
<path style="fill:#fcfcfc; stroke:none;" d="M705.333 174.667L705.667 175.333L705.333 174.667M482 175L482 179L483 179L482 175M478.667 177.333L479.333 177.667L478.667 177.333M709 177L709 180L710 180L709 177M742 177L742 182L744 182L745 181L744 177L742 177M750 179L748 184L753 184L753 183L750 179M1112 180L1115 184L1112 180M378.667 181.333L379.333 181.667L378.667 181.333M712 181L713 182L712 181M713 183L714 184L713 183M1401 183L1402 184L1401 183z"/>
<path style="fill:#040404; stroke:none;" d="M468 187L468 191L469 191L468 187z"/>
<path style="fill:#fcfcfc; stroke:none;" d="M474 189L475 190L474 189M423 190L424 191L423 190M479 191L480 192L479 191M475 199L476 200L475 199z"/>
<path style="fill:#040404; stroke:none;" d="M457 201L458 202L457 201z"/>
<path style="fill:#fcfcfc; stroke:none;" d="M479 206L478 208L479 206M346.667 207.333L347.333 207.667L346.667 207.333z"/>
<path style="fill:#040404; stroke:none;" d="M453 207L454 208L453 207M338 209L339 210L338 209M440 215L441 216L440 215z"/>
<path style="fill:#fcfcfc; stroke:none;" d="M1373.33 217.667L1373.67 218.333L1373.33 217.667z"/>
<path style="fill:#040404; stroke:none;" d="M1611 222L1615 217C1611.9 217.948 1611.13 218.749 1611 222z"/>
<path style="fill:#fcfcfc; stroke:none;" d="M441 219L442 220L441 219M1441.33 221.667L1441.67 222.333L1441.33 221.667M1377.33 222.667L1377.67 223.333L1377.33 222.667M455 223L456 224L455 223z"/>
<path style="fill:#040404; stroke:none;" d="M306 227L306 231L307 231L308 227L306 227z"/>
<path style="fill:#fcfcfc; stroke:none;" d="M475 236L478 233L475 236M466.333 238.667L466.667 239.333L466.333 238.667M1643 241L1645 244L1643 241z"/>
<path style="fill:#040404; stroke:none;" d="M1663.33 246.667L1663.67 247.333L1663.33 246.667z"/>
<path style="fill:#fcfcfc; stroke:none;" d="M320 247L321 248L320 247z"/>
<path style="fill:#040404; stroke:none;" d="M1666.67 247.333L1667.33 247.667L1666.67 247.333z"/>
<path style="fill:#fcfcfc; stroke:none;" d="M330 255L331 256L330 255M336 259L341 262L338 258L336 259M1660.67 258.333L1661.33 258.667L1660.67 258.333M1654 283L1655 284L1654 283M1649 287L1649 288L1652 288L1649 287M337 290L337 292L340 292L340 290L337 290z"/>
<path style="fill:#040404; stroke:none;" d="M314 309L314 312L315 312L316 309L314 309z"/>
<path style="fill:#fcfcfc; stroke:none;" d="M298 310L299 311L298 310M306 325L304 330L308 332L306 325M293 341L292 344L293 341M290.667 347.333L291.333 347.667L290.667 347.333M1574.33 350.667L1574.67 351.333L1574.33 350.667M289 352L290 353L289 352M1577 355L1577 357L1579 355L1577 355M292 358L292 360L294 360L292 358M1577 367L1578 368L1577 367z"/>
<path style="fill:#040404; stroke:none;" d="M260.333 388.667L260.667 389.333L260.333 388.667M258 391L259 392L258 391M260 392L264 396L260 392z"/>
<path style="fill:#fcfcfc; stroke:none;" d="M1592.67 415.333L1593.33 415.667L1592.67 415.333M366 425L367 426L366 425M260 431L261 432L260 431z"/>
<path style="fill:#040404; stroke:none;" d="M254 436L254 440L256 440L256 436L254 436M347 439L348 440L347 439M348 450L349 451L348 450M275 479L276 480L275 479z"/>
<path style="fill:#fcfcfc; stroke:none;" d="M282 481L283 482L282 481z"/>
<path style="fill:#040404; stroke:none;" d="M1600.67 483.333L1601.33 483.667L1600.67 483.333z"/>
<path style="fill:#fcfcfc; stroke:none;" d="M275 485L276 486L275 485M1588 488L1589 489L1588 488M256 489L257 490L256 489M1553 491L1554 492L1553 491z"/>
<path style="fill:#040404; stroke:none;" d="M1566 495L1567 496L1566 495z"/>
<path style="fill:#fcfcfc; stroke:none;" d="M1585 535L1586 536L1585 535M284 554L283 556L285 556L284 554z"/>
<path style="fill:#040404; stroke:none;" d="M300 565L300 568L301 568L300 565z"/>
<path style="fill:#fcfcfc; stroke:none;" d="M309 574L308 578L309 574M296 597L300 600L296 597M1549 603L1550 604L1549 603M289 614L290 615L289 614z"/>
<path style="fill:#040404; stroke:none;" d="M283 633L284 636L283 633z"/>
<path style="fill:#fcfcfc; stroke:none;" d="M294 646L294 648L296 648L294 646z"/>
<path style="fill:#040404; stroke:none;" d="M199.667 653.333L200.333 653.667L199.667 653.333z"/>
<path style="fill:#fcfcfc; stroke:none;" d="M289 661L290 662L289 661M227 674L227 675L232 676L232 675L227 674M1517 677L1518 680L1520 680L1520 676L1517 677M1526 678L1527 679L1526 678M237.667 679.333L238.333 679.667L237.667 679.333M1530 679C1529.49 686.066 1533.33 688.182 1540 689L1540 694L1536 694L1536 703C1541.58 701.742 1547.17 705.324 1552 708L1554 705C1551.03 696.507 1538.9 681.37 1530 679M245 684L248 684L247 682L245 684M1525 685L1525 688L1526 688L1525 685M1528 687L1530 692L1534 688L1528 687M1535 697L1536 698L1535 697M1533 698L1532 700L1534 700L1533 698M1598 699L1599 700L1598 699M1542 705L1543 706L1542 705M1554 706L1552 712L1558 712L1554 706z"/>
<path style="fill:#040404; stroke:none;" d="M184 723L185 724L184 723z"/>
<path style="fill:#fcfcfc; stroke:none;" d="M318 726C318.172 729.59 319.738 730.662 323 732L323 731L320 726L318 726M241 735L241 736L244 736L241 735M239 737L231 743L231 744L239 744L239 737z"/>
<path style="fill:#040404; stroke:none;" d="M225 750L228 752L225 750z"/>
<path style="fill:#fcfcfc; stroke:none;" d="M1460 759L1461 760L1460 759z"/>
<path style="fill:#040404; stroke:none;" d="M1490 765L1491 766L1490 765M216.667 771.333L217.333 771.667L216.667 771.333z"/>
<path style="fill:#fcfcfc; stroke:none;" d="M222 773L226 772L222 773M1424.67 771.333L1425.33 771.667L1424.67 771.333M1440 783C1444.04 788.972 1446.55 786.88 1452 784L1452 783L1447 785L1440 783M220 787L221 788L220 787M272 800L277 800L277 798L272 800z"/>
<path style="fill:#040404; stroke:none;" d="M1536 811L1537 812L1536 811z"/>
<path style="fill:#fcfcfc; stroke:none;" d="M1529 815L1531 818L1531 815L1529 815M296 845L297 846L296 845M1510 847L1511 848L1510 847M288 863L289 864L288 863M1469.33 877.667L1469.67 878.333L1469.33 877.667M284 899L285 900L284 899M281 901L282 902L281 901M280.667 903.333L281.333 903.667L280.667 903.333z"/>
<path style="fill:#040404; stroke:none;" d="M612.333 904.667L612.667 905.333L612.333 904.667M628 904L627 908L630 904L628 904M276 907L277 908L276 907z"/>
<path style="fill:#fcfcfc; stroke:none;" d="M1446 911L1448 913L1448 911L1446 911z"/>
<path style="fill:#040404; stroke:none;" d="M1464.67 911.333L1465.33 911.667L1464.67 911.333z"/>
<path style="fill:#fcfcfc; stroke:none;" d="M640.333 914.667L640.667 915.333L640.333 914.667M640 917L640 920L642 920L642 917L640 917M1413 917L1414 918L1413 917M1403.33 926.667L1403.67 927.333L1403.33 926.667z"/>
<path style="fill:#040404; stroke:none;" d="M1437 926L1440 931L1439 926L1437 926z"/>
<path style="fill:#fcfcfc; stroke:none;" d="M587 927L588 928L587 927z"/>
<path style="fill:#040404; stroke:none;" d="M1452 929L1455 934L1456 934L1458 931L1452 929M342 931L338 933L339 938C341.685 935.912 343.551 934.317 342 931z"/>
<path style="fill:#fcfcfc; stroke:none;" d="M1407 931L1408 932L1407 931M647.667 935.333L648.333 935.667L647.667 935.333M1303 938L1305 935L1303 938z"/>
<path style="fill:#040404; stroke:none;" d="M592 937L593 938L592 937M1422 937L1423 938L1422 937z"/>
<path style="fill:#fcfcfc; stroke:none;" d="M583.333 942.667L583.667 943.333L583.333 942.667M1304 945L1304 948L1306 948L1306 945L1304 945M1266 949L1268 953L1266 949M342 950L342 952L344 950L342 950z"/>
<path style="fill:#040404; stroke:none;" d="M634 956L633 960L637 960L636 956L634 956z"/>
<path style="fill:#fcfcfc; stroke:none;" d="M1262 958L1262 960L1271 964C1268.52 960.521 1266.4 957.933 1262 958M376 963L377 964L376 963z"/>
<path style="fill:#040404; stroke:none;" d="M1398 967L1398 968L1401 968L1398 967z"/>
<path style="fill:#fcfcfc; stroke:none;" d="M342 971L342 972L345 972L342 971M1332 971L1332 977L1335 976L1332 971z"/>
<path style="fill:#040404; stroke:none;" d="M1400 976L1404 976L1403 973L1400 976z"/>
<path style="fill:#fcfcfc; stroke:none;" d="M390 979L390 980C393.194 979.987 395.271 980.403 396 977L390 979M1136 977L1132 988L1138 989C1137.18 993.444 1136.21 997.076 1141 999L1138 1004L1144 1008C1135.71 1010.55 1153.03 1024.8 1154 1032C1147.28 1026.95 1142.61 1019.21 1133 1020L1133 1011C1123.37 1012.06 1121.67 1001.28 1119 994L1118 994L1114 1011C1107.08 1012.66 1104.1 1017.21 1106 1024L1104 1020C1101.43 1019.07 1099.72 1018.94 1097 1019.04C1081.81 1019.65 1087.22 1028.8 1091 1040L1087 1039C1087.65 1058.97 1116.99 1060.32 1118 1080L1238 1080C1238.27 1066.64 1233.17 1057.85 1230.51 1045C1227.8 1031.82 1230.06 1016.46 1218 1007L1222 1023L1225 1025L1221 1022L1204 1011L1205 1016L1193 1004L1192 1005L1193 1009L1192 1009L1192 1007L1191 1007L1198 1028L1193 1017L1185 1014C1190.64 1000.07 1178.8 999.823 1169 1001C1170 1005.59 1176.1 1019.69 1180 1021L1176 1036C1179.63 1037.06 1182.44 1040.63 1177 1041L1172 1049C1173.68 1028.42 1161.65 1019.86 1153.19 1002.62C1151.7 999.585 1152.5 995.318 1151.4 992C1148.85 984.298 1142.87 980.474 1136 977M348 979L349 980L348 979M660 979L660 982L662 979L660 979M1350.33 979.667L1350.67 980.333L1350.33 979.667M1355 979L1356 980L1355 979M353 981L354 982L353 981M353 983L354 984L353 983M523 983L523 985L525 985L525 983L523 983M658 983L659 984L658 983M685.667 983.333L686.333 983.667L685.667 983.333z"/>
<path style="fill:#040404; stroke:none;" d="M361 984L361 988L362 988L361 984z"/>
<path style="fill:#fcfcfc; stroke:none;" d="M680 988L679 990L681 990L680 988z"/>
<path style="fill:#040404; stroke:none;" d="M1362 990L1362 992L1364 990L1362 990z"/>
<path style="fill:#fcfcfc; stroke:none;" d="M490 991L491 992L490 991M504 991L505 992L504 991M651.667 991.333L652.333 991.667L651.667 991.333M1156.67 991.333L1157.33 991.667L1156.67 991.333M1190 991L1191 992L1190 991z"/>
<path style="fill:#040404; stroke:none;" d="M512 993L514 996L514 993L512 993z"/>
<path style="fill:#fcfcfc; stroke:none;" d="M1295 994L1294 995C1295.59 998.076 1296.42 1000.06 1300 1000L1295 994M671.667 995.333L672.333 995.667L671.667 995.333M1185 995L1184 1000C1189.11 1000.79 1188.65 997.255 1185 995z"/>
<path style="fill:#040404; stroke:none;" d="M536 997L537 998L536 997z"/>
<path style="fill:#fcfcfc; stroke:none;" d="M489 999L492 1004L489 999M548.333 999.667L548.667 1000.33L548.333 999.667M979 999L980 1000L979 999M1213 999L1216 1004L1213 999M1192 1000L1193 1001L1192 1000M625 1001L625 1006L628 1001L625 1001M981 1001L981 1004L984 1004L984 1001L981 1001M384 1004L385 1005L384 1004z"/>
<path style="fill:#040404; stroke:none;" d="M1304 1005L1305 1006L1304 1005M592 1009L592 1012L594 1012L594 1009L592 1009z"/>
<path style="fill:#fcfcfc; stroke:none;" d="M978 1012L980.809 1023L974 1044L972 1044L971 1039L970 1039C966.692 1048.44 962.554 1049.05 953 1048C960.017 1037.86 953.603 1035.85 952 1025L948 1026L946 1019L945 1019L948.807 1035L944.109 1051L946.732 1065L944 1080C959.931 1080 980.737 1083.51 996 1079L996 1061C988.734 1061.11 980.881 1057.02 977 1051C985.855 1046.39 994.874 1034.47 1000 1026L994 1027L987 1020L983 1011L978 1012M1278 1016L1277 1020L1282 1020L1278 1016M1286 1017C1287 1020.04 1287.86 1020.49 1291 1020L1286 1017M995 1018L994 1020L996 1020L995 1018M971 1019L968 1032C973.283 1030.19 973.83 1023.93 973 1019L971 1019z"/>
<path style="fill:#040404; stroke:none;" d="M1109 1022L1108 1024L1110 1024L1109 1022M1101 1025L1101 1028L1102 1028L1103 1025L1101 1025z"/>
<path style="fill:#fcfcfc; stroke:none;" d="M898 1027L891 1033L894.38 1040.96L882.362 1057.06L886 1068L880 1071L880 1067C875.3 1070.33 873.005 1074.33 874 1080L930 1080C930.256 1071.37 935.449 1067.08 943 1064C933.898 1052.22 936.943 1049.57 941 1037L928 1035L924 1038L923 1029L919 1034L917 1030C913.269 1033.55 917.492 1042.07 915.974 1047C912.672 1057.72 904.601 1057.41 896 1060C901.294 1053.13 909.719 1046.29 907 1037C897.307 1047.38 901.505 1031.7 898 1027M928 1027L929 1028L928 1027z"/>
<path style="fill:#040404; stroke:none;" d="M1225 1028L1224 1032L1225 1028M419 1029L418 1033L419 1033L421 1029L419 1029z"/>
<path style="fill:#fcfcfc; stroke:none;" d="M935 1030L935 1032L937 1032L935 1030z"/>
<path style="fill:#040404; stroke:none;" d="M1284 1030L1286 1034L1284 1030M1295.33 1030.67L1295.67 1031.33L1295.33 1030.67z"/>
<path style="fill:#fcfcfc; stroke:none;" d="M1077 1031L1077 1034L1078 1034L1077 1031z"/>
<path style="fill:#040404; stroke:none;" d="M1153.67 1033.33L1154.33 1033.67L1153.67 1033.33M952.667 1039.33L953.333 1039.67L952.667 1039.33M950 1047L951 1053L952 1053L950 1047z"/>
<path style="fill:#fcfcfc; stroke:none;" d="M1251 1047L1252 1048L1251 1047M753 1051L753 1052L760 1054C762.688 1048.31 756.35 1049.26 753 1051M584 1051L585 1052L584 1051M775 1051L774 1056L776 1056L775 1051M789 1053L791 1056L789 1053z"/>
<path style="fill:#040404; stroke:none;" d="M975 1053L974 1056L975 1053z"/>
<path style="fill:#fcfcfc; stroke:none;" d="M1024 1063L1024 1064L1026 1068L1019 1060L1019 1070C1022.23 1070.07 1023.6 1070.69 1024 1074L1018 1073L1020 1080L1030 1080C1031.65 1073.7 1035.49 1070.44 1042 1070L1042 1069L1041 1067L1037.41 1054.83L1024 1063M878 1055L876 1062C878.518 1060.22 879.277 1057.91 878 1055z"/>
<path style="fill:#040404; stroke:none;" d="M962 1055L963 1056L962 1055z"/>
<path style="fill:#fcfcfc; stroke:none;" d="M1015 1055L1016 1056L1015 1055M759 1057L762 1080L768 1080L770 1063L765 1063L766 1059L759 1057z"/>
<path style="fill:#040404; stroke:none;" d="M911 1057L914 1071C917.292 1066.65 916.629 1058.85 911 1057z"/>
<path style="fill:#fcfcfc; stroke:none;" d="M1050 1057L1051 1058L1050 1057z"/>
<path style="fill:#040404; stroke:none;" d="M1253.33 1057.67L1253.67 1058.33L1253.33 1057.67z"/>
<path style="fill:#fcfcfc; stroke:none;" d="M1052 1061L1050 1080L1068 1080L1063 1074L1064 1067L1062 1070C1056.78 1068.93 1054.82 1066.15 1054 1061L1052 1061M1064 1062L1063 1064L1065 1064L1064 1062M1011 1063L1012 1064L1011 1063M862 1067L862 1068L866 1066L862 1067z"/>
<path style="fill:#040404; stroke:none;" d="M568 1072L571 1069L568 1072M577 1069L577 1074L580 1069L577 1069z"/>
<path style="fill:#fcfcfc; stroke:none;" d="M673 1080L683 1080L683 1069C676.25 1070.69 673.383 1072.64 673 1080M780 1080L792 1080C790.919 1077.57 785.645 1067.08 781.817 1070.09C779.86 1071.63 780.422 1077.63 780 1080M936 1069L936 1070L939 1070L936 1069M609.333 1070.67L609.667 1071.33L609.333 1070.67M622 1080C628.972 1080 642.934 1080.89 640 1070C632.338 1070.88 622.772 1069.96 622 1080M1079 1070L1079 1072L1081 1072L1081 1070L1079 1070M1002 1071L1002 1080L1015 1080L1014 1074L1006 1076L1002 1071M645 1080L656 1080L658 1076C652.864 1069.99 647.823 1074.14 645 1080M1099 1073L1100 1080L1101 1080L1101 1073L1099 1073M794.667 1075.33L795.333 1075.67L794.667 1075.33M862.667 1075.33L863.333 1075.67L862.667 1075.33M868.667 1075.33L869.333 1075.67L868.667 1075.33M940 1075L934 1079L934 1080L941 1080L940 1075M660 1077C660.654 1080.05 662.007 1079.94 665 1080L660 1077M615.667 1079.33L616.333 1079.67L615.667 1079.33M692 1079L693 1080L692 1079M696.667 1079.33L697.333 1079.67L696.667 1079.33M828 1079L829 1080L828 1079M859.667 1079.33L860.333 1079.67L859.667 1079.33M1034 1079L1035 1080L1034 1079M1076 1079L1077 1080L1076 1079z"/>
</svg>
