<?xml version="1.0" standalone="yes"?>
<svg xmlns="http://www.w3.org/2000/svg" width="1920" height="1080">
<path style="fill:#fcfcfc; stroke:none;" d="M0 0L0 1080L617 1080L617 1079L613 1079L612 1068L607 1068C616.842 1046.68 641.109 1033.99 656.595 1016.94C661.86 1011.14 668.453 1009.54 670 1001C657.479 1004.42 644.884 1022.65 635 1031C627.868 1037.02 617.334 1040.57 609 1045.02C601.023 1049.27 591.937 1053.39 584.439 1058.01C581.736 1059.68 580.151 1063.08 576.95 1063.96C574.1 1064.75 571.838 1062.33 569.051 1062.28C565.643 1062.21 562.607 1064.1 559 1064C562.245 1059.58 565.078 1053.19 569.274 1049.7C574.907 1045.01 583.616 1043.39 589.985 1039.74C594.141 1037.35 596.98 1033.25 601.004 1030.59C607.315 1026.42 618.928 1020.94 622.957 1014.37C625.599 1010.06 619.485 1002.87 616 1001C615.124 1006.61 611.921 1007.38 607 1009C612.971 992.051 632.209 989.536 642.049 976.867C645.098 972.942 649.281 968.183 651.181 963.576C653.641 957.61 651.511 951.927 658 948L658 946C651.087 945.021 645.12 954.528 642 960L640 960L644 944L642 946L637 945C633.281 950.136 629.905 949.795 624 949L624 952L622 952C626.825 939.879 648.24 936.9 643 921L642 924C636.327 918.652 631.062 904.563 629 897L624 897C617.41 905.676 605.947 896.738 601 904L604 910L603 910L597 907L600 920L596 917L594 935C589.598 935.231 588.51 947.462 584 942L583 942L591 976L586 976L578 961L577 961C580.483 975.241 582.711 987.231 582 1002L566 987L564 1013L556 1014C555.371 1007.68 553.792 1002.1 548 999C547.73 1003.54 545.815 1005.67 542 1008L543 995C538.864 994.246 535.515 993.439 534 998L529 987L523 983L524 988L514 993L512 988L511 988L506 1000L504 1000L502 992L506 992L506 991C498.588 989.439 500.094 997.895 495 1001L496 1010L495 1010L491 1007L487 1010L488 1014L490 1012C498.092 1030.19 509.603 1042.12 495 1061L491 1056L490 1065L483 1062L479 1055L479 1058L472 1053L468 1054L468 1039C463.395 1040.48 462.109 1044.57 461 1049L460 1049L456 1036C450.533 1038.46 447.442 1041.91 447 1048L444 1048L442 1032L441 1032L440 1044L427 1044L424 1048L427 1041L423 1038L422 1033L427 1032L427 1031C420.431 1026.9 423.862 1023.41 425 1017L414 1021L414 1017L419 1018C419.419 1014.46 421.214 1011.29 418 1009L414 1014L412 1007L411 1007L404 1030L401 1023L398 1026L396 1026L397.617 1005L398 996L398 995L393 996L386 1008L385 1008L385 1004L384 1004L381 1009C378.329 997.379 385.82 992.868 388 983L377 987L368 1004L364 978L351 989L348 986L348 981L349 978L347 981L342 972L347 969C338.731 971.714 336.502 971.816 328 970L328 966L327 966L326 970C320.906 962.906 339.881 955.932 343 950L340 952C340.911 940.835 345.864 933.789 341 923L323 936L336 915L340 916L345 903L330 910L324 920L329.179 903.171L339 890L334 889L333 897C326.855 896.599 322.336 897 319 891L324 885C317.367 883.706 312.809 885.771 310 892C300.787 891.21 302.108 902.435 298.397 907.98C295.819 911.833 291.903 912.291 288 914L289 909L282 909L286 907L276 904L276 903L279 902L289 879L279 881L279 870L286 874L287 870L289 872L290 872L296 868L296 866C289.981 865.195 287.936 867.949 284 862L281 866L276 864C276.574 860.374 276.189 858.01 273 856C278.404 851.222 279.705 847.946 281 841L297 846L300 840L299 837L302 836L300 833C294.27 839.298 282.813 837.079 280 829C284.886 829.821 285.816 827.176 289 824L289 823C281.435 824.379 265.356 832.204 262 823L281 820L281 811L270 809L269 809L265 812L264 806L272 806L272 801L277 800L277 798L276 797L272 801C267.56 797.702 261.586 794.215 258 800L252 795L251 795L215 792L210 788L210 786L214 786C214.353 781.314 216.288 777.418 221 776L226 771L220 772L224 764L227 765L227 759L232 755C235.651 755.556 236.593 754.314 238 751C220.897 750.877 239.649 743.338 240 737L229.019 742.704L222.262 736.028L205.83 731.333L192 734C194.732 728.851 193.747 725.551 188 724L189 719C200.953 721.458 203.138 712.986 214 712L213 709L217 711C216.167 707.219 216.563 705.901 220 704L204 697C207.554 696.958 216.978 693.769 210.552 689.179C207.911 687.293 203.127 687.745 200 687L200 685L212 684C211.03 679.21 208.887 676.761 204 676C205.306 658.886 224.622 676.713 232 676C222.669 667.557 205.3 657.639 202 645C212.15 646.81 219.401 655.214 228 660.772C233.824 664.535 239.425 665.644 237 657L240 660C251.466 658.04 259.436 671.229 273 668L273 667L265 664L269 660L264 656L264 654L286 665C290.043 657.147 293.013 653.932 292 645C288.191 642.885 288.6 640.793 290 637L287 637L286 633L292 635L299 636L280 615L284 616C285.341 607.409 274.834 601.24 267 600L295 596L294 591L297 590L298 590L304 596L302 589L304 592L318 592C316.232 586.646 309.993 585.142 307.513 579.996C305.648 576.126 307.945 572.035 306.702 568.005C304.089 559.528 293.237 557.086 287 563L286 563L285 553L284 553C280.158 557.462 275.197 558.748 272 553C276.275 552.624 287.458 549.529 285.654 543.184C284.538 539.259 274.931 530.941 272 527C281.672 526.21 278.091 520.533 273 515.004C265.583 506.95 259.583 498.884 251 492L251 491L256 492L257 492L254 483L255 482L274 485L275 485L276 487L277 481L284 484L284 477C300.373 489.448 308.845 476.785 326 474L322 467L326 468L340 457C348.047 457.848 355.915 444.135 356 437L351 438C353.93 433.191 361.589 431.167 363.674 426.586C366.027 421.413 358.82 418.141 355 419C356.768 428.645 342.967 435.334 336.039 440.17C325.342 447.638 315.414 451.169 304 456.876C299.896 458.928 294.038 463.934 289.094 463.018C285.441 462.341 284.771 457.863 281.737 456.269C277.524 454.055 274.671 456.062 271 452L262 452L260 445L263 447L258 435L262 431L258 433C259.321 425.592 264.532 419.649 271 416L270 412L269 412L267 416L266 416L268 407L269 410L270 410C271.961 404.665 276.058 405.181 281 404L281 402L276 398L275 398L266 400C265.816 394.088 266.187 390.191 273 390L269 384L269 381L272 385L275 386L276 385L274 381L280 371L273 350C279.483 354.608 281.548 360.181 290 361L291 355L287 354L287 353L290 353L289 350L287 349L283 348L285 349L285 348C283.537 342.314 289.309 334.767 295 339L296 339L296 325L301 328L294 311L290 312L291 307L295 308L296 305L298 305L299 306L298 311L299 311L308 308C308.855 312.537 308.794 317.427 313 320L313 315C318.948 313.687 318.894 305.905 318 301C328.189 303.706 325.93 289.645 327 283L331 288L333 288L333 282L340 284C337.984 273.179 335.289 274.668 327.301 268.645C321.034 263.92 319.869 259.258 311 260L314 257C314.451 253.525 316.609 251.656 320 253L321 253L321 247L308 246L307 246L304 248L302 239C306.693 238.219 307.39 235.4 308 231L311 233C311.71 221.846 322.967 227.183 325 216L326 216L326 222L328 222L326 211L337 210L338 210L344 215L347 203L346 208L348 205L351 206L355 201L352 189L364 187L363 182L374 186L373 183L376 180L380 182L381 179L382 179L403 196L403 189L409 192L406 179L412 184L411 177L418 177L432.822 199.184L433.718 210.985L440 220C446.517 219.591 451.191 218.716 449 211C454.953 214.072 462.144 219.328 464 226C470.447 221.362 456.876 211.53 455 206L459 210L460 203L468 209L467 206L475 209L473 198L476 200L471 187L475 187L474 190L475 190L472 173L476 177C482.248 172.472 472.114 166.002 475 159C469.038 155.655 468.932 147.337 468 141L475 147L477 141L478 141L480 144L478 140L478 139L481 133L478 134L476 125C478.804 126.988 480.006 127.829 483 126L485 134L487 133L490 139C494.9 135.896 492.776 106.948 499 124L501 124C503.041 118.775 500.29 115.682 498 111L502 112L502 106L504 108L505 108L510 110L523 106L519 101L522 89L523 96L530 96L528 85C540.827 90.1396 536.802 107.658 539 119L542 111L543 111L551 132L552 132L554 125L558 125L557 130L560 129L561 136L562 136L565 121L567 124L569 118C573.068 124.703 566.679 133.146 574 137L583 107C583.365 112.028 585.706 117.198 590 120C588.752 116.629 587.028 113.64 590 111L590 116L591 116L588.194 97L594 78L595 78L595 92L596 87L597 87L599 92L600 92C600 74.957 598.845 56.5068 603.786 40C607.22 28.5253 615.731 22.0435 616 9L620 11L622 0L0 0z"/>
<path style="fill:#040404; stroke:none;" d="M622 0L620 11L616 9C615.46 21.5377 607.091 27.9606 603.786 39C598.716 55.9296 600 74.5192 600 92L599 92L597 87L596 87L595 92L595 78L594 78L588.083 97L591 116L590 116L590 111L587 112L590 120L583 107L580.073 117L574 137L569 118L567 124L565 121L562 136L561 136L560 129L557 130L558 125L554 125L552 132L551 132L543 111L542 111L539 119C537.631 108.348 540.757 88.4006 528 85L530 96L523 96L522 89L519 101L523 106L510 110L502 106L502 112L498 111L501 124L499 124C494.028 105.698 493.545 135.524 490 139L487 133L485 134L483 126L476 125L478 134L481 133L478 139L478 140L480 144L478 141L477 141L475 147L468 141C468.527 147.042 468.745 156.7 475 159C470.937 166.659 481.354 171.062 476 177L472 173L475 190L474 190L475 187L471 187L476 200L473 198L475 209C472.495 206.583 467.88 203.279 468 209L460 203L459 210L455 206C456.329 212.56 468.874 220.129 464 226C462.927 219.064 455.38 213.165 449 211C450.539 218.48 446.155 218.948 440 220L434.129 210.985L433.258 199.184L418 177L411 177L412 184L406 179L409 192L403 189L403 196C397.007 193.406 392.797 185.896 386.028 182.694C383.347 181.427 380.964 177.509 380 182L376 180L373 183L374 186L363 182L364 187L352 189L355 201L351 206L346 208L347 203L344 215L338 210L337 210L326 211L328 222L326 222L326 216L325 216C321.781 226.8 310.66 221.737 311 233L308 231C307.094 235.138 306.232 237.719 302 239L304 248L307 246L308 246L321 247L321 253L320 253C316.87 250.009 314.156 253.702 314 257L311 260C319.05 259.943 320.858 264.018 326.453 268.748C334.015 275.14 337.362 273.051 340 284L333 282L333 288L331 288L327 283C325.243 289.712 328.212 302.706 318 301C318.453 305.316 318.752 314.163 313 315L313 320L308 308L299 311L298 311L299 306L298 305L296 305L295 308L291 307L290 312L294 311L301 328L296 325L296 339L295 339C289.312 332.491 283.278 343.5 285 349L283 348L287 349C287.801 351.003 290.997 352.484 287 353L287 354L291 355L290 361L273 350L280 371L274 381L276 385L275 386L272 385L269 381L269 384L273 390C265.473 389.167 265.54 393.892 266 400L275 398L276 398L281 402L281 404C276.004 404.928 271.25 404.272 270 410L269 410L268 407L266 416L267 416L269 412L270 412L271 416C263.919 418.669 258.763 425.546 258 433L262 431L258 435L263 447L260 445L262 452L271 452C274.004 456.897 277.57 454.278 281.737 456.912C284.585 458.713 285.339 463.034 289.094 463.472C294.509 464.104 300.476 459.138 305 456.876C316.389 451.182 326.292 447.531 337.014 440.17C343.942 435.413 357.629 428.685 355 419C358.501 418.701 365.28 421.855 362.944 426.586C360.504 431.526 353.397 432.131 351 438L356 437C355.768 444.086 347.498 456.606 340 457L326 468L322 467L326 474L311.985 476.977L299.715 483.867L284 477L284 484L277 481L276 487L275 485L274 485L273 488L255 482L254 483L257 492L256 492L256 489L251 491L251 492L272.075 515.004L278.257 524.241L272 527C273.717 530.07 275.002 533.913 277.429 536.482C279.477 538.65 283.885 540.152 284.793 543.184C286.542 549.028 275.998 552.398 272 553C274.143 559.42 281.058 558.166 284 553L285 553C283.726 557.241 283.421 559.266 286 563L287 563C293.994 558.773 304.492 559.308 306.496 569C307.354 573.148 305.244 577.02 307.444 580.999C310.048 585.708 315.458 587.366 318 592L304 592L304 589L302 589L304 596L298 590L297 590L294 591L295 596C288.165 597.712 270.719 594.268 267 600C274.53 602.138 284.506 607.468 284 616L280 615L289.432 622.599L299 636C296.196 634.012 294.994 633.171 292 635L286 633L287 637L289 636L290 637C288.1 640.678 287.591 643.539 292 645L286 665C279.497 661.089 272.223 652.48 264 654L264 656L269 660L265 664L273 667L273 668C266.781 669.155 261.741 668.999 256 666.015C250.426 663.119 246.681 658.224 240 660L237 657C238.177 666.022 232.495 663.17 227 659.445C218.911 653.962 211.968 645.95 202 645C203.867 656.733 222.435 669.877 232 676C224.606 675.314 204.558 658.993 204 676C208.422 677.252 210.53 679.691 212 684L200 685L200 687C202.989 687.886 207.096 687.461 209.731 689.179C216.032 693.286 207.739 696.878 204 697L220 704C216.159 705.487 215.774 707.171 217 711L213 709L214 712L189 719L188 724C193.306 726.152 194.145 728.796 192 734L204.91 731.457L221.567 736.028L229.019 742.883L240 737C239.064 745.305 233.765 741.212 229.89 745.802C226.191 750.185 235.804 751.26 238 751L232 755L227 759L227 765L224 764L220 772L226 771L221 776C215.619 776.93 214.165 780.909 214 786L210 786L210 788L215 792C220.926 790.635 230.229 791.585 236.039 793.534C241.059 795.218 246.047 798.469 251 795L252 795L258 800C262.557 795.248 266.973 798.189 272 801L277 798L277 800L272 801L272 806L264 806L265 812L269 809L270 809L281 811L281 820L262 823C264.127 832.833 282.072 825.122 289 823L289 824L280 829C281.681 837.129 295.553 840.244 300 833L302 836L299 837L300 840L297 846L281 841L273 856L276 864L281 866L284 862C287.118 868.863 289.851 866.026 296 866L296 868L290 872L289 872L287 870L286 874L279 870L279 881L289 879L279 902L276 903L276 904L286 907L282 909C284.703 911.364 285.975 910.803 289 909L288 914L290 912C303.298 914.929 298.028 893.165 310 892C313.772 886.366 317.193 884.279 324 885L319 891C321.34 897.421 327.012 897.418 333 897L334 889L339 890L329.179 902.29L324 920L330 910L345 903L340 916L336 915L323 936L341 923C344.567 933.876 340.482 940.928 340 952L343 950C339.667 954.291 318.824 964.668 326 970L327 966L328 966L328 970C336.148 972.71 339.223 972.782 347 969L342 972L347 981L349 978L348 981L348 986L351 989L364 978L368 1004C372.183 1001.14 377.183 992.025 377 987L388 983C384.592 992.325 377.714 997.778 381 1009L384 1004L385 1004L385 1008L386 1008L393 996L398 995L398 996L397.343 1005L396 1026L398 1026L401 1023L404 1030L411 1007L412 1007L414 1014L418 1009L421 1010L419 1018L414 1017L414 1021L425 1017C423.222 1023.24 419.418 1027.74 427 1031L427 1032L422 1033L423 1038L427 1041L424 1048L427 1044L440 1044L441 1032L442 1032L444 1048L447 1048C447.845 1042.21 451.253 1039.08 456 1036L460 1049L461 1049L468 1039L468 1054L472 1053L479 1058L479 1055L483 1062L490 1065L491 1056L495 1061C511.022 1046.41 499.441 1026.35 490 1012L488 1014L487 1010L491 1007L495 1010L496 1010L495 1001C501.044 999.234 498.182 989.9 506 991L506 992L502 992L504 1000L506 1000L511 988L512 988L514 993L524 988L523 983L529 987C529.205 991.687 529.647 995.623 534 998C536.198 994.053 538.839 994.523 543 995L542 1008C546.318 1006.24 548.549 1003.76 548 999C553.228 1002.86 554.927 1007.68 556 1014L564 1013L566 987C571.069 992.374 574.4 999.927 582 1002C583.406 987.753 582.121 974.421 577 961L578 961L586 976L591 976L583 942L584 942L584 945L594 935L596 917L600 920L597 907L603 910L604 910C604.579 906.577 604.397 905.135 601 904L602 901C609.367 902.459 619.977 905 624 897L629 897C629.983 902.197 639.596 926.201 643 921C647.124 937.376 625.678 938.729 622 952L624 949C629.629 950.504 634.212 950.731 637 945L644 944C641.927 951.192 636.972 951.675 640 960L642 960C646.158 954.947 651.024 946.298 658 946L658 948C650.025 951.162 652.94 961.055 648.402 967.089C645.45 971.016 642.802 976.15 638.934 979.2C628.378 987.526 610.11 994.2 607 1009C612.336 1007.67 615.538 1007.06 616 1001C629.931 1012.28 617.049 1018.71 607 1025.86C601.194 1029.99 595.859 1035.36 589.985 1039.16C576.544 1047.86 567.142 1048.78 559 1064L569.05 1062.57L576.95 1064.37L585.289 1058.01L610 1045.02L640 1027.57L670 1001C667.762 1008.54 662.484 1010.13 657.375 1015.21C651.135 1021.41 645.759 1029.01 638.985 1034.62C627.211 1044.38 612.051 1052.45 607 1068L612 1068L613 1079L621 1080C624.343 1070.17 632.885 1068.78 642 1071L642 1076L636 1080L656 1071L659 1075L659 1076L657 1080L660 1080L660 1075L673 1080C673.709 1072.19 677.042 1070.63 684 1069C683.04 1072.08 680.842 1076.64 684.319 1078.97C688.714 1081.92 700.707 1079.98 706 1080C724.666 1080.08 743.334 1080 762 1080L758 1057C762.666 1057.74 765.23 1059.16 766 1064L771 1063L768 1080C771.038 1080 775.931 1080.87 778.527 1078.97C781.299 1076.94 779.099 1072.78 781.603 1070.75C785.297 1067.75 790.285 1077.37 791 1080L874 1080L879 1066L880 1070L886 1068C884.664 1064.79 881.749 1060.67 882.847 1057.05C886.033 1046.57 899.878 1045.93 891 1033L899 1027C900.082 1032.55 898.758 1049.5 907 1037C909.153 1046.4 900.426 1051.82 897 1060C900.304 1058.85 903.943 1060.09 906.961 1058.84C919.167 1053.8 916.279 1038.9 915 1029L916 1029L918 1033L919 1033L924 1029L926 1035L926 1036L924 1038L941 1037C935.352 1047.82 932.775 1054.43 943 1064C934.85 1066.4 929.432 1071.02 931 1080L941 1076L944 1080L942 1076L942 1075C949.813 1067.26 944.297 1061.86 944.095 1053C943.949 1046.63 948.549 1041.4 948.905 1035C949.233 1029.11 944.965 1024.92 945 1019L946 1019L948 1026L952 1025L957.664 1040L954 1048C962.597 1049.03 968.134 1048.84 969 1039L972 1039L972 1044L973 1044C977.448 1032.82 983.613 1023.15 977 1012L983 1011C983.572 1018.36 993.029 1025.41 1000 1026C993.404 1033.37 984.474 1041.48 979.657 1050.17C976.563 1055.74 982.809 1057.5 987 1057C989.144 1060.75 991.817 1061.35 996 1061L996 1080L1002 1080L1002 1071C1006.17 1074.22 1008.77 1075.23 1014 1074L1015 1080L1020 1080L1019 1072L1024 1074L1019 1059L1020 1059L1022 1064L1024 1064L1034 1060L1034 1052C1041.85 1056.9 1033.84 1064.22 1043 1069L1043 1070C1035.78 1070.08 1031.2 1072.48 1030 1080L1050 1080L1051 1061C1056.28 1064.32 1056.42 1073.03 1064 1067C1060.34 1084.83 1089.93 1080 1100 1080L1099 1073L1101 1073L1101 1080L1118 1080C1117.53 1060.01 1088.48 1058.86 1087 1039L1090 1040C1089.72 1034.48 1084.67 1027.38 1086.76 1022.11C1089.7 1014.7 1099.52 1020.41 1104.83 1017.3C1114.23 1011.79 1114.02 1002.86 1118 994L1119 994C1121.28 1001.8 1123.03 1012.53 1133 1011L1133 1020C1142 1019.81 1146.19 1026.75 1153 1031C1152.92 1023.83 1136.44 1010.38 1144 1008L1143 1005C1139.64 1004.15 1138.7 1002.79 1141 1000L1141 999L1136 998L1138 989L1132 988L1136 977C1146.34 984.256 1153.7 990.258 1152 1004C1158.29 1006.54 1157.4 1010.71 1160.7 1015.71C1168.74 1027.95 1172.64 1034.24 1172 1049L1181 1041C1180.42 1037.53 1179.47 1036.58 1176 1036L1180 1021L1176 1021L1170 1000C1175.2 1001.19 1183.08 1000.8 1185 995L1190 1000L1185 1001C1185.7 1008.3 1185.2 1016.02 1194 1017L1195 1024L1196 1024L1192 1003L1204 1015L1204 1011L1225 1024L1222 1023L1218 1006L1219 1006L1228.99 1028L1230.75 1047L1239 1071L1241 1071L1239 1044L1244 1058L1247 1058L1252 1051L1255 1053L1260 1028L1260 1027L1257 1021L1263 1021L1265 1036C1270.01 1033.92 1271.24 1030.13 1272 1025L1273 1025L1278 1030L1278 1025L1280 1028L1285 1025C1289.72 1026.75 1289.31 1029.44 1289 1034L1291 1034C1292.12 1027.18 1296.44 1029.93 1301 1032C1299.52 1024.4 1296.67 1011.39 1292.4 1005.04C1286.42 996.168 1278.61 992.674 1279 980L1280 980C1284.29 990.023 1286.07 996.368 1296 1002L1293 995L1296 994L1301 997L1298 1008L1299 1008L1309 995L1306 996C1308.35 991.196 1310.64 994.324 1312 998C1321.06 996.582 1326.37 1002.6 1334 1006C1335.38 998.812 1320.35 979.452 1313 980L1310 961L1332 978L1334 970L1335 977L1333 977L1334 980L1335 977L1343 980C1344.18 982.592 1346.13 986.966 1349 984L1350 984L1354 986L1354 981L1355 981L1357 987L1362 983C1356.11 979.304 1355.48 970.984 1364 972C1365.25 969.767 1367.45 962.487 1370 966L1371 966L1372 964C1374.69 968.599 1383.93 968.344 1389 969C1389.86 973.057 1393.44 972.777 1397 972C1394.39 960.376 1404.76 963.029 1413 965C1412.49 957.379 1414.96 954.748 1422 952C1420.87 946.456 1417.7 943.703 1412 944L1411 938L1415 934L1416 934L1416 938C1426.82 935.417 1419.47 930.617 1422.17 924.209C1423.49 921.078 1428.28 918.774 1431 917L1432 919L1432 920C1428.5 921.928 1428.13 924.122 1428 928L1435 926L1434 923C1439.13 922.686 1443.84 922.08 1445 928L1459 924C1455.36 917.956 1452.05 917.938 1454 910L1458 912L1462 908L1457 900L1460 894L1463 895L1462 898L1466 895L1473 897L1464 881L1468 882L1468 877C1477.09 878.681 1477.62 876.114 1471 871L1483 866C1483.99 870.095 1483.58 874.445 1488 876C1485.98 867.505 1488.94 857.019 1499 858L1503 851L1504 851L1504 856L1512 847L1511 850L1512 850C1514.12 844.96 1509.95 840.938 1511.34 837.279C1513.03 832.818 1522.57 835.625 1526 835L1524 832L1524 831L1529 826L1533 828C1531.87 823.468 1531.41 820.224 1527 818L1529 813L1533 816C1533.49 806.133 1528.32 798.307 1521.13 791.969C1517.88 789.097 1517.19 784.782 1512.98 782.819C1508.31 780.641 1503.84 782.2 1499 781.882C1492.49 781.454 1486.7 779.62 1480 780.089C1471.09 780.714 1463.02 783.999 1454 784L1458 780L1458 779L1454 778C1460.07 769.355 1469.86 766.519 1480 768L1481 765C1486.21 765.853 1487.48 762.573 1492 761.722C1497.8 760.63 1519.16 765.577 1521 757C1524.9 757.729 1528.43 754.506 1524.48 751.148C1519.23 746.683 1511.43 749.095 1509 741L1516 742L1516 741L1506 732L1506 731L1517 732L1518 732C1521.38 728.092 1527.83 719.405 1533.02 718.361C1541.91 716.571 1557.5 721.978 1562 711L1579 719.012L1597 717L1596 709L1599 711L1597 699L1601 691C1585.22 676.016 1585.26 651.519 1572.35 634.985C1567.95 629.354 1556.28 621.436 1558 614L1562 616C1560.25 609.766 1555.06 605.801 1549 604C1554.2 596.741 1547.85 591.744 1549 584L1550 584L1553 590L1554 590L1558 576L1574 579.364L1588 586L1587 578L1588 578L1592 580L1585 574L1585 567L1591 566C1590.26 556.859 1581.27 543.844 1593 544L1592 540C1587.07 540.986 1586.04 531.261 1589 532C1586.9 527.515 1584.15 524.568 1579 525L1571 519L1568 521L1567 521C1567.72 517.15 1569.53 512.575 1566 510L1566 514L1565 514C1564.07 509.388 1561.61 505.432 1557 504L1557 503L1565 500L1563 494L1566 489L1560 488L1560 487L1572 483.478L1589 487L1590 490C1603.61 488.909 1591.16 480.019 1599 475L1598 478L1615 472L1619.75 457.999L1615 445L1618 444L1617 441L1615 442L1623 431C1618.3 426.209 1621.88 422.312 1624 417C1620.8 413.577 1621.19 410.412 1622 406C1616.28 404.622 1613.62 407.959 1610 412L1606 404L1605 408L1588.32 406.698L1584 399L1587 400L1579 375L1592 374L1593 371C1586.61 369.412 1581.6 368.91 1582 361L1576 359L1579 358L1579 357L1577 355L1580 356L1575 344C1579.56 343.925 1589.35 338.57 1590 334L1593 335L1591 331L1611 329.262L1629 320C1625.59 304.616 1648.31 293.142 1660 288C1658.83 284.444 1657.09 283.937 1654 286L1653 283L1659 282C1660.44 277.087 1661.79 273.499 1667 272L1666 269L1656 272L1657 265L1654 264L1660 257L1646 242L1646 245L1645 245L1643 242L1647 241C1644.1 231.274 1631.24 234.936 1624 236L1629 228L1629 226L1616 221C1611.8 224.782 1609.06 221.726 1605 219L1600 224L1600 222L1594 224C1591.1 220.696 1586.52 222.902 1583 224.478C1575.27 227.936 1567.71 232.305 1559 232.61C1552.82 232.827 1542.91 230.05 1539 236L1535 233L1538 229L1525 231L1527 235C1509.67 229.521 1490.33 235.211 1473 234C1472.33 225.539 1463.25 228.721 1457 228L1463 219C1456.81 216.827 1445.68 220.781 1440 224L1443 219C1436.25 217.458 1426.83 224.54 1421 228L1421 223L1403 222L1403 224C1395.38 222.426 1381.82 224.935 1379 233L1378 233L1382 224L1382 223C1373.74 209.515 1387.4 200.603 1398 194C1398.21 188.319 1402.55 186.528 1405.18 181.985C1406.83 179.139 1405.92 175.737 1407.44 172.924C1410.42 167.384 1416.75 163.476 1420.11 158C1424.15 151.411 1420.06 142.642 1423.06 135C1429.31 119.111 1446.86 106.441 1443.25 87.0394C1442.45 82.6916 1438.46 78.4523 1437 74C1431.38 75.3251 1424.21 75.2287 1419 77.2778C1411.36 80.2817 1407.8 88.6985 1401.99 93.8565C1388.49 105.815 1374.41 113.219 1369 132L1368 132L1367 127L1366 127L1366 130L1365 130L1364 128L1359 141C1352.09 138.533 1348.3 144.317 1343 148C1345.25 142.941 1345.9 139.565 1339 141C1339 137.983 1337.32 138.79 1335 140C1334.99 135.729 1333.18 131.125 1333.66 127C1334.24 122.013 1339.56 116.62 1334 113L1333 117L1330 113C1325.66 115.953 1324.64 122.256 1319 117C1314.75 117.563 1313.34 118.614 1313 123L1312 123L1310 119L1305 128L1303 128L1299 121L1297 128L1292 129L1291 125L1290 125L1288 142C1282.49 141.123 1277.75 145.506 1275 150L1274 150L1270 136L1270 135L1278 128L1278 127L1275 127L1276 117L1264.98 129.998L1246 128L1248 115L1246 115C1243.24 126.453 1233.37 118.924 1225.47 120.395C1221.74 121.089 1214.88 126.431 1212 129L1211 129L1204 125L1194 129L1194 127C1188.25 129.099 1181.78 133.773 1188 139L1188 140C1183.46 145.439 1190.84 153.983 1192 160L1187 154L1174 168L1173 162L1172 162C1159.71 171.379 1158.58 148.372 1160 142L1149 156C1146.37 151.521 1148.79 149.523 1150 145C1140.17 148.198 1137.06 167.078 1138 176L1129 172L1129 171C1134.21 167.033 1142.15 144.764 1136 141L1122 164L1128 144L1123 145C1122.27 141.649 1121.4 140.588 1118 140C1124.61 125.195 1126.2 115.684 1144 112C1143.78 104.289 1147.99 95.5603 1155 92L1159 84C1158.37 76.903 1165.05 66.1711 1155 63L1156 71L1148 70L1147 63L1142 71L1139 69L1137 76L1136 76L1132 65C1118.85 66.2391 1130.04 55.91 1131.93 50C1133.12 46.276 1132.31 41.8958 1133 38L1129 29L1132 30L1134 21L1130 26L1126 21L1131 19C1127.23 16.7314 1124.32 15.5886 1122 20L1118 18L1118 17L1116 1L1115 1L1112 5L1111 0L1087 0L1082 6L1082 0L975 0C969.954 17.8132 975.128 33.8008 956 44C958.564 39.1444 960.322 36.6318 959 31L949 38L951 23L940 22L935 34C935.555 30.1874 934.302 28.8546 931 27L929 36C924.075 32.3417 919.72 29.4563 919 23L912 31L905 28L906 23L905 23L904 30L889 28C891.396 23.4325 904.286 16.7828 897 12L900 8L899 4C894.808 4.33423 892.213 4.43774 891 0L886 0L888 8L868 20L872 9L866 16L864 11C858.647 13.7583 857.065 18.2334 857 24L845 8L851 20L842 20C847.123 12.4886 838.548 5.56409 831 5L837 22L828 20L824 17L824 30L828 31C818.82 36.0175 812.457 24.152 813.472 16C814.132 10.6965 817.87 5.46094 819 0C812.585 0.499756 814.479 4.43274 810.772 8.27087C808.01 11.1298 804.434 10.9885 801.393 13.0231C797.285 15.7709 797.497 19.8571 792 21L792 24C786.606 22.7985 777.379 19.4615 777 28C772.552 27.2927 771.123 25.2521 770 21L762 27C762.043 24.6077 762.967 20.7177 761.651 18.5887C760.065 16.0211 754.044 15.3502 752.607 18.3218C751.15 21.3367 752.826 25.2174 754 28L751 23L746 23C747.614 28.6694 748.754 31.9969 755 33L758 48L755 45L751 46L746 42C744.807 31.3154 736.432 35.9845 729 33L727 29C726.453 32.5602 727.51 33.4193 731 34L731 40L716 37L716 40L715 40C714.052 34.2664 709.235 33.2688 704 33L700 37L700 38L700 40L710 45L710 47L705 50L705 46L695.067 38.6998L692 29L693 32L693.521 20L695 0L622 0z"/>
<path style="fill:#fcfcfc; stroke:none;" d="M695 0L692.781 21.9607L693 32L692 29C697.035 36.8629 694.237 41.9996 705 46L705 50L710 47L710 45L700 40C702.074 38.3409 702.837 38.5674 700 38L700 37L704 33C709.053 33.5068 713.442 34.818 715 40L716 40L716 37L731 40L731 34C727.898 33.0516 727.134 32.2507 727 29L729 33C735.96 37.2961 743.936 31.8019 746 42L751 46L755 45L755 48L758 48L755 33C749.183 31.4645 748.037 28.2688 746 23L751 23C750.717 26.0804 750.97 27.1443 754 28C749.832 14.8472 762.073 13.6189 762 27L770 21C770.752 25.6783 772.171 27.6249 777 28C777.899 19.9861 786.718 23.3052 792 24L792 21C797.739 20.3413 797.449 16.8333 801.393 13.6018C808.243 7.98865 811.599 9.92993 814 0L695 0M828 31L824 30L824 17L828 20L837 22L831 5C838.415 6.12378 845.535 12.4873 842 20L851 20L845 8L857 24C857.172 18.2465 859.467 14.5074 864 11L866 16L872 9L868 20L871 17L888 8C887.503 5.48999 887.308 1.8717 884.686 0.603394C880.847 -1.25317 874.181 0 870 0L836 0C831.651 0 821.301 -1.9613 818.649 2.31787C814.458 9.07849 811.594 18.1393 814.585 25.9097C816.623 31.2031 823.551 35.2189 828 31M891 0C891.818 4.76746 894.727 4.89648 899 4L900 8L897 12C902.719 18.0565 891.001 22.1783 889 28L904 30L905 23L906 23L905 28L912 31L919 23C919.364 29.6488 923.27 33.0789 929 36L931 27L935 34C939.384 31.4474 939.792 26.7701 940 22C944.114 23.908 946.729 24.8572 951 23L949 38L959 31L956 44C972.502 38.6016 969.794 27.2216 971.121 14.0007C971.603 9.20508 974.166 4.72986 975 0L891 0M1082 0L1082 6L1087 0L1082 0M1103 0L1104 1L1103 0M1111 0L1112 5L1115 1L1116 1L1118 17L1118 18L1122 20C1124.89 16.4568 1127.08 17.3647 1131 19L1126 21L1130 26L1134 21L1132 30L1129 29C1129.86 32.3976 1129.12 37.5121 1133 38C1132.08 41.8798 1132.88 46.318 1131.48 50C1129.28 55.8196 1118.2 67.4072 1132 65L1136 76L1137 76L1139 69L1142 71L1147 63L1148 70L1156 71L1155 63C1164.24 67.8457 1157.53 76.304 1159 84L1155 92C1147.37 94.3665 1143.37 104.569 1144 112C1126.65 114.339 1122.68 124.819 1118 140L1123 145L1128 144L1122 164L1130.28 149.054L1136 141C1141.56 146.209 1133.87 165.736 1129 171L1129 172L1138 176C1137.67 166.137 1140.52 150.125 1150 145C1148.16 149.293 1145.13 152.054 1149 156L1160 142C1158 147.769 1156.59 153.316 1160.15 158.942C1162.57 162.772 1168.78 166.357 1172 162L1173 162L1174 168L1187 154L1192 160C1191.29 153.444 1184.33 146.199 1188 140L1188 139C1183.44 133.143 1188.58 129.987 1194 127L1194 129L1204 125L1211 129L1212 129C1215.97 126.778 1221.28 121.788 1225.47 120.766C1233.03 118.924 1244.36 127.132 1246 115L1248 115L1246 128L1264 131.018L1276 117C1275.94 120.764 1273.37 126.009 1278 127L1278 128L1270 135L1270 136L1274 150L1275 150C1278.46 145.976 1282.47 142.075 1288 142L1290 125L1291 125L1292 129L1297 128L1299 121L1303 128L1305 128L1310 119L1312 123L1313 123C1313.63 118.964 1315.16 117.993 1319 117C1323.57 123.342 1326.65 116.431 1330 113L1333 117L1334 113C1338.83 117.888 1333.39 122.251 1333.31 128C1333.26 131.997 1334.95 135.898 1335 140C1337.97 138.516 1339.77 137.909 1339 141C1345.42 140.28 1344.32 143.143 1343 148C1348.89 145.194 1351.88 139.729 1359 141C1359.7 138.345 1361.38 128.54 1365 130L1366 130L1366 127L1367 127L1368 132L1369 132C1376.66 113.595 1389 106.519 1402.96 93.8565C1408.48 88.85 1411.76 81.0301 1419 77.9583C1424.42 75.6584 1431.31 76.2187 1437 74C1438.21 78.8568 1442.45 83.3971 1442.96 88.0146C1445.13 107.326 1429.37 117.952 1423.06 134C1420.14 141.427 1423.81 149.728 1420.68 156C1417.67 162.01 1411.66 166.182 1407.84 171.579C1405.74 174.545 1406.93 178.276 1405.09 181.286C1402.18 186.055 1397.87 187.891 1398 194C1387.81 198.308 1371.82 211.295 1382 223L1382 224L1378 233L1379 233C1383.06 225.4 1394.89 223.078 1403 224L1403 222L1421 223L1421 228L1443 219L1440 224C1446.38 221.432 1456.24 217.186 1463 219L1457 228C1463.16 229.257 1471.66 225.76 1473 234L1527 235L1525 231L1538 229L1535 233L1539 236C1544.04 231.055 1552.51 233.092 1559 232.788C1567.25 232.402 1574.7 228.929 1582 225.424C1586.02 223.492 1590.07 221.154 1594 224L1600 222L1600 224L1605 219C1608.48 222.216 1612.49 225.845 1616 221L1629 226L1629 228C1625.06 229.544 1624.37 231.938 1624 236C1631.72 235.327 1642.93 231.64 1647 241L1643 242L1643 244L1646 245L1646 242L1647 242L1660 257L1654 264L1657 265L1656 272C1660.24 271.885 1664.13 267.548 1667 272C1661.26 272.908 1660.1 276.765 1659 282L1653 283L1654 286C1657.1 284.555 1658.35 285.046 1660 288C1648.31 291.512 1624.34 305.26 1629 320L1611 328.799L1591 331L1593 335L1590 334C1590 337.245 1578.54 344 1575 344L1580 356L1577 355L1579 357L1579 358L1576 359L1582 361C1580.73 369.256 1586.22 370.094 1593 371L1593 373L1592 374L1579 375L1587 400L1584 399L1587.6 406.917L1596 405.508L1605 408L1606 404L1610 412C1614.07 408.757 1616.4 405.29 1622 406C1621.02 410.129 1620.19 414.309 1624 417C1621.27 421.765 1617.19 427.182 1623 431L1615 442L1617 441L1618 444L1615 445L1619.51 457.999L1615 472L1598 478L1599 475C1590.79 475.965 1599.71 484.155 1597.5 488C1595.62 491.281 1589.45 490.492 1589 487L1573 482.978L1560 487L1560 488L1566 489L1563 494L1565 500L1557 503L1557 504L1565 514L1566 514L1566 510L1569 511L1567 521L1568 521L1571 519L1579 525C1583.79 525.455 1586.3 528.186 1589 532C1585.11 532.663 1587.98 540.102 1592 540L1593 544C1580.22 543.142 1589.79 556.964 1591 566L1585 567L1585 574L1592 580L1588 578L1587 578L1588 586L1575 579.289L1558 576L1554 590L1553 590L1550 584L1549 584L1549 604C1554.66 606.489 1559.36 610.345 1562 616L1558 614C1555.61 621.499 1565.64 627.566 1570 632.999C1581.58 647.457 1583.11 666.166 1593.95 681.015C1596.47 684.472 1597.3 688.674 1601 691L1597 699L1599 711L1596 709L1597 717L1580.29 719.002L1562 711C1555.3 721.954 1542.09 715.807 1532.04 718.322C1527.21 719.531 1520.39 727.822 1518 732L1517 732L1506 731L1506 732L1516 741L1516 742L1509 741C1510.37 749.318 1518.41 747.072 1523.7 751.148C1527.43 754.021 1524.81 757.315 1521 757C1515.58 765.362 1499.84 760.509 1492.04 761.613C1487.86 762.205 1485.56 765.267 1481 765L1480 768C1470.27 765.777 1458.74 768.617 1454 778L1458 779L1458 780L1454 784L1498.01 781.899L1512.98 783.304L1528.27 800.576L1533 816L1529 813L1527 818L1533 828L1529 826L1524 831L1524 832L1526 835C1522.6 835.121 1512.21 832.595 1510.75 837.279C1509.6 840.966 1513.47 845.091 1512 850L1511 850L1512 847L1504 856L1504 851L1503 851L1499 858C1488.72 856.191 1485.48 867.474 1488 876L1483 866L1471 871C1476.42 876.54 1477.18 878.129 1468 877L1468 882L1464 881L1473 897L1466 895L1462 898L1463 895L1460 894L1457 900L1462 908L1458 912L1454 910C1451.65 917.494 1454.39 918.752 1459 924L1445 928C1445.1 921.786 1438.83 922.195 1434 923L1435 926L1428 928L1432 920L1431 917C1427.9 918.373 1422.84 920.701 1421.66 924.209C1419.38 931.006 1425.68 934.237 1416 938L1416 934L1415 934L1411 938L1412 944C1417.43 944.043 1420.28 946.98 1422 952C1414.22 953.836 1412.05 957.302 1413 965C1405.25 961.993 1392.86 960.314 1397 972L1389 969L1372 964L1371 966L1370 966L1369 963L1368 963L1364 972C1354.1 969.379 1355.69 981.654 1362 983L1357 987L1355 981L1354 981L1354 986L1350 984L1349 984C1345.86 985.221 1344.69 982.552 1343 980L1335 977L1335 980L1334 980L1333 977L1335 977L1334 970L1331 971L1332 978L1310 961L1313 980C1320.01 979.886 1334.64 999.274 1334 1006C1327.3 1001.59 1320.53 995.851 1312 998C1311.06 994.181 1307.6 990.344 1306 996L1309 995L1299 1008L1298 1008L1301 997L1298 998L1293 995L1296 1002C1286.92 994.866 1285.71 989.469 1280 980L1279 980C1276.98 992.576 1286.73 997.346 1292.4 1006.02C1296.57 1012.41 1299.05 1024.48 1301 1032C1296.44 1029.03 1291.58 1026.68 1291 1034L1289 1034C1289.58 1029.31 1290.34 1026.17 1285 1025C1282.23 1028.53 1281.25 1026.59 1278 1025L1278 1030L1273 1025L1272 1025C1270.85 1029.97 1269.43 1033.26 1265 1036L1263 1021L1257 1021L1260 1027L1260 1028L1255 1053L1252 1051L1247 1058L1244 1058L1239 1044L1241 1071L1239 1071C1237.35 1062.28 1232.84 1054.68 1230.75 1046C1227.13 1030.92 1228.21 1019.67 1219 1006L1218 1006C1218.12 1011.58 1220.15 1020.82 1225 1024L1204 1011L1204 1015L1192 1003L1196 1024L1195 1024L1194 1017C1185.46 1015.27 1186.74 1007.92 1185 1001L1190 1000L1185 995C1182.11 1000.26 1175.5 1000.89 1170 1000L1176 1021L1180 1021L1176 1036L1181 1041L1172 1049C1173.25 1033.65 1168.82 1027.51 1160.7 1014.83C1157.51 1009.86 1158.57 1005.77 1152 1004C1154.42 990.945 1147.23 982.507 1136 977L1132 988L1138 989L1136 998L1141 999L1141 1000C1136.13 1003.28 1141.73 1005.24 1144 1008C1134.3 1009.63 1152.78 1024.16 1153 1031C1147.32 1025.82 1141.55 1018.65 1133 1020L1133 1011C1123.14 1011.5 1122.03 1001.51 1119 994L1118 994C1112.77 1002.34 1114.34 1010.64 1104.83 1016.47C1099.88 1019.51 1089.69 1014.83 1086.74 1021.23C1084.11 1026.96 1089.42 1034.22 1090 1040L1087 1039C1087.65 1059.09 1116.99 1060.39 1118 1080L1920 1080L1920 0L1111 0M992 1C989.953 7.98889 991.088 15.6194 989.198 22.9954C988.765 24.6852 988 27.4822 990.275 28.2485C993.846 29.4514 993.96 24.057 993.995 21.9993C994.105 15.632 995.018 6.67761 992 1M1056.67 2.33337L1057.33 2.66663L1056.67 2.33337M1102.67 2.33337L1103.33 2.66663L1102.67 2.33337M1108.67 5.33337L1109.33 5.66663L1108.67 5.33337z"/>
<path style="fill:#040404; stroke:none;" d="M757 7L758 8L757 7M1120 7L1120 10L1121 10L1120 7z"/>
<path style="fill:#fcfcfc; stroke:none;" d="M836 9L836 12L838 12L838 9L836 9z"/>
<path style="fill:#040404; stroke:none;" d="M772 15L771 20L775 24C776.784 20.4763 775.151 17.1346 772 15M905 15L906 16L905 15z"/>
<path style="fill:#fcfcfc; stroke:none;" d="M1000 15L1001 16L1000 15z"/>
<path style="fill:#040404; stroke:none;" d="M1122 15L1123 16L1122 15z"/>
<path style="fill:#fcfcfc; stroke:none;" d="M862 16L861 20L862 16z"/>
<path style="fill:#040404; stroke:none;" d="M952 19L952 20L955 21L955 18L952 19z"/>
<path style="fill:#fcfcfc; stroke:none;" d="M875 35L876 35L875 27L879 28C877.191 21.7704 869.14 21.6812 870.376 28.9468C870.819 31.5537 873.27 33.229 875 35M1000 28L999 33L1000 33L1000 28z"/>
<path style="fill:#040404; stroke:none;" d="M732 32L737 32L736 29L732 32z"/>
<path style="fill:#fcfcfc; stroke:none;" d="M768 30L768 34L770 30L768 30M911 32L911 36L914 35L914 33L913 32L911 32M782 33L783 36L784 36L784 33L782 33M1122 33L1123 36L1124 36L1122 33M775 35L776 36L775 35M928 39L929 40L928 39M919 45L923 40L919 45M880 41L882 44L880 41M927 42L928 43L927 42M947 42L947 48L948 48L947 42M950.333 42.6666L950.667 43.3334L950.333 42.6666M1127 45L1126 48L1127 45M741 46L744 51L745 48L741 46M693 47L694 48L693 47M710 47L711 48L710 47M716 55L717 56L716 55z"/>
<path style="fill:#040404; stroke:none;" d="M1148 62L1152 62L1152 57L1148 62M1160 59L1161 60L1160 59M1134 61L1134 65L1137 61L1134 61z"/>
<path style="fill:#fcfcfc; stroke:none;" d="M699 65C699.654 68.0538 701.007 67.9358 704 68L704 67L699 65z"/>
<path style="fill:#040404; stroke:none;" d="M1178 67L1179 68L1178 67z"/>
<path style="fill:#fcfcfc; stroke:none;" d="M1123 69L1124 70L1123 69M1147 71L1149 74L1147 71M1141 72L1143 76L1141 72M1144.67 79.3333L1145.33 79.6667L1144.67 79.3333M1423 79L1424 80L1423 79M1153.67 83.3333L1154.33 83.6667L1153.67 83.3333M1147 95L1151 90L1150 89L1147 95M1147 96L1148 97L1147 96M1141 99L1141 100L1144 100L1141 99z"/>
<path style="fill:#040404; stroke:none;" d="M500 110L501 111L500 110z"/>
<path style="fill:#fcfcfc; stroke:none;" d="M592 119L591 123L592 123L592 119M693 119L694 120L693 119M698 129C696.98 132.816 694.286 137.283 698 140L702 133C702.805 139.319 691.993 163.523 709 160L713 166L724.929 173.177L750 177L748 184L753 184L752 175L761 176L754 167C763.358 166.488 767.615 173.305 775.996 175.717C781.947 177.429 791.518 162.816 784.621 159.176C782.177 157.886 776.622 164.514 772 163.659C766.633 162.666 763.351 158.819 758.911 156.129C752.765 152.406 744.528 149.462 738 146.317C734.598 144.678 725.296 145.716 727 140C721.095 136.097 714.607 134.416 709.109 129.486C706.072 126.764 704.984 121.336 700.946 119.917C694.535 117.664 693.104 126.129 698 129M1118 119L1119 120L1118 119z"/>
<path style="fill:#040404; stroke:none;" d="M1282 122L1281 125L1282 122M480.667 123.333L481.333 123.667L480.667 123.333z"/>
<path style="fill:#fcfcfc; stroke:none;" d="M692 129L692 132L693 132L694 129L692 129M588 131L588 132L591 132L588 131z"/>
<path style="fill:#040404; stroke:none;" d="M1125.67 131.333L1126.33 131.667L1125.67 131.333z"/>
<path style="fill:#fcfcfc; stroke:none;" d="M485 135L486 136L485 135z"/>
<path style="fill:#040404; stroke:none;" d="M1122.67 135.333L1123.33 135.667L1122.67 135.333z"/>
<path style="fill:#fcfcfc; stroke:none;" d="M1355 141L1356 142L1355 141z"/>
<path style="fill:#040404; stroke:none;" d="M1421 142L1421 144L1423 144L1423 142L1421 142z"/>
<path style="fill:#fcfcfc; stroke:none;" d="M693 145L694 146L693 145M1268 145L1267 146L1267 147L1267 148L1270 145L1268 145M1123 146L1122 147L1122 148L1123 149L1124 149L1125 148L1125 147L1123 146M1099 147L1100 148L1099 147M1116 149L1117 150L1116 149M1418 153L1419 154L1418 153M699 157L700 158L699 157z"/>
<path style="fill:#040404; stroke:none;" d="M709 157L709 160L712 160L712 157L709 157z"/>
<path style="fill:#fcfcfc; stroke:none;" d="M1156 158L1153 165L1158 158L1156 158z"/>
<path style="fill:#040404; stroke:none;" d="M471 161L472 162L471 161M750 164L752 168L750 164z"/>
<path style="fill:#fcfcfc; stroke:none;" d="M1119 165L1119 168L1120 168L1119 165M1104 172L1108 172L1109 167L1104 172M1163 167L1161 173L1163 167M698.667 169.333L699.333 169.667L698.667 169.333z"/>
<path style="fill:#040404; stroke:none;" d="M735 171L736 172L735 171z"/>
<path style="fill:#fcfcfc; stroke:none;" d="M705 173L705 176L706 176L705 173z"/>
<path style="fill:#040404; stroke:none;" d="M407 175L408 176L407 175z"/>
<path style="fill:#fcfcfc; stroke:none;" d="M482 175L482 179L483 179L482 175M478.667 177.333L479.333 177.667L478.667 177.333M709 177L709 180L710 180L709 177M741 177L745 182L745 177L741 177M1113 179C1112.25 181.946 1111.8 183.311 1115 184L1113 179M713.333 182.667L713.667 183.333L713.333 182.667M1401 183L1402 184L1401 183z"/>
<path style="fill:#040404; stroke:none;" d="M352 187L353 188L352 187M468 187L468 190L470 189L470 188L468 187z"/>
<path style="fill:#fcfcfc; stroke:none;" d="M424 189L423 192L424 189M479 191L480 192L479 191M474 201L475 202L474 201M479 206L478 208L479 206z"/>
<path style="fill:#040404; stroke:none;" d="M440 215L441 216L440 215z"/>
<path style="fill:#fcfcfc; stroke:none;" d="M1373.33 217.667L1373.67 218.333L1373.33 217.667z"/>
<path style="fill:#040404; stroke:none;" d="M1605.67 217.333L1606.33 217.667L1605.67 217.333M1612 217L1611 220L1614 221L1615 217L1612 217M1599 219L1599 220L1604 220L1599 219z"/>
<path style="fill:#fcfcfc; stroke:none;" d="M1377 221L1377 224L1378 224L1377 221M455 223L456 224L455 223z"/>
<path style="fill:#040404; stroke:none;" d="M306 227L306 229L308 227L306 227M306 230L307 231L306 230z"/>
<path style="fill:#fcfcfc; stroke:none;" d="M475 236L478 233L475 236M1620.67 235.333L1621.33 235.667L1620.67 235.333z"/>
<path style="fill:#040404; stroke:none;" d="M1648 238L1652 235L1648 238z"/>
<path style="fill:#fcfcfc; stroke:none;" d="M466.333 238.667L466.667 239.333L466.333 238.667z"/>
<path style="fill:#040404; stroke:none;" d="M1652 243L1652 245L1654 245L1652 243M1658.67 243.333L1659.33 243.667L1658.67 243.333M1667 247L1668 248L1667 247M310 255L312 257L312 255L310 255z"/>
<path style="fill:#fcfcfc; stroke:none;" d="M330 255L331 256L330 255M336 257L341 262L336 257M1655 257L1656 258L1655 257z"/>
<path style="fill:#040404; stroke:none;" d="M1662 257L1663 258L1662 257z"/>
<path style="fill:#fcfcfc; stroke:none;" d="M1653 286L1649 287L1649 288L1653 286M337 290L337 292L340 292L340 290L337 290z"/>
<path style="fill:#040404; stroke:none;" d="M308 307L308 308L311 308L308 307M314 309L314 312L315 312L316 309L314 309M1632 312L1635 309L1632 312z"/>
<path style="fill:#fcfcfc; stroke:none;" d="M306 325L304 330L308 332L306 325M293 341L292 344L293 341M1573.67 343.333L1574.33 343.667L1573.67 343.333M290.667 347.333L291.333 347.667L290.667 347.333M1569 347L1570 348L1569 347M1574 349L1574 352L1576 352L1576 349L1574 349M292 358L292 360L294 360L292 358M1577 367L1578 368L1577 367M1579 391L1580 392L1579 391z"/>
<path style="fill:#040404; stroke:none;" d="M261 393L262 396L263 396L263 393L261 393z"/>
<path style="fill:#fcfcfc; stroke:none;" d="M1592.67 415.333L1593.33 415.667L1592.67 415.333M366 425L367 426L366 425M367 427L368 428L367 427M371 427L372 428L371 427z"/>
<path style="fill:#040404; stroke:none;" d="M347 439L348 440L347 439M349.667 439.333L350.333 439.667L349.667 439.333M348 450L349 451L348 450M1601 483L1602 484L1601 483z"/>
<path style="fill:#fcfcfc; stroke:none;" d="M1553 491L1554 492L1553 491z"/>
<path style="fill:#040404; stroke:none;" d="M1572 518L1572 520L1574 520L1574 518L1572 518z"/>
<path style="fill:#fcfcfc; stroke:none;" d="M280.667 527.333L281.333 527.667L280.667 527.333M1585 535L1586 536L1585 535z"/>
<path style="fill:#040404; stroke:none;" d="M1593 545L1594 546L1593 545M300 565L300 568L301 568L300 565z"/>
<path style="fill:#fcfcfc; stroke:none;" d="M309 573L307 579C310.332 578.286 310.591 575.762 309 573M1555 581L1556 582L1555 581M296 597L300 600L296 597M286 611L287 612L286 611M288 613L288 615L290 615L288 613M302 631L303 632L302 631z"/>
<path style="fill:#040404; stroke:none;" d="M283 633L283 636L284 636L283 633z"/>
<path style="fill:#fcfcfc; stroke:none;" d="M294 646L294 648L296 648L294 646z"/>
<path style="fill:#040404; stroke:none;" d="M200 653L201 654L200 653z"/>
<path style="fill:#fcfcfc; stroke:none;" d="M289 661L290 662L289 661M1517 677L1521 680L1520 676L1517 677M1526 677L1527 680L1529 677L1526 677M236 678L239 680L239 679L236 678M1530 678L1528 687L1528 688L1530 692L1535 688L1540 689L1540 694L1536 694L1538 698L1535 696L1532 700L1536 699L1536 703L1538 701L1539 701L1542 706L1543 706L1553 707L1552 712L1561 712L1561 711L1552.3 700.424L1536 680L1530 678M244 683L244 684L248 684L244 683M1525 685L1525 688L1526 688L1525 685z"/>
<path style="fill:#040404; stroke:none;" d="M1530 687L1531 688L1530 687z"/>
<path style="fill:#fcfcfc; stroke:none;" d="M319 725C317.877 729.165 318.706 731.063 323 732L323 731L319 725M241 735L241 736L244 736L241 735z"/>
<path style="fill:#040404; stroke:none;" d="M225 750L225 752L227 752L225 750z"/>
<path style="fill:#fcfcfc; stroke:none;" d="M1460 759L1461 760L1460 759M1483 764L1484 765L1483 764z"/>
<path style="fill:#040404; stroke:none;" d="M1490 765L1491 766L1490 765z"/>
<path style="fill:#fcfcfc; stroke:none;" d="M1424.67 771.333L1425.33 771.667L1424.67 771.333M1453 771L1453 772L1456 772L1453 771M216 781L216 782L219 782L216 781M1440 783C1444.23 789.247 1447.15 786.536 1453 784L1440 783M220 787L221 788L220 787z"/>
<path style="fill:#040404; stroke:none;" d="M214 792L215 793L214 792M1532 834L1532 836L1534 836L1532 834z"/>
<path style="fill:#fcfcfc; stroke:none;" d="M288 863L289 864L288 863M292 863L293 864L292 863M284.667 899.333L285.333 899.667L284.667 899.333M280 904L283 901L280 904z"/>
<path style="fill:#040404; stroke:none;" d="M628 905L629 906L628 905z"/>
<path style="fill:#fcfcfc; stroke:none;" d="M1446 911L1448 913L1448 911L1446 911z"/>
<path style="fill:#040404; stroke:none;" d="M1464 911L1465 912L1464 911z"/>
<path style="fill:#fcfcfc; stroke:none;" d="M640 914L641 915L640 914M640 916L640 920L642 920L642 916L640 916M1413 917L1414 918L1413 917M1403.33 926.667L1403.67 927.333L1403.33 926.667z"/>
<path style="fill:#040404; stroke:none;" d="M1437 926L1440 930L1439 926L1437 926z"/>
<path style="fill:#fcfcfc; stroke:none;" d="M587.333 927.667L587.667 928.333L587.333 927.667M1417 927L1418 928L1417 927z"/>
<path style="fill:#040404; stroke:none;" d="M1453 929C1453.65 932.054 1455.01 931.936 1458 932L1458 931L1453 929M342 931L341 934L338 934L338 936L339 937C341.803 935.398 343.52 934.154 342 931M638.667 931.333L639.333 931.667L638.667 931.333z"/>
<path style="fill:#fcfcfc; stroke:none;" d="M1407 931L1408 932L1407 931M647.667 935.333L648.333 935.667L647.667 935.333M1303 935L1303 938L1305 935L1303 935M1411 935L1412 936L1411 935z"/>
<path style="fill:#040404; stroke:none;" d="M592 937L593 938L592 937z"/>
<path style="fill:#fcfcfc; stroke:none;" d="M1304 945L1304 948L1306 948L1306 945L1304 945M344 949L345 950L344 949M1266 949L1268 953L1266 949M654 955L655 956L654 955z"/>
<path style="fill:#040404; stroke:none;" d="M634 956L633 960L637 960L634 956z"/>
<path style="fill:#fcfcfc; stroke:none;" d="M1262 958L1262 960L1271 964C1268.52 960.521 1266.4 957.933 1262 958M1396 961L1396 962L1399 962L1396 961M376 963L377 964L376 963M366 975L367 976L366 975M1276 975L1277 976L1276 975z"/>
<path style="fill:#040404; stroke:none;" d="M1401.67 975.333L1402.33 975.667L1401.67 975.333z"/>
<path style="fill:#fcfcfc; stroke:none;" d="M390 979L390 980L395 981L396 977L390 979M1350 977L1349 981L1350 977M351 978L353 980L351 978M661 978L659 982L661 978M355 979L356 980L355 979M1355.33 979.667L1355.67 980.333L1355.33 979.667M353 981L353 985L354 985L353 981M658 983L659 984L658 983M685.667 983.333L686.333 983.667L685.667 983.333z"/>
<path style="fill:#040404; stroke:none;" d="M361 987L362 988L361 987z"/>
<path style="fill:#fcfcfc; stroke:none;" d="M679 987L675 991L675 992L681 991L681 987L679 987M1303 990L1304 991L1303 990M490 991L491 992L490 991M651.667 991.333L652.333 991.667L651.667 991.333M1156.67 991.333L1157.33 991.667L1156.67 991.333M1190.67 991.333L1191.33 991.667L1190.67 991.333z"/>
<path style="fill:#040404; stroke:none;" d="M512 993L514 996L514 993L512 993z"/>
<path style="fill:#fcfcfc; stroke:none;" d="M671 996L674 996L673 994L671 996M1301 995L1302 996L1301 995z"/>
<path style="fill:#040404; stroke:none;" d="M536 997L537 998L536 997z"/>
<path style="fill:#fcfcfc; stroke:none;" d="M1214 997L1216 1004L1214 997M490 998C488.89 1001.06 488.431 1003.24 492 1004L490 998M630.667 999.333L631.333 999.667L630.667 999.333M979 999L980 1000L979 999M1192 1000L1193 1001L1192 1000M625 1001L625 1006L628 1001L625 1001M981 1001L982 1005L983 1005L984 1001L981 1001z"/>
<path style="fill:#040404; stroke:none;" d="M1336 1002C1335.62 1007.14 1336.37 1010.32 1341 1013L1338 1002L1336 1002z"/>
<path style="fill:#fcfcfc; stroke:none;" d="M1217 1005L1218 1006L1217 1005z"/>
<path style="fill:#040404; stroke:none;" d="M1192 1007L1193 1008L1192 1007M384 1008L383 1010L384 1008z"/>
<path style="fill:#fcfcfc; stroke:none;" d="M977 1012C982.186 1024.6 976.67 1031.34 973 1044L972 1044L972 1039L969 1039C967.596 1048.32 962.3 1048.61 954 1048L958.25 1040L952 1025L948 1026L946 1019L945 1019C944.162 1024.66 948.314 1027.73 948.817 1033.01C949.409 1039.23 944.962 1044.1 944.188 1050C942.824 1060.4 949.025 1065.12 942 1075L942 1076L944 1080C960.223 1080 981.458 1083.59 997 1079L996 1061L987 1057C968.732 1056.87 996.282 1032.15 1000 1026C993.511 1024.79 984.085 1017.84 983 1011L977 1012M1277 1016L1276 1020L1282 1020L1282 1017L1277 1016M1136.67 1017.33L1137.33 1017.67L1136.67 1017.33M1286 1017C1287 1020.04 1287.86 1020.49 1291 1020L1286 1017M995 1018L994 1020L996 1020L995 1018M971 1019L968 1032L974 1028L973 1019L971 1019z"/>
<path style="fill:#040404; stroke:none;" d="M1104 1020L1106 1024L1104 1020M1196 1025L1197 1026L1196 1025z"/>
<path style="fill:#fcfcfc; stroke:none;" d="M898 1027L891 1033C892.229 1035.53 894.975 1038.86 894.253 1041.83C891.217 1054.3 877.415 1053.22 886 1068L880 1070L879 1066C875.388 1070.56 872.967 1074.11 874 1080L931 1080C930.148 1071.19 935.376 1067.11 943 1064C933.888 1052.2 936.941 1049.57 941 1037L924 1038L926 1036L926 1035L924 1029L919 1033L918 1033L916 1029L915 1029C915.806 1039.14 918.63 1052.39 906.961 1058.14C903.831 1059.68 900.358 1058.3 897 1060C901.398 1052.57 909.692 1046.2 907 1037C897.307 1047.38 901.505 1031.7 898 1027M928 1027L929 1028L928 1027z"/>
<path style="fill:#040404; stroke:none;" d="M420 1029L419 1032L420 1032L420 1029M1224 1029L1224 1032L1226 1032L1226 1029L1224 1029z"/>
<path style="fill:#fcfcfc; stroke:none;" d="M935 1030L935 1032L937 1032L935 1030M1077 1031L1077 1034L1078 1034L1077 1031z"/>
<path style="fill:#040404; stroke:none;" d="M1284 1031L1284 1033L1286 1033L1284 1031z"/>
<path style="fill:#fcfcfc; stroke:none;" d="M1251.33 1046.67L1251.67 1047.33L1251.33 1046.67M1067 1047L1068 1048L1067 1047M753 1051L761 1054C761.601 1047.95 757.096 1048.6 753 1051z"/>
<path style="fill:#040404; stroke:none;" d="M951 1048L953 1052L951 1048z"/>
<path style="fill:#fcfcfc; stroke:none;" d="M1247 1048L1248 1049L1247 1048M584 1051L584 1052L587 1052L584 1051M775 1051L774 1056L776 1056L775 1051M1032.67 1051.33L1033.33 1051.67L1032.67 1051.33M1034 1052L1034 1060L1024 1064L1022 1064L1020 1059L1019 1059C1016.39 1067.47 1021.92 1067.1 1024 1074L1019 1072L1020 1080L1030 1080C1031.78 1073.2 1036.09 1070.21 1043 1070L1043 1069L1034 1052M789 1053L791 1056L789 1053M878 1055L876 1062C878.661 1060.12 879.177 1058.04 878 1055z"/>
<path style="fill:#040404; stroke:none;" d="M975 1055L976 1056L975 1055z"/>
<path style="fill:#fcfcfc; stroke:none;" d="M1015 1055L1016 1056L1015 1055M758 1057L762 1080L768 1080L771 1063L766 1064C765.59 1058.72 763.043 1057.46 758 1057z"/>
<path style="fill:#040404; stroke:none;" d="M911 1057C911.553 1061.69 911.747 1067.32 916 1070C915.986 1064.96 916.57 1058.83 911 1057z"/>
<path style="fill:#fcfcfc; stroke:none;" d="M1050 1057L1051 1058L1050 1057M1051 1061L1050 1080L1069 1080L1064 1067L1062 1070C1056.78 1068.93 1054.82 1066.15 1054 1061L1051 1061M1064 1062L1063 1064L1065 1064L1064 1062M1011 1063L1012 1064L1011 1063M865 1065L862 1067L862 1068C864.348 1067.71 865.951 1067.51 865 1065z"/>
<path style="fill:#040404; stroke:none;" d="M577 1069L577 1074L580 1069L577 1069z"/>
<path style="fill:#fcfcfc; stroke:none;" d="M621 1080L642 1076L642 1071C633.281 1068.25 623.092 1069.68 621 1080M673 1080L684 1080L684 1069C676.538 1070.15 673.375 1071.93 673 1080M779 1080L792 1079C790.487 1076.7 784.624 1066.26 781.027 1070.62C779.322 1072.69 779.859 1077.37 779 1080M936 1069L936 1070L939 1070L936 1069M1079 1070L1079 1073L1081 1070L1079 1070z"/>
<path style="fill:#040404; stroke:none;" d="M568.667 1071.33L569.333 1071.67L568.667 1071.33z"/>
<path style="fill:#fcfcfc; stroke:none;" d="M645 1080L657 1080L659 1076L659 1075L656 1071C650.285 1072.25 647.515 1074.73 645 1080M1002 1071L1002 1080L1015 1080L1014 1074L1002 1071M1099 1073L1100 1080L1101 1080L1101 1073L1099 1073M660 1075L660 1080L665 1080L662 1075L660 1075M794.667 1075.33L795.333 1075.67L794.667 1075.33M862.667 1075.33L863.333 1075.67L862.667 1075.33M868.667 1075.33L869.333 1075.67L868.667 1075.33M1112 1075L1113 1076L1112 1075M934 1080L941 1080L941 1076L934 1080M692.667 1079.33L693.333 1079.67L692.667 1079.33M696 1079L696 1080L699 1080L696 1079M828.667 1079.33L829.333 1079.67L828.667 1079.33M859.667 1079.33L860.333 1079.67L859.667 1079.33M1034 1079L1035 1080L1034 1079M1076 1079L1077 1080L1076 1079z"/>
</svg>
