<?xml version="1.0" standalone="yes"?>
<svg xmlns="http://www.w3.org/2000/svg" width="1920" height="1080">
<path style="fill:#fefefe; stroke:none;" d="M0 0L0 1080L1920 1080L1920 0L0 0z"/>
<path style="fill:#030303; stroke:none;" d="M636 35L633 42L632 42L632 38C623.125 40.8635 619.723 52.9796 617.623 61C614.126 74.3506 614.206 87.4322 611.661 101C609.491 112.562 605.145 123.448 603 135L601 133L594 153L591 145L590 145L592 166L590 166C587.806 159.474 584.6 154.559 578 152C576.949 155.518 575.656 156.618 572 157L579 174L575 177L573 177L568 167L567 167L561.766 178.015L560 196L559 196L555 187L552 188L546 181L546 188L545 188L544 182L541 184C535.773 178.492 536 170.155 536 163L533 166L531 166L530 163L529 163C529.92 175.149 521.26 164.026 517 161L513 171L507 169C505.545 176.845 512.403 186.749 506 192L501 182L500 196L496 193C494.313 202.462 491.389 207.131 494 217L487 211L489 228L480 222L477 243L476 243L470 241L464 245L459 250L456 245L455 254L451 249L448 250C446.686 245.52 443.612 242.693 439 242L435 234C432.619 237.9 434.414 244.283 438 247L440 245L444 255L441 258L440 258L440 253L435 256C434.136 250.401 430.016 247.379 426.761 243C420.934 235.161 415.936 224.6 404 230C400.741 225.19 401.475 238.047 402 240C396.633 243.078 402.077 247.893 401 253L383.199 243.301L377 237L378 246L373 246C372.249 249.991 384.256 266.414 372 263C369.91 266.189 367.536 265.618 364 265L361 273L365 277L373 298C366.892 300.433 365.018 302.51 367 309L356 310L364 326L361 321L360 326L357 325L357 329L341 328L340 325L338 325L337 332L338 332L341 328L340 336L334 335L338 346L342 345C339.064 349.659 334.206 346.976 330.643 350.027C326.914 353.22 327.197 364.722 333 365C334.483 369.218 337.963 368.963 342 369C337.701 378.379 327.922 383.732 324.404 393.96C321.958 401.069 332.723 402.25 337 401L337 403L340 402L335 418L334 418L333 415L332 415L328 428C336.367 429.452 340.26 431.331 347.721 425.046C350.623 422.601 350.764 417.143 355.058 416.608C359.398 416.067 363.225 419.354 367 420.872C378.135 425.35 388.95 430.615 400 435C393.684 437.122 377.93 424.436 376 436L379 435L383 437L375.316 447.158L375 462L372 461C368.397 467.327 359.973 466.109 354 469L357 474L337 478L339 485C348.24 482.974 347.197 492.713 356 493C353.338 498.692 348.568 501.13 350 508L362 507L355 517L355 518C357.388 518.385 361.946 520.481 357.793 522.846C348.518 528.129 333.698 520.891 329 534L323 535L322 535L316 533C319.241 539.942 323.688 547.935 328.637 553.787C332.715 558.609 338.448 558.829 339 566C335.15 565.511 326.333 560.843 323.279 561.887C319.043 563.333 322.088 569.534 324.228 571.348C333.938 579.575 346.279 580.157 348 596L352 596L351 608L347 607L349 613L342 609L340 616C329.276 606.256 330.11 617.011 320 619L334 636C323.605 629.575 317.249 636.183 329 643L329 644L326 656C322.533 655.645 321.591 656.586 321 660C326.261 661.038 330.628 661.817 329 668L335 672L316 671L318 681C313.889 680.966 308.948 679.462 305.019 680.833C297.401 683.491 297.276 689.932 289 684L284 692L287 691C290.727 697.379 296.162 693.003 301.884 693.917C306.284 694.62 310.705 697.621 315 699L314 704L301 701C299.831 710.227 308.553 712.228 314.791 716.16C319.039 718.838 320.361 724.373 324.209 727.485C328.044 730.587 334.451 730.482 339 733L339 734L322 735.89L299 726L299 733L296 732C290.155 738.163 277.275 725.991 273 721L272 721C267.804 728.668 262.441 734.745 274 739L270 743L274 747L274 748C270.516 752.679 273.687 756.37 278 759L273 768C262.952 762.504 264.703 769.811 269.657 775.981C273.855 781.209 281.783 783.267 287 788C281.477 791.595 286.765 796.387 288 801C294.391 805.826 301.758 813.406 310 811L314 814L309 820L326 821L309 855L314 856L316 868L311 872C319.63 874.174 328.275 867.49 332 860L347 857L347.23 872L346 888L347 888L347 884L350 886L351 886L361 877L353 901L364 897L363 905L367 902C368.414 908.381 365.775 916.539 371 921L371 922L369 924C381.961 923.1 381.288 910.78 382 901L393 912L384 936L395 933.889L403.972 928.75L410 934C407.459 937.786 406.558 940.544 411 943C406.991 949.944 409.102 955.185 417 950L416 960L417 961L421 960L425 977L433 978C437.297 975.217 437.788 970.865 438 966L439 966L445 983L446 983L451 973L452 973C451.873 978.44 449.488 983.546 451.059 988.956C453.483 997.301 457.66 991.27 458 986L462 988L468 981L471 981L471 984C476.823 982.998 476.954 978.113 477 973L481 974L482 959L489 965L490 962L492 962L502 968L502 964L509 968L508 953L509 953L512 956L516 952L521 944C522.176 949.624 523.535 957.167 529 960L529 954C535.912 952.479 536.729 959.736 542 963C544.963 945.491 525.428 926.377 533 909C536.337 920.876 538.077 946.205 554 948L551 925C556.852 929.07 559.88 926.012 562 920L564 920L574 929L573 920L574 920L580 926L578 911L585 914L585 894L590 896L583 877L584 877L586 881L590 880L587 869L593 873L594 873L600 868L604 875L604 873L614 870C616.642 875.941 621.415 876.743 625.363 881.264C629.743 886.28 629.275 896.252 637 897C641.242 910.285 655.662 918.764 666.911 925.515C672.81 929.055 676.329 935.672 682.286 939.231C691.083 944.489 700.672 942.847 710.014 944.196C715.216 944.947 719.743 947.654 725 948L723 942L737 944L740.397 934L739.789 925.475L762.61 914.258L776 895C775.061 900.604 779.236 902.463 783 906L784 906C785.572 904.109 786.943 901.955 788.599 900.144C800.463 887.166 799.868 911.492 803 916L797 920C805.025 928.123 779.219 937.296 776 944L780 941L786 948L793 942L794 943L789 950L789 952C793.661 956.374 791.207 959.994 786.829 963.622C781.401 968.121 774.764 970.312 769.039 974.248C763.175 978.28 759.378 983.664 752 985L759 1002L769 1003L770 1008C775.903 1004.99 783.164 999.538 785 993C793.112 995.47 787.169 1005.31 797 1008L800 1002C804.657 1003.83 806.975 1002.75 811 1000L811 1011C818.493 1007.83 825.292 1000.15 829 993C833.603 1002.19 824.277 1003.55 824 1012L829 1009L831 1017L836 1013C838.385 1018.27 835.856 1020.33 832 1024L829 1021C829.152 1029.13 826.968 1034.79 837 1037L836 1029L840 1034L863 1024C860.667 1014.78 876.92 1009.99 881 1002L882 1002L883 1016L885 1013C893.592 1016.26 902.568 1013.16 910 1008L911 1012L912 1012L910 1007C918.685 1008.51 930.316 998.9 931 990L941 996L944 977L945 977L948 983L949 983L949 969C955.267 972.783 954.767 982.458 956 989C959.397 987.865 959.579 986.423 959 983C969.434 977.454 969.986 955.846 972 945L973 945L978 966C984.964 962.755 983.989 966.188 988.429 970.683C990.921 973.205 994.856 972.982 996.836 976.148C1001.01 982.82 1000.03 992.099 1004.28 998.853C1006.16 1001.85 1010.2 1002.97 1013 1005L1018 1001C1018.26 1005.98 1019.55 1011.31 1024 1014C1024.94 1006.59 1024.13 1000.07 1029 994C1027.74 1004.29 1033.26 1002.62 1039 1009L1049 1004C1049.64 1006.71 1049.78 1009.25 1050.05 1012C1050.49 1016.37 1056.16 1022.99 1058.43 1015.94C1061.23 1007.24 1058.91 997.848 1060 989C1050.73 985.376 1055.05 973.757 1047 972L1048 969L1053 969C1050.85 960.357 1048.31 943.426 1056 937C1056.08 944.336 1064.27 956.634 1072 949L1073 949L1083.06 953.163L1099 966C1097.66 972.367 1104.42 976.548 1109.96 972.547C1116.4 967.898 1120.38 958.234 1123 951L1140 964L1130 942L1133 948C1137.06 946.812 1136.58 943.701 1136 940L1142 946L1150 946L1151 946L1154 948L1152 939C1162.39 937.107 1173.27 944.677 1176 954L1177 954L1187 941L1189 941L1189 951C1195.4 947.554 1195.13 934.367 1188 932L1190 928L1190 927L1175 915L1181 912C1179.7 900.642 1185.18 904.578 1192 908L1194 904C1198.64 906.933 1204.3 908.653 1208 912.769C1212.25 917.513 1214.82 925.646 1220.17 929.062C1228.26 934.233 1224.66 919.107 1223 916L1229 921L1230 921L1232 919L1236 924L1243 909L1249 914L1262 897C1274.12 900.1 1274.29 889.862 1283.21 886.175C1288.4 884.033 1298.14 893.687 1300 883C1311.55 881.086 1310.81 886.571 1314 896L1315 896L1315 880L1332 896L1339 909L1346 908C1350.28 901.382 1355.72 901.388 1356 910L1359 909L1364 916L1369 904L1369 903C1366.77 898.624 1368.32 896.3 1370 892L1375 891C1376.11 895.283 1377.63 898.578 1382 900L1380 891L1384 892L1378 871L1381 872C1380.36 863.486 1388.28 871.327 1389 865L1399 863L1395 855L1400 855L1400 849L1401 849C1402.78 853.594 1419.08 868.231 1421 859L1427 861L1423 851L1435 849C1435.63 841.098 1431.67 829.787 1423 828L1445 820L1437 804L1448 804L1454 796L1446 798C1442.26 790.15 1432.9 783.71 1427.17 777C1417.07 765.173 1405.57 744.702 1404 729L1405 729C1408.54 738.97 1417.47 767.723 1430 768L1429 759L1431 759L1436 762L1441 756C1440.97 746.299 1441.84 747.051 1449 742L1449 746L1464 750L1473 746C1471.7 740.791 1470.57 733.691 1465 732L1473 728L1465 707L1495 708L1496 712L1500 712L1495 708C1496.62 697.993 1490.17 694.077 1481 694L1487 690C1488.47 682.828 1492.32 684.94 1498 686C1494.37 674.495 1497.65 671.051 1483 669L1484 667L1468 664L1468 663C1472.49 662.55 1477.4 661.606 1479 657C1473.11 654.864 1474.36 649.97 1472 645L1466 643L1463 644C1461.19 635.366 1466.8 630.319 1471 623C1466.09 620.924 1452.88 619.853 1449 624L1448 624C1448.8 619.467 1449.02 615.692 1446 612L1446 611L1453 608C1452.95 603.433 1463.05 597.672 1466.67 601.194C1468.66 603.138 1468.65 606.712 1470.31 609C1473.56 613.505 1477.94 617.594 1481.47 621.917C1488.38 630.363 1500.44 638.992 1509 645.944C1512.42 648.721 1527.78 654.711 1529 649L1551 661L1551 655C1553.81 654.946 1558.93 656.859 1561.23 655.126C1566.63 651.067 1562.55 643.373 1560.25 639C1553.25 625.65 1541.37 615.473 1534.26 601.911C1530.17 594.088 1530.64 584.917 1525 578L1533 579L1533 571C1527.71 569.25 1523.72 566.891 1531 564L1525 548L1538 546.512L1549 550L1548 545L1556 544C1556.77 534.175 1552.86 534.088 1549 526C1557.3 524.222 1545.22 509.541 1544.72 505C1544.2 500.171 1540.59 494.888 1540.44 491C1540.35 488.468 1543.02 485.756 1543.31 483C1543.68 479.358 1542.3 475.929 1546.03 473.528C1548.88 471.69 1553.64 472.904 1557 472L1557 470L1548 468C1554.21 459.879 1571.48 469.716 1574.59 460.811C1575.45 458.335 1573.98 454.65 1574 452L1571 453L1569 447C1572.06 446.201 1585.2 444.175 1581.91 438.633C1580.24 435.808 1575.9 435.877 1574.51 432.725C1573.25 429.894 1575.44 426.93 1574.65 424.018C1572.81 417.257 1562.47 417.009 1557 415L1557 413L1560 412L1557 399L1551 400L1549 396L1549 395L1554 396C1555.25 389.412 1565.4 373.438 1550 379L1554 372L1554 371C1549.03 364.026 1544.4 365.432 1537 368L1535 350C1522.02 353.601 1523.42 346.942 1519 337C1511.12 339.433 1515.72 345.554 1512.17 350.61C1508.57 355.738 1496.78 359.032 1491 361L1490 360L1490 358L1494 354L1488 354C1487.93 347.662 1485.52 345.211 1481 341L1480 341L1476 344L1477 338L1481 340C1482.19 330.862 1495.7 314.911 1484 308L1484 307C1487.06 302.421 1484.49 298.305 1480 296L1484 285L1469.94 273.983L1458 274.412L1440 268L1448 260L1448 257L1443 256L1447 249L1429 256C1432.18 251.11 1435.29 247.038 1434 241L1433 241L1415 248L1414 247L1416 235L1403 230L1391 233C1387.46 229.28 1376.43 235.392 1372 237L1374 231C1364.52 212.663 1382.56 204.864 1390.94 190C1396 181.024 1404.13 166.365 1404.79 156C1405.17 149.973 1402.01 143.744 1402.5 137.961C1403 132.072 1408.11 127.974 1407 122L1403 123C1398.96 112.288 1391.35 114.57 1384.04 122.015C1373.74 132.51 1365.06 157.5 1348 159L1347 162L1345 162L1343 157C1337.46 159.668 1336.31 162.025 1337 168L1334 168L1334 163L1322 174L1316.95 160.911L1317 152L1312 154L1310 147C1304.28 149.949 1300.49 150.752 1300 158L1298 158L1297 153L1285 167L1283 165L1282 165L1280 170L1270.78 175.111L1256 176L1251 163L1250 163L1249 174L1248 174C1246.77 169.49 1241.58 143.017 1233.28 156.061C1231.93 158.181 1231.15 160.759 1230 163L1223 150L1217 154C1217.88 161.926 1212.82 160.422 1207 161L1208 164L1205 165L1206 180L1194 181C1193.3 190.032 1182.88 186.354 1176 188L1176 194C1173.39 193.918 1171.31 194.007 1169.47 196.188C1167.07 199.022 1168.41 202.854 1166.38 205.829C1161.12 213.565 1153.25 214.234 1153 204L1149 210L1148 210L1148 207L1128 228C1132.01 218.702 1138.91 211.567 1139 201L1135 204C1127.46 202.612 1105.24 219.284 1110.15 200.998C1110.78 198.661 1111.46 196.358 1112 194L1108 195L1095 190L1094 194L1090 185L1088 200L1086 200L1084 185L1079 188L1080 183C1077.14 185.501 1077.8 190.393 1076.8 194C1074.24 203.202 1073.19 212.833 1066 220C1065.89 213.536 1070.02 209.864 1071.91 204C1074.6 195.613 1073.65 185.975 1077.53 178C1081.6 169.615 1089.75 162.011 1087 152L1079.65 164.957L1066 182L1068 165L1064 166L1064.05 151L1073 129L1061 140C1062.64 134.431 1065.36 129.96 1071 128L1072 107L1059 112L1062 108L1046 107L1042 112L1042 106L1034 105L1042 90L1038 92C1038.3 85.437 1043.38 76.8087 1036 73L1036 76L1024 80L1012 100L1010 100L1009 95L1003 104C1001.12 99.3317 1002.07 95.5347 1004 91L996 98L1000 77C993.092 77.2296 991.666 81.9072 990 88C982.011 85.5763 980.486 89.9854 975 95L969.493 109L967 130L966 130L964 114L962 114L960 127L952 109L949 115L936 107L937 110L931 103L923 128L922 128L923 124L923 123C915.827 118.757 914.557 127.292 913 133L912 133L913.631 117L910 102L903 101L904 92L900 91L901 88L897 86L890 94L892 87L887 81C876.803 84.0283 885.702 95.8111 879 102L878 99L872 101L872 96L869 91L860 93L859 88C848.991 93.0499 852.954 105.38 854 114L851 110L849 110C846.083 119.874 852.334 129.658 855 139C846.79 133.998 848.234 125.785 837 131C835.568 125.658 834.04 121.7 829 119L828 122C823.122 117.918 820.218 118.357 820 125L819 125L814 120L812 137L809 136C808.182 140.726 811.389 144.337 811.167 148.952C811.011 152.21 808.006 153.379 805.459 151.547C799.89 147.54 801.282 141.903 794 139L793 144C788.78 139.992 783.814 137.745 778 139L781 143L770 140L769 141C771.612 152.867 782.335 146.102 787.606 155.005C790.856 160.494 790.688 167.845 791.579 174C794.193 192.048 795.493 206.402 790 224L787 224L783 205L781 205L772 235L771 235C770.15 229.691 771.452 222.991 769.937 218.045C768.613 213.724 765.057 213.505 763 217L756 220L756 213L737 224L737 215L731 224C722.385 219.019 723.939 202.01 712 200L706 208L708 202L690 189L692 212L689 208C679.213 215.456 689.347 221.134 689 230L687 230L686 225L680 227C679.176 222.043 674.203 219.313 670 217C671.957 210.053 686.374 188.923 679 184C680.524 177.677 683.069 170.52 682.946 164C682.774 154.925 679.172 146.039 679.611 137C680.267 123.48 683.696 108.443 678 95L674 96L672 87L665 74L664 74L661 82L657.029 62L659 45L656 48L656 41L648 49L640 37L638 38L636 35M657 38L658 39L657 38z"/>
<path style="fill:#fefefe; stroke:none;" d="M1039 76L1040 77L1039 76z"/>
<path style="fill:#030303; stroke:none;" d="M871 91L872 92L871 91z"/>
<path style="fill:#fefefe; stroke:none;" d="M995 99L992 108C995.245 105.955 996.3 102.636 995 99z"/>
<path style="fill:#030303; stroke:none;" d="M918 111L917 118L920 111L918 111z"/>
<path style="fill:#fefefe; stroke:none;" d="M1068 116L1068 117L1072 116L1068 116M1067 120L1068 121L1067 120M820 125L821 126L820 125M813 137L814 140L815 140L813 137M1401 142L1402 143L1401 142z"/>
<path style="fill:#030303; stroke:none;" d="M807 146L806 148L808 148L807 146z"/>
<path style="fill:#fefefe; stroke:none;" d="M810.333 158.667L810.667 159.333L810.333 158.667M1052 158L1051 163L1052 163L1054 158L1052 158z"/>
<path style="fill:#030303; stroke:none;" d="M545 179L546 180L545 179M540 180L541 181L540 180z"/>
<path style="fill:#fefefe; stroke:none;" d="M1063 183L1063 190L1065 190L1065 183L1063 183M564 185L565 188L566 188L564 185M553 188L552 190L553 188M553 191L554 192L553 191M1080 195L1081 196L1080 195M1084 208L1087 208L1086 206L1084 208M687.667 215.333L688.333 215.667L687.667 215.333M1370.67 231.333L1371.33 231.667L1370.67 231.333M1389.33 232.667L1389.67 233.333L1389.33 232.667z"/>
<path style="fill:#030303; stroke:none;" d="M447 243L448 244L447 243M436 251L437 252L436 251z"/>
<path style="fill:#fefefe; stroke:none;" d="M1426 258L1425 260L1427 260L1426 258z"/>
<path style="fill:#030303; stroke:none;" d="M360 263L361 264L360 263z"/>
<path style="fill:#fefefe; stroke:none;" d="M372 266L375 269L372 266M783.667 267.333L784.333 267.667L783.667 267.333M781 270L781 272L783 270L781 270M468 271L471 274L468 271M364 273L365 274L364 273M374 295L376 302L377 302L376 295L374 295M1483 315L1484 316L1483 315M346 347L347 348L346 347M1489.33 360.667L1489.67 361.333L1489.33 360.667M1474 363L1474 364L1484 364L1474 363M331 399L332 400L331 399M400 436C402.12 443.164 411.539 451.442 419 452C415.464 445.702 406.409 439.271 400 436M380 449L380 452L382 452L382 449L380 449M425 457L428 461L425 457M377 460L379 469L386 464L385 461L377 460M370 515L370 516L375 516L370 515M376 515L377 516L376 515M363 520L367 517L363 520M342 539L343 540L342 539M352 595L353 596L352 595M352 613L359 617L357 612L352 613M330 613L331 614L330 613M343 613L344 614L343 613M328 617L327 619L329 619L328 617M349.333 617.667L349.667 618.333L349.333 617.667M361 619L362 620L361 619z"/>
<path style="fill:#030303; stroke:none;" d="M320 631L321 632L320 631z"/>
<path style="fill:#fefefe; stroke:none;" d="M1454 640C1457.25 640.63 1459.03 640.33 1460 637L1454 640z"/>
<path style="fill:#030303; stroke:none;" d="M315 655L318 658L315 655z"/>
<path style="fill:#fefefe; stroke:none;" d="M1461 664L1464 662L1461 664M332 663L333 664L332 663z"/>
<path style="fill:#030303; stroke:none;" d="M296.667 699.333L297.333 699.667L296.667 699.333z"/>
<path style="fill:#fefefe; stroke:none;" d="M321 715L322 716L321 715M1466.67 739.333L1467.33 739.667L1466.67 739.333M1426 755L1428 757L1428 755L1426 755M286.667 763.333L287.333 763.667L286.667 763.333M1433 802L1433 803L1437 804L1433 802M329 819L330 820L329 819M704 833L702 840C705.696 838.696 706.073 836.179 704 833M698 843L699 851L701 844L698 843M344 855L345 856L344 855M709 869L704 873L706 883C711.018 879.211 713.211 874.321 709 869z"/>
<path style="fill:#030303; stroke:none;" d="M708 873L710 876L708 873z"/>
<path style="fill:#fefefe; stroke:none;" d="M363 875L361 876L361 877L363 875M346 883L347 884L346 883z"/>
<path style="fill:#030303; stroke:none;" d="M343 887L344 888L343 887z"/>
<path style="fill:#fefefe; stroke:none;" d="M1372.67 887.333L1373.33 887.667L1372.67 887.333M363 891L362 894L363 891M583 891L584 892L583 891M361 895L362 896L361 895z"/>
<path style="fill:#030303; stroke:none;" d="M1331 899L1332 900L1331 899z"/>
<path style="fill:#fefefe; stroke:none;" d="M367 901L368 902L367 901M724 912L735 924L736 924L745 903C734.454 903.624 730.472 902.676 724 912M1172 903L1172 906L1171 906L1168 904L1166 912C1172.89 912.847 1179.38 909.211 1172 903M1179 909L1180 910L1179 909M808 911L809 912L808 911M1162.67 911.333L1163.33 911.667L1162.67 911.333M1063 931L1064 932L1063 931M1147 933L1149 939C1150.5 936.018 1149.81 934.627 1147 933M1151 941L1151 944L1152 944L1151 941M1147 942L1146 944L1148 944L1147 942M417 949L418 950L417 949M952 957L951 962L955 960L955 959L952 957M418 959L419 960L418 959M838.667 979.333L839.333 979.667L838.667 979.333M842 979L843 980L842 979M837 985L832 994C836.016 992.131 838.774 989.587 837 985M1056 990L1056 992L1058 992L1058 990L1056 990M795.667 1003.33L796.333 1003.67L795.667 1003.33z"/>
</svg>
