<?xml version="1.0" standalone="yes"?>
<svg xmlns="http://www.w3.org/2000/svg" width="1920" height="1080">
<path style="fill:#fdfdfd; stroke:none;" d="M0 0L0 1080L731 1080L728 1073L723 1074L724 1078L720 1079L719 1071L715 1074C713.94 1066.19 719.904 1062.31 723.18 1056C725.886 1050.78 727.823 1041.05 729 1035L716 1044L713 1041L722 1025L714 1031L714 1026L704 1040L707 1025L706 1025L698 1036C690.304 1035.42 688.191 1029.13 694 1024L694 1023L690 1019L711 1007C708.919 1000.81 702.05 1006.86 697 1006C701.742 995.226 727.057 990.196 724.914 976C723.868 969.078 712.24 962.874 706.015 965.657C702.506 967.225 700.586 971.131 696.961 972.357C688.994 975.053 681.324 968.491 677 979L673 978L646 1005L667 973L649 988C656.187 974.357 670.948 963.414 674 948L670 948C671.823 928.721 644.823 928.702 642 911L637 912L627 888C621.791 888.132 618.838 886.328 618 881L615 882C614.188 878.068 612.786 876.361 609 875L609 882L593 877L594.748 892.004L591.363 914L593 930L585 923L585 930L582 929L582 946L580 946L580 942L579 942L580 950L577 946L575 948L565 935L561 943L561 944C565.698 948.216 569.759 955.689 570.699 962C571.751 969.064 569.167 974.738 563 968L556 969L552 967C555.267 974.312 556.546 985.159 555 993C552.302 991.396 544.728 976.993 544 983L543 983L543 979L542 979L542 992L539 988L535 989L527 971L524 974L522 974L520 966L519 966C519.882 969.893 519.908 972.143 517 975L514 981L514 973L513 973L509 986L504 981C501.981 983.967 500.452 988.155 497 985L494 988L495 975C486.78 972.589 489.812 982.18 488 988L484 985C478.1 998.959 481.57 1011.39 486 1025L476 1036C473.731 1028.69 461.645 1023.73 455 1021L448 1027L447 1027L437.953 1022.44L435.741 1014L426 1000L425 1000L419 1004L420 995L403 1004C405.118 1000.24 411.856 991.233 411.669 987.228C411.431 982.142 405.06 984.989 404 988L398 988L405 965L386 976L390 964L389 951L378 953L375 958L376 949L372 952L371 952L372 948L372 947L369 948L368 942L367 942L364 954C360.613 953.369 355.093 953.55 352.797 950.581C350.462 947.562 353.807 944.888 354.434 941.961C355.343 937.716 356.446 925.485 353 923L353 921L356 917L360 914L359 913C355.934 915.168 354.506 916.234 352 913L343 918L353 891L350 892L349 889L348 889C347.04 897.617 338.879 900.342 332 904C333.128 897.005 341.719 894.716 338 887C341.59 884.803 342.516 881.46 340 878L340 877L342 871L340 871L335 875L335 867L328.682 877.643L306 882C305.644 886.914 301.387 899.204 296 900L294.478 881.999L309 865L305 863L304 863L297 868L298 859C291.363 861.152 289.241 860.385 286 854L290 854C291.329 848.733 295.654 850.255 299.826 848.192C304.782 845.742 313.673 835.199 312 830L293 829C295.519 818.64 291.099 819.449 283 822L291 809L288 810C284.237 804.215 278.733 807.706 273 808L273 807C283.231 803.022 276.733 796.261 269 796L269 790C260.545 792.188 251.106 789.138 243 786L243 785L246 781L242 784L242 777L245 778C244.455 768.084 250.122 767.451 254 759L244 761L244 760L254 750C253.027 746.689 251.261 746.611 248 747L250 740L247 731L225 728C226.112 717.118 231.861 719.828 242 720L243 719L243 717L238 716L243 712L238 704L244 697L256 704L254 699C260.242 701.452 268.447 705.85 273.981 709.698C278.925 713.136 280.249 717.914 287 717L302 725.278L309.972 731.556L312 729C317.354 732.856 323.086 735.378 329 731C324.282 728.2 319.974 723.835 314.996 721.647C309.571 719.262 305.102 721.206 302 715L299 716C296.964 708.917 286.187 702.392 279 702C279.849 696.389 274.793 696.548 271.21 693.501C268.019 690.788 266.983 686.393 263.737 683.769C259.998 680.745 255.445 680.613 252 677L257 673L278 680L277 677C282.737 674.96 287.904 679.178 292.852 677.353C300.179 674.652 293.816 668.267 289 668L293 666C295.376 661.288 299.134 660.921 304 660C303.995 652.511 303.131 645.902 296 642L298 639L314 648L313 645L318 645C317.183 642.994 311.151 640.626 316 640L316 639C312.651 637.927 300.3 624.123 304.542 621.915C307.159 620.554 311.403 623.356 314 624C312.492 614.342 295.861 614.214 292 603L299 605L299 603L312 608L309 603C312.764 601.985 314.352 600.922 315 597L338 604C338.425 599.52 337.838 595.886 333 595L319 582L324 584L324 581L328 582L328 578C320.708 573.426 315.107 568.675 311 561L314 560C311.415 556.576 308.171 552.125 304.792 549.475C301.3 546.738 295.175 549.241 297 543L290 537L291 536L296 538L297 538L289.943 526.996L282 509L294 508L295 505L296 505L298 512L313 512L311 505C317.958 508.267 324.48 519.928 333 516L332 520C334.603 518.165 334.283 516.784 333 514L338 511L330 505L326 506L325 504L325 503L335 500L334 497L320 496L325 492L326 487L315 486L314 483C330.127 476.6 345.22 464.178 363 462L356 455C352.667 456.799 351.164 458.156 351 462C345.768 454.112 362.121 445.949 368 444C366.271 440.914 361.756 438.693 361.327 435.004C360.457 427.521 377.386 428.095 382 428L382 427L368 426C365.019 420.691 359.012 417.329 353 417C353.463 425.461 349.281 427.787 343 432.739C329.948 443.029 314.732 445.349 299 447L298 437L291 437L304 424L303 419L301 422L300 422C298.033 416.657 295.802 414.19 290 414L290 391L294 392C294.677 385.937 299.776 382.979 300.822 376.996C301.588 372.61 298.07 368.209 299.562 364.098C300.884 360.459 305.424 360.175 306.954 356.846C309.447 351.421 300.327 347.199 309 344C308.441 338.985 310.24 337.258 315 336L314 331C322.24 335.018 316.953 325.19 319.909 321.303C322.383 318.049 327.394 318.083 331 317L331 311L334 312L335 309L337 310L337 297C342.462 295.982 346.384 295.563 350 291C341.364 281.864 347.186 278.242 346.489 268.086C346.235 264.377 342.786 260.171 341 257L351 265L331 237L343 241L339 231L340 230L352 238L357 236L351 223L360 223L364 227C365.545 219.415 370.991 218.636 376 224L380 224C375.212 217.775 374.022 212.875 374 205C378.214 206.86 380.197 207.979 384 205L383 208L389 204L388 199C395.257 200.1 402.884 202.1 407 209C411.278 208.161 416.787 214.134 418 218L419 218L422 212L422 211L417 201C430.172 201.453 427.49 220.096 438 226L438 222L451.429 231.302L460 242L458 225L468 228L468 230C474.711 224.01 466.698 221.528 467.906 215.203C468.716 210.958 473.306 214.97 474 217L475 217L480 212L486 190L483 190L485 188L486.184 173.036L483 160C486.879 160.152 488.143 158.873 488 155L495 155L495 146L499 150L500 137L504 137L505 141L509 136L513 143L514 143L514 129L521 136L522 136L520 125L523 129L524 129L523 120L524 120L525 122L527 119L528 119L533.434 136.671L548 154L552 153L553 166L559 156L561 160L562 160L560 145L561 145L566 158L567 158C565.94 149.617 565.093 144.075 568 136C573.747 140.006 576.06 136.511 581 133L585 142L584 131L597 135L599 129C591.931 123.08 591.994 110.426 594 102L595 102L598 112L599 112L598 107L603 108C603.018 103.801 605.913 99.9988 605.769 95.9398C605.477 87.719 601.943 80.6866 603.264 72C604.064 66.7389 607.736 62.2264 608.343 57C609.211 49.5249 611.836 35.3378 621 33L620 30L623 30L630 0L0 0z"/>
<path style="fill:#040404; stroke:none;" d="M630 0L623 30C620.384 29.9728 620.446 30.4321 621 33C611.979 34.9005 608.779 48.4189 607.954 56C607.382 61.2679 604.114 65.7693 603.304 71C601.933 79.861 605.129 87.4379 605.365 95.9105C605.48 100.033 602.871 103.753 603 108L598 107L599 112L598 112L595 102L594 102C591.818 109.383 591.467 124.824 599 129L597 135L584 131L585 142L581 133C575.656 135.553 574.055 139.008 568 136C564.243 143.501 565.51 150.004 567 158L566 158L561 145L560 145L562 160L561 160L559 156L553 166L552 153L548 154L533.938 136.671L528 119L527 119L524 120L523 120L524 129L523 129L520 125L522 136L521 136L514 129L514 143L513 143L509 136L505 141L504 137L500 137L499 150L495 146L495 155L488 155C487.909 158.538 486.546 159.94 483 160L485.956 174.015L483 190L486 190C481.13 196.321 480.069 204.152 480 212L477 211L475 217L474 217C473.43 214.194 468.123 210.122 467.462 215.153C466.599 221.719 472.999 223.301 468 230L468 228L458 225L460 242L438 222L438 226C435.309 223.749 431.039 221.061 429.6 217.791C426.736 211.285 427.949 199.388 417 201L422 211L422 212L419 218L418 218C417.282 213.843 411.253 206.798 407 209C404.138 201.677 395.048 199.198 388 199L389 204L383 208L384 205L382 208L374 205C374.005 212.628 374.229 218.547 380 224L376 224C371.696 217.207 364.863 219.323 364 227L360 223L351 223L357 236L352 238C350.368 232.969 344.592 231.739 340 230L339 231L343 241L331 237C333.46 249.272 344.743 254.98 351 265L341 257C342.37 260.463 345.743 264.377 346.066 268.089C346.874 277.4 340.193 283.691 350 291L337 297L337 310L335 309L331 311L331 317C327.532 317.571 322.397 317.8 319.894 320.564C316.273 324.563 322.081 333.392 314 331L315 336C309.789 336.838 307.896 338.689 309 344C299.619 346.047 309.01 351.787 306.342 356.796C304.804 359.682 300.933 360.121 299.448 363.192C297.352 367.529 301.143 371.237 300.821 375.576C300.325 382.244 294.369 385.271 294 392L290 391L290 414C295.517 414.42 297.497 417.339 300 422L301 422L303 419L304 424C297.638 425.811 293.547 431.169 291 437L298 437L299 447C314.141 446.263 329.265 443.604 342 434.296C349.004 429.176 354.072 426.133 353 417C358.925 417.659 364.204 421.525 368 426L382 427L382 428C377.047 428.04 358.429 427.133 361.002 435.961C361.983 439.328 365.831 441.429 368 444C362.879 445.019 343.375 455.195 351 462L356 455L363 462C346.225 463.068 328.254 475.065 314 483L314 484L315 486L317 484L326 487L325 492L320 496L335 500L325 503L326 506L330 505L338 511L333 514L335 516L332 520L333 516C323.695 518.585 318.973 507.256 311 505L313 512L298 512L296 505L295 505L294 508L282 509L297 538L296 538L291 536L290 537L297 543L296.863 547.182L303.242 548.948L314 560L311 561C313.962 569.076 320.214 574.597 328 578L328 582L324 581L324 584L319 582L333 595C337.387 596.274 338.173 599.784 338 604L315 597L309 603L312 608L299 603L299 605L292 603C294.664 615.975 311.037 613.568 314 624C311.473 623.012 306.419 619.646 303.851 622.029C299.912 625.683 312.185 638.259 316 639L316 640L313 640L318 645C314.954 644.516 313.927 644.823 314 648L298 639L296 642C302.147 646.94 303.978 652.302 304 660C299.101 660.623 294.589 660.764 293 666L289 668C293.322 668.487 299.521 673.686 292.852 676.867C288.094 679.137 282.717 674.265 277 677L278 680L257 673L252 677C254.86 681.406 259.975 681.073 263.737 684.475C266.825 687.266 267.837 691.632 271.21 694.182C274.828 696.918 278.763 696.816 279 702C286.138 702.782 295.926 709.563 299 716L302 715C304.031 721.75 309.146 719.359 314.285 721.728C319.608 724.182 323.487 728.683 329 731C322.043 734.503 318.339 732.148 312 729C310.275 731.197 290.135 720.319 287 717L274.946 709.698L254 699L256 704L244 697L238 704L243 712L238 716L243 717L242 720C232.612 718.673 224.218 716.9 225 728L247 731L250 740C247.043 741.92 247.117 743.696 248 747L254 750L244 760L244 761L254 759C248.844 766.798 243.89 768.159 245 778L242 777L242 784L246 781L243 785L243 786C250.636 789.692 260.768 792.787 269 790L269 796C276.703 796.774 282.049 801.704 273 807L273 808L291 809L283 822C291.361 820.394 294.601 818.638 293 829L312 830C313.115 835.058 304.437 845.087 299.826 847.707C295.761 850.017 289.903 847.969 290 854L286 854C288.353 860.684 291.665 861.886 298 859L297 868L304 863L305 863L309 865C303.985 870.096 295.422 874.164 293.915 881.999C292.701 888.313 298.443 893.292 296 900C301.945 899.691 305.832 887.27 306 882L328.682 878.382L335 867L335 875L340 871L342 871L340 877L340 878C341.735 881.913 341.129 884.097 338 887L332 904C339.507 901.252 347.52 897.757 348 889L349 889L353 891L343 918L352 913C354.19 916.785 356.138 915.704 359 913L360 914L356 917L353 921L353 923C357.28 927.588 353.419 928.976 352.947 934.039C352.72 936.472 354.389 938.563 354.193 940.985C353.98 943.609 351.562 945.49 351.506 948.126C351.388 953.722 360.167 953.515 364 954L367 942L368 942L369 948L371 947L372 947L372 948L371 952L372 952L376 949L375 958L378 953L389 951L390 964C385.248 965.598 386.777 971.595 386 976L405 965L398 988L404 988C405.294 985.809 411.759 982.582 411.269 987.685C410.838 992.172 404.872 999.414 403 1004L420 995L419 1004L425 1000L426 1000L433.051 1008.03L437.939 1023.21L447 1027L448 1027L455 1021C461.794 1024.89 472.328 1028.77 476 1036L486 1025C482.551 1010.09 479.142 1000.32 484 985L488 988C490.493 982.114 486.666 973.201 495 975L494 988L497 985L498 988L504 981L509 986L513 973L514 973L514 981L517 975C520.481 972.743 520.09 969.731 519 966L520 966L522 974L524 974L527 971L535 989L539 988L542 992L542 979L543 979L543 983L544 983L544 980L555 993C556.875 986.378 556.147 972.69 552 967L555 966L556 969L563 968C568.054 975.952 571.388 969.525 570.91 963C570.426 956.401 566.677 947.539 561 944L561 943L565 935C568.199 938.689 571.156 948.108 577 946L580 950L579 942L580 942L580 946L582 946L582 929L585 930L585 923L593 930L591.56 915L595.26 892L593 877L609 882L609 875L615 882L618 881C618.441 886.713 621.467 888.457 627 888L637 912L642 911C643.674 929.317 670.122 928.657 670 948L674 948L649 988L667 973L646 1005C655.918 998.013 667.46 988.887 673 978L677 979C682.534 969.844 688.518 974.675 696.961 972.667C701.097 971.684 703.091 967.233 707.004 965.697C712.461 963.555 724.097 970.438 724.673 976.424C726.076 991.009 700.602 993.882 697 1006C702.105 1007.36 707.983 1001.96 711 1007L690 1019L694 1023L694 1024C686.669 1028.28 690.635 1035.76 698 1036L706 1025L707 1025L704 1040L714 1026L714 1031L722 1025L713 1041L716 1044L729 1035C727.462 1040.86 725.788 1050.3 723.089 1055.29C719.66 1061.62 713.058 1066.03 715 1074L719 1071L720 1079L724 1078L723 1074L728 1073C728.804 1076.94 730.099 1078.84 734 1080C733.372 1069.22 737.97 1067.79 742.443 1059C745.218 1053.55 745.186 1047.27 748 1042L748 1050C752.638 1046.23 754.593 1040.81 753 1035L757 1039L761 1035L763 1041L769 1037C769.513 1039.75 769.393 1044.15 771.178 1046.4C773.004 1048.7 781.784 1050.82 783.397 1047.67C786.201 1042.19 782.464 1033.68 782 1028L789 1027L788 1039L800 1031L800 1032C788.724 1038.4 798.566 1050.61 796 1060L800 1055L801 1055C801.152 1059.16 799.209 1064.64 804 1066L804 1061L805 1061L807 1067L808 1067C809.392 1061.16 812.052 1051.54 806 1048L812 1044L816 1072L824 1069L823 1080L827 1080L829 1068L830 1068C830.204 1074.22 832.42 1074.68 838 1073L835 1080L841 1080L841 1077L845 1077L845 1080C859.448 1079.46 853.545 1070.79 861 1062L860 1066C863.336 1064.44 869.865 1063.73 871.987 1060.68C876.298 1054.48 873.546 1038.46 884 1038L882 1050L892 1040L888 1029C893.07 1031.32 895.696 1029.95 898 1025L899 1025L906 1029L904 1034L909 1034C910.601 1040.72 909.765 1045.76 907 1052C921.418 1047.33 909.783 1023.73 920 1014L921 1023L923 1023L928 1015L930 1015L942 1046L943 1046C949.642 1035.07 942.326 1024.28 941 1013L948 1020L953 1013L955 1013C956.738 1019.75 960.229 1026.59 968 1024L964 1020C964.575 1017.27 965.869 1012.81 969 1015C970.2 1010.31 970.606 1007.22 968 1003L976 1008L973 1004L973 1003L978 1000L973 995L978 994L978 989L985 993C984.665 988.015 984.446 984.314 990 983C988.141 989.291 987.951 998.234 991.483 1003.98C994.426 1008.77 1000.53 1009.79 1000 1016L1005 1019L1005 1020C1000.9 1025.34 999.276 1055.78 1008 1039L1005.83 1051L1008 1060L1021.07 1048.52L1026 1031L1026 1038C1040.43 1039.19 1037.21 1050.8 1045 1059L1045 1060C1042.95 1063.13 1044.31 1064.74 1047 1067C1053.12 1050.85 1035.22 1039.45 1033 1025C1039.12 1024.53 1040.67 1020.15 1043 1015C1049.51 1029.1 1048.32 1064.99 1071 1059C1069.71 1063.29 1073.98 1065.78 1075 1061L1081 1065L1079 1060L1080 1054L1081 1054C1085.44 1063.76 1094.96 1058.44 1094 1072L1097 1071L1096 1067L1102 1068C1097.48 1054.76 1081.6 1041.89 1070 1036L1070 1035C1076.9 1029.3 1071.48 1025.05 1071 1018C1083.61 1019.7 1095.14 1002.01 1103.96 994.968C1106.22 993.17 1112.02 987.978 1114.96 988.051C1120.51 988.189 1118.64 999.22 1124 1001L1124 1008C1128.81 1004.85 1131.82 994.398 1125 992L1125 991L1129 966L1137 966L1138 967C1130.91 977.803 1147.15 980.913 1151 990C1157.87 987.58 1158.61 994.237 1164 997C1165.59 988.396 1152.64 973.561 1159 967L1158 971L1164 972L1164 976L1167 976L1165 960L1166 960L1169 961C1169.97 964.564 1173.16 974.704 1176.47 976.393C1182.1 979.264 1185.77 969.682 1189 977L1192 976L1193 977L1199 996L1205 996L1205 995C1202.46 991.202 1204.95 986.688 1208 984L1207 991L1208 991L1210 985L1225 1006L1226 989L1229 1000C1235.76 997.993 1233.83 992.39 1236 987L1241 992L1237 988C1240.97 983.185 1242.18 980.255 1241 974C1233.57 976.161 1214.61 963.124 1220 955L1227 966L1239 968L1239 967L1236 967L1236 960L1233 960L1234 957L1236 957L1244 964L1241 953L1247 953L1248 953L1250 955L1250 956L1247 960L1252 959L1258 966L1259 966L1253.98 952L1256 933L1262 934L1262 930L1267 931C1266.94 933.893 1271.24 939.427 1272 935L1278 939L1278 947L1282 947L1282 948L1280 952L1285 944L1286 944L1287 947L1291 945C1292.35 950.637 1294.48 954.73 1300 957C1302.86 941.309 1291.34 926.217 1290 911L1296 909L1317 940L1320 938L1328 941L1328 946C1331.44 945.427 1338.12 942.539 1337 947L1338 947L1338 943L1343 948L1344 948L1344 945L1349 943L1351 948L1352 948L1353 941L1354 941L1355 944L1356 944L1356 939L1368 944L1368 941L1376 945L1378 937L1376 931C1382.69 930.15 1383.94 935.062 1387 940L1391 932C1391.42 935.645 1393.58 937.024 1397 938L1394.01 921L1397 907L1399 906L1403 908L1406 895L1409 896L1410 893L1418 896L1418 891L1426 892C1425.19 879.934 1431.58 885.434 1438.68 881.789C1441.88 880.143 1439.99 877.309 1438 876L1438 875L1447 876L1453 870L1457 868L1457 858C1460.55 857.11 1464.07 857.181 1464 853C1469.21 851.866 1468.54 849.341 1467 845L1468 845L1468 847L1469 847C1470.21 839.312 1481.71 836.618 1486.15 829.996C1491 822.75 1478.25 806.344 1492 804.148C1493.94 803.837 1496.03 804.002 1498 804L1494 790L1493 789C1483.09 789.375 1450.61 777.272 1450 796L1434 779L1450 780L1444 769C1449.98 768.979 1458 768.582 1460 762L1456 756C1468.5 759.368 1485.54 758.848 1498 756L1492 747C1495.31 746.848 1499.28 743.813 1494.87 741.077C1492.5 739.605 1488.68 740.063 1486 740L1483 736L1483 735L1498 736L1491 724L1487 721L1496 722C1496.25 720.106 1496.67 719.106 1499 719.778C1509.98 722.94 1520.67 717.71 1531 714L1511 698L1513 699L1513 698L1510 695L1521 693L1516 688L1519 683L1506 678L1517 665L1522 667L1522 664L1538 670.254L1549.04 684.701L1571 700L1571 694C1576.54 696.11 1578.23 691.335 1582 688L1579 679C1588.03 679.146 1580.73 666.027 1578.34 662C1574.47 655.476 1574.36 648.559 1571.16 642C1565.82 631.072 1558.05 625.369 1550.31 616.791C1547.24 613.392 1547.92 610.786 1551 608C1547.45 602.979 1543.27 598.838 1537 598L1543 592L1547 580L1547 579L1541 572L1541 571L1543 569L1540 568L1541 562C1546.58 564.637 1552.92 562.884 1559 563.622C1562.97 564.104 1566.97 567.673 1570.85 567.407C1577.27 566.969 1572.55 555.762 1571 553L1578 548C1574.71 540.527 1573.02 535.444 1574 527L1567 527C1563.08 514.479 1554.42 510.866 1558 497L1549 494L1555 488L1555 487L1549 483L1552 484L1552 483L1550 482L1553 481L1554 484L1574 477C1577.06 481.704 1581.02 480.39 1586 480L1586 479L1578 476C1582.53 471.221 1589.56 473.262 1594.66 469.171C1600.72 464.307 1602.62 454.448 1594 452L1594 451L1601 447L1599 441L1604 440L1598 433L1604 432L1601 428L1607 421L1590 420C1587.56 413.064 1580.64 406.922 1574 404L1574 403C1577.96 398.345 1575.28 396.173 1570 396L1574 374L1569 376C1571.39 365.956 1567.95 363.02 1564.18 354.791C1562.75 351.678 1563.84 346.483 1559 349L1551 334L1556 319L1560 320L1566 318L1568 314L1569 314L1572 316C1577.27 306.859 1591.19 306.972 1593 295L1600 294L1601 294L1604 292L1604 290L1603 289L1601 291L1600 291L1599 291L1586 288L1587 285L1589 287L1594 280L1593 276L1590 278C1588.16 273.954 1586.49 272.346 1582 272C1583.05 269.466 1586.1 265.129 1584.76 262.333C1582.11 256.816 1562.63 263.206 1558 264C1559.98 258.248 1564.02 255.822 1570 256L1570 253L1562 251L1564 246L1543 248C1541.2 242.907 1536.29 244.737 1532 245.829C1525.39 247.51 1517.72 251.709 1511 251.926C1502.38 252.205 1497.21 247.653 1488 251L1487 247L1467.03 251.794L1457 246L1461 236L1445 240C1444.15 222.294 1431.15 235.799 1423 242L1427 228L1409 228L1410 225L1399 229C1397.77 223.308 1381.22 229.288 1379 234L1375 232L1376 221L1372 221L1374 211C1389.94 203.701 1393.36 189.218 1401.4 176C1404.8 170.41 1411.78 165.409 1413.45 159C1415.51 151.075 1412.73 142.193 1415.28 134C1417.12 128.131 1422.51 124.873 1425.16 119.576C1428.3 113.286 1429.37 105.763 1431 99L1417 93L1413 97L1412 94L1393.99 106.738L1375.61 123L1364 141L1362 137C1357.74 144.334 1359.73 153.934 1350 149L1349 153L1348 153L1348 149C1341.28 148.494 1336.59 149.77 1333 156L1328 156L1325.34 141L1325 128L1316 131L1315 135L1309 131L1308 131L1301 139L1292 139L1293 147C1287.41 149.831 1284.69 155.889 1279.58 159.357C1272.33 164.277 1259.69 164.234 1254.79 156.545C1251.46 151.316 1256.37 145.019 1250 141L1251 147L1247 148L1239.85 136.078L1230 133L1226 140L1214 137L1212 145L1211 145C1209.85 142.306 1205.36 134.676 1204 141L1199 139L1202 152L1199 161L1197 159C1191.99 169.337 1182.75 177.366 1170 175L1158 184L1160 179L1154 179L1156 181L1156 182L1150 184C1150.05 178.266 1153.89 170.28 1148 167L1147 179L1138 192L1143 173C1133.54 179.067 1132.43 196.931 1122 200L1130.12 183.717L1124.45 174.896L1124 165L1111 187L1110 186L1114 169L1109.4 175.272L1099 182L1112.59 158L1114 139C1109.22 139.381 1108.26 141.393 1108 146L1107 137L1103 137C1109.67 125.505 1115.09 113.919 1128 108C1127.78 103.481 1127.56 99.1859 1131 96C1125.33 86.8724 1119.37 105.361 1114 108C1112.85 104.3 1111.05 103.422 1108 106L1107 106L1104 104C1106.04 100.328 1106.15 98.6229 1104 95C1113.08 91.6943 1116.1 69.1272 1107 64L1108 59L1107 59L1106 64L1101 65L1102 49L1095 56L1094 52L1090 53L1091 41L1083 52L1078 45L1065 65L1068 46L1062 48L1065 35L1056 38L1052 18L1046 33L1044 33L1043 23L1042 23L1037 43L1027 36L1032.05 18L1030 7L1029 7L1025 15L1027 14L1027 15L1015 24L1019 8L1015 6L1014 6C1009.41 10.7379 1009.5 16.6377 1009 23L1007 17L1002.99 30.9993L988 52L990 43L976 49L974 54L977 43C962.514 46.4708 961.521 57.0045 952 66L948 59C943.86 60.6432 941.124 52.0565 939 49L933 65L936 68L929 64L931 55L923 68L923 57L907.104 54.5618L897 46L893 39L892 39L885 39L891 59L875 41L874 41L873 50L866 42L861 45L858 41L859 50L850 40L850 54C849.545 50.9824 844.701 40.4012 842.063 48.1489C840.683 52.2043 842.313 57.7025 842 62L841 62L827 44L825 44L828 60L815 47L812 60L810 60L806 57L805 68C801.682 66.3787 800.074 64.7834 800 61L789 61L790 64C786.862 63.4326 783.918 61.0626 780.885 60.7755C775.468 60.2628 768.272 64.6906 763 65.8395C756.495 67.2571 752.856 65.0783 748 71L759 83L759 84L748.832 86.0455L746.937 92.892L740 99C735.395 94.8176 726.37 85.5564 720 88L720 84L719 84C717.877 88.2542 718.657 90.6815 723 92L722 108L719 105C700.138 102.681 722.974 121.785 728 126L725 127C727.711 139.711 749.482 149.134 760 154.046C763.988 155.908 767.585 159.581 772 160.407C778.147 161.556 781.187 156.116 782 151L783 151L789 200C780.872 193 778.579 180.142 767 177L762 182L765 202C757.526 197.1 739.623 174.184 730 184L738 190L737 191L730 187L735 196L731 206C725.115 191.941 708.109 180.57 696.194 171.866C693.379 169.809 693.005 164.488 690 164L689 139L686 141L696.181 98.0895L692 89L688 91L688 79L682 79L682 65L680 67L679 67L676 63L675.232 44.9105L681.478 25.0146L677 0C669.642 0 647.866 -3.56848 643 2L642 2L630 0z"/>
<path style="fill:#fdfdfd; stroke:none;" d="M641 0L641 2L643 2L643 0L641 0M677 0L681.237 24.0393L674.831 43.9607L676 63L679 67L680 67L682 65L682 79L688 79L688 91L692 89L695.62 99.0394L688.677 130.996L686 141L689 139L690 164C693.34 164 692.04 169.857 695.167 172C708.372 181.048 722.31 192.241 731 206L735 196L730 187L737 191L738 190C735.962 186.05 734.442 184.502 730 184C741.727 175.703 755.596 197.729 765 202L762 182L767 177L789 200C788.359 192.976 786.518 185.961 786.054 179C785.313 167.878 788.021 161.821 783 151L782 151C780.886 155.264 778.282 160.522 773 160.157C768.637 159.855 764.826 155.832 761 154.046C749.574 148.71 729.619 139.854 725 127L728 126C724.158 121.46 716.69 118.269 714.425 112.931C713.204 110.052 708.958 103.15 715.877 105.072C718.079 105.684 719.805 107.313 722 108L723 92C719.226 90.0918 718.32 88.1616 719 84L720 84L720 88L722 86L723 86L740 99L746.969 93.777L748.912 86.3719L759 84L759 83L748 71L764 66.0363L780.884 61.3225L790 64L789 61L800 61C799.849 65.0763 801.086 66.8353 805 68L806 57L810 60L812 60L815 47L828 60L825 44L827 44L841 62L842 62C842.465 57.8331 840.82 52.5918 842.179 48.6389C844.681 41.3619 849.332 51.223 850 54C854.536 50.9606 850.407 44.6331 850 40L859 50L858 41L861 45L866 42C866.638 46.7805 868.62 48.2186 873 50L874 41L875 41C877.744 48.8307 884.805 53.7986 891 59L885 39C887.72 40.4105 889.806 41.5038 892 39L893 39L897 46L907.104 55.1373L923 57L923 68L931 55L929 64L936 68L933 65L939 49C940.373 51.8066 944.388 62.7911 948 59L952 66L962.424 50.5232L977 43L974 54L976 49L990 43L988 52L1003.35 30.9993L1007 17L1009 23L1014 6L1015 6L1019 8L1015 24C1020.6 22.7733 1025 19.4569 1027 14L1025 15L1025 14L1029 7L1030 7L1031.83 18.1698L1027 36L1037 43L1042 23L1043 23L1044 33L1046 33L1052 18L1056 38L1065 35L1062 48L1068 46L1065 65C1071.28 61.4744 1075.86 51.6168 1078 45L1083 52L1091 41L1090 53L1094 52L1095 56L1102 49L1101 65L1106 64L1107 59L1108 59L1107 64C1114.92 70.6185 1113.04 89.978 1104 95L1104 104L1107 106L1108 106C1111.31 104.156 1112.46 104.524 1114 108C1120.78 105.993 1123.85 88.7444 1131 96C1126.96 98.7008 1127.53 103.498 1128 108C1115.79 111.397 1107.26 126.074 1103 137L1107 137C1106.05 140.652 1104.48 143.641 1108 146C1108.48 141.725 1109.64 139.712 1114 139L1112.06 158L1099 182L1114 169L1110 186L1111 187L1124 165L1124.19 175.791L1129.47 183.717L1122 200C1131.18 198.516 1136.2 179.586 1143 173L1138 192L1147 179L1148 167C1152.91 171.315 1150.02 178.027 1150 184L1156 182L1156 181L1154 179L1160 179L1158 184C1163.16 181.966 1167.58 180.209 1170 175C1179.8 177.836 1180.61 173.092 1188.17 169.5C1189.77 168.74 1191.38 170.268 1193 169.5C1196.03 168.06 1194.42 157.794 1199 161L1202 152L1199 139L1204 141C1206.76 137.498 1209.26 142.482 1211 145L1212 145L1214 137L1226 140L1230 133L1239.92 136.417L1247 148L1251 147L1250 141C1255.42 146.164 1251.23 151.1 1254.2 156.545C1264.17 174.766 1284.17 153.752 1293 147L1292 139L1301 139L1308 131L1309 131L1315 135L1316 131L1318 133L1319 133L1325 128L1328 156L1333 156C1337.45 150.827 1341.23 148.789 1348 149L1348 153L1349 153L1350 149C1358.99 155.45 1359.04 144.115 1362 137L1364 141C1371.33 137.495 1371.69 129.062 1376.36 123C1384.3 112.719 1399.72 98.5037 1412 94L1413 97L1417 93L1431 99C1429.05 105.401 1428.14 112.647 1425.16 118.714C1422.55 124.006 1417.22 127.184 1415.25 132.999C1412.43 141.324 1415.68 151.122 1413.05 159C1411.04 165.051 1404.7 169.597 1401.4 175.001C1398.74 179.357 1398.56 184.603 1395.93 188.985C1390.79 197.519 1382.14 205.432 1374 211L1372 221L1376 221L1375 232L1379 234C1382.35 230.063 1395.05 223.94 1399 229L1410 225L1409 228L1427 228L1423 242C1432.19 237.096 1442.47 222.733 1445 240L1461 236L1457 246L1465.22 251.681L1487 247L1488 251C1497.09 248.663 1502.48 252.147 1511 251.977C1517.49 251.848 1524.73 248.17 1531 246.365C1535.53 245.062 1540.24 243.391 1543 248L1564 246L1562 251L1570 253L1570 256C1563.82 255.472 1559.29 257.659 1558 264C1562.45 263.72 1582.66 257.05 1584.33 263.188C1585.04 265.783 1582.71 269.514 1582 272L1590 278L1593 276L1594 280L1589 287L1587 285L1586 288L1599 291L1600 291L1601 291L1603 289L1604 290L1604 292L1601 294L1600 294L1593 295C1590.05 306.581 1575.73 306.127 1572 316L1569 314L1568 314L1566 318C1562.94 317.29 1561.73 317.331 1560 320L1556 319L1551 334L1559 349C1563.88 348.032 1562.35 352.522 1564.05 355.625C1568.41 363.582 1570.81 366.249 1569 376L1574 374L1570 396C1575.18 396.397 1576.51 398.343 1574 403L1574 404L1590 420L1607 421L1601 428L1604 432L1598 433L1604 440L1599 441L1601 447L1594 451L1594 452C1601.97 455.764 1600.1 465.38 1592.91 469.722C1587.86 472.769 1581.26 470.734 1578 476L1586 479L1586 480C1580.93 480.203 1577.75 480.888 1574 477L1554 484L1552 483L1552 484L1549 483L1555 487L1555 488L1549 494L1558 497C1552.73 509.985 1561.9 515.671 1567 527L1574 527C1572.06 534.838 1573.73 541.412 1578 548L1571 553C1572.35 556.302 1576.18 563.225 1572.4 566.264C1570 568.19 1566.32 565.395 1564 564.559C1556.38 561.816 1548.39 564.519 1541 562L1540 568L1543 569L1541 571L1541 572L1547 579L1547 580L1543 592C1539.18 592.815 1537.82 594.178 1537 598L1551 608C1547.69 610.209 1546.9 613.362 1549.57 616.787C1553.72 622.117 1560.12 625.026 1564.03 631C1570.23 640.466 1571.28 650.597 1576.57 660C1579.24 664.744 1588.01 676.753 1579 679L1582 688L1571 694L1571 700C1564.33 695.234 1556.57 690.969 1550.52 685.455C1546.85 682.114 1545.82 677.044 1542.58 673.439C1537.14 667.386 1529.5 665.989 1522 664L1522 667L1521 667L1517 665L1506 678L1519 683L1516 688L1521 693L1510 695L1513 699L1511 698L1511 699L1531 714C1519.26 716.325 1511.2 721.702 1499.03 719.537C1496.58 719.102 1496.24 720.081 1496 722L1487 721L1491 724L1498 736L1483 735L1483 736L1486 736L1486 740C1490.43 740.274 1501.83 745.644 1492 747L1498 756L1456 756L1460 762C1457.03 767.891 1450.14 768.932 1444 769L1450 780L1434 779C1437.43 785.101 1443.48 793.215 1450 796C1451.45 776.964 1483.33 790.458 1493 789L1494 790C1491.83 795.877 1494.96 799.075 1498 804C1495.71 804 1493.27 803.787 1491 804.148C1477.8 806.255 1490.37 822.596 1486.15 828.999C1481.56 835.956 1469.63 838.693 1469 847L1468 847L1468 845L1467 845C1467.95 849.26 1468.62 851.294 1464 853L1465 856L1457 858L1457 868L1453 870C1448.98 870.191 1448.17 872.359 1447 876C1443.86 873.471 1441.76 873.895 1438 875L1438 876C1444.45 882.997 1430.55 880.708 1427.32 883.288C1424.53 885.522 1425.62 888.938 1426 892L1418 891L1418 896L1410 893L1409 896L1406 895L1403 908L1399 906L1397 907L1393.7 921.996L1397 938L1391 932L1387 940C1384.58 934.578 1382.8 929.357 1376 931L1378 937C1373.67 937.927 1375.91 941.504 1376 945L1368 941L1368 944L1356 939L1356 944L1355 944L1354 941L1353 941L1352 948L1351 948L1349 943L1348 946C1345.29 945.423 1344.61 945.232 1344 948L1343 948L1338 943L1338 947L1337 947C1336.36 942.694 1330.95 944.915 1328 946L1328 941L1320 938L1317 940L1296 909L1290 911L1300 957L1291 945L1287 947L1286 944L1285 944L1280 952L1282 948L1282 947L1278 947L1278 939L1272 935C1272 939.442 1266.68 934.258 1267 931L1262 930L1262 934L1256 933L1253.12 951.015L1259 966L1258 966L1252 959L1247 960L1250 956L1250 955L1248 953L1247 953L1241 953L1244 964L1236 957L1234 957L1233 960L1236 960C1236 963.363 1235.28 966.204 1239 967L1239 968L1227 966L1220 955C1213.36 962.563 1233.59 977.457 1241 974L1237 988L1241 992L1236 987L1229 1000L1226 989L1225 1006C1219.66 999.001 1219.79 987.807 1210 985L1208 991L1207 991L1208 984C1204.55 986.018 1202.06 991.629 1205 995L1205 996L1199 996L1193 977L1192 976L1189 977C1186.42 968.622 1181.82 979.252 1176.52 976.046C1173.57 974.258 1170.25 964.363 1169 961L1166 960L1165 960L1167 976L1164 976L1164 972L1158 971L1159 967C1152.4 972.057 1164.91 989.603 1164 997C1159.23 993.31 1157.68 986.612 1151 990C1148.3 979.606 1132.23 978.758 1138 967L1137 966L1129 966L1125 991L1125 992C1131.19 995.63 1128.23 1003.79 1124 1008L1124 1001C1118.94 998.211 1120.99 989.082 1115.76 987.346C1112.7 986.328 1105.32 993.1 1103 994.94C1093.71 1002.32 1084.01 1018.06 1071 1018C1071.23 1025.6 1075.79 1028.25 1070 1035L1070 1036L1078.74 1039.77L1087.13 1050.91L1102 1068L1096 1067L1094 1072C1095.67 1058.53 1086.94 1062.96 1081 1054L1080 1054L1079 1060L1081 1065L1075 1061C1072.74 1064.23 1071.14 1062.24 1071 1059L1060.59 1059.99L1056.85 1052L1046.05 1032L1043 1015C1040.12 1019.56 1038.8 1024.08 1033 1025C1034.14 1040.14 1051.98 1050.26 1047 1067L1045 1060L1045 1059C1038.64 1049.5 1040.07 1038.61 1026 1038L1026 1031L1020.52 1048.52L1008 1060L1008 1039C997.762 1052.95 1001.92 1025.67 1005 1020L1005 1019L1000 1016C1001.45 1009.55 994.502 1008.01 991.483 1003C987.975 997.164 988.477 989.396 990 983C983.717 982.903 984.404 988.146 985 993L978 989L978 994L973 995L978 1000L973 1003L973 1004L976 1008L968 1003L969 1015L967 1013L964 1020L968 1024C960.374 1025.83 957.435 1019.39 955 1013L953 1013L948 1020L941 1013C940.154 1025.17 948.636 1033.29 943 1046L942 1046C943.462 1033.64 933.796 1026.67 930 1015L928 1015L923 1023L921 1023L920 1014C906.759 1022.34 921.936 1044.19 907 1052C910.378 1046.44 910.84 1040.22 909 1034L904 1034L906 1029L899 1025L898 1025C895.083 1029.32 893.103 1030.59 888 1029L892 1040L882 1050L884 1038C873.413 1036.45 876.011 1055.28 871.4 1060.68C868.873 1063.65 863.341 1063.95 860 1066L861 1062L854 1080L1920 1080L1920 0L1016 0L1015 5L1014 5L1014 0L677 0z"/>
<path style="fill:#040404; stroke:none;" d="M1014 0L1014 5L1015 5L1016 0L1014 0z"/>
<path style="fill:#fdfdfd; stroke:none;" d="M1015.33 8.66663L1015.67 9.33337L1015.33 8.66663z"/>
<path style="fill:#040404; stroke:none;" d="M1005 11L1005 12L1008 12L1005 11z"/>
<path style="fill:#fdfdfd; stroke:none;" d="M1007 24L1006 28L1007 28L1007 24M1017 29L1017 32L1018 32L1017 29z"/>
<path style="fill:#040404; stroke:none;" d="M1029 30L1029 31L1034 32L1034 29L1029 30M992 37L991 41L994 37L992 37M1067 38L1066 40L1068 40L1067 38z"/>
<path style="fill:#fdfdfd; stroke:none;" d="M1057 39L1056 40L1056 41L1057 42L1058 42L1059 41L1059 40L1057 39z"/>
<path style="fill:#040404; stroke:none;" d="M976 41L977 42L976 41z"/>
<path style="fill:#fdfdfd; stroke:none;" d="M1031 41L1032 42L1031 41M1044 41L1044 44L1045 44L1044 41M890 42L892 44L890 42M1078 51L1078 52L1081 52L1078 51z"/>
<path style="fill:#040404; stroke:none;" d="M1096.67 51.3334L1097.33 51.6666L1096.67 51.3334z"/>
<path style="fill:#fdfdfd; stroke:none;" d="M874 52L875 56L876 56L874 52M974.667 55.3334L975.333 55.6666L974.667 55.3334z"/>
<path style="fill:#040404; stroke:none;" d="M787 56L786 59L790 60L787 56z"/>
<path style="fill:#fdfdfd; stroke:none;" d="M1089 57L1088 64L1089 64L1094 59L1089 57z"/>
<path style="fill:#040404; stroke:none;" d="M1111 57L1109 60C1111.25 59.5268 1112.12 59.1396 1111 57z"/>
<path style="fill:#fdfdfd; stroke:none;" d="M808 60L807 65L810 64L808 60M812 60L812 64L816 64L812 60M878 60L878 62L880 62L880 60L878 60M949 60L948 62L950 62L949 60M918 61L919 62L918 61M946 72L948 72L950 64C946.35 65.9205 945.482 67.9344 946 72M1064 65L1064 68L1065 68L1064 65M795 67L796 68L795 67M1062 71L1058 80C1061.66 79.2191 1062.91 74.3467 1062 71z"/>
<path style="fill:#040404; stroke:none;" d="M744 81L745 84L748 81L744 81z"/>
<path style="fill:#fdfdfd; stroke:none;" d="M748 94L749 95L748 94z"/>
<path style="fill:#040404; stroke:none;" d="M1108 98L1108 100L1110 100L1108 98z"/>
<path style="fill:#fdfdfd; stroke:none;" d="M725 106L724 108L726 108L725 106z"/>
<path style="fill:#040404; stroke:none;" d="M506.667 107.333L507.333 107.667L506.667 107.333z"/>
<path style="fill:#fdfdfd; stroke:none;" d="M733 109L736 112L733 109M1108 109L1107 113L1108 113L1108 109M1102 112L1095 124L1106 115L1102 112z"/>
<path style="fill:#040404; stroke:none;" d="M567 135L568 136L567 135z"/>
<path style="fill:#fdfdfd; stroke:none;" d="M1094.67 145.333L1095.33 145.667L1094.67 145.333M1098 145L1097 147L1097 148L1100 149L1100 145L1098 145M1092 147L1095 151L1092 147M1102 149L1106 152L1102 149z"/>
<path style="fill:#040404; stroke:none;" d="M1335 151L1336 152L1335 151z"/>
<path style="fill:#fdfdfd; stroke:none;" d="M499 153L500 154L499 153M1100.67 155.333L1101.33 155.667L1100.67 155.333M496 159L497 160L496 159M497 162L498 163L497 162M1093.67 163.333L1094.33 163.667L1093.67 163.333M553 169L554 170L553 169M488 175L490 177L490 175L488 175M1105 181L1106 182L1105 181M1126 181L1127 182L1126 181M767 187L768 188L767 187M1107 187L1108 188L1107 187z"/>
<path style="fill:#040404; stroke:none;" d="M482 190L483 191L482 190M416 199L417 200L416 199M383 203L384 204L383 203M478 203L479 204L478 203z"/>
<path style="fill:#fdfdfd; stroke:none;" d="M392 205L394 208L392 205M475 223L476 224L475 223M472 227L473 228L472 227z"/>
<path style="fill:#040404; stroke:none;" d="M338 229L339 230L338 229z"/>
<path style="fill:#fdfdfd; stroke:none;" d="M473 229C472.84 233.383 474.442 236.07 479 236L473 229z"/>
<path style="fill:#040404; stroke:none;" d="M336 231L337 232L336 231z"/>
<path style="fill:#fdfdfd; stroke:none;" d="M356 231L356 232L359 232L356 231z"/>
<path style="fill:#040404; stroke:none;" d="M455 231L456 232L455 231z"/>
<path style="fill:#fdfdfd; stroke:none;" d="M442 235L443 236L442 235M466 237L466 242L467 242L468 237L466 237M356 239L356 241L358 241L358 239L356 239M440 239L441 240L440 239M344 241L344 244L345 244L344 241z"/>
<path style="fill:#040404; stroke:none;" d="M1559 243L1560 244L1559 243M333 244L332 246L334 246L333 244z"/>
<path style="fill:#fdfdfd; stroke:none;" d="M460 245L461 246L460 245z"/>
<path style="fill:#040404; stroke:none;" d="M1588 260L1591 257L1588 260M342.667 267.333L343.333 267.667L342.667 267.333z"/>
<path style="fill:#fdfdfd; stroke:none;" d="M348.333 267.667L348.667 268.333L348.333 267.667z"/>
<path style="fill:#040404; stroke:none;" d="M1591 271L1591 272L1594 272L1591 271z"/>
<path style="fill:#fdfdfd; stroke:none;" d="M349 275L350 276L349 275z"/>
<path style="fill:#040404; stroke:none;" d="M1600 275L1601 276L1600 275z"/>
<path style="fill:#fdfdfd; stroke:none;" d="M340 302L340 304L342 304L340 302M1585 303L1586 304L1585 303z"/>
<path style="fill:#040404; stroke:none;" d="M327 315L326 317L327 315M1557 322L1556 324L1558 324L1557 322M314 325L315 327L316 327L317 325L314 325z"/>
<path style="fill:#fdfdfd; stroke:none;" d="M1507 344L1503 352L1511 352L1507 344M301 415L302 416L301 415M383.667 427.333L384.333 427.667L383.667 427.333M388 429L392 432L388 429M299.667 435.333L300.333 435.667L299.667 435.333M395 435L395 436L399 436L395 435M300 439L300 440L303 440L300 439M402 439L404 441L404 439L402 439M369 441L372 444L369 441M407 443L408 444L407 443M1558.67 475.333L1559.33 475.667L1558.67 475.333M328 487L328 489L330 487L328 487M328 491L329 492L328 491M1545 491L1546 492L1545 491M340 495L342 497L342 495L340 495M336.667 497.333L337.333 497.667L336.667 497.333M1554 501L1555 502L1554 501z"/>
<path style="fill:#040404; stroke:none;" d="M279 507L279 508L282 508L279 507z"/>
<path style="fill:#fdfdfd; stroke:none;" d="M316 515L317 516L316 515M298 538L303 541L302 538L298 538M1570 559L1570 560L1573 560L1570 559M314 561L315 562L314 561M1538 587L1538 588L1542 588L1538 587M341 597L340 600L344 600L341 597M348 603L349 604L348 603M316 623L316 624L319 624L316 623M319 645L320 650L321 650L319 645M306 658L305 661L308 662L309 661L308 658L306 658M298 671L299 672L298 671z"/>
<path style="fill:#040404; stroke:none;" d="M248.667 675.333L249.333 675.667L248.667 675.333M276 675L277 676L276 675z"/>
<path style="fill:#fdfdfd; stroke:none;" d="M296 680L297 681L296 680M1515 686L1513 687L1513 688L1515 686M1506 687L1507 688L1506 687M1497 693L1498 694L1497 693M1499 694L1508 696L1508 695L1499 694M244 713L244 717L245 717L244 713M304 715L305 716L304 715M254.667 719.333L255.333 719.667L254.667 719.333M1494 719L1495 720L1494 719M1481 721L1482 722L1481 721M332.667 731.333L333.333 731.667L332.667 731.333M1442 747L1445 749L1442 747M1489 747L1490 748L1489 747M255 749L258 752L255 749M1415 755L1416 756L1415 755M1454.67 755.333L1455.33 755.667L1454.67 755.333z"/>
<path style="fill:#040404; stroke:none;" d="M1500 755L1501 756L1500 755z"/>
<path style="fill:#fdfdfd; stroke:none;" d="M1416 757C1417.47 765.123 1424.99 774.734 1432 779L1416 757z"/>
<path style="fill:#040404; stroke:none;" d="M243 759L244 760L243 759z"/>
<path style="fill:#fdfdfd; stroke:none;" d="M1458 764L1459 765L1458 764z"/>
<path style="fill:#040404; stroke:none;" d="M1490 822L1490 824L1492 824L1490 822z"/>
<path style="fill:#fdfdfd; stroke:none;" d="M316 832L317 833L316 832M1462 851L1464 853L1462 851M340 859L341 860L340 859M1455 861L1453 864C1455.25 863.527 1456.12 863.14 1455 861z"/>
<path style="fill:#040404; stroke:none;" d="M293 871L291 874C293.251 873.527 294.118 873.14 293 871z"/>
<path style="fill:#fdfdfd; stroke:none;" d="M598 871L599 872L598 871M1444 871L1445 872L1444 871z"/>
<path style="fill:#040404; stroke:none;" d="M288 876L291 876L290 874L288 876z"/>
<path style="fill:#fdfdfd; stroke:none;" d="M591 875L592 876L591 875z"/>
<path style="fill:#040404; stroke:none;" d="M339 879L340 880L339 879z"/>
<path style="fill:#fdfdfd; stroke:none;" d="M300 881L298 884C300.251 883.527 301.118 883.14 300 881M348 887L349 888L348 887z"/>
<path style="fill:#040404; stroke:none;" d="M1422.67 893.333L1423.33 893.667L1422.67 893.333z"/>
<path style="fill:#fdfdfd; stroke:none;" d="M1398 903L1400 905L1398 903z"/>
<path style="fill:#040404; stroke:none;" d="M1404 903L1405 904L1404 903z"/>
<path style="fill:#fdfdfd; stroke:none;" d="M1288 906L1289 910L1290 910L1288 906M589 909L588 912L589 909z"/>
<path style="fill:#040404; stroke:none;" d="M595 911L596 912L595 911z"/>
<path style="fill:#fdfdfd; stroke:none;" d="M794 911L794 916L796 916L794 911M1185 911L1186 912L1185 911M385 913L384 919L385 919L387 913L385 913M791 913L788 926L797 926L791 913M384 920L384 924L385 924L384 920z"/>
<path style="fill:#040404; stroke:none;" d="M792 921L793 922L792 921z"/>
<path style="fill:#fdfdfd; stroke:none;" d="M759 936L758 936L762 927L761 926L757 927C754.83 931.028 755.307 952.133 762.069 952.133C766.324 952.133 768.811 945.861 770.924 943C776.929 934.87 784.83 933.72 782 923C775.107 923.909 762.525 929.905 759 936M381 928L380 930L382 930L381 928z"/>
<path style="fill:#040404; stroke:none;" d="M1382 933L1383 934L1382 933z"/>
<path style="fill:#fdfdfd; stroke:none;" d="M375 935L376 936L375 935M573 935L573 937L575 935L573 935z"/>
<path style="fill:#040404; stroke:none;" d="M1262.67 935.333L1263.33 935.667L1262.67 935.333z"/>
<path style="fill:#fdfdfd; stroke:none;" d="M369 940L372 937L369 940M373 937L374 938L373 937z"/>
<path style="fill:#040404; stroke:none;" d="M1270 939L1272 944L1273 944L1270 939z"/>
<path style="fill:#fdfdfd; stroke:none;" d="M1366 939L1367 940L1366 939M575 941L575 945L576 945L575 941M373 944L376 944L375 942L373 944M1290 943L1290 944L1294 944L1290 943M1216.33 946.667L1216.67 947.333L1216.33 946.667z"/>
<path style="fill:#040404; stroke:none;" d="M1325 946L1324 948L1326 948L1325 946z"/>
<path style="fill:#fdfdfd; stroke:none;" d="M380 947L381 948L380 947M391 947L392 948L391 947z"/>
<path style="fill:#040404; stroke:none;" d="M368 948L369 949L368 948z"/>
<path style="fill:#fdfdfd; stroke:none;" d="M1157.33 949.667L1157.67 950.333L1157.33 949.667M1168 949L1167 954L1168 949M1049 955L1049 956L1054 956L1049 955M1151 955L1151 956L1154 956L1151 955M1162.67 957.333L1163.33 957.667L1162.67 957.333M1227 957L1228 958L1227 957z"/>
<path style="fill:#040404; stroke:none;" d="M374 958L373 960L375 960L374 958z"/>
<path style="fill:#fdfdfd; stroke:none;" d="M1061.67 963.333L1062.33 963.667L1061.67 963.333M1132.67 963.333L1133.33 963.667L1132.67 963.333z"/>
<path style="fill:#040404; stroke:none;" d="M1264 968L1270 968L1270 966L1264 968z"/>
<path style="fill:#fdfdfd; stroke:none;" d="M691 966L689 970C691.668 969.253 692.594 968.419 691 966M675 969L676 970L675 969M1143 972L1147 969L1143 972M1178 971L1179 972L1178 971M1193 971L1193 977L1196 976L1193 971M981 977L984 982L984 977L981 977M1150 977L1149 980L1152 980L1150 977M1231 981L1234 984L1231 981M487 983L488 984L487 983M1221 983L1226 989L1224 983L1221 983M970 989L972 992L970 989z"/>
<path style="fill:#040404; stroke:none;" d="M1153 993L1153 996L1156 996L1156 993L1153 993z"/>
<path style="fill:#fdfdfd; stroke:none;" d="M934 997L934 1000L936 1000L936 997L934 997z"/>
<path style="fill:#040404; stroke:none;" d="M1234 1001L1235 1002L1234 1001M1232.67 1003.33L1233.33 1003.67L1232.67 1003.33z"/>
<path style="fill:#fdfdfd; stroke:none;" d="M927 1005L926 1008L927 1005z"/>
<path style="fill:#040404; stroke:none;" d="M1226.67 1007.33L1227.33 1007.67L1226.67 1007.33z"/>
<path style="fill:#fdfdfd; stroke:none;" d="M738.667 1013.33L739.333 1013.67L738.667 1013.33M961 1013L962 1014L961 1013M961 1015L962 1016L961 1015M1069 1015L1069 1016L1072 1016L1069 1015M732 1017L733 1018L732 1017M732 1019L733 1020L732 1019M899 1019L899 1020L903 1020L899 1019z"/>
<path style="fill:#040404; stroke:none;" d="M686 1024L689 1021L686 1024z"/>
<path style="fill:#fdfdfd; stroke:none;" d="M788 1027L782 1028C782.244 1033.61 785.907 1041.43 783.397 1046.81C778.55 1057.19 769.914 1040.8 769 1037L763 1041L761 1035L757 1039L753 1035C754.167 1041.07 751.938 1045.46 748 1050L748 1042C744.959 1046.01 745.014 1052.26 742.895 1057C738.617 1066.56 732.63 1068.4 734 1080L823 1080L824 1069L816 1072C819.779 1061.89 813.338 1053.72 812 1044C808.344 1043.45 807.255 1044.59 806 1048C811.399 1052.78 809.197 1060.55 808 1067L807 1067L805 1061L804 1061L804 1066C799.693 1063.9 801.371 1059.27 801 1055L800 1055L796 1060C800.198 1049.54 789.319 1041.16 800 1032L800 1031L788 1039L788 1027M880 1027L880 1028L884 1028L880 1027M1007 1027L1008 1030L1009 1030L1010 1027L1007 1027z"/>
<path style="fill:#040404; stroke:none;" d="M482 1030L483 1031L482 1030z"/>
<path style="fill:#fdfdfd; stroke:none;" d="M731 1031L730 1033L731 1031M1064 1031L1064 1032L1067 1032L1064 1031M718.667 1039.33L719.333 1039.67L718.667 1039.33M848 1039L848 1040L851 1040L848 1039z"/>
<path style="fill:#040404; stroke:none;" d="M790 1040L789 1044L792 1044L790 1040z"/>
<path style="fill:#fdfdfd; stroke:none;" d="M816 1041L816 1048C818.891 1045.81 818.172 1043.59 816 1041M860 1042C863.694 1050.51 862.524 1053.14 861 1062C865.578 1058.06 870.434 1039.56 860 1042M823 1043L824 1044L823 1043M1066 1056C1069.88 1053.24 1069.99 1049.38 1069 1045C1063.82 1046.72 1065.81 1051.51 1066 1056M834 1053L837 1056L834 1053M847 1056L850 1053L847 1056M1074 1055L1075 1056L1074 1055M819 1057L822 1064L821 1057L819 1057M1072 1057L1074 1060L1072 1057M844.333 1060.67L844.667 1061.33L844.333 1060.67M843 1064L843 1068L844 1068L843 1064z"/>
<path style="fill:#040404; stroke:none;" d="M808 1068L807 1072L808 1068z"/>
<path style="fill:#fdfdfd; stroke:none;" d="M829 1068L827 1080C832.797 1079.98 836.398 1079.07 838 1073C832.122 1074.02 831.401 1073.12 829 1068z"/>
<path style="fill:#040404; stroke:none;" d="M796 1069L798 1072L796 1069z"/>
<path style="fill:#fdfdfd; stroke:none;" d="M850 1069L850 1072L852 1072L852 1069L850 1069M841 1077L841 1080L845 1080L845 1077L841 1077M849 1079L850 1080L849 1079z"/>
</svg>
