<?xml version="1.0" standalone="yes"?>
<svg xmlns="http://www.w3.org/2000/svg" width="1920" height="1080">
<path style="fill:#fdfdfd; stroke:none;" d="M0 0L0 1080L714 1080C710.782 1067.96 713.565 1067.44 718.822 1057C721.66 1051.36 720.674 1047.36 727 1044L726 1037L713 1053L712 1053L710 1049L703 1057L702 1048C706.875 1047.08 709.836 1041.25 712 1037L699 1048L703 1035L699 1035C697.187 1042.26 695.647 1044.07 688 1044C687.91 1035.97 684.168 1032.2 677 1029L676 1033C662.173 1024.97 684.246 1013.68 688.946 1008.53C691.843 1005.36 693.566 1001.77 697.018 999.04C703.627 993.814 723.656 988.056 721.172 976.018C720.234 971.475 714.234 970.669 712 967C693.941 970.367 678.357 983.296 664.08 994.218C660.862 996.68 656.642 996.551 653.529 999.228C646.139 1005.58 644.682 1015.48 635 1020L644 1001L638 1004L672 952L663 933L662 936L661 936L643 920L641 911L640 911L639 916L638 916C636.036 907.8 632.232 899.29 627.917 892.028C626.109 888.987 622.627 888.069 622 892L621 892L620 888C612.031 887.867 615.822 880.231 611 876L610 882L600 882L600 881L602 879L595 877L596.5 893L594 898L594 911L593 911C591.312 918.091 596.651 929.429 588 932C588.883 928.696 588.957 926.92 586 925L586 933L583 931L580 954L579 954L568 938L566 938L562 944C569.026 948.539 571.395 958.18 572.981 966C573.822 970.145 573.824 976.766 568 975L558 969C556.455 977.703 555.949 987.928 560 996L559 997L555 997L547 983L543 986L546 985L545 992L534 992L527 975L525 975L522 978L519 974L516 982L514 982L514 973L513 973C511.76 978.245 510.985 985.26 506 988L503 984L497 990L498 987L495 992L494 992L491 974L490 974L489.257 984.892L481.713 999.004L487.657 1026L483 1039L476 1039L474 1041C470.848 1033.08 462.637 1026.64 455 1023L454 1026L451 1025L449 1032L446 1027L444 1029L443 1029C440.389 1026.37 438.81 1029.31 438 1032C432.096 1025.63 435.069 1006.49 426 1008L426 1002C421.595 1003.58 419.716 1004.21 417 1000L406 1010L406 1006L405 1006L402 1010C402.001 999.22 407.411 996.19 411 987L405 986L393 990L396 987L395 983C401.448 981.06 401.877 973.923 402 968L382 980L384 972L388 972L382 968L388 954C381.152 955.429 376.061 956.072 375 964L369 954L368 954L367 958L368 945L367 945C364.349 953.641 362.412 956.232 354 960L354 955L348 954L347 956L346 956L355 941L352 938L348 941C346.972 934.737 360.978 925.757 350 924L351 917L337 920C341.739 914.988 355.774 895.925 348 890C347.059 898.444 337.272 905.083 329 904C332.612 899.766 342.118 894.179 338 888L338 887L342 881L338 880L337 875L335 877L334 871L332 871C332.065 876.211 333.173 881.171 328 884L320 879L319 879L316 882L313 879L306 884C304.883 890.191 300.587 900.829 295 904L296 901L292 900L292 899L297 894L290 885L293 884L292 881L307 868L307 865L305 864L304 864L298 869L298 859C294.97 860.151 279.925 861.352 284.083 853.97C287.742 847.473 294.889 850.116 299.956 846.812C304.593 843.79 304.888 838.567 310 836L311 832L311 831L289 832L292 819L277 824C282.569 820 286.218 817.096 288 810L285 807L270 808L270 807L276 806L276.713 798.368L269.09 796.304L252 788L251 791L240 786C235.839 788.523 235.988 775.687 235 773L244 770L242 767L250 764L250 763C242.495 763.519 238.896 765.618 240 756C244.519 756.158 246.535 754.181 248 750L243 751L246 748L248 734L217 728C221.135 718.825 225.967 716.469 235 720C235.666 715.888 235.912 712.245 231 712C232.848 708.041 236.287 692.848 240.317 691.443C245.471 689.647 257.15 698.892 261 701.701C264.404 704.186 268.427 704.034 271.999 705.988C275.557 707.935 277.248 711.933 280.594 713.934C283.866 715.89 291.071 716.157 295 717C296.831 707.085 285.155 706.388 279.224 702.274C265.235 692.571 256.027 679.409 239 674L239 673L281 674.258L295 676C293.927 670.953 290.661 669.474 286 668C295.911 659.774 305.139 659.478 300 645L295 639L311 648L310 645L314 644L307 629L306 629L305 632L299 625L300 623L297 622L297 621L313 622L313 619L290 608L290 601L311 608L308 601L311 595L328 600C328.253 597.303 330.243 593.046 328.727 590.563C325.133 584.678 316.688 586.915 316 578L322 582L328 580L327 577C314.238 575.403 312.237 559.907 305.387 552.152C301.906 548.211 298.011 551.502 294.317 549.073C291.309 547.096 288.413 540.078 286 537L293 534L296 536L296 535C291.115 532.092 281.095 522.005 284 516L284 515C278.568 512.5 276.69 506.695 277 501C283.312 506.207 285.565 504.083 293 504L294 501L296 501C298.582 510.34 301.858 511.829 310 508L305 501L329 515C329.117 507.339 318.724 500.369 334 500L334 499L311 496L323 492L317 487L316 487L310 488C315.521 474.7 336.232 470.962 349 466C342.918 448.972 365.247 452.044 367 441L362 442L358 440L358 433L381 428L381 427C376.426 426.14 371.161 426.08 367 423.803C363.918 422.117 360.132 416.914 356.188 417.832C353.277 418.509 353.712 422.876 352.362 424.946C349.859 428.784 344.516 431.866 341 434.792C327.882 445.706 307.166 451.869 291 449L295 442L292 443C290.135 439.3 288.089 438.308 284 438L284 431L291 431L292 425L293 425L294 428L295 428L295 421L294 421L294 424L293 424L292 416C286.67 417.012 284.376 415.626 285 410L289 412L287 386C292.874 386.392 295.787 383.213 298 378C296.19 375.344 296.874 374.307 299 372L299 370L290 368L290 367C292.185 366.228 306.696 357.12 306.654 355.184C306.546 350.206 297.7 353.395 301 345L302 348L303 348L305 344L303 340L303 339L313 336L315 321L316 321L318 324L326 311C334.099 309.135 337.508 301.449 334 294C336.608 293.799 340.32 294.837 342.682 293.579C348.858 290.289 340.282 276.285 341 271C339.463 267.616 341.02 265.814 344 264L340 257L348 260C345.923 255.88 343.021 254.245 339 257L331 242C327.465 239.238 326.75 237.318 328 233L330 233L336 236L332 227L347 229L349 233L352 228L352 227L348 228L348 221L359 221L362 224L360 219L364 220C366.329 212.555 366.817 203.026 376 202L376 199L380 199L380 200L378 204L381 200L384 201L384 198L388 194L413 207L413 211L415 208L415 212L419 216L420 216L415 193L420 194L418 198L420 196L421 196C424.539 204.542 430.458 207.783 429 218L434 218L435 218L436 218C439.561 222.926 445.798 227.958 452 227C452.838 231.929 453.808 238.318 459 240L455 229L460 232L457 221L466 230C471.462 223.247 470.202 221.276 464 215L472 209L473 209L475 214L476 211L480 212L482 183L486 184L486 173C481.3 170.534 478.081 162.264 478 157L484 157L487 160C486.981 154.649 488.527 152.415 494 152L498 135L501 132L506 139L507 139L508 133L512 134L513 134L512 125L518 125L518 119L522 121L527 113L529 113L535 136L538 135L555 158L556 158L560 145L565 154L566 154L564 141L567 140L567 131C569.286 135.543 574.273 140.91 576 133L579 134L580 131L581 131L584 134L587 129L591 133L592 129L593 129C594.158 132.294 595.668 132.638 599 132C594.242 121.531 590.546 109.907 592 98L597 106L601 108L603 96L604 96L606 98C605.499 93.3615 602.799 89.5831 602.188 85C600.529 72.5394 604.472 56.5457 609.07 45C611.826 38.0811 616.958 34.6444 620.407 28.7516C624.686 21.4396 628.266 8.35522 629 0L0 0z"/>
<path style="fill:#040404; stroke:none;" d="M629 0C627.744 8.38904 624.539 20.6108 620.357 28.0402C617.062 33.8923 611.795 37.1595 609.07 44C601.452 63.1267 602.334 78.7672 606 98L604 96L603 96L601 108L600 105L597 106C596.769 101.819 596.044 99.5472 592 98C589.845 108.303 593.249 123.442 599 132L593 129L592 129L591 133L587 129L584 134L581 131L580 131L579 134L576 133C573.437 139.883 569.798 134.942 567 131L567 140L564 141L566 154L565 154L560 145L556 158L555 158L538 135L535 136L529 113L527 113L522 121L518 119L518 125L512 125L513 134L512 134L511 132L508 133L507 139L506 139L501 132L498 135L494 152C488.028 152.195 486.446 154.12 487 160L484 157L478 157C477.793 162.199 480.75 171.342 486 173L486 184L482 183L480 212L476 211L475 214L473 209L472 209L472 212L464 215C469.154 222.355 470.138 222.425 466 230L457 221L460 232L455 229L459 240C454.235 237.435 453.328 231.968 452 227C445.753 227.321 440.452 222.077 436 218L435 218L434 218L434 220L429 218C431.141 208.156 425.587 203.781 421 196L420 196L418 198L420 194L415 193L420 216L419 216L415 212L415 208L413 211L413 207L388 194L384 198L384 201L381 200L378 204L380 200L380 199L376 199L376 202C366.7 202.511 365.599 212.214 364 220L360 219L362 224L359 221L348 221L348 228L352 227L352 228L349 233L347 229L332 227L336 236L330 233L328 233C326.054 237.333 326.692 239.82 331 242L339 257C343.147 254.87 345.336 256.512 348 260L340 257L344 264C340.916 265.227 338.17 268.093 341 271C339.637 276.592 348.864 290.275 342.022 293.473C339.788 294.517 336.462 293.486 334 294C336.582 301.822 333.919 308.085 326 311L318 324L316 321L315 321L313 336L303 339L303 340L305 344L303 348L302 348L301 345C296.187 353.07 305.08 350.101 306.218 354.977C306.462 356.023 291.868 365.905 290 367L290 368L299 370L299 372C296.482 373.812 295.435 375.753 298 378C295.196 382.475 292.57 385.924 287 386L289 412L285 410C283.753 416.04 286.319 417.893 292 416L293 424L294 424L294 421L295 421L295 428L294 428L293 425L292 425L291 431L284 431L284 438L292 443L295 442L291 449C311.277 454.783 334.489 440.999 349.941 428.29C352.744 425.985 352.928 419.839 355.488 418.546C358.757 416.895 362.655 421.67 365 423.266C369.613 426.406 375.596 426.621 381 427L381 428C372.465 428.005 365.24 428.016 358 433L358 440L362 442L367 441L366 444C356.413 444.676 344.478 456.166 349 466C337.174 469.236 313.283 475.238 310 488L316 487L317 487L323 492C318.35 492.109 313.641 491.67 311 496L334 499L334 500C318.994 500.136 327.045 506.582 329 515C322.002 510.883 313.24 499.312 305 501L310 508C301.748 510.377 299.524 509.878 296 501L294 501L293 504L277 501C276.131 506.645 278.007 513.308 284 515L284 516C279.074 520.79 291.385 533.159 296 535L296 536L293 534L286 537C287.611 539.993 291.49 548.152 294.317 549.728C297.835 551.688 301.277 548.847 304.62 552.188C312.141 559.704 313.401 576.397 327 577L328 580L322 582L316 578C316.307 587.232 323.915 584.744 328.069 590.563C329.777 592.955 327.765 597.235 328 600L311 595L308 601L311 608C304.237 603.655 298.085 601.212 290 601L290 608L313 619L313 622L297 621L297 622L300 623L299 625L305 632L306 629L307 629C306.412 635.174 309.896 639.641 314 644L310 645L311 648C305.863 643.561 302.383 638.555 295 639C295.43 642.741 296.186 644.339 300 645L302.212 653.996L286 668C290.325 669.904 293.358 671.368 295 676L239 673L239 674C247.365 677.554 255.756 681.73 262.907 687.68C268.299 692.167 273.35 699.365 279.184 702.927C285.404 706.724 295.347 707.471 295 717L281.375 713.803L273.985 706.589L254 696.29L239.6 691.136L231 712C235.471 712.602 235.279 716.148 235 720C226.598 715.378 219.647 718.524 217 728L248 734L243 751L248 750C246.124 753.511 244.157 755.874 240 756C238.208 765.836 242.414 764.059 250 763L250 764L242 767L244 770L235 773C235.549 775.26 235.764 790.472 240 786L251 791L252 788C261.278 794.228 276.615 794.127 276 806L270 807L270 808L285 807L288 810L277 824L292 819L289 832L311 831L311 832L310 836C304.604 837.907 304.363 842.919 299.952 846.048C294.876 849.649 287.771 847.231 283.963 853.454C279.124 861.364 294.191 861.082 298 859L298 869L304 864L305 864L307 865L307 868L292 881L293 884L290 885L297 894L292 899L292 900L295 904C301.027 901.941 305.384 889.986 306 884L316 882L319 879L320 879L328 884C333.72 882.108 332.172 875.97 332 871L334 871L335 877L337 875L338 880L342 881L338 887L338 888C340.271 895.169 332.331 898.5 329 904C337.647 905.85 347.516 898.844 348 890C354.715 897.829 341.398 913.467 337 920L351 917L350 924C359.395 926.818 346.249 934.403 348 941L352 938L355 941C351.175 945.675 345.433 949.451 346 956L348 954L354 955L354 960C363.056 957.092 364.853 953.889 367 945L368 945L367 958L368 954L369 954L375 964C376.737 956.706 381.597 955.999 388 954L382 968L388 972L384 972L382 980C389.678 979.415 395.922 972.247 402 968C401.736 974.049 400.802 980.1 395 983L396 987L393 990C397.571 989.962 402.37 990.173 405 986L411 987C405.796 995.939 402 999.101 402 1010L405 1006L406 1006L406 1010L417 1000C419.15 1005.05 421.589 1004.38 426 1002L426 1008C436.423 1007.67 429.452 1026.39 438 1032C439.31 1029.42 440.151 1027.91 443 1029L444 1029L446 1027L449 1032L451 1025L454 1026L455 1023C462.327 1028.11 469.605 1033.13 474 1041L476 1039L483 1039C491.228 1023.63 481.263 1014.45 481.875 998.576C482.16 991.195 486.714 991.354 489.258 985.776C490.812 982.369 489.808 977.657 490 974L491 974L494 992L495 992L498 987L497 990L503 984L506 988C511.324 986.239 512.447 978.104 513 973L514 973L514 982L516 982L519 974L522 978L525 975L527 975L534 992L545 992L546 985L543 986L547 983L555 997L559 997L560 996C556.536 986.707 557.465 978.685 558 969L568 975C572.931 977.844 574.081 972.076 573.546 968C572.513 960.119 569.9 947.475 562 944L566 938L568 938L579 954L580 954L583 931L586 933L586 925L588 932C597.125 930.51 591.717 917.914 593 911L594 911L594 914L594.637 901.015L596.502 891.961L595 877L602 879L600 881L600 882L610 882L611 876C614.888 880.67 612.315 889.006 620 888L621 892L622 892L622 889C631.051 892.643 634.847 907.417 638 916L639 916L640 911L641 911L643 920L661 936L662 936L663 933L672 952C661.785 968.997 642.84 983.395 638 1004L644 1001L635 1020C645.758 1016.98 646.624 1005.49 654.314 999.239C657.498 996.651 661.683 996.789 664.921 994.232C678.967 983.134 694.388 971.255 712 967C713.42 971.858 722.955 972.518 720.421 979C716.05 990.182 706.731 991.367 698 997.532C693.091 1001 690.974 1006.2 686.583 1010.11C682.509 1013.73 677.095 1016.05 673.222 1019.74C669.876 1022.93 671.717 1031.87 676 1033L677 1029C683.241 1033.04 687.764 1036.04 688 1044C696.091 1044.32 697.487 1042.99 699 1035L703 1035L699 1048L712 1037L702 1048L703 1057L710 1049L712 1053L713 1053L726 1037L727 1044C720.275 1046.34 721.558 1050.57 718.822 1056C715.765 1062.07 705.14 1072.09 714.652 1078.97C719.421 1082.42 732.241 1080 738 1080L744 1061C751.529 1061.65 751.499 1048.73 754.492 1043.14C755.823 1040.66 758.418 1039.31 760 1037L761 1037C761.113 1041.68 761.817 1045.43 766 1048L769 1039C766.651 1049.38 774.318 1046.19 779.566 1051.43C782.412 1054.28 781.794 1058.77 784 1062C787.186 1055.38 786.046 1045.92 784 1039L794 1054L793 1049C798.151 1054.43 797.34 1066.05 791 1070L791 1072L792 1073L800 1073L804 1076L805 1065L806 1065C806 1070.05 804.264 1077.98 810 1080L813 1052L814 1052L815 1076L819 1076L820 1072L821 1072L822 1080C825.864 1079.7 827.348 1078.91 828 1075L833 1080L844 1077C844.827 1080.86 852.529 1081.44 855.694 1079.28C862.558 1074.59 855.778 1064.79 868 1065L865 1076L874 1064L875 1047L880 1048L880 1038L882 1038L883 1039L882 1052L892.231 1033.38L898 1025C899.423 1027.02 901.666 1031.46 904 1029L905 1029L900 1036L910 1035L905 1054C917.917 1049.39 913.688 1040.44 914.401 1030C914.689 1025.78 917.518 1020.04 919 1016C920.049 1023.31 928.65 1026.7 925 1019L930 1017L931 1027C944.055 1034.42 940 1043.09 940 1056C953.864 1046.25 942.93 1024.97 941 1013L942 1013L951 1022L951 1017L952 1017L952 1022L955 1021L955 1013L961 1035L962 1035L968.551 1024.09L966 1014L970 1016L971 1007L972 1007L973 1010C977.884 1007.04 978.848 1002.41 978 997L980 999L981 999C986.457 994.656 985.653 991.387 984 985C990.165 988.772 989.011 1004.99 991 1012C1002.02 1008.8 1000.33 1025.5 1004 1032C992.822 1037.76 999.349 1046.32 999 1056L1007 1065C1010.66 1061.12 1014.79 1061.1 1013 1055L1021 1050L1025 1052L1024 1031L1025 1031C1025.12 1041.3 1033.46 1037.48 1037.91 1045.01C1042.63 1052.99 1042.72 1063.46 1046 1072L1042 1073L1043 1078L1045 1078C1048.12 1070.97 1050.64 1061.9 1048.25 1054.17C1045.62 1045.66 1037.07 1037.96 1035.15 1029.07C1034.45 1025.81 1037.83 1025.93 1040 1026L1043 1019C1043.28 1032.06 1049.51 1040.81 1055.23 1051.96C1056.61 1054.65 1056.15 1059.43 1058.41 1061.38C1061.92 1064.41 1065.82 1059.54 1069 1063L1065 1068C1070.81 1068.89 1073.64 1066.72 1075 1061C1079.31 1064.9 1083.7 1069.15 1084 1060C1094.75 1062.9 1092.03 1065.7 1092 1076L1099 1068L1106 1072C1105.11 1055.9 1081.8 1050.6 1080 1033L1079 1033L1072 1037C1075.24 1032.28 1076.79 1028.31 1074 1023C1083.73 1018.49 1087.96 1008.69 1096.09 1002.51C1103.25 997.071 1111.33 996.469 1115 987L1117 987C1119.31 994.099 1121 1007.47 1128 1011C1127.86 1006.71 1129.52 1005.3 1133 1003C1130.8 994.859 1128 987.51 1128 979C1128 968.559 1132.66 967.727 1135 978C1143.53 979.021 1147.48 984.301 1152 991L1158 989L1157 1001L1160 1000L1161 1006C1175.22 996.791 1152.58 978.454 1163 972C1162.47 976.585 1162.01 980.335 1167 982L1165 980L1165 979L1170 973L1171 973C1172.85 978.167 1178.24 977.758 1183 978L1188 973L1196 1000L1210 1004C1208.43 997.013 1209.12 992.664 1212 986L1213 986C1218.14 995.26 1227.43 1009.5 1228 1020L1232 1020L1234 1011L1236 1014L1235 1007L1239 998L1246 1003C1247.82 998.374 1246.7 995.036 1244 991C1248.89 989.035 1248.41 983.707 1249 979L1246 980L1247 984L1242 973L1228 968L1228 967L1246 969L1244 973L1244 974L1248 973L1248 978L1249 978L1255 970L1254 967L1260 967L1260 968L1256 968L1254 971L1254 972C1260.09 971.839 1266.7 967.728 1268 976L1270 976C1269.93 973.434 1270.96 968.83 1269.63 966.6C1268.41 964.565 1264.98 964.602 1263.14 963.258C1258.17 959.616 1254.64 950.161 1262 948L1262 947L1257 936L1257 935C1268.19 937.27 1272.53 949.793 1272 960L1276 960L1273 938L1277 939C1275.25 945.448 1275.93 957.512 1285 956C1285.08 951.328 1286.94 949.162 1291 947L1292 948C1290.24 953.895 1293.35 959.657 1300 959L1299 964L1304 969L1305 969C1306.88 962.639 1306.14 953.663 1300 950L1296.31 933L1294 917C1307.64 923.957 1311.88 933.072 1318 946L1320 946C1322.32 943.013 1323.76 941.581 1327 944C1323.29 945.419 1322.26 947.09 1323 951L1333 949C1334.95 954.913 1338.92 951.403 1340 947L1344 952L1346 952L1349 948L1356 956C1356.25 945.507 1365.51 944.197 1373 950L1374 950L1380 949L1382 944L1380 937L1392 947L1391 935L1392 935C1392.98 939.835 1395.46 942.224 1400 944L1395 918L1396 918L1399 924L1399 911L1402 913C1408.16 902.94 1408.02 901.836 1419 904L1423 898L1424 902L1430 897C1431.38 901.547 1434.59 902.32 1437 898C1432.57 894.982 1430.97 892.382 1432 887L1446 884L1449 873C1457.77 873.717 1461.65 866.801 1461 859L1472 858L1474 846L1479 848L1479 843L1482 844C1487.83 836.365 1501.55 820.256 1489 812L1489 807L1502 806L1499 800L1501 791L1500 791L1499 793C1492.69 783.678 1470.87 783.246 1461 786.424C1454.5 788.519 1449.41 787.839 1450 796L1434 779L1451 780L1447 769L1464 768C1462.8 763.423 1460.55 761.241 1456 760C1461.99 754.014 1478.84 759 1488 759C1493.9 759 1500.23 760.872 1501 757L1504 758L1498 747L1502 748L1494 737L1502 736C1499.32 733.468 1493.1 730.641 1494.42 726.091C1495.81 721.295 1502.42 723.732 1506 723.225C1515.9 721.821 1525.76 717.44 1535 714L1534 709L1530 710L1528 703L1515 700C1517.94 694.637 1522.66 695.318 1521 688C1527.1 682.339 1510.64 678.328 1507 678L1508 673L1512 669L1515 670L1516 667L1522 669L1523 666C1537 673.463 1543.37 677.512 1551 692C1557.72 692.546 1565.37 699.25 1570 704L1575 704L1576 698L1581 699L1583 685C1590.1 683.478 1583.07 669.048 1580.94 665C1574.35 652.447 1572.48 638.587 1563.14 627.083C1557.9 620.631 1547.73 618.472 1549 609L1553 610C1550.09 603.875 1543.78 598.887 1537 598L1544 593C1543.89 589.797 1545.32 582 1549 582L1543 574L1546 572L1544 567L1563 566.313L1578 571C1576.65 566.303 1579.34 557.569 1574 556C1576.86 552.353 1582.58 547.616 1577 544L1575 532L1575.92 527.528L1568.3 523.401L1558 512C1557.49 504.568 1559.32 495.837 1551 494C1554.25 482.844 1565.15 482.667 1573 477C1576.79 482.979 1583.08 482.51 1589 480L1589 479L1581 475L1603 468L1601 463L1605 462L1605 451C1596.39 450.111 1607.41 440.015 1608 437L1602 433L1609 430L1611 421C1600.71 417.034 1575.62 412.268 1579 397C1571.98 390.823 1579.28 374.447 1571 373L1569 355L1563 356L1565 343C1558.64 345.124 1553.14 339.443 1557.74 333.319C1560.45 329.72 1565.91 329.062 1570 328L1569 322L1578 320L1578 315L1583 316L1584 311L1589 312L1600.73 304.034L1611 288L1614 290L1615 290L1617 286L1603 284L1608 279L1611 269L1604 270L1604 268L1598 267L1600 264L1594 255L1595 262L1592 255C1579.88 257.021 1574.93 258.633 1581 246C1559.74 241.615 1543.07 241.423 1522 247.561C1516.11 249.276 1511.23 248.352 1506 252L1507 248L1507 247L1500 244L1500 248L1498 248L1498 243C1488.45 247.379 1474.16 240.283 1466 250L1458 244L1462 234L1448 238L1450 228C1440.95 228.006 1435.3 230.774 1428 236C1429.14 226.713 1420.1 224.551 1412 228C1412 221.774 1406.45 225.713 1403 226C1397.42 226.465 1384.16 229.79 1381 229L1379 234C1375.88 229.401 1377.89 221.949 1372 220L1391 194C1397.07 193.018 1399.94 184.444 1399 179C1403.43 176.249 1413.84 163.927 1415.24 158.83C1417.63 150.14 1413.7 140.985 1417.8 132C1423.2 120.182 1436.16 109.787 1433 95C1425.5 92.9478 1420.81 88.5448 1412 90.6273C1405.99 92.0484 1400.36 99.9393 1396 103.942C1388.94 110.422 1381.43 114.011 1375.38 122C1371.01 127.755 1370 134.609 1365 140L1362 136L1358 152L1342 146L1337 152L1336 149L1335 149L1330 154C1329.73 148.721 1326.69 144.211 1326.47 139C1326.34 135.794 1328.79 131.498 1327.36 128.473C1325.84 125.275 1321.56 127.154 1320 129L1315 132L1310 132C1308.68 125.87 1302.62 132.517 1302 136L1297 135L1296 138L1292 136C1290.31 140.012 1290.58 145.114 1288.14 148.714C1282.59 156.924 1269.69 158.64 1261 162L1262 157C1252.71 155.535 1255.59 145.909 1253 139L1251 139L1248 146L1238.87 132.407L1228 130L1227 130C1221.83 136.824 1218.92 136.798 1211 135L1210 139L1208 139L1203 134L1203 138L1198 137L1199 154L1195 152C1196.42 159.377 1194.55 167.811 1186 167L1185 171L1168.3 174.218L1161.95 179.169L1154 175L1151 180L1150 165L1148 165L1131 186C1132.34 179.57 1129.06 176.844 1123 176L1127 163C1116.35 167.247 1118.34 183.522 1110 186L1116 163C1112.06 165.271 1110.07 169.518 1110 174L1103 174L1114.01 158L1113.74 148L1116 132L1115 132C1112.77 135.574 1111.23 136.697 1107 136L1111 128C1114.15 125.446 1113.66 122.391 1112 119L1131 108C1130.55 101.99 1135.43 89.4654 1128 87L1119 104L1118 104L1117 101L1110 102L1110 101C1114.75 98.2646 1107.23 86.3603 1117 85L1113 80C1116.24 73.2745 1119.07 58.2201 1117 51L1115 53L1111 53L1110 47L1104 52L1104 37L1103 37L1101 39L1100 48L1096 48L1097 42L1092 44C1095.13 33.3048 1094.74 29.8574 1083 36L1082 33L1080 33L1079 36L1083 36L1072 49L1071 49L1070 30L1067 33L1065 33L1064 29L1056 34L1053 9L1051 9L1046 30L1045 30C1044.46 25.4591 1046.3 18.5504 1041 17L1037 37L1036 37L1034 16C1039.01 14.9271 1035 4.50854 1035 0C1024.56 3.20276 1025.82 17.2233 1017 20C1022.8 12.7681 1021.01 8.15063 1019 0L1013 0L1011 8L1007 7L1008 0L1005 0L1001.81 30.9954L991 49L990 49L998 19L996 19C995.049 26.3574 990.881 39.5317 984 43L979 37L973 44C963.558 38.9052 958.492 53.6372 956 60L954 60L953 55C945.346 58.0054 944.177 51.1315 942 45L935 51L931 49L930 52L927 51L924 61L925 55L908 46L907 46L906 52L897 42L897 41L899 39L890 37L890 40L889 40L882 35L886 52C880.359 48.3748 877.401 45.673 876 39L869 44C863.093 31.267 856.269 38.1218 846 35L843 42L838 38C839.148 43.5864 839.573 46.3129 836 51L835 51C831.011 45.7317 825.273 37.3983 818 39L824 53L810 37C810.899 46.0446 810.098 49.5698 803 56L803 51C797.49 54.1407 779.302 55.0381 776 49C772.462 50.2432 772.197 52.431 772 56L771 56L769 50L768 50L767 56C761.151 57.2084 759.021 64.1445 753 61L746 65L744 58L742 58L748 76L744 78L743 78L740 75L745 89L739 85L741 87L740 92C733.372 88.3509 722.848 77.7737 715 79L715 80L718 81L713 94L718 98L717 102L715 102L714 97L703 100L699 92C694.392 92.076 693.311 90.5074 693 86L689 88C691.312 81.6434 690.876 76.9653 683 78L684 60L683 60L683 62L682 62L681 54L680 54L679 57C675.563 43.3661 684.765 30.9409 685.917 18C686.179 15.0559 683.943 11.6073 683 16L682 16L680 0L629 0z"/>
<path style="fill:#fdfdfd; stroke:none;" d="M680 0L682 16L683 16L683 13C687.932 17.8905 683.409 24.4108 681.438 30C678.98 36.9728 677.055 49.9235 679 57L680 54L681 54L682 62L683 62L683 60L684 60L683 78C690.534 77.8865 690.642 81.7103 689 88L693 86C693.156 90.6761 694.134 92.3736 699 92L703 100L714 97L715 102L717 102L718 98L713 94L718 81L715 80L715 79L740 92L741 87L739 85L745 89L740 75L743 78L744 78L748 76L742 58L744 58L746 65L753 61C758.214 65.939 761.805 57.8077 767 56L768 50L769 50L771 56L772 56L776 49C777.978 55.4336 797.913 54.8772 803 51L803 56C811.185 51.0198 811.432 45.4591 810 37L824 53L818 39C825.226 38.3947 830.175 46.4232 835 51L836 51C840.391 46.7576 839.555 43.5344 838 38L843 42L846 35L860 35.0555L869 44L876 39C876.921 45.7976 879.685 49.2296 886 52L882 35L890 40L890 37L899 39L897 41L897 42L906 52L907 46L908 46C911.626 52.1176 918.596 53.1963 925 55L924 61C927.598 58.6675 926.997 54.9873 927 51L930 52L931 49L935 51L942 45C943.447 51.4054 945.427 58.966 953 55L954 60L956 60C959.738 53.2396 962.71 41.0889 973 44L979 37L984 43C991.287 40.7896 995.439 26.0496 996 19L998 19L990 49L991 49C1001.25 33.3109 1004.95 19.1406 1005 0L680 0M1008 0L1007 7L1011 8L1013 0L1008 0M1019 0C1020.18 8.7843 1021.8 11.892 1017 20C1022.06 19.125 1029.79 4.90894 1032 0L1024 0L1024 4L1023 4L1023 0L1019 0z"/>
<path style="fill:#040404; stroke:none;" d="M1023 0L1023 4L1024 4L1023 0z"/>
<path style="fill:#fdfdfd; stroke:none;" d="M1035 0C1035 4.68115 1038.01 13.2898 1034 16L1036 37L1037 37L1041 17L1045 30L1046 30L1051 9L1053 9L1056 34L1064 29L1065 33L1067 33L1070 30L1071 49L1072 49L1083 36L1079 36L1080 33L1082 33L1083 36C1094.6 31.7869 1094.35 32.8016 1092 44L1097 42L1096 48L1100 48L1101 39L1103 37L1104 37L1104 52L1110 47L1111 53L1115 53L1115 51L1117 51C1118.75 59.0566 1115.81 72.2828 1113 80L1117 85C1107.84 86.7371 1113.4 96.042 1110 101L1110 102L1117 101L1118 104L1119 104L1128 87C1135.2 90.9713 1129.9 101.232 1131 108L1112 119C1113.24 122.623 1113.45 124.953 1111 128L1107 136C1111.36 137.16 1113.25 136.128 1115 132L1116 132L1113.4 148L1113.34 158L1103 174L1110 174L1116 163L1110 186C1116.64 184.938 1114.02 180.779 1116.1 175.911C1118.34 170.672 1122.14 165.894 1127 163L1123 176C1128.82 177.282 1131.54 179.809 1131 186L1141.98 170.429L1148 165L1150 165L1151 180L1154 175C1164.24 182.717 1172.81 172.646 1185 171L1186 167C1194.72 168.531 1197.04 159.44 1195 152L1199 154L1198 137L1203 138L1203 134L1208 139L1210 139L1211 135C1218.47 137.856 1222.91 137.412 1227 130L1228 130L1238.23 132.488L1248 146L1251 139L1253 139C1255.02 146.188 1252.35 156.256 1262 157L1261 162C1264.77 161.105 1267.39 158.368 1271 157.312C1278.21 155.201 1284.09 156.988 1288.68 148.714C1290.69 145.101 1290.74 139.982 1292 136L1296 138L1297 135L1302 136C1303.44 132.83 1307 128.202 1310 132L1315 132L1320 129L1326.64 127.913L1326.26 138L1330 154L1335 149L1336 149L1337 152L1342 146L1358 152L1362 136L1365 140L1374.63 124L1398 102.982L1412.04 91.1011L1433 95C1434.62 110.691 1422.63 119.096 1417.35 132C1413.78 140.741 1416.95 149.337 1414.99 157.911C1413.68 163.614 1403.35 174.922 1399 179C1399.82 183.931 1395.19 195.048 1391 194L1372 220L1379 234L1381 229C1388.37 228.851 1407.47 220.563 1412 228C1420.21 226.082 1428.62 226.736 1428 236C1435.84 232.103 1440.88 228.026 1450 228L1448 238L1462 234L1458 244L1466 250L1498 243L1498 248L1500 248L1500 244L1507 247L1507 248L1506 252C1529.83 240.357 1555.76 242.604 1581 246C1572.11 258.554 1580.8 257.958 1592 255L1595 262L1594 255L1600 264L1598 267L1604 268L1604 270L1611 269L1608 279L1603 284L1617 286L1615 290L1614 290L1611 288L1600.73 303.363L1589 312L1584 311L1583 316L1578 315L1578 320L1569 322L1570 328C1565.62 328.655 1559.7 329.083 1557.18 333.306C1553.36 339.706 1558.3 346.276 1565 343L1563 356L1569 355L1571 373C1580.14 375.736 1569.57 391.507 1579 397C1573.92 411.395 1600.59 418.625 1611 421L1609 430L1602 433L1608 437C1606.54 440.043 1596.4 450.029 1605 451L1605 462L1601 463L1603 468L1581 475L1589 479L1589 480C1582.4 482.057 1578 482.371 1573 477C1564.88 481.475 1552.87 482.81 1551 494C1558.5 496.38 1557.03 504.874 1558 512L1567.48 523.401L1575.27 527.528L1575 532L1577 544C1581.45 548.507 1576.4 551.634 1574 556L1578 571L1564 566.313L1544 567L1546 572L1543 574L1549 582C1544.66 582.847 1544.09 588.99 1544 593C1540.19 593.167 1538.67 594.614 1537 598C1543.71 599.542 1549.06 604.505 1553 610L1549 609C1547.26 618.354 1557.06 621.01 1562.32 627.17C1571.71 638.17 1572.49 651.222 1579.19 663C1582.12 668.141 1589.7 680.642 1583 685L1581 699L1576 698L1575 704L1570 704C1566.66 698.855 1557.23 691.364 1551 692C1545.7 677.442 1536.93 671.404 1523 666L1522 669L1516 667L1515 670L1512 669L1508 673L1507 678C1511.56 678.708 1524.56 681.587 1521 688L1515 700L1528 703L1530 710L1534 709L1535 714C1525.46 716.603 1516.79 721.185 1507 722.862C1503.34 723.489 1497.18 720.849 1494.67 724.369C1490.87 729.694 1498.44 733.623 1502 736L1494 737L1502 748L1498 747L1504 758L1501 757C1490.3 766.653 1466 749.906 1456 760L1464 768L1447 769L1451 780L1434 779C1437.56 784.997 1443.57 793.103 1450 796C1449.47 779.935 1479.62 786.214 1489 787.977C1491.75 788.495 1498.62 792.235 1500 791L1501 791L1499 800L1502 806L1489 807L1489 812C1500.5 822.893 1487.01 834.269 1482 844L1479 843L1479 848L1474 846L1472 858L1461 859C1461.27 866.381 1457.35 873.286 1449 873L1446 884L1432 887C1430.53 892.343 1432 895.641 1437 898C1434.06 901.237 1432.01 900.855 1430 897L1424 902L1423 898L1419 904C1408.61 900.621 1406.49 902.583 1402 913L1399 911L1399 924L1396 918L1395 918L1400 944L1392 935L1391 935L1392 947L1380 937L1382 944L1380 949L1374 950L1373 950C1365.92 942.416 1356.09 946.025 1356 956L1349 948L1347 949L1346 952L1344 952L1340 947C1338.38 951.021 1335.68 953.752 1333 949L1323 951C1322.86 947.291 1323.82 945.872 1327 944L1326 941L1320 946L1318 946C1313.77 933.575 1307.71 921.274 1294 917L1295.85 933L1300 950C1305.48 954.936 1306.65 961.992 1305 969L1304 969L1299 964L1300 959C1293.73 958.401 1290.72 953.975 1292 948L1291 947C1286.36 948.617 1284.37 951.031 1285 956C1276.06 956.287 1275.98 945.637 1277 939L1273 938L1276 960L1272 960C1273.7 949.962 1268.15 936.251 1257 935L1257 936L1262 947L1262 948C1253.89 949.295 1257.43 959.338 1262.3 963.258C1264.31 964.869 1268.2 964.595 1269.45 967.032C1270.54 969.155 1269.75 973.555 1270 976L1268 976C1267.29 966.636 1260.37 971.545 1254 972L1254 971L1256 968L1260 968L1260 967L1254 967L1255 970L1249 978L1248 978L1248 973L1244 974L1244 973L1246 969L1228 967L1228 968C1232.72 971.271 1235.99 974.123 1242 973L1247 984L1249 979C1248.1 983.82 1248.49 988.245 1244 991L1246 1003L1239 998L1235 1007L1236 1014L1234 1011L1232 1020L1228 1020C1227.76 1010.15 1219.01 993.883 1213 986L1212 986C1208.45 992.377 1207.41 997.214 1210 1004C1205.04 1000.62 1202.12 998.409 1196 1000C1198.19 991.224 1190.56 981.257 1188 973L1183 978C1178.23 977.266 1173.69 977.496 1171 973L1170 973L1165 979L1165 980L1167 982C1162.77 979.631 1162.78 976.531 1163 972C1154.36 975.476 1163 983.959 1164.99 989.015C1166.91 993.884 1164.58 1002.49 1161 1006L1160 1000L1157 1001L1158 989L1152 991C1148.75 984.136 1143.28 977.429 1135 978C1134.77 976.076 1131.99 963.806 1128.6 970.337C1124.14 978.94 1129.72 994.937 1133 1003C1128.92 1004.86 1127.24 1006.41 1128 1011C1121.12 1005.72 1120.39 994.656 1117 987L1115 987L1095.17 1002.51L1074 1023C1076.3 1028.7 1074.51 1031.81 1072 1037C1075.66 1037.13 1077.13 1036.12 1079 1033L1080 1033C1080.95 1051.37 1104.18 1055.79 1106 1072L1099 1068L1092 1076C1092.08 1066.1 1095.92 1061.58 1084 1060C1083.32 1068.78 1079.29 1063.61 1075 1061C1073.02 1066.1 1070.54 1068.28 1065 1068L1069 1063L1068 1060C1065.38 1060.93 1061.96 1062.94 1059.24 1061.36C1056.36 1059.68 1056.72 1053.86 1055.25 1051C1049.7 1040.2 1043.58 1031.61 1043 1019L1040 1026C1038.04 1025.68 1034.26 1024.97 1034.2 1028.15C1034.07 1035.84 1044.9 1046.96 1047.71 1054.17C1050.82 1062.15 1047.31 1070.49 1045 1078L1043 1078L1042 1073L1046 1072C1044.02 1063.61 1042.46 1051.58 1037.91 1044.02C1033.67 1036.98 1025.32 1040.9 1025 1031L1024 1031C1021.57 1038.77 1022.17 1044.4 1025 1052L1021 1050L1013 1055C1014.29 1061.4 1010.11 1060.4 1007 1065C1004.96 1060.66 1004.04 1057.09 999 1056C999.841 1045.57 994.085 1039.58 1004 1032C1001.24 1025.4 1001.64 1007.21 991 1012C989.826 1006.15 989.522 986.615 984 985C985.269 991.55 985.557 993.992 981 999L980 999L978 997C978.345 1002.51 977.175 1006.29 973 1010L972 1007L971 1007L970 1016L966 1014L968.132 1025.03L962 1035L961 1035L955 1013L952 1022L952 1017L951 1017L951 1022L942 1013L941 1013C940.348 1027.62 953.376 1041.78 940 1056C940 1043.54 945.538 1032.89 931 1027L930 1017L925 1019C927.419 1027.6 920.381 1020.64 919 1016C910.615 1029.12 921.166 1045.79 905 1054L910 1035L900 1036L905 1029L904 1029L903 1031L898 1025L882 1052L883 1039L882 1038L880 1038L880 1048L875 1047L874 1064L865 1076L868 1065C858.453 1064.09 858.364 1072.98 856 1080L1920 1080L1920 0L1035 0M1033 10L1033 12L1035 12L1035 10L1033 10M1031 25L1032 26L1031 25z"/>
<path style="fill:#040404; stroke:none;" d="M1089 26L1089 28L1091 28L1089 26M1080.67 27.3334L1081.33 27.6666L1080.67 27.3334M1088 29L1089 30L1088 29M881 30L884 32L881 30M985 30L986 31L985 30z"/>
<path style="fill:#fdfdfd; stroke:none;" d="M1044 30L1045 31L1044 30z"/>
<path style="fill:#040404; stroke:none;" d="M979 31L980 32L979 31M984 32L983 35L986 36L987 35L986 32L984 32z"/>
<path style="fill:#fdfdfd; stroke:none;" d="M1031 33L1031 36L1034 33L1031 33z"/>
<path style="fill:#040404; stroke:none;" d="M970.667 39.3334L971.333 39.6666L970.667 39.3334M1096 41L1099 40L1096 41z"/>
<path style="fill:#fdfdfd; stroke:none;" d="M854 40L855 44L856 44L854 40z"/>
<path style="fill:#040404; stroke:none;" d="M1108.67 43.3334L1109.33 43.6666L1108.67 43.3334z"/>
<path style="fill:#fdfdfd; stroke:none;" d="M1076 45L1077 46L1076 45z"/>
<path style="fill:#040404; stroke:none;" d="M912.667 47.3334L913.333 47.6666L912.667 47.3334M1113.67 48.3334L1114.33 48.6666L1113.67 48.3334z"/>
<path style="fill:#fdfdfd; stroke:none;" d="M989 49L989 52L990 52L989 49z"/>
<path style="fill:#040404; stroke:none;" d="M923 53L926 51L923 53z"/>
<path style="fill:#fdfdfd; stroke:none;" d="M933 52L932 58C934.215 55.7805 934.778 54.6624 933 52M1107 53L1102 62C1105.47 60.1519 1107.98 57.0451 1107 53M797.667 57.3333L798.333 57.6667L797.667 57.3333M931 61L930 62L930 63L930 64L933 61L931 61M1060 76L1059 80L1060 76z"/>
<path style="fill:#040404; stroke:none;" d="M711 80L710 85L714 84L711 80z"/>
<path style="fill:#fdfdfd; stroke:none;" d="M750 80L750 82L752 82L750 80z"/>
<path style="fill:#040404; stroke:none;" d="M1139 80L1138 83L1139 80z"/>
<path style="fill:#fdfdfd; stroke:none;" d="M754 81L755 84L754 81z"/>
<path style="fill:#040404; stroke:none;" d="M1116.33 88.6667L1116.67 89.3333L1116.33 88.6667z"/>
<path style="fill:#fdfdfd; stroke:none;" d="M744 90L744 92L746 92L746 90L744 90M721 93L720 94L720 95L720 96L723 93L721 93M688 136L692 134L688 144L692 143L692.992 166.985L706.424 178.924L731 202L734 196L734 195C728.824 190.327 728.846 183.502 730 177C740.054 179.959 755.584 189.963 761 199L762 199L760.123 184.754L766 174L782 185L786 195C788.31 187.71 785.416 183.255 785.449 176C785.486 167.755 790.61 158.259 782 152C779.571 165.372 769.946 159.268 762 155.046C752.832 150.174 743.351 147.481 735.089 140.606C731.615 137.715 725.542 133.48 723.103 129.776C721.354 127.12 721.704 123.718 719.607 121.214C716.656 117.689 711.925 116.998 709.363 112.945C707.085 109.343 704.112 99.2316 698.094 101.005C693.788 102.275 694.215 107.528 693.486 111C691.726 119.38 689.718 127.632 688 136M1107 104L1110 102L1107 104M1114 105L1114 106L1117 106L1114 105z"/>
<path style="fill:#040404; stroke:none;" d="M506.667 107.333L507.333 107.667L506.667 107.333z"/>
<path style="fill:#fdfdfd; stroke:none;" d="M1101 115L1102 116L1101 115z"/>
<path style="fill:#040404; stroke:none;" d="M582 125L583 126L582 125z"/>
<path style="fill:#fdfdfd; stroke:none;" d="M518 126L519 127L518 126z"/>
<path style="fill:#040404; stroke:none;" d="M1116 126L1115 128L1117 128L1116 126M582.333 127.667L582.667 128.333L582.333 127.667z"/>
<path style="fill:#fdfdfd; stroke:none;" d="M513 135L514 136L513 135M583 136L584 140L585 140L583 136M514.333 138.667L514.667 139.333L514.333 138.667z"/>
<path style="fill:#040404; stroke:none;" d="M543 139L544 140L543 139z"/>
<path style="fill:#fdfdfd; stroke:none;" d="M1210 140L1211 141L1210 140z"/>
<path style="fill:#040404; stroke:none;" d="M543 141L544 142L543 141M544 143L545 144L544 143M560 143L561 144L560 143z"/>
<path style="fill:#fdfdfd; stroke:none;" d="M1098 145L1101 148L1100 145L1098 145M1092.67 149.333L1093.33 149.667L1092.67 149.333z"/>
<path style="fill:#040404; stroke:none;" d="M486 151L485 154L486 151M484 155L485 156L484 155z"/>
<path style="fill:#fdfdfd; stroke:none;" d="M1197 157L1198 158L1197 157z"/>
<path style="fill:#040404; stroke:none;" d="M1129 159L1130 160L1129 159M1163 175L1164 176L1163 175z"/>
<path style="fill:#fdfdfd; stroke:none;" d="M1102 176L1099 181L1102 176z"/>
<path style="fill:#040404; stroke:none;" d="M720 184L723 181L728 184L727 177C723.096 178.342 721.149 180.001 720 184z"/>
<path style="fill:#fdfdfd; stroke:none;" d="M1141 183L1143 188L1141 183z"/>
<path style="fill:#040404; stroke:none;" d="M414.667 187.333L415.333 187.667L414.667 187.333z"/>
<path style="fill:#fdfdfd; stroke:none;" d="M1123 200C1128.66 196.991 1129.6 192.539 1132 187C1123.69 187.535 1123.02 192.506 1123 200M1139 191L1140 192L1139 191z"/>
<path style="fill:#040404; stroke:none;" d="M477 206L478 206L480 200C477.059 201.62 476.501 202.686 477 206z"/>
<path style="fill:#fdfdfd; stroke:none;" d="M732 202L731 205L734 203L732 202M372 205L372 208L373 208L372 205z"/>
<path style="fill:#040404; stroke:none;" d="M476 207L477 208L476 207M465 211L466 212L465 211z"/>
<path style="fill:#fdfdfd; stroke:none;" d="M368 213L368 216L370 216L370 213L368 213M372 217L372 220L373 220L372 217M473 229L477 237C477.567 233.025 476.134 231.391 473 229M352 233L354 236L354 233L352 233M466 237L466 242L467 242L466 237M1423 240L1427 237L1423 240M440 239L441 240L440 239z"/>
<path style="fill:#040404; stroke:none;" d="M1576.67 240.333L1577.33 240.667L1576.67 240.333M1584.33 246.667L1584.67 247.333L1584.33 246.667z"/>
<path style="fill:#fdfdfd; stroke:none;" d="M1572 255L1572 257L1574 257L1572 255M1567 257L1568 260L1567 257z"/>
<path style="fill:#040404; stroke:none;" d="M334 262L338 264L338 263L334 262z"/>
<path style="fill:#fdfdfd; stroke:none;" d="M1594.67 265.333L1595.33 265.667L1594.67 265.333z"/>
<path style="fill:#040404; stroke:none;" d="M337 267L338 268L337 267z"/>
<path style="fill:#fdfdfd; stroke:none;" d="M344.333 269.667L344.667 270.333L344.333 269.667M347.667 291.333L348.333 291.667L347.667 291.333z"/>
<path style="fill:#040404; stroke:none;" d="M1612 291L1610 295L1612 291z"/>
<path style="fill:#fdfdfd; stroke:none;" d="M1567 322L1568 323L1567 322z"/>
<path style="fill:#040404; stroke:none;" d="M311 325L312 326L311 325z"/>
<path style="fill:#fdfdfd; stroke:none;" d="M316 329L320 332L316 329z"/>
<path style="fill:#040404; stroke:none;" d="M1584 331L1585 332L1584 331z"/>
<path style="fill:#fdfdfd; stroke:none;" d="M1563 346L1564 347L1563 346M1507 347L1508 348L1507 347z"/>
<path style="fill:#040404; stroke:none;" d="M290.667 365.333L291.333 365.667L290.667 365.333M293.333 378.667L293.667 379.333L293.333 378.667M291 381L292 382L291 381M284 407L285 408L284 407z"/>
<path style="fill:#fdfdfd; stroke:none;" d="M1591 419L1592 420L1591 419z"/>
<path style="fill:#040404; stroke:none;" d="M294 424L295 425L294 424z"/>
<path style="fill:#fdfdfd; stroke:none;" d="M383.667 427.333L384.333 427.667L383.667 427.333M388 429L392 432L388 429M288 433L290 436L288 433M395 435L395 436L398 436L395 435M402 439L403 440L402 439M1599 450L1599 452L1601 452L1599 450M354 457L351 459L351 464L352 465L362 461L354 457z"/>
<path style="fill:#040404; stroke:none;" d="M360 460L361 461L360 460z"/>
<path style="fill:#fdfdfd; stroke:none;" d="M1552 482L1554 486L1552 482z"/>
<path style="fill:#040404; stroke:none;" d="M1589 483L1590 484L1589 483M304 505L305 506L304 505z"/>
<path style="fill:#fdfdfd; stroke:none;" d="M328.667 507.333L329.333 507.667L328.667 507.333M300 539L301 540L300 539M331 597L330 600L331 597M336 599L337 600L336 599M318 623L319 624L318 623z"/>
<path style="fill:#040404; stroke:none;" d="M294.667 625.333L295.333 625.667L294.667 625.333M308 643L308 645L310 645L308 643z"/>
<path style="fill:#fdfdfd; stroke:none;" d="M321 647L322 648L321 647M306.667 659.333L307.333 659.667L306.667 659.333M292 669L293 670L292 669M250 673L254 676L250 673z"/>
<path style="fill:#040404; stroke:none;" d="M292 675L293 676L292 675z"/>
<path style="fill:#fdfdfd; stroke:none;" d="M1520 687L1521 688L1520 687z"/>
<path style="fill:#040404; stroke:none;" d="M1526 694L1527 695L1526 694z"/>
<path style="fill:#fdfdfd; stroke:none;" d="M1499 695L1499 696L1504 696L1499 695M1511 695L1512 696L1511 695M278.667 699.333L279.333 699.667L278.667 699.333M1525.33 706.667L1525.67 707.333L1525.33 706.667M241 707L242 708L241 707z"/>
<path style="fill:#040404; stroke:none;" d="M1538 713L1540 715L1540 713L1538 713z"/>
<path style="fill:#fdfdfd; stroke:none;" d="M296 717L299 719L296 717M240 719L241 720L240 719M301 721L311 731L312 728C318.138 732.478 321.404 733.41 329 732C319.681 724.154 313.059 720.999 301 721M1489 723L1490 724L1489 723M332 731L333 732L332 731M1487 735L1488 736L1487 735M1488 740L1491 738L1488 740M1442 747L1443 748L1442 747M1495.67 749.333L1496.33 749.667L1495.67 749.333M1415 755L1416 756L1415 755M245 757L246 758L245 757M1416 757L1417 758L1416 757M1497 758L1498 759L1497 758M1417 759L1418 760L1417 759z"/>
<path style="fill:#040404; stroke:none;" d="M1466 761L1465 764L1466 761z"/>
<path style="fill:#fdfdfd; stroke:none;" d="M1418 763C1421.35 768.125 1425.07 774.778 1431 777L1421 763L1418 763M238 775L238 776L241 778L243 775L238 775M268.667 791.333L269.333 791.667L268.667 791.333z"/>
<path style="fill:#040404; stroke:none;" d="M275 823L276 824L275 823z"/>
<path style="fill:#fdfdfd; stroke:none;" d="M340 859L341 860L340 859M1458 859L1460 861L1460 859L1458 859z"/>
<path style="fill:#040404; stroke:none;" d="M296 868L287 873L288 877L294 876L296 868z"/>
<path style="fill:#fdfdfd; stroke:none;" d="M598 871L599 872L598 871M340 872L343 874L340 872M298.667 883.333L299.333 883.667L298.667 883.333M294.333 887.667L294.667 888.333L294.333 887.667z"/>
<path style="fill:#040404; stroke:none;" d="M610 892L614 888L610 892M620.333 892.667L620.667 893.333L620.333 892.667M290 895L291 896L290 895z"/>
<path style="fill:#fdfdfd; stroke:none;" d="M589 909L588 912L589 909z"/>
<path style="fill:#040404; stroke:none;" d="M341 914L342 915L341 914z"/>
<path style="fill:#fdfdfd; stroke:none;" d="M348 915L349 916L348 915M385 915L386 916L385 915M1394 915L1394 917L1396 917L1396 915L1394 915M354 919L355 920L354 919M794 921L796 925L796 921L794 921M779 925L760 940C766.724 938.899 782.786 934.094 779 925M573 935L574 936L573 935M1379 935L1380 936L1379 935M1291.67 943.333L1292.33 943.667L1291.67 943.333M1379 943L1380 944L1379 943M1348 947L1349 948L1348 947M375 949L376 950L375 949M1168 949L1170 952L1168 949z"/>
<path style="fill:#040404; stroke:none;" d="M1341 950L1340 952L1341 950M1323 952L1326 959C1326.57 955.561 1325.98 953.884 1323 952z"/>
<path style="fill:#fdfdfd; stroke:none;" d="M352 953L353 954L352 953M372 953L372 957L374 953L372 953M1242 954L1241 955L1244 958L1242 954z"/>
<path style="fill:#040404; stroke:none;" d="M343 955L344 956L343 955z"/>
<path style="fill:#fdfdfd; stroke:none;" d="M1049 955L1049 956L1054 956L1049 955M1245 961C1249.9 972.429 1257.95 961.153 1245 961M1223.67 963.333L1224.33 963.667L1223.67 963.333M1136.33 966.667L1136.67 967.333L1136.33 966.667M1157.67 967.333L1158.33 967.667L1157.67 967.333M1145 969L1144 972L1147 972L1145 969M1171 971L1172 974L1173 974L1174 971L1171 971M665 973C658.094 980.052 646.797 990.082 645 1000C650.891 995.847 667.717 980.947 665 973M1193 973L1193 976L1195 976L1195 973L1193 973M680 975L680 976L686 976L680 975z"/>
<path style="fill:#040404; stroke:none;" d="M1252 975L1254 981L1255 981L1252 975z"/>
<path style="fill:#fdfdfd; stroke:none;" d="M982.667 979.333L983.333 979.667L982.667 979.333M1150 979L1151 980L1150 979z"/>
<path style="fill:#040404; stroke:none;" d="M1177 981L1182 988L1180 981L1177 981z"/>
<path style="fill:#fdfdfd; stroke:none;" d="M487 983L488 984L487 983M1221 983L1225 988L1221 983M1206 985L1204 993L1206 993L1208 985L1206 985z"/>
<path style="fill:#040404; stroke:none;" d="M1175 987L1176 988L1175 987M389 989L388 992L389 989z"/>
<path style="fill:#fdfdfd; stroke:none;" d="M978 989L981 997L982 997C981.875 993.122 981.498 990.928 978 989M1226 989L1229 992L1226 989M971 991L972 992L971 991z"/>
<path style="fill:#040404; stroke:none;" d="M1152 993L1156 996L1155 992L1152 993z"/>
<path style="fill:#fdfdfd; stroke:none;" d="M419 995L420 996L419 995M976 995L978 997L978 995L976 995z"/>
<path style="fill:#040404; stroke:none;" d="M554 997L555 998L554 997z"/>
<path style="fill:#fdfdfd; stroke:none;" d="M934 997L934 1000L936 1000L936 997L934 997M1234.67 999.333L1235.33 999.667L1234.67 999.333M1229 1001C1227.22 1004.84 1227.87 1006.74 1232 1008L1229 1001M975 1003L976 1004L975 1003M927 1005L926 1008L927 1005z"/>
<path style="fill:#040404; stroke:none;" d="M1164 1008L1167 1010L1164 1008M972.667 1013.33L973.333 1013.67L972.667 1013.33z"/>
<path style="fill:#fdfdfd; stroke:none;" d="M689 1016L692 1014L689 1016M919 1015L920 1016L919 1015M899 1019L899 1020L902 1020L899 1019z"/>
<path style="fill:#040404; stroke:none;" d="M1233 1025L1235 1028L1233 1025z"/>
<path style="fill:#fdfdfd; stroke:none;" d="M720 1027L720 1029L722 1027L720 1027M880 1027L880 1028L884 1028L880 1027M1008 1027L1008 1029L1010 1027L1008 1027M783 1028C782.363 1031.33 782.706 1032.84 786 1034L783 1028M706 1029L704 1035L705 1035L706 1029M718 1030L713 1037L714 1037L718 1030M796 1031L790 1040C793.817 1038.83 797.704 1035.32 796 1031M760 1037C754.443 1042.57 750.732 1060.34 744 1061C740.869 1067.41 736.803 1072.62 738 1080L807 1080L806 1065L805 1065L804 1076L800 1073L792 1073L791 1072L791 1070C797.388 1067.29 798.876 1053.1 793 1049L794 1054L784 1039C785.788 1046.51 786.664 1054.69 784 1062C782.46 1058.8 782.547 1054.12 780.258 1051.43C775.455 1045.8 767.388 1049.52 769 1039C764.783 1039.9 766 1044.36 766 1048L760 1037M849.667 1039.33L850.333 1039.67L849.667 1039.33M1007 1040L1004 1048C1007.94 1046.69 1008.54 1043.7 1007 1040M861 1041L865 1044L864 1041L861 1041M808 1043L810 1048L810 1043L808 1043z"/>
<path style="fill:#040404; stroke:none;" d="M1026.67 1043.33L1027.33 1043.67L1026.67 1043.33z"/>
<path style="fill:#fdfdfd; stroke:none;" d="M817 1044L816 1048L817 1048L817 1044M1066 1045C1065.86 1048.44 1066.6 1049.41 1070 1050L1069 1045L1066 1045z"/>
<path style="fill:#040404; stroke:none;" d="M696 1049L697 1052L698 1052L699 1049L696 1049M779 1052L776 1060C779.791 1058.67 780.468 1055.6 779 1052z"/>
<path style="fill:#fdfdfd; stroke:none;" d="M813 1052L810 1080L822 1080L821 1072L820 1072L819 1076L815 1076C817.034 1069.18 817.56 1057.82 813 1052M722 1055L723 1056L722 1055M799.667 1059.33L800.333 1059.67L799.667 1059.33M1081.67 1059.33L1082.33 1059.67L1081.67 1059.33M870 1063L871 1064L870 1063z"/>
<path style="fill:#040404; stroke:none;" d="M746.667 1067.33L747.333 1067.67L746.667 1067.33M1084 1072L1084 1074L1086 1074L1086 1072L1084 1072z"/>
<path style="fill:#fdfdfd; stroke:none;" d="M828 1075L827 1080L833 1080L828 1075M841 1080L844 1077L841 1080z"/>
<path style="fill:#040404; stroke:none;" d="M863 1079L864 1080L863 1079z"/>
</svg>
