<?xml version="1.0" standalone="yes"?>
<svg xmlns="http://www.w3.org/2000/svg" width="1920" height="1080">
<path style="fill:#fdfdfd; stroke:none;" d="M0 0L0 1080L530 1080L662 1080L695 1080C698.447 1080 704.438 1081.12 707.107 1078.4C709.603 1075.84 709.738 1067.87 704.981 1067.62C701.444 1067.43 696.674 1071.23 693 1072L701 1060L701 1059L697 1056C693.696 1056.69 691.912 1056.92 690 1054L687 1058L684 1058L685 1050C680.609 1045.99 684.032 1042.94 687 1039L684 1038L684 1033L677.682 1041.79L664 1054C659.902 1050.51 661.685 1047.8 662 1043L658 1043L660 1047L655 1049C655.946 1044.82 655.953 1042.18 652 1040L665.304 1018.3L680.985 1010.35L692.004 999.393L711 988L708 986L707 989L704 988L718 975C713.805 974.238 709.32 971.224 705 971.522C698.371 971.98 684.336 979.293 679.015 983.418C671.442 989.289 666.82 1003.43 656 1003L646.165 1018.12L636 1026L614 1032L614 1031L621 1023C628.775 1022.09 640.785 1012.85 642 1005L629 1008C634.926 1000.59 641.259 998.038 642 988L640 988C644.923 980.194 662.155 968.782 660 959L669 947L664 938L661 941L660 935L650 939L652 927C644.65 923.473 642.937 918.466 641 911L640 911L640 918L639 918L628 891L616 900L620 891L614 889L609 894L606 881L604 883L594 879L596 891L596 892C596.671 896.682 597.691 908.289 596.983 912.776C596.541 915.577 592.934 916.2 592.502 919.133C591.453 926.259 595.885 929.304 588 934L588 925L587 925L586 938L585 938L583 935L584 954L582 953L582 957L566 940C565.15 945.666 570.576 950.64 572.498 956C575.893 965.471 576.109 974.654 573 984C568.422 982.768 563.7 980.076 563 975C554.19 983.14 561.505 993.363 562 1003L557 997L556 997L556 1001L554 1001L550 991L548 990L547 990L546 997L545 997C542.267 992.685 538.85 991.959 534 993L529 982L527 983L523 983L522 983L520 979L516 986L514 986L511 981C510.724 986.031 508.747 990.857 504 986L503 986L499 991L499 996L498 996L497 993L492 1000C492.022 994.847 494.672 976.222 489 975C490.699 982.136 489.093 993.936 485 1000L484 995L483 995L486.013 1014L494 1037L488 1033L484 1049C480.413 1047.13 473.049 1046.78 470.447 1044.36C464.876 1039.17 472.533 1032.56 460 1034C459.13 1028.68 455.762 1028.62 451 1028L450 1036L439 1030L431 1036L430 1035L428.252 1022L432 1009L423 1013C422.792 1006.76 420.251 1006.48 415 1009L414 1003L402 1015C398.811 1006.45 400.672 998.261 406 991L392 993L391 996C382.27 985.75 403.136 983.793 398 972L396 972L374 988C377.736 981.504 382.406 975.969 381 968L377 970C378.108 964.532 383.907 960.866 379 956C376.056 961.222 374.976 965.657 369 968L369 965L365 966L366 962L363 961L358 966L354 966L353 963L348 963L349 959L335 960L335 959C342.827 955.691 349.58 948.125 354 941L351 943L344 944L355 926L354 925L347 928C346.268 918.405 339.237 921.678 334 926L341 913L342 916L343 916L351 893L337 904.076L330.77 903.275L337.217 895.675L338 885L341 885L340 881L339 881L338 884L333 881L332 892L327 883L313 881C310.203 884.936 306.271 887.941 303.663 892.015C299.959 897.8 299.411 905.856 292 908C292.941 904.554 293.96 902.13 290 901L292 897C281.599 886.308 298.495 877.592 300 868L299 868C296.975 870.723 294.916 874.021 291.87 875.713C290.584 876.427 286.857 877.068 287.948 874.328C290.766 867.245 296.992 868.781 297 859L296 859L296 863C291.639 863.047 289.594 862.657 287 859L278 860C282.492 847.034 292.601 848.611 303 844L302 837L308 833L296 836L297 831L286 834L291 828L289 821L292 820L292 819C284.959 821.704 279.855 826.448 272 823C275.538 821.71 293.19 813.117 280.772 808.404C276.569 806.808 272.64 809.397 268 807C270.463 806.328 280.583 802.242 276.125 798.066C272.828 794.978 266.943 797.513 263 793C253.205 794.041 242.095 792.952 235 786L232 788L228 785L226 781C227.878 777.725 241.222 769.548 234 768L238 764L234 759L241 752L241 756C246.209 754.878 240.944 750.598 241 747L235 748L235 745L245 746L246 733L233.285 735.846L208 727C211.719 721.891 218.87 717.609 225 716L222 712L228 709C227.397 702.955 227.887 699.624 235 700C233.608 695.885 226.392 693.867 226.167 689.884C225.774 682.906 237.411 684.341 240.985 686.171C256.302 694.014 268.989 708.147 287 708C284.823 704.447 281.604 704.281 278.576 701.687C268.309 692.893 258.875 686.124 247 679.799C239.018 675.549 232.294 674.208 228 665L242 672L240 669C253.155 667.793 271.418 679.87 283.671 672.633C285.885 671.325 290.318 663.525 292 661C304.42 658.807 299.849 646.59 292 642L292 637L310 642L303 627L299 629L298 625L294 627L291 619L303 620L283 605L283 604L286 599L288 601L304 599L304 602L305 602L306 602L307 599L310 600L308 593L327 594C325.927 587.51 320.447 588.969 316.162 585.437C313.261 583.045 313.406 579.422 313 576L321 576C316.758 568.863 305.701 567.525 308 558L301 555L304 554L303 551L296 556L291 549L286 550L291 544L291 543L280 533L290 532C279.811 518.929 270.477 510.407 271 493L284 505L288 497L297 502L298 502L300 500C299.608 495.921 297.515 490.776 303 490C310.822 474.352 330.192 473.686 345 467L345 466L338 464L345 458L348 460C349.033 449.98 357.331 449.686 363 443L358 437L354 436L369 428L369 426L355 417C350.541 435.512 329.502 443.444 312.985 449.14C308.241 450.776 301.866 455.38 296.91 455.501C291.327 455.636 287.26 449.422 282 448L286 440L282 438L283 445L282 445L282 427L288 425L280 423L280 416L277 417L277 412L279 412L280 415L281 415L280 412L288 404L283.599 387.089L289 371L284 369L302 355L296 354L297 349L294 352L303.214 334.572L309.338 328.872L303 320L309 319L307 322C313.217 322.821 318.196 318.377 321 313L323 315L327 305L331 308C330.664 303.895 331.744 302.476 335 300L332 291L343 292L337 267L336 267L336 271L327 268L327 260L328 260L328 266L333 264L330 257L340 265L344 264L333 253L336 252C331.811 247.713 325.744 248.243 325 241L320 239L321 242C318.376 238.993 318.915 236.7 320 233L328 232L324 224L327 226L346 228L340 217L351 217L356 220L355 215L360 216L360 212L363 213L367 194L368 194L367 197L373 198L372 193L373 193L374 196L377 194L378 194L379 196L380 196L382 191L388 189C390.627 193.299 405.179 205.727 409 200L410 200L411 204L413 204L414 191L425 195L431 216L448 224L449 224L452 230L454 227L458 232L459 232L453 217C459.928 221.273 462.321 230.009 470 224L463.769 215.816L462 207C464.866 208.613 468.04 211.458 469 207L476 210L476 189L478 189L478 194L480 194L477 183C488.935 181.739 479.895 172.015 480 165L479 165L476 168L474 151L475 151C477.195 154.729 479.44 153.68 483 152L482 149L488 146L489 149L491 149L492 145L488 146L486 137L488 137L493 142L499 127L506 136L510 128L511 118L522 116L523 116L526 103C534.563 107.952 536.401 124.036 539 133L545 133C546.756 139.53 552.4 148.203 558 152L557 141L560 144L559 139L563 144L564 144L568 125L569 125C568.314 130.81 567.931 135.465 574 138L576 131L579 132L583 120L584 120L584 124L590 124L587 132L593 129L594 132L598 132L589 95L590 95L591 97L600 101L598 103L601 104C605.003 87.1857 599.564 70.0057 604.545 53C610.018 34.3125 625.546 19.6931 628 0L0 0z"/>
<path style="fill:#040404; stroke:none;" d="M628 0C625.073 13.6969 617.006 23.2356 610.964 35.0007C604.455 47.6733 601.317 62.8868 601.235 77C601.199 83.2023 605.801 100.769 598 103L600 101C596.293 98.5287 593.678 93.3219 590 97L590 95L589 95C589.543 107.455 592.767 120.911 598 132L593 129L592 132L587 132L590 124L584 124L584 120L583 120L579 132L576 131L574 138C568.605 134.637 568.656 130.916 569 125L568 125C564.617 131.596 562.626 136.594 564 144L563 144L559 139L560 144L557 141L558 152L545 133L539 133C537.281 124.78 534.55 106.24 526 103L523 116L522 116L522 113L511 118L510 128C506.062 129.385 506.304 132.232 506 136C504.159 131.615 504.113 128.481 499 127L493 142L488 137L486 137L488 146L492 145L491 149L489 149L488 146L482 149L483 152C479.375 153.195 477.535 154.237 475 151L474 151L476 168L479 165L480 165C478.978 172.81 488.495 179.871 477 183L480 194L478 194L478 189L476 189L476 210L469 207L462 207L470 224C461.652 228.538 460.793 220.373 453 217L459 232L458 232C456.673 227.794 455.35 227.359 452 230L449 224L448 224L431 216C432.626 207.297 427.636 202.44 425 195L422 196L414 191L413 204L411 204L410 200L409 200C404.331 204.183 391.829 193.152 388 189L382 191L380 196L379 196L378 194L377 194L374 196L373 193L372 193L373 198L367 197L368 194L367 194L360 212L360 216L355 215L356 220L351 217L340 217L346 228C338.484 226.881 334.864 222.697 327 226L324 224L328 232L320 233C318.532 236.552 317.569 239.545 321 242L320 239L325 241C324.334 248.038 331.142 248.867 336 252L333 253L344 264L340 265L330 257L333 264L328 266L328 260L327 260L327 268L336 271L336 267L337 267L343 292L332 291L335 300C331.336 302.052 330.244 303.838 331 308L327 305L321 313C317.344 317.7 313.206 322.094 307 322L309 319L303 320L308.825 328.872L302.649 334.572L294 352L297 349L296 354L302 355L284 369L289 371L283.403 386.17L288 404L280 412L281 414L281 415L280 415L279 412L277 412C276.516 415.046 276.823 416.073 280 416L280 423L288 425L287 428L282 427C280.528 433.439 278.998 438.762 282 445L283 445L282 438L286 440L282 448C286.771 450.118 290.582 455.176 295.961 455.721C301.092 456.24 308.179 451.286 313 449.549C328.863 443.834 352.683 436.192 355 417L369 426L369 428C362.79 429.209 358.096 430.972 354 436L358 437C358.165 440.695 359.655 441.634 363 443C356.293 448.664 348.516 450.081 348 460L345 458L338 464L345 466L345 467C331.186 471.533 308.194 474.957 303 490C296.769 490.3 299.259 495.603 300 500L298 502L297 502C295.809 497.913 291.92 497.311 288 497L284 505C281.486 499.609 276.811 494.631 271 493C269.763 509.461 278.135 521.074 290 532L280 533C281.566 538.256 285.732 541.744 291 543L291 544L286 550L291 549L296 556L303 551L304 554L301 555L308 558C304.471 566.929 315.875 570.129 321 576L313 576L315.321 585.441L327 594L318.576 595.782L308 593L310 600L307 599L304 602L304 599L303 599L288 601L288 599L286 599L283 604L283 605L303 620L291 619L294 627L298 625L299 629L303 627L310 642L292 637L292 642C298.621 647.622 304.066 657.308 292 661C289.582 663.486 285.286 671.383 282.813 672.427C268.58 678.443 254.407 665.958 240 669L242 672L228 665C230.828 675.074 239.324 675.931 247.001 680.38C260.223 688.044 276.757 696.611 287 708C268.777 708.036 256.748 692.216 240.985 685.727C237.435 684.265 223.441 682.882 225.748 690.664C226.901 694.554 232.94 696.333 235 700C227.681 698.745 226.888 702.878 228 709L222 712L225 716C218.931 716.971 210.693 721.412 208 727C221.8 732.913 231.339 737.056 246 733L245 746L235 745L235 748L241 747L241 756L241 752L234 759L238 764L234 768C238.666 771.204 227.761 776.953 226 781L228 785L232 788L235 786C240.531 793.755 253.927 794.634 263 793C265.896 798.008 284.637 798.173 271.941 805.491C270.801 806.147 269.214 806.545 268 807C272.608 810.61 275.877 807.036 280.467 808.626C292.861 812.918 274.877 821.613 272 823C279.216 827.206 285.722 822.559 292 819L292 820L289 821L291 828C287.205 828.827 286.304 830.171 286 834L297 831L296 836L308 833L302 837L303 844C292.751 847.152 280.712 846.957 278 860L287 859C289.124 863.117 291.619 863.204 296 863L296 859L297 859C296.988 862.381 297.244 865.662 294.686 868.246C292.823 870.128 288.007 871.59 287.256 874.275C286.448 877.166 290.227 876.931 291.834 876.218C295.295 874.681 297.36 871.202 299 868L300 868C297.535 875.088 280.383 889.546 292 897L290 901C293.455 902.708 292.557 904.554 292 908C299.951 906.736 300.331 897.714 304.329 892.015C307.089 888.081 310.928 885.377 313 881L327 883C327.283 887.21 328.227 889.908 332 892L333 881L338 884L339 881L340 881L341 885L338 885C338.485 888.536 339.545 891.79 337.191 894.905C335.344 897.351 330.403 899.453 330.346 902.891C330.286 906.472 335.057 905.411 337 904.582C343.113 901.974 346.189 897.076 351 893L343 916L342 916L341 913C337.542 917.079 333.758 920.343 334 926C339.538 922.909 345.515 918.491 347 928L354 925L355 926C350.079 932.435 345.297 935.481 344 944L351 943L354 941L335 959L335 960L349 959L348 963L353 963L354 966L358 966L363 961L364 961L366 962L365 966L369 965L369 968C375.368 966.468 376.716 961.595 379 956C382.535 961.439 377.644 964.257 377 970L381 968L374 988C380.936 984.395 391.97 978.822 396 972L398 972C400.979 982.773 380.682 988.045 391 996L392 993L406 991C400.084 997.063 398.046 1007.36 402 1015L414 1003L415 1009C420.151 1007.26 422.571 1006.79 423 1013L432 1009L428.102 1022L430 1035L431 1036L439 1030L450 1036L451 1028C455.6 1029.03 458.606 1028.98 460 1034C471.869 1033.42 464.768 1038.97 469.657 1044.39C471.877 1046.85 480.6 1047.76 484 1049L488 1033L494 1037L486.013 1013L483 995L484 995L485 1000C489.77 995.809 490.754 980.934 489 975C494.549 978.989 492.035 993.647 492 1000L497 993L498 996L499 996L499 991L503 986L504 986C508.231 992.839 510.881 985.927 511 981L514 986L516 986L520 979L522 983L523 983L527 983L529 982L534 993C538.887 992.347 541.642 993.393 545 997L546 997L547 990L548 990L550 991L554 1001L556 1001L556 997L557 997L562 1003C561.751 992.359 555.535 984.792 563 975C563.249 980.509 567.86 983.421 573 984C577.607 974.128 575.566 961.687 571.468 951.754C569.663 947.38 566.106 944.971 566 940C570.027 946.892 574.002 954.246 582 957L582 953L584 954L583 935L585 938L586 938L587 925L588 925L588 934C596.754 930.45 591.386 925.88 592.927 919.133C593.515 916.559 596.502 915.946 597.289 913.586C597.988 911.494 596.907 893.631 596 892L596 891L594 879L606 881L609 894L614 889L620 891L616 900L628 891L639 918L640 918L640 911L641 911C642.466 918.554 644.03 924.433 652 927L650 939L660 935L661 941L664 938L669 947L660 959C660.905 969.792 644.043 978.531 640 988L642 988L629 1008L642 1005C639.866 1012.58 628.682 1021.24 621 1023L614 1031L614 1032L636 1026C642.939 1017.16 652.448 1015.41 656 1003C666.878 1004.8 672.495 989.165 680.004 983.418C685.274 979.385 698.449 972.523 705 971.974C709.224 971.62 713.688 974.759 718 975L704 988L707 989L708 986L711 988C699.065 993.912 691.116 1001.56 680.985 1009.61C676.786 1012.94 671.369 1013.05 667.09 1016.03C660.329 1020.73 654.59 1032.31 652 1040C655.28 1042.76 655.641 1044.83 655 1049L660 1047L658 1043L662 1043C661.396 1047.75 658.923 1051.21 664 1054L677.682 1042.62L684 1033L684 1038L687 1039C683.414 1042.4 679.236 1046.78 685 1050L684 1058L687 1058L690 1054C690.829 1057.87 693.813 1057.17 697 1056L701 1059L701 1060C696.497 1062.39 693.978 1067.07 693 1072C702.323 1070.86 711.775 1064.66 707 1080L739.687 1079.4L744.313 1074.16L752.527 1070.58L752.674 1052L755 1041L764 1050L769 1047C771.29 1051.11 773.927 1050.44 778 1049L770 1072L771 1072L781 1060L775 1074C782.525 1067.24 787.562 1059.2 788 1049L789 1049L796 1068L788 1065L787 1066L794 1076L793 1080L805 1077L812 1080L813 1056L814 1056L815 1080L820 1074L821 1074L821 1080L828 1077L830 1077C833.348 1081.64 851.403 1081.88 856.586 1079.4C859.471 1078.02 861.357 1073.99 864 1072L865 1076L862 1080L865 1078L866 1078L869 1080L875.08 1063.04L876.485 1054.12L886.081 1050.57L892.849 1040.9L892.858 1033.38L898 1026L899 1026L901 1040L902 1040L902 1035L908 1036L904 1056L910 1055C911.694 1051.66 914.129 1048.72 914.942 1045C916.307 1038.75 911.724 1024.33 921 1023L918 1028C924.571 1027.46 928.96 1026.12 926 1019C932.283 1020.89 930.059 1026.63 931 1032L935 1029L943 1040C935.487 1043.02 936.283 1057.62 944 1060L947.88 1037L944 1019L948 1024L954 1027L959 1025L961 1037L963 1037L966 1033L965 1040C971.893 1038.52 967.31 1020.52 973 1016L978 1024L975 1011L980 1010L979 998L980 998C981.493 1000.36 984.792 999.319 986 997L987 997L988 1008L985 1012L996 1016L994 1011C1007.14 1018.15 994.337 1038.35 991 1048L997 1047L998 1052L994 1050L1002 1068L1009 1072L1010 1063L1017 1062L1014 1055L1022 1051L1028 1056C1027.69 1051.91 1026.7 1049.87 1023 1048C1039.6 1029.25 1040.5 1061.82 1045 1072L1038 1073L1041 1080L1048 1080L1049.12 1054.09L1039 1033L1040 1033L1054.79 1052.91L1058.17 1065.17L1066 1061C1061.15 1075.26 1074.7 1072.13 1082 1068L1083 1080C1090.7 1077.47 1086.94 1066.61 1085 1061L1093 1062L1090 1065L1090 1078L1093 1077L1097 1080L1100 1069C1102.29 1075.07 1104.33 1078.55 1111 1080C1110.32 1076.35 1110.77 1071.36 1108.97 1068.1C1100.58 1052.88 1082.07 1050.44 1082 1030L1078 1036C1074.23 1031.47 1079.6 1029.4 1081 1025L1078 1024L1095 1005C1106.41 1004.86 1109.14 994.319 1118 990C1120.27 997.287 1121.8 1008.2 1129 1012C1128.82 1009.55 1129.28 1003.59 1132 1008C1137.25 1005.1 1135.07 1001.27 1133.8 996.425C1131.51 987.635 1127.82 978.254 1130 969C1139.99 977.177 1149.16 985.676 1154 998C1157.16 994.802 1156.33 992.586 1154 989C1162.75 993.823 1150.62 1005.21 1164 1007C1159.69 1013.66 1166.36 1017.23 1172 1020L1166.22 1001.17L1166 985L1168 985L1169 991C1175.15 988.707 1178.74 986.845 1182 994C1186.01 991.361 1186.14 982.516 1182 980L1186 973L1187 973L1196 1002L1201 1001L1202 1002L1201 1006L1202 1006C1206.46 1003.32 1209.62 1008.31 1213 1011L1211 996C1213.99 995.936 1215.35 996.054 1216 993L1217 993C1217.69 1000.47 1224.99 1020.73 1232 1023C1230.57 1027.84 1230.29 1044.12 1237 1044L1236 1023L1237 1023L1242 1034L1239 1010L1250 1016C1249.81 1010.87 1249.83 1007.45 1254 1004L1258 1009C1258.82 1005.76 1258.83 1004.87 1256 1003L1260 993L1256 995C1253.82 989.836 1253.88 986.97 1258 983L1259 988C1267.7 987.711 1263.44 981.744 1268 977L1268 980L1276 992L1277 992L1273 968L1273 967C1264.78 962.17 1262.09 959.005 1257 951L1263 951L1267 948L1261 937C1272.44 946.232 1266.3 961.558 1280 967L1280 968L1277 969L1281 972L1284 961L1279 962L1277 957C1284.39 958.195 1285.08 954.904 1288 949L1292 972C1295.75 969.333 1295.95 965.345 1296 961L1297 961C1298.19 966.468 1301.03 976.901 1307 978L1306 981L1310 982C1309.48 973.764 1308.16 964.168 1306.78 956C1305.46 948.228 1301.43 946.753 1306 939L1300 940C1299.56 935.726 1301.94 924.874 1308.36 930.583C1313.52 935.167 1311.11 949.596 1319 950L1324 966C1329.36 965.162 1334.15 963.101 1333 957L1339 968L1340 961L1343 962L1347 956L1349 959L1350 959L1355 960C1357.71 958.044 1362.04 953.268 1365.21 952.554C1371.51 951.134 1390 961.298 1384 947L1397 954L1396 945L1407 948L1400 919L1405 926L1406 926L1410 910L1411 910L1416 913L1419 909L1419 912L1422 912L1424 908L1424 911L1425 911L1428 907L1441 912C1439.82 902.471 1439.21 898.6 1433 891L1438 893C1440.71 888.03 1446.76 886.305 1452 888L1457 877L1459 878L1462 871L1461 874L1469 868L1466 861L1481 859L1479 851C1492.35 850.685 1508.58 823.086 1500 812L1500 811L1504 809L1508 812L1511 804L1506 800L1510 798C1505.6 780.398 1475.92 781.855 1461 785.849C1457.52 786.779 1448.92 791.894 1446.02 791.373C1442.81 790.799 1440.9 785.644 1438 784L1452 780L1453 775C1446.47 767.98 1461.59 769.786 1464.89 767.333C1468.05 764.987 1468.71 761.063 1472 759L1471 765L1474 764L1472 760L1499.58 761.476L1507.08 756.83L1502 749L1509 750L1498 739C1502.79 738.62 1507.16 734.325 1500 734L1501 731C1496.95 729.48 1494.59 728.689 1495 724L1508 728L1524 717L1548 716L1548 715C1544.77 712.514 1540.35 707.624 1537 712L1536 712L1533 703L1521 700L1522 697L1532 696C1529.69 692.442 1527.1 692.099 1523 692C1523.97 688.695 1524.66 684.424 1521.43 682.012C1519.08 680.258 1513.51 680.361 1514.61 675.964C1516.86 666.957 1530.33 671.757 1535.42 674.546C1543.64 679.047 1545.27 688.035 1551.05 694.526C1556.59 700.736 1570.22 708.146 1578 711L1585 705L1586 698L1589 700C1590.75 683.194 1585.44 674.303 1579.35 659C1575.26 648.725 1573.13 639.354 1566.45 630C1562.94 625.068 1556.83 621.751 1553.75 616.615C1552.06 613.806 1555.25 611.235 1553.76 608.286C1550.91 602.631 1541.8 601.616 1541 595C1548.4 596.728 1546.39 587.693 1545 583L1552 579L1549 579L1548 569L1581 576L1582.75 550L1579.3 540L1581 527C1578.76 527 1566.25 521.671 1564.5 518.833C1561.5 513.974 1562.29 505.767 1555 505L1561 498L1561 497L1560 493C1555.76 493.641 1552.53 494.24 1553 489L1559 490L1557 486L1574 479L1575 482L1592 484L1589 480L1605 467L1608 468L1612 455C1603.8 447.771 1605.59 443.104 1613 436L1610 431C1615.57 427.847 1614.03 422.64 1615 417L1591 416L1597 412L1596 409C1588.15 410.046 1578.94 406.036 1581 397C1577.79 394.23 1575.94 391.502 1579 388L1579 371L1574 371L1574 359L1571 360L1573 355L1566 352L1568 339C1562.67 340.763 1558.65 338.832 1565.05 334.588C1569.91 331.363 1576.71 331.191 1582 328L1583 332L1585 332L1585 323L1590 324L1608 307L1605 306L1605 305L1609 306C1610.73 302.717 1612.32 302.101 1616 302L1615 299C1622.33 296.293 1631.56 288.912 1633 281L1621 267C1623.88 263.021 1621.13 261.322 1617 261L1613 252L1606 252L1609 246L1591 249L1585 252L1585 251C1590.27 248.162 1598.09 244.766 1600 239L1594 237L1592 239L1580 240L1576 233L1532 241.586L1514 242L1509 241L1499.01 239.983L1463 242L1466 231L1450 236L1452 225L1430 232L1434 228L1433 225L1431 227C1426.89 224.409 1424.47 228.061 1420.17 227.323C1408.82 225.379 1402.43 225.046 1391 227.114C1384.76 228.243 1380.98 226.598 1379 234L1373 217L1377 217L1375 212C1380.82 208.736 1389.18 201.49 1391 195L1394 196C1395.18 192.261 1404.43 181.194 1399 180L1399 179L1403 178L1402 175C1412.61 168.374 1415.89 158.082 1419 147C1412.65 135.979 1426.65 124.413 1431.4 116C1435.49 108.765 1436.22 99.149 1437 91C1430.56 87.183 1425.03 84.2115 1418 88L1418 85C1409.92 87.6574 1405.26 94.2368 1399 99.571C1394.31 103.57 1388.56 106.051 1384.04 110.185C1375.56 117.938 1371.56 127.782 1367 138L1364 133C1358.33 136.117 1356.71 146.044 1358 152L1352.77 145.423L1342 145L1338 150L1337 150L1337 147L1332 150L1330 121L1314 129L1313 129L1311 125L1301 129L1299 133L1294 135L1291 133L1288 138C1290.73 148.365 1279.83 149.928 1274 156L1274 151L1264 152L1263 152L1258 156L1253 136L1249 140C1244.21 137.454 1243.08 132.502 1238.87 129.678C1231.04 124.427 1221.62 129.667 1216 135L1208 130L1207 131L1210 133L1209 137C1205.38 133.325 1202.38 131.244 1198 135L1197 135L1196 133L1195 133L1198 152L1195 149C1189.03 157.776 1196.37 164.121 1182 165C1178.86 170.49 1169.81 169.706 1164 171L1162 178C1156.54 174.906 1158.25 170.431 1157 165L1155 165L1155 169C1150.56 165.025 1152.76 162.064 1154 157C1148.89 158.57 1148.23 161.107 1147 166L1140 161L1142 167L1142 168L1133 185L1132 185C1132.49 179.743 1131.58 176.872 1126 176L1131.44 162.985L1132 151L1131 151L1118 171L1117 171L1120 161L1114 160L1120 147L1119 147L1118 152L1115 152L1121 121L1118 124L1117 124L1113 119L1122 119L1122 115L1126 116L1127 111C1131.82 110.11 1131.95 106.383 1132 102C1140.6 100.142 1142.85 84.4081 1142 77L1118 93C1120.79 84.1313 1116.54 78.4342 1117.17 70C1117.64 63.8253 1122.92 58.3179 1122.15 52C1121.51 46.7622 1118.64 28.1892 1112 40L1111 40L1111 34L1107 44L1106 44L1105 27L1097 29L1096 17L1086 24L1086 17L1085 17C1081.95 23.5831 1073.68 29.9962 1072 19L1071 19L1066 28L1065 17L1057 28C1060.38 18.4384 1054.44 9.30286 1053 0L1049 0L1048 12L1047 12L1047 7L1044 7L1038 24L1038 0L1002 0C1002.7 9.21753 1004.97 31.3982 996 36C998.497 28.6056 1002.83 18.0188 996 12C995.625 20.7455 994.126 27.5233 988 34L989 13L988 13L982 25L980 25L979 24L980 17C974.999 19.7938 977.661 27.6638 976 33C967.989 34.3462 959.483 46.3341 958 54L955 49L952 49L948 55L945 37C937.582 37.573 937.176 44.9558 935 51L934 51L931 38L930 38L925 48L925 42L922 45L922 46C923.369 48.8192 922.26 49.9669 920 52L918 38L904 37L887 31L884 32L886 21L881 17C877.947 27.3254 879.804 38.251 884 48L881 45L878 46C877.088 38.3071 874.692 34.4113 867 32L868 29L864 27L867 34L861 27L850 36L849 31L839 26L842 32L832 31C832.915 33.1854 838.728 48.2024 833.571 47.2175C830.418 46.6154 828.736 40.7411 826.657 38.595C822.388 34.1902 814.858 28.7764 809 27L809 32L803 28L805.979 37.8857L802 46L793 45L791 40L788 41L790 47C784.112 47.9812 782.3 44.299 784 39L777 40L774 37L766 48L766 42L765 42L758 60L754 60C754.665 56.4182 754.651 54.2871 751 53L747 61L750 51L746 56C735.169 49.1942 733.683 58.4904 732 68L727 67L732 80L724 71L719 65L716 65C714.096 69.5319 714.108 71.96 717 76L712 80L713 74L705 68L703 88L702 82L700 82L700 86L693 80L693 70L690 76L686 75C688.31 69.7307 688.432 58.1279 682 56L683 47L682.167 36L685.833 29L689 1L688 1L687 4L686 0L628 0z"/>
<path style="fill:#fdfdfd; stroke:none;" d="M686 0L687 4L688 1L689 1L682.259 36L683 47L682 56C688.229 59.4235 687.735 68.9237 686 75L690 76L693 70L693 80L700 86L700 82L702 82L703 88C708.671 82.4462 703.41 74.9372 705 68L713 74L712 80L717 76L716 65L719 65L724 71L732 80L727 67L732 68C734.716 58.2125 734.813 51.1851 746 56L750 51L747 61C750.401 58.9147 750.873 56.9025 751 53C754.048 54.8243 754.264 56.5253 754 60L758 60L765 42L766 42L766 48L774 37L777 37L777 40L784 39C781.396 44.4016 783.899 48.644 790 47L788 41L791 40L793 45L802 46L806.458 37.8857L803 28L809 32L809 27C814.862 29.6318 822.235 34.7423 826.657 39.4291C828.745 41.6426 830.027 46.517 833.085 47.5031C839.836 49.6801 833.219 33.1465 832 31L842 32L839 26L849 31L850 36L861 27L867 34L864 27L868 29L867 32C873.976 35.1385 876.349 38.7467 878 46L881 45L884 48C880.638 37.4857 878.384 27.9891 881 17L886 21C881.092 22.0515 884.149 28.0586 884 32L887 31C889.941 34.6372 899.391 37.1002 904 37C905.317 43.1448 913.519 36.8892 918 38L920 52C922.588 50.493 924.53 48.4438 922 46L922 45L925 42L925 48C929.268 46.7516 929.512 41.9932 930 38L931 38L934 51L935 51C937.844 45.3228 937.736 38.1484 945 37L948 55L952 49L955 49L958 54C960.372 46.5718 968.22 35.3025 976 33L980 17L979 24L980 25L982 25L988 13L989 13L988 34C995.044 28.754 995.829 20.3013 996 12C1001.96 19.6433 998 27.556 996 36C1005.21 33.157 1003.04 8.28516 1002 0L686 0M1038 0L1038 24L1044 7L1047 7L1047 12L1048 12L1049 0L1038 0M1053 0L1057 28L1065 17L1066 28L1071 19L1072 19C1072.87 30.4044 1082.63 24.3341 1085 17L1086 17L1086 24L1096 17L1097 29L1105 27L1106 44L1107 44L1111 34L1111 40L1112 40C1119.73 30.9137 1121.34 46.0541 1121.78 52C1122.22 58.0149 1117.79 63.172 1117.14 69C1116.2 77.3651 1119.93 84.2447 1118 93L1142 77C1142.4 84.6204 1139.98 99.0949 1132 102C1131.87 106.107 1131.27 109.663 1127 111L1126 116L1122 115L1122 119L1113 119L1117 124L1118 124L1121 121L1115 152L1118 152L1119 147L1120 147L1114 160L1120 161L1117 171L1118 171L1131 151L1132 151L1131.06 162.985L1126 176C1130.9 177.403 1132.02 180.102 1132 185L1133 185L1142 168L1142 167L1140 161L1147 166C1148.52 161.403 1149.41 159.087 1154 157C1152.16 161.726 1149.68 165.887 1155 169L1155 165L1157 165C1157.9 170.468 1155.86 175.741 1162 178L1164 171C1169.51 170.271 1180 170.827 1182 165C1196.12 164.677 1190.19 158.735 1195 149L1198 152L1195 133L1196 133L1197 135L1198 135C1202.82 132.301 1204.85 133.957 1209 137L1210 133L1207 131L1208 130L1216 135C1222.37 130.558 1230.96 124.478 1238.87 130.484C1243.05 133.662 1243.62 138.126 1249 140L1253 136L1258 156L1263 152L1264 152C1267.45 154.363 1270.38 152.471 1274 151L1274 156C1276.17 154.601 1276.24 151.932 1278.2 150.674C1284.32 146.739 1291.71 148.577 1288 138L1291 133L1294 135L1299 133L1301 129L1311 125L1313 129L1314 129L1330 121L1332 150C1334.44 149.035 1336.55 146.596 1337 150L1338 150L1342 145C1343.45 151.767 1349.78 143.5 1353.75 145.75C1356.31 147.199 1355.49 150.566 1358 152C1357.1 145.553 1358.88 137.25 1364 133L1367 138L1375.62 121L1399 100.406L1418 85L1418 88L1419 88C1425.88 84.6504 1430.58 88.3558 1437 91C1435.29 98.5391 1435.65 106.925 1432 114C1428.7 120.397 1421.63 125.109 1419.47 132C1418.37 135.536 1415.11 144.957 1419 147C1414.73 158.391 1411.53 166.256 1402 175L1403 178L1399 179L1399 180L1402 180L1394 196L1391 195L1375 212L1377 217L1373 217L1379 234C1384.42 220.47 1409.39 226.162 1420.17 227.65C1424.21 228.209 1426.98 225.332 1431 227L1432 225L1433 225L1434 228L1430 232L1452 225L1450 236L1466 231L1463 242L1498.83 240.288L1509 241L1514 242C1518.51 245.605 1524.59 242.293 1530 241.918C1546.14 240.8 1560.98 239.245 1576 233L1580 240L1594 237C1594.76 240.569 1596.94 240.11 1600 239L1585 251L1585 252L1591 249C1597.41 252.142 1602.83 247.811 1609 246L1606 252L1613 252L1617 261C1621.09 261.654 1622.57 262.993 1621 267C1624.31 272.734 1626.25 278.562 1633 281C1630.67 288.824 1622.01 295.239 1615 299L1616 302C1612.03 301.556 1610.21 302.057 1609 306L1605 305L1605 306L1608 307L1590 324L1585 323L1585 332L1583 332L1582 328C1576.83 330.213 1568.45 331.443 1564.11 334.603C1558.12 338.973 1563.02 341.35 1568 339L1566 352L1573 355L1571 360L1574 359L1574 371L1579 371C1576.69 377.157 1577.07 381.826 1579 388C1574.82 390.805 1577.35 394.922 1581 397C1578.16 406.169 1588.03 411.234 1596 409L1597 412L1591 416L1615 417L1610 431L1613 436C1604.81 441.346 1602.93 449.561 1612 455C1608.52 459.105 1607.15 462.627 1608 468L1605 467C1600.11 473.557 1591.04 471.521 1589 480L1592 484L1575 482L1574 479L1557 486L1559 490L1553 489C1551.65 494.796 1555.58 494.276 1560 493L1561 497L1561 498L1555 505L1564.98 519.471L1581 527L1578.77 540L1582.48 550L1581 576L1548 569L1549 579L1552 579L1545 583C1546.17 587.917 1548.24 595.806 1541 595C1541.34 602.386 1551.3 602.702 1553.52 609.134C1554.34 611.492 1552.07 613.48 1552.75 615.804C1554.54 621.972 1563.61 626.55 1567.12 632C1579.62 651.441 1590.16 677.389 1589 700L1586 698L1585 705C1580.95 705.64 1579.35 707.15 1578 711C1570.11 706.781 1557.85 700.951 1551.73 694.526C1545.6 688.095 1544.36 678.99 1536 674.344C1530.47 671.268 1517.72 666.867 1514.29 675.005C1512 680.435 1518.78 680.19 1521.43 682.599C1524.26 685.177 1523.75 688.678 1523 692L1532 696L1521 700L1533 703L1536 712L1537 712C1540.95 708.479 1544.2 712.957 1548 715L1548 716L1524 717L1508 728L1495 724L1500 734C1506.57 734.746 1501.89 738.269 1498 739L1509 750L1502 749L1506.37 756.83L1499.75 761.185L1472 760L1474 764L1471 765L1472 759C1467.99 759.855 1467.48 765.054 1464 767.528C1462.13 768.853 1442.37 770.281 1453 775L1452 780L1438 784C1440.4 786.053 1442.77 791.594 1446.02 792.079C1449.13 792.546 1456.36 787.301 1460 786.37C1475.46 782.414 1504.17 780.24 1510 798L1507 797L1506 799L1506 800L1511 804C1507.73 806.178 1507.73 808.22 1508 812L1504 809L1500 811L1500 812C1505.53 824.193 1493.67 849.438 1479 851L1481 859L1466 861L1469 868L1461 874L1462 871L1459 878L1457 877L1452 888C1447.05 886.019 1439.82 887.481 1438 893L1433 891L1441 912L1428 907L1424 911L1424 908L1423 908L1422 908L1422 912L1419 909L1416 913L1411 910L1410 910C1405.47 914.633 1406.01 919.841 1406 926L1405 926L1400 919C1400.22 928.658 1402.48 939.529 1407 948L1396 945L1397 954L1384 947C1388.35 961.191 1372.01 950.539 1365.21 951.883C1362.06 952.507 1357.25 957.707 1355 960L1350 959L1349 959L1347 956L1343 962L1340 961L1339 968L1333 957C1333.21 962.763 1329.1 964.71 1324 966L1319 950C1311.43 948.968 1313.59 935.336 1309.03 930.565C1302.33 923.562 1299.11 934.983 1300 940L1306 939C1300.27 946.19 1304.73 948.491 1306.58 956C1308.53 963.874 1309.01 973.873 1310 982L1306 981L1307 978C1301.37 976.357 1298.63 966.243 1297 961L1296 961L1292 972L1288 949C1284.38 954.161 1284.34 957.526 1277 957L1279 962L1284 961L1281 972L1277 969L1280 968L1280 967C1266.77 959.632 1274.32 944.116 1261 937L1267 948L1263 951L1257 951C1261.16 959.754 1264.15 963.035 1273 967L1273 968C1269.83 972.586 1275.63 986.272 1277 992L1276 992L1268 980L1269 978L1268 977C1262.63 980.52 1267.66 987.331 1259 988L1258 983C1253.32 986.201 1253.46 990.238 1256 995L1260 993L1256 1003L1259 1004L1258 1009L1254 1004C1249.22 1006.63 1249.59 1011.05 1250 1016L1239 1010L1242 1034L1237 1023L1236 1023L1237 1044L1234 1045L1232 1023C1225.08 1019.27 1218.32 1000.96 1217 993L1216 993L1216 996L1211 996L1213 1011C1210.4 1008.09 1205.81 1001.84 1202 1006L1201 1006L1202 1002L1201 1001L1196 1002L1187 973L1186 973L1182 980C1185.47 983.156 1185.14 990.633 1182 994C1179.84 986.428 1174.62 987.887 1169 991L1168 985L1166 985L1166.12 1002L1172 1020C1166.89 1016.39 1161.17 1014 1164 1007C1151.52 1004.02 1163.18 992.048 1154 989C1155.76 992.742 1156.19 994.419 1154 998C1150.84 986.527 1140.22 974.55 1130 969C1128.4 974.428 1128.99 984.233 1130.92 989.575C1133.13 995.664 1137.94 1002.99 1132 1008C1130.69 1001.92 1128.35 1008.5 1129 1012C1122.17 1006.67 1121.24 997.631 1118 990L1095 1005L1078 1024L1081 1025C1079 1028.8 1072.81 1032.27 1078 1036L1082 1030C1082.02 1050.16 1098.4 1053.7 1108.4 1068.1C1110.55 1071.2 1108.78 1076.58 1111.74 1078.97C1114.47 1081.18 1120.72 1080 1124 1080L1158 1080L1276 1080L1920 1080L1920 0L1053 0z"/>
<path style="fill:#040404; stroke:none;" d="M978 9L978 12L980 12L980 9L978 9M1098.33 20.6666L1098.67 21.3334L1098.33 20.6666M888 23L889 24L888 23M1098.67 23.3334L1099.33 23.6666L1098.67 23.3334M832.667 27.3334L833.333 27.6666L832.667 27.3334M850 27L850 28L853 28L850 27z"/>
<path style="fill:#fdfdfd; stroke:none;" d="M1075 28L1075 34L1076 34L1075 28M1101 30L1102 31L1101 30M976 33L976 36L979 35L979 34L976 33z"/>
<path style="fill:#040404; stroke:none;" d="M778.667 35.3334L779.333 35.6666L778.667 35.3334z"/>
<path style="fill:#fdfdfd; stroke:none;" d="M887.333 35.6666L887.667 36.3334L887.333 35.6666M1032 35L1033 36L1032 35M1099.67 35.3334L1100.33 35.6666L1099.67 35.3334z"/>
<path style="fill:#040404; stroke:none;" d="M761 37L762 40L761 37z"/>
<path style="fill:#fdfdfd; stroke:none;" d="M980.667 37.3334L981.333 37.6666L980.667 37.3334M987 37L988 38L987 37M1072 37L1074 40L1072 37M1117 37L1118 38L1117 37M867 38L867 40L869 40L869 38L867 38z"/>
<path style="fill:#040404; stroke:none;" d="M767 39L768 40L767 39z"/>
<path style="fill:#fdfdfd; stroke:none;" d="M984.667 39.3334L985.333 39.6666L984.667 39.3334M1116.67 39.3334L1117.33 39.6666L1116.67 39.3334M903 40L901 45L903 40M993 42L992 46L993 46L993 42M808 43L808 45L810 43L808 43z"/>
<path style="fill:#040404; stroke:none;" d="M952.667 43.3334L953.333 43.6666L952.667 43.3334M683 45L684 46L683 45M735 48L735 52L736 52L735 48z"/>
<path style="fill:#fdfdfd; stroke:none;" d="M792.667 49.3334L793.333 49.6666L792.667 49.3334M763.667 51.3334L764.333 51.6666L763.667 51.3334M933 55L934 56L933 55z"/>
<path style="fill:#040404; stroke:none;" d="M711 63L712 64L711 63M711 67L712 68L711 67z"/>
<path style="fill:#fdfdfd; stroke:none;" d="M736 67L735 74C739.629 72.5771 739.432 69.9581 736 67M732 69L733 70L732 69z"/>
<path style="fill:#040404; stroke:none;" d="M700.667 71.3333L701.333 71.6667L700.667 71.3333z"/>
<path style="fill:#fdfdfd; stroke:none;" d="M736.667 75.3333L737.333 75.6667L736.667 75.3333z"/>
<path style="fill:#040404; stroke:none;" d="M1144 75L1144 76L1147 76L1144 75M1122 79L1123 80L1122 79M1122 87L1123 91L1125 87L1122 87z"/>
<path style="fill:#fdfdfd; stroke:none;" d="M1113 89C1111.83 92.1874 1111.13 95.1714 1115 96L1115 89L1113 89M702 92L702 95L705 94L705 93L702 92z"/>
<path style="fill:#040404; stroke:none;" d="M590 93L591 94L590 93z"/>
<path style="fill:#fdfdfd; stroke:none;" d="M604.333 94.6667L604.667 95.3333L604.333 94.6667M1116.67 95.3333L1117.33 95.6667L1116.67 95.3333M1120 97L1120 99L1122 97L1120 97z"/>
<path style="fill:#040404; stroke:none;" d="M1135 104L1134 106L1136 106L1135 104M506.667 107.333L507.333 107.667L506.667 107.333z"/>
<path style="fill:#fdfdfd; stroke:none;" d="M696 109L691 132L695 133L689 142L693 141C686.788 167.093 705.693 175.31 721 192L723 190L724 190L725 196L728 195L728 200L732 196L732 195L724 183L723 188L716 184L718 180L718 179L709 167L724 177C727.71 177.085 732.432 175.884 735.945 177.076C740.746 178.704 755.799 196.972 758 182L757 182L755 184L756 177L762 179L760 172L760 171L763 169L782 183C787.485 171.617 787.888 162.481 783 151C776.007 166.404 769.59 158.237 757 153.714C744.485 149.218 730.618 141.555 721.213 131.867C714.149 124.592 706.723 110.719 696 109z"/>
<path style="fill:#040404; stroke:none;" d="M694.333 118.667L694.667 119.333L694.333 118.667z"/>
<path style="fill:#fdfdfd; stroke:none;" d="M510 129L510 132L511 132L510 129M689 133L690 134L689 133M688 135L689 136L688 135M1110.67 135.333L1111.33 135.667L1110.67 135.333z"/>
<path style="fill:#040404; stroke:none;" d="M698.667 139.333L699.333 139.667L698.667 139.333M1264 140L1262 149L1263 149C1264.83 145.72 1266.24 143.27 1264 140M696 141L693 143L693 144L696 141M1342 143L1343 144L1342 143z"/>
<path style="fill:#fdfdfd; stroke:none;" d="M564 145L564 148L565 148L564 145M1099 145C1098.43 147.396 1098.53 147.487 1101 148L1099 145M565 149L566 150L565 149M1093 149L1094 150L1093 149M556 153L557 154L556 153M480 155L481 156L480 155M485 157L485 160L486 160L485 157z"/>
<path style="fill:#040404; stroke:none;" d="M704 163L705 164L704 163z"/>
<path style="fill:#fdfdfd; stroke:none;" d="M1111 163L1112 164L1111 163z"/>
<path style="fill:#040404; stroke:none;" d="M705.667 165.333L706.333 165.667L705.667 165.333z"/>
<path style="fill:#fdfdfd; stroke:none;" d="M1105 173C1109.01 171.469 1109.83 168.961 1111 165C1106.77 166.2 1104.29 168.484 1105 173M1155 169L1156 170L1155 169M720 176L722 179L722 176L720 176z"/>
<path style="fill:#040404; stroke:none;" d="M712.667 177.333L713.333 177.667L712.667 177.333z"/>
<path style="fill:#fdfdfd; stroke:none;" d="M1114 177L1112 185C1115.07 182.997 1115.12 180.376 1114 177M1101 178L1099 179L1099 180L1101 178M785 185L785 193L786 193C786.963 189.724 787.937 187.229 785 185z"/>
<path style="fill:#040404; stroke:none;" d="M413 187L413 188L417 188L413 187M418.333 186.667L418.667 187.333L418.333 186.667z"/>
<path style="fill:#fdfdfd; stroke:none;" d="M757 188L756 189L759 193L759 188L757 188M1127 188L1126 196L1128 196L1127 188z"/>
<path style="fill:#040404; stroke:none;" d="M724 189L725 190L724 189M379 191L380 192L379 191z"/>
<path style="fill:#fdfdfd; stroke:none;" d="M1139 191L1140 192L1139 191z"/>
<path style="fill:#040404; stroke:none;" d="M410.333 193.667L410.667 194.333L410.333 193.667M360 197L361 198L360 197z"/>
<path style="fill:#fdfdfd; stroke:none;" d="M478.667 197.333L479.333 197.667L478.667 197.333z"/>
<path style="fill:#040404; stroke:none;" d="M361 199L362 200L361 199M408 199L409 200L408 199z"/>
<path style="fill:#fdfdfd; stroke:none;" d="M480 201L480 204L481 204L480 201M732 203L733 204L732 203M479 205L479 211L480 211L479 205M1374 215L1375 216L1374 215z"/>
<path style="fill:#040404; stroke:none;" d="M452 223L453 224L452 223M320 227L320 228L323 228L320 227z"/>
<path style="fill:#fdfdfd; stroke:none;" d="M1412 227L1413 228L1412 227M330.333 230.667L330.667 231.333L330.333 230.667M474 230C473.872 233.508 474.626 234.907 478 236L474 230M455 235L458 240L455 235z"/>
<path style="fill:#040404; stroke:none;" d="M1581.67 235.333L1582.33 235.667L1581.67 235.333z"/>
<path style="fill:#fdfdfd; stroke:none;" d="M466 237L466 240L467 240L466 237M1574 239L1575 240L1574 239M1511 244L1512 245L1511 244z"/>
<path style="fill:#040404; stroke:none;" d="M1594 246L1595 247L1594 246M1615 247L1616 248L1615 247z"/>
<path style="fill:#fdfdfd; stroke:none;" d="M345 257L348 260L345 257z"/>
<path style="fill:#040404; stroke:none;" d="M327 258L328 259L327 258z"/>
<path style="fill:#fdfdfd; stroke:none;" d="M1615 261L1618 264L1615 261z"/>
<path style="fill:#040404; stroke:none;" d="M1624 269C1624.65 272.054 1626.01 271.936 1629 272L1629 271L1624 269M337 271L338 272L337 271z"/>
<path style="fill:#fdfdfd; stroke:none;" d="M1623 280L1627 284L1623 280z"/>
<path style="fill:#040404; stroke:none;" d="M338 286L338 288L340 288L338 286M328 290L331 293L328 290z"/>
<path style="fill:#fdfdfd; stroke:none;" d="M1600.67 307.333L1601.33 307.667L1600.67 307.333M1604.67 307.333L1605.33 307.667L1604.67 307.333z"/>
<path style="fill:#040404; stroke:none;" d="M306 313L307 317L308 317L306 313z"/>
<path style="fill:#fdfdfd; stroke:none;" d="M1582 327L1583 328L1582 327M317 329L318 330L317 329z"/>
<path style="fill:#040404; stroke:none;" d="M303 331L304 332L303 331z"/>
<path style="fill:#fdfdfd; stroke:none;" d="M302 341L304 344L302 341z"/>
<path style="fill:#040404; stroke:none;" d="M1580 369L1580 373L1581 373L1580 369M283 371L284 372L283 371z"/>
<path style="fill:#fdfdfd; stroke:none;" d="M292.333 371.667L292.667 372.333L292.333 371.667M292 374L292 377L293 377L292 374z"/>
<path style="fill:#040404; stroke:none;" d="M282.667 379.333L283.333 379.667L282.667 379.333z"/>
<path style="fill:#fdfdfd; stroke:none;" d="M288.667 381.333L289.333 381.667L288.667 381.333M292 381L292 384L293 384L292 381z"/>
<path style="fill:#040404; stroke:none;" d="M279 395L279 396L282 396L279 395z"/>
<path style="fill:#fdfdfd; stroke:none;" d="M370 425C370.654 428.054 372.007 427.936 375 428L370 425M376 427L376 428L380 428L376 427M383 427L384 428L383 427z"/>
<path style="fill:#040404; stroke:none;" d="M279 429L279 433L280 433L279 429z"/>
<path style="fill:#fdfdfd; stroke:none;" d="M388 429L391 432L388 429M1609 432L1608 436L1609 436L1609 432z"/>
<path style="fill:#040404; stroke:none;" d="M277 433L276 436L277 433z"/>
<path style="fill:#fdfdfd; stroke:none;" d="M282.333 435.667L282.667 436.333L282.333 435.667M396 435L397 436L396 435M352.667 459.333L353.333 459.667L352.667 459.333M361 461L362 462L361 461M353 463L354 464L353 463M346 465L347 466L346 465M1583.67 475.333L1584.33 475.667L1583.67 475.333z"/>
<path style="fill:#040404; stroke:none;" d="M1594 483L1595 484L1594 483z"/>
<path style="fill:#fdfdfd; stroke:none;" d="M304 489L304 494L305 494L306 489L304 489M308 493L314 489C310.59 489.263 309.099 489.679 308 493M317 489L316 492L317 489M319 491L320 492L319 491M312 497C313.701 502.989 317.47 504.278 323 502L323 499L312 497z"/>
<path style="fill:#040404; stroke:none;" d="M297 498L298 499L297 498z"/>
<path style="fill:#fdfdfd; stroke:none;" d="M326.667 499.333L327.333 499.667L326.667 499.333M300 506L302 508L300 506M1575 525L1576 526L1575 525M288 535L289 536L288 535z"/>
<path style="fill:#040404; stroke:none;" d="M282 551L283 552L282 551M1550 576L1551 577L1550 576z"/>
<path style="fill:#fdfdfd; stroke:none;" d="M326 579L327 580L326 579z"/>
<path style="fill:#040404; stroke:none;" d="M1552 583L1552 586L1553 586L1552 583M1548.33 594.667L1548.67 595.333L1548.33 594.667M284 601L285 602L284 601M282 602L278 603L278 604L282 602z"/>
<path style="fill:#fdfdfd; stroke:none;" d="M304 603L305 604L304 603M308 605L309 606L308 605M309 607L310 608L309 607M1549 611L1550 612L1549 611M310 619L311 620L310 619z"/>
<path style="fill:#040404; stroke:none;" d="M300.667 629.333L301.333 629.667L300.667 629.333z"/>
<path style="fill:#fdfdfd; stroke:none;" d="M308 645L311 648L308 645z"/>
<path style="fill:#040404; stroke:none;" d="M275 661C276.969 665.172 279.404 667.29 284 668L284 667L275 661M240 667L241 668L240 667z"/>
<path style="fill:#fdfdfd; stroke:none;" d="M290.667 671.333L291.333 671.667L290.667 671.333M1512.67 671.333L1513.33 671.667L1512.67 671.333M1509 674L1510 675L1509 674z"/>
<path style="fill:#040404; stroke:none;" d="M1523 681L1524 682L1523 681z"/>
<path style="fill:#fdfdfd; stroke:none;" d="M1500 695L1500 696L1503 696L1500 695M303 720L310 730L311 730L313 725L314 725C315.958 731.568 320.622 734.82 327 731C318.867 724.77 312.802 722.335 303 720z"/>
<path style="fill:#040404; stroke:none;" d="M205 726L206 727L205 726z"/>
<path style="fill:#fdfdfd; stroke:none;" d="M1457 759L1457 760L1468 760L1457 759z"/>
<path style="fill:#040404; stroke:none;" d="M233 760L232 764L233 760z"/>
<path style="fill:#fdfdfd; stroke:none;" d="M1419 763L1420 764L1419 763M238 767L238 770L240 767L238 767M1422 767L1430 776L1430 775L1422 767M1446.67 771.333L1447.33 771.667L1446.67 771.333M240.667 775.333L241.333 775.667L240.667 775.333M232 777L232 780L235 777L232 777M1435 779L1438 782L1435 779z"/>
<path style="fill:#040404; stroke:none;" d="M224 781L225 785L226 785L224 781M228.333 786.667L228.667 787.333L228.333 786.667z"/>
<path style="fill:#fdfdfd; stroke:none;" d="M287 811L288 812L287 811M305 865L302 867L302 868C304.348 867.706 305.951 867.507 305 865z"/>
<path style="fill:#040404; stroke:none;" d="M281 875L281 877L284 877L284 875L281 875z"/>
<path style="fill:#fdfdfd; stroke:none;" d="M612 878L611 883L612 883L612 878M335.667 879.333L336.333 879.667L335.667 879.333M292 883L293 884L292 883M299 883L300 884L299 883M608 883L609 884L608 883z"/>
<path style="fill:#040404; stroke:none;" d="M1454 883L1454 884L1458 884L1454 883z"/>
<path style="fill:#fdfdfd; stroke:none;" d="M612.333 884.667L612.667 885.333L612.333 884.667z"/>
<path style="fill:#040404; stroke:none;" d="M604 896L605 897L604 896z"/>
<path style="fill:#fdfdfd; stroke:none;" d="M589.333 910.667L589.667 911.333L589.333 910.667z"/>
<path style="fill:#040404; stroke:none;" d="M1423 913L1424 914L1423 913M1423 915L1424 916L1423 915z"/>
<path style="fill:#fdfdfd; stroke:none;" d="M350 919L349 921L350 919z"/>
<path style="fill:#040404; stroke:none;" d="M1408 919L1410 921L1408 919M1420 919L1421 920L1420 919z"/>
<path style="fill:#fdfdfd; stroke:none;" d="M1395 920L1395 924L1396 924L1395 920M348 923L349 924L348 923M1299 923L1302 929L1299 923z"/>
<path style="fill:#040404; stroke:none;" d="M1429 925L1430 926L1429 925z"/>
<path style="fill:#fdfdfd; stroke:none;" d="M1399 927L1400 928L1399 927M1296 931L1299 933L1296 931M573 935L574 936L573 935M662 935L664 937L664 935L662 935z"/>
<path style="fill:#040404; stroke:none;" d="M588 936L589 937L588 936M640 940L646 940L645 936L640 940M647 939L648 940L647 939z"/>
<path style="fill:#fdfdfd; stroke:none;" d="M563 943L564 944L563 943M1383 943L1385 946L1385 943L1383 943z"/>
<path style="fill:#040404; stroke:none;" d="M663 945L664 946L663 945z"/>
<path style="fill:#fdfdfd; stroke:none;" d="M367 951L368 952L367 951M1168.67 951.333L1169.33 951.667L1168.67 951.333M1330 951L1331 952L1330 951z"/>
<path style="fill:#040404; stroke:none;" d="M1263 952L1262 954L1264 954L1263 952z"/>
<path style="fill:#fdfdfd; stroke:none;" d="M373 953L372 956L373 953z"/>
<path style="fill:#040404; stroke:none;" d="M572 953L573 954L572 953z"/>
<path style="fill:#fdfdfd; stroke:none;" d="M386.667 955.333L387.333 955.667L386.667 955.333M1049 955L1049 956L1054 956L1049 955z"/>
<path style="fill:#040404; stroke:none;" d="M1263 955L1264 956L1263 955z"/>
<path style="fill:#fdfdfd; stroke:none;" d="M1329 955L1328 960L1329 960L1329 955M1345 955L1346 956L1345 955z"/>
<path style="fill:#040404; stroke:none;" d="M1399 955L1400 956L1399 955z"/>
<path style="fill:#fdfdfd; stroke:none;" d="M384 957L384 960L386 960L386 957L384 957z"/>
<path style="fill:#040404; stroke:none;" d="M582.333 958.667L582.667 959.333L582.333 958.667z"/>
<path style="fill:#fdfdfd; stroke:none;" d="M1247 961L1248 966L1253 963L1247 961M1136 967L1137 968L1136 967M1233 967L1234 968L1233 967M1280 968L1281 969L1280 968z"/>
<path style="fill:#040404; stroke:none;" d="M1285 968L1285 971L1286 971L1285 968M366.667 969.333L367.333 969.667L366.667 969.333z"/>
<path style="fill:#fdfdfd; stroke:none;" d="M1237 972L1242 972C1239.85 969.925 1238.8 969.44 1237 972M1144.67 971.333L1145.33 971.667L1144.67 971.333M1264 971L1266 973L1266 971L1264 971z"/>
<path style="fill:#040404; stroke:none;" d="M1339 971L1340 972L1339 971z"/>
<path style="fill:#fdfdfd; stroke:none;" d="M1159 973L1160 978L1161 978L1159 973M513.333 974.667L513.667 975.333L513.333 974.667M665 974C658.106 979.87 649.306 989.574 646 998C651.878 995.039 666.142 980.904 665 974M518 976L519 977L518 976M1168 977L1170 986L1178 980L1178 979L1172 982L1173 977L1168 977M1258 977L1260 980L1258 977M1262 977L1262 980L1264 980L1264 977L1262 977M1251 978L1251 986L1253 986L1251 978M1161 980L1164 984L1163 980L1161 980M1221.67 983.333L1222.33 983.667L1221.67 983.333M1262 983L1264 985L1264 983L1262 983z"/>
<path style="fill:#040404; stroke:none;" d="M1312.67 983.333L1313.33 983.667L1312.67 983.333z"/>
<path style="fill:#fdfdfd; stroke:none;" d="M645 985L644 988L645 985M1206 986L1204 992L1206 986M406 987L407 988L406 987M547 987L548 988L547 987M985 987L988 992L985 987M979 989L979 993L980 993L979 989M1211 991L1212 992L1211 991z"/>
<path style="fill:#040404; stroke:none;" d="M1268 992L1266 996C1268.65 995.432 1269.35 994.412 1268 992M401 993L402 994L401 993z"/>
<path style="fill:#fdfdfd; stroke:none;" d="M1258 995L1259 996L1258 995M934 997L934 1000L936 1000L936 997L934 997M978 997L979 998L978 997M986 997L980 998L979 998L980 1010L975 1011L978 1024L973 1016C965.718 1020.86 972.42 1035.19 965 1040L966 1033L963 1037L961 1037L959 1025L954 1027L948 1024L944 1019L947.747 1037L944 1060C936.699 1056.26 935.827 1044.4 943 1040L935 1029L931 1032C930.454 1026.4 933.153 1020.17 926 1019C927.938 1025.87 924.383 1027.14 918 1028L921 1023C911.174 1023.49 916.469 1038.75 914.725 1045C913.726 1048.58 911.19 1051.46 910 1055L904 1056L908 1036L902 1035L902 1040L901 1040L899 1026L898 1026L891.883 1034.21L891.333 1042.62L883.856 1051.73L875.738 1054.33L874.183 1064L868.662 1077.7L879 1080L910 1080L1041 1080L1038 1073L1045 1072C1044.11 1068.74 1041.77 1066.22 1040.91 1063C1038.82 1055.2 1041.15 1034.17 1027.02 1043.73C1025.1 1045.02 1024.18 1046.05 1023 1048L1028 1056L1022 1051L1014 1055L1017 1062L1010 1063L1009 1072L1002 1068C1004.66 1059.15 996.72 1057.83 994 1050L998 1052L997 1047L991 1048C994.814 1040.15 1007.88 1015.55 994 1011L996 1016L985 1012L988 1008L986 997z"/>
<path style="fill:#040404; stroke:none;" d="M1154 1000L1155 1001L1154 1000z"/>
<path style="fill:#fdfdfd; stroke:none;" d="M926 1007L927 1008L926 1007M954 1014L953 1016L955 1016L954 1014M941 1015L942 1016L941 1015M966 1015L967 1016L966 1015M1233 1015L1234 1016L1233 1015M1234 1017L1235 1021L1236 1021L1234 1017M951 1019L952 1020L951 1019M954.667 1023.33L955.333 1023.67L954.667 1023.33M720 1027L721 1028L720 1027M881.667 1027.33L882.333 1027.67L881.667 1027.33M1008 1027L1009 1028L1008 1027M1035 1027L1036 1028L1035 1027M783.667 1031.33L784.333 1031.67L783.667 1031.33M901.667 1031.33L902.333 1031.67L901.667 1031.33M1002 1031L1003 1032L1002 1031M1040.67 1031.33L1041.33 1031.67L1040.67 1031.33M1039 1033L1048.83 1055.04L1048 1080L1083 1080L1082 1068C1079.26 1069.02 1077.08 1072.19 1074.32 1072.67C1066.86 1073.97 1064.84 1066.5 1066 1061L1058.64 1064.96L1054.85 1052L1039 1033M794 1035L795 1036L794 1035M1023 1035L1022 1039L1027 1040L1025 1035L1023 1035z"/>
<path style="fill:#040404; stroke:none;" d="M489 1037L489 1040L490 1040L489 1037M494 1037L495 1038L494 1037z"/>
<path style="fill:#fdfdfd; stroke:none;" d="M880 1039L880 1041L882 1039L880 1039M723 1041L723 1045L724 1045L725 1041L723 1041M755 1041L752.353 1052L752.478 1069.94L741 1080L781 1080C785.848 1080 792.185 1081.47 794 1076L787 1066L788 1065L796 1068L789 1049L788 1049C787.159 1059.65 781.399 1065.84 775 1074L781 1060C775.576 1061.94 773.334 1067 771 1072L770 1072L778 1049C773.935 1049.95 771.873 1050.24 769 1047L764 1050L755 1041M861 1044L864 1041L861 1044M785 1043L785 1048L788 1043L785 1043M808 1043L808 1046L809 1046L810 1043L808 1043M816.667 1045.33L817.333 1045.67L816.667 1045.33M1066 1045L1066 1050L1069 1050L1066 1045M719 1047L714 1060L715 1060L719 1047M692 1051L692 1053L694 1051L692 1051M995 1052L996 1053L995 1052z"/>
<path style="fill:#040404; stroke:none;" d="M880 1054L881 1055L880 1054z"/>
<path style="fill:#fdfdfd; stroke:none;" d="M698 1055L698 1056L701 1056L698 1055M813 1056L812 1080L815 1080C815.149 1072.73 817.402 1062.28 813 1056z"/>
<path style="fill:#040404; stroke:none;" d="M788 1059L789 1060L788 1059z"/>
<path style="fill:#fdfdfd; stroke:none;" d="M1068 1061L1069 1062L1068 1061M1085 1061L1086 1080C1089.36 1080 1092.2 1080.72 1093 1077L1090 1078L1090 1065L1093 1062L1085 1061z"/>
<path style="fill:#040404; stroke:none;" d="M792.667 1063.33L793.333 1063.67L792.667 1063.33z"/>
<path style="fill:#fdfdfd; stroke:none;" d="M1076 1063L1077 1064L1076 1063M861 1067L861 1068L864 1071L866 1064L861 1067M871 1065L872 1066L871 1065M743 1067L744 1068L743 1067M1099 1069L1097 1080L1108 1080L1108 1079L1099 1069M858 1080L862 1080L865 1076L864 1072L858 1080M820 1074L818 1080C821.331 1079.29 821.591 1076.76 820 1074M794.667 1075.33L795.333 1075.67L794.667 1075.33M1107 1075L1108 1076L1107 1075M804 1077L802 1080L806 1080L804 1077M827 1080L831 1080L830 1077L827 1080M865.333 1078.67L865.667 1079.33L865.333 1078.67z"/>
<path style="fill:#040404; stroke:none;" d="M1072 1079L1073 1080L1072 1079z"/>
</svg>
