<?xml version="1.0" standalone="yes"?>
<svg xmlns="http://www.w3.org/2000/svg" width="1920" height="1080">
<path style="fill:#fefefe; stroke:none;" d="M0 0L0 1080L1920 1080L1920 0L0 0z"/>
<path style="fill:#020202; stroke:none;" d="M629 157L628 160C614.225 158.794 610.001 185.566 610 196C595.283 183.182 594.81 214.779 595 224L594 224C592.023 220.94 590.096 221.12 588 224L587 224L582 218L582 224L581 224L578 214C576.314 223.921 574.324 229.263 566.35 234.338C564.563 235.476 563.219 238.807 560.877 238.794C556.858 238.771 555.054 231.874 550.318 233.662C546.831 234.979 548.516 240.384 549 243L544 237L536 235L531 235L533 237L531 252C526.231 251.445 518.071 251.744 514.419 255.444C511.316 258.59 512.053 262.516 508 265L510 272L505 276L503 276L492 269L488 271C485.924 276.57 489.699 279.219 492 284L486 279L485 279L485 288L481 287L486 300L481 304L462 298L465 304C461.597 304.729 462.013 306.806 462 310C451.746 301.165 446.159 297.395 433 296L433 303L428 305L431 312C421.289 310.386 423.21 322.663 424.721 329C425.631 332.819 432.45 343.267 431.654 345.867C430.255 350.44 421.552 349 418 349L418 354L402 355L407 364L401 365L418 388L414 389L420 395C413.139 401.358 421.299 411.8 428 415L429 432L406 425C404.635 434.225 412.97 439.591 418.907 445.286C424.306 450.464 428.452 456.77 434 461.91C441.194 468.574 450.826 473.193 452 484L451 484C445.252 470.433 427.629 470.774 418 461L417 461C415.287 469.464 412.416 467.807 405 470C404.928 472.279 403.712 475.589 405.07 477.633C408.706 483.105 414.155 477.938 411 488C406.181 484.67 399.589 485.711 394 487L402 495L402 496L396 495C398.517 505.875 401.953 510.537 412 515L408 517L409 520L395 525L399 530L397 536L417 541C414.061 557.078 431.935 552.946 443 555L454 562L464 563L468 584C463.055 583.199 460.298 585.776 458 590C449.584 586.707 449.482 593.998 443.857 597.953C440.832 600.079 437.425 599.258 434 599L432 610C416.863 605.484 404.21 603.471 389 607L389.813 620.911L386.093 633L383.486 645.169L376 643L377 652C371.95 652.392 370.744 655.085 368 659L368 660L374 668C365.253 671.4 366.55 683.924 376 685L376 688L365.607 690.434L363.41 703.258L347 705L349 712L343 715C345.042 720.07 349.661 723.965 351.393 729C355.426 740.728 338.155 743.387 331 746L342 755L339 776C344.458 778.724 354.956 786.266 357.258 792.039C359.036 796.5 356.084 801.531 358.471 805.776C364.352 816.238 373.721 826.057 380.337 836.033C384.631 842.507 386.02 851.214 390.026 857.406C397.212 868.512 408.927 873.923 420 879L421 879L424 876L428 885C431.925 884.257 438.293 880.764 442 881.603C449.469 883.295 460.759 896.152 467 887L473 894L474 889C484.822 888.496 491.157 893.088 495 879L497 883L505 882L506 879L515 887L516 887C523.153 880.104 524.819 884.778 533 886L534 877L538 878L540 873L541 873L545 880L546 877C550.949 878.152 550.503 875.04 554.274 872.969C561.663 868.911 563.359 867.909 561 858L589.996 838.765L602.174 851.771L616 850.284L629 852C624.932 842.11 635.416 833.388 644 830L635 811L642 810L641 788C645.705 784.593 646.246 768.993 646 763L652 762C651.51 756.31 655.651 751.029 655.188 745.911C654.825 741.895 651.629 739.375 651.931 735C652.236 730.595 655.072 726.447 653.848 722.015C652.321 716.487 639.116 709.33 646.268 702.542C650.999 698.051 655.705 706.468 658.312 708.692C667.059 716.151 675.481 717.48 684.907 722.608C688.546 724.588 690.744 728.49 694 731L694 732L680 739C684.555 743.929 691.103 740.641 695.458 744.51C698.02 746.786 694.966 749.445 695.027 752.093C695.17 758.352 699.748 759.938 705 760L705 768L713 765L712 774C722.171 773.951 725.454 782.534 734 786L732 792C747.522 797.089 731.346 802.541 737.032 811.606C740.007 816.351 746.554 814.935 750.957 816.742C756.3 818.934 759.611 826.637 760 832L754 829C749.993 837.134 754.041 844.283 764 842C765.473 850.906 781.032 845 788 845L790 854C796.266 852.14 801.134 847.65 807.985 851.015C818.447 856.154 824.353 874.445 839 871C840.46 877.209 833.503 887.394 839 891C836.284 895.106 839.46 899.27 844.089 896.342C849.804 892.728 859.384 884.646 863 879L864 879L861 888L872 884.54L892 895C898.796 907.375 906.628 890.284 915 888L915 892C924.58 890.538 927.73 878.554 938 877.572C949.781 876.445 957.372 890.729 968 885L968 888L969 888C972.552 885.823 974.036 881.766 977.299 879.718C981.675 876.97 985.903 881.633 988 875L994 871L996 871L1002 878L1004 875L1008 878C1011.15 872.236 1015.83 877.329 1020.96 875.396C1027.91 872.776 1030.71 866.52 1039 865.454C1044.85 864.704 1052.49 869.748 1055 862L1058 868L1062 868C1063.85 856.109 1075.02 865.941 1080.96 866.353C1085.12 866.641 1087.87 861.746 1091 859.727C1097.05 855.826 1104.7 859.065 1105 850C1113.9 849.787 1124.12 848.074 1130.41 841.254C1135.94 835.251 1137.25 826.91 1145 824L1138 816L1138 815L1178 813C1180.37 816.817 1182.31 815.311 1185.87 817.053C1188.5 818.337 1189.56 821.422 1192.13 822.816C1197.8 825.89 1203.73 817.943 1208 815L1208 820C1212.7 819.773 1216.33 820.343 1219 816L1220 816L1225 820C1229.37 814.655 1239.45 813.096 1246 814C1250.29 807.372 1254.86 814.174 1260.09 814.178C1272.14 814.189 1284 810.008 1296 810L1324 782L1325 782C1329.73 787.522 1336.24 781.169 1343 782L1343 778L1349 778C1347.77 765.248 1354.23 755.912 1360.72 745.857C1362.6 742.951 1362.69 739.3 1365.38 736.884C1369.78 732.926 1376.84 730.921 1382 728L1377.69 718.015L1384.41 706.996L1385.17 682L1387.72 670L1379.1 631.089L1384.28 614L1383 601L1387 602L1388 608L1391 608L1394 597L1398 597L1398 600C1402.76 599.938 1408.54 603.256 1412 599L1416 600L1418 593L1416 581L1422 584L1426 570C1432.1 570.888 1435.17 565.982 1440 572L1443 570L1455 579.682L1466.96 581.434L1488 596L1486 587L1487 586C1499.9 587.679 1500.2 571.787 1496.97 563.004C1494.83 557.171 1489.79 553.207 1488 547C1498.31 545.371 1494.16 537.243 1491 531L1496 532C1496.13 528.122 1496.5 525.928 1500 524L1504.03 512.896L1506.66 491.001L1512 477C1504.12 474.92 1500.16 465.706 1507 460L1502 456C1504 447.276 1508.98 445.496 1517 444C1516.91 432.725 1513.75 424.946 1502 424L1508 405L1478 396L1482 392C1478.05 387.966 1473.17 389.041 1468 390C1467.96 385.681 1472.14 375.867 1469.93 372.564C1463.37 362.744 1443.43 376.113 1437 365L1449 364L1449 361L1445 357L1455 352L1455 351L1450 343L1445 343C1444.51 336.758 1440.37 336.417 1435 338C1436.7 333.249 1435.38 330.563 1432 327C1435.53 323.873 1436.55 320.534 1432 318C1433.24 314.14 1437.41 310.748 1437.93 306.914C1438.4 303.428 1435.42 301.775 1433.58 299.407C1427.44 291.489 1424.68 291.724 1414 292L1418 283C1413.67 280.64 1414.35 278.168 1416 274L1412 273L1406 278L1407 275C1398.24 272.366 1406.47 266.163 1408 261L1405 262L1405 259L1404 259L1398 263L1398 253C1395.61 251.334 1395.88 250.66 1397 248L1397 247C1391.13 242.348 1384.7 245.084 1379 249L1377 244C1356.59 248.242 1364.44 227.115 1367.06 216C1368.08 211.657 1366.39 208.357 1368.64 204.001C1370.66 200.064 1374.32 197.039 1375.99 192.961C1377.51 189.275 1377 184.899 1377 181L1369 182C1363.75 167.948 1355.01 175.054 1348 185L1347 185C1340.85 180.805 1335.06 190.735 1334 196L1325 189C1322.46 192.261 1319.04 196.328 1314.3 195.56C1310.41 194.93 1310.2 190.149 1306 193L1305 193L1302 188L1275 200C1272.88 195.609 1268.12 192.326 1267 199L1266 199L1264 197L1258 207L1259 210L1251 201L1250 201L1249 204L1246 205C1242.41 196.671 1239.77 193.247 1231 195L1223.19 206.001L1221.23 215.188L1207 214L1206 220L1202 219L1205 233C1199.64 237.613 1201.3 251.311 1200 258L1191 250L1190 250C1185.92 260.094 1196.1 276.995 1199 287L1198 287L1188 271L1187 271L1186 275C1181.96 272.176 1172.57 272.669 1179 277L1178 281L1169 277C1168.11 281.732 1168.58 289.753 1166.11 293.776C1164.28 296.771 1158.84 297.643 1159.75 302.018C1160.41 305.216 1164.96 314.982 1167.32 317.275C1172.68 322.496 1182.59 326.766 1183.41 335.089C1184.12 342.235 1178.22 348.973 1175.56 355.17C1172.45 362.405 1172.95 371.067 1176 378L1181 380L1167 384L1170.17 368.618L1159 367L1160 361L1147 364L1150 360C1147.6 352.426 1153.69 353.891 1154.27 347.931C1155.71 333.285 1141.58 332.265 1132 332L1133 309L1104 312L1103 308L1097 308L1100 304L1100 303C1094.82 300.608 1089.13 304.111 1084 306L1084 287C1071.86 280.694 1055.07 292.762 1042 292L1055 281L1049 277C1054.68 276.365 1057.37 273.682 1058 268C1053.04 266.689 1053.05 263.635 1049.42 261.097C1043.16 256.725 1037.66 258.965 1031 260L1032 253C1017.63 251.755 1002.74 256.845 1001 273L976.039 280.289L964 273L964 276L961 276C958.764 271.511 954.796 269.207 950 268L950 272L948 272L946 265L919 269.667L902 267C901.714 280.407 889.79 280.462 887 292L886 292L883 287L882 287L880 292C872.201 293.298 875.126 303.307 868.826 307.353C862.785 311.231 860.423 301.634 855.13 301.636C851.965 301.637 851.036 306.514 848.772 308.142C845.723 310.335 841.555 309.99 838 310L835 299C827.402 296.577 824.499 306.958 817 302C811.734 305.597 805.072 306.216 806 298L803 297L803 293L802 293L798 300L797 300L798 295C788.419 289.357 792.536 284.064 793 275C786.066 279.171 782.462 291.844 779 299L778 299L778 289L774 294C759.995 286.484 768.035 279.643 772 268C767.362 267.339 765.453 269.777 764 274L763 274L764 265L751 280L751 274L748 275L747 263L744 264L743 261L739 262L739 252C734.113 253.723 732.203 251.151 728 249L724 259L723 255C716.987 258.81 714.204 265.432 712 272L710 272L708 261L694 274L694 271L693 271L692 271L690 276L684 275L684 268L679 272C678.109 267.649 676.538 265.854 672 266L673 255L671 252L667 254L666 225L660 227L657 214L656 214C656.75 204.501 668.395 176.234 656 172L654 161L652 161L650 165L648 163C642.36 165.783 642.017 170.195 642 176L640 176C639.956 171.102 639.816 166.262 634 166L629 157z"/>
<path style="fill:#fefefe; stroke:none;" d="M1260.33 208.667L1260.67 209.333L1260.33 208.667M655 214L655 218L656 218L655 214z"/>
<path style="fill:#020202; stroke:none;" d="M575.333 216.667L575.667 217.333L575.333 216.667M497.667 255.333L498.333 255.667L497.667 255.333z"/>
<path style="fill:#fefefe; stroke:none;" d="M1055 271L1056 272L1055 271M1046.67 279.333L1047.33 279.667L1046.67 279.333M777 299L776 301L777 299M486.667 301.333L487.333 301.667L486.667 301.333M1151 347L1152 348L1151 347z"/>
<path style="fill:#020202; stroke:none;" d="M1156 347L1157 348L1156 347z"/>
<path style="fill:#fefefe; stroke:none;" d="M430 426L430 428L432 428L430 426M1224.67 447.333L1225.33 447.667L1224.67 447.333M1224 467L1236 464C1232.99 451.493 1225.47 457.196 1224 467z"/>
<path style="fill:#020202; stroke:none;" d="M404.667 467.333L405.333 467.667L404.667 467.333z"/>
<path style="fill:#fefefe; stroke:none;" d="M417 468L422 472L417 468M1183 488C1194.92 492.746 1187.52 498.478 1190 508L1200 508C1202.25 505.672 1205.92 505.11 1207.84 502.567C1212.95 495.782 1209.28 484.561 1210 477C1199.12 477 1186.96 475.394 1183 488M1211 499L1212 506L1221 501L1221 510C1230.35 501.741 1219.49 495.975 1211 499M400 505L403 504L400 505M1463 575L1464 576L1463 575M447 599L448 600L447 599z"/>
<path style="fill:#020202; stroke:none;" d="M679 741L680 742L679 741z"/>
<path style="fill:#fefefe; stroke:none;" d="M1160 790L1166 783C1161.14 783.368 1159.1 785.043 1160 790z"/>
<path style="fill:#020202; stroke:none;" d="M1157.33 822.667L1157.67 823.333L1157.33 822.667z"/>
</svg>
