<?xml version="1.0" standalone="yes"?>
<svg xmlns="http://www.w3.org/2000/svg" width="1920" height="1080">
<path style="fill:#fdfdfd; stroke:none;" d="M0 0L0 1080L824 1080L823 1049L822 1049L817 1056L818 1041L815 1044L814 1044C806.666 1033.83 805.73 1052.52 805 1056L803 1056L802 1049C789.299 1045.95 799.205 1036.64 801 1029L794 1029L791 1033L788 1025L787 1025L782 1027L782 1042C777.264 1039.14 775.718 1040.38 772 1044C771.517 1036.64 770.652 1034 774 1027C770.839 1028.66 768.377 1031.95 764.911 1032.95C758.259 1034.88 754.597 1032.08 749.085 1037.73C744.592 1042.34 745.132 1046.61 742.597 1052.01C738.614 1060.5 730.831 1065.79 722 1068L728.906 1057.79L728.312 1045.71L733 1029L726 1032C729.498 1026.38 740.924 1017.24 740 1011L738 1011L736 1014L732 1009L726 1028L723 1028L723 1023C717.78 1024.49 711.728 1025.93 707 1023L706 1023L701 1028C699.327 1017.72 714.585 1014.02 717 1004L715 1004L715 1002L719 1000L719 998L715 997C719.284 991.378 732.693 982.293 731 975L728 976L727 972L729 973L729 972L727 971L726 973L725 973L717 961L695 970L701 961L700 960L680 970L684 963C672.219 962.439 671.265 979.046 663 985L668 970L663 972C666.773 966.651 674.392 958.212 675.813 952C676.896 947.265 672.411 942.51 669.908 939C661.868 927.722 646.419 923.84 642 910C635.048 909.867 631.805 898.526 629.575 893C626.231 884.715 617.028 876.293 608 875L607 881L590 873C593.971 885.527 593.718 899.244 592 912L591 912L590 909L588 909L587 912C591.252 916.047 591.882 922.322 592 928L583 919L582 937L579 936L577 944L572 935L573 942L571 942L565 932L564 932C560.873 937.614 559.177 944.873 562.012 951.039C563.572 954.431 571.105 961.341 566.396 965.212C564.351 966.893 559.581 965.609 557 966L554 961L553 961C547.498 967.378 553.489 979.822 553 988L540 976L539 983L537 982L535 985L524 966L523 970L518 962L517 962L516 978L515 978L512 971L508 982L506 982L506 976L495 984L495 972C488.476 973.44 488.539 975.892 489 982C478.641 981.841 478.32 1000.63 478.749 1008C478.964 1011.69 481.245 1015.41 478 1018L480 1020L479 1025L464 1019L465 1021L464 1021L442 1019L441 1018L435 996L430 1000L429 1000L428 995L427 995L426 998L424 998L423 994L413 1000L412 1000L408 998L415 988C412.37 982.043 409.367 979.691 403 982L407 963L404 960L411 960L411 959L408 961L407 961C403.749 958.096 394.757 968.449 394 972L392 945L391 945L380 950L381 945L375 948L377 943L376 933C385.964 929.047 386.964 917.419 387 908L386 908C382.453 915.107 382.97 922.107 378.096 928.995C372.916 936.316 364.562 937.722 364 948L357 949L357 945L356 945L353 948C354.43 945.5 359.922 936.821 355 936L356 933L358 934L360 932L360 931L359 906L358 906C357.706 909.801 357.053 911.85 353 911L352 911L345 915L353 889L350 891L349 887L348 887C347.255 894.221 341.5 899.934 334 900C338.177 895.346 350.906 866.114 336 872L336 865L326.671 875.512L306 879L299 894L296 884L300 885L301 881L295 883L309 865C303.987 863.336 301.826 864.497 298 868L299 859C291.286 859.729 293.431 856.812 292 851L298 852L318 829L299.264 827.014L292.896 817.747L284 820L292 812L292 809C287.121 805.731 283.833 804.616 278 806C279.684 799.412 278.709 794.585 271 794C268.961 788.201 261.967 790.555 257 790L258 788L248 786L248 785L251 784L251 779L244 772L244 771L256 764L255 757L250 759C251.763 753.979 254.936 752.7 260 752L257 743C254.997 743.33 252.39 743.993 251.235 741.667C249.344 737.863 252.847 734.296 248.721 730.855C242.88 725.985 231.252 731.692 230 721C234.95 724.403 245.832 721.256 250 717L247 716L246 704C253.533 707.269 260.919 705.796 268 709.113C273.682 711.774 277.797 718.506 283.29 720.365C292.075 723.338 302.853 722.673 308 732L330 732C322.148 724.951 314.707 721.371 305 718C305.138 709.294 289.894 707.867 286 701L272 694L272 693L275 692L269 683L259 680L259 679C265.815 677.601 269.499 679.259 276 679.333C285.098 679.436 288.549 675.222 296 684C301.072 675.499 301.029 670.238 295 663L314 664L307 651L304 652L300 643C305.529 643.714 311.767 652.774 316 647L318 647L320 652C326.971 640.059 302.815 634.232 306 621L319 627L320 623L298 612L301 606L318 610C317.691 607.023 317.863 604.776 321 604L319 599C323.452 600.066 337.537 607.826 339 601L345 601L351 606C350.816 601.912 348.975 600.853 345 601L345 595L326 587L329 577C321.982 574.087 317.039 569.354 313 563L316 562C312.625 554.871 306.459 547.897 299 545L300 541L303 543L304 543L308 540L297.765 532.891L286 511C291.865 511.837 297.547 511.396 302 516C307.416 515.403 309.809 517.864 313 522L314 522L318 517L318 513C323.682 515.83 328.914 521.471 335.895 520.281C348.658 518.105 334.531 505.974 330 504L330 503L343 495L340 494L340 496L325 496L325 493C338.222 489.442 324.853 485.957 320 484L320 483L365 462L365 461L357 454C359.71 448.006 365.573 444.583 372 444L372 441C366.572 440.017 362.882 437.664 362 432L385 428L385 427L352 417C354.258 433.167 330.648 440.298 317.961 441.569C312.419 442.125 308.614 445.693 304 441L308 441C305.78 436.796 301.721 433.744 297 433L297 432C304.403 429.309 307.111 426.558 309 419L306 420L306 411C301.427 410.73 291.944 410.178 298 404C295.998 396.2 301.533 387.8 305 381L307 384L309 362L306 363L313 356L313 355L308 349L311 348L310 345L315 344L320 334L323 336L324 327L321 328C320.641 318.213 333.213 321.241 336 313L340 314C339.998 304.855 342.607 294.469 353 300L349 283L346 275L354 280L354 279C350.193 275.57 348.703 271.353 352 267L349 253L348 253L347 255C342.838 250.266 338.427 247.941 339 241L347 246L346 235C349.445 237.888 351.643 239.744 356 238L354 242L358 244L363 239L356 225L369 228L370 222L371 222C373.168 225.872 375.877 225.738 380 225L385 233L386 233L381 212L386 213C387.519 207.208 390.199 209.016 395.001 208.231C406.715 206.315 410.224 213.196 419 220L424 216L419 203C427.12 208.772 434.774 224.27 437 234L438 234L438 229C441.811 232.741 440.839 235.452 439 240C444.092 238.193 444.202 233.789 444 229L441 227L442 226L451.57 232.233L461 247L458 235L462 234L460 227L472 229C472.83 233.54 474.369 236.014 479 237L471 218L472 220L473 220L477 217C482.747 205.183 485.36 192.98 487 180L490 180L491 184L492 184C488.629 173.366 483.709 165.062 495 159L499 164L496 153L497 153L501 156L502 141L507 143L509 139L511 139L512 144L517 136L523 151L524 151L526 128L539 149L538 147L542.564 155.455L551.397 164.001L557 184L558 184L554 165L558 166L559 159L560 159L561 165L562 165L561 153L567 161L568 161C567.224 155.236 565.212 151.357 570 147L570 140L572 142L573 142L582 139L586 148L587 148C586.27 138.739 586.506 134.671 597 136C600.205 129.828 596.258 128.036 595.15 121.996C594.164 116.629 595.108 111.266 594 106L599 112L600 109C604.306 108.134 606.744 101.277 606.788 97C606.848 91.1433 603.592 86.1486 604.17 80C605.31 67.8633 610.888 57.1791 612 45L615 46L619 35L621 36L627 12L630 13L635 0L0 0z"/>
<path style="fill:#040404; stroke:none;" d="M635 0L630 13L627 12L621 36L619 35L615 46L612 45L604.083 79L606.833 97L599 112L594 106L597 136C586.341 133.652 585.822 138.677 587 148L586 148L582 139L573 142L572 142L570 140L570 147C564.442 150.412 566.879 155.567 568 161L567 161L561 153L562 165L561 165L560 159L559 159L558 166L554 165L558 184L557 184L550.972 162.019L541.938 153.857L538 147L539 149L538 149L526 128L524 151L523 151L517 136L512 144L511 139L509 139L507 143L502 141L501 156L497 153L496 153L499 164L495 159C482.836 163.491 487.908 174.302 492 184L491 184L490 180L487 180L477 217L473 220L471 218L479 237C474.836 235.507 473.252 233.178 472 229L460 227L462 234L458 235L461 247C455.146 237.315 451.697 231.718 442 226L441 227L444 229C443.246 233.644 443.428 237.379 439 240C441.411 235.786 442.68 231.964 438 229L438 234L437 234C435.844 225.161 427.178 206.871 419 203L424 216L419 220C411.738 212.163 405.901 205.302 395.001 207.661C390.074 208.728 386.941 206.601 386 213L381 212L386 233L385 233L380 225L371 222L370 222L369 228L356 225C357.347 229.889 358.36 236.654 363 239L358 244L354 242L356 238L346 235L347 246L339 241C338.255 244.999 342.707 256.976 348 253L349 253L352 267C348.062 270.441 350.006 276.55 354 279L354 280L346 275L349 283L353 300C342.83 292.436 339.306 305.541 340 314L336 313C332.724 318.83 326.854 317.887 322.438 321.741C319.574 324.24 320.565 327.062 324 327L323 336L320 334L315 344L310 345L311 348L308 349L313 355L313 356C309.344 357.77 306.727 358.798 306 363L309 362L307 384L305 381C300.858 386.721 295.064 397.128 298 404C289.685 409.409 302.042 410.908 306 411C305.585 414.532 304.33 419.088 309 419C306.631 426.221 303.72 428.555 297 432L297 433L308 441L304 441C307.443 446.31 312.995 442.47 318 441.965C330.334 440.721 356.119 433.253 352 417L385 427L385 428L362 432C362.468 438.157 366.116 440.393 372 441L372 444C365.572 444.299 358.831 447.347 357 454L365 461L365 462C348.258 465.829 333.892 473.069 320 483L320 484C324.821 486.536 337.065 488.151 325 493L325 496L340 496L340 494L343 495L330 503L330 504C334.648 506.631 348.079 519.71 333.985 520.038C327.83 520.181 323.55 514.841 318 513L318 517C314.701 517.598 313.933 518.66 314 522L313 522C310.425 517.094 307.589 514.851 302 516C298.743 510.914 291.47 511.021 286 511L298.519 534.567L308 540L304 543L303 543L300 541L299 545L316 562L313 563C316.013 569.848 321.675 575.116 329 577L326 587L345 595L345 601C348.654 601.056 350.588 602.259 351 606L345 601L339 601C335.141 606.78 324.487 599.944 319 599L321 604C317.498 604.682 317.167 606.694 318 610L301 606L298 612L320 623L319 627L306 621C301.599 634.457 324.908 639.378 320 652L318 647L316 647C310.555 651.607 306.342 642.58 300 643L304 652L307 651L314 664C306.937 662.625 302.122 660.409 295 663C299.879 671.529 300.128 674.304 296 684C290.358 674.237 284.318 678.765 276 678.857C269.449 678.93 265.794 676.88 259 679L259 680L269 683L275 692L272 693L272 694L286 701L305 718L330 732L308 732C304.626 721.922 291.267 723.148 283.29 719.897C278.061 717.765 274.477 711.74 269 709.109C262.196 705.84 253.426 705.997 246 704L247 716L250 717C244.981 720.61 235.696 723.721 230 721C230.481 732.196 242.92 726.064 248.706 731.562C252.313 734.989 248.699 739.079 251.069 742.394C252.524 744.429 255.096 743.507 257 743L260 752C254.724 752.435 251.159 753.438 250 759L255 757L256 764L244 771L244 772L251 779L251 784L248 785L248 786L258 788L257 790C262.288 791.146 267.775 788.479 271 794C278.234 795.105 278.92 799.663 278 806L292 809L292 812L284 820L292.896 818.326L298.884 827.144L318 829L298 852L292 851C292.762 857.232 290.84 860.424 299 859L298 868L309 865L295 883L301 881L300 885L296 884L299 894C303.924 889.976 305.506 885.204 306 879L308 881L326.671 876.307L336 865L336 872C350.966 868.426 337.374 894.829 334 900C342.008 900.362 347.598 894.724 348 887L349 887L350 891L353 889L345 915L352 911L353 911C357.149 913.607 357.881 909.593 358 906L359 906C360.293 914.525 353.598 923.578 360 931L360 932L358 934L356 933L355 936C360.328 936 353.7 945.583 353 948L356 945L357 945L357 949L364 948C365.073 938.308 373.108 936.866 378.096 929.981C383.269 922.84 383.075 915.84 386 908L387 908C385.587 917.904 385.659 927.283 376 933C375.424 937.014 372.93 940.329 377 943L375 948L381 945L380 950C384.684 950.588 388.522 949.083 391 945L392 945C393.835 952.168 388.053 968.515 394 972C396.351 968.181 402.569 960.687 407 961L408 961L411 959L411 960L404 960L407 963L403 982C409.267 980.442 411.686 982.819 415 988C410.788 990.153 408.889 993.406 408 998L412 1000L413 1000L423 994L424 998L426 998L427 995L428 995L429 1000L430 1000L435 996L441 1018L442 1019L465 1021L464 1019L465 1019L479 1025L478 1018C482.839 1016.94 478.9 1011.07 478.778 1007.39C478.525 999.774 479.033 982.967 489 982C488.82 976.216 489.149 973.861 495 972L495 984C502.095 984.436 501.934 980.784 506 976L506 982L508 982L512 971L515 978L516 978L517 962L518 962L523 970L524 966L535 985L537 982L539 983L540 976L553 988L553 961L554 961L557 966C559.603 965.899 565.105 967.548 566.972 965.357C571.104 960.508 563.778 954.027 562.115 950C559.622 943.963 561.556 937.649 564 932L565 932L571 942L573 942L572 935L577 944L579 936L582 937L583 919L592 928C591.956 922.637 591.924 915.103 587 912L588 909L590 909L591 912L592 912C594.398 900.375 594.712 884.167 590 873L607 881L608 875C615.958 877.004 625.321 884.497 628.753 892.001C631.451 897.9 634.115 910.306 642 910C644.704 923.976 662.047 928.973 669.908 940C672.021 942.964 675.748 946.803 675.697 950.714C675.618 956.727 665.766 966.237 663 972L668 970L663 985C672.888 980.2 671.509 963.201 684 963L680 970L700 960L701 961L695 970L717 961L725 973L726 973L729 972L729 973L727 972L727 973L728 976L731 975C731.7 982.925 718.505 990.068 715 997L719 998L719 1000L715 1002L717 1004C713.791 1013.16 698.348 1017.92 701 1028L706 1023L707 1023C710.856 1026.81 718.334 1025.06 723 1023L723 1028L726 1028L732 1009L736 1014L738 1011L740 1011L726 1032L733 1029L728.026 1046L728.59 1057.48L722 1068C742.288 1064.16 739.047 1047.27 751.59 1036.07C755.761 1032.35 760.014 1034.56 764.911 1033.36C768.51 1032.47 771.161 1029.19 774 1027C769.712 1033.69 771.057 1036.71 772 1044C776.031 1041.39 777.212 1040.1 782 1042L782 1027L787 1025L788 1025L791 1033L794 1029L801 1029C798.291 1036.16 788.677 1047.2 802 1049L803 1056L805 1056C806.21 1051.76 805.491 1036.25 814 1044L815 1044L818 1041L817 1056C820.852 1054.82 821.475 1052.86 822 1049L823 1049L824 1080L826 1080C826.973 1074.26 828.315 1068.71 833 1065L831 1072L840 1074L850 1051L846 1072L848 1072L851 1065L852 1065L852 1078L853 1078L862.667 1054L863 1038C867.246 1046.23 867.45 1050.74 865 1060C877.793 1059.45 869.892 1037.77 884 1037L884 1042C888.402 1039.51 887.858 1033.58 887 1029C891.799 1029.83 894.68 1029.6 897 1025L900 1025C901.732 1027.67 902.942 1027.71 906 1027L912 1038L913 1038C915.17 1028.01 913.304 1019.05 920 1010L920 1020L928 1010L929 1010C932.097 1018.53 934.217 1030.86 944 1034C943.806 1029.5 937.386 1002.45 950 1014C952.155 1012.94 954.648 1010.28 957.089 1010.16C962.458 1009.89 972.531 1013.57 967 1003L972 1004L971 988L972 988L974 992L976 992L979 985L982 986L980 975L986 973C986.059 978.006 988.53 980.491 989.691 985.039C992.582 996.377 995.311 1010.18 1006 1017L1004 1042L1006 1042L1008 1033L1009 1033C1009.58 1038.64 1012.67 1058.22 1020.54 1043.89C1022.94 1039.52 1022.71 1033.75 1025 1029L1026 1036C1037.62 1038.1 1040.02 1047.42 1044 1057L1048 1056L1032 1026C1039.22 1023.06 1042.79 1016.24 1045 1009L1046 1009C1044.28 1022.94 1046.96 1034.03 1054.01 1046C1056.96 1051 1059.86 1056.97 1066 1058C1065.86 1052.53 1063 1046.76 1068 1043L1072 1052L1068 1053L1068 1058C1077.31 1051.95 1077.77 1055.39 1087 1058C1088.64 1045.03 1073.19 1042.08 1069 1033L1063 1032L1063 1030L1064 1029L1072 1032L1067 1012L1072 1012L1076 1005L1078 1012C1087.94 1007.83 1094.89 1000.03 1103 993.246C1105.75 990.944 1109.97 985.715 1113.96 986.176C1122.26 987.135 1116.95 999.295 1126 1000L1124.96 971L1131 961L1133 961L1137.62 975.772L1150 987L1154 984L1155 984L1159 992L1163 991C1158.97 983.451 1152.07 969.341 1162 964L1158 957L1159 956L1169 957L1171 967L1180 969L1178 976L1183 976C1184.05 969.464 1187.54 971.917 1192 974C1196.09 968.671 1195.27 979.875 1195 982L1200 980L1200 984L1204 984L1204 980L1209 982L1212 979L1224 1001C1227.37 993.689 1222.88 988.611 1220 982L1232 993L1230 975C1218 968.166 1210.96 957.814 1216 944L1223 962L1228 962L1229 960L1229 959C1226.32 954.939 1230.71 952.864 1232 949L1236 956L1240 956C1239.48 948.614 1242.89 940.006 1247 951L1249 951C1251.51 942.504 1249.2 933.005 1256 926L1256 930C1258.27 929.243 1260.69 926.321 1263.1 926.537C1267.13 926.897 1269.14 931.837 1273.04 932.698C1275.81 933.308 1278.25 931.733 1280.96 933.175C1283.73 934.651 1285.83 940.795 1288.99 940.793C1293.45 940.791 1292.33 932.619 1292.28 930C1292.15 924.03 1288.18 922.721 1286.72 917.791C1285.3 912.956 1285.91 905.379 1285 900C1288.28 903.991 1290.17 909.983 1296 908C1298.6 915.064 1299.75 918.903 1308 919L1316 930L1320 932L1328 926C1328.23 930.931 1329.21 934.692 1333 938L1332 935C1335.94 937.336 1342.61 944.126 1345 937L1351 940L1350 933L1365 933L1373 940L1377 926C1376.97 930.639 1382.17 925.114 1383 923L1384 923L1384 927L1394 932L1391 919L1393 920L1393 909L1395 911L1396 911L1395 896L1400 900L1403.6 889.461L1410.73 888.678L1421 877L1437 880L1433 872L1441 872L1441 870L1439 867L1441 869L1455 860L1451 855L1458 856L1458 849L1464 848L1461 844L1461 843C1467.68 836.82 1481.56 830.48 1483 821C1479.86 819.106 1479.94 817.364 1481 814L1470 812L1485 804L1487 791L1482 792L1481 789C1472.26 788.627 1451.06 782.031 1450 796C1444.85 793.014 1442.72 788.714 1438.61 784.749C1427.74 774.253 1418.88 766.959 1414 752L1415 752C1421.14 767.824 1428.41 773.191 1443 780L1441 767L1451 768L1453 755L1467 756.957L1492 756L1493 753L1488 746L1492 741C1486.98 740.482 1483.75 738.881 1482 734L1493 734L1485 721C1497.39 718.335 1516.01 721.819 1525 711L1514.74 701.599L1496 693L1519 692C1514.89 687.549 1509.7 688.001 1504 688L1517 684L1517 683C1514.02 681.032 1508.24 680.381 1506.41 677.277C1502.42 670.515 1513.13 663.078 1519.04 662.149C1530.84 660.294 1542.68 668.435 1547 679L1567 692C1571.11 684.876 1577.53 684.45 1574 675L1580 676C1578.76 660.834 1570.05 640.288 1561.08 628.001C1557.38 622.935 1551.03 620.147 1547.86 614.981C1545.87 611.739 1547.17 608.284 1545.8 605.005C1543.51 599.509 1533.06 597.935 1540 592L1537 586C1547.48 582.644 1541.45 577.53 1539.5 570.13C1538.66 566.936 1539.98 562.353 1540 559L1570 564L1564 556L1564 555L1570 556L1570 552L1573 552L1571 537L1568 536L1568 535C1569.72 534.044 1571.98 532.885 1570.83 530.436C1566.55 521.357 1550.64 512.124 1554 500L1554 499C1551.25 495.241 1546.82 486.028 1550.66 481.599C1553.34 478.502 1556.36 479.45 1558 475L1578 478L1578 477L1577 471C1584.35 470.995 1595.63 470.036 1595.63 460.039C1595.63 456.866 1592.14 453.69 1592.76 450.742C1593.42 447.571 1597.83 442.437 1600 440L1600 439L1592 436L1592 431L1598 432L1599 425L1603 421C1591.46 422.457 1583.23 416.955 1577 407L1570 403C1573.32 401.901 1573.74 400.41 1574 397C1563.23 393.184 1575.91 377.416 1568 377L1567 363L1563 362L1564 359L1559 360L1562 353L1558 354C1557.65 349.502 1555.92 348.022 1552 346L1552 348L1547 325L1541 324L1537 330L1533 324L1542 319L1546 314L1546 318L1547 318C1554.12 306.249 1577.65 311.782 1578 293L1575 294C1573.37 289.563 1571.13 288.903 1567 291L1567 286C1571.07 284.865 1571.45 280.848 1572 277L1563 278L1566 274C1563.87 265.071 1555.76 265.612 1548 265L1550 262L1550 261L1553 255L1553 254L1525 249.605L1509.29 253.954L1475 256C1471.14 251.579 1463.03 255.561 1458 256C1459.24 251.246 1458.77 249.588 1454 248L1460 238L1442 244L1444 233L1420 242C1427.4 229.167 1419.42 230.318 1408 228L1409 225C1400.96 226.844 1383.88 226.634 1379 234L1375 232L1377 227L1376 223L1371 224L1373 211C1381.63 207.462 1391.31 197.27 1395.51 188.982C1397.43 185.193 1397.26 180.595 1399.46 177C1402.71 171.692 1408.99 167.103 1410.66 161C1412.98 152.545 1410.17 143.194 1412.87 135C1415.47 127.114 1421.84 120.952 1424.64 113C1425.8 109.721 1427.36 104.548 1423 104C1418.84 96.0656 1406.2 97.3362 1400.04 102.376C1391.55 109.321 1381.88 116.05 1375.39 125C1370.39 131.888 1370.3 141.036 1360 141L1356.4 151.427L1349 156L1348 156L1348 151C1341.66 150.221 1337.12 150.793 1336 158L1335 158L1334 155L1327 158L1324 133L1317 140C1314.21 135.701 1310.95 134.67 1306 134C1303.54 138.423 1300.06 140.206 1295 140L1280 162L1278 161L1277 164L1275 162L1272 170L1265 166L1261 171L1253.69 157.946L1253 146L1250 151L1247 151C1244.39 141.945 1240.13 138.99 1231 138L1228 145L1215 139L1214 148L1208 142L1202 142L1201 156L1200 162L1197 161L1195 174L1194 174C1191.63 171.383 1189.94 173.158 1189 176L1150 186L1151 170L1138 192L1139 181C1129.56 184.063 1131.79 199.537 1121 200L1125 182L1120 184L1124 181L1121 173L1111 187L1110 186L1112 177L1104 177L1098 182L1106 161L1110 160L1110 159L1097 156L1097 155L1101 154L1096 149L1095 152L1090 150L1093 144L1101 146L1102 146C1098.11 135.171 1110.59 129.742 1109 119C1115.15 116.366 1116.42 108.403 1109.17 112.858C1102.15 117.17 1098.75 125.841 1092 130C1093.67 122.07 1098.73 117.362 1101.5 110C1103.18 105.52 1101.13 100.63 1102.7 96.0895C1105.34 88.4173 1109.46 82.3283 1106 74L1105 74L1104 78L1102 78C1100.32 67.6959 1097.11 60.4401 1086 66C1085.95 63.3581 1087.52 57.7127 1084.57 56.1759C1080.84 54.2333 1078.83 61.4851 1076.61 63.1072C1067.74 69.588 1059.88 70.9 1065 84L1061 80L1054 88L1061 63C1068.54 58.7046 1062.01 50.0131 1062 43C1057.91 44.4321 1057.54 48.0118 1057 52L1056 52L1051 30L1046 37C1039.72 31.3164 1037.04 43.8281 1033 48C1031.95 45.5111 1030.52 42.3518 1028 45L1020 36C1024.2 35.2771 1025.26 33.0363 1026 29C1021.13 28.1837 1019.62 30.2334 1020 35L1015 36L1015 30L1012 32L1016 28L1016 15L1011 12C1011.21 22.4417 1008.34 30.7012 1004 40L1002 37L1000 37L987 54L988 47C981.888 48.7693 980.478 68.1086 975 64L973 69L971 69L971 55C964.512 57.3256 966.568 63.9958 958 62C956.269 70.0739 951.79 71.3459 946 76L946 63C935.08 56.8909 935.281 73.6589 927 65L922 74L919 69L912 72L918 68C916.009 64.5715 913.763 64.8237 910 65L911 68L907 68C908.337 60.4015 904.667 57.0622 898 54C898.214 48.3372 894.4 45.4099 889 45C890.603 52.0955 893.621 56.6413 891 64C889.899 61.916 881.956 46.7705 878.171 53.4268C876.806 55.8289 879.508 60.9439 879 64L874 57L863 56L862 51C858.101 52.0193 857.08 50.161 855 47L854 47L852 57L845 51L846 69L840 66C840.616 55.2218 831.266 59.0651 831 68C824.574 66.9971 823.843 62.0106 821 57L820 57L818 73L813 74L812 67L811 67L810 80C806.762 77.307 803.497 71.8518 799.758 70.1759C795.834 68.4167 796.764 73.2925 798 75L798 76L793 78C789.701 67.3121 776.555 73.6699 769 74L770 71L767 70L766 76L761 73L765 92C756.867 86.2256 755.136 97.1216 759.193 102.393C760.812 104.498 769.188 106.044 772 107L772 108C768.417 108 762.896 105.902 762 110C756.233 106.513 731.16 95.0145 728 104L735.278 107.25L739 115L739 116L722 113C724.565 118.837 726.356 121.814 733 123L733 124C727.767 127.973 733.758 133.316 738 135C738.217 139.638 742.474 141.609 745.594 144.754C754.85 154.082 775.304 165.228 783 151C784.77 155.231 787.633 159.241 788.011 163.911C788.552 170.61 785.625 176.003 787.235 183C788.691 189.322 792.651 197.231 787 202C785.26 196.264 779.352 187.395 774.583 183.611C771.72 181.339 766.466 180.199 767 185L769 183L770 188C764.542 191.719 764.468 196.129 766 202L752 196C751.329 187.589 745.774 193.736 741 191C732.08 194.706 739.492 199.384 740 206C735.445 204.434 733.792 205.077 730 208C729.283 204.991 728.45 201.699 725 203C721.782 190.64 705.127 178.065 694 173L695 177L694 177L688 171C692.407 159.429 685.824 148.919 685.436 138C685.017 126.225 691.052 111.395 694 100L691 100L680 74L680 73L682 71L679 73L672.684 51L676.753 34.0393L674.067 24.9854L673 0L666 2L665 2L664 2C660.486 -2.02161 650.091 0 645 0L641 8L640 0L635 0z"/>
<path style="fill:#fdfdfd; stroke:none;" d="M640 0L641 8C644.498 6.0719 644.875 3.87769 645 0L640 0M664 0L664 2L666 2L666 0L664 0M673 0L673.653 23.9961L676.513 34.0393L672.414 51L679 73L682 71L680 73L680 74C683.779 81.3102 685.438 97.5685 694 100L684.9 138L688.606 148L688 171L694 177L695 177L694 173C705.145 180.134 720.016 190.208 725 203L727 201L730 208L740 206C739.778 199.3 733.682 195.518 741 191C744.808 195.117 750.654 187.836 752 196L766 202C765.046 195.941 765.569 192.565 770 188L769 183L767 185L766 182C776.164 181.643 782.823 193.904 787 202C792.686 198.862 789.743 193.285 788.694 188C786.061 174.741 790.12 163.086 783 151C780.873 153.784 779.719 157.574 775.956 158.551C770.886 159.867 767.058 156.047 763 153.811C755.65 149.761 739.368 144.921 738 135C734.037 132.653 728.67 128.375 733 124L733 123C726.747 121.193 725.064 118.364 722 113L739 116L739 115L736 115C735.995 108.18 735.284 105.101 728 104C732.823 95.7449 755.024 106.724 762 110L772 108L772 107C769.113 105.548 760.696 104.044 759.268 101.667C755.718 95.7616 757.671 88.1902 765 92L766 89L761 73L766 76C766.058 72.7258 766.785 71.6832 770 71L769 74C777.357 73.8265 788.011 68.2733 793 78L798 76L798 75C793.998 64.9346 807.513 78.5317 810 80L811 67L812 67L813 74L818 73L820 57L821 57C823.4 62.4733 824.252 67.4807 831 68C831.539 59.967 840.056 55.917 840 66L846 69L845 51L852 57L854 47L855 47C856.708 50.6605 857.968 52.4125 862 51L863 56L874 57L879 64C879.816 60.9091 877.36 55.9397 878.732 53.5455C881.884 48.0481 889.83 62.4385 891 64C894.259 57.1885 891.348 51.6116 889 45C893.87 45.7432 897.901 48.8115 898 54C904.017 57.885 907.744 60.3781 907 68L911 68L910 65L918 68L912 72L919 69L922 74L927 65C933.654 74.6738 933.626 63.4174 938.318 61.2407C940.678 60.1458 943.853 62.1329 946 63L946 76L948 73C954.789 72.6249 957.195 68.4553 958 62C966.517 65.0143 964.968 58.5925 971 55L971 69L973 69L975 64L977 66L988 47L987 54C992.45 50.7026 997.721 42.8937 1000 37L1002 37L1004 40C1009.48 31.6885 1011.55 21.9081 1011 12L1016 15C1014.24 19.8424 1013.51 23.3236 1016 28L1012 32L1015 30L1015 36L1020 35C1019.86 30.5156 1021.5 28.8417 1026 29L1020 36C1021.21 40.2922 1023.8 43.4143 1028 45C1030.75 43.8885 1031.5 45.624 1033 48C1037.94 44.4065 1039.21 32.7499 1046 37L1051 30L1056 52L1057 52L1062 43C1062 50.2521 1067.09 57.7068 1061 63L1054 88L1061 80L1065 84C1063.22 76.7963 1062.68 71.0056 1069.96 66.0587C1072.23 64.521 1075.23 64.9476 1077.36 63.1389C1079.08 61.6696 1081.29 54.89 1084.48 56.9213C1086.69 58.332 1085.66 63.7031 1086 66C1097.32 62.1439 1099.19 67.3581 1102 78L1104 78L1105 74L1106 74C1108.73 83.4677 1103.74 88.4249 1102.22 97.0394C1101.52 101.044 1102.94 105.442 1101.42 109.286C1098.39 116.939 1093.08 121.487 1092 130C1098.57 128.6 1103.74 116.545 1110.03 112.722C1117.15 108.39 1113.21 116.544 1109 119C1109.06 129.467 1096.57 135.908 1102 146L1101 146L1093 144L1090 150L1095 152L1096 149L1101 154L1097 155L1097 156L1110 159L1110 160L1106 161L1098 182L1104 177L1106 179L1112 177L1110 186L1111 187L1121 173L1124 181L1120 184L1125 182L1121 200C1130.79 201.394 1131.35 185.124 1139 181L1138 192C1148.68 188.656 1144.63 176.453 1151 170L1150 186L1189 176C1190.44 173.414 1191.33 172.473 1194 174L1195 174L1197 161L1200 162L1201 156C1205.03 155.328 1201.83 145.376 1202 142L1208 142L1214 148L1215 139L1228 145L1231 138C1240.01 140.605 1243.17 141.797 1247 151L1250 151L1253 146L1261 171L1265 166L1272 170L1275 162L1277 164L1278 161L1280 162C1285.87 154.293 1292.55 149.806 1295 140C1300.17 140.458 1304.15 139.069 1306 134L1317 140L1324 133L1327 158L1334 155L1335 158L1336 158C1337.83 151.498 1341.85 150.587 1348 151L1348 156L1349 156C1354.88 149.923 1358.27 151.24 1360 141C1369.87 141.927 1369.58 134.741 1373.98 128C1381.46 116.532 1409.67 86.9586 1423 104C1427.16 104.543 1425.75 108.922 1424.67 112C1421.85 119.994 1415.52 126.103 1412.83 134C1409.94 142.49 1413.63 152.379 1410.5 161C1408.28 167.099 1401.61 171.227 1398.72 177C1396.87 180.701 1397.24 185.262 1395.08 189C1390.15 197.568 1381.4 205.81 1373 211L1371 224L1376 223L1377 227L1375 232L1379 234C1386.34 226.455 1399.61 228.437 1409 225L1408 228C1411.67 229.205 1423.6 229.278 1423.81 233.864C1423.92 236.325 1420.92 239.68 1420 242L1444 233L1442 244L1460 238L1454 248C1458.38 250.069 1458.76 251.353 1458 256C1463.71 255.739 1470.03 252.239 1475 256L1509 254.186L1525.96 249.934L1553 254L1553 255C1550.47 256.418 1547.34 258.35 1550 261L1550 262L1548 265C1555.96 266.006 1562.69 265.49 1566 274L1563 278L1572 277L1567 286L1567 291C1571.11 289.584 1572.83 290.159 1575 294L1578 293C1576.48 311.729 1552.29 305.297 1547 318L1546 318L1546 314L1542 319C1537.61 318.75 1535.04 320.081 1533 324L1537 330L1541 324L1547 325C1547.08 331.377 1547.79 343.368 1552 348L1552 346L1558 354L1562 353L1559 360L1564 359L1563 362L1567 363L1568 377C1576.46 377.566 1561.16 394.831 1574 397L1570 403L1577 407C1581.58 417.756 1591.93 423.055 1603 421L1599 425L1598 432L1592 431L1592 436L1600 439L1600 440C1597.35 442.238 1591.88 448.31 1592.37 452.05C1592.79 455.269 1595.72 457.503 1595.2 461.014C1593.91 469.798 1584.03 470.981 1577 471L1578 477L1578 478L1558 475C1555.93 478.697 1552.19 478.631 1550.05 481.598C1546.7 486.222 1550.58 495.653 1554 499L1554 500C1550.28 505.677 1560.62 520.196 1564.47 524.946C1567.57 528.764 1572.99 530.505 1568 535L1568 536L1571 537L1573 552L1570 552L1570 556L1564 555L1564 556L1570 564L1540 559C1539.94 562.436 1538.45 566.683 1539.08 570C1540.54 577.796 1547.14 581.437 1537 586L1540 592C1531.68 596.579 1542.68 600.371 1545.11 605.005C1546.73 608.102 1545.72 611.817 1547.32 614.981C1550.08 620.446 1557.32 623.83 1561.08 629C1570.06 641.353 1577.97 660.916 1580 676L1574 675C1576.71 684.747 1569.72 684.229 1567 692L1547 679C1543.95 667.825 1527.92 657.807 1516.29 662.603C1510.93 664.808 1500.73 671.838 1506.73 678.401C1508.86 680.733 1514.12 681.551 1517 683L1517 684L1504 688C1509.91 688.004 1514.17 688.322 1519 692L1496 693L1514.74 702.121L1525 711C1513.09 721.177 1498.82 716.792 1485 721L1493 734L1482 734C1483.16 739.456 1486.76 740.727 1492 741L1488 746L1492 756L1468 756.957L1453 755L1451 768L1441 767L1443 780C1439.2 777.669 1434.68 777.332 1431.01 774.853C1423.02 769.45 1419.34 760.146 1415 752L1414 752C1417.45 766.924 1426.93 775.015 1437.79 784.749C1442.33 788.82 1443.94 793.644 1450 796C1452.15 782.188 1472.24 789.199 1481 789L1482 792L1487 791L1485 804C1479.41 805.17 1472.96 806.775 1470 812L1481 814C1479.53 817.301 1479.12 819.861 1483 821C1480.18 831.341 1467.31 834.803 1461 843L1461 844L1464 848L1458 849L1458 856L1451 855L1455 860C1450.98 861.3 1444.33 870.998 1439 867L1441 870L1441 872L1433 872L1437 880L1421 877C1412.24 887.396 1402.78 886.463 1400 900L1395 896L1396 911L1395 911L1393 909L1393 920L1391 919L1394 932L1384 927L1384 923L1383 923C1381.68 925.631 1375.81 930.748 1377 926L1373 940L1365 933L1364 936L1350 933L1351 940L1345 937C1341.5 942.999 1336.54 936.821 1332 935L1333 938L1328 926L1320 932C1319.39 929.232 1318.71 929.423 1316 930L1308 919C1300.05 918.742 1299.1 914.296 1296 908C1290.27 909.47 1288.79 903.247 1285 900C1285.48 904.801 1284.97 914.536 1286.62 918.629C1288.31 922.831 1291.99 924.158 1292.11 929.286C1292.17 931.789 1293.12 939.935 1288.99 939.944C1286.14 939.951 1284.14 934.538 1281.89 933.052C1278.58 930.859 1276 933.344 1272.75 932.248C1263.23 929.038 1265.86 924.608 1256 930L1256 926C1248.55 931.085 1250.84 943.288 1249 951L1247 951C1243.67 938.737 1238.98 947.757 1240 956L1236 956C1236.13 952.344 1235.22 950.738 1232 949C1230.21 952.272 1225.17 955.595 1229 959L1229 960L1228 962L1223 962L1216 944C1209.95 956.562 1217.69 970.265 1230 975C1225.85 982.026 1231.21 985.899 1232 993L1220 982C1222.12 989.143 1226.5 993.224 1224 1001L1212 979L1209 982L1204 980L1204 984L1200 984L1200 980L1195 982C1195.64 978.596 1193.64 966.384 1192 974C1187.5 970.951 1183.55 968.924 1183 976L1178 976L1180 969L1171 967L1169 957L1159 956L1158 957L1162 964C1151.79 967.588 1158.16 984.585 1163 991L1159 992L1155 984L1154 984L1150 987L1137.7 974.891L1133 961L1131 961L1124.7 969.996L1126 1000C1117.3 998.613 1122.46 988.123 1114.9 985.851C1110.7 984.591 1106.83 989.194 1104 991.576C1095.37 998.845 1087.7 1006.16 1078 1012L1076 1005L1072 1012L1067 1012L1072 1032L1064 1029L1063 1030L1063 1032L1069 1033C1070.61 1038.69 1074.06 1037.77 1077.9 1040.91C1081.97 1044.24 1086.92 1052.83 1087 1058C1078.85 1054.22 1075.89 1050.99 1068 1058L1068 1053L1072 1052L1068 1043C1062.22 1046.32 1065.66 1052.57 1066 1058C1048.66 1052.71 1044.95 1023.84 1046 1009L1045 1009C1041.99 1016.02 1038.74 1022.16 1032 1026L1048 1056L1044 1057C1041.14 1047.07 1037.61 1037.2 1026 1036L1025 1029C1021.83 1033.6 1022.76 1038.33 1020.5 1042.96C1013.12 1058.09 1010.14 1038.17 1009 1033L1008 1033L1006 1042L1004 1042L1006 1017C995.544 1006.94 986.473 987.579 986 973L984 976L980 975L982 986L979 985L976 992L974 992L972 988L971 988L972 1004L967 1003C971.441 1014.32 961.393 1008.52 956.171 1009.74C953.928 1010.27 951.817 1012.67 950 1014C947.723 1010.86 941.282 1009.95 940.502 1015.13C939.658 1020.75 943.537 1028.19 944 1034C934.498 1028.93 933.489 1018.77 929 1010L928 1010L920 1020L920 1010C912.321 1017.31 914.325 1028.67 913 1038L912 1038L906 1027L900 1025L897 1025C894.049 1028.84 891.723 1029.44 887 1029C887.341 1033.7 887.556 1038.66 884 1042L884 1037C869.075 1037.36 878.025 1058.47 865 1060C867.948 1051.91 868.228 1044.88 863 1038C857.141 1043.25 863.363 1046.7 862.627 1053C861.688 1061.04 855.315 1069.88 853 1078L852 1078L852 1065L851 1065L848 1072L846 1072L850 1051C843.346 1055.39 841.507 1066.66 840 1074L831 1072L833 1065C827.737 1067.76 826.557 1074.41 826 1080L1920 1080L1920 0L673 0z"/>
<path style="fill:#040404; stroke:none;" d="M1022 23L1022 26L1023 26L1024 23L1022 23z"/>
<path style="fill:#fdfdfd; stroke:none;" d="M1044 38C1042.4 43.8082 1038.51 52.1373 1043 57C1043.69 51.1595 1047.47 43.109 1044 38M1000 43L1000 45L1002 43L1000 43M1000 46L1001 47L1000 46M1027 46L1030 50L1027 46M1061.33 53.6666L1061.67 54.3334L1061.33 53.6666z"/>
<path style="fill:#040404; stroke:none;" d="M830.667 55.3334L831.333 55.6666L830.667 55.3334z"/>
<path style="fill:#fdfdfd; stroke:none;" d="M671.333 57.6667L671.667 58.3333L671.333 57.6667z"/>
<path style="fill:#040404; stroke:none;" d="M962 57L962 60L965 60L965 57L962 57M1096 58L1097 63L1098 63L1099 58L1096 58z"/>
<path style="fill:#fdfdfd; stroke:none;" d="M903 59L904 60L903 59z"/>
<path style="fill:#040404; stroke:none;" d="M973 59L973 60L976 60L973 59z"/>
<path style="fill:#fdfdfd; stroke:none;" d="M867 60L866 68L868 68L867 60M889.333 64.6667L889.667 65.3333L889.333 64.6667M1091 65L1091 68L1093 68L1093 65L1091 65z"/>
<path style="fill:#040404; stroke:none;" d="M1106 66L1107 70L1108 70L1106 66M784.667 68.3333L785.333 68.6667L784.667 68.3333z"/>
<path style="fill:#fdfdfd; stroke:none;" d="M1072 69L1075 72L1074 69L1072 69M1054 71L1055 72L1054 71M801 73L802 74L801 73M969 73L968 76L969 73M919 75L920 76L919 75M1099 75L1100 76L1099 75M1099.33 78.6667L1099.67 79.3333L1099.33 78.6667M813 81L815 84L813 81z"/>
<path style="fill:#040404; stroke:none;" d="M691 95L692 96L691 95M729.667 95.3333L730.333 95.6667L729.667 95.3333M754 98L755 99L754 98z"/>
<path style="fill:#fdfdfd; stroke:none;" d="M760 99L761 100L760 99z"/>
<path style="fill:#040404; stroke:none;" d="M764.667 105.333L765.333 105.667L764.667 105.333M507 107L508 108L507 107M1119 107L1122 109L1119 107z"/>
<path style="fill:#fdfdfd; stroke:none;" d="M1087 127L1087 128L1090 128L1087 127z"/>
<path style="fill:#040404; stroke:none;" d="M522 133L523 134L522 133z"/>
<path style="fill:#fdfdfd; stroke:none;" d="M594 137L595 138L594 137M1091 153L1092 154L1091 153M1075 161L1074 164L1075 161M1095 161L1091 168L1095 165L1096 168L1097 168L1095 161M568.333 162.667L568.667 163.333L568.333 162.667M570 165L575 172L570 165M1089.33 170.667L1089.67 171.333L1089.33 170.667M576 171L577 172L576 171M695 177C695.125 180.878 695.502 183.072 699 185L695 177z"/>
<path style="fill:#040404; stroke:none;" d="M1139 179L1140 180L1139 179z"/>
<path style="fill:#fdfdfd; stroke:none;" d="M1105 180L1104 184L1107 180L1105 180z"/>
<path style="fill:#040404; stroke:none;" d="M1128 183L1129 184L1128 183z"/>
<path style="fill:#fdfdfd; stroke:none;" d="M1154 187L1155 188L1154 187M748.667 195.333L749.333 195.667L748.667 195.333M739.667 197.333L740.333 197.667L739.667 197.333z"/>
<path style="fill:#040404; stroke:none;" d="M380 211L381 212L380 211z"/>
<path style="fill:#fdfdfd; stroke:none;" d="M388 213L388 216L390 216L390 213L388 213z"/>
<path style="fill:#040404; stroke:none;" d="M469 213L468 215L468 216L473 216L469 213M378 217L378 220L380 220L380 217L378 217z"/>
<path style="fill:#fdfdfd; stroke:none;" d="M474 221L477 224L474 221M423 223L427 229L426 223L423 223M688 227L689 228L688 227M463 235L462 237L463 235M465 237L466 242L467 242L468 237L465 237M1547.67 266.333L1548.33 266.667L1547.67 266.333M357 279L358 280L357 279M343 305L346 308L343 305z"/>
<path style="fill:#040404; stroke:none;" d="M1562 313L1563 316L1564 316L1564 313L1562 313z"/>
<path style="fill:#fdfdfd; stroke:none;" d="M324 335L325 336L324 335M1497 336L1498 337L1497 336M1500 338L1499 356L1512 351C1509.22 342.101 1511.53 334.77 1500 338M1495 341L1498 338L1495 341M1492 359L1492 360L1495 360L1492 359z"/>
<path style="fill:#040404; stroke:none;" d="M305 375L306 376L305 375z"/>
<path style="fill:#fdfdfd; stroke:none;" d="M1579.67 413.333L1580.33 413.667L1579.67 413.333M1583.33 416.667L1583.67 417.333L1583.33 416.667M388 429L392 432L388 429M395 435L395 436L399 436L395 435M402 439L404 441L404 439L402 439M406.667 443.333L407.333 443.667L406.667 443.333M411 447L412 448L411 447M1581 450L1582 451L1581 450M1589 451L1590 452L1589 451M369.667 457.333L370.333 457.667L369.667 457.333M1593 459L1594 460L1593 459M379.667 463.333L380.333 463.667L379.667 463.333M1569.67 471.333L1570.33 471.667L1569.67 471.333z"/>
<path style="fill:#040404; stroke:none;" d="M1559.33 478.667L1559.67 479.333L1559.33 478.667M316.667 483.333L317.333 483.667L316.667 483.333z"/>
<path style="fill:#fdfdfd; stroke:none;" d="M1544 491L1544 492L1547 492L1544 491M344.333 496.667L344.667 497.333L344.333 496.667M344 511L344 512L349 512L344 511M319 517L321 520L319 517M322 522L322 524L324 524L322 522M308 546L311 548L308 546M1533.67 555.333L1534.33 555.667L1533.67 555.333M335 563L336 564L335 563M1529 567L1530 568L1529 567z"/>
<path style="fill:#040404; stroke:none;" d="M312 605L316 608L315 604L312 605z"/>
<path style="fill:#fdfdfd; stroke:none;" d="M343 605L345 608L343 605M1497 645L1496 649L1501 648L1497 645M1512 659L1513 660L1512 659M302 667L302 669L304 667L302 667M1498.67 667.333L1499.33 667.667L1498.67 667.333M1500.67 675.333L1501.33 675.667L1500.67 675.333z"/>
<path style="fill:#040404; stroke:none;" d="M244.667 703.333L245.333 703.667L244.667 703.333z"/>
<path style="fill:#fdfdfd; stroke:none;" d="M294.667 703.333L295.333 703.667L294.667 703.333M254 717L258 721L254 717M1481 718L1481 722L1482 722L1481 718M283 723L284 724L283 723M332.667 731.333L333.333 731.667L332.667 731.333M1411 747L1412 748L1411 747M1442 747L1445 750L1442 747M1413 749L1413 752L1414 752L1413 749M1485 749L1484 752L1485 749M1445 751L1446 752L1445 751M1448 755L1449 756L1448 755M1449 757L1449 758L1451 760L1452 760L1449 757z"/>
<path style="fill:#040404; stroke:none;" d="M1454 761L1454 764L1456 764L1456 761L1454 761z"/>
<path style="fill:#fdfdfd; stroke:none;" d="M264 777L264 780L265 780L264 777M259 787L259 788L262 788L259 787M340.667 867.333L341.333 867.667L340.667 867.333M597 871L598 873L599 873L600 871L597 871z"/>
<path style="fill:#040404; stroke:none;" d="M292 873L293 874L292 873M1423 884L1424 885L1423 884z"/>
<path style="fill:#fdfdfd; stroke:none;" d="M301 887L302 888L301 887z"/>
<path style="fill:#040404; stroke:none;" d="M594.333 891.667L594.667 892.333L594.333 891.667z"/>
<path style="fill:#fdfdfd; stroke:none;" d="M1394 895L1395 896L1394 895M590 903L591 904L590 903M1184 907L1185 915L1186 915L1184 907M793 908L785 925L784 925C781.602 919.354 778.282 920.864 773 921L766 927L765 919C760.23 922.054 753.319 925.088 751.671 931.004C750.256 936.083 757.364 954.79 763.96 953.623C769.314 952.677 773.097 941.98 776.39 938.015C781.879 931.404 790.181 930.456 796.677 925.981C801.283 922.808 796.01 920.347 793 920C796.061 915.741 796.768 912.021 793 908M388 911L389 912L388 911M1283 911L1283 914L1284 914L1283 911M1196 918C1195.75 924.753 1202.14 932.92 1208 936C1207.5 928.518 1201.9 922.241 1196 918M1202 919L1203 920L1202 919M1321 924L1324 924L1323 922L1321 924z"/>
<path style="fill:#040404; stroke:none;" d="M354 923L355 924L354 923z"/>
<path style="fill:#fdfdfd; stroke:none;" d="M1278 923L1279 924L1278 923M1378.67 923.333L1379.33 923.667L1378.67 923.333M1368 927L1373 936L1374 936L1371 927L1368 927z"/>
<path style="fill:#040404; stroke:none;" d="M1384.67 928.333L1385.33 928.667L1384.67 928.333M355 931L356 932L355 931M357 931L358 932L357 931z"/>
<path style="fill:#fdfdfd; stroke:none;" d="M559 931L560 932L559 931z"/>
<path style="fill:#040404; stroke:none;" d="M1324 933L1328 936L1324 933M1295 937L1296 938L1295 937M371 940L370 945L371 945L371 940M1336 943L1337 944L1336 943M671 945L670 948L671 945z"/>
<path style="fill:#fdfdfd; stroke:none;" d="M780.667 947.333L781.333 947.667L780.667 947.333z"/>
<path style="fill:#040404; stroke:none;" d="M378 949L381 952L381 951L378 949z"/>
<path style="fill:#fdfdfd; stroke:none;" d="M1156 949L1157 955L1158 955L1159 949L1156 949M1165 950L1169 955L1170 950L1165 950z"/>
<path style="fill:#040404; stroke:none;" d="M1243 949L1242 952L1243 949z"/>
<path style="fill:#fdfdfd; stroke:none;" d="M1150 953L1155 962L1150 953M1049 955L1049 956L1053 956L1049 955M1056 957L1058 960L1056 957M772 959L773 960L772 959M1068 959L1069 960L1068 959M766 965L770 962L766 965M1061 972L1063 963C1057.87 964.452 1057.96 968.17 1061 972z"/>
<path style="fill:#040404; stroke:none;" d="M1266 968L1269 968L1268 966L1266 968M1160 968L1161 969L1160 968z"/>
<path style="fill:#fdfdfd; stroke:none;" d="M1142 971L1142 972L1148 974L1147 969L1142 971z"/>
<path style="fill:#040404; stroke:none;" d="M676.667 971.333L677.333 971.667L676.667 971.333z"/>
<path style="fill:#fdfdfd; stroke:none;" d="M1181 971L1182 972L1181 971M485 975L486 976L485 975z"/>
<path style="fill:#040404; stroke:none;" d="M660.667 975.333L661.333 975.667L660.667 975.333z"/>
<path style="fill:#fdfdfd; stroke:none;" d="M1149 977L1152 980L1151 977L1149 977M1203 979L1204 980L1203 979z"/>
<path style="fill:#040404; stroke:none;" d="M662 985L663 986L662 985M661 987L662 988L661 987z"/>
<path style="fill:#fdfdfd; stroke:none;" d="M934 995L936 1000L934 995M929 1002L927 1009L928 1009L929 1002z"/>
<path style="fill:#040404; stroke:none;" d="M956 1016L960 1013L956 1016z"/>
<path style="fill:#fdfdfd; stroke:none;" d="M1032 1016L1033 1017L1032 1016M1032 1018L1033 1019L1032 1018M899 1019L900 1022L904 1020L899 1019M1065 1021L1064 1024L1065 1021M765.667 1023.33L766.333 1023.67L765.667 1023.33M873.667 1023.33L874.333 1023.67L873.667 1023.33M891 1023L892 1024L891 1023M1023 1023L1023 1024L1026 1024L1023 1023M1008 1025L1009 1030L1010 1025L1008 1025M734 1026L734 1029L736 1026L734 1026M756 1027L756 1028L759 1028L756 1027M880 1027L879 1032L884 1027L880 1027M861 1035L862 1037L863 1037L864 1035L861 1035M848 1039L851 1042L852 1039L848 1039z"/>
<path style="fill:#040404; stroke:none;" d="M912 1040L912 1044L913 1044L912 1040z"/>
<path style="fill:#fdfdfd; stroke:none;" d="M822 1044L825 1041L822 1044M854 1046L854 1048L856 1048L854 1046M833 1049L837 1056L835 1049L833 1049M854 1057L854 1060L856 1060L856 1057L854 1057M824 1059L825 1060L824 1059z"/>
</svg>
