<?xml version="1.0" standalone="yes"?>
<svg xmlns="http://www.w3.org/2000/svg" width="1920" height="1080">
<path style="fill:#fefefe; stroke:none;" d="M0 0L0 1080L1920 1080L1920 0L0 0z"/>
<path style="fill:#030303; stroke:none;" d="M642 31L635 35L634 35C629.476 30.7943 620.635 46.9019 619.04 52.0007C612.071 74.2794 608.948 98.8168 606 122L603 121C602.999 129.386 598.54 144.553 592 150L592 145C587.256 148.075 589.365 154.984 589 160L593 164L580 149C576.802 150.869 575.639 152.275 576 156C566.312 158.074 572.541 168.751 579 171C572.052 176.026 570.787 169.163 566 165L567 172L560 175L560 196L559 196L553 183L552 186L551 186L544 177L545 186L544 186L542 177C535.02 174.891 536.456 163.055 533 157L532 157L533 166L532 166L526 159L528 168L515 158L511 169L506 167L507 191L502 179L501 179L495 198L492 197L493 216L487 209L488 226L480 221C479.81 227.56 480.702 237.457 476 242L475 239L459 249L455 244L454 252L448 242C439.288 244.495 437.845 234.817 432 231L436 248C424.578 246.911 422.655 229.745 411 226L404 228L403 225L398 225L402 252C395.086 248.557 390.317 242.7 382 244L379 234C375.503 237.12 375.298 239.734 377 244C370.362 246.817 372.417 257.391 371 264L358 261L364 272C357.986 274.024 370.594 291.746 372 298L366 296C363.876 304.003 361.637 306.785 354 310L360 322L355 323L355 324L357 326L352 325L351 325L346 328L345 325L335 326L337 332L341 331L331 333L338 348C330.856 347.718 325.198 349.624 329 358C319.782 364.733 337.297 369.326 341 372L337 376L336 373L327.856 385.896L319 398C325.238 400.805 328.608 406.13 336 403L334 408L338 412L324 423C331.025 436.314 350.824 431.835 351 417C364.673 417.002 390.746 426.358 400 437C390.495 434.122 382.866 427.501 373 433L379 436L379 440L382 440C374.462 448.046 374.693 448.654 376 460L371 464L370 464L370 461L369 461C367.057 467.4 361.259 465.25 356.005 467.109C351.059 468.859 350.65 473.229 346.722 475.732C342.741 478.269 338.541 476.395 335 480L340 488C344.429 483.398 349.848 492.728 356 495L356 496C350.588 499.027 347.866 501.753 347 508L360 508L354 518L361 519C357.284 523.337 355.09 522.708 350 521L336.005 525.829L323.246 532.744L311 531C316.276 538.498 321.877 547.778 327.85 554.606C332.063 559.421 338.03 558.262 338 566C335.386 565.162 332.536 564.597 330.075 563.359C327.953 562.292 325.707 559.253 323.189 559.342C318.357 559.512 320.395 567.588 322.032 569.787C327.257 576.801 338.87 573.975 340 584C345.169 586.745 359.402 607.123 346 605L349 612L342 608L341 614C335.362 612.33 325.114 604.705 326 616L324 618L323 618L323 614L322 614L318 620L333 632L318 631C320.226 636.791 323.591 640.081 329 643L329 644L323 653C319.64 655.887 317.848 654.078 314 653C316.015 660.007 322.65 660.768 329 662L327 668L335 672L315 670C316.101 679.736 309.611 677.211 303.754 680.867C299.55 683.49 297.049 686.979 292 688C291.494 681.458 286.636 680.973 287 688L282 689C289.22 700.011 311.629 689.006 314 704L304 704L300 701C299.911 711.377 310.6 713.422 316.789 719.46C319.696 722.295 321.565 726.504 325.184 728.542C329.981 731.244 333.636 728.723 337 734L321 735.772L303 730L297 725C299.119 744.201 276.817 722.577 271 720L262 734L273 739L273 740L268 741L269 756C273.278 757.587 273.16 759.873 274 764L270 766C268.742 760.159 262.609 765.842 263 770L260 771L260 772L268 773L273 782C278.361 781.402 279.84 784.073 283 788L280 789C285.775 801.207 298.232 812.014 311 815L311 816L307 822L326 821L323 825C322.657 835.683 305.372 842.508 311 852L307 856C318.219 860.698 310.034 866.681 308 873C319.031 874.955 322.18 869.191 330.108 863.853C334.766 860.718 341.021 859.625 346 857L345 868C350.176 868 342.692 886.262 342 890L348 885L361 877L352 904L356 897L363 897L362 906L367 904C367.827 909.197 367.1 913.707 364 918L369 925C381.829 921.636 381.193 913.308 383 902C387.83 905.933 389.979 909.747 389 916L390 916L391 914L382 937L389 935L390 938C395.354 934.651 401.006 926.434 407 932C402.734 934.856 404.221 943.41 409 945L405 951L405 952C409.271 954.578 411.772 954.7 416 952C416.13 955.31 414.45 959.564 416.329 962.556C417.871 965.011 421.38 964.393 422.486 967.267C424.336 972.077 420.852 977.959 427 980L430 976L431 980C436.104 978.756 437.717 976.12 438 971L439 971L444 990L450 977L451 977C450.099 981.852 448.591 989.158 450.742 993.848C453.944 1000.83 458.779 992.993 459 989L464 992L467 987L467 992L468 992L469 983L470 983L470 989C476.104 985.358 477.937 982.086 478 975L479 975L480 977C483.608 971.534 482.488 967.179 482 961L488 967L489 967L490 963L502 970C503.569 965 506.23 966.823 509 970L513 953L516 954L520 945L531 964L532 964L532 955L535 955L544 969C546.01 957.001 539.324 945.758 535.398 935C532.635 927.427 532.005 917.038 532 909L533 909C535.424 921.905 538.063 931.251 544.425 942.999C545.918 945.757 552.31 954.565 555.636 948.482C558.517 943.213 549.111 933.646 550 927L557 931L557 927L562 920L566 927L568 925L569 925L575 932L573 922L580 928L579 913L581 913L582 916L584 914L585 914L587 916L586 894L587 894L589 898L590 898C590.346 893.1 591.659 887.009 587 884C589.423 878.289 590.203 875.718 587 870L591 869L595 874L599 868C603.065 879.585 607.576 869.085 614.545 873.485C625.43 880.357 629.019 888.209 633 900L653.089 917.961L667 927.209L686 943.105L710 945.759L729 952L735 945L736 945L742 946C743.775 936.897 742.223 934.736 739 926C744.88 923.58 753.712 922.363 756 916C765.237 918.231 770.398 904.149 773 897L774 897L774 905L778 903L785 908C786.615 903.866 789.388 896.574 795.083 898.056C797.707 898.738 798.591 901.014 801 901C800.375 905.948 798.397 911.68 803 915L796 918L796 920C798.362 921.464 800.664 923.621 798.238 926.441C790.28 935.691 777.199 934.055 774 948C781.751 944.281 780.781 946.488 788 948L787 954L791 953C789.982 966.507 768.959 973.314 759 979.671C756.247 981.429 749.484 982.192 748.921 986.069C748.391 989.709 755.842 997.032 758 1000L755 1004C762.771 1005.59 757.811 1012.62 762.333 1014.29C771.551 1017.7 782.246 998.436 789 995L790 1001L790 1002L789 1004L786 1002L784 1009L798 1008L807 1009L808 1009L811 1007L812 1016L814 1016L826 998L827 999C823.609 1003.45 819.619 1013.55 827 1016L831 1011C829.557 1021.85 824.091 1026.73 830 1038L834 1037L838 1042L838 1037L842 1044L844 1044L844.117 1033.06L861.672 1024.79L874 1013L874 1016L875 1016L880 1007L882 1020L909 1011L910 1014C916.052 1010.99 924.841 1003.52 927 997C930.642 996.836 931.436 995.526 932 992L939 1000L941 1000L946 979L948 986L949 986L950 973L955 975L955 976L956 992L962 992L959 983C971.463 980.961 968.797 955.574 973 946L977 968C978.691 967.216 981.634 964.144 983.523 964.518C986.154 965.04 986.759 971.028 988.343 972.921C990.247 975.198 993.57 975.948 995.236 978.338C999.111 983.898 1000.53 994.435 1003.07 1001C1003.82 1002.93 1009.16 1011.08 1010 1006L1016 1012L1015 1001L1024 1018L1030 1007L1030 1009L1036 1007C1039.16 1012.65 1043.78 1008.63 1048 1006C1049.77 1013.42 1048.36 1025.8 1056 1030L1060.38 999L1061.35 990.43L1052.03 981.985L1053.86 969L1049 955L1054 954C1053.95 947.835 1050.77 941.465 1056 937L1060 952C1064.35 952.125 1067.86 955.032 1072 955.201C1074.95 955.322 1077.08 952.653 1079.98 952.711C1085.38 952.821 1085.26 964.1 1085 968L1086 968L1092 963L1095 978L1106 980C1112.76 971.405 1119.71 964.193 1123 953L1125 953L1139 970L1144 968C1142.08 957.217 1129.99 954.792 1131 943L1132 943L1133 948C1136.77 946.81 1137.57 944.828 1138 941L1141 948C1151.54 947.425 1153.79 951.428 1154 939L1161 939L1163 944C1175.44 943.891 1172.25 951.057 1174 960L1176 960L1182 946L1189 943C1188.42 950.376 1189.37 952.927 1195 958C1197.05 949.197 1195.51 933.775 1190.08 926.147C1187.21 922.124 1179.45 921.433 1178.73 915.553C1178.52 913.849 1180.3 912.931 1180.9 911.53C1185.35 901.109 1182.46 908.025 1192.09 909.144C1197.36 909.757 1199.8 907.432 1204 912L1207 911C1209.75 919.68 1218.34 932.562 1227 936L1229 924C1237.19 931.919 1241.04 917.206 1242 910L1249 916L1266 899C1266.58 901.714 1268.14 902.663 1271 901.278C1276.36 898.681 1278.19 890.84 1283.08 888.806C1288.82 886.421 1298.34 896.286 1302 887L1306 888L1306 887L1304 883C1312.76 885.147 1312 892.628 1315 900L1316 900L1317 885L1318 885C1320.38 888.557 1324.36 890.304 1326.73 894.015C1331.4 901.326 1331.03 910.188 1340 914L1349 903L1350 903L1356 903L1356 912L1360 911L1362 918L1365 918L1372 894L1373 897L1374 897L1374 893L1375 893L1379 903L1381 903L1385 896C1384.43 887.529 1384.72 880.509 1380 873L1383 872L1381 867C1383.76 868.61 1388.88 874.077 1390 869L1402 868L1398 857L1401 856L1402 860L1414 859C1415.95 863.649 1420.82 865.901 1424 861L1430 861C1426.17 850.119 1431.43 855.983 1436 849L1440 850C1439.16 842.232 1432.41 836.879 1430.69 830.082C1429.68 826.088 1434.14 826.454 1436 828L1444 826C1447.75 818.993 1446.35 812.108 1439 808L1439 806L1445 807L1446 807C1448.5 804.854 1459.21 800.282 1458.12 796.137C1457.11 792.32 1449.72 796.508 1447.17 795.647C1442.59 794.101 1438.31 788.316 1435 785C1420.71 770.665 1409.26 750.643 1404 731C1416.29 741.845 1414.34 765.157 1432 772L1429 759L1430 759L1434 764L1435 764L1437 757L1441 760L1442 760L1440 745L1447 744L1448 748L1451 747L1464 752C1467.1 746.575 1472.53 747.958 1478 748L1466 729C1470.62 729.926 1473.37 728.947 1477 726L1477 725L1466 707C1474.49 709.385 1486.36 710.985 1495 709C1497 712.587 1499.46 713.061 1503 711C1497.08 705.163 1496.48 695.463 1487 694L1490 683L1499 688L1499 682L1500 682L1500 684L1501 684L1496.42 670.869L1487 665L1469 664L1469 663C1475.53 662.701 1479.89 660.907 1483 655C1475.57 655.7 1474.77 652.466 1477 646L1468 646L1463 638L1463 637C1465.02 635.658 1467.04 634.338 1468.73 632.557C1484.23 616.145 1451.68 625.986 1451 613L1447 611L1458 606L1458 605L1455 604L1455 603L1465.29 601.508L1473.18 612.83L1503.13 642.255L1516 651.306L1534.04 652.812L1552 665L1552 659L1556 660L1556 657L1557 657L1563 660C1567.61 640.207 1555.09 633.017 1544.95 618C1541.23 612.497 1538.67 603.527 1533 600L1529 581C1537.82 578.142 1535.11 567.919 1526 570L1532 565L1524 549L1540.04 547.577L1550 552L1551 551L1550 545C1566.66 544.596 1552.55 532.458 1551 526L1556 528L1549 506C1541.15 500.952 1542.89 490.429 1543.8 482.985C1544.14 480.158 1543.1 476.755 1545.41 474.523C1547.73 472.276 1555.39 474.314 1556.08 470.83C1556.77 467.352 1549.83 468.006 1548 468L1552 463L1553 463L1554 467C1559.73 464.165 1579.76 468.865 1577.64 458.001C1577.18 455.636 1575.78 453.287 1575 451L1571 452L1570 448L1588 444C1584.95 437.9 1581.73 438.728 1578 435C1575.63 432.633 1575.29 429.322 1578 430L1579 423L1574 422L1574 421L1577 420L1577 419L1559 413L1562 412L1561 399L1553 398C1557.22 390.542 1560.17 385.618 1560 377L1552 376C1554.3 371.136 1553.44 367.659 1551 363L1540 366L1540 355L1537 345L1530 347C1520.86 354.628 1524.25 332.716 1516.32 335.662C1509.81 338.081 1514.58 346.514 1512.05 350.606C1509.16 355.275 1495.19 359.927 1490 360L1496 353L1489 354L1483.11 337.996L1487 323C1491.41 319.938 1493.13 312.123 1494 307L1487 308C1489.3 301.98 1489.21 297.261 1485 292L1485 291L1488 289L1490 292C1490.59 286.083 1493.86 279.289 1485 280C1483.08 263.388 1470.4 272.427 1459 272.171C1452.53 272.026 1446.25 269.163 1440 268L1451 257L1451 256L1445 256L1449 247L1434 253L1435 240C1430.71 242.492 1425.79 248.92 1421 245L1415 248L1417 236L1417 235C1412.78 232.752 1402.75 229.878 1399 233L1398 233C1392.59 229.053 1383.75 230.427 1380 236L1372 236L1372 229L1374 226C1368.93 221.476 1369.93 215.296 1374.31 210.174C1377.56 206.379 1382.02 204.094 1385.03 199.985C1390.59 192.376 1392.29 183.837 1396.84 176C1401.53 167.932 1406.16 160.662 1407 151L1405 152L1404.73 134L1411 120L1410 119L1403 118C1402.55 108.097 1391.29 114.486 1387.04 118.209C1376.92 127.084 1371.83 139.875 1362.2 149.335C1358.77 152.695 1354.13 158.102 1349 157L1346 162C1341.96 152.143 1335.68 160.759 1337 168L1334 161L1333 161L1323 174L1322 174L1319 151L1316 149L1315 149L1312 152L1311 145L1303 147L1300 158L1298 158L1298 153L1295 156C1289.45 156.836 1286.78 160.947 1285 166L1284 163L1279 169L1276 168L1273 176L1260 173L1257 176L1256 176L1250 162L1247 169C1244.53 159.445 1244.82 153.648 1235 149L1231 162L1224 149C1218.69 150.661 1215.99 154.512 1217 160L1207 157L1207 164L1205 163L1205 178L1194 180C1190.48 189.422 1186.77 185.237 1179 183C1176.31 188.999 1171.17 191.126 1167.76 196.133C1165.74 199.09 1166.8 202.828 1164.53 205.706C1159.37 212.234 1155.84 208.714 1156 202C1144.33 203.195 1139.52 215.319 1132 223L1142 197C1135.71 200.328 1120.11 209.595 1114 206L1113 208L1112 208L1112 193L1106 194C1104.36 188.801 1098.69 188.636 1094 187L1090 192L1092 186C1087.87 185.383 1086.64 187.384 1085 191L1084 191L1084 183L1082 183L1081 186L1080 186L1080 181L1079 181C1074.73 194.516 1075.01 208.23 1066 220L1071.66 205L1076.69 180L1089 151L1087 149L1079.01 164.906L1072 173L1069 173L1071 168L1071 167L1069 164L1066 165C1065.12 157.307 1064.2 146.22 1068.17 139.17C1070.09 135.754 1073.57 133.53 1075.43 129.999C1077.33 126.388 1076.98 122.955 1080 120C1078.18 111.465 1075.39 101.168 1066 108L1066 104C1059.13 104.492 1047.14 103.623 1044 111L1043 111C1042.8 105.056 1040.56 104.43 1035 105C1036.98 101.577 1038.98 99.9775 1043 100L1043 87L1039 90L1042 71C1029.34 71 1028.19 75.7085 1022 85C1019.27 89.0977 1017.61 86.9573 1017 90L1012 91L1011 91L1009 89L1002 101L1005 84L1004 84L999 92C999.017 85.9752 1005.44 73.6173 998 71L991 83L990 83L988 75L981.031 86L968.714 107L967 128L966 128L965 109C958.655 110.854 960 120.685 960 126C954.301 122.636 956.222 107.398 956 101L951 107L948 105L945 111C941.885 107.127 940.202 104.396 935 104L932 97C926.762 103.491 929.572 117.318 921 120L920 108L917 108L916 116L914 116C913.135 109.027 913.013 97.3178 904 102C905.165 92.217 903.33 89.5423 899 81L895 86C889.795 83.9089 887.114 80.0922 885 75C876.696 80.666 879.613 90.2943 882 98L873 98L873 91C868.358 88.671 864.879 88.0338 860 90L854 85C850.001 92.4997 847.637 95.7018 851 105C839.253 104.539 851.507 130.67 854 136L850 136C848.85 129.626 844.895 121.261 840 117L840 128C836.429 117.229 828.481 114.073 818 112L817 117L814 114L813 114L810 122L809 122L808 117L807 117L807 130L803 128L802 140L784 135L783 138L774 133C769.134 134.356 761.166 138.777 768 143L766 148C771.218 149.617 783.339 150.401 786.581 154.102C791 159.147 789.539 165.919 790.286 172C792.278 188.215 799.389 209.733 788 224L783 201L777 222L770 228C770.278 224.484 771.915 219.738 770.396 216.376C766.875 208.587 760.857 213.734 759 219L758 219L756 211L754 211C750.535 215.814 736.826 228.852 739 215L735 213L731 218L729 214L730 222C727.067 218.751 712.954 186.727 711 204L686 183C687.609 192.505 696.147 206.606 682 210L689 230L687 230L685 223L681 225L671.774 213.829L676.855 201L683 181L680 182C680.301 176.132 683.745 170.803 683.726 165C683.696 156.158 679.606 147.622 680.044 139C680.597 128.118 683.749 122.914 681.299 111.911C679.681 104.648 683.371 93.8745 676 89L676 92L675 92C671.869 85.9034 667.677 72.1026 661 70L663 78C653.598 69.0825 660.576 45.4708 659 33L649 45L650 39C646.863 38.5057 646 38.9641 645 42L644 42L642 31M660 35L661 36L660 35M662 62L662 66L663 66L662 62z"/>
<path style="fill:#fefefe; stroke:none;" d="M1011 94L1010 96L1012 96L1011 94z"/>
<path style="fill:#030303; stroke:none;" d="M1067 103L1068 104L1067 103M808 111L808 112L813 112L808 111z"/>
<path style="fill:#fefefe; stroke:none;" d="M1074.67 115.333L1075.33 115.667L1074.67 115.333z"/>
<path style="fill:#030303; stroke:none;" d="M601 119L602 120L601 119M600 126L600 128L602 128L602 126L600 126z"/>
<path style="fill:#fefefe; stroke:none;" d="M1065.67 131.333L1066.33 131.667L1065.67 131.333z"/>
<path style="fill:#030303; stroke:none;" d="M759 137L760 138L759 137z"/>
<path style="fill:#fefefe; stroke:none;" d="M791 141L791 142L794 142L791 141M806 141L810 146L809 141L806 141M802 145L805 148L804 145L802 145z"/>
<path style="fill:#030303; stroke:none;" d="M1068 145L1068 148L1069 148L1068 145z"/>
<path style="fill:#fefefe; stroke:none;" d="M1052.33 159.667L1052.67 160.333L1052.33 159.667z"/>
<path style="fill:#030303; stroke:none;" d="M1078.67 159.333L1079.33 159.667L1078.67 159.333z"/>
<path style="fill:#fefefe; stroke:none;" d="M1249 171L1250 172L1249 171M1250 173L1251 174L1250 173z"/>
<path style="fill:#030303; stroke:none;" d="M1091 179L1092 180L1091 179z"/>
<path style="fill:#fefefe; stroke:none;" d="M564 185L565 186L564 185M565 187L566 188L565 187M709 204L710 205L709 204M707 205L707 208L708 208L707 205M1084.67 207.333L1085.33 207.667L1084.67 207.333M762 213L763 214L762 213M757 219L758 220L757 219M1131 223L1132 224L1131 223z"/>
<path style="fill:#030303; stroke:none;" d="M371 237L372 238L371 237z"/>
<path style="fill:#fefefe; stroke:none;" d="M438 246L438 252L435 251L435 256L444 254L438 246M448.667 249.333L449.333 249.667L448.667 249.333M1429 256L1432 253L1429 256M375 257L374 260L378 261L375 257M1426 259L1427 260L1426 259M373 261L374 262L373 261M373 263L374 264L373 263M373 267L374 268L373 267M784 267L785 268L784 267M469 271L470 274L471 274L469 271z"/>
<path style="fill:#030303; stroke:none;" d="M1493 279L1493 280L1497 280L1493 279z"/>
<path style="fill:#fefefe; stroke:none;" d="M374 297L376 300L374 297z"/>
<path style="fill:#030303; stroke:none;" d="M1496.33 314.667L1496.67 315.333L1496.33 314.667z"/>
<path style="fill:#fefefe; stroke:none;" d="M1477 339L1476 344L1479 339L1477 339M1475 363L1475 364L1483 364L1475 363M338 403L338 405L340 405L340 403L338 403M1575.33 427.667L1575.67 428.333L1575.33 427.667M401 437C404.59 444.147 411.646 451.732 420 452L420 451L401 437M382 438L383 439L382 438M381 449L382 450L381 449M381 451L382 452L381 451M425 457L427 461L428 460L425 457M378 461L379 469C382.15 465.867 381.942 463.182 378 461M384 461L386 464L384 461z"/>
<path style="fill:#030303; stroke:none;" d="M1558.33 470.667L1558.67 471.333L1558.33 470.667z"/>
<path style="fill:#fefefe; stroke:none;" d="M353 471L355 473L355 471L353 471M351 472L350 474L352 474L351 472M360 507L361 508L360 507M370 515L370 516L375 516L370 515M365 517L364 520L365 517M1526 578L1526 580L1528 580L1526 578z"/>
<path style="fill:#030303; stroke:none;" d="M338 607L338 608L341 608L338 607z"/>
<path style="fill:#fefefe; stroke:none;" d="M354 613L358 617L359 616L354 613M1454 640L1458 639L1454 640M1461.67 663.333L1462.33 663.667L1461.67 663.333M1497 683L1498 684L1497 683M1483 694L1487 693L1483 694z"/>
<path style="fill:#030303; stroke:none;" d="M296 699L296 700L300 700L296 699z"/>
<path style="fill:#fefefe; stroke:none;" d="M316 715L317 716L316 715M298 731L299 732L298 731M338 733L339 734L338 733M1467 739L1468 740L1467 739M1448 743L1449 744L1448 743M262 771L263 772L262 771M313 815L314 816L313 815M1424 827L1424 828L1428 829L1424 827M704 837L702 840L704 837M698 844L698 849L699 849L698 844M1400 851L1401 852L1400 851M1402 855L1403 856L1402 855M708.667 871.333L709.333 871.667L708.667 871.333M603 874L604 875L603 874M705.667 875.333L706.333 875.667L705.667 875.333M709 877L710 878L709 877M584 879L585 880L584 879M363 891L364 892L363 891M362 893L363 894L362 893M1370 893L1371 894L1370 893z"/>
<path style="fill:#030303; stroke:none;" d="M1370 899L1371 900L1370 899z"/>
<path style="fill:#fefefe; stroke:none;" d="M734 919C735.573 917.509 737.604 916.314 738.934 914.584C752.959 896.34 715.956 904.13 729.208 916.566C730.644 917.914 732.197 918.382 734 919M1174 912L1175 907L1170 908L1170 905C1163.22 908.771 1168.87 911.939 1174 912z"/>
<path style="fill:#030303; stroke:none;" d="M736 910L735 911L735 912L736 913L737 913L738 912L738 911L736 910z"/>
<path style="fill:#fefefe; stroke:none;" d="M392 913L393 914L392 913z"/>
<path style="fill:#030303; stroke:none;" d="M362 917L363 918L362 917z"/>
<path style="fill:#fefefe; stroke:none;" d="M1226 923L1228 925L1228 923L1226 923M1148 934L1150 937L1148 934M408 935L409 936L408 935M788 948L789 949C792.198 947.131 793.361 945.725 793 942L788 948M726 946L728 948L726 946z"/>
<path style="fill:#030303; stroke:none;" d="M742 947L743 948L742 947z"/>
<path style="fill:#fefefe; stroke:none;" d="M1072 949L1072 953L1072 949M416 951L417 952L416 951M951 957L950 959L950 960L955 960L951 957z"/>
<path style="fill:#030303; stroke:none;" d="M512.333 958.667L512.667 959.333L512.333 958.667z"/>
<path style="fill:#fefefe; stroke:none;" d="M1048 969L1047 972C1049.57 971.449 1049.86 970.86 1048 969M839 979L840 980L839 979M836 986L834 992L838 986L836 986M458.333 987.667L458.667 988.333L458.333 987.667M828 995L831 1000L830 995L828 995M808 1003L809 1004L808 1003M836 1013L837 1014L836 1013M836 1015L832 1019L832 1024L833 1024L838 1015L836 1015M836 1031L836 1032L839 1032L836 1031z"/>
</svg>
