<?xml version="1.0" standalone="yes"?>
<svg xmlns="http://www.w3.org/2000/svg" width="1920" height="1080">
<path style="fill:#fdfdfd; stroke:none;" d="M0 0L0 1080L823 1080L824 1069L818 1071L821 1057L818 1058L819 1062L812 1042C804.895 1044.06 807.054 1057.79 809 1064L806 1059L805 1059L801 1064L801 1054L800 1054L798 1056C797.22 1044.27 793.08 1042.23 800 1031C793.848 1030.42 786.477 1043.86 788.745 1031.04C788.984 1029.7 788.961 1028.36 789 1027L782 1028C782.19 1032.44 786.682 1045.22 781.682 1047.84C779.264 1049.11 774.798 1047.66 772 1048L769 1037L762 1040L761 1035L758 1038L757 1038L754 1034L748 1048L749 1041C745.042 1044.87 745.209 1051.02 743.009 1056C738.867 1065.38 732.485 1067.7 732 1079L728 1073L723 1077L720 1078L720 1071L716 1071L723.745 1055L732 1031L719 1037L714 1040L722 1025L715 1030L714 1026L713 1026L708 1034L708 1025L705 1025L704 1032C699.037 1031.72 683.992 1030.47 696 1024L693 1018L712 1008C711.632 1003.17 709.254 1000.19 705 1004L704 1004C700.393 993.734 725.394 990.961 725.718 977.914C725.825 973.625 721.411 970.116 719 967L716 968C710.378 957.96 699.408 971.577 692 973L692 969L696 968L696 966L695 965C690.748 966.123 688.707 967.552 688 972L685 970L684 970L676 975L677 978L673 976L648 1002L667 973L652 985C654.984 972.449 676.999 961.093 673 947L670 948C673.079 928.934 644.746 928.217 642 911L637 912C635.423 905.361 631.811 895.751 627.637 890.317C623.833 885.365 618.585 886.761 618 879L617 879L616 882L615 882C614.82 877.795 612.981 876.133 609 875L609 882L608 882L591 875C595.392 889.369 592.951 899.893 591.263 914C590.569 919.799 594.65 925.312 590 930L586 921L585 921C585.176 924.763 585.428 927.009 582 929L580 942L579 942L579 946L576 941L575 941L575 946L564 934L561 943L561 944L565 947L570 971L563 967C559.464 967.618 557.09 968.189 555 965C550.305 968.425 554.359 986.448 556 992L555 993L542 978L541 988L535 988L527 970L524 973L522 973L518 967L518 968C521.658 968 520.369 974 517 974L514 980L514 972L513 972L509 985L506 981L503 981L500 987L499 987C496.989 985.003 496.53 985.717 495 988L495 974C486.609 972.615 490.395 988.819 485 984L488 985C484.449 978.972 481.103 993.522 480.472 996C478.057 1005.49 489.346 1023.25 479.889 1029.33C473.43 1033.49 455.743 1015.87 454 1024L447 1023L439 1024L432 1002L422 1001L420 995L405 1002L414 988C410.756 983.921 405.954 981.834 404 988L398 988C400.056 982.21 407.871 967.287 402 963C400.223 969.131 392.547 972.509 387 975L390 973L391 954L389 951L379 952L376 956L372 946L376 945L376 943L375 942L374 942L370 948L369 948L368 942L367 942L363 954L362 954L352 952L355.205 940.996L357 925L354 921C358.805 920.305 359.983 913.179 360 909L359 909C357.712 912.731 355.727 916.028 352 913L344 918L353 891L348 889C347.076 897.287 339.732 899.701 333 903L332 902C335.607 896.92 341.181 893.6 338 887L343 879L340 878L340 877L343 876L342 871L340 871L339 874L335 874L335 867L328 878L313 879L308 882L308 880L307 880C304.425 886.219 303.08 896.183 297 900L294.63 881.714L309 865L305 863L304 863L298 868L298 859C292.021 860.796 290.861 859.003 286 856L286 855L291 854L290 850C302.822 849.132 304.212 841.276 314 835C311.769 829.676 308.163 829.774 303 831L303 829C295.586 829.473 293.958 825.896 295 819L283 822L290 810L278 806L273 808L273 807C282.789 803.858 277.396 795.436 269 796L269 790L245 788L246 781L243 780L243 779L246 778L246 773L243 772L254 759L247 760L252 749L258 752L257 748C244.901 745.881 251.581 739.189 247 731L226 728C226.929 713.235 242.575 727.237 246 713L244 716L240 716L243 712L239 702C246.245 699.615 248.31 702.828 255 705L260 701C262.002 706.11 267.624 706.132 272 708.694C275.705 710.864 277.632 714.891 281.083 717.278C285.951 720.644 293.488 721.627 299 724C302.477 725.497 310.701 735.031 312 729C317.319 733.226 322.966 735.467 329 731L314.996 721.444L305.448 719.042L305 715L280 702L280 697C273.965 695.957 269.1 693.672 269 687L253 677L258 676L261 678L261 677L258 676L258 675L278 680L277 677C283.76 674.951 292.222 676.344 296 683L297 683L297 678L296 672L299 672L293 668C295.318 661.347 300.405 661.669 306 659L309 662C307.947 655.187 301.678 646.011 297 641L311.056 648.25L320 646L320 650L321 650L321 643L316 640L316 639C312.56 637.898 300.651 624.83 305.337 622.167C307.451 620.966 311.695 623.657 314 624C312.548 613.267 292.795 616.327 294 603L298 608L299 608L299 603L311 609L310 603L315 598L338 604C341.172 591.949 323.844 591.241 324 581L328 582C326.557 572.85 310.292 570.508 314 560L314 559C308.434 552.898 304.728 547.522 296 548L298 543L291 537L305 540C299.117 535.223 288.996 532.362 292 523L289 525L282 509L295 507L297 512L308 512L308 514L313 513L312 506L332 520C337.422 517.022 339.818 506.521 331 508L329 504L328 504L326 506L338 497L335 499L320 496L326 492L324 490L324 489L326 487C321.388 486.524 318.187 485.207 316 481L330.039 474.171L363 462L356 455L351 456L369 442L372 444C369.164 441.01 363.091 440.115 361.546 436.066C358.628 428.414 377.014 428.171 381 428L381 427C377.028 425.932 372.329 425.997 368.576 424.324C362.5 421.617 359.221 416.04 352 418C353.894 425.731 348.562 428.37 343 432.738C330.993 442.168 314.999 445.998 300 446L303 440L303 439L299 439L298 436L293 436L293 431L305 424L305 421L303 419L298 414L302 416C300.984 411.26 295.707 413.299 292 414L294.742 389.104L300 379L300 378L300 361C304.741 360.08 311.471 355.875 305 352C305.463 347.737 305.568 345.324 310 344L315 331L316 331L316 335L317 335C320.454 329.861 317.129 316.789 327 320L337.833 308.833L337 297C353.69 294.878 344.738 284.709 345 272L349 272C348.729 267.971 348.012 265.339 344 264L342 257L351 265L331 239L346 244L340 231L351 235L352 239L356 237L356 241L359 240L356 232L359 232L359 231L356 229L355 229L356 232L352 229L355 228L352 223L364 227L365 226L365 221L369 222L380 224L375 220L374 205L377 209C379.744 208.539 382.514 207.706 383 211L384 211L385 211C385.269 196.572 401.12 201.553 407 209L410 207L415 215L417 214L420 218C421.172 210.935 420.085 207.482 417 201C431.795 205.03 425.38 223.399 439 228L439 222L459 244L460 244L459 225C462.234 227.656 463.86 229.587 468 228L468 230C473.463 225.128 464.233 207.734 475 217L480 212C480.353 196.921 490.699 182.222 485 167L482 168C483.146 157.825 494.961 157.943 495 147L496 147L498 152L499 152L500.403 140.431L508 137L513 143L514 143L514 131L522 136L520 125L521 125L523 130L524 130L524 122L529 121L533.318 137.776L543 151L548 156L552 155L553 172L554 172L559 157L561 163L562 163L560 147L562 147L566 159L567 159L567 137L571 140L580 133L586 143L584 131L597 135L599 129C591.661 122.687 594 111.752 594 103L600 112L598 107L603 108L606 93L603 73L609 59L611 46L621 33L621 29L622 29L622 31L623 31L630 0L0 0z"/>
<path style="fill:#040404; stroke:none;" d="M630 0L623 31L622 31L622 29L621 29L621 33C611.504 35.2672 609.447 49.3746 608.294 57C607.452 62.5695 603.836 67.2255 603.329 73C602.262 85.1431 604.574 95.8745 603 108L598 107L600 112L594 103C593.999 110.918 590.824 124.344 599 129L597 135L584 131L586 143L580 133L571 140L567 137L567 159L566 159L562 147L560 147L562 163L561 163L559 157L554 172L553 172L552 155L548 156C547.272 152.649 546.403 151.588 543 151L533.318 136.892L529 121L524 122L524 130L523 130L521 125L520 125L522 136L514 131L514 143L513 143C512.57 139.259 511.814 137.661 508 137L500.343 139.56L499 152L498 152L496 147L495 147C494.874 157.647 482.571 157.688 482 168L485 167C489.419 182.76 480.137 196.48 480 212L477 211L475 217C465.176 205.683 471.321 225.582 468 230L468 228L459 225L460 244L459 244C454.348 234.309 448.705 227.133 439 222L439 228C427.118 221.339 431.466 203.192 417 201L420 218L417 214L415 215L410 207L407 209C401.981 199.398 384.472 196.809 385 211L384 211L383 211C382.563 207.534 379.996 208.289 377 209L374 205L375 220L380 224C375.053 224 370.074 216.629 369 222L365 221L365 226L364 227L352 223L355 228L352 229L356 232L355 229L356 229L359 231L359 232L356 232C356.91 235.369 358.842 238.411 356 241L356 237L352 239L351 235L340 231L346 244C341.327 240.272 337.104 238.118 331 239L351 265L342 257L344 264L349 272L345 272C344.446 284.897 352.912 293.99 337 297L337.324 308.273L327 320C316.785 316.168 319.719 329.211 317 335L316 335L316 331L315 331L310 344C304.749 344.84 304.955 347.346 305 352C310.149 356.562 304.839 359.453 300 361L300 378L300 379L294.429 389.104L292 414C296.01 413.496 299.549 412.233 302 416L298 414C298.272 417.731 301.344 421.109 305 421L305 424L293 431L293 436L298 436L299 439L303 439L303 440L300 446C314.997 446 330.791 442.806 343 433.533C348.703 429.202 355.071 425.794 352 418L381 427L381 428C376.683 428.086 355.615 428.513 361.902 437.606C363.995 440.632 369.063 441.818 372 444L369 442L351 456L356 455L363 462C352.435 463.059 338.358 469.18 329.09 474.171C324.103 476.857 322.109 480.59 316 481C317.515 485.842 321.257 486.753 326 487L324 489L324 490L326 492L320 496L335 499L338 497L326 506L328 504L329 504L331 508C339.661 507.714 336.545 516.232 332 520L312 506L313 513L308 514L308 512L297 512L295 507L282 509L289 525L292 523C287.686 531.951 298.609 536.345 305 540L291 537L298 543L296 548C304.754 547.832 307.586 553.976 314 559L314 560C308.139 568.57 325.946 574.839 328 582L324 581C322.622 591.404 339.948 592.027 338 604L315 598L310 603L311 609L299 603L299 608L298 608L294 603C291.023 615.9 311.632 614.156 314 624C311.534 623.36 307.83 620.608 305.283 621.661C299.401 624.091 311.788 638.182 316 639L316 640L314 641L321 643L321 650L320 650L320 646L318 644L311.385 647.535L297 641L309 662L306 659L304 661C298.318 660.09 294.195 662.22 293 668L299 672L296 672L297 678L297 683L296 683C293.542 675.804 283.167 674.405 277 677L278 680L258 675L258 676L261 677L261 678L258 676L253 677L269 687C268.006 693.974 273.92 696.39 280 697L280 702L305 715L304.657 719.056L313.999 721.574L329 731C321.847 734.603 318.359 732.466 312 729C309.173 732.602 302.591 725.129 299 723.63C288.704 719.33 282.149 714.612 272.996 708.898C268.395 706.026 263.548 705.367 260 701L255 705C248.724 702.105 245.95 698.846 239 702L243 712L240 716L246 713C240.877 726.067 225.565 713.565 226 728L247 731C250.309 739.193 244.733 747.183 257 748L258 752L252 749L247 760L254 759L243 772L246 773L246 778L243 779L243 780L246 781L245 788L269 790L269 796C276.989 795.916 281.503 802.463 273 807L273 808L278 806L290 810L283 822L295 819C293.07 826.12 295.35 829.828 303 829L303 831C308.265 830.04 311.031 830.251 314 835L300.957 847.293L290 850L291 854L286 855L286 856C290.339 859.964 292.221 861.43 298 859L298 868L304 863L305 863L309 865C304.067 870.325 295.694 874.024 294.233 882C293.201 887.631 297.686 893.709 297 900C303.495 898.615 305.06 885.367 307 880L308 880L316 879.625L327.921 878.171L335 867L335 874L339 874L340 871L342 871L343 876L340 877L340 878L343 879L338 887C340.211 893.891 334.691 896.313 332 902L333 903C340.339 900.493 347.534 897.499 348 889L350 892L353 891L344 918L352 913C355.232 917.789 358.222 912.812 359 909L360 909C360 913.872 356.735 921.684 354 921L357 925L354.698 941L352 952L362 954L363 954L367 942L368 942L369 948L370 948L374 942L375 942L376 945L372 946L376 956L379 952L389 951L391 954L387 975C392.863 973.163 400.958 969.538 402 963C407.167 968.894 399.539 981.187 398 988L404 988C406.812 982.787 410.185 984.701 414 988C408.593 990.765 406.54 996.373 405 1002L420 995L422 1001L432 1002L439 1024L447 1023L454 1024C459.055 1016.7 471.632 1033.95 479.74 1029.64C489.526 1024.44 478.91 1005.14 480.904 996C481.694 992.382 482.974 983.045 488 985L485 984C489.218 989.426 488.08 973.633 495 974L495 988L496 985L499 987L500 987L503 981L506 981L509 985L513 972L514 972L514 980L517 974C520.136 973.606 521.417 968.569 518 968L518 967L520 966L522 973L524 973L527 970L535 988L541 988L542 978L555 993L556 992C554.493 985.669 550.739 969.805 555 965C555.902 969.208 559.578 967.92 563 967L570 971L565 947L561 944L561 943L564 934L575 946L575 941L576 941L579 946L579 942L580 942L581 944L582 929C586.158 927.606 585.447 924.884 585 921L586 921L590 930C595.219 926.603 591.05 920.152 591.394 915C592.323 901.076 597.613 888.911 591 875L608 882L609 882L609 875L615 882L616 882L617 879L618 879C618.273 887.42 623.789 885.541 627.637 891.148C631.607 896.934 634.738 905.357 637 912L642 911C643.654 929.098 671.389 928.604 670 948L673 947C676.013 961.651 653.807 971.479 652 985L667 973L648 1002C656.662 995.882 669.424 986.343 673 976L677 978L676 975L684 970L685 970L688 972L695 965L696 966L696 968L692 969L692 973C700.799 972.373 708.682 958.93 716 968L719 967C720.82 970.412 726.319 974.61 725.267 978.831C722.6 989.535 699.464 995.026 704 1004L705 1004C709.339 1001.78 711.264 1003.33 712 1008L693 1018L696 1024C692.469 1025.14 688.617 1031.25 694.145 1032.97C697.004 1033.85 700.939 1031.98 704 1032L705 1025L708 1025L708 1034L713 1026L714 1026L715 1030L722 1025L714 1040L719 1037L732 1031L723.629 1054.42L716 1071L720 1071L720 1078L723 1077L728 1073L732 1079C732.821 1068.6 738.14 1066.49 742.548 1058C745.421 1052.47 745.322 1046.11 749 1041L748 1048C753.073 1045.23 753.331 1039.31 754 1034L757 1038L758 1038L761 1035L762 1040L769 1037L772 1048C774.834 1047.99 779.064 1049.44 781.682 1048.35C786.963 1046.14 782.335 1032.23 782 1028L789 1027C788.888 1028.76 788.709 1030.3 788.295 1032.02C785.46 1043.77 795.39 1031.47 800 1031C791.532 1040.97 796.56 1044.99 798 1056L800 1054L801 1054L801 1064L805 1059L806 1059C806.064 1061.99 805.946 1063.35 809 1064C807.566 1057.57 805.714 1045.07 812 1042C812.074 1046.53 815.16 1059.79 819 1062L821 1057L818 1071L824 1069L823 1080L827 1080L829 1068L830 1068C830.436 1073.59 833.002 1073.57 838 1073L836 1080L843 1074L846 1080C859.471 1079.15 866.473 1052.92 860 1042C871.255 1041 863.571 1058.42 863 1064L872 1062C872.632 1054.06 875.391 1039.5 884 1037L882 1049L892 1039L888 1029C892.952 1030.53 895.481 1029.58 898 1025L899 1025L906 1029L904 1034C912.106 1036.66 909 1041.17 911 1048L913 1048L918 1013L919 1013L923 1023L928 1014L934.138 1026.71L945 1041L946 1041L940 1013C947.903 1016.64 948.766 1017.43 956 1012L961 1024L966 1023L968 1003L975 1008L973 1001L977 1001L973 997L978 989L984 992C984.059 986.979 984.917 984.111 989 981C990 995.706 990.95 1009.42 1005 1018C1002.7 1024.3 998.587 1042.46 1005 1046L1008 1038L1009 1038L1008 1057L1010 1057L1012 1051L1019 1052L1026 1031L1026 1038C1045.03 1039.33 1036.13 1059.44 1048 1066C1049.18 1054.9 1043.71 1046.58 1038.82 1037C1037.49 1034.38 1033.46 1030.53 1033.48 1027.57C1033.5 1025.69 1041.63 1018.03 1043 1015L1044 1015L1046.69 1035L1062 1061L1076 1055L1076 1056L1074 1060L1070 1061L1075 1064L1075 1061L1082 1064L1080 1054L1081 1054C1082.55 1057.4 1085.1 1061.36 1088 1057L1089 1057L1089 1060L1095 1066C1105.08 1062.64 1087.37 1050.88 1084.44 1047C1082.63 1044.6 1081.19 1040.71 1078.59 1039.1C1076.14 1037.59 1072.67 1037.36 1070 1036L1070 1035C1077.78 1028.41 1068.78 1022.13 1070 1014L1071 1014C1075.16 1019.75 1082.65 1013.52 1086.96 1010.32C1094.12 1004.98 1099.37 997.613 1106.99 992.285C1109.07 990.824 1112.98 986.505 1115.76 987.921C1119.51 989.824 1119.26 995.495 1120.57 998.83C1121.91 1002.24 1123.71 1004.19 1124 1008L1126 1008C1127.12 1002.54 1131.01 995.545 1125 992C1127.86 982.348 1124.21 973.287 1131 965C1132.86 967.779 1134.09 967.393 1137 966L1138 967C1132.11 978.047 1147.14 980.874 1151 990C1158.07 986.832 1157.91 994.121 1164 996C1165.54 987.563 1152.24 973.974 1159 967L1159 972L1164 971L1167 974L1164 958C1170.35 962.513 1170.9 971.708 1176.6 975.968C1182.31 980.234 1184.59 970.079 1190 977L1192 977L1193 976L1193 971L1193.8 981.776L1200 996L1205 996L1205 995L1206 983C1215.67 987.971 1220.95 992.022 1222 1004C1227.74 1001.98 1226 994.054 1226 989L1230 999C1237.33 994.996 1233.36 987.025 1231 981C1238.36 986.985 1240.02 983.119 1241 975C1232.12 977.231 1217.24 963.995 1218 955L1220 955L1227 966L1236 966L1233 957L1244 964L1241 952L1247 952L1251 955L1247 959L1254 962L1256 962C1256.47 957.529 1254.98 955.042 1251 953L1257 939L1256 932L1261 933L1262 929L1270 937L1272 935L1279 939L1279 945L1285 943L1286 943C1289.02 944.653 1290.45 943.111 1293 941C1293.27 944.455 1291.85 949.479 1296 950L1299 954L1288 905L1290 910L1296 909L1315 936L1317 938L1318 938L1319 934L1328 939L1328 944L1339 942L1340 942L1342 946L1347 946L1348 943L1352 944L1353 940L1355 942L1356 942L1356 937C1358.97 939.512 1362.83 942.603 1366 939L1376 944L1376 930L1383 928L1387 940L1388 940L1388 931L1398 936L1393.2 925.424L1397 903L1400 903L1403 908C1402.81 898.663 1405.87 892.537 1416 895C1418.29 891.084 1420.57 890.185 1425 891C1425.03 888.106 1424.81 884.921 1427.3 882.914C1430.52 880.333 1446.75 882.058 1436 875L1456 868L1453 864L1453 862L1458 864L1457 857L1464 856L1461 851L1468 852L1468 839L1474 837L1475 840L1482 830L1485 831C1490.43 819.316 1474.93 804.177 1496 804L1496 803L1490 796L1492 791C1482.41 787.471 1450.57 778.707 1450 796C1444.4 792.464 1435.29 783.843 1435 777L1449 780L1444 768L1458 766L1456 756C1469.64 759.223 1484.39 757.33 1498 756L1489 748L1489 747L1498 744L1483 736L1483 735L1498 736L1486 721L1493 722L1492 719L1513.42 719.648L1530 715C1527.59 707 1518.06 700.352 1510 700L1510 695L1520 692L1515 686C1523.42 684.187 1508.57 678.616 1506 678C1508.08 672.757 1510.2 669.174 1516 668L1516 665L1522 666C1527.19 663.274 1534.79 667.02 1538.96 670.454C1550.18 679.688 1555.38 691.864 1570 698L1569 694C1580.27 693.274 1579.34 686.143 1578 677C1587.55 679.234 1579.75 664.837 1577.57 661C1574 654.698 1573.91 648.263 1571.02 642C1565.99 631.138 1558.4 625.56 1550.42 617.447C1546.83 613.801 1548.47 610.141 1550 606L1536 597L1542 592L1542 589L1538 588L1538 587C1543.47 586.574 1544.23 583.169 1547 579L1540 572L1540 571L1541 561L1559.42 562.965L1573 568L1573 561L1571 553L1578 548L1573.06 539.576L1572.26 529.313L1566.17 523.853L1554 501L1558 497L1554 498L1549 494L1555 488L1555 487L1549 483L1552 484L1552 483L1550 481L1554 483L1565 477L1574 477C1577.03 481.439 1581.18 480.194 1586 480L1586 479L1578 476C1579.14 474.139 1579.86 472.925 1582.11 472.309C1585.46 471.39 1588.79 471.859 1591.9 469.911C1598.36 465.853 1603.05 455.382 1594 452L1600 448C1599.63 444.113 1599.56 442.163 1603 440L1598 432L1604 429L1601 428L1601 426L1606 422C1598.86 418.276 1586.15 422.024 1585 411C1578.53 406.547 1574.79 405.32 1576 397L1570 396L1573 375L1569 376C1569.95 367.968 1570.62 359.544 1562 356L1564 351L1559 351L1554 336L1548 322L1552 325L1553 325L1553 319L1568 313L1585 305C1586.67 299.496 1593.29 294.912 1598 292L1598 290L1597 289L1584 288L1581 290L1592 280L1592 279C1582.05 276.112 1581.77 270.225 1585 262L1557 263L1565 255L1565 253L1561 249L1564 248L1564 247L1542 249C1539.93 242.798 1531.78 246.219 1527 247.657C1521.39 249.344 1514.94 252.378 1509.01 252.193C1504.94 252.066 1502.28 249.381 1498 249.735C1493.5 250.106 1486.82 253.204 1484 249C1477.5 249.542 1463.47 255.949 1462 247L1457 246L1460 236L1444 242C1444.02 239.991 1444.16 238.005 1444.23 236C1444.72 220.815 1426.15 242.479 1423.88 240.097C1422.68 238.835 1427.61 231.134 1428 229L1409 228L1410 225L1399 230L1398 226C1391.16 228.149 1382.93 227.198 1379 234L1375 232L1375 221L1371 222C1375.59 211.622 1381.63 207.72 1388.54 199C1394.33 191.705 1396.13 184.384 1400.64 176.83C1403.99 171.206 1409.66 166.821 1412.53 161C1416.45 153.018 1412.07 140.909 1415.68 132.004C1420.19 120.863 1431.27 112.615 1429 99L1426 100C1423.09 92.7334 1409.52 94.4157 1404.01 97.8812C1394.85 103.642 1383.07 113.368 1376.53 122C1371.77 128.27 1371.23 137.046 1364 141L1363 138C1356.92 143.234 1359.99 153.898 1350 150L1349 154L1348 154L1348 149L1334 153L1333 156L1328 156L1326 130L1316 132L1315 135C1310.92 132.749 1306.72 131.467 1304 136L1302 135L1301 140L1300 140L1299 137L1292 139C1293.79 146.905 1282.49 162.026 1274 160L1273 160C1266.78 165.267 1256.94 165.044 1253.83 155.871C1252.01 150.527 1256.06 145.542 1250 142L1248 149L1240 135L1238 137L1228 135L1226 142L1214 137L1212 145L1211 145C1209.86 142.461 1206.17 136.701 1205 142L1201 140L1202 152L1199 162L1196 161C1194.41 166.177 1194.34 169.708 1188 169C1180.71 179.231 1161.36 180.432 1150 184C1150.02 178.334 1153.34 170.56 1148 167L1143 183C1144.25 187.254 1141.28 189.644 1138 192L1143 174C1132.85 179.548 1132.62 196.877 1122 200C1122.46 194.725 1123.79 186.747 1130 186L1123.49 175.296L1124 167L1111 187L1110 186L1114 170L1099 182C1103.28 166.076 1116.55 157.028 1112 139L1108 146C1103.6 143.847 1106.23 140.92 1107 137L1103 138C1104.72 132.935 1109.09 123.573 1112.56 119.529C1118.19 112.956 1129.49 108.458 1126 98L1130 96L1130 94C1122.24 92.8768 1120.62 104.838 1114 108C1110.31 101.359 1108.3 107.193 1110 112L1107 113L1104 104L1104 95C1112.97 90.0109 1112.65 73.1526 1109 65L1100 66L1102 50L1101 50L1095 57L1095 53L1089 55L1094 58L1087 64L1092 47L1090 43L1089 43L1084 52L1078 53L1081 48L1078 45C1073.94 53.6663 1068.29 60.5723 1063.92 69.0008C1061.61 73.4445 1062.38 78.3014 1057 80C1060.87 74.0726 1075.09 50.182 1062 48C1063.68 43.911 1063.97 41.4585 1060 39L1056 42L1052 20L1046 34L1043 25C1038.17 28.1818 1037.53 38.4957 1037 44L1027 37L1031 14L1016 25L1019 9L1014 8C1006.33 12.2296 1012.46 24.3782 1004 29L988 52L991 45C985.001 44.7205 975.154 49.4016 976 56C971.371 52.9492 975.669 47.6042 976 43C971.239 45.4719 967.84 48.5564 967 54L964 51L962 51L948 72L946 72L948 62L941 53C933.969 55.8271 932.848 61.4493 936 68L929 65L930 57L928 57L926 68L921 57L917 62L918 59L901 54C902.638 49.3268 893.539 36.819 892 44L887 41L891 61L875 42L874 42L877 57L873 51L866 45L858 43L859 51L853 42L852 42L850 55L847 47C839.417 49.7882 843.146 58.5325 843 65L841 65C840.791 56.3928 832.256 47.3065 824 45L829 60L816 50L813 60L817 64L807 66L804 62L806 70L790 61L778 67C770.539 62.3954 765.919 67.6342 758 67C753.156 77.985 764.029 85.9367 748 87C748.13 89.1586 748.97 91.7711 748.687 93.8966C746.779 108.207 726.373 88.5144 722 87L723 106L725 104L728 106L728 107L727 109C721.428 108.069 716.729 109.16 715 115C723.554 119.437 723.332 126.2 728.613 131.969C737.655 141.845 747.966 148.567 760 154.035C770.618 158.859 775.72 164.243 783 152C787.893 162.544 785.304 169.005 786.054 180C786.509 186.665 788.97 193.336 789 200L787 200C784.218 194.52 776.358 177.174 768.21 178.967C758.898 181.016 764.339 196.498 765 202L759 200C758.376 196.007 757.144 194.182 753 194C750.616 186.424 737.132 180.852 730 183L730 184C735.348 184.408 737.176 186.83 738 192L730 187L735 195L735 196L730 206C727.102 191.636 702.911 175.422 691 168L692 164C686.344 156.535 694.138 145.486 684 140L690 132C685.914 120.146 695.394 107.816 696 96L693 96L692 89L689 94L688 94L687 81C680.74 79.0825 683.243 71.3162 681 66L679 67C675.892 61.1578 673.445 50.7871 674.677 44C676.1 36.1687 682.343 29.3823 681 21L678 23L677 0C666.597 0 648.857 -3.60632 641 4L641 0L630 0z"/>
<path style="fill:#fdfdfd; stroke:none;" d="M641 0L641 4L644 0L641 0M677 0L678 23L681 21C681.451 36.5464 667.592 52.2289 679 67L681 66C682.714 71.4178 680.406 79.8988 687 81L688 94L689 94L692 89L693 96L696 96C694.911 106.866 684.82 121.445 690 132L684 140L692 164L691 168C703 178.721 724.589 190.082 730 206L735 196L735 195L730 187L738 192C737.486 186.353 735.744 184.189 730 184L730 183C737.622 181.673 749.296 186.914 753 194C756.846 194.423 758.04 196.378 759 200L765 202C764.796 198.364 763.47 195.011 763.174 191.424C762.701 185.711 765.879 175.848 772.961 181.257C779.611 186.335 782.209 193.457 787 200L789 200C789.399 192.929 786.52 185.998 786.054 179C785.356 168.521 789.348 161.758 783 152C780.659 154.779 778.862 158.99 774.985 159.893C770.44 160.951 765.772 156.404 762 154.518C749.934 148.485 737.342 142.287 728.688 131.316C723.72 125.019 724.577 118.256 715 115C717.576 109.759 721.442 108.503 727 109L728 107L728 106L723 106L722 87C728.033 90.1739 733.481 97.8726 740.286 99.3495C743.588 100.066 749.069 97.6647 749.227 93.8966C749.319 91.708 748.266 89.1973 748 87L756.605 86.858L758 67L778 67L790 61L806 70L804 62L807 66L817 64L813 60L816 50L829 60L824 45C831.517 48.3883 840.529 56.4291 841 65L843 65C843.394 58.1582 839.997 50.9299 847 47L850 55C854.945 51.6864 851.132 47.0527 852 42L853 42L859 51L858 43L866 45C867.115 48.5193 869.321 50.5137 873 51L877 57L874 42L875 42L891 61L887 41L892 44C895.696 38.6191 901.327 50.3011 901 54C905.644 54.067 915.758 57.384 917 62L921 57L926 68L928 57L930 57L929 65L936 68C933.466 61.0334 934.427 56.8815 941 53L948 62L946 72L948 72L962 51L964 51L967 54L976 43C975.708 47.085 969.739 54.6586 976 56C976.096 50.1194 985.323 45.0559 991 45L988 52C993.49 48.3851 1003.15 35.3406 1004 29C1012.62 26.1659 1007.6 13.3309 1014 8L1019 9L1016 25L1031 14L1027 37L1037 44L1043 25L1046 34L1052 20L1056 42L1060 39C1063.16 42.0077 1063.17 43.8892 1062 48C1074.57 51.8124 1060.24 73.0325 1057 80C1062.53 79.0399 1061.69 74.3129 1063.92 70C1068.53 61.0716 1075.11 54.8396 1078 45L1081 48C1077.95 48.6544 1078.06 50.0065 1078 53L1084 52L1089 43L1090 43L1092 47L1087 64L1094 58L1089 55L1095 53L1095 57L1101 50L1102 50L1100 66L1109 65C1111.69 74.4563 1112.72 87.8796 1104 95L1104 104L1107 113L1110 112C1109.05 107.735 1109.37 102.846 1114 108L1130 94L1130 96L1126 98C1128.42 108.054 1118.32 112.47 1112.56 118.785C1109.06 122.625 1104.02 132.962 1103 138L1107 137C1105.76 140.7 1103.02 144.586 1108 146L1112 139L1111.62 158L1099 182L1114 170L1110 186L1111 187L1124 167L1123.32 175.741L1130 186C1123.29 186.302 1122.25 194.424 1122 200C1131.39 198.481 1135.46 180.23 1143 174L1138 192C1141.82 190.163 1145.36 187.246 1143 183L1148 167C1152.65 171.433 1150 178.021 1150 184C1158.32 182.145 1164.94 178.98 1173.01 176.72C1179.7 174.849 1184.54 176.33 1188 169C1194.68 170.389 1194.67 166.503 1196 161L1199 162L1202 152L1201 140L1205 142L1206 139L1211 145L1212 145L1214 137L1226 142L1228 135L1240 135L1248 149C1250.83 146.942 1250.71 145.337 1250 142C1255.51 146.866 1251.4 151.05 1253.75 156.741C1257.19 165.062 1267.48 166.627 1273 160L1274 160C1282.02 164.92 1294.15 146.348 1292 139L1299 137L1300 140L1301 140L1302 135L1304 136C1307.47 132.036 1310.51 133.056 1315 135L1316 132L1326 130L1328 156L1333 156L1334 153L1348 149L1348 154L1349 154L1350 150C1359.19 155.379 1358.22 143.834 1363 138L1364 141C1370.82 138.555 1371.02 131.604 1374.47 126C1379.89 117.19 1387.22 113.867 1394.56 107.505C1398.91 103.739 1402.09 98.159 1408 96.4861C1413.93 94.809 1422.49 94.2563 1426 100L1429 99C1429.61 112.783 1420.37 119.578 1415.68 131.015C1411.95 140.1 1416.44 152.879 1411.88 161C1408.83 166.432 1403.71 170.518 1400.59 176C1397.9 180.732 1397.76 186.229 1394.37 190.714C1385.93 201.886 1375.41 208.456 1371 222L1375 221L1375 232L1379 234L1398 226L1399 230L1410 225L1409 228L1428 229C1427.1 231.996 1422.4 236.832 1422.91 239.702C1423.69 243.986 1429.73 237.752 1430.75 236.815C1439.45 228.883 1444.02 230.909 1444 242L1460 236L1457 246L1462 247C1462.75 256.346 1477.67 250.334 1484 249C1485.15 254.384 1494.66 249.998 1499 249.806C1502.71 249.641 1504.48 252.694 1508 252.694C1515.53 252.694 1538.42 239.949 1542 249L1564 247L1564 248L1561 249L1565 253L1565 255L1557 263L1585 262C1580.72 269.854 1581.63 277.336 1592 279L1592 280L1581 290L1584 288L1598 290L1598 292C1592.85 294.167 1586.09 299.303 1585 305L1568 313L1553 319L1553 325L1552 325L1548 322L1554 336C1552.55 342.423 1555.74 345.755 1559 351L1564 351L1562 356C1570.02 360.844 1569.5 367.498 1569 376L1573 375L1570 396L1576 397C1573.92 405.14 1577.78 407.578 1585 411C1583.98 421.589 1599.37 419.501 1606 422L1601 426L1601 428L1604 429L1598 432L1603 440C1598.93 441.642 1599.3 444.018 1600 448L1594 452C1612.51 462.571 1579.93 471.193 1578 476L1586 479L1586 480C1581.16 480.059 1577.65 480.552 1574 477L1565 477L1554 483L1550 481L1552 483L1552 484L1549 483L1555 487L1555 488C1551.08 488.652 1550.19 490.324 1549 494L1554 498L1558 497L1554 501C1556.74 514.122 1565.42 519.249 1571.82 529.313C1573.88 532.543 1571.86 536.154 1572.56 539.576C1573.2 542.747 1576.12 545.487 1578 548L1571 553C1571.39 556.468 1568.78 560.091 1573 561L1573 568L1560 562.846L1541 561L1540 571L1540 572L1547 579L1538 587L1538 588L1542 589L1542 592L1536 597L1550 606C1547.9 609.873 1546.39 613.654 1549.7 617.447C1557.2 626.042 1564.71 631.56 1570.49 642C1573.76 647.896 1573.46 654.884 1576.99 661C1579.28 664.964 1587.24 678.032 1578 677C1578.82 686.463 1579.64 691.849 1569 694L1570 698C1563.5 694.079 1554.97 689.303 1549.88 683.701C1545.15 678.501 1543.18 672.275 1537 668.26C1533.66 666.094 1525.1 662.711 1522 666L1516 665L1516 668C1509.78 668.696 1507.59 672.249 1506 678C1508.9 679.084 1519.93 682.007 1515 686L1520 692L1510 695L1510 700C1518.15 700.672 1526.41 707.688 1530 715L1512 719.5L1492 719L1493 722L1486 721L1498 736L1483 735L1483 736L1498 744L1489 747L1489 748L1498 756L1456 756L1458 766L1444 768L1449 780L1435 777C1434.05 783.638 1444.13 793.492 1450 796C1451.34 778.36 1482.18 788.394 1492 791L1490 796L1496 803L1496 804C1474.8 804.058 1489.22 818.487 1485 831L1482 830C1480.73 832.344 1476.1 841.313 1474 837L1468 839L1468 852L1461 851L1464 856L1457 857L1458 864L1456 861L1453 862L1453 864L1456 868C1448.58 867.227 1442.44 872.049 1436 875C1444.85 882.883 1431.35 879.652 1427.32 882.36C1424.49 884.255 1425.01 888.029 1425 891C1420.54 889.785 1417.71 890.528 1416 895C1405.61 891.3 1402.48 898.642 1403 908L1400 903L1397 903C1394.51 915.547 1391.3 924.443 1398 936L1388 931L1388 940L1387 940L1383 928L1376 930L1376 944L1366 939C1362.26 941.66 1359.5 939.199 1356 937L1356 942L1355 942L1353 940L1352 944L1348 943L1347 946L1342 946L1340 942L1339 942L1328 944L1328 939L1319 934L1318 938L1317 938L1315 936L1296 909L1290 910L1288 905L1293.3 924L1299 954L1296 950C1291.78 949.449 1293.55 944.346 1293 941L1286 943L1285 943L1279 945L1279 939L1272 935L1272 937L1270 937C1268.23 932.651 1266.57 930.4 1262 929L1261 933L1256 932L1257 939L1251 953L1256 962L1254 962L1247 959L1251 955L1247 952L1241 952L1244 964L1233 957L1236 966L1227 966L1220 955L1218 955C1215.97 964.214 1232.28 978.037 1241 975C1238.97 983.436 1238.73 985.312 1231 981C1232.74 988.008 1236.79 993.447 1230 999L1226 989C1226 994.42 1227.28 1000.92 1222 1004C1221.47 992.361 1216.52 986.621 1206 983C1204.4 986.33 1202.12 992.05 1205 995L1205 996L1200 996L1198.98 986.495L1194.04 980.892L1193 971L1193 976L1192 977L1190 977C1185.41 968.98 1183 979.234 1177.32 975.928C1171.02 972.266 1171.33 961.779 1164 958L1167 974L1164 971L1159 972L1159 967C1151.88 972.455 1164.83 988.751 1164 996C1158.58 993.224 1157.67 986.055 1151 990C1148.29 979.595 1133.04 978.811 1138 967L1137 966L1131 965C1123.31 971.613 1127.15 982.98 1125 992C1130.11 996.769 1126.73 1002.03 1126 1008L1124 1008C1123.87 1004.1 1122.57 1002.24 1120.97 998.83C1119.35 995.403 1119.84 989.03 1115.76 987.176C1112.73 985.797 1108.28 990.706 1106 992.285C1097.51 998.155 1091.56 1006.92 1083 1012.15C1078.57 1014.87 1075.42 1018.03 1071 1014L1070 1014C1067.84 1022.64 1076.66 1027.12 1070 1035L1070 1036L1078.59 1039.77L1088.44 1052.67L1097.67 1061.07L1095 1066L1089 1057L1088 1057C1084.62 1059.81 1083.07 1057.12 1081 1054L1080 1054L1082 1064L1075 1061L1075 1064L1070 1061L1074 1060L1076 1056L1076 1055L1062 1061L1047.08 1035L1044 1015L1043 1015C1041.21 1017.83 1033.52 1024.87 1033.18 1027.3C1032.7 1030.69 1037.34 1035.09 1038.82 1038C1043.63 1047.44 1048.59 1055.15 1048 1066C1037.5 1057.05 1044.64 1038.45 1026 1038L1026 1031C1020.61 1034.58 1020.61 1045.93 1019 1052L1012 1051L1010 1057L1008 1057L1009 1038L1008 1038L1005 1046C999.108 1041.09 1003.1 1025.18 1005 1018C999.748 1013.29 991.023 1004.15 989.468 997C988.373 991.965 989.592 986.174 989 981C984.167 983.438 984.018 986.958 984 992L978 989L973 997L977 1001L973 1001L975 1008L968 1003L966 1023L961 1024L956 1012C948.139 1015.92 948.243 1015.37 940 1013L946 1041L945 1041L934.138 1025.83L928 1014L923 1023L919 1013L918 1013L913 1048L911 1048C909.46 1041.3 912.781 1035.14 904 1034L906 1029L899 1025L898 1025C894.834 1028.93 892.953 1030.13 888 1029L892 1039L882 1049L884 1037C874.917 1038.45 872.335 1054.21 872 1062L863 1064C863.898 1058.94 871.218 1039.39 860 1042C865.269 1054.81 858.222 1067.02 854 1080L1920 1080L1920 0L677 0z"/>
<path style="fill:#040404; stroke:none;" d="M1027.67 11.3334L1028.33 11.6666L1027.67 11.3334M1005 19L1004 26L1007 19L1005 19z"/>
<path style="fill:#fdfdfd; stroke:none;" d="M1016 29L1016 32L1019 31L1019 30L1016 29z"/>
<path style="fill:#040404; stroke:none;" d="M1030 29L1030 32L1034 31L1030 29z"/>
<path style="fill:#fdfdfd; stroke:none;" d="M1006.67 31.3334L1007.33 31.6666L1006.67 31.3334z"/>
<path style="fill:#040404; stroke:none;" d="M1028 35L1029 36L1028 35M1062 35L1062 38L1063 38L1064 35L1062 35M992 37L992 40L994 40L994 37L992 37z"/>
<path style="fill:#fdfdfd; stroke:none;" d="M1026 37L1024 41L1024 42L1028 42L1026 37z"/>
<path style="fill:#040404; stroke:none;" d="M1067 39L1068 40L1067 39z"/>
<path style="fill:#fdfdfd; stroke:none;" d="M1031.33 40.6666L1031.67 41.3334L1031.33 40.6666M1044 40L1044 44L1045 44L1044 40M1033.67 45.3334L1034.33 45.6666L1033.67 45.3334M876 49L877 50L876 49z"/>
<path style="fill:#040404; stroke:none;" d="M937 51L937 52L940 52L937 51z"/>
<path style="fill:#fdfdfd; stroke:none;" d="M1078.33 54.6666L1078.67 55.3334L1078.33 54.6666z"/>
<path style="fill:#040404; stroke:none;" d="M807 57L806 60L809 60L807 57z"/>
<path style="fill:#fdfdfd; stroke:none;" d="M877 57L878 58L877 57M878 59L878 62L880 62L880 59L878 59z"/>
<path style="fill:#040404; stroke:none;" d="M1107 59L1108 60L1107 59M1111 59L1112 60L1111 59z"/>
<path style="fill:#fdfdfd; stroke:none;" d="M977 61L978 64L977 61z"/>
<path style="fill:#040404; stroke:none;" d="M1106 61L1107 62L1106 61z"/>
<path style="fill:#fdfdfd; stroke:none;" d="M795 65L797 68L795 65M828 65L829 66L828 65z"/>
<path style="fill:#040404; stroke:none;" d="M753 68L753 74L754 74L753 68z"/>
<path style="fill:#fdfdfd; stroke:none;" d="M752 93L752 94L755 94L752 93M750 102L750 104L752 104L752 102L750 102z"/>
<path style="fill:#040404; stroke:none;" d="M712 108L718 108L718 106L712 108M506.667 107.333L507.333 107.667L506.667 107.333z"/>
<path style="fill:#fdfdfd; stroke:none;" d="M728.667 107.333L729.333 107.667L728.667 107.333M727 109L728 110L727 109M732 109L736 112L732 109M1103 110L1094 124L1106 116L1103 110z"/>
<path style="fill:#040404; stroke:none;" d="M1199 139L1200 140L1199 139z"/>
<path style="fill:#fdfdfd; stroke:none;" d="M1099 144L1097 148L1100 149L1101 148L1099 144M568 145L569 146L568 145M1093 145L1091 150L1095 152L1096 146L1093 145M1101 149L1105 153L1106 149L1101 149M499 153L500 154L499 153M1100.67 155.333L1101.33 155.667L1100.67 155.333M1108 155L1109 156L1108 155M495 156L496 157L495 156M496 159L497 160L496 159M497.333 161.667L497.667 162.333L497.333 161.667M1074 163L1075 164L1074 163M1093 163L1093 164L1096 164L1093 163M571 167L572 168L571 167M1091 167L1092 168L1091 167M572.667 171.333L573.333 171.667L572.667 171.333M488 173L489 178L490 178L488 173M555.333 178.667L555.667 179.333L555.333 178.667z"/>
<path style="fill:#040404; stroke:none;" d="M1155 179C1156.81 181.57 1158.13 181.451 1160 179L1155 179z"/>
<path style="fill:#fdfdfd; stroke:none;" d="M1105 181L1106 182L1105 181M1125 181L1125 182L1128 182L1125 181M697 182L698 183L697 182M767 187L768 188L767 187M1107 187L1108 188L1107 187z"/>
<path style="fill:#040404; stroke:none;" d="M388 199L390 201L388 199M416 199L417 200L416 199z"/>
<path style="fill:#fdfdfd; stroke:none;" d="M392 204L394 208L392 204M475 223L476 224L475 223M424 224L425 225L424 224M472 227C472.546 231.785 473.51 236.084 479 236L472 227z"/>
<path style="fill:#040404; stroke:none;" d="M336 231L337 232L336 231z"/>
<path style="fill:#fdfdfd; stroke:none;" d="M443 233L441 236L443 233M466 237L466 242L467 242L468 237L466 237M440 239L441 240L440 239M1443 242L1444 243L1443 242z"/>
<path style="fill:#040404; stroke:none;" d="M332 245L333 246L332 245z"/>
<path style="fill:#fdfdfd; stroke:none;" d="M460 245L461 246L460 245M1456.33 246.667L1456.67 247.333L1456.33 246.667z"/>
<path style="fill:#040404; stroke:none;" d="M1484.67 247.333L1485.33 247.667L1484.67 247.333z"/>
<path style="fill:#fdfdfd; stroke:none;" d="M1547 248L1548 249L1547 248z"/>
<path style="fill:#040404; stroke:none;" d="M1589 257L1589 260L1591 260L1591 257L1589 257z"/>
<path style="fill:#fdfdfd; stroke:none;" d="M1579 269L1576 271L1576 272L1579 269M348 273L348 276L350 276L350 273L348 273M1584 277L1584 280L1585 280L1584 277z"/>
<path style="fill:#040404; stroke:none;" d="M1601 291L1602 292L1601 291z"/>
<path style="fill:#fdfdfd; stroke:none;" d="M351.333 296.667L351.667 297.333L351.333 296.667M340 301L342 304L340 301M344 307L345 308L344 307z"/>
<path style="fill:#040404; stroke:none;" d="M327 315L326 317L327 315M315.667 325.333L316.333 325.667L315.667 325.333z"/>
<path style="fill:#fdfdfd; stroke:none;" d="M1506 339L1506 340L1509 340L1506 339M1508 343L1502 352L1511 352L1508 343M304.333 371.667L304.667 372.333L304.333 371.667M296 389L297 390L296 389z"/>
<path style="fill:#040404; stroke:none;" d="M290 396L293 393L290 396z"/>
<path style="fill:#fdfdfd; stroke:none;" d="M294.667 401.333L295.333 401.667L294.667 401.333M301 417L302 418L301 417M383.667 427.333L384.333 427.667L383.667 427.333M388 429L392 432L388 429M299.667 435.333L300.333 435.667L299.667 435.333M395 435L395 436L399 436L395 435M1599 437L1600 438L1599 437M402 439L404 441L404 439L402 439M407 443L408 444L407 443M355 453L356 454L355 453z"/>
<path style="fill:#040404; stroke:none;" d="M350 456L349 460L350 460L350 456z"/>
<path style="fill:#fdfdfd; stroke:none;" d="M370 457L371 458L370 457M379 463L380 464L379 463M1558.67 475.333L1559.33 475.667L1558.67 475.333M328 486L328 489L330 488L330 487L328 486M328 491L329 492L328 491M1544.67 491.333L1545.33 491.667L1544.67 491.333M340 495L340 498C342.006 496.873 342.006 496.127 340 495z"/>
<path style="fill:#040404; stroke:none;" d="M280 507L281 508L280 507M308.667 511.333L309.333 511.667L308.667 511.333z"/>
<path style="fill:#fdfdfd; stroke:none;" d="M315 513L316 514L315 513M316 515L317 516L316 515M336 519L337 520L336 519M314 561L315 562L314 561z"/>
<path style="fill:#040404; stroke:none;" d="M321 583L322 584L321 583z"/>
<path style="fill:#fdfdfd; stroke:none;" d="M340 597L344 600L343 597L340 597M346 601L350 604L350 603L346 601M316 623L316 624L319 624L316 623z"/>
<path style="fill:#040404; stroke:none;" d="M320 645L321 646L320 645M291 666L290 668L292 668L291 666z"/>
<path style="fill:#fdfdfd; stroke:none;" d="M1506 673L1507 674L1506 673z"/>
<path style="fill:#040404; stroke:none;" d="M256.667 674.333L257.333 674.667L256.667 674.333z"/>
<path style="fill:#fdfdfd; stroke:none;" d="M1505 688L1508 686L1505 688M1513.67 687.333L1514.33 687.667L1513.67 687.333M272.667 691.333L273.333 691.667L272.667 691.333M1575 691L1576 692L1575 691M1497 693C1499.69 696.736 1503.72 696 1508 696L1508 695L1497 693M254.667 719.333L255.333 719.667L254.667 719.333M1481 721L1482 722L1481 721M332.667 731.333L333.333 731.667L332.667 731.333M255.667 745.333L256.333 745.667L255.667 745.333M1442 747L1445 750L1442 747M1485 751L1486 752L1485 751M1415 755L1416 756L1415 755M1454.67 755.333L1455.33 755.667L1454.67 755.333M1416 757C1417.49 765.235 1424.89 774.672 1432 779L1416 757z"/>
<path style="fill:#040404; stroke:none;" d="M242.667 783.333L243.333 783.667L242.667 783.333z"/>
<path style="fill:#fdfdfd; stroke:none;" d="M1485 797L1487 799L1487 797L1485 797M1481 807L1482 808L1481 807z"/>
<path style="fill:#040404; stroke:none;" d="M1484 811L1485 812L1484 811z"/>
<path style="fill:#fdfdfd; stroke:none;" d="M316 831L316 834L317 834L316 831M1454 855L1455 856L1454 855M340 859L341 860L340 859z"/>
<path style="fill:#040404; stroke:none;" d="M293 871L292 874L293 871z"/>
<path style="fill:#fdfdfd; stroke:none;" d="M597 871L597 872L600 872L597 871z"/>
<path style="fill:#040404; stroke:none;" d="M1444 872L1444 874L1446 874L1444 872M289 874L288 876L290 876L289 874z"/>
<path style="fill:#fdfdfd; stroke:none;" d="M300 881L298 884C300.251 883.527 301.118 883.14 300 881M348 887L349 888L348 887M1394 901L1395 905L1396 905L1394 901z"/>
<path style="fill:#040404; stroke:none;" d="M1398 905L1398 908L1399 908L1398 905z"/>
<path style="fill:#fdfdfd; stroke:none;" d="M358 907L359 908L358 907M588 909L588 912L590 912L590 909L588 909M1185 910L1185 913L1186 913L1185 910M794 911L796 916L794 911M385 912L384 922L385 922L387 912L385 912M790 913L786 927L786 928L797.079 923.147L792 913L790 913M781 921L763 930L764 923C752.947 927.425 753.513 932.694 756.407 943C757.258 946.032 757.702 952.364 762.09 952.364C766.189 952.364 768.588 946.836 770.519 944C774.281 938.475 778.479 933.937 785 932L781 921M381 927L380 930L381 927M1375 927L1377 929L1375 927z"/>
<path style="fill:#040404; stroke:none;" d="M760 931L761 932L760 931z"/>
<path style="fill:#fdfdfd; stroke:none;" d="M374 935L368 940L372 937L376 935L374 935M573 935L573 937L575 935L573 935M1280.67 935.333L1281.33 935.667L1280.67 935.333z"/>
<path style="fill:#040404; stroke:none;" d="M1271.33 938.667L1271.67 939.333L1271.33 938.667z"/>
<path style="fill:#fdfdfd; stroke:none;" d="M1345 941L1346 942L1345 941M1216 945L1216 950L1216 945M380 947L381 948L380 947M391 947L392 948L391 947z"/>
<path style="fill:#040404; stroke:none;" d="M1325 947L1326 948L1325 947z"/>
<path style="fill:#fdfdfd; stroke:none;" d="M562.667 949.333L563.333 949.667L562.667 949.333M1157 949L1156 952L1157 949M1166 950L1167 954L1170 949L1166 950M1152 954L1151 955L1151 956L1152 957L1153 957L1154 956L1154 955L1152 954M1049 957L1053 956L1049 957M1228 956L1227 958L1229 958L1228 956M1161 957L1161 958L1164 958L1161 957M1160 959L1160 960L1163 960L1160 959M1132 962L1132 964L1134 964L1132 962M1061.67 963.333L1062.33 963.667L1061.67 963.333z"/>
<path style="fill:#040404; stroke:none;" d="M1259 963L1258 965L1260 965L1259 963M1264 968L1270 968C1267.88 965.054 1266.12 965.054 1264 968z"/>
<path style="fill:#fdfdfd; stroke:none;" d="M674 968L673 975L674 975L674 968M1143 972L1146 973L1147 969L1143 972M1177 972L1180 972L1179 970L1177 972z"/>
<path style="fill:#040404; stroke:none;" d="M386 975L387 976L386 975z"/>
<path style="fill:#fdfdfd; stroke:none;" d="M980 977L984 982C984.547 978.44 983.49 977.581 980 977M1150 977C1149.43 979.396 1149.52 979.487 1152 980L1150 977z"/>
<path style="fill:#040404; stroke:none;" d="M543.333 980.667L543.667 981.333L543.333 980.667M505 983L506 984L505 983z"/>
<path style="fill:#fdfdfd; stroke:none;" d="M1221 983L1225 989L1224 983L1221 983z"/>
<path style="fill:#040404; stroke:none;" d="M1208 986L1209 987L1208 986z"/>
<path style="fill:#fdfdfd; stroke:none;" d="M970 990L973 994L970 990z"/>
<path style="fill:#040404; stroke:none;" d="M1153 993L1153 996L1156 996L1156 993L1153 993z"/>
<path style="fill:#fdfdfd; stroke:none;" d="M934 997L934 1000L936 1000L936 997L934 997z"/>
<path style="fill:#040404; stroke:none;" d="M404 1002L405 1003L404 1002z"/>
<path style="fill:#fdfdfd; stroke:none;" d="M927 1004L926 1008L927 1004M733 1013L729 1024C732.932 1021.06 735.382 1017.79 733 1013M738.667 1013.33L739.333 1013.67L738.667 1013.33M961 1013L962 1014L961 1013M961 1015L962 1016L961 1015M899 1019L899 1020L903 1020L899 1019M880 1027L880 1028L884 1028L880 1027M1007 1027L1008 1030L1009 1030L1010 1027L1007 1027M1063 1031L1063 1032L1067 1032L1063 1031z"/>
<path style="fill:#040404; stroke:none;" d="M476 1032L477 1035L478 1035L478 1032L476 1032M705 1037L706 1038L705 1037M704.667 1039.33L705.333 1039.67L704.667 1039.33z"/>
<path style="fill:#fdfdfd; stroke:none;" d="M848 1039L848 1040L851 1040L848 1039z"/>
<path style="fill:#040404; stroke:none;" d="M789 1041L789 1044L792 1044L792 1041L789 1041z"/>
<path style="fill:#fdfdfd; stroke:none;" d="M816 1041L816 1048L818 1041L816 1041z"/>
<path style="fill:#040404; stroke:none;" d="M943 1041L944 1042L943 1041z"/>
<path style="fill:#fdfdfd; stroke:none;" d="M779 1043L780 1044L779 1043M823 1043L824 1044L823 1043M1066 1044L1066 1056C1070.35 1052.91 1070.13 1048.47 1068 1044L1066 1044M800 1051L801 1052L800 1051M834 1053L837 1056L834 1053M847 1056L850 1053L847 1056M855.333 1057.67L855.667 1058.33L855.333 1057.67M844 1060L843 1072L844 1072L846 1060L844 1060M829 1068L827 1080C833.173 1080 836.762 1079.75 838 1073C832.863 1073.24 831.398 1072.46 829 1068z"/>
<path style="fill:#040404; stroke:none;" d="M1095 1068L1095 1072L1096 1072L1095 1068z"/>
<path style="fill:#fdfdfd; stroke:none;" d="M850 1069L850 1072L852 1072L852 1069L850 1069M842 1074L840 1080L846 1080L842 1074M848.667 1079.33L849.333 1079.67L848.667 1079.33z"/>
</svg>
