<?xml version="1.0" standalone="yes"?>
<svg xmlns="http://www.w3.org/2000/svg" width="1920" height="1080">
<path style="fill:#fdfdfd; stroke:none;" d="M0 0L0 1080L716 1080C711.127 1069.06 714.036 1062.6 724 1056L720 1052L727 1036C722.167 1038.68 719.914 1046.56 714 1045L713 1045L704 1052L719 1030L701 1044C702.507 1039.18 709.85 1031.26 705 1027L704 1034L699 1033L696 1042L683 1030L683 1029L686 1028L686 1027L682 1029L678 1024L678 1023L698 1012L698 1011L688 1012C692.771 1006.05 696.555 1000.29 703 995.928C709.3 991.662 714.273 991.767 718.885 984.999C724.544 976.696 723.84 967.226 711 966.108C702.37 965.356 699.198 975.258 690 973L689 976L679 975C680.543 980.91 675.148 980.18 671.545 982.985C668.018 985.729 663.265 992.103 661 996L659 994L638 1016C641.826 1010.95 643.522 1004.95 647.239 1000C653.44 991.747 664.802 983.82 666 973L665 973L645 997L644 997C646.15 984.866 655.935 976.718 663.528 967.611C665.724 964.977 665.084 961.804 666.722 959.111C667.909 957.161 670.885 956.928 671.639 954.75C673.01 950.789 669.091 941.204 666.861 938C665.634 936.238 663.685 931.519 662 934C653.37 926.438 645.734 921.901 641 911L640 911L638 915C634.118 902.863 630.001 886.872 615 888L617 884L617 883L614 884L611 876L609 882L601 882L602 879L596 877L595 877L594 888L596 892L594 914L594 911L593 911L590 932L589 925L586 925L586 932L583 931L579 952L577 947L565 935L562 944L566 952L569 951L572 974C567.891 973.612 560.93 968.521 557.433 969.733C551.907 971.649 557.412 991.63 558 996L557 996L546 982L545 982L543 992L536 991C534.545 987.57 525.201 970.404 524 976L521 973L516 982L514 982L514 973L513 973L509 987L507 987L504 982C502.607 984.375 500.675 988.579 498 986L495 990L494 990L493 975L488 975C490.319 980.475 490.892 987.669 483 987L486.038 1024L484 1036L480 1033L474 1038L472 1031L468 1032L455 1021L448 1030L447 1030C446.689 1029.07 445.701 1025.53 445 1025C442.661 1023.25 440.203 1027.1 439 1027C435.407 1026.7 430.409 1014.85 435 1016L432 1005L426 1001L420 1005L418 998L408 1008L407 1008L408 1003L402 1008L412 986L405 985L404 989C393.613 987.051 402.073 973.174 405 966L384 979L388 972L388 970L383 968L387 964L388 953L379 954L375 964C371.383 959.2 375.07 954.239 376 949L375 949C370.249 956.322 368.459 947.826 368 943L367 943C365.521 947.956 365.042 957.261 357.093 955.331C353.271 954.403 352.203 950.836 348 951C351.37 946.154 354.817 943.24 354 937L348 940C348.798 934.889 359.069 928.104 353 924L356 920L356 919L353 920L351 914L340 919L340 917L344 916C344.209 908.774 354.684 894.727 348 890C347.09 898.144 337.718 903.44 330 904C333.213 899.542 341.886 893.832 338 888L338 887L342 880L338 880L339 875L335 876L332 870L331 882C320.391 879.254 315.865 881.481 306 883L297 904L296 904L295 898L297 891L294 893L293 888L294 885L291 886C295.656 879.021 299.435 870.565 308 868C306.275 861.861 300.965 866.467 297 868L298 859C291.801 860.989 289.705 859.545 284 857L288 853L300.941 846.735L312 834L312 833L311 831L293 830L294 823L292 819L280 824C282.721 820.95 291.631 811.201 285.462 807.859C281.807 805.878 275.987 807.918 272 808L272 807C274.771 805.891 279.909 799.812 275.667 797.247C268.518 792.922 259.559 793.275 253 787L252 787C248.04 788.034 244.988 787.913 242 785L237 783L241 784L239 780L239 779L244 776L244 773L236 775L244 770L243 767L251 764L251 763L242 765L240 757L246 759C249.381 754.476 253.455 750.066 246 748L248 734C242.106 732.258 234.064 729.941 228 729.284C225.559 729.019 219.724 729.75 220.559 725.531C222.714 714.632 230.382 722.302 235.257 718.917C237.441 717.401 237.171 712.363 238 710L238 709L236 708L236 707L238 705L235 704L241 693L249 699C253.505 693.306 260.665 702.83 265.09 704.776C271.642 707.658 276.245 713.688 282.209 716.234C287.281 718.399 292.8 717.973 297.83 721.036C303.017 724.193 306.443 729.409 312 732L311 729L312 728L314 728C317.432 734.116 322.859 733.14 329 732L329 731L314 721.64L301.21 719.012L279 702L280 699L246 676L246 675L255 676C257.981 671.539 262.677 675.159 267 675.96C272.608 676.998 276.734 674.515 282.004 674.914C285.097 675.148 287.87 677.459 290.98 677.302C300.489 676.824 291.508 668.893 287 668C291.19 664.179 300.471 661.632 302.895 656.671C305.013 652.336 290.58 633.879 302.997 641.657C304.057 642.321 304.975 643.226 305.909 644.046C307.983 645.868 309.39 647.162 312 648L314 643C310.466 638.23 307.418 635.141 308 629L304 630C303.309 625.655 301.089 623.478 297 622L297 621L312 623C312.617 616.9 307.169 618.175 303 615.987C297.51 613.106 291.479 607.302 291 601L311 608C310.282 605.807 308.166 600.969 312 602L313 602L314 596L332 602L334 597L330 596C331.166 587.195 321.54 587.925 318 581L323 584L324 584L328 580L313.514 565.999L305.571 551.233L293.92 547.592L297 544L297 543L289 542C288.837 536.955 291.343 536.152 296 536L296 535L283 520L285 517L278 504C283.65 507.761 286.655 507.181 292 503L294 506L294 501L295 501C296.584 505.643 302.277 517.321 307 509L312 511L308 504L308 503L332 516L330 507L325 508C323.331 499.548 332.746 502.851 334 497L317 496L324 492L325 487L311 487C318.836 474.511 335.955 471.843 349 466C345.98 449.428 362.82 452.712 367 441C361.674 440.413 358.049 433.681 363.613 430.268C368.042 427.553 375.942 428.104 381 428L381 427L368 426C366.169 422.971 359.489 415.829 355.407 418.137C352.759 419.633 352.648 425.2 349.941 427.545C335.408 440.131 313.852 451.931 294 448C299.772 440.779 295.717 440.203 289 438L299 422L298 422L297 424L295 415C290.905 415.463 288.184 415.897 286 412L290 412L289 389L291 389L293 392L294 389L291 389C293.982 385.167 300.474 381.042 297 376L297 375C300.913 370.905 297.624 368.528 293 368C296.742 362.625 316.458 352.805 300 352C303.602 345.114 305.317 336.896 314 336L314 323L318 324L321 317L328 314L329 314L334 310L335 295L346 296L346 292L349 292C344.641 284.905 336.864 271.359 344 264L340 257L348 261C346.831 255.522 336.476 248.871 331 248L328 235L336 238L335 230L337 228L347 229L347 234L350 229L353 228L353 226L349 222L356 224L362 225L366 217C371.118 216.763 370.485 213.228 370 209L376 203L377 203L379 205L380 201C382.975 201.235 384.588 202.399 385 199L386 199L386 202L387 202C390.192 190.378 402.516 205.489 410 205C411.059 207.8 411.772 212.227 415 210L418 217L420 217L418 195L418 200C428.416 201.125 429.191 211.822 429 220L436 219L436 222L451 227C452.595 231.786 453.832 238.327 459 240L459 224L460 224L466 230L472 226C468.904 218.085 463.303 211.224 476 214L476 211L480 212C480.067 203.918 479.511 189.357 486 184L486 171L483 172L479 157L480 157L480 161L481 161L483 157L484 160L488 160C487.928 155.255 489.012 153.166 494 154L494 145L497 148L498 148L501 133L507 140C508.902 133.648 512.914 136.713 513 142L513 127L520 128L519 120L523 124L522 119L526 120L527 115L528 115L534.179 134.714L549 152C554.13 153.263 554.49 157.25 554 162L561 156L560 145L566 156L567 156L567 133L568 133L574 139L576 133L579 134L580 131L581 131L584 140L585 140C584.653 135.563 583.622 132.347 587 129C588.459 133.394 592.105 132.63 596 134L597 134L593.823 121L593 100L595 100L597 108L602 108L603 99L603.069 69.7145L630 0L0 0z"/>
<path style="fill:#040404; stroke:none;" d="M603 99L602 108L597 108L595 100L593 100L593.823 122L597 134L596 134L587 129C582.958 131.623 584.465 135.762 585 140L584 140L581 131L580 131L576 133L574 139L568 133L567 133L567 156L566 156L560 145L561 156L558 155L554 162C554.888 157.433 554.66 151.909 549 152L534.179 133.83L528 115L527 115L526 120L522 119L523 124L519 120L520 128L513 127L513 142C513.8 135.713 508.19 132.561 507 140L501 133L498 148L497 148L494 145L494 154C488.695 152.569 487.328 154.923 488 160L483 157L481 161L480 161L480 157L479 157C478.403 161.341 480.956 171.089 486 171L486 184C478.887 187.885 480.021 204.557 480 212L476 211L476 214C463.303 209.64 467.918 218.871 472 226L466 230L460 224L459 224L459 240L451 227L436 222L436 219L429 220C429.487 211.648 428.921 200.458 418 200L418 195C412.955 198.894 419.77 210.883 420 217L418 217L415 210L413 212L410 205C403.298 205.099 388.997 189.587 387 202L386 202L386 199L385 199L385 202L380 201L379 205L377 203L376 203L370 209C370.184 212.899 370.574 216.438 366 217L362 225L356 224C354.08 221.043 352.304 221.117 349 222L353 226L353 228L350 229L347 234L347 229L337 228L335 230L336 238L328 235L331 248C336.303 249.501 346.136 255.817 348 261L340 257L344 264C336.057 269.426 344.241 286.361 349 292L346 292L346 296L335 295L334 310C330.708 309.931 329.946 310.859 329 314L328 314L327 312L321 317L318 324L314 323L314 336C305.612 336.436 302.372 344.676 300 352C315.421 353.696 296.101 361.86 293 368C297.518 368.937 299.279 370.703 297 375L297 376C299.002 381.759 293.502 384.283 291 389L294 389L294 391L293 392L291 389L289 389L290 412L286 412C287.499 416.516 290.921 415.886 295 415C294.247 417.184 295.538 425.578 298 422L299 422L289 438C295.663 440.767 298.268 440.674 294 448C308.293 451.977 330.729 444.017 342 434.781C345.364 432.024 350.883 428.817 352.962 424.95C354.015 422.991 353.398 418.789 356.238 418.291C360.223 417.592 365.584 423.354 368 426L381 427L381 428C375.647 428.041 367.468 427.107 362.778 430.129C356.971 433.87 361.576 440.762 367 441C360.739 451.559 345.186 449.93 349 466C336.943 469.871 316.275 474.698 311 487L325 487L324 492L317 496C322.999 497.242 328.163 499.782 334 497C330.847 501.921 323.286 500.305 325 508L330 507L332 516L308 503L308 504L312 511L307 509C301.218 515.028 297.29 505.804 295 501L294 501L294 506L292 503C286.269 506.299 283.962 506.669 278 504L285 517L283 520L296 535L296 536C291.126 536.058 288.071 536.474 289 542L297 543L297 544C295.174 544.306 291.756 544.923 293.161 547.716C294.956 551.284 302.342 548.889 305.571 552.127C310.077 556.647 310.077 562.135 313.514 566.996C317.372 572.452 323.45 575.362 328 580L324 584L323 584L318 581C320.376 588.722 330.135 587.084 330 596L334 597L332 602L314 596L313 602L312 602C308.372 597.85 309.929 606.03 311 608L291 601C291.213 607.525 296.253 612.972 302 615.987C306.425 618.308 311.332 616.923 312 623L297 621L297 622L304 630L308 629C306.916 635.184 309.576 638.774 314 643L312 648C309.567 646.703 307.998 644.998 305.909 643.194C305 642.41 304.057 641.589 302.997 641.01C289.644 633.717 304.733 652.5 302.383 656.671C299.354 662.047 290.988 662.837 287 668C290.73 669.019 300.652 676.601 291 677.194C288.186 677.367 285.719 674.792 283 674.389C279.304 673.841 276.423 676.599 272.972 676.667C267.624 676.772 263.111 673.215 258.028 673.111C255.657 673.062 255.421 674.035 255 676L246 675L246 676L263.722 685.815L280 699L279 702L300.379 719.012L312.576 721.397L329 731L329 732C322.448 732.828 318.533 733.5 314 728L312 728L312 732C306.919 728.776 303.278 723.27 297.917 720.417C292.908 717.751 286.586 718.321 282.083 716.028C276.044 712.952 273.227 707.535 266 704.833C262.712 703.604 250.738 691.053 249 699L241 693L235 704L238 705L236 707L236 708L238 709L238 710C236.509 712.296 237.316 717.496 234.562 718.698C229.383 720.96 221.055 714.874 220.157 725.891C219.793 730.361 225.298 729.215 228 729.546C234.285 730.313 241.729 732.507 248 734L246 748C252.91 750.843 248.568 754.029 246 759L240 757L242 765L251 763L251 764L243 767L244 770L236 775L244 773L244 776L239 779L239 780L241 784L237 783L238 786L242 785C244.147 788.308 248.702 789.156 252 787L253 787C257.114 792.504 286.699 798.019 272 807L272 808C288.058 807.867 288.971 810.208 280 824L292 819L294 823L293 830L311 831L312 833L312 834L300.941 846.053L288 853L284 857C289.454 860.65 291.844 861.851 298 859L297 868C301.21 866.932 305.133 863.429 308 868C299.207 869.606 294.651 878.562 291 886L294 885L293 888L294 893L297 891L295 898L296 904L297 904L306 883L331 882L332 870L335 871L335 876L339 875L338 880L342 880L338 887L338 888C340.135 894.74 332.898 898.459 330 904C338.198 903.739 347.519 898.766 348 890C353.611 896.066 344.089 907.933 344 916L340 917L340 919C345.009 920.113 347.301 917.012 351 914L353 920L356 919L356 920L353 924C357.421 929.311 348.453 934.118 348 940L350 937L354 937L348 951L351 950C358.188 963.02 364.976 951.479 367 943L368 943C368.178 947.648 371.016 957.906 375 949L376 949C374.708 953.532 370.682 960.226 375 964L379 954L388 953L387 964L383 968L388 970L388 972L384 979L405 966C401.184 972.78 392.896 988.059 404 989L405 985L412 986C406.902 993.466 402.195 998.583 402 1008L408 1003L407 1008L408 1008L418 998L420 1005L426 1001L432 1005L435 1016C431.925 1016.54 434.095 1021.91 435.625 1023.91C438.917 1028.23 443.486 1024.7 447 1030L448 1030L455 1021L468 1032L472 1031L474 1038C477.587 1037.44 479.332 1036.63 480 1033L484 1036L486.417 1025L482.376 1010L483 987C491.077 988.8 490.804 980.255 488 975L493 975L494 990L495 990L498 986L499 989L504 982L507 987L509 987L513 973L514 973L514 982L516 982L521 973L524 976L525 973L526 973L536 991L543 992L545 982L546 982L557 996L558 996C557.66 991.841 551.98 970.966 558.225 970.078C562.617 969.453 566.817 974.339 572 974L569 951L566 952C565.873 948.098 565.401 946.085 562 944L565 935C568.648 939.519 570.367 947.1 577 947L579 952L583 931L586 932L586 925L589 925L590 932C596.33 927.797 591.412 917.673 593 911L594 914C596.288 911.753 596.081 888.347 594 888L595 877L596 877L602 879L601 882L609 882L611 876L614 884L617 883L617 884L615 888C630.128 887.562 632.938 903.255 638 915L640 911L641 911C644.665 922.406 652.519 927.455 662 934C665.505 931.588 672.038 950.056 671.417 953.917C671.011 956.436 667.998 956.459 666.722 958.306C664.993 960.808 665.623 964.188 663.528 966.778C656.174 975.866 644.736 984.488 644 997L645 997L665 973L666 973C664.04 982.848 654.098 990.441 648.044 998C643.988 1003.06 641.068 1010.23 638 1016C646.181 1015.12 647.612 1004.72 652.667 999.667C654.84 997.493 658.239 994.067 661 996C665.129 991.108 680.697 979.847 679 975L689 976L690 973C699.693 976.248 701.844 965.974 710.576 966.367C723.938 966.967 723.566 977.065 718.225 984.999C713.823 991.538 709.145 991.421 703 995.259C696.504 999.316 691.624 1005.34 688 1012L698 1011L698 1012L678 1023L678 1024L682 1029L686 1027L686 1028L683 1029L683 1030L696 1042L699 1033L704 1034L705 1027C708.728 1032.15 702.212 1038.44 701 1044L719 1030L704 1052L713 1045L714 1045C719.191 1048.48 723.268 1039.04 727 1036L720 1052L724 1056C716.981 1059.13 706.015 1072.51 716.343 1078.97C719.214 1080.77 723.762 1080 727 1080L726 1075L735 1080C735.167 1072.19 741.109 1060.14 747 1055L747 1059L748 1059L755 1039L758 1040L760 1036L761 1036L764 1047L765 1047L769 1039C769.143 1051.08 781.955 1047.37 782 1060C790.442 1055.07 782.436 1036.21 783 1028L790 1049L792 1045L793 1045C796.909 1053.76 797.436 1061.7 795 1071L802 1072L804 1063L805 1063L807 1078L808 1078L811 1048C817.656 1056.64 816.028 1065.81 816 1076L824 1070L822 1080C827.223 1079.58 827.998 1076.76 829 1072L830 1072L830 1076L837 1073L834 1080L842 1077L844 1077C851.378 1087.23 857.979 1074.21 858 1067L867 1063L869 1066L870 1063L874 1064L875 1047L880 1048C879.44 1046.18 879.686 1034.72 882.513 1039.87C883.756 1042.14 882.054 1047.4 882 1050C889.529 1046.15 893.14 1038.4 889 1031C893.918 1030.84 895.955 1029.5 898 1025L906 1029L903 1035L904 1036L910 1035L906 1052C921.05 1049.67 911.309 1024.53 920 1015C920.059 1020.01 920.594 1023.14 926 1024L925 1019L930 1016L941.437 1037L940 1052C953.812 1043.32 942.367 1024.42 941 1013L948 1020L950 1020L955 1013C956.753 1020.19 959.202 1026.33 966 1030L968 1013L970 1016L971 1006L975 1009L974 1001L978 1002L974 996L974 995C977.321 993.901 977.737 992.41 978 989L985 996L984 985L989 983C985.762 997.049 991.486 1012.17 1004 1019C1001.54 1023.61 1003.63 1027.38 1002.23 1032C1001.2 1035.4 997.734 1038.17 998.106 1041.96C998.935 1050.38 1006.41 1044.27 1007 1039L1008 1039L1008 1048L1000 1049L1000 1054L1006 1055L1007 1062L1008 1062L1012 1053C1016.67 1053.39 1019.09 1052.36 1021 1048L1024 1050C1021.17 1043.31 1022.2 1037.8 1024 1031L1025 1031L1025 1038C1042.47 1042.32 1041.4 1057.61 1047 1072L1043 1076C1056.67 1068.42 1044.26 1048.39 1040.04 1039C1038.24 1035 1029.83 1025.18 1039 1026L1044 1017C1043.78 1023.37 1044.14 1031.85 1046.93 1037.71C1050.36 1044.93 1058.53 1051.51 1056 1060L1070 1060L1071 1065L1075 1061C1085.13 1069.19 1081.16 1062.28 1080 1055L1081 1055C1084.02 1060.62 1088.1 1060.65 1094 1061L1093 1075L1097 1067L1104 1070L1105 1067C1093.16 1057.49 1085.62 1039.91 1071 1037L1071 1035L1074 1034L1073 1021C1084.84 1018.6 1088.62 1007.32 1097.17 1000.55C1103.53 995.511 1111.08 995.596 1114 987L1124 1002C1123.18 1005.95 1123.49 1007.84 1127 1010L1132 1001L1129 1000L1129 967C1134.4 969.457 1134.98 972.353 1135 978C1142.79 978.933 1147.3 983.374 1151 990C1157.08 988.442 1156.69 992.271 1161 995L1158 1000L1159 1000L1162 997L1162 1003L1163 1003L1165.59 990.015L1159 972L1163 972L1164 973L1163 980L1170 970L1175 971C1172.42 980.672 1182.58 977.714 1186 972L1187 972C1189.42 977.31 1191.16 983.861 1197 986C1195.78 993.824 1199.74 997.902 1207 1000C1205.37 994.598 1201.92 988.552 1208 985L1207 992L1210 992L1211 985C1219.52 993.593 1225.23 1007.49 1229 1019L1230 1019L1229 1007L1227 1000L1233 1007C1236.17 1004.93 1237.56 1002.37 1234 1000L1236 995C1245.67 996.593 1243.24 980.293 1242 974L1227 968L1245 966L1248 968L1244 961L1270 968L1270 966C1263.43 964.128 1250.16 955.674 1258 948L1257 941L1260 937L1256 935C1261.75 934.787 1269.88 939.771 1270 946C1274.09 943.576 1273.05 940.282 1273 936L1282 955L1284 947L1291 946L1303 964L1304 964C1306.09 953.971 1297.49 941.72 1295.45 932C1294.4 927.018 1297.38 923.051 1292 920L1291 911L1296 911C1297.53 921.178 1305.39 922.738 1311.57 929.478C1314.82 933.028 1316.24 939.534 1318 944L1320 944L1327 941L1323 948L1328 946L1331 948L1333 945L1335 950L1340 945L1341 945C1343.44 949.727 1346.26 949.171 1349 945L1355 952C1356.92 942.527 1365.16 946.744 1372 943L1373 946L1376 945L1377 948L1378 948L1376 939L1379 942L1380 942L1378 932L1381 936L1384 935C1384.75 940.165 1387.14 942.29 1392 944L1391 934C1393.33 938.233 1399.98 942.385 1399.28 933.995C1398.75 927.747 1394.77 921.677 1394 915L1398 910L1402 912L1407 898C1409.92 899.911 1424.72 898.324 1427.14 895.579C1429.39 893.019 1428.36 889.018 1428 886L1432 886C1432.82 879.729 1445.35 886.474 1442 874L1448 876C1452.41 867.897 1463.71 869.847 1458 858L1469 858L1467 853L1471 854C1471 847.645 1476.91 838.477 1483 840C1486.8 833.097 1499.11 821.51 1486 817L1487.95 808.022L1502 804C1500.01 800.799 1496.44 791.743 1493.81 790.013C1485 784.223 1449.19 780.118 1450 796L1434 779L1450 780L1445 769C1450.94 768.951 1471.54 765.544 1456 760C1461.22 755.068 1467.57 757.847 1474 758.24C1483.78 758.837 1494.57 759.039 1504 756L1504 755L1494 750L1494 749L1501 746C1497.14 740.823 1493.2 740.018 1487 740L1488 737L1486 735L1491 739L1499 736C1496.77 731.566 1488.32 723.972 1498 722L1497 719C1511.94 726.225 1519.59 714.35 1534 714L1533 711L1531 712C1529.14 708.749 1527.76 707.876 1524 708L1526 703L1514 700C1515.01 696.592 1516.37 694.925 1520 696C1521.73 691.585 1520.9 688.81 1516 688L1516 687L1521 683L1506 678C1508.55 674.046 1509.88 670.224 1515 670L1517 665L1518 668L1523 665L1541 676L1544 675C1545.98 687.709 1560.71 697.482 1572 702L1573 697C1578.65 697.002 1579.45 692.53 1583 689L1580 683L1585 681C1583.79 671.721 1579.53 665.451 1576.08 657.039C1571.75 646.448 1570.15 636.505 1562.61 627.004C1559.23 622.752 1554.03 620.667 1550.66 616.621C1547.79 613.178 1550.18 610.862 1549.72 607.17C1549.06 601.999 1541.42 598.591 1537 598C1542.62 586.636 1549.79 583.527 1542 571L1546 572L1546 571L1543 565L1562 565.227L1575 570C1575.09 565.303 1577.43 558.922 1573 556C1574.83 553.714 1577.67 551.02 1578.26 548.039C1578.89 544.89 1575.82 543.302 1575.13 540.536C1573.6 534.301 1577.88 523.644 1567 526L1556.75 507L1556.86 497.475L1550 494L1556 486L1552 486L1551 481C1556.83 484.891 1568.06 480.274 1574 477C1576.98 482.227 1581.84 481.731 1587 480L1587 479L1580 474C1586.36 472.482 1596.19 473.064 1599 466L1602 468C1600.31 461.547 1606.57 454.487 1598 452L1601 441L1606 437L1600 434L1600 433C1607.16 432.183 1606.87 427.044 1608 421L1594 419L1586 416C1587.9 407.73 1578.39 409.462 1576.72 403.698C1575.54 399.61 1573.26 391.471 1573.14 387C1573 381.975 1575.18 378.128 1574 373L1571 374C1571 370.313 1572 365.461 1570.51 362.018C1569.28 359.164 1566.36 358.049 1564.81 355.545C1563.41 353.286 1564.81 350.535 1563.29 348.274C1561.7 345.899 1558.56 345.243 1557.01 342.776C1552.12 334.959 1558.15 328.43 1566 328L1560 324C1563.28 320.244 1567.77 320.675 1571.83 318.091C1577.97 314.182 1584.59 304.383 1593 306L1594 303L1600 304C1598.24 296.01 1606.22 293.95 1609 287L1599 285L1598 285L1592 288L1604 273L1600 274C1598.84 270.086 1597.08 268.849 1593 269L1592 257L1588 260L1583 257L1565 262L1564 257C1567.57 256.77 1570.3 256.878 1571 253L1576 252L1572 245L1570 247L1569 247L1560 241L1541 243.325L1506 252C1502.95 247.034 1497.33 247.24 1492 248L1483 244L1464 252C1462.82 247.77 1461.78 244.814 1457 245L1461 234L1448 239L1445 235L1448 230C1435.94 227.161 1432.06 237.687 1422 240L1429 229L1410 228L1411 225L1381 229L1379 234L1372 220L1391 194C1398.67 192.759 1399.46 179.659 1403.29 173.985C1406.57 169.136 1412.39 164.573 1414.35 159.039C1417.13 151.158 1413.47 141.48 1416.77 133C1422.48 118.319 1436.52 109.318 1428 93C1423.44 92.4238 1419.02 90.8141 1416 95L1414 95C1409.04 87.69 1395.31 104.179 1393 109C1376.51 107.408 1374.55 132.731 1365 140L1364 137L1361 137L1358 152L1350 149L1349 152L1347 148C1341.86 148.229 1338.95 147.46 1337 153L1336 153L1336 149L1335 149L1334 154L1330 154C1328.66 146.472 1328.01 129.272 1321 127L1320 131L1316 129L1315 133C1308.22 130.582 1303.95 130.548 1301 138C1290.39 133.952 1290.43 147.09 1284.97 152.999C1282.47 155.714 1279.74 160.147 1276 158L1260 162L1261 157L1257 158L1252 140L1251 140L1250 148L1240.3 134.031L1226 132L1228 133L1228 134L1224 138L1212 135L1212 142L1204 135L1204 140L1201 140L1198 137C1198.22 147.407 1200.09 157.439 1192.99 166.482C1187.91 172.944 1176.99 172.78 1170.26 175.602C1167.53 176.743 1166.26 179.744 1162.98 179.777C1159.64 179.811 1157.49 177.63 1156 175L1155 175L1150 180C1151.23 174.029 1152.04 170.549 1149 165L1148 165L1132.44 186.015L1123 200C1123.09 189.801 1134.08 186.129 1129 177L1123 176L1125 164L1110 186C1112.79 180.336 1116.47 171.907 1113 166L1110 176C1104.75 176.172 1102.54 178.282 1099 182L1112.58 158.999L1112.9 148L1116 133L1115 133L1113 138L1104 135C1111.76 131.681 1108.83 125.975 1112.86 120.213C1116.17 115.463 1122.75 113.131 1126.77 108.957C1131.23 104.332 1131.72 92.8101 1130 87L1114 107L1114 103L1105 104C1113.86 95.118 1113.34 81.5338 1114.04 69C1114.22 65.769 1116.11 62.2504 1115.58 59.054C1114.91 55.0498 1110.69 53.3413 1110 49L1109 49L1104 64L1102 64C1101.69 59.9352 1102.46 58.0837 1106 56L1106 55L1103 47L1094 49L1094 33L1087 35L1087 39L1085 37L1084 37L1080 44L1075 43L1077 48L1069 54L1070 37L1066 37L1066 42L1065 42L1065 33L1060 34L1062 31L1058 36L1056 36L1052 13L1051 13L1044 32L1044 19C1038.6 22.8232 1036.35 35.7034 1037 42L1029 33L1035 32L1029 28L1034 24L1034 7L1034 6C1023.4 1.48108 1026.26 19.5837 1017 20C1020.5 13.74 1022.94 1.65613 1013 0L1009 17L1008 17L1007 8L1005 8L1002.33 29.9993L990 49L998 24L980 47L981 41L976 39L962.303 47.3534L952 65L953 59L945 59L940 46C934.714 50.6478 933.389 58.2442 933 65L932 53L928 53L925 64L924 64L923 55L920 56C919.261 52.6226 917.659 53.5507 915 55C912.604 51.3104 908.922 52.14 905 53C900.047 42.0165 893.035 40.2444 883 36L886 53L876 41C872.094 42.2118 871.798 44.0931 872 48L867 45C867.063 41.177 865.208 39.9186 862 38L860 43L855 39L855 40L858 47L847 36L845 43L844 43L840 41L840 56L822 41L827 57L813 43C813.66 54.9587 811.363 52.337 803 58L800 55L800 60L782 53L785 57L784 60C780.29 57.029 777.98 54.3632 773 55L776 60C770.683 59.6512 766.363 55.6733 762 60L766 61L765 65C760.517 63.0598 749.559 62.5878 747.176 68.301C745.555 72.1871 752.576 79.0622 756 79L756 85L745 77L743 84C745.845 86.7676 747.564 94.5881 740.992 93.7924C735.742 93.1569 721.953 80.0014 717.604 84.4267C712.781 89.3345 719.004 98.2005 715 104L714 100L705 102L705 103L712 116C720.487 118.885 720.034 124.688 724.728 130.626C733.887 142.211 747.206 148.257 760 154.403C765.044 156.826 769.832 162.136 775.981 160.552C780.518 159.382 781.369 154.756 783 151L788 198C781.289 191.959 779.265 180.308 769.845 176.605C757.229 171.645 763.146 195.864 764 200C752.552 192.522 744.384 181.801 730 179C729.161 185.434 730.532 190.602 734 196L731 197L731 206C726.345 188.167 702.99 182.103 693.603 167.96C689.363 161.57 691.437 151.088 692 144L688 144L690 137C684.085 126.882 696.089 108.4 697.353 98.0432C697.807 94.3259 693 90.7414 692 87L689 88C689.197 83.3254 690.807 76.6983 684 79L682 61L681 61L680 64L679 64L680 58C676.031 53.998 678.16 48.2347 678.329 43C678.771 29.3972 686.311 15.9784 679.258 2.31787C676.506 -3.01404 655.465 0 650 0C645.178 0 634.704 -1.97192 630.702 1.02771C625.029 5.28088 625.045 17.8187 622.732 24C620.648 29.5709 616.305 32.1708 613.363 37.0186C608.083 45.7175 604.082 59.8738 602.838 70C601.923 77.4444 607.12 94.2966 603 99z"/>
<path style="fill:#fdfdfd; stroke:none;" d="M679 0C680.231 6.6283 683.326 16.4561 682.617 23.0146C681.885 29.7886 678.249 35.681 678.154 42.7145C678.086 47.6605 675.326 54.9579 680 58L679 64L680 64L681 61L682 61L684 79C690.387 77.5194 689.08 83.3438 689 88L692 87L696.869 98.0432L689.947 127L690 137L688 144L692 144C691.062 151.266 689.408 161.079 693.028 167.96C695.222 172.131 700.316 174.331 703.829 177.221C712.962 184.735 726.629 194.862 731 206C733.682 202.911 732.247 200.629 731 197L734 196L730 179L764 200C763.543 196.607 762.565 193.364 761.963 190C761.257 186.057 763.203 173.397 770.004 177.157C778.621 181.923 780.438 193.493 788 198C787.458 182.952 789.555 164.5 783 151C780.932 154.357 780.194 158.761 775.981 160.218C770.476 162.121 765.52 156.574 761 154.403C747.683 148.005 735.6 141.857 725.431 130.626C720.189 124.838 721.501 117.917 712 116C711.7 110.561 709.042 106.553 705 103L705 102L714 100L715 104C720.617 98.4733 712.513 89.5638 718.152 84.5455C722.456 80.7156 736.401 94.6154 741.98 94.338C748.153 94.031 746.631 86.3278 743 84L745 77L756 85L756 79L753 80C751.924 76.6368 748.037 73.2529 747.627 70.0509C746.702 62.837 761.146 63.9764 765 65L766 61L762 60L776 60L773 55L784 60L785 57L782 53L800 60L800 55L803 58C811.861 53.824 815.028 54.4257 813 43L827 57L822 41L840 56L840 41L844 43L845 43L847 36L858 47L855 40L855 39L860 43L862 38L867 45L872 48C871.985 44.1847 872.415 42.5743 876 41C877.07 46.8553 880.97 50.1455 886 53L883 36C892.46 41.9202 898.257 42.5048 905 53L915 55L920 56L923 55L924 64L925 64L928 53L932 53C931.781 57.28 928.926 62.27 933 65L940 46L945 59L953 59L952 65L962.303 48.2368L976 39L981 41L980 47C990.616 42.5317 991.005 31.9193 998 24L990 49C1003.54 37.7771 1001.37 23.2273 1005 8L1007 8L1008 17L1009 17L1013 0L679 0M1017 0C1019.35 8.60901 1020.38 11.4229 1017 20C1026.87 21.4709 1022.72 3.47241 1034 6L1034 7C1031.03 11.1042 1033.1 19.1464 1034 24L1029 28L1035 32L1029 33L1037 42C1036.59 35.0098 1039.2 24.1362 1044 19L1044 32L1051 13L1052 13L1056 36L1058 36L1062 31L1060 34L1065 33L1065 42L1066 42L1066 37L1070 37L1069 54L1077 48L1075 43L1080 44L1084 37L1085 37L1087 39L1087 35L1094 33L1094 49L1103 47L1106 55L1106 56C1101.87 57.5818 1101.22 59.7693 1102 64L1104 64L1109 49L1110 49C1110.37 53.7244 1114.2 54.9374 1115.19 59.054C1115.91 62.0605 1114.11 65.8857 1114.02 69C1113.61 82.1604 1112.03 93.7389 1105 104L1114 103L1114 107C1121.17 103.584 1125.68 93.5338 1130 87C1131.4 92.8907 1131.11 103.507 1126.77 108.239C1122.83 112.538 1116.33 114.759 1112.86 119.39C1108.53 125.161 1111.14 130.57 1104 135L1113 138L1115 133L1116 133L1112.52 148L1112.56 158L1099 182L1110 176L1113 166C1115.56 172.767 1112.38 179.521 1110 186C1116.25 185.002 1120.31 169.644 1125 164L1123 176L1129 177C1132.59 186.078 1123.03 189.851 1123 200C1128.72 198.144 1129.39 192.837 1131.9 188.001C1136.27 179.567 1143.75 172.824 1148 165L1149 165L1150 180C1153.4 179.412 1154.27 178.351 1155 175L1156 175C1157.06 178.124 1159.37 180.329 1162.98 180.242C1166.64 180.154 1168.01 176.773 1171.13 175.633C1177.79 173.199 1187.82 173.237 1192.99 167.238C1200.57 158.425 1198.45 147.348 1198 137L1201 140L1204 140L1204 135L1212 142L1212 135L1224 138L1228 134L1226 132L1239.59 134.064L1250 148L1251 140L1252 140L1257 158L1261 157L1260 162L1276 158C1279.28 161.694 1283.59 155.586 1285.9 152.999C1291.11 147.173 1290.34 134.633 1301 138C1304.86 131.463 1308.11 131.36 1315 133L1316 129L1320 131L1321 127C1328.22 130.358 1327.74 146.091 1330 154L1334 154L1335 149L1336 149L1336 153L1337 153C1339.59 148.319 1342.27 148.977 1347 148L1349 152L1350 149L1358 152L1361 137L1364 137L1365 140C1369.94 137.478 1370.07 132.594 1372.38 128C1376.08 120.624 1384.29 109.816 1393 109C1396.52 104.078 1407.6 89.7832 1414 95L1416 95C1419.78 91.4446 1423.17 92.6196 1428 93C1428 97.4797 1433.93 97.2121 1432 103C1430.54 107.373 1429.05 113.893 1427 118C1424.34 123.323 1418.26 126.576 1416 132C1414.85 134.77 1412.52 145.136 1413 148C1413.53 151.193 1416.28 155.923 1415 159C1413.34 162.975 1407.6 166.535 1405 170C1400.98 175.364 1399.49 181.01 1398 184C1395.96 188.072 1395.25 195.063 1391 194L1372 220L1379 234L1381 229L1411 225L1410 228L1429 229L1422 240C1431.6 240.177 1436.21 227.909 1448 230L1445 235L1448 239L1461 234L1457 245C1461.51 245.086 1462.47 248.147 1464 252L1483 244L1492 248C1497.67 247.731 1502 247.564 1506 252L1542 243.325L1560 241L1569 247L1570 247L1572 245L1576 252L1571 253L1564 257L1565 262L1583 257L1588 260L1592 257L1593 269C1596.85 269.07 1598.38 270.584 1600 274L1604 273L1592 288L1598 285L1599 285C1601.65 288.671 1604.91 287.757 1609 287C1605.37 293.198 1597.57 296.23 1600 304L1594 303L1593 306C1585.28 302.148 1576.04 315.562 1569.96 318.596C1566.09 320.529 1562.36 320.014 1560 324L1566 328C1557.52 328.205 1551.39 335.319 1557.01 343.586C1558.59 345.9 1561.7 346.569 1563.02 349.133C1564.22 351.462 1562.98 354.097 1564.64 356.29C1566.42 358.634 1569.11 359.909 1570.4 362.719C1571.86 365.922 1571 370.556 1571 374L1574 373L1576.04 403.698L1586 416L1594 419L1608 421C1606.6 426.812 1606.75 431.604 1600 433L1600 434L1606 437L1601 441L1598 452C1605.56 455.686 1599.43 461.54 1602 468L1599 466C1594.99 472.61 1586.64 472.02 1580 474L1587 479L1587 480C1581.63 481.341 1577.8 481.374 1574 477C1567.17 479.543 1557.94 484.105 1551 481L1552 486L1556 486L1550 494L1556.17 497.475L1556.24 507L1567 526C1577 525.357 1573.53 533.078 1574.59 539.961C1575.04 542.88 1578.36 544.966 1577.7 548.039C1577.1 550.803 1574.4 553.558 1573 556L1575 570L1543 565L1546 571L1546 572L1542 571L1546.04 579.039L1537 598C1541.07 598.968 1548.02 602.416 1549.28 606.884C1550.26 610.413 1547.33 612.969 1550.01 616.621C1553.56 621.455 1559.72 623.932 1563.36 629C1573.65 643.309 1581.1 663.939 1585 681L1580 683L1583 689L1573 697L1572 702C1560.78 695.555 1547.35 688.274 1544 675L1541 676C1537.63 668.939 1529.79 667.62 1523 665C1520.5 667.462 1519.5 667.44 1517 665L1515 670C1509.53 669.209 1508.09 673.626 1506 678L1521 683L1516 687L1516 688C1520.45 689.328 1521.35 691.688 1520 696C1516.23 693.877 1514.62 696.199 1514 700L1526 703L1524 708L1531 712L1533 711L1534 714C1526.19 713.745 1521.93 718.553 1515 720.582C1508.06 722.613 1503.51 721.083 1497 719L1498 722C1487.95 722.995 1495.99 732.014 1499 736L1491 739L1488 737L1487 740C1493.18 740.056 1496.51 741.754 1501 746L1494 749L1494 750L1504 755L1504 756C1493.71 758.383 1482.41 759.232 1471.91 757.88C1466.66 757.205 1459.53 755.111 1456 760C1469.63 767.398 1451.48 768.866 1445 769L1450 780L1434 779C1437.61 785.089 1443.4 793.179 1450 796C1449.94 780.536 1485.07 784.066 1493.76 790.51C1497.08 792.967 1498.69 800.335 1502 804L1487.38 808.303L1486 817C1498.28 823.471 1485.7 832.045 1483 840C1475.21 840.435 1470.46 846.562 1471 854L1467 853L1469 858L1458 858C1462.33 870.678 1451.08 866.605 1448 876L1442 874C1443.92 885.152 1432.76 879.925 1432 886L1428 886C1428.59 896.281 1416.86 902.142 1407 898L1402 912L1398 910L1394 915C1394.47 921.981 1398.11 927.498 1398.82 933.995C1399.69 942.003 1393.34 937.03 1391 934L1392 944C1387.64 941.775 1385.34 939.764 1384 935L1381 936L1378 932L1380 942L1379 942L1376 939L1378 948L1377 948L1376 945L1373 946L1372 943C1364.78 945.761 1356.09 942.254 1355 952L1349 945C1345.81 948.579 1343.96 949.124 1341 945L1340 945L1335 950L1333 945L1331 948L1328 946L1323 948L1327 941L1320 944L1318 944C1316.72 939.361 1314.96 932.207 1311.57 928.704C1305.45 922.386 1298.26 920.391 1296 911L1291 911L1292 920L1295.17 933L1304 964L1303 964L1291 946L1284 947L1282 955L1273 936L1270 946C1270.24 939.44 1262.2 933.858 1256 935L1260 937L1257 941L1258 948C1247.99 954.223 1263.65 964.914 1270 966L1270 968L1244 961L1248 968L1245 966L1227 968C1231.82 971.59 1235.65 975.104 1242 974C1242.65 980.432 1245.41 995.301 1236 995L1234 1000C1236.55 1002.91 1235.62 1004.4 1233 1007L1227 1000L1229 1007L1230 1019L1229 1019C1226.36 1008.45 1219.95 991.359 1211 985L1210 992L1207 992L1208 985C1201.33 987.344 1205.01 995.23 1207 1000C1200.11 997.111 1196.61 993.747 1197 986L1187 972L1186 972C1182.21 976.413 1173.44 980.458 1175 971L1170 970L1163 980L1164 973L1163 972L1159 972C1157.2 980.391 1163.47 982.997 1165.3 990.015C1166.41 994.237 1163.43 998.772 1163 1003L1162 1003L1162 997L1159 1000L1158 1000L1161 995C1157.2 991.383 1156.97 987.422 1151 990C1148.44 983.242 1142.64 977.473 1135 978C1135 972.272 1135.02 968.849 1129 967L1129 1000L1132 1001L1127 1010L1124 1002L1114 987C1109.92 994.862 1102.63 995.35 1096.29 1000.55C1087.88 1007.43 1084.11 1017.27 1073 1021L1074 1034L1071 1035L1071 1037C1086.08 1041.33 1091.2 1059.28 1105 1067L1104 1070L1097 1067L1093 1075L1094 1061C1088.3 1060.31 1084.72 1059.63 1081 1055L1080 1055C1080.64 1063.14 1085.12 1066.53 1075 1061L1071 1065L1070 1060L1056 1060C1059.81 1051.55 1050.31 1044.13 1046.93 1036.83C1044.33 1031.21 1043.93 1023.12 1044 1017L1039 1026C1036.68 1025.46 1033.08 1025.27 1033.83 1028.97C1036.68 1043.11 1060.1 1061.68 1043 1076L1047 1072C1043.28 1057.69 1041.9 1040.63 1025 1038L1025 1031L1024 1031C1021.74 1037.2 1020.8 1044.01 1024 1050L1021 1048C1018.58 1051.78 1016.5 1053.12 1012 1053L1008 1062L1007 1062L1006 1055L1000 1054L1000 1049L1008 1048L1008 1039L1007 1039C1006.02 1043.81 998.37 1049.4 998.364 1041.27C998.362 1037.83 1002 1035.23 1002.87 1032C1004.08 1027.47 1002 1023.76 1004 1019C992.372 1009.42 986.405 998.713 989 983L984 985L985 996L978 989L974 995L974 996L978 1002L974 1001L975 1009L971 1006L970 1016L968 1013L966 1030C959.868 1025.17 957.564 1020.18 955 1013L950 1020L948 1020L941 1013C940.049 1026.79 953.471 1039.21 940 1052L942.017 1037L933.718 1026.74L930 1016L925 1019L926 1024C921.18 1022.6 920.156 1019.79 920 1015C907.824 1023.62 922.937 1047.23 906 1052C909.978 1046.17 910 1041.94 910 1035L904 1036L903 1035L906 1029L898 1025C895.482 1028.83 893.669 1030.64 889 1031C892.267 1039.09 888.818 1044.74 882 1050C882.127 1047.09 884.021 1042.01 882.677 1039.38C879.908 1033.96 878.828 1045.23 880 1048L875 1047L874 1064L870 1063L869 1066L867 1063L858 1067L855 1080L1920 1080L1920 0L1017 0z"/>
<path style="fill:#040404; stroke:none;" d="M882 31L883 32L882 31M1080 35L1081 36L1080 35M1103 39L1104 40L1103 39z"/>
<path style="fill:#fdfdfd; stroke:none;" d="M1086 40L1085 45L1086 45L1086 40M823 42L824 43L823 42z"/>
<path style="fill:#040404; stroke:none;" d="M1096 43L1097 44L1096 43M1094.67 45.3334L1095.33 45.6666L1094.67 45.3334z"/>
<path style="fill:#fdfdfd; stroke:none;" d="M976 47L974 52L978 47L976 47M1083 47L1084 48L1083 47M989 49L988 52L989 49M1092 49L1090 52L1092 49z"/>
<path style="fill:#040404; stroke:none;" d="M773 53L776 51L773 53M807 51L808 52L807 51M810 51L811 52L810 51z"/>
<path style="fill:#fdfdfd; stroke:none;" d="M851.333 51.6666L851.667 52.3334L851.333 51.6666M910 54L913 56L910 54z"/>
<path style="fill:#040404; stroke:none;" d="M792 55L793 56L792 55z"/>
<path style="fill:#fdfdfd; stroke:none;" d="M916 55L917 56L916 55M1092 59L1093 60L1092 59M1113 59L1114 60L1113 59M1067 61L1068 62L1067 61M801 62L801 65L802 65L801 62M807 63L808 64L807 63M934 66L934 68L936 68L934 66M948 66L946 70L948 66M1060 76L1058 80C1060.65 79.4324 1061.35 78.4122 1060 76z"/>
<path style="fill:#040404; stroke:none;" d="M715 79L716 80L715 79z"/>
<path style="fill:#fdfdfd; stroke:none;" d="M1110 84L1113 81L1110 84z"/>
<path style="fill:#040404; stroke:none;" d="M712 83L713 84L712 83M742 88L741 92L744 92L742 88z"/>
<path style="fill:#fdfdfd; stroke:none;" d="M719 93L722 97L723 93L719 93M1106 95L1108 97L1108 95L1106 95z"/>
<path style="fill:#040404; stroke:none;" d="M506.667 107.333L507.333 107.667L506.667 107.333z"/>
<path style="fill:#fdfdfd; stroke:none;" d="M598.333 109.667L598.667 110.333L598.333 109.667M734 110L735 111L734 110M1101 113L1099 120L1100 120L1105 115L1101 113z"/>
<path style="fill:#040404; stroke:none;" d="M518 119L519 120L518 119M690.667 135.333L691.333 135.667L690.667 135.333z"/>
<path style="fill:#fdfdfd; stroke:none;" d="M1098 145L1099 149L1100 149L1100 145L1098 145M1092.67 149.333L1093.33 149.667L1092.67 149.333M1104 151L1105 152L1104 151M1100 155L1101 156L1100 155M489 175L490 176L489 175M1145 176L1147 180L1145 176z"/>
<path style="fill:#040404; stroke:none;" d="M723 179L723 180L727 180L723 179z"/>
<path style="fill:#fdfdfd; stroke:none;" d="M1141 183L1141 189L1144 188L1141 183z"/>
<path style="fill:#040404; stroke:none;" d="M414.667 187.333L415.333 187.667L414.667 187.333z"/>
<path style="fill:#fdfdfd; stroke:none;" d="M767 187L768 188L767 187M483 191L484 192L483 191M1139 191L1140 192L1139 191z"/>
<path style="fill:#040404; stroke:none;" d="M478 201L477 204L480 204L478 201M372 203L370 208L372 203M477 205L478 206L477 205z"/>
<path style="fill:#fdfdfd; stroke:none;" d="M392 206L392 208L394 208L392 206z"/>
<path style="fill:#040404; stroke:none;" d="M476 207L477 208L476 207M368 209L367 213L368 213L368 209M473 211L474 212L473 211z"/>
<path style="fill:#fdfdfd; stroke:none;" d="M373 213L371 220C374.456 219.26 374.608 215.738 373 213M437 224L438 225L437 224z"/>
<path style="fill:#040404; stroke:none;" d="M348 225L349 226L348 225M334 227L334 229L336 229L336 227L334 227M349 227L350 228L349 227z"/>
<path style="fill:#fdfdfd; stroke:none;" d="M473 229L477 237C477.567 233.025 476.134 231.391 473 229z"/>
<path style="fill:#040404; stroke:none;" d="M455 231L457 234L455 231z"/>
<path style="fill:#fdfdfd; stroke:none;" d="M352 236L355 233L352 236M338 235L339 236L338 235M442 235L443 236L442 235M466 237L466 242L467 242L466 237M440 239L441 240L440 239M1560 244L1561 245L1560 244M1557.67 245.333L1558.33 245.667L1557.67 245.333z"/>
<path style="fill:#040404; stroke:none;" d="M338.333 254.667L338.667 255.333L338.333 254.667z"/>
<path style="fill:#fdfdfd; stroke:none;" d="M1561 259L1562 260L1561 259M1588.33 262.667L1588.67 263.333L1588.33 262.667M344 269L344 272L345 272L346 269L344 269z"/>
<path style="fill:#040404; stroke:none;" d="M1608 269L1606 274L1608 269M1602.67 271.333L1603.33 271.667L1602.67 271.333M340 273L341 274L340 273z"/>
<path style="fill:#fdfdfd; stroke:none;" d="M1594 276L1597 274L1594 276z"/>
<path style="fill:#040404; stroke:none;" d="M1604 277L1602 281L1603 281L1604 277z"/>
<path style="fill:#fdfdfd; stroke:none;" d="M340 303L341 304L340 303M317 327L316 332L320 332L317 327M1505 351L1511 352C1509.78 347.989 1506.6 346.227 1505 351M300 375L301 376L300 375M1573 395L1574 396L1573 395M1591 418L1594 420L1594 419L1591 418M302 423L303 424L302 423M383.667 427.333L384.333 427.667L383.667 427.333M388 429L392 432L388 429M395 435L395 436L398 436L395 435z"/>
<path style="fill:#040404; stroke:none;" d="M359 439L360 440L359 439z"/>
<path style="fill:#fdfdfd; stroke:none;" d="M402.667 439.333L403.333 439.667L402.667 439.333z"/>
<path style="fill:#040404; stroke:none;" d="M361 440L362 441L361 440z"/>
<path style="fill:#fdfdfd; stroke:none;" d="M351 464L352 465L355 461L362 462C358.259 456.14 351.89 457.125 351 464z"/>
<path style="fill:#040404; stroke:none;" d="M360 460L361 461L360 460z"/>
<path style="fill:#fdfdfd; stroke:none;" d="M328.333 487.667L328.667 488.333L328.333 487.667z"/>
<path style="fill:#040404; stroke:none;" d="M314 493L315 496L316 496L316 493L314 493z"/>
<path style="fill:#fdfdfd; stroke:none;" d="M299 539L299 540L302 540L299 539M1541.33 564.667L1541.67 565.333L1541.33 564.667M1540 567L1541 568L1540 567z"/>
<path style="fill:#040404; stroke:none;" d="M318 579L319 580L318 579M1548 581L1549 582L1548 581z"/>
<path style="fill:#fdfdfd; stroke:none;" d="M1539 587L1540 588L1539 587z"/>
<path style="fill:#040404; stroke:none;" d="M329.333 596.667L329.667 597.333L329.333 596.667M312 597L313 598L312 597z"/>
<path style="fill:#fdfdfd; stroke:none;" d="M335 597L338 600L335 597M342 599L343 600L342 599M317.667 623.333L318.333 623.667L317.667 623.333M315 639L316 640L315 639M319 645L320 646L319 645M321 647L322 648L321 647M306.667 659.333L307.333 659.667L306.667 659.333z"/>
<path style="fill:#040404; stroke:none;" d="M250.667 671.333L251.333 671.667L250.667 671.333M245.333 673.667L245.667 674.333L245.333 673.667z"/>
<path style="fill:#fdfdfd; stroke:none;" d="M1506 687L1507 688L1506 687M1499 695L1499 696L1506 696L1499 695M1510 695L1510 696L1514 696L1510 695M1523 704L1524 705L1523 704M239 709L242 708L239 709M240 711L241 712L240 711M240 717L240 720L242 720L242 717L240 717z"/>
<path style="fill:#040404; stroke:none;" d="M1499 721L1500 722L1499 721z"/>
<path style="fill:#fdfdfd; stroke:none;" d="M1487 723L1487 724L1490 724L1487 723M222 728L225 725L222 728M332.667 731.333L333.333 731.667L332.667 731.333M248.333 737.667L248.667 738.333L248.333 737.667M251 747L252 748L251 747M1442.67 747.333L1443.33 747.667L1442.67 747.333M1495 747L1496 748L1495 747M256 749L257 750L256 749z"/>
<path style="fill:#040404; stroke:none;" d="M249.333 750.667L249.667 751.333L249.333 750.667z"/>
<path style="fill:#fdfdfd; stroke:none;" d="M1415.33 754.667L1415.67 755.333L1415.33 754.667M1455 755L1456 756L1455 755M1416 757C1418.01 764.269 1423.62 774.237 1431 777L1416 757M253 759L254 760L253 759z"/>
<path style="fill:#040404; stroke:none;" d="M1466 763L1467 764L1466 763z"/>
<path style="fill:#fdfdfd; stroke:none;" d="M244.333 781.667L244.667 782.333L244.333 781.667M268 791L268 793L270 791L268 791z"/>
<path style="fill:#040404; stroke:none;" d="M1490 813C1489.43 815.396 1489.53 815.487 1492 816L1490 813M291 829L292 830L291 829z"/>
<path style="fill:#fdfdfd; stroke:none;" d="M340 859L341 860L340 859z"/>
<path style="fill:#040404; stroke:none;" d="M296 869L297 870L296 869M293 871L287 876L291 874L293 875L293 871z"/>
<path style="fill:#fdfdfd; stroke:none;" d="M340 871L343 874L340 871M598 871L599 872L598 871M298 884L301 884L300 882L298 884z"/>
<path style="fill:#040404; stroke:none;" d="M611 889L612 890L611 889z"/>
<path style="fill:#fdfdfd; stroke:none;" d="M1399 907L1400 908L1399 907M589 909L588 912L589 909M794.333 914.667L794.667 915.333L794.333 914.667M385 915L385 917L387 915L385 915z"/>
<path style="fill:#040404; stroke:none;" d="M1396 916L1397 922L1398 922L1396 916z"/>
<path style="fill:#fdfdfd; stroke:none;" d="M789 924L796 926L796 921L789 924M384 922L385 923L384 922z"/>
<path style="fill:#040404; stroke:none;" d="M351 923L352 924L351 923z"/>
<path style="fill:#fdfdfd; stroke:none;" d="M779 924C771.019 929.933 756.428 935.04 759 946C766.251 944.235 783.926 932.231 779 924M757 929L758 930L757 929M782 929L783 930L782 929M1377 931L1378 932L1377 931M573 935L574 936L573 935M369.667 939.333L370.333 939.667L369.667 939.333z"/>
<path style="fill:#040404; stroke:none;" d="M1399 941L1400 942L1399 941z"/>
<path style="fill:#fdfdfd; stroke:none;" d="M575.333 942.667L575.667 943.333L575.333 942.667M374 943L375 944L374 943M1291.67 943.333L1292.33 943.667L1291.67 943.333M1168 949L1168 953L1169 953L1168 949z"/>
<path style="fill:#040404; stroke:none;" d="M347 951L348 952L347 951M1272 951L1273 952L1272 951M350.667 953.333L351.333 953.667L350.667 953.333z"/>
<path style="fill:#fdfdfd; stroke:none;" d="M1241 953L1240 956L1244 959L1241 953z"/>
<path style="fill:#040404; stroke:none;" d="M367 955L368 956L367 955z"/>
<path style="fill:#fdfdfd; stroke:none;" d="M1049 955L1049 956L1054 956L1049 955M1152 955L1153 956L1152 955M1219 957L1220 961L1221 961L1219 957M1234 959L1235 960L1234 959M388 961L389 962L388 961M1222 962L1226 966L1222 962M1168 963L1169 964L1168 963M1136 966L1136 968L1138 968L1136 966M1168 966L1171 969L1170 966L1168 966M1157 967L1157 970L1158 970L1159 967L1157 967M1144 972L1147 969L1144 972M1193 972L1195 976L1193 972z"/>
<path style="fill:#040404; stroke:none;" d="M1245 973L1246 974L1245 973M1248 973L1249 974L1248 973M383 979L384 980L383 979z"/>
<path style="fill:#fdfdfd; stroke:none;" d="M982.667 979.333L983.333 979.667L982.667 979.333M1150.67 979.333L1151.33 979.667L1150.67 979.333z"/>
<path style="fill:#040404; stroke:none;" d="M1177 981L1177 984L1180 984L1180 981L1177 981z"/>
<path style="fill:#fdfdfd; stroke:none;" d="M487 983L488 984L487 983M1221 983L1225 988L1221 983z"/>
<path style="fill:#040404; stroke:none;" d="M1244.67 987.333L1245.33 987.667L1244.67 987.333z"/>
<path style="fill:#fdfdfd; stroke:none;" d="M1226 989L1227 996L1228 996L1226 989z"/>
<path style="fill:#040404; stroke:none;" d="M535 991L536 992L535 991z"/>
<path style="fill:#fdfdfd; stroke:none;" d="M971 991L972 992L971 991z"/>
<path style="fill:#040404; stroke:none;" d="M1154 992L1153 996L1156 996L1154 992z"/>
<path style="fill:#fdfdfd; stroke:none;" d="M418.667 995.333L419.333 995.667L418.667 995.333z"/>
<path style="fill:#040404; stroke:none;" d="M643 997L644 998L643 997z"/>
<path style="fill:#fdfdfd; stroke:none;" d="M934 997L934 1000L936 1000L936 997L934 997z"/>
<path style="fill:#040404; stroke:none;" d="M642 999L643 1000L642 999z"/>
<path style="fill:#fdfdfd; stroke:none;" d="M969 1003L970 1004L969 1003M707 1004L704 1008L707 1004M927 1005L926 1008L927 1005M739 1013L740 1014L739 1013z"/>
<path style="fill:#040404; stroke:none;" d="M684 1015L686 1017L684 1015z"/>
<path style="fill:#fdfdfd; stroke:none;" d="M899 1019L899 1020L902 1020L899 1019z"/>
<path style="fill:#040404; stroke:none;" d="M952 1019L952 1022L953 1022L954 1019L952 1019z"/>
<path style="fill:#fdfdfd; stroke:none;" d="M720 1026L720 1029L722 1026L720 1026M483 1027L484 1028L483 1027M881 1027L881 1028L884 1028L881 1027M1007 1027L1008 1030L1009 1030L1010 1027L1007 1027M783 1028C781.126 1037.56 790.506 1052.47 782 1060C781.99 1047.14 769.379 1050.66 769 1039C765.093 1040.14 765.351 1043.34 765 1047L764 1047L761 1036L760 1036L758 1040L755 1039L748 1059L747 1059L747 1055C740.313 1058.87 735.063 1072.5 735 1080L822 1080L824 1070L816 1076C816.077 1066.68 818.755 1055.09 811 1048L808 1078L807 1078L805 1063L804 1063L802 1072L795 1071C798.081 1062.53 797.766 1052.74 793 1045L792 1045L790 1049C788.553 1043.21 787.784 1031.27 783 1028M731 1031L732 1032L731 1031M795 1031L789 1041L794 1040L797 1031L795 1031M1064 1031L1065 1032L1064 1031z"/>
<path style="fill:#040404; stroke:none;" d="M900 1033L900 1036L902 1033L900 1033z"/>
<path style="fill:#fdfdfd; stroke:none;" d="M849.667 1039.33L850.333 1039.67L849.667 1039.33M861 1041L864 1046C864.494 1042.86 864.036 1042 861 1041M807 1048L810 1049L811 1048L812 1044C808.639 1042.86 807.672 1044.91 807 1048M817 1043L816 1048L817 1043M1069 1051L1069 1045C1064.7 1046.42 1064.97 1049.38 1069 1051z"/>
<path style="fill:#040404; stroke:none;" d="M700 1047L701 1048L700 1047z"/>
<path style="fill:#fdfdfd; stroke:none;" d="M864 1047L863 1058C866.3 1054.77 866.84 1050.75 864 1047z"/>
<path style="fill:#040404; stroke:none;" d="M696 1049L697 1050L696 1049z"/>
<path style="fill:#fdfdfd; stroke:none;" d="M834 1053L837 1056L834 1053z"/>
<path style="fill:#040404; stroke:none;" d="M779 1055L780 1056L779 1055z"/>
<path style="fill:#fdfdfd; stroke:none;" d="M800 1056L798 1064C800.736 1061.92 801.237 1059.17 800 1056M820.333 1058.67L820.667 1059.33L820.333 1058.67M862 1059L863 1060L862 1059z"/>
<path style="fill:#040404; stroke:none;" d="M1066 1063L1066 1068L1068 1068L1068 1063L1066 1063M793 1070L792 1072L794 1072L793 1070z"/>
<path style="fill:#fdfdfd; stroke:none;" d="M851.333 1070.67L851.667 1071.33L851.333 1070.67M718 1071L717 1077L718 1077L718 1071M828 1071L829 1072L828 1071M829 1072L827 1080L834 1080L837 1073L830 1076L829 1072M726 1075L730 1080L726 1075z"/>
<path style="fill:#040404; stroke:none;" d="M866 1075L867 1076L866 1075z"/>
<path style="fill:#fdfdfd; stroke:none;" d="M841 1080L845 1080L844 1077L841 1080z"/>
</svg>
