<?xml version="1.0" standalone="yes"?>
<svg xmlns="http://www.w3.org/2000/svg" width="1920" height="1080">
<path style="fill:#fefefe; stroke:none;" d="M0 0L0 1080L1920 1080L1920 0L0 0z"/>
<path style="fill:#030303; stroke:none;" d="M631 74L630 77L623 75L618.74 108L612.574 122.004L608 147L606 147L605 141L604 141C602.477 145.265 602.913 149.911 601.397 153.996C598.151 162.739 593.685 163.588 595 174L592 170L583 177L580 176C577.243 181.458 574.946 183.451 569 181L564 208L563 208L556 203L557 206L550 202L550 208L548 208L545 197L540 201L536 190L534 190L533 200L532 200L527 189L525 191L517 187L515 200L508 199C506.353 206.1 502.257 229.617 495 229L495 231L492 230L498 244L486 234L488 252L474 246L467 255L469 258L463 257L464 264C468.883 266.386 472.633 271.468 473 277L450 255L458 272L444 261L443 264L442 261L433 261L438 268L421 252L420 252L417 257C412.975 247.91 405.016 257.065 407 264L394 256C378.29 257.121 393.38 268.477 393 277L390 275C392.614 285.235 384.915 282.62 379 280C379.618 284.913 378.886 290.659 381.458 294.985C385.805 302.293 395.253 304.045 393 314C389.091 313.937 389.009 316.004 386.316 318.406C384.249 320.251 380.572 320.042 379.086 322.569C376.766 326.513 387.527 333.445 390 336L384 333L378 333L380 340C372.728 334.747 361.809 334.029 353 335L355 340L350 341L354.523 347.6L346 360C353.705 362.534 370.579 371.674 364.801 381.736C361.97 386.667 355.791 385.821 354 392C361.792 393.39 366.769 398.439 372 404L358 409L360 414L359 410L362 416C369.217 416.65 375.674 420.915 382 424.223C399.955 433.612 419.487 447.916 432 464L431 465C419.526 458.31 404.189 434.33 389 438L396 450L384 447L384 448L387 452C381.201 455.24 385.88 458.904 385.378 463.985C385.026 467.544 381.693 469.268 379 471L380 474C373.276 469.626 369.441 470.472 362 472C361.868 477.448 360.844 480.549 355 481L365.927 490.015L365.454 502.674L375 512L377 511L379 520C373.436 520.707 366.058 520.748 363 526L349 530C350.598 535.839 353.582 539.814 360.17 540.344C362.376 540.522 367.414 537.785 368.745 540.426C370.178 543.272 365.12 551.956 364 555L357 555L358 560L357 560L350 555L353 567C350.496 563.966 348.981 562.429 345 563L345 571L339 571L358.806 595.17L357.269 610.996L369.963 623.941L353 619L356 624L343 621L344 628L334 627L344 639L344 640C338.252 642.63 335.534 641.553 330 639C331.011 645.534 336.298 648.539 342 651L335 660C346.109 666.44 346.796 677.834 332 677L331 678L337 686L337 687L318.961 684.709L305 685L320 704L312 707L312 709C319.393 713.279 328.435 713.731 324 724C329.84 728.858 340.982 726.393 339 736L305 733L305 742L287 738L290 748C284.757 749.747 287.287 754.512 287 759L295 763L295 764L293 768L286 769L288 775L288 776C282.795 785.02 304.547 783.94 309 785L303 789C303.795 793.457 305.745 799.194 309.39 802.161C314.691 806.476 323.402 807.588 321 816L335 817C333.854 820.304 331.218 825.311 334 828L333 834L330 833L323 848L340 854C345.127 844.935 352.102 856.383 354 862C350.855 863.396 350.178 866.181 354 867L352 876L367 873L366 884L377 882C373.981 886.978 364.483 898.937 375 902L376 908L379 908C380.418 899.033 383.784 898.538 391 894L392 902L397 902C399.385 908.547 398.746 913.645 396 920L410 922L419 919C421.322 924.278 421.322 926.722 419 932L426 930L430 948L447 952L448 956L450 956L452 943L457 940L460 964L471 955L473 955L474 958C479.014 956.274 484.839 952.373 486 947L492 947C492.12 950.692 492.313 952.777 496 954L495 951C504.562 953.997 502.372 942.36 501 936L507 936L506 925L505 928C509.064 928 518.152 945.328 520.667 932C520.937 930.57 520.353 929.341 520 928L534 942L524 911L525 911L527 916L529 916L528 905C540.108 905.921 533.606 922.349 544 928C544.05 923.792 544.266 921.291 548 919L548 925C553.177 921.296 548.273 913.322 548 908L558 916L558 909L561 911L562 911L564 908L565 908L569 915L570 915L571 909L572 909L574 914L575 914C576.158 908.744 575.091 902.303 582 902L579 886L584 888L581.523 876L584 863L599.193 865.207L608 872C613.69 861.958 625.744 879.53 630 885C638.913 883.694 636.52 896.605 645 897C652.716 912.493 673.622 919.942 689 924L694 920L691 915L692 914L696 916L701 911L709 916L712 913C710.462 907.514 709.473 903.187 714 899L712 908L713 908L721 896C729.785 897.91 732.96 893.313 739 888C742.976 893.512 748.671 888.759 754 888L752 908C761.658 905.124 761.196 897.772 765 890L765 896L784 881L791 893L807 886L806 904C809.864 903.7 811.348 902.911 812 899L816 899C811.917 910.118 799.253 922.235 797.75 934C797.291 937.593 801.182 938.796 802 935L813 942C808.973 941.904 803.054 949.023 802 953L805 954L805 956C799.248 959.079 793.294 965.884 791 972L799 969L799 972C805.036 971.358 809.951 970.919 814 976C808.578 979.969 814.349 983.146 818.985 980.177C824.064 976.923 825.556 970.81 830 967L822 983L822 984C834.843 985.005 835.915 976.691 846 971L847 984L854 979L846 997L851 995L850 1001L864 995L864 996L856 1006C862.881 1003.11 874.611 997.911 879.073 991.985C889.62 977.973 889.22 955.744 902 943C901.556 951.664 893.858 966.766 896.697 974.837C897.712 977.724 908.925 978.935 911.066 977.118C913.044 975.439 913.455 971.376 914 969L915 969L917 978C924.004 976.259 929.216 978.439 927 969L933 973L934 961L936 961C938.786 965.309 948.63 957.97 952 955L953 955L955 964C966.683 957.791 962.333 937.412 974 935L976 944C981.464 944.09 982.819 947.455 985 952L988 952L989 945C997.639 951.086 997.615 955.86 1000 965L1002 965C1008.08 955.504 1009.54 969.683 1015 972C1013.84 977.345 1017.02 979.93 1020 984L1022 984L1023 969C1023.95 972.775 1024.04 975.686 1028 977L1028 967L1032 975C1041.06 971.368 1036.1 951.083 1038.17 943.039C1039.04 939.639 1042.34 937.071 1044 934L1045 934L1047 938L1068 931C1065.57 938.189 1066.57 943.432 1075 944L1073 938L1074 937L1093 946C1092.95 943.354 1093.23 942.185 1096 942L1089.29 933.625L1095 915C1098.68 918.001 1107.21 930.987 1111.96 928.762C1116.26 926.749 1116.68 921.266 1121 919C1116.58 933.99 1127.31 925.524 1134 926.197C1141.17 926.918 1147.58 929.311 1155 928L1154 925C1161.87 923.352 1167.28 927.031 1168 917C1160.07 916.928 1155.35 913.545 1151 907C1156.95 906.008 1155.61 900.85 1157 896C1165.07 899.165 1177.53 890.427 1181 883L1182 883L1206 898L1212 894L1209 873C1215.86 876.265 1221.25 878.774 1222 887L1239 885C1240.43 890.013 1242.18 894.591 1247 897L1248 881L1257 883L1260 873L1261 877L1268 876L1273 869L1275 870L1276 870L1280 861C1281.88 866.515 1284 874.123 1290 876L1290 871L1294 872L1299 855L1300 855L1308 867L1309 847L1310 847L1319 870L1321 870L1323 865L1324 865L1325 868L1343 884L1343 880L1344 880L1353 888L1356 881L1355 870L1368 874C1367.63 867.367 1364.22 859.584 1365.41 853C1366.85 844.973 1371.38 844.001 1369 835L1382 840L1383 833L1384 840L1392 838L1390 835L1408 838L1406 831L1410 831L1402 811L1409 814L1407 795L1412 796C1406.55 787.732 1403.52 779.06 1403 769L1404 769C1408.14 776.655 1413.28 785.347 1423 782L1415.61 763L1395 716C1399.2 720.576 1404.75 725.725 1407.91 731.039C1412.48 738.722 1412.59 746.904 1421 752L1421 737L1428 749L1429 749L1434 745L1438 740L1436 733L1440 732L1441 732C1444.59 735.378 1448.96 738.757 1454 738L1451 729C1453.78 726.953 1453.25 725.344 1451 723L1451 722L1455 720C1454.05 717.241 1450.93 704.292 1452.93 702.357C1454.71 700.639 1483.05 703.669 1472 694L1473 689L1465 688L1478 684C1476.46 676.803 1463.4 674.422 1457 672C1457.14 668.456 1456.21 667.427 1453 666C1454.92 659.682 1453.68 648.733 1446.86 645.268C1443.1 643.361 1438.12 643.92 1434 642L1434 641C1437.65 635.732 1432.91 630.277 1428 628L1431 623L1427 622L1427 615L1436 612L1433 607L1451 594L1440 593L1439 592L1442 583L1456.41 585.361L1473 601C1475.51 615.046 1488.43 619.393 1497.99 627.275C1501.69 630.335 1504.29 635.404 1509 637.1C1514.18 638.962 1523.26 637.584 1529 638L1528 633L1546 632C1544.18 624.42 1538.4 620.486 1534.64 614C1525.85 598.867 1518.15 583.003 1518 565L1521 566C1521.36 557.542 1520.08 552.486 1516 545L1533 538C1533.27 531.814 1537.9 531.885 1543 532C1542.07 524.127 1540.62 511.168 1532 508L1535 501C1533.11 498.789 1533.11 498.211 1535 496L1535 494L1529 491L1529 489L1537 486C1535.7 480.041 1533.3 476.702 1527 476L1525 472L1525 471L1535 470L1535 469L1533 466L1543 464C1545.01 455.651 1552.83 457.199 1558.68 452.556C1563.1 449.045 1564.61 442.9 1570 439L1559 436L1556 432L1560 423C1547.93 417.906 1538.6 424.238 1541 407L1535 397C1542.81 397.606 1551.71 387.182 1541 384L1543 379L1518 376L1518 367L1505 370L1509 357L1467 364L1467 363L1483 360L1483 357L1478 356L1481 352C1479.24 348.478 1473.51 342.95 1473.89 339.039C1474.52 332.396 1481.48 332.685 1477 325C1466.94 327.91 1467.75 315.901 1461 312L1461 311L1472 308C1469.27 303.559 1464.4 297.701 1459.99 294.893C1457.21 293.126 1452.92 293.59 1450.61 291.258C1447.07 287.692 1452.27 281.635 1448.16 277.782C1445.52 275.318 1440.36 277.094 1437.05 275.279C1431.96 272.49 1434.22 259.921 1438 256L1438 255L1419.2 263.443L1427 251L1413 252L1412 247L1407 248L1410 240L1410 239L1396 236L1396 234L1387 237L1385 233L1384 233L1379 240L1377 240L1376 237L1370 240C1370.43 232.966 1366.92 223.312 1369.29 217C1372.13 209.43 1378.68 203.582 1383.23 197C1390.1 187.057 1397.97 169.03 1398 157L1395 158L1394 141L1390 144C1389.78 142.233 1389.5 140.69 1389 138.976C1384.43 123.317 1377.17 139.831 1372.24 145.83C1367.96 151.04 1362.52 154.503 1360 161C1353.43 160.77 1347.8 166.436 1345 172C1337.32 166.036 1325.5 173.498 1322 181L1321 181L1315 176L1312 166L1308 168C1306.73 151.259 1281.24 173.574 1280 181L1279 181L1277 176L1276 176L1274 183C1270.35 180.579 1266.89 177.257 1264 182L1260 181L1260 192L1259 192L1255 179L1254 179L1254 186L1253 186C1251.7 182.908 1248.1 174.261 1244 178L1243 178L1240 167L1239 167L1238 169L1229.09 166.857L1222 162L1219 176L1215 176L1212 173L1211.79 188.581L1201 193L1203 200L1202 200L1201 196L1198 200L1197 200C1194.1 194.56 1188.8 193.115 1183 194C1183.14 198.293 1181.48 199.698 1178 202C1180.74 212.02 1185.69 216.395 1173 219L1178 230C1168.49 228.74 1173.78 234.356 1172.62 240C1172.05 242.749 1170 245.359 1169 248L1168 248L1169 243L1164 247L1163 247C1161.71 244.556 1159.32 237.818 1156.7 236.851C1151.92 235.093 1143.34 248.901 1140 252C1141.85 245.985 1143.53 242.777 1140 237L1139 237C1132.76 248.68 1132.75 237.141 1137 230C1133.02 231.278 1122.28 244.303 1121.4 234.98C1121.13 232.143 1121.71 229.825 1121 227C1115.86 230.225 1113.55 234.24 1107 233C1107.4 238.271 1107.99 242.002 1104 246L1104 241L1099 243C1099.26 236.977 1105.32 219.838 1101 216L1102 209C1093.65 209.637 1093.03 219.022 1092 226L1091 226L1091 210L1086 219L1085 219L1084 211C1079.22 212.681 1078.62 220.487 1077 225L1076 217C1067.89 219.839 1073.07 230.8 1063 231L1060 228L1066 204L1045 222C1045 207.726 1056.9 194.552 1049 182L1047 182L1041 188L1040 178L1037 179L1040 177L1041 171L1036 174C1035.55 162.766 1043.54 148.097 1037 139L1026 152C1027.18 148.035 1033.84 138.466 1027 137C1029.44 127.942 1018.28 112.931 1016 127C1003.21 129.139 1004.46 141.56 998 150C998.08 148.42 999.31 135.6 996 140L995 140L984 122L980 140L975 135C969.316 138.166 972.64 143.366 975 148C965.476 152.046 970.042 159.107 964.512 164.396C959.591 169.103 955.731 161.544 951.235 161.824C948.365 162.003 946.161 164.733 943 165L938 184L937 184L937 163L932 155L930 155L926 164L925 164L925 159L917 160L918 155L912 153L910 162L909 162C906.694 151.962 910.289 147.625 900 141L897 146L901 131L892 140C892.282 134.573 897.263 127.811 892 124L883 146L876 135L873 150L865 172L865 161L860 159L859 176L853 172.667L843 175L843 184L841 194L836 185L835 185L832 211L829 210L820 242L819 242C819 233.69 822.248 223.803 821.437 216C820.971 211.522 818.037 207.2 816.541 203C814.74 197.945 814.122 193.56 809 191L810 200L808 200L807 195C797.591 199.892 800.356 213.258 798.621 222C797.528 227.507 795.249 232.279 795 238C792.706 236.361 791.163 234.833 789 237L784 237L782 244L780 244L778 239L776 239L766 252C766 248.146 766.309 245.327 769 246L769 241L766 242C763.243 237.069 759.952 239.528 756 242L755 229L748 233L749 225L734 236L736 227L730 233L725 235L715 225L714 228L712 228L710 223L709 223L705 244L699 245L698 239L693 248L692 248L688 245L690 252L679 254L681 243C677.874 243 678.626 239.221 676 237.333C673.848 235.786 668.542 238.285 667.833 235.333C667.516 234.012 669.788 231.529 670 230C670.641 225.385 667.809 221.391 668 217C668.158 213.364 671.487 208.54 672.667 205C673.94 201.181 675.062 197.792 671 196C676.728 183.957 678.708 169.338 676.56 156C675.666 150.446 672.026 145.656 672.058 140C672.125 128.264 676.702 114.884 666 106L664 115L663 115L654 87L650 88L649 83L646 95L633 74L631 74M648 81L649 82L648 81M1019.67 115.333L1020.33 115.667L1019.67 115.333M892 118L892 122L893 122L892 118z"/>
<path style="fill:#fefefe; stroke:none;" d="M872 155L873 156L872 155M921 173L923 173L925 166C921.595 167.719 920.451 169.185 921 173M945 171L946 172L945 171M865 173L866 174L865 173M866 175L864 179L868 180L866 175z"/>
<path style="fill:#030303; stroke:none;" d="M568 179L569 180L568 179M673.667 195.333L674.333 195.667L673.667 195.333z"/>
<path style="fill:#fefefe; stroke:none;" d="M669 199L670 200L669 199M1090 226L1088 232L1092 232L1090 226M747 234L748 235L747 234M731 237L730 240L731 240L731 237M792.333 242.667L792.667 243.333L792.333 242.667M1098 243L1098 246L1099 246L1098 243M791 245L775 280L776 280L785 273C787.873 265.542 793.408 252.93 791 245M818 245L819 246L818 245M693 248L696 252L693 248M470.333 255.667L470.667 256.333L470.333 255.667M419 256L418 258L419 256z"/>
<path style="fill:#030303; stroke:none;" d="M431 259L432 260L431 259z"/>
<path style="fill:#fefefe; stroke:none;" d="M1407 267L1407 268C1411.07 268.451 1414.49 268.486 1417 265L1407 267M486 266L486 268L488 268L488 266L486 266M474 277L475 278L474 277M475 279L476 280L475 279M392 280L394 284L392 280M382.667 291.333L383.333 291.667L382.667 291.333M398.667 311.333L399.333 311.667L398.667 311.333M381 339L384 343L381 339M1508 359L1509 360L1508 359M1458 363L1458 366L1459 366L1458 363M370 381L371 382L370 381M372 405L372 406L379 406L372 405M380 407L381 408L380 407M397 451L397 452L400 453L397 451M436 467L437 468L436 467M441 470L444 472L444 471L441 470M389 565C390.871 571.658 398.123 564.861 403 565L404 560L408 560L389 565M384 561L379 563L383 570L384 570L383 564L384 561M344 572L345 573L344 572M1471 599L1472 600L1471 599M361 607L362 608L361 607M1450.67 671.333L1451.33 671.667L1450.67 671.333M337 689L338 690L337 689M1394 707L1394 714L1395 714L1394 707z"/>
<path style="fill:#030303; stroke:none;" d="M1455 721L1456 722L1455 721z"/>
<path style="fill:#fefefe; stroke:none;" d="M1427 724L1430 724L1429 722L1427 724M1434 727L1435 728L1434 727M1449 727L1450 728L1449 727M1439 731L1440 732L1439 731M1402 767L1403 768L1402 767z"/>
<path style="fill:#030303; stroke:none;" d="M284 775L285 776L284 775z"/>
<path style="fill:#fefefe; stroke:none;" d="M685 841C679.094 841.693 687.207 863.986 689 869L687 872L692.333 879.667L708 902C706.828 885.557 723.275 875.326 727 861C707.787 860.848 714.152 838.807 717 827C710.848 819.892 693.78 813.139 687.046 825.3C685.33 828.397 685.471 837.153 685 841M591 863L592 864L591 863M1288 863L1288 865L1290 863L1288 863z"/>
<path style="fill:#030303; stroke:none;" d="M1368 867L1369 868L1368 867z"/>
<path style="fill:#fefefe; stroke:none;" d="M1220 877L1221 878L1220 877M632.333 879.667L632.667 880.333L632.333 879.667M1205.67 879.333L1206.33 879.667L1205.67 879.333M1201 887L1202 892L1201 887M373.667 895.333L374.333 895.667L373.667 895.333M816 895L817 896L816 895z"/>
<path style="fill:#030303; stroke:none;" d="M390 899L391 900L390 899M813 900L814 901L813 900M377 909L378 910L377 909z"/>
<path style="fill:#fefefe; stroke:none;" d="M809 920L812 917L809 920M543 919L544 920L543 919M501 921L501 926L502 926L501 921M1143 921L1144 922L1143 921M1149 923L1149 924L1154 925L1153 922L1149 923M1143 926L1144 927L1143 926M515 935L516 936L515 935M456 939L457 940L456 939M862 943L863 944L862 943M955 946C954.501 949.314 955.059 950.38 958 952L955 946z"/>
<path style="fill:#030303; stroke:none;" d="M1095 948L1098 948L1097 946L1095 948M1041 953L1040 956C1042.57 955.449 1042.86 954.86 1041 953z"/>
<path style="fill:#fefefe; stroke:none;" d="M873 993L870 995L870 996C872.348 995.706 873.951 995.507 873 993z"/>
</svg>
