<?xml version="1.0" standalone="yes"?>
<svg xmlns="http://www.w3.org/2000/svg" width="1920" height="1080">
<path style="fill:#fcfcfc; stroke:none;" d="M0 0L0 1080L494 1080L607 1080C615.186 1080 635.535 1083.65 641.697 1077.68C645.124 1074.36 645.168 1068.42 646 1064L632 1062L629 1063L629 1064L632 1065L627 1068C621.722 1053.1 635.325 1045.44 643.787 1035.96C652.036 1026.72 657.6 1017.39 668.91 1011.37C672.776 1009.31 674.525 1004.63 679 1004L692 983L695 984L697 976C678.415 983.738 672.688 996.555 658.745 1009.59C649.949 1017.81 641.056 1027.86 630.985 1034.66C625.328 1038.48 618.024 1040.56 612 1044L612 1041L611 1041L608 1046L604 1046L604 1043L603 1043L604 1048L592 1047L593 1051C588.117 1049.46 583.784 1048.13 582 1054L581 1054C580.369 1045.53 587.419 1045.66 592.911 1041.46C603.41 1033.41 612.683 1019.46 626 1016C625.195 1005.7 631.206 1005.34 634 997L625 1000L624 1005L620 1004C620.589 1000.03 620.108 995.475 622.667 992.132C629.72 982.918 643.886 980.292 650.865 969.741C652.58 967.147 656.532 961.644 657.268 958.78C658.63 953.486 653.366 950.747 661 948C655.031 941.935 648.017 949.232 645 955L641 955L646 944L642 943L641 946L630 948L636 940L637 943L638 943L636 940L636 939C647.05 931.129 643.913 924.113 641 913L640 913L641 923L640 923C638.973 916.836 633.308 898.103 627 896C622.777 894.592 620.727 903.432 615 902C608.752 900.438 617.312 895.932 612 894C608.716 892.806 609.699 897.675 607 897L597.616 905.444L599 920L597 917L594 934L585 944L584 941L583 941L588 970L584 970L583 969L576 956L575 956C576.388 966.257 581.537 975.435 580.286 986C579.977 988.602 580.505 995.269 576.456 995.4C571.355 995.564 571.034 985.637 566.022 985.636C561.97 985.635 564.235 991.141 565 993L561 1011C555.599 1008.73 554.704 1004.24 553 999L550 1000L550 995L549 995L544 1006L544 995L532 995C530.349 989.903 528.432 984.752 523 983C521.581 986.827 519.987 987.451 516 987L511 988L506 996C506.584 984.7 499.042 993.876 498 1000L495 999L494 1004L493 1004L491 989L490 989C487.446 995.821 488.425 1001.11 490 1008L487 1007C484.162 1018.64 512.755 1035.83 494 1047L495 1054L490 1052L489 1061L478 1052L476 1056L475 1056L468.703 1046.96L464 1035L462 1042L457 1033L444 1045L442 1031L440 1031L439 1041L433 1038L431 1043L429 1043L427 1033L428 1036L429 1036C428.348 1031.93 427.397 1029.21 423 1029L424 1026L425 1026L426 1015L424 1015L422 1019L421 1019L420 1008L419 1008L414 1013L412 1005L411 1005L404 1022L396 1023C396 1013.8 402.002 1001.01 397 993C392.563 997.645 388.63 1002.21 382 1000C384.488 995.408 383.718 989.96 389 988L388 981L370 996L371 984L367 986L368 975L367 974L355 984C360.008 976.425 349.243 974.654 347 967L338 970L339 967C333.711 968.001 331.183 966.1 327 963C333.651 959.841 341.944 955.309 346 949L341 949C342.255 944.937 349.815 922.693 339.91 923.917C335.199 924.5 330.959 930.648 326 932L337 915L340 916L341 913L343 915L345 902L328 911L339 889L334 888L333 896L322 893C325.541 885.6 320.673 880.694 313.424 885.708C310.101 888.007 305.531 890.563 303.414 894.058C300.617 898.674 300.2 906.179 295.856 909.623C292.669 912.151 289.952 909.454 287 908L288 905L284 904L289 900L289 899L284 897L279 900L285 894L290 879L279 880C278.302 873.914 280.003 870.268 285 876L287 871L296 868L292 863C288.533 866.658 286.372 864.832 284 861L282 861L281 864C272.216 857.036 280.901 851.111 283 843L298 846L303 836L303 835L299 833C295.858 838.221 288.289 834.863 283 835L281 831C285.633 829.784 288.022 827.302 290 823L272 824L282 820C280.503 806.596 279.458 811.5 268 809L267 812L266 812L265 806L273 806L278 800L260 795L258 799L252 794L251 794L246 793L227 792L227 789L217 784L217 783L224 779L219 780L226 773L229 776L228 765L231 764L227 760L227 759L236 757L238 751L231 746L243 744L244 735L231.075 740.253L221.996 734.568L201 729C195.981 733.324 195.041 725.474 190 724C192.569 721.739 193.431 721.739 196 724C202.181 721.455 211.175 718.424 214 712L218 713L216 708L216 707L221 701L212 688C214.9 683.162 214.805 679.872 212 675C231.685 672.677 246.133 693.98 265 692C257.164 682.022 239.522 680.509 229.039 673.262C222.78 668.934 219.569 660.806 212 659L210 650C216.273 655.052 226.98 663.645 234.999 665.202C239.774 666.129 243.062 660.259 247.718 662.452C252.784 664.838 265.003 675.763 270 669L274 670L273 661L272 661L272 664L267 664L267 663L271 662L270 657L286 666L291 662L290 659L298 652L298 651L295 650L295 645L288 644L291 640L286 633L293 636L294 633L300 636C298.75 627.469 289.441 621.237 282 619L284 615L290 617L291 613L273 600L282.87 597.773L300 600L298 593L301 597L303 597C307.81 588.804 319.564 597.923 319 587C315.865 586.745 312.578 585.869 310.928 582.814C309.596 580.348 310.946 577.611 310.633 575C309.78 567.882 301.261 553.871 293 560L284 559L285 553L283 553L276 556L288 543C282.342 539.151 277.143 536.175 276 529L283 528L283 527L260 497L266 496L261 487L266 489L267 489C270.761 488.028 272.138 489.423 275 492L276 492L280 491L288 490L290 483L303 486C308.698 475.716 328.298 478.456 330 468L327 468L343 460L352 447L356 448L357 437L352 438L365 426L366 426L368 428C366.043 422.447 359.889 417.446 354 419C356.954 428.208 334.506 444.197 326 445C318.981 452.832 298.198 460.068 288 460L286 452C280.802 453.342 279.915 451.838 276 449L277 454C272.826 451.876 272.863 449.277 272 445L271 445L270 450L269 450L266 436L264 436L262 440L263 433L265 435L266 435L272 427L266 424L267 427L264 423L268 423L273 405L284 402L284 401L282 398L275 395L270 400L271 397L268 398L275.968 388.853L282 376L278 357C284.574 361.468 288.572 362.096 296 359L296 357L289 349L293 348L297 327L302 332C300.208 322.347 299.841 317.176 294 309C298.558 311.65 301.997 311.111 307 310L310 320L322 308L323 308C322.487 305.525 322.396 305.425 320 306C324.99 297.94 326.386 295.251 327 285L335 289L334 282L340 284C339.501 272.415 333.536 273.535 326.468 266.698C322.751 263.101 321.295 257.841 320 253L325 252C322.958 245.824 313.321 241.516 307 242L316 227L317 232L318 232L317 227L324 220L325 220C330.363 226.995 332.542 214.637 336.148 213.255C342.124 210.966 348.355 220.638 349 209L350 209L352 212L354 205L357 204L356 191L372 185L373 189L375 183C382.953 184.701 387.722 185.807 393 192L394 189L396 189L404 199L404 193L410 196L408 185L413 185L414 180C420.665 181.932 419.424 187.762 423.421 192.275C426.115 195.319 430.48 197.366 432.103 201.289C434.127 206.184 431.84 210.153 435.533 214.999C440.979 222.145 449.546 223.347 451 213L463 226L468 221L458 212L460 204L468 210L468 205L476 210L472 199L474 203L475 203L472 189L478 188L478 187L473 175L476 179L482 182C485.516 172.454 472.652 169.114 475 159C470.912 154.957 470.05 150.611 470 145L475 150L476 150L477 143L481 144L480 130C483.498 131.928 483.875 134.122 484 138L485 138L486 135L488 135L490 140L492 140L495 118L498 124L504 124L506 116L502 118L502 113L506 115L508 111L513 114C515.502 109.228 519.909 108.416 525 108L521 93C523.536 97.344 531.679 99.1968 533 93L535.177 106L541 130L542 130L542 121C549.125 126.079 548.802 132.567 552 140L553 140C552.691 135.401 552.179 131.137 558 132L560 129L560 136L563 135L565 123C567.396 123.575 567.487 123.475 568 121C572.96 126.366 565.885 133.895 574 137L577 123L578 123L578 125L579 125L582 114L594 126C591.002 113.551 584.199 93.211 594 83C593.52 86.9597 591.404 90.2983 595 93L595 89L600 96C600.143 78.7115 599.373 59.8251 604.304 43C607.559 31.8953 615.999 24.097 617 12L618 12L618 16L619 16L624 0L0 0z"/>
<path style="fill:#040404; stroke:none;" d="M619 16L618 16L618 12L617 12C614.636 23.2007 607.416 31.3827 604.304 42C599.254 59.2306 600.049 78.306 600 96L595 89L595 93L592 92L594 83C584.247 89.7264 590.07 100.29 591.726 109C592.804 114.667 592.294 120.387 594 126L582 114L579 125L578 125L578 123L577 123L574 137L568 121L565 123L560 136L560 129L558 132C551.687 129.524 552.438 135.425 553 140L552 140C549.669 132.71 549.63 124.601 542 121L542 130L541 130C540.297 121.459 535.76 113.637 535.213 105C534.926 100.465 537.299 96.0405 533 93C529.793 98.0889 524.638 96.9666 521 93C519.258 99.0767 522.07 102.852 525 108C519.934 108.221 514.696 108.626 513 114L508 111L506 115L502 113L502 118L506 116L504 124L498 124L495 118L492 140L490 140L488 135L486 135L485 138L484 138C483.953 134.065 484.046 131.343 480 130L481 144L477 143L476 150L475 150L470 145C470.016 150.455 470.128 155.72 475 159C471.275 169.563 484.815 172.123 482 182L476 179L473 175L478 187L478 188L472 189L475 203L474 203L472 199L476 210L468 205L468 210L460 204L458 212L468 221L463 226C461.968 219.32 456.314 216.406 451 213C448.547 223.096 440.937 221.157 435.534 214C432.009 209.331 434.312 205.122 432.138 200.439C430.043 195.927 424.695 194.111 422.264 189.871C419.591 185.209 420.151 180.98 414 180L413 185L408 185L410 196L404 193L404 199L396 189L394 189L393 192C388.783 185.055 382.801 184.07 375 183L373 189L372 185L356 191C356 195.489 357.986 202.428 354 205L352 203L352 212L350 209L349 209C347.691 220.611 341.135 209.706 335.317 213.072C331.774 215.121 330.864 225.651 325 220L324 220L317 227L318 232L317 232L316 227L307 242L310 241L325 252L320 253C322.616 268.387 338.835 269.377 340 284L334 282L335 289L327 285L325.889 299.611L320 306L323 308L322 308L321 306L310 320L307 310L294 309L302 332L297 327L293 348L289 349C290.35 353.26 291.809 355.302 296 357L296 359C288.046 361.377 285.254 360.418 278 357L282 376C277.013 378.75 278.927 383.653 275.968 387.941C273.005 392.236 267.122 391.987 268 398L271 397L270 400L275 395C277.118 397.93 278.426 398.682 282 398L284 401L284 402L273 405L268 423L264 423L267 427L266 424L272 427C268.96 431.125 268.229 434.681 263 433L262 440L264 436L266 436L269 450L270 450L271 445L272 445C272.29 449.513 272.243 452.555 277 454L276 449C279.503 452.736 280.846 454.067 286 452L288 460C297.039 459.677 302.882 453.893 312 452.5C317.561 451.65 323.429 451 326 445C334.291 445.696 358.308 427.939 354 419C359.869 418.043 365.158 423.128 368 428L366 426L365 426L352 438L357 437L356 448L352 447L343 460C337.254 459.342 331.127 464.222 327 468L330 468C326.554 479.638 307.638 473.227 303 486L290 483L288 490L280 491L276 492L275 492C272.682 488.966 270.562 486.679 267 489L266 489L261 487L266 496L260 497L283 527L283 528L276 529C276.674 536.407 281.587 539.953 288 543L276 556C279.535 556.462 281.032 556.001 283 553L285 553L284 559L293 560C311.93 551.116 304.659 588.464 319 587C319.042 598.271 306.88 587.515 303 597L301 597L298 593L300 600L282.611 597.375L273 600C274.847 604.827 286.092 610.878 291 613L290 617L284 615L282 619C289.149 621.885 297.889 627.901 300 636L294 633L293 636L286 633L291 640L288 644L295 645L295 650L298 651L298 652C293.656 653.588 290.764 657.33 291 662L286 666L270 657L271 662L267 663L267 664C269.993 663.936 271.346 664.054 272 661L273 661L274 670L270 669C262.907 674.413 253.986 664.574 247.718 661.943C242.927 659.931 239.778 665.778 234.999 664.636C226.304 662.557 217.649 654.4 210 650L212 659L229.039 673.896L265 692C246.348 690.653 231.196 671.489 212 675C214.232 680.062 214.142 682.932 212 688L221 701L216 707L216 708L218 713L214 712L196 724C193.878 721.054 192.122 721.054 190 724C194.233 725.992 196.742 734.848 201 729L222.011 735.016L231.075 740.624L244 735L243 744L231 746L238 751L236 757L227 759L227 760L231 764L228 765C228.351 766.895 229.688 779.217 226 773L219 780L224 779L217 783L217 784L227 789L228 790L227 792L246 793C247.608 795.444 248.587 795.662 251 794L252 794L258 799L260 795L278 800C274.2 800.796 273.295 802.163 273 806L265 806L266 812L267 812L268 809L280.678 809.913L282 820L272 824L290 823L281 831L283 835C288.032 835.41 296.894 838.969 299 833L303 835L303 836L298 846L283 843C280.203 849.868 271.23 858.873 281 864L282 861L284 861C285.78 865.338 289.159 868.034 292 863L296 868L287 871L285 876C280.41 868.654 277.844 873.658 279 880L290 879L285 894L279 900L284 897L289 899L289 900L284 904L288 905L287 908C289.699 909.941 292.486 912.745 295.856 910.377C300.909 906.827 300.793 897.901 304.649 893.144C309.752 886.848 327.188 877.989 322 893L333 896L334 888L339 889L328 911L345 902L343 915L341 913L340 916L337 915L326 932C331.353 931.168 335.048 925.195 339.91 924.616C348.963 923.536 341.851 944.907 341 949L346 949L327 963C330.803 967.047 333.562 968.806 339 967L338 970L347 967C348.756 975.365 358.609 975.818 355 984L367 974L368 975L367 986L371 984L370 996L388 981L389 988C383.323 989.24 383.804 995.13 382 1000C388.395 1003.01 393.455 998.437 397 993C400.98 1002.09 396 1013.13 396 1023L404 1022L411 1005L412 1005L414 1013L419 1008L420 1008L421 1019L422 1019L424 1015L426 1015L425 1026L424 1026L423 1024L423 1029C427.023 1029.52 428.043 1032.33 429 1036L428 1036L427 1033L429 1043L431 1043L433 1038L439 1041L440 1031L442 1031L444 1045L457 1033C457.381 1037.2 458.184 1039.95 462 1042L464 1035L475 1056L476 1056L478 1052L489 1061L490 1052L495 1054L494 1047C513.176 1039.22 485.7 1016.62 487 1007L490 1008L490 989L491 989L493 1004L494 1004L495 999L498 1000C499.346 994.982 506.041 985.389 506 996L511 988L516 987C520.186 987.882 522.053 987.338 523 983L532 995L544 995L544 1006L549 995L550 995L550 1000L553 999C554.258 1004.44 555.168 1009.37 561 1011L565 993C560.195 976.176 575.772 1001.22 579.397 993.64C584.894 982.156 577.345 967.215 575 956L576 956L583 969L584 970L588 970L583 941L584 941L585 944L594 934L597 917L599 920L597.757 906.005L607 897C608.52 897.036 610.801 894.532 612.194 895.5C614.123 896.839 611.622 899.861 614.139 901.194C619.604 904.09 622.166 896.711 626.028 896.833C633.372 897.066 637.531 917.658 640 923L641 923L640 913L641 913C643.341 925.024 645.449 929.445 636 939L636 940L638 943L637 943L636 940C631.944 941.516 630.572 943.761 630 948L641 946L642 943L646 944L641 955L645 955C649.187 949.55 654.215 943.335 661 948C652.689 949.774 658.242 953.64 656.717 958.78C655.891 961.565 652.475 966.292 650.865 968.871C641.241 984.289 621.369 984.475 620 1004L624 1005L625 1000L634 997C629.503 1005.15 624.672 1005.48 626 1016C612.305 1018.18 602.482 1033.61 591.961 1041.46C586.488 1045.54 579.445 1045.54 581 1054L582 1054C584.622 1048.85 588.009 1049.88 593 1051L592 1047L604 1048L603 1043L604 1043L604 1046L608 1046L612 1041L612 1044L613 1044L632.911 1033.95L680.59 984.789L697 976L695 984L692 983L679 1004C673.857 1004.25 671.572 1009.65 666.985 1011.79C656.352 1016.76 651.146 1026.55 643.787 1034.99C635.969 1043.95 619.888 1053.73 627 1068L632 1065L629 1064L629 1063L632 1062C632.968 1066.52 641.947 1064.34 646 1064L640 1080L657 1068L672 1054L664.426 1070L669 1080L672 1080C672.6 1074.17 676.008 1065.33 683 1068L684 1068L688 1066C685.122 1071.23 684.964 1074.41 687 1080L695 1079L696 1075C706.087 1084.22 726.774 1080 740 1080C744.504 1080 751.566 1081.32 755.721 1079.4C763.206 1075.92 757.971 1056.14 753 1053L756 1043L762 1047C762.003 1051.44 761.398 1055.15 766 1057L769 1052L768 1062L771 1063L768 1080C778.784 1079.51 781.086 1063.28 789.315 1074.98C790.469 1076.62 791.226 1078.17 792 1080C800.054 1080 824.449 1083.92 829 1077C832.892 1082.4 854.901 1081.86 860 1078L874 1080L878 1065L880 1065L883 1068C882.828 1064.63 880.9 1060.24 882.283 1057.05C886.583 1047.16 895.958 1045.69 892 1033L900 1027C899.988 1031.26 899.574 1048.32 906 1037C912.196 1046.14 893.444 1054.86 907 1059L906 1055L911 1056L915.722 1045.99L916 1027L917 1027L918 1031L924 1029L925 1033C929.833 1033.04 931.973 1036.61 935 1040L939 1035L940 1035C941.141 1046.75 932.748 1053.6 944 1064L939 1072L937 1072L936 1069L932 1077C951.175 1076.39 942.278 1062.27 944.101 1051C945.182 1044.32 948.857 1039.18 948.276 1032C947.879 1027.09 943.96 1023.98 946 1019L948 1026L953 1025L954 1034L956 1031C962.196 1035.01 958.106 1042.72 956 1048C964.742 1047.06 968.551 1045.81 969 1036L974 1038C978.35 1027.53 982.638 1021.42 976 1011L980 1012L983 1008L983 1016C988.149 1016.07 992.744 1021.77 996 1016L997 1016C996.091 1020.5 994.329 1024.05 1000 1025L981 1052C992.026 1058.6 994.489 1062.42 998 1074L1003 1069C1007.46 1074.2 1013.78 1074.44 1020 1072L1018 1057L1022 1063C1030.72 1060.2 1034.09 1052.86 1024 1048L1024 1047L1030 1050C1033.2 1047.41 1034.82 1045.76 1039 1047L1037 1051C1041.58 1055.49 1037.71 1057.77 1038.15 1062.96C1038.39 1065.86 1041.71 1068.44 1043 1071C1037.29 1071.05 1032.52 1071.46 1032 1078L1035 1077C1038.12 1081.32 1044.13 1080 1049 1080C1050.42 1069.44 1052.68 1056.43 1047 1047L1050 1046C1053.04 1054.77 1051.8 1070.97 1065 1067C1061.08 1084 1088.61 1079.95 1098 1080L1099 1071C1101.29 1073.41 1102.1 1078 1105.23 1079.4C1113.71 1083.19 1119.5 1076.7 1114.18 1069.06C1107.78 1059.87 1093.28 1056.17 1087.79 1045.17C1084.03 1037.63 1089.04 1031.44 1082 1024L1082 1023C1087.08 1019.36 1095.97 1008.45 1102 1017C1107.26 1014.02 1115.75 998.964 1117 993C1122.38 998.219 1122.65 1016.11 1133 1009C1134.4 1014.11 1140.04 1021.11 1145 1023L1146 1022L1140 1007L1137 1009L1138 1001L1132 988L1136 977C1146.83 983.858 1152.96 990.623 1153 1004C1158.65 1006.06 1158.08 1010.39 1160.85 1015C1166.53 1024.45 1174.32 1032.14 1174 1044L1180 1040L1180 1037L1173 1024C1178.39 1013.7 1162.25 999.723 1177 1000L1174 991C1177.95 994.071 1181.12 1000.28 1185 994L1190 1002L1187 1002L1190 1015L1193 998L1194 998C1194.46 1004.15 1198.51 1009.33 1204 1012L1204 1007L1205 1007C1206.08 1010.52 1207.34 1011.32 1211 1011C1212.45 1016.14 1215.81 1018.95 1221 1020L1213 997L1216 997C1216.28 1004.96 1222.67 1008.93 1225.26 1016C1230.16 1029.36 1227.8 1057.95 1242 1066C1239.88 1055.85 1236.48 1047.58 1239 1037L1240 1037L1244 1054L1246 1045L1250 1046L1248 1033L1251 1040C1255.35 1039.06 1258.63 1035.09 1254 1032L1256 1027L1252 1022L1266 1021L1264 1028L1268 1028L1271 1006L1272 1006L1272 1012C1277.11 1013.94 1279.99 1011.86 1282 1007L1287 1010C1285.36 1012.89 1284.29 1014.21 1281 1013L1280 1016L1284 1017L1284 1021L1285 1017L1288 1013L1289 1013L1292 1017L1291 1012L1293 1006C1280.73 997.428 1276.77 982.965 1272 969L1285.01 987.366L1300 996L1302 985L1314 991L1312 996L1326 996C1319.05 982.315 1308.9 975.354 1308.66 959C1308.6 954.62 1306.58 950.402 1310 947L1312 960C1321.14 955.584 1321.34 966.654 1325 973L1329 972L1328 969L1335 969C1334.71 974.077 1337.02 977.044 1341 980L1350 967L1352 967L1352 971L1355 970C1355.5 965.13 1359.77 968.208 1363 969C1368.71 956.302 1385.12 966.729 1394 970C1393.81 967.46 1392.69 963.637 1394.64 961.538C1399.09 956.748 1406.22 964.039 1407 954C1424.77 953.279 1407.23 939.696 1406 929L1412 934L1412 929L1415 930L1417 926L1420 927C1420.98 922.184 1423.12 920.371 1428 920L1428 917L1433 918L1433 920C1429.15 921.742 1428.38 923.892 1428 928L1434 926L1433 920L1434 920L1434 923L1452 924L1449 920L1449 919L1458 904L1452 900L1454 893L1455 893L1456 896L1460 892L1461 892L1465 896L1468 892L1468 891L1460 890L1461 880L1471 874L1473 876C1471.28 872.11 1471.24 870.278 1475 868L1473 863C1478.3 862.493 1481.46 864.083 1485 868C1490.18 860.707 1486.62 854.208 1498 856C1500.35 846.058 1510.84 847.982 1507 835C1512.71 832.934 1518.39 834.472 1518 827L1521 830L1526 828L1526 825C1514.13 816.429 1531.42 805.5 1517 799C1520.3 793.742 1511.11 783.499 1505 783.419C1483.2 783.133 1464.08 782.068 1443 789L1439 784L1439 783L1454 782L1452 771L1480 768C1489.66 756.173 1503.21 768.289 1513 758L1516 760L1514 757L1519 760L1520 760C1520.83 749.698 1511.61 747.609 1504 743L1512 740C1511.06 734.892 1508.99 733.114 1504 732L1506 729L1515 730L1532 717.606L1558 716L1551 713L1545 710L1546 707L1538 703L1540 706L1531 700L1540 692L1539 689C1533.23 692.268 1528.08 691.058 1525 685L1528 686L1529 681C1523.31 680.052 1515.64 680.445 1518 673L1519 673L1538 679L1548.61 695.089L1558.21 707.008L1568.07 710.379L1578.01 715.937L1593 712C1596.21 704.583 1598.65 691.887 1595.67 684.222C1592.83 676.952 1586.16 670.462 1582.92 663C1579.34 654.785 1578.96 645.826 1573.92 638C1570.43 632.586 1556.24 622.085 1556.06 616.222C1555.92 611.944 1560.54 615.295 1562 616L1548 599L1551 599L1547 592L1548 584L1555 588L1556 573L1570.42 575.549L1584 584C1586.18 576.929 1587.58 561.398 1584 555L1588 554C1586.27 548.714 1583.33 545.519 1588 541L1584 536C1586.77 530.779 1585.66 525.755 1579 526C1577.27 521.084 1570.52 521.432 1566 520L1568 515L1560 508L1557 504L1557 503L1560 499L1564 500L1560 492L1560 491L1563 490L1563 489L1558 488L1558 487L1571 482.076L1598 488L1595 478.059L1611.7 469.606L1619 456L1619 455L1611 444L1611 439C1618.46 436.09 1624.81 419.146 1617.99 411.623C1615.51 408.89 1611.14 412.741 1608 411L1603 412C1601.36 402.45 1594.68 408.451 1589.03 407.427C1584.48 406.602 1583.15 400.342 1585 397L1578 375C1582.46 374.838 1585.35 376.257 1588 372L1576 368L1580 364L1580 363C1575.61 358.276 1577.93 355.486 1578 350L1573 352L1573 349L1568 351C1568.76 346.09 1571.22 343.346 1576 342L1574 340L1574 339C1583.29 330.227 1599.32 326.659 1612 328L1617 324L1619 319C1617.28 315.744 1617.19 314.01 1621 313L1620 307L1621 307L1622 312L1653 281C1647.4 275.517 1651.17 268.406 1653 262L1651 264L1650 264L1650 259L1645 258L1642 260L1646 256L1644 254L1644 253L1646 250L1645 250L1644 253L1642 253L1642 237L1629 240L1628 240L1616 242L1619 227L1615 230L1612 227L1612 233C1608.04 228.757 1605.92 225.677 1600 228C1599.14 224.004 1593.64 225.367 1590 225L1589 228L1568 232.548L1525 238L1524 235L1515 237L1514 237C1502.08 228.866 1478.43 237.183 1466 240C1467.33 237.499 1470.7 234.967 1471.08 232.133C1471.85 226.446 1456.05 231.33 1453 231L1459 222C1451.71 220.265 1444.94 222.647 1438 225L1439 221L1420 228C1418.47 222.766 1410.74 222.692 1406.13 223.537C1395.91 225.413 1384.3 223.137 1378 233L1380 223L1380.05 209.039L1391 196C1396.23 195.729 1399.35 187.487 1401 183C1406.47 181.907 1404.88 176.237 1407.18 172.17C1410.94 165.501 1417.89 161.347 1421 154L1418 154C1421.97 146.679 1419.87 138.823 1423.64 131C1427.49 123.025 1434.97 117.051 1438.65 109C1440.12 105.778 1438.82 102.351 1439.65 99C1440.93 93.7925 1442.76 90.1389 1439.61 85.0439C1437.03 80.8748 1432.36 80.2084 1429 77L1416 80.8719L1401.99 94.696L1381.3 111.04L1366 134L1367 131L1365 130C1359.79 132.733 1358.24 140.497 1357 146L1356 146L1354 141L1343 148L1344 140L1339 143L1338 140L1335 141L1333 133L1332 135L1331 135L1335 117L1330 116L1329 116C1325.45 119.858 1322.76 121.388 1319 117L1318 117L1315 124L1308 123L1302 128L1299 124C1296.9 127.792 1294.72 130.514 1291 127L1289 144C1282.76 143.165 1278.04 145.436 1275 151L1266 148C1268.71 143.259 1271.19 139.489 1267 135L1271 131C1263.39 131.67 1262.83 135.364 1258 140L1256 129L1247 133L1245 123L1223 122L1213 132L1212 132C1208.61 126.813 1198.69 126.908 1195 132C1191.49 130.053 1189.24 132.083 1186 134L1193 144C1185.44 148.91 1196.84 161.314 1185 160L1187 157L1172 168L1173 163L1158 174C1161.97 166.531 1160.8 161.606 1152 166L1157 150C1152.83 153.137 1149.72 157.272 1145 153L1144 153L1143 159L1140 159L1136 178L1127 174C1131.75 165.512 1138.48 156.41 1134 146L1132 146C1127.31 154.816 1126.19 161.344 1118 168C1119.62 163.934 1122.72 161.085 1120 157C1125.58 156.129 1127.1 152.225 1128 147L1122 153L1121 153L1121 141L1118 143C1118 133.125 1122.56 119.625 1131 114C1132.9 112.736 1136.32 114.119 1138 113C1140.94 111.038 1137.5 109.125 1141 110L1144 104L1140 97L1146 98C1144.66 92.6027 1145.23 89.5311 1151 88L1150 83C1153.28 82.3101 1160.67 77.1685 1156.83 73.1667C1155.27 71.5403 1152.8 72.3535 1151 71L1150 75L1148 75C1145.23 62.0131 1147.09 68.2493 1138 71L1136 76L1136 73L1121 76L1130 49L1125 50L1127 33L1125 38L1120 28L1124 32L1126 19L1119 27L1113 12L1113 11L1108 11L1105 16L1106 7L1102 9L1100 0L1095 0L1088 8L1088 5L1087 5L1077 5L1078 11L1074 4L1069 10L1065 3L1059 4C1059 8.59949 1055.38 1.78894 1055 0L1042 0L1042 5L1041 5L1040 0C1029.82 0 1007.15 -4.17554 999 2L998 2L994 0C994 10.6208 997.232 24.8046 988 32L990 0L985 0L984 6L981 0L976 0L971.523 13.0039L970.976 31.8156L959 45L957 45L958 40L958 39C954.518 36.8264 952.787 36.9176 950 40C951.206 42.4934 950.733 42.8519 948 43L949 48L946 48L947 25L933 40L935 31C927.835 30.7212 929.396 39.0231 927 44C926.435 35.6738 922.867 31.8185 916 27C914.714 31.7198 914.388 35.1224 909 36C909.312 26.3011 900.347 33.1873 896 28L888 29C890.634 22.9314 899.899 18.8022 897 12L896 12L892 16L896 7C892.636 5.23108 891.124 3.87842 891 0C886.141 1.04102 889.3 5.33167 887.278 8.77783C882.312 17.2372 877.829 16.849 879 28L876 27C876.137 29.9155 876.017 31.6305 879 32L879 36C865.97 30.5873 872.283 26.7762 875 17C865.458 19.8152 866.652 23.2062 858 17L858 24L853 21C847.386 21.1506 841.233 18.1387 838 24L830 24L829 21L827 21L826 22L825 28L829 29L826 36C815.491 27.2712 811.134 23.1532 814 9C806.543 12.7357 798.81 14.7948 798 24C793.466 23.8531 792.334 25.6324 792 30L795 29L796 36L784 25L783 25L767 35L770 28L770 27C765.435 27.3446 758.04 30.9558 757.07 36.0541C755.993 41.7178 760.765 45.4382 754 49L754 45L750 46L749 43C745.261 45.1066 745.476 47.9889 745 52L743 52L740 42L734 43L734 39L723 39L723 42C713.581 43.8453 712.329 43.6221 714 54L712 58L711 58L710 49L706 52C701.933 49.0869 698.831 48.3885 696 53L690 52L688 40L685 37L690 38L691.683 23.8302L694 0L643 0L624.742 1.02771L619 16z"/>
<path style="fill:#fcfcfc; stroke:none;" d="M690 38L685 37L688 40L690 52L696 53C699.495 49.1748 701.619 49.64 706 52L710 49L711 58L712 58L714 54L714.527 43.7732L723 39C727.388 41.4438 729.765 41.8142 734 39L734 43L740 42C739.074 46.4524 740.258 48.5068 743 52L745 52L749 43L750 46L754 45L754 49C761.498 46.6315 756.402 41.634 757.282 36.304C758.046 31.6785 765.944 27.6243 770 27L770 28C766.952 29.8245 766.736 31.5253 767 35L783 25L784 25L796 36L795 29L792 30C792.601 25.9647 793.796 24.1361 798 24C799.452 14.3544 807.077 14.1851 814 9C809.948 22.0131 814.941 29.3107 826 36L829 29L825 28L826 22L827 21L829 21L830 24L838 24C842.366 18.7756 847.041 21.8011 853 21L858 24L858 17C865.154 24.6818 866.59 21.0435 875 17C871.034 25.6748 865.923 32.6333 879 36L879 32L876 27L879 28L888 0L755 0L715 0C709.312 0 701.69 -1.33276 696.225 0.317871C687.902 2.83154 692.128 17.2017 691.549 22.9105C690.909 29.2125 686.438 31.3163 690 38M891 0C890.866 4.13416 892.136 5.63171 896 7L892 16L896 12L897 12L888 29L896 28C899.589 33.9618 908.7 26.7291 909 36C914.713 35.5458 915.457 32.1938 916 27C921.815 32.7672 925.891 35.7284 927 44C930.061 39.5204 927.796 31.1482 935 31L933 40L947 25L946 48L949 48L948 43L951 44L950 40C953.109 37.5752 954.451 37.1882 958 39L958 40L957 45L959 45L971.411 31.8156L971.911 13.0039L975.928 1.59949L955 0L891 0M981 0L984 6L985 0L981 0M990 0L988 32C997.809 26.8252 994 9.51929 994 0L990 0M997 0L998 2L999 2L1000 0L997 0M1040 0L1041 5L1042 5L1042 0L1040 0M1055 0C1055.28 2.198 1059.03 8.46375 1059 4L1065 3L1069 10L1074 4C1074.12 7.69141 1074.31 9.77747 1078 11L1077 5L1088 5L1088 8L1089 8L1095 0L1092 0L1092 4L1090 4L1090 0C1084.38 0 1074.32 -2.03931 1071 3C1067.65 -1.64722 1060.22 0 1055 0z"/>
<path style="fill:#040404; stroke:none;" d="M1070 0L1072 3L1072 0L1070 0M1078.67 0.333374L1079.33 0.666626L1078.67 0.333374M1090 0L1090 4L1092 4L1092 0L1090 0z"/>
<path style="fill:#fcfcfc; stroke:none;" d="M1100 0L1102 9L1106 7L1105 16L1108 11L1113 11L1113 12L1119 27L1126 19L1124 32L1120 28L1125 38L1127 33L1125 50L1130 49L1121 76L1136 73L1136 76L1138 71C1148.04 69.3263 1143.28 62.4504 1148 75L1150 75L1151 71C1157.48 75.1387 1157.43 79.0526 1150 83L1151 88C1144.95 88.9468 1144.25 92.6437 1146 98L1140 97L1144 104L1141 110C1126.12 109.911 1118.22 130.015 1118 143L1121 141L1121 153L1122 153L1128 147C1126.64 151.928 1125.09 155.429 1120 157L1118 168C1127.01 163.07 1128.54 154.908 1132 146L1134 146C1137.13 157.824 1130.67 164.041 1127 174L1136 178C1140.17 174.017 1139.56 164.619 1140 159L1143 159L1144 153L1145 153C1148.9 158.386 1153.58 153.562 1157 150L1152 166C1160.98 162.917 1160.99 166.308 1158 174L1173 163L1172 168L1187 157L1185 160C1197.12 162.501 1186.84 149.53 1193 144L1186 134L1195 132C1199.57 127.812 1207.77 127.545 1212 132L1213 132L1223 122L1245 123C1244.68 127.055 1243.39 130.368 1247 133L1256 129L1258 140L1271 131L1267 135C1270.44 139.954 1268.02 142.94 1266 148L1275 151C1278.89 146.157 1282.73 143.85 1289 144L1291 127L1292 130L1299 124L1302 128L1308 123L1315 124L1318 117L1319 117C1321.96 122.35 1326.15 120.388 1329 116L1330 116L1335 117L1331 135L1332 135L1333 133L1335 141L1338 140L1339 143L1344 140L1343 148L1354 141L1356 146L1357 146C1359.17 139.872 1359.77 132.238 1367 131L1366 134L1383.09 110.093L1402.96 94.696L1416 81.537L1429 77C1432.5 81.9191 1438.96 82.123 1440.94 89C1445.33 104.276 1430.25 117.045 1424.12 129C1419.81 137.424 1421 145.508 1418 154L1421 154L1407.18 171.286L1401 183C1398.84 187.044 1395.88 195.279 1391 196L1380.01 208.089L1379.74 223.576L1378 233C1384.64 225.752 1413.19 216.859 1420 228L1439 221L1438 225L1459 222L1453 231C1456.02 231.652 1471.08 226.981 1470.37 232.133C1469.99 234.911 1466.89 237.233 1466 240C1480.65 238.092 1499.39 230.089 1514 237L1515 237L1524 235L1525 238L1562 234.063L1589 228L1590 225L1600 228C1605.84 226.615 1607.62 229.671 1612 233L1612 227L1615 230L1619 227L1616 242L1628 240L1629 240L1642 237L1642 253L1644 253L1645 250L1646 250L1644 253L1644 254L1646 256L1642 260L1645 258L1650 259L1650 264L1651 264L1653 262C1650.82 267.361 1646.92 277.055 1653 281C1642.69 291.368 1629.09 298.712 1622 312L1621 307L1620 307L1621 313L1618 312C1616.67 315.209 1616.58 316.471 1619 319L1617 324L1612 328C1600.49 325.959 1581.32 329.544 1574 339L1574 340L1576 342C1570.65 342.829 1568.4 345.683 1568 351L1573 349L1573 352L1578 350C1577.53 355.176 1574.62 359.173 1580 363L1580 364L1576 368L1588 372L1578 375L1585 397C1582.11 399.756 1584.24 406.42 1588.07 407.843C1593.92 410.016 1599.97 402.298 1603 412L1608 411C1611 414.233 1614.26 409.352 1617.4 411.747C1621.56 414.919 1619.83 432.201 1617.27 435.34C1615.87 437.059 1612.91 437.974 1611 439L1611 444L1619 455L1619 456L1611.7 468.786L1594.19 478.059L1598 488L1580 485.891L1572 481.746L1558 487L1558 488C1560.33 488.42 1563.07 489.364 1560 491L1560 492L1564 500L1560 499L1557 503L1557 504L1560 508L1568 515L1566 520L1579 526C1585.36 526.118 1586.1 530.899 1584 536L1588 541C1582.29 544.606 1585.66 549.191 1588 554L1584 555C1586.98 562.387 1585.54 576.056 1584 584L1556 573L1555 588L1548 584L1547 592L1551 599L1548 599L1562 616L1560 613C1549.96 616.12 1567.07 630.033 1570.4 634.424C1577.55 643.85 1578.71 653.435 1583.07 664C1586.25 671.713 1593.32 678.451 1595.79 686.089C1598.06 693.106 1595.08 704.922 1593 712C1588 712.601 1583.28 716.483 1578.01 715.833C1574.22 715.366 1572.14 712.081 1568.96 710.354C1565.87 708.673 1562.02 708.806 1559.07 706.998C1552.91 703.226 1539.66 686.093 1538 679L1519 673L1518 673C1514.25 680.745 1523.27 680.477 1529 681L1528 686L1525 685C1527.06 691.721 1533.62 692.916 1539 689L1540 692L1531 700L1540 706L1538 703L1541 706L1545 710L1551 713L1558 716C1541.28 717.355 1526.66 716.365 1515 730L1506 729L1504 732C1508.6 733.478 1510.6 735.336 1512 740L1504 743C1510.68 748.746 1520.37 749.607 1520 760L1519 760L1514 757L1516 760L1513 758C1502.7 765.626 1486.61 755.769 1480 768C1471.49 763.977 1460.9 769.628 1452 771L1454 782L1439 783L1439 784L1443 789C1456.75 786.272 1471.34 781.31 1486 781.418C1491.79 781.461 1496.87 784.031 1503 783.769C1509.28 783.5 1520.1 792.904 1517 799C1530.24 807.622 1512.17 818.393 1526 825L1526 828L1521 830L1518 827C1518.05 834.642 1512.58 832.316 1507 835C1510.07 847.911 1499.39 845.822 1498 856C1486.74 853.06 1489.02 859.928 1485 868C1482.16 863.372 1478.26 861.991 1473 863L1475 868C1470.43 869.754 1470.42 872.153 1473 876L1471 874L1461 880L1460 890L1468 891L1468 892L1465 896L1461 892L1460 892L1456 896L1455 893L1454 893L1452 900L1458 904L1449 919L1449 920L1452 924L1434 920L1433 920L1434 926L1428 928L1433 920L1433 918L1428 917L1428 920C1422.77 920.171 1420.6 921.674 1420 927L1417 926L1412 929L1412 934L1406 929C1406.45 939.959 1423.5 952.224 1407 954C1405.51 963.415 1399.24 956.578 1394.61 960.786C1392.22 962.953 1393.66 967.277 1394 970C1386.29 966.197 1366.66 955.555 1363 969C1357.31 966.745 1356.47 967.627 1352 971L1352 967L1350 967L1341 980L1335 969L1328 969L1329 972L1325 973C1322.41 966.524 1320.57 954.083 1312 960L1310 947C1306.24 949.845 1308.4 954.808 1308.43 959C1308.53 974.34 1317.37 984.22 1326 996L1312 996L1314 991L1302 985C1298.14 987.73 1299.47 991.811 1300 996L1285.6 987.366L1272 969C1274.78 981.846 1280.83 1000.04 1293 1006L1291 1012L1292 1017L1289 1013L1288 1013L1285 1017L1284 1021L1284 1017L1281 1013C1284.39 1015.1 1285.75 1013.43 1287 1010L1282 1007C1279.41 1011.25 1277.04 1013.51 1272 1012L1272 1006L1271 1006L1268 1028L1264 1028L1266 1021C1260.58 1019.6 1256.95 1019.03 1252 1022L1256 1027L1254 1032C1257.32 1035.7 1255.22 1038.46 1251 1040C1251.6 1036.38 1251.25 1034.81 1248 1033L1250 1046L1246 1045L1244 1054L1240 1037L1239 1037C1236.04 1047.02 1239.23 1056.41 1242 1066C1229.41 1054.4 1234.53 1040.16 1229.42 1026.29C1225.97 1016.95 1217.07 1006.62 1216 997L1213 997L1221 1020C1216.24 1018.38 1213.13 1015.55 1211 1011L1205 1007L1204 1007L1204 1012C1199.31 1008.54 1194.91 1003.91 1194 998L1193 998L1190 1015L1187 1002L1190 1002L1185 994C1180.29 998.818 1178.55 993.351 1174 991L1177 1000C1161.67 998.928 1177.02 1013.52 1173 1024L1180 1037L1180 1040L1174 1044C1174.89 1031.76 1166.67 1023.68 1160.85 1014C1158.16 1009.52 1158.84 1005.26 1153 1004C1152.99 991.099 1148.1 982.261 1136 977L1132 988L1138 1001L1137 1009L1140 1007C1136.61 1014.01 1144.1 1015.83 1146 1022L1145 1023L1133 1009C1121.49 1014.46 1123.83 997.397 1117 993L1102 1017C1099.69 1006.26 1085.11 1019.88 1082 1023L1082 1024C1087.4 1032.11 1083.89 1039.59 1088.25 1046.98C1094.98 1058.38 1118.79 1065.08 1116 1080L1920 1080L1920 0L1100 0M977 6L980 4L977 6z"/>
<path style="fill:#040404; stroke:none;" d="M832 7L832 8L835 8L832 7z"/>
<path style="fill:#fcfcfc; stroke:none;" d="M1000 7C998.384 10.7223 998.682 14.354 1002 17L1000 7z"/>
<path style="fill:#040404; stroke:none;" d="M1110 7L1110 8L1114 8L1110 7z"/>
<path style="fill:#fcfcfc; stroke:none;" d="M1059 9L1059 12L1062 12L1062 9L1059 9M1083 9L1084 13L1085 13L1085 9L1083 9z"/>
<path style="fill:#040404; stroke:none;" d="M834 11L833 14L838 18L844 13L834 11z"/>
<path style="fill:#fcfcfc; stroke:none;" d="M888.667 11.3334L889.333 11.6666L888.667 11.3334z"/>
<path style="fill:#040404; stroke:none;" d="M850 13L851 18L850 13M1116 15L1117 16L1116 15M864 17L864 19L867 19L867 17L864 17z"/>
<path style="fill:#fcfcfc; stroke:none;" d="M886 17L887 18L886 17z"/>
<path style="fill:#040404; stroke:none;" d="M832 19L833 20L832 19z"/>
<path style="fill:#fcfcfc; stroke:none;" d="M889 19L890 20L889 19z"/>
<path style="fill:#040404; stroke:none;" d="M756 21C754.624 25.4122 752.487 30.17 758 32L761 23L756 21z"/>
<path style="fill:#fcfcfc; stroke:none;" d="M804.667 23.3334L805.333 23.6666L804.667 23.3334M980 23L981 24L980 23M1000 27L998 34L1002 27L1000 27M1112.33 30.6666L1112.67 31.3334L1112.33 30.6666M781 31C782.032 34.1869 782.49 36.0648 786 36L781 31M919 33L919 36C923.379 36.0001 918.899 41.7212 918 44L921 45C923.872 39.8408 923.857 36.7115 919 33M763 34L765 37L763 34M774 36L777 34L774 36M826 36L831 40L826 36z"/>
<path style="fill:#040404; stroke:none;" d="M711 37L709 40L712 41L713 40L711 37M742 37L743 43L744 37L742 37M690.667 39.3334L691.333 39.6666L690.667 39.3334z"/>
<path style="fill:#fcfcfc; stroke:none;" d="M880 41L879 42L882 44L880 41M722 44L724 46L722 44M786 44L786 46L788 46L786 44M725 47L727 52L728 52L725 47M921 49L922 50L921 49M715 62L718 53C713.829 55.2163 713.888 57.6799 715 62M728 53L729 54L728 53M722 55L722 56L725 56L722 55z"/>
<path style="fill:#040404; stroke:none;" d="M600 57L601 58L600 57z"/>
<path style="fill:#fcfcfc; stroke:none;" d="M692 57L692 64L693 64L694 57L692 57M702 57L705 60L702 57z"/>
<path style="fill:#040404; stroke:none;" d="M1149 59L1150 60L1149 59z"/>
<path style="fill:#fcfcfc; stroke:none;" d="M697 62L699 69L704 68L697 62z"/>
<path style="fill:#040404; stroke:none;" d="M1156 65L1158 68L1156 65M1130 68L1125 69L1125 73C1128.05 72.352 1130.5 71.4344 1130 68z"/>
<path style="fill:#fcfcfc; stroke:none;" d="M1142 72L1145 83L1146 83L1142 72M702 73L704 76L702 73M1152 75L1150 78L1152 75M1133 78L1136 81L1133 78M704 79L705 80L704 79M1128 80L1129 81L1128 80M1125 82L1125 84L1127 82L1125 82M601 98L600 100L602 100L601 98z"/>
<path style="fill:#040404; stroke:none;" d="M506.667 107.333L507.333 107.667L506.667 107.333M588 114L590 117L590 114L588 114z"/>
<path style="fill:#fcfcfc; stroke:none;" d="M697 116L691 132L697 130L693 142L694 139L698 140L702 136L699 146L693 145L693 150L696 148L697 160C704.223 159.967 710.124 161.606 714 168L728 173L741 177L745 183L748 178L747 183L753 188L754 188L752 175L760 177C760.617 173.07 758.895 171.529 756 169C765.172 165.728 769.672 176.093 777.945 177.339C786.748 178.664 787.054 160.867 785 156L774.985 162.678L759 155.225L727 142C727.589 136.197 721.161 136.455 717.089 133.826C708.544 128.308 708.233 118.234 697 116M693 119L694 120L693 119M1117 119L1117 120L1120 120L1117 119z"/>
<path style="fill:#040404; stroke:none;" d="M1272 123L1272 129L1273 129L1274 123L1272 123M554 125L554 129L557 128L557 126L554 125z"/>
<path style="fill:#fcfcfc; stroke:none;" d="M594 127L597 132L594 127z"/>
<path style="fill:#040404; stroke:none;" d="M478.667 129.333L479.333 129.667L478.667 129.333z"/>
<path style="fill:#fcfcfc; stroke:none;" d="M590 129L588 132C590.251 131.527 591.118 131.14 590 129M1333.33 141.667L1333.67 142.333L1333.33 141.667M1338.33 143.667L1338.67 144.333L1338.33 143.667M1099 147L1100 148L1099 147M1116 147L1116 151L1117 151L1118 147L1116 147z"/>
<path style="fill:#040404; stroke:none;" d="M1147 147L1148 148L1147 147z"/>
<path style="fill:#fcfcfc; stroke:none;" d="M1419 149L1420 150L1419 149M1197 151L1198 152L1197 151M694 153L695 154L694 153M1120 153L1120 156L1121 156L1120 153M1275 153L1276 154L1275 153z"/>
<path style="fill:#040404; stroke:none;" d="M710.333 158.667L710.667 159.333L710.333 158.667z"/>
<path style="fill:#fcfcfc; stroke:none;" d="M699 165L699 172L700 172L699 165M1108 166L1104 172C1107.65 171.396 1109.98 169.662 1108 166M703 171L704 176L707 175L706 171L703 171M717 171L718 172L717 171M711 174C709.214 176.665 708.203 178.007 711 180L713 175L711 174z"/>
<path style="fill:#040404; stroke:none;" d="M742 175L743 176L742 175z"/>
<path style="fill:#fcfcfc; stroke:none;" d="M1403 175L1404 176L1403 175z"/>
<path style="fill:#040404; stroke:none;" d="M480 176L480 180L483 177L480 176z"/>
<path style="fill:#fcfcfc; stroke:none;" d="M1099.67 179.333L1100.33 179.667L1099.67 179.333M1113 179C1111.98 181.899 1111.77 183.308 1115 184L1113 179M712 180L715 184L712 180M716 185L717 186L716 185M384 187L385 188L384 187M717 187L717 188L720 189L717 187M478.667 191.333L479.333 191.667L478.667 191.333M726 191L726 192L729 192L726 191M728 197L730 200L728 197M479 205L479 212L480 212L479 205z"/>
<path style="fill:#040404; stroke:none;" d="M347 213L348 214L347 213z"/>
<path style="fill:#fcfcfc; stroke:none;" d="M1373 217L1373 220L1374 220L1373 217z"/>
<path style="fill:#040404; stroke:none;" d="M1612 217L1612 220L1615 220L1615 217L1612 217z"/>
<path style="fill:#fcfcfc; stroke:none;" d="M454 221L455 222L454 221M1377 221L1379 225L1377 221M454 223L458 228L454 223z"/>
<path style="fill:#040404; stroke:none;" d="M1608 223L1609 224L1608 223z"/>
<path style="fill:#fcfcfc; stroke:none;" d="M1437 225L1438 226L1437 225z"/>
<path style="fill:#040404; stroke:none;" d="M1534.67 231.333L1535.33 231.667L1534.67 231.333M1622.67 231.333L1623.33 231.667L1622.67 231.333z"/>
<path style="fill:#fcfcfc; stroke:none;" d="M476 232L475 236L478 236L476 232M456 237L458 239L456 237M466.333 238.667L466.667 239.333L466.333 238.667M1636 243L1636 248L1637 248L1636 243M1631 248L1635 245L1631 248z"/>
<path style="fill:#040404; stroke:none;" d="M316 253L316 258L318 258L318 253L316 253z"/>
<path style="fill:#fcfcfc; stroke:none;" d="M326 253L332 256L326 253z"/>
<path style="fill:#040404; stroke:none;" d="M1651 253L1650 256L1651 253z"/>
<path style="fill:#fcfcfc; stroke:none;" d="M336 257L343 264L336 257M325 259L326 260L325 259M1647 263L1648 264L1647 263M1646 269L1645 274L1646 269z"/>
<path style="fill:#040404; stroke:none;" d="M1657 279L1658 280L1657 279M1656.67 287.333L1657.33 287.667L1656.67 287.333z"/>
<path style="fill:#fcfcfc; stroke:none;" d="M338 288L337 292L340 288L338 288z"/>
<path style="fill:#040404; stroke:none;" d="M1646 293L1650 289L1646 293M1652 289L1653 290L1652 289z"/>
<path style="fill:#fcfcfc; stroke:none;" d="M335 291L336 292L335 291M328 295L332 298L328 295M328 305L329 308L330 308L330 305L328 305M1617 307L1618 308L1617 307z"/>
<path style="fill:#040404; stroke:none;" d="M291.333 310.667L291.667 311.333L291.333 310.667z"/>
<path style="fill:#fcfcfc; stroke:none;" d="M303 312L304 313L303 312M1612 320L1613 321L1612 320M305 325C304.556 328.968 305.057 330.793 309 332L308 325L305 325z"/>
<path style="fill:#040404; stroke:none;" d="M292 337L292 341C287.976 341.726 286.789 344.099 286 348C290.875 346.004 293.301 342.163 294 337L292 337z"/>
<path style="fill:#fcfcfc; stroke:none;" d="M1567 351L1568 352L1567 351z"/>
<path style="fill:#040404; stroke:none;" d="M276 353L277 357L278 357L276 353z"/>
<path style="fill:#fcfcfc; stroke:none;" d="M278 389L279 390L278 389M1578 390L1580 393L1581 392L1580 390L1578 390z"/>
<path style="fill:#040404; stroke:none;" d="M1607 407L1608 408L1607 407z"/>
<path style="fill:#fcfcfc; stroke:none;" d="M1601 412L1602 415L1601 412M1592 416L1595 416L1594 414L1592 416M371 425L370 428L371 425M378.667 427.333L379.333 427.667L378.667 427.333M388.667 431.333L389.333 431.667L388.667 431.333M279 437L277 440L279 437M274 439L275 440L274 439M340.667 467.333L341.333 467.667L340.667 467.333M333 470L332 472L334 472L333 470M1553 491L1554 493L1555 493L1556 491L1553 491z"/>
<path style="fill:#040404; stroke:none;" d="M256 493L259 496L256 493z"/>
<path style="fill:#fcfcfc; stroke:none;" d="M277 493L280 497L277 493M282 498L285 504L286 504L282 498z"/>
<path style="fill:#040404; stroke:none;" d="M1566.67 511.333L1567.33 511.667L1566.67 511.333z"/>
<path style="fill:#fcfcfc; stroke:none;" d="M292 555L293 556L292 555M298 556L299 557L298 556M1554 572L1555 573L1554 572M1551.67 577.333L1552.33 577.667L1551.67 577.333M1552 579L1555 581L1552 579M1547 583L1548 584L1547 583z"/>
<path style="fill:#040404; stroke:none;" d="M302.667 591.333L303.333 591.667L302.667 591.333z"/>
<path style="fill:#fcfcfc; stroke:none;" d="M322.667 591.333L323.333 591.667L322.667 591.333M1542 597L1543 600L1544 600L1544 597L1542 597z"/>
<path style="fill:#040404; stroke:none;" d="M269.333 598.667L269.667 599.333L269.333 598.667M272 599L273 600L272 599z"/>
<path style="fill:#fcfcfc; stroke:none;" d="M299 619L300 620L299 619M301 631L302 636L303 636L304 631L301 631M298 637L299 638L298 637M308 639L309 640L308 639z"/>
<path style="fill:#040404; stroke:none;" d="M240 680L241 681L240 680M212.667 699.333L213.333 699.667L212.667 699.333z"/>
<path style="fill:#fcfcfc; stroke:none;" d="M1524.67 699.333L1525.33 699.667L1524.67 699.333M1528.67 699.333L1529.33 699.667L1528.67 699.333z"/>
<path style="fill:#040404; stroke:none;" d="M210 715L211 716L210 715M1577 717L1578 718L1577 717z"/>
<path style="fill:#fcfcfc; stroke:none;" d="M307 721L311 724L310 721L307 721M318 725L317 732L324 732L320 725L318 725M1496 725L1498 728L1496 725z"/>
<path style="fill:#040404; stroke:none;" d="M1522.67 755.333L1523.33 755.667L1522.67 755.333z"/>
<path style="fill:#fcfcfc; stroke:none;" d="M1459.67 759.333L1460.33 759.667L1459.67 759.333z"/>
<path style="fill:#040404; stroke:none;" d="M224.667 767.333L225.333 767.667L224.667 767.333z"/>
<path style="fill:#fcfcfc; stroke:none;" d="M1424.67 771.333L1425.33 771.667L1424.67 771.333z"/>
<path style="fill:#040404; stroke:none;" d="M1528.67 823.333L1529.33 823.667L1528.67 823.333M264 824C263.419 829.134 271.004 829.65 272 825L264 824z"/>
<path style="fill:#fcfcfc; stroke:none;" d="M305 835L306 836L305 835M1501 835L1502 836L1501 835M1505.33 838.667L1505.67 839.333L1505.33 838.667z"/>
<path style="fill:#040404; stroke:none;" d="M1510 841L1510 844C1512.01 842.873 1512.01 842.127 1510 841z"/>
<path style="fill:#fcfcfc; stroke:none;" d="M300 843L301 844L300 843M288 863L289 864L288 863z"/>
<path style="fill:#040404; stroke:none;" d="M1476 867L1477 868L1476 867z"/>
<path style="fill:#fcfcfc; stroke:none;" d="M298 871L299 872L298 871M295 875L296 876L295 875z"/>
<path style="fill:#040404; stroke:none;" d="M1466 877L1467 878L1466 877z"/>
<path style="fill:#fcfcfc; stroke:none;" d="M596 881L600 896C605.9 891.504 600.375 884.379 596 881M338.667 883.333L339.333 883.667L338.667 883.333M327 890L327 892L329 892L329 890L327 890M1439 891L1445 896L1439 891M615.333 895.667L615.667 896.333L615.333 895.667z"/>
<path style="fill:#040404; stroke:none;" d="M1469 895L1470 896L1469 895z"/>
<path style="fill:#fcfcfc; stroke:none;" d="M348 897L348 900L349 900L350 897L348 897M596 897L596 900L597 900L596 897M291.667 903.333L292.333 903.667L291.667 903.333M1450 906L1446 914L1449 914L1452 907L1450 906M290.667 907.333L291.333 907.667L290.667 907.333z"/>
<path style="fill:#040404; stroke:none;" d="M327 913L328 914L327 913z"/>
<path style="fill:#fcfcfc; stroke:none;" d="M1413 915L1414 916L1413 915M1416 915L1416 919L1417 919L1416 915M1412 920L1415 917L1412 920M593 919L593 922L594 922L593 919M1402 924L1405 928L1402 924M587 926L587 932L588 932L587 926M646.333 926.667L646.667 927.333L646.333 926.667z"/>
<path style="fill:#040404; stroke:none;" d="M1420 929L1421 932L1422 932L1420 929z"/>
<path style="fill:#fcfcfc; stroke:none;" d="M348 930L348 932L350 932L348 930M646 933L649 936L648 933L646 933M1301 935L1302 940L1306 937L1303 948L1307 948L1310 944L1306 933L1301 935M346 947L347 948L346 947M664 949L661 951L661 952C663.348 951.706 664.951 951.507 664 949M1266 949L1266 956L1261 955C1262.55 960.696 1266.17 964.055 1272 965L1268 949L1266 949M377 961L376 964L377 961z"/>
<path style="fill:#040404; stroke:none;" d="M325 965L324 968L325 965z"/>
<path style="fill:#fcfcfc; stroke:none;" d="M373 967L374 968L373 967M1327 967L1328 968L1327 967M1283 970L1282 972L1284 972L1283 970M369 971L369 973L371 971L369 971M1131 971L1135 976L1131 971M1239.67 971.333L1240.33 971.667L1239.67 971.333z"/>
<path style="fill:#040404; stroke:none;" d="M1329.67 973.333L1330.33 973.667L1329.67 973.333M1350 973L1350 976L1352 976L1352 973L1350 973z"/>
<path style="fill:#fcfcfc; stroke:none;" d="M702 975L706 976L702 975M389 982C393.682 981.574 396.14 980.422 398 976C393.278 975.628 390.795 977.721 389 982M491 975L492 976L491 975M513 975L514 976L513 975M664 975L657 984C660.975 982.778 664.375 979.353 664 975z"/>
<path style="fill:#040404; stroke:none;" d="M1344 977L1344 982L1348 982L1348 977L1344 977z"/>
<path style="fill:#fcfcfc; stroke:none;" d="M579.333 978.667L579.667 979.333L579.333 978.667z"/>
<path style="fill:#040404; stroke:none;" d="M1352 979L1351 985L1354 984L1352 979z"/>
<path style="fill:#fcfcfc; stroke:none;" d="M1187 981L1187 987L1189 981L1187 981z"/>
<path style="fill:#040404; stroke:none;" d="M1356 981L1357 982L1356 981z"/>
<path style="fill:#fcfcfc; stroke:none;" d="M512.667 983.333L513.333 983.667L512.667 983.333z"/>
<path style="fill:#040404; stroke:none;" d="M352.667 985.333L353.333 985.667L352.667 985.333z"/>
<path style="fill:#fcfcfc; stroke:none;" d="M517 985L518 986L517 985M1205 987L1206 988L1205 987M1187 988L1187 992L1192 992L1191 988L1187 988M652 989L648 996L650 992C652.391 992.012 653.117 991.313 652 989M978 992L981 992L980 990L978 992M1156 990L1156 992L1158 992L1156 990z"/>
<path style="fill:#040404; stroke:none;" d="M502 993L502 996L504 996L504 993L502 993z"/>
<path style="fill:#fcfcfc; stroke:none;" d="M625 993L627 997L627 993L625 993M1274 995L1275 996L1274 995z"/>
<path style="fill:#040404; stroke:none;" d="M1287 995L1288 996L1287 995M1326 997L1329 1000L1326 997z"/>
<path style="fill:#fcfcfc; stroke:none;" d="M979 999L980 1000L979 999M982 999L981 1005L985 1004L984 999L982 999M1167 999L1168 1000L1167 999z"/>
<path style="fill:#040404; stroke:none;" d="M1332 1002L1331 1004L1333 1004L1332 1002z"/>
<path style="fill:#fcfcfc; stroke:none;" d="M1130 1005L1128 1008C1130.25 1007.53 1131.12 1007.14 1130 1005M981 1007L982 1008L981 1007M982 1008L980 1012L976 1011C981.187 1022.88 977.305 1026.12 974 1038L969 1036C968.167 1045.47 964.197 1046.37 956 1048C958.263 1044.01 963.273 1032.56 956 1031L954 1034L953 1025L948 1026L946 1019C943.301 1023.83 947.525 1028.02 947.986 1033C948.65 1040.17 944.183 1045.23 943.641 1052C942.755 1063.08 950.071 1075.7 932 1077L936 1069L937 1072L939 1072L944 1064L937.257 1050L940 1035L939 1035L935 1040C932.396 1035.97 930.076 1032.76 925 1033L924 1029L918 1031L917 1027L916 1027L915.722 1045L911 1056L906 1055L907 1059C894.141 1053.31 914.145 1045.96 906 1037C898.562 1045.33 899.997 1031.76 900 1027L892 1033C894.652 1045.97 885.405 1046.7 881.786 1057.05C880.61 1060.41 882.659 1064.58 883 1068L880 1065L878 1065C876.353 1068.47 871.284 1073.68 873.515 1077.68C875.459 1081.17 881.719 1080 885 1080L918 1080C923.833 1080 938.019 1082.56 942 1078L943 1078C946.508 1082.01 956.94 1080 962 1080L1017 1080L1016 1076L1018 1080L1036 1080L1035 1077L1032 1078C1032.97 1072.01 1037.55 1071.13 1043 1071C1042.13 1068.13 1039.32 1065.86 1038.9 1062.96C1038.23 1058.24 1042.07 1054.28 1037 1051L1039 1047C1034.75 1045.38 1032.92 1046.76 1030 1050L1024 1047L1024 1048C1032.75 1054.37 1030.62 1059.14 1022 1063L1018 1057L1020 1072C1013.67 1073.83 1008.03 1073.26 1003 1069L998 1074C995.264 1062.62 993.08 1056.94 981 1052L1000 1025C995.135 1023.48 996.526 1020.3 997 1016L996 1016L983 1016L982 1008M428 1011L429 1012L428 1011M428.333 1015.67L428.667 1016.33L428.333 1015.67M953 1015L954 1016L953 1015M971 1017L968 1031L968 1032L970 1034L971 1034C974.239 1028.71 974.754 1022.94 973 1017L971 1017z"/>
<path style="fill:#040404; stroke:none;" d="M1132 1017L1134 1019L1134 1017L1132 1017M1273.67 1017.33L1274.33 1017.67L1273.67 1017.33z"/>
<path style="fill:#fcfcfc; stroke:none;" d="M927 1019L927 1020L930 1020L927 1019z"/>
<path style="fill:#040404; stroke:none;" d="M1291 1021L1292 1026L1294 1026L1295 1022L1291 1021M1148 1023L1150 1025L1150 1023L1148 1023M1223 1023L1224 1024L1223 1023M403 1027L404 1028L403 1027z"/>
<path style="fill:#fcfcfc; stroke:none;" d="M928 1027L928 1031L929 1031L928 1027M1237.33 1027.67L1237.67 1028.33L1237.33 1027.67z"/>
<path style="fill:#040404; stroke:none;" d="M1275 1027L1276 1028L1275 1027z"/>
<path style="fill:#fcfcfc; stroke:none;" d="M935 1029L938 1032L935 1029M1076 1031L1076 1035L1079 1031L1076 1031M1237 1032L1238 1033L1237 1032z"/>
<path style="fill:#040404; stroke:none;" d="M423 1036L426 1033L423 1036z"/>
<path style="fill:#fcfcfc; stroke:none;" d="M613.667 1039.33L614.333 1039.67L613.667 1039.33M756 1043L753 1053C759.493 1059.26 759.596 1071.89 757 1080L768 1080L771 1063L768 1062C770.085 1058.33 770.578 1055.95 769 1052L766 1057C761.944 1054.51 762.016 1051.49 762 1047L756 1043M808 1043L809 1044L808 1043M816 1045L817 1046L816 1045M1066 1045L1068 1050L1066 1045M1047 1047C1051.48 1057.56 1049.91 1068.78 1049 1080L1070 1080L1065 1067C1051.44 1069.35 1054.16 1054.62 1050 1046L1047 1047z"/>
<path style="fill:#040404; stroke:none;" d="M576 1051L577 1052L576 1051z"/>
<path style="fill:#fcfcfc; stroke:none;" d="M671.333 1051.67L671.667 1052.33L671.333 1051.67M774 1051L773 1056C776.054 1055.35 775.936 1053.99 776 1051L774 1051M988 1051L989 1052L988 1051M788 1053L788 1056L791 1056L791 1053L788 1053M1020 1053L1021 1054L1020 1053M671 1054L657 1068C650.624 1068.82 646.622 1074.49 644 1080L669 1080L664.876 1068L671 1054M878 1054L876 1062C879.421 1059.98 879.956 1057.46 878 1054M1015.67 1055.33L1016.33 1055.67L1015.67 1055.33M1023 1055L1024 1056L1023 1055z"/>
<path style="fill:#040404; stroke:none;" d="M912 1057L915 1065L914 1057L912 1057z"/>
<path style="fill:#fcfcfc; stroke:none;" d="M642.667 1059.33L643.333 1059.67L642.667 1059.33M770.667 1060.33L771.333 1060.67L770.667 1060.33M813 1060L813 1065L814 1065L813 1060M691 1061L688 1065L693 1061L691 1061M1063 1064L1064 1065L1066 1062L1063 1064M1010.67 1063.33L1011.33 1063.67L1010.67 1063.33M1087 1063L1088 1064L1087 1063M861 1067L861 1068C863.993 1067.94 865.346 1068.05 866 1065L861 1067M672 1080L687 1080L688 1066L684 1068C676.062 1064.01 672.352 1073.24 672 1080M775 1067L776 1068L775 1067M775 1079L775 1080L792 1080C791.114 1076.59 786.475 1066.47 781.495 1069.29C778.45 1071.01 777.719 1076.5 775 1079z"/>
<path style="fill:#040404; stroke:none;" d="M579 1069L577 1072C579.251 1071.53 580.118 1071.14 579 1069z"/>
<path style="fill:#fcfcfc; stroke:none;" d="M1079 1069L1079 1074L1081 1069L1079 1069z"/>
<path style="fill:#040404; stroke:none;" d="M1021.67 1071.33L1022.33 1071.67L1021.67 1071.33z"/>
<path style="fill:#fcfcfc; stroke:none;" d="M1088 1071L1088 1076L1089 1076L1090 1071L1088 1071M1099 1071L1098 1080L1104 1080L1099 1071M773.333 1074.67L773.667 1075.33L773.333 1074.67M862 1074L862 1076L864 1076L864 1074L862 1074M869 1074L868 1076L870 1076L869 1074M696 1075L695 1079L690 1079L690 1080L700 1080L696 1075M704.667 1075.33L705.333 1075.67L704.667 1075.33M794.667 1075.33L795.333 1075.67L794.667 1075.33M1070.67 1075.33L1071.33 1075.67L1070.67 1075.33M1111 1075L1113 1077L1113 1075L1111 1075z"/>
<path style="fill:#040404; stroke:none;" d="M1016 1076L1017 1080L1018 1080L1018 1076L1016 1076z"/>
<path style="fill:#fcfcfc; stroke:none;" d="M828 1077L830 1080L828 1077M860 1078L859 1080L861 1080L860 1078z"/>
<path style="fill:#040404; stroke:none;" d="M942.333 1078.67L942.667 1079.33L942.333 1078.67z"/>
<path style="fill:#fcfcfc; stroke:none;" d="M772.667 1079.33L773.333 1079.67L772.667 1079.33M1076.67 1079.33L1077.33 1079.67L1076.67 1079.33M1089.67 1079.33L1090.33 1079.67L1089.67 1079.33z"/>
</svg>
