<?xml version="1.0" standalone="yes"?>
<svg xmlns="http://www.w3.org/2000/svg" width="1920" height="1080">
<path style="fill:#fefefe; stroke:none;" d="M0 0L0 1080L1920 1080L1920 0L0 0z"/>
<path style="fill:#030303; stroke:none;" d="M635 30C633.188 31.5007 632.978 31.158 632 29C627.167 31.7944 626.607 37.9747 625 43L624 43L624 39L623 39C612.615 64.4512 608.131 92.7104 606 120L601 115L600 115L603 124L595 148L589 143C587.563 149.038 586.999 159.494 593 163L593 164L590 165C588.74 161.645 587.614 158.166 585.806 155.054C576.943 139.797 561.682 165.046 579 171L579 172L572 174L565 163C565.843 169.863 564.789 172.619 558 175L560 195L559 195L552 180C547.491 179.914 546.645 177.094 546 173L545 173L543 178L541 174L537 175C537.166 166.943 538.517 159.354 530 155L533 164L527 157L526 157L526 166L513 157L510 166L509 166L507 164C502.428 173.341 507.777 180.489 508 190L507 190L500 178L495 196L492 195L492 214L491 214L489 207L488 207C484.991 213.77 484.86 218.272 488 225C481.668 220.111 480.308 221.888 479 229L475 227C478.315 232.781 480.641 236.356 476 242C475.189 238.215 472.302 239.342 469 239C468.766 244.102 463.291 246.135 459 248L453 243L454 252L447 241L446 244L432 229L435 248L432 246L433 248L432 248L432 241L431 241L430 245C421.796 235.083 419.916 222.213 404 226L403 223L400 224L398 222L398 225L395 232L401 252L400 252C396.396 245.373 389.241 242.341 382 242L379 233L374 237C374.174 238.651 375.774 241.507 375.333 243C374.441 246.024 370.38 245.945 370 243L369 243C369.137 245.916 369.017 247.63 372 248L368 264L365 260L359 260C358.445 263.813 359.698 265.145 363 267L362 271L358 269L357 271L357 272L371 295L371 296L364 293L362 300L364 305L361 304L359 308L353 306L354 326L349 323C345.244 328.201 332.267 320.432 336 331L330 331C331.096 336.651 331.225 342.452 337 345L337 347L324 347L327 351C320.408 360.473 326.431 365.985 333 371L338 369L339 370L339 372L333 372L324.526 387.54L316 400L325 402L325 404L322 405L323 408L333 405L324 432L330 429C335.528 439.501 352.599 426.172 351 417C361.823 417.001 385.879 424.359 393 433C385.599 430.801 378.982 428.762 372 433L379 442C370.471 446.025 373.918 452.637 376 460L368 461L367 466C355.274 464.135 353.982 470.756 345.906 475.732C342.103 478.076 337.113 477.021 333 479L340 491C343.275 482.969 348.166 494.133 356 495L356 496C350.151 497.99 346.964 501.934 346 508L355 507L354 516L355 520L360 519C351.904 526.614 334.919 519.614 329 532L308 529L327.612 555.464L338 565C331.567 564.47 327.92 562.084 324 557C306.45 565.851 333.294 574.629 337.437 578.588C340.086 581.12 342.386 586.318 344.576 589.439C347.792 594.024 357.918 606.888 346 605L349 612L339 606L338 607L340 614C328.348 607.372 326.498 610.391 316 617L316 619L332 632L317 629L319 638L329 644C325.345 646.135 325.098 648.949 325 653L318 656C316.268 653.331 315.058 653.29 312 654L312 656C320.258 659.855 324.023 662.598 329 670L314 668C313.959 679.722 307.232 674.825 303 682L300 681C298.322 685.079 296.309 686.964 292 688C291.699 684.048 290.882 682.178 287 681L287 687L282 686L281 686C282.433 704.838 308.374 687.422 313 703L306 704L305 704C302.192 700.378 299.668 698.513 295 699L295 700L299 701C298.546 711.18 309.83 713.722 316.074 719.444C319.117 722.232 321.443 726.561 325.104 728.539C329.614 730.977 333.103 728.952 336 734L330 733C320.627 742.297 305.536 725.706 296 725L298 731L292 731L294 734C284.643 731.559 276.773 716.627 267 719L269 724C255.939 723.503 260.964 735.198 269 739L268 756L273 757L259 769L261 776L267 773L271 781C281.796 784.321 279.612 793.227 286.951 801.606C294.041 809.701 307.111 811.603 306 824L326 821C325.462 824.228 321.941 831.764 320 835C316.423 840.961 301.331 845.065 310 852L307 852L313 868C308.182 868.993 306.078 871.672 304 876L325 871C330.739 859.74 344.627 856.676 346.08 872C346.716 878.704 342.159 885.239 342 892L348 885C353.689 885.851 356.816 881.861 359 877L360 877L352 906L353 906L357 897L363 907L364 907L367 905C367.563 913.312 364.094 914.558 359 920L368 921L366 928L369 925C382.993 926.832 381.526 911.258 383 902C396.029 915.745 382.791 924.376 382 939L388 938L388 940L405 929L406 932C401.374 935.045 403.594 944.563 408 947L401 956L416 953C414.895 958.09 413.485 971.837 422 965L422 984L429 979C430.226 984.604 437.052 978.709 440 977C442 982.488 440.693 990.753 446 994L448 983L449 983C449 991.151 447.822 999.879 458 1000C459.125 995.753 460.442 993.853 465 994L465 990L466 990L467 993C479.502 988.914 484.172 972.699 482 961L487 968L490 963L491 963L501 972L504 965L505 965L510 972L514 954L518 956L520 947C521.602 954.405 526.057 961.64 533 965L534 957L535 957L545 971C547.237 950.017 532.176 931.206 532 910L533 910C535.312 922.454 537.307 931.831 543.876 943C545.773 946.226 549.809 952.7 554.022 953.118C557.233 953.436 556.883 948.965 556.466 946.999C555.222 941.136 551.468 935.444 549 930L557 934L558 934C558.282 928.775 560.087 924.509 564 921L565 928L576 932L574 923L575 923L580 928L578 915L588 917L584 909C590.356 907.64 587.025 899.482 586 895L588 898C593.891 893.837 589.27 886.064 587 881L590 882L589 869L591 869L597 876L599 868L601 876L603 877L614 871L626.034 883.133L635 902C641.812 903.569 644.192 911.107 649.09 915.561C653.642 919.699 659.254 921.845 663.996 925.633C670.398 930.747 675.348 937.179 682.004 942.191C692.31 949.953 701.559 944.882 712 947.573C719.637 949.54 724.425 956.637 732 959C729.543 947.905 737.64 950.657 745 952L747.053 940.996L741.664 927.441L762.61 916.009L774 899L773 906C776.157 907.074 780.403 910.021 783.787 908.552C787.954 906.744 791.187 894.293 797.501 900.478C801.361 904.259 799.521 911.354 802 916L796 917L799.253 924.046L790 934C779.688 934.093 772.563 941.588 772 952C775.625 949.796 783.794 939.666 784 950L787 949L784 958L790 954C789.745 964.872 765.762 975.478 757 979.822C749.453 983.563 742.364 985.102 744 996L746 996L747 991L754 993L751 1000L754 1001L751 1008L761 1006L759 1016L756 1020C771.654 1018.4 778.003 1003.44 789 995L783 1012L787 1007L789 1007L791 1011L793 1009L794 1009C796.276 1011.95 800.977 1013.77 802 1009L809 1011L808 1020L821 1004L820 1024L828 1017L830 1011L824.452 1024.96L830 1039L831 1039L834 1037L830 1046C835.944 1043.72 839.711 1044.91 845 1048C844.999 1041.06 841.999 1033.81 848 1029L849 1032L851 1032L858 1030L857 1027C859.581 1026.59 862 1025.81 862 1029L869.394 1016.16L880 1017L881 1024L896 1020C900.52 1015.45 904.91 1015.28 910 1019L911 1019L921 1004L925 1005L927 997L931 999L932 993C936.101 996.218 937.452 998.953 936 1004C945.997 1002.42 944.6 990.668 944 983L948 990C952.819 986.876 950.57 979.149 951 974L955 975L955 976L952 977L956 994L959 992L960 992L964 994L959 984L959 983C971.028 982.605 968.834 963.731 972 955L975 955L976 968C978.127 967.66 981.72 965.334 983.725 966.188C986.829 967.509 986.479 972.882 988.818 975.147C998.439 984.461 1003.93 1002.73 1010 1016L1011 1016L1011 1010L1014 1014L1015 1014L1016 1001L1017 1001C1018.92 1008.97 1018.7 1019.66 1029 1020L1027 1017L1027 1009L1028 1009L1029 1014L1031 1014C1034.53 1008.54 1035.92 1012.76 1040.83 1011.56C1043.32 1010.95 1045.71 1008.23 1048 1007C1048 1015.83 1047.81 1032.24 1059 1034L1061.47 1017L1062 989C1049.3 986.699 1054.96 979.853 1054.48 971C1054.15 964.834 1052.11 960.216 1049 955L1055 955C1054.72 948.558 1050.39 941.793 1056 937L1060 953L1064 951C1067.32 959.333 1075.9 954.842 1081 951L1083 970L1087 967C1092.46 970.263 1091.88 978.126 1092 984L1102.91 981.992L1116 977L1123 955C1132.02 958.469 1136.47 964.242 1139 973L1149 966L1145 967L1131 946L1132 946L1136 950L1138 945L1139 945L1141 952C1149.79 948.359 1156.5 952.382 1154 940L1162 941L1162 944C1165.74 944.088 1170.8 944.299 1172.72 948.214C1175.5 953.9 1169.45 961.406 1178 964L1176 959L1188 945L1194 960L1199 958L1199 957L1196.01 935L1182.95 919.687L1181 904L1190 911C1199.8 909.597 1205.46 911.725 1212.08 920.302C1218.36 928.437 1217.84 938.855 1231 936C1226.74 926.938 1235.3 932.426 1238.42 926.848C1240.53 923.075 1241.38 915.345 1242 911L1247 919L1263 906L1263 901L1273 912C1270.34 902.536 1284.79 881.221 1293 896L1300 893L1304 896L1308 886L1314 900L1318 900L1317 888C1322.42 890.916 1326.71 893.571 1328.42 900C1329.68 904.748 1328.87 915.917 1336.26 916.829C1342.18 917.56 1350.32 906.13 1355 903C1355.07 910.235 1359.35 915.62 1364 921L1365 921L1372 898L1382 905L1383 899L1386 900L1384 871L1393 876L1393 875L1391 874C1395.57 870.901 1398.7 870.573 1404 872L1400 859L1409 859L1415 861L1425 868L1424 863L1432 864L1427 855L1427 853L1428 852L1440 852C1442.42 845.57 1438.46 833.282 1431 832L1432 829L1436 831L1436 829L1453 824L1448 816C1449.88 807.466 1452.85 803.092 1462 800L1462 796L1466 796L1466 795C1462.68 794.146 1458.54 792.711 1455.09 793.343C1452.31 793.852 1450.15 796.589 1447.16 795.633C1442.68 794.206 1438.23 788.176 1434.99 784.961C1422.73 772.805 1413.49 757.366 1408 741L1409 741C1414.56 750.812 1420.34 770.047 1433 772L1429 763L1438 763C1437.45 758.373 1438.36 758.333 1442 760L1440 745L1448 745L1447 750L1448 750L1449 748L1449 752C1454.61 749.354 1458.29 751.678 1464 753C1467.92 746.974 1472.96 749.769 1479 748C1474.45 741.84 1474.18 732.749 1466 732L1466 730C1471.75 729.907 1475.73 731.459 1478 725C1474.36 721.285 1475.72 718.623 1477 714L1467 708L1484 709.3L1505 712L1505 711C1498.18 704.9 1498.02 696.299 1488 694L1490 683C1494.15 685.791 1496.87 688.351 1502 687L1503 680L1496.26 669.586L1489 663L1471 664L1471 663L1486 657L1486 656L1475 651C1479.95 647.392 1474.97 644.973 1472 642L1471 642L1470 642L1468 644L1470 639L1466 638L1472 634C1472.65 631.898 1473.54 630.031 1474.37 627.995C1479.58 615.164 1464.01 621.637 1458 619.397C1454.19 617.975 1452.39 613.991 1449 612L1458 606L1456 604L1456 603L1465.58 602.237L1471.11 611L1485.02 626.153L1514.99 651.836L1539.99 656.873L1555 670L1557 659L1558 659C1567.09 667.248 1567.05 649.074 1564.73 644C1556.21 625.398 1529.2 607.726 1533 585L1530 581L1537 580C1536.12 574.07 1534.11 567.363 1527 570C1527.44 566.219 1529.47 566.025 1533 566L1525 550L1541.27 548.87L1549.85 551.257L1552 547C1563.94 544.803 1560.58 535.453 1553 529L1557 528C1554.11 521.663 1551.46 506.5 1545 504L1541.99 490.961L1546 473L1559 472L1556 468L1556 466C1567.43 463.286 1572.93 469.404 1582 459C1577.76 455.011 1576.33 450.708 1570 450L1570 449L1587 445L1588 441C1581.08 434.988 1577.53 432.174 1581 423L1576 422L1578 419L1564.56 415.348L1560.99 399.594L1557.49 392.036L1564 384L1564 383L1562 377L1553 376C1559.16 365.805 1550.19 359.943 1541 365L1537 343L1536 343L1530 344L1526 349C1523.01 340.951 1525.12 333.35 1515 333C1512.35 338.42 1514.13 344.928 1511.8 349.856C1509.61 354.492 1494.95 360.181 1490 360L1497 352L1497 351L1490 354L1490 345C1472.81 338.873 1497.44 317.218 1501 309L1502 312L1508 306C1499.88 305.674 1491.17 306.524 1493 296L1491 296L1503 278L1493 276L1495 273L1490 272L1492 267L1489 270C1485.95 268.097 1482.79 265.549 1479 265.774C1470.19 266.297 1453.42 276.478 1446 267L1445 267L1441 268L1453 255L1446 254L1450 245L1433 252L1436 240L1425 248L1424 248C1420.86 245.024 1418.59 246.027 1415 248C1416.64 239.551 1417.78 230.118 1406 234L1405 229C1397.62 230.771 1384.18 228.771 1380 236L1372 236L1374 225C1367.78 221.611 1370.9 213.662 1375.15 209.439C1385.51 199.142 1389.81 190.717 1396.17 178C1400.15 170.047 1405.35 164.063 1407.38 155C1408.78 148.721 1404.24 142.568 1404.99 136.001C1405.65 130.345 1410.8 124.364 1413 119L1407 119C1404.03 107.746 1394.15 111.425 1387.44 117.35C1377.17 126.41 1371.22 138.745 1361.59 148.451C1357.64 152.432 1354.96 156.483 1349 157L1348 160L1346 160C1342.99 146.087 1335.35 166.128 1334 167L1334 161L1333 161L1324 172L1323 172L1318 160L1320 149L1316 152L1316 147L1315 147L1314 152L1313 152L1310 144L1309 144C1302.92 147.61 1300.18 149.464 1300 157L1299 157L1298 151C1291.79 154.429 1282.7 161.379 1280 168C1274.91 168.219 1273.42 171.473 1272 176L1270 176L1269 173L1260 176L1260 171L1257 175L1256 175L1252 161L1248 168L1247 168C1245.22 158.438 1245.39 152.018 1235 148L1231 162L1230 162L1223 148C1218.8 150.634 1216.38 154.016 1216 159L1206 156L1207 160L1204 176L1201 175C1198.38 177.959 1196.91 178.879 1193 178C1190.28 186.257 1187.31 186.333 1180 182C1177.08 185.478 1174.37 187.186 1175 192L1168 191C1167.46 196.753 1164.65 204.538 1160 208L1157 197L1160 196L1160 195L1133 220C1135.2 216.357 1150.88 191.698 1137 198L1136 195L1120 208L1118 203L1113 204C1113 199.02 1114.2 190.859 1107 194C1106.03 189.497 1103.16 187.329 1099 190C1095.21 184.114 1087.9 183.024 1085 190L1084 190L1084 182L1080 184L1085 171L1083 171C1086.47 162.065 1091.1 155.7 1087 146L1091 140L1090 140L1081 158L1078 157C1078.08 163.533 1077.3 166.221 1071 169C1071.6 164.921 1070.04 163.649 1066 164L1072 141L1071 141L1071 144L1067 144L1086 113L1078 95L1070 104L1070 97L1063 104L1064 99L1060 100L1056 97L1052 107L1051 107L1044 107C1041.82 91.6195 1043.59 77.3285 1048 63L1045 67L1041 70L1029 67L1023 82C1018.14 81.7189 1015.31 84.4197 1014 89L1012 87L1006 90L1006 82L1004 82L1000 87C1002.35 79.9358 1006.48 70.6287 998 66L992 78L990 78L988 68L987 68C985.391 78.3145 978.712 86.8143 973.143 95.1697C970.452 99.2081 970.065 102.905 966 106L966 101L965 101C960.874 109.191 959.001 116.867 959 126L958 126C956.321 117.398 961.85 103.708 955 97L954 100C948.895 99.1495 947.298 101.757 945 106L944 106L940 97L939 97L936 99L933 91C925.901 95.4969 925.16 108.244 925 116L922 116L924 107L917 105L916 111L911 98L905 100C906.348 92.7371 905.059 84.4342 899.995 78.6073C896.283 74.3358 893.212 81.0607 893 84L885 73L877 80L880 81C877.163 86.6597 877.684 90.2766 880 96L874 97C873.776 90.2471 865.453 81.8 859 80L860 84L852 81L852 86L846 85L847 101L842 98L853 136C847.302 130.796 846.634 113.628 837 118C832.116 104.534 811.812 108.353 801 106L800 116L804 115C803.922 119.131 801.868 120.231 798 121C798.24 124.624 800.719 128.444 800.346 131.952C799.473 140.185 784.688 133.346 780 133L776 136C773.804 129.489 767.831 133.759 763 135L763 131C757.498 132.665 754.805 140.326 760 144L765 143C759.223 153.102 784.827 151.718 787.911 157.005C791.401 162.99 789.495 170.451 790.104 177C791.527 192.307 798.473 210.261 788 224C787.839 216.186 786.929 203.732 780 199C779.526 204.64 780.516 210.81 775 214L775 215L778 215L775 218L777 222L772 226L771 226C771 216.889 769.421 211.083 760 208L759 218L758 218L756 209L754 209L742 224C739.548 221.849 735.025 205.973 733 218L732 218L730 212L729 212L729 217L712 194L710 203L688 181L686 181L685 185L684 185L683 179L680 180L686 160L685 156L684 156L684 159L683 159C683.823 151.166 679.953 145.703 680.167 138C680.331 132.083 684.306 126.138 684.917 120C685.535 113.789 682 109.359 682 103C682 99.531 680.004 82.5916 675 90C670.266 80.3177 663.783 72.1884 664 61L662 61L661 69C656.784 63.0482 660.584 58.5556 661.296 52C662.086 44.7178 661.517 36.3181 661 29L657 29L651 38L648 33C645.133 35.5261 644.238 29.1742 644 27L635 30M664 59L665 60L664 59z"/>
<path style="fill:#fefefe; stroke:none;" d="M1037 68L1038 69L1037 68M996 72L997 73L996 72z"/>
<path style="fill:#030303; stroke:none;" d="M858 78L859 79L858 78z"/>
<path style="fill:#fefefe; stroke:none;" d="M880.333 78.6667L880.667 79.3333L880.333 78.6667M1019 84L1019 87L1021 84L1019 84M1004 93L1004 97L1007 93L1004 93M1036 104L1040 101L1036 104M1044 108L1045 109L1044 108M967 109L966 117L968 117L967 109z"/>
<path style="fill:#030303; stroke:none;" d="M791 131L792 132L791 131z"/>
<path style="fill:#fefefe; stroke:none;" d="M767 143L768 144L767 143z"/>
<path style="fill:#030303; stroke:none;" d="M761 145L762 146L761 145M1068 157L1069 161L1070 161L1070 157L1068 157z"/>
<path style="fill:#fefefe; stroke:none;" d="M1206 161L1207 162L1206 161M526 167L527 168L526 167M1070 169L1071 170L1070 169M1081 171L1072.07 203L1066 219C1075.33 210.479 1074.48 197.298 1076.96 186C1078.16 180.53 1081.9 176.321 1083 171L1081 171M1204 176L1205 177L1204 176z"/>
<path style="fill:#030303; stroke:none;" d="M1090 181L1094 177L1090 181z"/>
<path style="fill:#fefefe; stroke:none;" d="M544 183L544 185L546 183L544 183M681 224L685 222C681.48 215.627 679.088 207.928 682 201L683 201L688 206L689 206L686 186C680.542 188.971 670.328 207.63 672.757 213.942C674.375 218.148 679.216 219.54 681 224M565 187L566 188L565 187M1090 189L1090 192L1092 192L1092 189L1090 189M707 205L708 206L707 205M684 206L684 210L685 210L684 206z"/>
<path style="fill:#030303; stroke:none;" d="M679 215L680 216L679 215z"/>
<path style="fill:#fefefe; stroke:none;" d="M687 215L688 216L687 215M686 223L689 230C689.454 226.481 689.101 224.828 686 223z"/>
<path style="fill:#030303; stroke:none;" d="M371 234L371 240L372 240L371 234z"/>
<path style="fill:#fefefe; stroke:none;" d="M438 249L439 252L440 252L440 249L438 249M436 252L436 256L438 256L438 252L436 252M1431 253L1429 256L1431 253z"/>
<path style="fill:#030303; stroke:none;" d="M356.667 259.333L357.333 259.667L356.667 259.333z"/>
<path style="fill:#fefefe; stroke:none;" d="M375 259L376 260L375 259M1426 259L1427 260L1426 259M363 261L364 262L363 261M784 267L785 268L784 267z"/>
<path style="fill:#030303; stroke:none;" d="M1495 272L1498 272L1497 270L1495 272z"/>
<path style="fill:#fefefe; stroke:none;" d="M469 271L470 274L471 274L469 271M338 331L338 334L339 334L340 331L338 331M1477 339L1477 344L1478 344L1477 339M337 347L338 348L337 347M1475 363L1475 364L1483 364L1475 363M1560.67 382.333L1561.33 382.667L1560.67 382.333z"/>
<path style="fill:#030303; stroke:none;" d="M1584 423L1585 424L1584 423z"/>
<path style="fill:#fefefe; stroke:none;" d="M394 433L400 437L394 433M401 437C404.34 443.649 411.214 451.423 419 452L401 437M380 441L381 442L380 441z"/>
<path style="fill:#030303; stroke:none;" d="M372 453L374 456L372 453z"/>
<path style="fill:#fefefe; stroke:none;" d="M425 457L428 460L428 459L425 457M378 461L379 468L381 468C381.609 464.369 381.15 462.948 378 461M384 461L386 464L384 461M1549 468L1552 466L1549 468z"/>
<path style="fill:#030303; stroke:none;" d="M1560 469L1563 472L1560 469z"/>
<path style="fill:#fefefe; stroke:none;" d="M1544 477L1545 478L1544 477M358 509L358 512L360 512L360 509L358 509M370.667 515.333L371.333 515.667L370.667 515.333M1551 528L1552 529L1551 528z"/>
<path style="fill:#030303; stroke:none;" d="M1552 553L1553 554L1552 553z"/>
<path style="fill:#fefefe; stroke:none;" d="M1526 579L1527 580L1526 579M355 613L358 617L359 616L358 613L355 613z"/>
<path style="fill:#030303; stroke:none;" d="M315 629L316 630L315 629z"/>
<path style="fill:#fefefe; stroke:none;" d="M1455.67 639.333L1456.33 639.667L1455.67 639.333M328 663L329 664L328 663M330 669L334 672L330 669z"/>
<path style="fill:#030303; stroke:none;" d="M1490 689L1490 692L1491 692L1490 689M291 699L291 700L294 700L291 699M304 699L305 700L304 699z"/>
<path style="fill:#fefefe; stroke:none;" d="M1473 719L1474 720L1473 719M1404 731L1407 741L1408 741L1406 731L1404 731M270.667 739.333L271.333 739.667L270.667 739.333M1448 743L1449 744L1448 743M272 763L273 764L272 763M1425 827L1426 828L1425 827M344 859L344 861L346 859L344 859M346 867L347 868L346 867M584 879L585 880L584 879M363 891L364 892L363 891M1371.33 896.667L1371.67 897.333L1371.33 896.667z"/>
<path style="fill:#030303; stroke:none;" d="M1375 900L1376 901L1375 900z"/>
<path style="fill:#fefefe; stroke:none;" d="M726 911L726 912L734 918C734.704 913.887 734.041 910.231 739 910L736 916C743.991 911.168 741.29 899.315 731.224 904.546C728.768 905.821 727.46 908.79 726 911M1168 905L1167 912L1172 912L1170 905L1168 905M1173 907L1174 908L1173 907M1179 913L1178 916L1179 913M390 915L391 916L390 915z"/>
<path style="fill:#030303; stroke:none;" d="M588 919L589 920L588 919z"/>
<path style="fill:#fefefe; stroke:none;" d="M1148.67 935.333L1149.33 935.667L1148.67 935.333M788 948L794 943L788 948M1072 949L1071 952L1074 952L1072 949M513 953L514 954L513 953M950 959L950 960L955 960L950 959M510 959L512 961L512 959L510 959z"/>
<path style="fill:#030303; stroke:none;" d="M532 966L533 967L532 966z"/>
<path style="fill:#fefefe; stroke:none;" d="M1047 972L1050 972L1049 970L1047 972M1092 975L1093 976L1092 975z"/>
<path style="fill:#030303; stroke:none;" d="M1116 978L1116 980L1118 980L1116 978z"/>
<path style="fill:#fefefe; stroke:none;" d="M465 988L466 989L465 988M828 995L829 996L828 995M821 1003L822 1004L821 1003z"/>
<path style="fill:#030303; stroke:none;" d="M790 1012L790 1016L792 1016L792 1012L790 1012z"/>
<path style="fill:#fefefe; stroke:none;" d="M836 1015L834 1021L838 1015L836 1015M840 1040L841 1041L840 1040M840 1042L841 1043L840 1042z"/>
</svg>
