<?xml version="1.0" standalone="yes"?>
<svg xmlns="http://www.w3.org/2000/svg" width="1920" height="1080">
<path style="fill:#fefefe; stroke:none;" d="M0 0L0 1080L1920 1080L1920 0L0 0z"/>
<path style="fill:#030303; stroke:none;" d="M606 144L605 139L599.4 154.816L594 173L593 173L591 169L589 173L581 169L576 182L567 179L564 205L558 204L558 200L556 203L549 199L549 204L548 204C547.201 198.271 545.467 195.774 540 199L535 185L533 193L532 193C528.164 186.063 521.487 184.587 515 181L513 199L507 197C503.799 207.905 498.294 215.335 500 227L494 226C491.137 232.253 494.538 238.539 498 244C495.105 241.643 490.893 233.207 487.055 233.207C482.373 233.207 485.259 243.151 483.243 245.808C480.291 249.699 475.563 245.911 472 245L461 259L461 260L464 264L448 253L457 271L456 271C450.18 261.821 437.365 259.372 428 255L429 258L420 247C410.516 250.23 406.72 250.087 404 261L395 255L384 253L390 279L384 279L388 284L376 277L379 286L376 287L388 304L388 305L394 307L384 312C382.729 316.628 380.505 317.049 376 317L373 321L378 337L361 332L360 332C355.43 334.956 349.956 332.313 353 340L347 337L344 340L349 340L353 345L353 348L345 352C340.727 362.183 355.95 370.918 365 371L363 378C359.586 378.416 360.194 380.611 362 383C361.462 383.108 342.528 383.461 350 392C352.589 394.959 357.945 393.221 357 397L370 404C366.352 404.288 352.61 403.828 352.752 409.096C352.935 415.949 370.835 419.46 376 421.882C396.335 431.415 418.078 446.105 432 464C426.001 463.066 422.831 457.345 419 453L402.576 441.548L387 435C387.71 440.422 390.185 444.367 395 447L395 448L383 445L386 452C377.707 456.572 388.289 462.115 383.536 467.146C375.783 475.353 361.711 462.957 360 480L359 480L358 477L356 477L354 484L360 484L362 492C367.352 492.62 365.69 496.989 362 499C362.554 506.033 371.602 512.127 378 514L378 520C368.53 520.412 354.395 525.18 347 531L346 531L344 529L348 532L353 541L369 538L365 552L345 549L345 567L344 568L340 567L336 571C341.322 578.761 357.801 587.864 358.038 598.015C358.145 602.591 354.77 606.028 353 610L371 622L371 624L352 617L353 622L341 619L343 624L328 623L328 624L342 640C335.749 641.877 333.566 639.529 328 637L327 639L327 640L339 654C335.081 654.792 333.147 656.108 332 660C336.451 661.513 347.04 669.366 340.491 674.566C337.38 677.036 330.823 676.836 327 677C327.719 679.274 330.848 682.441 330.373 684.812C329.633 688.512 323.979 685.642 322 685.053C316.058 683.286 305.181 681.816 303 689C311.074 694.664 324.031 701.868 309 707C313.784 712.907 329.466 713.592 323 723L323 724C328.393 728.788 333.121 728.514 340 729L339 736L333 737C325.664 735.493 307.478 730.566 302 736L305 740L283 735L285.19 758.502L294 764L283 766L279 776L290.043 783.821L304 785C295.234 802.654 311.821 802.882 322 812L319 813L319 816L333 817C331.029 822.912 331.457 831.975 326 835L329 839L329 840C324.49 841.396 316.689 849.393 325 851C328.146 862.383 337.72 851.663 344.576 852.736C347.766 853.235 351.263 857.288 354 859L354 860C347.821 865.146 351.386 872.937 352 880C358.161 876.977 359.324 872.386 367 873L361 886L362 886L363 883L365 887L371 886L372 888C367.796 895.877 371.008 907.659 379 912C381.831 904.53 379.225 898.921 389 897L390 894L391 894L392 899L388 899L390 904C403.022 904.991 393.67 914.836 395.788 921.837C397.517 927.555 403.109 921.96 404 919C409.913 921.402 411.618 923.756 418 921L421 928C416.936 930.005 415.162 932.457 416 937L422 936L423 936L426 935L423 940C431.143 942.472 424.253 948.977 428.579 953.343C430.837 955.623 443.479 955.963 447 956L448 960L450 960L457 945L459 970L470 963L471 959C477.117 964.681 485.906 953.272 491 949L496 957L497 954C505.976 958.216 503 944.293 503 939L507 942C509.253 937.672 509.789 935.141 507 931L508 930C512.211 935.345 521.978 945.352 524 933L536 946C534.134 935.027 528.061 927.523 529.675 916C529.945 914.077 528.818 905.924 532.845 907.346C537.33 908.929 535.549 916.522 536.419 919.996C537.563 924.565 541.542 928.099 544 932L545 932L545 924L549 928L549 909L550 909L557 919L560 911L563 910L564 910L569 917L571 917L572 913L573 913L575 917L578 902L584 905L581 888L584 890L585 890L587 888C581.174 878.088 584.94 873.473 585 863L586 863L592 869L593 865C597.843 866.315 601.686 870.122 606.08 871.25C609.004 872.001 610.977 868.562 613.921 869.056C619.23 869.946 627.555 882.444 630 887L635 885C636.943 890.743 638.634 899.632 646 899C651.356 911.497 661.286 912.127 671 920.222C673.455 922.268 680.567 931.654 682 925L699 926C698.606 913.508 710.816 923.444 716.393 918.971C720.168 915.944 714.545 908.562 717.732 904.133C720.92 899.704 725.702 901.304 729.826 898.973C733.463 896.917 735.659 892.563 739 890L740 894L750 890C752.729 900.004 751.889 902.85 747 912C755.579 911.82 762.728 904.149 764 896L768 899C772.997 891.082 782.392 877.024 790 892L788 889C784.733 892.655 787.718 894.799 792.004 894.183C796.601 893.522 801.928 890.226 806 888L806 905L812 905L795 936L798 942L803 936L806 940L811 939L803.109 948.133L797.351 960.791L783 977L789 980.833L805 977L804 988L819 983L825 986L824 992C832.938 988.121 835.914 984.121 839 975L844 975C843.964 979.783 842.159 986.598 849 985L841 1002L848 998L849 999L846 1004L863 995C857.973 999.978 852.814 1004.64 852 1012L861.25 1003.53L868 1001C874.473 1001.95 878.18 998.462 881.275 992.999C887.996 981.14 893.238 966.773 898 954L899 954C898.424 966.604 891.692 975.41 901 986L906 981L907 981L907 988L911 988L914 975L915 975C915.538 979.163 915.656 983.474 920 985L920 981C926.347 982.391 928.349 981.844 930 975L931 975L932 980C937.155 976.358 934.426 968.396 934 963L941 965L944 968C942.461 959.101 948.141 960.77 953 955L954 966L957 965L959 971L961.306 960.989L968 937C972.862 939.629 988.055 965.272 992 951C1001.44 955.512 994.797 968.778 1004 972L1005 960L1012 976L1012 972L1013 972C1013.1 975.096 1011.15 979.726 1013.03 982.451C1017.3 988.621 1023.1 984.596 1024 979L1025 979L1026 982L1028 982C1031.98 978.41 1035.64 982.82 1040 984C1039.67 978.414 1038.74 972.176 1043 968L1042.88 955.089L1040 942L1062 934L1067 931C1065.93 934.162 1064.3 938.557 1066.19 941.721C1068.59 945.718 1078.99 947.426 1082 944L1083 944L1084 944L1091 950L1102 952L1096.41 939.224L1088 931L1093 932C1090.91 925.712 1094.55 922.583 1097 917C1101.62 922.157 1104.73 932.822 1110 936.083C1113.1 938 1118.86 942.324 1120 937C1125.78 937.087 1130.21 931.167 1132 926C1138.74 928.394 1155.97 935.913 1158 925C1163.23 926.253 1169.27 930.663 1173 925L1176 928C1175.61 911.981 1161.94 921.297 1155.73 911.735C1153.82 908.793 1156.57 902.398 1157 899C1163.92 902.321 1175.85 894.415 1179 888L1193.96 891.458L1210 904L1213.93 890.961L1212 876L1214 876L1220 890L1236 892C1239.94 886.864 1239.81 900.92 1245.61 899.248C1248.54 898.402 1250.27 886.173 1252 883L1253 883L1258 886L1258 876L1263 880L1264 875L1268 880L1269 880L1270 873L1276 876L1276 866L1280 863C1282.05 868.924 1284.77 875.766 1291 878L1292 873L1295 874L1294 869L1297 872L1298 872L1297 865L1299 868L1300 868L1297 857L1309 869L1310 851L1311 851C1313.69 857.965 1314.84 871.263 1323 873L1324 869C1331.08 874.853 1335.52 879.385 1339 888L1344 888L1356 892L1357 873L1369 877L1369 869L1372 868L1372 866C1359.81 855.021 1376.06 849.674 1373 839L1384 844L1384 840C1387.44 839.812 1391.17 840.871 1392 837C1395.93 840.241 1398.2 840.466 1403 839L1404 844L1407 841L1408 841L1411 844L1410 834L1414 836L1408 817L1409 817L1413 820L1413.22 796.83L1407 775C1411.65 781.314 1416.85 786.816 1425 788C1425.93 778.995 1420.7 772.891 1417.14 765C1410.11 749.386 1404.54 732.88 1396 718C1400.31 721.858 1405.87 727.821 1408.43 733.004C1412.39 741.004 1414.18 751.79 1423 756L1421 739L1428 751L1430 751L1431 747L1435 748L1439 737L1436 733L1440 736L1440 733C1445.61 736.394 1450.11 740.903 1457 740L1455 727L1456 727L1457 729L1457 713L1456 703C1460.95 702.791 1470.44 705.219 1474.66 703.382C1480.88 700.673 1475.34 689.675 1471 688L1471 687L1482 684C1477.38 673.111 1465.76 677.477 1461 667C1456.39 666.516 1453.18 662.826 1457 659C1456.13 654.332 1456.08 649.76 1452.47 646.274C1446.85 640.853 1439.3 642.219 1439 633L1430 628L1434 621L1428 620L1439 609L1434 608C1437.25 605.899 1454.62 596.78 1452.82 593.392C1451.55 590.974 1445.42 591.557 1443 591C1446.01 585.866 1450.66 585.088 1456 583C1457.8 588.177 1467.77 602.045 1473 603C1476.09 615.243 1486.44 620.655 1495.96 627.248C1500.78 630.586 1503.83 636.098 1509 638.971C1512.96 641.173 1528.46 642.134 1533 641L1532 638L1547 638L1550 634L1526.22 597L1519 570L1523 569L1522.92 558L1519.18 546.054L1524 540L1537 539L1535 535C1537.89 535.202 1542.23 536.299 1544.29 533.552C1548.54 527.883 1539.73 510.107 1534 508L1534 505L1538 501L1532 497L1537 496L1531 489L1538 486L1533 475L1536 476L1537 469L1534 468C1538.99 463.293 1544.54 465.652 1547 458C1552.42 458.168 1565.91 454.362 1561 447L1571.08 439.845L1559 427L1563 425L1563 423L1543 420L1546 408L1546 407L1537 404L1538 398C1545.93 395.172 1546.03 390.156 1550 384L1550 383L1547 385L1546 385L1542.64 376.619L1524 376C1523.06 363.427 1520.48 367.787 1510 365C1511.49 361.123 1513.96 356.893 1510 354C1510 356.622 1504.54 357.422 1502 358.833C1491.92 364.434 1478.26 364 1467 364L1467 363C1472.89 362.951 1481.78 362.514 1485 357L1479 356L1479 353L1482 352L1472 340L1472 339C1479.85 335.203 1480.72 330.857 1480 323L1472 326L1474 323L1465 311L1475 308L1475 305L1465 294L1450.48 289.968L1448 274C1441.76 276.822 1439.06 273.782 1433 272L1433 269C1435.27 268.221 1439.05 264.656 1435 264L1440 253L1421 266L1420 266L1417 264L1429 252L1429 251L1414 252C1413.81 247.925 1411.81 247.138 1408 248L1409 236L1396 233L1387 236L1386 233L1371 239C1370.66 234.045 1371.18 224.786 1367 222C1372.76 210.687 1381.28 202.023 1387.57 191C1390.67 185.576 1391.39 179.612 1393.9 174C1396.39 168.458 1403.21 158.677 1396 154L1396 138L1392 139C1388.64 118.253 1379.58 134.607 1372.9 143.907C1368.74 149.681 1362.88 153.191 1360 160C1354.03 159.491 1347.39 165.31 1346 171L1332 169L1331 169C1323.01 176.89 1313.93 178.129 1313 164L1309 165L1305 157L1304 157L1300 164L1297 162L1296 162L1286 174L1280 174L1280 179L1279 179L1278 174L1273 181L1268 177L1258 184L1257 184L1254 177L1253 177L1254 184C1247.97 178.203 1238.56 158.308 1230 168L1229 168C1223.09 157.941 1219.79 162.457 1221 172L1219 173L1215 175L1213 170C1208.62 175.952 1210.13 181.339 1212 188L1199 191L1196 198C1194.02 194.781 1188.5 189.478 1185 193L1183 192L1182 193C1181.91 197.55 1176.8 198.201 1176.62 202.188C1176.44 205.98 1181.96 210.43 1180.41 214.131C1179.32 216.715 1175.41 215.705 1173.47 217.077C1169.67 219.764 1173.59 225.093 1175 228C1164.25 228.128 1171.63 234.929 1165 240L1164 236C1153.77 234.388 1150.41 230.983 1147 244L1146 244L1142 233L1139 233L1136 244L1133 244L1140 226C1132.95 227.476 1128.15 232.651 1125 239L1123 239C1122.42 235.892 1126.13 223.637 1121.69 222.921C1115.32 221.895 1115.82 234.833 1109 229L1101 240L1105 204C1102.13 207.116 1100.17 207.641 1096 207L1092 224L1091 224L1091 207L1084 218L1083 208L1076 218L1077 211L1076 211L1066 231L1065 230L1068 223L1061 228L1070 199C1060.34 201.659 1052.47 210.912 1046 218L1057 180L1053 180L1052 176L1044 186L1043 186C1043.69 182.052 1042.51 178.836 1042.71 175C1043.05 168.707 1049.93 158.552 1039 160L1044 135L1040 136L1039 130L1033 138L1033 131L1030 132C1029.98 125.773 1029.52 114.591 1024 111L1024 113C1014.55 111.058 1014.53 123.49 1005 123L1001 139L1000 139L999 128L990 131C991.153 125.661 989.724 112.899 984 111L980 130L978 130L976 124L975 124C969.155 136.938 964.193 149.704 966 164C958.609 164.381 958.646 158.69 956 153L954 153L952 158L947 155L940 164L939 164C938.991 160.838 938.612 142.263 931.512 146.832C928.644 148.678 927.976 154.947 927 158L922 154L920 160L919 160L921 150L915 153L917 147L912 149L905 144L905 136L901 138L906 132L899 121L896 124C895.571 119.27 894.359 116.179 890 114L888 132L881 134L876 119C873.123 130.94 866.688 143.513 868 156L859 150L857 166L853 163L851 163L847 167L849 172L841 167L838 178L837 178L833 172L830 200L826 197C826 203.849 827.971 213.694 823 219L824 215C817.867 209.166 812.943 191.456 812 183L808 187L799 180C801.056 197.552 799.822 216.593 793 233L787 231L783 239L781 239L778 234L777 234L771 249L770 249C770.087 243.044 768.458 235.12 762 233L761 236L757 236L758 226L748 233L749 223L736 235L736 226L725.108 231.823L717.671 221.167L707 219L704 226L707 225L705 235L702 234L700 238L699 238L696 234L696 237C691.153 238.222 688.755 238.716 688 244L684 239L680 244L679 244L668.922 234.723L670.333 228L668.765 215.286L674 197C676.301 194.973 675.26 193.617 673 192C683.389 174.115 674.748 155.588 673.698 137C673.011 124.831 678.048 107.185 665 99L664 111L663 111L653 80L650 81L649 73L648 73L645 83L641 77L637 78L634 65C630.484 66.2271 625.791 66.9156 623.058 69.5756C614.33 78.071 619.524 94.4139 617.776 105C616.62 112.001 611.518 117.873 610.326 125C609.252 131.412 610.54 138.78 606 144z"/>
<path style="fill:#fefefe; stroke:none;" d="M903 131L904 132L903 131M1029 133L1030 134L1029 133M893 135L894 136L893 135M972 145L971 148L972 145M1027.33 150.667L1027.67 151.333L1027.33 150.667z"/>
<path style="fill:#030303; stroke:none;" d="M1044 155L1045 156L1044 155M592 159L593 160L592 159z"/>
<path style="fill:#fefefe; stroke:none;" d="M921 169L921 172L924 172L924 169L921 169M1258 184L1259 192L1260 192L1258 184M1076 219L1076 224L1076 219M711 221L712 222L711 221M820 222L819 229L820 229L822 222L820 222M712 223L712 227L713 227L712 223M1090 229C1089.43 231.396 1089.52 231.487 1092 232L1090 229z"/>
<path style="fill:#030303; stroke:none;" d="M1165.33 229.667L1165.67 230.333L1165.33 229.667M1162 230L1162 232L1164 232L1164 230L1162 230z"/>
<path style="fill:#fefefe; stroke:none;" d="M747 234L748 235L747 234M704 236L704 240L706 240L706 236L704 236M1105 241L1106 242L1105 241M680 245L679 253L680 253L681 251L685 253C686.007 248.47 684.259 246.497 680 245z"/>
<path style="fill:#030303; stroke:none;" d="M444 247L445 248L444 247z"/>
<path style="fill:#fefefe; stroke:none;" d="M788 253L779 275C784.861 271.291 792.968 259.831 788 253M466 256L468 258L466 256M429 259L430 260L429 259M432 263L433 264L432 263M465 265L473 277L468 265L465 265M1415 265L1409 267L1409 268C1411.54 267.99 1416.36 268.598 1415 265M435 266L435 268L437 268L435 266M486.333 266.667L486.667 267.333L486.333 266.667M392 272L394 276L392 272z"/>
<path style="fill:#030303; stroke:none;" d="M373.667 275.333L374.333 275.667L373.667 275.333z"/>
<path style="fill:#fefefe; stroke:none;" d="M475 279L476 280L475 279M388 335L389 336L388 335M378 337L379 338L378 337M382 340L382 342L384 342L382 340M1458 363L1459 364L1458 363M1505 368L1510 365L1505 368M1536 399L1537 400L1536 399M375 405L376 406L375 405z"/>
<path style="fill:#030303; stroke:none;" d="M350 407L351 408L350 407M348 416L352 412L348 416z"/>
<path style="fill:#fefefe; stroke:none;" d="M441.667 471.333L442.333 471.667L441.667 471.333M1525 471L1525 472L1531 476L1530 471L1525 471M362 487L363 488L362 487M403 559L401 564L403 559M406 559L407 560L406 559M391 566L391 568L393 568L391 566M340 569L341 570L340 569M1457 671L1458 672L1457 671M1394 707L1395 708L1394 707M1428 723L1429 724L1428 723M1439 731L1440 732L1439 731M288 747L289 748L288 747M286 775L287 776L286 775M689 843L685 843C688.589 856.876 688.669 872.28 697.265 884C699.071 886.461 701.822 892.595 705.191 893.079C707.701 893.439 709.295 890.834 710.316 888.981C713.562 883.088 721.377 872.386 722.211 866C723.47 856.373 710.452 859.47 708.904 853.771C707.679 849.261 712.314 844.396 712.867 840C714.064 830.485 710.144 826.695 706 819C701.959 820.152 695.001 820.326 691.634 822.357C685.703 825.935 688.409 837.317 689 843M1382 835L1382 837L1384 835L1382 835M328.667 837.333L329.333 837.667L328.667 837.333M724 863L725 864L724 863M1290 871L1291 872L1290 871M1209 875L1209 878L1210 878L1209 875M1208 879L1209 880L1208 879M633 884L634 885L633 884M372 887L373 888L372 887M579 887L580 888L579 887M806 887L807 888L806 887z"/>
<path style="fill:#030303; stroke:none;" d="M1212.67 898.333L1213.33 898.667L1212.67 898.333z"/>
<path style="fill:#fefefe; stroke:none;" d="M814.333 899.667L814.667 900.333L814.333 899.667M1206 901L1207 902L1206 901M558 911L559 912L558 911M525 914L528 920L525 914M1152.67 923.333L1153.33 923.667L1152.67 923.333M503 927L504 928L503 927z"/>
<path style="fill:#030303; stroke:none;" d="M1160 929L1161 930L1160 929z"/>
<path style="fill:#fefefe; stroke:none;" d="M1112 931L1116 933L1115 930L1112 931z"/>
<path style="fill:#030303; stroke:none;" d="M1159 931L1159 932L1162 932L1159 931z"/>
<path style="fill:#fefefe; stroke:none;" d="M955.333 946.667L955.667 947.333L955.333 946.667M1021.67 971.333L1022.33 971.667L1021.67 971.333M812 974L806 975L806 976L812 974M790 975L790 976L793 976L790 975M824 975L825 976L824 975M823 977L824 978L823 977M821.667 979.333L822.333 979.667L821.667 979.333M850 982L849 985L850 982z"/>
</svg>
