<?xml version="1.0" standalone="yes"?>
<svg xmlns="http://www.w3.org/2000/svg" width="1920" height="1080">
<path style="fill:#fcfcfc; stroke:none;" d="M0 0L0 1080L494 1080L608 1080C623.39 1080 643.125 1085.39 644 1065L623 1069L622 1072L620 1072L619 1071L619 1069C624.847 1064.78 621.9 1053.82 627.147 1048.09C631.668 1043.15 637.779 1040.07 642.576 1035.48C648.44 1029.87 652.809 1022.89 658.831 1017.33C667.604 1009.22 675.961 1006.67 676 993L691 984L696 977C677.774 982.251 671.493 997.672 658.626 1009.51C649.796 1017.63 641.179 1027.98 630.985 1034.58C624.034 1039.08 615.382 1041.56 608 1045.37C601.507 1048.73 593.886 1054.13 587 1056L590 1051C586.696 1050.12 584.92 1050.04 583 1053L586 1056L580 1053L574 1056C574.918 1047.85 582.853 1046.54 589 1042.79C601.229 1035.31 610.684 1019.89 625 1016C624.836 1009.2 617.685 1002.53 619.577 996.004C621.285 990.116 627.303 988.499 631.961 985.652C638.303 981.776 644.804 976.437 649.452 970.625C652.522 966.786 651.635 961.412 657 960L655 958L655 949L661 948C655.193 942.099 647.074 949.341 646 956L640 958L639 951L640 951L641 953L645 943L642 946L637 944L631 949C629.633 940.67 640.492 937.038 643.796 930C646.134 925.02 642.662 918.756 641 914L640 914L642 924C634.948 916.454 635.61 897.414 623 897C619.738 903.186 612.61 902.547 613 895L596 907L600 920L596 917L594 934L585 945L584 942L583 942L589 972L586 969L582 970L577 959L576 959L581 997L577 998L576 998L568 985C563.122 986.967 564.415 990.762 566 995L563 995C566.373 1009.61 557.721 1015.63 553 999L550 1000L550 996L549 996L543 1008L542.933 996.434L529 987L527 988L523 983L523 988L513 990L513 988L511 988L507 997L506 997C506.556 985.081 499.466 992.893 498 1000L495 999L495 1006L492 1005L491 989L490 989C488.821 995.992 488.133 1001.22 491 1008L486 1008L488 1016C497.625 1017.06 507.85 1046.37 495 1049L496 1057L490 1053L489 1062L478 1053L474 1056C470.808 1049.36 466.689 1045.98 468 1038L465 1036L462 1043L454 1033L446 1048L445 1048L442 1031L441 1031L439 1042L437 1042L432 1039L428 1044L423 1033L428 1032L421 1028L426 1015L420 1019C419.98 1014.76 421.791 1010.77 418 1008L416 1014L415 1014L412 1006L411 1006L403 1023L397 1024L396 1024L398 993L397 993C394.854 995.495 389.75 1001.8 386.109 1001.22C379.482 1000.16 385.096 989.33 389 988L388 982C379.338 983.37 374.793 990.639 371 998L370 998L371 985C365.521 986.446 365.315 980.204 364 976L354 984L357 981L358 978L355 975L354 975L354 980L353 980L346 967C339.618 970.318 335.771 969.654 329 968L330 965L327 964L345 949L340 950C343.892 939.608 345.43 933.005 342 923L325 933L336 915L340 916L344 914L346 903C340.441 903.404 332.522 907.725 329 912L328 912L339 889L334 889L333 896L329 897L320 894C324.313 888.213 323.057 879.431 314.375 885.139C311.345 887.131 305.338 891.141 303.438 894.147C300.554 898.712 300.38 905.847 296.568 909.677C291.91 914.359 288.09 908.175 287 904C282.471 903.391 286.437 900.464 289 900L289 899L284 897L278 900L290 879L280 881C277.636 874.211 278.9 870.76 286 875L287 871L296 868L292 863L287 868L284 861L282 861L278 864C276.424 858.96 276.487 844.959 283.72 843.26C291.921 841.334 303.001 848.927 301 833L300 833C294.941 838.145 285.347 836.343 281 831L288 828L287 825L290 824L272 825L272 828L263 828L263 823L282 820L282 809L268 809L267 812L266 812L265 805L273 806L278 800C274.341 796.619 260.67 795.177 258 800L246 794L245 794C235.441 797.158 225.14 787.189 217 784L224 780L224 779L216 780L216 779L222 776L228 775L230 771L224 765L228 767L227 760L227 759L237 756L238 751L228 748L228 747C236.056 745.106 240.092 742.389 244 735C233.568 737.27 231.077 745.192 223 734C211.504 735.309 205.303 727.335 194 734C195.134 728.783 194.728 725.209 189 724L205 719L210 713.833L217 713C217.88 708.648 216.84 706.581 221 704C218.104 699.543 213.903 700.003 209 700L209 699C215.149 697.671 217.775 690.6 211 688C212.565 682.938 213.259 679.762 209 676L209 675C220.68 670.026 228.583 679.455 240 681L229.039 673.134L212 660L209 649C218.217 655.091 229.648 666.112 241 664C245.039 657.286 251.33 665.377 256 667.62C262.284 670.638 267.645 670.239 274 668L267 664L270 660L269 657L270 656L286 666L288 661L291 662L291 661L292 658L293 658L295 645L288 644L291 640L286 636L286 633L292 636L293 636L294 633L300 636C296.338 628.146 290.785 620.837 282 620C283.861 616.124 285.903 615.955 290 616L271 598L289 600L290 597L300 600L297 596L300 591L303 597L303 589L304 589L304 592C310.567 591.435 318.272 596.536 319 587C307.512 586.098 312.504 579.289 309.507 572C304.608 560.084 296.467 556.331 284 560L285 553L283 553C280.337 555.911 278.167 556.683 276 553L288 543C282.161 539.06 275.353 536.008 277 528L281 530C282.634 517.953 262.454 501.509 255 493L261 492L262 496L263 496L264 493L258 487C264.648 485.307 270.47 487.038 275 492L287 488L286 483L304 485C309.556 474.545 326.823 478.756 330 469L327 470L327 466C332.254 465.415 337.151 462.488 340 458C346.365 458.369 349.7 452.663 351 447L356 448L357 437L352 438L365 426L368 428C365.159 422.646 360.382 417.316 354 419C356.835 427.841 348.702 429.547 343.285 434.325C331.357 444.846 319.944 448.64 306 454.729C296.856 458.722 289.515 466.393 286 453L275 456C271.563 450.402 265.329 449.555 268 442L262 441L266 430L267 430L268 430L270 432L271 427L261 429L261 425L264 426L272.953 407.353L282 399L276 395L275 395C273.043 398.764 271.016 398.763 267 399L268 391L274 392L279 374L280 374L280 376L281 376L275 353C280.786 357.443 289.719 367.077 296 357C290.579 355.011 289.652 351.713 293 347L286 348L288 339L289 338L294 337L292 345L294 345L296 325L297 325L302 332L299.142 316.095L291 309L297 308C297.559 313.049 303.183 310.676 307 310L310 320C316.385 317.897 319.76 309.263 319 303C328.957 301.886 326.359 291.67 327 284L335 289L334 281L336 284L340 284C339.363 269.38 323.968 270.606 321 257L316 259L315 254L319 255L320 255L324 252L322 250L323 247L307.591 241.852L311 227C316.754 225.915 322.899 225.766 324 219L325 219L328 222L329 217L331 219L332 219C334.371 210.128 338.663 213.193 345 216L346 211L348 212L349 207L350 207L352 211L352 203L356 204L354 194C359.516 189.294 366.681 184.282 374 186C379.618 180.233 389.172 185.614 393 191L397 189L403 198L404 192L407 196L409 196L408 184C411.713 183.836 412.782 182.444 414 179L423.213 190.545L432.513 201L433.514 210.996L442 222C447.242 220.287 449.683 218.723 450 213C455.621 216.4 461.423 219.716 464 226L466 226C467.919 220.132 462.334 215.495 458 212L458 211L460 203L468 210L468 205L475 209L472 199L474 202L475 202L472 187L473 187L474 190C478.214 185.611 475.357 179.283 472 175L475 174L480 178L479 175L481 181C487.58 175.815 471.832 167.097 475 159C470.735 154.971 470.048 150.695 470 145L476 149L477 142L481 144L478 129L484 129L484 137L486 135L490 140C496.826 135.471 493.607 123.948 494 117L498 124L504 124L506 117L503 120C501.892 115.43 502.801 112.104 508 112L509 109L510 109L513 114L524 106L524 105L520 92L522 92C522.966 97.5632 527.358 97.0092 532 96L532 90L534 90L541 128L542 128L542 115L544 115L551 135L555 129L554 125L558 127L557 132L560 129L560 136L563 135L564 123L568 124L568 120C573.207 125.538 565.825 133.792 574 137L582 113L591 121L593 126C592.124 112.573 583.578 93.8574 594 83C593.52 86.9597 591.404 90.2983 595 93L595 89L599 96L600 96C600.048 78.5253 599.278 59.9634 603.928 43C607.184 31.123 615.99 24.1628 616 11L620 13L623 0L0 0z"/>
<path style="fill:#040404; stroke:none;" d="M623 0L620 13L616 11C615.957 23.6218 607.056 30.5896 603.928 42C599.155 59.412 600.012 78.0067 600 96L599 96L595 89L595 93L592 92L594 83C582.715 90.7831 591.669 114.743 593 126L591 121L582 113L574 137C566.421 132.447 574.422 124.632 568 120L568 124L564 123L560 136L560 129L557 132L558 127L554 125L555 129L551 135L544 115L542 115L542 128L541 128L536.3 109L534 90L532 90L532 96C527.384 96.5249 523.614 97.0961 522 92L520 92C520.014 97.1443 520.047 101.347 524 105L524 106C519.264 107.863 514.642 108.677 513 114L510 109L509 109L508 112C502.314 111.791 501.067 115.052 503 120L506 117L504 124L498 124L494 117C492.764 124.791 496.244 133.72 490 140C488.915 136.357 487.547 135.459 484 137L484 129L478 129L481 144L477 142L476 149L470 145C470.015 150.53 469.965 155.761 475 159C470.132 168.329 487.051 174.246 481 181C482.093 177.809 481.953 176.714 479 175L480 178L475 174L472 175C474.984 180.022 477.146 184.663 474 190L473 187L472 187L475 202L474 202L472 199L475 209L468 205L468 210L460 203L458 211L458 212C461.492 215.997 467.366 220.323 466 226L464 226C462.189 219.361 456.103 215.534 450 213C449.389 218.423 446.701 219.836 442 222C439.811 217.957 435.589 215.271 433.859 210.996C432.551 207.766 433.948 204.378 432.937 201.17C431.298 195.973 418.972 180.211 414 179L408 184L409 196L407 196L404 192L403 198L397 189L393 191C390.184 185.538 378.036 178.931 374 186C367.036 183.945 358.541 188.541 354 194L356 204L352 203L352 211L350 207L349 207L348 212L346 211L345 216C338.996 212.116 333.456 210.047 332 219L331 219L329 217L328 222L325 219L324 219C322.143 225.272 316.626 225.61 311 227C312.097 232.96 306.042 236.784 306.907 241.852C307.639 246.146 319.487 246.468 323 247L324 252L320 255L319 255L315 254L316 259L321 257C322.932 270.978 338.823 269.608 340 284L334 281L335 289L327 284C325.71 291.785 328.876 301.077 319 303C319.007 309.51 315.903 316.82 310 320L307 310C303.645 310.315 297.597 312.257 297 308L291 309L299.361 317L302 332L297 325L296 325L294 345L292 345L294 337L289 338L288 339L286 348L293 347C288.944 351.313 290.187 355.709 296 357C287.604 365.886 282.399 356.774 275 353L281 376L280 376L280 374L279 374L274 392L268 391L267 399C271.259 399.325 273.615 399.557 275 395L276 395C277.075 398.521 278.339 399.32 282 399L272.924 406.614L264 426L261 425L261 429L271 427L270 432L268 430L267 430L266 430L262 441L268 442C264.334 449.198 270.69 451.218 275 456L286 453C288.797 467.355 297.738 458.759 306.985 454.74C320.356 448.929 331.945 445.512 343.285 435.144C348.556 430.326 358.23 427.782 354 419C360.347 417.965 364.325 423.388 368 428L365 426C359.901 429.59 354.173 431.755 352 438L357 437L356 448L351 447C348.997 452.46 346.058 457.093 340 458L327 466L327 470L330 469C324.624 478.935 307.946 472.665 304 485L286 483L287 488C282.217 486.894 278.557 488.784 275 492C271.183 486.251 264.47 484.777 258 487L264 493L263 496L262 496L261 492L255 493C261.594 504.304 281.101 516.133 281 530L277 528C274.712 536.062 281.464 539.908 288 543L276 553C277.507 557.495 280.857 556.658 283 553L285 553L284 560C290.741 558.588 300.507 557.685 304.951 564.108C310.293 571.829 306.729 588.261 319 587C317.838 594.377 308.007 594.172 304 589L303 589L303 597L300 591L297 596L300 600L290 597L289 600L271 598L290 616C285.838 615.806 283.343 615.674 282 620C291.074 621.618 294.814 628.629 300 636L294 633L293 636L292 636L286 633L286 636L291 640L288 644L295 645L293 658L292 658L291 656L291 661L291 662L288 661L286 666L270 656L269 657L270 660L267 664L274 668C261.057 670.294 258.574 665.586 247 661.259C243.841 660.078 241.879 661.008 241 664C228.402 664.357 220.022 653.911 209 649L212 660L227.17 672.441L240 681C229.142 678.729 220.082 668.995 209 675L209 676C212.437 680.366 212.022 682.794 211 688C216.728 691.434 214.701 696.924 209 699L209 700C214.036 700.014 217.399 700.227 221 704C216.47 706.025 217.255 708.538 217 713L215 711L201.985 719.622L189 724C194.208 725.842 194.619 728.876 194 734L205.83 730.573L223 734C229.156 746.315 234.675 738.215 244 735C238.926 741.772 235.967 744.148 228 747L228 748L238 751L237 756L227 759L227 760L228 767L224 765L230 771L228 775C225.259 773.165 223.823 773.174 222 776L216 779L216 780L224 779L224 780L217 784C223.528 787.744 237.057 798.208 245 794L246 794L258 800C261.719 795.687 273.12 797.684 278 800C274.205 800.827 273.304 802.171 273 806L265 805L266 812L267 812L268 809L282 809L282 820L263 823L263 828L272 828L272 825L290 824L287 825L288 828L281 831C284.169 836.886 296.11 838.964 300 833L301 833C300.52 849.351 292.655 840.466 283.303 843.068C276.232 845.035 275.811 858.866 278 864L282 861L284 861L287 868L292 863L296 868L287 871L286 875C278.973 869.135 276.576 874.115 280 881L290 879L278 900L284 897L289 899L289 900C286.035 900.357 282.255 903.417 287 904C287.696 908.749 292.487 915.343 297.262 909.682C301.476 904.685 300.445 896.05 306.21 891.969C313.155 887.052 328.09 878.653 320 894L329 897L333 896L334 889L339 889L328 912L329 912L346 903L344 914C341.289 913.423 340.605 913.232 340 916L336 915L325 933L342 923L345.138 931.089L340 950L345 949L327 964L330 965L329 968C335.693 970.346 339.942 971.254 346 967L353 980L354 980L354 975L355 975L358 978L357 981L354 984C359.576 984.208 360.914 979.975 364 976C364.911 980.437 365.418 987.004 371 985L370 998L371 998C376.061 991.254 379.299 984.247 388 982L389 988C379.95 989.937 381.253 1008.72 393.227 997.455C394.81 995.966 395.927 994.861 397 993L398 993L396 1024L397 1024L403 1023L411 1006L412 1006L415 1014L416 1014L418 1008L420 1019L426 1015L421 1028L428 1032L423 1033L428 1044L432 1039L437 1042L439 1042L441 1031L442 1031L445 1048L446 1048L454 1033L462 1043L465 1036L468 1038C466.223 1045.73 469.737 1049.98 474 1056L478 1053L489 1062L490 1053L496 1057L495 1049C507.871 1047.73 498.359 1016.45 488 1016L486 1008L491 1008L490 989L491 989C491.332 993.937 489.353 1003.75 495 1006L495 999L498 1000C499.89 994.014 506.124 985.735 506 997L507 997L511 988L513 990L523 988L523 983L527 988L529 987C531.45 997.155 537.632 990.44 542.307 996.434C544.417 999.139 543.009 1004.75 543 1008L549 996L550 996L550 1000L553 999C556.547 1016.14 567.925 1010.17 563 995L566 995C564.792 990.648 563.793 987.645 568 985L576 998L577 998L581 997L576 959L577 959L582 970L586 969L589 972L583 942L584 942L585 945L594 934L596 917L600 920L596 907L613 895C611.74 903.129 620.824 904.125 623 897C636.172 898.005 633.243 917.796 642 924L640 914L641 914C642.273 918.858 645.829 925.174 643.175 930.004C639.522 936.652 628.803 940.72 631 949L637 944L642 946L645 943L641 953L640 951L639 951L640 958L646 956C647.93 949.418 654.726 943.69 661 948L655 949L657 960L654 959C649.064 970.149 643.712 976.302 633.83 983.718C628.722 987.551 620.949 989.051 619.074 996.004C617.245 1002.78 624.63 1009.16 625 1016C610.556 1018.19 599.894 1035.52 588 1042.79C581.76 1046.6 574.463 1047.64 574 1056L580 1053L586 1056L583 1053L590 1051L587 1056C593.975 1054.93 602.575 1048.69 609 1045.37C616.354 1041.57 625.077 1039.13 631.961 1034.58C642.004 1027.94 650.848 1017.76 659.406 1009.51C672.052 997.306 678.947 984.1 696 977L691 984L676 993C675.884 1005.87 667.317 1009.15 658.831 1016.52C652.331 1022.17 647.939 1029.61 641.75 1035.48C636.948 1040.04 630.551 1042.9 626.314 1048.09C621.333 1054.19 624.257 1063.43 619 1069L619 1071L620 1072L622 1072L623 1069L644 1065L639 1080L663 1065C661.324 1072.73 664.833 1073.76 668 1080L673 1080C672.892 1076.15 676.497 1063.21 682.557 1068.76C684.781 1070.8 683.076 1074.35 684.487 1076.85C687.264 1081.78 694.365 1079.7 697 1076L698 1076L699 1080L760 1080C760 1071.42 759.818 1058.02 753 1052L753 1051L757 1046L762 1047L761 1056C764.674 1056.98 766.74 1056.8 768 1053L769 1053L767 1058L771 1063L768 1080C771.289 1079.88 775.859 1080.58 778.146 1077.68C779.825 1075.55 779.375 1070.59 782.263 1069.61C786.409 1068.21 790.718 1076.92 791 1080C798.907 1080 823.524 1083.9 828 1077L829 1077C831.617 1081.04 836.606 1080 841 1080L874 1080C873.416 1076.29 873.016 1074.54 876 1072L880 1065L880 1070C885.544 1065.33 880.374 1062.47 882.392 1057.05C886.479 1046.08 896.855 1046.68 892 1033L900 1027C899.976 1035.55 897.806 1045.62 908 1037L900 1058L906 1060C915.307 1049.45 916.759 1042.92 915 1029L917 1032L924 1029L926 1035L930 1033C932.424 1038.91 935.773 1038.58 941 1036C938.141 1045.9 932.726 1054.93 943 1063L943 1064L937 1068L940 1067L940 1072L934 1069L932 1079C939.059 1076.26 947.095 1073.16 946.452 1064C946.161 1059.86 943.457 1056.2 943.869 1052C944.547 1045.08 948.727 1039.4 948.571 1032.04C948.463 1026.98 943.846 1024.26 946 1019L948 1026L952 1025C952.869 1028.7 952.862 1033.15 957 1034C959.171 1040.38 957.594 1042.07 955 1048C963.531 1047.68 968.544 1046.8 969 1037L972 1039L973 1039C979.878 1029.48 981.78 1021.58 977 1011L980 1012L981 1009L983 1009L983 1016L1000 1026L1000 1028C993.041 1030.64 979.289 1048.68 982 1056C996.798 1057.21 993.691 1067.52 999 1077L1000 1077L1002 1071C1009.12 1074.92 1016.27 1073.6 1024 1072C1018.31 1066.91 1017.69 1064.68 1018 1057L1023 1064L1030.75 1058.73L1036 1047L1035 1052L1039 1052C1039.6 1060.11 1036.65 1063.41 1043 1070C1036.08 1070.9 1031.69 1072.48 1031 1080L1048.84 1078.4L1053 1056C1052.2 1063.07 1056.39 1071.47 1064 1067C1061.77 1084.21 1087.73 1079.94 1098 1080L1099 1072L1101 1072L1101 1080L1117 1080C1116.6 1061.4 1091.76 1056.55 1086 1039L1089 1038C1088.35 1033.29 1084.52 1028.74 1084.37 1024.29C1084.13 1017.59 1093.08 1014.32 1098 1017L1102 1015L1102 1018L1105 1018L1113 1006L1118 993L1119 993C1120.75 999.992 1122.25 1009.8 1130 1012L1131 1009L1133 1009L1136 1017L1138 1016C1140.06 1020.2 1142.12 1022.68 1147 1022L1152 1028C1150.67 1019.59 1137.58 1015.96 1140 1007L1136 1008L1139 999L1135 1000L1137 990C1131.43 986.417 1134.43 982.389 1136 977C1146.26 983.493 1154.41 990.815 1152 1004C1158.34 1006.55 1157.49 1010.59 1160.85 1015.58C1167.74 1025.78 1172.27 1032.56 1174 1045L1180 1040L1176 1036L1178 1023L1177 1023L1175 1025L1175.24 1013L1170.1 1001.49L1178 999L1176 993L1177 993C1178.4 996.688 1182.35 1000.79 1184 995L1190 1002L1186 1001L1188 1016L1193 1015L1192 999L1194 999C1194.25 1002.53 1202.48 1015.93 1204 1009L1220 1021L1221 1020L1213 997C1219.98 1004.32 1227.62 1018.11 1229.56 1028.09C1231.99 1040.64 1229.58 1059.63 1242 1068L1239 1042L1240 1042L1246 1056L1248 1052L1248 1051L1246 1047L1250 1047L1250 1041L1256 1044C1256.12 1039.77 1258.94 1034.66 1255 1032C1256.26 1028.22 1256.69 1026.09 1253 1024L1253 1022L1264 1021L1265 1031L1271 1019L1276 1020L1276 1016L1272 1017L1271 1013L1275 1015L1280 1013L1279 1016L1283 1017L1282 1021L1285 1022L1285 1017L1291 1019L1295 1016L1291.36 1005.19L1282.85 996.896L1273 971C1280.13 976.505 1285.62 987.128 1287 996L1290 993L1298 996L1300 996L1301 993L1304 994L1304 993L1302 989L1313 991L1312 996L1329 1000C1326.33 991.95 1320.86 981.228 1312 980C1311.69 971.628 1304.8 957.825 1311 951L1311 960L1321 959L1321 960L1318 960L1325 974L1328 973L1329 976L1331 976L1332 975L1332 973L1329 972L1334 969C1334.61 974.985 1338.09 981.749 1344 977L1345 984L1347 984L1347 975C1352.38 977.001 1350.17 980.32 1351 985L1353 985L1353 972L1363 971C1367.38 959.459 1375.71 966.083 1385 965L1396 972C1391.36 959.263 1400.4 961.625 1410 960L1407 956L1407 955C1425.25 955.86 1410.49 941.765 1408 933C1412.63 933.39 1414.75 931.382 1416 927L1419 927L1423 932L1426 916L1433 920C1428.82 921.538 1428.14 923.698 1428 928L1444 921L1452 925C1452.75 922.054 1453.2 920.689 1450 920L1450 919L1456 909C1458.02 904.199 1457.7 901.443 1455 897L1459 893L1468 894L1473 896L1464 887L1462 888L1461 888L1464 879L1467 880L1468 875L1474 876L1474 875C1469.17 870.157 1477.6 868.282 1480 864L1484 865L1485 872L1486 872L1490.41 856.773L1498.22 854.397L1513 844L1509.34 836.299L1519 829L1520 829L1520 832L1528 825C1522.98 821.189 1519.73 819.287 1523 813L1524 813L1525 815C1527.36 812.928 1529.14 809.504 1525 809L1526 801L1523 802L1523 795L1522 795L1518 800L1520 793C1512.91 791.522 1514.53 783.288 1507 782.775C1497.46 782.127 1487.6 780.676 1478 781.381C1470.08 781.963 1463.09 784.744 1455 784.329C1446.53 783.894 1446.6 789.612 1439 783L1454 782L1452 771L1461 772C1467.05 767.476 1472.66 765.623 1480 768C1489.8 756.171 1505.04 766.912 1517 758L1520 760L1521 754L1522 754L1525 756L1525 755L1522 752L1521 754L1520 754L1519 750L1504 743L1512 740C1511.62 735.009 1509.64 733.472 1505 732L1518.96 728.282L1531.59 718.117L1559 716C1555.54 710.572 1547.41 706.154 1541 706L1542 703L1538 703L1540 706L1531 700L1536 693L1539 694L1539 689C1532.97 691.659 1528.22 691.33 1525 685L1528 686L1529 681L1523 678L1522 678C1519.8 678.913 1515.24 677.365 1518.54 676.109C1521.81 674.864 1527.29 675.775 1531 675L1537 679C1537.21 683.482 1541.51 686.218 1544.05 689.835C1552.79 702.262 1562.23 711.03 1576.01 716.65C1582.48 719.287 1594.57 714.426 1594 707L1597 708C1596.55 702.627 1599.21 696.801 1598.31 692C1596.77 683.774 1590.84 678.227 1587.32 671C1582.81 661.731 1581.37 650.985 1576.48 642C1571.86 633.501 1556.03 622.644 1557 613L1562 616L1549 599L1550 599L1550 602L1551 602L1549 584L1553 589L1554 589L1555 581L1558 580L1555 575L1571 576.398L1585 584L1588 575L1583 574L1589 559L1586 560L1585 555C1591.07 553.7 1584.82 549.522 1584.64 546.083C1584.4 541.62 1591.18 538.828 1584 536C1587.8 530.947 1585.71 525.436 1579 526L1569 519L1567 521L1568 515L1557 504L1557 503L1560 499L1565 500L1563 493L1559 492L1559 491L1564 490L1560 487C1563.52 485.285 1567.59 482.007 1571.71 482.264C1575.02 482.47 1577.05 485.698 1580 486.817C1588.44 490.016 1604.66 489.255 1593 478L1593 477L1611.73 470.349L1620 456L1620 455C1611.98 449.278 1611.6 439.635 1620 435L1620 407L1619 407L1619 410L1604 412L1609 406L1603 409C1598.7 402.526 1594.62 408.262 1589.1 407.123C1585.77 406.437 1584.43 400.64 1583 398C1586.78 394.391 1579.94 379.557 1578 375L1587 376L1588 371L1581 367L1576 368C1579.36 364.928 1579.72 351.52 1576 349L1573 352L1573 349L1568 350C1569.8 343.662 1574.23 343.186 1580 342L1580 341L1576 340C1577.75 335.848 1579.64 334.349 1584 336L1585 336C1595.06 326.749 1619.17 331.951 1621 316L1617 316L1618 313C1623.46 315.136 1624.33 310.672 1625 306L1630 308L1627 305L1627 303L1642 294L1642 297L1654 290L1654 289C1648.89 288.719 1646.71 288.854 1645 294L1644 294C1645.04 284.692 1656.07 283.837 1650 274L1657 260L1657 259L1651 260L1653 253L1649 257L1648 257L1650 247L1642 251L1644 240L1644 239C1639.8 237.132 1632.95 236.359 1629 239L1628 239L1616 240L1620 228L1621 228L1623 233L1624 232L1622 226L1618 224L1616 228L1613 225L1606 226L1604 222L1589 227C1579.14 225.513 1569 232.712 1559 233.699C1533.97 236.17 1509.11 235.7 1484 233L1468 240L1467 240L1472 229L1454 232C1455.92 228.271 1462.15 222.708 1458 219L1438 224L1438 223L1439 219L1420 228C1418.56 223.08 1411.48 222.751 1407 223.259C1396.68 224.429 1384.11 223.431 1378 233L1382 224L1382 223C1369.71 210.048 1391.95 202.966 1395 193L1397 194L1401 183C1406.81 181.885 1404.95 176.495 1407.3 172.26C1411.35 164.988 1420.74 160.876 1422 152L1417 154C1422.02 148.021 1420.14 140.213 1423.23 133C1428.69 120.275 1438.04 113.091 1440.32 99C1441.45 92.0706 1442.67 77.4022 1431 80L1430 77L1424 81C1416.13 74.7148 1409.33 86.9492 1404.79 91.9599C1391.67 106.434 1376.36 112.052 1369 132L1366 132C1360.15 128.99 1357.82 141.69 1357 146L1356 146L1354 140L1343 148L1344 140L1339 143L1334 140L1334 132L1331 134L1336 116L1334 118L1328 115C1325.56 119.424 1322.68 121.139 1319 117L1314 119C1313.31 122.827 1311.83 123.834 1309 121L1302 128L1301 123L1292 130L1292 127L1290 127L1289 144L1285 142L1276 150L1266 148L1271 137L1267 136L1267 135C1274.09 132.52 1274.59 126.721 1275 120C1271.44 122.965 1270.74 125.562 1272 130C1266.34 130.568 1260.21 135.56 1257 129L1244 132L1246 123L1226.04 121.97L1211 131C1209.77 128.593 1205.68 124.134 1205 129C1197.82 129.006 1192.09 130.04 1186 134C1188.75 139.793 1194.61 156.89 1188 161L1188 155L1173 168L1173 163L1165 165L1159 174L1163 163L1158 161L1152 166C1154.23 160.464 1158.64 156.213 1157 150L1146 156L1149 147C1139.08 152.322 1139.28 167.509 1137 177L1136 177L1128 174C1131.98 165.024 1138.72 155.299 1134 145L1132 145C1127.91 154.042 1125.65 161.264 1118 168L1128 147L1123 151L1122 151C1122 146.255 1122.36 142.673 1118 140C1120.63 133.167 1121.17 124.897 1126.3 119.29C1133.9 110.971 1141.16 113.43 1144 101L1141 97L1147 98C1145.25 92.9804 1145.65 88.4965 1152 90L1150 83C1156.94 81.1454 1163.25 70.1571 1156 65L1157 72L1151 70L1150 74C1146.3 70.6708 1145.45 58.4135 1142 71L1139 70L1137 78L1136 78L1136 73L1128 76L1132 72L1131 65L1125 68L1123 75L1122 75C1122.45 64.4258 1126.66 58.1514 1131 49L1130 48L1125 50L1127 42L1130 42C1129.19 37.7306 1129.02 34.2163 1125 32L1126 19L1119 22L1119 19L1114 17L1114 16L1118 14L1114 14L1111 16L1115 11L1112 10L1114 6L1109 7L1109 8L1112 8L1112 9L1108 10C1106.45 7.13782 1105.23 6.34802 1102 7L1100 0L1094 0L1094 4L1092 4L1092 0L1089 0L1091 6L1090 7C1085.26 4.99011 1080.39 6.77747 1081 0C1076.82 1.45642 1076.52 4.9585 1076 9L1075 9C1074.92 5.20496 1074.06 0.865601 1070 0C1070.06 3.97668 1069.6 6.06921 1066 8L1067 0L1062 4L1062 0L1061 0L1056 5L1056 0L994 0C994 11.5341 995.135 21.661 990 32L989 32L991.447 14L991 0C986.181 0.160156 984.63 1.48669 983 6L982 6L982 0L976 0C975.184 4.57495 972.101 8.45801 971.484 13C971.024 16.3877 972.751 19.5979 972.621 23C972.246 32.8517 964.424 39.583 956 44L958 32L957 32L957 37L948 39L948 25C937.989 26.2598 939.837 34.3113 934 40L936 31C928.235 29.698 928.734 38.2 928 44L927 44L918 26L913 31C912.866 34.2506 912.102 35.0516 909 36L910 31L896 27L888 29C890.017 24.3553 903.758 14.9188 895 12L897 7C893.333 5.29553 891.651 4.08899 891 0L887 0C887.701 10.0273 880.534 10.015 877.812 18.4244C876.819 21.4921 878.485 24.9551 879 28L875 28L879 33C876.155 36.4973 870.819 31.8228 870.546 27.9861C870.29 24.391 873.539 21.984 876 20L876 18C869.873 17.0377 862.838 25.7001 860 16L859 16L858 24L852 19C842.347 22.3285 833.293 21.4739 824 19L825 28L829 30L826 36C823.11 33.5995 819.738 31.6147 817.133 28.8958C807.902 19.2593 816.708 10.3683 818 0C814.256 2.48108 813.595 7.20227 810.367 10.3619C804.198 16.3999 798.501 13.0568 798 24L794 21C789.603 28.3268 784.845 26.1648 777 26L767 35L766 31L770 27L757 33L762 19L756 21L754 18L756 22C754.233 26.171 752.897 30.0405 757 33L757 49L754 45L745 42L744 36L742 36L745 52L740 41L734 41L734 37L733 37C729.366 41.3024 726.737 39.8351 722 38L721 42L713 37C707.092 38.988 711.729 47.3995 713 52L710 49L702 47L697 52C692.083 50.2095 688.034 44.528 692 40C687.649 32.0906 691.358 28.1265 692.571 20C693.578 13.2549 692.849 6.80212 694 0L623 0z"/>
<path style="fill:#fcfcfc; stroke:none;" d="M694 0C692.306 6.40259 693.429 11.6301 692.71 18C691.77 26.3203 686.406 32.2234 692 40C686.544 43.6569 692.065 50.9333 697 52L702 47L713 52C712.077 47.379 708.418 39.7599 713 37C714.321 41.1727 716.903 41.5594 721 42L722 38C726.391 40.4122 730.18 42.1095 733 37L734 37L734 41L740 41C740.059 46.021 740.917 48.8893 745 52L742 36L744 36L745 42L754 45L757 49L757 33C753.519 29.2953 754.587 26.5399 756 22L754 18L756 21L762 19L757 33L770 27L766 31L767 35L777 26C784.895 26.6351 790.434 29.4071 794 21L798 24C799.062 11.9302 812.593 12.7074 816 0L694 0M818 0C814.442 16.6522 807.996 25.1102 826 36L829 30L825 28L824 19C832.371 22.6279 843.436 23.2026 852 19L858 24L859 16L860 16C861.616 26.1271 870.058 18.1144 876 18L876 20C862.142 26.2777 877.855 38.3143 879 33L875 28L879 28C878.701 24.9742 877.146 21.3746 878.252 18.4244C881.451 9.89758 888.285 10.3999 887 0L818 0M891 0C891.345 4.43359 892.855 5.65723 897 7L895 12C902.205 16.1302 889.497 23.4385 888 29L896 27C898.825 31.9973 904.992 29.3931 910 31L909 36C912.49 35.4193 913.547 34.5602 913 31L918 26L927 44L928 44C929.073 38.2423 928.497 30.7576 936 31L934 40C940.607 35.7371 938.283 27.1167 948 25L948 39L957 37L957 32L958 32L956 44C973.875 38.3135 969.585 26.63 971.822 13C972.573 8.42188 975.513 4.7572 976 0L891 0M982 0L982 6L983 6L985 0L982 0M991 0L991.165 14L989 32L990 32C996.402 23.1088 994 10.6096 994 0L991 0M1055 1L1056 5L1061 0L1055 1M1062 4L1066 0C1063.03 0.505859 1062.14 0.960693 1062 4M1067 0L1066 8C1070.26 6.65088 1070.55 4.16748 1070 0L1067 0M1073 0L1075 9L1076 9L1078 0L1073 0M1090 7L1091 6L1089 0C1076.9 0.0428467 1081.42 5.09583 1090 7M1092 0L1092 4L1094 4L1094 0L1092 0M1100 0L1102 7L1108 10L1112 9L1112 8L1109 8L1109 7L1114 6L1112 10L1115 11L1111 16L1114 14L1118 14L1114 16L1114 17L1119 22L1126 19L1125 32L1130 42L1127 42L1125 50L1130 48L1131 49C1125.2 57.3801 1122.21 64.6789 1122 75L1123 75L1125 68L1131 65L1132 72L1128 76L1136 73L1136 78L1137 78L1139 70L1142 71C1146.23 59.7773 1145.64 71.3597 1150 74L1151 70L1157 72L1156 65C1161.76 71.2678 1157.07 80.1589 1150 83L1152 90C1145.55 87.2063 1144.85 93.1367 1147 98L1141 97L1144 101L1139.48 111.146L1125.55 119.29L1118 140C1121.69 143.323 1121.98 146.187 1122 151L1123 151L1128 147L1118 168C1126.38 162.939 1129.13 153.882 1132 145L1134 145C1137.64 156.606 1130.77 163.772 1128 174L1136 177L1137 177C1141.42 167.016 1139.17 154.968 1149 147L1146 156L1157 150L1152 166L1158 161L1163 163L1159 174C1163.3 171.957 1164.1 169.517 1165 165L1173 163L1173 168L1188 155L1188 161C1194.97 158.194 1189.52 139.008 1186 134L1205 129C1205 123.864 1209.66 129.116 1211 131L1225.95 122.255L1246 123L1244 132L1257 129C1259.3 136.221 1266.71 130.911 1272 130C1271.08 125.551 1272.1 123.434 1275 120C1274.17 126.823 1273.56 131.577 1267 135L1267 136L1271 137L1266 148L1276 150L1285 142L1289 144L1290 127L1292 130L1301 123L1302 128L1309 121L1310 124L1314 119L1319 117C1321.98 122.357 1326.25 119.879 1328 115L1336 116L1331 134L1334 132L1334 140L1339 143L1344 140L1343 148L1354 140L1356 146L1357 146C1358.38 141.52 1360.01 130.838 1366 132L1369 132C1373.5 123.416 1377.75 114.758 1385 108.104C1391.08 102.536 1399.16 98.8839 1404.79 92.9059C1409.56 87.8386 1415.69 75.5077 1424 81L1430 77L1431 80C1443.75 78.9182 1440.5 93.5472 1440.04 101C1439.31 112.645 1429.09 120.056 1424.14 130C1420.17 137.948 1421.33 146.681 1417 154L1422 152L1407.3 171.459L1401 183L1397 194L1395 193C1391.34 200.215 1367.84 213.113 1382 223L1382 224C1378.56 226.217 1377.34 228.999 1378 233C1384.75 225.64 1413.03 216.59 1420 228L1439 219L1438 223L1438 224L1458 219C1460.87 223.407 1455.49 227.603 1454 232L1472 229L1467 240L1468 240L1484 233C1508.42 237.848 1535.5 236.613 1560 233.713C1569.9 232.541 1579.12 226.619 1589 227L1604 222L1607 223L1606 226L1613 225L1616 228L1618 224L1622 226L1624 232L1623 233L1621 228L1620 228L1616 240L1628 239L1629 239L1644 239L1644 240C1640.34 243.539 1640.78 246.364 1642 251L1650 247L1648 257L1649 257L1653 253L1651 260L1657 259L1657 260L1654 260L1650 274C1654.31 284.171 1644.53 284.317 1644 294L1645 294C1647.21 289.307 1648.99 288.902 1654 289L1654 290L1651 290L1642 297L1642 294L1641 294L1627 303L1627 305L1630 308L1625 306C1623.76 310.4 1623.37 313.807 1618 313L1617 316L1621 316C1617.05 333.675 1594.68 323.574 1585 336L1584 336C1579.87 333.132 1577.2 335.728 1576 340L1580 341L1580 342C1573.94 342.489 1569.07 343.174 1568 350L1573 349L1573 352L1576 349C1578.75 352.356 1578.76 364.474 1576 368L1581 367L1588 371L1587 376L1578 375C1579.81 380.699 1585.9 392.682 1583 398L1588.16 407.342L1603 409L1609 406L1604 412C1608.7 411.75 1617.75 412.949 1619 407L1620 407L1620 435C1610.98 438.594 1611.47 450.599 1620 455L1620 456L1610.87 470.349L1593 477L1593 478C1606.64 496.715 1578.19 482.603 1572 482.029C1567.62 481.622 1563.39 484.664 1560 487L1564 490L1559 491L1559 492L1563 493L1565 500L1560 499L1557 503L1557 504L1568 515L1567 521L1569 519L1579 526C1585.12 526.585 1586.94 530.817 1584 536C1586.39 538.163 1587.22 553.392 1585 555L1586 560L1589 559L1583 574L1588 575L1585 584C1574.41 579.289 1567.34 573.511 1555 575L1558 580L1555 581L1554 589L1553 589L1549 584L1551 602L1550 602L1550 599L1549 599L1562 616L1557 613C1554.78 622.127 1571.29 634.161 1575.91 642C1581.26 651.093 1582.66 662.44 1587.32 672C1590.67 678.863 1596.56 684.159 1597.9 692C1598.76 697.003 1596.17 702.314 1597 708L1594 707C1594.11 713.591 1582.62 719.116 1576.58 716.532C1562.55 710.531 1552.99 701.741 1544.05 688.929C1541.73 685.61 1537.56 683.072 1537 679L1531 675C1527.94 675.282 1520.06 674.306 1517.85 676.059C1514.81 678.472 1519.85 679.584 1522 678L1523 678L1529 681L1525 685C1527.18 692.025 1533.36 692.25 1539 689L1539 694L1536 693L1531 700L1540 706L1538 703L1542 703L1541 706C1547.58 706.356 1554.53 711.342 1559 716L1531.04 717.873L1518.96 727.877L1505 732C1509.11 733.873 1511.28 735.392 1512 740L1504 743L1519 750L1520 754L1521 754L1522 752L1525 755L1525 756L1522 754L1521 754L1520 760L1517 758C1512.51 760.066 1506.97 762.404 1502 762.704C1493.52 763.214 1485.37 758.205 1480 768C1473.27 764.844 1466.06 766.626 1461 772L1452 771L1454 782L1439 783C1445.56 790.836 1447.1 784.375 1455 784.533C1472.78 784.889 1489.32 781.15 1507.28 782.958C1514.46 783.68 1512.66 792.155 1520 793L1518 800L1522 795L1523 795L1523 802L1526 801L1525 809C1529.16 809.547 1526.82 812.75 1525 815L1523 813C1518.76 818.965 1522.32 821.978 1528 825C1526.09 827.679 1522.91 832.531 1520 829L1519 829L1509.07 838.758L1513 844L1497.47 854.362L1490.33 856.117L1486 872L1485 872L1484 865L1480 864C1477.12 867.5 1467.16 871.109 1474 875L1474 876L1468 875L1467 880L1464 879L1461 888L1464 887L1473 896L1468 894L1459 893L1455 897L1456 909L1450 919L1450 920L1452 925L1444 921L1428 928C1428.31 923.898 1429.4 922.019 1433 920L1426 916C1423.63 923.641 1419.51 923.003 1423 932L1419 927L1416 927C1414.19 930.807 1412.25 932.596 1408 933C1409.82 941.8 1424.1 955.199 1407 955L1407 956L1410 960C1400.75 960.914 1389.7 958.916 1396 972L1385 965C1375.76 964.857 1366.3 959.061 1363 971L1353 972L1353 985L1351 985C1350.84 980.117 1352.97 976.304 1347 975L1347 984L1345 984L1344 977L1342 980C1337.54 977.723 1335.13 973.82 1334 969L1329 972L1332 973L1332 975L1331 976L1329 976L1328 973L1325 974C1323.81 970.094 1316.5 962.63 1321 960L1321 959L1311 960L1311 951C1303.98 955.982 1311.4 972.844 1312 980C1320.87 981.94 1325.17 992.305 1329 1000L1312 996L1313 991L1302 989L1304 993L1304 994L1301 993L1300 996L1298 996C1294.63 991.325 1291.16 993.952 1287 996C1286.24 987.591 1280.75 974.964 1273 971L1283.3 998.621L1291.23 1006.09L1295 1016L1291 1019C1289.27 1016.33 1288.06 1016.29 1285 1017L1285 1022L1282 1021L1283 1017L1279 1016L1280 1013L1275 1015L1271 1013L1272 1017L1276 1016L1276 1020L1271 1019L1265 1031L1264 1021L1253 1022L1253 1024L1255 1032L1256 1044L1250 1041L1250 1047L1246 1047L1248 1051L1248 1052L1246 1056L1240 1042L1239 1042L1242 1068C1223.39 1049.07 1236.34 1013.2 1213 997L1221 1020L1220 1021L1204 1009L1203 1012L1194 999L1192 999L1193 1015L1188 1016L1186 1001L1190 1002C1189.37 997.939 1187.97 996.15 1184 995C1181.57 999.956 1178.96 996.448 1177 993L1176 993L1178 999C1164.39 1001.7 1172.2 1003.95 1175.1 1014C1176.11 1017.49 1174.68 1021.42 1175 1025L1177 1023L1178 1023L1176 1036L1180 1040L1174 1045C1173.11 1032.09 1167.76 1025.09 1160.85 1014.71C1157.55 1009.75 1158.67 1005.78 1152 1004C1154.98 991.441 1147.09 981.825 1136 977C1133.87 982.278 1130.4 987.189 1137 990L1135 1000L1139 999L1136 1008L1140 1007C1136.12 1015.47 1149.8 1020.32 1152 1028L1147 1022C1142.34 1021.89 1140.59 1019.67 1138 1016L1136 1017L1133 1009L1131 1009L1130 1012C1122.69 1008.55 1121.33 1000.13 1119 993L1118 993L1113 1006L1102 1018L1102 1015L1098 1017C1092.83 1013.4 1084.34 1017.18 1084.07 1024C1083.89 1028.43 1088.03 1033.51 1089 1038L1086 1039C1090.59 1057.38 1116.14 1061.32 1117 1080L1920 1080L1920 0L1100 0z"/>
<path style="fill:#040404; stroke:none;" d="M1108 1L1110 4L1108 1M833 6L832 9L835 7L833 6z"/>
<path style="fill:#fcfcfc; stroke:none;" d="M998 9L1002 16L1001 9L998 9z"/>
<path style="fill:#040404; stroke:none;" d="M834 10C833.569 15.0381 836.623 17.1401 841 19L845 16L834 10z"/>
<path style="fill:#fcfcfc; stroke:none;" d="M1059 10L1059 12L1061 12L1061 10L1059 10M1084 10L1083 12L1085 12L1084 10z"/>
<path style="fill:#040404; stroke:none;" d="M869 11L869 13L871 11L869 11M849 12C848.46 15.6748 849.464 16.9272 853 18L849 12z"/>
<path style="fill:#fcfcfc; stroke:none;" d="M1107 13L1108 14L1107 13z"/>
<path style="fill:#040404; stroke:none;" d="M868.333 14.6666L868.667 15.3334L868.333 14.6666M864 15L864 20L868 19L868 17L864 15z"/>
<path style="fill:#fcfcfc; stroke:none;" d="M691 16L691 19L692 19L691 16z"/>
<path style="fill:#040404; stroke:none;" d="M774 19L775 20L774 19M831.667 19.3334L832.333 19.6666L831.667 19.3334M775.333 22.6666L775.667 23.3334L775.333 22.6666M748 23L749 24L748 23z"/>
<path style="fill:#fcfcfc; stroke:none;" d="M805 23L806 24L805 23M1119 25L1120 26L1119 25z"/>
<path style="fill:#040404; stroke:none;" d="M749 27L752 32L749 27z"/>
<path style="fill:#fcfcfc; stroke:none;" d="M1000 27L998 34L1000 27M792 31L794 36L795 36L795 30L792 31M1121 31L1122 32L1121 31M1123 32L1125 37L1125 32L1123 32M782 33L785 36L782 33M920 33L921 34L920 33z"/>
<path style="fill:#040404; stroke:none;" d="M740 35L741 36L740 35z"/>
<path style="fill:#fcfcfc; stroke:none;" d="M775 35L776 36L775 35M828 37L830 39L830 37L828 37M922 37L919 45C922.315 43.1111 924.136 40.49 922 37M689 38L690 39L689 38M880 41L882 44L880 41M950 44L952 41L950 44z"/>
<path style="fill:#040404; stroke:none;" d="M693 43L696 46L697 43L696 42L693 43z"/>
<path style="fill:#fcfcfc; stroke:none;" d="M946 42L946 48L948 48L948 42L946 42M786 44L786 46L788 46L786 44M726 49L727 50L726 49M727 51L728 52L727 51M716 53L715 60L717 60L716 53M722 55L722 56L725 56L722 55M702 58L702 60L704 60L704 58L702 58z"/>
<path style="fill:#040404; stroke:none;" d="M1148 59L1148 60L1152 60L1148 59M1135.33 62.6667L1135.67 63.3333L1135.33 62.6667z"/>
<path style="fill:#fcfcfc; stroke:none;" d="M698 64C699.099 67.3214 700.59 67.7375 704 68L698 64z"/>
<path style="fill:#040404; stroke:none;" d="M1133 71L1134 72L1133 71z"/>
<path style="fill:#fcfcfc; stroke:none;" d="M1142 72L1144 82C1147.03 79.1892 1143.85 74.9733 1142 72M702 73L704 76L702 73M600.667 99.3333L601.333 99.6667L600.667 99.3333z"/>
<path style="fill:#040404; stroke:none;" d="M506 107L506 108L509 109L506 107M581 111L582 112L581 111z"/>
<path style="fill:#fcfcfc; stroke:none;" d="M505 113L506 114L505 113z"/>
<path style="fill:#040404; stroke:none;" d="M588 113L589 117L590 117L590 113L588 113z"/>
<path style="fill:#fcfcfc; stroke:none;" d="M691 132L698 131L691 139L691 140L695 138L698 140L702 135L699 146L698 147L693 145L697 148L697 160C703.673 158.392 710.588 162.372 714 168L724.015 173.106L741 177L744 183L746 177L748 177L748 184L754 186L752 175L760 177L761 173L755 167C764.297 167.11 769.487 175.905 777.946 176.944C786.45 177.989 787.026 161.78 785 157L782 157C775.284 169.631 766.382 159.321 758 154.92C751.834 151.682 746.17 150.535 740 146.735C735.975 144.255 726.152 145.509 728 139C721.127 136.227 708.227 132.032 709 123C695.98 116.024 696.593 119.389 691 132M693 119L694 120L693 119M1118.67 119.333L1119.33 119.667L1118.67 119.333M590 129L588 132C590.251 131.527 591.118 131.14 590 129M595 130L595 132L597 132L597 130L595 130M1366 132L1367 133L1366 132M1259 137L1260 138L1259 137z"/>
<path style="fill:#040404; stroke:none;" d="M468 143L469 144L468 143M1136 143L1140 148L1136 143M1188 143L1189 144L1188 143z"/>
<path style="fill:#fcfcfc; stroke:none;" d="M1191 143L1192 144L1191 143M1338 143L1339 144L1338 143M1099 147L1100 148L1099 147M1116 147L1118 150L1116 147M1121 151L1122 152L1121 151M1120 155L1121 156L1120 155z"/>
<path style="fill:#040404; stroke:none;" d="M709 157L712 160L711 157L709 157z"/>
<path style="fill:#fcfcfc; stroke:none;" d="M1142 158L1143 159L1142 158M699 167L699 172L700 172L699 167M1104 172L1108 172L1109 167L1104 172z"/>
<path style="fill:#040404; stroke:none;" d="M735 171L736 172L735 171z"/>
<path style="fill:#fcfcfc; stroke:none;" d="M704 176L707 173L704 176M711 180L713 175C709.882 175.946 707.709 177.678 711 180z"/>
<path style="fill:#040404; stroke:none;" d="M741 175L742 177L743 177L744 175L741 175z"/>
<path style="fill:#fcfcfc; stroke:none;" d="M1403 175L1404 176L1403 175z"/>
<path style="fill:#040404; stroke:none;" d="M407 179L407 184L408 184L407 179z"/>
<path style="fill:#fcfcfc; stroke:none;" d="M1099.67 179.333L1100.33 179.667L1099.67 179.333M1113 179L1112 184L1115 184L1113 179M712 181L715 184L712 181z"/>
<path style="fill:#040404; stroke:none;" d="M423 185L424 186L423 185M423 187L424 188L423 187z"/>
<path style="fill:#fcfcfc; stroke:none;" d="M478.667 191.333L479.333 191.667L478.667 191.333M726.667 191.333L727.333 191.667L726.667 191.333M1391 196L1392 197L1391 196M728 197L729 200L730 200L728 197M479 206L478 208L479 206z"/>
<path style="fill:#040404; stroke:none;" d="M345 209L346 210L345 209z"/>
<path style="fill:#fcfcfc; stroke:none;" d="M479 209L480 210L479 209z"/>
<path style="fill:#040404; stroke:none;" d="M1612 217L1613 221L1614 221L1615 217L1612 217z"/>
<path style="fill:#fcfcfc; stroke:none;" d="M1373 219L1374 220L1373 219z"/>
<path style="fill:#040404; stroke:none;" d="M1440 219L1441 220L1440 219z"/>
<path style="fill:#fcfcfc; stroke:none;" d="M1377 221L1378 225L1379 225L1377 221M454 223L457 226L454 223z"/>
<path style="fill:#040404; stroke:none;" d="M1608 223L1609 224L1608 223z"/>
<path style="fill:#fcfcfc; stroke:none;" d="M457 227L458 228L457 227M1610 228L1611 232L1612 232L1610 228z"/>
<path style="fill:#040404; stroke:none;" d="M1533 231L1533 232L1537 232L1533 231z"/>
<path style="fill:#fcfcfc; stroke:none;" d="M474 233L478 236L474 233M456 237L457 238L456 237M466.333 238.667L466.667 239.333L466.333 238.667M457 239L458 240L457 239M327 253L327 254L332 256L327 253M336 257L341 263L342 262L336 257M1646 271L1647 272L1646 271z"/>
<path style="fill:#040404; stroke:none;" d="M1656 280L1659 280L1658 278L1656 280M1656 286L1656 288L1658 288L1656 286z"/>
<path style="fill:#fcfcfc; stroke:none;" d="M338 289L336 292L340 292L338 289M328 295L328 296L331 297L331 296L331 295L328 295z"/>
<path style="fill:#040404; stroke:none;" d="M1640 297L1641 298L1640 297M1637.67 299.333L1638.33 299.667L1637.67 299.333z"/>
<path style="fill:#fcfcfc; stroke:none;" d="M329 306L330 307L329 306z"/>
<path style="fill:#040404; stroke:none;" d="M314 311L315 312L314 311M1625 312L1627 315L1625 312z"/>
<path style="fill:#fcfcfc; stroke:none;" d="M308 332L308 325C304.132 327.16 304.132 329.84 308 332M1567 351L1568 352L1567 351z"/>
<path style="fill:#040404; stroke:none;" d="M273 387L274 388L273 387z"/>
<path style="fill:#fcfcfc; stroke:none;" d="M278 389L279 390L278 389M1579 390L1578 392L1580 392L1579 390M1592 415L1592 416L1595 416L1592 415M371 427L372 428L371 427M388 431L389 432L388 431M279 437L280 438L279 437M277.667 439.333L278.333 439.667L277.667 439.333M1612 443L1613 444L1612 443M270 446L270 448L272 448L272 446L270 446M276.667 451.333L277.333 451.667L276.667 451.333z"/>
<path style="fill:#040404; stroke:none;" d="M323 467L324 468L323 467z"/>
<path style="fill:#fcfcfc; stroke:none;" d="M340 467L341 468L340 467M333.333 470.667L333.667 471.333L333.333 470.667z"/>
<path style="fill:#040404; stroke:none;" d="M325 471L326 472L325 471z"/>
<path style="fill:#fcfcfc; stroke:none;" d="M1558 487L1559 488L1558 487M282.667 489.333L283.333 489.667L282.667 489.333M1553 493L1556 492L1553 493M277 493L278 494L277 493M264 495L265 496L264 495M278 495L279 496L278 495M283.333 499.667L283.667 500.333L283.333 499.667z"/>
<path style="fill:#040404; stroke:none;" d="M1566 511L1568 513L1568 511L1566 511M274 527L276 529L274 527M1591 541L1590 544L1591 541z"/>
<path style="fill:#fcfcfc; stroke:none;" d="M1552.67 579.333L1553.33 579.667L1552.67 579.333M322 591L323 592L322 591z"/>
<path style="fill:#040404; stroke:none;" d="M294.667 593.333L295.333 593.667L294.667 593.333M268 597L268 600L270 600L270 597L268 597z"/>
<path style="fill:#fcfcfc; stroke:none;" d="M1542 597L1543 600L1544 600L1544 597L1542 597M1555 615L1556 616L1555 615M302 631L303 632L302 631z"/>
<path style="fill:#040404; stroke:none;" d="M283 635L284 636L283 635z"/>
<path style="fill:#fcfcfc; stroke:none;" d="M308 639L309 640L308 639z"/>
<path style="fill:#040404; stroke:none;" d="M293.333 648.667L293.667 649.333L293.333 648.667z"/>
<path style="fill:#fcfcfc; stroke:none;" d="M296 651L297 652L296 651M210 653L211 654L210 653M1518 673L1519 674L1518 673M241 681C245.289 687.84 252.676 687.999 260 688L241 681z"/>
<path style="fill:#040404; stroke:none;" d="M208 685L209 686L208 685z"/>
<path style="fill:#fcfcfc; stroke:none;" d="M260 689L264 692L260 689z"/>
<path style="fill:#040404; stroke:none;" d="M1536 697L1537 698L1536 697z"/>
<path style="fill:#fcfcfc; stroke:none;" d="M1528.67 699.333L1529.33 699.667L1528.67 699.333M307 721L311 724L307 721M318 725L317 731L324 732L320 725L318 725M1496 726L1496 728L1498 728L1496 726M241 741L242 742L241 741M1514 757L1515 758L1514 757M1459 759L1459 760L1462 760L1459 759M230 763L231 764L230 763M227 768L228 769L227 768M1425 771L1426 772L1425 771z"/>
<path style="fill:#040404; stroke:none;" d="M217 787L218 788L217 787M223 789L224 790L223 789M1529 821L1528 824C1530.57 823.449 1530.86 822.86 1529 821z"/>
<path style="fill:#fcfcfc; stroke:none;" d="M288 863L289 864L288 863M1474 863L1475 866L1478 863L1474 863M295 875L296 876L295 875M596 882L599 889L600 889L596 882M339 883L340 884L339 883M600 890L600 896L602 896L602 890L600 890M328 891L329 892L328 891M1440 891C1440.7 894.341 1441.59 895.438 1445 896L1440 891M1453 895L1452 900L1455 899L1455 895L1453 895M348 897L349 898L348 897M596 899L597 900L596 899M292 903L293 904L292 903z"/>
<path style="fill:#040404; stroke:none;" d="M283.333 904.667L283.667 905.333L283.333 904.667M603.333 905.667L603.667 906.333L603.333 905.667z"/>
<path style="fill:#fcfcfc; stroke:none;" d="M291 907L292 908L291 907M1450.67 907.333L1451.33 907.667L1450.67 907.333z"/>
<path style="fill:#040404; stroke:none;" d="M285 909L286 910L285 909z"/>
<path style="fill:#fcfcfc; stroke:none;" d="M1445 912L1449 913L1449 909L1445 912z"/>
<path style="fill:#040404; stroke:none;" d="M327 912L326 915L327 912z"/>
<path style="fill:#fcfcfc; stroke:none;" d="M1416.33 916.667L1416.67 917.333L1416.33 916.667M1412 917L1412 920L1414 920L1414 917L1412 917M593.333 920.667L593.667 921.333L593.333 920.667M1403 925L1403 928L1404 928L1403 925M587 926L587 931L588 931L587 926z"/>
<path style="fill:#040404; stroke:none;" d="M1447 926L1446 928L1448 928L1447 926z"/>
<path style="fill:#fcfcfc; stroke:none;" d="M646 927L647 928L646 927M348.667 931.333L349.333 931.667L348.667 931.333M1406 931L1408 933L1408 931L1406 931z"/>
<path style="fill:#040404; stroke:none;" d="M324 933L325 934L324 933M342 933L341 936L342 936L342 933z"/>
<path style="fill:#fcfcfc; stroke:none;" d="M1302 940L1303 940L1305 933L1302 940M648 934L647 936L649 936L648 934M1407 935L1408 936L1407 935z"/>
<path style="fill:#040404; stroke:none;" d="M592 937L593 938L592 937z"/>
<path style="fill:#fcfcfc; stroke:none;" d="M1306 939L1303 948C1307.06 947.134 1307.92 942.795 1308 939L1306 939M637 941L638 942L637 941M346 947L347 948L346 947z"/>
<path style="fill:#040404; stroke:none;" d="M625 947L626 948L625 947z"/>
<path style="fill:#fcfcfc; stroke:none;" d="M1309 947L1310 948L1309 947M1266 949C1265.34 952.229 1265.78 955.432 1262 956C1262.83 961.067 1266.18 963.689 1271 965L1268 949L1266 949M662.667 951.333L663.333 951.667L662.667 951.333z"/>
<path style="fill:#040404; stroke:none;" d="M653 954L652 956L654 956L653 954z"/>
<path style="fill:#fcfcfc; stroke:none;" d="M377 961L376 964L377 961z"/>
<path style="fill:#040404; stroke:none;" d="M1314.67 961.333L1315.33 961.667L1314.67 961.333M325 964L323 968L327 964L325 964z"/>
<path style="fill:#fcfcfc; stroke:none;" d="M1327 967L1328 968L1327 967M1351 967L1352 968L1351 967M1273 969L1274 970L1273 969M369.667 971.333L370.333 971.667L369.667 971.333M1132 971L1134 975L1132 971M1282.67 971.333L1283.33 971.667L1282.67 971.333z"/>
<path style="fill:#040404; stroke:none;" d="M346 973L347 974L346 973z"/>
<path style="fill:#fcfcfc; stroke:none;" d="M366 974L367 977L366 974M391 977L390 982C394.436 981.095 396.328 979.159 398 975L391 977M513 975L514 976L513 975M662 977L657 984C660.391 982.896 662.794 980.721 662 977z"/>
<path style="fill:#040404; stroke:none;" d="M1357 979L1356 982L1357 979z"/>
<path style="fill:#fcfcfc; stroke:none;" d="M513 983L514 984L513 983M1187 983L1188 984L1187 983z"/>
<path style="fill:#040404; stroke:none;" d="M352 985L352 988L354 988L354 985L352 985z"/>
<path style="fill:#fcfcfc; stroke:none;" d="M1300 986L1299 990L1302 986L1300 986M652 989L651 993L652 993L652 989M1187 992L1192 992L1192 989L1187 992M978.667 991.333L979.333 991.667L978.667 991.333M1156.67 991.333L1157.33 991.667L1156.67 991.333M1175 991L1176 992L1175 991z"/>
<path style="fill:#040404; stroke:none;" d="M502 993L503 997L504 997L504 993L502 993M513 993L514 994L513 993z"/>
<path style="fill:#fcfcfc; stroke:none;" d="M624 995L624 996L627 996L624 995M648 995L649 996L648 995z"/>
<path style="fill:#040404; stroke:none;" d="M532 996L533 997L532 996M1303 996L1302 998L1304 998L1303 996z"/>
<path style="fill:#fcfcfc; stroke:none;" d="M624 1001L624 1006L633 997L624 1001M979 999L980 1000L979 999z"/>
<path style="fill:#040404; stroke:none;" d="M1332 999L1330 1001L1330 1004L1334 1004L1332 999z"/>
<path style="fill:#fcfcfc; stroke:none;" d="M981 1000L982 1005L984 1005L984 1000L981 1000z"/>
<path style="fill:#040404; stroke:none;" d="M381.667 1003.33L382.333 1003.67L381.667 1003.33z"/>
<path style="fill:#fcfcfc; stroke:none;" d="M1129 1007L1130 1008L1129 1007M1271 1008L1271 1010L1273 1010L1273 1008L1271 1008M981 1009L980 1012L978 1011L977 1011C980.607 1022.63 979.023 1028.07 973 1039L972 1039L969 1037C968.161 1046.25 963.135 1047.31 955 1048C958.403 1042.66 959.867 1039.96 957 1034L952 1025L948 1026L946 1019C943.111 1024.17 948.252 1027.8 948.281 1033.01C948.32 1040.04 944.253 1045.32 943.562 1052C943.117 1056.3 945.948 1059.8 946.157 1064C946.611 1073.08 938.507 1075.53 932 1079L934 1069L940 1072L940 1067L937 1068L943 1064L943 1063C933.76 1052.7 939.182 1047.21 941 1036C935.668 1037.77 933.164 1038.12 930 1033L926 1035L924 1029L917 1032L915 1029C916.177 1043.91 913.512 1047.71 906 1060L900 1058L908 1037C897.877 1042.78 899.994 1036.55 900 1027L892 1033C894.944 1046.08 887.405 1045.69 882.222 1056.13C879.684 1061.24 884.205 1064.7 880 1070L880 1065L876 1072C872.522 1074.11 873.046 1076.31 874 1080L942 1080L942 1076L943 1076C945.521 1082.27 955.302 1080 961 1080L1016 1080L1016 1076L1031 1080C1032.14 1072.89 1036.46 1071.29 1043 1070L1039 1052L1035 1052L1036 1047C1029.44 1050.17 1032.79 1053.7 1029.97 1058.69C1028.67 1060.98 1024.93 1062.15 1023 1064L1018 1057C1017.41 1064.56 1017.3 1067.69 1024 1072L1002 1071L1000 1077L999 1077C994.975 1067.05 996.427 1056.28 982 1056C980.431 1048.23 993.339 1031.85 1000 1028L1000 1026L999 1025L983 1016L983 1009L981 1009M1285 1009L1284 1015L1285 1009z"/>
<path style="fill:#040404; stroke:none;" d="M1092 1016L1093 1017L1092 1016z"/>
<path style="fill:#fcfcfc; stroke:none;" d="M972 1017L968 1032L971 1033C973.595 1027.81 975.087 1022.31 972 1017M996 1017L994 1020L995 1021L996 1017z"/>
<path style="fill:#040404; stroke:none;" d="M1132 1017L1133 1020L1134 1020L1135 1017L1132 1017M416 1018L416 1020L418 1020L416 1018z"/>
<path style="fill:#fcfcfc; stroke:none;" d="M927 1019L927 1020L930 1020L927 1019z"/>
<path style="fill:#040404; stroke:none;" d="M1137 1019L1138 1020L1137 1019M1292 1020C1290.1 1028.35 1299.43 1022.99 1292 1020M1223 1023L1224 1024L1223 1023M402 1024L402 1028L404 1028L404 1024L402 1024M1282.67 1025.33L1283.33 1025.67L1282.67 1025.33z"/>
<path style="fill:#fcfcfc; stroke:none;" d="M928 1027L929 1028L928 1027M1237.33 1027.67L1237.67 1028.33L1237.33 1027.67z"/>
<path style="fill:#040404; stroke:none;" d="M1275 1027L1276 1028L1275 1027M1297 1027L1298 1028L1297 1027z"/>
<path style="fill:#fcfcfc; stroke:none;" d="M935.667 1031.33L936.333 1031.67L935.667 1031.33M957 1031L957 1033L959 1033L957 1031M1076 1031L1076 1036L1077 1036L1079 1031L1076 1031M1248 1035L1249 1039L1251 1035L1248 1035M756 1043L757 1044L756 1043M816 1045L817 1046L816 1045M1066 1045L1068 1049L1069 1048L1066 1045M757 1046L753 1051L753 1052C758.81 1059.3 760 1070.85 760 1080L768 1080L771 1063L767 1058C770.197 1057.31 769.746 1055.95 769 1053L768 1053C766.194 1056.25 764.617 1056.6 761 1056L762 1047L757 1046M1026 1047L1028 1049L1026 1047M1037 1047L1038 1048L1037 1047M1048 1047L1050 1052L1051 1052L1050 1047L1048 1047z"/>
<path style="fill:#040404; stroke:none;" d="M1249.33 1048.67L1249.67 1049.33L1249.33 1048.67z"/>
<path style="fill:#fcfcfc; stroke:none;" d="M774 1051L773 1056C776.054 1055.35 775.936 1053.99 776 1051L774 1051z"/>
<path style="fill:#040404; stroke:none;" d="M757 1052L757 1055L759 1052L757 1052z"/>
<path style="fill:#fcfcfc; stroke:none;" d="M788 1053L788 1056L791 1056L791 1053L788 1053M1020 1053L1021 1054L1020 1053M878 1054L876 1062C879.268 1059.98 879.807 1057.39 878 1054M1015.67 1055.33L1016.33 1055.67L1015.67 1055.33M1023 1055L1024 1056L1023 1055M1050 1056L1049 1080L1070 1080L1064 1067C1056.26 1070.23 1053.21 1063.28 1053 1056L1050 1056M668 1057L666 1061L668 1057z"/>
<path style="fill:#040404; stroke:none;" d="M912 1057L913 1066C916.427 1063.41 915.252 1059.27 912 1057z"/>
<path style="fill:#fcfcfc; stroke:none;" d="M1063 1064L1066 1064L1065 1062L1063 1064M663 1063L664 1064L663 1063M1010.67 1063.33L1011.33 1063.67L1010.67 1063.33M813 1064L814 1065L813 1064M645 1080L668 1080L663 1065C654.794 1067.53 647.738 1071.43 645 1080M861 1067L861 1068L867 1065L861 1067M673 1080L686 1080C684.943 1077.08 685.242 1070.8 683.344 1068.74C676.871 1061.74 672.679 1075.69 673 1080M686 1067L687 1068L686 1067M777 1080C779.764 1080 789.158 1081.47 790.518 1078.4C791.863 1075.36 784.914 1067.15 781.581 1069.29C779.181 1070.82 778.224 1077.38 777 1080z"/>
<path style="fill:#040404; stroke:none;" d="M578 1069L577 1070L577 1071L577 1072L580 1069L578 1069z"/>
<path style="fill:#fcfcfc; stroke:none;" d="M1080 1069L1078 1074L1080 1069M1088 1071L1088 1073L1090 1073L1090 1071L1088 1071M1099 1072L1098 1080C1102.18 1078.61 1101.89 1075.92 1101 1072L1099 1072M869 1073L868 1076L869 1073M794.667 1075.33L795.333 1075.67L794.667 1075.33M862.667 1075.33L863.333 1075.67L862.667 1075.33M1070 1075L1071 1076L1070 1075M1111.67 1075.33L1112.33 1075.67L1111.67 1075.33M697 1076L691 1079L691 1080L699 1080L697 1076z"/>
<path style="fill:#040404; stroke:none;" d="M942 1076L944 1080L942 1076M1016 1076L1016 1080L1020 1080L1016 1076z"/>
<path style="fill:#fcfcfc; stroke:none;" d="M828 1077L827 1080L830 1080L828 1077M772 1079L773 1080L772 1079M859.667 1079.33L860.333 1079.67L859.667 1079.33M1034 1079L1035 1080L1034 1079M1075.67 1079.33L1076.33 1079.67L1075.67 1079.33M1089.67 1079.33L1090.33 1079.67L1089.67 1079.33z"/>
</svg>
