<?xml version="1.0" standalone="yes"?>
<svg xmlns="http://www.w3.org/2000/svg" width="1920" height="1080">
<path style="fill:#fdfdfd; stroke:none;" d="M0 0L0 1080L1920 1080L1920 0L656 0C657.294 9.80737 663.108 2.70996 668.11 6.98682C673.289 11.4144 672.38 26.1545 669 31L669 32L671 34L669 33L669 34L668 44L670 38L672 38L669 64L672 63L672 72C681.379 75.3702 688.777 95.7996 690.591 105.004C692.544 114.912 684.673 127.826 684.108 138C683.803 143.505 686.689 147.794 687.661 153C688.694 158.539 686.161 164.55 687.357 169.83C688.75 175.982 695.799 184.222 699 190L700 190L698 179C712.22 181.632 720.756 198.245 728 209L736 205L742 208C741.758 203.305 748.072 195.632 753.617 197.141C760.331 198.97 762.436 206.577 771 203L766.762 196.026L771 185L776 185C776.908 190.408 786.332 205.451 791 208C790.688 197.208 787.594 186.716 787.459 176C787.339 166.486 790.524 158.308 782 151C777.363 161.418 771.459 157.27 764 152.573C759.423 149.69 754.361 148.859 750.104 145.181C745.414 141.128 742.478 135.072 737 132C738.512 123.341 734.417 122.221 729 117L740 120L740 114L744 116L742 107C749.509 112.021 757.514 106.995 763 116L781 116L765 96L774 96C772.911 92.0908 769.395 88.6406 770.105 84.3048C771.355 76.6652 792.172 80.2711 798 79L796 84L806 95L803 81L807 84L811 81L812 86C819.176 84.1062 822.273 85.3143 829 88C828.641 82.6018 820.021 67.7423 832 74L839 67L839 72L847 70L849 64L852 66C850.207 60.9285 857.121 55.3872 862.137 58.0555C866.053 60.1384 864.922 67.3519 866 71L868 71L872 63L873 63C877.073 66.5801 879.685 62.9607 883 60L880 55C887.496 58.1018 888.587 59.6771 888 68C892.77 65.381 893.694 60.9823 895 56L897 56L902 59L909 79L914 79L912 74L917 73L918 83C928.006 80.1508 923.754 75.1747 930 69L931 76L933 76C934.164 73.6927 937.05 66.3715 939.957 66.1674C943.857 65.8936 944.162 78.5908 944 81L960 72C963.668 75.8002 965.588 66.9587 968 65L966 85L967 85L971 75L976 78C977.824 63.1259 990.634 56.1874 997 44L998 44L996 58L997 58C1000.22 49.2828 1004.17 37.3041 1013 33C1011.73 36.9877 1006.51 56.4808 1016 49L1015 56L1016 57L1020 55L1018 51L1019 50C1030.45 61.8568 1038.03 41.2841 1044 35C1042.46 39.9468 1042.81 46.3469 1038 49L1040 64L1041 64L1048 37L1048 44L1055 52L1058 52L1059 49L1060 49C1060 59.742 1055.24 64.7287 1051 74C1058.67 75.7314 1050.48 96.856 1049 102C1058.6 99.953 1051.47 82.4981 1065 85L1077 68L1080 70L1080 66L1084 65C1086.08 70.1863 1087.86 72.5681 1093 69L1096 87L1100 87L1098 91L1101 90C1099.6 97.5546 1099.7 105.965 1096.54 112.999C1094.48 117.578 1088.6 121.715 1087.34 126.117C1086.47 129.179 1091.12 131.7 1093.7 131.137C1098.24 130.145 1101.7 121.446 1106 119L1100 144C1090.39 144.114 1090.32 149.809 1089 158L1093 153L1094 153L1097 160C1091.6 162.655 1088.64 168.108 1088 174C1092.02 172.859 1093.86 171.019 1095 167L1098 168L1102 161C1101.92 170.673 1099.22 176.102 1094 184L1104 180L1104 184L1111 179L1106 187L1108 192L1109 192L1118 181L1116 190L1124 186C1121.18 191.174 1120.32 196.298 1122 202L1138 183L1137 194C1142.68 191.346 1145.63 186.643 1148 181L1149 181C1148.91 186.004 1147.83 189.698 1153 192C1161.4 182.876 1175.23 179.024 1187 180L1191 173L1196 175L1198 165L1200 166C1201.97 159.601 1204.95 153.776 1203 147C1210.38 147.105 1213.41 151.481 1216 142C1221 143.868 1224.84 144.786 1227 150L1228 150L1230 141L1234 143L1235 140C1242.48 143.992 1247.53 150.269 1248 159L1249 159L1250 151L1252 151L1261 174C1265.44 170.758 1267.08 170.169 1272 173L1272 166L1275 163L1276 163L1277 165C1284.95 158.07 1292.12 151.993 1296 142L1313 136L1315 142L1322 137L1325 160L1333 157L1335 160C1338.24 154.425 1340.52 152.072 1347 153L1347 157L1348 157L1350 153C1357.76 155.714 1358.75 147.829 1361 142C1371.13 143.648 1374.28 127.636 1380.04 121.325C1385.25 115.62 1397.95 102.536 1406 102.216C1412.47 101.959 1417.15 105.439 1423 107C1422.51 117.477 1413.7 126.001 1410.8 136C1408.56 143.752 1411.87 151.998 1409.58 160C1407.72 166.526 1401.79 171.236 1398.51 177C1396.55 180.433 1396.65 184.532 1394.72 188C1387.06 201.806 1372.42 207.347 1371 224L1376 223C1370.63 237.171 1387.87 232.308 1395 228L1396 228C1400.2 230.871 1404.24 227.475 1408 225L1407 230L1424 231L1418 244C1428.17 243.163 1440.94 227.689 1441 245L1456 241L1452 250L1458 251L1455 259L1537 257L1534 264L1539 264C1539.78 268.717 1543.61 270.749 1548 272L1546 284L1551 281L1554 283L1554 284C1548.97 286.464 1547.85 291.05 1546 296L1560 295L1557 308C1549.25 305.338 1524.66 315.323 1524 324C1529.66 325.832 1527.94 333.109 1530 338L1535 331L1536 331L1543 331C1545.24 337.873 1547.66 344.756 1546 352L1547 352L1548 349L1550 349L1558 362L1561 361L1567 375L1566 380L1571 379C1566.42 386.184 1562.18 393.312 1571 399L1571 401L1568 402C1571.03 412.345 1584.98 423.322 1596 423C1593.1 430.146 1587.61 435.156 1598 438L1594 443C1594.19 452.394 1581.97 445.069 1580 452L1583 450L1584 450C1584.91 452.833 1587.86 456.9 1591 455L1592 455C1589.12 466.678 1580.56 472.22 1568 470L1576 475L1576 476C1566.66 476.594 1545.26 472.791 1547 489L1541 491L1541 492L1550 495L1548 498C1554.98 501.93 1556.08 515.949 1560.06 522.714C1561.75 525.584 1566.47 527.5 1567.22 530.785C1567.68 532.772 1565.18 532.8 1564 533L1572 548L1561 551L1565 560C1558.08 558.571 1535.34 551.142 1539 564L1539 568L1536 569C1540.54 575.73 1543.93 579.968 1536 585C1535.66 605.042 1551.7 616.642 1562.48 633C1569.66 643.904 1573.22 657.687 1577 670L1576 671L1573 670L1569 679L1569 684L1565 682L1565 688L1539.15 665.079L1533 659C1523.93 660.146 1513.26 659.044 1506.05 652.481C1497.7 644.878 1498.53 635.246 1485 637L1486 641L1496 643L1496 644C1491.73 645.571 1491.1 647.666 1492 652C1498.38 650.115 1503.26 650.401 1500 658L1505 661L1506 661L1508 659C1507.54 665.073 1499.75 672.489 1504.9 678.486C1507.27 681.233 1511.4 681.314 1514 684L1503 685C1504.23 689.209 1508.1 688.952 1512 689L1495 693L1512 706L1517 707L1518 713L1518 714C1509.44 717.626 1494.33 720.004 1487 713L1486 713L1485 716L1488 720L1481 717L1480 724L1483 722L1484 722C1488.24 728.87 1485.99 731.153 1479 734L1479 736L1487 741L1486 754L1477 753L1476 756C1470.77 755.509 1455.6 752.043 1453 756L1448 754L1447 755L1448 760L1450 760L1448 766L1436 767C1436.86 770.081 1437.91 770.522 1441 770C1442.28 777.686 1435.79 778.343 1430.58 774.196C1421.43 766.921 1419.21 751.496 1410 746C1416.72 762.722 1425.23 772.981 1437.79 785.439C1442.12 789.742 1443.79 794.011 1450 796C1453.42 786.051 1465.52 788.331 1474 789L1479.85 798.711L1463 812L1475 815C1471.56 822.298 1476.27 825.584 1468 832C1464.62 828.282 1462.28 832.458 1462 836L1455 835L1453 842L1456 841L1448 864L1444 861C1438.74 862.62 1437.42 866.88 1437 872L1433 869L1432 869L1433 876L1418 871C1413.32 875.683 1410.94 879.119 1410 886L1405 886L1404 882C1400 885.222 1398.33 888.897 1398 894L1392 890L1392 916L1388 911L1390 924L1386 918L1382 920L1378 914L1378 918L1375 917L1374 932L1373 932L1367 923L1369 934L1365 931L1364 931L1361 933C1359.82 929.472 1356.53 913.47 1349 921C1346.42 923.576 1351.73 932.432 1346 931L1347 936L1345 934L1344 934C1331.68 936.638 1324.24 919.906 1326 910L1325 909C1319.62 911.715 1320 916.607 1319 922L1317 922L1316 918L1315 918L1313 923L1312 923L1302.47 914.682L1284 896L1286 910L1280 907L1291 928L1287 927L1283 926C1276.87 929.348 1268.87 926.628 1269 919L1255 921C1250.18 929.044 1247.29 936.662 1248 946L1240 940L1235 947L1234 947L1232 945L1224 955L1222 943C1208.88 943.592 1206.4 925.453 1204 915L1200 919L1192 915C1190.67 923.851 1203.68 932.205 1207.69 939.259C1210.47 944.165 1207.54 949.887 1209.14 955C1212.13 964.512 1219.29 971.393 1224 980L1218 979L1219 984L1211 977L1210 980L1205 975L1201 976L1201 969L1200 969L1199 972L1186 966L1185 966C1179.2 972.898 1170.92 963.203 1169.84 957C1169.48 954.955 1170.35 951.541 1168.95 949.851C1165.51 945.674 1166.27 954.452 1167 956L1160 955L1159 949L1156 949L1156 956C1152.45 953.764 1149.81 952.1 1147 956L1156 964L1157 960L1158 960L1155 981L1153 981L1149 977L1153 983L1152 986C1148.12 981.596 1141.05 979.151 1137.95 974.812C1133.39 968.437 1138.08 962.908 1128 959C1118.2 973.203 1126.23 982.189 1124 997C1120.2 993.202 1119.26 984.693 1113.56 983.006C1109.84 981.905 1106.26 986.765 1104 989C1098.6 994.333 1089.81 1003.4 1082 1004L1081 1000C1077.39 1000.73 1073.3 999.127 1070.04 1000.15C1060.69 1003.08 1065.92 1017.38 1063 1024L1066 1021L1068 1029L1062 1031L1062 1032L1075 1044L1076 1044L1076 1041L1077 1041L1081 1050L1077 1050L1064 1043L1064 1055C1049.35 1043.23 1046 1026.57 1046 1009L1044 1009L1041 1018C1038.22 1018.34 1038.56 1019.53 1036.96 1021.79C1030.64 1030.72 1036.34 1030 1038 1040L1026 1036L1025 1029L1023 1029L1017 1042C1009.84 1037.84 1009.42 1032.7 1010 1025L1007 1032L1006 1032L1005.27 1016L995.62 1000L992 978C984.868 979.986 985.951 972.121 985 967L984 967L976 988L966 987L970 1000C963.213 1001.38 962.243 1005.91 964 1012L952 1007C949.546 1010.15 944.783 1008.07 941.434 1011.06C937.271 1014.78 940.959 1023.06 941 1028C933.382 1023.87 930.794 1008.79 930 1001L921 1015L921 1009C913.547 1013.44 912.023 1026.03 912 1034C905.336 1030.26 908.56 1025.17 907 1019L906 1019L902 1028L904 1019L899 1019C898.11 1024.83 894.004 1028.76 888 1028L886 1036C881.857 1033.71 882.324 1031.07 884 1027C876.324 1028.33 873.931 1046.19 869 1052L866 1033C856.037 1036 861.755 1045.02 861.17 1052C860.77 1056.78 857.422 1060.95 854 1064L856 1056L851 1063L849 1063L850 1050L849 1050L842 1063L838 1062L836 1067L835 1067L834 1056L838 1056L832 1048C833.752 1056.98 829.148 1062.66 827 1071L826 1071L824 1056L818 1035L811 1040L812 1031L797 1043L796 1042L802 1029L793 1027L793 1023L781.404 1026.08L772 1038L774 1026L766 1030L770 1022L769 1021L761 1030L760 1025C746.74 1028.89 742.266 1048.52 734 1058C731.469 1044.42 729.903 1028.33 744 1020L745 1011L737 1005L725.687 1015.52L712 1020L712 1017L736 988L736 985L733 984L726 991C727.263 984.799 733.707 984.225 735.339 978.945C737.297 972.612 726.351 965.396 723 961L722 964C712.089 958.405 712.848 958.847 702 964L704 959C689.842 955.146 676.779 961.353 670 974C669.554 965.032 679.567 955.633 677.279 948C673.444 935.208 660.359 929.062 651.04 921.585C646.074 917.6 640.739 910.742 636.606 905.856C631.043 899.281 630.866 889.53 625.351 883.299C621.521 878.971 612.701 874.729 607 875L608 880L597 869L600 878L591 870L590 870L593 904L592 904L589 901L591 924L590 924L588 923L587 920L585 920L582 936L578 935L578 941L577 941L572 935L572 940L567 931C561.594 931.862 561.059 934.994 561 940L559 939L565 965L549 957L546 959L552 984L540 972L538 980L524 962L520 966L518 961L517 961L516 973L512 971L506 980L506 969L504 969C503.942 975.883 502.97 981.276 495 979L496 971L485 973C484.093 980.879 479.378 986.459 478.213 994C477.381 999.384 478.84 1009.78 474 1013L475 1016L466 1016L465 1013L464 1013L452 1016L451 1011C439.223 1012.4 436.726 999.182 436 990L424 996L425 993L412 996C413.509 988.385 416.334 984.851 413 977C400.871 976.721 409.322 964.763 412 959L406 960L405 957L400 966L397 966L398.318 950.089L397 939L382 948L375 939L378 938L377 935C385.335 929.716 389.462 916.248 387 907L377.201 928.891L362 944L357 943C360.876 933.854 354.572 921.692 362 915L359 903L358 903C356.997 909.246 353.669 910.385 348 912L354 887L353 887L348 887C346.801 892.942 342.942 896.801 337 898C342.796 888.665 345.26 875.448 342 865L337 868L339 863C332.944 864.634 331.154 870.563 326 873.417C323.23 874.95 319.895 873.857 317 874.889C312.936 876.338 310.893 880.651 307 877L303 887L301 880L297 882L296 881C299.609 875.544 303.637 870.164 310 868C307.798 861.575 302.727 863.997 298 866L301 859L294 853C297.251 852.866 298.052 852.102 299 849C307.14 847.733 317.972 834.993 318 827L311 825L304 828L303 825L302 828C297.825 822.289 296.677 813.915 288 818L294 812C291.153 804.829 285.871 805.001 279 805C282.693 795.783 272.532 790.75 265 788L269 783L257 786C255.412 781.097 251.217 773.134 246 772L246 771C257.797 768.524 257.269 762.968 256 753C264.525 751.14 259.341 742.714 254 740C255.523 728.95 244.717 727.024 236 727C242.148 719.586 249.587 720.842 258 723C260.899 715.862 253.295 714.307 250 709L267 712C267 708.595 271.183 711.99 273 713.333C278.152 717.141 280.137 724.555 287 726L285 722C301.503 721.037 317.343 742.964 334 731C321.894 728.891 304.268 716.098 297 706L294 708C291.012 702.779 281.935 696.914 276 696L277 688L277 687L264 680L264 679L277 682C283.469 675.73 290.753 678.818 296 685C298.666 683 298.374 678.253 300 675C301.473 672.055 305.978 669.089 305 673L306 673L307 664L301 664L301 662L302 661L316 664L308 651L304 651L305 645C309.513 649.363 311.903 650.83 318 649L318 652L321 652C324.116 644.633 320.854 639.628 313 638C312.932 632.152 311.204 627.149 306 624L306 623L320 628C319.154 616.873 305.488 618.979 306 608C309.265 610.241 322.308 614.416 318 606L322 601C326.203 602.236 337.602 607.525 339 601L341 604L352 606L345 593L341 594L337 587L331 588C331.747 576.881 324.331 576.534 318.318 568.957C315.627 565.566 316.737 561.686 315.012 558.015C313.349 554.478 309.829 552.409 308 549L315 548L308 542L308 541L311 540L311 539C304.158 535.727 294.923 531.688 300 523L292 517C302.55 514.152 307.387 519.718 316 524L316 519L326 526L322 517C330.219 521.938 334.791 521.9 344 520L343 513L349 512L349 511L340 505L333 504C335.786 501.754 342.46 500.822 344.288 498.39C349.17 491.893 329.827 495.787 328 496L334 485L323 484C334.407 471.467 351.946 467.879 367 462C365.639 458.214 363.932 456.812 360 456L374 441L363 433L366 434C368.858 428.942 378.961 427.515 384 430L385 430C382.986 424.385 377.734 426.226 373 424.857C365.254 422.616 360.387 417.076 352 417C353.903 435.622 324.719 440.377 311 440C313.578 436.409 314.506 434.239 313 430L307 433L319 415L312 418L308 414L302 405L298 408C299.782 403.515 306.696 396.125 302 392L302 391L302 390L304 386L305 386L306 390L308 383L310 388C312.609 385.816 314.695 380.605 312 378L312 377C318.043 375.698 310.08 369.554 308 367L313 366L316 368L314 357L320 358L313 345L326 336C324.784 331.504 326.628 329.82 330 327L322 324L322 323L326 321L338 320L341 318C348.565 311.091 344.63 306.071 346 298C360.086 303.923 350.162 287.904 350 281L354 282L351 268L352 268L354 272L355 272C353.404 265.601 351.291 253.67 345 251L345 249L354 246L352 243L361 246L364 238L361 229L369 230L370 226L388 234C385.199 225.243 380.879 218.37 392 217L390 210L396 212L399 207L399 212L400 212L400 208L401 208L402 212C408.34 211.781 417.641 219.25 421.662 224.042C424.166 227.025 424.016 230.836 428 232L426 214L427 214L437 234L440 233L440 241L441 241C443.227 237.302 445.514 234.41 450 234L448 231L451 236L460 248L461 248L463 236L468 242L463 231L468 234L469 234L472 229C472.544 233.848 474.479 236.205 479 238L472 223L478 228L479 228L474 217L478 218C479.056 213.745 480.571 205.472 485 204L488 183L494 188C491.904 180.079 490.13 171.888 493 164L500 164L498 157L502 159L510 141C512.455 144.303 514.186 144.196 518 143L518 148L522 155L523 155L526 134L543 162L547 160L548 170L551 168L557 186L558 186L555 167L556 170L557 170L559 163L560 163C560.422 167.091 561.342 169.917 565 172L561 155C566.785 159.922 568.847 171.352 577 172L577 171C564.402 161.932 569.908 155.023 571 143L574 144L575 141C580.555 143.956 583.365 144.737 586 151L587 151L587 137L593 137L594 142L595 142L599.199 131L596 111L597 111L600 114C602.652 109.154 606.455 105.815 607.606 100C608.609 94.9335 605.526 90.8945 605.275 86C604.975 80.1367 607.089 72.7728 608.286 67C610.838 54.6859 617.896 45.1731 622.864 34C626.585 25.6307 627.403 8.66797 640 9L640 14L651 5L654 8L655 0L0 0z"/>
<path style="fill:#040404; stroke:none;" d="M655 0L654 8L651 5L640 14L640 9C627.158 8.06958 626.605 24.5868 622.864 33C618.186 43.5215 611.622 52.5803 608.745 64C607.089 70.5778 604.885 79.2347 605.133 86C605.296 90.4633 608.266 94.4996 607.567 99C606.62 105.096 601.786 108.648 600 114L597 111L596 111L598.627 131L595 142L594 142L593 137L587 137L587 151L586 151C584.051 144.274 580.94 143.49 575 141L574 144L571 143C569.325 153.652 563.357 164.498 577 171L577 172L561 155L565 172L560 163L559 163L557 170L556 170L555 167L558 186L557 186L551 168L548 170L547 160L543 162L532.81 146L526 134L523 155L522 155C521.88 151.308 521.687 149.223 518 148L518 143C514.07 143.895 512.755 144.017 510 141L502 159L498 157L500 164L493 164C489.629 171.006 491.404 180.878 494 188L488 183L485 204C480.35 204.939 478.629 213.589 478 218L474 217L479 228L478 228L472 223L479 238L472 229L469 234L468 234L468 231L463 231L468 242L463 236L461 248L460 248C459.043 242.762 455.626 238.581 451 236L448 231L450 234C445.131 234.107 442.795 236.627 441 241L440 241L440 233L437 234L427 214L426 214L428 232C419.576 226.865 414.779 210.275 402 212L401 208L400 208L400 212L399 212L399 207L396 212L390 210L392 217C380.326 216.272 384.647 226.218 388 234L370 226L369 230L361 229C360.523 233.161 360.053 235.802 364 238L361 246L352 243L354 246L345 249L345 251C351.216 254.874 352.563 265.242 355 272L354 272L352 268L351 268L354 282L350 281C350.068 288.554 359.214 301.97 346 298L341 318C339.357 315.576 338.419 317.886 338 320L326 321L322 323L322 324L330 327C325.896 329.446 323.863 331.352 326 336L313 345L320 358L314 357L316 368L313 366L308 367C309.751 369.97 315.428 374.299 312 377L312 378C313.743 381.37 312.279 385.118 310 388L308 383L306 390L305 386L304 386L302 390L302 391L302 392C305.64 397.028 299.456 402.743 298 408L302 405L303 408C306.492 409.057 307.432 410.418 308 414L312 418L319 415L307 433L313 430L311 440C324.566 441.861 355.212 435.188 352 417C360.116 417.196 365.352 423.174 373 425.198C377.843 426.479 382.095 425.14 385 430L384 430C380.338 426.429 367.681 429.112 366 434L363 433C364.544 437.948 369.129 440.061 374 441C368.541 446.74 362.033 447.143 360 456L367 462C353.676 464.862 330.383 471.747 323 484L334 485L328 496C330.184 495.914 346.222 492.124 343.797 497.663C342.624 500.343 335.391 501.264 333 504L340 505C340.879 509.231 345.035 510.293 349 511L349 512L343 513L344 520C334.37 521.297 330.885 520.686 322 517L326 526L316 519L316 524C308.592 518.507 301.642 513.422 292 517L300 523C293.443 531.269 304.005 536.648 311 539L311 540L308 541L308 542L315 548L308 549C309.33 553.054 313.219 555.128 315.012 559.004C316.704 562.663 315.572 566.573 318.318 569.896C324.114 576.909 331.117 577.536 331 588L337 587L341 594L345 593L352 606L341 604L339 601C335.329 606.657 327.271 602.086 322 601L318 606C323.52 614.832 308.583 609.02 306 608C304.69 619.399 318.285 616.975 320 628L306 623L306 624C310.275 627.907 312.814 632.163 313 638C319.626 640.277 326.787 647.128 318 652L318 649C312.055 650.028 309.844 648.338 305 645L304 651L308 651L316 664L302 661L301 662L301 664L307 664L306 673L305 673C303.97 667.286 296.879 683.341 296 685C292.165 678.365 282.077 674.56 277 682L264 679L264 680L277 687L277 688L276 696L294 708L297 706C301.877 716.236 322.975 730.082 334 731C313.777 739.074 303.953 720.04 285 722L287 726C280.893 722.92 278.188 716.694 272.935 712.87C271.098 711.533 267.521 709.11 267 712L250 709C252.462 714.824 259.517 715.785 258 723C250.478 720.483 240.5 718.803 236 727C244.941 727.075 254.134 729.531 254 740C258.698 743.607 263.863 750.107 256 753C256.656 762.881 257.293 767.693 246 771L246 772L257 786L269 783L265 788C272.259 791.628 281.425 795.604 279 805C285.988 805.005 290.223 805.624 294 812L288 818C297.004 815.002 296.869 823.055 302 828L302 825L303 825L304 828L311 825C312.912 827.921 314.696 827.69 318 827C317.91 834.582 306.318 846.927 299 849L294 853L301 859L298 866C303.133 864.633 306.743 862.284 310 868C303.305 869.351 298.695 874.953 296 881L297 882L301 880L303 887L307 877L308 880L326.961 873.233L339 863L337 868L342 865C344.39 876.646 342.087 887.162 337 898C343.471 897.279 347.279 893.471 348 887L350 890L353 887L354 887L348 912C354.066 910.743 357.392 909.624 358 903L359 903L362 915C354.731 919.459 359.478 935.06 357 943L362 944L377.829 928.891L387 907C388.721 917.327 384.74 927.918 377 935L378 938L375 939L382 948C388.799 947.778 391.886 942.907 397 939L397.827 950.089L397 966L400 966L405 957L406 960L412 959C408.823 963.858 400.186 979.004 413 977L412 996L425 993L424 996L436 990C436.395 999.207 438.844 1013.53 451 1011L452 1016C456.648 1015.7 461.264 1017.56 464 1013L465 1013L466 1016L475 1016L474 1013C478.121 1012.12 476.92 1006.68 477.611 1003C479.596 992.445 483.911 983.507 485 973L496 971L495 979C503.388 982.452 503.981 975.937 504 969L506 969L506 980C509.706 977.925 511.789 975.281 512 971L516 973L517 961L518 961L520 966L524 962C529.678 968.406 528.504 977.118 538 980L540 972L552 984C551.361 975.907 550.53 965.856 546 959L549 957L565 965L559 939L561 940C561.156 935.205 562.18 932.398 567 931L572 940L572 935L577 941L578 941L578 935L582 936L585 920L587 920L590 924L591 924L589 901L592 904L593 904L590 870L591 870C592.974 874.473 595.013 877.223 600 878L597 869C601.194 873.452 600.91 878.902 608 880L607 875C612.69 875.032 621.764 879.721 625.351 884.144C629.195 888.881 629.958 895.701 632.866 901C636.442 907.516 643.219 914.407 648.326 919.892C657.342 929.576 671.832 933.902 676.856 948C679.52 955.477 668.445 964.772 670 974C678.951 962.237 688.63 956.128 704 959L702 964C706.108 963.209 708.767 958.944 713 958.389C718.346 957.688 718.854 967.316 723 961L735.093 977.982L726 991L733 984L736 985L736 988C722.594 992.831 721.889 1008.81 712 1017L712 1020C724.644 1018.43 727.234 1011.3 737 1005L745 1011C742.919 1014.48 742.257 1016.28 744 1020C728.956 1025.83 731.059 1045.79 734 1058C744.727 1049.27 746.464 1031.6 760 1025L761 1030L769 1021L770 1022L766 1030L774 1026L772 1038L780.885 1026.98L793 1023L793 1027L802 1029L796 1042L797 1043L812 1031L811 1040L818 1035L824 1056L826 1071L827 1071C830.078 1062.91 834.454 1056.84 832 1048L838 1056L834 1056L835 1067L836 1067L838 1062L842 1063L849 1050L850 1050L849 1063L851 1063L856 1056L854 1064C867.484 1056.05 853.297 1039.35 866 1033L869 1052C875.742 1046.4 875.426 1029.71 884 1027C881.951 1030.86 881.256 1034.43 886 1036L888 1028C894.334 1029.53 898.531 1025.18 899 1019L904 1019L902 1028L906 1019L907 1019C907.95 1024.97 904.986 1031.42 912 1034C912.077 1025.4 914.421 1014.92 921 1009L921 1015L930 1001C929.504 1008.04 933.465 1025.55 941 1028L940.5 1012.31L952 1007L964 1012C963.052 1005.82 963.848 1002.38 970 1000L966 987L976 988L984 967L985 967C985.644 972.099 984.798 981.411 992 978C992.294 987.213 992.011 994.395 996.532 1003C998.978 1007.65 1003.26 1010.87 1004.93 1016C1006.58 1021.09 1004.73 1026.67 1006 1032L1007 1032L1010 1025C1009.06 1032.47 1009.05 1038.88 1017 1042L1023 1029L1025 1029L1026 1036L1038 1040L1033.03 1026.11L1037.06 1022.67L1041 1018L1044 1009L1046 1009C1046 1024.98 1047.94 1046.22 1064 1055L1064 1043C1068.08 1044.2 1073.4 1053.56 1077 1050L1081 1050L1077 1041L1076 1041L1076 1044L1075 1044C1072.34 1038.3 1067.8 1034.33 1062 1032L1062 1031L1068 1029C1069.01 1025.47 1069.23 1023.09 1066 1021L1063 1024C1067.11 1017.24 1060.91 1005.59 1069.14 1001.15C1072.35 999.421 1077.29 1001.06 1081 1000L1082 1004C1089.94 1003.74 1098.52 995.393 1104 989.996C1106.18 987.852 1109.95 982.51 1113.56 983.636C1119.35 985.441 1119.39 993.866 1124 997L1121.89 974L1128 959L1136.8 967.576L1137.9 975.49L1152 986L1153 983L1149 977L1153 981L1155 981L1158 960L1157 960L1156 964L1147 956C1150.41 952.892 1152.15 954.291 1156 956L1156 949L1159 949L1160 955L1167 956C1166.42 954.279 1166.86 946.124 1168.98 950.542C1169.98 952.632 1169.26 955.712 1169.76 958C1171 963.675 1180.34 973.938 1185 966L1186 966C1188.79 971.773 1193.29 971.186 1199 972L1200 969L1201 969L1201 976L1205 975C1206.53 978.796 1208.26 981.179 1211 977C1213 980.978 1214.44 983.279 1219 984L1218 979L1224 980C1220.48 970.759 1212.68 964.494 1209.59 955C1207.88 949.755 1210.62 943.327 1207.69 938.455C1203.34 931.244 1192.32 923.935 1192 915L1200 919L1204 915C1205.48 925.087 1208.98 945.219 1222 943L1224 955C1227.98 952.76 1231.79 949.746 1232 945L1234 947L1235 947L1240 940L1248 946C1247.67 936.434 1251.29 929.631 1255 921L1269 919C1268.4 926.916 1276.86 930.298 1283 926L1287 927L1291 928L1280 907L1286 910L1284 896L1301.68 914.682L1312 923L1313 923L1315 918L1316 918L1317 922L1319 922C1320.3 916.549 1320.25 912.619 1325 909L1326 910C1321.2 926.597 1335.8 932.4 1347 936L1346 931C1350.89 930.324 1347.16 924.906 1349.76 922.102C1356.09 915.279 1359.73 929.779 1361 933L1364 931L1365 931L1369 934L1367 923L1373 932L1374 932L1375 917L1378 918L1378 914L1382 920L1386 918L1390 924L1388 911L1392 916L1392 890L1398 894L1404 882L1405 886L1410 886L1418 871L1433 876L1432 869L1433 869L1437 872C1437.85 866.967 1439.28 863.401 1444 861L1448 864L1456 841L1453 842L1455 835L1456 838L1462 836C1462.6 832.307 1464.32 829.756 1468 832C1477.26 827.177 1472.84 822.533 1475 815L1463 812C1467.63 806.548 1484.59 804.745 1478.9 795.129C1477.54 792.824 1475.34 791.326 1474 789C1465.99 787.988 1452.08 785.789 1450 796C1444.21 793.237 1442.17 788.874 1437.79 784.615C1424.96 772.163 1418.85 761.285 1410 746C1418.7 753.622 1420.07 766.58 1429.72 774.196C1434.93 778.309 1443.23 778.442 1441 770L1436 767L1448 766L1450 760L1448 760L1447 755L1448 754L1453 756L1476 756L1477 753L1486 754L1487 741L1479 736L1479 734C1486.34 731.849 1489.57 728.608 1484 722L1483 722L1480 724L1481 717L1488 720L1486 713L1487 713C1492.46 720.654 1510.84 717.826 1518 714L1518 713L1517 707L1512 706C1510.54 696.757 1500.32 698.813 1495 693L1512 689L1503 685L1514 684C1511.77 680.524 1507.34 681.061 1504.98 677.722C1500.72 671.679 1507.8 665.14 1508 659L1506 661L1505 661L1500 658C1504.6 650.18 1498.19 649.278 1492 652C1491.54 647.834 1492.33 646.074 1496 644L1496 643L1486 641L1485 637C1498.06 636.082 1497.2 644.85 1505.41 652.546C1512.57 659.249 1523.86 660.697 1533 659C1533.68 662.517 1536.94 663.272 1539.21 666.003C1545.82 673.951 1555.86 683.294 1565 688L1565 682L1569 684L1569 679L1573 670L1576 671L1577 670C1573.94 657.329 1569.72 643.006 1562.48 632C1558.45 625.892 1552.92 622.358 1548.39 616.946C1544.91 612.787 1545.97 608.445 1543.79 604.043C1542.08 600.602 1538.06 599.268 1536.29 595.896C1534.55 592.583 1536.19 588.561 1536 585C1544.69 581.226 1541.19 574.715 1536 569L1539 568L1539 564C1536.43 551.562 1558.11 559.072 1565 560L1561 551C1565.83 552.373 1568.11 550.803 1572 548L1564 533C1565.75 533.034 1568.41 532.975 1567.5 530.225C1566.47 527.058 1562.54 525.423 1560.75 522.714C1556.71 516.565 1555.29 500.402 1548 498L1550 495L1541 492L1541 491L1547 489C1547.7 473.123 1565.85 477.109 1576 476L1576 475L1573 475L1568 470C1580.41 472.919 1590.14 466.986 1592 455L1591 455L1590 457L1584 450L1583 450L1580 452C1582.83 446.183 1595.94 451.764 1594 443L1598 438C1588.08 434.277 1593.97 430.455 1596 423C1584.35 422.691 1572.78 411.809 1568 402L1571 401L1571 399C1563.2 391.695 1566.99 387.419 1571 379L1566 380L1567 375L1561 361L1558 362L1550 349L1548 349L1547 352L1546 352C1548 345.168 1545.82 337.364 1543 331L1536 331L1535 331L1530 338C1528.4 332.942 1530.1 325.063 1524 324C1525.35 315.344 1548.92 306.399 1557 308L1560 295L1546 296L1554 284L1554 283L1551 281L1546 284L1548 272L1539 264L1534 264L1537 257C1510.23 251.974 1482.15 259.018 1455 259L1458 251L1452 250L1456 241L1441 245C1440.99 226.603 1428.66 242.535 1418 244L1424 231L1407 230L1408 225L1396 228L1395 228C1387.26 231.37 1371.95 236.604 1376 223L1371 224C1373.26 208.446 1386.02 202.686 1394.12 189.996C1396.51 186.267 1396.36 181.776 1398.51 178C1401.96 171.943 1408.26 167.026 1409.81 160C1411.53 152.219 1408.71 143.334 1411.14 136C1414.42 126.109 1422.77 117.588 1423 107C1417.31 104.551 1411.6 100.896 1405 101.765C1396.43 102.892 1382.97 116.489 1377.85 123.093C1372.87 129.523 1370.66 142.303 1361 142C1358.08 147.56 1357.71 154.221 1350 153L1348 157L1347 157L1347 153C1340.5 151.487 1337.45 153.897 1335 160L1333 157L1332 160L1325 160L1322 137L1315 142L1313 136L1296 142C1293.14 147.356 1283.39 164.749 1276 163L1275 163L1272 166L1272 173C1267.29 169.12 1265.15 169.798 1261 174L1252 151L1250 151L1249 159L1248 159C1247.79 150.188 1243.31 143.09 1235 140L1234 143L1230 141L1228 150L1227 150C1225.44 144.353 1221.27 143.41 1216 142C1212.86 150.374 1210.19 146.693 1203 147L1200 166L1198 165L1196 175L1191 173L1187 180C1176.8 178.318 1158.65 182.031 1153 192C1148.39 189.049 1148.97 186.089 1149 181L1148 181L1137 194L1138 183L1122 202L1124 186L1116 190L1118 181L1109 192L1108 192L1106 187C1109.7 185.135 1110.69 183.089 1111 179L1104 184L1104 180L1094 184C1100.47 176.948 1101.97 170.411 1102 161L1098 168L1095 167L1088 174C1089.11 168.241 1092.32 163.477 1097 160L1094 153L1093 153L1089 158C1090.96 150.518 1090.77 144.3 1100 144L1106 119L1092.86 130.632L1088.19 126.117L1096.98 112.999L1101 90L1098 91L1100 87L1096 87L1093 69C1087.85 71.4745 1086.59 69.5829 1084 65L1080 66L1080 70L1077 68L1065 85C1052.79 82.2294 1056.79 97.1096 1049 102C1051.27 96.8764 1058.56 75.5422 1051 74C1056.89 65.3466 1060 59.5976 1060 49L1059 49L1058 52L1055 52C1053.87 47.7047 1052.36 45.2612 1048 44L1048 37L1041 64L1040 64L1038 49C1042.98 47.3464 1043.03 39.7241 1044 35C1036.09 40.5164 1032.37 60.1899 1019 50L1018 51L1020 55L1016 57L1015 56L1016 49L1014 52C1007.98 46.8102 1011.46 39.7311 1013 33C1004.05 35.6252 999.098 49.6774 997 58L996 58L998 44L997 44C988.879 54.6173 976.916 63.6111 976 78L971 75L967 85L966 85L968 65L965 66C964.991 69.2643 963.812 73.4872 960 72L944 81C945.572 68.2118 938.333 60.4513 933 76L931 76L930 69L918 83L917 73L912 74L914 79L909 79L902 59L897 56L895 56L888 68C888.989 59.9961 888.085 57.0875 880 55L883 60C879.257 62.3322 877.348 65.8862 873 63L872 63L868 71L866 71C865.153 67.4433 866.114 60.0463 862.682 57.8896C857.573 54.6783 849.042 60.1691 852 66L849 64L847 70L839 72L839 67L832 74C819.74 65.2467 828.406 83.464 829 88C822.815 84.4699 818.789 83.5265 812 86L811 81L807 84L803 81L806 95L796 84L798 79C790.238 80.1085 766.254 75.2443 770.394 88.9105C771.158 91.4327 772.929 93.6028 774 96L765 96L781 116L763 116C759.269 107.006 749.377 110.482 742 107L744 116L740 114L740 120L729 117C733.235 122.978 737.857 123.199 737 132C742.211 136.337 745.625 142.604 751.043 146.699C755.031 149.713 759.971 150.447 764 153.27C770.884 158.094 778.864 161.434 782 151C789.691 160.361 786.533 166.34 787.325 177C788.102 187.463 790.217 197.589 791 208L776 185L771 185C768.429 194.854 766.016 193.841 771 203C762.128 205.151 760.17 197.648 753.157 196.72C747.071 195.915 741.174 202.674 742 208L736 205L728 209C723.32 198.871 710.838 178.541 698 179L700 190L699 190C696.336 182.959 689.9 176.631 687.692 169.83C686.119 164.983 688.497 158.209 687.812 153C687.174 148.157 684.156 143.992 684.184 139C684.245 127.86 693.72 113.853 690.351 103.039C687.64 94.3366 682.015 74.1358 672 72L672 63L669 64L672 38L670 38L668 44L669 33L671 34L669 32L669 31C673.238 27.2429 673.227 10.1432 668.11 6.35803C665.427 4.3728 662.224 6.99084 659.377 5.92444C657.042 5.04968 656.356 1.84888 655 0M658 4L659 5L658 4M672.667 19.3334L673.333 19.6666L672.667 19.3334M671 31L672 32L671 31M674 35L675 36L674 35M1016 38L1016 40L1018 40L1018 38L1016 38M895.667 51.3334L896.333 51.6666L895.667 51.3334z"/>
<path style="fill:#fdfdfd; stroke:none;" d="M1023 57L1022 61L1023 61L1023 57M1016 62L1015 64L1017 64L1016 62z"/>
<path style="fill:#040404; stroke:none;" d="M960 67L961 68L960 67z"/>
<path style="fill:#fdfdfd; stroke:none;" d="M669 69L669 72L670 72L669 69z"/>
<path style="fill:#040404; stroke:none;" d="M780.333 71.6667L780.667 72.3333L780.333 71.6667z"/>
<path style="fill:#fdfdfd; stroke:none;" d="M1048 71L1050 73L1050 71L1048 71M904.333 73.6667L904.667 74.3333L904.333 73.6667z"/>
<path style="fill:#040404; stroke:none;" d="M1096 73L1096 78L1097 78L1096 73M920 79L921 80L920 79z"/>
<path style="fill:#fdfdfd; stroke:none;" d="M1091 89L1091 91L1093 91L1093 89L1091 89M832 91L833 92L832 91M1094 99L1095 100L1094 99z"/>
<path style="fill:#040404; stroke:none;" d="M1108 116L1113 116L1113 112L1108 116z"/>
<path style="fill:#fdfdfd; stroke:none;" d="M784 117L785 118L784 117M785.667 119.333L786.333 119.667L785.667 119.333z"/>
<path style="fill:#040404; stroke:none;" d="M1091 125L1092 126L1091 125z"/>
<path style="fill:#fdfdfd; stroke:none;" d="M741 129L741 132L744 131L744 130L741 129M747 130L747 132L749 132L747 130M1082 132L1080 136L1085 136L1082 132M526.333 142.667L526.667 143.333L526.333 142.667z"/>
<path style="fill:#040404; stroke:none;" d="M1096 149L1096 154C1097.93 151.885 1098.37 150.829 1096 149z"/>
<path style="fill:#fdfdfd; stroke:none;" d="M1228.33 152.667L1228.67 153.333L1228.33 152.667M1067 155L1068 156L1067 155M1074 161L1074 164L1076 164L1076 161L1074 161M1324 161L1324 167L1325 167L1324 161M500 167L501 168L500 167M1085 167L1086 168L1085 167M1256 170L1257 171L1256 170z"/>
<path style="fill:#040404; stroke:none;" d="M1104 179L1105 180L1104 179z"/>
<path style="fill:#fdfdfd; stroke:none;" d="M559.333 190.667L559.667 191.333L559.333 190.667M682.667 191.333L683.333 191.667L682.667 191.333M772 203L773 204L772 203z"/>
<path style="fill:#040404; stroke:none;" d="M727.333 204.667L727.667 205.333L727.333 204.667M425.667 211.333L426.333 211.667L425.667 211.333z"/>
<path style="fill:#fdfdfd; stroke:none;" d="M675 211L676 212L675 211M740 221L741 222L740 221M386.333 223.667L386.667 224.333L386.333 223.667M688 226L688 228L690 228L688 226M372 229L373 230L372 229z"/>
<path style="fill:#040404; stroke:none;" d="M444 231L445 232L444 231z"/>
<path style="fill:#fdfdfd; stroke:none;" d="M365 235L366 236L365 235M388 235L389 236L388 235M389 237L392 240L394 235L389 237M1419 235L1420 236L1419 235M446 236L447 237L446 236M462.333 240.667L462.667 241.333L462.333 240.667z"/>
<path style="fill:#040404; stroke:none;" d="M348 241L348 244L350 244L350 241L348 241z"/>
<path style="fill:#fdfdfd; stroke:none;" d="M449.333 242.667L449.667 243.333L449.333 242.667M364 243L365 244L364 243z"/>
<path style="fill:#040404; stroke:none;" d="M339 245L339 246L344 249C343.823 245.563 342.277 245.259 339 245z"/>
<path style="fill:#fdfdfd; stroke:none;" d="M450 245L451 248L452 248L452 245L450 245M1461 260L1460 262L1462 262L1461 260M1536 267L1535 270L1536 267M356 277L357 284L358 284L356 277M352 286L354 288L352 286z"/>
<path style="fill:#040404; stroke:none;" d="M1561 301L1560 306L1562 306L1563 301L1561 301z"/>
<path style="fill:#fdfdfd; stroke:none;" d="M347 313L348 314L347 313M1517 322L1515 323L1515 324L1517 322M1503 328C1507.11 328.74 1511.4 329.814 1514 326C1509.81 325.473 1505.73 324.14 1503 328M1499 327L1499 328L1502 328L1499 327M1500 349L1491 359L1491 360L1512 352L1511 333C1507.34 333.289 1499.38 332.215 1496.43 334.067C1489.93 338.15 1494.48 347.31 1500 349z"/>
<path style="fill:#040404; stroke:none;" d="M312 365L313 366L312 365M311 375L312 376L311 375z"/>
<path style="fill:#fdfdfd; stroke:none;" d="M387 429C387.866 431.967 388.992 432.287 392 432L387 429M396 433L395 436L400 436L400 435L396 433M402 438L404 441L402 438M405 441L408 444L405 441M410.667 447.333L411.333 447.667L410.667 447.333M369 457L369 460L371 460L371 457L369 457M379 463L380 466L381 466L381 463L379 463M335 483L336 484L335 483M348 497L349 498L348 497M352 512L355 510L352 512M318 551L319 552L318 551M1531 555L1531 556L1535 556L1531 555M333 564L336 564L335 562L333 564M1528 567L1528 568L1531 568L1528 567M342 605L345 608L342 605z"/>
<path style="fill:#040404; stroke:none;" d="M304 607L305 608L304 607z"/>
<path style="fill:#fdfdfd; stroke:none;" d="M1466 607L1466 609L1468 607L1466 607z"/>
<path style="fill:#040404; stroke:none;" d="M300 611L300 612L303 613L300 611M303 647L304 648L303 647M316 647L317 648L316 647M1503 652L1504 653L1503 652z"/>
<path style="fill:#fdfdfd; stroke:none;" d="M1488 659L1489 660L1488 659z"/>
<path style="fill:#040404; stroke:none;" d="M301 665L302 666L301 665z"/>
<path style="fill:#fdfdfd; stroke:none;" d="M318 665L323 668L322 665L318 665M1498.67 667.333L1499.33 667.667L1498.67 667.333M1499 674L1502 676L1499 674M294 701L294 705L295 705L296 701L294 701M1503 703L1504 704L1503 703M288 725L287 729L290 728L290 725L288 725M1406 735L1406 738L1407 738L1406 735M1440 747L1440 748L1446 754L1447 754L1446 747L1440 747M258 765L259 766L258 765M256 771L257 772L256 771M262 780L266 780L266 777L262 780M254 779L254 780L257 780L254 779z"/>
<path style="fill:#040404; stroke:none;" d="M278 805L279 806L278 805z"/>
<path style="fill:#fdfdfd; stroke:none;" d="M1448.67 839.333L1449.33 839.667L1448.67 839.333z"/>
<path style="fill:#040404; stroke:none;" d="M342 869L343 870L342 869M1418 873L1419 874L1418 873M1416 874L1417 875L1416 874M1409 887L1410 888L1409 887z"/>
<path style="fill:#fdfdfd; stroke:none;" d="M1389 891L1390 892L1389 891z"/>
<path style="fill:#040404; stroke:none;" d="M335 899L336 900L335 899z"/>
<path style="fill:#fdfdfd; stroke:none;" d="M349 905L349 908L351 908L351 905L349 905M794 905C788.29 909.705 785.383 914.512 785 922L784 922C779.63 913.502 771.904 919.215 767 924L770 920C769.421 918.09 769.015 916.666 768 919C761.747 915.863 751.908 927.556 747 931C751.784 938.674 755.395 958.386 765 960C767.428 951.573 773.14 939.742 780.442 934.498C786.396 930.223 797.475 929.13 800 922L794 920C797.731 914.512 797.786 910.5 794 905M736.333 906.667L736.667 907.333L736.333 906.667M1183 907L1188 918L1183 907M1277 907L1278 908L1277 907M1312 910L1312 916L1314 916L1312 910z"/>
<path style="fill:#040404; stroke:none;" d="M345 911L346 912L345 911z"/>
<path style="fill:#fdfdfd; stroke:none;" d="M364 913L365 914L364 913M583 919L584 920L583 919z"/>
<path style="fill:#040404; stroke:none;" d="M1376.67 919.333L1377.33 919.667L1376.67 919.333M1202 922L1202 924L1204 924L1204 922L1202 922z"/>
<path style="fill:#fdfdfd; stroke:none;" d="M1279 922L1278 924L1280 924L1279 922M559 929L560 933L559 929z"/>
<path style="fill:#040404; stroke:none;" d="M1283 929L1287 932L1287 931L1283 929z"/>
<path style="fill:#fdfdfd; stroke:none;" d="M362 931L363 932L362 931z"/>
<path style="fill:#040404; stroke:none;" d="M1374.67 935.333L1375.33 935.667L1374.67 935.333z"/>
<path style="fill:#fdfdfd; stroke:none;" d="M780 945L779 950C782.054 949.346 781.936 947.993 782 945L780 945M763 968C770.181 969.163 779.266 959.607 781 953C774.717 952.762 765.062 962.245 763 968M546 953L547 958L548 958L546 953M1142 954L1142 956L1144 956L1144 954L1142 954M1050 955L1053 958L1050 955M1056 956C1056.44 964.01 1056.79 977.158 1066 980L1068 970C1062.88 968.383 1060.13 960.737 1058 956L1056 956M1064 959L1069 964L1070 959L1064 959M1203 958L1204 959L1203 958z"/>
<path style="fill:#040404; stroke:none;" d="M1156 959L1157 960L1156 959M687 964L690 961L687 964z"/>
<path style="fill:#fdfdfd; stroke:none;" d="M1196 965L1197 966L1196 965M1142 972L1148 975C1147.65 970.475 1145.66 968.374 1142 972M1203 972L1206 972L1205 970L1203 972M1215 971L1216 972L1215 971z"/>
<path style="fill:#040404; stroke:none;" d="M486.667 977.333L487.333 977.667L486.667 977.333M1199 977L1200 978L1199 977z"/>
<path style="fill:#fdfdfd; stroke:none;" d="M933 995L934 1002L935 1002L935 995L933 995M962.667 999.333L963.333 999.667L962.667 999.333z"/>
<path style="fill:#040404; stroke:none;" d="M966 1003L968 1006L966 1003z"/>
<path style="fill:#fdfdfd; stroke:none;" d="M1032 1015L1032 1020L1033 1020L1032 1015M869 1017L870 1018L869 1017M776 1021L776 1024L777 1024L776 1021M1023 1024L1027 1023L1023 1024M873.667 1023.33L874.333 1023.67L873.667 1023.33M891.667 1023.33L892.333 1023.67L891.667 1023.33M1013 1031L1014 1032L1013 1031z"/>
<path style="fill:#040404; stroke:none;" d="M1006 1033L1007 1034L1006 1033z"/>
<path style="fill:#fdfdfd; stroke:none;" d="M848 1037L847 1038L856 1050L854 1039L848 1037M826 1039L823 1045L826 1039z"/>
<path style="fill:#040404; stroke:none;" d="M1038 1041L1039 1044L1040 1044L1040 1041L1038 1041z"/>
<path style="fill:#fdfdfd; stroke:none;" d="M1075 1045L1076 1046L1075 1045M1077.33 1047.67L1077.67 1048.33L1077.33 1047.67z"/>
</svg>
