<?xml version="1.0" standalone="yes"?>
<svg xmlns="http://www.w3.org/2000/svg" width="1920" height="1080">
<path style="fill:#fdfdfd; stroke:none;" d="M0 0L0 1080L823 1080L825 1069L820 1069L822 1057L816 1058L815 1048C818.916 1047.54 818.286 1044.43 818 1041L816 1041L812 1048L813 1041C802.85 1043.15 811.048 1052.71 803 1058L794.453 1043L801 1030L788 1037L790 1027L783 1027L783 1048L773 1047L768 1036L767 1036L761 1034L756 1037L754 1033L754 1038C744.2 1040.33 746.037 1049.55 741.775 1057C737.115 1065.14 730.374 1065.31 732 1076L724 1071L720 1076C719.168 1065.73 722.433 1063.85 725.323 1054.71C727.774 1046.96 728.382 1038.75 732 1031L724 1036L723 1035L725 1030L721 1031L722 1025L716 1028L715 1025L708 1034L707 1024L706 1024C703.823 1027.85 702.703 1030.15 698 1030C693.386 1033.11 692.411 1028.07 694.868 1024.59C698.826 1018.99 707.129 1011.25 713 1008C712.153 1001.93 710.106 1000.15 704 1000L704 997C721.664 996.572 735.246 975.081 715.985 964.639C705.7 959.063 702.523 973.189 693 970L700 961L675 975L676 967L671.019 977.83L656 992C660.482 985.882 666.294 979.781 667 972L655 981L674.589 951.985L668.282 938L641 910L637 912L627 887C621.878 886.86 618.81 884.043 618 879L608 876L609 880L591 875C594.222 888.38 595.728 899.894 591 913L590 913L588 909C589.479 915.547 595.345 924.111 590 930C589.654 925.419 588.16 923.005 584 921L586 928L582 929C582 933.023 583.19 938.797 580 938L582 942L580 940L579 940L579 945L575 941L574 945L564 933C562.463 938.415 560.553 943.592 562.39 949.217C565.153 957.674 570.989 959.246 569 970L564 970L552 963L554 991L541 978L540 986L534 986L527 969L522 972L519 964L518 964L518 968L520 974L517 974L514 980L512 972L509 984L505 980L501 986L495 986L495 974C486.906 972.664 490.044 979.574 489 985C483.458 981.235 481.946 988.594 480.746 993C478.13 1002.61 482.057 1009.85 482.466 1019C482.576 1021.46 481.975 1026.49 479.608 1027.88C476.161 1029.91 471.88 1026.03 469 1024.62C462.612 1021.49 454.82 1018.79 449 1024L448 1024L446 1020L442 1024L433 999L428 998L417 995C414.437 999.704 411.732 999.631 407 1001C407.081 995.459 409.97 991.603 414 988C409.727 980.515 404.492 983.335 399 988C400.721 981.068 409.165 966.615 403 961L391 974L392 947L377 956L376 956C376.63 952.411 377.094 950.256 374 948L375 942L369 946L368 941L367 941L364 952L359 950L355 952L352 949L358 930L358 929L357 925L354 921L357 922L360 909L359 909L353 916C351.735 910.098 346.463 915.589 344 918L353 891L350 892L349 887L348 887C347.731 895.29 340.301 901.479 332 901C334.064 898.99 345.278 888.882 338 888L338 887L341 887L341 878L342 871C337.923 871.809 335.998 871.524 336 867L326.228 877.111L317 880L307 879L299 900L298 900L295.59 881L309 865C304.158 864.158 301.782 864.812 298 868L299 859C293.31 860.117 290.729 860.729 288 855L292 854L292 853C290.847 849.352 298.271 849.843 300.995 848.088C307.676 843.784 314.929 835.175 311 828L294 828C295.251 818.039 292.371 817.385 284 822L291 812L291 809C285.726 806.056 282.387 804.73 277 808C278.956 801.296 279.146 794.118 270 796C269.412 788.458 265.353 792.132 260.054 790.958C254.381 789.701 250.564 786.808 244 786C247.065 780.343 246.653 775.719 244 770C249.555 767.818 254.73 763.353 254 757L248 760L252 749L260 752L257 744L256 744L256 747L254 745C245.914 744.197 252.058 736.153 247.486 731.434C241.447 725.202 230.025 732.2 226 721L244 720L247 716L247 713L243 711L245 707L240 704L240 703C245.278 699.693 256.554 709.749 258 703C262.98 705.252 269.053 707.212 273.557 710.274C277.155 712.72 278.982 716.895 283.019 718.826C291.507 722.885 303.232 722.612 308 732L313 730L314 730C318.217 735.029 323.276 733.783 329 732C322.731 725.104 313.6 718.929 304 720L306 715L273.183 694.182L257 679L262 678L262 677L260 675L278 680C282.029 672.399 291.761 678.055 296 683L297 683L299 669C287.405 663.085 304.394 661.636 309 662L300 641L315 649L318 645L319 650L321 650C322.085 645.534 320.8 642.466 316 642L309 636L305.345 623.447L319 625C312.978 615.161 297.376 617.713 295 605L299 608L299 604L317 610L317 609L311 603L318 602L316 597C322.328 599.155 335.377 607.457 340 600L343 601L344 595L324 587L325 581L329 582C327.083 575.032 319.925 572.809 315.479 567.572C309.884 560.98 311.638 545.662 298 548L295 539C299.209 540.618 302.429 542.414 306 539C302.618 537.309 287.119 524.53 293 526L289 522L283 510C292.923 508.611 300.879 511.939 310 516C312.214 513.201 314.894 515.078 318 516L318 515L313 507L329 520L337 520C338.232 507.546 335.8 510.52 329 502L342 498L342 495L322 496C323.7 492.814 325.385 491.879 329 492L330 486L316 484L316 482L364 462L356 458L356 453L352 456C355.053 449.888 365.213 444.213 372 444C369.287 441.137 363.929 440.24 362.086 436.672C357.975 428.715 377.963 428.083 382 428L382 427L352 418C353.815 425.409 349.298 427.547 344.09 431.919C335.008 439.541 310.425 450.555 300 442L305 438L302 435L293 436C295.615 431.147 300.823 427.717 306 426L304 413C295.145 411.422 294.341 411.912 293 403L296 404L297 397L295 393L295 392L295 391L302 385L304 369L303 372L302 372C300.162 363.383 304.579 359.677 312 356L312 355C306.714 351.914 305.616 346.348 312 344L310 342L310 341L312 337C322.176 337.003 318.605 326.495 320 320C326.978 320.457 329.714 317.878 334 313L333 315L334 315L340 308L340 307L338 301L339 301L342 304L339 297L350 294L353 300C350.216 289.598 343.886 284.226 346 273L347 273L350 277L349 265L350 265L351 267C350.888 258.459 343.13 251.615 336 248C336.865 239.635 339.266 240.661 346 244L340 233L353 240L356 237L356 242L361 241L357 233L354 225L364 228L366 222L379 225L380 224L377 215L376 215L376 217L375 217L375 206L376 213L377 213C379.592 208.87 381.548 210.553 385 213C386.878 206.361 386.935 205.309 394 208L394 201L407 210L410 209L414 216L418 215L418 219L419 219L423 215L418 201C428.663 206.44 427.819 227.461 440 228L439 225L443 224L451.348 231.389L459 244L460 244L461 237L459 232L462 234L459 227C463.893 228.886 467.033 230.455 472 228C472.598 232.543 473.978 236.077 479 236C476.081 229.526 470.39 224.178 468.697 217.063C467.556 212.269 472.121 215.132 473 218L477 211L480 212L481 211L485.41 191.089L488 176L489 180L490 180C489.743 174.463 487.965 168.926 483 166L488 162L489 157L495 156L497 164L498 164L495 149L496 149L499 155L500 155L500 139C505.417 140.631 507.145 139.283 512 137L513 143C516.02 139.945 515.812 137.087 515 133L521 138L522 138L521 129L524 134L525 134L524 124L529 123C530.488 129.281 531.172 138.598 537 142L537 146L539 143L543 154C553.326 155.829 552.664 163.52 552 172L554 172L559 157L561 164L562 164L560 147L562 147L568 160L567 145L568 147L569 147L568 137L578 138L578 134L586 144L585 131L586 131L587 134L597 136C600.333 129.292 595.233 127.445 594.214 120.999C593.274 115.057 594.652 108.928 594 103L599 112L604 100L607 100L604.054 73L613 41L615 42L619 33C625.175 31.7533 624.454 18.3029 626.424 13C627.5 10.1019 629.889 7.89539 630.904 5.01929C631.661 2.87268 631.017 1.01233 628.771 0.317871C623.344 -1.35986 615.659 0 610 0L570 0L437 0L0 0z"/>
<path style="fill:#040404; stroke:none;" d="M631 0L623.113 26.9984L619 33L615 42L613 41C603.757 60.5346 603.907 79.3466 607 100L604 100L599 112L594 103L594.214 121.996L597 136L587 134L586 131L585 131L586 144L578 134L578 138L568 137L569 147L568 147L567 145L568 160L562 147L560 147L562 164L561 164L559 157L554 172L552 172C552.975 164.28 554.041 153.577 543 154L539 143L537 146L537 142L529 123L524 124L525 134L524 134L521 129L520 132L522 138L521 138L515 133L513 143L512 137L500 139L500 155L499 155L496 149L495 149L498 164L497 164L495 156L489 157L488 162L483 166C487.164 169.707 489.497 174.451 490 180L489 180L488 176L485.161 190.17L481 211L480 212L477 211L473 218C472.494 214.967 467.528 211.201 467.877 216.149C468.362 223.025 475.434 230.448 479 236C474.482 234.94 473.321 232.232 472 228L459 227L462 234L459 232L461 237L460 244L459 244L451.363 230.624L443 224L439 225L440 228C426.607 226.513 430.923 205.03 418 201L423 215L419 219L418 219L418 215L414 216L410 209L407 210C404.323 204.559 399.233 203.34 394 201L394 208C387.219 204.283 386.252 206.193 385 213C381.814 209.918 379.007 207.988 377 213L376 213L375 206L375 217L376 217L376 215L377 215L380 224L379 225L366 222L364 228L354 225L357 233L361 241L356 242L356 237L353 240C349.641 234.983 345.65 234.147 340 233L346 244C339.521 239.336 336.283 239.807 336 248C341.987 251.763 350.025 258.132 351.167 265.667C351.422 267.35 349.808 264.595 350 265L349 265L350 277L347 273L346 273C343.21 284.327 349.293 289.762 353 300L350 294L339 297L342 304L339 301L338 301L340 307L340 308L333 315L334 313L333 313C329.657 318.152 326.14 319.829 320 320C318.211 326.237 321.821 336.363 312 337L310 341L310 342L312 344C305.227 345.478 306.125 352.752 312 355L312 356C304.141 358.602 299.143 363.623 302 372L303 372L304 369L302 385L295 391L295 392L295 393L297 393L297 397L296 404L293 403C292.834 412.506 295.196 412.068 304 413L306 426C300.598 427.075 294.756 430.585 293 436L302 435L305 438L300 442C304.955 447.489 309.792 444.643 316 443.502C326.079 441.648 335.803 439.52 344.09 432.714C349.448 428.312 354.967 425.528 352 418L382 427L382 428C377.625 428.036 356.273 428.419 362.032 437.467C363.995 440.55 369.106 441.849 372 444C365.43 443.26 353.942 449.541 352 456L356 453L356 458L364 462L316 482L316 484L330 486L329 492C325.195 491.694 323.218 492.251 322 496L342 495L342 498L329 502L337.019 508.403L337 520L329 520L313 507L318 515L318 516C314.897 514.683 311.01 511.311 310 516C301.862 511.286 292.208 507.42 283 510L289 522L293 526C286.548 527.145 302.926 538.089 306 539L295 539L298 548C311.829 547.279 309.399 561.5 315.475 568.41C319.859 573.396 326.38 575.665 329 582L325 581L324 587C331.483 589.068 336.606 598.391 344 595L343 601L340 600C333.749 606.518 323.256 598.723 316 597L318 602L311 603C311.807 606.873 313.059 608.358 317 609L317 610L299 604L299 608L295 605C294.605 616.03 312.579 617.912 319 625L304.752 623.323L309 636L316 642C320.412 642.834 321.541 645.791 321 650L319 650L318 645L315 649L300 641L309 662C305.317 661.535 300.717 660.124 297.149 661.742C292.24 663.969 295.538 667.948 299 669L297 683L296 683C292.889 677.519 280.68 671.521 278 680L260 675L262 677L262 678L257 679C260.78 681.328 264.639 682.365 267.617 685.98C269.659 688.46 269.87 692.138 272.328 694.197C281.646 702.005 294.32 711.073 306 715L304 720C314.047 719.32 321.448 726.138 329 732C323.039 733.243 318.983 734.011 314 730L313 730L308 732C305.01 722.218 290.87 722.204 283.019 718.196C274.027 713.605 268.518 706.265 258 703C253.833 709.019 246.232 698.664 240 703L240 704L245 707L243 711L247 713L247 716L244 720L226 721C228.444 732.461 240.558 725.979 246.721 731.448C253.553 737.511 244.979 743.682 256 747L256 744L257 744L260 752L252 749L248 760L254 757C253.632 763.298 249.188 766.981 244 770C245.952 776.019 246.542 780.031 244 786C249.509 787.48 254.077 789.744 259.129 791.227C264.283 792.74 268.799 788.533 270 796C278.923 795.015 278.001 801.383 277 808C282.748 805.641 285.379 806.791 291 809L291 812C286.649 814.14 284.853 817.29 284 822C292.44 818.769 294.775 817.741 294 828L311 828C315.368 839.754 300.849 846.357 292.181 850.167C290.192 851.041 290.943 852.083 292 853L292 854L288 855C290.08 861.273 293.3 860.762 299 859L298 868L309 865C304.259 870.169 295.926 874.295 294.858 881.996C294.09 887.535 297.98 894.104 298 900L299 900L307 879L308 882L317 880L326.856 877.227L336 867C335.296 871.774 337.881 872.205 342 871L341 878C342.379 881.689 341.34 884.9 338 887L338 888L341 888L332 901C340.818 902.698 347.901 895.346 348 887L349 887L350 892L353 891L344 918C347.021 915.979 350.312 912.287 353 916L359 909L360 909L357 922L354 921L357 925L358 929L358 930C353.754 931.411 353.263 944.077 352 949L355 952L359 950L364 952L367 941L368 941L369 946L375 942L374 948L376 956L377 956L392 947C389.916 954.905 388.407 966.147 391 974L403 961C408.336 968.369 400.159 979.869 399 988C405.208 984.178 408.63 981.656 414 988C409.359 990.825 406.232 995.496 407 1001C411.911 1000.1 415.136 1000.17 417 995C421.49 997.266 422.829 1000.65 428 998C428.742 1001.53 430.322 1000.51 433 999C433.678 1006.49 436.457 1018.76 442 1024L446 1020L448 1024L449 1024C455.537 1019.88 461.681 1021.37 468.424 1024.77C471.651 1026.39 475.726 1030.01 479.671 1028.36C482.375 1027.23 482.826 1021.49 482.715 1018.99C482.323 1010.17 478.235 1003.23 480.749 993.985C481.949 989.571 483.257 982.289 489 985C490.502 979.526 487.079 973.58 495 974L495 986L501 986L505 980L509 984L512 972L514 980L517 974L520 974L518 968L518 964L519 964L522 972L527 969L534 986L540 986L541 978L554 991L552 963L564 970L569 970C571.555 959.265 565.532 957.362 562.733 948.907C560.917 943.42 562.888 938.373 564 933L574 945L575 941L579 945L579 940L580 940L582 942L580 938L582 929L586 928L584 921L590 930C596.092 925.678 589.958 914.513 588 909L590 913L591 913C596.919 901.245 594.695 887.16 591 875C596.941 878.361 601.947 881.337 609 880L608 876L618 879C618.431 884.473 621.495 887.188 627 887L637 912L641 910C645.863 924.794 659.721 927.295 668.282 939C670.706 942.315 674.655 946.541 674.353 950.996C674.103 954.697 670.55 956.676 668.673 959.514C664.358 966.038 657.444 973.637 655 981L667 972L656 992C669.489 987.325 668.005 975.273 676 967L675 975L700 961L693 970C702.31 974.407 705.22 959.985 714.996 964.688C734.841 974.235 721.237 996.056 704 997L704 1000C709.784 1000.32 711.775 1002.44 713 1008C707.461 1010.01 694.542 1021.06 692.836 1027.15C691.73 1031.09 695.628 1032.71 698 1030C703.024 1030.84 704.243 1028.37 706 1024L707 1024L708 1034L715 1025L716 1028L722 1025L721 1031L725 1030L723 1035L724 1036L732 1031C727.705 1038.01 727.059 1046.21 725.127 1053.83C722.769 1063.13 718.579 1065.4 720 1076L724 1071L732 1076C731.258 1065.92 737.32 1065.7 741.775 1058C746.38 1050.03 744.312 1041.73 754 1038L754 1033L756 1037L761 1034C762.754 1036.84 764.068 1037.98 767 1036L768 1036L773 1047L783 1048L783 1027L790 1027L788 1037L801 1030C791.318 1043.05 796.546 1045.55 803 1058C812.635 1053.62 803.037 1044.56 813 1041L812 1048C815.538 1046.76 815.803 1044.57 816 1041L818 1041C818.108 1044.15 818.852 1047.54 815 1048L816 1058L822 1057L820 1069L825 1069L823 1080C828.188 1078.32 828.374 1072.85 829 1068L830 1068C830.743 1072.45 832.822 1072.87 837 1072L837 1080C843.607 1078.08 841.346 1068.16 844 1063L845 1078L850 1077C850.739 1080.43 853.058 1079.98 854.722 1076.97C857.597 1071.77 859.469 1063.78 861.917 1058C865.056 1050.59 861.783 1047.84 860 1041C870.719 1042.04 864.825 1055.23 864 1062C872.668 1061.34 877.881 1046.72 876 1039L884 1037L882 1048C889.171 1043.43 888.946 1036.49 888 1029C893.423 1030.16 895.781 1028.14 900 1025C900.968 1028.45 902.628 1028.58 906 1028L905 1034C911.978 1035.46 911 1041.04 911 1047C920.276 1040.99 908.333 1019.82 920 1013L920 1022L924 1022L927 1013L946 1040L941 1012L944 1016L956 1011C956.12 1014.69 956.313 1016.78 960 1018L960 1013L962 1013L962 1018L963 1018C966.762 1012.63 970.779 1009.78 968 1003L973 1005L970 990L974 994L976 994C978.251 990.468 979.847 989.785 984 990L979 977L986 975C985.383 979.19 988.261 980.617 989.006 984.464C991.368 996.658 993.496 1009.66 1005 1017C1003.58 1024.62 1000.71 1038.12 1004 1045L1005 1045L1008 1034L1009 1034C1009 1039.46 1007.06 1045.84 1007.41 1050.92C1007.64 1054.19 1010.66 1053.78 1011 1051C1024.66 1047.77 1017.43 1038.56 1026 1031L1027 1037C1040.39 1038.41 1037.23 1052.26 1046 1058L1044 1064L1047 1065C1049.65 1054.85 1043.64 1045.69 1038.88 1037C1037.46 1034.4 1033.44 1030.61 1033.48 1027.56C1033.52 1025.02 1037.19 1024.47 1039 1024L1043 1014L1046.51 1034.17L1055.79 1049.96L1064.21 1059.18L1076 1055L1076 1056C1073.56 1058.5 1076.5 1059.57 1079 1060L1078 1055L1084 1060L1090 1057L1096 1066L1099 1064L1079.68 1040.45L1075 1040L1074 1040L1072.57 1027.09L1069 1014C1081.87 1018.48 1088.66 1005.74 1097.17 998.785C1102.54 994.397 1109.56 991.21 1113 985L1127 1003C1128.82 996.839 1126.03 992.949 1125.62 987C1124.94 976.975 1126.59 970.283 1132 962L1133 962L1137.32 976.211L1151 990L1152 990C1156.29 986.516 1160.04 992.155 1162 996L1163 996C1165.18 986.405 1151.01 973.177 1160 965L1160 972L1161 972L1163 969L1166 972L1162 967C1164.35 962.357 1162.21 961.058 1160 957L1166 960L1169 959L1176 971L1179 969L1180 973L1176 972L1175 976L1192 976L1193 971C1195.67 975.302 1192.04 984.064 1199 983L1204 987L1210 983L1211 979L1212 979C1211.83 983.575 1213.77 985.526 1218 987L1223 1004L1224 1004C1227.88 994.834 1225 990.507 1220 983L1224 983L1230 998L1232 998C1234.96 990.995 1233.46 986.807 1229 981L1238 984C1237.42 975.383 1230.92 974.06 1225.04 969.181C1217.84 963.201 1213.88 954.245 1216 945L1223 963L1225 962L1227 966L1234 964L1235 952L1236 952C1236.16 956.916 1237.38 959.125 1242 961L1239 957L1240 949L1241 949L1245 953L1245 950L1246 950L1247 950L1249 953L1255 939L1252 940L1254 929C1259.48 934.145 1268.31 924.362 1269 936L1273 934L1274 934L1279 939L1279 933L1284 944L1284 941L1285 941L1286 941L1287 944L1294 941L1295 949L1296 949C1298.67 935.782 1292.71 926.502 1286 916L1289 916L1286 902L1287 902L1291 910L1296 909C1299.14 920.051 1309.31 926.997 1318 934L1318 931L1319 931L1335 944L1337 944L1338 941L1340 941L1344 946L1348 939L1352 943L1355 935L1356 935L1363 937L1364 940L1374 942L1376 928L1384 927L1385 936L1389 935L1388 929L1398 936C1393.55 926.599 1393.45 920.367 1393 910L1394 910L1396 912L1394 901L1397 904L1398 901L1401 903L1407 889L1416 892L1414 886C1421.37 890.97 1423.27 887.127 1425 880L1430 879C1433.99 880.44 1437.42 881.759 1439 877L1434 876L1434 875L1446 867L1447 870L1455 866L1453 861L1457 861L1455 856L1464 856L1459 850L1467 850L1468 843L1465 840L1465 839L1468 837L1472 838L1480 834C1480.38 830.592 1481.75 829.813 1485 829L1487 821L1480 807L1493 804C1492.07 798.204 1488.92 798.523 1484 800L1491 791C1481.26 788.343 1450.95 778.755 1450 796C1444.4 792.464 1435.29 783.843 1435 777L1449 780L1443 767L1457 765L1454 755L1495 756L1489 747L1493 744L1497 744L1497 742L1483 735L1497 736L1486 721L1492 722C1495.07 716.579 1499.03 720.484 1504 720.231C1513.3 719.759 1520.98 715.204 1530 714L1521 703L1510 700L1509 696C1503.81 697.04 1500.2 696.207 1496 693C1504.75 694.884 1511.41 694.93 1520 692L1512 688L1512 687L1518 685C1515.44 680.235 1509.97 679.328 1505 678L1505 672C1509.5 670.133 1514.48 667.86 1516 663C1522.69 664.747 1529.87 663.43 1535.99 667.481C1548.55 675.806 1553.49 690.59 1569 696L1569 691C1578.58 693.211 1578.7 683.414 1577 677C1585.95 676.578 1578.47 663.091 1576.1 659C1570.57 649.427 1568.97 638.638 1562.68 629.015C1559.18 623.67 1553.51 621.356 1549.66 616.661C1547.06 613.491 1547.97 611.037 1550 608L1550 607L1536 597L1542 592L1538 586C1542.57 585.644 1543.66 583.718 1546 580L1546 579L1540 572L1540 571L1541 561L1560 562.274L1572 565L1571 552C1577.79 549.671 1573 532.809 1571 527C1561.88 526.718 1554.15 506.205 1555 498L1549 494L1555 488L1555 487L1549 486C1550.89 480.897 1553.5 482.525 1558 481.309C1561.55 480.352 1564.25 477.542 1568 477.164C1572.77 476.683 1577.15 479.846 1582 480L1577 476C1580.48 471.978 1612.58 460.367 1592 452L1599 448L1602 439L1596 432L1601 432L1601 425L1604 421C1598.1 419.849 1593.31 422.17 1589 417C1582.45 416.123 1574.19 404.021 1576 398L1570 397L1573 375L1569 376C1569.49 368.143 1569.02 360.176 1561 357L1563 351L1558 352L1552 344C1552.64 336.876 1549.75 324.429 1542 324L1543 320C1550.7 321.497 1555.66 315.645 1562 312L1563 316L1565 311C1569.36 312.16 1571.25 311.128 1573 307C1579.89 308.569 1588.97 299.273 1591 293L1587 295L1588 291L1576 291L1576 287L1580 289L1584 275C1575.38 276.879 1576.35 269.106 1575 263L1568 263L1567 263L1554 264L1557 252L1558 252L1559 256L1563 256C1561.25 251.427 1558.52 251.268 1554 252L1555 249L1537 250L1537 248L1541 248L1541 247L1510 252.808L1499.96 250.88L1461 254L1461 247L1457 246L1460 237L1443 244L1444 231L1421 240L1421 239L1428 229L1426 233L1425 233L1409 225L1399 230L1398 226C1391.22 228.484 1383.07 227.144 1379 234C1376.1 229.524 1377.68 221.738 1371 222L1373 211C1395.46 202.362 1397.57 175.008 1414 160C1411.56 151.753 1411.63 138.741 1415.67 131C1420.54 121.694 1430.91 111.627 1428 100L1425 102C1422.46 93.5577 1409.05 95.1558 1403 99.1088C1394.13 104.906 1382.18 114.418 1375.93 123C1371.48 129.097 1370.97 137.185 1364 141L1362 138C1357.92 144.493 1359.41 153.192 1350 151L1349 154L1348 154L1347 149C1341.33 149.7 1338.03 150.09 1336 156L1334 154L1333 154L1328 156L1325 131L1321 134L1316 133L1315 136C1309.92 131.984 1302.14 132.597 1301 140L1294.6 140.182L1291.44 147.576L1277 163L1276 163L1273 161C1265.99 168.992 1262.56 162.289 1255 161C1253.15 155.137 1255.7 146.332 1250 143C1250.96 153.836 1242.59 139.771 1241 137L1229 136L1227 137L1227 143L1214 139L1215 142L1213 146L1206 140L1205 144L1204 144L1204 141L1200 141L1199 162L1196 161C1192.85 177.632 1164.39 181.146 1150 185L1151 169C1143.09 171.616 1147.18 187.078 1138 192L1142 177L1123 201L1126 184L1130 185L1124 182L1126 179L1122 170L1121 170L1111 187L1110 186L1111 176L1098 182C1100.07 177.742 1101.28 172.118 1103.86 168.286C1108.69 161.096 1115.98 157.49 1108 150L1111 151L1111 141L1109 146C1103.93 146.452 1101.74 142.842 1099 139L1106 140L1106 139L1102 139L1110 119C1116.06 116.756 1124.57 110.056 1123 103L1127 104L1126 97L1130 95C1123.04 93.9935 1122.47 101.62 1118.61 105.856C1112.65 112.4 1100.6 121.242 1093 126L1103 109L1105 113L1106 113L1104 106L1103 95C1110.02 91.063 1113.68 69.3796 1106 65L1104 73L1103 73L1103 66L1100 68L1101 55L1094 53L1090 56L1094 56L1087 65L1088 48L1081 51L1080 56L1076 55L1071 61L1057 81C1059.94 69.3063 1067.58 61.8036 1066 49C1062.57 47.0093 1062.82 44.7629 1063 41L1057 43L1051 22L1046 34C1037.96 31.4875 1038 37.5359 1038 44L1033 46L1034 43L1030 37L1028 37L1024 42C1026.64 35.8544 1026.98 31.3483 1025 25L1030 24L1028 21L1032 20L1031 16L1024 19C1014.08 33.8104 1018.32 13.8976 1013 9L1012 9L1007.77 29.9984L998.361 39.1582L988 52L990 45C984.999 46.9535 982.283 50.2147 980 55L979 55L978 50L977 50L977 56L971 58L974 45C969.398 47.791 967.67 50.7002 967 56L965 56L963 53L952 72L945 72L947 61L942 55L936 55L936 68C929.358 66.6431 929.769 62.8531 930 57C925.677 59.837 925.857 64.3072 925 69L923 69L922 63L921 63L920 66L919 66L916 59L912 59L914 62L901 55L900 54L901 50L895 42L887 43L891 62L890 62C888.417 55.4707 884.047 51.6915 878 49L876 56L865 49L860 46L860 52L854 43L852 43L850 56C849.372 53.1454 845.13 45.0063 843.333 52.0741C842.282 56.2062 843.988 61.6932 844 66L841 66C840.404 58.7731 835.26 49.3076 827 50L830 68C824.382 61.9905 824.643 56.9055 815 55L814 60L817 66C810.639 64.62 808.198 65.6453 806 72L798 66L794 68L798 64L798 63C793.716 62.1159 791.332 62.6147 790 67L781 63L775 69L774 65L756 71C757.361 75.5132 758.16 81.4001 763 83L762 88C755.497 86.9382 754.261 90.7123 757 96L753 95L752 106L738 97L733 98C731.191 92.0836 724.114 94.1885 725.046 100C726.132 106.777 735.277 105.612 735 113L733 113L732 109C729.339 109.856 720.114 109.494 719.176 111.362C716.9 115.896 725.801 121.531 727.493 125.12C734.842 140.705 746.889 146.252 761.714 153.916C770.129 158.266 778.736 164.538 782 151L783 151L790 200C783.453 198.019 767.224 165.874 763.896 187C763.588 188.957 763.271 191.013 763.373 192.999C763.532 196.128 764.985 198.855 765 202L753 195L752 194L753 191L745 190C743.791 186.171 741.89 185.274 738 186L739 192L730 206C723.913 188.096 700.476 182.182 691.522 167.024C686.524 158.562 694.294 145.803 684 140L689 132C686.32 120.338 694.056 108.299 696 97L693 98L692 90L689 94L688 94C687.912 86.7612 684.739 84.0723 682.477 77.9398C681.214 74.517 683.5 69.5655 679 69C672.813 51.6349 675.727 40.7444 680 23L677 24L676 0L644 0L642 6L641 6L641 0L631 0z"/>
<path style="fill:#fdfdfd; stroke:none;" d="M633 0L634 1L633 0M641 0L641 6L642 6L644 0L641 0M676 0L677 24L680 23C675.137 39.0033 670.815 53.498 679 69C683.47 69.584 681.407 74.6019 682.111 77.9722C683.335 83.8311 687.882 86.9885 688 94L689 94L692 90L693 98L696 97C693.145 107.461 685.814 121.12 689 132L684 140C693.484 148.077 685.737 159.869 692.113 168.896C702.102 183.039 721.607 189.82 730 206L739 192L738 186C741.71 185.86 743.264 186.717 745 190L753 191L752 194L753 195L765 202C765.196 198.526 763.958 195.458 763.824 192C763.76 190.358 763.825 188.625 764.083 187C767.256 167.017 783.322 198.876 790 200L786.105 179L783 151L782 151C777.343 164.289 770.669 157.468 761.714 153.509C748.036 147.462 733.543 139.846 727.901 125.208C726.64 121.937 717.477 115.258 719.921 111.542C720.757 110.269 729.582 110.155 732 109L733 113L735 113C736.447 105.393 726.956 106.719 725.743 100C724.725 94.362 730.755 93.787 733 98L738 97L752 106L753 95L757 96C755.386 90.8896 756.041 87.8119 762 88L763 83L756 71L774 65L775 69L781 63L790 67C791.916 63.2344 793.859 62.5409 798 63L798 64L794 68L798 66L806 72C808.953 66.0878 810.61 65.1177 817 66C817.579 62.5771 817.397 61.1353 814 60L815 55L830 68L827 50C834.752 50.7371 840.004 58.7943 841 66L844 66C843.996 60.3161 845.082 40.3273 850 56C854.685 51.8037 851.481 48.3904 852 43L854 43L860 52L860 46L865 49L876 56L878 49C883.414 52.5664 887.796 55.7449 890 62L891 62L887 43L895 42L901 50L900 54L901 55L914 62L912 59L916 59L919 66L920 66L921 63L922 63L923 69L925 69L930 57C929.523 63.0968 928.724 67.18 936 68L936 55L942 55L947 61L945 72L952 72L963 53L965 56L967 56L974 45L971 58L977 56L977 50L978 50L979 55L980 55L990 45L988 52L999.153 39.1389L1008.21 30L1012 9L1013 9C1017.7 14.9872 1012.94 18.1881 1015.35 23.6775C1017.78 29.222 1023 21.2092 1024 19L1031 16L1032 20L1028 21L1030 24L1025 25L1024 42L1027 43L1028 37L1030 37C1030.26 40.4098 1030.68 41.9012 1034 43L1033 46L1038 44C1038.02 37.5753 1038.4 32.264 1046 34L1051 22L1057 43L1063 41C1062.55 44.8842 1061.84 47.6063 1066 49L1057 81L1065.79 68.0394L1076 55L1080 56L1081 51L1084 52L1088 48L1087 65L1094 56L1090 56L1094 53C1094.84 56.9365 1097.68 55.6272 1101 55L1100 68L1103 66L1103 73L1104 73L1106 65C1113 71.0837 1109.66 89.5156 1103 95L1104 106L1106 113L1105 113L1103 109L1093 126C1100.38 122.873 1112.84 112.452 1118.61 106.698C1122.86 102.46 1122.99 95.3058 1130 95L1126 97L1127 104L1123 103C1123.62 110.073 1115.69 115.93 1110 119L1102 139L1106 139L1106 140L1099 139C1101.14 143.376 1103.84 147.174 1109 146L1111 141L1111 151L1108 150C1114.97 159.665 1101.61 170.999 1098 182L1111 176L1110 186L1111 187L1121 170L1122 170L1126 179L1124 182L1130 185L1126 184L1123 201L1142 177L1138 192C1149.34 188.343 1142.52 173.639 1151 169L1150 185C1158.85 183.524 1165.33 179.883 1173.71 177.336C1184.17 174.157 1194.38 173.768 1196 161L1199 162C1202.23 153.635 1201.79 149.652 1200 141L1204 144L1205 144L1206 140L1213 146L1215 142L1214 139L1227 143L1227 137L1229 136L1241 137C1242.57 140.926 1252.61 154.437 1250 143L1255 161C1261.7 162.868 1267.55 170.312 1273 161L1276 163L1277 163C1281.96 158.928 1286.81 154.357 1290.77 149.282C1294.63 144.348 1292.75 138.482 1301 140L1303 138C1306.32 132.734 1309.93 133.217 1315 136L1316 133L1321 134L1325 131L1328 156L1336 156C1338.74 150.788 1341.67 150.327 1347 149L1348 154L1349 154L1350 151C1359.16 154.241 1358.87 144.926 1362 138L1364 141C1370.58 138.64 1370.69 132.432 1373.93 127C1379.11 118.324 1386.59 114.449 1394 108.36C1398.37 104.774 1401.38 99.5095 1407 97.5455C1413.35 95.3281 1421.79 95.574 1425 102L1428 100C1429.78 111.823 1420.65 120.486 1415.67 130C1411.61 137.778 1410.65 151.911 1414 160C1403.17 166.547 1401.21 178.042 1395.86 188C1390.83 197.359 1382.16 205.782 1373 211L1371 222C1377.84 222.131 1375.07 230.084 1379 234L1398 226L1399 230L1409 225L1425 233L1426 233L1428 229L1421 239L1421 240C1427.99 243.293 1435.98 232.086 1444 231L1443 244L1460 237L1457 246L1455 248L1461 247L1461 254L1500.68 251.145L1511 252.826L1541 247L1541 248L1537 248L1537 250L1555 249L1554 252C1558.39 251.684 1560.69 252.075 1563 256L1559 256L1558 252L1557 252L1554 264L1567 263L1568 263L1575 263C1575.89 269.239 1574.99 277.822 1584 275C1580.18 279.549 1580.23 283.299 1580 289L1576 287L1576 291L1588 291L1587 295L1591 293C1587.92 298.89 1580.07 307.669 1573 307C1570.77 310.574 1569.23 311.697 1565 311L1563 316L1562 312L1543 320L1542 324C1549.17 324.808 1552.31 337.238 1552 344L1558 352L1563 351L1561 357C1568.41 361.306 1569.14 367.871 1569 376L1573 375L1570 397L1576 398C1573.3 404.409 1582.15 416.659 1589 417C1592.12 422.659 1598.45 420.407 1604 421L1601 425L1601 432L1596 432L1602 439L1599 448L1592 452C1610.66 463.294 1580.33 470.118 1577 476L1582 480C1571.38 479.237 1568.54 477.53 1558 480.906C1553.42 482.372 1550.26 480.235 1549 486L1555 487L1555 488C1551.08 488.652 1550.19 490.324 1549 494L1555 498C1553.38 506.346 1561.53 527.335 1571 527C1572.41 533.365 1576.89 548.609 1571 552L1572 565L1560 562.129L1541 561L1540 571L1540 572L1546 579L1546 580L1538 586L1542 592L1536 597L1550 607L1550 608C1547.1 610.871 1546.69 614.168 1549.65 617.447C1557.48 626.111 1564.86 631.913 1570.17 643C1572.65 648.184 1572.64 653.944 1575.51 659C1577.73 662.899 1586.04 676.381 1577 677C1578.11 683.556 1578.3 691.841 1569 691L1569 696L1548.96 681.778L1535.99 666.85L1516 663L1505 672L1505 678L1518 685L1512 687L1512 688L1520 692L1496 693C1499.58 697.047 1503.95 697.461 1509 696L1510 700L1521 703L1530 714L1513.04 718.775L1496.06 718.475L1492 722L1486 721L1497 736L1483 735C1486.58 740.851 1490.87 740.537 1497 742L1497 744L1493 744L1489 747L1495 756L1454 755L1457 765L1443 767L1449 780L1435 777C1434.05 783.638 1444.13 793.492 1450 796C1451.98 778.455 1480.95 789.227 1491 791L1484 800C1488.71 799.185 1491.5 798.877 1493 804L1480 807L1487 821L1485 829C1481.47 829.564 1480.16 830.358 1480 834L1472 838L1468 837L1465 839L1465 840L1468 843C1464.98 845.208 1465.36 846.804 1467 850L1459 850L1464 856L1455 856L1457 861L1453 861L1455 866L1446 867L1434 875L1434 876L1439 877C1436.72 881.024 1434.05 880.025 1430 879L1425 880C1422.77 887.243 1421.51 889.58 1414 886L1416 892L1407 889L1401 903L1398 901L1397 904L1394 901L1396 912L1394 910L1393 910C1393.21 920.302 1392.03 927.14 1398 936L1388 929L1389 935L1385 936L1384 927L1376 928L1374 942C1370.41 939.354 1368.18 937.975 1364 940L1363 937L1356 935L1355 935L1352 943L1348 939L1344 946L1340 941L1338 941L1337 944L1335 944L1319 931L1318 934C1310.23 925.106 1300.39 920.356 1296 909L1291 910L1287 902L1286 902L1289 916L1286 916C1287.59 919.646 1290.97 921.553 1292.67 925.043C1296 931.868 1296.82 941.633 1296 949L1295 949L1294 941L1287 944L1284 941L1284 944L1283 944L1282 944C1281.54 939.577 1283.34 935.526 1279 933L1279 939L1274 934L1273 934L1269 936C1270.34 924.383 1259.26 932.611 1254 929L1252 940L1255 939L1249 953L1245 950L1245 953L1241 949L1240 949L1239 957L1242 961C1238.03 958.637 1236.35 956.664 1236 952L1235 952C1232.75 956.496 1232.05 959.268 1234 964L1227 966L1225 962L1223 963L1216 945C1213.3 954.224 1217.71 964.116 1225.04 969.957C1230.73 974.484 1236.92 975.927 1238 984L1229 981C1232.58 987.618 1234.4 990.436 1232 998L1230 998L1224 983L1220 983C1224.01 991.672 1227.16 993.859 1224 1004L1223 1004L1218 987C1214.42 985.099 1212.08 983.229 1212 979L1211 979L1210 983C1206.34 982.68 1205.08 983.479 1204 987L1199 983C1191.89 982.671 1197.02 975.071 1193 971L1192 976L1175 976L1176 972L1180 973L1179 969L1176 971L1169 959L1166 960L1160 957L1162 967L1166 972L1163 969L1161 972L1160 972L1160 965C1150.39 970.636 1164.28 987.823 1163 996L1162 996C1160.77 992.045 1155.63 984.622 1152 990L1151 990L1137.33 975.471L1133 962L1132 962C1119.95 975.396 1130.51 988.213 1127 1003L1113 985C1108.37 990.689 1101.82 994.077 1096.3 998.785C1087.63 1006.18 1081.98 1016.74 1069 1014L1072.44 1028.04L1074 1040L1075 1040C1079.92 1038.97 1080.66 1043.47 1083.25 1047C1087.93 1053.36 1095.03 1057.25 1099 1064L1096 1066L1090 1057L1084 1060C1082.79 1056.55 1081.74 1054.94 1078 1055L1079 1060C1076.49 1059.21 1075.16 1058.67 1076 1056L1076 1055C1072.34 1055.52 1067.8 1059.72 1064.21 1058.59C1055.14 1055.72 1046.92 1035.3 1045.5 1027C1044.7 1022.27 1046 1018.09 1043 1014L1039 1024C1036.67 1024.38 1032.81 1024.85 1033.17 1028.13C1034.66 1041.7 1049.53 1049.36 1047 1065L1044 1064L1046 1058C1038.67 1050.74 1040.09 1037.37 1027 1037L1026 1031L1019.7 1046.81L1011 1051C1010.66 1053.53 1007.95 1053.96 1007.64 1050.97C1007.15 1046.26 1009 1039.25 1009 1034L1008 1034L1005 1045L1004 1045L1005 1017C994.277 1006.68 986.505 989.795 986 975L979 977L984 990C979.616 989.321 977.784 989.808 976 994L974 994L970 990L973 1005L968 1003C969.938 1009.81 965.69 1012.22 963 1018L962 1018L962 1013L960 1013L960 1018L956 1011L944 1016L941 1012L946 1040L934.278 1025.79L927 1013L924 1022L920 1022L920 1013C907.971 1017.23 918.521 1039.64 911 1047C911 1040.96 912.412 1034.85 905 1034L906 1028L900 1025L888 1029C888.635 1037.06 888.19 1042.05 882 1048L884 1037L876 1039C877.057 1046.79 872.527 1060.68 864 1062C865.254 1055.89 871.012 1040.05 860 1041L863.233 1051L857.417 1065L853 1080L1920 1080L1920 0L676 0z"/>
<path style="fill:#040404; stroke:none;" d="M1004.67 23.3334L1005.33 23.6666L1004.67 23.3334z"/>
<path style="fill:#fdfdfd; stroke:none;" d="M1017 28L1016 32L1019 28L1017 28z"/>
<path style="fill:#040404; stroke:none;" d="M1030 29L1030 32L1033 31L1033 30L1030 29M621 31L622 32L621 31z"/>
<path style="fill:#fdfdfd; stroke:none;" d="M1023.33 38.6666L1023.67 39.3334L1023.33 38.6666M1044 40L1043 48L1044 48L1044 40M1001 43L1002 44L1001 43z"/>
<path style="fill:#040404; stroke:none;" d="M875 45L874 48L877 48L875 45M826.667 47.3334L827.333 47.6666L826.667 47.3334z"/>
<path style="fill:#fdfdfd; stroke:none;" d="M1027 47L1028 48L1027 47M1057 47L1058 48L1057 47z"/>
<path style="fill:#040404; stroke:none;" d="M1079 47L1080 48L1079 47z"/>
<path style="fill:#fdfdfd; stroke:none;" d="M1028 49L1029 50L1028 49z"/>
<path style="fill:#040404; stroke:none;" d="M1075 50L1076 54L1077 54L1075 50z"/>
<path style="fill:#fdfdfd; stroke:none;" d="M1041 51L1042 56L1043 56L1041 51M876 56L878 63L879 63C879.81 59.3816 879.272 57.8065 876 56M977 56L978 57L977 56M980 56L976 64C979.815 62.727 981.461 59.8654 980 56M966 57L967 58L966 57z"/>
<path style="fill:#040404; stroke:none;" d="M950.667 67.3333L951.333 67.6667L950.667 67.3333z"/>
<path style="fill:#fdfdfd; stroke:none;" d="M971 67L972 68L971 67M789 68L792 72L789 68z"/>
<path style="fill:#040404; stroke:none;" d="M753 71L754 72L753 71z"/>
<path style="fill:#fdfdfd; stroke:none;" d="M1073 71L1074 72L1073 71M1057 82L1056 84L1057 82z"/>
<path style="fill:#040404; stroke:none;" d="M724 89L727 92L724 89M749 91L749 92L753 91L749 91M749 99L750 100L749 99z"/>
<path style="fill:#fdfdfd; stroke:none;" d="M757 104L758 105L757 104z"/>
<path style="fill:#040404; stroke:none;" d="M1109 106L1112 108L1109 106M506.667 107.333L507.333 107.667L506.667 107.333M599 107L600 108L599 107M714.667 107.333L715.333 107.667L714.667 107.333z"/>
<path style="fill:#fdfdfd; stroke:none;" d="M1117 109L1118 110L1117 109z"/>
<path style="fill:#040404; stroke:none;" d="M520 127L521 128L520 127z"/>
<path style="fill:#fdfdfd; stroke:none;" d="M522 139L522 145L523 145L522 139M578 139L579 140L578 139M1093 144L1090 150L1095 152L1096 148C1099.96 149.608 1102.17 151.304 1099 155L1099 156C1103.43 155.105 1105.86 152.927 1108 149L1101 148L1100 144L1097 147L1096 147L1093 144M1107.67 155.333L1108.33 155.667L1107.67 155.333M1074 162L1074 164L1076 164L1076 162L1074 162M1093 164L1096 162L1093 164M570 165L571 166L570 165M570.667 167.333L571.333 167.667L570.667 167.333M1091.67 167.333L1092.33 167.667L1091.67 167.333z"/>
<path style="fill:#040404; stroke:none;" d="M1122.33 167.667L1122.67 168.333L1122.33 167.667z"/>
<path style="fill:#fdfdfd; stroke:none;" d="M572.667 171.333L573.333 171.667L572.667 171.333M1089 171L1090 172L1089 171z"/>
<path style="fill:#040404; stroke:none;" d="M1112 171L1112 176L1114 176L1114 171L1112 171z"/>
<path style="fill:#fdfdfd; stroke:none;" d="M554 177L556 182L557 182L554 177z"/>
<path style="fill:#040404; stroke:none;" d="M1157 179L1158 181L1159 181L1160 179L1157 179z"/>
<path style="fill:#fdfdfd; stroke:none;" d="M695 180L698 184L695 180M1104 181L1104 184L1106 184L1106 181L1104 181z"/>
<path style="fill:#040404; stroke:none;" d="M735 182L736 183L735 182z"/>
<path style="fill:#fdfdfd; stroke:none;" d="M1123 182L1122 184L1123 182M767 187L768 188L767 187M1107 187L1108 188L1107 187M742 189L743 190L742 189z"/>
<path style="fill:#040404; stroke:none;" d="M733 190L734 191L733 190z"/>
<path style="fill:#fdfdfd; stroke:none;" d="M737 201L739 204L739 201L737 201M396 205L397 206L396 205M424 223L424 225L426 223L424 223z"/>
<path style="fill:#040404; stroke:none;" d="M440 223L441 224L440 223z"/>
<path style="fill:#fdfdfd; stroke:none;" d="M475 223L476 224L475 223M368 227L369 228L368 227M688 227L689 228L688 227M1375 227L1376 228L1375 227z"/>
<path style="fill:#040404; stroke:none;" d="M354 231L354 232L357 233L354 231z"/>
<path style="fill:#fdfdfd; stroke:none;" d="M443 233L441 236L443 233M463 235L464 236L463 235M465 237L466 242L467 242L468 237L465 237z"/>
<path style="fill:#040404; stroke:none;" d="M332 239L334 241L334 239L332 239z"/>
<path style="fill:#fdfdfd; stroke:none;" d="M440 239L441 240L440 239M460.333 245.667L460.667 246.333L460.333 245.667z"/>
<path style="fill:#040404; stroke:none;" d="M1484 247L1485 248L1484 247M1552.67 247.333L1553.33 247.667L1552.67 247.333M343 257L344 258L343 257M345 261L345 264L346 264L345 261M347 263L349 265L349 263L347 263M1589 279L1582 285L1589 279z"/>
<path style="fill:#fdfdfd; stroke:none;" d="M1585 282L1586 283L1585 282z"/>
<path style="fill:#040404; stroke:none;" d="M1595 290L1593 291L1593 292L1595 290z"/>
<path style="fill:#fdfdfd; stroke:none;" d="M1580.67 299.333L1581.33 299.667L1580.67 299.333M344 307L345 308L344 307z"/>
<path style="fill:#040404; stroke:none;" d="M315 331L316 332L315 331z"/>
<path style="fill:#fdfdfd; stroke:none;" d="M320 333L321 334L320 333M1504 339L1504 340L1501 352C1513.09 354.358 1510.56 345.665 1509 337L1504 339z"/>
<path style="fill:#040404; stroke:none;" d="M293 397L293 402L294 402L293 397z"/>
<path style="fill:#fdfdfd; stroke:none;" d="M304 411L305 412L304 411M383.667 427.333L384.333 427.667L383.667 427.333M388 429L392 432L388 429M1595 431L1596 432L1595 431M395 435L395 436L399 436L395 435M1593 434L1594 435L1593 434M402.667 439.333L403.333 439.667L402.667 439.333M407 443L408 444L407 443M370 457L371 458L370 457M1558 475L1558 478L1560 475L1558 475z"/>
<path style="fill:#040404; stroke:none;" d="M1551 483L1552 484L1551 483z"/>
<path style="fill:#fdfdfd; stroke:none;" d="M1544.67 491.333L1545.33 491.667L1544.67 491.333M344 497L345 498L344 497z"/>
<path style="fill:#040404; stroke:none;" d="M1556 497L1556 500L1557 500L1556 497z"/>
<path style="fill:#fdfdfd; stroke:none;" d="M343 499L344 500L343 499z"/>
<path style="fill:#040404; stroke:none;" d="M326.667 503.333L327.333 503.667L326.667 503.333z"/>
<path style="fill:#fdfdfd; stroke:none;" d="M311 518L313 520L311 518z"/>
<path style="fill:#040404; stroke:none;" d="M292.667 539.333L293.333 539.667L292.667 539.333z"/>
<path style="fill:#fdfdfd; stroke:none;" d="M1565 555L1566 556L1565 555M314 561L315 562L314 561M1539.33 568.667L1539.67 569.333L1539.33 568.667M346 601L350 604L346 601M1497.67 647.333L1498.33 647.667L1497.67 647.333M306 651L307 652L306 651M310.667 663.333L311.333 663.667L310.667 663.333M303 667L304 668L303 667M1504 671L1505 672L1504 671z"/>
<path style="fill:#040404; stroke:none;" d="M254.667 677.333L255.333 677.667L254.667 677.333z"/>
<path style="fill:#fdfdfd; stroke:none;" d="M1507 685L1505 688C1507.25 687.527 1508.12 687.14 1507 685M272 690L272 693L274 692L274 691L272 690M254 717L257 720L254 717M1481 721L1482 722L1481 721M332.667 731.333L333.333 731.667L332.667 731.333M1442 747L1445 750L1442 747M1485 751L1486 752L1485 751M1416 757C1417.68 766.282 1425.56 772.814 1431 780L1432 780C1430.9 772.912 1421.07 762.255 1416 757M1491 801L1492 802L1491 801z"/>
<path style="fill:#040404; stroke:none;" d="M274.667 807.333L275.333 807.667L274.667 807.333z"/>
<path style="fill:#fdfdfd; stroke:none;" d="M1479.33 809.667L1479.67 810.333L1479.33 809.667M316 830L316 834L317 834L318 830L316 830z"/>
<path style="fill:#040404; stroke:none;" d="M1474 837L1474 840L1475 840L1476 837L1474 837z"/>
<path style="fill:#fdfdfd; stroke:none;" d="M1453.67 855.333L1454.33 855.667L1453.67 855.333z"/>
<path style="fill:#040404; stroke:none;" d="M293 871L292 874L293 871z"/>
<path style="fill:#fdfdfd; stroke:none;" d="M597 871L597 872L600 872L597 871z"/>
<path style="fill:#040404; stroke:none;" d="M289 875L290 876L289 875z"/>
<path style="fill:#fdfdfd; stroke:none;" d="M600 877L601 878L600 877M300 881L298 884C300.251 883.527 301.118 883.14 300 881M1285 901L1286 902L1285 901M358 907L359 908L358 907M386 907L387 908L386 907M1184 908L1185 909L1184 908M1185 910L1185 914L1186 914L1185 910M794 911L795 918L794 911M384 912L384 920L385 920L388 913L384 912M790 913L786 927L785 927L782 921L763 928L765 921C752.875 926.714 751.964 931.742 756.205 944C757.288 947.129 758.044 952.395 762.039 953.118C766.18 953.867 767.825 948.813 769.605 946.166C774.544 938.822 780.972 933.789 788.075 928.735C790.215 927.213 796.462 926.47 797.596 924.451C798.453 922.928 792.115 916.499 792 913L790 913M583 919L584 920L583 919M384 921L385 922L384 921M1198 921L1200 923L1198 921M380 927L380 931L382 927L380 927M1369 927L1371 930L1369 927M1375 927L1376 928L1375 927M1371 931L1372 932L1371 931M368 940L369 941L373 941L374 941L376 935L368 940M573.667 935.333L574.333 935.667L573.667 935.333M573 937L574 940L575 940L575 937L573 937z"/>
<path style="fill:#040404; stroke:none;" d="M1279 942L1280 943L1279 942M1329 942L1328 944L1330 944L1329 942M1346.67 943.333L1347.33 943.667L1346.67 943.333M671 944L670 948L671 944z"/>
<path style="fill:#fdfdfd; stroke:none;" d="M1243 945L1241 949L1246 948L1245 945L1243 945M380.333 946.667L380.667 947.333L380.333 946.667M377 947L378 948L377 947M1157 949C1156.43 951.396 1156.53 951.487 1159 952L1157 949M1167 954L1170 949C1166.96 950 1166.51 950.863 1167 954M1150 955L1150 956L1154 958L1153 954L1150 955M1049 955L1049 956L1053 956L1049 955M1228 955L1227 959L1228 959L1230 955L1228 955z"/>
<path style="fill:#040404; stroke:none;" d="M1249 957L1255 959L1254 955L1249 957z"/>
<path style="fill:#fdfdfd; stroke:none;" d="M1056.33 958.667L1056.67 959.333L1056.33 958.667z"/>
<path style="fill:#040404; stroke:none;" d="M1254 960L1255 961L1254 960M404 963L405 964L404 963z"/>
<path style="fill:#fdfdfd; stroke:none;" d="M716 963L717 964L716 963M1060 963L1060 964L1063 964L1060 963z"/>
<path style="fill:#040404; stroke:none;" d="M1264 968L1270 968C1267.55 965.703 1266.45 965.703 1264 968z"/>
<path style="fill:#fdfdfd; stroke:none;" d="M524 967L525 968L524 967M678 967L679 968L678 967M1059.67 967.333L1060.33 967.667L1059.67 967.333M1143 972L1146 973L1147 969L1143 972M1150 977L1149 980L1152 980L1150 977z"/>
<path style="fill:#040404; stroke:none;" d="M536 987L537 988L536 987M1201 995L1202 995L1204 988C1200.2 989.264 1200.23 991.312 1201 995M1154 993L1154 995L1156 993L1154 993z"/>
<path style="fill:#fdfdfd; stroke:none;" d="M427.333 995.667L427.667 996.333L427.333 995.667M934 995L936 1000L934 995z"/>
<path style="fill:#040404; stroke:none;" d="M649 999L650 1000L649 999z"/>
<path style="fill:#fdfdfd; stroke:none;" d="M714.667 999.333L715.333 999.667L714.667 999.333z"/>
<path style="fill:#040404; stroke:none;" d="M974.667 999.333L975.333 999.667L974.667 999.333z"/>
<path style="fill:#fdfdfd; stroke:none;" d="M927 1004L926 1008L927 1004z"/>
<path style="fill:#040404; stroke:none;" d="M1124.67 1005.33L1125.33 1005.67L1124.67 1005.33z"/>
<path style="fill:#fdfdfd; stroke:none;" d="M733 1011L726 1028C732.26 1024.4 736.333 1017.95 733 1011M739 1011L738 1016L739 1016L739 1011M919 1011L920 1012L919 1011M736.333 1015.67L736.667 1016.33L736.333 1015.67z"/>
<path style="fill:#040404; stroke:none;" d="M696 1019L697 1020L696 1019z"/>
<path style="fill:#fdfdfd; stroke:none;" d="M899 1019L899 1020L904 1020L899 1019M873 1023L874 1024L873 1023M1024 1023L1025 1024L1024 1023M1065 1023L1066 1024L1065 1023M1008 1025L1009 1030L1010 1025L1008 1025M734.667 1027.33L735.333 1027.67L734.667 1027.33M880 1030L884 1028C881.588 1026.65 880.568 1027.35 880 1030M1063 1032L1067 1032L1066 1029L1063 1032M880 1031L881 1032L880 1031M887 1035L888 1036L887 1035M848 1039L848 1040L852 1040L848 1039z"/>
<path style="fill:#040404; stroke:none;" d="M749 1041L748 1046L752 1041L749 1041M790 1041L790 1044L792 1044L792 1041L790 1041z"/>
<path style="fill:#fdfdfd; stroke:none;" d="M778 1042L778 1044L780 1044L778 1042M824 1042L823 1044L825 1044L824 1042M1066 1044L1066 1056L1071 1052L1066 1044M854 1047L855 1048L854 1047M833 1049L834 1050L833 1049M822 1051L823 1052L822 1051M848 1051L847 1056L850 1051L848 1051M834 1052L837 1056L834 1052M855 1057L854 1060L855 1057M845 1059L847 1064L845 1059M843 1063L840 1080C843.768 1080 849.054 1081.41 850 1077L845 1078L843 1063M830 1067L831 1068L830 1067M829 1068L826 1080L837 1080L837 1072C832.772 1072.47 831.316 1071.44 829 1068M850 1069L850 1074L851 1074L852 1069L850 1069z"/>
<path style="fill:#040404; stroke:none;" d="M1095 1069L1096 1070L1095 1069z"/>
</svg>
