<?xml version="1.0" standalone="yes"?>
<svg xmlns="http://www.w3.org/2000/svg" width="1920" height="1080">
<path style="fill:#fefefe; stroke:none;" d="M0 0L0 1080L1920 1080L1920 0L0 0z"/>
<path style="fill:#030303; stroke:none;" d="M604 161L595 181C589.103 180.107 586.709 188.045 586 193L581 189L579 189L579 196L578 196L576 191L575 191L574 196L570 194L568 224L567 224L562 213L550 216L545 204L531 212L528 207L528 216L525 216L520 203C508.472 206.933 513.256 216.889 514 226L510 225C507.559 229.466 506.971 231.72 510 236L504 237L507 244L498 237L501 248L491 246L494 261L477 251L474 260L478 260L478 264L472 263L477 281L466 269L464 269C461.826 276.357 464.501 281.599 468 288L450 270L449 270L444 271L445 276C434.544 276.034 419.734 258.151 414 272L400 268L407 290L399.296 291.759L389 290C394.765 300.539 400.002 312.166 412 317L405 320L403 330L394 329L395 340L391 339C386.004 347.201 370.932 344.309 363 343L364 348C368.266 349.499 369.659 351.521 370 356C361.953 358.682 375.326 368.277 378 372C375.479 374.56 379.206 383.145 382 385L380 396L399 412L379 412C379.737 421.448 388.184 424.374 394.91 429.594C406.504 438.592 428.487 453.062 434 467C424.206 463.707 417.217 454.584 409 448.44C405.356 445.715 399.98 442.092 398 448L406 461L393 452L393 460L392 460L390 458L389 472L388 476C380.124 475.978 373.473 471.931 368 479L368 480C375.42 486.24 374.089 491.164 373 500L386 503L386 504L381 504C382.863 507.555 386.636 512.66 385.303 516.906C383.819 521.633 367.664 527.357 363 529L363 533L378 541L370 553C379.469 558.4 382.699 555.3 393 556L400 553L397 560L409 556L408.71 566.791L413 576L426 580L420 580L420 582C414.072 579.597 404.917 575.196 401 582L398 581L373 567L374 576L372 576C371.339 572.186 369.741 571.43 366 571L364 578L360 576L360 580L353 577C354.6 583.732 369.031 593.171 364 599L362.488 612.896L376 628C370.78 629.254 351.522 624.325 353 634C344.152 635.979 348.436 641.049 355 643L353 647L342 645L349.378 655.59L349.348 666.7L354.029 675.971L342 684C348.113 687.543 344.215 693.457 337.999 693.773C332.661 694.045 328.12 689.625 323.073 689.732C314.476 689.915 325.116 702.169 327 704L322 707L322 708L333 719L333 720L329 724C332.337 725.749 337.857 726.064 340.526 728.599C345.581 733.4 337.145 738.405 333 739.103C328.562 739.851 324.546 736.553 320 737.58C313.42 739.067 308.958 743.236 303 745L303 746L307 746L310 751L310 752L301 751L305 757C301.528 760.745 297.915 763.854 304 767L304 768C299.256 769.843 295.491 772.589 296 778C302.433 776.73 306.851 779.513 313 780.393C321.234 781.571 326.64 777.209 329 788L320 791L330 812C332.001 812.017 334.019 811.974 336.001 812.305C350.943 814.796 333.999 830.636 340.148 838.686C343.147 842.612 347.691 840.438 351.715 841.175C355.358 841.843 357.956 845.216 360 848C354.516 851.925 359.354 856.499 364 858C360.724 864.228 362.75 868.114 370 867L373 874C386.91 876.192 378.199 887.521 378 896L403 895C404.026 899.128 403.943 912.756 410 910L412 914L417 912L418 908L420 908L423 917L425 917L427 912L444 927C444.92 938.91 451.715 928.117 457.158 929.551C463.316 931.173 463.775 938.776 464 944L470 938L476 940L479 934L493 938L493 923L497 925L496 905L497 905C499.38 914.177 502.026 916.955 510 922L514 914L525 926L519 903L526 908L525 901L535 901L539 916L543 908L544 908L547 912L544 897L551 897L557 904L557 899L559 901L560 901L563 899L565 904L572 898L575 900L571 878L579 880L577 865L582 859L583 859L588 862L587 859L594 857L595 857L605 864L608 861C610.718 866.248 618.399 873.056 624 875L625 874L624 871L638 879L636 882L639 881C643.328 890.108 648.964 896.161 658 900.405C667.097 904.678 671.701 901.302 671 892L686 892C686.73 881.136 683.178 876.444 678.245 867C676.237 863.155 673.131 859.41 678 857C675.445 849.485 672.56 839.716 665 836C667.171 829.998 671.56 830.042 677 828C674.358 819.796 661.918 802.897 681 804L687 796L688 802L693 801C695.047 803.678 696.953 802.958 700 802L699 806C705.24 808.63 713.321 801.418 717.539 804.368C723.127 808.276 705.664 808.883 709.086 814.585C711.615 818.797 719.924 816.399 723.941 818.032C730.926 820.874 726.924 831.46 722 834C724.169 838.596 727.235 840.506 732 842L732 843L724 850C726.677 850.542 728.548 851.224 730.546 853.206C742.994 865.555 724.22 867.586 720 880L730 875L730 880L733 877C740.108 882.952 751.523 878.118 759 874L759 886C765.97 883.713 772.181 881.54 774 874C779.788 876.833 789.521 872.011 791 878L796 885C798.945 884.073 802.185 877.456 804.803 878.346C811.003 880.452 807.657 891.949 816 888L820.745 896.015L814.527 908L815.786 918.675L811 928C814.442 931.778 812.268 937.174 819 935L816 948C821.254 947.23 822.822 943.871 824 939L825 939L829 943L829 935C842.51 941.813 827.543 949.135 825 956C831.985 954.836 837.604 953.836 843 949L842 956L845 955C847.045 963.564 846.897 964.874 856 964C857.106 957.496 859.32 945.565 864 941L860 964L864 963C860.802 971.354 861.387 981.807 872 984L876 965L878 970L879 955L880 955L879 964C891.129 959.668 891.63 935.359 895 925L910.958 927.333L912 937L916 934L911 948C916.382 949.587 921.169 948.786 926 946L928 954C932.518 952.007 935.372 949.745 937 945L939 945C942.268 949.938 943.884 944.52 944 941L948 948L952 948L951 941L960 942L962 929L965 930L969 919L978 924L978 919L983 930L985 930L989 925C990.605 931.451 993.245 937.221 1000 939C999.002 948.935 1009.5 942.759 1014 941C1017.66 946.072 1020.65 940.9 1022.57 936.999C1026.36 929.323 1027.37 924.602 1024 917L1027 916L1032 922C1032.67 918.337 1035.97 910.705 1041.2 912.65C1043.93 913.668 1043.31 917.377 1045.01 919.218C1048 922.448 1059.43 921.643 1063 920C1060.53 907.558 1072.41 919.718 1075 924L1077 924L1078 921C1090.08 923.013 1083.73 907.991 1082 902L1083 902C1084.51 905.565 1089.14 911.556 1091 905L1104 908L1104 892L1105 892C1111.86 905.176 1114.28 890.951 1122.01 894.377C1128.1 897.076 1130.82 904.354 1135.21 908.891C1138.99 912.802 1145.12 914.736 1150 917C1149.58 912.406 1144.84 908.832 1144.93 904.896C1145.15 895.437 1160.28 884.702 1166 878C1171.15 886.354 1175.91 875.503 1181.09 872.989C1184.73 871.225 1188.45 872.893 1192 874L1199 869L1200 872L1201 872L1208.09 861.831L1219 857L1220 857C1222.14 862.735 1228.28 873.75 1230 861L1232 861L1233 868L1236 867C1237.04 870.443 1238.49 871.403 1242 872L1248 861C1256.33 863.998 1264.12 866.668 1268 857L1271 858L1272 853L1278 852L1283 857L1285 862L1286 859L1292 860L1291 849L1292 849L1293 856L1295 856L1296 849L1299 851L1300 835L1301 835L1303 840C1310.54 839.608 1313.52 845.966 1319 850L1319 842L1320 842L1322 844L1325 841C1326.56 849.726 1332.3 858.415 1341 861L1349 856L1348 851C1359.01 852.636 1364.26 831.201 1358 824L1358 823L1374 822L1375 822L1376 822C1381.88 829.745 1386.23 823.67 1387 817L1392 818L1386 795L1391 796L1388 787L1392 788C1391.44 779.227 1392.79 775.123 1388 767L1391 769L1395 756C1401.17 759.964 1404.35 767.746 1412 768C1411.55 746.534 1394.01 728.262 1394 707L1396 707C1396.26 718.96 1407.37 726.103 1413 736L1415 736L1414 727L1427 736L1431 732C1429.64 727.898 1428.05 726.462 1424 725L1430 719L1433 722L1432 719L1442 726L1440 717L1443 718C1444.65 711.974 1445.9 702.537 1439 700L1439 698L1454 696C1457.19 685.318 1453.26 684.432 1447.74 676.787C1444.91 672.858 1447.62 667.08 1444.4 663.56C1436.6 655.05 1421.2 651.114 1416.44 639C1410.86 624.823 1425.98 614.108 1429.23 601.829C1431.14 594.608 1429.36 586.414 1431 579L1449 584L1450 579L1469 595L1469 593C1480.55 605.991 1494.62 631.79 1516 624L1514 619C1517.45 619.736 1529.03 619.662 1529.3 614.887C1529.81 606.206 1519.63 595.58 1516.17 588C1513.83 582.866 1514.69 576.488 1513.68 571C1512.39 564.08 1510.16 561.629 1516 556L1511 537L1524 536L1527 523L1535 519L1526 516C1527.13 512.049 1527.04 509.623 1523 508C1525.99 499.012 1523.65 497.197 1520 489C1524.89 487.993 1533.38 485.904 1528.85 479.339C1527.52 477.416 1524.09 476.157 1523.61 473.776C1523.17 471.567 1525.97 468.791 1527 467L1517 464L1517 463C1528.46 462.094 1530.91 457.774 1540 452.772C1542.8 451.235 1546.1 452.021 1548.79 450.103C1556.28 444.767 1552.45 437.94 1545 436L1545 435L1548 435L1549 427L1523 416L1523 414L1528 409L1525 406L1529 406L1534 390C1527.98 386.206 1521.05 383.793 1514 386L1516 383L1486 376C1490.81 371.443 1499.08 371.774 1496 363L1455 366L1474 360L1466 356L1475 352L1465 339C1480.55 332.824 1459.95 328.897 1456.69 324.478C1453.42 320.044 1457.54 315.084 1452 312L1452 311L1460 308C1456.43 300.346 1449.72 294.229 1442 291L1444 281L1432 279L1427 280L1431 271C1427.28 267.693 1429.04 265.35 1430 261L1407 271C1407.56 265.716 1421.79 261.358 1416 256L1417 254L1406 256L1408 249L1403 250C1403.08 242.255 1405.7 237.091 1395 240L1394 236C1390.8 237.473 1387.52 240.296 1385 237C1379.18 238.18 1370.41 244.88 1369 235L1367 236L1369 227L1369 226C1363.99 219.91 1369.67 214.445 1372.81 208.424C1379.67 195.254 1390.38 182.797 1391.5 167C1392.32 155.612 1381.22 155.529 1381 144C1370.35 145.718 1363.87 161.247 1355.83 167.496C1351.34 170.989 1343.46 175.338 1338 177.015C1330.17 179.418 1325.7 175.969 1321 185L1313 182C1312.83 176.698 1311.47 174.4 1306 176L1305 173L1301 174C1299.27 163.449 1292.91 176.198 1288 177L1288 182C1285.29 181.423 1284.61 181.232 1284 184L1282 182L1276 183L1273 189L1267 182C1263.44 186.498 1262.02 189.207 1262 195L1257 187L1254 195L1253 195L1250 184C1241.79 184.506 1242.22 178.996 1236.46 175.073C1233.6 173.128 1228.35 172.049 1225 171C1223.64 175.774 1222.91 180.872 1217 180L1218 198L1208 200C1201.59 207.269 1196.69 201.332 1189 200L1190 205C1185.27 206.013 1188.12 210.333 1188.22 214C1188.51 224.296 1186.04 229.634 1189 240L1179 237L1194 276L1181 257L1182 267L1181 267L1178 260L1176 260L1167 268L1165 263C1158.32 265.684 1158.01 269.558 1156 276C1150.94 274.215 1148.33 274.639 1145 279L1144 279L1140 276L1141 265L1137 270C1131 266.903 1131.18 252.27 1121.17 254.362C1117.07 255.217 1114.12 259.598 1110 261C1106.68 255.022 1102.92 260.164 1099 263L1097 258L1090 263L1093 237L1086 240L1081 235L1082 231L1081 230L1079 230L1072 240L1073 233L1061 240L1056 233L1053 238L1041 241C1039.54 234.859 1039.52 228.849 1042 223L1034 220L1035 217L1023 215L1021 215L1016 223L1015 223C1017.6 212.015 1021.41 199.48 1019.86 188C1018.76 179.928 1014.83 174.59 1015 166C1011.11 167.762 1008.7 169.677 1008 174C1003.73 174.139 1001.3 174.708 1000 179L996 170L994 170L989 181L988 181C987.069 159.377 971.439 178.039 963 184L960 181L948.634 194.093L942 213L922 187L919 196C918.334 183.681 907.579 178.883 903 169L897 187C893.107 184.938 893.861 179.792 890.665 178.176C884.454 175.035 885 189.238 885 192L884 192L884 189C879.328 191.946 878.454 198.791 878 204L874 203C871.024 212.284 869.379 211.649 861 208L860 209C861.273 214.348 861.848 222.172 859 227C858.832 223.347 855.284 219.227 851.985 223.438C848.545 227.829 849.252 233.956 845 238L843 231C838.135 238.743 840 250.185 840 259L839 259L836 249C829.66 250.906 828.141 258 828 264L820 260L819 270C810.843 258.703 813.037 240.298 813 227L806 229L790.442 268.985L775 288L774 288L771.811 278.004L780.412 266.985L784 249L774 256L778 247C769.75 249.154 763.452 258.551 760 266L759 266L760 248L753 254L753 247L747 248L750 236L744 239L745 233L733 239L731 244L728 235C723.249 237.697 722.065 242.909 721 248L718 246L713 252L713 246C703.891 246.704 705.958 267.034 695 260L687 268L686 257L684 257L683 262L682 262C680.842 258.077 678.174 254.83 677.114 251C675.516 245.225 679.813 240.268 672 238L671 241C661.435 233.347 669.886 215.338 670 205L664 206L673 182L669 184L672.852 166L668.208 150L667 124L663 126L655 114L653 116L651 110L649 110L647 119L645 114L643 116L641 113L640 113L639 116C637.085 111.422 633.607 99.0615 627.055 100.711C621.297 102.161 622.345 110.514 621.897 115C620.942 124.561 614.279 135.321 611.735 145C611.021 147.715 608.585 166.931 604 161M1031 158L1029 166C1032.87 164.836 1033.99 162.833 1035 159L1031 158z"/>
<path style="fill:#fefefe; stroke:none;" d="M662 211L663 212L662 211M743 239L744 240L743 239z"/>
<path style="fill:#030303; stroke:none;" d="M1110.67 239.333L1111.33 239.667L1110.67 239.333z"/>
<path style="fill:#fefefe; stroke:none;" d="M741 241L740 244L741 244L742 244L741 241M1071 245L1068 251C1070.64 249.464 1071.82 248.061 1071 245M478 259L479 260L478 259M486 265L486 268L488 268L488 265L486 265M416 269L417 270L416 269M475 269L476 270L475 269M476 271L477 272L476 271M478 276L480 280L478 276M403.667 331.333L404.333 331.667L403.667 331.333M1466 343L1467 344L1466 343M1456.33 346.667L1456.67 347.333L1456.33 346.667z"/>
<path style="fill:#030303; stroke:none;" d="M363 355L363 356L366 356L363 355z"/>
<path style="fill:#fefefe; stroke:none;" d="M1446 367L1446 368L1449 368L1446 367M385 395L386 396L385 395z"/>
<path style="fill:#030303; stroke:none;" d="M377 415L378 416L377 415z"/>
<path style="fill:#fefefe; stroke:none;" d="M406 461L408 463L408 461L406 461M435 468L438 468L437 466L435 468M440 469C440.654 472.054 442.007 471.936 445 472L445 471L440 469M394 473L396 476L394 473M1523 483L1524 484L1523 483M452 484L454 486L452 484M1520 487L1521 488L1520 487M386 539L387 540L386 539M403 551L404 552L403 551M1468 591L1469 592L1468 591z"/>
<path style="fill:#030303; stroke:none;" d="M318 687L320 689L320 687L318 687z"/>
<path style="fill:#fefefe; stroke:none;" d="M1438 715L1440 717L1440 715L1438 715M306.667 759.333L307.333 759.667L306.667 759.333M1386 816L1387 817L1386 816M731 840L731 841L735 842L736 839L735 838L731 840M353.667 839.333L354.333 839.667L353.667 839.333M1096 883L1097 884L1096 883z"/>
<path style="fill:#030303; stroke:none;" d="M1092 909L1094 912L1092 909M1020 943L1021 944L1020 943z"/>
<path style="fill:#fefefe; stroke:none;" d="M844 947L844 948L849 948L844 947z"/>
</svg>
