<?xml version="1.0" standalone="yes"?>
<svg xmlns="http://www.w3.org/2000/svg" width="1920" height="1080">
<path style="fill:#ffffff; stroke:none;" d="M0 0L0 1080L1920 1080L1920 0L0 0z"/>
<path style="fill:#030303; stroke:none;" d="M1302 225C1294.07 232.494 1277.27 226.521 1267 228.676C1260.31 230.081 1255.22 238.336 1249.27 241.789C1244.37 244.634 1239.01 244.015 1234.27 247.951C1229.36 252.041 1228 258.716 1224.48 263.714C1221.17 268.419 1213.36 272.711 1211.15 277.225C1207 285.715 1204.55 304.441 1204.55 314C1204.55 321.656 1208.35 329.201 1208.21 337C1208.14 341.239 1205.36 344.789 1205.31 349C1205.25 354.596 1207.42 358.175 1206 364L1212 365C1212.05 378.893 1223.98 379.513 1231.22 388.545C1233.14 390.941 1231.95 394.219 1232.55 397C1233.54 401.582 1236.38 405.652 1238 410L1275 416L1276 411C1281.46 414.981 1285.29 416.871 1288 409L1289 409L1291 416L1292 416C1297.18 411.441 1303.82 416.697 1306 422C1316.73 419.929 1325.81 420.016 1336 424C1337.86 412.088 1366.34 409.168 1365 395C1376.45 388.583 1391.04 373.339 1395.81 361C1398.64 353.694 1396.44 347.19 1401 340L1401 339L1395 307L1393 308L1387 304L1387 278C1381.02 275.544 1379.18 272.995 1377 267L1372 268L1360 255C1354.61 255.352 1345.77 251.529 1345.81 245C1345.84 240.438 1350.75 234.667 1345.68 230.782C1343.01 228.731 1338.3 229.657 1335.09 228.767C1331.67 227.814 1330.02 224.618 1326.87 223.704C1320.74 221.929 1308.87 224.921 1302 225M623 272C620.187 275.449 618.376 276.048 614 276C609.754 262.442 598.079 278.834 596 285C589.615 281.623 585.252 282.989 583 290C577.52 287.85 575.28 289.878 573 295C567.948 294.919 567.146 299.727 566 304C561.768 302.416 559.736 303.502 559 308L544 309C537.297 320.065 520.933 321.525 511.699 329.854C506.909 334.175 507.905 341.534 505.856 347C504.068 351.772 500.909 354.68 502 360C497.442 362.621 496.772 367.051 493.277 370.397C488.386 375.08 484.107 371.038 484 380L473 389L478 400C469.062 404.837 475.201 410.636 475.616 418C475.85 422.168 471.884 435.946 469 439L461 456C472.404 460.794 466.966 466.304 466 476C472.812 478.41 470.126 482.505 472.174 488C474.386 493.933 479.436 499.394 481.308 505.17C484.339 514.52 481.081 526.042 495 529C495.122 539.969 505.052 545.373 509.107 555C511.66 561.061 508.59 568.556 511.589 574.62C513.16 577.798 516.833 578.585 520 579C520.73 589.988 524.514 599.338 536 594L544 608L549 607L551 611L571 611L572 616L577 613L578 616L586 613C587.979 617.096 590.833 625.478 593.603 628.647C595.442 630.751 598.555 630.522 600.571 632.402C605.129 636.651 605.364 642.003 613 639L614 646L624 637C627.437 647.356 646.036 634.956 649 629L652 629C655.455 634.835 670.819 625.421 678 626C678.049 612.046 682.26 621.931 689.624 619.338C696.103 617.056 694.16 606.869 693 602C698.966 606.238 706.932 616.883 706 603L708 606L718 602L729 601L733 611L738 601L739 601L744 606C752.661 592.482 767.741 589 783 589C779.295 577.127 784.761 576.729 791.436 568.289C794.287 564.684 792.255 560.265 798 560C799.394 556.242 798.152 552.699 799.312 549C804.41 532.759 815.58 521.021 809 503C823.645 495.412 821.127 483.488 822.611 470C823.23 464.373 828.416 461.069 829.698 455.83C833.06 442.088 826.711 431.282 821.437 419.961C816.798 410.004 827.743 398.013 811 398C810.999 387.536 806.291 387.241 802.028 378.985C800.201 375.448 799.611 370.795 798 367L794 368L786 352L778 355C775.659 351.387 771.825 351.908 768 353L768 347C762.832 344.569 758.73 339.87 757.73 334C756.614 327.448 760.415 322.309 751 322L748 311L726 313C728.113 302.528 723.665 301.599 716 308L716 303L707 303L707 299L694 304L686 297C677.711 300.711 657.057 303.444 652.758 291.957C649.727 283.861 656.715 275.803 646.541 269.178C638.611 264.015 632 274.946 623 272M665 269L666 270L665 269z"/>
</svg>
