<?xml version="1.0" standalone="yes"?>
<svg xmlns="http://www.w3.org/2000/svg" width="1920" height="1080">
<path style="fill:#fdfdfd; stroke:none;" d="M0 0L0 1080L720 1080L719 1071L718 1071L714 1076L721 1052L728 1035L716 1046C713.38 1043.26 710.609 1046.23 708 1048L722 1025L714 1032L714 1027L713 1027C711.467 1033.99 709.612 1037.49 703 1041L707 1025L706 1025C704.852 1029.23 697.416 1039.28 692.133 1035.53C688.484 1032.95 688.845 1027.9 688 1024L683 1024L710 1004L692 1012C697.017 994.625 717.17 995.099 723.653 979.004C726.156 972.79 716.467 965.943 711 965.452C704.799 964.895 702.017 970.42 696.985 972.531C691.141 974.983 684.17 972.767 678 975L679 980C671.545 978.857 664.877 988.062 661 994C650.684 995.549 649.792 1007.58 642 1012C644.595 1007.34 645.762 1002.36 649.043 998C654.337 990.959 666.541 982.459 666 973L646 992L667.309 960.104L673 949L672 949L671 951C669.722 944.118 668.726 937.63 663.215 932.567C654.496 924.556 646.28 923.141 641 911L640 911L638 914C633.929 903.1 630.015 886.793 616 888L617 882L614 882L610 876L609 882L602 882L594 877L594 888L595.833 892L596 913L595 913L594 909L590 932C589.803 928.431 589.538 926.243 586 925L582 930L580 952L578 952L577 946C570.704 947.187 569.074 938.357 565 935L562 944C570.307 951.922 569.77 962.805 572 973L565 974C563.747 970.132 556.572 966.365 554.777 972.148C553.256 977.05 556.04 987.831 557 993L553 994L546 982L545 982C542.071 985.317 541.765 987.781 543 992C533.819 988.067 530.055 980.655 526 972L524 972L523 975L521 973L520 973L515 982L514 973L513 973L509 987L505 981L504 981L501 988L496 986L495 989L494 989L494 975L488 975C490.153 980.09 490.808 988.294 483 986C481.01 1001.73 482.18 1012.89 487 1028L483 1035L482 1035L481 1031L480 1031L478 1037L477 1037C472.93 1030.54 461.958 1024.06 455 1021C448.911 1027.6 432.247 1026.89 437 1015L426 1001.17L419 1004L420 995L408 1008L407 1008L408 1003L404 1008L403 1008C402.508 998.35 408.851 994.3 412 986L406 984L405 988L398 988L405 965L385 978C386.032 973.783 388.51 970.584 384 968L390 964L388 953L379 953L375 964C371.756 959.645 375.349 954 376 949L374 952C368.461 951.088 368.334 946.954 368 942L367 942C365.491 946.801 357.586 963.012 352.059 949.891C349.71 944.314 358.333 940.77 351 936L348 940C350.313 931.849 358.006 930.159 353 921L356 918L353 918L351 914L341 920C344.355 914.146 354.175 894.009 348 890C346.412 897.867 338.39 902.309 331 904C333.356 898.991 341.779 893.667 338 888L338 887L342 879L339 880L342 876L340 871L335 876L334 869L329.667 878.329L315.985 879.297L306 883L297 902L297 891L294 892C295.402 888.301 293.532 885.597 294.326 882C295.65 876.01 302.484 869.877 308 868C305.93 862.139 301.019 866.259 297 868L298 859C291.304 861.149 288.804 860.043 285 854L286 853L289 854C290.939 847.614 296.295 850.359 300.945 847.258C303.979 845.235 305.154 841.834 307.399 839.129C308.768 837.48 313.693 834.414 310.663 832.089C308.339 830.306 304.287 831.37 301.575 830.815C298.347 830.154 296.293 829.315 293 830L292 819L282 822C291.186 808.732 286.091 807.33 273 808L273 807C282.451 800.637 275.149 797.041 268 796L270 791C261.966 792.214 252.292 790.401 245.123 786.772C240.517 784.441 240.839 779.053 244 776C243.448 769.097 245.86 766.805 252 764L252 763L242 764L242 757C248.28 759.402 251.83 752.139 254 747L248 749L247 739L250 740C247.312 730.362 233.116 729.178 224 728L225 725L222 724L238 718L239 718L240 720L241 720L243 717C237.111 715.167 240.646 710.833 243 707L237 704L243 696L251 701L252 697C258.691 699.942 266.981 704.499 272.995 708.688C278.788 712.724 280.135 717.769 288 717L309 732L311 732L312 728C317.164 732.778 322.593 735 329 731C323.922 728.169 319.365 723.87 313.999 721.64C310.264 720.088 306.567 721.084 303.019 718.656C294.756 712.999 290.259 703.246 279 702L280 698L264.49 685.05L251 677L256 673L277 678L296 676L295 669L288 668L293 665C295.666 661.789 300.605 661.629 302.82 658.486C306.404 653.402 301.317 644.914 296 644L297 639L313 648L314 644L314 643L312 640L316 640L316 639C310.242 637.837 307.701 634.868 308 629L298 622L298 621L314 622C310.384 616.047 301.201 615.427 296.024 609.996C288.947 602.572 296.592 602.081 302.985 604.448C305.803 605.491 308.076 607.234 311 608L308 604L308 603L313 602C318.043 594.686 324.851 600.13 332 602L334 598L338 600L319 581L323 584L324 584L328 580L328 578C312.417 568.225 312.015 550.012 293 548L297 544L297 543L288 539L288 537L296 536L278 505C282.115 507.317 292.614 509.369 294 503L295 503C296.357 507.531 302.435 516.007 307 510L313 512L310 505L328 516.333L336 512L336 511L330 506L324 506L324 503L335 500L334 497C327.783 498.15 322.486 497.907 318 493L324 492L325 487L313 488L313 483L338 471.251L363 462L356 456C351.994 457.531 351.17 460.039 350 464L349 464C347.364 453.15 358.931 446.895 368 444C366.037 441.019 361.236 438.944 360.582 435.25C359.257 427.764 376.628 428.09 381 428L381 427L368 426C365.123 420.876 358.918 416.575 353 418C354.262 426.236 347.92 428.688 342.285 433.335C330.198 443.303 310.592 449.407 295 448C297.729 443.96 298.317 441.701 297 437L290 438L293 430L296 427L304 423L299 419L295 420L296 416L288 416C290.439 410.024 295.353 400.164 288 396L290 391L294 392L302 375C299.693 371.257 298.569 368.728 294 368L294 367L298 366L296 364C300.872 360.225 306.949 359.838 308 353L301 352L309 344L305 341C311.146 335.743 316.647 334.368 314 325L321 317C324.552 317.536 325.829 316.615 326 313L328 316L334 310L338 306L337 295C342.563 296.377 345.409 295.132 350 292L340 270L340 269C343.985 264.714 343.188 261.932 341 257L347 262L348 262C347.166 254.598 337.525 249.513 331 247C332.54 242.116 330.553 239.18 328 235L337 238L340 234L337 235C336.768 227.92 342.97 230.883 348 231L348 234L351 232L352 238L356 236L351 232L350 221L364 226L367 218L371 217L375 220L374 205L382 208L381 201L387 204L388 204L390 197L391 200L394 197L395 197L407 208L410 206C411.096 208.773 411.884 211.178 415 210L418 218L419 218L416 197C424.869 204.502 428.966 207.794 429 220L435 220L437 226L438 226L438 221L451.349 230.508L459 241L458 225C459.812 225.941 461.345 227.445 463.171 228.316C466.241 229.78 471.238 227.817 470.894 223.931C470.276 216.968 464.719 211.126 476 215L480 212L485 191L482 193L483 184L486 184L486 171L483 172L482 159L488 160L487 155L494 155L494 145L497 149L498 149L501 135L507 140L508 135L512 135L513 142L514 142L515 128L520 130L519 122L520 122L522 128L524 128L523 119C534.582 120.76 529.297 128.998 534.599 136.911C538.716 143.055 545.125 147.603 549 154L552 153L554 164C556.336 162.343 558.342 156.312 561 159L562 159L560 145L562 145L567 156L567 135C573.444 139.308 574.907 136.244 581 133L584 141L585 141L585 129L586 129C587.25 132.588 597.591 136.399 597.809 130.813C597.912 128.151 595.153 125.528 594.418 123C592.432 116.166 592.364 107.874 594 101L596 101L597 108L602 108L603 99C607.741 95.8875 602.371 77.5375 603.185 71C606.495 44.4258 627.282 26.5363 630 0L0 0z"/>
<path style="fill:#040404; stroke:none;" d="M630 0L621.811 27.5718L609.532 45L603.529 68L603 99L602 108L597 108L596 101L594 101C590.702 112.158 596.995 120.578 597.078 130.762C597.125 136.538 587.376 131.415 586 129L585 129L585 141L584 141L581 133C574.212 135.39 574.009 138.308 567 135L567 156L562 145L560 145L562 159L561 159L561 156L554 164L552 153L549 154C546.007 146.804 538.773 142.356 534.599 135.961C529.903 128.766 534.597 118.775 523 119L524 128L522 128L520 122L519 122L520 130L515 128L514 142L513 142L512 135L508 135L507 140L501 135L498 149L497 149L494 145L494 155L487 155L488 160L482 159L483 172L486 171L486 184L483 184L482 193L485 191C480.704 197.111 480.021 204.648 480 212L477 211L476 215C475.072 214.537 473.862 213.81 472.844 213.441C462.218 209.594 472.082 222.904 470.237 225.994C467.286 230.934 461.416 226.07 458 225L459 241L451.998 230.444L438 221L438 226L437 226L435 220L429 220C429 208.713 426.599 202.173 416 197L419 218L418 218L415 210L413 212L410 206L407 208L395 197L394 197L390 197L388 204L387 204L381 201L382 208L374 205L375 220L371 217L367 218L364 226L350 221L351 232L356 236L352 238L351 232L348 234L348 231C342.887 230.738 335.666 227.071 337 235L340 234L337 238L328 235L331 247C337.129 250.411 346.519 254.742 348 262L347 262L341 257C342.394 262.133 343.077 264.224 340 269L340 270L350 292L337 295L338 306L334 310L328 316L326 313C325.571 316.284 324.209 316.928 321 317L314 325C315.97 334.982 310.266 334.61 305 341L309 344C304.313 344.222 302.643 347.932 301 352L308 353L298 366L294 367L294 368L302 375C298.031 380.121 294.16 385.376 294 392L290 391L288 396C294.735 401.435 289.924 409.257 288 416L296 416L295 420L299 419L304 423L296 427L293 430L290 438L297 437L295 448C310.447 450.626 331.22 442.941 343.17 433.335C348.938 428.698 354.878 426.299 353 418C358.989 417.24 364.27 421.602 368 426L381 427L381 428C376.126 428.037 358.101 427.237 360.377 435.91C361.296 439.416 365.621 441.534 368 444C358.783 445.783 346.323 453.286 349 464L350 464L356 456L363 462C353.859 461.606 344.167 468.217 336 471.727C327.535 475.365 319.637 476.493 313 483L313 488L325 487L323 489L324 492L318 493L335 500L324 503L324 506L330 506L336 511L336 512L327.981 515.458L310 505L313 512L307 510C301.868 514.677 297.02 507.554 295 503L294 503L294 506L278 505L285.745 516.911L296 536L288 537L288 539L297 543L297 544L293 548C296.558 548.634 300.89 548.225 303.91 550.404C309.898 554.721 309.539 559.695 312.738 565.286C316.098 571.16 321.917 575.341 328 578L328 580L324 584L323 584L319 581L338 600L334 598L332 602C325.407 599.709 316.927 593.747 313 602L308 603L308 604L311 608C308.546 606.978 306.406 605.411 303.961 604.373C297.85 601.778 287.301 601.57 295.059 609.996C300.699 616.12 308.776 616.145 314 622L298 621L298 622L308 629C307.039 635.271 309.731 638.301 316 639L316 640L312 640L314 643L314 644L313 648L297 639L296 644C300.773 645.493 306.348 653.731 302.254 658.486C299.44 661.754 295.272 660.866 293 665L288 668L295 669L296 676C289.588 677.672 281.377 671.874 277 678L256 673L251 677C253.787 682.178 259.364 681.7 263.722 685.05C270.306 690.112 270.338 696.036 280 698L279 702C289.618 704.113 294.141 712.994 302.058 718.656C305.705 721.264 309.624 720.049 313.424 721.756C319.017 724.269 323.243 728.709 329 731C321.703 734.196 318.308 732.24 312 728L311 732L309 732L288 717C280.53 717.312 279.48 712.597 273.981 708.688C268.144 704.539 258.782 699.014 252 697L251 701L243 696L237 704L243 707C239.993 710.681 236.159 715.859 243 717L241 720L240 720L239 718L238 718C231.394 721.96 226.606 715.247 222 724L224 728C233.399 729.829 246.194 730.499 250 740L247 739L248 749L254 747C251.11 751.741 248.242 757.9 242 757L242 764L244 762L252 763L252 764C245.331 766.081 242.852 769.014 244 776C239.932 778.301 239.827 784.295 244.192 786.926C246.74 788.461 249.845 787.31 252.551 788.152C259.588 790.342 261.959 792.854 270 791L268 796C275.557 797.712 280.466 799.617 273 807L273 808C287.038 807.672 288.803 808.777 282 822L292 819L293 830C295.952 829.739 298.121 830.37 301 830.938C303.9 831.509 307.983 830.67 310.454 832.612C313.024 834.632 307.811 837.68 306.68 839.13C304.447 841.989 303.169 845.21 299.981 847.258C295.455 850.166 290.083 847.512 289 854L286 853L285 854C287.919 860.869 291.419 862.048 298 859L297 868C301.297 866.857 305.088 863.217 308 868C293.738 870.88 296.876 882.417 294 892L297 891L297 902C301.637 897.734 305.581 889.299 306 883L315.999 879.755L330.394 878.346L334 869L335 876L340 871L342 876C339.174 876 339.209 877.142 339 880L342 879L338 887L338 888C340.083 894.561 332.954 898.039 331 904C338.76 902.985 347.078 898.269 348 890C353.629 895.355 343.862 912.995 341 920L351 914L353 918L355 917L356 918L353 921C356.566 930.404 349.326 931.549 348 940L351 936C357.052 941.863 349.038 944.023 351.327 949.891C353.058 954.327 362.095 955.791 364.892 951.772C366.56 949.374 366.305 944.83 367 942L368 942C368.125 947.341 367.756 951.506 374 952L376 949C375.118 953.473 371.006 960.51 375 964L379 953L388 953L390 964L384 968C387.183 971.188 385.538 973.88 385 978L405 965L398 988L405 988L406 984L412 986C407.798 993.533 401.536 998.638 403 1008L404 1008L408 1003L407 1008L408 1008L420 995L419 1004C423.718 1002.99 426.883 1000.96 430.644 1005.39C433.162 1008.36 432.813 1014.4 437 1015C430.968 1026.49 449.711 1029.43 455 1021L477 1037L478 1037L480 1031L481 1031L482 1035L483 1035L487 1028C483.194 1012.59 481.748 1001.87 483 986C490.891 989.834 490.583 979.842 488 975L494 975L494 989L495 989L496 986L501 988L504 981L505 981L509 987L513 973L514 973L515 982L520 973L521 973L523 975L524 972L526 972C528.954 980.728 533.504 989.432 543 992L545 982L546 982L553 994L557 993C556.28 987.306 553.883 978.614 555.067 973.059C556.407 966.778 563.112 970.493 565 974L572 973C571.126 963.695 570.819 949.726 562 944L565 935C568.167 938.705 571.1 948.948 577 946L578 952L580 952L582 930L586 925L590 932C596.477 927.545 590.556 915.992 594 909L595 913L596 913L594 888L594 877L602 882L609 882L610 876L614 882L617 882L615 884L616 888C630.216 887.586 632.674 903.459 638 914L640 911L641 911C645.162 923.949 653.782 924.795 662.511 932.579C668.11 937.572 669.373 944.187 671 951L672 949L673 949C671.161 965.363 651.043 976.173 646 992L666 973C666.039 980.386 657.717 986.788 653.156 992C647.621 998.325 645.255 1004.48 642 1012L661 994C666.117 988.662 671.153 979.599 679 980L678 975C684.162 973.421 691.113 975.026 696.985 972.954C702.013 971.181 704.99 965.021 711 965.814C716.058 966.481 725.621 973.214 723.073 979.004C716.205 994.615 695.172 994.215 692 1012L710 1004L683 1024L688 1024C688.488 1028.24 687.993 1033.69 692.129 1036.34C697.805 1039.97 705.115 1029.47 706 1025L707 1025L703 1041C710.265 1038.45 712.176 1034.11 713 1027L714 1027L714 1032L722 1025L708 1048L716 1046L728 1035L721 1052C724.87 1056.82 717.733 1059.87 715.573 1064.09C713.705 1067.74 714.003 1072.03 714 1076L718 1071L719 1071C719.035 1080.77 722.663 1079.64 728 1073C728.561 1077.15 729.746 1079.28 734 1080L746 1051L749 1053L756 1037L757 1040L758 1040L761 1036L762 1044L765 1044L769 1038C770.64 1050.32 781.481 1047.7 783 1060L784 1060L783 1028L787 1029L790 1046L793 1044L797 1061L798 1061L800 1056L801 1056L795 1071L796 1072L798 1072L800 1066L803 1067L804 1062L805 1062L807 1073L809 1073C811.101 1065.89 806.248 1044.84 812 1043L810 1045L810 1046C816.933 1055.8 814.128 1063.56 817 1074L824 1070L822 1080C827.52 1079.56 828.518 1076.13 828 1071C831.849 1075.24 832.528 1074.94 838 1074L834 1080L842 1077L844 1077C846.213 1080.07 851.937 1081.64 854.991 1078.4C857.156 1076.1 856.441 1072.81 857.6 1070.13C860.105 1064.32 867.572 1063.21 873 1064C873.113 1058.52 872.844 1048.02 879 1046C878.078 1041.52 878.836 1039.1 883 1037L882 1050L892 1040L888 1029C893.07 1031.32 895.696 1029.95 898 1025L906 1029L904 1035L910 1035L907 1052C921.253 1047.77 910.315 1024.47 920 1015C920.049 1019.16 920.17 1021.89 924 1024L924 1019L930 1016L942.391 1038.71L941 1048C953.105 1040.68 942.198 1023.01 941 1013L948 1020L950 1020L955 1013C956.281 1019.74 959.641 1026.02 966 1029L968 1013L968 1016L969 1016L970 1006L975 1009L974 1001L977 1002C977.55 998.344 976.413 997.255 973 996L973 995L978 994L978 989L985 994C984.912 988.877 984.105 984.403 990 983C981.818 998.949 997.877 1006.61 1002.25 1019C1005.02 1026.84 999.874 1032.82 999.583 1040C999.193 1049.59 1005.9 1043.59 1008 1039L1004.85 1051.17L1006 1060C1010.32 1059.29 1011.33 1057.16 1012 1053C1015.82 1052.91 1018.63 1052.88 1020 1049L1023 1050L1024 1031L1025 1031L1025 1038C1035.89 1039.38 1039.2 1044.79 1042.1 1054.99C1043.59 1060.19 1042.54 1065.21 1048 1068C1050.1 1056.18 1043.88 1047.36 1039.19 1037.01C1038.01 1034.42 1034.16 1030.93 1034.2 1028.1C1034.24 1025.53 1042.12 1018.28 1044 1016C1044.82 1029.74 1051.81 1065.95 1070 1059C1070.2 1063.11 1073.45 1066.48 1075 1061L1080 1066L1084 1062L1079 1055L1094 1061L1094 1072L1097 1067L1103 1068L1079 1037C1070.57 1038.85 1072.4 1033.35 1076 1028L1076 1027L1072 1019C1081.44 1021.21 1088.91 1009 1094.32 1003.06C1099.47 997.411 1110.16 990.312 1117 987C1118.69 993.195 1120.81 1005.17 1126 1009L1131 1003C1127.67 990.643 1126.38 979.796 1128 967L1138 967L1135 977C1142.13 979.552 1147.66 982.981 1151 990C1157.59 988.313 1158.55 993.37 1162 998L1164 998C1167.13 988.038 1159.76 985.905 1159.04 977.019C1158.6 971.598 1163.16 973.099 1163 978C1170.07 974.645 1168.05 968.678 1168 962L1169 962C1169.7 966.387 1171.09 968.824 1175 971L1175 978L1184 976L1187 972L1192 984L1199 989C1197.28 995.04 1199.96 997.72 1206 996C1204.12 991.535 1203.37 987.707 1208 985L1207 992L1211 985L1228 1009L1226 989L1233 1005L1235 1005L1237 1001L1233 1000L1237 994L1240 996C1242.22 989.737 1243.3 980.277 1241 974C1234.16 975.181 1225.96 968.954 1223 963L1227 966L1248 968L1244 965L1241 953C1245.82 957.449 1254.99 967.568 1262 966L1254.41 951.514L1256 941L1259 940L1260 938L1260 937L1256 938L1257 933L1268 939L1271 937L1271 946L1272 946L1272 936C1278.39 939.362 1277.88 947.393 1279 954C1283.08 951.944 1283.86 949.436 1284 945L1287 948L1292 947C1292.6 951.002 1301.68 962.858 1301.59 954.061C1301.44 939.431 1290.58 925.272 1291 911L1296 910C1297.02 921.571 1306.45 922.009 1312.26 930.174C1314.52 933.34 1314.38 938.902 1318.26 940.792C1320.6 941.933 1324.41 940.883 1327 941L1324 948L1327 945L1337 946L1338 949L1339 949L1341 945L1344 950L1348 945L1350 945L1351 948L1357 942C1361.98 944.326 1366.62 946.498 1370 941L1372 941L1378 946L1375 938L1379 940L1380 939L1377 931L1390 941L1391 934C1392.12 935.79 1395.45 940.643 1397.39 936.663C1399.47 932.421 1395.28 927.079 1394.5 923C1393.39 917.216 1397.11 910.959 1401 907L1400 912L1401 912L1406 897L1411 900L1410 895L1427 896C1426.99 890.764 1425.88 885.175 1432.02 883.095C1434.62 882.213 1438.14 883.485 1440.25 881.382C1442.16 879.478 1442.24 875.492 1443 873L1448 876L1448 871L1460 868L1458 858L1459 857L1467 857L1465 854C1470.14 851.558 1469.88 847.245 1473.47 843.379C1479 837.424 1489.43 832.823 1491.56 823.959C1492.78 818.869 1483.12 815.647 1487.11 808.147C1489.54 803.588 1496.97 805.415 1501 803L1494 796L1494 795C1497.73 788.886 1487.93 788.646 1484 787.379C1474.67 784.369 1450.45 782.272 1450 796L1434 779L1450 780L1449 775L1444 769L1462 768C1461.42 763.656 1459.99 761.855 1456 760C1460.97 755.309 1467.75 757.236 1474 757.83C1484.02 758.784 1493.14 757.503 1503 756L1503 755L1494 748C1505.03 743.109 1487.78 739.851 1486 735L1499 736L1493 725L1487 723C1491.02 722.753 1494.51 723.248 1496 719C1510.06 723.428 1517.69 718.246 1531 714C1528.26 706.481 1517.55 698.317 1510 696L1510 695L1521 694C1520.7 690.171 1519.79 688.827 1516 688L1516 687C1525.84 683.723 1509.31 678.645 1506 678L1517 665L1518 668L1522 665L1535.27 668.904L1548.9 685.701L1572 701C1576.12 692.668 1582.76 691.534 1580 681C1588.6 677.544 1580.3 665.198 1577.29 660C1573.81 653.994 1574.28 646.936 1571.03 641C1565.33 630.596 1557.71 625.247 1550.53 616.621C1548 613.586 1549.19 610.942 1551 608L1551 607C1546.79 602.824 1543.08 598.813 1537 598L1548 580L1540 568L1541 563L1564 565.379L1573.39 567.728L1576 557L1572 556C1573.82 553.745 1576.79 550.809 1577.3 547.83C1577.79 544.993 1575.61 542.632 1574.96 540C1573.41 533.658 1576.8 525.234 1567 526L1556.78 507.999L1556.84 497.499L1550 494L1555 487L1551 481L1554 484L1574 477C1576.93 482.12 1581.91 481.595 1587 480L1587 479L1579 476L1595.7 469.722L1603 455C1596.72 451.022 1599.51 442.299 1606 440L1600 433C1608.76 433 1601.94 423.735 1607 425C1605.73 417.355 1596.88 418.909 1591 420L1586 416C1585.4 407.901 1573.11 406.532 1578 399L1578 398L1571 394L1571 393L1574 374L1570 375C1571.5 365.239 1568.13 355.88 1562.39 348.299C1558.75 343.503 1555.24 342.936 1554.82 336C1554.61 332.534 1559.1 323.214 1561.64 320.907C1564.7 318.132 1567.17 319.963 1568 315L1573 316C1577.06 308.772 1591.92 308.382 1591 299L1596 299L1597 294L1598 294C1601.37 297.792 1604.51 291.96 1606 289C1600.1 288.322 1592.16 290.223 1591 283L1596 282C1594.1 277.682 1593.45 275.111 1596 271L1590 269L1589 272L1588 272L1589 266C1586.64 264.502 1586.03 261.592 1583.69 260.218C1578.05 256.919 1567.87 261.111 1563 264L1560 259C1567.65 256.112 1571.45 255.841 1573 247L1566 247L1566 248L1568 249L1564 250L1564 245L1542 243.228L1505 252L1505 249L1484.29 246.531L1466.11 250.914L1462 245L1457 246L1461 235L1445 239C1446.92 219.044 1430.95 238.136 1422 240C1425.85 236.194 1427.74 233.484 1428 228L1415 230L1416 227L1409 228L1411 225L1398 225L1397 225C1390.73 228.658 1382.96 227.158 1379 234L1372 220L1374 211C1390.61 203.39 1393.19 188.037 1402.3 174.911C1405.69 170.033 1412.96 164.595 1414.32 158.714C1416.13 150.867 1413.12 142.122 1415.85 134C1417.72 128.445 1422.49 124.612 1425.24 119.576C1428.66 113.326 1430.23 105.833 1432 99L1427 94C1422.27 93.4976 1418.58 92.3314 1415 96L1414 96C1408.05 90.3639 1400.75 99.6344 1396.73 103.971C1390.58 110.605 1382.39 113.344 1376.53 121C1371.83 127.137 1371.28 136.418 1364 140L1363 137L1362 137L1356 153L1355 153C1353.41 149.562 1351.24 148.686 1349 152L1348 149L1340 147L1337 153L1335 150C1326.98 162.499 1326.02 131.47 1325 128L1320 132L1316 131L1315 134L1310 133C1306.43 129.166 1302.68 134.807 1301 138L1292 138C1290.25 145.929 1287.53 155.243 1278.91 158.923C1273.28 161.327 1266.87 161.045 1261 164L1260 159L1255 158L1251 140L1250 148L1240 133L1231 136L1230 133L1228 133L1225 140L1213 137L1212 142L1204 136L1204 140L1199 137L1200 158L1191.69 167.861L1160 182L1155 177L1154 181L1149 166L1144 180L1144 170C1134.77 176.761 1132.92 196.662 1122 200C1123.71 189.287 1137.56 181.832 1123 176L1125 164L1110 186L1114 168L1111 175L1099 182L1112.47 158.985L1116 137L1107 140L1108 137L1103 136L1107 134C1111.94 115.438 1132.53 110.498 1130 89L1129 89C1125.15 93.3291 1118.72 109.057 1113 103L1105 104L1105 102C1108.54 100.315 1109.69 98.9305 1110 95L1109 95L1108 98L1106 98L1105 95C1111.72 92.437 1111.12 86.7737 1109 81C1116.59 77.0176 1112.51 68.8713 1114 62L1111 63C1111.83 59.8626 1112.59 57.769 1109 57L1110 54L1109 54L1105 64C1099.37 60.8541 1103.65 53.582 1102 48L1099 51L1098 51C1094.98 49.3466 1093.55 50.8885 1091 53L1093 35L1088 35L1085 49L1082 48L1084 39L1083 39L1069 60L1068 37L1067 37L1064 48L1063 48L1064 33L1062 36C1052.6 34.2347 1053.09 24.3512 1053 16L1044 33L1044 20C1038.94 24.1748 1036.41 35.5261 1037 42L1034 37L1028 31L1034 32L1034 29L1028 30L1031 23L1034 24L1032 5C1028.18 6.19055 1023.13 11.4181 1027 15L1027 16L1016 21C1020.81 12.1777 1017.11 9.05847 1017 0L1013 0L1009 19L1008 19L1007 9L1002.74 29.9961L988 52L994 33L987.811 41.7137L973 52L980 41L975 41L962.314 48.3564L952 66C951.674 60.1216 949.618 59.0144 944 60L940 48L938 48C934.592 54.7452 931.175 61.2913 936 68L929 64L931 53C926.559 55.934 925.261 61.9162 925 67L924 67L922.523 56.8333L909 53L895.39 40.7415L884 37L888 52C881.797 51.7529 877.515 46.755 876 41L872 49L868 42C865.101 40.9796 863.692 40.7723 863 44L860 44L857 41L859 48L848 39C847.513 43.2925 844.878 43.4628 841 43L840 57L823 43L828 58C821.837 55.23 820.182 50.5691 817 45L810 60C808.567 55.7383 806.218 56.7623 803 59L801 55L800 55L800 61L786 55L785 61C777.253 57.3351 768.927 62.0632 762 66C758.198 61.9998 750.671 66.4797 747 69L757 79L756 86C751.614 84.7111 748.786 83.8159 748 79C744.203 80.2527 743.737 82.6236 747 85L748 94L729 92L721 83C710.482 86.1934 722.18 92.4665 722 98L720 98L719 95L718 95L720 105L711 101L713 116L725 123C722.352 130.462 728.097 131.46 732.316 136.184C741.257 146.193 751.928 149.465 763 156.066C771.224 160.968 780.693 163.671 782 151L783 151L788 198C784.222 194.69 770.113 168.291 765 181C758.108 181.349 763.741 196.291 765 201L731 179L730 185L735 185L731 186L731 206C727.4 194.797 713.516 184.59 704.714 177.289C700.711 173.968 695.001 172.102 692.858 166.985C690.392 161.096 691.433 154.151 690.818 148.039C689.933 139.248 687.919 131.184 689.892 122C691.517 114.437 696.507 105.767 696.629 98.1042C696.688 94.3832 692.638 90.981 692 87L688 89L689 79L684 80L680 65L679 65L676 48L675 48L682.528 24.0393L679 0L630 0z"/>
<path style="fill:#fdfdfd; stroke:none;" d="M679 0L682.071 25.0146L675 48L676 48L677 46L679 65L680 65L681 63L684 80L689 79L688 89L692 87C692.38 91.1522 696.259 94.4278 696.272 98.1042C696.299 105.36 691.493 113.873 689.888 121C687.61 131.12 690.232 139.452 690.688 149.015C690.976 155.069 690.178 163.362 693.318 168.896C695.725 173.137 701.138 174.955 704.714 178.04C713.807 185.882 725.753 195.001 731 206C736.076 200.508 730.747 192.323 731 186L735 185L730 185L731 179L752.996 191.213L765 201C764.209 196.344 758.636 181.743 765 181C771.832 170.017 783.008 195.092 788 198C787.451 182.758 789.369 164.727 783 151L782 151C779.553 164.499 770.448 159.351 762 154.912C751.467 149.378 740.89 145.705 732.969 136.184C728.923 131.32 722.976 130.46 725 123L713 116L711 101L720 105L718 95L719 95L720 98L722 98C723.096 91.4787 711.315 87.9001 721 83L729 92L748 94L747 85C744.596 82.2032 744.755 80.822 748 79C748.416 84.2232 751.241 84.9979 756 86L757 79L747 69C751.719 66.7053 756.885 63.0432 762 66C769.85 62.8785 776.434 58.0876 785 61L786 55L800 61L800 55L801 55L803 59C806.285 57.419 807.993 56.6635 810 60L817 45C819.464 50.998 821.415 56.0012 828 58L823 43L840 57L841 43C845.068 43.8401 847.787 43.6102 848 39L859 48L857 41L860 44L863 44L863 41L868 42C867.67 45.8044 868.713 47.142 872 49L876 41C876.962 47.0067 881.439 52.9313 888 52L884 37L895.39 41.4336L909 53C910.861 59.342 916.768 54.3474 921.051 56.4075C924.894 58.2559 924 63.485 924 67L925 67L931 53L929 64L936 68C931.913 60.5605 935.226 55.4259 938 48L940 48L944 60C949.254 59.5021 951.383 60.5273 952 66L962.314 49.2377L975 41L980 41L973 52C984.144 48.4031 986.523 40.1104 994 33L988 52C992.741 48.6864 1002.04 35.7427 1003.19 29.9961C1004.55 23.2478 1002.74 14.8392 1007 9L1008 19L1009 19L1013 0L679 0M1017 0L1016 21L1027 16L1027 15C1024.61 10.8209 1028.24 6.95056 1032 5L1034 24L1031 23L1028 30L1034 29L1034 32L1028 31L1034 37C1033.71 40.0082 1034.03 41.1342 1037 42C1036.7 35.1335 1039.57 25.1567 1044 20L1044 33L1053 16C1053.03 24.4684 1051.91 35.1187 1062 36L1064 33L1063 48L1064 48L1067 37L1068 37L1069 60L1083 39L1084 39L1082 48L1085 49C1087.61 44.4052 1089.44 40.2477 1088 35L1093 35L1091 53L1098 51L1099 51L1102 48C1103.27 53.3944 1098.73 61.9156 1105 64L1109 54L1110 54L1109 57L1111 63L1114 62C1111.89 69.3579 1116.02 75.4366 1109 81C1110.42 87.1705 1111.3 91.3365 1105 95L1106 98L1108 98L1109 95L1110 95L1105 102L1105 104L1113 103C1118.06 110.474 1126.24 93.4958 1129 89L1130 89C1130.31 94.595 1130.14 101.776 1127.12 106.741C1120.38 117.801 1109.29 119.505 1107 134L1103 136L1108 137L1107 139L1107 140L1116 137L1112.45 157.996L1099 182L1111 175L1114 168L1110 186C1116.4 184.979 1120.3 169.664 1125 164L1123 176C1136.68 183.683 1122.94 188 1122 200C1131.58 198.391 1137.51 177.18 1144 170L1144 180L1149 166C1151.63 170.975 1148.37 179.124 1154 181L1155 177L1160 182L1171.21 175.637L1192.45 167.952L1200 158L1199 137L1204 140L1204 136L1212 142L1213 137L1225 140L1228 133L1230 133L1231 136L1240 133L1250 148L1251 140L1255 158L1260 159L1261 164C1277.17 158.26 1289.21 157.413 1292 138L1301 138C1303.39 134.909 1305.97 130.825 1310 133L1315 134L1316 131L1320 132L1325 128C1326.71 135.274 1325.01 141.698 1327.79 148.995C1329.74 154.137 1332.54 155.783 1335 150L1337 153L1340 147L1349 152L1350 149L1355 153L1356 153L1362 137L1363 137L1364 140C1371.28 137.843 1371.75 128.658 1375.79 123C1381.77 114.625 1390.16 111.79 1396.73 104.931C1401.33 100.126 1406.83 92.1384 1414 96L1415 96L1427 94L1432 99C1429.79 105.467 1428.51 112.644 1425.24 118.714C1422.53 123.75 1417.72 127.444 1415.85 133C1413.06 141.298 1416.35 150.905 1413.86 158.714C1411.95 164.678 1405.05 169.637 1401.68 174.911C1398.88 179.294 1398.59 184.549 1395.93 188.985C1390.79 197.519 1382.14 205.432 1374 211L1372 220L1379 234L1397 225L1398 225L1411 225L1409 228L1416 227L1415 230L1428 228L1422 240C1431.07 240.246 1445.97 218.853 1445 239L1461 235L1457 246L1462 245C1462.31 247.732 1462.71 251.03 1466.11 251.377C1471.74 251.952 1479.01 247.126 1485.17 246.758C1491.39 246.387 1498.47 248.95 1505 249L1505 252C1517.95 251.838 1529.1 244.322 1542 243.429C1550.55 242.838 1555.86 249.46 1564 245L1564 250C1565.81 249.805 1568.93 249.274 1566 248L1566 247L1573 247C1570.26 255.662 1567.52 255.066 1560 259L1563 264C1568.7 262.013 1576.45 257.136 1582.97 260.028C1586.35 261.525 1585.28 265.204 1589 266L1588 272L1589 272L1590 269L1596 271C1593.01 274.844 1593.68 277.921 1596 282L1591 283C1591.61 290.813 1599.84 288.731 1606 289C1603.88 291.908 1601.77 296.164 1598 294L1597 294L1596 299L1591 299C1589.92 309.178 1576.01 307.087 1573 316L1568 315C1565.96 321.57 1554.64 325.197 1554.47 334.005C1554.32 342.356 1558.49 343.221 1562.31 349.143C1567.54 357.241 1570.69 364.99 1570 375L1574 374L1571 393L1571 394L1578 398L1578 399C1571.4 405.544 1584.93 408.81 1586 416L1591 420C1597.1 419.23 1604.78 417.679 1607 425L1600 433L1606 440C1599.07 441.446 1595.51 451.861 1603 455L1594.86 469.722L1579 476L1587 479L1587 480C1581.52 481.338 1577.83 481.539 1574 477L1554 484L1551 481L1555 487L1550 494L1556.12 497.499L1556.34 507.999L1567 526C1576.64 525.761 1573.09 534.232 1574.47 540.424C1575.03 542.947 1577.25 545.124 1576.79 547.83C1576.31 550.626 1573.43 553.589 1572 556L1576 557L1573.36 567.069L1564 565.014L1541 563L1540 568L1548 580L1537 598L1551 607L1551 608C1548.66 610.534 1547.58 613.468 1549.86 616.621C1553.38 621.466 1559.61 623.836 1563.15 629.015C1570.03 639.067 1571.17 649.821 1576.71 660C1579.9 665.852 1587.96 676.114 1580 681C1581.68 691.586 1574.61 692.274 1572 701C1564.66 696.877 1555.38 691.852 1549.61 685.701C1539.68 675.122 1537.94 667.741 1522 665C1520.38 667.872 1519.17 667.125 1517 665L1506 678C1509.5 678.917 1523.65 682.461 1516 687L1516 688L1521 694L1510 695L1510 696C1517.9 699.928 1526.64 706.15 1531 714C1516.97 717.467 1510.59 721.808 1496 719L1487 723L1493 725L1499 736L1486 735C1487.28 740.866 1503.23 741.794 1494 748C1495.96 751.934 1498.61 754.303 1503 755L1503 756C1491.27 756.711 1480.85 757.901 1469 757.089C1464.39 756.774 1458.91 755.968 1456 760L1462 768L1444 769L1449 775L1450 780L1434 779C1437.38 785.011 1443.59 793.255 1450 796C1450.99 783.019 1473.95 784.46 1483 787.379C1487.79 788.923 1495.33 788.352 1494 795L1494 796L1501 803C1494.07 805.925 1481.57 804.932 1486.4 816.946C1487.29 819.175 1491.55 821.145 1491.25 823.615C1490.21 832.221 1477.56 837.616 1472.77 843.379C1469.58 847.215 1469.38 850.989 1465 854L1467 857L1459 857L1458 858L1460 868L1448 871L1448 876L1443 873C1441.85 875.409 1441.65 879.568 1439.53 881.307C1437.46 883 1434.42 882.003 1432.02 882.691C1425.51 884.553 1426.96 890.712 1427 896L1410 895L1411 900L1406 897L1401 912L1400 912L1401 907C1395.4 910.773 1392.89 918.534 1394.73 925.001C1395.62 928.155 1398.65 932.421 1397.34 935.793C1395.84 939.674 1392.39 935.595 1391 934L1390 941L1377 931L1380 939L1379 940L1375 938L1378 946L1372 941L1370 941C1365.68 945.745 1362.44 943.811 1357 942L1351 948L1350 945L1348 945L1344 950L1341 945L1339 949L1338 949L1337 946L1327 945L1324 948L1327 941C1314.67 939.743 1318.53 935.014 1310.77 927.68C1304.36 921.615 1297.46 919.692 1296 910L1291 911C1290.14 915.98 1292.94 918.671 1294.48 923.155C1295.61 926.447 1294.13 929.742 1295.09 933.015C1297.11 939.911 1301.59 946.48 1301.23 954.056C1300.83 962.23 1292.66 949.726 1292 947L1287 948L1284 945L1279 954C1278.36 947.571 1278.81 938.412 1272 936L1272 946L1271 946L1271 937L1268 939L1257 933L1256 938L1260 937L1260 938L1259 940L1256 941L1254.14 952.089L1262 966C1254.33 966.762 1247 956.777 1241 953L1244 965L1248 968L1227 966L1223 963C1224.86 969.211 1234.63 976.488 1241 974L1240 996L1237 994L1233 1000L1237 1001L1235 1005L1233 1005L1226 989L1228 1009L1211 985L1207 992L1208 985C1202.82 986.821 1203.83 991.923 1206 996C1200.19 997.198 1197.8 994.805 1199 989L1186.16 973.33L1175 978L1175 971L1169 962L1168 962C1168.01 968.815 1169.16 973.776 1163 978C1163.89 972.724 1158.48 970.721 1158.61 976.059C1158.83 985.08 1166.17 988.126 1164 998L1162 998C1159.28 992.873 1157.48 987.203 1151 990C1148.83 982.619 1142.19 978.628 1135 977L1138 967L1128 967C1125.81 978.809 1126.46 991.843 1131 1003L1126 1009L1123 1008L1117 987C1110.34 988.95 1098.15 997.734 1093.51 1003.06C1088.09 1009.29 1081.33 1019.57 1072 1019L1076 1027L1076 1028C1071.26 1032.94 1070.28 1039.71 1079 1037L1103 1068L1097 1067L1094 1072L1094 1061L1079 1055L1084 1062L1080 1066L1075 1061C1072.73 1065.64 1070.42 1062.99 1070 1059C1051.14 1064.1 1046.3 1030.23 1044 1016C1041.76 1017.92 1033.65 1025.3 1033.64 1028.1C1033.62 1031.18 1037.47 1034.3 1038.76 1037.01C1043.7 1047.42 1049.25 1056.15 1048 1068C1035.79 1058.7 1046.02 1039.66 1025 1038L1025 1031L1024 1031C1021.66 1037.42 1021.2 1043.39 1023 1050L1020 1049L1012 1053C1010.99 1056.83 1009.87 1058.84 1006 1060L1008 1039C1006.89 1040.72 1004.87 1046.67 1002 1044.94C997.85 1042.44 1003.27 1026.87 1003.25 1022C1003.23 1013.28 995.846 1010.83 991.564 1004.95C987.719 999.662 987.776 988.841 990 983C983.255 982.896 984.791 989.04 985 994L978 989L978 994L973 995L973 996L977 1002L974 1001L975 1009L970 1006L969 1016L968 1013L966 1029C960.252 1024.94 957.056 1019.67 955 1013L950 1020L948 1020L941 1013C940.17 1025.03 952.853 1037.17 941 1048L942.598 1038L930 1016L924 1019L924 1024L920 1015C907.236 1023.27 922.007 1044.71 907 1052L910 1035L904 1035L906 1029L898 1025C895.083 1029.32 893.103 1030.59 888 1029L892 1040L882 1050L883 1037C878.264 1038.44 877.725 1041.51 879 1046C872.496 1047.28 873.045 1058.54 873 1064C860.468 1060.61 857.571 1070.28 855 1080L1920 1080L1920 0L1017 0M1015 9L1016 10L1015 9M1007 19L1007 22L1008 22L1007 19z"/>
<path style="fill:#040404; stroke:none;" d="M996.667 27.3334L997.333 27.6666L996.667 27.3334M871 43L872 44L871 43z"/>
<path style="fill:#fdfdfd; stroke:none;" d="M848 44L850 54C853.638 51.1429 850.549 46.8014 848 44M1078.67 51.3334L1079.33 51.6666L1078.67 51.3334M874 53L875 54L874 53M888 53L890 57L891 57L888 53M1095 56L1098 53L1095 56z"/>
<path style="fill:#040404; stroke:none;" d="M776.667 55.3334L777.333 55.6666L776.667 55.3334z"/>
<path style="fill:#fdfdfd; stroke:none;" d="M875 55L876 56L875 55M975 55L976 56L975 55M1090 57L1089 61L1091 59L1093 60L1094 60L1094 59L1090 57z"/>
<path style="fill:#040404; stroke:none;" d="M764 59L764 60L769 61L764 59z"/>
<path style="fill:#fdfdfd; stroke:none;" d="M801 60C800.29 63.0576 800.331 64.2684 803 66L801 60M1067 60L1066 64L1067 64L1067 60M785 61L786 62L785 61M807 61L807 64L808 64L807 61M1108 62L1111 64L1108 62M947 65L946 70L950 65L947 65M1111 67L1112 68L1111 67M1061 74L1058 80C1061.11 79.3371 1062.17 76.8525 1061 74M720.333 102.667L720.667 103.333L720.333 102.667M720 105L721 106L720 105z"/>
<path style="fill:#040404; stroke:none;" d="M506.667 107.333L507.333 107.667L506.667 107.333z"/>
<path style="fill:#fdfdfd; stroke:none;" d="M725 107L726 108L725 107M598 109L598 112L599 112L598 109M734 109L734 112L735 112L734 109M1101 113L1098 121L1105 115L1101 113M1095 123L1096 124L1095 123M726 125L727 126L726 125M520 132L521 133L520 132z"/>
<path style="fill:#040404; stroke:none;" d="M690.667 135.333L691.333 135.667L690.667 135.333M1115 135L1116 136L1115 135z"/>
<path style="fill:#fdfdfd; stroke:none;" d="M685.333 138.667L685.667 139.333L685.333 138.667M1213 139L1214 140L1213 139M1107 141L1108 145L1107 141M1098 145L1099 149L1100 149L1100 145L1098 145M1093 147C1092.43 149.396 1092.52 149.487 1095 150L1093 147M1103 149L1106 152L1103 149M1201 151L1202 152L1201 151M1100 155L1101 156L1100 155z"/>
<path style="fill:#040404; stroke:none;" d="M479 158L480 161L479 158z"/>
<path style="fill:#fdfdfd; stroke:none;" d="M1141 182L1141 189C1144.2 186.692 1143.73 184.604 1141 182M1158 183L1159 184L1158 183M767 187L768 188L767 187M1139 189L1138 192L1139 189M787 199L788 200L787 199z"/>
<path style="fill:#040404; stroke:none;" d="M478.333 202.667L478.667 203.333L478.333 202.667z"/>
<path style="fill:#fdfdfd; stroke:none;" d="M385 203L386 204L385 203M392 205L394 208L392 205M383.333 206.667L383.667 207.333L383.333 206.667z"/>
<path style="fill:#040404; stroke:none;" d="M476 207L477 208L476 207M370 210L371 216L372 216L370 210M435 219L436 220L435 219z"/>
<path style="fill:#fdfdfd; stroke:none;" d="M475 223L476 224L475 223M1399 228L1400 229L1399 228z"/>
<path style="fill:#040404; stroke:none;" d="M350 229L351 230L350 229z"/>
<path style="fill:#fdfdfd; stroke:none;" d="M473 229C472.84 233.383 474.442 236.07 479 236L473 229z"/>
<path style="fill:#040404; stroke:none;" d="M455 231L456 232L455 231z"/>
<path style="fill:#fdfdfd; stroke:none;" d="M442 235L443 236L442 235M466 237L466 242L467 242L466 237M341 239L342 240L341 239M357 239L358 240L357 239M440 239L441 240L440 239z"/>
<path style="fill:#040404; stroke:none;" d="M1558 243L1558 244L1561 244L1558 243M1459 244L1460 245L1459 244z"/>
<path style="fill:#fdfdfd; stroke:none;" d="M1544 246L1545 247L1544 246z"/>
<path style="fill:#040404; stroke:none;" d="M338 255L339 256L338 255M1589 257L1588 258L1588 260L1590 264L1592 264L1591 257L1589 257z"/>
<path style="fill:#fdfdfd; stroke:none;" d="M344 273L345 273L347 267L344 273z"/>
<path style="fill:#040404; stroke:none;" d="M1598 273L1599 274L1598 273M1597 277L1597 278L1602 275L1597 277M1597 279L1598 280L1597 279M336 301L335 304L336 304L336 301z"/>
<path style="fill:#fdfdfd; stroke:none;" d="M340 303L341 304L340 303M317 327L317 333L320 332L317 327M1505 346L1504 351L1511 352C1510.08 348.256 1508.86 346.654 1505 346z"/>
<path style="fill:#040404; stroke:none;" d="M298 375L299 376L298 375z"/>
<path style="fill:#fdfdfd; stroke:none;" d="M383.667 427.333L384.333 427.667L383.667 427.333M388 429L392 432L388 429z"/>
<path style="fill:#040404; stroke:none;" d="M290.333 433.667L290.667 434.333L290.333 433.667z"/>
<path style="fill:#fdfdfd; stroke:none;" d="M300 435L301 436L300 435M395 435L395 436L398 436L395 435M300 439L300 440L303 440L300 439M402.667 439.333L403.333 439.667L402.667 439.333M370 443L371 444L370 443M1558 475L1559 476L1558 475M317 479L318 480L317 479z"/>
<path style="fill:#040404; stroke:none;" d="M312 485L313 486L312 485z"/>
<path style="fill:#fdfdfd; stroke:none;" d="M328 487L329 488L328 487M1545 491L1546 492L1545 491M340 495L341 496L340 495M336.667 497.333L337.333 497.667L336.667 497.333z"/>
<path style="fill:#040404; stroke:none;" d="M284.667 519.333L285.333 519.667L284.667 519.333z"/>
<path style="fill:#fdfdfd; stroke:none;" d="M333 519L334 520L333 519M299 539L302 541L301 538L299 539M1571 553L1572 554L1571 553M1573 563L1574 564L1573 563z"/>
<path style="fill:#040404; stroke:none;" d="M1544.67 571.333L1545.33 571.667L1544.67 571.333z"/>
<path style="fill:#fdfdfd; stroke:none;" d="M1538.67 587.333L1539.33 587.667L1538.67 587.333M340 599L340 600L344 600L340 599M337 603L338 604L337 603M316 623L316 624L319 624L316 623M316 643L317 644L316 643M319 645L320 650L321 650L319 645M307 658L306 660L308 660L307 658z"/>
<path style="fill:#040404; stroke:none;" d="M247 675L247 676L251 676L247 675M276 675L277 676L276 675z"/>
<path style="fill:#fdfdfd; stroke:none;" d="M276 679L277 680L276 679M1514 687L1515 688L1514 687z"/>
<path style="fill:#040404; stroke:none;" d="M242 695L243 696L242 695z"/>
<path style="fill:#fdfdfd; stroke:none;" d="M1499 695L1499 696L1507 696L1499 695z"/>
<path style="fill:#040404; stroke:none;" d="M1524 703L1524 705L1526 703L1524 703M1532 713L1533 714L1532 713M1497 721L1498 722L1497 721M1499 721L1500 722L1499 721z"/>
<path style="fill:#fdfdfd; stroke:none;" d="M332.667 731.333L333.333 731.667L332.667 731.333M1484 735L1485 736L1484 735z"/>
<path style="fill:#040404; stroke:none;" d="M247 736L248 737L247 736z"/>
<path style="fill:#fdfdfd; stroke:none;" d="M1442.67 747.333L1443.33 747.667L1442.67 747.333M1489 747L1490 748L1489 747M256 749L258 751L258 749L256 749M1415 755L1416 756L1415 755M1455 755L1456 756L1455 755M1416 757C1417.77 765.17 1424.87 774.661 1432 779L1416 757M253 759L254 760L253 759z"/>
<path style="fill:#040404; stroke:none;" d="M237 773L237 774L241 774L237 773z"/>
<path style="fill:#fdfdfd; stroke:none;" d="M244 781L244 784L245 784L246 781L244 781z"/>
<path style="fill:#040404; stroke:none;" d="M1490 814L1489 816L1491 816L1490 814M280 823L280 824L283 824L280 823z"/>
<path style="fill:#fdfdfd; stroke:none;" d="M1469 843L1470 844L1469 843M340 859L341 860L340 859M1453.67 863.333L1454.33 863.667L1453.67 863.333z"/>
<path style="fill:#040404; stroke:none;" d="M293 871L287 876C289.99 875.591 293.943 874.652 293 871z"/>
<path style="fill:#fdfdfd; stroke:none;" d="M598 871L599 872L598 871M298 884L301 884L300 882L298 884z"/>
<path style="fill:#040404; stroke:none;" d="M293 887L294 888L293 887z"/>
<path style="fill:#fdfdfd; stroke:none;" d="M352 891L353 892L352 891M1288.67 907.333L1289.33 907.667L1288.67 907.333M589 909L588 912L589 909M386 913L385 918L386 913M794 913L794 916L795 916L794 913z"/>
<path style="fill:#040404; stroke:none;" d="M1396 917L1397 918L1396 917z"/>
<path style="fill:#fdfdfd; stroke:none;" d="M384 920L384 924L385 924L384 920M790 920L789 924L796 926L796 921L790 920M780 923C766.063 931.366 756.326 934.456 759 952C769.333 951.202 772.509 934.992 784 932L780 923M757 928L756 934L757 934L757 928z"/>
<path style="fill:#040404; stroke:none;" d="M585.333 930.667L585.667 931.333L585.333 930.667z"/>
<path style="fill:#fdfdfd; stroke:none;" d="M1264 931L1265 932L1264 931M1381.67 931.333L1382.33 931.667L1381.67 931.333M573.333 935.667L573.667 936.333L573.333 935.667M1266 935L1267 936L1266 935M370 938L369 940L371 940L370 938M575 942L576 945L575 942M373 943L373 944L376 945L373 943M1291.67 943.333L1292.33 943.667L1291.67 943.333M1339.33 943.667L1339.67 944.333L1339.33 943.667z"/>
<path style="fill:#040404; stroke:none;" d="M1391 943L1392 944L1391 943z"/>
<path style="fill:#fdfdfd; stroke:none;" d="M1344 947L1345 948L1344 947M1168 949L1168 953L1169 953L1168 949z"/>
<path style="fill:#040404; stroke:none;" d="M347 951L348 952L347 951z"/>
<path style="fill:#fdfdfd; stroke:none;" d="M1049 955L1049 956L1054 956L1049 955M1152 955L1153 956L1152 955M1246 955L1247 956L1246 955M1219 956L1221 962L1219 956M1233 960L1236 960L1235 958L1233 960z"/>
<path style="fill:#040404; stroke:none;" d="M387 960L387 963L388 963L387 960z"/>
<path style="fill:#fdfdfd; stroke:none;" d="M1237.67 961.333L1238.33 961.667L1237.67 961.333M1222 962L1223 963L1222 962M1240 963L1241 964L1240 963z"/>
<path style="fill:#040404; stroke:none;" d="M1264 966L1264 968L1270 968L1270 966L1264 966z"/>
<path style="fill:#fdfdfd; stroke:none;" d="M553 967L554 968L553 967M1157 967L1157 971L1158 971L1159 967L1157 967M1143 972L1147 969L1143 972M1193 971L1193 976L1196 975L1193 971M981 979L981 980L984 980L981 979M1150.67 979.333L1151.33 979.667L1150.67 979.333z"/>
<path style="fill:#040404; stroke:none;" d="M1178 981L1178 984L1179 984L1178 981z"/>
<path style="fill:#fdfdfd; stroke:none;" d="M487 983L488 984L487 983M1221 983L1225 988L1224 983L1221 983M1232 983L1233 984L1232 983M970 989L972 992L970 989M1235 990L1238 993L1235 990z"/>
<path style="fill:#040404; stroke:none;" d="M557 993L558 994L557 993M1153 993L1153 996L1156 996L1156 993L1153 993z"/>
<path style="fill:#fdfdfd; stroke:none;" d="M934 997L934 1000L936 1000L936 997L934 997z"/>
<path style="fill:#040404; stroke:none;" d="M1159.33 997.667L1159.67 998.333L1159.33 997.667z"/>
<path style="fill:#fdfdfd; stroke:none;" d="M420 999L421 1000L420 999M927 1005L926 1008L927 1005z"/>
<path style="fill:#040404; stroke:none;" d="M1228 1012L1229 1017L1230 1017L1228 1012z"/>
<path style="fill:#fdfdfd; stroke:none;" d="M739 1013L740 1014L739 1013M961 1013L962 1014L961 1013M1070 1015L1071 1016L1070 1015M899 1019L899 1020L902 1020L899 1019z"/>
<path style="fill:#040404; stroke:none;" d="M952 1019L953 1020L952 1019z"/>
<path style="fill:#fdfdfd; stroke:none;" d="M483 1027L484 1028L483 1027M880 1027L880 1028L884 1028L880 1027M1007 1027L1008 1030L1009 1030L1010 1027L1007 1027M783 1028L784 1060L783 1060C782.25 1049.09 777.72 1052.77 771.553 1046.52C769.515 1044.45 769.7 1040.66 769 1038L765 1044L762 1044L761 1036L758 1040L757 1040L756 1037L749 1053L746 1051C741.651 1060.72 734.091 1069.09 734 1080L822 1080L824 1070L817 1074L815.667 1055L812 1043L807.735 1046.15L809 1073L807 1073L805 1062L804 1062L800 1066L798 1072L796 1072L795 1071L801 1056L800 1056L798 1061L797 1061L793 1044L790 1046L787 1029L783 1028M788 1029L789 1030L788 1029M731 1031L732 1032L731 1031M789 1041L793 1041L797 1031L789 1041M1064.67 1031.33L1065.33 1031.67L1064.67 1031.33M754 1035L755 1036L754 1035M849.667 1039.33L850.333 1039.67L849.667 1039.33M860 1043L860 1044C865.304 1049.06 863.078 1053.63 862 1060L863 1060C865.294 1056.22 867.933 1050.44 864 1047L865 1041L860 1043M817 1042L816 1048C818.415 1046.18 818.397 1044.63 817 1042M823 1043L824 1044L823 1043M1067 1054L1068 1054L1069 1045C1064.22 1046.59 1065.76 1049.98 1067 1054M746 1048L746 1050L748 1048L746 1048M834 1053L837 1056L834 1053M819 1057L820 1063L821 1063L821 1057L819 1057M1072 1059L1073 1060L1072 1059M859 1063L860 1064L859 1063M800 1064L801 1065L800 1064M843 1065L844 1066L843 1065M850 1070L850 1072L852 1072L852 1070L850 1070M828 1071L827 1080C832.469 1079.94 834.998 1078.64 838 1074L835 1073C831.741 1075.74 830.799 1073.07 828 1071M727 1073L723 1080L730 1080L727 1073z"/>
<path style="fill:#040404; stroke:none;" d="M1043.67 1075.33L1044.33 1075.67L1043.67 1075.33z"/>
<path style="fill:#fdfdfd; stroke:none;" d="M841 1080L845 1080L844 1077L841 1080z"/>
</svg>
