<?xml version="1.0" standalone="yes"?>
<svg xmlns="http://www.w3.org/2000/svg" width="1920" height="1080">
<path style="fill:#fcfcfc; stroke:none;" d="M0 0L0 1080L618 1080L618 1079C610.264 1074.38 612.021 1063.13 616.211 1056C621.521 1046.96 632.031 1041.79 639.961 1035.41C645.815 1030.69 651.224 1023.58 656.143 1017.85C659.5 1013.93 678.365 1004.46 668 999C658.329 1011.57 644.296 1025.41 631 1034.15C623.728 1038.93 614.625 1041.7 607 1046.22C599.442 1050.69 592.094 1053.93 584.376 1057.58C581.823 1058.79 580.562 1062.24 577.699 1062.83C575.031 1063.38 572.707 1060.93 570 1061.03C566.956 1061.15 563.952 1063.27 561 1064C563.21 1059.72 566.744 1052.94 570.418 1049.82C576.985 1044.24 587 1042.99 593.83 1037.32C602.033 1030.51 614.013 1017.23 625 1016C623.573 1010.71 621.623 1002.93 616 1001C615.274 1005.55 613.115 1006.57 609 1008L608 1007C610.957 1002.56 617.243 992.358 623 989C628.765 985.637 635.806 983.895 641 980C642.17 979.123 642.839 975.394 644 974C647.542 969.75 657.298 958.26 651 957L659 948C652.819 941.972 644.82 954.786 642 960L640 960L644 943L642 946L637 944L628 950L627 950L624 945L629 945L644.028 928.94L641 914L640 914L642 924C636.327 918.652 631.062 904.563 629 897L617.985 901.799L602 901L601 902L601 904L604 904L605 908L597 907L600 920L596 917L594 935L590 935C589.962 938.214 588.289 947.194 584 942L583 942C583.753 950.622 592.673 968.816 586 975L576 961C581.968 973.843 583.738 987.967 581 1002L565 987L563 1013L548 999C547.73 1003.54 545.815 1005.67 542 1008C542.753 1004.85 544.348 999.477 542.651 996.434C540.263 992.149 535.171 994.473 534 998L530 996L529 987L523 983L515 992L514 992L513 988L511 988L506 1000C502.879 996.979 501.792 994.385 506 992L504 989L503 989L498 1001L495 1000L496 1009L495 1009L491 1006L489 1011L486 1009C487.268 1013.82 492.051 1015.87 494.676 1020C503.288 1033.56 504.921 1046.79 495 1060L493 1056L491 1056L490 1064L480 1054L478 1058C475.551 1056.16 471.786 1051.73 469 1054L468 1054L468 1039L465 1038L461 1048L460 1048L457 1035C450.551 1037.49 447.083 1041.03 447 1048L444 1048L442 1032L441 1032L439 1044C431.812 1041.89 428.355 1045.67 426 1037L423 1038C423.103 1034.53 423.819 1033.39 427 1032L427 1031C419.291 1026.19 425.833 1022.21 425 1015L424 1015L414 1021L414 1017L420 1018L418 1008L414 1014L412 1007L411 1007L403 1030L401 1023L397 1026L396 1026C393.789 1016.71 396.791 1008.94 399 1000C395.765 999.565 396.98 997.509 398 995L381 1005L381 1008L380 1008L384 995L381 994L388 988L388 983C375.791 983.885 374.852 996.387 368 1004L364 977L351 988L351 980L347 980L346 980L343 973L347 969C340.274 970.918 330.896 974.204 328 965L327 965L326 969L324 969L323 968L345 950L345 949L341 952L340 952L342 923L324 935L336 915L340 916L346 903C337.601 903.636 329.142 911.53 326 919L325 919L329.179 903.174L339 890L334 889L333 897C329.647 896.524 322.639 897.699 321.612 892.956C320.766 889.047 324.255 887.443 322 883C315.725 885.013 306.887 889.282 303.26 895.062C300.58 899.333 300.882 905.081 297.682 908.938C295.498 911.569 292.253 911.876 290 914L289 914L289 909L283 911L286 906L281 906L283 901L280 905L277 904L289 879L279 881C277.295 873.422 278.259 870.89 286 874L287 870L289 872L290 872L296 868L293 863L292 863C290.282 869.679 285.752 864.929 284 861L281 866L273 856C278.685 851.161 279.657 848.209 281 841L297 846L299 837L302 836L300 833C294.465 839.078 282.747 836.843 280 829C284.886 829.821 285.816 827.176 289 824L289 823C281.432 824.379 265.35 832.186 262 823L269 826L270 826C273.002 821.832 275.859 820.166 281 820C278.782 809.837 279.527 811.571 270 809L269 809L265 812C265.929 805.882 266.41 804.591 273 806L277 800L277 798L276 797L272 801C267.56 797.702 261.586 794.215 258 800L251 795L226 791L216 792L215 792L212 788C215.839 780.963 217.858 775.164 226 772L223 769L220 772L224 764L227 765L227 759L232 755C235.651 755.556 236.593 754.314 238 751L228 748C232.887 742.866 239.507 745.912 240 737L229.043 742.454L220.856 735.318L204 731.188L192 734C194.662 728.981 193.886 725.227 188 724L190 719C201.123 722.758 206.432 713.051 217 711C216.591 707.406 216.897 705.948 220 704L220 702C214.542 700.398 208.267 702.631 205 697C210.584 697.26 212.467 696.002 215 691L200 685C202.486 684.414 210.406 685.195 211.263 682.667C212.856 677.97 202.898 675.43 206.466 671.684C213.813 663.972 224.534 675.915 232 677C224.423 665.033 207.748 660.081 203 646C213.708 646.585 222.42 658.577 232 663.191C237.702 665.938 239.763 659.576 244.985 660.323C249.201 660.925 253.097 665.564 257.001 667.295C262.293 669.64 267.439 669.133 273 669L265 664L269 660L264 656L265 653L286 665C290.272 656.702 293.122 654.425 292 645C288.014 642.763 289.206 640.628 291 637L287 637L286 633L291 635L300 636L289.571 622.012L280 615L281 615L282 617L287 612L268 597L295 596L293 593L297 590L298 590L301 592L300 596L303 597L303 589L304 592L319 592L307 579C313.739 577.556 306.884 565.4 303.75 562.472C298.912 557.952 294.319 560.898 289 559C284.093 563.055 284.525 556.47 285 553L284 553C280.136 557.135 277.475 557.552 273 554C279.416 551.89 285.065 548.894 287 542C279.435 538.406 276.62 534.157 273 527L279 525L280 525L282 528C277.653 517.929 268.63 508.71 261.491 500.619C257.766 496.397 253.326 495.201 253 489L255 489L259 492L255 483L261 483L273 489L274 489L279 486L278 481L279 481L281 486L285 478C297.676 487.769 301.663 482.126 313.83 476.593C318.796 474.334 324.165 475.238 328 471L325 473L322 467L326 469L327 465C332.431 465.312 337.397 461.661 340 457C348.32 457.877 355.913 444.348 356 437L351 438L365 426L368 428C365.439 423.195 360.777 417.701 355 419C356.812 428.885 342.088 435.875 335.09 440.95C324.825 448.394 314.921 450.907 304 456.525C299.893 458.638 294.192 463.664 289.174 462.927C285.535 462.392 284.692 457.709 281.74 456.066C276.863 453.353 270.087 454.287 265.317 450.262C254.813 441.399 260.819 421.918 271 416C269.413 406.604 272.599 406.007 281 404C277.637 397.208 272.288 400.158 266 400C265.678 394.126 266.31 390.189 273 390L270 382L274 384L274 387C276.888 385.473 276.661 384.741 274 383L277 383L280 372L273 351C280.101 354.384 281.892 362.61 291 360L289 358L289 357L288 349L292 348L292 347L286 349L283 346L283 345L288 337L295 339L296 339L296 325L300 329L301 329L294 311L291 312L290 311L295 308L296 305L298 305L299 309L303 310C310.227 309.374 307.837 316.984 313 320C315.523 313.692 319.607 309.079 318 302C328.44 301.66 325.72 290.946 327 283L331 288L333 288L333 282L334 281L336 281L337 284L340 284C338.314 269.605 324.345 268.405 315.622 258.417C312.881 255.278 316.774 250.8 320 253L321 253L322 247L308 245L304 247L302 239C305.697 238.839 306.839 237.697 307 234C312.551 232.948 308.865 228.582 312.421 226.063C318.52 221.745 323.273 225.958 325 216L326 216L326 222L328 222L329 211L337 210L338 210L344 215L345 205L347 208L348 205L351 206L352 201L355 202C354.953 197.745 354.807 194.402 351 192L351 191L352 189L356 191L360 186L364 188C365.848 182.059 369.527 183.56 374 186L373 183L380 182L380 179L381 179L382 179L383 183L403 196L403 189L409 192L406 179L412 184L411 177C418.145 178.552 422.183 182.944 426 189L423 192L427 190C428.173 194.457 432.035 196.895 433.308 201.039C435.955 209.656 432.929 215.703 443 221L442 219L443 219C448.975 220.331 450.479 216.208 449 211C454.875 214.493 461.715 219.366 464 226C470.857 221.825 457.809 211.868 455 207L459 210L460 203L468 209L467 206L475 209L472 199L476 200L471 192L473 187L475 190L472 173L480 178L475 159C469.026 155.126 469.348 147.533 468 141L469 141L476 147L477 141L478 141L480 144L481 133L476 126L484 127L485 136C488.151 135.475 490.6 136.601 490 139C496.522 134.869 493.136 123.577 493 117L499 124C504.835 120.699 500.447 115.462 498 111L502 112C505.361 107.82 507.377 106.364 511 111L523 106L520 90L521 90L522 96L531 96L528 85C540.846 93.8687 535.149 107.789 540 121L541 121L542 112L543 112L550 133L554 125L558 125L557 132L560 129L561 136L562 136L565 121L567 124L568 119C574.908 124.774 565.684 132.622 574 137L581 109L582 109L590 120C588.678 116.462 587.506 114.084 590 111L591 117L592 117L588.275 97L593 80L594 80L595 92C595.491 88.1869 597.782 90.9307 600 92C600 75.5149 599.107 58.0403 603.49 42C606.668 30.3707 613.959 21.1104 617 9L620 11L622 0L0 0z"/>
<path style="fill:#040404; stroke:none;" d="M622 0L620 11L617 9C615.196 14.36 614.702 19.7905 612.215 24.9861C609.506 30.6456 605.208 34.7151 603.49 41C598.987 57.4781 600 75.0546 600 92L598 89L595 92L594 80L593 80L588.144 98L592 117L591 117L590 111L587 112L590 120L582 109L581 109L574 137C567.171 131.439 575.729 123.263 568 119L567 124L565 121L562 136L561 136L560 129L557 132L558 125L554 125L550 133L543 112L542 112L541 121L540 121C536.755 108.767 540.784 91.4034 528 85L531 96L522 96L521 90L520 90C518.473 95.5544 520.037 101.168 523 106L511 111C507.976 105.722 504.655 107.264 502 112L498 111C499.858 115.94 503.611 119.701 499 124C497.906 120.003 497.342 117.724 493 117C493.059 124.169 495.625 133.484 490 139C489.614 135.909 487.946 135.625 485 136L484 127L476 126C476.656 129.585 477.447 131.783 481 133L480 144L478 141L477 141L476 147L469 141L468 141C468.835 147.198 468.735 156.234 475 159C471.288 166.113 478.432 170.972 480 178L472 173L475 190L473 187L471 192L476 200L472 199L475 209C472.495 206.583 467.88 203.279 468 209L460 203L459 210L455 207C457.253 212.672 469.644 221.116 464 226C462.61 219.233 455.205 213.493 449 211C450.183 216.748 447.945 219.658 442 219L443 221L442 221L433.742 209.996L433.383 200.089L427 190L423 192L426 189C423.133 182.326 418.217 178.001 411 177L412 184L406 179L409 192L403 189L403 196C395.558 192.035 393.027 183.246 383 183L380 179L380 182L373 183L374 186C369.76 182.966 365.097 181.632 364 188L360 186L356 191L352 189L351 192L355 202L352 201L351 206L347 208L345 205L344 215L338 210L337 210L329 211L328 222L326 222L326 216L325 216C322.245 225.935 317.316 221.173 311.642 226.03C308.579 228.653 312.189 232.638 307 234C306.657 237.385 305.406 238.682 302 239L304 247L308 245C310.365 248.536 317.885 247.382 322 247L321 253L320 253C316.719 250.197 312.511 254.907 315.032 258.417C323.126 269.686 336.812 269.441 340 284L337 284L336 281L334 281L333 282L333 288L331 288L327 283C325.055 290.431 328.109 301.233 318 302L313 320C308.718 316.221 309.948 308.419 303 310L299 309L298 305L296 305L295 308L290 311L291 312L294 311L301 329L300 329L296 325L296 339L295 339L288 337L283 345L283 346L286 349L292 347L292 348L288 349L289 357L289 358L291 360C281.812 361.966 280.663 353.198 273 351L280 372L277 383L274 383L277 384L274 387L274 384L270 382L273 390C265.716 389.19 265.29 393.946 266 400C272.552 400.671 276.604 397.995 281 404C272.665 405.549 268.417 406.377 271 416C258.405 420.836 256.747 439.54 264.012 449.567C268.046 455.134 276.904 453.42 281.74 456.693C284.294 458.421 285.165 462.333 288.304 463.267C293.135 464.704 300.106 459.219 304 457.055C314.883 451.006 325.487 448.415 336.039 440.95C343.046 435.993 357.691 428.915 355 419C360.671 418.515 364.67 423.854 368 428L365 426L351 438L356 437C355.763 444.281 347.719 456.594 340 457C336.74 460.888 332.309 465.03 327 465L326 469L322 467L325 473L328 471L314 476.046L300.91 484.063L285 478L281 486L279 481L278 481L279 486L274 489L273 489L261 483L255 483L259 492L255 489L253 489C252.297 495.673 257.675 496.981 261.491 501.44C268.619 509.77 276.189 518.55 282 528L280 525L279 525L273 527C275.816 534.535 278.932 539.425 287 542C284.076 548.268 279.078 551.238 273 554C276.757 558.463 280.919 557.863 284 553L285 553C284.123 556.468 284.732 565.336 289 559C292.38 560.293 295.682 559.132 298.996 560.332C304.454 562.308 313.542 574.706 307 579L319 592C314.15 592.428 306.27 592.836 303 589L303 597L300 596L301 592L298 590L297 590L293 593L295 596L268 597L287 612L281 615L280 615L289.571 622.596L300 636L291 635L286 633L287 637L291 637C288.616 640.445 287.241 643.43 292 645L286 665L265 653L264 655L264 656L269 660L265 664L273 669C267.784 668.614 263.004 669.505 258 667.295C253.729 665.408 249.591 660.518 244.985 659.8C240.284 659.067 237.837 664.851 233 663.062C222.188 659.064 214.836 646.286 203 646C205.642 659.138 223.241 667.82 232 677C226.141 675.493 210.259 662.372 205.176 672.364C203.488 675.682 210.235 677.836 210.824 680.967C211.511 684.617 202.593 684.083 200 685L215 691C211.943 695.407 210.462 697.06 205 697C207.18 703.264 214.706 700.783 220 702L220 704C216.315 705.485 216.214 707.274 217 711C206.17 712.399 201.151 721.853 190 719L188 724C193.423 725.906 194.102 728.901 192 734L205 731.443L221.698 736.028L229.043 742.743L240 737C239.013 745.764 231.855 742.217 228 748L238 751L232 755L227 759L227 765L224 764L220 772L223 769L226 772C217.395 774.274 215.169 780.584 212 788L215 792L216 792L228 792.083L258 800C262.557 795.248 266.973 798.189 272 801L277 798L277 800L273 806C266.76 804.167 264.876 805.589 265 812L269 809L270 809L277.762 810.236L281 820C275.762 820.062 272.384 821.062 270 826L269 826L262 823C264.123 832.815 282.07 825.122 289 823L289 824L280 829C281.651 836.94 295.691 840.02 300 833L302 836L299 837L297 846L281 841L273 856L281 866L284 861C285.401 865.663 290.856 870.53 292 863L293 863L296 868L290 872L289 872L287 870L286 874C278.108 869.125 276.584 873.36 279 881L289 879L277 904L280 905L283 901L281 906L286 906L283 911L289 909L289 914L290 914L298.397 908.941L304.568 894.218L322 883C323.479 887.292 320.278 889.268 320.917 892.956C321.766 897.862 329.529 897.098 333 897L334 889L339 890L329.179 902.301L325 919L326 919C330.082 912.135 337.726 904.257 346 903L340 916L336 915L324 935L342 923L340 952L341 952L345 949L345 950C338.953 952.977 323.895 962.015 324 969L326 969L327 965L328 965C329.644 974.503 340.784 971.532 347 969L343 973L346 980L347 980L351 980L351 988L364 977L368 1004C376.471 997.769 375.433 984.827 388 983L388 988L381 994L384 995L380 1008L381 1008L381 1005L398 995C396.61 997.564 395.626 999.574 399 1000C396.293 1008.48 393.373 1017.11 396 1026L397 1026L401 1023L403 1030L411 1007L412 1007L414 1014L418 1008L420 1018L414 1017L414 1021C418.643 1020.36 421.824 1019.33 424 1015L425 1015C424.837 1022.03 418.359 1027.29 427 1031L427 1032C423.512 1033.08 422.88 1034.39 423 1038L426 1037C427.868 1046.42 431.447 1042.38 439 1044L441 1032L442 1032L444 1048L447 1048C447.221 1041.24 451.418 1038.21 457 1035L460 1048L461 1048L465 1038L468 1039L468 1054L469 1054L478 1058L480 1054C482.16 1058.87 485.078 1061.91 490 1064L491 1056L493 1056L495 1060C507.154 1048.6 502.752 1030.2 494.046 1018.05C491.568 1014.6 487.933 1012.89 486 1009L489 1011L491 1006L495 1009L496 1009L495 1000L498 1001L503 989L504 989L506 992C501.062 993.644 502.229 997.548 506 1000L511 988L513 988L514 992L515 992L523 983L529 987L530 996L534 998C540.276 986.657 543.019 1002.51 542 1008C546.318 1006.24 548.549 1003.76 548 999C554.714 1003.88 554.222 1011.44 563 1013C566.885 1005.24 566.07 995.476 565 987L581 1002C584.389 989.675 583.093 971.856 576 961L586 975C593.224 970.553 584.143 949.739 583 942L584 942L584 945C589.682 943.467 589.981 940.436 590 935L594 935L596 917L600 920L597 907L605 908L604 904L602 905L601 904L602 901C613.525 903.258 618.596 899.799 629 897C630.337 903.717 636.235 920.402 642 924L640 914L641 914L643.398 928.925L629 945L624 945L627 950L628 950C632.498 948.509 635.417 949.451 637 944L642 946L644 943L640 960L642 960C645.971 954.913 652.026 944.057 659 948C654.49 949.352 652.701 952.779 651 957C655.406 961.708 647.077 969.483 644.324 973C633.647 986.642 616.476 990.769 608 1007L609 1008C613.6 1007.13 615.62 1005.81 616 1001C621.114 1003.91 623.049 1010.69 625 1016C617.488 1016.41 611.927 1022.58 605.996 1026.75C600.445 1030.66 595.69 1035.81 589.996 1039.4C577.96 1046.99 566.081 1049.03 561 1064C564.187 1063.55 567.565 1061.1 570.714 1061.3C573.537 1061.49 575.529 1064.27 578.533 1063.08C581.005 1062.11 582.154 1059.34 584.376 1058.01C591.819 1053.54 601.095 1050.06 609 1045.62C629.631 1034.04 656.31 1021.19 668 999C676.4 1005.87 659.939 1012.57 656.143 1016.97C650.914 1023.02 645.24 1030.48 638.985 1035.41C631.047 1041.66 620.661 1046.84 615.67 1056C611.284 1064.05 609.768 1075.55 619 1080C622.695 1069.44 632.311 1070.91 641 1069L637 1080C644.309 1079.97 649.608 1075.74 654 1070L673 1080C673.655 1072.05 676.39 1069.9 684 1069C683.02 1072.15 680.721 1076.97 684.573 1079.14C689.385 1081.85 701.394 1079.99 707 1080L762 1080C762 1071.28 752.724 1053.52 767 1059L767 1064L771 1063L768 1080C770.928 1080 775.948 1080.91 778.397 1078.97C780.939 1076.96 779.052 1072.74 781.589 1070.75C785.463 1067.72 790.445 1077.16 791 1080C800.939 1080 820.78 1083.76 829 1078L843 1080L874 1080C873.046 1073.95 876.111 1071.15 879 1066L880 1070L886 1068C884.562 1064.82 881.588 1060.71 882.698 1057.05C885.883 1046.55 899.853 1045.89 891 1033L899 1027C899.839 1030.86 900.37 1050.84 906 1037C910.255 1046.01 900.652 1049.7 899 1058C917.089 1061.65 916.632 1041.64 915 1029L924 1029L926 1036L941 1037L934 1052L943 1064C934.862 1066.55 930.107 1071.27 931 1080L941 1076L944 1080L942 1076L942 1075C950.465 1066.62 943.062 1060.47 944.192 1051C944.978 1044.41 948.719 1039.03 948.571 1032.04C948.463 1026.98 943.846 1024.26 946 1019L948 1026L952 1025L957.674 1040.05L954 1048C963.711 1049.17 967.276 1047.57 970 1038L971 1038L972 1043L974 1043C976.078 1031.3 985.429 1022.61 976 1012L982 1010C984.084 1017.52 992.175 1025.34 1000 1026L978 1051C979.641 1055.77 981.94 1057.56 987 1057L996 1061C995.34 1067.24 994.085 1078.68 1002 1080L1002 1071L1016 1075C1015.45 1078.56 1016.51 1079.42 1020 1080L1019 1072L1024 1074L1019 1059L1022 1064L1024 1064L1034 1059L1034 1053L1031 1052L1031 1051L1039 1053L1036 1064L1043 1070C1035.81 1070.08 1031.42 1072.35 1031 1080C1035.8 1079.75 1043.24 1081.56 1047.57 1079.4C1053.39 1076.49 1050.92 1061.97 1050 1057C1053.11 1060.34 1057.1 1075.05 1063 1067L1064 1067C1060.7 1084.87 1089.67 1080 1100 1080L1099 1073L1101 1073L1101 1080L1118 1080C1117.09 1060.21 1088.44 1058.77 1087 1039L1090 1040C1089.56 1034.59 1084.62 1027.11 1086.68 1022.03C1090.01 1013.83 1099.26 1020.67 1104.71 1017.28C1113.33 1011.92 1114.16 1002.33 1118 994L1119 994C1121.36 1001.77 1123.05 1012.52 1133 1011L1133 1020L1138 1017L1137 1020L1153 1030C1152.75 1022.29 1135.28 1011.43 1144 1007C1140.58 1004.54 1138.79 1003.38 1140 999L1136 998C1136.62 993.083 1137.78 989.26 1132 988L1136 977C1146.25 984.198 1153.69 990.352 1152 1004C1158.25 1006.53 1157.34 1010.68 1160.72 1015.58C1168.7 1027.11 1173.16 1033.72 1172 1048L1181 1041C1180.41 1037.6 1179.35 1036.73 1176 1036L1180 1021L1176 1021L1170 1000C1175.14 1001.11 1183.12 1000.68 1185 995L1190 1000L1185 1001C1186.69 1008.1 1185.2 1015.59 1194 1017L1195 1024L1196 1024L1192 1000L1193 1000C1194.51 1005.39 1199.55 1012.23 1205 1014L1204 1011L1222 1022L1217 1005C1227.93 1017.64 1227.42 1029.69 1230.38 1045C1232.14 1054.11 1236.35 1062.58 1240 1071L1241 1071C1244.98 1061.08 1234.28 1052.35 1241 1043L1245 1058L1249 1051L1256 1052L1254 1048L1254 1047C1261.12 1038.85 1258.78 1030.26 1256 1021L1263 1021L1264 1034L1267 1031L1270 1032L1275 1023L1273 1028L1278 1028L1280 1024L1280 1028L1288 1024L1286 1017L1292 1020C1288.76 1022.19 1289.97 1024.59 1291 1028C1294.98 1027.95 1297.11 1028.33 1299 1032L1300 1032C1299.96 1027 1299.66 1022.65 1295 1020C1297.21 1008.16 1289.59 1005.62 1283.93 997.726C1280.6 993.079 1279.14 985.524 1278 980L1281 980C1283.72 988.816 1285.43 998.486 1296 1000L1293 995L1298 998L1300 996L1301 996L1302 1000L1298 1006L1299 1006L1304 999L1307 1000L1309 995L1305 997C1306.73 993.647 1308.24 992.877 1312 993L1311 996C1319.5 998.095 1325.47 999.771 1332 1006L1333 1006C1335.91 998.655 1328.45 996.404 1324.76 990.999C1317.62 980.521 1310.47 974.512 1309 961L1331 977L1334 970C1334.58 975.252 1337.1 980.578 1343 980L1345 985L1349 984L1352 977C1350.76 981.015 1349.22 984.408 1354 986L1354 978L1355 978C1356.11 982.097 1357.56 987.126 1362 983L1358 983C1358.66 979.473 1358.13 977.831 1355 976C1357.16 971.75 1359.47 971.029 1364 972L1368 963L1384 967.528L1397 972C1395.6 968.135 1394.75 958.545 1401 964L1412 964C1412.22 957.258 1415.64 953.889 1422 952C1420.28 944.929 1410.21 944.472 1412 937L1410 934L1414 936L1417 927L1418 927L1417 938C1425.34 933.117 1419.48 930.673 1422.16 924.104C1423.3 921.314 1426.51 919.664 1428 917L1432 918L1432 920C1428.6 922.085 1428.13 924.097 1428 928L1435 926L1434 923L1437 921L1447 929L1448 929L1449 926L1452 927L1457 922L1457 921L1452 911L1461 908L1456 899L1460 894L1464 898L1466 895C1469.53 896.397 1471.67 896.958 1473 893C1467.52 889.794 1464.2 887.683 1464 881L1468 882L1468 877L1478 876L1476 873L1475 873L1473 875L1471 871L1483 866L1487 874C1486.84 868.976 1487.85 861.979 1492.3 858.688C1496.6 855.508 1500.22 857.251 1502 851L1506 854L1513 848C1514.15 843.27 1510.28 841.546 1510.47 837.533C1510.72 832.263 1522.35 835.332 1525 836L1524 832L1524 831L1528 826L1532 828L1530 826L1530 825C1532.57 822.735 1530.93 821.142 1528 821L1530.51 808.961L1524 793C1517.25 791.048 1516.52 782.817 1509 781.867C1501.28 780.89 1490.77 779.442 1483 780.17C1474.51 780.964 1465.36 784.759 1457 784.335C1449.42 783.95 1445 789.702 1440 782C1446.21 783.693 1452.56 784.325 1457 779L1454 778C1460.12 769.28 1469.78 766.506 1480 768L1484 766L1483 764L1484 764L1488 765C1492.46 760.08 1497.16 763.34 1503 762.826C1508.84 762.311 1514.07 759.589 1520 760L1527 756L1526 751L1506 744L1513 740L1516 742L1516 741L1505 732L1505 731L1521.83 727.9L1532.04 718.607L1560 716L1559 712L1581 719.181L1596 716L1597 716L1601 691C1585.22 676.13 1585.52 652.376 1573.11 636C1567.94 629.167 1556.54 621.928 1558 613L1559 613L1562 616C1559.91 609.865 1555.09 605.945 1549 604L1549 602C1553.19 599.276 1551.79 594.513 1548 592L1549 584L1550 584L1553 590C1556.66 586.436 1558.82 579.817 1557 575L1570 579L1569 575C1574.09 579.215 1586.58 590.642 1587 578L1592 580C1588.84 574.527 1584.4 573.031 1586 566L1591 566L1587 555L1588 555L1589 557C1590.17 549.75 1580.67 543.392 1593 544L1588 535L1585 536C1588.07 530.883 1587.07 524.997 1580 526L1571 519L1568 510L1567 510L1566 513L1565 513C1563.57 508.839 1561.31 505.337 1557 504L1557 503L1565 500L1566 489L1560 488L1560 487L1572.96 483.259L1589 487C1594.41 494.661 1597.64 486.213 1598 481L1595 481L1596 475L1615 472L1619.73 458.003L1615 445L1618 444L1617 441L1614 442L1623 431C1618.05 425.946 1622.83 423.697 1622.91 418C1622.96 414.285 1621.07 408.626 1620 405L1609 412L1610 406L1605 408L1588.32 406.748L1584 399L1588 398C1583.52 391.102 1579.59 382.411 1580 374C1584.1 376.819 1586.68 376.585 1589 372L1591 373L1592 373L1584.19 368.347L1576 360C1577.92 354.958 1581.78 350.56 1576 347L1574 352L1575 346L1568 348L1568 347L1573 345C1573 341.388 1577.41 343.523 1580 344C1582.95 339.91 1590.15 331.958 1595.02 330.318C1606.57 326.427 1615.33 330.097 1625 320L1625 319L1623 316C1629.95 314.875 1627.92 309.903 1631.6 305.61C1636.97 299.346 1652.31 296.694 1654 288L1660 286L1654 286L1653 283L1660 280L1661 273L1655 274L1656 270L1652 267L1656 266L1654 264L1654 263L1659 257L1655 258L1657 250C1652.61 247.776 1640.25 244.209 1647 240L1647 238C1637.37 234.309 1628.6 233.379 1619 238L1626 228L1626 227L1617 221L1616 221C1612.02 227.377 1606.7 217.602 1603 224C1599.35 223.423 1588.7 220.311 1588 225C1573.83 225.657 1557.43 238.782 1543 232L1542 232L1536 236L1536 232L1538 232L1538 230L1526 231L1528 234C1508.84 234.846 1489.6 230.109 1471 236L1473 229C1468.83 228.011 1461.35 227.011 1458 230L1457 230L1462 219C1455.1 218.198 1446.03 220.58 1440 224L1443 221L1443 219C1436.4 217.491 1426.88 224.717 1421 228L1421 223C1409.63 226.146 1384.2 218.159 1379 233L1378 233L1382 224L1382 223C1373.24 209.725 1387.61 200.472 1398 194C1398.16 187.844 1402.34 186.72 1404.97 181.896C1406.65 178.827 1405.71 175.174 1407.74 172.17C1411.21 167.045 1416.62 163.345 1419.97 158C1424.03 151.513 1419.98 142.615 1422.96 135C1430.15 116.657 1447.28 105.175 1442 83L1437 74L1425 79L1424 79C1417.05 73.0034 1409.72 85.4256 1405.79 90C1399.74 97.0425 1390.88 101.026 1384.04 107.209C1377.07 113.502 1372.04 123.224 1369 132L1367 129L1363 129L1359 141L1356 139L1343 148L1346 141L1339 141L1338 138L1335 140C1334.91 136.005 1332.62 131.711 1333.05 127.911C1333.68 122.449 1338.5 118.356 1335 113L1333 117L1330 113C1325.66 115.953 1324.64 122.256 1319 117L1313 118L1313 124L1310 123L1310 119L1309 119L1305 128L1303 128L1300 121C1297.22 124.391 1295.78 130.525 1291 126L1288 142L1284 141L1273 150L1268 136L1268 135C1276.22 131.744 1275.63 124.71 1276 117L1266.66 129.516L1245 128L1248 117L1226.01 120.767L1211 130L1204 125C1200.71 128.4 1197.28 128.941 1193 127L1192 127L1184 133C1185.7 139.876 1193.86 155.611 1189 161L1188 155L1173 168L1173 163L1160 162L1159 142L1149 156C1146.47 151.692 1148.37 149.373 1150 145C1140.55 149.658 1137 166.33 1138 176L1130 174C1130.76 166.23 1143.94 146.27 1136 141C1132.77 147.13 1127.11 160.87 1121 164C1123.38 156.445 1128.5 152.486 1127 144L1123 145L1118 140C1123.34 126.138 1126.08 114.534 1143 112L1143 105L1145 106L1154 87L1159 84C1157.64 76.9169 1164.19 68.4736 1156 64L1156 71C1152.03 68.988 1149.77 69.3686 1149 74L1148 74L1147 63L1142 71L1139 69L1137 76L1136 76L1132 65L1124 66L1131.41 50.9105L1132 39L1128 29L1132 30L1134 21L1127 27C1126.39 23.3689 1126.85 21.948 1130 20C1126.08 15.5945 1123.03 18.9111 1118 19C1120.23 13.2936 1116.99 9.38574 1115 4L1108 7L1110 0L1104 0L1104 4L1102 4L1102 0L1087 0C1085.78 3.44446 1084.71 4.83606 1081 5C1081.8 -2.93359 1066.41 0 1061 0L993 0C993.566 7.22742 994.285 14.7383 993.981 21.9993C993.907 23.757 993.417 28.9579 990.313 27.6543C988.106 26.7274 989.291 23.5991 989.738 21.9993C991.906 14.2258 991.022 7.90649 991 0L975 0L970.649 14.9961L971.258 30.9073L956 44C958.292 39.136 962.284 34.4679 956 31L949 38C948.487 33.8282 947.859 31.1116 951 28L950 24L941 22L935 34C935.496 30.7743 933.004 27.4493 930.317 31.3225C928.153 34.4417 928.468 40.3002 928 44L927 44L919 23C914.057 26.1373 912.768 30.4133 913 36L911 36L911 30L904 28L904 30L888 28C890.965 23.827 904.278 16.7775 897 12L898 4C894.105 4.50012 892.215 3.83777 891 0L887 0L888 8L871 17L871 20L867 20L872 10L868 16L864 11C858.552 13.7692 857.068 18.1481 857 24L842 20L845 17C844.244 14.2321 834.325 0.370483 831.798 7.3186C829.838 12.7064 836.786 16.9852 837 22L828 21L824 17L824 30L828 30L826 35C823.105 32.995 819.661 31.4591 817.228 28.8673C808.915 20.015 816.537 9.41418 819 0L814 0C812.398 9.91248 806.938 8.39954 800.648 13.7655C797.11 16.7839 797.09 19.9417 792 21L788 25C786.83 19.5397 779.391 23.1052 776 25L777 28C772.161 27.6262 770.539 25.78 770 21L763 28C762.407 25.4264 762.881 21.6249 761.688 19.3387C760.098 16.2952 754.046 15.7651 752.619 19.1659C751.422 22.0195 752.921 26.0006 753 29L746 23C747.833 29.4354 749.286 31.6697 756 33L758 48L755 45L751 46L739 33L733 36L715 40C713.57 35.6306 709.252 34.0588 705 33L703 39L711 48L704 50L705 46C693.483 46.4113 697.003 32.2374 692 29L693 32L692.528 23L695 0L622 0z"/>
<path style="fill:#fcfcfc; stroke:none;" d="M693 32L692 29C695.909 35.5132 694.101 45.3679 705 46L704 50L711 48L703 39L705 33L715 40C721.195 37.7922 729.464 41.7588 733 36L739 33L751 46L755 45L755 48L758 48L756 33C749.659 31.2787 748.298 28.9441 746 23L753 29C753.358 26.1643 751.828 22.7937 752.708 20.1127C756.327 9.07422 762.33 25.724 763 28L770 21C770.288 26.2036 771.777 27.8264 777 28L776 25C780.083 23.4779 785.109 20.6689 788 25L792 21C797.656 20.3508 797.327 16.7853 801.393 13.8959C808.082 9.14197 813.371 9.72852 814 0L734 0C722.509 0 708.234 -2.32483 697.028 0.111084C694.391 0.684204 693.204 3.54138 692.639 6C691.983 8.85486 693.815 11.1749 693.972 14C694.223 18.5181 687.62 30.8414 693 32M826 35L828 30L824 30L824 17L828 21L837 22C837.796 16.4928 831.171 13.6974 832.177 8.19214C833.472 1.11475 844.039 14.8488 845 17L842 20L857 24C857.184 18.2245 859.437 14.5032 864 11L868 16L872 10L867 20L871 20L871 17L888 8L887 0L840 0C834.567 0 825.266 -1.79004 820.314 0.603394C817.738 1.84851 817.298 5.64539 816.177 8C810.279 20.3876 813.926 28.7885 826 35M891 0C891.745 4.28748 893.949 4.9873 898 4L897 12C902.692 18.0267 890.615 22.5094 888 28L904 30L904 28L911 30L911 36L913 36L914 35C913.177 29.8738 915.354 26.4994 919 23L927 44L928 44C928.674 40.368 928.32 35.3346 930.317 32.1675C932.664 28.4452 934.862 30.8344 935 34L941 22L950 24L951 28C947.229 30.447 948.259 33.9928 949 38L956 31C961.449 35.5875 957.606 38.5312 956 44C973.162 38.5402 969.969 27.4281 971.138 14C971.549 9.27808 974.2 4.70825 975 0L891 0M991 0C991.005 7.42224 991.991 13.7635 989.719 21C989.108 22.9452 987.458 26.3082 989.603 27.9136C992.858 30.3505 993.894 24.9716 993.981 22.9954C994.316 15.3899 993.95 7.52649 993 0L991 0M1081 0L1081 5C1085.05 5.60681 1086.2 3.8446 1087 0L1081 0M1102 0L1102 4L1104 4L1104 0L1102 0M1110 0L1108 7L1115 4L1118 19L1130 20C1126.32 21.4792 1126 23.2885 1127 27L1134 21L1132 30L1128 29L1132 39L1131.41 49.9607L1124 66L1132 65L1136 76L1137 76L1139 69L1142 71L1147 63L1148 74L1149 74C1150.26 69.9102 1152.12 69.6329 1156 71L1156 64C1163.33 70.0534 1156.91 76.3726 1159 84L1154 87L1145 106L1143 105L1143 112C1126.26 113.471 1121.89 125.753 1118 140L1123 145L1127 144L1121 164C1126.45 162.32 1134.27 146.418 1136 141C1143.12 148.249 1130.3 165.112 1130 174L1138 176C1137.7 165.292 1141.05 151.667 1150 145C1147.76 149.118 1145.28 152.198 1149 156L1159 142L1160 162L1173 163L1173 168L1188 155L1189 161C1194.15 157.27 1186.59 138.614 1184 133L1192 127L1193 127C1196.63 129.645 1201.56 128.8 1204 125L1211 130C1215.45 127.462 1221.3 122.445 1226.01 121.136C1235.14 118.602 1239.83 124.461 1248 117L1245 128C1251.03 129.248 1262.45 133.611 1267.43 129.517C1271.07 126.524 1272.58 120.622 1276 117C1275.17 124.784 1275.37 130.642 1268 135L1268 136L1273 150L1284 141L1288 142L1291 126L1292 129C1296.57 127.724 1297.89 125.063 1300 121L1303 128L1305 128L1309 119L1310 119L1313 124L1313 118L1319 117C1323.57 123.342 1326.65 116.431 1330 113L1333 117L1335 113L1332.66 127.911L1335 140L1338 138L1339 141L1346 141L1343 148L1356 139L1359 141L1363 129L1367 129L1369 132C1373.09 123.587 1377.16 114.664 1384.04 108.104C1390.68 101.779 1399.79 97.9194 1405.79 90.9954C1410.03 86.0958 1416.31 74.1511 1424 79L1425 79L1437 74C1437.63 77.8158 1437.8 82.1044 1442 83C1446.15 105.438 1429.88 116.199 1422.58 135C1419.75 142.273 1423.68 151.011 1419.97 157C1416.51 162.578 1410.29 166.523 1407.18 172.17C1405.67 174.911 1406.42 178.202 1404.97 180.957C1402.22 186.201 1397.8 187.32 1398 194C1388.06 198.203 1371.3 211.578 1382 223L1382 224L1378 233L1379 233C1387.15 217.754 1409.02 228.348 1421 223L1421 228L1443 219L1443 221L1440 224L1462 219L1457 230L1458 230L1473 229L1471 236L1528 234L1526 231L1538 230L1536 232L1536 236L1542 232L1543 232L1553 232.684L1588 225C1588 220.672 1599.49 223.815 1603 224C1607.22 218.384 1613.79 228.863 1616 221L1617 221L1626 227L1626 228L1619 238C1629.21 234.279 1636.83 235.114 1647 238L1647 240C1638.28 243.489 1652.99 248.729 1657 250L1655 258L1659 257L1654 263L1654 264L1656 266L1652 267L1656 270L1655 274L1661 273L1660 280C1656.49 281.242 1653.93 282.025 1654 286L1660 286L1654 288L1631.6 304.904L1623 316L1625 319L1625 320C1610.7 330.83 1588.48 326.237 1580 344C1577.48 343.365 1573.52 341.883 1573 345L1568 347L1568 348L1575 346L1574 352L1576 347C1580.68 351.378 1577.38 354.658 1576 360L1583.33 368.347L1592 373L1589 372C1586.09 375.689 1584.21 376 1580 374C1578.72 381.622 1582.99 392.364 1588 398L1584 399L1587.6 406.928L1597 405.407L1605 408L1610 406L1609 412L1620 405C1620.93 408.887 1622.34 414.035 1622.23 418C1622.07 423.404 1617.06 427.098 1623 431L1614 442L1617 441L1618 444L1615 445L1619.47 457.015L1615 472L1596 475L1595 481L1598 481C1597.3 486.754 1595.24 492.814 1589 487L1572.96 482.759L1560 487L1560 488L1566 489L1565 500L1557 503L1557 504L1565 513L1566 513L1567 510L1568 510L1571 519L1580 526C1586.45 526.277 1587.27 530.772 1585 536L1588 535L1593 544C1580.28 542.996 1588.01 546.328 1589.33 554C1589.67 555.962 1588.75 556.195 1588 555L1587 555L1591 566L1586 566C1583.98 572.894 1587.79 575.157 1592 580L1587 578C1586.1 589.806 1574.33 578.221 1569 575L1570 579L1557 575C1558.56 580.074 1555.99 585.859 1553 590L1550 584L1549 584L1548 592C1551.28 595.288 1552.47 598.488 1549 602L1549 604C1554.64 606.684 1559.1 610.417 1562 616L1559 613L1558 613C1555.72 621.785 1565.73 627.582 1570.79 634C1581.9 648.087 1583.16 666.459 1593.82 681.015C1596.37 684.506 1597.24 688.651 1601 691C1598.36 699.01 1595.51 707.456 1597 716L1596 716C1591.75 712.291 1585.93 718.888 1581.17 719.006C1572.65 719.217 1568.93 709.152 1559 712L1560 716L1531.1 718.603L1520.91 727.9L1505 731L1505 732L1516 741L1516 742L1513 740L1506 744L1526 751L1527 756L1520 760L1493.02 761.552L1488 765L1483 764L1484 766L1481 765L1480 768C1470.24 765.77 1458.73 768.623 1454 778L1457 779C1451.49 783.664 1446.75 783.364 1440 782C1444 791.132 1449.61 784.045 1457 784.541C1463.1 784.951 1468.97 782.097 1475 781.282C1485.57 779.854 1498.8 780.115 1509.17 782.072C1516.31 783.418 1516.95 791.88 1524 793L1530.1 808.975L1528 821C1531.03 821.2 1531.82 822.563 1530 825L1530 826L1532 828L1528 826L1524 831L1524 832L1525 836C1522.12 834.867 1511.07 832.088 1510.17 837.279C1509.57 840.765 1513.53 843.854 1513 848C1508.83 847.933 1507.78 850.471 1506 854L1502 851C1499.35 856.57 1495.44 855.129 1491.56 858.613C1487.35 862.391 1486.45 868.81 1487 874L1483 866L1471 871L1473 875L1475 873L1476 873L1478 876L1468 877L1468 882L1464 881C1464.08 887.801 1466.76 890.468 1473 893C1471.11 896.176 1469.45 895.828 1466 895L1464 898L1460 894L1456 899L1461 908L1452 911C1453.01 915.208 1452.4 919.474 1457 921L1457 922L1452 927L1449 926L1448 929L1447 929C1445.06 922.96 1442.01 923.565 1437 921L1434 923L1435 926L1428 928L1432 920L1432 918L1428 917C1426.1 919.247 1422.59 921.237 1421.66 924.104C1419.49 930.742 1423.71 932.421 1417 938L1418 927L1417 927L1414 936L1410 934L1412 937C1408.26 943.084 1419.81 946.473 1422 952C1414.91 953.285 1412.08 956.949 1412 964C1407.56 961.608 1405.44 961.608 1401 964C1395.83 956.825 1395.05 967.937 1397 972L1384 966.992L1368 963L1364 972C1359.45 970.647 1356.49 971.197 1355 976L1358 983L1362 983C1357.35 985.106 1356.53 982.097 1355 978L1354 978L1354 986C1350 983.715 1351.22 981.046 1352 977L1349 984L1345 985L1343 980C1337.56 979.42 1335.01 975.081 1334 970L1331 971L1331 977L1309 961C1309.74 974.765 1317.51 981.455 1324.76 991.995C1328.22 997.019 1335.45 999.023 1333 1006L1332 1006C1326.67 998.79 1319.32 997.567 1311 996L1312 993C1308 992.341 1306.2 993.048 1305 997L1309 995L1307 1000L1304 999L1299 1006L1298 1006L1302 1000L1301 996L1300 996L1298 998L1293 995L1296 1000C1285.42 997.337 1284.88 988.689 1281 980L1278 980C1278.76 985.617 1280.37 993.951 1283.93 998.505C1290.03 1006.29 1295.99 1008.5 1295 1020C1298.91 1023.36 1299.88 1026.95 1300 1032L1299 1032C1297.62 1027.91 1295.02 1027.76 1291 1028L1292 1020L1286 1017L1288 1024L1280 1028L1280 1024L1278 1028L1273 1028L1275 1023C1270.85 1024.44 1270.36 1027.92 1270 1032L1267 1031L1264 1034L1263 1021L1256 1021C1257.87 1031.22 1259.94 1037.34 1254 1047L1254 1048L1256 1052L1249 1051L1245 1058L1241 1043C1233.55 1050.3 1243.47 1061.91 1241 1071L1240 1071C1237.08 1061.88 1232.22 1053.52 1230.38 1044C1227.68 1030.07 1229.41 1015.11 1217 1005L1222 1022L1204 1011L1205 1014L1193 1000L1192 1000L1196 1024L1195 1024L1194 1017C1185.52 1014.76 1187.09 1008 1185 1001L1190 1000L1185 995C1182.15 1000.18 1175.45 1000.76 1170 1000L1176 1021L1180 1021L1176 1036L1181 1041L1172 1048C1173.97 1033.39 1168.74 1026.48 1160.72 1014.71C1157.41 1009.85 1158.57 1005.77 1152 1004C1154.4 991.034 1147.14 982.464 1136 977L1132 988C1137.2 989.916 1136.37 993.135 1136 998L1140 999C1137.87 1003.53 1139.92 1004.9 1144 1007C1133.31 1009.83 1152.49 1023.3 1153 1030L1137 1020L1138 1017L1133 1020L1133 1011C1123.1 1011.5 1122.18 1001.46 1119 994L1118 994C1112.82 1001.97 1113.52 1010.46 1104.71 1016.43C1099.28 1020.11 1090.25 1013.66 1086.59 1021.06C1083.81 1026.68 1089.21 1034.17 1090 1040L1087 1039C1087.64 1058.99 1116.3 1060.61 1118 1080L1920 1080L1920 0L1110 0M1056 2L1058 4L1058 2L1056 2M1068.67 3.33337L1069.33 3.66663L1068.67 3.33337M1068 6L1069 7L1068 6z"/>
<path style="fill:#040404; stroke:none;" d="M1120.33 8.66663L1120.67 9.33337L1120.33 8.66663z"/>
<path style="fill:#fcfcfc; stroke:none;" d="M836 9L836 12L838 12L838 9L836 9z"/>
<path style="fill:#040404; stroke:none;" d="M846 9C846.83 13.5811 848.392 16.6356 853 18L849 9L846 9z"/>
<path style="fill:#fcfcfc; stroke:none;" d="M1000.33 14.6666L1000.67 15.3334L1000.33 14.6666z"/>
<path style="fill:#040404; stroke:none;" d="M772 15L771 19L775 24C776.784 20.4763 775.151 17.1346 772 15z"/>
<path style="fill:#fcfcfc; stroke:none;" d="M862 16L860 20L864 20L862 16z"/>
<path style="fill:#040404; stroke:none;" d="M953 18L955 21L953 18z"/>
<path style="fill:#fcfcfc; stroke:none;" d="M875 35L876 35L875 27L879 28C877.191 21.7704 869.14 21.6812 870.376 28.9468C870.819 31.5537 873.27 33.229 875 35z"/>
<path style="fill:#040404; stroke:none;" d="M905 23L905 27L906 27L905 23z"/>
<path style="fill:#fcfcfc; stroke:none;" d="M1000 28L998 34L1000 28z"/>
<path style="fill:#040404; stroke:none;" d="M727 29L727 33L727 29M733 32L736 30L733 32z"/>
<path style="fill:#fcfcfc; stroke:none;" d="M768 30L767 34L770 30L768 30M782 33L783 36L784 36L784 33L782 33M1122 33L1124 36L1124 33L1122 33M775 35L776 36L775 35M794 35L795 36L794 35M877.667 35.3334L878.333 35.6666L877.667 35.3334M935 36L934 38L936 38L935 36M736 37L740 40L736 37M920 45L921 45L923 40L920 45M691 41L690 44L691 41M880 41L882 44L880 41M950.333 42.6666L950.667 43.3334L950.333 42.6666M710 43L711 44L710 43M946 43L947 48L948 48L948 43L946 43M741 45L744 51L741 45M1125 48L1129 45L1125 48M692.667 47.3334L693.333 47.6666L692.667 47.3334M698 47L699 48L698 47M716 55L717 56L716 55z"/>
<path style="fill:#040404; stroke:none;" d="M1149 57C1148.48 60.0923 1148.92 61.1399 1152 62L1151 57L1149 57M1134 61L1135 65L1136 65L1136 61L1134 61z"/>
<path style="fill:#fcfcfc; stroke:none;" d="M699 64L699 68L704 68L704 67L699 64M1123 68L1123 72L1124 72L1123 68M1141 73L1142 77L1143 77L1143 73L1141 73M1144 78L1144 80L1146 80L1144 78z"/>
<path style="fill:#040404; stroke:none;" d="M594 79L595 80L594 79z"/>
<path style="fill:#fcfcfc; stroke:none;" d="M1423 79L1424 80L1423 79M1153 83L1153 85L1155 85L1155 83L1153 83M1147 97L1152 90C1146.6 88.7412 1146.02 92.4047 1147 97M1141 98L1144 100L1141 98z"/>
<path style="fill:#040404; stroke:none;" d="M502 107L502 109L504 107L502 107z"/>
<path style="fill:#fcfcfc; stroke:none;" d="M506 111L507 112L506 111M592 118L591 125L592 125L592 118M693 119L694 120L693 119M691 132L698 129C696.676 132.981 693.806 137.197 698 140L702 134C702.161 140.327 692.542 164.008 709 160L714 167L725.835 173.525L750 177L748 184L754 184L753 174L761 176L754 167C763.668 165.969 768.203 174.353 776.985 176.125C786.213 177.987 786.896 162.201 785 157C781.525 159.042 779.249 163.19 774.995 163.728C767.998 164.614 763.358 158.426 757.911 155.438C752.037 152.216 745.94 150.896 740 147.343C735.644 144.738 724.93 146.08 727 139C719.998 137.089 713.442 133.749 708.302 128.486C705.389 125.503 703.805 118.073 698.111 119.711C694.211 120.834 692.516 128.651 691 132M1118 119L1119 120L1118 119z"/>
<path style="fill:#040404; stroke:none;" d="M1282 122L1281 124L1283 124L1282 122M480.667 123.333L481.333 123.667L480.667 123.333z"/>
<path style="fill:#fcfcfc; stroke:none;" d="M590 129L588 132C590.251 131.527 591.118 131.14 590 129M1244 129L1245 130L1244 129M596 131L597 132L596 131z"/>
<path style="fill:#040404; stroke:none;" d="M1122.67 135.333L1123.33 135.667L1122.67 135.333z"/>
<path style="fill:#fcfcfc; stroke:none;" d="M693 139L694 140L693 139M1355 141L1356 142L1355 141z"/>
<path style="fill:#040404; stroke:none;" d="M1421.67 143.333L1422.33 143.667L1421.67 143.333z"/>
<path style="fill:#fcfcfc; stroke:none;" d="M1268 144L1267 148L1270 144L1268 144M693 145L694 146L693 145M1123 146L1122 150L1125 147L1123 146M1099 147L1100 148L1099 147M1116 149L1117 150L1116 149M1197 151L1198 152L1197 151M1418.67 153.333L1419.33 153.667L1418.67 153.333M699 157L700 158L699 157z"/>
<path style="fill:#040404; stroke:none;" d="M709 157L712 160L711 157L709 157z"/>
<path style="fill:#fcfcfc; stroke:none;" d="M1156 157L1153 165C1156.3 163.033 1158.28 160.481 1156 157z"/>
<path style="fill:#040404; stroke:none;" d="M750 165L750 168L752 168L752 165L750 165z"/>
<path style="fill:#fcfcfc; stroke:none;" d="M1119 165L1119 168L1120 168L1119 165M1104 172L1108 172L1109 167L1104 172M1159 174C1162.54 172.315 1163.69 170.931 1164 167L1159 174M698.667 169.333L699.333 169.667L698.667 169.333z"/>
<path style="fill:#040404; stroke:none;" d="M735 171L736 172L735 171z"/>
<path style="fill:#fcfcfc; stroke:none;" d="M704 173L706 176L706 173L704 173z"/>
<path style="fill:#040404; stroke:none;" d="M407 175L408 176L407 175z"/>
<path style="fill:#fcfcfc; stroke:none;" d="M482 175L484 178L482 175M1403 175L1404 176L1403 175M709 176L709 180L710 180L711 176L709 176M741 177L743 183L744 183L745 177L741 177M482 179L481 181L482 179M1100 179L1101 180L1100 179M1113 179L1115 184L1113 179M712 181L715 184L712 181M1401 183L1402 184L1401 183M421 185L422 186L421 185z"/>
<path style="fill:#040404; stroke:none;" d="M469 189L470 190L469 189z"/>
<path style="fill:#fcfcfc; stroke:none;" d="M479 191L480 192L479 191M1391 196L1392 197L1391 196M474 201L475 202L474 201M479 206L478 208L479 206M479 209L480 210L479 209z"/>
<path style="fill:#040404; stroke:none;" d="M327 211L328 212L327 211M440 215L441 216L440 215z"/>
<path style="fill:#fcfcfc; stroke:none;" d="M1373 217L1374 218L1373 217z"/>
<path style="fill:#040404; stroke:none;" d="M1612 217L1611 220L1614 221L1615 217L1612 217z"/>
<path style="fill:#fcfcfc; stroke:none;" d="M1373 219L1374 220L1373 219z"/>
<path style="fill:#040404; stroke:none;" d="M1600.67 219.333L1601.33 219.667L1600.67 219.333z"/>
<path style="fill:#fcfcfc; stroke:none;" d="M1377 221L1377 224L1378 224L1377 221M455 223L456 224L455 223z"/>
<path style="fill:#040404; stroke:none;" d="M1623 223L1624 224L1623 223z"/>
<path style="fill:#fcfcfc; stroke:none;" d="M456 225L457 226L456 225z"/>
<path style="fill:#040404; stroke:none;" d="M308.667 231.333L309.333 231.667L308.667 231.333z"/>
<path style="fill:#fcfcfc; stroke:none;" d="M475 233L475 236L478 236L478 233L475 233M1533 233L1532 236L1533 236L1533 233M1535 234L1536 235L1535 234z"/>
<path style="fill:#040404; stroke:none;" d="M1649 235L1649 237L1651 235L1649 235z"/>
<path style="fill:#fcfcfc; stroke:none;" d="M456 237L457 238L456 237M466.333 238.667L466.667 239.333L466.333 238.667M457 239L458 240L457 239z"/>
<path style="fill:#040404; stroke:none;" d="M311 255L312 256L311 255z"/>
<path style="fill:#fcfcfc; stroke:none;" d="M330.667 255.333L331.333 255.667L330.667 255.333M336 257L340 263L341 263L336 257z"/>
<path style="fill:#040404; stroke:none;" d="M1662 257L1663 258L1662 257M1661.67 271.333L1662.33 271.667L1661.67 271.333M1664.67 271.333L1665.33 271.667L1664.67 271.333z"/>
<path style="fill:#fcfcfc; stroke:none;" d="M1649 287L1649 288L1654 286L1649 287M338 289L336 292L340 292L338 289z"/>
<path style="fill:#040404; stroke:none;" d="M308.667 307.333L309.333 307.667L308.667 307.333M314 309L314 312L315 312L316 309L314 309z"/>
<path style="fill:#fcfcfc; stroke:none;" d="M298 310L299 311L298 310z"/>
<path style="fill:#040404; stroke:none;" d="M1633 311L1634 312L1633 311M313 315L314 316L313 315z"/>
<path style="fill:#fcfcfc; stroke:none;" d="M306 325L304 330L308 332L308 325L306 325M293 341L292 344L293 341M1567 351L1568 352L1567 351z"/>
<path style="fill:#040404; stroke:none;" d="M287 353L288 354L287 353z"/>
<path style="fill:#fcfcfc; stroke:none;" d="M292 360L295 357L293 357L292 360z"/>
<path style="fill:#040404; stroke:none;" d="M1578 357L1579 358L1578 357z"/>
<path style="fill:#fcfcfc; stroke:none;" d="M1577 367L1578 368L1577 367z"/>
<path style="fill:#040404; stroke:none;" d="M269 381L270 382L269 381z"/>
<path style="fill:#fcfcfc; stroke:none;" d="M1578.67 391.333L1579.33 391.667L1578.67 391.333z"/>
<path style="fill:#040404; stroke:none;" d="M267 407L266 416L267 416L267 407z"/>
<path style="fill:#fcfcfc; stroke:none;" d="M1607 409L1608 410L1607 409M1592 415L1592 416L1595 416L1592 415M371 427L372 428L371 427z"/>
<path style="fill:#040404; stroke:none;" d="M259 428L259 431L260 431L259 428z"/>
<path style="fill:#fcfcfc; stroke:none;" d="M268 431L269 432L268 431M277 439L278 440L277 439z"/>
<path style="fill:#040404; stroke:none;" d="M349.667 439.333L350.333 439.667L349.667 439.333z"/>
<path style="fill:#fcfcfc; stroke:none;" d="M284.333 454.667L284.667 455.333L284.333 454.667z"/>
<path style="fill:#040404; stroke:none;" d="M281.333 483.667L281.667 484.333L281.333 483.667z"/>
<path style="fill:#fcfcfc; stroke:none;" d="M1565 483L1566 484L1565 483z"/>
<path style="fill:#040404; stroke:none;" d="M1601 483L1602 484L1601 483z"/>
<path style="fill:#fcfcfc; stroke:none;" d="M279 487L280 488L279 487M1553.67 491.333L1554.33 491.667L1553.67 491.333M1567 518L1567 521L1568 521L1567 518z"/>
<path style="fill:#040404; stroke:none;" d="M1572 518L1572 520L1574 520L1574 518L1572 518M307 573L306 579L307 579L309 573L307 573z"/>
<path style="fill:#fcfcfc; stroke:none;" d="M1553 579L1554 580L1553 579M1555 581L1556 582L1555 581M296 596L295 597L295 599L300 600L296 596M1548 601L1549 602L1548 601M288 613L290 616L290 613L288 613M302 631L303 632L302 631z"/>
<path style="fill:#040404; stroke:none;" d="M283 633L283 636L284 636L283 633z"/>
<path style="fill:#fcfcfc; stroke:none;" d="M294 646L294 648L296 648L294 646z"/>
<path style="fill:#040404; stroke:none;" d="M200 653L201 654L200 653M238 657L240 660L238 657z"/>
<path style="fill:#fcfcfc; stroke:none;" d="M1517 677L1517 679L1521 680L1522 677L1517 677M1525 677L1525 679L1530 679L1530 686C1523.77 692.511 1537.7 689.446 1540 689L1532 700L1536 699L1536 704C1539.15 703.069 1540.34 703.082 1542 706L1553 708L1552 712L1559 712C1553.78 700.82 1539.36 676.428 1525 677M235 678L239 680L235 678M244 683L244 684L248 684L244 683M1525 685L1525 688L1526 688L1525 685M256 687L256 688L259 688L256 687z"/>
<path style="fill:#040404; stroke:none;" d="M1536.67 697.333L1537.33 697.667L1536.67 697.333z"/>
<path style="fill:#fcfcfc; stroke:none;" d="M1529 699L1530 700L1529 699z"/>
<path style="fill:#040404; stroke:none;" d="M1543 704L1544 705L1543 704z"/>
<path style="fill:#fcfcfc; stroke:none;" d="M309 723L310 724L309 723M318 725C317.613 729.766 319.322 731.463 324 732L320 730L318 725M241 737L244 736L241 737z"/>
<path style="fill:#040404; stroke:none;" d="M226 751L227 752L226 751z"/>
<path style="fill:#fcfcfc; stroke:none;" d="M1523.33 752.667L1523.67 753.333L1523.33 752.667M1460 759L1461 760L1460 759M1485 763L1486 764L1485 763M1424.67 771.333L1425.33 771.667L1424.67 771.333M1453 771L1453 772L1456 772L1453 771M216 783L219 782L216 783M1515 786L1515 792L1516 792L1515 786M220.667 787.333L221.333 787.667L220.667 787.333M1523 817L1524 818L1523 817z"/>
<path style="fill:#040404; stroke:none;" d="M1532.33 834.667L1532.67 835.333L1532.33 834.667z"/>
<path style="fill:#fcfcfc; stroke:none;" d="M288 863L289 864L288 863M1476 863L1477 864L1476 863M600 895L601 896L600 895M348 897L349 898L348 897M284.667 899.333L285.333 899.667L284.667 899.333M1446 911L1448 913L1448 911L1446 911M1412 917L1414 920L1414 917L1412 917z"/>
<path style="fill:#040404; stroke:none;" d="M324 919L325 920L324 919M1457 923L1458 924L1457 923z"/>
<path style="fill:#fcfcfc; stroke:none;" d="M1403 925L1403 928L1404 928L1403 925M587.333 927.667L587.667 928.333L587.333 927.667z"/>
<path style="fill:#040404; stroke:none;" d="M1437 927L1438 929L1439 929L1440 927L1437 927z"/>
<path style="fill:#fcfcfc; stroke:none;" d="M1407 931L1408 932L1407 931z"/>
<path style="fill:#040404; stroke:none;" d="M1453 931L1453 932L1456 932L1453 931M338 936L344 933L338 936z"/>
<path style="fill:#fcfcfc; stroke:none;" d="M648 934L647 936L649 936L648 934M1304 934L1302 937L1303 938L1304 934z"/>
<path style="fill:#040404; stroke:none;" d="M592 937L593 938L592 937z"/>
<path style="fill:#fcfcfc; stroke:none;" d="M1304 945L1304 948L1306 948L1306 945L1304 945M346 947L347 948L346 947z"/>
<path style="fill:#040404; stroke:none;" d="M623 948L622 952L623 948z"/>
<path style="fill:#fcfcfc; stroke:none;" d="M1266 949L1268 954L1266 949M654 955L655 956L654 955z"/>
<path style="fill:#040404; stroke:none;" d="M633 957L636 960L633 957z"/>
<path style="fill:#fcfcfc; stroke:none;" d="M1262 958L1262 960L1271 964L1266 957L1262 958M376 963L377 964L376 963M329 965L330 966L329 965M1275 972L1276 973L1275 972M366 975L367 976L366 975M396 975L391 982L395 981L396 975M1276 975L1277 976L1276 975z"/>
<path style="fill:#040404; stroke:none;" d="M1401.67 975.333L1402.33 975.667L1401.67 975.333M1334 977L1335 978L1334 977z"/>
<path style="fill:#fcfcfc; stroke:none;" d="M351 978L353 980L351 978M661 978L659 982L661 978M355 979L356 980L355 979M353 981L351 984L354 985L353 981M658 983L659 984L658 983M674 993L688 984C682.032 981.771 677.07 988.642 674 993z"/>
<path style="fill:#040404; stroke:none;" d="M361 987L362 988L361 987z"/>
<path style="fill:#fcfcfc; stroke:none;" d="M652 989L653 990L652 989M1190 989C1189.43 991.396 1189.52 991.487 1192 992L1190 989M1303.33 990.667L1303.67 991.333L1303.33 990.667M490.667 991.333L491.333 991.667L490.667 991.333M651.667 991.333L652.333 991.667L651.667 991.333M979 991L980 992L979 991M1156.67 991.333L1157.33 991.667L1156.67 991.333z"/>
<path style="fill:#040404; stroke:none;" d="M512 993L513 996L514 996L514 993L512 993z"/>
<path style="fill:#fcfcfc; stroke:none;" d="M671 994L672 997L673 997L674 994L671 994M1301 995L1302 996L1301 995M489 997L492 1005L489 997M504 997L505 998L504 997M632 997L630 1001L632 997M1214 997C1213.13 1000.57 1213.34 1002.71 1217 1004L1214 997M552 999L553 1000L552 999M979 999L980 1000L979 999M1135 999L1136 1000L1135 999M982 1000L984 1005L982 1000M625 1001L625 1006L628 1001L625 1001z"/>
<path style="fill:#040404; stroke:none;" d="M1336 1002C1335.69 1007.02 1336.52 1010.34 1341 1013L1338 1002L1336 1002z"/>
<path style="fill:#fcfcfc; stroke:none;" d="M1137 1004L1137 1006L1139 1006L1137 1004M1129 1007L1130 1008L1129 1007M1135.67 1007.33L1136.33 1007.67L1135.67 1007.33z"/>
<path style="fill:#040404; stroke:none;" d="M1192 1007L1193 1008L1192 1007z"/>
<path style="fill:#fcfcfc; stroke:none;" d="M981 1010L976 1012C984.001 1024.32 975.327 1030.01 974 1043L972 1043L971 1038L970 1038C966.579 1046.85 963.466 1048.7 954 1048L958.253 1040.05L952 1025L948 1026L946 1019C943.111 1024.17 948.252 1027.8 948.281 1033.01C948.317 1039.6 944.602 1044.68 944.095 1051C943.282 1061.12 948.773 1065.48 942 1075L942 1076L944 1080L998 1080L996 1061L987 1057C982.294 1056.87 980.175 1055.11 978 1051C986.579 1046.35 994.993 1034.28 1000 1026C991.416 1024.4 986.174 1016.36 981 1010z"/>
<path style="fill:#040404; stroke:none;" d="M489 1012L490 1013L489 1012z"/>
<path style="fill:#fcfcfc; stroke:none;" d="M1192 1013L1193 1014L1192 1013M1272 1015L1273 1016L1272 1015M1276 1015L1276 1020C1279.43 1021.15 1280.61 1020.71 1283 1018L1276 1015M971 1018L968 1032C973.712 1030.24 976.232 1021.8 971 1018M995 1018L994 1020L996 1020L995 1018z"/>
<path style="fill:#040404; stroke:none;" d="M1104 1021L1104 1024L1106 1024L1106 1021L1104 1021M1222 1023L1222 1024L1225 1024L1222 1023z"/>
<path style="fill:#fcfcfc; stroke:none;" d="M898 1027L891 1033C892.219 1035.51 894.989 1038.87 894.253 1041.82C891.233 1053.88 876.881 1053.48 886 1068L880 1070L879 1066C875.368 1070.58 872.463 1074.08 874 1080L931 1080C930.788 1071.45 935.514 1067.35 943 1064L934 1052L941 1037L926 1036L924 1029L915 1029C916.021 1041.85 916.782 1059.96 899 1058C901.397 1050.78 911.493 1045.05 906 1037C898.899 1048.54 900.495 1030.31 898 1027M928 1027L929 1028L928 1027z"/>
<path style="fill:#040404; stroke:none;" d="M420 1029L419 1032L420 1032L420 1029z"/>
<path style="fill:#fcfcfc; stroke:none;" d="M935.667 1031.33L936.333 1031.67L935.667 1031.33M1077 1031L1077 1035L1078 1035L1077 1031z"/>
<path style="fill:#040404; stroke:none;" d="M1290.33 1031.67L1290.67 1032.33L1290.33 1031.67z"/>
<path style="fill:#fcfcfc; stroke:none;" d="M433 1039L434 1040L433 1039z"/>
<path style="fill:#040404; stroke:none;" d="M424 1045L425 1046L424 1045z"/>
<path style="fill:#fcfcfc; stroke:none;" d="M816 1045L817 1046L816 1045M1250 1046L1250 1048L1252 1048L1252 1046L1250 1046M1066.67 1047.33L1067.33 1047.67L1066.67 1047.33M1247 1047L1247 1050L1248 1050L1247 1047M753 1051L759 1052L759 1054L761 1054C761.601 1047.95 757.096 1048.6 753 1051z"/>
<path style="fill:#040404; stroke:none;" d="M951 1048L953 1052L951 1048z"/>
<path style="fill:#fcfcfc; stroke:none;" d="M584 1051L584 1052L588 1052L584 1051M775 1051L774 1056L776 1056L775 1051M1031 1051L1031 1052L1034 1053L1034 1059L1024 1064L1022 1064L1019 1059C1015.97 1067.29 1021.97 1067.26 1024 1074L1019 1072L1020 1080L1031 1080C1031.78 1072.98 1036.24 1070.2 1043 1070L1036 1064L1039 1053L1031 1051M789 1053L788 1056C790.565 1055.45 790.86 1054.86 789 1053M578 1055L579 1058L578 1055M769 1055L770 1056L769 1055M878 1055L876 1062C878.661 1060.12 879.177 1058.04 878 1055M1015 1055L1016 1056L1015 1055M762 1080L768 1080L771 1063L767 1064L767 1059C752.1 1051.32 762 1072.35 762 1080z"/>
<path style="fill:#040404; stroke:none;" d="M912 1057C911.487 1061.71 911.845 1067.15 916 1070L914 1057L912 1057z"/>
<path style="fill:#fcfcfc; stroke:none;" d="M1050 1057L1049 1080L1069 1080L1064 1067L1063 1067C1055.69 1073.26 1054.48 1060.18 1050 1057M1064 1061L1063 1064L1066 1064L1064 1061M1011 1063L1012 1064L1011 1063M865 1065L862 1067L862 1068C864.348 1067.71 865.951 1067.51 865 1065M936 1068L940 1069L936 1068z"/>
<path style="fill:#040404; stroke:none;" d="M577 1069L578 1073L579 1073L580 1069L577 1069z"/>
<path style="fill:#fcfcfc; stroke:none;" d="M619 1080C627.533 1080 644.018 1082.29 641 1069C632.361 1069.97 621.299 1068.94 619 1080M673 1080L684 1080L684 1069C675.949 1069.42 673.368 1071.57 673 1080M779 1080L792 1079C785.365 1067.47 781.757 1068.43 779 1080M654 1070L645 1080L666 1080L654 1070M1079 1070L1079 1073L1081 1070L1079 1070M1002 1071L1002 1080L1016 1080L1016 1075L1002 1071M1099 1073L1101 1080L1101 1073L1099 1073M869 1074L868 1076L870 1076L869 1074M794.667 1075.33L795.333 1075.67L794.667 1075.33M862.667 1075.33L863.333 1075.67L862.667 1075.33M1111 1075L1112 1076L1111 1075M934 1080L941 1080L941 1076L934 1080M828 1078L828 1080L830 1080L828 1078M691 1079L691 1080L694 1080L691 1079M696 1079L696 1080L699 1080L696 1079M859.667 1079.33L860.333 1079.67L859.667 1079.33M1034 1079L1035 1080L1034 1079M1076 1079L1077 1080L1076 1079z"/>
</svg>
