<?xml version="1.0" standalone="yes"?>
<svg xmlns="http://www.w3.org/2000/svg" width="1920" height="1080">
<path style="fill:#fefefe; stroke:none;" d="M0 0L0 1080L1920 1080L1920 0L0 0z"/>
<path style="fill:#030303; stroke:none;" d="M623 99L620.695 117.999L615.174 129.039L608 162L604 159L603 159L597 171L596 180C589.587 179.45 586.118 186.377 585 192L581 188L578 192L575 191L574 196L570 193L570 200L567 199L567 222L566 222L560 211L550 216C547.549 207.019 544.005 205.983 537 201C538.285 206.676 536.567 208.752 532 212L529 205L528 216L520 201L518 201C512.141 208.791 509.926 214.344 514 224C507.74 226.171 504.928 230.262 509 236L503 237L507 244L498 237L501 248L491 244L493 260L477 251L476 258C470.738 261.246 473.728 264.286 473 269L473 270L477 280L463 269L466 286C457.813 280.767 455.099 269.07 444 271L445 276L433 270L432 273C425.245 269.193 418.2 258.439 413 271L400 267C398.519 273.465 400.532 282.379 404 288L401 287L401 292L388 289C391.276 299.223 399.785 313.112 411 316L411 320L403 319C403.889 326.887 398.93 328.975 392 329L396 335L396 336L395 340L392 338L391 338C383.089 344.856 373.031 343.242 363 343L368.168 353.207L360 356L376 369C374.339 373.792 376.065 376.11 380 379L380 380L378 393L378 394L399 412C390.848 412.869 380.4 406.723 376 416C394.496 430.458 421.645 445.543 434 466C420.61 463.984 411.552 441.05 397 445L406 461L392 451L393 460L392 460L389 458L387 476L368 475L373.36 486.224L373 500L385 503L385 504L381 504C382.083 507.69 385.433 512.042 384.766 515.985C383.941 520.861 366.673 528.032 362 529L362 533L372 535C370.986 539.352 372.798 540.516 377 541C374.964 544.538 371.224 546.773 370.218 551.001C366.706 565.756 394.504 554.871 400 553L396 560L409 556L411 559L411 560C404.7 566.724 414.286 569.556 411.824 574.813C409.794 579.148 400.29 578.298 397 584L388 573L372 566L373 575L372 575C370.426 565.124 365.021 572.045 364 578L363 578L362 575L360 575L359 580L351 575C352.732 583.59 361.955 586.741 364.713 594.17C366.957 600.213 359.952 607.441 361.8 612.921C363.401 617.667 369.635 619.007 372.238 623.089C375.728 628.56 370.605 628.635 367.005 626.725C365.681 626.023 364.399 625.537 363 625C360.649 628.664 357.059 628.43 353 628L352 634L345 635L353 645L341 645L348.819 655.665L348.607 666.7L353.218 676.37L341 684C348.436 687.06 343.414 693.36 336.999 693.602C329.691 693.878 324.105 687.732 317 687L326 704L322 705C323.323 710.546 328.45 712.196 330.293 717.054C331.196 719.434 329.331 722.308 330.826 724.436C335.218 730.683 342.261 725.218 342 736C326.78 738.745 315.425 737.009 302 746L302 747L306 753L301 750L300 751L304 757L304 758C299.827 761.191 298.968 763.586 302 768L293 775L293 776C297.946 778.551 308.304 780.452 314 780.725C317.524 780.895 321.544 778.556 324.782 780.69C332.956 786.075 316.563 791.089 320.168 800C321.962 804.435 327.763 810.406 332.259 812.276C335.437 813.598 339.66 812.353 341.415 816.148C343.966 821.663 338.315 826.928 337.477 832C336.911 835.423 339.197 838.763 340 842L352 841L353 844L359 845L358 858L363 857L364 859L364 860C356.392 864.463 363.933 869.065 370 867L373 875C386.68 875.218 377.55 890.419 377 898L392 893C392.975 896.47 395.091 897.078 398 895L399 895L403 896C404.182 902.285 403.14 911.388 411 912C411.7 916.723 417.218 911.726 418 909L423 918L425 918L427 913L444 929C444.342 933.397 445.772 934.859 450 936C457.923 923.631 462.432 936.583 464 945L469 944L470 939L476 942C480.75 933.147 487.506 938.14 495 940L494 924L498 926L496 906L497 906C499.227 914.512 502.638 919.135 510 924L510 919L513 920L513 915C519.398 917.181 522.163 922.2 525 928L526 928L519 903L527 909L525 901C535.827 901.128 536.361 908.333 539 917L543 911L547 912L544 897L545 897L546 900L549 900L550 897C551.499 899.56 556.479 908.096 558 901L563 900L568 905L572 899L576 900L572 879L580 882L578 865L581 866C580.478 860.043 584.199 861.724 588 864L587 859L605 864L606 861L624 876L625 873L628 875C632.651 874.207 641.236 886.46 643.961 890.001C651.453 899.737 659.657 904 672 904L674 901L672 895L673 894L686 894L690 887L674 859C684.259 857.213 671.339 838.643 666 836C668.568 831.915 676.063 832.163 677.029 827.89C678.719 820.418 666.535 817.224 672.164 808.148C674.965 803.634 683.741 803.288 688 799L688 804C695.85 803.661 703.733 807.545 705 816C709.375 816.142 723.662 816.388 725.959 820.434C727.44 823.041 725.992 828.644 727 832L720 834L730 843L722 851L729 851L727 854L731 853C732.164 856.873 734.167 857.988 738 859C733.353 866.896 718.961 871.82 720 882L729 876L729 880L735 879L736 882L758 876L757 892L758 892C762.853 883.606 774.507 875.669 784 878C786.39 874.565 790.297 872.202 791 878L796 886L799 886L803 877L805 877L811 893C824.663 890.561 816.492 901.012 814.639 907C813.5 910.682 816.156 914.242 815.242 917.871C814.034 922.665 809.615 924.42 810 930L813 929L816 950C820.449 948.193 822.341 945.425 824 941L825 941L830 944L831 936L832 936L835 948C826.857 948.906 823.339 954.245 823 962L824 962L842 950L840 960L845 956L843 965L844 965L845 963C846.949 966.018 852.963 968.312 855.581 964.552C860.326 957.736 858.311 947.066 864 941L860 966L861 966L864 963C860.133 971.807 859.002 979.823 867 987L868 987L873.772 979.956L876 965L877 972L878 967C891.699 959.878 889.547 939.217 894 927L909.678 926.997L914 938L914 935L916 935L909 952L926 949L926 957C931.005 954.893 934.708 951.972 937 947L939 947L943 950L945 941L946 941L949 950L951 950L952 941L960 943L963 931L966 932L971 919C973.096 924.166 976.509 925.848 979 920L983 931L985 931L987 926L989 926C991.555 934.956 1001.88 954.076 1012 942L1013 942C1024.25 953.219 1031.65 924.258 1024 920L1028 917C1028.43 920.828 1029.23 922.81 1033 924C1033.32 914.025 1043.61 909.607 1044 922C1048.23 921.887 1069.97 926.72 1062 916L1062 915C1070.44 912.36 1071.59 922.849 1078 926L1078 923L1079 923L1080 923L1081 926L1082 926C1086.29 918.432 1086.13 915.409 1085 907C1088.89 909.838 1093.37 914.006 1097 909L1093 908L1093 907L1097 908L1105 908L1103 893L1111.91 899.654L1122.96 895.762L1133.59 908.791L1151 917C1150.3 911.963 1149.08 909.369 1144 908L1165 878L1166 878C1171.24 886.453 1175.71 875.054 1181.09 873.273C1184.39 872.179 1194.19 873.524 1198 874L1199 870L1201 872L1208.21 861.948L1218 857C1221.73 860.54 1228.11 874.941 1230 861L1232 861L1233 868L1236 867L1242 872L1248 861L1265 864L1272 853L1278 851L1285 862L1286 859C1293.52 860.712 1290.66 853.883 1291 849L1292 849L1293 856L1295 856L1296 849L1299 851L1300 835L1301 835L1319 850L1318 841L1320 844L1325 841C1326.49 850.561 1332.94 857.304 1341 862C1342.81 858.324 1344.94 856.621 1349 856L1348 850C1359.03 854.694 1363.82 830.61 1358 824L1358 823L1374 822L1375 822L1376 822C1382.36 829.671 1387.16 823.639 1386 816L1392 818L1386 795L1392 796L1388 787C1399.25 783.268 1385.67 766.045 1395 760L1395 756C1398.45 758.2 1405.93 769.111 1409.72 768.029C1415.02 766.517 1409.74 755.8 1408.58 753C1402.9 739.335 1394.01 721.769 1394 707L1396 707C1396.11 719.048 1407.43 725.99 1413 736L1415 736L1414 727L1427 736C1427.84 734.014 1429.86 731.384 1429.54 729.134C1428.74 723.509 1422.06 723.724 1430 719L1431 723L1432 723L1432 719L1442 726L1440 717L1443 718C1444.7 711.788 1445.8 702.886 1439 700L1439 698L1455 695C1455.03 691.337 1456.28 686.567 1454.5 683.209C1452.55 679.53 1448.13 678.084 1446.6 673.996C1445.38 670.708 1446.99 666.472 1444.4 663.699C1436.54 655.29 1421.57 651.103 1416.45 639.424C1410.48 625.814 1425.44 613.808 1429.03 601.996C1431.21 594.819 1429.36 586.417 1431 579L1449 584L1450 579L1469 595L1469 593C1480.56 606.003 1494.6 631.798 1516 624L1514 619L1520 620L1530 617C1527.41 605.796 1519.86 597.416 1515.62 587C1513.81 582.553 1514.33 576.743 1513.79 572C1512.96 564.674 1509.72 562.053 1516 556L1511 538L1524 536L1527 523L1535 520L1535 519L1526 516C1527.13 512.049 1527.04 509.623 1523 508C1526.02 498.904 1523.77 497.253 1520 489C1521.74 488.642 1523.34 488.246 1525.02 487.651C1539.27 482.595 1516.74 475.485 1527 469L1527 467L1516 464L1516 463C1520.78 462.795 1528.42 462.66 1532.46 459.85C1535.34 457.843 1536.69 454.414 1540 452.733C1545.28 450.059 1551.53 451.362 1553.09 443.59C1553.82 439.944 1549.7 438.322 1548.46 435.385C1547.38 432.858 1548.52 429.554 1549 427L1535.09 423.972L1523 416L1523 414L1528 409L1525 406L1529 406L1534 389L1486 376C1490.81 371.443 1499.08 371.774 1496 363L1455 366L1474 360L1466 356L1475 352L1471 343L1465 339C1469.05 337.34 1470.51 335.34 1471 331L1456 326L1457 314L1453 312L1461 307L1461 306L1447 291L1443 289C1446.26 288.51 1446.42 282.787 1443.54 280.949C1441.12 279.404 1432.36 279.689 1429 279L1430 269L1428 270L1430 261L1414 271L1407 271C1408.48 261.907 1420.48 265.081 1417 253L1406 255C1407.18 252.238 1408.64 249.467 1405 249C1404.19 241.497 1403.9 237.067 1395 240L1393 236L1392 236L1385 240L1369 240C1369.32 233.649 1365.05 225.136 1367.18 219C1375.17 196.001 1398.76 179.575 1389 153C1381.24 154.993 1383.37 142.033 1377.98 144.176C1374.32 145.633 1371.7 150.607 1368.91 153.286C1359.92 161.905 1352.75 170.191 1341 175.198C1336.71 177.024 1332.18 175.766 1328 177.519C1324.95 178.798 1322.26 182.974 1318.72 182.573C1313.21 181.951 1313.28 172.401 1308 176L1307 176L1302 174L1301 167C1294.05 169.203 1288.83 182.983 1281 181L1280 184L1279 184L1276 181L1273 189L1269 181L1267 181L1265 186L1262 185L1262 194L1258 187L1254 195L1253 195C1251.89 189.091 1251.5 182.768 1244 184L1239 180C1237.39 172.72 1231.33 172.59 1225 170C1223.04 176.129 1222.7 181.579 1215 179L1218 197L1207 199C1203.47 208.606 1194.63 199.999 1188 199L1190 204L1186 205L1189 240L1178 237L1194 276L1180 257L1182 267L1181 267L1176 259L1162.99 262.492L1155.26 272.293L1145 275L1142 264L1132 268C1134.27 261.566 1131.44 258.819 1129 253L1127 252L1120 251C1114.75 258.893 1113.07 254.466 1106.09 256.335C1102.31 257.347 1100.83 261.756 1098 257L1090 261L1095 234L1094 234L1086 240L1083 229L1072 240L1074 233L1064 240C1059.81 236.785 1057.39 233.331 1057 228C1049.77 232.37 1049.46 240.141 1039 240L1042 224L1042 223C1038.63 220.597 1036.63 219.321 1037 215C1032.7 213.526 1030.17 213.801 1028 218L1025 218L1024 213L1018 220L1017 220C1021.33 199.099 1020.91 182.614 1016 162L1007 172L998 176C999.126 164.063 992.338 172.467 988 176L990 167C977.974 165.163 976.634 171.518 967.961 177.983C954.627 187.921 943.013 192.863 943 212C931.756 207.01 934.306 190.775 922 187L919 195C918.685 181.582 906.948 177.333 904 166C899.378 168.985 897.071 180.572 896 186L887 171L884 188L880 186L871 210L861 205L860 220C847.188 216.182 851.164 229.992 845 236L844 229L842 229L840 255L838 255C837.237 237.551 828.479 252.65 828 262L820 258L817 268L813.502 253L814 225C792.439 230.072 798.783 253.602 789.951 268.907C785.67 276.325 777.295 276.108 776 286C766.79 278.914 776.88 273.171 780.86 266.714C783.629 262.223 784.818 253.083 784 248L774 256L779 247C769.335 248.076 765.287 258.656 759 265L764 245L761 248C757.278 247.937 756.361 249.646 755 253L753 247L750 248L750 235L745 237L746 234L732 239L731 244L728 242L728 235L726 235L721 247L720 247L718 245L714 249C712.371 245.604 708.549 243.272 706.5 248.028C704.455 252.774 703.296 266.972 695 259L694 264L687 268L686 257L684 257L681 260L681 255C673.538 250.64 680.54 241.582 672 237L671 241C660.383 232.284 672.218 215.013 669 204L664 206C668.062 196.521 672.971 189.688 673 179L670 184L669 184L673.682 164L668.26 149L668 122L663 126L656 111L652 112L652 107C647.359 108.632 647.804 113.688 647 118L646 118L645 111L644 111L643 114L642 111L638 112L637 106L636 106L635 108C633.341 99.4878 631.235 98.851 623 99M1032.06 158.086C1028.39 159.939 1027.7 167.575 1032.8 164.914C1036.19 163.153 1037.15 155.525 1032.06 158.086M880 183L881 184L880 183z"/>
<path style="fill:#fefefe; stroke:none;" d="M744 238L743 240L744 238z"/>
<path style="fill:#030303; stroke:none;" d="M1110.67 239.333L1111.33 239.667L1110.67 239.333z"/>
<path style="fill:#fefefe; stroke:none;" d="M740 243L741 244L740 243M1070 247L1069 251L1070 251L1070 247M1403 247L1404 248L1403 247M474 264L478 264L479 259L474 264z"/>
<path style="fill:#030303; stroke:none;" d="M1144 262L1145 263L1144 262z"/>
<path style="fill:#fefefe; stroke:none;" d="M486 265L488 268L486 265M475 269L476 270L475 269M476 271L477 272L476 271M1142 272L1143 273L1142 272M476 275L477 276L476 275M478 277L478 280L480 280L480 277L478 277M1428 279L1429 280L1428 279M466.333 286.667L466.667 287.333L466.333 286.667M402 343L403 344L402 343M1466 343L1467 344L1466 343M1456 345L1456 348L1457 348L1456 345M369 355L370 356L369 355M1446 367L1446 368L1449 368L1446 367M376.333 370.667L376.667 371.333L376.333 370.667M1515.33 384.667L1515.67 385.333L1515.33 384.667M406 461L407 462L406 461M435 468L438 468L437 466L435 468M440 469L440 472L445 472L445 471L440 469M394 474L396 476L396 474L394 474M1523 483L1524 484L1523 483M452 484L454 486L452 484M376 487L377 488L376 487M1520 487L1521 488L1520 487M386 539L387 540L386 539M403 551L404 552L403 551z"/>
<path style="fill:#030303; stroke:none;" d="M405.667 569.333L406.333 569.667L405.667 569.333z"/>
<path style="fill:#fefefe; stroke:none;" d="M416 577L417 581L418 581L420 577L419 576L416 577M422 580L425 580L424 578L422 580M1468 591L1469 592L1468 591M1438 715L1440 717L1440 715L1438 715M1388.67 767.333L1389.33 767.667L1388.67 767.333M708 808L720 808C716.322 804.244 711.678 804.244 708 808M733.667 839.333L734.333 839.667L733.667 839.333M624 871L625 872L624 871M557 899L558 900L557 899M1083 903L1084 904L1083 903M844 947L844 948L848 948L844 947M878 958L878 962L879 962L878 958z"/>
<path style="fill:#030303; stroke:none;" d="M859 967L860 968L859 967z"/>
</svg>
