<?xml version="1.0" standalone="yes"?>
<svg xmlns="http://www.w3.org/2000/svg" width="1920" height="1080">
<path style="fill:#fefefe; stroke:none;" d="M0 0L0 1080L1920 1080L1920 0L0 0z"/>
<path style="fill:#030303; stroke:none;" d="M633 63L629 67L628 67L627 65L626 65C614.449 74.9507 618.729 92.3813 616.942 105.996C616.268 111.134 612.618 115.118 611.129 120C608.915 127.257 608.598 136.419 608 144L606 144L606 139C598.368 143.398 602.38 158.938 592 157L594 173L593 173L591 169L589 173L581 165L580 165L577 181L568 178L570 188C563.144 191.304 564 197.307 564 204L559 204L557 199L556 202L552 202L552 195L550 195L549 204L548 204C547.725 199 546.311 195.506 541 198L534 185L533 191L529 190C526.068 183.787 520.032 182.359 514 180L513 184L513 198L506 197L503 212C496.886 215.642 499.725 221.312 498 227L494 225C491.18 231.798 493.935 238.223 498 244L488 231C482.62 233.967 486.316 248.275 479.421 247.701C476.981 247.497 474.364 244.85 472 244C470.203 250.002 465.01 255.401 460 259L460 260L463 264L447 251L456 269C449.684 265.584 434.326 253.266 427 257L420 247L410 247C406.611 253.416 400.288 265.371 395 254L385 251C380.59 259.912 389.831 268.73 389 278L384 277L388 284L372 275C374.284 277.648 378.571 281.157 375 284L388 306L393 306C389.644 309.469 386.906 311.256 382 311L382 318C370.187 310.201 377.294 332.1 378 336L377 337L360 331L359 334L350 335L350 336L352 338L342 339C343.579 340.178 345.33 341.095 346.905 342.273C355.042 348.36 342.047 351.781 342.582 358.066C343.181 365.107 359.216 370.98 365 371L360 376L360 383C344.257 383.043 350.435 388.777 355 398L368 404L350 407L345 420L352 412C357.035 415.54 362.453 416.015 368 418.334C380.826 423.696 393.137 430.076 404 438.804C405.665 440.142 420.026 451.332 417.468 452.188C414.559 453.161 410.833 448.549 408.975 446.917C401.922 440.719 396.104 437.25 387 435C387.38 440.238 389.791 445.286 395 447L395 448L383 445L386 452C377.312 455.492 388.2 462.847 382.35 468.216C378.261 471.97 373.813 468.716 369 469.179C361.52 469.899 353.334 478.645 355 486L360 485L361 492L364.664 495.019L362.086 502.849L378 520C370.913 520.063 361.035 521.502 357 528L343 530L343 532L349 539C357.034 540.59 360.152 542.382 368 538L365 552L344 549L345 567L335 569C338.306 580.105 355.842 585.008 357.508 597.043C358.121 601.464 354.505 606.046 353 610L371 622L371 624L352 617L352 622L340 619L342 624L339 623L337 627L336 627L328 623L328 624C330.7 625.958 343.556 638.147 337.797 640.824C334.461 642.374 330.86 637.427 327 638L337 654L331 657C336.107 664.623 341.81 665.487 341 676L326 678L326 680L332 683L330 688C322.557 684.963 306.362 679.122 302 689C310.431 695.395 324.135 701.347 308 707C312.222 711.256 329.731 715.125 323 722C325.847 729.683 333.014 728.758 340 729L333 737C325.79 735.119 307.643 730.398 302 736L305 740L284 734L283 734L283 747L280 746L284 760L294 764C285.707 765.896 281.968 767.245 278 775L290.171 784.258L304 788C297.502 790.391 299.431 796.04 302.63 800.907C306.904 807.407 315.925 806.949 322 812L318 816L333 819L333 820C329.11 822.737 328.974 827.545 332 831L332 832C326.776 834.863 323.817 837.814 325 844C316.72 845.808 323.369 852.881 325 858C331.159 857.731 338.27 852.78 344 853.469C354.363 854.715 350.503 872.054 352 880C358.663 877.478 358.837 872.042 367 874L360 886L364 884L365 888L369 886C370.647 892.918 367.781 903.117 375 907L374 910L380 912C381.482 903.02 380.488 901.568 388 896L391 901L390 904C400.79 907.423 396.274 916.124 393 924C397.92 924.107 402.165 925.81 404 920C409.549 921.558 418.443 922.745 421 928C416.135 929.819 415.147 933.051 415 938L421 935L423 942C430.932 942.369 423.87 950.493 428.448 954.358C434.661 959.603 442.898 952.936 448 962C453.103 957.546 453.981 951.488 454 945L457 945L459 972L467 963L470 964L470 961L471 961C476.947 964.832 486.978 954.643 490 949L491 949L496 958L497 955C506.621 958.391 503.118 946.729 503 941L508 942L508 931L523 941L524 933L525 933L536 947L528.982 924L529 907L532 905L533 905L545 934L546 934L546 924L547 924L549 930L550 930L549 909L550 909L557 920L558 920L560 911C562.047 912.747 562.474 912.645 563 910C565.284 911.959 570.75 920.684 572 915L576 918L577 903L580 902L584 906L580 889L588 888L588 887C580.624 878.09 584.97 874.275 585 864L592 869C598.498 862.692 599.863 869.693 606.13 871.25C609.099 871.988 611.011 868.547 613.935 869.056C620.251 870.154 628.869 884.819 632 890L633 890L634 885L635 885C636.618 890.927 638.55 899.638 646 899L644 901L644 902L647 901C651.847 912.231 662.394 913.473 671 921.17C674.451 924.256 679.477 930.974 683 925C688.378 928.869 694.778 928.895 701 927L699 921C703.592 921.774 717.53 923.827 718.879 917.905C720.025 912.873 714.173 909.451 718.01 904.279C720.973 900.284 725.888 902.125 729.625 899.821C733.177 897.631 735.509 893.481 739 891L745 896L750 891L752.15 901.911L747 914C754.147 911.295 761.46 906.47 764 899L768 900C770.546 895.141 772.772 888.759 778.004 886.184C782.608 883.917 787.296 887.901 782 891L782 892C791.186 896.592 796.068 891.678 805 890L804 904L812 906L794 936L798 942L805 937L804 942L811 939L801.613 949.055L796.568 960.83L780 980L786 979C787.206 984.626 798.744 978.145 803 977C803.755 981.791 803.982 983.99 801 988L815.964 984.892L824 988L823 992C832.9 990.469 836.06 983.689 839 975L840 978L843 976C843.495 980.318 842.297 986.096 848 986L844 993L844 989L843 989L840 1002L848 999C842.948 1009.66 856.954 997.492 860 997C856.672 1001.38 847.926 1009.41 855 1014C860.495 1001.79 868.894 1006.78 877.471 999.412C882.487 995.101 884.241 986.906 886.544 981C889.759 972.753 895.171 965.746 897 957L898 957C897.682 964.41 891.212 978.45 899 983L900 988L906 984C908.801 992.436 913.878 984.027 914 979L916 979C916.048 982.898 915.791 986.769 920 988L923 983C924.578 990.325 929.955 978.715 932 977L935 980L934 963L936 966L944 969L944 959L954 956L953 966L957 965L958 972L961.738 961.015L968 937L977 951L988.036 957.079L996.287 954.462L1004 974L1004 961L1008 961C1008 968.299 1008.34 976.367 1012.3 982.831C1015.58 988.168 1021.82 987.194 1024 982L1031.17 982.725L1039.39 983.713L1041.44 976.015L1044 953L1040 943L1067 931C1065.79 934.176 1063.84 938.437 1065.55 941.772C1067.9 946.356 1079.62 948.207 1083 945L1089 946L1092 952L1093 952L1094 949L1101 953L1102 952L1088 931L1093 932L1096 918C1103.91 924.461 1106.19 938.362 1116.38 942.378C1124.07 945.411 1127.68 930.616 1134 928.693C1142.6 926.08 1153.99 932.485 1163 932L1159 927C1163.91 926.953 1169.87 929.829 1173 925L1174 925L1175 930L1176 930C1181.17 911.952 1160.74 920.885 1155.88 911.695C1154.56 909.199 1156.52 905.571 1157 903L1161 904L1179 889L1194.99 892.985L1210 906L1210 898L1214 900L1211 897C1216.1 890.364 1212.48 886.489 1212 879L1215 879L1216 882L1220 881L1220 892C1225.26 891.53 1232.75 887.588 1232 896L1239 890L1240 902C1249.21 901.25 1246.55 896.32 1250.94 890.234C1255.1 884.459 1258.97 886.821 1259 878L1260 878L1264 880L1265 876L1266 876L1268 882L1269 882L1270 874L1272 874L1277 880L1280 866L1292 880L1292 875L1296 876L1294 870L1299 872L1298 857C1303.01 859.776 1305.39 864.379 1306 870C1311.74 866.836 1311 858.857 1311 853L1312 853L1319 875L1324 876L1324 871L1331 879L1339.42 887.968L1356 894L1359 892L1358 875L1373 880L1370 871L1373 872L1367 851L1373 852L1376 843L1385 848L1387 839L1393 839L1394 839L1403 842L1406 846L1407 843L1408 843L1414 848C1412.51 843.088 1410.59 839.761 1416 837L1411 821C1413.65 820.666 1417.09 805.82 1415 803L1415 802C1419.06 798.048 1408.62 782.6 1408 777L1409 777C1411.24 781.872 1429.1 795.238 1426.42 782.995C1425.3 777.866 1421.35 773.688 1419.18 769C1412.1 753.673 1404.38 738.025 1399 722L1400 722C1402.02 725.816 1405.46 728.328 1407.58 732.039C1412.01 739.771 1413.58 754.357 1424 756L1421 739L1431 752C1434.14 746.405 1441.46 743.424 1438 736C1446.09 736.037 1450.96 743.795 1459 740L1460.06 724.039L1454 714L1458 716L1457 703L1480 704L1481 704C1479.9 698.512 1476.85 688.936 1471 688L1471 687L1484 684L1480 679C1479.53 670.012 1463.1 677.637 1463 667L1455 666C1455.55 662.373 1458.35 659.59 1458.6 655.985C1459.27 646.149 1448.24 640.024 1440 640L1442 633L1436 632L1435 632L1432 628L1436 621L1429 620L1440 609L1435 608C1440.28 603.866 1447.08 602.915 1451.77 599.216C1460.04 592.694 1448.29 591.819 1444 592C1446.2 586.567 1450.92 585.273 1456 583C1457.59 588.562 1462.85 591.201 1465.87 596.001C1474.82 610.223 1484.33 618.115 1497 628.278C1501.22 631.664 1504.09 637.098 1509.01 639.539C1512.73 641.381 1516.16 639.527 1520 640.029C1524.4 640.603 1528.74 642.768 1533 644L1534 642L1533 637L1548 639L1551 636C1549.48 628.146 1542.86 623.301 1538.44 617C1528.29 602.545 1514.78 577.582 1525 560L1525 559C1515 546.517 1523.05 539.796 1537 540L1538 535C1551.46 538.556 1543.01 510.466 1534 508L1538 504C1536.9 500.679 1535.41 500.263 1532 500L1533 497L1536 498C1536.55 494.343 1535.41 493.255 1532 492C1534.78 486.599 1541.34 482.38 1533 478L1533 477L1538 476L1537 469L1534 468L1548 459L1551 460C1556.51 455.425 1565.79 455.444 1562 446L1573 441L1564.32 435.012L1560 428L1560 427L1564 423L1544 420L1546 406L1539 404L1551 383L1544 384L1545 375C1533.36 374.779 1524.01 378.815 1524 363C1517.11 365.24 1507.13 364.143 1516 356L1516 355L1497 360.306L1467 364L1467 363C1472.45 362.984 1482.92 362.911 1485 357L1479 356L1483 352L1473 339C1477 336.505 1485.12 330.031 1479 326L1480 322C1470.11 323.98 1470.41 317.618 1466 311L1476 308L1476 305C1470.26 302.452 1467.8 298.913 1466 293L1450 292C1450.13 287.325 1453.2 279.473 1449.14 275.657C1447.51 274.124 1436.08 272.744 1433 272L1440 253L1418 264L1429 250L1418.13 251.829L1409 247L1409 236L1387 236L1386 233L1372 240L1371 240L1368 232L1368 231C1370.77 227.663 1370.72 224.48 1367 222L1367 221C1386.57 196.75 1403.6 168.935 1396 137L1393 138L1391 128C1379.81 126.054 1378.24 136.763 1372.47 143.961C1368.09 149.428 1362.61 153.252 1360 160L1358 158L1357 158L1349 164L1346 170L1330 169L1323 178L1313 170L1313 163L1309 164L1305 156L1304 156L1300 164L1297 161L1285 174C1281.08 173.845 1280.3 175.217 1280 179L1279 179L1278 174C1273.73 176.443 1272.6 182.037 1268 177C1263.85 178.489 1259.49 179.566 1258 184L1257 184L1252 177L1254 184C1244.87 175.234 1242.07 159.823 1228 167L1224 159L1221 159L1221 171L1215 174L1213 169L1210.07 186.979L1199 190L1196 198C1191.02 188.918 1177.18 191.53 1176.1 202.104C1175.7 205.992 1181.16 209.792 1179.01 213.682C1177.53 216.357 1173.56 215.97 1171 216L1174 228C1168.25 227.44 1160.77 227.774 1161 235L1157 230C1150.78 232.745 1148.37 236.466 1147 243L1146 243L1143 231L1133 244L1140 223L1123 238L1125 222C1118.2 221.248 1115.72 226.046 1114 232L1111 232L1112 227C1106.82 229.481 1103.88 233.661 1102 239L1101 239L1105 203L1104 203L1095.6 207.728L1092 220L1091 220L1091 206L1084 218L1083 207L1079 218L1077 218L1078 209L1077 209L1066 230L1068 223L1061 228L1071 197C1060.82 201.338 1053.42 209.193 1046 217C1048.69 206.095 1059.97 192.383 1057.65 181.043C1056.91 177.405 1053.62 175.206 1052 172L1051 172L1045 184L1044 184C1043.67 177.538 1049.29 155.093 1043 153L1041 160L1046 133L1040 134L1040 127L1033 136C1033.82 131.171 1029.79 114.714 1026 112C1026.69 108.696 1026.92 106.912 1024 105L1022 112C1015.59 112.495 1013.5 117.638 1011 123C1000.52 118.78 1002.61 132.54 1000 139L1000 127L993 132L992 132L987 108C981.663 111.724 981.477 121.958 981 128L976 122L975 122C970.057 135.42 962.466 148.154 966 163L959 164L957 149L952 156L950 156L949 152L939 160L939 146C929.294 145.032 929.799 147.061 927 157L926 157L922 150L916 152L917 145L905 144L908 137L904 136L905 125L901 121L897 123L895 116L900 114L889 111L888 132L882 133C879.943 127.225 881.889 117.327 873 119C874.038 123.424 874.276 126.642 870 129L867 155L866 155L861 147L860 147L856 164L851 161L847 166L848 172L841 162L838 176L836 176L832 169L829 197L825 195L825 215C814.233 206.822 820.388 186.495 808 180L808 186L801 179C797.765 183.737 800.13 188.679 799.896 194C799.509 202.789 798.254 212.284 797.117 221C796.722 224.027 793.63 233.609 790 229L783 238L782 238L779 231L770 248C770.934 242.675 767.436 232.905 762 231L757 235L758 225L749 232L750 223L748 223L736 235L736 225L724 233C723.061 230.059 714.108 210.162 712 220C706.646 218.889 704.736 220.768 704 226L708 227L705 234L702 233L698 236L697 233L695 233C692.172 237.654 687.828 237.684 689 244L684 239L679 242C677.034 237.924 669.401 237.402 668.726 235.147C668.097 233.047 670.505 230.23 670.566 227.999C670.799 219.471 668.22 215.567 672.039 207C674.329 201.86 678.979 196.114 673 192C683.535 176.538 677.112 155.769 674.39 139C673.132 131.252 676.114 122.935 674.775 115C673.731 108.812 668.986 103.067 667 97L666 97L664 109L663 109C661.94 103.381 659.655 86.6542 654 85L649 72L648 72L647 80L643 80L643 75L638 76L635 72L633 63z"/>
<path style="fill:#fefefe; stroke:none;" d="M972 145L972 148L973 148L972 145M1027.33 150.667L1027.67 151.333L1027.33 150.667M915 152L916 153L915 152M921 153L919 159L920 159L921 153M921 169L921 172L924 172L924 169L921 169z"/>
<path style="fill:#030303; stroke:none;" d="M1253.33 174.667L1253.67 175.333L1253.33 174.667z"/>
<path style="fill:#fefefe; stroke:none;" d="M1051 175L1052 176L1051 175M1258 185L1259 192L1260 192L1258 185z"/>
<path style="fill:#030303; stroke:none;" d="M1077.67 207.333L1078.33 207.667L1077.67 207.333z"/>
<path style="fill:#fefefe; stroke:none;" d="M1076 220L1075 223L1076 220M1092 220L1091 222L1092 220M820 223L820 227L821 227L820 223M1089 232L1092 232L1091 230L1089 232M1165 230L1164 235L1167 230L1165 230M1168 236L1169 237L1168 236M704 237L704 239L706 239L706 237L704 237z"/>
<path style="fill:#030303; stroke:none;" d="M411 245L412 246L411 245z"/>
<path style="fill:#fefefe; stroke:none;" d="M679 253L680 253L680 250L685 253C686.013 245.915 679.251 245.345 679 253z"/>
<path style="fill:#030303; stroke:none;" d="M444 247L446 249L444 247z"/>
<path style="fill:#fefefe; stroke:none;" d="M788 254L779 275C786.617 270.453 788.852 262.521 790 254L788 254M428 257L429 258L428 257M465 265L473 277L468 265L465 265M1409 267L1409 268L1416 266L1409 267M436 267L437 268L436 267M392 272L394 276L392 272M475 279L476 280L475 279M378 285L379 286L378 285M1472 325L1473 326L1472 325z"/>
<path style="fill:#030303; stroke:none;" d="M375 331L376 332L375 331z"/>
<path style="fill:#fefefe; stroke:none;" d="M378 337L379 338L378 337M1473 337L1474 338L1473 337M351.667 339.333L352.333 339.667L351.667 339.333M382 340L383 341L382 340M352.333 346.667L352.667 347.333L352.333 346.667M1508 365L1506 368L1508 365M420 452C420.98 457.85 426.149 463.211 432 464L420 452M441.667 471.333L442.333 471.667L441.667 471.333M1526 471L1526 472L1530 474L1526 471M362 487L363 488L362 487M1535 535L1536 536L1535 535M403 559L404 560L403 559M406 559L407 560L406 559M401.667 561.333L402.333 561.667L401.667 561.333M402 563L403 564L402 563M391 567L392 568L391 567M340 569L341 570L340 569z"/>
<path style="fill:#030303; stroke:none;" d="M1436.67 619.333L1437.33 619.667L1436.67 619.333z"/>
<path style="fill:#fefefe; stroke:none;" d="M1394.33 706.667L1394.67 707.333L1394.33 706.667M1396 719L1399 722L1396 719M1428 723L1429 724L1428 723M1455 731L1456 732L1455 731M1436.67 735.333L1437.33 735.667L1436.67 735.333M690 844L687 843C687.718 854.154 689.153 861.771 694 872C689.249 875.661 702.002 894.181 706.815 892.654C709.613 891.767 710.612 887.351 711.615 885C714.347 878.596 724.148 869.064 720.423 862.019C717.677 856.825 709.228 858.979 708.222 853.938C706.381 844.705 717.732 836.146 710.287 826.375C706.228 821.048 691.85 818.111 688.792 826.185C686.909 831.158 689.341 838.893 690 844M1409 820L1410 821L1409 820M1382 835L1383 836L1382 835M325.667 839.333L326.333 839.667L325.667 839.333M1297 865L1296 868L1297 865M1277.33 866.667L1277.67 867.333L1277.33 866.667M806 887L805 889L806 887M788 889L788 892L790 892L790 889L788 889M390 895L390 898L392 898L392 895L390 895M814.333 899.667L814.667 900.333L814.333 899.667M558 911L559 912L558 911M525 915L528 920L525 915M1152.67 923.333L1153.33 923.667L1152.67 923.333M1158.67 929.333L1159.33 929.667L1158.67 929.333M424 935L425 936L424 935M521 935L522 936L521 935M955 947L956 948L955 947M1021.67 971.333L1022.33 971.667L1021.67 971.333M1012 973L1012 976L1014 976L1014 973L1012 973M906 983L907 984L906 983M824 987L825 988L824 987M860 995L860 996L863 996L860 995z"/>
</svg>
