<?xml version="1.0" standalone="yes"?>
<svg xmlns="http://www.w3.org/2000/svg" width="1920" height="1080">
<path style="fill:#fcfcfc; stroke:none;" d="M0 0L0 1080L700 1080L697 1074L696 1074L688 1078L693 1059C684.579 1064.75 674.397 1065.29 671 1076L666 1065C670.893 1063.45 675.126 1061.37 676 1056L675 1056L672 1060L674 1049L664.906 1059.96L646 1073L654 1057L649 1060L648 1057L630 1059C634.058 1048.19 639.673 1044.38 646.701 1035.96C652.155 1029.42 655.401 1022.18 662.17 1016.47C670.925 1009.08 683.27 1008.02 687 995L691 996C692.01 983.651 702.507 984.026 709 975C705.892 974.226 701.544 973.068 701 977C690.397 975.026 680.294 983.763 673.834 991C660.699 1005.72 647.991 1023.17 631.561 1034.5C626.429 1038.04 619.696 1036.32 614 1038.01C607.038 1040.08 601.187 1044.45 595 1048C598.233 1030.91 614.786 1027.18 625.382 1015.97C627.664 1013.55 625.814 1009.9 627.028 1007C628.706 1003.01 632.847 1000.7 635 997L626 1000L628.881 990.785L643.367 979.433L659 961L667 949C660.245 947.972 657.177 942.076 651 948L649 943C646.772 942.904 640.959 944.216 639.294 942.975C631.633 937.262 647.446 935.743 650 936C647.495 932.339 642.597 929.189 650 928L650 927L644 926L641 913L640 913L640 920L638 920C637.06 910.565 632.16 899.327 625 893C621.81 898.334 619.595 901.412 613 900C615.122 897.153 618.309 893.904 615 891L616 894C610.445 893.552 597.804 899.594 596.827 906.015C596.256 909.77 599.352 914.251 600 918L597 916L593 917L594 934L590 933L585 944L584 941L583 941L586 968L576 955L575 955C575.469 965.75 585.047 986.421 576 995L576 992L575 992L563 982C563.309 990.646 566.223 1004.11 559 1010L553 999L551 1000L548 994L544 1006C544 998.175 542.856 989.768 533 995L533 989L532 989L530 991L524 982L523 985L521 983L520 983L521 986L518 983L517 983L513 988L514 983L506 996C506.663 983.17 497.972 996.963 494 999L494 1004L493 1004L492 989L489 989C488.809 992.784 489.261 1003.38 485 1004C485.661 1012.09 489.794 1014.44 493.239 1021.02C497.517 1029.19 498.184 1035.03 498 1044L494 1043L487 1060L477 1051L477 1053C473.956 1051.23 469.971 1049.44 468.604 1045.95C466.769 1041.25 470.044 1036.88 464 1035L461 1041L458 1031L452 1031L445 1042L442 1031L432 1041L427 1037L430 1036C428.41 1031.21 427.206 1028.74 422 1028L426 1027L430 1011L421 1018C420.492 1013.76 422.185 1010.39 418 1008L416 1013L412 1005L411 1005L404 1020L397 1020L399 993L396 993L396 996C392.55 996.577 390.313 999.828 387.063 1000.24C382.944 1000.75 385.24 997.043 387 996L387 995L384 990C387.552 988.347 389.402 987.051 389 983C394.791 981.996 397.665 980.052 398 974C386.57 978.109 379.859 986.735 371 994C371.653 990.538 373.687 982.7 369 982L371 970L356 976L356 971L348 971C347.135 965.835 344.279 966.711 340 968L339 965L328 964C334.903 958.032 345.485 954.55 348 945L342 949L345 923L331 928L341 913L343 915L344.363 909.975C347.8 897.414 335.203 907.542 328 906L339 889L334 887C332.367 892.147 330.435 893.823 325 894L325 893L329 892C327.515 888.541 326.407 890.094 324 892C325.582 883.373 319.83 883.055 313 883C310.859 887.483 306.672 889.191 303.878 893.104C298.84 900.16 300.611 909.326 290 910L293 903L284 904L290 899L282 897L286 894L285 890L288 890L290 879L279 880C278.633 872.224 280.37 872.604 286 876C288.335 871.706 300.172 867.543 292 863L290 866L289 863L288 863L288 866L284 861L279 864L281 847C285.191 846.601 295.336 846.933 298.683 844.681C302.758 841.939 303.036 835.304 299 833C296.129 836.468 294.363 835.567 291 833L290 833C281.692 838.01 289.224 825.845 290 823L272 824L283 820C280.441 809.252 279.111 807.126 267 810L266 805L273 806L278 800C274.616 796.836 261.399 794.668 258 798L257 798C254.054 795.106 251.908 794.745 248 796L247 793C236.824 795.26 227.788 787.769 219 784L225 780L223 775C228.36 775.94 230.562 774.956 233 770C229.535 766.883 230.904 765.05 232 761L227 760L227 759L236 757L239 751L232 748L232 746L243 744L244 735L243 734C239.524 735.4 234.315 740.219 230.514 739.69C227.568 739.28 225.629 735.397 223.025 734.077C215.568 730.298 205.229 728.494 197 730L196 724L213 720L213 717L215 718L215 713L216 713L217 715L222 701L218 696L226 696L226 695L214 688L214 687L219 686L216 677C229.609 677.047 249.095 685.614 258 696L259 696L260 693C262.792 694.76 270.65 703.174 272 697C266.746 695.445 264.068 689.11 259 686.558C242.43 678.214 225.435 675.902 217 657C226.525 659.744 232.756 667.338 243 665L243 667L246 667L244 663C251.433 664.345 262.65 675.123 270 670L274 673L275 667L271 661L271 657L272 657L277 662L280 661C282.695 665.986 286.115 664.642 291 664L298 649L289 644C290.289 639.721 291.165 636.865 286 636L290 633C291.639 635.348 292.556 635.429 295 634L297 638L304 636L304 631L284 620C285.453 618.599 288.97 617.159 289.828 615.416C292.91 609.153 276.346 603.674 273 601L280 601L280 597L282 597L283 600L289 600L290 597L301 600L300 597L304 598C304.291 587.841 318.485 597.616 324 591L319 587C308.736 586.158 311.602 578.183 313 571L299 558L300 554L294 557L293 553L286 556C284.939 551.075 280.459 555.404 277 556L289 543C283.527 539.949 278.156 536.796 278 530L282 532C285.203 518.888 266.673 508.41 262 497C268.319 496.72 264.021 491.82 263 488L272.271 490.522L286 504L280 491L291 492L293 485L303 488C308.844 475.124 318.884 480.042 327.772 473.121C333.764 468.455 333.752 460.544 343 460L360 443L356 443L357 437L353 436L353 434L368 428C366.102 422.613 359.703 416.856 354 419L354 420C357.061 430.337 334.464 437.649 330 446C314.497 444.656 297.122 469.005 286 451C280.987 452.67 279.211 451.74 277 447L276 447L276 453L271 441L270 441L270 444L269 444L270 429L278 428L278 427C264.781 423.764 273.918 414.812 274 405L276 405L280 412L281 407L280 407L279 409L278 406L286 404C282.388 398.408 275.052 396.479 276 389L280 393C278.99 385.739 284.67 371.897 278 368L279 357C283.876 362.465 294.499 364.2 296 355L292 356L297 337L300 338L298 329L302 332L298 313L305 314L304 311L308 311L310 320C314.925 318.398 316.953 313.826 318 309L322 310L324 303L329 308L330 308L326 295L331 300L332 300L332 294L329 295L327 287L335 289L335 292L341 289L337 287C345.765 274.803 332.039 273.624 326.948 265.946C324.848 262.78 325.176 256.768 324 253L332 256L324 250L323 244L313 244C312.573 241.438 308.591 230.398 315 232L314 229L316 233L319 232C318.812 220.517 333.629 225.497 334 213C338.498 212.923 342.462 217.063 346.675 216.301C355.638 214.679 359.744 200.153 357 193L370 190L382 185L388.83 187.981L403 200L405 196L406 196L407 201C410.543 196.018 410.1 190.772 409 185L413 186L416 180L417 180L423 194C431.915 196.419 430.192 204.368 432.859 211C436.052 218.941 442.381 221.16 450 222L450 218L453 220L450 215C457.481 215.742 460.955 222.689 465 228L469 222L459 212L459 211C462.98 204.703 461.933 206.162 468 210L469 205L476 210L476 193L472 189L479 188L479 187L475 178L480 179L481 182L482 182C484.563 175.022 478.78 169.432 473 166L476 161L471 146L473 146C475.526 150.396 477.67 148.131 478 144L481 144L482 133L484 133L484 138L486 135L490 140L492 140L496 121L497 121L505 125C507.613 119.485 505.828 112.706 514 114L525 108L521 97L534 98L540 130C542.957 128.08 542.883 126.304 542 123C549.047 126.771 547.899 143.227 556 142C553.356 137.339 552.522 134.921 555 130L556 130L560 138L561 138L563 125L569 121C570.138 125.013 567.674 132.428 570.724 135.338C575.737 140.122 581.66 118.335 582 115L590 121L588 132L592 127L593 127L598 132C593.426 122.752 583.796 96.6901 592 88L595 96L595 91L598 98L602 100C599.344 81.9227 598.591 58.3171 605.606 41C611.484 26.4879 621.767 15.6646 625 0L0 0z"/>
<path style="fill:#040404; stroke:none;" d="M602 100L598 98L595 91L595 96L592 88C588.219 90.7271 588.641 95.6255 589.185 100C590.472 110.333 591.933 123.421 598 132L593 127L592 127L588 132L590 121L582 115C581.47 117.998 575.168 139.324 570.738 134.534C567.969 131.54 570.478 124.928 569 121L563 125L561 138L560 138L556 130L555 130C551.722 134.697 552.64 137.588 556 142C546.621 141.572 550.949 125.941 542 123L540 130L534 98L521 97L525 108L514 114C505.581 111.057 506.963 119.293 505 125L497 121L496 121L492 140L490 140L486 135L484 138L484 133L482 133L481 144L478 144C477.388 147.916 475.759 149.578 473 146L471 146C469.788 151.836 473.087 156.157 476 161L473 166C476.226 168.635 481.348 172.825 482.833 176.778C483.761 179.246 481.547 181.905 480 179L475 178L479 187L479 188L472 189L476 193C474.594 198.842 473.17 204.484 476 210L469 205L468 210C462.529 204.868 462.099 204.516 459 211L459 212L469 222L465 228C461.714 221.885 457.72 215.264 450 215L453 220L450 218L450 222C442.684 220.486 436.995 218.318 433.322 211C430.08 204.541 432.902 195.614 423 194L417 180L416 180L413 186L409 185L407 201L406 196L405 196L403 200L382 185L370 190C368.815 184.581 361.093 192.776 357 193C358.482 200.299 355.762 213.855 346.675 215.813C342.635 216.684 338.484 212.663 334 213C333.311 223.269 327.097 219.708 321.242 224.738C318.693 226.929 318.188 230.494 316 233L314 229L315 232C308.874 232.828 310.665 240.319 313 244L323 244L324 250L332 256L324 253C324.776 256.794 324.735 263.604 326.897 266.701C332.575 274.836 344.029 274.159 337 287L341 289L335 292L335 289L327 287L329 295L332 294L332 300L331 300L326 295L330 308L329 308L324 303L322 310L318 309L310 320L308 311L304 311L305 314L298 313L302 332L298 329L300 338L297 337L292 356L296 355C293.352 363.923 284.611 361.653 279 357L278 368C284.819 374.023 277.328 384.449 280 393L276 389C274.214 396.409 281.609 399.133 286 404L280 407L281 407L280 412L276 405L274 405C273.806 414.065 263.518 425.77 278 427L278 428L270 429L269 444L270 444L270 441L271 441L276 453L276 447L277 447C278.7 452.246 280.922 453.392 286 451C293.686 469.258 316.47 447.165 330 446C334.574 440.174 359.304 428.007 354 420L354 419C359.68 417.276 365.287 423.349 368 428L353 434L353 436L357 437L356 443L360 443L343 460C333.916 458.96 333.178 467.699 327.772 472.431C319.326 479.826 307.362 474.208 303 488L293 485L291 492L280 491L286 504C277.91 495.725 274.135 490.989 263 488C263.565 491.74 267.854 496.603 262 497C265.415 510.168 283.953 517.832 282 532L278 530C277.05 536.945 283.12 540.771 289 543L277 556L286 556L293 553L294 557L300 554L299 558L313 571C311.087 578.314 308.138 586.791 319 587L324 591C318.039 595.988 303.652 588.248 304 598L300 597L301 600L290 597L289 600L283 600L282 597L280 597L280 601L273 601C276.38 604.834 290.4 608.015 289.373 614.688C289.077 616.606 285.179 618.335 284 620L304 631L304 636L297 638L295 634L290 633L286 636C290.461 637.398 289.708 639.916 289 644L298 649L291 664C285.943 663.645 283.665 665.581 280 661L277 662L272 657L271 657L271 661L275 667L274 673L270 670C260.898 673.36 252.827 663.91 244 663L246 667L243 667L243 665L217 657C222.234 676.17 242.923 678.968 258 686.558C263.278 689.215 266.279 695.939 272 697C268.811 700.681 263.492 694.597 260 693L259 696L258 696C255.714 691.972 251.857 691.175 248.09 688.802C238.06 682.485 228.4 677.01 216 677L219 686L214 687L214 688L226 695L226 696L218 696L222 701L216 713L215 713L215 718L213 720L196 724L197 730C205.265 729.024 214.395 730.758 221.996 734.222C225.141 735.656 227.411 739.985 231.09 739.998C235.132 740.013 239.641 735.954 243 734L244 735L243 744L232 746L232 748L239 751L236 757L227 759L227 760L232 761C230.233 764.983 228.507 767.503 233 770C229.993 774.248 228.22 775.495 223 775L225 780L219 784C226.657 788.804 237.61 795.935 247 793L248 796L257 798L258 798C262.511 795.339 273.346 797.594 278 800L273 806L266 805L267 810C279.488 808.502 279.695 808.824 283 820L272 824L290 823C289.048 825.326 281.636 840.343 290 833L291 833C293.886 836.078 296.669 836.995 299 833C310.706 844.392 286.804 845.836 281 847C279.271 853.718 276.02 856.955 279 864L284 861C284.925 863.344 287.419 867.793 288 863L289 863L290 866L292 863C298.398 868.782 287.727 870.724 286 876C280.375 871.057 278.146 872.554 279 880L290 879L288 890L285 890L286 894L282 897L290 899L284 904L293 903L290 910C300.403 911.41 299.386 900.593 303.878 894.043C306.825 889.746 311.491 888.25 313 883C319.501 883.87 324.602 883.891 324 892L326 889L329 892L325 893L325 894C330.737 893.932 332.741 892.703 334 887L339 889L328 906L344.211 903.831L343 915L341 913L331 928L345 923L342 949L348 945L328 964C332.401 966.125 334.604 967.844 339 965L340 968C344.084 967.292 346.602 966.539 348 971L356 971L356 976C362.744 976.082 365.677 974.287 371 970L369 982C373.914 982 371.249 990.849 371 994L398 974C397.356 979.721 394.304 981.53 389 983L384 990L387 995L387 996C383.965 996.577 381.336 1000.53 386.028 1001.39C389.271 1001.98 395.394 995.841 396 993L399 993L397 1020L404 1020L411 1005L412 1005L416 1013L418 1008L421 1018L430 1011L426 1027L422 1028C426.747 1029.52 427.969 1031.57 430 1036L427 1037L432 1041L442 1031L445 1042C449.539 1039.25 451.642 1036.34 452 1031L458 1031L461 1041L464 1035C469.857 1037.81 466.53 1041.89 468.603 1046.87C469.988 1050.2 473.903 1051.75 477 1053L477 1051L487 1060L494 1043L498 1044C498.4 1034.69 497.826 1028.52 493.239 1020.05C489.908 1013.9 486.016 1011.54 485 1004C489.386 1003.45 488.875 993.015 489 989L492 989L493 1004L494 1004L494 999C498.176 997.711 506.045 984.371 506 996L514 983L513 988L517 983L518 983L521 986L520 983L521 983L523 985L524 982L530 991L532 989L533 989L533 995C542.571 991.031 543.999 997.979 544 1006C547.741 1003.37 547.814 998.315 548 994L551 995L551 1000L553 999L559 1010C567.322 1004.84 563.076 990.841 563 982L576 992L576 995L577 995C585.087 986.216 575.857 965.48 575 955L576 955L586 968L583 941L584 941L585 944C589.423 941.116 589.716 938.026 590 933L594 934L593 917L597 916L600 918C599.622 914.233 596.692 909.675 597.409 906.016C598.603 899.927 610.458 893.801 616 894L615 891C617.301 894.412 614.729 896.72 613 900C619.609 901.895 622.499 898.911 625 893C631.313 900.791 636.306 910.036 638 920L640 920L640 913L641 913L644 926L650 927L650 928C641.842 928.635 646.46 932.452 650 936C636.742 933.389 634.168 945.395 649 943L651 948C657.612 943.45 660.143 948.484 667 949C663.168 953.14 658.186 954.632 659 961C652.408 964.524 648.475 973.142 643.367 978.661C635.432 987.233 629.69 988.078 626 1000L635 997C632.483 999.981 628.65 1002.42 626.992 1006.02C625.645 1008.94 627.345 1012.78 625.307 1015.32C615.424 1027.6 597.334 1029.65 595 1048C601.783 1045.38 607.451 1040.33 614.576 1038.2C620.007 1036.58 626.56 1038 631.561 1035.05C641.837 1028.99 650.271 1017.8 658.742 1009.63C670.876 997.92 681 975.336 701 977C701 972.779 706.086 974.463 709 975C701.228 982.611 691.521 984.056 691 996L687 995C681.223 1007.15 671.499 1008.35 662.17 1015.72C655.231 1021.2 652.045 1028.4 646.701 1034.98C639.571 1043.77 633.142 1047.28 630 1059C635.701 1058.84 644.867 1056.08 649 1060L650 1057L654 1057L646 1073L665.811 1059.96L674 1049L672 1060L675 1056L676 1056C674.543 1060.92 670.461 1062.91 666 1065L671 1076C675.841 1065.26 685.135 1066.5 693 1059L688 1078L696 1074L697 1074L700 1080L756 1080L756 1043L767 1056L768 1049L769 1049L771 1061L768 1061L771 1063L768 1080C772.627 1079.19 772.453 1076.16 773 1072L774 1072L774 1078C778.406 1075.7 779.732 1071.63 781 1067C786.285 1069.52 790.14 1074.48 792 1080C800.999 1080 810.011 1079.78 819 1079.78C822.679 1079.78 827.056 1081.4 828 1077C833.749 1081.14 855.43 1083.34 860 1077L861 1080L873 1080L878 1064L882 1067L881 1060L879 1060L877 1064L878 1053L880 1057C887.853 1051.26 896.968 1042.82 891 1033L898 1026L899 1026L901 1042L903 1042L908 1037C909.457 1045.87 903.154 1048.61 900 1056L910 1056L915.737 1045.17L918 1027L918 1031L923 1028L924 1032L928 1032L928 1027L929 1032C931.887 1034.8 934.707 1040.09 938 1035C944.632 1040.57 929.303 1056.64 944 1061L940 1072C935.672 1071.33 933.581 1071.71 932 1076C949.327 1078.56 943.543 1062.34 943.514 1053C943.497 1047.61 947.556 1043.33 947.945 1038C948.443 1031.18 944.96 1025.61 945 1019L946 1019L949 1025C953.805 1026.19 953.697 1029.76 955 1034L959 1029C959 1031.68 958.875 1034.34 959.444 1036.97C959.975 1039.43 959.091 1041.7 959.556 1043.97C960.582 1049 966.142 1045.88 967.583 1042.97C970.583 1036.91 967.98 1019.21 974 1017L974 1030C982.485 1025.29 979.865 1018.08 976 1011L984 999L984 1015L998 1016L996 1024L1000 1024L984 1052L987 1053L988 1050L989 1050L986 1056L991 1056L997.534 1063.87L999 1073L1002 1069L1004 1069C1006.35 1073.26 1009.67 1073.38 1013 1070L1014 1070L1018 1073L1018 1057C1022.36 1061.24 1024.15 1060.97 1030 1060L1024 1045C1028.76 1047.59 1033.41 1044.12 1036.7 1045.92C1042.51 1049.1 1038.01 1058.48 1038.86 1063C1039.45 1066.2 1042.11 1068.8 1043 1072C1038.57 1071.06 1035.23 1071.92 1033 1076L1036 1080L1049 1080L1049.95 1055.01L1047 1045C1055.67 1051.71 1050.14 1070.76 1065 1067C1064.92 1072.07 1068.56 1074.26 1073 1076L1071 1079L1071 1080L1078 1078C1081.5 1082 1092.82 1079.91 1098 1080L1098 1071C1104.97 1075.03 1103.37 1079.99 1113 1080L1111 1075L1114 1080L1116 1080C1115.75 1068.21 1104.49 1060.76 1095.82 1053.95C1090.3 1049.61 1083.14 1043.82 1087 1036L1087 1035C1085.59 1031.96 1082.62 1026.74 1082.64 1023.44C1082.68 1012.52 1098.16 1012.66 1105 1013L1105 1012L1103 1012L1103 1011C1107.59 1009.52 1115.66 997.704 1117 993C1122.7 998.531 1121.38 1009.63 1130 1012L1128 1008L1128 1007L1131 1005L1134 1014C1137.74 1012.9 1137.58 1010.49 1135 1008L1135 1007C1138.32 1002.52 1136.4 989.99 1131 988L1134 977L1131 977L1131 970C1140.75 981.495 1153.57 986.924 1153 1004C1158.73 1006.06 1158.46 1010.15 1161.12 1014.91C1165.38 1022.5 1170.48 1027.44 1173 1036C1177.97 1031.13 1175.21 1026.11 1172 1021C1179.03 1015.92 1166.57 1001.67 1169 993L1170 993C1170.3 996.794 1171.26 998.16 1175 999L1175 990L1190 1000L1195 995C1194.54 1001.88 1196.48 1006.82 1203 1010L1206 1007C1207.1 1010.32 1208.59 1010.74 1212 1011C1213.15 1014.97 1214.94 1016.37 1219 1017C1218.24 1011.21 1209.34 1000.31 1216 997L1225.59 1016L1236 1060L1240 1060L1238 1036L1240 1036L1244 1043L1244 1044L1243 1050L1244 1050L1244 1044L1247 1044L1247 1029L1248 1029L1252 1033L1253.03 1021.32L1263.68 1016.54L1273 1005L1273 1012C1278.37 1011.59 1280.19 1008.84 1282 1004L1284 1004L1288 1011C1293.5 1006.97 1287.67 1003.35 1283 1003L1273 968L1274 968C1275.71 971.447 1282.5 984.659 1287 981L1288 981L1285 988L1289 989L1291 985L1297 990L1300 983L1301 983L1303 988L1308 985L1314 994L1323 994L1323 993C1320.81 989.959 1320.94 986.326 1318.97 983.429C1316.88 980.341 1312.76 980.277 1311.47 976.266C1308.96 968.459 1310.9 952.252 1303 948L1306 937L1305 937L1304 940L1302 940L1301 933L1306 932L1312 958L1318 955L1322 958L1321 966L1328 970L1327 967L1334 966C1334.56 968.965 1334.43 973.027 1336.78 975.253C1340.1 978.393 1342.52 975.37 1342 972L1343 971L1348 972L1349 963L1350 963L1352 968L1359 965L1363 968L1364 959C1371.74 962.278 1382.42 959.687 1387 968L1392 966L1390 959L1405 958L1416 950C1410.03 950 1406 934.299 1406 929L1411 934L1412 934L1426 915L1434 921L1436 921L1437 918L1439 918C1444.19 926.229 1455.06 915.273 1444 914L1445 908L1448 909L1449 905L1452 908L1453 908L1456 903L1446 904C1448.02 897.087 1441.37 896.848 1439 891L1446 896L1449 896C1452.66 891.689 1455.87 892.653 1461 892C1460.03 887.926 1458.77 881.956 1461.6 878.343C1465.58 873.272 1474.57 871.223 1471 863L1487 864C1486.13 857.355 1488.69 851.919 1496 854L1496 847L1504 848L1503 845L1507 846L1500 835L1504 837L1505 837C1511.62 831.261 1519.88 831.756 1520 821L1516 823L1518 820L1518 819L1512 813L1516 815L1517 815L1521 812C1519.49 808.317 1518.15 806.261 1514 807L1519 804L1516 802L1516 797L1520 796L1520 795C1515.07 792.648 1512.97 787.979 1508.61 785.434C1502.88 782.085 1485.73 781.91 1479 782.182C1465.46 782.729 1450.52 791.337 1439 784L1439 782L1440 781C1445.42 782.291 1460.4 778.253 1451 772L1451 771C1457.97 769.705 1479.73 768.667 1481 761L1484 763C1493.54 757.887 1506.59 767.53 1513 756L1519 758L1520 755L1516 754C1515.73 748.005 1508.85 746.193 1504 744L1512 740L1503 729L1521.49 725.181L1531 717.603L1555 716L1555 715C1543.95 709.969 1536.6 700.008 1524 700L1524 699C1528.7 698.983 1531.88 699.13 1533 694L1535 695L1536 691L1532 693L1531 693L1524 684L1529 681C1522.35 680.904 1514.4 679.935 1518 672L1519 672L1539 679L1538 681C1544.85 686.087 1553.94 698.096 1557 706C1564.4 706.02 1570.64 710.336 1575 716L1583 714L1582 711L1584 713L1587 714L1588 714L1595 704L1591 694L1595 696C1597.08 684.654 1590.45 679.498 1585.78 670C1580.86 659.984 1579.8 648.567 1573.96 639C1568.55 630.148 1558.77 623.598 1555 614L1560 612L1560 611L1547 599L1551 598L1546 584L1546 583L1555 588L1551 577L1555 580L1556 580L1551 572L1551 571L1564 576C1569.87 570.58 1578.51 581.393 1586 580C1585.29 577.316 1583.22 574.518 1583.33 571.714C1583.51 567.12 1589.29 562.052 1583 560L1587 538L1582 537C1589.52 527.084 1576.18 520.674 1567 522L1568 515L1557 504L1557 503L1563 498L1559 492L1559 491L1561 489L1557 488L1557 487L1574 480C1577.88 487.495 1589.34 487.238 1597 488C1596.79 484.096 1596.39 480.926 1592 481C1592.65 472.609 1601.28 473.374 1608 472L1608 469C1612.99 468.169 1613.79 464.5 1615 460L1613 457L1617 456C1613.05 448.261 1607.17 438.604 1619 436L1618 411L1603 413L1600 416C1605.02 399.281 1579.67 414.873 1584 395L1577 392L1579 388L1581 390L1579 373L1586 376C1585.4 372.127 1583.31 367.957 1579 370L1578 370L1575 368C1579.27 361.859 1576.12 354.534 1572 349L1566 352L1578.17 334.059L1597.29 326.545L1606.65 324.431L1610 315L1614 318L1619 309L1615 310C1617.76 305.396 1619.32 302.822 1625 304L1626 299C1636.98 298.431 1637.68 290.781 1645 285L1649 268L1648 268L1645 278L1644 278L1640 277L1639 272C1645.36 272.232 1644.73 266.972 1645 262L1640 263L1641 258L1629 248L1634 241L1601 244L1605 238L1606 241L1614 238L1603 229L1603 232L1595 227L1564 234.641L1553 238C1546.59 234.169 1530.84 237.593 1524 240L1523 236C1514.29 237.683 1489.37 231.952 1486 240L1465 240L1472 231L1452 232L1458 223C1451.06 220.214 1442.64 224.443 1436 227L1438 221C1433.23 222.624 1427.03 226.948 1422 226.906C1418.52 226.877 1415.44 224.005 1412 223.395C1402.01 221.623 1383.53 224.549 1378 233L1380 222L1379 222L1379 225C1369.98 214.37 1388 204.125 1391 196L1404 183L1417.39 159.004L1421.22 135L1437.11 110L1442 91C1438.61 91.0001 1431.04 70.5807 1423 83L1422 83C1415.62 77.4653 1408.27 89.0829 1404.19 93.1952C1389.91 107.597 1376.27 114.128 1368 134L1366 134L1364 130L1363 130L1356 146C1352.14 140.209 1347.73 145.995 1343 148L1345 142C1341.7 141.492 1340.74 142.162 1339 145L1335 141L1333 145C1332.72 140.632 1330.84 136.086 1330.81 131.961C1330.79 128.346 1333.14 124.768 1332.51 121.113C1331.67 116.191 1327.92 119.053 1327 122L1308 123C1305.17 127.636 1303.48 127.8 1299 125L1298 130L1293 131L1290 129L1289 144L1284 143L1283 147C1278.72 146.392 1276.83 148.207 1275 152L1265 148L1269 137C1266.46 136.673 1266.46 135.811 1268 134L1268 133L1257 140C1259.21 129.654 1251.41 130.967 1245 135C1241.61 124.277 1234.45 123.793 1224 123L1214 133L1213 133L1206 127L1189 133C1191.29 141.509 1192.48 148.954 1192.27 157.887C1192.16 162.561 1186.13 161.033 1184 159C1180.91 161.734 1175.94 170.61 1172 165L1158 176C1158.69 171.315 1161.03 160.141 1153 167L1157 151L1144 156L1143 160L1140 159L1137 179L1136 179L1127 174C1129.76 166.225 1140.38 154.3 1132 146L1118 168L1121 143L1117 151L1116 151C1118.06 137.02 1120.69 114.312 1138 112L1142 101L1139 97L1144 96L1148 88L1143 84C1143.61 79.8649 1143.02 77.5788 1139 76L1141 71L1138 71L1138 72C1138.94 77.6107 1130.91 83.3713 1132 79L1125 84L1126 75L1122 78L1121 78L1119 68L1129 51C1121.39 47.3436 1126.41 43.2031 1128 37C1116.55 35.8999 1122.03 20.5857 1112 19L1109 24L1110 13L1104 16L1105 9L1104 9L1099 15L1099 2L1081 16L1081 15L1083 8L1078 7L1077 13L1067 14L1068 11L1064 5L1061 14L1059 14L1060 7L1055 0L1043 0L1040 8L1040 0L1001 0L1001 19L1000 19L996 0L995 0C994.568 10.0682 996.782 25.606 988 32L990 0L985 0L985 6C966.217 6.20959 976.964 19.8322 971.691 30.9607C968.711 37.2499 960.597 38.4832 960 46L955 44L956 37L954 37L952 46L949 45L947 49L947 27L932 40L933 31L926 44L926 37L921 46L917 34C912.413 35.5186 908.958 36.813 908 31L902 35L886 25C891.575 25.0847 897.084 18.4158 897 13C892.891 14.6315 891.311 13.8258 888 11L887 11C877.466 17.6193 879 25.3447 879 36C865.043 32.248 873.633 25.7703 874 17L872 17L868 24L861 24L858 20C856.614 24.5631 854.395 23.1251 851 21L849 28L848 28C847.617 16.3284 836.757 23.917 830 26L827 23L826 28L832 41L815.343 27.696L809 15C805.862 17.8441 803.888 17.1716 800 16L799 22L802 23L803 23L805 21L805 26C795.467 21.4425 796.772 29.0909 796 36L794 36C791.567 31.3529 788.491 27.9884 783 29L787 48L786 48L781 29C773.402 29.0897 769.928 33.8875 764 38L762 33L766 35L765 29L764 29L755 51L754 51L746 45L742 52L738 42L732 46C731.213 42.3086 727.483 41.5415 724 41L730 56L721 56L726 52C723.875 47.4623 721.157 44.8384 716 45C716.064 47.9935 715.946 49.3457 719 50L719 62C711.025 60.5544 710.066 55.8748 708 49L707 52L701 50L699 56L695 55L693 65L692 65L688 46C682.849 40.0826 686.887 35.4778 688.331 29C690.39 19.7646 691.25 9.41919 692 0L646 0C640.657 0 631.271 -1.81372 626.43 0.603394C622.135 2.7478 621.163 13.5885 618.486 17.6752C602.789 41.6362 595.489 71.5185 602 100z"/>
<path style="fill:#fcfcfc; stroke:none;" d="M692 0C690.711 9.97913 690.698 21.4271 687.522 31C685.824 36.1174 682.676 41.9517 688 46C686.541 52.7144 689.286 58.9072 692 65L693 65L695 55L699 56L701 50C704.321 51.8354 705.81 52.3113 708 49C709.204 56.3085 710.887 61.1629 719 62L719 50L716 45C720.931 45.1494 723.287 48.1276 726 52L721 56L730 56L724 41L732 46L738 42L742 52C745.687 50.7775 745.88 48.6915 746 45L754 51L755 51L758.732 36.0934L764 29L765 29L766 35L762 33L764 38L781 29L786 48L787 48C788.33 41.6163 785.731 34.7135 783 29C788.298 28.8076 790.93 32.0072 794 36L796 36C797.477 29.1851 795.33 22.5873 805 26L805 21L803 23L802 23L799 22L800 16C803.738 17.5754 806.406 18.5791 809 15C815.653 25.5883 818.97 35.9385 832 41C831.21 36.3497 830.193 30.5629 826 28L827 23L830 26C836.746 24.3655 847.154 16.9072 848 28L849 28L851 21C854.296 23.6378 857.106 25.08 858 20L861 24L868 24L872 17L874 17C873.124 25.123 864.249 33.7598 879 36C879 24.6562 878.68 19.1586 887 11L888 11C890.925 14.7924 892.887 15.6514 897 13C895.801 18.316 891.394 23.7428 886 25L902 35L908 31C908.509 37.3763 912.246 36.3483 917 34L921 46L926 37L926 44L933 31L932 40L947 27C945.219 33.0811 944.798 43.0653 947 49L949 45L952 46L954 37L956 37L955 44L960 46C961.118 39.1239 968.71 37.7271 971.796 31.9252C977.526 21.1554 966.149 6.55762 985 6L985 0L890 0L894 12C890.167 8.58301 888.281 5.14331 888 0L692 0z"/>
<path style="fill:#040404; stroke:none;" d="M888 0C888.126 5.20581 889.335 9.24683 894 12L890 0L888 0z"/>
<path style="fill:#fcfcfc; stroke:none;" d="M990 0L990.815 14L988 32C997.06 27.6335 994.814 9.00903 995 0L990 0M996 0L1000 19L1001 19L1001 0L996 0M1040 0L1040 8L1043 0L1040 0M1060 7L1059 14L1061 14L1064 5L1068 11L1067 13L1067 14L1077 13L1078 7L1083 8L1081 15L1081 16L1099 2L1099 15L1104 9L1105 9L1104 16L1110 13L1109 24C1111.97 23.1342 1112.29 22.0082 1112 19C1121.17 21.6199 1116.67 37.96 1128 37C1125.52 42.9805 1120.56 48.1993 1129 51L1119 68L1121 78L1122 78L1126 75L1125 84L1132 79C1132.89 84.4734 1138.86 75.2586 1138 71L1141 71L1141 72L1139 76C1142.45 78.082 1143.11 80.0269 1143 84L1148 88C1144.23 89.9153 1143.54 91.8593 1144 96L1139 97L1142 101L1138 112C1120.67 113.163 1117.21 137.149 1116 151L1117 151L1121 143L1118 168C1126.8 162.691 1128.45 155.032 1132 146C1139.27 156.753 1129.02 164.472 1127 174L1136 179L1137 179L1140 159L1143 160L1144 156C1149.47 156.552 1152.97 154.582 1157 151L1153 167C1160.96 162.065 1158.43 171.079 1158 176L1172 165C1173.79 173.359 1181.97 161.406 1184 159C1185.46 161.698 1192.19 163.449 1192.86 158.917C1193.31 155.893 1190.77 153.797 1190.39 151C1189.92 147.59 1193.26 145.27 1193.28 142C1193.3 138.789 1190.06 135.923 1189 133L1206 127L1213 133L1214 133L1224 123C1234.68 125.354 1240.25 124.093 1245 135C1251.53 132.286 1258.32 129.944 1257 140L1268 133L1268 134C1265.49 135.476 1266.4 137.013 1269 137L1265 148L1275 152L1283 147L1284 143L1289 144L1290 129L1293 131L1298 130L1299 125C1303.26 128.397 1305.85 128.224 1308 123L1327 122C1328.12 119.691 1331.13 116.668 1332.15 121.128C1332.98 124.777 1330.56 128.368 1330.47 131.961C1330.36 135.905 1332.53 140.854 1333 145L1335 141L1339 145L1345 142L1343 148C1348.28 146.619 1351.44 141.011 1356 146L1363 130L1364 130L1366 134L1368 134C1372.27 126.679 1375.38 118.417 1381.3 112.171C1388.02 105.078 1397.26 100.895 1404.19 93.9962C1408.48 89.7338 1415.18 78.5971 1422 83L1423 83C1434.02 74.2396 1435.06 89.8732 1442 91L1437.41 108L1421.96 132L1417.33 158L1404 183L1391 196C1387.89 201.521 1368.34 217.799 1379 225L1379 222L1380 222L1378 233C1384.67 225.722 1400.82 222.305 1411 223.483C1414.91 223.935 1418.09 227.388 1422 227.402C1426.89 227.419 1433.61 223.08 1438 221L1436 227C1443.09 225.066 1450.67 220.61 1458 223L1452 232L1472 231L1465 240L1486 240C1491.06 231.999 1513.78 238.385 1523 236L1524 240C1532.31 238.135 1544.82 234.807 1553 238L1595 227L1603 232L1603 229L1614 238L1606 241L1605 238L1601 244L1634 241L1629 248L1641 258L1640 263L1645 262C1644.46 266.628 1644.85 271.818 1639 272L1640 277L1644 278L1645 278L1648 268L1649 268L1645 285C1637.09 289.139 1636.74 297.9 1626 299L1625 304C1619.23 302.348 1617.19 304.839 1615 310L1619 309L1614 318L1610 315L1605.78 324.417L1597.25 325.998L1577.3 333.985L1566 352L1572 349C1575.38 355.411 1578.54 360.895 1575 368L1578 370L1579 370C1583.18 369.001 1584.95 372.273 1586 376L1579 373L1581 390L1579 388L1577 392L1584 395C1577.96 415.096 1602.86 399.461 1600 416L1603 413L1618 411L1619 436C1606.97 437.678 1612.08 448.784 1617 456L1613 457L1615 460C1613.42 464.201 1612.56 467.621 1608 469L1608 472C1600.86 472.85 1592.29 472.213 1592 481L1595 480L1597 488C1588.52 486.224 1579.65 487.364 1574 480L1557 487L1557 488L1561 489L1559 491L1559 492L1563 498L1557 503L1557 504L1568 515L1567 522C1576.21 522.312 1587.93 526.389 1582 537L1587 538L1583 560C1588.18 562.962 1583.1 567.299 1583.06 572C1583.04 574.854 1584.92 577.453 1586 580C1579.49 580.538 1568.56 569.977 1564 576L1551 571L1551 572L1556 580L1555 580L1551 577L1555 588L1546 583L1546 584L1551 598L1547 599C1548.66 604.857 1554.65 608.566 1560 611L1560 612L1555 614C1557.43 623.295 1567.12 630.233 1572.63 638C1578.31 646.021 1579 655.192 1582.58 664C1587.2 675.355 1596.51 683.191 1595 696L1591 694L1595 704C1590.89 706.066 1588.16 709.349 1588 714L1587 714L1582 711L1583 714L1575 716C1571.59 709.493 1564.37 705.576 1557 706C1555.27 698.719 1544.79 684.339 1538 681L1539 679L1519 672L1518 672C1513.33 680.023 1522.46 681.344 1529 681L1524 684L1531 693L1532 693L1536 691L1535 695L1533 694C1531.31 698.596 1528.6 698.945 1524 699L1524 700C1536.65 700.036 1543.46 711.409 1555 715L1555 716L1530 717.603L1521.49 724.696L1503 729L1512 740C1507.93 739.482 1505.92 740.35 1504 744C1508.31 746.723 1515.32 748.331 1516 754L1519 758L1513 756C1504.06 766.95 1493.35 755.885 1484 763L1481 761C1478.7 768.507 1458.24 769.276 1451 771L1451 772C1458.24 780.195 1445.75 782.066 1440 781L1439 782L1439 784C1449.17 793.332 1469.6 781.935 1483 782.376C1488.95 782.571 1502.68 782.726 1507.79 785.438C1512.7 788.042 1514.13 793.119 1520 795L1520 796L1516 797L1516 802L1519 804L1514 807C1517.9 806.998 1519.09 808.756 1521 812L1517 815L1516 815L1512 813C1512.82 816.822 1514.18 818.185 1518 819L1518 820L1516 823L1520 821C1519.21 831.941 1510.54 830.193 1505 837L1504 837L1500 835L1507 846L1503 845L1504 848L1496 847L1496 854C1488.52 851.252 1485.1 857.19 1487 864L1471 863C1473.12 872.002 1464.7 872.456 1461.03 878.343C1458.8 881.916 1459.89 888.241 1461 892C1455.8 891.916 1451.88 890.816 1449 896L1446 896L1439 891L1446 904L1456 903L1453 908L1452 908L1449 905L1448 909L1445 908L1444 914C1453.27 915.939 1445.08 924.307 1439 918L1437 918L1436 921L1434 921L1426 915L1412 934L1411 934L1406 929C1405.62 935.076 1408.75 948.883 1416 950C1412.04 953.688 1406.14 951.351 1405 958L1390 959L1392 966L1387 968C1383.98 959.603 1371.38 961.301 1364 959L1363 968L1359 965L1352 968L1350 963L1349 963L1348 972L1343 971L1342 972C1341.51 982.575 1334.98 969.325 1334 966L1327 967L1328 970L1321 966L1322 958L1318 955L1312 958L1306 932L1301 933L1302 940L1304 940L1305 937L1306 937L1303 948C1309.46 953.249 1306.58 959.103 1308.7 966C1309.79 969.538 1310.18 975.776 1312.19 978.698C1313.92 981.215 1317.35 981.583 1318.97 984.228C1320.89 987.364 1320.19 990.245 1323 993L1323 994L1314 994L1308 985L1303 988L1301 983L1300 983L1297 990L1291 985L1289 989L1285 988L1288 981L1287 981C1281.25 981.55 1276.96 972.167 1274 968L1273 968L1283 1003C1287.73 1003.73 1291.78 1006.53 1288 1011L1284 1004L1282 1004C1279.72 1008.26 1277.99 1011.21 1273 1012L1273 1005L1264.4 1015.34L1254.32 1019.07L1252 1033L1248 1029L1247 1029L1247 1044L1244 1044L1244 1050L1243 1050L1244 1044L1244 1043L1240 1036L1238 1036L1240 1060L1236 1060L1231.38 1043L1225.22 1014L1216 997C1208.55 999.189 1217.86 1011.9 1219 1017L1212 1011L1206 1007L1203 1010C1197.54 1005.98 1194.93 1001.79 1195 995L1190 1000L1175 990L1175 999C1171.57 997.73 1170.52 996.663 1170 993L1169 993C1165.22 1003.1 1178.68 1013.84 1172 1021C1174.6 1026.99 1177.26 1030.07 1173 1036C1171.44 1026.59 1165.48 1021.92 1161.12 1013.96C1158.57 1009.29 1158.92 1005.26 1153 1004C1154.67 988.069 1141.95 979.173 1131 970L1131 977L1134 977L1131 988C1136.22 990.996 1137.45 1001.78 1135 1007L1135 1008C1137.07 1010.87 1137.33 1012.33 1134 1014L1131 1005L1128 1007L1128 1008L1130 1012L1117 993L1103 1011L1103 1012L1105 1012L1105 1013C1090.27 1010.77 1076.02 1019.87 1087 1035L1087 1036C1083.3 1039.79 1087.21 1047.51 1090.44 1050.61C1099.52 1059.3 1115.37 1066.28 1116 1080L1920 1080L1920 0L1300 0L1120 0L1075 0C1070.14 0 1060.8 -1.80371 1056.49 0.602539C1052.47 2.84363 1058.02 6.25818 1060 7z"/>
<path style="fill:#040404; stroke:none;" d="M1071 5L1070 10L1073 9L1071 5M832.667 7.33337L833.333 7.66663L832.667 7.33337M1085 7L1085 8L1088 8L1085 7z"/>
<path style="fill:#fcfcfc; stroke:none;" d="M981 9L980 14L983 9L981 9M1092.67 11.3334L1093.33 11.6666L1092.67 11.3334z"/>
<path style="fill:#040404; stroke:none;" d="M837 16L844 16L844 14C840.505 12.4117 838.331 12.0299 837 16M834.667 13.3334L835.333 13.6666L834.667 13.3334z"/>
<path style="fill:#fcfcfc; stroke:none;" d="M1040 13L1041 14L1040 13z"/>
<path style="fill:#040404; stroke:none;" d="M805 15L805 17L807 17L807 15L805 15M850.667 15.3334L851.333 15.6666L850.667 15.3334z"/>
<path style="fill:#fcfcfc; stroke:none;" d="M886 16L886 19L887 19L886 16M1076 17L1076 20L1078 20L1078 17L1076 17M888.667 19.3334L889.333 19.6666L888.667 19.3334M980 21L980 24L982 24L982 21L980 21z"/>
<path style="fill:#040404; stroke:none;" d="M691 23L690 26L691 26L692 26L691 23z"/>
<path style="fill:#fcfcfc; stroke:none;" d="M1115 23L1116 24L1115 23z"/>
<path style="fill:#040404; stroke:none;" d="M1120 25L1120 28L1123 29L1123 24L1120 25M755 27L755 31L756 31L757 27L755 27M793 27L794 28L793 27z"/>
<path style="fill:#fcfcfc; stroke:none;" d="M976.333 27.6666L976.667 28.3334L976.333 27.6666M998 34L1002 27L998 34z"/>
<path style="fill:#040404; stroke:none;" d="M876 28L876 32L878 32L878 28L876 28z"/>
<path style="fill:#fcfcfc; stroke:none;" d="M1112 29L1112 33L1113 33L1112 29M853 31L854 32L853 31M775 33L774 36L771 35L771 40L772 40L777 33L775 33M788 33L788 36L790 36L790 33L788 33M977 33L978 34L977 33M879 41L880 45L881 45L882 41L879 41z"/>
<path style="fill:#040404; stroke:none;" d="M752.667 47.3334L753.333 47.6666L752.667 47.3334z"/>
<path style="fill:#fcfcfc; stroke:none;" d="M921 49L922 50L921 49z"/>
<path style="fill:#040404; stroke:none;" d="M691 55L692 56L691 55z"/>
<path style="fill:#fcfcfc; stroke:none;" d="M700 55L704 61L700 55M748 55L749 56L748 55M697 60C695.906 65.3387 698.283 69.2731 704 68L699 60L697 60M706 63L706 66L708 66L708 63L706 63z"/>
<path style="fill:#040404; stroke:none;" d="M1144 65L1143 68L1146 69L1147 65L1144 65z"/>
<path style="fill:#fcfcfc; stroke:none;" d="M697 69L697 72L698 72L697 69z"/>
<path style="fill:#040404; stroke:none;" d="M1143 70C1143.85 80.5988 1152.75 86.2885 1157 74L1153 78L1150 78L1143 70z"/>
<path style="fill:#fcfcfc; stroke:none;" d="M702 73C701.629 76.674 701.912 78.8282 705 81L704 73L702 73z"/>
<path style="fill:#040404; stroke:none;" d="M1151 73L1152 74L1151 73M1132 75L1132 76L1136 76L1132 75M592 85L592 88L593 88L592 85M506.667 107.333L507.333 107.667L506.667 107.333M503 113L502 116L503 113z"/>
<path style="fill:#fcfcfc; stroke:none;" d="M695 121L692 119L691 132L696 130L693 142L694 139L698 140L698 137L699 137L700 137L698 146L693 145L694 155L697 153L696 160L701 159L702 162L718 167L716 172L741 178C741.266 183.563 749.426 185.754 754 188L752 177L762 176L758 169C766.225 168.237 770.459 176.822 777.945 178.069C781.303 178.628 782.47 175.45 783.685 172.985C787.837 164.56 785.839 160.61 784 152C782.205 155.492 781.163 160.745 776.896 162.088C769.922 164.283 763.688 157.302 758 154.708C739.17 146.124 722.257 138.855 709.161 122.371C704.262 116.204 697.577 111.589 695 121M1115 119L1115 120L1120 120L1115 119z"/>
<path style="fill:#040404; stroke:none;" d="M577.333 126.667L577.667 127.333L577.333 126.667M554 127L555 128L554 127M556 127L557 128L556 127M1291 127L1292 128L1291 127z"/>
<path style="fill:#fcfcfc; stroke:none;" d="M564 129L564 132L565 132L564 129M555 133L556 134L555 133M1253 135L1254 136L1253 135M1265 137L1266 138L1265 137M483 141L482 146L485 141L483 141M1193 144L1194 145L1193 144M1099 147L1100 148L1099 147z"/>
<path style="fill:#040404; stroke:none;" d="M1121 156C1125.88 155.161 1127.19 151.559 1128 147L1121 156z"/>
<path style="fill:#fcfcfc; stroke:none;" d="M1196.33 148.667L1196.67 149.333L1196.33 148.667M1356 148L1356 152L1357 152L1356 148z"/>
<path style="fill:#040404; stroke:none;" d="M694.667 149.333L695.333 149.667L694.667 149.333M695 151L696 152L695 151z"/>
<path style="fill:#fcfcfc; stroke:none;" d="M1197 151L1198 152L1197 151M477 152L477 154L479 152L477 152M1275.33 152.667L1275.67 153.333L1275.33 152.667M1116.67 159.333L1117.33 159.667L1116.67 159.333M698 165L698 172L708 176C708.506 178.974 708.961 179.856 712 180L716 185L712 180L714 176L714 175L708 174L702 170L698 165M1105 173L1110 166C1106.29 167.487 1104.39 168.876 1105 173z"/>
<path style="fill:#040404; stroke:none;" d="M480 175L481 176L480 175z"/>
<path style="fill:#fcfcfc; stroke:none;" d="M1403 175L1404 176L1403 175z"/>
<path style="fill:#040404; stroke:none;" d="M481.667 177.333L482.333 177.667L481.667 177.333M746 179L747 180L746 179z"/>
<path style="fill:#fcfcfc; stroke:none;" d="M1099.67 179.333L1100.33 179.667L1099.67 179.333M1113 179C1111.98 181.899 1111.77 183.308 1115 184L1113 179z"/>
<path style="fill:#040404; stroke:none;" d="M376 183L377 184L376 183z"/>
<path style="fill:#fcfcfc; stroke:none;" d="M717 187L717 188L720 189L717 187M725 187L729 194L725 187M412.333 189.667L412.667 190.333L412.333 189.667M478 191L478 193L480 191L478 191M412 192L413 193L412 192M364 193L365 194L364 193M364.667 195.333L365.333 195.667L364.667 195.333z"/>
<path style="fill:#040404; stroke:none;" d="M356 196L356 198L358 198L356 196z"/>
<path style="fill:#fcfcfc; stroke:none;" d="M728 196L729 200L730 200L728 196z"/>
<path style="fill:#040404; stroke:none;" d="M473 199L473 202L474 202L473 199z"/>
<path style="fill:#fcfcfc; stroke:none;" d="M479 205L479 211L480 211L479 205z"/>
<path style="fill:#040404; stroke:none;" d="M353 209L354 210L353 209z"/>
<path style="fill:#fcfcfc; stroke:none;" d="M1373 217L1373 220L1374 220L1373 217z"/>
<path style="fill:#040404; stroke:none;" d="M1613 217L1615 220L1613 217z"/>
<path style="fill:#fcfcfc; stroke:none;" d="M335 221L335 224L338 224L338 221L335 221M454 221L458 228L454 221M450 223L451 224L450 223M1435 227L1436 228L1435 227z"/>
<path style="fill:#040404; stroke:none;" d="M1597 227L1597 228L1600 228L1597 227z"/>
<path style="fill:#fcfcfc; stroke:none;" d="M474 233L478 236L477 232L474 233M455 235L456 236L455 235M456 237L458 239L456 237M466 238L466 241L467 241L466 238M1519 238L1518 240L1520 240L1519 238M333 251L334 252L333 251z"/>
<path style="fill:#040404; stroke:none;" d="M320.667 255.333L321.333 255.667L320.667 255.333M322 257L323 262L324 262L324 257L322 257z"/>
<path style="fill:#fcfcfc; stroke:none;" d="M336 257L343 264L336 257M1639 263L1641 268L1639 263z"/>
<path style="fill:#040404; stroke:none;" d="M1648 281L1649 283L1650 283L1651 281L1648 281M1646 292L1650 289L1646 292z"/>
<path style="fill:#fcfcfc; stroke:none;" d="M1634 291L1635 292L1634 291M330 301L331 302L330 301M1613.33 310.667L1613.67 311.333L1613.33 310.667z"/>
<path style="fill:#040404; stroke:none;" d="M1612 325L1615 323C1612.6 322.425 1612.51 322.525 1612 325z"/>
<path style="fill:#fcfcfc; stroke:none;" d="M309 332L308 325C302.905 326.696 304.165 331.16 309 332z"/>
<path style="fill:#040404; stroke:none;" d="M1608.67 325.333L1609.33 325.667L1608.67 325.333M293 338L294 339L293 338M287 347L292 341L287 347M290 350L291 351L290 350M1577.33 351.667L1577.67 352.333L1577.33 351.667M290 352L291 353L290 352z"/>
<path style="fill:#fcfcfc; stroke:none;" d="M284 375L284 376L287 376L284 375z"/>
<path style="fill:#040404; stroke:none;" d="M1581.67 391.333L1582.33 391.667L1581.67 391.333M268 394L268 395L274 397L273 392L268 394z"/>
<path style="fill:#fcfcfc; stroke:none;" d="M1582 401L1581 404L1582 401M1592 416L1595 416L1594 414L1592 416M370 425L370 428C372.006 426.873 372.006 426.127 370 425M378.667 427.333L379.333 427.667L378.667 427.333M388.667 431.333L389.333 431.667L388.667 431.333M278 435L273 439L273 443L274 443L274 440C277.829 439.696 279.173 438.795 280 435L278 435z"/>
<path style="fill:#040404; stroke:none;" d="M352 447L353 448L352 447z"/>
<path style="fill:#fcfcfc; stroke:none;" d="M339 467L339 468L342 468L339 467M332 472L335 469L332 472M1552 491L1552 492L1557 492L1552 491z"/>
<path style="fill:#040404; stroke:none;" d="M290 555L289 557L291 557L290 555z"/>
<path style="fill:#fcfcfc; stroke:none;" d="M314 571L315 572L314 571M319 575L320 576L319 575z"/>
<path style="fill:#040404; stroke:none;" d="M303 591L304 592L303 591M298 593L299 597L300 597L298 593z"/>
<path style="fill:#fcfcfc; stroke:none;" d="M1542 597L1545 600L1542 597z"/>
<path style="fill:#040404; stroke:none;" d="M1560 613L1562 616L1560 613z"/>
<path style="fill:#fcfcfc; stroke:none;" d="M298 618L298 620L300 620L300 618L298 618M308 637L308 640L309 640L308 637M292 639L293 640L292 639M298 655L299 656L298 655M277 667L278 668L277 667z"/>
<path style="fill:#040404; stroke:none;" d="M1538 691L1539 692L1538 691M1539.67 703.333L1540.33 703.667L1539.67 703.333z"/>
<path style="fill:#fcfcfc; stroke:none;" d="M216 717L216 720L217 720L216 717M306 721L312 726C311.339 722.186 309.741 721.43 306 721z"/>
<path style="fill:#040404; stroke:none;" d="M192 723L193 724L192 723M194.667 723.333L195.333 723.667L194.667 723.333z"/>
<path style="fill:#fcfcfc; stroke:none;" d="M314 723L315 724L314 723M317 725L317 732L324 732L320 725L317 725M1496 725L1495 728L1496 729L1499 728L1496 725M244 743L245 744L244 743M1459 759L1459 760L1462 760L1459 759M234 771L235 772L234 771M1424.67 771.333L1425.33 771.667L1424.67 771.333z"/>
<path style="fill:#040404; stroke:none;" d="M263 825L270 828L270 827L263 825M1521 826L1521 828L1523 828L1521 826M282 831L283 832L282 831z"/>
<path style="fill:#fcfcfc; stroke:none;" d="M305.333 834.667L305.667 835.333L305.333 834.667M303 867L304 868L303 867M298 871L299 872L298 871M296 873L294 876L296 873M596 880C595.369 884.198 598.373 894.649 602 897L605 892L596 880M338.667 883.333L339.333 883.667L338.667 883.333M349 895L347 900L349 895M596 897L596 900L598 900L598 897L596 897z"/>
<path style="fill:#040404; stroke:none;" d="M282.333 898.667L282.667 899.333L282.333 898.667M288 904L289 905L288 904M289 906L288 908L290 908L289 906z"/>
<path style="fill:#fcfcfc; stroke:none;" d="M1430.67 911.333L1431.33 911.667L1430.67 911.333M1417 912L1416 916L1412 915C1410.89 922.276 1419.87 919.051 1417 912M1434 915L1435 916L1434 915z"/>
<path style="fill:#040404; stroke:none;" d="M1451 915L1452 916L1451 915M594 919L595 920L594 919M640 921L641 922L640 921M1430 921L1428 928L1432 921L1430 921z"/>
<path style="fill:#fcfcfc; stroke:none;" d="M1401 923L1405 928L1401 923M587 926L587 932L588 932L587 926z"/>
<path style="fill:#040404; stroke:none;" d="M329 928L327 931L329 928z"/>
<path style="fill:#fcfcfc; stroke:none;" d="M348.667 931.333L349.333 931.667L348.667 931.333M1402 931L1403 934L1404 934L1402 931M658 938L657 940L659 940L658 938M1262 940L1264 942L1264 940L1262 940z"/>
<path style="fill:#040404; stroke:none;" d="M635 941L631 948C634.22 946.436 636.694 944.628 635 941M643 949L642 952C644.158 951.022 644.501 950.812 643 949M659 955L660 949C656.797 950.756 655.843 952.633 659 955z"/>
<path style="fill:#fcfcfc; stroke:none;" d="M1265 949L1266 956L1260 955C1262.75 960.508 1265.6 964.287 1272 965C1270.19 959.856 1270.63 950.851 1265 949M372 955L373 956L372 955M377 960L376 964L379 960L377 960M373 967L374 968L373 967M1341 967L1341 970L1342 970L1341 967M1283 970L1282 972L1284 972L1283 970M361 971L362 972L361 971M1239.67 971.333L1240.33 971.667L1239.67 971.333M491 975L492 976L491 975M664 975L657 985C660.741 983.1 664.613 979.471 664 975z"/>
<path style="fill:#040404; stroke:none;" d="M1344 977L1345 981L1346 981L1347 977L1344 977M359 978L358 982L359 982L359 978z"/>
<path style="fill:#fcfcfc; stroke:none;" d="M1169 979L1170 980L1169 979M1185 979L1185 980L1191 994C1191.71 990.942 1191.67 989.732 1189 988C1190.3 983.433 1189.62 980.698 1185 979M1299 979L1301 981L1301 979L1299 979z"/>
<path style="fill:#040404; stroke:none;" d="M1351 981L1350 984L1353 984L1351 981z"/>
<path style="fill:#fcfcfc; stroke:none;" d="M1205 987L1205 990L1206 990L1205 987M1269 987L1270 988L1269 987M647 996L650 992L654 989L647 996M979 989L978 992L981 992L979 989M1155 989L1158 992L1155 989M574 990L575 991L574 990M401 991L402 992L401 991M632 991L633 992L632 991M1204 991L1205 992L1204 991M1272 991L1273 992L1272 991z"/>
<path style="fill:#040404; stroke:none;" d="M1295 991L1296 992L1295 991M623 993L621 996C623.251 995.527 624.118 995.14 623 993M502 994L504 996L504 994L502 994z"/>
<path style="fill:#fcfcfc; stroke:none;" d="M1272 995L1272 1000L1276 995L1275 994L1272 995M1157 995L1156 998L1157 998L1157 995M1191 995L1192 996L1191 995M1265 997L1265 1000L1269 1001L1265 997M979 999L980 1000L979 999M976 1011C979.12 1019.31 981.873 1023.51 974 1030L974 1017C968.12 1018.67 969.906 1034.55 968.255 1040C964.825 1051.33 961.008 1043.02 959.787 1037C959.234 1034.27 959.009 1031.78 959 1029L955 1034C953.974 1029.75 954.264 1024.92 949 1025L946 1019L945 1019C944.077 1025.24 948.375 1030.58 947.944 1037C947.564 1042.68 943.342 1047.21 943.279 1053C943.169 1062.99 949.118 1076.51 932 1076C934.082 1072.37 935.889 1071.79 940 1072L944 1061C937.668 1057.88 936.402 1051.55 937.975 1045.01C938.991 1040.79 942.813 1037.79 938 1035C933.97 1038.81 932.513 1034.27 929 1032L928 1027L928 1032L924 1032L923 1028L918 1031L918 1027C912.765 1030.4 916.554 1039.41 915.431 1045C914.631 1048.98 911.623 1052.3 910 1056L900 1056C904.289 1049.2 910.013 1045.76 908 1037L903 1042L901 1042L899 1026L898 1026L891 1033C895.769 1043.78 887.264 1049.76 880 1057L878 1053L877 1064L879 1060L881 1060L882 1067L878 1064C876.451 1067.4 869.601 1075.55 873.746 1078.97C876.273 1081.06 881.954 1080 885 1080L916 1080L1036 1080L1033 1076C1035.87 1072.52 1038.52 1071.55 1043 1072C1042.47 1068.56 1040.26 1066.26 1039.46 1063C1038.38 1058.57 1042.46 1047.95 1036.7 1045.18C1033.65 1043.71 1028.48 1046.73 1024 1045L1030 1060L1018 1057L1018 1073L1014 1070L1013 1070C1009.13 1072.66 1007.08 1072.64 1004 1069L1002 1069L999 1073C996.803 1064.87 996.859 1062.78 991 1056L986 1056L989 1050L988 1050L987 1053L984 1052L1000 1024L996 1024L998 1016L984 1015L984 999L976 1011z"/>
<path style="fill:#040404; stroke:none;" d="M1188 1002L1187 1005L1188 1006L1191 1005L1188 1002M1138.67 1007.33L1139.33 1007.67L1138.67 1007.33z"/>
<path style="fill:#fcfcfc; stroke:none;" d="M635 1011L636 1012L635 1011z"/>
<path style="fill:#040404; stroke:none;" d="M427 1013L427 1016L428 1016L427 1013M1290 1013L1292 1016L1292 1013L1290 1013z"/>
<path style="fill:#fcfcfc; stroke:none;" d="M941 1015L942 1016L941 1015M953 1015L954 1016L953 1015z"/>
<path style="fill:#040404; stroke:none;" d="M1139 1015L1140 1016L1139 1015M1280 1015L1280 1016L1284 1016L1280 1015M1140 1017L1146 1022L1140 1017M1265 1020L1269 1019C1266.92 1017.36 1266.42 1017.82 1265 1020z"/>
<path style="fill:#fcfcfc; stroke:none;" d="M927 1019L927 1020L930 1020L927 1019z"/>
<path style="fill:#040404; stroke:none;" d="M1284 1019L1285 1020L1284 1019z"/>
<path style="fill:#fcfcfc; stroke:none;" d="M1243.67 1021.33L1244.33 1021.67L1243.67 1021.33z"/>
<path style="fill:#040404; stroke:none;" d="M1292 1021L1292 1024L1294 1024L1294 1021L1292 1021z"/>
<path style="fill:#fcfcfc; stroke:none;" d="M1237 1026L1238 1035L1239 1035L1237 1026M1246 1027L1247 1028L1246 1027M935 1029L934 1032L938 1032L935 1029M1076 1031L1076 1036L1077 1036L1079 1031L1076 1031z"/>
<path style="fill:#040404; stroke:none;" d="M424 1033L425 1034L424 1033M973 1037L974 1033C970.983 1033.81 970.262 1035.12 973 1037z"/>
<path style="fill:#fcfcfc; stroke:none;" d="M1084.33 1033.67L1084.67 1034.33L1084.33 1033.67M489 1035L490 1036L489 1035M963 1039L964 1040L963 1039z"/>
<path style="fill:#040404; stroke:none;" d="M1176.67 1039.33L1177.33 1039.67L1176.67 1039.33M612 1041L613 1042L612 1041z"/>
<path style="fill:#fcfcfc; stroke:none;" d="M964 1041L965 1042L964 1041M756 1043L756 1080L768 1080L771 1063L768 1061L771 1061L769 1049L768 1049L767 1056L756 1043M808 1043L809 1044L808 1043M862.667 1043.33L863.333 1043.67L862.667 1043.33z"/>
<path style="fill:#040404; stroke:none;" d="M586 1048L591 1048C589.172 1045.63 588.115 1046.07 586 1048z"/>
<path style="fill:#fcfcfc; stroke:none;" d="M816.667 1045.33L817.333 1045.67L816.667 1045.33M1047 1045L1049.57 1054.59L1049 1080L1073 1079L1073 1076L1065 1067C1048.96 1069.2 1057.49 1050.38 1047 1045M1066 1045L1067 1050L1068 1050L1066 1045M774 1051L772 1059L773 1059L777 1051L774 1051M1020 1051L1019 1054C1021.57 1053.45 1021.86 1052.86 1020 1051M788 1053L791 1057L791 1053L788 1053M1014 1055L1014 1056L1017 1057L1014 1055M1023.67 1055.33L1024.33 1055.67L1023.67 1055.33M486 1057L487 1058L486 1057z"/>
<path style="fill:#040404; stroke:none;" d="M912 1057L914 1060L912 1057z"/>
<path style="fill:#fcfcfc; stroke:none;" d="M813 1059L813 1066L814 1066L813 1059z"/>
<path style="fill:#040404; stroke:none;" d="M636 1060L636 1062L638 1060L636 1060z"/>
<path style="fill:#fcfcfc; stroke:none;" d="M772 1061L773 1062L772 1061M788 1061L789 1062L788 1061M1063 1064L1064 1065L1066 1062L1063 1064M1087 1062L1086 1064L1088 1064L1087 1062z"/>
<path style="fill:#040404; stroke:none;" d="M914 1063L915 1064L914 1063z"/>
<path style="fill:#fcfcfc; stroke:none;" d="M1010.67 1063.33L1011.33 1063.67L1010.67 1063.33M794.333 1064.67L794.667 1065.33L794.333 1064.67M861 1067L861 1068C863.993 1067.94 865.346 1068.05 866 1065L861 1067z"/>
<path style="fill:#040404; stroke:none;" d="M996 1065L997 1066L996 1065z"/>
<path style="fill:#fcfcfc; stroke:none;" d="M774.667 1067.33L775.333 1067.67L774.667 1067.33M781 1067L774 1078L774 1072L773 1072L772 1080L792 1080C790.826 1074.16 786.836 1068.67 781 1067M1013 1067L1014 1068L1013 1067M1079 1069L1078 1074C1081.08 1073.14 1081.52 1072.09 1081 1069L1079 1069M1088 1071L1088 1076L1089 1076L1090 1071L1088 1071M1098 1071L1098 1080L1104 1080L1101 1071L1098 1071M869 1073L868 1076L869 1073M862 1074L862 1077L864 1074L862 1074M703 1075L703 1076L706 1076L703 1075M794.667 1075.33L795.333 1075.67L794.667 1075.33M1111 1075L1113 1080L1114 1080L1114 1075L1111 1075M819 1077L820 1078L819 1077M828 1077L831 1080L828 1077M860 1077L859 1080L860 1077z"/>
<path style="fill:#040404; stroke:none;" d="M1070 1077L1071 1078L1070 1077z"/>
<path style="fill:#fcfcfc; stroke:none;" d="M1073 1077L1074 1078L1073 1077M1075 1080L1078 1078L1075 1080M748.667 1079.33L749.333 1079.67L748.667 1079.33M818.667 1079.33L819.333 1079.67L818.667 1079.33M1089 1079L1089 1080L1092 1080L1089 1079z"/>
</svg>
