<?xml version="1.0" standalone="yes"?>
<svg xmlns="http://www.w3.org/2000/svg" width="1920" height="1080">
<path style="fill:#fefefe; stroke:none;" d="M0 0L0 1080L1920 1080L1920 0L0 0z"/>
<path style="fill:#030303; stroke:none;" d="M630 83L630 86L629 86C623.294 83.0714 620.666 87.2922 620.105 93C619.521 98.9418 620.834 105.149 619.401 111C615.666 126.254 608.348 139.648 608 156L606 156L606 149L602 150L599 164L596 162L595 176L592 173L591 173L590 180L582 183L579 180C576.704 183.773 573.554 183.745 570.938 186.623C566.146 191.895 564.142 202.11 564 209C559.567 206.204 551.843 204.704 550 211L545 199L543 199L540 202C539.657 197.607 537.839 195.132 534 193L534 204L527 195L525 200L524 200L522 190L510 201L503 232L498 231L499 235L495 232L499 244L491 237C484.299 239.224 488.971 250.205 488 256L484 251L480 252L475 248L473 256C462.761 261.137 471.925 269.491 474 277L456 262L460 278L459 278C456.171 272.057 451.3 266.306 445 264L443 268L441 264L438 265L440 272L424 258L413 260L408 258C410.938 270.295 396.241 260.359 391 259C390.145 263.576 393.715 280.127 397 283L397 284C393.946 284.654 394.064 286.007 394 289L381 284L385 299L401 313L400 314L395 313L383 327L391 335L391 336L383 334L384 344C375.045 336.235 361.82 333.03 354 344L360 350L352.5 354L352 359L352 360C357.088 360.968 359.827 363.286 362 368L377 384C370.741 384.005 365.2 384.642 369 392L366 393L375 400L378 399L386 408L362 411L362 412C386.211 429.094 414.186 440.512 433 465C426.77 464.008 425.364 460.196 420.896 456.414C412.77 449.536 402.883 440.327 392 439L401 454L388 449L384 454L388 468L385 471L380 471L386 472L386 473C376.927 475.078 371.593 468.65 363 475L363 476L366 480L361 481C363.663 485.034 367.461 484.886 372 485C368.234 491.909 365.135 505.148 377 506L382 520C375.028 520.55 366.056 520.777 363 528C356.53 527.589 351.204 532.225 357.773 537.302C361.608 540.266 365.287 536.633 368.551 538.827C374.078 542.542 364.732 555.048 361 557L362 562L356 561L356 571L348 567L343 575L359.821 595L361 607L356 606C358.954 615.349 372.373 619.631 371 628C368.117 626.287 357.776 617.95 357 624L346 624L347 632L344 629L336 629L345 642L332 642L343 658L338 659L350 670L335 683C338.38 686.085 339.394 691.27 332.995 690.779C325.538 690.207 314.276 679.297 308 688L321 704L313 707L313 708C317.37 709.957 323.719 711.757 326.173 716.289C327.853 719.394 324.667 722.623 327.358 725.542C332.756 731.396 340.269 724.909 340 736C332.074 736.609 323.528 738.485 316 735L315 735L307 735C303.934 743.143 299.104 739.901 292 742L295 748L289 752C291.434 754.134 295.617 761.803 294.164 765.192C292.247 769.666 283.667 773.318 289.407 779.431C297.337 787.876 312.31 778.147 320 786L306 789L311 795C309.711 800.552 314.055 802.352 319 803L323 814C326.242 815.155 331.954 814.679 334.512 816.523C339.629 820.212 334.307 831.982 331 835L329 848L334 847C336.969 851.429 341.468 847.301 345.956 848.659C351.102 850.216 353.529 857.342 355 862L352 863L352 864L355 874L368 871L367 882L380 882L380 884C374.785 885.839 366.824 893.817 374 898L373 895L376 906L378 906C379.262 898.064 385.298 897.416 391 893C392.792 898.235 394.208 900.808 400 901L401 920L404 917C409.78 920.01 414.048 918.873 420 917L424 923L423 928L429 925L429 932L433 943C436.952 943.301 438.822 944.118 440 948L449 950L456 937L457 937L461 958C465.711 956.227 470.486 954.046 472 949L475 952C479.979 950.065 484.095 948.721 485 943L487 945L491 944L499 950L499 933L504 936L500 919L501 919L503 926L504 923C508.315 927.393 509.612 934.582 517 932L517 921L531 936L524 910L526 914C529.511 911.656 528.329 908.58 527 905C539.447 901.466 533.605 919.694 542 924L543 917L544 917L545 920L547 917L549 923L550 923L546 903L548 906L551 905L554 912L562 909L563 905L568 912L570 912L572 908L574 912L575 912C575.015 906.7 575.095 902.864 580 900L576 885L583 886L580.532 875.015L584 862L585 862C586.858 865.287 588.195 866.33 592 866L591 863C595.028 864.286 607.025 869.55 608 865L628 881L633 879C638.978 894.594 649.61 901.664 663 909.819C671.837 915.202 676.992 920.789 687 914C686.604 901.773 702.282 912.128 703.497 903.811C705.155 892.456 688.684 878.369 684.519 868.576C682.456 863.724 684.55 856.333 683.27 851C682.27 846.832 678.756 842.976 677 839C679.662 837.812 682.649 836.35 684.212 833.71C686.005 830.682 683.904 827.388 686.358 824.439C692.066 817.58 715.049 811.007 719.378 823.055C722.132 830.718 715.595 839.704 720 848L716 852L727 859L728 859L730 857L732 864C719.633 868.791 712.946 884.522 708 896C712.169 896.276 714.946 894.642 717 891L726 894L727 889L728 889L730 893L755 884L754 903L758 904L764 887L767 890L788 877C785.815 883.167 789.701 889.245 795 893L807 884L809 901L811 901L817 894L807 920L808 920L814 913L815 913L801 932L814 942L811 946C805.988 947.583 800.584 960.757 800 966L813 960L816 978L834 962L829 976L834 975L834 977L845 970L848 980L854 977L851 992L856 990L856 994L864 994L862 1000C867.956 999.091 871.551 994.945 872 989L874 992C880.269 989.859 881.978 980.654 884.053 975C889.107 961.227 892.351 943.081 907 937L900 972C912.078 971.991 910.648 966.877 913 957L914 957C915.989 965.075 916.766 970.239 926 972L925 960L926 960L929 967L935 957L937 957L938 960L947 953L958 958C964.088 950.189 968.756 937.109 969 927L976 938L978 938L979 935L981 935C982.166 939.093 982.66 942.594 987 944L988 939C994.003 943.886 997.527 952.544 1002.78 956.972C1006.8 960.362 1010.9 957.117 1012 964L1017 961L1018 976L1020 976L1024 968L1025 957L1027 957L1028 962L1033 962L1032.22 945L1042 929L1044 929C1049.4 939.197 1071.28 920.75 1067 939L1072 940L1073 928L1074 928C1074.55 938.077 1082.47 940.393 1091 942C1091.63 937.658 1088.68 936.762 1087.63 932.911C1086.66 929.359 1089.3 925.127 1090.67 922.001C1091.72 919.601 1092.68 915.76 1096.06 916.327C1101.62 917.26 1104.48 925.201 1110.85 923.664C1114.68 922.739 1116.54 914.431 1114 912L1114 911L1119 906L1118 908L1121 907L1125 919L1142 926L1140 916C1146.53 922.036 1157.27 923.197 1166 924C1163.44 918.582 1144.44 909.843 1155 904L1157 891L1159 891L1161 895C1166.07 892.685 1169.76 890.239 1172 885L1174 887L1175 887C1184.48 879.048 1190.02 883.728 1200 889L1203 885C1203.66 888.585 1204.45 890.783 1208 892L1204 879L1207 872L1220 867L1224 882L1231 879L1243 889L1245 889L1248 873L1249 873L1255 878L1257.72 872.415L1267.81 872.24L1279.44 860.681L1289 872L1290 863C1289.49 866.299 1290.16 867.259 1293 869L1299.69 855.769L1307 861L1308 845C1315.25 848.902 1312.85 860.511 1322 862L1322 856L1323 856L1324 862L1326 859L1327 859L1336.52 871.213L1336 880L1339 877L1349 880L1353 872L1353 865C1356.45 868.157 1358.48 869.836 1363 868L1361 863L1365 864L1361 856C1366.1 845.211 1364.86 841.3 1365 830L1380 834L1379 831L1386 835L1396 836L1395 829L1396 829L1396 832L1404 832L1401 823L1405 824L1398 806L1406 808L1400 763L1412 780C1424.45 779.017 1416.97 768.66 1414.18 761C1410.42 750.717 1406.52 740.038 1402.12 730C1398.52 721.765 1394.03 716.36 1394 707L1395 707C1396.06 718.794 1403.55 722.529 1408.86 732.004C1412.43 738.362 1412.69 744.56 1420 748L1417 737L1418 737L1419 739C1425.25 735.192 1424.21 744.617 1429.93 743.963C1434.62 743.427 1434.28 735.406 1437.02 732.591C1440.89 728.607 1446.4 733.993 1450 736C1450.94 731.434 1447.38 726.758 1452 724C1450.47 718.866 1453.77 709.935 1448 708C1449.18 695.624 1460.68 700.443 1471 700C1470.94 697.006 1471.05 695.654 1468 695L1469 690L1464 688L1473 681C1465.91 680.636 1455.95 677.421 1456 669C1451.15 664.831 1445.07 654.329 1445 648L1427 640C1427.73 635.455 1427.18 632.378 1423 630C1427.43 616.91 1431.51 603.31 1445 596L1445 594L1444 593C1434.01 594.109 1438.48 585.585 1441 580L1455.79 584.157L1469 600L1471 597L1472 597C1477.67 616.965 1504.09 637.451 1525 634L1524 630L1541 628C1538.75 615.557 1526.65 604.634 1521.65 593C1516.75 581.594 1518.13 571.45 1518.94 559.961C1519.62 550.467 1510.75 535.284 1528 540L1529 531L1533 532L1534 528C1548.27 530.212 1532.66 510.693 1530 505L1533 504L1530 497L1533 496L1527 492L1535 486L1524 471L1532 471L1532 464L1557 452L1555 447L1566 439C1561.53 437.342 1550.6 433.731 1556 428L1556 425C1548.3 422.07 1543.24 420.542 1535 423L1537 420L1538 407L1534 406L1534 397C1540.01 395.543 1542.22 392.812 1544 387L1540 381L1520 380C1515.25 368.797 1506.82 373.072 1497 372C1500.84 368.606 1503.6 366.3 1504 361L1466 364L1466 363C1471.34 362.875 1477.2 361.929 1481 358L1474 356L1479 352L1478 347C1468.66 338.701 1479.16 335.976 1477 327L1460 322L1459 321L1463 316L1457 312L1457 311L1468 307L1468 305L1456.96 294.623L1448.85 289.902L1446.48 278.704L1431 276L1436 268L1436 266L1432 264L1435 257C1424.91 260.222 1418.59 268.833 1407 268L1407 267C1414.5 264.894 1421.72 261.06 1424 253L1411 252L1412 249L1406 248L1406 239L1408 240L1408 239L1396 238C1394.96 233.156 1389.29 236.619 1386 238C1385.09 233.769 1374.31 238.914 1370 240C1369.71 234.188 1366.55 224.959 1367.72 219.714C1369.49 211.705 1377.62 203.686 1382.11 197C1392.28 181.877 1397.94 163.547 1392 146L1388 148L1382.87 136.037L1373.91 144.996L1358.91 161.567L1346 172C1337.06 170.937 1325.73 172.847 1322 182L1314 178L1312 168L1308 172L1307 172L1305 163C1296.31 164.983 1289.81 169.775 1286 178L1281 177L1279 182L1278 178L1274 184L1271 184C1268.24 179.059 1265.35 181.887 1261 183L1261 192L1256 182L1255 182L1253 188L1248 178L1244 181C1242.27 175.766 1237.56 166.332 1231 171L1230 171L1225 165L1223 165L1219 180L1212 175C1210.81 186.291 1216.09 191.138 1203 195L1204 200L1200 202L1186 196C1185.1 198.927 1181.81 201.117 1181.54 204.104C1180.78 212.654 1187.49 216.674 1178 223L1178 224L1182 232L1172 233C1178.06 246.684 1165.61 248.735 1160 259L1159 259L1160 249C1155.33 249.002 1154.3 246.323 1154 242L1153 242C1149.46 246.096 1135.39 258.837 1140 245L1133 246L1131 238L1129 238C1124.58 244.871 1115.64 237.386 1112 247L1111 247L1111 244L1103 251L1102 251C1100.36 249.143 1097.1 247.28 1096.33 244.871C1095.43 242.085 1097.94 238.699 1098.52 236C1100 229.136 1101.79 221.614 1099 215L1097 215L1085 236L1084 233C1090.59 230.597 1090.73 223.235 1091 217C1086.07 218.332 1079.9 220.584 1079 226L1072 223C1072.25 229.325 1068.85 231.896 1063 233C1059.53 225.033 1061.43 215.451 1063 207L1053.12 220.867L1043 232L1042 232C1042.73 223.636 1042.8 214.211 1044.68 206C1045.45 202.638 1048.8 197.785 1047.35 194.319C1045.61 190.159 1040.3 193.486 1038 195L1037 187L1036 190L1032 190L1028 166L1029 166L1030 169L1032 169C1035.38 162.172 1039.26 151.374 1031 146L1025 152L1022 131L1021 131L1013 139L1010 135L1008 144C1001.78 145.011 1000.17 150.269 1000 156L992 137L987 138L986 134L984 134L983 154L982 154C981.936 148.547 980.77 145.85 976 143L971 164L958 168L948.326 172.646L941.57 185.534L936.179 183.922L927 165L924 176L921 176C919.479 170.176 920.26 168.196 923 163L920 165L919 165L914 157L912 157L911 158L910 166L909 166C907.709 161.406 908.151 155.411 906.258 151.193C902.716 143.299 900.515 152.061 901 156L898 155L899 152L891 149L890 139L888 139C883.584 147.773 884 156.412 884 166L882 166L880 147L878 147C871.566 162.148 868.011 175.559 868 192L866 192L862 173L847 190L842 206L839 197L838 197L837 219C833.886 219.431 834.103 222.087 834 225L828 223C827.633 231.028 823.324 245.975 816 250C819.736 238.238 824.136 211.281 812 203L808 207L807 202C798.043 206.477 801.279 217.932 798.818 226C794.793 239.199 793.494 259.2 786.152 270.767C783.685 274.654 778.163 278.196 775 282C774.338 274.236 779.477 271.323 782.697 265C786.527 257.478 789.759 247.21 792 239L791 238L786 244L783 241C776.677 247.7 768.539 249.543 765 259L764 259C765.511 250.863 767.77 238.92 756 244L754 231L747 235L748 227C744.673 229.515 733.647 241.78 734 231C729.52 231.96 731.817 236.369 732 240L730 240L728 232L720 240C715.891 222.969 707.577 244.328 700 247L700 257L693 252L689 264L688 254L682 256L679 254C678.705 249.976 679.635 243.489 677.243 240.153C675.044 237.086 668.668 238.709 668.073 234.887C667.463 230.965 667.488 220.164 668.46 216.17C669.854 210.444 676.135 201.441 670 197L670 202L669 202C668.672 194.747 674.676 188.434 675.522 181C676.277 174.356 676.999 163.528 675.61 157C674.704 152.74 671.097 149.185 670.724 144.911C669.673 132.879 673.771 122.495 668 111L666 111L664 118L663 118C661.694 107.722 656.127 98.5588 648 92L645 102L644 102L642 94L640 96L637 96L632 83L630 83M639 91L640 92L639 91z"/>
<path style="fill:#fefefe; stroke:none;" d="M899.333 162.667L899.667 163.333L899.333 162.667M942 189L942 194L943 194L945 189L942 189M1214 191L1215 192L1214 191M1033 202L1032 204L1034 204L1033 202M499 235L500 236L499 235M746 235L747 236L746 235z"/>
<path style="fill:#030303; stroke:none;" d="M1110 238L1109 239L1109 241L1110 242L1112 242L1113 241L1113 239L1112 238L1110 238z"/>
<path style="fill:#fefefe; stroke:none;" d="M501 239L502 240L501 239M783 245L782 247L783 245M763 249L763 253L764 253L763 249M1182 250C1181.82 254.245 1183.39 257.673 1187 260L1182 250z"/>
<path style="fill:#030303; stroke:none;" d="M468 255L469 256L468 255z"/>
<path style="fill:#fefefe; stroke:none;" d="M470 259L471 260L470 259M1158 259L1159 260L1158 259M486 266L486 268L488 268L488 266L486 266M474 277L476 280L474 277M460 278L461 279L460 278z"/>
<path style="fill:#030303; stroke:none;" d="M393 279L394 280L393 279z"/>
<path style="fill:#fefefe; stroke:none;" d="M404.667 315.333L405.333 315.667L404.667 315.333M1458 363L1458 366L1460 366L1460 363L1458 363M1455 365L1456 366L1455 365M1536 388L1539 385L1536 388z"/>
<path style="fill:#030303; stroke:none;" d="M363 387L361 392L365 387L363 387z"/>
<path style="fill:#fefefe; stroke:none;" d="M388 453L388 456L391 455L391 454L388 453M1528.67 463.333L1529.33 463.667L1528.67 463.333M436 467L437 468L436 467M441 470L444 472L444 471L441 470M1523.33 472.667L1523.67 473.333L1523.33 472.667M452 485L453 486L452 485M1527 487L1528 488L1527 487M1528 500L1527 502L1529 502L1528 500M382 517L383 518L382 517M1532.67 527.333L1533.33 527.667L1532.67 527.333M386 564L385 559C376.778 561.905 379.051 568.584 386 572C389.433 567.238 392.977 573.788 396 576C395.24 567.976 404.137 564.511 410 560L408 557L386 564M399 573L399 576L400 576L399 573M361.667 607.333L362.333 607.667L361.667 607.333M1451 670L1450 672L1452 672L1451 670M1447 719L1448 720L1447 719M1428 721L1427 724L1430 724L1428 721M1444 723L1445 724L1444 723M1433 726L1436 728L1433 726M1437 729L1438 730L1437 729M315 737L316 738L315 737M685 809L684 810L684 811L684 812L687 809L685 809M327 811L328 812L327 811M676 816C680.397 825.124 685.686 820.366 682 812L676 816M1321 855L1322 856L1321 855M792 883L793 884L792 883z"/>
<path style="fill:#030303; stroke:none;" d="M767 891L768 892L767 891z"/>
<path style="fill:#fefefe; stroke:none;" d="M1109 922L1112 919L1109 922M1070 923L1072 928L1073 928L1070 923M862.667 943.333L863.333 943.667L862.667 943.333M954 945L958 955L959 955L956 945L954 945M814.667 959.333L815.333 959.667L814.667 959.333z"/>
</svg>
