<?xml version="1.0" standalone="yes"?>
<svg xmlns="http://www.w3.org/2000/svg" width="1920" height="1080">
<path style="fill:#ffffff; stroke:none;" d="M0 0L0 1080L1920 1080L1920 0L0 0z"/>
<path style="fill:#030303; stroke:none;" d="M1323 217L1321 213L1314 216L1313 216L1312 214L1311 214L1294 220L1288 215C1278.9 217.184 1269.67 217.33 1261.04 221.394C1256.87 223.359 1255.34 228.23 1250.98 229.794C1243.56 232.457 1232.99 232.633 1226.43 237.348C1220.21 241.819 1225.83 258.592 1217 259C1216.22 262.601 1216.48 266.451 1212.87 268.543C1209.9 270.259 1205.07 269.181 1203.03 272.318C1200.94 275.545 1203.61 278.727 1203.69 282C1203.84 288.864 1196.28 295.123 1190 294C1190.13 297.903 1190.6 299.915 1194 302C1190.64 311.809 1199.13 326.044 1201.26 336C1202.52 341.88 1197.61 346.55 1196.65 352C1194.03 366.907 1203.41 377.234 1214.86 384.968C1219.06 387.811 1219.09 392.102 1225 391C1227.48 401.534 1225.15 410.615 1232 420C1244.67 416.386 1265.33 413.797 1271 430C1264.87 432.74 1261.72 437.714 1257.45 442.625C1253.09 447.647 1250.82 452.617 1248.95 459C1247.25 464.776 1243.63 468.631 1243.64 475.004C1243.65 494.921 1258.86 510.799 1266.29 528C1270.74 538.297 1279.09 547.992 1286.63 556.154C1290.39 560.231 1293.09 564.071 1299 562C1300.45 566.223 1302.36 568.661 1307 568C1309.64 571.643 1316.67 571.716 1321 572.409C1334.04 574.498 1346.36 572.897 1359 574.37C1366.3 575.221 1372.35 579.009 1380 577.786C1396.62 575.128 1406.93 557.679 1420.26 548.958C1427.03 544.533 1436.65 547.865 1442.46 543.821C1445.36 541.801 1446.89 537.725 1449.58 535.314C1451.73 533.384 1455.34 532.971 1456.97 530.567C1458.6 528.173 1457.8 524.702 1458.53 522.004C1461.36 511.612 1461.97 501.365 1464.41 491C1466.46 482.299 1471.84 473.092 1471.7 464C1471.6 457.675 1467.71 452.02 1466.37 446C1465.43 441.799 1466.56 437.038 1464.98 433.039C1461.15 423.346 1455.33 416.805 1449.17 408.882C1445.81 404.558 1443.79 397.285 1440.26 393.742C1430.39 383.837 1413.49 374.987 1399 376C1402.57 364.27 1409.74 354.345 1409.38 341.907C1409.29 338.82 1406.32 336.802 1406.12 333.714C1405.71 327.157 1408.42 320.861 1407.6 314.039C1407.02 309.238 1404.01 307.206 1405 302L1395 298L1391.4 274.313L1383 261L1380 262C1377.41 255.976 1373.73 255.574 1368 258C1365.25 252.967 1354.66 245.202 1349 244L1356.01 233L1352 215C1344.74 216.889 1339.55 213.658 1335 208L1323 217M638 237L637 248L636 248C632.388 241.343 621.257 244.759 616 248L615 243L609 244L607 240L605 240L602 253C596.984 254.073 597.347 261.601 597 266L590 260L584 266L580 265L580 272L577 269L573 269L572 280C570.007 279.465 567.124 277.475 565.058 277.902C562.344 278.462 562.142 281.844 560.416 283.514C555.34 288.424 551.309 285.489 549 294L537 290L536 290L524 302L517 299L516 312L499 318C497.817 321.593 494.651 324.922 493.808 328.259C493.169 330.788 494.832 333.397 494.505 336C493.413 344.718 486.87 346.03 480 348L481 352L475 353C474.915 357.701 470.73 360.599 467 363C467.542 368.764 464.599 368.803 460 367L453.086 380.104L457.405 390L458.736 405.196L466 416C463.605 416.664 459.527 417.428 458.751 420.275C457.262 425.734 464.078 430.219 461.118 436.867C457.941 444.004 443.072 444.384 444.453 453.999C445.609 462.044 456.694 462.182 457.482 470.015C458.34 478.534 455.719 496.798 445 496C440.811 510.302 462.52 502.883 453 516C468.411 522.263 472.465 534.523 482.314 545.815C486.626 550.759 494.244 551.612 496.995 558.015C501.412 568.301 496.932 578.68 499.519 588.853C500.319 591.997 504.42 593.106 506 596L513 597C508.79 607.422 514.246 617.008 525 609C523.522 617.427 530.777 618.986 538 617L539 624C546.936 624.005 550.086 624.564 556 619L555 622C560.974 623.068 563.022 626.637 565 632L567 632L572 627L573 630L577 625L579 625L586 644C594.711 646.272 595.019 654.145 599 661L612 668L613 668L620 655C627.484 654.524 636.05 651.186 641.911 646.471C644.872 644.089 649.101 638.184 653.682 640.329C656.851 641.812 655.998 647.183 656 650L657 650L665 641C667.499 645.262 671.501 645.262 674 641L679 642C679.119 628.884 688.654 634.784 695.852 626.942C700.178 622.23 697.492 617.582 698 612C700.708 614.383 704.073 620.139 707.985 620.248C713.933 620.415 717.317 609.375 724.075 609.729C730.339 610.058 734.309 620.453 737 625L739 625L743 615L753 620L752 611L761 596.25L775 593C776.648 595.911 789.624 608.842 792.307 602.552C794.169 598.187 790.086 591.889 791 587L794 588C793.961 577.618 807.511 579.98 810.759 571.815C812.66 567.037 806.171 563.424 812 560C811.872 554.536 808.15 548.155 810.612 543C813.609 536.725 822.942 534.599 824.334 527.995C825.517 522.385 823.039 515.902 824.769 510.129C826.362 504.811 831.667 501.173 832.661 495C834.159 485.703 832.04 477.676 840 470L845.682 454.985L845.019 437L846.521 424.576L840 409L834 408C835.722 405.183 839.455 400.786 837.864 397.29C835.234 391.509 827.282 391.986 823.603 387.582C818.788 381.817 821.704 352.579 809 359L808 358L810 347L802 350L801 346L798 347C797.998 333.158 787.18 333.393 777 340L778 333L771 328L768 329L768 314L757.009 309.772L752.682 299.331L742 304L741 300L735 301L734 304L733 304L736 292L732 293L730 288L724 291L723 291L718 291C719.234 274.444 703.08 293.994 699 296L697 291C692.362 290.654 686.008 287.494 683 292L681 292L680 289C673 290.014 666.09 282.807 661 288L660 288L661.682 263L648.699 250.437L640 237L638 237M665.667 269.333L666.333 269.667L665.667 269.333M932 322L919 335L920 340C910.595 339.673 886.659 347.379 885 358C877.741 359.583 879.782 366.241 879.702 372C879.572 381.343 881.536 390.633 881.664 399.576C881.759 406.158 879.096 407.409 883 414C877.528 417.49 875.664 426.283 873.039 431.961C868.266 442.282 864.299 462.388 868.117 473.791C872.457 486.756 885.094 497.452 893.723 507.406C900.24 514.923 909.365 518.264 913 528L916 527C918.43 531.167 922.449 532.097 926 535.144C938.13 545.556 953.401 554.465 970 554.209C978.544 554.077 986.721 550.876 995 549.87C1007.04 548.406 1017.06 543.768 1029 541.687C1036.21 540.43 1043.71 544.018 1050.7 539.822C1053.64 538.053 1054.38 534.706 1056.55 532.278C1059.26 529.233 1063.29 528.44 1065.74 524.945C1072.36 515.517 1076.85 503.358 1083.75 494.584C1089.08 487.82 1100.56 488.152 1106.4 482.185C1108.7 479.833 1109.15 474.981 1110.66 472.004C1112.41 468.553 1117.38 466.116 1118.34 462.828C1119.32 459.501 1116.85 456.291 1116.82 453C1116.71 442.897 1115.91 435.112 1114.22 425C1112.08 412.197 1116.88 397.323 1112.89 385C1110.84 378.668 1104.58 373.775 1101.34 367.999C1097.21 360.652 1097.63 352.295 1088 350C1087.71 346.187 1087.09 343.933 1083 344C1080.85 337.901 1077.59 335.324 1071 336C1068.71 331.126 1065.37 328.598 1060 328C1059.04 319.082 1054.39 320.875 1048.17 318.729C1040.57 316.108 1034.3 312.115 1025.83 310.69C1021.03 309.882 1017.59 312.316 1013 310C998.581 316.759 983.736 311.557 968.911 309.544C962.737 308.706 956.18 310.343 949.989 310.238C945.399 310.161 931.924 317.428 932 322z"/>
<path style="fill:#ffffff; stroke:none;" d="M507 587L508 588L507 587z"/>
</svg>
