<?xml version="1.0" standalone="yes"?>
<svg xmlns="http://www.w3.org/2000/svg" width="1920" height="1080">
<path style="fill:#fefefe; stroke:none;" d="M0 0L0 1080L1920 1080L1920 0L0 0z"/>
<path style="fill:#020202; stroke:none;" d="M629 150C614.552 159.615 612.119 175.211 609 192L608 192L606 187C595.29 189.233 591.837 209.916 594 219L590 216L586 220C585.041 216.94 584.203 216.138 581 216L578 212L577 215L574 213L572.005 228.697L562 238L553 229L550 228L549 228L546 237C540.911 232.696 534.507 231.585 528 233C529.234 239.792 532.928 249.822 522 247C520.377 252.229 514.825 251.656 510 252L504 274L491 265L491 270L488 269L483 271L483 272C487.227 277.532 482.726 283.64 478 287L478 288L485 300L479 303L462 293L462 301L456 303C449.82 292.888 437.306 293.678 428 289C428.113 293.511 429.953 300.269 424 301L426 308C417.649 306.596 420.678 314.718 421.397 320C422.639 329.119 422.244 338.606 432 343C426.128 348.393 418.395 343.822 415 352C408.642 351.249 403.413 351.319 398 355L398 356L404 364L398 363C399.114 370.632 412.966 379.819 408 387L413 393L415 408L427 415L427 416C422.184 417.62 424.608 423.604 423 428L428 432L403 423C401.57 433.273 410.164 438.308 416.96 444.428C421.46 448.481 424.584 453.742 429.004 457.911C437.185 465.626 450.661 471.669 452 484L451 484C446.348 472.794 437.54 472.618 428 467.295C423.419 464.739 419.936 460.912 415 459L416 468C410.58 467.952 402.556 463.13 399 468L404 473C396.535 478.362 407.924 479.754 412 479L411 487L390 485L396 491C390.723 501.77 400.98 511.781 410 515L410 516L408 520L407 520L391 523L390 528L396.799 538.841L416 543C413.862 547.19 414.294 553.111 419.213 555.471C422.797 557.19 426.349 554.792 430 555.562C440.65 557.811 450.102 562.228 461 564L464 570L457 582L456 582L456 579L451 579L446 592L443 591L441 596C435.997 593.608 432.473 593.93 432 600L428 599C423.511 607.134 402.293 596.043 394.004 596.184C389.523 596.26 386.032 599.431 382 601L383 622L380 623C382.23 631.425 384.321 645.135 372 637L372 648C366.25 647.814 366.445 651.157 367 656L363 655L366.277 663.039L364.684 673L369 686L360 687L363 704L341 702L343 711L338 716C340.391 718.079 341.638 720.381 343.405 723.001C344.795 725.061 346.526 726.898 347.848 729C355.788 741.626 332.136 739.978 327.337 744.009C323.494 747.238 327.999 750.129 331 751C328.905 755.463 330.808 757.093 335 759C334.024 762.732 329.792 770.222 331.241 773.79C333.919 780.389 340.409 779.204 340 788C346.642 787.142 349.036 787.415 355 791L355 792C339.631 801.608 365.869 827.553 373 836L376 834L377 834L377.777 845.871L384.701 854.719L385.35 862.582L392.416 867.495L420 890L424 885C424.431 892.806 428.732 891.425 435 893L441 885C442.967 889.787 445.714 898.713 452 894L453 894L460 896L467 904L469 902C472.431 905.101 473.78 902.666 475 899L480 897L481 902C487.102 899.634 493.529 894.127 496 888L501 892L507 884L516 894L517 889L520 890L521 887L535 892L535 882L539 884L541 879L543 879L546 885L554 881L558 882L557 879L563 880L563 861C574.797 862.305 578.893 840.788 592 848L593 842L602.189 855.157L617 858L616 855L638 864C636.978 856.714 640.123 847.664 649 848L655 840L643 817C653.224 814.744 646.921 809.443 648.258 802.17C650.468 790.149 650.505 771.802 661 764C655.217 751.066 672.213 742.57 682.732 749.125C688.223 752.547 680.392 759.093 684.59 763.372C687 765.829 693.719 765.382 697 766L693 780L702.004 774.492L721 779C720.998 783.86 723.237 786.249 728 787C725.94 796.097 732.249 791.955 734.745 797.353C737.189 802.641 727.428 807.188 733.514 813.501C737.454 817.588 743.134 816.177 748 817.649C754.819 819.712 758.146 825.563 760 832L752 825L751 832C734.91 834.231 750.903 844.749 758 847L756 854C764.772 853.274 773.167 855.176 781 850C782.99 864.734 786.952 858.199 798 857L798 860L808 855C809.517 860.657 814.897 867.208 820 870L824 867L824 876L827 875L827 878L835 878C834.586 885.974 828.096 893.871 830.669 902C831.609 904.97 834.992 910.177 838.729 908.673C844.293 906.433 847.311 898.618 852 895L852 906L868 895C868.351 899.501 877.457 907.641 882 908L887 920C892.829 916.728 905.635 905.263 908 899L910 899C912.848 904.428 917.027 906.968 923 908C922.838 901.073 923.1 878.791 937.467 883.627C942.026 885.161 940.21 892.215 942.924 895.234C946.495 899.206 953.963 899.17 958 903L979 893.944L986.682 894.269L989 889L996 892L997 886C999.169 888.424 1006.41 898.424 1008 891L1012 892L1013 885C1020.13 887.537 1019.55 884.058 1025.22 881.599C1027.15 880.762 1030.57 881.487 1031.83 879.436C1033.26 877.111 1029.69 875.115 1030.61 872.815C1033.43 865.72 1041.84 872.938 1044 876L1047 874L1048 874C1051.6 881.79 1054.46 879.526 1062 880C1062.05 868.964 1072.58 875.616 1074 869C1084.97 875.881 1094.98 883.053 1100 865C1105.57 865.746 1114.81 868.129 1116 861C1126.57 860.89 1141.87 853.771 1144 843L1162 834L1163 826C1166.51 831.002 1172.97 833.158 1179 832L1184 842L1192 834C1196.9 833.781 1198.76 830.011 1201 826L1202 826C1205.47 832.859 1212.78 834.455 1217 827C1220.45 831.708 1234.21 826.216 1239 823L1240 826C1243.71 825.218 1246.67 824.794 1248 821L1256 823L1257 828C1262.06 827.003 1269.82 824.458 1274 828C1278.48 826.634 1280.79 823.44 1282 819L1299 820L1300 815L1305 816C1306.81 810.509 1307.32 806.266 1313 803.144C1317.09 800.893 1322.49 804.312 1324 799C1327.34 799.706 1328.94 799.825 1331 797L1340 796L1340 791L1347 795C1349.51 791.945 1355.12 790.524 1356.87 787.487C1358.27 785.06 1356.21 781.65 1356.48 779C1357.14 772.421 1358.82 765.579 1359.62 759.062C1360.19 754.382 1364.88 757.126 1366.88 754.358C1368.85 751.627 1366.21 747.2 1368.13 743.93C1372.98 735.682 1384.61 741.524 1388.97 734.697C1392.42 729.311 1386.25 724.049 1385.52 719C1384.74 713.568 1394.54 699.371 1399.95 698.157C1402.18 697.657 1404.88 699.436 1407 700C1408.11 693.65 1406.87 689.124 1400 688L1405 680L1405 679C1395.9 667.638 1397.23 658.776 1393.35 646C1391.73 640.675 1385.9 636.936 1386.53 631C1387.72 619.629 1396.45 611.725 1395 600C1402.2 602.829 1409.61 605.467 1417 602L1417 583L1423 587L1423 575L1426 576L1427 572C1430.58 572.54 1433.56 570.001 1437 570.727C1446.03 572.635 1458.71 587.731 1468 582C1474.71 592.143 1479.71 599.997 1492 602L1493 592L1504 592L1499 569L1502 570C1501.14 562.128 1495.35 556.396 1490 551C1500.3 548.312 1500.01 542.221 1496 534L1504 526C1503.21 519.874 1507.69 521.069 1509.29 516.571C1511.65 509.977 1508.33 499.955 1508.63 493C1509.02 484.052 1517.42 483.671 1512 474L1508 476L1512 472L1504 468C1505.38 463.392 1507.33 461.25 1512 460C1508.55 446.842 1515.22 448.778 1526 444L1517.47 425.576L1507.66 420.068L1513 403C1504.29 401.084 1489.26 399.284 1487 389L1469 384L1476.08 371.318L1467 369L1437 368L1438 365C1445.07 366.785 1449.99 363.045 1456 360L1454 358L1454 357L1460 349C1453.14 349.511 1450.69 344.703 1456 340L1456 339L1447 340C1446.54 334.093 1443.26 334.019 1438 334C1439.69 323.998 1432.06 312.916 1443 308C1438.26 300.9 1434.01 298.006 1434 289L1415 292C1418.8 287.502 1420.67 282.451 1414 280L1418 271L1408 278L1407 274C1399.68 271.656 1405.77 266.203 1410 264L1410 261L1398 262C1397.08 247.681 1395.36 238.299 1379 248L1380 243L1367 245C1362.88 231.991 1363.16 220.028 1368.11 207C1372.39 195.749 1381.19 190.452 1378 177L1371 179C1365.98 160.294 1355.95 176.688 1347 183C1342.7 178.746 1334.47 190.419 1331 193L1328 187L1317.09 193.492L1298 185C1295.38 192.411 1290.87 192.055 1284 190C1276.01 200.245 1268.94 188.652 1263 200L1261 199L1260 206C1255.34 205.274 1253.48 202.851 1251 199L1249 201L1245 201C1242.43 195.052 1239.16 191.264 1233 189C1227.68 199.227 1219.47 202.181 1222 216L1204 213L1203 218L1200 217C1201.7 228.529 1202.68 245.98 1198 257L1197 257L1189 248C1185.5 259.952 1195.93 273.398 1198 285L1197 285L1186 269L1184 273L1178 269L1178 272L1175 276L1179 277L1179 280L1169 276C1165.38 283.785 1169.28 296.967 1158 295C1156.31 308.445 1169.62 325.649 1182 331C1180.13 347.65 1176.48 352.59 1160 356C1160.55 352.339 1163.87 348.666 1163.42 345.015C1161.61 330.28 1146.42 329.016 1136 328C1136.43 323.036 1140.51 311.946 1137.73 307.565C1133.4 300.746 1115.97 306.71 1110 308L1104 304L1105 299C1098.64 296.272 1094.88 301.055 1089 303C1088.89 298.198 1088.23 294.677 1084 292L1089 283L1074 284C1073.13 272.864 1061 287.911 1054 288L1061 277L1057 276L1063 265C1056.33 266.179 1049.41 262.459 1056 256L1056 255L1044 260C1047.16 251.528 1039.19 252.576 1034 256L1031 245L1010 249C1004.95 256.179 1000.28 266.131 991.961 269.96C989.232 271.216 985.208 273.715 982.434 271.433C978.921 268.544 980.179 261.989 979 258L971 265C971.042 259.47 972.586 254.017 967 251L958 260L956 260L954 253L948 256L948 251C937.406 256.65 933.754 257.901 925 247C923.33 248.058 921.036 250.784 918.886 250.384C914.381 249.546 911.847 241.646 908 248L906 248C903.612 243.949 899.332 245.365 898.358 250.015C896.762 257.635 896.001 268.092 897 276L892 268L882 280L881 276C871.017 279.725 869.341 286.118 867 296C860.959 294.473 854.985 290.563 852 285C839.551 286.812 849.982 298.727 842.531 304.248C837.045 308.314 837.652 283.857 827.513 296.549C826.601 297.691 826.424 298.641 826 300L806 289L793 292L794 272L779 297L780 285C777.614 286.335 775.577 289.785 772.897 290.32C759.308 293.033 771.444 271.048 775 268C771.442 264.315 768.582 266.146 765 269L766 263L752 278L752 272L750 274L749 274L748 261L744 262L744 260L739 260L741 249L739 252L737 252L736 249L728 248L727 256L724 253L711 270L709 259L694 274L693 269L688 276L685 273L685 266L682 270L680 270C678.479 266.249 677.182 264.39 673 265L672 249L666 251C666.164 243.019 669.426 227.37 663 222L660 226C659.986 219.364 658.167 212.494 658.383 206C658.898 190.466 670.669 165.585 651 156L650 159L649 159L647 156L642 164L637 157L635 160L629 150z"/>
<path style="fill:#fefefe; stroke:none;" d="M641 164L641 168L642 168L641 164z"/>
<path style="fill:#020202; stroke:none;" d="M1238 183L1239 184L1238 183M660.333 202.667L660.667 203.333L660.333 202.667z"/>
<path style="fill:#fefefe; stroke:none;" d="M657.333 209.667L657.667 210.333L657.333 209.667M667 252L668 253L667 252z"/>
<path style="fill:#020202; stroke:none;" d="M497.667 255.333L498.333 255.667L497.667 255.333z"/>
<path style="fill:#fefefe; stroke:none;" d="M486 276L488 281L489 281L486 276z"/>
<path style="fill:#020202; stroke:none;" d="M428 277L431 281L432 277L428 277z"/>
<path style="fill:#fefefe; stroke:none;" d="M1052 278L1051 280L1052 278M1046 279L1047 280L1046 279M490 281L492 284L490 281M1048 292L1053 287L1048 292M428.667 301.333L429.333 301.667L428.667 301.333M487 301L488 302L487 301M458 303L459 304L458 303M463 303L464 304L463 303z"/>
<path style="fill:#020202; stroke:none;" d="M412.667 347.333L413.333 347.667L412.667 347.333z"/>
<path style="fill:#fefefe; stroke:none;" d="M419.667 471.333L420.333 471.667L419.667 471.333M1195 484C1200.44 483.61 1204.37 482.659 1206 477C1200.63 477.159 1196.61 478.526 1195 484M1207 487L1208 488L1207 487M1198 502L1205 490L1204 489C1198.68 491.617 1196.44 496.266 1198 502M464 572L465 573L464 572M466 575L467 576L466 575M1416 596L1417 597L1416 596M683 736C679.657 730.764 669.599 716.944 661.614 723.176C657.501 726.387 657.43 741.508 663.13 743.292C669.539 745.299 677.345 737.872 683 736M650 839L651 840L650 839z"/>
<path style="fill:#020202; stroke:none;" d="M595 849L596 850L595 849z"/>
<path style="fill:#fefefe; stroke:none;" d="M1048 871L1049 872L1048 871M1048 873L1049 874L1048 873z"/>
</svg>
