<?xml version="1.0" standalone="yes"?>
<svg xmlns="http://www.w3.org/2000/svg" width="1920" height="1080">
<path style="fill:#fefefe; stroke:none;" d="M0 0L0 1080L1920 1080L1920 0L0 0z"/>
<path style="fill:#030303; stroke:none;" d="M633 47L632 51C621.275 45.7339 619.53 62.2031 617.359 69C614.05 79.3577 615.687 91.3049 613.661 102C611.23 114.828 604.742 127.075 603 140L602 140L600 138L598 152L593 154L590 150L593 168C588.727 165.492 580.547 151.402 577 162L574 161L573 162C573.513 164.298 583.272 182.382 572.448 175.772C570.881 174.815 569.662 173.819 568 173L567 176L564 175L566 188L563 187L560 200L556 189L554 189L553 200L551 187L549 187L549 197L548 197L543 188L542 191L541 191L534 169L532 169L528 181C525.208 162.622 501.159 174.994 513 187L513 188L512 196L506 194L502 189L500 200L496 198L496 220L489 218L493 237L492 237L483 225L480 228L479 231L481 244L473 241L471 241L465 246L466 248L454 258L454 255C448.132 250.462 446.191 243.907 438 243C441.463 249.054 447.615 254.4 440 259L439 256C429.009 253.83 423.278 242.472 419 234C416.474 234.593 413.597 233.338 411.223 234.457C403.964 237.878 402.112 251.517 399 258L398 258C397.592 252.625 385.7 242.549 380.558 246.661C374.722 251.329 381.31 263.134 384 268L382 272L377 269L377 273L376 273C373.915 269.599 371.902 269.127 368 269L370 276C364.991 279.398 378.254 298.013 380 304C372.912 303.465 369.761 304.228 372 312L367 311L368 314L361 314L368 322L368 323L366 330C362.343 329.111 359.237 327.647 358 332C352.565 329.011 347.696 328.165 342 331L342 332L344 333L336 338L336 340L348 348L334 351L334 352L340 368L351 371L351 372C342.37 376.81 332.313 385.228 334 396L339 400L348 403L348 404C340.798 409.46 335.995 417.847 337 427L346.857 423.333L354.058 415.979L370 421.086L398 434.405L419 450L419 452C411.737 451.33 407.436 444.483 401.996 440.285C395.473 435.251 388.08 433.005 380 433L386 442C376.557 444.653 373.242 463.108 385 461L378 471C377.738 465.387 372.704 459.18 372 468L356 469C356.505 478.816 346.041 473.872 344.921 480.085C344.399 482.977 350.646 486.147 351 490L362 493L354 503L354 504L364 507L364 508C356.269 517.631 372.94 513.725 377 517C368.944 515.6 364.807 521.739 357.961 524.273C349.865 527.269 337.228 523.871 332 532C337.316 534.713 343.172 535.675 345 542L326 539C327.265 549.145 334.135 551.535 338.883 559.104C340.992 562.468 339.874 565.301 335.991 566.233C332.016 567.187 328.1 565.234 324 566C325.724 571.688 343.385 584.26 349 587L353 600L352.059 609.687L363 619L363 620L346 613C341.876 617.054 338.757 614.883 334 613L336 624C332.263 621.116 329.709 619.654 325 621L326 626C332.272 627.765 337.37 633.351 336 640L334 640C331.333 635.658 327.101 633.131 322 634L329 648L332 648L325 660C330.564 660.504 334.248 661.948 333 668L338 672C327.162 673.748 322.287 671.983 319 683L289 688C289.374 690.258 289.672 692.115 292.148 692.938C299.057 695.235 306.08 693.407 312.793 698.161C320.727 703.779 304.565 703.529 302 703L302 704C308.717 711.302 312.499 714.971 323 715L323 716L319 717L326.104 727.821L339 734L321 735.786L300 729L300 736L272 729L271 736C278.627 738.437 274.258 745.493 279 752L275 753L275 756L284 764C279.047 764.16 267.9 768.753 272.782 775.481C276.783 780.995 286.843 784.608 293 787C284.382 801.155 305.694 809.992 316 813L312 820L331 819L331 820C325.614 822.899 326.506 827.925 324.437 833C321.977 839.034 309.153 848.519 318 854C316.356 859.549 316.97 863.075 320 868C324.971 866.324 341.659 851.04 346.972 857.562C349.096 860.169 347.919 865.849 348.165 869C348.486 873.109 348.134 875.439 346 879L346 880C353.172 886.132 356.961 878.975 363 874L360 893L361 893L362 887L364 900L370 899L369 914L372 914L372 920C381.179 918.131 382.831 909.769 380 902L388 898L386 904L391 910C398.953 910 388.762 928.379 388 932L407 925L409 930L414 929L412 947L420 947C419.606 950.354 419.205 953.54 423 954C423.25 961.874 427.506 967.781 435 970L439 961L440 961L445 973C451.022 971.41 452.721 968.008 453 962L454 962L453 986L476 974L483 957L490 960L491 956L492 956C494.838 965.522 500.242 961.914 508 963L507.527 953.805L515 940L527 952C528.233 949.803 529.377 946.953 531 950L541 959C540.238 941.527 524.818 924.759 533 907C535.855 918.034 537.423 939.312 550 944L551 919L555 919C557.753 929.201 560.62 920.513 561 915L568 918L571 925L572 925L573 918L578 922L578 909L580 909L584 912L584 893C594.481 893.341 584.784 881.645 583 877L588 878L586 867L594 872C596.804 867.272 600.163 869.312 603 873L613 869L614 869L626.034 881.213L634 895L635 895L637 893C640.87 911.797 663.858 919.739 676.389 931.75C679.371 934.608 689.617 940.455 691 934C696.497 936.019 706.704 941.233 712 938L713 938L716 940L713 935L719 932L721 936C724.287 933.129 726.282 934.169 730 936L731 931L733 932C733.779 921.534 723.01 919.772 721.768 911.475C720.856 905.378 736.17 896.988 741 902L749 898L749 908C746.526 908.655 735.696 917.223 739.662 919.886C742.548 921.823 749.447 917.442 752 916.065C764.653 909.239 769.499 901.173 777 889L778 889C778.179 904.013 793.089 897.076 803 895L803 912L804 912L804 906C812.871 911.541 804.26 916.005 798 919C802.89 927.168 790.406 935.82 783 937C784.01 943.054 789.054 942.177 794 941C794.276 944.888 797.727 954.085 796.319 957.167C789.418 972.282 763.408 976.957 763 996L769 989L771 989L772 997L769 996L768 1000C771.6 998.322 776.613 998.274 779.787 996.231C785.154 992.774 784.507 988.462 792 989C793.207 1004.27 798.177 999.546 808 994L808 997L817 992L813 1004L814 1005C828.198 1001.26 832.52 987.271 840 977C837.719 986.98 831.211 999.857 834 1010L837 1009L838 1024C842.46 1022.02 845.006 1019.88 846 1015C850.298 1017.74 848.317 1020.26 846 1024L864 1016L863 1011L867 1012C875.012 1003.48 884.051 999.005 888 987L889 987C889.007 997.943 891.628 1005.52 903 1000L905 1006L911 999L916 1002C921.392 996.103 928.467 996.654 930 987L936 990L940 969L941 969C941.298 972.25 945.788 980.106 946.837 972.887C947.468 968.547 944.746 965.042 944 961L950 966L951 957L955 958C952.333 964.546 951.563 968.428 954.694 974.995C955.529 976.745 956.801 981.304 959.615 979.828C961.831 978.666 962.702 974.107 963.441 971.911C966.232 963.614 969.976 953.842 970 945L978.071 958.683L989 968L991 968L992 964C999.312 970.826 1004.35 981.956 1005 992L1007 992L1008 981L1009 981C1011.49 990.849 1012 998.329 1022 1004L1026 993L1029 993C1030.97 997.011 1035.3 1001.33 1040.04 1001.82C1045.36 1002.36 1051.58 998.464 1055 1004L1056 1004C1055.06 999.453 1050.45 996.091 1054 992C1046.92 973.918 1041.37 948.66 1058 935L1057 944L1082 949C1084.94 953.956 1090.95 960.979 1097 959L1095 951L1096 951L1105 966L1106 966L1107 960C1115.9 965.77 1119.45 952.357 1125 948L1129 953C1128.99 942.282 1127.89 937.865 1140 937L1145 942L1145 931L1165 942L1176 942L1179 937C1181.27 940.508 1185.1 939.909 1189 940L1189 936L1185 936C1186.09 927.286 1180.08 916.894 1171 914.009C1165.34 912.21 1161.38 915.262 1157 910C1162.2 908.315 1166.42 906.568 1168 901C1173.71 901.694 1194.55 902.16 1196 897C1202.23 903.917 1212.12 921.57 1222 922L1215 905C1222.46 907.798 1224.71 906.616 1228 899L1229 899C1229.19 907.923 1236.61 920.73 1241 906C1252.15 910.592 1251.89 896.956 1261 896L1261 889L1270 890L1271 879L1275 889C1278.41 886.899 1279.56 882.319 1283.05 880.681C1288.67 878.048 1291.49 887.952 1296 879L1300 881L1299 879L1300 879L1304 880L1302 878L1304 873L1314 884C1312.41 879.719 1310.37 875.693 1315 873C1317.09 880.249 1321.35 884.572 1328 888L1327 881L1330 881L1333 896C1336.85 896.07 1338.38 897.584 1340 901C1343.73 900.779 1347.16 901.084 1348 897L1351 895C1352.22 897.915 1360.32 910.489 1363.65 904.562C1365.72 900.892 1364.03 893.387 1365 889L1366 889L1368 892L1367 885L1369 888L1370 888L1369 883L1377 892L1378 883L1381 884L1374 863L1392.55 857.678L1390 846L1397 851L1398 850L1397 844C1405.82 854.179 1410.79 852.191 1422 856L1418 847C1432.83 846.284 1425.38 840.6 1425 831C1420.96 827.1 1420.97 821.439 1421 816L1434 816L1428 798L1420 791C1424.04 792.921 1434.79 802.549 1438.92 796.475C1441.78 792.259 1430.62 783.187 1428.42 779.985C1419.66 767.189 1402.56 744.337 1404 728L1405 728C1409.26 737.556 1415.32 762.043 1427 764L1424 750L1434 759L1435 758L1434 755L1437 755L1443 741L1449 741C1452.35 748.013 1459.67 750.014 1463 742L1465 743L1466 742C1464.72 733.586 1465.03 729.894 1470 723L1462 716L1464 705L1492 708C1491.8 701.662 1488.26 694.387 1481 696C1480.28 691.693 1480.42 686.854 1485 688C1487.13 685.003 1491.1 682.287 1492.38 678.846C1495.5 670.437 1480.29 672 1476 672L1476 667L1457 664L1457 663L1474 660L1466 653L1470 652L1459 641L1455 643L1452 637C1455.29 635.567 1463.04 628.413 1456.84 625.603C1452.68 623.719 1446.28 625.205 1442 626L1445 617L1444 605C1447.78 604.984 1466.57 597.63 1459 596L1460 591C1467.64 595.131 1473.38 609.939 1479.02 616.985C1489.92 630.613 1507.91 643.63 1524 649L1524 645L1544 652L1544 649C1549.39 648.813 1557.38 650.174 1558.34 642.995C1559.56 633.907 1548.31 626.06 1543.33 620C1533.11 607.553 1530.63 591.804 1523 578L1525 575L1530 576L1531 572C1526.49 569.927 1523.09 566.893 1529 564C1526.86 556.128 1519.57 552.106 1527 545L1531 548C1532.72 541.05 1539.67 544.757 1545 545L1545 540C1548.06 540.388 1553.66 539.732 1553.08 535.194C1552.75 532.569 1549.45 531.365 1548.61 528.896C1547.75 526.322 1549.31 523.696 1548.55 521.015C1547.06 515.775 1542.81 511.997 1541.22 507.001C1536.91 493.442 1539.52 479.509 1548 469L1545 468L1545 467C1548.31 465.128 1551.16 462.353 1555 461.572C1559.35 460.687 1564.61 462.486 1568.55 459.686C1572.74 456.714 1569.25 449.984 1566 448L1580 441C1577.3 436.717 1564.67 430.727 1573 426C1568.43 417.269 1557.34 418.206 1549 416L1554 412L1552.17 401.773L1545 397C1552.49 394.593 1557.07 387.329 1554 380C1547.1 379.687 1551.83 374.203 1548.25 370.619C1544.81 367.163 1535.33 370.978 1532 373C1532 371.738 1530.92 367.378 1531 367C1531.47 364.865 1535.58 362.467 1534 359C1530.98 352.366 1521.59 360 1519 360C1517.7 360 1517.57 357.392 1520 358C1520.06 355.124 1522.1 344.207 1517.01 344.207C1514.39 344.207 1512.86 350.57 1510.88 352.211C1505.11 356.982 1494.52 362.133 1487 361L1489 357L1484 356L1487 349C1483.13 346.094 1481.13 343.158 1476 344L1476 337L1480 338L1485 319L1472 318C1476.25 313.66 1481.51 309.337 1482 303L1470.53 291.062L1455 284L1456 279L1452 273L1437 270L1444 258L1440 260L1446 252L1445 249L1423 260C1427.68 255.495 1431.94 251.657 1433 245L1419 252L1417 247L1412 246C1414.67 240.967 1412.95 237.978 1411 233L1403 236L1402 232C1394.31 234.027 1385.61 229.94 1380 237L1379 237L1372 237L1369 232C1372.49 225.376 1367.88 218.81 1371.98 212.286C1374.49 208.299 1379.12 206.292 1381.95 202.625C1392.98 188.381 1405.21 164.084 1402 146L1399 148L1404 129L1402 127L1398 128L1397 120C1381.57 118.19 1373.36 139.897 1364.25 149.975C1360.45 154.167 1354.24 156.268 1353 162L1348 161L1346 168L1343 166L1343 161L1337 163C1337.78 170.918 1328.72 162.503 1328 172L1324 176C1316.84 169.254 1315.59 164.475 1316 155L1313 158L1312 158C1307.05 147.361 1301.44 154.282 1299 162L1298 162L1296 158L1295 158L1285 170L1283 168L1282 168L1280 174L1279 174L1275 171C1273.28 175.283 1260.47 180.208 1256.23 176.995C1253.62 175.015 1253.52 170.442 1251 168L1251 176C1244.87 172.465 1244.2 154.27 1236.09 158.198C1233.07 159.66 1231.07 162.512 1228 164L1223 155L1213 167L1210 163L1207 183L1203 181C1199.17 184.691 1195.74 184.937 1197 191L1178 189L1180 196C1169.05 196.039 1171.09 200.599 1174 209L1152 226L1149 215L1144 220L1143 220L1144 215L1143 214C1137.01 217.103 1131.21 225.678 1129 232L1127 232L1136 209C1123.83 205.926 1116.74 217.085 1109 224L1109 198L1100 197L1091 205L1092 193L1084 208C1085.78 203.125 1088.35 196.109 1083 193L1082 200L1080 200L1080 195C1072.02 200.991 1075.47 215.059 1065 221L1071.39 204.961L1078 173C1067.54 176.273 1071.53 195.743 1058 196L1065.48 171.209L1061.72 163.957L1061 146L1048 166C1051.79 154.018 1066.13 136.817 1061 124L1056 126L1057 117L1054 118L1046 113L1033 120C1035.26 113.79 1032.43 109.856 1033.29 104C1034.01 99.145 1036.3 96.2724 1035.71 91.0046C1035.22 86.711 1032.34 84.0253 1028 86.017C1016.86 91.1212 1017.5 104.15 1008 111L1007 104L999 116C999.383 111.15 1001.74 105.072 997 102L993 119L992 119L995 92L994 91C987.691 94.0278 982.924 100.341 981 107L980 107L983 95L969 113L965 146L963 133L959 136C954.738 127.15 949.544 132.933 943.468 129.583C939.645 127.475 939.895 120.714 939 117L935 123L932 117L930 117L927 140L926 140L921 136C921.213 133.345 919.893 126.84 915.969 130.623C911.437 134.993 914.768 140.736 908 144C911.607 137.517 915.12 111.374 904 110L901 96L895 96L893 104L888 89L885 89L884 111L882 108L866 99L866 108L864 108C863.563 104.165 862.658 102.398 859 101L860 128L854 125L856 142C850.915 141.065 848.096 142.576 849 148L843 142L844 149L826 135L826 139L825 139L820 135L823 160L820 161L816 156L818 183L816 183C811.27 170.023 808.7 162.194 800 151L799 151L794 157L793 152L791 152C789.481 159.435 792.971 165.894 794.262 173C797.596 191.359 798.569 213.464 786 228L782 217L769 238L768 219L760 224L760 219L749 219L742 230L738 230L736 219L732 230L724 228C729.852 213.415 716.351 208.513 705 209L706 213L698 201C692.521 206.366 697.923 212.44 698 219L693 220L691 217L693 222L690 232C686.482 230.636 683.478 228.347 681 232L672 228L673 222L670 222C668.448 212.437 675.228 198.325 681 191L681 190C676.656 181.296 681.637 174.842 681.541 166C681.455 158.078 678.417 150.759 678.04 143C677.433 130.505 681.162 117.404 677.567 105.039C676.488 101.326 672.945 99.2998 671.163 95.9854C668.682 91.3704 668.725 86.0948 664 83L663 93L657 80C656.741 73.9642 657.186 65.7783 655.427 60.0439C653.235 52.8928 648.282 57.1504 647 62L646 62L637 47L633 47M652 51L653 52L652 51z"/>
<path style="fill:#fefefe; stroke:none;" d="M1031.33 94.6667L1031.67 95.3333L1031.33 94.6667M895.333 98.6667L895.667 99.3333L895.333 98.6667M991.333 119.667L991.667 120.333L991.333 119.667M1054 126L1051 132C1054.11 131.337 1055.17 128.852 1054 126z"/>
<path style="fill:#030303; stroke:none;" d="M841 140L840 142L842 142L841 140z"/>
<path style="fill:#fefefe; stroke:none;" d="M921 141L924 148L924 141L921 141M607.333 142.667L607.667 143.333L607.333 142.667z"/>
<path style="fill:#030303; stroke:none;" d="M785 147L785 148L788 149L785 147M579 155L580 156L579 155z"/>
<path style="fill:#fefefe; stroke:none;" d="M847 157L846 162L848 162L847 157M795 158L794 162L795 158M963.333 160.667L963.667 161.333L963.333 160.667M565 176L566 177L565 176M565 178L566 179L565 178M816 185L817 186L816 185z"/>
<path style="fill:#030303; stroke:none;" d="M1079 191L1080 192L1079 191z"/>
<path style="fill:#fefefe; stroke:none;" d="M706 213L706 216L707 216L706 213M692 220L693 221L692 220M697 220L698 221L697 220M1142 221L1141 224L1142 221M701 225C699.415 227.499 699.486 228.396 702 230L701 225M669 236L672 233L669 236M1135 234L1134 240L1135 234z"/>
<path style="fill:#030303; stroke:none;" d="M379 242L379 245L380 245L379 242z"/>
<path style="fill:#fefefe; stroke:none;" d="M382 261L383 262L382 261M1422 261L1423 262L1422 261M1419 264L1422 264L1421 262L1419 264M784 265L780 272L784 272L784 265M1411 267L1412 268L1411 267M468 269L473 276L468 269z"/>
<path style="fill:#030303; stroke:none;" d="M372 301L373 302L372 301z"/>
<path style="fill:#fefefe; stroke:none;" d="M368 323L369 324L368 323M371 327L372 328L371 327M344.333 334.667L344.667 335.333L344.333 334.667M1473 363L1473 364L1485 363L1473 363M352 371L353 372L352 371M1529 375L1530 376L1529 375z"/>
<path style="fill:#030303; stroke:none;" d="M1555 379L1556 380L1555 379z"/>
<path style="fill:#fefefe; stroke:none;" d="M1567 427L1568 428L1567 427M1565 429L1566 430L1565 429M1567.33 429.667L1567.67 430.333L1567.33 429.667z"/>
<path style="fill:#030303; stroke:none;" d="M384 440L385 441L384 440z"/>
<path style="fill:#fefefe; stroke:none;" d="M388 443L389 444L388 443M380 448L382 452L380 448M421 455L421 456L432 464L421 455M373.333 464.667L373.667 465.333L373.333 464.667z"/>
<path style="fill:#030303; stroke:none;" d="M1550 471L1550 472L1554 472L1550 471z"/>
<path style="fill:#fefefe; stroke:none;" d="M1527 471L1528 472L1527 471z"/>
<path style="fill:#030303; stroke:none;" d="M341 481L342 482L341 481z"/>
<path style="fill:#fefefe; stroke:none;" d="M365 539L365 543L368 539L365 539M346 543L355 548C352.823 543.94 350.67 541.969 346 543M1521 547L1522 548L1521 547M1523 575L1524 576L1523 575M1439.33 613.667L1439.67 614.333L1439.33 613.667M1436 614L1434 618L1438 615L1436 614M348 617L349 620L350 620L350 617L348 617M320 682L320 683L323 684L323 681L320 682M324 720L325 721L324 720M1399 723L1400 724L1399 723M1401.67 727.333L1402.33 727.667L1401.67 727.333M1459 734L1462 737L1459 734z"/>
<path style="fill:#030303; stroke:none;" d="M1468.67 743.333L1469.33 743.667L1468.67 743.333z"/>
<path style="fill:#fefefe; stroke:none;" d="M286 761L289 764L286 761M291.667 763.333L292.333 763.667L291.667 763.333z"/>
<path style="fill:#030303; stroke:none;" d="M1440.67 799.333L1441.33 799.667L1440.67 799.333z"/>
<path style="fill:#fefefe; stroke:none;" d="M1419 815L1420 816L1419 815M691 825L692 826L691 825M695 827L696 828L695 827M699 840C691.522 843.86 696.767 854.256 693 860L698 864C696.416 870.752 699.762 885.936 707 888L717 869L713 870L716 863C714.012 864.062 712.149 865.538 710.079 866.428C705.773 868.28 698.281 867.181 699.07 860.985C699.977 853.866 710.677 840.674 707.356 833.337C704.944 828.007 698.474 836.435 699 840M1422 831L1423 832L1422 831z"/>
<path style="fill:#030303; stroke:none;" d="M696 851L697 852L696 851z"/>
<path style="fill:#fefefe; stroke:none;" d="M690 859L691 860L690 859M1373.33 860.667L1373.67 861.333L1373.33 860.667z"/>
<path style="fill:#030303; stroke:none;" d="M702 880L704 882L702 880z"/>
<path style="fill:#fefefe; stroke:none;" d="M582 891L584 893L584 891L582 891M390 895L390 898L392 898L392 895L390 895M736.667 895.333L737.333 895.667L736.667 895.333M578 903L579 904L578 903M372.333 910.667L372.667 911.333L372.333 910.667M404.667 924.333L405.333 924.667L404.667 924.333M417 925L416 928L417 925M719 931L720 932L719 931M1063.67 931.333L1064.33 931.667L1063.67 931.333M1063 933L1064 934L1063 933M1171 933L1174 938L1173 933L1171 933z"/>
<path style="fill:#030303; stroke:none;" d="M692 936L693 937L692 936z"/>
<path style="fill:#fefefe; stroke:none;" d="M795.667 947.333L796.333 947.667L795.667 947.333M1088.67 951.333L1089.33 951.667L1088.67 951.333M991 963L992 964L991 963z"/>
<path style="fill:#030303; stroke:none;" d="M1102 966L1102 968L1104 968L1104 966L1102 966z"/>
<path style="fill:#fefefe; stroke:none;" d="M1006.67 975.333L1007.33 975.667L1006.67 975.333M843 977L842 980L843 977M840 987L841 988L840 987z"/>
</svg>
