<?xml version="1.0" standalone="yes"?>
<svg xmlns="http://www.w3.org/2000/svg" width="1920" height="1080">
<path style="fill:#fcfcfc; stroke:none;" d="M0 0L0 1080L598 1080L600 1069L603 1070C607.701 1051.06 625.016 1044.61 638.985 1033.33C646.693 1027.11 652.489 1018.51 660 1012L660 1011C649.219 1014.02 641.659 1025.86 632.911 1032.65C628.795 1035.84 623.509 1036.38 619 1038.88C608.095 1044.9 597.707 1052.58 586.184 1057.21C580.007 1059.69 577.834 1067.6 570 1066L571 1072L566 1072L569 1064C560.409 1065.42 554.827 1071.36 551 1079L550 1079C551.137 1070.6 559.99 1052.84 567.108 1048.01C573.719 1043.51 582.96 1042.58 589.946 1038.27C596.152 1034.45 601.713 1029.08 608 1025.05C615.516 1020.23 629.938 1010.99 617 1003L617 1008L602 1012C608.774 994.516 628.932 990.136 640.455 977.545C648.666 968.573 648.615 955.676 657 948L656 945C648.414 948.643 638.057 968.948 638 949C641.41 948.737 642.901 948.321 644 945L637 945C634.513 948.5 632.438 950.858 628 951L627 955L626 955L626 951L620 956L624 943C630.51 942.168 636.744 939.496 639 933L636 931C643.516 931.136 644.982 928.288 643 921L642 921L641 925L640 925L629 897L627 899L624 897L613 908L612 908L612 903L607 902L602 912L598 907L600 920L596 917L594 937L593 937L590 935L590 944C578.247 945.924 590.84 970.477 591 978L589 975L585 976L582 971C582.163 978.894 580.706 994.029 585 1000L581 1004C576.223 1000.02 568.993 993.275 568 987L567 987L565 1014L556 1015L553 1001L543 1010L543 995C538.773 994.228 535.79 993.552 534 998C530.445 995.07 528.912 991.622 529 987L525 986L517 989L517 993L513 996L513 989L511 989C508.302 995.778 500.312 1003.56 503 991C498.716 993.612 498.459 998.32 498 1003L495 1001L495 1011L490 1011L490 1012L503.571 1037L504 1055L498 1064L496 1064L491 1057L492 1067L484 1066L484 1065L487 1064L487 1063L480 1056C476.619 1057.33 474.605 1056.39 472 1054L468 1055L467 1040L461 1050L460 1050L456 1037L453 1040L447 1043C446.866 1046.25 446.102 1047.05 443 1048L442 1032L441 1032L436 1048L435 1045L427 1045L424 1048L427 1039L422 1040C422.141 1035.7 422.818 1033.54 427 1032L427 1031L425 1029L420 1024L423 1023L424 1018L414 1022C414.489 1017.41 422.782 1012.76 418 1009C416.678 1011.6 415.235 1013.78 413 1011C404.353 1015.58 405.351 1023.63 403 1032L401 1023C388.909 1027.99 396.772 1009.75 397.343 1005.09C397.773 1001.58 396.228 998.66 397 995L382 1012C380.298 1003.71 377.809 995.416 385 989L384 983L366 1006C368.811 999.337 369.747 991.218 363 987L364 990L360 985L349 991C347.583 984.965 346.325 978.357 340 976L340 973L328 973L329 970L321 969C325.903 963.459 331.86 958.275 339 956L342 936L338 938L341 923L326 933L326 936L320 933C326.654 930.737 334.866 922.061 336 915L340 916L345 903L334 912L330 911L323 920L332 896C325.264 899.015 314.917 893.676 324 888C321.531 883.568 318.402 885.092 314 885C311.731 890.091 307.042 890.181 303.994 894.183C297.486 902.728 300.768 911.25 288 914L289 910L282 911L282 909L285 908L285 907L276 904L276 903L289 879L279 882C276.803 874.159 277.864 870.068 286 874L286 870L293 867L296 868L293 865L291 866C287.283 869.32 285.844 865.272 284 862L281 866L276 864C276.642 859.961 275.914 857.558 272 856L272 854L282.317 842.136L292.956 844.458L302 836L300 833C294.425 841.032 282.796 836.543 279 829L289 824L289 823L279 828L278 828L273 825C268.547 829.993 264.234 828.234 261 823L280 819L281 811L270 809L269 809L265 812C265.57 806.761 266.329 804.62 272 806C271.49 799.299 262.452 792.837 258 800C252.202 796.368 247.495 795.364 241 798C236.062 789.219 225.427 796.198 219 791L213 795L214 789L209 788L220 775C219.694 768.998 222.531 766.121 228 764L227 759L232 755L236 756L237 751L228 750C227.696 746.171 226.795 744.827 223 744L223 735L207 736L207 731C200.538 731.429 195.987 736.909 190 733C198.125 727.283 188.581 724.116 183 724C188.87 717.336 200.417 721.903 203 713L214 712L213 709L216 710L215 705L219 702L202 700L202 698L210 696L212 690L198 690L195 685L210 684L211 683C209.094 678.607 206.799 676.546 202 676L202 666C211.585 664.795 217.055 667.832 225 673C224.601 664.387 210.15 657.664 204.302 652.135C200.64 648.672 200.655 645.437 195 645C198.671 641.682 205.712 642.722 209.715 645.603C217.905 651.498 226.976 664.096 238 664L234 655L267 669L268 668L264 664L268 660L264 653L286 665L290 655L292 656L290 637L288 639L287 639L286 633L291 632L298 634L298 633C294.206 630.045 292.879 625.682 289.53 622.653C285.247 618.779 279.756 620.706 280 613L284 614C283.515 607.636 273.1 601.026 267 600C270.205 593.389 287.195 598.65 294 596L291 593L293 589L300 589C300.353 592.364 300.418 595.236 304 596L304 592L318 592L304 571L308 572C306.103 567.085 305.097 561.783 299 562L298 559L287 564L285 564L282 557L275 560L271 556L271 554C274.999 552.822 285.794 549.324 285.793 544.064C285.793 541.549 273.528 529.268 271 527L279 525L260.776 500.468L250 489L255 488L253 481C259.429 482.635 269.845 487.428 273 480L276 482L274 478C276.941 478.856 279.196 480.656 280 477L283 479L300 483.617L324 474L321 469L321 468L327 464L328 464C332.485 466.272 337.869 460.816 340 457C347.481 457.788 356.652 443.842 355 437L350 438L363 428C362.864 422.383 361.363 418.122 355 419C358.754 431.504 334.941 437.709 330 448L318.014 452.583L306.996 455.803L290.015 463.871L281.451 457.193L271 456C268.699 452.763 263.295 451.459 262 456L259 454L257.299 435L266.253 418.586L263 410L281 404C277.243 397.724 271.518 400.542 266 403L265 394L264 394C263.25 398.502 259.184 398.263 260 395L258 396L258 395L257 391L261 387L260 392C270.967 394.531 266.002 381.15 273 379C271.878 381.66 271.606 382.333 274 384L280 372L280 371L276 371L274 349L275 349C278.233 354.676 281.691 361.16 289 360L287 351L282 352L284 348L285 338L295 339L296 339L296 323L297 323L301 328L298.976 318.26L289 307C292.781 306.223 296.532 304.424 299 308L305 310L313 307L313 308L309 308L311 320L312 320L313 315L316 311L314 312L314 309L318 310L317 300L318 299L324 302L327 283L329 283L332 288C333.834 282.453 334.477 280.543 340 284C337.892 270.944 322.055 262.388 310 259L315 252C312.776 246.449 298.732 249.591 302 244L302 243L308 227L307 232L308 232L310 230C310.746 222.4 316.43 226.003 321.057 222.856C326.889 218.89 324.678 206.737 335 212L336 212L339 209L344 214L344 199L351 204C355.109 197.474 351.863 192.254 352 185L353 185L355 190L356 190L361 186L376 179L379 180L381 177C385.759 184.906 398.74 184.879 400 196L403 195L402 189L406 192L408 192L406 179L410 184L411 184L409 179L409 178C420.128 173.024 431.375 191.722 433.682 201C434.651 204.896 433.285 209.093 435.009 212.87C436.221 215.523 438.55 216.71 441 218L441 216C444.433 218.392 446.166 218.725 450 217L448 211C454.61 211.822 462.272 219.724 464 226C470.52 221.309 457.453 210.778 453 208L456 199L457 199L467 206L468 206L471 204L475 208L471 187C478.186 184.707 472.638 177.488 473 172L478 176L474 159L470 159L466 141L473 146L475 146L477 141L478 141L480 144L475 124L482 128L481 121L485 134L493 137L494 136L492 115C496.631 116.878 497.732 119.329 499 124L501 124C502.483 118.423 499.31 114.892 497 110L504 108L515 106L522 106L519 104L520 88L522 88L523 96L530 96L527 83C540.606 88.4606 538.468 104.613 539 117L541 117L541 110L551 128L553 128L556 123L557 123L561 135L562 135L564 121L568 122L569 118C573.545 124.326 566.939 133.106 574 137C575.896 130.209 578.411 123.642 580.336 116.961C581.671 112.328 579.065 108.748 584 106L588 120L589 120L590 111L591 115L592 115L588.194 97L594 77L595 77L594 88L600 90C599.421 73.2954 598.696 54.1078 603.992 38.0039C607.732 26.6285 614.973 20.0087 616 7L619 9L622 0L0 0z"/>
<path style="fill:#040404; stroke:none;" d="M622 0L619 9L616 7C614.439 19.3439 607.633 26.082 603.992 37.0146C598.675 52.9781 598.737 73.4164 600 90L594 88L595 77L594 77L588.12 98L592 115L591 115L590 111L587 112L589 120L588 120L584 106C578.688 107.765 581.303 111.598 580.262 115.985C578.558 123.161 575.366 129.407 574 137L569 118L568 122L564 121L562 135L561 135L557 123L556 123L553 128L551 128L541 110L541 117L539 117C538.757 105.21 540.972 86.9045 527 83L530 96L523 96L522 88L520 88L519 104L522 106L515 106L504 108L503 105L497 110L501 124L499 124C498.015 119.029 497.146 116.388 492 115L494 136L493 137L485 134L481 121L482 128L475 124L480 144L478 141L477 141L475 146L473 146L466 141L470 159L474 159L478 176L473 172C471.863 177.821 477.789 183.678 471 187L475 208L471 204L468 206L467 206L457 199L456 199L453 208C457.284 211.835 468.722 220.312 464 226C462.953 219.204 454.897 211.301 448 211L450 217L441 216L441 218C438.296 216.037 435.736 214.315 434.653 210.982C433.491 207.407 434.575 203.591 433.682 200C431.523 191.317 419.538 170.968 409 178L409 179L411 184L410 184L406 179L408 192L406 192L402 189L400 196C399.564 185.062 386.986 183.771 381 177L379 180L376 179C371.351 183.3 363.369 178.34 361 186C357.707 185.931 356.946 186.859 356 190L355 190L353 185L352 185L351 204L344 199L344 214L339 209L336 212L335 212C325.978 205.201 325.687 218.362 321.057 222.201C316.719 225.797 309.31 222.026 310 230L308 232L307 232L308 227L302 243L302 244C297.101 248.322 312.641 248.123 315 252L310 259C322.208 263.573 336.247 271.109 340 284C334.515 279.61 333.44 282.289 332 288L329 283L327 283L324 302L318 299L317 300L318 310C315.289 309.423 314.605 309.232 314 312L316 311L313 315L312 320L311 320L309 308L313 308L313 307C309.201 306.32 307.488 307.071 305 310L299 308C297.96 303.148 292.563 305.982 289 307L298.411 318.26L301 328L297 323L296 323L296 339L295 339C292.424 336.053 288.51 337.165 285 338L284 348L282 352L287 351L289 360C281.705 360.147 279.11 354.182 275 349L274 349L276 371L280 371L280 372L274 384L271 383L273 379C265.065 380.325 270.933 392.989 260 392L261 387L257 391L258 396L260 395C260.515 398.69 263.266 396.589 264 394L265 394L266 403C271.919 401.071 276.23 398.864 281 404L263 410L265.838 417.776L260.148 423.708L257.188 434L259 454L262 456C264.041 451.872 268.018 453.365 271 456L280.701 457.268L290.015 464.282L317.999 453.07L330 448C335.876 439.473 359.563 430.595 355 419C360.86 419.136 362.698 422.486 363 428C357.517 429.49 352.943 433.17 350 438L355 437C355.877 443.901 347.189 456.622 340 457C337.211 460.326 332.57 465.439 328 464L327 464L321 468L321 469L324 474L300 483.278L283 479L280 477L279 480L274 478L276 482L273 480C268.971 486.401 259.755 481.949 253 481L255 488L250 489L260.776 501.301L279 525L271 527C273.356 529.851 284.943 541.571 284.944 544.064C284.947 549.023 274.691 552.498 271 554L271 556L275 560L282 557L285 564L287 564L298 559L299 562C304.778 562.165 305.679 567.602 308 572L304 571C305.712 581.086 310.856 585.002 318 592L304 592L303 589L302 589L304 596L300 589L293 589L291 593L294 596C287.635 597.727 268.794 593.309 267 600C272.733 601.73 283.049 607.909 284 614L280 613C278.688 620.99 285.163 619.241 289.491 623.447C292.86 626.721 293.513 630.635 298 633L298 634L291 632L286 633L287 639L288 639L290 637L292 656L290 655L286 665C278.662 660.587 273.135 653.499 264 653L268 660L264 664L268 668L267 669L234 655L238 664C225.954 663.397 218.888 649.011 208.83 644.588C204.663 642.755 197.928 640.874 195 645C200.089 645.805 200.373 648.75 203.559 652.135C209.237 658.166 223.809 664.332 225 673C218.085 666.831 211.12 664.308 202 666L202 676L211 683L210 684L195 685L198 690L212 690L210 696L202 698L202 700L219 702L215 705L216 710L213 709L214 712L203 713C198.523 722.288 188.182 715.712 183 724C189.246 724.273 196.313 726.599 190 733C195.229 738.257 200.904 731.798 207 731L207 736L223 735L223 744L228 750L237 751L236 756L232 755L227 759L228 764C221.9 765.451 219.038 768.725 220 775L209 788L214 789L213 795L219 791L241 798C247.836 796.156 251.679 797.31 258 800C263.349 794.51 270.939 799.187 272 806C265.778 803.568 264.946 806.388 265 812L269 809L270 809L281 811L280 819L261 823C263.333 828.547 269.498 830.989 273 825L278 828L279 828L289 823L289 824L279 829C281.78 836.864 295.713 842.006 300 833L302 836L292.956 843.978L281.6 842.043L272 854L272 856C275.413 858.079 276.08 860.055 276 864L281 866L284 862C286.212 868.637 291.871 870.646 293 865L296 868L293 867L286 870L286 874C277.867 868.176 276.148 874.382 279 882L289 879L276 903L276 904L285 907L285 908L282 909L282 911L289 910L288 914C301.341 912.165 297.718 902.724 304.559 894.237C307.811 890.203 312.413 890.809 314 885L324 888C313.869 892.299 324.896 900.741 332 896L323 920C327.243 918.603 328.904 915.16 330 911L334 912L345 903L340 916L336 915C334.005 921.871 326.261 929.75 320 933L326 936L326 933C332.943 932.491 336.701 927.981 341 923L338 938L342 936L339 956C331.77 957.398 324.877 962.827 321 969L329 970L328 973L340 973L340 976C345.771 979.281 346.995 985.041 349 991L360 985L364 990L363 987C369.311 992.558 368.375 998.506 366 1006L384 983L385 989C377.408 993.612 379.765 1004.84 382 1012L397 995C395.999 998.486 397.066 1000.73 397.016 1004.17C396.961 1007.94 388.88 1030.91 401 1023L403 1032C406.22 1023.4 405.017 1017.22 413 1011C414.078 1016.01 417.415 1012.25 418 1009L414 1022L424 1018L423 1023L420 1024L425 1029L427 1031L427 1032C422.296 1033.03 422.053 1035.54 422 1040L427 1039L424 1048L427 1045L436 1048L441 1032L442 1032L443 1048C446.49 1047.42 447.547 1046.56 447 1043L453 1040L456 1037L460 1050L461 1050L467 1040L468 1055L472 1054C474.186 1057.07 476.744 1058.01 480 1056C481.77 1059.66 482.798 1062.27 487 1063L487 1064L484 1065L484 1066L492 1067L491 1057L496 1064L498 1064L504 1055C503.023 1038.52 502.389 1024.85 490 1012L490 1011L495 1011L495 1001L498 1003L503 991C499.45 1003.38 508.549 997.453 511 989L513 989L513 996L517 993L517 989C520.511 989 524.146 989.987 525 986L529 987C528.682 991.676 529.75 995.681 534 998C536.384 994.151 538.779 994.515 543 995L543 1010L553 1001L556 1015L565 1014L567 987L568 987C568.498 993.419 575.613 1000.81 581 1004L585 1000L584.246 986.286L582 971L585 976L589 975L591 978C590.932 969.913 578.651 947.15 590 944L590 935L593 937L594 937L596 917L600 920L598 907L602 912L607 902L612 903L612 908L613 908L624 897L629 897L640 925L641 925L642 921L643 921C644.421 928.145 643.342 930.221 636 931L639 933C635.873 938.903 630.362 941.571 624 943L620 956L626 951L626 955L627 955L628 951C632.727 951.148 635.013 949.198 637 945L644 945L638 949C638.013 969.232 648.419 950.499 656 945L657 948C650.988 951.759 652.232 956.203 650.087 962C648.295 966.843 644.171 971.737 641.12 975.871C630.985 989.605 606.476 993.172 602 1012L617 1008L617 1003C628.768 1013.91 612.972 1021.16 604 1027C598.754 1030.42 594.247 1035.13 588.982 1038.27C582.087 1042.38 572.527 1043.4 566.225 1048.01C559.222 1053.12 550.697 1070.47 550 1079L551 1079C556.157 1071.97 560.523 1066.58 569 1064L566 1072L571 1072L570 1066L572 1068L586.184 1057.56L620 1038.88L632.911 1033.36L660 1011L660 1012C652.014 1016.59 646.756 1025.62 639.961 1031.7C626.581 1043.68 605.87 1049.86 603 1070L600 1069L598 1080L602 1073L603 1073L604 1078L610 1077C616.268 1085.69 622.333 1075.33 628.018 1073.18C632.031 1071.66 636.815 1071.91 641 1071L635 1080C641.727 1080 646.279 1079.94 649 1073L657 1075L655 1080C664.56 1079.83 673.43 1082.58 675 1071L684 1071L680 1080C700.463 1078.61 721.476 1080 742 1080C746.518 1080 759.771 1082.25 762.821 1078.4C768.51 1071.21 757.908 1064.07 759 1057L766 1059L765 1064L770 1064L768 1080C771.143 1080 776.779 1081.05 779.397 1078.97C782.001 1076.91 779.82 1073.31 781.461 1070.95C784.766 1066.2 788.743 1078.03 789 1080L874 1080L873 1073L880 1067L880 1071L886 1068L882.708 1058.02L896 1044L892 1033L898 1028L899 1028L901 1044L907 1037C909.296 1047.02 899.583 1051.52 896 1060C899.367 1059.6 903.771 1060.22 906.907 1059.05C918.863 1054.62 916.851 1039.55 915 1030L916 1030L919 1035L923 1029L924 1039L928 1035L933 1040L941 1037C936.137 1046.31 930.732 1056.18 943 1063C935.146 1067.06 930.039 1070.66 929 1080L941 1076L941 1080L944 1080L947.073 1066L944.149 1052L948.941 1034L944 1020L948 1026L951 1025C952.489 1030.57 953.775 1035.98 959 1039L953 1048C963.724 1050.43 966.479 1049.3 971 1040L974 1044C975.285 1036.77 980.588 1030.03 981.412 1023C982.011 1017.9 977.219 1014.14 983 1011L993 1027L999 1025L1000 1028L990.874 1036.91L974 1056L978 1054C980.18 1057.34 982.145 1057.71 986 1057C988.526 1061.32 991.234 1061.77 996 1061L995 1080L1002 1080L1002 1071L1015 1080L1020 1080L1018 1073L1024 1075L1027 1068L1024 1064L1024 1063L1038 1055L1035 1061L1042 1070C1035.24 1070.2 1030.78 1072.98 1030 1080L1050 1080L1052 1061L1053 1061C1054.98 1067.02 1056.82 1069.32 1063 1071L1061 1074L1068 1080L1119 1080C1115.34 1061.19 1089.92 1058.56 1087 1040L1091 1040L1086 1025L1089 1019C1095.87 1020.39 1100.62 1018.82 1105 1025L1107 1021L1104 1020L1114 1013C1115.69 1006.13 1114.47 999.135 1120 994C1120.26 1002.08 1123.51 1012.45 1133 1011C1129.84 1021.82 1140.63 1019.63 1146.53 1025.41C1149.97 1028.79 1151.28 1034.3 1156 1036C1153.36 1023.31 1146.04 1019.72 1139 1010L1145 1008L1138 1004C1139.69 1000.79 1141.22 998.205 1137 997L1138 987L1132 988L1136 977C1142.19 981.512 1148.12 984.314 1151.04 992C1152.41 995.587 1151.22 1000.33 1153.06 1003.54C1162.17 1019.44 1174.82 1030.32 1171 1050L1172 1051L1174 1051L1177 1041C1182.68 1041.87 1181.35 1037.32 1177 1036C1178.16 1030.57 1183.14 1022.87 1176 1020C1178.13 1011.76 1171.52 1008.25 1169 1001C1179.74 1000.26 1188.19 1000.14 1185 1014L1189 1018L1193 1017L1198 1028L1196 1013C1192.29 1010.86 1192.63 1007.97 1193 1004L1203 1016L1205 1016L1206 1012C1212.28 1017.78 1223.7 1022.83 1224 1032L1226 1032L1226 1023L1229.67 1043L1238 1080L1240 1080L1242.61 1066L1239 1045L1240 1045L1244 1064L1248 1063L1248 1054L1253 1055L1253 1060L1254 1060L1260 1044L1258 1021L1262 1021L1266 1042L1268 1042L1272 1031C1275.86 1032.9 1278.22 1032.5 1279 1028L1283 1029L1284 1036L1287 1034L1291 1036L1292 1029L1294 1032L1301 1034C1302.32 1024.45 1294.91 1009.68 1291 1001C1294.57 1003.28 1297.72 1009.9 1301 1005L1302 1008L1308 1008L1305 1004L1309 997L1322 1000.35L1336 1007L1342 1017C1341.95 1003.12 1335.34 1001.73 1327.04 992.811C1324.08 989.626 1323.34 985.588 1320.93 982.148C1319.06 979.498 1315.75 979.675 1313.83 977.401C1311.71 974.895 1310.48 966.375 1310 963L1319 970L1322 969C1323.68 975.381 1330.56 980.574 1336 984L1337 979L1344 981L1344 986C1348.72 986.199 1352.23 987.476 1355 983L1357 988L1363 982C1359.15 979.675 1358.63 976.286 1359 972L1366 975L1368 965L1369 965L1382.83 968.158L1397 974L1408 963C1408.76 966.582 1411.64 966.647 1415 967L1413 959L1417 961L1418 953C1423.35 953.83 1424.82 952.353 1425 947L1416 941L1415 941L1414 944L1413 944L1414 938L1428 936C1422.65 926.394 1422.62 925.709 1429 917L1430 917L1432 920C1428.08 922.16 1427.83 924.864 1429 929C1433.27 927.85 1434.66 926.155 1436 922C1442.93 924.75 1444.1 925.044 1448 932L1449 932C1451.67 927.096 1455.46 924.602 1461 924L1461 915L1460 915L1453 918L1453 911C1456.22 912.169 1457.98 912.576 1459 909L1465 914L1466 914L1460 898L1465 900L1466 896L1473 899L1474 893C1469.38 890.424 1465.4 887.229 1464 882L1478 877L1472 872L1472 871L1483 867L1484 876L1489 876C1487.84 870.212 1487.29 862.208 1494.05 859.302C1500.3 856.616 1506.12 861.196 1508 852C1518.2 850.377 1512.07 842.36 1512 836L1518 838C1519.23 836.767 1532.21 833.585 1525 832L1525 831L1532 829L1532 836L1534 836L1535 813L1536 813L1536 818L1540 814L1532.83 802L1521.17 790.833L1514.67 781.5L1501 781.5L1482 779L1454 784L1460 780L1460 779L1455 778L1458 771L1459 771L1481 765L1488 766C1491.22 760.423 1496.6 763.121 1502.01 762.95C1509.04 762.728 1517.56 760.747 1524 758L1524 760L1529 758L1525 749L1511 746L1509 741L1516 743C1513.94 738.042 1511.54 733.179 1506 732L1506 731L1519 733C1527.67 717.616 1547.4 715.853 1564 716L1563 713L1584 721L1591 716L1592 716C1601.29 722.716 1600.42 695.696 1602 691L1596 681L1586 667L1578 641L1560 619L1557 617L1563 618C1559.21 605.799 1547.1 598.614 1549 584L1555 590C1555.84 587.28 1556.42 584.248 1557.85 581.762C1564.52 570.18 1582 587.74 1590 588L1587 579L1588 579L1592 580L1587.12 570.866L1591.86 561.282L1586 543L1595 546L1589 540L1590 532C1586.62 525.546 1580.51 523.475 1574 521L1574 517L1568 518C1568.03 515.955 1567.37 506.631 1566 513L1565 513L1561 508L1559 504L1559 503L1561 500L1566 500L1563 496C1566.09 492.424 1565.82 489.489 1565 485C1567.52 484.567 1571.05 482.773 1573.56 483.552C1580.98 485.853 1594.64 497.198 1601 486L1598 487L1596 475L1598 478C1602.64 476.27 1609.6 475.243 1613.42 472.028C1618.87 467.431 1624.45 454.544 1616 451C1617.85 445.808 1618.39 442.955 1614 439C1618.25 437.13 1626.65 432.052 1620 428C1620.99 425.013 1623.73 420.92 1623.87 417.911C1624.4 406.799 1618.59 400.15 1611 411L1607 402L1587 408L1585 386L1579 375C1583.8 376.765 1586.94 377.817 1590 373L1593 374L1594 370C1583.31 368.71 1583.88 364.603 1577 358C1583.19 357.216 1579.18 348.836 1578 345C1583.11 342.46 1593.53 337.153 1593 331L1610 330.201L1624 326C1624.44 322.021 1626.15 321.297 1630 321L1636 303C1643.27 300.146 1657.31 291.986 1661 285L1658 284L1668 272L1667 266L1664 269L1659 268L1660 265L1655 264L1655 263L1660 260L1661 263L1662 263L1664 257C1657.88 253.347 1664.33 249.402 1668 247C1663.86 243.477 1660.6 240.844 1655 242L1655 239L1648 242L1653 233L1645 236L1646 230C1641.65 231.878 1639.39 232.96 1636 229L1634 229L1625 233L1625 230L1630 228L1629 224L1625 221L1621 224L1620 224L1620 220L1614 216C1611.31 218.645 1610.79 220.654 1614 223L1614 224L1605 217L1605 221C1600.9 218.84 1598.66 219.112 1596 223L1595 223C1589.89 219.178 1584.04 223.22 1579 225.551C1570.9 229.298 1553.07 236.419 1545 230L1538 235L1537 234L1539 229C1528.56 226.744 1514.6 238.274 1505 231L1489 230.507L1477.62 233.461L1470.73 227.745L1458 228L1462 217L1443 221L1443 217L1421 228L1422 223L1402 224L1401 224C1395.48 220.998 1381.97 226.403 1379 232L1378 232L1382 224L1382 223C1372.12 204.59 1396.23 202.382 1399 187C1407.13 185.373 1407.05 177.645 1407 171C1417.19 168.113 1427.4 149.574 1421 140L1421 139C1432.22 126.29 1439.57 110.048 1443.24 94C1444.54 88.2771 1442.96 75.929 1435.86 73.777C1431.98 72.6024 1426.61 75.7806 1423 77L1424 75L1423 75C1413.06 76.8635 1410.36 85.5125 1403.9 91.8912C1397.94 97.7723 1389.64 101.584 1383.44 107.39C1376.9 113.51 1372.4 122.838 1369 131L1367 127L1356 137L1355 137L1346 144L1346 139L1340 141L1339 137L1335 139C1335 132.32 1339.33 114.764 1334 111L1333 117L1330 113L1326 120L1317 115L1316 115L1313 122L1310 119L1309 119L1303 127L1302 120L1298 120L1297 127L1291 125L1285.49 139.557L1275 150L1274 150C1270.15 139.679 1273.04 135.568 1279 127L1276 116C1271.05 118.717 1269.43 122.445 1270 128L1262 132L1261 132L1247 124C1248.44 120.013 1249.76 116.585 1245 115C1243.94 125.055 1228.08 119.244 1221 120C1219.84 123.716 1217.88 125.022 1214 125L1215 128L1188 127L1188 132L1184 131C1182.94 134.951 1183.63 136.694 1187 139L1187 140C1184.12 143.146 1185.47 144.908 1188 148C1185.45 149.216 1183 151.141 1187 152L1174 166L1174 161C1159.24 169.592 1159.42 150.164 1160 141L1148 155C1147.56 150.398 1151.34 146.179 1147 143C1143.02 153.812 1135.87 163.957 1138 176L1135 173L1130 172L1130 171C1134.92 166.664 1136.03 159.272 1135 153C1139.8 150.607 1142.51 141.905 1136 140L1130 149L1129 149L1128 143L1123 144L1122 133L1119 140C1121.63 131.793 1122.64 122.973 1130 117.43C1133.8 114.574 1139.86 114.686 1143.1 111.273C1145.91 108.307 1146.09 103.475 1148.08 100.015C1154.11 89.5685 1159.54 81.3922 1164 70L1159 66L1160 63L1156 62C1154.46 66.0779 1153.66 68.151 1149 68L1154 54C1147.2 56.3806 1143.46 64.2884 1142 71L1138 69L1138 74L1131.67 65.7168L1124 61C1132.43 56.1454 1133.31 44.709 1134 36L1130 38C1131.23 32.2991 1136.63 24.8793 1132 20L1131 24L1126 23L1126 22L1131 18L1124 16L1126 12L1126 11C1122.73 12.8064 1122.19 14.3816 1123 18L1118 18L1122 7L1118 9L1116 0L1114 0L1114 4L1111 4L1111 0C1100.5 0 1090.29 -2.49133 1083 6L1083 0L974 0L969.989 15L970.543 30.9846L957 44C959.203 38.4811 961.503 35.4854 958 30L957 30L949 36L952 23L940 21L937 33L936 33L930 25L928 36L927 36C923.268 30.0146 919.515 29.326 923 22L916 23C912.3 30.9154 905.978 27.4061 899 30C896.337 26.3555 893.047 28.0215 889 28L901 11L897 10L900 0L891 4L891 0L886 0L887 8L868 20L873 9L866 14L864 9C858.921 12.9764 857.071 17.6572 857 24L847 6L845 6L844 12C841.98 10.2162 834.03 1.59485 831.131 5.64661C829.74 7.59082 831.209 12.5807 831 15L838 20L831 18L828 20L824 17L825 26L823 26L821 21L820 21L823 32L828 31L828 32C806.017 36.9865 818.287 8.71301 819 0C813.338 0.188232 809.069 6.67029 808 12L799 11C798.522 16.7924 797.176 20.3041 791 21L792 24L778 22C777.62 16.4767 777.685 14.0533 772 12L766 26L762 25L766 20L766 13L765 13C760.431 17.7927 757.072 14.4802 752 12L753 10L750 9L751 23L746 21C742.796 27.657 748.574 32.645 755 33L758 48L754 43C747.351 42.6523 747.737 38.4513 743.691 34.4946C739.352 30.252 734.688 29.3972 729 29L731 25C722.56 29.637 730.445 34.1094 727 40C724.271 35.8042 721.327 36.2045 717 38C714.109 32.6583 709.444 32.3154 704 31L698 41L696 41L699 35L692 28L695 0L622 0z"/>
<path style="fill:#fcfcfc; stroke:none;" d="M695 0L692 28L699 35C696.162 36.7411 695.492 37.7008 696 41L698 41L704 31L717 38C721.466 36.7136 723.658 36.5468 727 40L731 25L729 29C734.437 29.6617 738.586 30.666 742.867 34.4946C747.26 38.4225 746.867 43.7473 754 43L758 48L755 33C748.705 32.2926 744.1 27.4609 746 21L751 23L750 9L753 10L752 12C756.49 15.1195 761.376 18.8494 765 13L766 13L766 20L762 25L766 26L772 12C777.027 14.5859 777.337 16.6492 778 22L792 24L791 21C797.62 20.6332 798.731 17.1577 799 11L808 12L813 0L695 0M819 0C817.937 7.85791 805.852 39.1018 828 32L828 31L823 32L820 21L821 21L823 26L825 26L824 17L828 20L831 18L838 20L831 15C833.286 2.81519 833.613 5.39661 844 12L845 6L847 6L857 24C857.186 17.717 859.866 13.5946 864 9L866 14L873 9L868 20L887 8L886 0L819 0M891 0L891 4C894.714 3.87744 896.563 3.57617 898 0L891 0M900 0L897 10L901 11L889 28L899 30C905.726 28.1655 913.655 31.2313 916 23L923 22C918.463 28.7258 922.34 30.8956 927 36L928 36L930 25L936 33L937 33L940 21C944.404 23.501 947.06 24.5709 952 23L949 36L957 30L958 30C960.598 35.6948 958.405 38.3866 957 44L970.543 31.9568L970.599 15L974 0L900 0M1083 0L1083 6L1087 0L1083 0M1111 0L1111 4L1114 4L1114 0L1111 0M1116 0L1118 9L1122 7L1118 18L1123 18L1126 11L1126 12L1124 16L1131 18L1126 22L1126 23L1131 24L1132 20C1135.35 26.0951 1130.88 31.6637 1130 38L1134 36C1132.81 45.4408 1131.64 54.358 1124 61L1138 74L1138 69L1142 71C1144.05 64.407 1147.77 57.3268 1154 54L1149 68C1154.03 68.8463 1154.78 66.4715 1156 62L1160 63L1159 66L1164 70C1158.62 79.7717 1153.79 89.3367 1148.08 99.0394C1145.98 102.612 1145.79 107.328 1143.1 110.57C1139.79 114.556 1133.09 114.301 1129.02 117.43C1122.41 122.504 1120.61 132.258 1119 140L1122 133L1125 134L1123 144L1128 143L1129 149L1130 149L1136 140C1141.66 143.465 1139.24 149.352 1135 153C1135.54 159.719 1134.24 165.687 1130 171L1130 172L1135 173L1138 176C1136.68 163.454 1144.09 154.535 1147 143L1148 155L1160 141C1159.03 149.005 1160.2 172.831 1174 161L1174 166L1187 152L1184 151L1184 150L1188 148L1187 140L1187 139L1184 131L1188 132L1188 127L1215 128L1214 125C1218.16 125.239 1220.27 124.227 1221 120C1227.39 119.671 1245.97 124.985 1245 115C1249.02 117.282 1248.03 119.946 1247 124L1261 132L1262 132L1270 128C1269.68 122.51 1271.79 119.395 1276 116C1276 120.192 1275.18 124.52 1279 127C1272.09 134.086 1269.35 140.74 1274 150L1275 150L1285.49 140.37L1291 125L1292 128L1297 127L1298 120L1302 120L1303 127L1309 119L1310 119L1313 122L1316 115L1317 115L1326 120L1330 113L1333 117L1334 111C1338.74 116.06 1335 131.641 1335 139L1339 137L1340 141L1346 139L1346 144L1355 137L1356 137L1356 140L1367 127L1369 131C1373.51 123.272 1377.03 114.669 1383.44 108.213C1389.46 102.148 1397.7 98.4339 1403.9 92.7724C1411.16 86.1283 1413.49 77.5848 1424 75L1423 77L1424 77C1427.2 75.9194 1431.49 73.3893 1434.94 74.071C1441.45 75.356 1444.37 87.7572 1443.23 93C1439.44 110.518 1430.53 123.668 1421 139L1421 140C1424.76 151.428 1417.97 165.836 1407 171C1407 177.112 1405.45 188.613 1399 187C1395.19 199.635 1370.07 207.336 1382 223L1382 224L1378 232L1379 232C1383.78 225.867 1393.49 223.249 1401 224L1402 224L1422 223L1421 228L1443 217L1443 221L1462 217L1458 228L1469.87 227.781L1478.04 233.841L1490 230.637L1505 231C1511.8 238.78 1530.38 228.061 1539 229L1537 234L1538 235L1545 230C1547.59 233.534 1551.93 231.757 1555.91 231.792C1567.9 231.9 1584.83 218.155 1595 223L1596 223C1599.14 219.778 1600.8 219.343 1605 221L1605 217L1614 224L1614 223C1611.56 220.153 1611.96 219.074 1614 216C1615.42 219.224 1616.44 220.362 1620 220L1620 224L1621 224L1625 221L1629 224L1630 228L1625 230L1625 233C1629.34 233.641 1631.72 232.803 1634 229L1636 229C1638.63 233.763 1641.95 232.499 1646 230L1645 236L1653 233L1648 242L1655 239L1655 242L1668 247C1664.14 248.805 1656.42 254.453 1664 257L1662 263L1661 263L1660 260L1655 263L1655 264L1660 265L1659 268L1664 269L1667 266L1668 272C1659.92 273.489 1661.86 278.852 1658 284L1661 285L1636 303L1630 321C1626 321.133 1623.55 321.572 1624 326L1610 329.764L1593 331C1592.38 337.284 1582.88 341.393 1578 345C1578 348.917 1583.52 359.63 1577 358C1582.49 365.797 1583.86 369.253 1594 370L1593 374L1590 373C1586.11 377.168 1584.08 376.193 1579 375C1579.94 379.816 1580.56 383.407 1585 386L1587 408L1607 402L1611 411C1625.6 396.129 1622.52 417.985 1620 428C1625.23 432.789 1618.18 436.347 1614 439C1617.72 443.511 1617.26 445.639 1616 451C1629.9 458.517 1608.2 480.593 1596 475L1598 487L1601 486C1591.54 497.021 1576.22 481.948 1565 485L1563 496L1566 500L1561 500L1559 503L1559 504L1561 508L1565 513L1566 513L1566 510L1569 511L1568 518L1574 517L1574 521L1590 532C1585.94 532.889 1587.82 536.92 1589 540L1595 546L1586 543L1591.27 561.282L1586.6 570.866L1592 580L1588 579L1587 579L1590 588C1581.98 587.396 1562.9 568.506 1556.92 582.846C1555.98 585.107 1555.53 587.619 1555 590L1549 584C1545.67 597.784 1558.12 606.961 1563 618L1557 617C1557.51 619.475 1557.6 619.575 1560 619C1560.85 626.569 1572.1 634.805 1576.6 641C1587.11 655.473 1585.44 680.518 1602 691C1599.26 696.609 1602.34 720.042 1592 716L1591 716L1584 721L1563 713L1564 716C1548.92 715.021 1524.93 716.93 1519 733L1506 731L1506 732L1516 743L1509 741L1511 746L1525 749L1529 758L1524 760L1524 758C1517.15 760.141 1509.21 762.62 1502 762.873C1496.67 763.061 1490.31 759.255 1488 766L1481 765L1459 771L1458 771L1455 778L1460 779L1460 780L1454 784L1483 779.083L1501 781.694L1513.78 781.639L1521.33 791.5L1532.36 802L1540 814L1536 818L1536 813L1535 813L1534 836L1532 836L1532 829L1525 831L1525 832L1528 832L1518 838L1512 836C1510.97 842.466 1517.88 849.139 1508 852C1504.88 861.059 1499.51 855.836 1493.13 859.103C1486.95 862.269 1487.5 870.496 1489 876L1484 876L1483 867L1472 871L1472 872L1478 877L1464 882C1464.89 887.443 1468.91 891.094 1474 893L1473 899L1466 896L1465 900L1460 898L1466 914L1465 914L1459 909C1457.48 912.079 1456.17 911.809 1453 911L1453 918L1460 915L1461 915L1461 924C1455.25 924.311 1451 926.387 1449 932L1448 932C1445.05 924.522 1443 924.15 1436 922L1429 929C1428.14 924.821 1428.71 922.75 1432 920L1430 917L1429 917C1421.48 924.279 1421.6 927.67 1428 936L1414 938L1413 944L1414 944L1415 941L1416 941L1416 944L1425 947C1424.62 951.968 1422.91 953.253 1418 953L1417 961L1416 958L1413 959L1415 967L1408 963C1402.52 964.343 1399.67 969.283 1397 974L1382.83 967.678L1369 965L1368 965L1366 975L1359 972C1357.86 976.055 1358.54 980.701 1363 982L1357 988L1355 983C1351.61 986.568 1348.67 986.08 1344 986L1344 981L1337 979L1336 984L1322 969L1319 970L1310 963C1310.25 966.517 1311.22 974.592 1313.22 977.401C1314.85 979.698 1318.42 979.778 1320.3 982.148C1323.13 985.713 1323.71 990.328 1327.04 993.657C1335.11 1001.7 1341.85 1003.98 1342 1017L1336 1007L1309 997L1305 1004L1308 1008L1301 1005L1300 1008L1291 1001L1301 1034L1292 1029L1291 1036L1287 1034L1284 1036L1283 1029L1279 1028C1277.73 1031.99 1275.78 1032.2 1272 1031L1268 1042L1266 1042L1262 1021L1258 1021L1260 1044C1256.01 1046.59 1254.58 1055.32 1254 1060L1253 1060L1253 1055L1248 1054L1248 1063L1244 1064L1240 1045L1239 1045L1242.35 1066L1240 1080L1920 1080L1920 0L1116 0M991 3L992 10L993 10L991 3z"/>
<path style="fill:#040404; stroke:none;" d="M755 8C757.993 7.93579 759.346 8.05396 760 5L755 8z"/>
<path style="fill:#fcfcfc; stroke:none;" d="M1109 5L1110 6L1109 5M836 9L837 10L836 9z"/>
<path style="fill:#040404; stroke:none;" d="M745 10L744 12L746 12L745 10z"/>
<path style="fill:#fcfcfc; stroke:none;" d="M844 12L845 13L844 12M899 12L900 13L899 12M775 14L775 19L776 19L775 14M845 14L842 20L851 20L845 14z"/>
<path style="fill:#040404; stroke:none;" d="M904 14L907 21L908 14L904 14M746.667 15.3334L747.333 15.6666L746.667 15.3334z"/>
<path style="fill:#fcfcfc; stroke:none;" d="M992 15C985.947 29.2297 994 31.0111 994 15L992 15z"/>
<path style="fill:#040404; stroke:none;" d="M953 17L952 22C955.036 20.9996 955.494 20.1371 955 17L953 17M746 19L747 20L746 19z"/>
<path style="fill:#fcfcfc; stroke:none;" d="M772 19L771 26L776 28L777 24L772 19M861.667 19.3334L862.333 19.6666L861.667 19.3334z"/>
<path style="fill:#040404; stroke:none;" d="M905 22L903 26L906 27L905 22z"/>
<path style="fill:#fcfcfc; stroke:none;" d="M876 33L878 26C873.037 19.2036 865.62 30.8354 876 33M751 25L753 28L751 25z"/>
<path style="fill:#040404; stroke:none;" d="M923 26L926 28L923 26z"/>
<path style="fill:#fcfcfc; stroke:none;" d="M999 29L998 32L999 29M769 30L768 34L769 34L769 30M691 31L692 32L691 31z"/>
<path style="fill:#040404; stroke:none;" d="M700.333 32.6666L700.667 33.3334L700.333 32.6666z"/>
<path style="fill:#fcfcfc; stroke:none;" d="M911 32L911 36L912 36L911 32M734 33L733 34L733 35L733 36L736 33L734 33M1122 33L1123 34L1122 33M783 35L784 36L783 35M1123 35L1124 36L1123 35M928 39L929 40L928 39M920 41L920 45L922 41L920 41M880.333 42.6666L880.667 43.3334L880.333 42.6666M950.333 42.6666L950.667 43.3334L950.333 42.6666M946 43L947 48L948 48L948 43L946 43M743 49L744 50L743 49z"/>
<path style="fill:#040404; stroke:none;" d="M1152 51L1152 53L1154 53L1152 51M1160.67 59.3333L1161.33 59.6667L1160.67 59.3333M1134 61L1133 65L1138 62L1134 61z"/>
<path style="fill:#fcfcfc; stroke:none;" d="M1148.33 64.6667L1148.67 65.3333L1148.33 64.6667M699 66L699 67L703 68L699 66z"/>
<path style="fill:#040404; stroke:none;" d="M1178 67L1179 68L1178 67z"/>
<path style="fill:#fcfcfc; stroke:none;" d="M1155 69L1156 70L1155 69M1144 79L1145 80L1144 79M593 89L593 92L594 92L593 89M1148 89L1148 93L1151 92L1148 89M1141.67 99.3333L1142.33 99.6667L1141.67 99.3333z"/>
<path style="fill:#040404; stroke:none;" d="M554 119L556 121L556 119L554 119z"/>
<path style="fill:#fcfcfc; stroke:none;" d="M693 119L694 120L693 119M698 140L703 133C701.957 142.614 693.022 156.867 708 161L712 157L713 166C718.615 165.823 721.097 169.616 724 174L737 171L737 172L734 173L734 174C738.002 175.639 750.067 176.906 753 174L754 174L761 176L754 167C763.64 164.937 768.113 174.946 776.957 175.549C785.073 176.103 787.245 163.307 785 158C780.901 159.338 779.718 163.656 774.995 163.926C767.39 164.36 763.187 158.31 756.961 155.353C742.693 148.577 729.547 143.905 716.286 135.381C713.087 133.325 708.902 130.856 706.588 127.816C704.637 125.252 704.515 121.278 700.896 120.296C693.058 118.17 695.055 137.846 698 140z"/>
<path style="fill:#040404; stroke:none;" d="M1281 121L1280 128L1284 121L1281 121z"/>
<path style="fill:#fcfcfc; stroke:none;" d="M558 127L559 128L558 127M557 129L558 130L557 129z"/>
<path style="fill:#040404; stroke:none;" d="M1125 132L1128 130L1125 132z"/>
<path style="fill:#fcfcfc; stroke:none;" d="M588.667 131.333L589.333 131.667L588.667 131.333M1419.67 143.333L1420.33 143.667L1419.67 143.333M1345 144L1343 145L1344 148L1345 148L1345 144M1267 148L1270 145L1267 148M1122 147L1122 148L1125 148L1122 147M1116 149L1117 150L1116 149M1128 149L1127 152L1128 149M1127 153L1122 164C1125.96 161.804 1128.37 157.509 1127 153M1188 153L1190 159L1191 159L1188 153z"/>
<path style="fill:#040404; stroke:none;" d="M469 159L471 164L472 164L469 159z"/>
<path style="fill:#fcfcfc; stroke:none;" d="M1156 159L1153 164L1156 159z"/>
<path style="fill:#040404; stroke:none;" d="M1171 159L1172 160L1171 159M748 163L753 168L748 163z"/>
<path style="fill:#fcfcfc; stroke:none;" d="M1119 165L1119 168L1120 168L1119 165M1104 172L1108 172L1109 167L1104 172M1163 167L1160 172C1162.62 171.269 1164.27 169.775 1163 167z"/>
<path style="fill:#040404; stroke:none;" d="M407 174L406 177L409 175L407 174z"/>
<path style="fill:#fcfcfc; stroke:none;" d="M705 175L706 176L705 175M478.667 177.333L479.333 177.667L478.667 177.333M483 177L484 178L483 177M709 177L709 180L710 180L709 177M742 177L744 181L744 177L742 177M1113 179L1113 184L1114 184L1113 179M752 183L753 184L752 183M1401 183L1402 184L1401 183z"/>
<path style="fill:#040404; stroke:none;" d="M468 187L468 191L469 191L470 187L468 187z"/>
<path style="fill:#fcfcfc; stroke:none;" d="M474 189L475 190L474 189M424 190L425 191L424 190M472 193L473 197L474 197L472 193M475 199L476 200L475 199M458 205L460 209L458 205M478 207L479 208L478 207M467 208L468 209L467 208z"/>
<path style="fill:#040404; stroke:none;" d="M440 215L441 216L440 215z"/>
<path style="fill:#fcfcfc; stroke:none;" d="M326 216L326 221L328 221L328 216L326 216z"/>
<path style="fill:#040404; stroke:none;" d="M1624 217L1624 220L1625 220L1624 217z"/>
<path style="fill:#fcfcfc; stroke:none;" d="M1602 220L1601 222L1603 222L1602 220z"/>
<path style="fill:#040404; stroke:none;" d="M1630 224L1635 221L1630 224z"/>
<path style="fill:#fcfcfc; stroke:none;" d="M1377 222L1378 223L1377 222M455 223L456 224L455 223M475 236L478 233L475 236M466.333 238.667L466.667 239.333L466.333 238.667M1647 239L1648 240L1647 239z"/>
<path style="fill:#040404; stroke:none;" d="M297 243L296 245L297 243z"/>
<path style="fill:#fcfcfc; stroke:none;" d="M1660 245L1660 249L1661 249L1660 245M317 247L318 248L317 247M1656 247L1657 248L1656 247M316 249L318 252L318 249L316 249M1659 251L1660 252L1659 251z"/>
<path style="fill:#040404; stroke:none;" d="M1663.67 253.333L1664.33 253.667L1663.67 253.333z"/>
<path style="fill:#fcfcfc; stroke:none;" d="M330 255L331 256L330 255z"/>
<path style="fill:#040404; stroke:none;" d="M306.333 258.667L306.667 259.333L306.333 258.667z"/>
<path style="fill:#fcfcfc; stroke:none;" d="M1661 258L1662 259L1661 258M337 259L337 260L341 262L337 259z"/>
<path style="fill:#040404; stroke:none;" d="M1668.33 278.667L1668.67 279.333L1668.33 278.667M325 279L326 283L327 283L325 279z"/>
<path style="fill:#fcfcfc; stroke:none;" d="M337 292L340 290L337 292z"/>
<path style="fill:#040404; stroke:none;" d="M322.667 295.333L323.333 295.667L322.667 295.333M1647.67 297.333L1648.33 297.667L1647.67 297.333M1644 303L1645 304L1644 303z"/>
<path style="fill:#fcfcfc; stroke:none;" d="M1631 307L1631 310L1632 310L1631 307M306 325L306 331L307 331L306 325M293 341L292 344L293 341M291 347L292 348L291 347M288 351L289 352L288 351z"/>
<path style="fill:#040404; stroke:none;" d="M271 353L272 354L271 353z"/>
<path style="fill:#fcfcfc; stroke:none;" d="M288.667 355.333L289.333 355.667L288.667 355.333M1577 355L1576 357L1577 355M292.667 359.333L293.333 359.667L292.667 359.333M1577 367L1578 368L1577 367z"/>
<path style="fill:#040404; stroke:none;" d="M264.667 383.333L265.333 383.667L264.667 383.333z"/>
<path style="fill:#fcfcfc; stroke:none;" d="M274 385L275 386L274 385z"/>
<path style="fill:#040404; stroke:none;" d="M267 386L268 387L267 386z"/>
<path style="fill:#fcfcfc; stroke:none;" d="M270 388L272 390L272 388L270 388M261 395L262 396L261 395M1585 399L1586 400L1585 399z"/>
<path style="fill:#040404; stroke:none;" d="M1590 399L1591 400L1590 399z"/>
<path style="fill:#fcfcfc; stroke:none;" d="M268 413L268 417L269 417L270 413L268 413M1592.67 415.333L1593.33 415.667L1592.67 415.333z"/>
<path style="fill:#040404; stroke:none;" d="M249 440L256 440C255.073 434.465 250.621 435.146 249 440z"/>
<path style="fill:#fcfcfc; stroke:none;" d="M252 436L252 439L253 439L252 436z"/>
<path style="fill:#040404; stroke:none;" d="M347 439L347 440L351 440L347 439M257 454L257 456L259 454L257 454z"/>
<path style="fill:#fcfcfc; stroke:none;" d="M1595 479L1596 480L1595 479M1596 481L1597 482L1596 481M274 483L275 484L274 483z"/>
<path style="fill:#040404; stroke:none;" d="M1600 483L1602 485L1602 483L1600 483z"/>
<path style="fill:#fcfcfc; stroke:none;" d="M1561 487L1561 488L1564 488L1561 487M256 489L257 490L256 489M1553 491L1554 492L1553 491z"/>
<path style="fill:#040404; stroke:none;" d="M1566 495L1567 496L1566 495M1564 507L1565 508L1564 507z"/>
<path style="fill:#fcfcfc; stroke:none;" d="M1567.33 519.667L1567.67 520.333L1567.33 519.667M1585 535L1586 536L1585 535M284 554L283 556L285 556L284 554z"/>
<path style="fill:#040404; stroke:none;" d="M300 565L300 568L302 568L302 565L300 565z"/>
<path style="fill:#fcfcfc; stroke:none;" d="M309 574L310 575L309 574M309 576L308 578L310 578L309 576z"/>
<path style="fill:#040404; stroke:none;" d="M290 591L291 592L290 591z"/>
<path style="fill:#fcfcfc; stroke:none;" d="M296 597L300 600L296 597z"/>
<path style="fill:#040404; stroke:none;" d="M1554 600L1555 601L1554 600z"/>
<path style="fill:#fcfcfc; stroke:none;" d="M1549 603L1550 604L1549 603z"/>
<path style="fill:#040404; stroke:none;" d="M274 615L274 616L277 616L274 615M1563 619L1564 620L1563 619M283 633L284 636L283 633z"/>
<path style="fill:#fcfcfc; stroke:none;" d="M298 635L299 636L298 635M294 646L294 648L296 648L294 646z"/>
<path style="fill:#040404; stroke:none;" d="M199.667 653.333L200.333 653.667L199.667 653.333M264 659L265 660L264 659z"/>
<path style="fill:#fcfcfc; stroke:none;" d="M269 669L272 668L269 669M228 675L228 676L232 676L228 675M1518 677L1518 680L1520 680L1520 677L1518 677M238 679L239 680L238 679M1530 680L1532 688L1528 687L1530 692L1536 685L1535 688L1540 694L1536 694L1536 695L1539 702L1552 707C1553.01 699.21 1538.15 680.934 1530 680M246.667 683.333L247.333 683.667L246.667 683.333M1525 685L1525 688L1526 688L1525 685M1532.67 699.333L1533.33 699.667L1532.67 699.333M1536.67 701.333L1537.33 701.667L1536.67 701.333z"/>
<path style="fill:#040404; stroke:none;" d="M211 705L211 708L213 705L211 705z"/>
<path style="fill:#fcfcfc; stroke:none;" d="M1554 707L1552 712L1558 712L1554 707M186 721L187 722L186 721M318 727L318 730L320 730L320 727L318 727M321 730L321 732L323 732L321 730M242 735L243 736L242 735M233 744L238 744L240 739L233 744z"/>
<path style="fill:#040404; stroke:none;" d="M1520.33 742.667L1520.67 743.333L1520.33 742.667z"/>
<path style="fill:#fcfcfc; stroke:none;" d="M231 743L232 744L231 743z"/>
<path style="fill:#040404; stroke:none;" d="M225 749L228 752L225 749z"/>
<path style="fill:#fcfcfc; stroke:none;" d="M1460 759L1461 760L1460 759z"/>
<path style="fill:#040404; stroke:none;" d="M1490 765L1490 768L1492 767L1492 766L1490 765M216 771L216 773L218 771L216 771z"/>
<path style="fill:#fcfcfc; stroke:none;" d="M223 771L223 772L226 772L223 771M1424.67 771.333L1425.33 771.667L1424.67 771.333M1441 782L1440 783L1443 788L1452 784L1452 783L1445 783L1444 785L1443 785L1441 782M273 800L277 800L276 797L273 800z"/>
<path style="fill:#040404; stroke:none;" d="M1536 819L1537 820L1536 819z"/>
<path style="fill:#fcfcfc; stroke:none;" d="M1532.67 823.333L1533.33 823.667L1532.67 823.333z"/>
<path style="fill:#040404; stroke:none;" d="M1540 825L1541 826L1540 825z"/>
<path style="fill:#fcfcfc; stroke:none;" d="M1503 854L1502 857L1503 854M334 889L334 897L339 890L334 889z"/>
<path style="fill:#040404; stroke:none;" d="M318 895L319 896L318 895z"/>
<path style="fill:#fcfcfc; stroke:none;" d="M1459 895L1459 897L1462 897L1462 895L1459 895M284 899L285 900L284 899M601 904L604 904L603 902L601 904z"/>
<path style="fill:#040404; stroke:none;" d="M1473 902L1476 904L1473 902M272.667 903.333L273.333 903.667L272.667 903.333z"/>
<path style="fill:#fcfcfc; stroke:none;" d="M280.667 903.333L281.333 903.667L280.667 903.333z"/>
<path style="fill:#040404; stroke:none;" d="M626 908L631 907L631 905L630 904L626 908M276.667 907.333L277.333 907.667L276.667 907.333z"/>
<path style="fill:#fcfcfc; stroke:none;" d="M1446.67 911.333L1447.33 911.667L1446.67 911.333z"/>
<path style="fill:#040404; stroke:none;" d="M1456 914L1457 915L1456 914z"/>
<path style="fill:#fcfcfc; stroke:none;" d="M640 917L640 920L642 920L642 917L640 917z"/>
<path style="fill:#040404; stroke:none;" d="M1437 925L1439 933L1440 933L1437 925z"/>
<path style="fill:#fcfcfc; stroke:none;" d="M587 927L588 928L587 927z"/>
<path style="fill:#040404; stroke:none;" d="M1452 928C1452.7 932.519 1454.72 934.526 1459 936C1459.18 931.09 1456.59 929.101 1452 928z"/>
<path style="fill:#fcfcfc; stroke:none;" d="M344 931L344 934L345 934L344 931M1407 931L1408 932L1407 931M647 934L647 936L649 936L647 934M343 935L344 936L343 935z"/>
<path style="fill:#040404; stroke:none;" d="M631 935L632 936L631 935z"/>
<path style="fill:#fcfcfc; stroke:none;" d="M1303 935L1303 938L1304 938L1305 935L1303 935z"/>
<path style="fill:#040404; stroke:none;" d="M1431 935L1429 936L1429 937L1431 935M1463 935L1464 936L1463 935M592 937L593 938L592 937M334 939L335 940L334 939z"/>
<path style="fill:#fcfcfc; stroke:none;" d="M1304 945L1304 948L1306 948L1306 945L1304 945M1266 949L1265 952L1268 952L1266 949M343 950L342 952L343 950z"/>
<path style="fill:#040404; stroke:none;" d="M636 961L636 955C632.528 956.975 632.528 959.025 636 961z"/>
<path style="fill:#fcfcfc; stroke:none;" d="M1414 955L1414 957L1416 957L1416 955L1414 955M1263 957L1262 959L1262 960L1271 964L1265 957L1263 957M1398 963L1396 968L1398 963M580 966L580 968L582 968L580 966M326.667 967.333L327.333 967.667L326.667 967.333M343.667 971.333L344.333 971.667L343.667 971.333M1332 971L1332 976L1334 976L1332 971z"/>
<path style="fill:#040404; stroke:none;" d="M1400 973L1400 976L1408 976L1408 975L1404 975L1400 973z"/>
<path style="fill:#fcfcfc; stroke:none;" d="M390 979L390 980C393.194 979.987 395.271 980.403 396 977L390 979M1136 977L1132 988L1138 987L1137 997C1140.65 998.813 1139.21 1000.67 1138 1004L1145 1008L1139 1010L1151.29 1023.21L1156 1036C1151.58 1033.38 1150.31 1028.04 1146.53 1024.7C1140.5 1019.35 1130.62 1021.5 1133 1011C1123.99 1011.46 1120.57 1001.88 1120 994C1113.68 997.883 1115.23 1006.47 1114 1013C1108.95 1013 1106.6 1015.94 1104 1020L1107 1021L1105 1025C1101.57 1018.03 1095.84 1019.9 1089 1019L1086 1025L1091 1040L1087 1040C1088.03 1053.17 1104.45 1059.15 1112.79 1066.43C1116.4 1069.59 1116.5 1077.41 1120.43 1079.4C1128.22 1083.32 1145.28 1080 1154 1080L1238 1080C1238 1066.02 1231.5 1055.61 1229.86 1042C1229.1 1035.69 1231.08 1027.28 1226 1023L1226 1032L1224 1032C1223.89 1022.7 1213.25 1016.8 1206 1012L1205 1016L1203 1016L1193 1004C1192.24 1008.08 1191.53 1011.51 1196 1013L1198 1028L1193 1017L1189 1018L1185 1014C1189.15 999.817 1179.76 999.708 1169 1001L1176 1020C1182.55 1024.02 1177.75 1030 1177 1036C1180.4 1037.76 1181.92 1040.77 1177 1041L1174 1051L1172 1051L1171 1050C1176.3 1029.56 1161.14 1019.38 1153.19 1002.74C1151.7 999.634 1152.52 995.371 1151.4 992C1148.85 984.298 1142.87 980.474 1136 977M362 979L360 984L362 979M660 979L660 982L662 979L660 979M1279 982L1281 985L1279 982M385 983L386 987L387 987L385 983M524 983L523 985L524 983M658 983L659 984L658 983M363 984L364 985L363 984M1280 986L1283 993L1284 993L1283 986L1280 986z"/>
<path style="fill:#040404; stroke:none;" d="M1363 987L1361 992L1365 992L1363 987M1352 988L1353 989L1352 988z"/>
<path style="fill:#fcfcfc; stroke:none;" d="M490 991L491 992L490 991M504 991L505 992L504 991M651.667 991.333L652.333 991.667L651.667 991.333M1156.67 991.333L1157.33 991.667L1156.67 991.333M1284 995L1284 1000L1288 999L1288 997L1284 995M1294.67 995.333L1295.33 995.667L1294.67 995.333M1185 996L1185 1001L1188 1001C1188.49 997.863 1188.04 997 1185 996z"/>
<path style="fill:#040404; stroke:none;" d="M536 997L537 998L536 997z"/>
<path style="fill:#fcfcfc; stroke:none;" d="M1297 1000L1300 1000L1299 998L1297 1000M489 999L492 1004L489 999M548 999L549 1000L548 999M979 999L980 1000L979 999M1192.33 999.667L1192.67 1000.33L1192.33 999.667M1213 999L1215 1004L1216 1004L1213 999M624 1004L628 1004L627 1001L624 1004M981 1001L984 1004L983 1001L981 1001z"/>
<path style="fill:#040404; stroke:none;" d="M1313 1001L1313 1004L1316 1004L1316 1001L1313 1001z"/>
<path style="fill:#fcfcfc; stroke:none;" d="M662 1010L668 1003C663.948 1004.23 661.83 1005.57 662 1010z"/>
<path style="fill:#040404; stroke:none;" d="M364.667 1007.33L365.333 1007.67L364.667 1007.33z"/>
<path style="fill:#fcfcfc; stroke:none;" d="M411 1007L412 1008L411 1007M1191 1007L1192 1008L1191 1007M1218 1007C1218.94 1012.54 1220.12 1019.72 1225 1023C1226.51 1016.79 1222.81 1010.77 1218 1007z"/>
<path style="fill:#040404; stroke:none;" d="M592 1009L592 1012L594 1012L594 1009L592 1009z"/>
<path style="fill:#fcfcfc; stroke:none;" d="M487 1011L488 1012L487 1011M974 1044L971 1040C965.289 1048.29 964.128 1049.62 953 1048L959 1039L951 1025L948 1026L944 1020L948.852 1034L944.059 1052L946.92 1065.58L944 1080L995 1080L996 1061C991.333 1061.33 989.092 1060.57 986 1057L978 1054L974 1056C979.389 1047.58 991.552 1032.82 1000 1028L999 1025L993 1027L983 1011L979.097 1014.15L981.063 1023L974 1044M424 1016L425 1017L424 1016M1278 1016L1277 1020L1282 1020L1278 1016M1286 1017C1286.86 1020.03 1287.92 1020.28 1291 1020L1291 1019L1286 1017M971 1019L973 1023L971 1019M995 1019L996 1020L995 1019z"/>
<path style="fill:#040404; stroke:none;" d="M1108 1020L1108 1025L1111 1024L1108 1020M411 1023L411 1024L414 1024L414 1023L411 1023z"/>
<path style="fill:#fcfcfc; stroke:none;" d="M972 1025L969 1032L972 1025z"/>
<path style="fill:#040404; stroke:none;" d="M1101 1025L1104 1032L1104 1025L1101 1025z"/>
<path style="fill:#fcfcfc; stroke:none;" d="M1278 1027L1279 1028L1278 1027M1286 1027L1286 1030L1287 1030L1288 1027L1286 1027z"/>
<path style="fill:#040404; stroke:none;" d="M420 1028L418 1036L419 1036L420 1028z"/>
<path style="fill:#fcfcfc; stroke:none;" d="M898 1028L892 1033L896 1044C884.519 1048.03 881.752 1058.08 886 1068L880 1071L880 1067L873 1073L874 1080L912 1080L927.556 1079.4L932.37 1071.05L943 1063C931.482 1053.6 937.445 1047.98 941 1037L933 1040L928 1035L924 1039L923 1029L919 1035L916 1030L915 1030C916.269 1039.88 918.424 1053.26 906.907 1058.51C903.808 1059.93 899.385 1059.38 896 1060C900.726 1052.41 909.853 1046.75 907 1037L901 1044L898 1028z"/>
<path style="fill:#040404; stroke:none;" d="M395 1029L395 1032L396 1032L395 1029z"/>
<path style="fill:#fcfcfc; stroke:none;" d="M935.667 1031.33L936.333 1031.67L935.667 1031.33M1077 1033L1078 1034L1077 1033z"/>
<path style="fill:#040404; stroke:none;" d="M953 1039L954 1040L953 1039M948 1046L950 1053L953 1053C952.569 1049.17 951.771 1047.19 948 1046z"/>
<path style="fill:#fcfcfc; stroke:none;" d="M753 1051L753 1052L762 1052C758.983 1048.97 756.818 1049.43 753 1051M775 1051L774 1056L776 1056L775 1051M789 1053L791 1056L789 1053z"/>
<path style="fill:#040404; stroke:none;" d="M962 1053L961 1056L962 1053z"/>
<path style="fill:#fcfcfc; stroke:none;" d="M878 1055L876 1062C878.518 1060.22 879.277 1057.91 878 1055M1015 1055L1016 1056L1015 1055M1036 1055L1024 1063L1024 1064L1027 1068C1023.32 1068.79 1024.28 1071.69 1024 1075L1018 1073L1020 1080L1030 1080C1031.29 1073.63 1035.64 1070.43 1042 1070L1035 1061L1038 1055L1036 1055M759 1057L763 1080L768 1080L770 1064L765 1064L766 1059L759 1057z"/>
<path style="fill:#040404; stroke:none;" d="M911 1057C911.218 1061.77 911.76 1068.28 916 1071C916.562 1065.72 916.847 1058.89 911 1057z"/>
<path style="fill:#fcfcfc; stroke:none;" d="M1019 1060C1017.27 1064.93 1017.83 1069.39 1024 1068L1019 1060z"/>
<path style="fill:#040404; stroke:none;" d="M900 1061L901 1062L900 1061z"/>
<path style="fill:#fcfcfc; stroke:none;" d="M1052 1061L1050 1080L1068 1080L1061 1074L1063 1071L1052 1061M1064 1062L1063 1064L1065 1064L1064 1062M1011 1063L1012 1064L1011 1063M862 1067L862 1068L866 1066L862 1067M1063 1067L1062 1069L1063 1067z"/>
<path style="fill:#040404; stroke:none;" d="M577 1069L577 1074L580 1069L577 1069z"/>
<path style="fill:#fcfcfc; stroke:none;" d="M780 1080L789 1080C788.856 1077.83 785.014 1065.13 781.345 1070.62C779.914 1072.76 780.597 1077.41 780 1080M937.667 1069.33L938.333 1069.67L937.667 1069.33z"/>
<path style="fill:#040404; stroke:none;" d="M562 1070L561 1073L562 1070z"/>
<path style="fill:#fcfcfc; stroke:none;" d="M675 1071L673 1080L680 1080L684 1071L675 1071M1080 1070L1079 1072L1081 1072L1080 1070M622 1080C630.53 1080 637.901 1080.4 641 1071C633.18 1071.9 624.485 1070.9 622 1080M1002 1071L1002 1080L1015 1080C1014.14 1074.66 1006.58 1073.7 1002 1071M602 1073L600 1080L611 1080L610 1077L604 1078L602 1073M649 1073L645 1080C650.422 1080 654.654 1080.6 657 1075L649 1073M1099 1073L1100 1079L1101 1079L1101 1073L1099 1073M869 1074L868 1076L870 1076L869 1074M794.667 1075.33L795.333 1075.67L794.667 1075.33M863 1075L864 1076L863 1075M934 1079L934 1080L941 1080L941 1076L934 1079M661 1079L661 1080L664 1080L661 1079M682 1079L683 1080L682 1079M692 1079L693 1080L692 1079M697 1079L698 1080L697 1079M790 1079L791 1080L790 1079M828 1079L829 1080L828 1079M859.667 1079.33L860.333 1079.67L859.667 1079.33z"/>
</svg>
