<?xml version="1.0" standalone="yes"?>
<svg xmlns="http://www.w3.org/2000/svg" width="1920" height="1080">
<path style="fill:#fdfdfd; stroke:none;" d="M0 0L0 1080L1920 1080L1920 0L0 0z"/>
<path style="fill:#040404; stroke:none;" d="M655 3L656 4L655 3M655 5L651 12L650 7C645.486 8.79089 643.385 11.3762 642 16L639 13L636 11L634 11C625.756 23.2302 616.18 40.0742 615 55L614 55L613 53L604 111L600 114L596 113L595 143L594 143C589.753 131.481 586.671 146.419 588 152C584.3 148.484 579.174 137.434 572.472 145.218C570.097 147.976 570.991 151.981 567 153C567.591 160.226 570.149 167.652 577 171L577 172L562 157L565 172L558 165L558 170L554 169L559 186C554.167 181.992 552.783 177.057 552 171L548 172L548 163L544 163L544 168L543 168L528 137L527 147L526 147L526 143L524 143L523 158L522 158L516 145L508 145L504 160L496 167L493 165C490.836 172.321 491.722 180.813 494 188L489 186L486 204L483 203L481 217L480 217L480 214L479 214L476 217L475 217L479 228L478 228L472 223L479 238L472 230L471 230L467 234L468 231C463.43 233.437 461.782 237.274 464 242L461 241L461 248L450 235L450 238L449 238L445 239L446 236L441 241L440 241L440 233L439 233L438 236L437 236L428 215C422.711 218.443 427.328 227.103 429 232L425 234L420 221L405 214L406 211L403 215C397.235 211.547 393.543 212.761 391 219L386 217L385 218L385 220C389.124 223.969 385.266 237.422 394 234L393 242L385 233L382 234C380.815 230.278 374.729 226.2 374 232L363 229L360 236L367 235L367 236C362.964 238.647 365.2 242.788 365 247L364 247L364 242L363 242L359 247L359 250L355 248L354 251L350 249L354 279L357 276L359 284L356 282L351 283L351 284C356.045 289.248 357.531 302.095 347 299L349 308L346 309L348 316L344 315L344 320L339 318L326 321L330 326L330 328C324.828 329.909 325.674 332.691 328 337C320.101 336.873 309.744 350.697 321 355C316.191 360.174 314.561 360.672 316 368L311 369L317 380L313 388C295.682 391.694 307.141 420.866 319 413L308 432C314.913 429.6 314.805 434.674 313 440C326.182 438.404 354.204 436.235 352 417L367 422.728L392 430L392 432L391 433C384.843 430.154 374.945 426.273 368.478 431.178C362.698 435.562 372.269 440.192 376 440L364 447L361 456C364.545 455.24 364.379 452.284 365 449L366 449C365.022 454.619 365.876 457.316 372 457L367 460L367 463C351.426 464.358 338.756 472.939 326 481L326 483L337 483L336 490L332 491L334 496C343.563 490.938 348.486 498.781 336 501L337 505L350 512L344 515L344 516L347 517L347 519L330 524L323 519L326 528C323.001 524.61 319.258 519.31 316 525C309.318 519.331 303.228 515.064 294 517L294 520L300 522C296.177 532.756 304.683 532.853 310.502 539.275C314.062 543.204 316.175 548.083 320 552L309 549C310.15 552.774 313.236 554.581 314.973 558.015C316.555 561.141 315.527 564.838 317.179 567.957C319.589 572.508 325.075 574.198 328.657 577.598C331.207 580.019 331.859 583.59 334.389 585.969C339.599 590.871 351.842 598.306 352 606L342 603L345 608L340 601L339 601C336.301 605.363 332.409 603.971 328 603L328 607L327 607L325 602L320 605C319.855 613.914 313.006 611.428 307 610L306 616C313.447 616.409 318.47 621.255 321 628L309 625L314 631L319 642L322 641C322.637 643.717 322.286 654.328 318 649L304 650C312.227 654.369 317.545 661.832 308 666C308.613 671.538 306.403 673.277 301 673L297 685C286.634 674.679 282.466 682.796 271 681L277 687L277 696L284 695L284 696L281 696L296 707L293 701C296.733 703.259 297.237 707.47 300.275 710.486C306.985 717.148 323.505 730.858 333 730L334 731L333 734C326.437 731.382 319.875 737.117 314 731L286 723L286 724L291 726L291 728L288 730L287 730C278.188 716.632 270.962 711.01 255 711C256.12 713.233 258.167 714.943 259.188 717.167C263.054 725.595 244.803 721.173 241 723L258 735L262 758L259 759L260 768L249 771L252 777L258 779C256.897 786.355 264.382 783.126 269 783C266.084 789.178 278.412 797.085 284 799L279 803C285.699 806.942 296.779 805.705 289 816C296.903 815.688 300.858 821.344 304 828L311 824L312 828C316.064 827.351 321.144 829.807 317.253 834.455C311.346 841.513 302.203 848.989 295 855L295 856L301 857L299 866C303.896 863.396 308.242 862.328 311 868C304.402 869.048 298.253 873.998 298 881L301 879L302 884L307 877C311.098 879.32 314.06 876.314 318 874.66C320.839 873.468 324.199 873.927 326.83 872.326C332.022 869.166 335.461 863.87 341 861L343.787 874L339 898C344.533 895.558 346.567 892.352 349 887L350 890L353 887L356 889L347 903L347 908L348 908L351 905L351 910C355.757 909.23 357.378 906.641 358 902L359 902L362 909L358.187 920.089L360 942C367.072 937.542 378.014 929.671 381.694 922.001C384.314 916.541 382.495 910.752 387 906C390.639 919.723 379.657 928.661 377 941L382 948L398 937L398.413 950L398 966L399 966L404 957L405 957L406 960L411 958L412 959L406 973C418.436 980.601 414.712 982.847 413 996L433 992L434 989L436 989L441 1008L444 1010L447 1007C451.988 1011.32 456.472 1018.82 462 1011L463 1014L464 1014L474.397 1011.21L476.873 998L485 973L494.597 971.947L502 980L504 969L506 969L506 977L512 976L511 971L516 972L516 960L523 965L524 961C529.477 966.332 528.376 976.605 537 978L539 968L540 968C541.483 973.337 545.982 979.471 551 982L544 949L545 949C548.638 956.687 556.705 960.418 564 964L558 939L561 939L558 928L571 940L572 940L572 933L576 940L578 940L578 933L582 934L584 924L583 919L590 922L588 901L592 902L590 870L600 878L597 869L608 880L606 875C612.667 874.58 621.177 878.851 625.362 884.108C629.037 888.724 629.75 894.907 632.517 900C636.176 906.734 643.005 913.313 648.21 918.945C657.694 929.207 671.798 933.907 678.303 948C680.918 953.664 673.192 959.288 673 965L694 955C695.006 959.695 701.12 957.016 705 957L705 960C712.421 958.943 714.909 955.789 720 963L721 963L721 959C728.484 968.012 738.227 971.857 733 984L737 986L737 988C726.964 990.768 719.167 1006.53 717 1016C721.034 1015.87 724.073 1015.52 724 1011C732.579 1008.75 740.136 1000.43 745 1014L742 1015C744.98 1022.89 738.032 1025.4 734.964 1032C731.709 1039 732.345 1045.96 735 1053L739 1043L742 1044C745.041 1037.14 753.243 1028.22 760 1025L760 1028L768 1019L773 1023L778 1019L774 1025L773 1032L774 1033L776 1033C779.901 1026.42 792.59 1018.03 798 1028L803 1032C799.506 1034.12 798.511 1037.02 799 1041L814 1027L812 1040L816 1034L821 1035L821 1036L821 1044L826 1036L827 1036C827.912 1041.94 824.862 1043.39 822 1048L827 1067C832.892 1060.98 832.747 1054.77 833 1047L834 1047L838 1056C834.186 1058.34 833.806 1060.81 835 1065L838 1061L843 1062L849 1049L850 1049L849 1062L851 1062C852.114 1059.2 854.157 1054.47 857 1058C865.286 1052.15 855.211 1038.84 866 1032L869 1049L883 1026C882.84 1029.79 881.727 1032.8 886 1034C886.679 1029.74 899.703 1018.84 904 1019L903 1026L904 1026L906 1018L908 1018C907.983 1020.02 907.952 1022 907.714 1024C907.567 1025.25 907.148 1035.72 910.942 1031.38C914.486 1027.32 916.503 1014.49 919 1009L921 1009L922 1014L931 1001C930.576 1003.89 928.282 1008.46 932 1009L939 1025C941.208 1016.26 939.961 1010.35 947 1003L950 1006C952.15 1003.93 953.205 1003.44 955 1006L956 1006L956 1003L961 1004L964 997L968 1000L965 987L976 986L974 977L985 967L987 980L992 978C993.301 984.666 992.238 990.359 994.811 997C999.421 1008.9 1006.28 1013.59 1006 1027L1010 1025L1011 1034L1015 1030L1014 1040C1018.48 1037.6 1020.62 1034.03 1021 1029L1026 1029C1026.5 1035.33 1031.86 1036.55 1037 1039L1032 1015L1034 1015L1037 1023L1047 1009C1043.63 1027.19 1053.76 1036.17 1059 1052L1063 1052L1065 1044L1060 1044L1060 1043L1068 1041C1069.08 1044.99 1070.98 1048.58 1075 1050L1073 1048C1075.49 1039.21 1058.34 1031.31 1068 1028L1067 1021L1063 1024L1064.2 1001.04L1075 993L1077 1000L1089 1000.25L1106 986.99L1112.8 982.306L1124 996C1123.82 987.076 1118.82 976.401 1122.5 968C1123.76 965.123 1125.99 959.51 1130.04 960.636C1139.95 963.389 1133.59 978.565 1145 977L1149 980L1142 972C1148.24 968.432 1149.17 975.982 1154 979C1157.42 966.233 1151.32 963.496 1146 953L1156 954L1159 949L1166 956C1165.74 954.484 1165.77 945.174 1168.95 950.377C1170.87 953.516 1171.34 962.111 1172 966C1176.95 966.25 1181.78 969.888 1185 965C1189.19 971.172 1194.73 971.137 1195 963L1199 964L1197 971L1199 971L1200 965L1201 965L1202 970L1205 969L1213 980L1216 982L1219 976L1220 979L1221 979L1214 972L1215 969C1206.16 960.429 1210.37 952.047 1208.09 942.039C1206.66 935.718 1195.66 922.077 1190 919L1202 914L1203 914C1206.71 924.288 1209.44 936.485 1218 943L1219 943C1224.28 941.693 1224.61 949.004 1225 953L1232 948L1229 943L1230 942L1236 946L1240 935L1241 935L1245 943L1255 919C1259.8 920.112 1262.98 918.492 1265 914L1266 914C1268.45 919.505 1269.63 924.468 1276 926L1280 921L1279 928C1283.52 924.93 1285.26 925.968 1290 928C1288.09 921.635 1282.59 911.893 1276 910L1277 907L1280 906L1285 908L1284 895C1293.94 898.479 1300.5 921.912 1312 912L1311 907C1314.96 912.195 1313.65 914.571 1311 920L1314 917L1319 918L1322 906C1330.14 910.434 1324.55 923.289 1335 929L1337 927L1339 934C1347.34 931.47 1344.12 925.274 1349.25 921.36C1353.02 918.482 1358.86 920.544 1360.23 925.042C1360.89 927.213 1360.51 929.752 1361 932L1369 932L1366 923L1374 928C1374.87 920.504 1373.21 916.786 1380 912L1380 916L1389 920L1387 909L1391 910L1389 889L1394 888L1397 892L1396 887L1405 881L1406 884L1409 884L1410 871L1424 871L1431 876L1430 869L1437 872L1436 859L1444 862L1445 862L1451 847L1455 848C1455.43 843.017 1452.6 841.098 1448 840L1449 836L1459 834C1460.98 827.462 1469.82 827.727 1475 824L1469 820L1471 816L1471 815L1460 812L1460 811C1463.05 809.546 1465.36 807.196 1468.29 805.529C1470.67 804.169 1473.62 803.762 1475.56 801.686C1479.17 797.829 1476.86 792.983 1472.95 790.499C1466.22 786.234 1451.81 787.261 1450 796C1443.96 793.652 1441.43 788.698 1436.91 784.424C1424.77 772.966 1415.48 761.036 1410 745C1419.87 754.251 1422.15 780.193 1441 776L1433 767L1448 766C1447.26 759.353 1447.87 750.526 1440 748L1440 747L1445 746C1446.38 751.108 1447.77 754.201 1453 756C1458.71 750.363 1467.28 760.28 1472 753L1474 753L1475 756L1476 756L1476 752L1484 754L1486 741C1481.55 740.499 1480.34 736.921 1479 733C1486.15 731.275 1489.8 722.964 1480 724L1480 717L1484 718L1484 712C1494.44 717.751 1514.35 721.907 1516 707L1499.06 696.393L1496.58 691.912L1511 689L1503 685L1510 683L1510 682L1499 674L1503 675L1504 669L1498 665C1502.22 666.804 1504.26 665.505 1505 661L1501 661L1503 660L1503 659L1498 658L1498 657L1501 656L1500 651C1495.44 650.154 1486.47 650.428 1493 644L1493 643L1485 644L1491 633L1514 656.179L1535 662L1541 668L1563 683L1563 678L1566 680C1568.68 675.888 1573.69 670.701 1574.64 665.83C1575.87 659.512 1570.15 649.545 1567.5 644C1561.83 632.136 1553.39 625.475 1546.37 614.985C1543.85 611.223 1544.75 606.694 1542.38 603.17C1540.38 600.182 1537.06 598.454 1535.63 594.996C1532.89 588.378 1539.58 585.488 1540.76 579.961C1541.53 576.358 1537.84 571.852 1536 569L1539 568C1530.43 551.092 1553.21 557.306 1562 558L1560 551C1571.24 550.12 1569.31 538.997 1562 533L1567 534L1560 519L1549 501L1552 500L1548 498L1550 495L1541 492L1546 489L1545 485L1554 480L1557 473L1568 475L1567 470L1568 469C1573.56 470.308 1580.07 469.878 1584.96 466.576C1593.24 460.97 1587.7 453.673 1580 452L1590.87 447.141L1598 440L1597 437C1590.6 437.033 1588.58 432.863 1589 427L1592 428L1592 423L1574 416C1573.6 408.776 1566.44 406.364 1570 399L1563 395L1569 381L1565 380L1562 363L1558 364L1553 353L1549 351L1545 352C1548.5 340.176 1543.43 334.993 1533 333L1530 339L1527 325L1522 326C1521.91 316.088 1530.64 311.901 1540 312L1540 308C1546.74 307.92 1553.47 303.79 1557 298L1537 297L1539 290L1540 293L1541 293L1546 288L1541 271L1533 270L1530 265L1525 268L1531 261C1526.27 253.499 1516.97 259.481 1510.09 259.326C1504.68 259.205 1499.9 256.673 1494 257.089C1481.58 257.965 1469.17 262.266 1457 264L1452 260L1457 253C1450.78 249.475 1453.56 246.658 1455 241L1440 248L1440 235L1418 245L1417 241L1420 236L1422 236C1418.48 230.696 1412.64 231.358 1407 230L1408 227L1375 234L1375 223L1371 224C1373.11 207.64 1387.84 202.1 1394.83 187.999C1396.38 184.864 1396.17 181.287 1397.91 178.17C1401.36 171.938 1407.36 167.086 1409.15 160C1411.21 151.871 1407.98 143.792 1410.51 136C1414 125.229 1431.54 100.954 1407 105L1406 102C1387.72 107.379 1373.78 127.834 1366 144C1359.42 142.506 1357.2 151.243 1354 156L1353 156L1350 154L1348 158C1343.63 150.665 1336.95 152.673 1336 161L1334 161L1334 157L1333 157L1331 163L1330 163L1330 159L1325 168L1324 168L1321 139L1315 144C1311.25 134.686 1303.12 139.741 1300 147L1298 143L1296 143L1275 168L1272 167L1272 174L1271 174C1269.6 171.7 1268.24 169.676 1266 172L1261 174L1252 151L1251 151L1249 160L1248 160C1247.01 148.773 1242.12 142.944 1231 143L1231 148L1229 147L1229 156L1228 156C1227.48 147.906 1224.12 145.662 1217 143L1215 145C1213 150.545 1209.86 150.326 1205 148L1201 168L1199 167L1196 176L1192 173C1186.74 180.681 1167.86 187.398 1158 187C1156.25 191.966 1154.11 194.469 1149 196L1148 185L1145 190L1136 193L1137 185C1132.16 188.652 1117.12 212.21 1121 191C1115.99 189.429 1118 186.288 1118 182L1116 187L1107 192L1106 186L1110 180L1106 186L1103 181L1094 184C1098.54 177.652 1102.77 172.294 1101 164L1085 176L1097 157C1093.38 156.401 1091.81 156.751 1090 160L1089 160L1092 143L1099 144C1097.8 136.77 1109.32 126.577 1102 121L1103 125C1097.13 127.757 1087.96 132.807 1086 139L1081 138L1079 136L1079 135C1090.34 122.374 1104.91 105.43 1095 88L1094 88L1093 96L1092 96L1088 90L1089 86L1092 88C1093.69 78.0115 1090.54 74.8213 1082 71C1079.15 73.9183 1075.7 73.5278 1072.8 75.8896C1066.59 80.9409 1065.93 85.079 1057 85L1052 102L1048 102L1054 75L1051 76L1047 72L1047 71C1057.34 69.9131 1060.02 59.8724 1054.31 53.1473C1052.39 50.8859 1052.34 45.9146 1048.07 46.8318C1040.96 48.3599 1045.5 60.2956 1039 64L1037 49L1041 44L1040 44C1036.24 48.4855 1027.9 51.7437 1028 58L1024 62C1021.32 60.6791 1021.02 59.8343 1022 57L1017 65L1008 61L1014 59L1010 55L1011 51C1007.37 46.8433 1009.57 39.9633 1011 35L994 60L996 48L995 48C988.725 58.0222 977.749 66.4212 976 79L972 78L976 81L964 88L966 71C959.413 76.1607 951.392 81.5411 943 83L944 75L940 67L939 67C936.4 72.205 934.124 75.5515 928 76L929 71L928 71C927.22 75.7219 928.641 80.4153 924 83L926 85L926 86L920 88L917 84L917 78L907 81L906 77L909 78L906 73L906 77L905 77L897 57L892 69L887 68C888.268 63.7013 888.895 58.7213 884 57L875 68L872 65L870 75C863.707 71.4551 863.927 65.3658 863 59C855.102 60.249 856.186 67.6113 855 74L854 74L854 67L848 67L848 72L845 70L844 70L838 75C837.181 70.322 834.302 70.7694 833 75L826 73L834 94L823 87L822 92L817 89L822 85L812 88L812 83C807.039 85.0329 805.605 87.687 809 92L806 91L806 96L796 81C792.871 81.2938 790.725 80.5529 790 84L782 84L781 81L773 85L780 102L767 98L788 120C782.119 118.557 776.715 114.995 771 119L755 112L754 115L747 112L741 118L743 122L737 123L737 124L740 123C740.946 128.945 745.504 129.125 750 132L741 133C744.241 143.744 776.377 168.403 782 151C789.435 160.049 787.12 165.562 787.648 176C788.169 186.289 790.332 197.894 792 208L772 185C770.141 193.523 765.691 196.428 774 203L774 204C764.135 206.845 751.118 190.845 747 204L746 204L745 201C739.684 204.81 741.543 209.487 734 205L728.113 207.745L720.755 197.001L704 181L700 190C695.984 185.146 688.534 175.635 686.697 169.83C685.493 166.027 688.171 161.054 687.942 157C687.647 151.765 684.625 147.208 684.101 142.001C683.448 135.505 686.008 130.295 686.841 124C687.485 119.137 694.49 101.851 686 102C685.99 86.167 675.583 78.9717 671 65L670 65L672 74C663.713 66.5398 670.993 51.9724 671 42L670 42L669 46L668 46C667.801 35.606 670.714 25.1803 669.945 15.0007C669.088 3.65076 662.283 10.7208 660 17L659 17L655 5z"/>
<path style="fill:#fdfdfd; stroke:none;" d="M637 15L638 16L637 15z"/>
<path style="fill:#040404; stroke:none;" d="M1042 37L1043 38L1042 37z"/>
<path style="fill:#fdfdfd; stroke:none;" d="M667.333 47.6666L667.667 48.3334L667.333 47.6666z"/>
<path style="fill:#040404; stroke:none;" d="M1014 50L1014 52L1016 52L1016 50L1014 50M1015 61L1016 62L1015 61M851 63L852 64L851 63z"/>
<path style="fill:#fdfdfd; stroke:none;" d="M991 67L991 70L992 70L991 67z"/>
<path style="fill:#040404; stroke:none;" d="M1076 69L1076 72L1078 72L1078 69L1076 69z"/>
<path style="fill:#fdfdfd; stroke:none;" d="M870 75L870 80L871 80L870 75z"/>
<path style="fill:#040404; stroke:none;" d="M912 75L912 76L916 77L912 75M920 79L921 80L920 79M804 81L804 84L806 84L806 81L804 81z"/>
<path style="fill:#fdfdfd; stroke:none;" d="M793.333 83.6667L793.667 84.3333L793.333 83.6667M913 83L914 84L913 83M794 86L795 87L794 86M834 95L835 96L834 95M1093 102L1096 99L1093 102z"/>
<path style="fill:#040404; stroke:none;" d="M506.667 107.333L507.333 107.667L506.667 107.333M743 111L743 112L746 112L743 111M738 129L738 132L740 132L740 129L738 129M1085.33 132.667L1085.67 133.333L1085.33 132.667z"/>
<path style="fill:#fdfdfd; stroke:none;" d="M1080 141L1081 142L1080 141M1080 143L1081 144L1080 143M1071 151L1072 152L1071 151z"/>
<path style="fill:#040404; stroke:none;" d="M1096.67 151.333L1097.33 151.667L1096.67 151.333z"/>
<path style="fill:#fdfdfd; stroke:none;" d="M1067 155L1068 156L1067 155M1076 155L1077 156L1076 155z"/>
<path style="fill:#040404; stroke:none;" d="M499 159L500 160L499 159z"/>
<path style="fill:#fdfdfd; stroke:none;" d="M1074 161L1074 164L1076 164L1076 161L1074 161z"/>
<path style="fill:#040404; stroke:none;" d="M1100.33 161.667L1100.67 162.333L1100.33 161.667z"/>
<path style="fill:#fdfdfd; stroke:none;" d="M1335 162L1336 163L1335 162M499 166L503 172L499 166M1084.67 167.333L1085.33 167.667L1084.67 167.333M1257 168L1256 172L1257 172L1257 168M548 174L548 177L550 174L548 174M703 184L702 188L703 184M1172 185L1173 186L1172 185M558 189L559 192L560 192L558 189M683 190L683 194L683 190M708 195L709 196L708 195M486 205L486 208L487 208L486 205M776 208L774 212L776 208M742 209L743 210L742 209M770.667 209.333L771.333 209.667L770.667 209.333M747 210L748 211L747 210M674.667 211.333L675.333 211.667L674.667 211.333M741 212L741 217L742 217L741 212z"/>
<path style="fill:#040404; stroke:none;" d="M392 213L393 214L392 213z"/>
<path style="fill:#fdfdfd; stroke:none;" d="M740 221L740 223L742 221L740 221M688 225L687 228L690 228L688 225M388 228L389 229L388 228z"/>
<path style="fill:#040404; stroke:none;" d="M451 233L452 234L451 233z"/>
<path style="fill:#fdfdfd; stroke:none;" d="M465.333 233.667L465.667 234.333L465.333 233.667M1419 234L1418 236L1420 236L1419 234M464 236L468 242C467.737 238.59 467.321 237.099 464 236M369 239L370 240L369 239M385 239L386 240L385 239M448 240L449 244L450 244L448 240M394 243L395 244L394 243M450 245L451 248L452 248L452 245L450 245z"/>
<path style="fill:#040404; stroke:none;" d="M342.667 247.333L343.333 247.667L342.667 247.333M346 249L349 252L346 249z"/>
<path style="fill:#fdfdfd; stroke:none;" d="M452 249L453 250L452 249M360 251L361 252L360 251z"/>
<path style="fill:#040404; stroke:none;" d="M352 271L353 272L352 271z"/>
<path style="fill:#fdfdfd; stroke:none;" d="M361.333 286.667L361.667 287.333L361.333 286.667M1498 325L1512 333C1496.14 328.637 1493.72 336.804 1491 350L1500 349L1491 360L1512 352L1512.93 333L1520 320L1498 325z"/>
<path style="fill:#040404; stroke:none;" d="M324 323L325 324L324 323z"/>
<path style="fill:#fdfdfd; stroke:none;" d="M1493 326L1492 328L1494 328L1493 326M1528 339L1528 342L1530 341L1530 340L1528 339M325 341L326 342L325 341M325.667 343.333L326.333 343.667L325.667 343.333M320 377L320 380L321 380L320 377z"/>
<path style="fill:#040404; stroke:none;" d="M301 404L302 405L301 404z"/>
<path style="fill:#fdfdfd; stroke:none;" d="M320 411L320 412L324 412L320 411M326 411L327 412L326 411M1587 426L1588 427L1587 426M394 434L394 435L400 436L394 434M402 438L404 441L402 438M376.667 439.333L377.333 439.667L376.667 439.333M405 441L408 444L405 441M410.667 447.333L411.333 447.667L410.667 447.333M417 451L418 452L417 451M379 462L380 466L381 466L379 462M342 473L341 474L344 476L342 473z"/>
<path style="fill:#040404; stroke:none;" d="M1569 473L1570 476L1571 476L1572 473L1569 473z"/>
<path style="fill:#fdfdfd; stroke:none;" d="M1547 475L1548 476L1547 475M1553 475L1554 476L1553 475z"/>
<path style="fill:#040404; stroke:none;" d="M1573.67 475.333L1574.33 475.667L1573.67 475.333M329 496L332 493L329 496z"/>
<path style="fill:#fdfdfd; stroke:none;" d="M348 497L349 498L348 497M352 512L355 509L352 512M1531 553L1532 557L1536 556L1531 553M331 562L331 563L336 564L331 562M1528 567L1528 568L1531 568L1528 567M1532.67 583.333L1533.33 583.667L1532.67 583.333M1464 609L1464 610L1469 613L1468 607L1464 609M1461 609L1461 611L1463 609L1461 609M1488 651L1489 652L1488 651M1497 653L1494 660L1495 660L1497 653M1488 660L1491 660L1490 658L1488 660z"/>
<path style="fill:#040404; stroke:none;" d="M302 662L307 663L302 662z"/>
<path style="fill:#fdfdfd; stroke:none;" d="M316 664L323 669L324 668L316 664M277 683L278 684L277 683M1489 687L1490 688L1489 687M307.667 699.333L308.333 699.667L307.667 699.333M1503 703L1504 704L1503 703z"/>
<path style="fill:#040404; stroke:none;" d="M252.667 711.333L253.333 711.667L252.667 711.333z"/>
<path style="fill:#fdfdfd; stroke:none;" d="M1469 711L1469 712L1472 712L1469 711M308 715L309 716L308 715M1477 719L1478 720L1477 719M1477.33 734.667L1477.67 735.333L1477.33 734.667M1406 735L1406 739L1407 739L1406 735M258 737L258 741L261 740L258 737M1445 745L1446 746L1445 745M1467 751L1468 752L1467 751z"/>
<path style="fill:#040404; stroke:none;" d="M256 753L256 756L260 756L260 753L256 753z"/>
<path style="fill:#fdfdfd; stroke:none;" d="M1445 758L1443 759L1443 760L1445 758M256 771L257 772L256 771z"/>
<path style="fill:#040404; stroke:none;" d="M1440 771L1441 772L1440 771z"/>
<path style="fill:#fdfdfd; stroke:none;" d="M262 780L265 781L266 777L262 780M1473 793L1474 794L1473 793M1459 807L1460 808L1459 807M1453 845L1454 846L1453 845z"/>
<path style="fill:#040404; stroke:none;" d="M339 865L340 866L339 865z"/>
<path style="fill:#fdfdfd; stroke:none;" d="M357 901L358 902L357 901M794 903C789.122 909.329 785.673 911.491 785 920C775.451 911.925 765.873 916.974 756.999 922.554C754.125 924.361 747.964 927.399 747.531 931.209C747.073 935.234 750.956 939.639 752.676 943C755.623 948.76 757.006 955.152 760 961C757.694 962.159 746.247 975.372 752.925 975.364C755.573 975.361 756.788 971.425 759.133 970.451C762.645 968.993 766.389 969.923 769.942 967.941C774.744 965.264 777.607 959.441 782 956L782 945C774.731 949.383 773.667 960.496 764 962C769.023 953.422 771.564 943.176 779.093 936.144C783.932 931.626 794.554 930.581 798.199 925.663C800.85 922.086 796.809 920.449 794 920C798.8 914.325 798.545 908.877 794 903M737 905L736 908L737 908L738 908L737 905M1310 905L1311 906L1310 905M1182 907L1185 919C1189.45 916.031 1187.49 907.281 1182 907z"/>
<path style="fill:#040404; stroke:none;" d="M349 909L350 910L349 909z"/>
<path style="fill:#fdfdfd; stroke:none;" d="M364.333 912.667L364.667 913.333L364.333 912.667M1242 925L1243 926L1242 925M362 929L362 932L363 932L362 929M538 938L538 940L540 940L538 938M542 945L543 946L542 945M399 951L400 952L399 951M519 953L522 958L519 953M678 956L682 953L678 956M1142 953L1140 955L1140 956L1144 953L1142 953M1057 954L1056 958L1054 958L1050 955C1054.02 961.501 1056.59 967.823 1059.69 974.999C1060.45 976.754 1061.75 981.606 1064.2 981.654C1067.58 981.72 1068.52 976.343 1069.24 974.004C1070.87 968.728 1078.45 963.652 1072 959L1070 964C1069.66 959.681 1068.41 957.995 1064 959L1068 968L1065 969L1057 954M1184.67 955.333L1185.33 955.667L1184.67 955.333M1188 957L1189 958L1188 957M1203 957L1205 960L1203 957M1188 959L1188 960L1191 960L1188 959z"/>
<path style="fill:#040404; stroke:none;" d="M1157 961L1156 964L1157 961z"/>
<path style="fill:#fdfdfd; stroke:none;" d="M1183 961L1183 964L1184 964L1183 961z"/>
<path style="fill:#040404; stroke:none;" d="M762 962L758 966L761 967L762 962M1056 963L1057 964L1056 963z"/>
<path style="fill:#fdfdfd; stroke:none;" d="M484.333 967.667L484.667 968.333L484.333 967.667M538 967L539 968L538 967z"/>
<path style="fill:#040404; stroke:none;" d="M671 967L672 968L671 967z"/>
<path style="fill:#fdfdfd; stroke:none;" d="M484 971L485 972L484 971M743 971L744 972L743 971M744.667 973.333L745.333 973.667L744.667 973.333M745 975L746 976L745 975z"/>
<path style="fill:#040404; stroke:none;" d="M1149 984L1152 984L1151 982L1149 984M728 988L732 985L728 988z"/>
<path style="fill:#fdfdfd; stroke:none;" d="M1096 991L1096 993L1098 993L1098 991L1096 991M1069 992L1070 993L1069 992M933 995L934 1002L935 1002L935 995L933 995M953 1001L954 1002L953 1001z"/>
<path style="fill:#040404; stroke:none;" d="M967 1005L968 1006L967 1005z"/>
<path style="fill:#fdfdfd; stroke:none;" d="M787 1009L787 1014L788 1014L787 1009M472 1011L473 1012L472 1011M746 1012L749 1016L746 1012M869 1017L869 1019L871 1017L869 1017M1022 1024L1027 1024L1027 1022L1022 1024M874.333 1022.67L874.667 1023.33L874.333 1022.67M798 1023L799 1024L798 1023M890 1023L890 1024L893 1024L890 1023z"/>
<path style="fill:#040404; stroke:none;" d="M769 1026L772 1026L771 1024L769 1026z"/>
<path style="fill:#fdfdfd; stroke:none;" d="M853.667 1031.33L854.333 1031.67L853.667 1031.33M845 1035L846 1036L845 1035M847 1036C847.676 1042.55 851.796 1048.14 857 1052L854 1039L847 1036M1035 1036L1036 1037L1035 1036M855 1039L856 1040L855 1039z"/>
</svg>
