<?xml version="1.0" standalone="yes"?>
<svg xmlns="http://www.w3.org/2000/svg" width="1920" height="1080">
<path style="fill:#fdfdfd; stroke:none;" d="M0 0L0 1080L620 1080L773 1080L810 1080L824 1078L825 1078C828.407 1081.9 838.099 1080 843 1080L893 1080L1096 1080L1920 1080L1920 0L672 0L672 36L673 36L676 33L670 60L674 68L677 67C678.198 80.1875 690.375 91.825 691.862 105.001C692.996 115.057 685.965 127.698 684.731 137.911C684.271 141.714 687.574 144.701 688.049 148.424C689.884 162.811 686.99 177.783 700 188L697 178C707.57 176.983 721.203 195.389 725 204L728 202L730 208L741 207L742 197L737 197L739 192C741.865 196.433 747.563 191.457 752 191L752 196L766 202L770 183C776.815 184.108 784.858 196.699 787 203C793.029 199.675 789.916 193.508 788.718 188C785.902 175.053 789.72 164.35 784 152L782 152C776.648 162.501 770.839 157.287 762.83 153.273C750.468 147.077 735.939 139.247 731 125L735 125L734 122L725 119L725 115L740 118L736 114C737.099 99.4182 753.14 106.298 762 110L763 107L772 111L773 107L761 101L758 91L759 90L768 92C765.251 79.98 763.866 75.6068 778 75L779 79L780 79L780 71C785.132 74.3012 796.638 80.9288 799 73L800 73L803 74L804 79L816 84L811 73L813 75L817 73L817 77L823 76L820 60L821 60C821.54 61.3727 821.951 62.7966 822.85 64.0007C831.461 75.5436 830.291 58.8681 836.872 60.6003C840.435 61.5383 841.89 67.3333 846 69L844 53C848.345 56.3528 852.591 58.2955 855 52L861 53L868 68L868 59L880 64L878 53C885.306 54.5863 888.82 58.5527 889 66L890 66L894 48L904 57L903 60L911 73L921 71L919 77L920 77L927 68L929 68L931 74L932 74L936 61L940 64L941 64L943 62L947 76L948 73C955.584 73.8718 957.475 70.1365 959 63C965.612 65.4501 965.865 60.9013 970 57L970 71L977 68L987 48L986 55C991.673 51.7354 998.453 43.3917 1000 37L1000 48L1001 48L1011 21L1012 21L1012 32L1015 33L1012 47L1019 36L1016 44L1020 47L1022 41L1027 45L1026 48L1031 50L1031 49C1028.93 46.5613 1029.27 45.6038 1032 44L1032 48C1038.06 45.8419 1039.85 41.099 1040 35L1045 35L1040 62L1049 33L1051 33L1057 52L1060 43L1061 43L1061 56L1062 56L1064 54L1060 62L1062 68C1056.57 71.7871 1054.29 82.6583 1054 89C1058.66 85.9673 1058.81 82.7707 1065 84L1067 79L1062 78L1072 65L1070 74C1076.24 71.3869 1079.36 62.8997 1082 57L1086 59L1087 69L1088 69L1088 66C1091.52 67.8029 1093.44 67.9016 1095 64L1096 64L1101 70L1099 81L1107 78L1106 82L1100 84C1107.21 86.2095 1102.8 92.8384 1101.19 98C1099.91 102.123 1101.69 106.029 1100.52 110C1098.09 118.253 1090.21 121.533 1093 131C1098.67 125.61 1102.71 118.326 1109.28 113.552C1116.39 108.39 1112.01 116.274 1108 119L1100 144C1098.1 144.312 1095.81 143.916 1094 144.417C1085.99 146.629 1094.51 155.974 1096 149L1101 152L1096 156L1105 156L1110 159L1110 160C1102.91 161.182 1099.6 175.757 1098 182L1106 177L1104 184L1112 177L1110 186L1111 187C1117.82 184.491 1115.24 175.139 1124 179L1124 180L1120 184L1125 183L1121 200C1129.44 201.203 1133.04 186.438 1138 181L1137 193C1143.62 190.667 1145.64 185.119 1148 179L1149 179L1149 189L1150 189C1151.68 187.139 1152.42 185.795 1154 188C1160.64 185.222 1167.68 180.219 1174.58 178.478C1181.33 176.771 1187.6 179.878 1191 172L1195 174L1197 163L1200 164C1202.83 156.147 1204.16 151.011 1201 143L1204 146L1208 143L1209 147L1214 148L1215 141L1228 146L1230 139C1240.35 139.446 1246.85 145.424 1248 156L1249 156L1253 148C1251.61 159.212 1257.81 162.267 1261 172C1265.16 169.483 1267.33 168.308 1271 172L1272 172L1274 163C1283.47 162.793 1293.78 149.971 1294 141C1303.74 140.28 1308.76 131.403 1317 140L1324 135C1321.43 141.867 1322.59 158.241 1332 158L1333 155L1334 155L1335 158C1339.19 152.886 1343.76 148.413 1348 156L1349 156L1356.44 152.283L1361 141C1370.37 142.525 1371.94 131.121 1376.3 125C1383.6 114.76 1397.38 103.696 1409 99L1410 102L1415 98L1416 98L1425 104C1424.74 116.373 1415.58 123.831 1412.1 135C1409.62 142.961 1412.79 151.852 1410.43 160C1408.52 166.583 1402.05 171.165 1398.7 177C1396.74 180.422 1397.13 184.479 1395.31 187.961C1390.47 197.255 1381.63 205.318 1373 211L1371 224L1376 223C1374.56 230.118 1375.73 233.348 1383 232L1408 225L1408 230L1424 231L1420 242L1443 234L1442 244L1457 241L1453 249C1457.12 250.132 1458.02 251.826 1458 256C1474.91 255.953 1492.09 255.893 1509 254.701C1522.48 253.752 1530.74 250.814 1544 256L1547 252L1548 252L1551 256L1546 262L1542 261L1543 268L1564 271L1564 272L1556 279L1556 280L1571 279L1571 280L1568 280C1566.75 285.755 1563.98 288.195 1559 291L1559 293L1568 297C1571.16 296.726 1575.53 298.663 1572.24 302.413C1569.18 305.904 1556.05 312.248 1552 310L1551 310L1530 323L1529 333L1530 333L1532 325L1537 332L1543 327L1550 349C1553.8 349.137 1556.05 350.216 1557 354L1561 353L1558 360L1564 359L1563 362L1566 363C1564.65 366.809 1563.25 371.605 1568 373L1566 380L1571 377L1572 378C1568.76 384.829 1566.36 390.586 1569 398C1573.96 398.231 1573.04 401.712 1569 403L1569 404L1578 416L1582 414L1583 415L1582 418L1585 416C1588.52 422.43 1595.64 424.3 1602 421L1601 425L1597 425L1597 431C1592.98 430.384 1592.3 432.201 1592 436C1603.09 438.272 1593.97 448.147 1588 451L1588 452C1591.13 453.684 1593.95 455.43 1592 459L1592 460L1595 459C1592.25 471.671 1574.25 466.634 1576 478C1567.46 473.994 1558.77 475.295 1551.3 480.455C1547.09 483.362 1548 492.653 1552 495L1550 498C1560.09 505.31 1556.1 526.22 1572 530L1566 535L1566 536C1573.63 540.193 1571.42 548.404 1569 555L1564 554L1568 562L1540 559C1538.2 568.013 1546.48 581.098 1537 585L1540 592L1535 592C1536.11 598.826 1542.07 599.393 1544.97 605.015C1546.76 608.469 1545.74 612.554 1547.86 615.981C1550.25 619.862 1554.68 621.717 1557.68 625.054C1564.03 632.128 1568.65 641.944 1571.36 651C1572.78 655.769 1583.66 671.814 1574 673L1570 688L1567 687C1559.95 693.529 1554.43 677.889 1547 678C1542.62 662.548 1527.45 663.24 1515 660C1512.9 663.539 1497.47 674.614 1506.48 679.415C1509.14 680.831 1513.08 680.935 1516 682L1504 688L1518 692L1496 693L1496 695C1503.09 699.06 1517.03 699.458 1518 710L1523 711L1523 713L1485 721L1492 734L1481 733C1482.28 739.304 1486.29 740.501 1492 742L1492 744C1486.76 746.108 1488.56 749.987 1491 754L1480 756L1479 753C1471.81 760.399 1462.4 755.432 1454 753L1453 760L1452 760L1447 755C1450.95 760.889 1451.49 762.069 1448 768L1440 768L1444 778C1427.37 775.429 1419.58 764.607 1414 749L1413 749C1415.83 765.461 1426.61 774.391 1437.82 785.3C1442.02 789.398 1444.28 793.779 1450 796C1452.73 778.493 1476.45 793.201 1485 792L1482 795L1484 804L1465 811L1465 812L1479 814L1482 825L1479 828L1476 827L1462 840L1460 838L1459 838L1463 848C1458.57 848.345 1457.34 849.855 1456 854L1452 853L1454 859C1449.85 863.529 1448.11 864.686 1442 863L1442 868L1439 867L1438 868L1440 872L1432 871L1437 880L1420 874L1411 889C1400.91 883.476 1401.52 891.055 1399 899L1395 893L1394 893L1393 919L1391 918L1388 928L1386 925L1387 923L1386 922L1379 928L1377 925L1375 925L1376 936L1368 927L1372 936L1364 933L1363 936L1362 936C1357.37 927.206 1348.01 928.09 1350 939C1346.57 937.191 1344.41 936.674 1342 940C1333.31 933.978 1324.49 927.338 1323 916L1322 916L1317 929L1310 919C1301.8 917.019 1299.37 915.343 1297 907C1289.44 908.936 1287.91 901.676 1285 896L1284 896L1286 914L1282 909C1283.89 922.208 1295.25 925.855 1290 941L1288 941C1284.68 931.48 1280.5 933.947 1272.88 931.513C1269.25 930.353 1267.08 926.421 1263.58 924.995C1260.69 923.818 1257.12 925.549 1254 925L1249 950L1247 950C1245.67 945.78 1244.39 943.272 1240 942L1240 956L1233 947L1231 952L1228 951L1228 960C1223.44 959.924 1222.01 957.911 1220 954L1224 952L1218 944C1204.06 948.623 1218.64 970.85 1226 975L1224 977L1230 989L1220 981L1224 996L1211 978L1209 981C1204.45 979.028 1202.22 977.922 1198 981C1197.58 978.222 1196.19 968.76 1192 973C1182.72 967.24 1171.73 970.343 1170 957L1158 956C1159.17 952.813 1159.87 949.829 1156 949L1161 964C1152.68 967.183 1157.98 978.106 1158 985L1154 983C1150.4 986.139 1139.04 978.336 1137.21 973.945C1136.18 971.46 1137.66 968.793 1136.68 966.29C1135.89 964.278 1133.48 961.571 1131.08 961.914C1117.35 963.874 1127.19 991.823 1124 1000L1122 1000C1120.76 995.334 1119.63 986.254 1113.96 984.89C1109.7 983.866 1106.45 988.961 1103.75 991.402C1096.98 997.528 1089.23 1005.08 1081 1009C1076.09 1001.28 1072.42 1008.25 1067 1011L1064 1024L1066 1020C1069.59 1023.13 1070.71 1026.29 1070 1031L1063 1029C1064.1 1032.32 1065.59 1032.74 1069 1033C1071.81 1042.96 1087.33 1045.28 1086 1058C1078.65 1052.64 1072.37 1051.5 1068 1043L1065 1043L1065 1058C1049.74 1045.37 1045.35 1027.82 1046 1009L1045 1009L1041 1015L1032.95 1027.13L1037.53 1036.04L1047 1056C1037.09 1050.56 1040.17 1037.46 1026 1036L1025 1029C1021.54 1033.47 1022.68 1039.54 1019.33 1043.67C1014.55 1049.57 1010.29 1046.37 1010.01 1040C1009.89 1037.22 1009.64 1034.71 1009 1032L1008 1032L1004 1041L1003 1040C1005.05 1033.95 1007.1 1022.03 1004.68 1016C1002.49 1010.55 997.645 1007.26 995.247 1002C990.591 991.788 987.021 979.879 985 969L984 969L984 976L981 974L978 980L981 984L975 992C967.676 982.101 971.393 1000.1 971 1003L967 1002C969.569 1013.07 963.492 1008.83 957.05 1008.86C952.408 1008.88 944.992 1011.02 940 1012L944 1033C935.345 1028.62 927.306 1011.37 930 1002L921 1017L920 1009L919 1009C914.645 1017.62 911.853 1026.58 914 1036C908.444 1033.54 906.937 1030.98 907 1025L906 1025L901 1028L901 1024L887 1029L886 1041C875.731 1027.34 872.759 1056.34 866 1060C867.964 1049.42 866.029 1043.72 863 1034C857.69 1040.71 862.178 1044.92 862.192 1052C862.204 1057.85 855.952 1071.75 852 1076L853 1063L846 1072L850 1051C844.722 1054.24 840.636 1063.92 841 1070L840 1071L832 1072L832 1064L831 1064L824 1077C824.987 1072.23 826.879 1060.03 823 1057L822 1049L820 1054L818 1041L801 1046C801 1051.06 795.132 1046.16 795 1043C794.79 1037.96 800.589 1034.21 801 1029L790 1032C791.193 1024.76 786.303 1026.12 781 1027L781 1040L776 1037L772 1042L774 1027C765.095 1031.11 754.059 1031.12 747.225 1038.43C739.177 1047.03 740.447 1063.64 725 1066L729.879 1057.79L730.198 1039L736 1025L735 1025L731 1029C731.135 1022.26 737.694 1017.32 743 1014C732.498 1001.08 729.069 1018.9 720 1022.5C714.114 1024.84 707.853 1022.64 702 1025L701 1024C704.846 1018.48 711.337 1016.13 715.528 1010.87C720.355 1004.8 717.093 999.315 719.806 993.741C722.654 987.889 729.232 984.984 732.287 979.736C734.163 976.513 728.763 969.088 726 972C721.635 967.859 717.169 958.984 710 960.909C705 962.251 702.303 967.435 697 968L703 959L680 968L686 964L685 961C673.229 964.456 674.867 973.233 667 980C667.734 974.191 667.633 967.445 669.994 962.015C671.784 957.896 676.724 954.899 676.393 949.999C675.486 936.588 660.575 930.261 652.001 923.686C646.963 919.822 643.89 914.504 641 909L638 910C631.897 895.837 625.375 877.489 608 875L608 880L601 877L600 877C595.791 878.286 593.306 874.666 592 871L591 871L592 910L589 908L592 928L583 919L585 928C581.013 928.854 582 932.49 582 936L579 935L578 944L577 944C575.976 940.415 576.021 935.857 572 935L573 941L564 931C559.662 940.282 558.302 952.345 568 959L568 966L556 964L552 960L552 962L549 961L553 987L540 974L540 982C537.289 981.423 536.605 981.233 536 984C530.806 978.963 529.192 963.249 521 968L518 962L517 962L516 976L515 976L512 971L507 982L505 974L504 974C503.541 980.089 500.528 982.21 495 984L495 972C489.728 972.691 487.882 974.615 489 980C475.538 985.805 477.369 1005.49 480 1017L477 1021L472 1019L466 1020L466 1016L465 1016C462.255 1020.12 446.68 1020.28 448 1015C437.379 1015.96 436.638 1001.26 435 994C431.896 996.176 430.062 997.872 427 995L424 998C422.56 989.398 414.521 997.626 409 997C412.874 987.833 417.235 980.05 403 980C403.903 972.862 405.611 965.127 411 960L411 959L408 961L407 961L391 969L397 952L393 944L391 944L383 950L376 938L377 933L379 934L380 934L379 931L387 924C384.48 919.203 387.087 915.602 389 911L387 908L386 908C383.743 912.312 384.34 916.756 382.496 921C378.184 930.923 366.499 941.399 358 948L359.046 931L357.389 921L359 906L358 906L358 912L347 911L344 912L354 889L351 891L349 887L348 887C347.197 894.788 341.566 899.01 334 900L334 899C344.628 892.685 342.495 877.035 342 867L341 867L340 867L336 872L337 865L325.816 875.231L310 881L309 881L306 879C304.95 884.009 303.598 889.271 299 892L301 880L300 880L296 882L309 865C304.015 863.05 301.81 864.491 298 868L299 859L298 858L292 860L292 851C300.848 852.865 316.696 837.064 318 829L298 828C297.483 818.03 293.424 816.707 285 820L292 812C289.981 804.933 284.362 804.486 278 806C279.704 799.331 278.772 794.545 271 794C269.072 788.279 263.005 789.987 258 790L258 789L263 789L266 783C260.349 786.079 252.398 788.132 252 779L248 778L245 771C255.197 766.753 256.445 763.189 254 753C260.81 751.892 261.018 748.502 258 743C248.995 743.491 254.903 735.401 249.697 731.133C245.033 727.311 238.426 728.933 233 727L233 725L253 718L258 722L257 716C250.913 715.9 246.994 710.943 247 705L268 709.471L284 724C290.472 718.066 304.293 725.282 308 732L329 733C324.618 724.815 313.91 719.391 305 718C305.075 713.166 300.955 711.152 297 708.942C288.771 704.344 281.586 697.918 273 694L275 692L275 691L261 679C266.821 676.999 270.306 679.369 276 679.35C284.95 679.321 288.76 675.682 296 684L306 668L306 667L296 663L299 661L315 664L307 651L304 652L301 643L302 642C307.831 646.845 310.74 652.206 318 647L320 652C326.255 641.338 312.142 642.267 313 634L313 633L305 624L305 623L319 628L320 623L298 612C302.471 603.486 310.677 611.571 318 610L317 605L321 600C325.348 601.041 337.586 607.597 339 601L351 606C351.071 601.487 347.944 600.383 344 599L345 595L329.037 586.486L328.042 577.61L316.567 567.985L307 549L312 548L306 546L307 549L304 548L305 545L302 546L308 538C301.985 536.372 291.836 530.979 298 524L298 523L295 524L288 513C297.986 512.647 306.071 516.477 314 522L315 517L321 520L320 515C324.692 517.326 329.477 521.202 334.981 520.851C341.366 520.444 342.928 512.04 338.81 507.893C336.554 505.62 332.647 504.919 330 503L344 497L342 499L342 500L345 495L326 496L326 493L333 487L322.755 483.33L331 475L335 476C342.036 467.365 355.632 464.75 366 462L366 461L360 452L357 452L362 450L373 441C367.88 440.252 364.267 437.648 362 433L385 428L385 427L370 424.069L352 417C354.8 437.46 321.553 440.302 308 444L311 435C295.287 435.533 311.447 425.534 309 417L306 418C308.255 409.455 301.412 412.226 298.002 407.4C296.521 405.305 297.551 400.597 297 398L298 397L301 398L305 383L306 386L307 386L308 381L312 382L310 373L307 362L312.508 356.571L312 348L312 347L310 345L316 344L318 337L326 336L326 335C322.382 332.821 323.715 330.569 325 327L321 328L322 321C328.852 320.839 333.548 319.363 337 313L340 314L343 304L347 308C342.47 299.758 343.473 297.39 353 300L347 277L348 277L349 281L354 280L353 276L351 277L349 253C343.808 251.889 339.731 247.982 338 243L348 246L347 236L348 236L352 239L351 242L354 241L361 244C362.986 238.285 359.829 230.447 356 226C360.036 226.967 368.726 230.946 370 225C376.504 226.672 380.711 227.453 385 233L386 233L382 213L386 214C390.301 200.393 410.262 210.977 415 219L423 221C425.072 213.987 421.92 209.542 420 203L421 203L437 234L438 234L438 229L440 241L441 241L446 233L443 232L444 229L446 231C453.822 230.313 455.56 242.406 462 246C460.793 241.722 460.864 239.269 464 236L461 229L472 229C472.854 233.675 474.697 236.004 479 238L472 220L474 220L477 225L478 224L474 217C484.817 213.625 486.18 190.517 487 181L490 181L492 184C490.934 178.264 491.589 171.232 486 168L486 165L495 160L499 164L497 155C503.372 155.977 501.802 146.678 502 142L511 140L512 144L517 138L519 138L523 152L524 152L523 135L525 136L526 129L528 129C530.95 136.913 535.076 157.173 546 157C547.52 160.134 550.31 162.823 551.437 166.089C553.617 172.41 551.684 179.563 558 184L555 165L558 166L558 161L563 165L561 153L568 164L569 164L569 141L574 142L582 139L586 149L587 149C586.699 141.979 584.844 135.968 594 136L594 140L595 140C599.315 128.757 595 119.542 595 107L596 107L599 113C610.38 102.934 603.339 93.2471 604.468 81C605.53 69.4732 610.535 58.5338 612 47L615 48L622.992 32L627 14C631.141 13.1669 632.179 10.0007 632 6L636 4L635 0L0 0z"/>
<path style="fill:#040404; stroke:none;" d="M635 0L636 4L632 6C631.967 9.68066 630.637 12.7819 627 14L622.992 31L615 48L612 47C609.928 57.9961 605.638 68.8434 604.289 79.9105C602.634 93.5016 609.01 100.634 599 113L596 107L595 107L595 140L594 140L594 136C584.408 135.096 586.432 141.8 587 149L586 149L582 139L574 142L569 141L569 164L568 164L561 153L563 165L558 161L558 166L555 165C552.865 172.224 555.674 177.277 558 184L546 157C534.483 154.229 532.412 137.79 528 129L526 129L525 136L523 135L524 152L523 152L519 138L517 138L512 144L511 140L502 142C501.632 146.669 502.799 154.727 497 155L499 164L495 160L486 165L486 168C490.991 172.36 490.561 177.974 492 184L490 181L487 181C485.162 191.609 484.949 211.325 474 217L478 224L477 225L474 220L472 220L479 238L472 229L461 229L464 236C460.177 238.683 460.215 241.922 462 246L450.667 230.5L444 229L443 232L446 233L441 241L440 241C440.091 236.669 441.962 231.943 438 229L438 234L437 234C435.524 223.701 426.939 211.231 421 203L420 203L423 221L422 218L420 220L415 219C411.422 209.96 402.664 206.101 394 208.611C389.793 209.83 386.873 208.974 386 214L382 213L386 233L385 233C381.632 226.584 376.681 225.994 370 225C366.739 230.029 360.863 226.823 356 226C358.977 231.009 362.551 238.105 361 244L359 242L358 242L351 242L352 239L348 236L347 236L348 246L338 243C339.064 248.153 343.553 253.136 349 253L351 277L353 276L354 280L349 281L348 277L347 277L353 300C343.724 295.879 340.809 300.183 347 308L343 304L340 314L337 313C332.813 318.251 328.686 320.532 322 321L321 328L325 327C323.094 330.529 321.411 333.455 326 335L326 336L318 337L316 344L310 345L312 347L312 348L312.722 356.306L307 362C312.899 362 300.774 371.946 310 373L312 382L308 381L307 386L306 386L305 383L301 398L298 397L297 398C297.319 400.6 295.984 405.226 297.307 407.4C300.366 412.427 307.396 409.444 306 418L309 417C310.794 425.375 294.012 436.358 311 435L308 444C321.195 441.729 356.988 436.732 352 417L385 427L385 428L362 433C363.564 438.33 367.622 440.609 373 441L362 450L357 452L360 452C359.843 456.426 362.118 459.027 366 461L366 462C356.67 463.581 339.774 467.15 335 476L331 475C322.963 484.694 320.021 482.72 333 487L326 493L326 496L345 495L342 500L342 499L344 497L330 503C332.546 505.615 336.486 505.802 338.796 508.573C342.479 512.992 340.367 520.862 333.995 520.702C329.065 520.578 324.574 516.572 320 515L321 520L315 517L314 522C307.355 515.521 297.329 512.015 288 513L295 524L298 523L298 524C289.713 530.047 302.531 536.919 308 538L302 546L305 545L307 549L306 546L312 548L307 549L314.211 559.831L316.518 568.958L328.004 578.339L328.319 586.501L345 595L344 599L351 606L339 601C335.368 606.538 326.288 600.899 321 600L317 605L318 610C311.352 610.889 300.894 602.839 298 612L320 623L319 628L305 623L305 624L313 633L313 634C309.908 637.709 319.279 641.416 321.024 644.456C322.449 646.939 320.94 649.634 320 652L318 647C309.93 651.03 309 646.131 302 642L301 643L304 652L307 651L315 664L299 661L296 663C298.317 666.787 301.799 666.91 306 667L306 668C299.551 670.444 298.444 678.197 296 684C290.486 674.697 284.21 678.602 276 678.907C270.27 679.12 266.663 676.322 261 679L275 691L275 692L273 694C281.123 699.208 302.765 708.656 305 718C314.266 720.363 322.936 725.483 329 733L308 732C305.711 725.163 289.019 717.067 284 724C274.519 708.031 262.286 710.426 247 705C246.003 711.153 250.665 716.82 257 716L258 722L253 718L233 725L233 727C238.146 729.463 244.121 727.636 248.855 731.134C254.4 735.233 248.496 744.704 258 743C260.117 748.717 260.715 751.257 254 753C255.435 763.602 254.787 765.28 245 771L248 778L252 779C250.63 788.487 260.899 786.769 266 783L263 789L258 789L258 790C263.205 789.997 268.295 788.758 271 794C278.313 795.022 278.927 799.612 278 806C284.597 804.78 288.957 805.49 292 812L285 820C293.222 817.965 296.981 818.052 298 828L318 829C315.718 836.76 300.796 852.021 292 851L292 860L298 858L299 859L298 868C301.997 865.358 304.186 863.86 309 865L296 882L300 880L301 880L299 892C304.179 890.15 305.327 883.971 306 879L309 881L310 881L325.816 875.897L337 865L336 872L340 867L341 867L342 867C341.822 878.412 343.714 890.28 334 899L334 900C342.063 899.464 347.572 895.228 348 887L349 887L351 891L354 889L344 912L347 911L358 912L358 906L359 906L358 948L367.68 938.188L377.312 930.856L386 908L387 908L389 911C386.493 915.316 383.883 919.474 387 924L379 931L380 934L377 933L376 938C372.696 941.208 380.971 946.972 383 950L391 944L393 944L397 952C392.701 952.594 392.31 964.906 391 969L407 961L408 961L411 959L411 960C404.952 963.812 403.523 973.37 403 980C417.188 980.168 411.257 988.313 409 997C414.706 998.199 421.636 990.392 424 998L427 995L428 998L435 994C435.814 1001.11 437.438 1017.44 448 1015C449.397 1021.21 461.902 1020.25 465 1016L466 1016L466 1020L472 1019L477 1021L480 1017C478.107 1004.12 476.018 988.222 489 980C488.427 974.885 490.2 973.231 495 972L495 984C501.3 983.194 503.795 980.321 504 974L505 974L507 982L512 971L515 976L516 976L517 962L518 962L521 968C530.216 964.251 529.086 979.561 536 984L540 982L540 974L553 987L549 961L552 962L552 960L556 964L568 966L568 959C559.244 949.924 560.342 941.992 564 931L573 941L572 935L577 944L578 944L579 935L582 936L585 928L583 919L592 928L589 908L592 910L591 871L592 871C592.714 874.379 596.267 880.407 600 877L601 877L608 880L608 875C626.327 879.614 629.272 895.741 638 910L641 909C647.592 926.865 671.425 929.387 675.792 949C676.901 953.982 671.797 956.973 669.994 961.039C667.523 966.609 667.474 973.991 667 980C672.71 976.748 675.965 956.901 686 964L680 968L703 959L697 968L711.996 961.067L726 972C728.513 970.481 733.6 976.356 732.153 979.125C729.419 984.356 722.492 987.226 719.69 993C716.945 998.655 720.206 1003.82 715.528 1009.94C711.332 1015.43 703.765 1017.66 701 1024L702 1025C708.154 1023.34 715.181 1025.24 721 1022.63C731.275 1018.02 730.341 1003.03 743 1014C737.351 1016.39 729.945 1022.28 731 1029L735 1025L736 1025L730.198 1038L729.987 1056.38L725 1066C741.351 1064.77 741.867 1043.77 751.715 1035.06C757.585 1029.86 766.811 1031.96 774 1027C770.783 1032.54 770.109 1035.88 772 1042L776 1037L781 1040L781 1027C786.099 1026.55 790.207 1025.53 790 1032L801 1029C799.633 1033.7 794.946 1037.95 795.148 1043C795.281 1046.3 800.319 1050.68 801 1046L818 1041L820 1054L822 1049L823 1057C826.543 1061.12 824.668 1071.68 824 1077L831 1064L832 1064L832 1072L840 1071L841 1070C840.946 1063.66 845.425 1055.24 850 1051L846 1072L853 1063L852 1076C856.351 1072.9 862.429 1057.49 862.511 1052C862.62 1044.68 858.925 1041.32 863 1034L866 1060C874.98 1057.08 873.549 1028.69 886 1041L887 1029C893.301 1029.64 895.808 1027.08 901 1024L901 1028L906 1025L907 1025C906.577 1031.3 907.615 1034.1 914 1036C912.559 1026.01 915.657 1018.4 919 1009L920 1009L921 1017L930 1002C926.623 1010.52 935.005 1030.26 944 1033L940 1012C945.482 1011.46 952.032 1009.51 957.05 1009.45C963.476 1009.38 970.965 1013.24 967 1002L971 1003C971.998 999.571 967.148 983.401 975 992L981 984L978 980L981 974L984 976L984 969L985 969L995.709 1003.99L1004.93 1018L1003 1040L1004 1041L1008 1032L1009 1032C1009.71 1035.81 1008.7 1043.41 1011.18 1046.38C1018.1 1054.69 1023.56 1031.66 1025 1029L1026 1036C1030.94 1036.89 1036.24 1039.55 1038.84 1044.09C1041.51 1048.77 1041.14 1054.06 1047 1056L1038.04 1036.04L1033.49 1028.02L1041 1015L1045 1009L1046 1009C1044.72 1025.83 1048.66 1048.79 1065 1058L1065 1043L1068 1043C1071.03 1051.44 1078.34 1054.22 1086 1058C1088.77 1045.87 1073.09 1041.89 1069 1033L1063 1029L1070 1031C1071.14 1026.42 1070.22 1022.44 1066 1020L1064 1024L1067 1011C1073.48 1009.01 1074.76 1002.18 1081 1009C1089.74 1006.21 1097.8 997.5 1104.59 991.402C1107 989.235 1110.18 984.496 1113.96 985.497C1119.38 986.932 1120.38 995.601 1122 1000L1124 1000C1129.38 990.802 1116.77 968.583 1130.25 962.878C1132.68 961.852 1135.04 964.132 1136.16 966.121C1137.74 968.908 1135.58 972.02 1137.07 974.867C1139.24 979.028 1150.73 987.537 1154 983L1158 985C1158 977.65 1153.47 968.397 1161 964L1156 949C1158.92 950.912 1158.69 952.696 1158 956L1170 957C1171.02 969.856 1182.04 968.884 1192 973C1196.33 971.326 1197.16 977.709 1198 981C1202.51 978.624 1204.34 979.589 1209 981L1211 978L1224 996L1220 981L1230 989L1226 975C1218.85 969.084 1205.13 951.09 1218 944L1224 952L1220 954C1221.55 958.401 1223.12 960.637 1228 960L1228 951L1231 952L1233 947L1240 956L1240 942L1247 950L1249 950L1254 925C1257.31 926.297 1259.56 924.427 1262.71 925.235C1266.06 926.092 1268.35 929.766 1271.42 931.262C1279.2 935.041 1283.18 931.396 1288 941L1290 941C1296.65 927.058 1285.05 921.14 1282 909L1286 914L1284 896L1285 896C1287.16 901.955 1289.47 910.245 1297 907C1298.83 915.829 1301.45 917.406 1310 919C1309.51 923.991 1313.98 925.539 1317 929C1321.52 926.505 1321.59 920.824 1322 916L1323 916C1323.73 926.893 1332.6 935.651 1342 940C1344.89 937.382 1346.43 937.588 1350 939C1349.84 937.438 1349.24 935.56 1349.33 934C1350.07 921.856 1362.76 938.767 1364 933L1372 936L1368 927L1376 936L1375 925L1377 925L1379 928L1386 922L1386 925L1388 928L1391 918L1393 919L1394 893L1395 893L1399 899C1402.36 891.032 1400.53 885.003 1411 889L1420 874L1437 880L1432 871L1440 872L1438 868L1439 867L1442 868L1442 863C1447.98 865.475 1450.52 864.25 1454 859L1452 853L1456 854C1457.7 850.333 1458.91 848.651 1463 848L1459 838L1460 838L1462 840L1476 827L1479 828L1482 825L1479 814L1465 812L1465 811L1484 804L1482 795L1485 792C1476.54 791.832 1451.31 778.836 1450 796C1433.78 786.598 1417.96 767.176 1413 749L1414 749C1417.6 764.882 1427.81 776.658 1444 778L1440 768L1448 768C1452.53 762.702 1451.74 760.129 1447 755L1452 760L1453 760L1454 753C1461.33 755.901 1473.33 760.86 1479 753L1480 756L1491 754C1489.11 749.711 1487.46 746.824 1492 744L1492 742C1486.62 740.113 1482.97 738.74 1481 733L1492 734L1485 721C1488.44 720.074 1491.46 717.522 1495.01 717.183C1506.06 716.13 1512.54 719.163 1523 713L1523 711L1518 710C1517.76 699.245 1503.58 698.302 1496 695L1496 693L1518 692C1514.11 687.791 1509.43 688.004 1504 688L1516 682C1513.17 680.638 1509.03 680.782 1506.56 679.062C1498.63 673.543 1513.21 664.384 1515 660C1528.36 664.894 1539.81 662.62 1547 678C1552.69 679.3 1561.91 694.73 1567 687L1570 688L1574 673C1584.39 672.52 1573.07 655.786 1571.64 651C1568.93 641.945 1564.66 632.295 1558.49 625.054C1555.53 621.594 1551.2 619.687 1548.51 615.981C1545.64 612.027 1547.09 606.948 1544.4 603.105C1541.18 598.513 1536.58 597.906 1535 592L1540 592L1537 585C1546.95 582.276 1539.37 567.68 1540 559L1568 562L1564 554L1569 555C1572.05 549.143 1574.33 538.755 1566 536L1566 535L1572 530C1564.69 527.695 1559.23 518.899 1556.5 512C1554.99 508.184 1553.74 498.806 1550 498L1552 495C1544.08 488.366 1551.83 479.034 1559.17 476.294C1563.72 474.597 1571.54 476.554 1576 478C1575.38 465.964 1593.26 472.872 1595 459L1592 460L1592 459C1595.47 455.789 1591.18 453.118 1588 452L1588 451C1594.86 448.802 1603.9 437.341 1592 436C1592.56 432.474 1593.36 431.164 1597 431L1597 425L1601 425L1602 421C1595.06 423.506 1589.72 421.708 1585 416L1582 418L1583 415L1582 414L1578 416C1577.4 410.202 1574.25 406.496 1569 404L1569 403C1573.87 402.154 1574.63 397.136 1569 398C1567.08 390.144 1569.53 385.363 1572 378L1571 377L1566 380L1568 373C1563.94 370.562 1564.95 367.116 1566 363L1564 359L1558 360L1561 353L1557 354L1558 351L1550 349L1543 327L1537 332L1532 325L1530 333L1529 333L1530 323L1551 310L1552 310C1555.14 313.376 1570.26 305.894 1572.82 302.413C1575.91 298.191 1571.43 296.219 1568 297C1566.52 292.564 1563.08 293.471 1559 293L1559 291L1571 280L1571 279L1556 280L1556 279L1564 272L1564 271L1543 268L1542 261L1546 262L1551 256L1548 252L1547 252L1544 256C1531.64 249.194 1521.93 253.275 1509 254.455C1492.21 255.988 1474.79 255.861 1458 256C1458.23 251.623 1457.51 249.725 1453 249L1457 241L1442 244L1443 234L1420 242L1424 231L1408 230L1408 225L1383 232C1375.89 232.163 1375.23 230.077 1376 223L1371 224L1373 211C1388.4 204.148 1391.38 190.762 1398.7 178C1402.05 172.165 1408.52 167.583 1410.43 161C1412.8 152.839 1409.91 143.959 1412.13 136C1415.41 124.262 1424.89 116.999 1425 104L1416 98L1415 98L1410 102L1409 99C1397.91 102.241 1383.87 113.697 1377.02 123.001C1372.33 129.366 1370.46 141.297 1361 141L1356.4 151.438L1349 156L1348 156C1344.81 147.238 1338.37 152.18 1335 158L1334 155L1333 155L1332 158C1322.99 157.06 1321.98 142.286 1324 135C1320.13 134.937 1318.79 136.656 1317 140C1310.31 130.493 1302.67 139.59 1294 141C1293.54 149.442 1282.77 162.2 1274 163L1272 172L1271 172C1267.93 167.302 1264.81 168.806 1261 172L1253 148L1249 156L1248 156C1247.39 144.806 1240.72 139.221 1230 139L1228 146L1215 141L1214 148L1209 147L1208 143L1204 146L1201 143C1203.39 151.354 1202.03 155.84 1200 164L1197 163L1195 174L1191 172C1186.19 179.585 1181.09 176.259 1173.91 178.258C1167.49 180.048 1159.76 184.552 1154 188L1153 185L1152 185L1150 189L1149 189L1149 179L1148 179C1144.92 184.84 1143.14 189.723 1137 193L1138 181C1131.4 186.101 1130.24 199.603 1121 200L1125 183L1120 184L1124 180L1124 179C1115.82 173.591 1117.01 183.629 1111 187L1110 186L1112 177L1104 184L1106 177L1098 182C1100.65 175.565 1102.77 162.192 1110 160L1110 159L1105 156L1096 156L1101 152L1096 149C1094.2 151.516 1090.19 150.567 1091.92 147.167C1093.28 144.493 1097.49 144.626 1100 144L1108 119C1110.82 117.652 1118.25 109.299 1111.04 111.916C1103.32 114.725 1097.83 124.954 1093 131C1090.82 121.696 1098.65 118.267 1100.98 110C1102.12 105.963 1100.18 102.187 1101.54 98C1103.18 92.9344 1107.82 85.3055 1100 84L1106 82L1107 78L1099 81L1101 70L1096 64L1095 64L1088 69L1087 69L1086 59L1082 57L1070 74L1072 65L1062 78L1067 79L1065 84C1058.78 81.8566 1058.17 84.9068 1054 89C1054.6 82.1658 1057.23 73.0234 1062 68L1060 62C1063.54 59.9343 1064.76 58.0778 1064 54L1062 56L1061 56L1061 43L1060 43L1057 52L1051 33L1049 33L1040 62L1045 35L1040 35C1039.68 40.9556 1037.28 45.1281 1032 48L1032 44C1028.69 45.101 1027.9 46.9485 1031 49L1031 50L1026 48L1027 45L1022 41L1020 47L1016 44L1019 36L1012 47L1015 33L1012 32C1014.25 27.5427 1013.69 25.49 1012 21L1011 21L1001 48L1000 48C1000.41 44.1727 1003.43 39.6971 1000 37L986 55L987 48L977 68L970 71L970 57C965.221 59.9935 965.786 64.9382 959 63L954.694 72.5833L947 76L943 62L941 64L940 64L936 61L932 74L931 74L929 68L927 68L920 77L919 77L921 71L911 73L903 60L904 57L894 48L890 66L889 66C888.93 58.2522 886.01 54.0048 878 53L880 64L868 59L868 68L865 67C866.666 60.4736 865.258 57.9769 861 53L855 52C851.712 57.6105 848.79 55.535 844 53L846 69C842.741 67.0594 840.057 60.5923 836.872 59.9475C829.834 58.5228 832.283 73.97 823.509 63.9969C822.476 62.8224 821.774 61.3394 821 60L820 60C819.232 66.2095 819.631 70.5744 823 76L817 77L817 73L811 73L816 84L804 79L803 74L800 73L799 73C795.672 79.7843 785.693 74.0715 780 71L780 79L779 79L778 75C763.807 75.293 764.083 79.6698 768 92L759 90L758 91L761 101L773 107L772 111L763 107L762 110C753.191 105.35 736.49 98.9007 736 114L740 118L725 115L725 119L735 125L731 125C734.127 139.291 750.212 147.578 761.911 153.273C769.541 156.988 777.82 163.672 782 152L784 152C785.376 156.382 787.894 160.297 788.137 165.015C788.477 171.636 785.977 177.174 787.499 184C788.971 190.599 792.987 197.996 787 203C785.645 196.318 777.153 183.568 770 183L766 202L752 196L752 191L739 192L736 193L737 197L742 197L741 207L730 208L728 202L725 204C722.293 195.285 707.31 175.598 697 178L700 188C688.431 175.102 690.291 163.844 688.225 148.001C687.762 144.458 684.839 141.497 685.15 137.911C686.096 127.019 693.253 114.758 691.867 104.004C690.204 91.1092 679.026 79.7853 677 67L674 68C673.82 64.4377 673.869 60.825 670 60L676 33L673 36L672 36C674.349 23.3458 673.689 12.5436 672 0L666 0L665 4L664 4L664 0L647.559 1.02771L641 9L640 0L635 0z"/>
<path style="fill:#fdfdfd; stroke:none;" d="M636 0L636 2L638 2L638 0L636 0M640 0L641 9L647 0L640 0M664 0L664 4L665 4L666 0L664 0z"/>
<path style="fill:#040404; stroke:none;" d="M1020 31L1023 29L1020 31M1024 30L1021 32L1021 33L1024 30M890 47L894 48L890 47z"/>
<path style="fill:#fdfdfd; stroke:none;" d="M1016.67 47.3334L1017.33 47.6666L1016.67 47.3334M1023 49L1024 50L1023 49M1028 51L1029 52L1028 51z"/>
<path style="fill:#040404; stroke:none;" d="M974.667 59.3333L975.333 59.6667L974.667 59.3333M1091.67 63.3333L1092.33 63.6667L1091.67 63.3333M1107 67L1108 68L1107 67z"/>
<path style="fill:#fdfdfd; stroke:none;" d="M673 71L674 72L673 71z"/>
<path style="fill:#040404; stroke:none;" d="M811 71L812 72L811 71z"/>
<path style="fill:#fdfdfd; stroke:none;" d="M962 71L963 72L962 71M1053.67 71.3333L1054.33 71.6667L1053.67 71.3333M969 72L968 78L969 78L969 72M951 77L952 78L951 77M799.333 82.6667L799.667 83.3333L799.333 82.6667M803.667 87.3333L804.333 87.6667L803.667 87.3333M1053.33 92.6667L1053.67 93.3333L1053.33 92.6667z"/>
<path style="fill:#040404; stroke:none;" d="M734 104L737 104L736 102L734 104M507 107L508 108L507 107z"/>
<path style="fill:#fdfdfd; stroke:none;" d="M775 113L775 114L778 114L775 113M1086 127L1086 128L1090 126L1086 127M1080 135L1081 136L1080 135M1090 153L1090 156L1092 153L1090 153M1074 161L1074 164L1076 164L1076 161L1074 161M1092 170L1095 165L1098 168L1097 161C1093.06 163.021 1091.28 165.561 1092 170M570 165L575 172L570 165M1088 170L1088 172L1090 172L1090 170L1088 170M576 171L577 172L576 171z"/>
<path style="fill:#040404; stroke:none;" d="M1148.33 174.667L1148.67 175.333L1148.33 174.667M695.667 175.333L696.333 175.667L695.667 175.333M768.333 181.667L768.667 182.333L768.333 181.667M766 183L767 184L766 183z"/>
<path style="fill:#fdfdfd; stroke:none;" d="M1095 183L1096 184L1095 183M1107 187L1109 190L1107 187M749 194L746 200L747 200L749 194M768 203L769 204L768 203M388 213L388 216L390 216L390 213L388 213z"/>
<path style="fill:#040404; stroke:none;" d="M469 213L469 216L473 216L473 215L469 213M379 217L378 220L379 217z"/>
<path style="fill:#fdfdfd; stroke:none;" d="M424 221L425 222L424 221M423 223L426 231L427 231L426 223L423 223M478 225L479 226L478 225z"/>
<path style="fill:#040404; stroke:none;" d="M441 227L441 228L444 228L441 227z"/>
<path style="fill:#fdfdfd; stroke:none;" d="M688 227L689 228L688 227z"/>
<path style="fill:#040404; stroke:none;" d="M441 233L442 234L441 233M459 235L459 236L462 236L462 235L459 235z"/>
<path style="fill:#fdfdfd; stroke:none;" d="M1419 235L1420 236L1419 235M465 236L467 242L465 236z"/>
<path style="fill:#040404; stroke:none;" d="M354 239L354 241L356 239L354 239M1456 239L1456 240L1460 240L1456 239M1546 262L1547 263L1546 262z"/>
<path style="fill:#fdfdfd; stroke:none;" d="M356 278L356 280L358 280L356 278z"/>
<path style="fill:#040404; stroke:none;" d="M1570 291L1572 294L1573 294L1573 290L1570 291z"/>
<path style="fill:#fdfdfd; stroke:none;" d="M1568 298L1568 300L1570 300L1568 298M344 311L345 312L344 311M336 317L337 318L336 317M327 327L328 328L327 327M1496 335L1495 342L1498 341L1502 344L1497 356L1498 357L1512 352L1511 337L1496 335M1556 355L1557 356L1556 355M1492 360L1495 358L1492 360M308 415L309 416L308 415M388 429L392 432L388 429M395 435L395 436L399 436L395 435M402 439L404 441L404 439L402 439M406.667 443.333L407.333 443.667L406.667 443.333M411 447L412 448L411 447M1581 450L1580 452L1582 452L1581 450M369.667 457.333L370.333 457.667L369.667 457.333M379.667 463.333L380.333 463.667L379.667 463.333M1569 471L1569 472L1574 472L1569 471M1544 491L1544 492L1547 492L1544 491M344 511L344 512L349 512L344 511M322 521L324 524L322 521z"/>
<path style="fill:#040404; stroke:none;" d="M300 541L303 544L300 541z"/>
<path style="fill:#fdfdfd; stroke:none;" d="M1532 555L1532 556L1535 556L1532 555z"/>
<path style="fill:#040404; stroke:none;" d="M1568.33 562.667L1568.67 563.333L1568.33 562.667z"/>
<path style="fill:#fdfdfd; stroke:none;" d="M1529 567L1530 568L1529 567z"/>
<path style="fill:#040404; stroke:none;" d="M320 599L321 600L320 599M313 605L316 608L313 605z"/>
<path style="fill:#fdfdfd; stroke:none;" d="M343 605L345 608L343 605M1493 638L1493 640L1495 640L1493 638M1496 645L1496 649L1502 648L1496 645M1492.67 649.333L1493.33 649.667L1492.67 649.333M1503 655L1504 656L1503 655M1512.33 658.667L1512.67 659.333L1512.33 658.667M1498.67 667.333L1499.33 667.667L1498.67 667.333M1500.67 675.333L1501.33 675.667L1500.67 675.333M294 701L296 704L294 701M1481 717C1480.25 719.946 1479.8 721.311 1483 722L1481 717z"/>
<path style="fill:#040404; stroke:none;" d="M230.667 723.333L231.333 723.667L230.667 723.333z"/>
<path style="fill:#fdfdfd; stroke:none;" d="M288.667 727.333L289.333 727.667L288.667 727.333z"/>
<path style="fill:#040404; stroke:none;" d="M1490 727L1491 728L1490 727z"/>
<path style="fill:#fdfdfd; stroke:none;" d="M332.667 731.333L333.333 731.667L332.667 731.333M1411.33 747.667L1411.67 748.333L1411.33 747.667M1442 747L1445 750L1442 747M1485 749L1485 753L1486 753L1485 749M1445 751L1446 752L1445 751M264 777L265 780L264 777M256 779L257 780L256 779z"/>
<path style="fill:#040404; stroke:none;" d="M1477 829L1478 830L1477 829z"/>
<path style="fill:#fdfdfd; stroke:none;" d="M1463 831L1464 832L1463 831M597 871L598 873L599 873L600 871L597 871z"/>
<path style="fill:#040404; stroke:none;" d="M292 873L293 874L292 873z"/>
<path style="fill:#fdfdfd; stroke:none;" d="M301 887L302 888L301 887M590 903L591 904L590 903M793 907C788.449 912.39 786.349 916.867 786 924L782 919L767 926L766 919C752.748 924.788 749.138 929.876 754.792 943C756.375 946.676 757.484 954.87 763.028 954.454C768.768 954.023 773.181 942.102 776.529 938.015C779.608 934.256 808.119 921.74 793 920L793 919C797.347 915.928 796.122 910.619 793 907M1184 907L1185 915L1186 915L1184 907M1192 917L1193 918L1192 917M1196 917L1194 919L1194 920L1208 937C1209.64 930.265 1205.09 925.834 1201 921L1204 920L1202 917L1201 921L1196 917M1377 923C1379.4 923.575 1379.49 923.475 1380 921L1377 923M1278.67 923.333L1279.33 923.667L1278.67 923.333z"/>
<path style="fill:#040404; stroke:none;" d="M1384.67 925.333L1385.33 925.667L1384.67 925.333z"/>
<path style="fill:#fdfdfd; stroke:none;" d="M1271.33 927.667L1271.67 928.333L1271.33 927.667M559 931L560 932L559 931M1289 932L1288 936L1289 932z"/>
<path style="fill:#040404; stroke:none;" d="M370 942L370 944L372 944L372 942L370 942M355 944L353 948C355.649 947.432 356.355 946.412 355 944M376 945L377 946L376 945z"/>
<path style="fill:#fdfdfd; stroke:none;" d="M781 945L780 948L781 945z"/>
<path style="fill:#040404; stroke:none;" d="M671.333 946.667L671.667 947.333L671.333 946.667M381 949L382 950L381 949z"/>
<path style="fill:#fdfdfd; stroke:none;" d="M1165 949L1169 956L1170 949L1165 949z"/>
<path style="fill:#040404; stroke:none;" d="M1243 950L1242 952L1244 952L1243 950z"/>
<path style="fill:#fdfdfd; stroke:none;" d="M1150 953L1155 962C1154.76 957.684 1153.93 955.062 1150 953M1050 955L1050 956L1053 956L1050 955M1056 957L1056 960L1058 960L1058 957L1056 957M765 968L775 959C769.572 958.871 765.43 962.593 765 968M1066 959L1066 960L1069 960L1066 959z"/>
<path style="fill:#040404; stroke:none;" d="M405.667 961.333L406.333 961.667L405.667 961.333z"/>
<path style="fill:#fdfdfd; stroke:none;" d="M1057 965C1058.15 970.032 1060.47 974.381 1065 977L1065 972L1064 972L1063 974L1063 963L1057 965z"/>
<path style="fill:#040404; stroke:none;" d="M1267 967L1268 968L1267 967z"/>
<path style="fill:#fdfdfd; stroke:none;" d="M1142 971L1148 974L1147 969L1142 971M504.333 971.667L504.667 972.333L504.333 971.667M1199 971L1200 972L1199 971M1199 973L1200 974L1199 973z"/>
<path style="fill:#040404; stroke:none;" d="M1178 975L1178 976L1182 974L1178 975z"/>
<path style="fill:#fdfdfd; stroke:none;" d="M485.333 975.667L485.667 976.333L485.333 975.667M1149 977L1152 980L1151 977L1149 977M1218 979L1219 980L1218 979z"/>
<path style="fill:#040404; stroke:none;" d="M1196.33 980.667L1196.67 981.333L1196.33 980.667M1201 980L1201 984L1203 984L1203 980L1201 980M664 983L665 984L664 983z"/>
<path style="fill:#fdfdfd; stroke:none;" d="M734 987L735 988L734 987z"/>
<path style="fill:#040404; stroke:none;" d="M1160 988L1159 992L1160 988M1231 991L1232 992L1231 991z"/>
<path style="fill:#fdfdfd; stroke:none;" d="M934 995L933 1000L936 1000L934 995M964 1005L965 1009L966 1009L966 1005L964 1005z"/>
<path style="fill:#040404; stroke:none;" d="M1079.33 1008.67L1079.67 1009.33L1079.33 1008.67M957.333 1014.67L957.667 1015.33L957.333 1014.67z"/>
<path style="fill:#fdfdfd; stroke:none;" d="M450.667 1015.33L451.333 1015.67L450.667 1015.33M1032 1018L1033 1019L1032 1018M899 1019L900 1022L904 1020L899 1019z"/>
<path style="fill:#040404; stroke:none;" d="M478 1023L479 1024L478 1023z"/>
<path style="fill:#fdfdfd; stroke:none;" d="M765.667 1023.33L766.333 1023.67L765.667 1023.33M873.667 1023.33L874.333 1023.67L873.667 1023.33M891 1023L892 1024L891 1023M1023 1023L1023 1024L1026 1024L1023 1023M1008 1025L1008 1031L1009 1031L1010 1025L1008 1025M756 1028L759 1028L758 1026L756 1028M880 1027L879 1032L884 1027L880 1027M808 1033L807 1036L808 1037L811 1036L808 1033M848 1038L852 1042L848 1038M822 1044L825 1041L822 1044M1013 1042L1012 1044L1014 1044L1013 1042M800 1043L800 1045L802 1045L802 1043L800 1043M853 1046L856 1048L853 1046M833 1049C833.353 1052.36 833.418 1055.24 837 1056L833 1049z"/>
<path style="fill:#040404; stroke:none;" d="M803 1050L803 1054L804 1054L803 1050M1068 1053L1068 1057L1071 1053L1068 1053z"/>
<path style="fill:#fdfdfd; stroke:none;" d="M854 1057L854 1061L855 1061L856 1057L854 1057z"/>
<path style="fill:#040404; stroke:none;" d="M824.333 1078.67L824.667 1079.33L824.333 1078.67z"/>
</svg>
