<?xml version="1.0" standalone="yes"?>
<svg xmlns="http://www.w3.org/2000/svg" width="1920" height="1080">
<path style="fill:#fcfcfc; stroke:none;" d="M0 0L0 1080L492 1080L606 1080C621.07 1080 640.577 1085.35 644 1067L617 1071L623.603 1051L641.96 1035.56L668.826 1009.73L676.267 995.188L690 984L690 982C678.105 979.709 666.753 1000.06 660.139 1007.87C646.716 1023.72 629.925 1035.71 611.089 1044.03C605.495 1046.5 601.335 1050.38 595 1051L580 1060L579 1053L577 1053L574 1056L573 1050C593.291 1043.81 605.113 1021.4 625 1016C624.84 1009.36 618.099 1003.27 619.234 997C620.44 990.333 626.996 988.669 631.961 985.651C638.307 981.794 644.599 976.147 649.276 970.406C652.62 966.302 651.938 960.876 656 957C654.642 952.156 654.989 949.767 660 948C654.776 939.982 645.342 955.584 640 958L638 952L641 952L645 943L642 946L637 944C636.168 944.945 630.198 950.464 630.207 945.743C630.216 940.722 641.473 934.759 643.81 929.911C646.202 924.948 642.309 918.853 641 914L640 914L642 924C636.052 918.063 635.885 900.855 627.596 897.662C623.78 896.192 620.265 901.761 616.062 901.289C612.438 900.881 612.688 897.798 613 895L599 902L600 906L596 907L600 920L596 917L594 934L585 945L584 942L583 942L588 973L582 970C582.172 965.351 579.979 962.305 576 960L581 997L577 998L576 998C573.115 993.776 569.644 986.148 564 987L566 996L563 995C566.456 1009.98 557.678 1015.61 553 999L550 1000L550 996L549 996L542 1008C544.389 999.994 541.756 988.55 532 997L529 987L523 983C522.117 988.664 517.818 988.486 513 990L513 988L511 988L505 998L506 995L503 997L504 994L507 992L507 991L505 989L495 1000L495 1008L494 1008L492 1006L491 989C486.684 995.316 489.815 1002.05 490 1009L486 1008L489 1016C502.286 1019.83 500.806 1041.79 500 1052L496 1050L496 1057L490 1055L490 1062L479 1053C470.837 1059.9 467.044 1043.8 468 1038L465 1036L462 1043L454 1033L447 1048L442 1032L441 1032L437 1043L436 1039L433 1039L428 1044L423 1036L424 1032L427 1033L421 1028L426 1015L420 1020C419.932 1015.59 421.926 1010.87 418 1008L416 1014L415 1014L412 1006L411 1006L404 1023L400 1021L399 1021L397 1025L396 1025L398 993L397 993C394.967 995.363 387.042 1004.84 383.863 1000.51C382.075 998.073 383.966 994.739 382 992L382 991L389 987L388 982C377.428 983.672 377.006 993.298 369 998L371 987L367 988L364 977L362 977L354 985L356 980L356 979L355 977L354 977L353 980C350.986 976.44 349.07 975.286 345 975L348 972L346 968L329 968L330 965L327 964L345 952L345 949L340 950C343.926 939.516 344.002 933.171 342 923L324 934L336 915L340 916L340 913L343 914L346 903C337.198 903.639 330.965 911.314 325 917L329.179 903.174L339 889L334 889L334 896L320 894L320 891C326.631 888.332 322.084 881.572 316.09 884.438C312.171 886.312 304.635 892.165 302.609 896.02C300.481 900.069 299.964 906.481 296.684 909.677C292.268 913.98 288.68 908.92 287 905L282 906L287 899L278 900L290 879L280 881C277.337 873.412 278.533 869.942 286 875L287 871L296 868L296 865L292 863L287 868L284 861L282 861L281 865C275.089 860.315 275.587 847.314 283.018 843.504C290.305 839.767 297.299 850.835 300.783 838.025C301.306 836.104 301.243 834.931 301 833L300 833C294.941 838.145 285.347 836.343 281 831L290 824L272 825C274.233 820.852 277.487 820.21 282 820L281 809L268 809L267 812L266 812L265 805L273 806L278 800C274.341 796.619 260.67 795.177 258 800L246 794L245 794L222 790C221.796 785.553 219.007 784.878 215 784L215 783L219 782L217 779C220.897 775.374 223.451 773.327 229 774L224 765L228 767L227 760L227 759L237 756L238 751L228 747C235.992 744.444 239.951 742.657 244 735C235.777 736.493 227.855 747.973 224 735L196 732L193 734C195.387 729.117 194.676 725.214 189 724L199.999 720.632L218 712L216 706L220 701L207 700L207 699L214 698L216 692L216 691L210 686L203 688L213 684L208 673L220 672.893L240 680C230.987 672.083 208.404 663.513 209 649C218.343 654.818 229.752 666.092 241 664L242 660L258 668.433L273 669L266 664L270 660L269 657L270 656L287 665L292 658L293 658L297 652L295 645L288 644L291 640L286 636L286 633L292 636L293 636L294 633L296 633L297 638C304.382 629.924 285.143 621.104 281 617L284 614L290 616C287.816 609.204 269.215 603.507 274 597L276.028 599.778L282 597.444L300 600L297 594L295 596L294 593L300 591L303 597C307.205 588.192 317.439 597.762 319 588L308 580C312.464 576.586 309.428 572.095 307.369 568.001C302.409 558.138 294.112 557.614 284 560L285 553C280.905 555.38 278.457 556.882 275 553C295.95 548.773 277.8 537.099 274 527L282 528L254 492L261 492L258 485L266 488C270.813 486.948 272.356 489.15 276 492L287 487L287 481C301.277 486.969 302.224 480.569 315 476.201C320.568 474.298 326.415 475.563 330 470L326 466C340.107 465.053 353.757 449.943 357 437L352 438L365 426L366 426L368 428C365.159 422.646 360.382 417.316 354 419C356.856 427.906 347.196 430.917 341.576 435.88C329.952 446.145 317.975 448.75 305 455.429C301.53 457.215 293.979 463.173 289.803 461.431C287.171 460.333 286.182 455.339 285 453L274 456L264 445L268 444L267 441L262 442C261.662 437.265 261.571 434.426 266 432L266 430L260 425C269.865 421.569 267.066 413.042 272.579 407.314C276.431 403.31 279.964 405.333 282 399L280 401L279 401L275 397L267 400L268 389L274 392L273 387L274 387L275 389L279 373L280 373L280 376L281 376L275 353C281.816 358.234 287.987 365.758 296 357C290.249 355.331 289.706 351.592 293 347L286 348C286.688 342.516 288.818 339.094 294 337L295 340L296 325L300 332L301 332C300.828 324.298 301.635 311.966 291 312L291 308L298 307L298 312C306.464 309.365 308.423 311.667 310 320C316.963 317.707 319.087 308.462 320 302C328.145 302.125 326.363 289.875 327 284L335 289L336 281L340 284C339.495 272.409 333.506 274.231 326.444 267.687C323.291 264.765 321.909 260.718 320 257L319 257L318 260L314 258L321 250L321 249L323 247L318 245C314.927 245.333 312.549 244.558 312 248L305 244C308.076 237.78 312.645 233.248 311 226C316.707 226.608 322.95 225.367 324 219L328 222C330.989 211.468 337.17 212.531 345 216L348 212L348 207L351 208L353 202L355 203L354 192L363 189L364 189C366.41 184.412 369.411 184.166 374 186L376 181L381 184L381 180L382 180C383.289 183.991 385.934 185.078 390 185L392 190L396 188L403 197L404 196L403 193L407 192L408 196L409 196L408 193L408 192L408 184C411.655 183.834 412.315 182.567 412 179C417.354 179.74 419.895 181.533 421 187L422 187L425 188L422 188L422 189L423 192L428 193L427 195C433.921 200.689 430.893 204.828 433.858 211.985C435.474 215.885 439.41 218.735 442 222C447.402 220.486 449.678 218.841 450 213C455.845 216.489 461.328 219.436 464 226C470.664 222.179 461.835 215.092 458 212L458 211L460 203L468 210L468 205L475 209L472 199L474 202L475 202L472 187L473 187L474 190C478.897 184.899 473.576 178.923 473 173L474 173L480 178L479 175L481 181C487.455 175.914 471.833 167.094 475 159C470.575 155.108 469.586 150.76 470 145L473 145L476 148L477 142L480 144C480.743 138.123 481.19 134.25 478 129L484 129L484 137L486 135L490 140C496.7 135.554 493.262 123.912 494 117L498 124L504 124L505 117L504 117L502 120L501 113L508 112L509 109L513 113L524 106L520 91L521 91C523.025 97.1071 526.22 96.7139 532 96C531.124 92.5558 531.121 91.1911 534 89L541 125L542 125L542 113L543 113L551 135L554 125C558.082 128.215 559.83 130.764 560 136L563 135L565 121L566 121L568 124L568 120C573.681 125.417 565.595 133.701 574 137L582 112L583 112L591 121L593 126C592.124 112.573 583.578 93.8574 594 83L592 92L595 89L599 96L600 96C598.864 79.0655 599.123 58.303 604.221 42C607.776 30.63 615.99 23.6597 616 11L621 12L623 0L0 0z"/>
<path style="fill:#040404; stroke:none;" d="M623 0L621 12L616 11C615.959 23.1058 607.625 30.1141 604.221 41C599.131 57.2785 598.119 79.0626 600 96L599 96L595 89L592 92L594 83C582.715 90.7831 591.669 114.743 593 126L591 121L583 112L582 112L574 137C566.196 132.312 575.176 124.407 568 120L568 124L566 121L565 121L560 136C559.936 130.615 558.899 127.626 554 125L551 135L543 113L542 113L542 125L541 125L534 89C530.737 90.8981 530.785 92.5443 532 96C526.331 96.3961 523.615 96.4896 521 91L520 91C520.004 96.9089 520.322 101.175 524 106C519.133 106.701 515.311 108.54 513 113L509 109L508 112L501 113L502 120L504 117L505 117L504 124L498 124L494 117C492.482 124.779 496.253 133.71 490 140C488.915 136.357 487.547 135.459 484 137L484 129L478 129L480 144L477 142L476 148L473 145L470 145C469.381 150.578 469.891 155.941 475 159C470.148 168.297 486.935 174.374 481 181C482.093 177.809 481.953 176.714 479 175L480 178L474 173L473 173L472 176C475.617 180.266 476.892 185.094 474 190L473 187L472 187L475 202L474 202L472 199L475 209L468 205L468 210L460 203L458 211L458 212C461.374 215.862 468.657 221.256 464 226C462.14 219.164 456.266 215.586 450 213C449.378 218.564 446.821 219.902 442 222C439.811 217.957 435.588 215.271 433.859 210.996C431.088 204.146 434.985 199.42 427 195L428 193L423 192L422 188L425 188L425 187L422 187L421 187C420.346 181.134 417.865 178.68 412 179C411.755 182.154 411.266 183.596 408 184L408 192L408 193L409 196L408 196L407 192L403 193L404 196L403 197L396 188L392 190L390 185C386.124 184.818 383.82 183.409 382 180L381 180L381 184L376 181L374 186C369.605 183.694 365.641 183.805 364 189L363 189L362 187L354 192L355 203L353 202L351 208L348 207L348 212L345 216C337.65 211.245 329.644 211.521 328 222L324 219C322.259 224.805 316.636 226.363 311 226L305 244L312 248L313 245L318 245L323 247L321 249L321 250L324 251C319.331 253.437 315.605 252.194 314 258L318 260L319 257L320 257C324.714 269.527 338.91 270.678 340 284L336 281C333.063 283.229 334.037 285.724 335 289L327 284C325.829 290.482 328.018 300.109 320 302C318.114 308.662 316.608 316.44 310 320C308.938 311.653 306.514 308.393 298 312L298 307L291 308L291 312C301.208 312.582 300.466 324.457 301 332L300 332L296 325L295 340L294 337C288.242 338.548 286.371 342.237 286 348L293 347C288.935 351.31 289.88 356.024 296 357C285.994 364.703 283.648 357.411 275 353L281 376L280 376L280 373L279 373C278.365 375.887 277.67 388.414 274 387L273 387L274 392L268 389L267 400L275 397L279 401L280 401L282 399C279.368 404.727 274.93 403.177 271.949 407.321C267.221 413.895 268.632 420.491 260 425L266 430L266 432C261.164 433.862 261.094 437.307 262 442L267 441L268 444L264 445L274 456L285 453C285.999 455.672 286.914 461.181 290.228 461.868C295.466 462.954 302.59 457.099 306.985 454.939C319.811 448.636 331.032 445.94 342.424 435.88C347.848 431.091 358.168 427.652 354 419C360.347 417.965 364.325 423.388 368 428L366 426L365 426C360.036 429.496 353.368 431.573 352 438L357 437C352.83 449.676 339.976 464.132 326 466L330 470L313.91 476.056L300.91 484.322L287 481L287 487C283.18 486.246 276.88 487.892 276 492C272.715 488.458 270.868 486.467 266 488L258 485L261 492L254 492L282 528L274 527C277.129 538.671 294.59 546.342 275 553C277.756 557.944 281.236 555.991 285 553L284 560C294.52 558.133 302.359 558.903 307.368 569C309.433 573.162 311.262 576.096 308 580C310.115 584.92 313.731 587.299 319 588C316.166 597.56 306.33 586.959 303 597L300 591L294 593L295 596L297 594L300 600L282.59 597.235L274 597L271 598L290 616L284 614L281 617C285.031 622.921 301.612 627.485 297 638L296 633L294 633L293 636L292 636L286 633L286 636L291 640L288 644L295 645L297 652L293 658L292 658L291 656L287 665L270 656L269 657L270 660L266 664L273 669L258 668.022L242 660L241 664C228.562 664.351 220.033 653.664 209 649C207.663 662.95 230.094 673.87 240 680L221 672.879L208 673L213 684C209.3 684.699 203.885 683.872 203 688L210 686L216 691L216 692L214 698L207 699L207 700L220 701L216 706L218 712C209.151 711.094 206.644 718.413 199 720.569C194.823 721.748 190.486 718.711 189 724C194.325 725.885 194.588 728.967 193 734L196 732L205 730.778L224 735C226.474 748.534 236.625 737.192 244 735C238.843 741.883 235.792 743.647 228 747L238 751L237 756L227 759L227 760L228 767L224 765L229 774C223.4 772.829 220.429 774.64 217 779L219 782L215 783L215 784C218.603 785.127 221.508 785.953 222 790L245 794L246 794L258 800C261.719 795.687 273.12 797.684 278 800C274.205 800.827 273.304 802.171 273 806L265 805L266 812L267 812L268 809L281 809L282 820C277.46 820.097 273.542 820.241 272 825L290 824L281 831C284.169 836.886 296.11 838.964 300 833L301 833C300.894 836.616 300.301 841.801 297.058 844.107C292.971 847.014 287.634 841.844 283.303 843.067C275.555 845.255 273.823 861.234 281 865L282 861L284 861L287 868L292 863L296 865L296 868L287 871L286 875C278.712 868.419 276.376 873.725 280 881L290 879L278 900L287 899L282 906L287 905C288.112 909.227 291.949 914.339 296.684 910.396C300.013 907.623 300.619 900.828 302.61 897.008C304.79 892.825 311.971 887.274 316.09 884.958C321.487 881.921 325.51 887.573 320 891L320 894L334 896L334 889L339 889L329.179 902.301L325 917L346 903L343 914L340 913L340 916L336 915L324 934L342 923C343.124 933.153 342.953 939.492 340 950L345 949L345 952C338.862 953.3 330.915 959.194 327 964L330 965L329 968C335.454 970.31 339.703 971.15 346 968L348 972L345 975L353 980L354 977L355 977L356 980L354 985C358.811 984.028 360.766 981.688 362 977L364 977L367 988L371 987L369 998L388 982L389 987L382 991L382 992C383.066 994.584 381.782 999.329 383.657 1001.24C387.712 1005.37 395.201 996.122 397 993L398 993L396 1025L397 1025L399 1021L400 1021L404 1023L411 1006L412 1006L415 1014L416 1014L418 1008L420 1020L426 1015L421 1028L427 1033L424 1032L423 1036L428 1044L433 1039L436 1039L437 1043L441 1032L442 1032L447 1048L454 1033L462 1043L465 1036L468 1038C466.718 1043.58 472.152 1062.34 479 1053L490 1062L490 1055L496 1057L496 1050L500 1052C501.238 1042.21 502.626 1018.45 489 1016L486 1008L490 1009L491 989L492 1006L494 1008L495 1008L495 1000L505 989L507 991L507 992L504 994C502.488 990.521 502.343 995.336 503 997L506 995L505 998L511 988L513 990C518.133 988.918 522.52 989.004 523 983L529 987L532 997C542.056 990.375 544.006 999.597 542 1008C546.887 1005.54 547.839 1001.06 549 996L550 996L550 1000L553 999C556.641 1016.64 568.018 1010.43 563 995L566 996L564 987C569.527 987.252 572.383 994.207 576 998L577 998L581 997C581.009 983.063 580.773 973.343 576 960L582 970L588 973L583 942L584 942L585 945L594 934L596 917L600 920L596 907L600 906L599 902L613 895C612.455 897.62 611.743 900.765 615.149 901.597C619.742 902.719 624.039 896.495 627.596 898.176C636.483 902.376 634.172 918.827 642 924L640 914L641 914C641.965 918.894 645.854 925.141 643.211 929.914C640.597 934.635 629.638 940.555 629.636 945.783C629.633 951.403 635.965 945.767 637 944L642 946L645 943L641 952L639 951L638 952L640 958C646.586 955.986 653.422 941.586 660 948C654.424 949.163 653.964 952.073 656 957C651.071 959.848 652.595 965.606 649.375 969.681C644.806 975.462 638.188 981.08 631.982 985.093C626.689 988.514 619.988 989.729 618.643 997C617.453 1003.44 624.764 1009.32 625 1016L608.961 1025.65L573 1050L574 1056L577 1053L579 1053L580 1060L595 1051C601.637 1051.54 606.273 1046.51 612.039 1044.03C630.924 1035.9 647.509 1023.68 660.86 1007.87C667.716 999.752 678.024 981.316 690 982L690 984C677.238 989.664 677.523 1000.31 668.826 1008.87C660.071 1017.48 650.302 1027.53 640.985 1035.56C635.469 1040.31 627.67 1043.79 623.603 1050.01C620.057 1055.44 618.315 1064.65 617 1071L644 1067L638 1080C646.077 1079.9 655.122 1069.78 662 1065C660.796 1071.9 664.09 1074.29 667 1080L673 1080C673.374 1071.95 676.598 1066.47 685 1069C681.943 1079.16 690.648 1083.02 698 1076L699 1080L760 1080L757.171 1060.02L760 1052L757 1055L753 1052L753 1051L762 1048L761 1056L771 1063L768 1080C776.799 1079.67 779.92 1078.53 780 1069C785.944 1068.9 789.771 1074.53 791 1080L819 1080C822.654 1080 827.096 1081.22 828 1077L829 1077C831.617 1081.04 836.606 1080 841 1080L874 1080L878 1065L879 1065L880 1070C886.459 1066.61 880.674 1062.24 882.531 1057.05C886.471 1046.06 896.837 1046.63 892 1033L900 1027C899.976 1035.55 897.806 1045.62 908 1037L900 1058L907 1060C915.312 1048.67 916.767 1042.98 915 1029L917 1032L924 1029L926 1035L929 1033C932.656 1038.77 935.221 1039.9 941 1036C938.141 1045.9 932.726 1054.93 943 1063L943 1064L937 1068L939 1072L934 1069L932 1079L940 1074C943.502 1073.34 945.669 1070.66 946.41 1067C947.435 1061.94 943.767 1057.13 944.12 1052C944.614 1044.83 949.491 1038.72 948.531 1031.09C947.933 1026.34 943.937 1024.04 946 1019L948 1026L952 1025L955 1036C961.94 1038.03 956.201 1043.7 955 1048C964.427 1047.73 967.419 1046.84 970 1037L974 1039C978.843 1030.17 984.135 1020.3 976 1012L980 1012L981 1009L983 1009L983 1016L1000 1025L979 1051L979 1052L995.091 1062.26L998 1078L1002 1071C1007.71 1074.37 1015.42 1072.4 1016 1080L1020 1080L1019 1072L1024 1072L1019 1070L1018 1057L1023 1064L1032 1060C1031.2 1055.33 1030.17 1052.46 1034 1049L1039 1052L1036 1064L1043 1070C1035.81 1070.17 1031.68 1072.51 1031 1080C1035.49 1079.79 1044.59 1081.84 1048.27 1078.97C1053.58 1074.85 1050.24 1061.65 1050 1056L1053 1057C1052.43 1064.05 1056.83 1071.33 1064 1067C1060.1 1084.13 1089.53 1079.98 1099 1080L1099 1072L1101 1080C1104.61 1080 1114.44 1081.73 1116.78 1078.4C1119.06 1075.14 1115.02 1068.69 1112.61 1066.51C1102.68 1057.56 1090.54 1052.84 1086 1039C1093.19 1037.46 1085.1 1028.9 1084.58 1025C1083.96 1020.3 1089.52 1016.84 1093 1015L1092 1018L1093 1018L1095 1015L1096 1015L1101 1015L1102 1018L1105 1018C1106.65 1014.16 1108.43 1008.67 1113 1008L1118 993L1119 993C1120.42 1000.18 1122.18 1009.79 1130 1012L1131 1009L1133 1009C1133.41 1012.86 1133.92 1015.28 1138 1016C1140.36 1021.23 1146.58 1026.15 1152 1028C1151.28 1018.99 1138.02 1016.41 1140 1007L1136 1008L1140 999L1135 1000L1137 989L1132 988L1136 977C1146.71 983.779 1153.66 990.572 1152 1004C1158.34 1006.55 1157.49 1010.59 1160.85 1015.58C1168.12 1026.33 1171.7 1033.25 1174 1046L1181 1040L1176 1036L1179 1023L1175.43 1013L1168 1001L1184 999L1184 995C1187 996.291 1191.32 999.924 1186 1001L1188 1016L1195 1013L1192 1014L1192 999L1193 999C1194.5 1004.4 1198.93 1010.47 1204 1013L1204 1009L1205 1009C1207.9 1013.75 1215.29 1020.81 1221 1020L1213 997C1232.8 1017.76 1224.96 1047 1241 1069C1243.49 1060.31 1233.54 1050.3 1241 1043C1241.22 1048.03 1241.67 1054.17 1247 1056L1249 1052L1249 1051L1246 1047L1250 1047L1250 1041L1253 1045C1258.89 1041.2 1260.3 1026.92 1253 1024C1256.45 1020.58 1259.34 1020.73 1264 1021L1265 1032L1276 1021C1275.95 1017.19 1274.99 1014.47 1279 1013L1283 1017L1280 1021L1281 1027C1284.97 1024.62 1286.3 1015.05 1291 1019L1296 1016L1291.4 1004.63L1282.99 996.892L1273 971L1283.67 986L1288.33 995.264L1297 993L1298 997L1305 994L1302 993L1303 989L1306 990L1306 988L1313 991L1312 996L1325 997L1327 1001L1330 1000L1333 1005L1334 999C1326.6 998.187 1323.62 988.766 1320.24 983.228C1318.57 980.498 1315.63 980.564 1313.6 978.412C1310.88 975.527 1308.71 963.918 1309 960L1314 960L1315 963L1318 962L1325 974L1328 973C1328.61 975.851 1329.3 975.854 1332 975L1330 972L1330 971L1334 969C1334.58 973.617 1337.34 981.522 1343 978L1348 984L1348 976L1352 977C1350.85 980.828 1350.06 983.002 1353 986L1359 969L1361 969L1362 972L1363 972C1365.77 965.26 1368.79 963.037 1376 965L1376 963L1378 963L1379 966L1385 965C1387.26 969.215 1391.44 970.967 1396 972L1396 959L1409 961C1409.79 958.763 1410.63 957 1408 957L1416.35 952.502L1410 934L1415 934L1414 931L1416 927L1419 934C1424.22 931.083 1420.86 926.036 1421 921L1428 917L1433 920C1428.82 921.538 1428.14 923.698 1428 928C1438.34 925.22 1439.62 919.494 1451 926L1453 909L1456 910L1456 896L1459 893L1472 897L1473 893C1466.9 890.217 1462.22 887.28 1464 880L1467 881L1468 876L1473 877C1470.79 870.012 1474.18 870.076 1480 868L1479 865L1480 864L1487 872L1490 855L1497 857L1510 844L1512 845L1513 841L1508 835L1524 833L1530 821L1529 821L1528 824L1526 824C1524.96 822.307 1521.45 819.488 1521.73 817.417C1522.43 812.22 1532.98 812.743 1525 806L1525 805L1523 795L1521 796L1514 792C1513.89 779.806 1505.94 784.059 1497 782.536C1482.9 780.134 1466.96 782.098 1453 784.403C1450.3 784.849 1448.05 787.517 1445.33 787.508C1442.59 787.498 1441.12 783.97 1440 782L1454 782L1456 774L1452 771L1461 772C1467.28 767.306 1472.45 766.178 1480 768C1490.34 756.56 1505.03 766.915 1517 758L1520 760L1521 755L1525 754L1505 742L1513 740C1511.52 735.337 1509.79 733.266 1505 732L1520 728.006L1530.81 718.464L1560 716L1553 713C1550.89 707.684 1547.77 705.434 1542 706L1541 705L1542 703L1538 703L1540 706L1531 700L1536 693L1539 694L1539 689C1532.96 691.663 1528.34 691.215 1525 685L1529 686L1529 681L1523 677C1538.99 673.832 1547.51 697.211 1556.64 706.431C1562.83 712.687 1576.77 716.186 1585 718C1589.29 713.994 1594.49 713.658 1595 707L1598 708L1599.21 692.96L1587.32 671L1576.39 641L1558 616L1557 613L1562 616L1549 599L1550 599L1550 602L1551 602L1549 584L1553 589L1554 589L1555 581L1558 580L1555 575L1568 577L1585 584L1588 575L1583 574L1589 559L1585 555C1592.5 553.392 1579.09 543.162 1589 542L1588 536L1585 536C1587.02 530.441 1585.79 525.429 1579 526L1569 519L1567 521L1568 515L1557 504L1557 503L1561 499L1565 500L1561 491L1564 490L1560 487C1563.64 485.227 1567.69 481.933 1572 482.607C1579.63 483.803 1585.89 490.585 1594.85 488.628C1601.17 487.247 1594.01 480.395 1595.97 477.098C1598.03 473.62 1610.2 472.23 1614 472L1618.92 456.015L1616 443C1612.37 438.773 1616.15 437.17 1620 435L1621.53 418L1618 409L1604 412L1604 411L1609 406L1596 405.508L1588.23 406.839L1583 400L1583 399C1586.68 393.682 1580.65 380.463 1578 375C1583.36 375.138 1586.37 376.533 1589 371L1579 367C1579 369.436 1578.21 368.615 1576 368L1581 362C1575.28 357.588 1578.45 354.794 1580 349L1576 352L1568 350C1570.24 343.48 1574.2 343.638 1580 342L1576 340C1579.45 334.93 1581.19 336.931 1585.95 334.873C1595.42 330.784 1600.82 327.017 1612 329C1614.05 326.618 1622.65 323.052 1620 320L1623 313L1627 316L1624 313C1624.54 310.921 1624.91 304.549 1627 309L1630 308L1627 304L1627 303L1640 300L1640 299L1637 298L1642 295L1642 296L1640 298L1654 289C1649.48 288.752 1646.98 288.548 1645 293L1644 293L1651.97 282.776L1653.32 266.015L1657 257L1651 260L1653 252L1649 256L1648 256L1651 247C1648.51 246.94 1644.09 248.551 1642.66 245.744C1641.44 243.356 1644.38 239.12 1641.51 237.677C1634.43 234.113 1622.96 238.139 1616 240L1624 227L1616 223L1615 226L1607 226L1607 225L1610 224L1610 223L1607 224L1606 221L1602 226L1592 222L1589 227C1579.73 224.665 1569.96 232.429 1560.42 233.126C1534.65 235.01 1509.77 235.771 1484 233L1467 238L1467 237C1470.7 235.135 1471.69 233.089 1472 229L1458 229L1455 231L1460 219L1440 224L1441 220L1441 219L1420 228C1418.56 223.08 1411.48 222.751 1407 223.259C1396.68 224.429 1384.11 223.431 1378 233L1382 224L1382 223C1369.72 210.051 1391.95 202.994 1395 193L1397 194L1401 183L1404 184C1405.41 180.132 1405.41 174.754 1407.85 171.455C1411.77 166.155 1418.69 161.911 1421.17 155.572C1424.2 147.832 1419.76 139.782 1424.14 131C1428.09 123.067 1438.2 115.63 1440.18 106.961C1441.36 101.789 1443.27 90.9193 1441.01 86.0008C1438.12 79.6871 1429.78 74.6485 1424 80L1423 80C1416.02 75.0074 1409.67 86.334 1405.62 90.7145C1391.92 105.544 1376.5 111.656 1369 132L1366 132C1360.66 129.252 1358.62 140.686 1355 144L1354 140L1343 148L1346 141L1339 143L1338 139L1334 140L1334 132L1331 133L1336 115L1334 118L1329 114L1328 114L1327 120L1319 117L1314 119C1313.01 122.69 1311.84 123.865 1309 121L1305 128L1301 123L1292 130L1292 127L1291 127C1288.13 131.787 1287.45 138.693 1289 144L1286 142C1281.7 143.573 1277.5 145.463 1276 150L1271 146L1266 148L1271 137L1268 135C1274.3 131.542 1274.21 125.359 1276 119C1271.17 121.437 1271.02 124.958 1271 130L1244 131L1246 129L1246 123L1225.09 121.757L1211 131C1209.71 128.474 1205.64 123.947 1205 129L1186 133L1191 139L1191 143L1189 141L1188 141C1188.74 146.849 1193.79 157.764 1188 161L1188 155L1181 157C1180.05 161.699 1177.19 165.65 1173 168L1173 163L1164 166L1160 159L1153 166L1157 150L1150 156L1146 156L1149 147C1144.24 148.63 1143.41 153.382 1143 158L1140 158L1136 177L1135 174L1128 174L1128 171C1135.82 167.104 1137.36 152.299 1134 145L1132 145L1120 168L1119 168L1127 146L1122 150L1122 141L1118 141C1120.39 132.062 1121.85 121.842 1130 116.225C1133.15 114.056 1143.48 112.728 1141 108L1141 107L1145 101L1141 97L1147 98C1145.68 92.7726 1145.52 88.8608 1152 90L1151 83C1157.92 81.1353 1162.78 69.8262 1156 65L1157 72L1152 69L1151 69L1150 74C1146.45 70.3011 1145.38 58.6508 1142 71L1139 69L1138 75L1136 72L1134 73L1132 65L1129 68L1125 67L1122 74L1123.92 62L1130 47L1125 49L1131 41L1131 40L1125 32L1126 18L1120 21L1117 18L1115 5C1108.78 5.70654 1102.65 7.91455 1101 0L1094 0L1094 4L1092 4L1092 0L1084 7L1083 7L1081 0L1077 0L1077 4L1070 0L1067 8L1068 0L1060 0L1057 5L1056 0L994 0C994 11.5341 995.135 21.661 990 32L989 32L991.776 14L991 0L984 0L984 5L982 5L982 0L976 0C975.025 4.50757 971.988 8.43616 971.383 13C970.927 16.4403 972.698 19.5762 972.61 23C972.36 32.8344 964.353 39.6207 956 44L959 32L948 38L948 25C937.946 25.3273 939.541 34.1165 934 40L936 31C928.497 29.2971 929.013 37.5608 928 43L927 43C927.435 34.1554 921.389 33.0983 918 26L912 31L914 35L910 36C909.659 31.5209 908.266 29.499 904 28C900.78 30.6022 898.587 30.1211 896 27L888 28C890.895 23.785 904.708 15.0975 895 12L897 6C893.127 5.19312 891.642 3.94055 891 0L887 0C887.404 11.9211 877.57 17.1559 867 20L868 17L863 15L865 22L860 20L862 14C858.491 16.8531 857.079 19.5038 858 24L840 20L845 16C842.477 11.5063 839.871 11.1526 835 12L834 6L831 7C832.957 12.1964 842.248 24.256 831 19L832 23L824 19L825 28L829 30L829 32L826 36C823.117 33.6055 819.721 31.6295 817.144 28.8958C808.371 19.5858 816.995 10.025 818 0C813.75 1.24304 814.545 5.45166 811.917 8.56946C805.781 15.8477 798.382 12.0093 798 24L793 21L791 28L777 25C774.18 29.4142 770.893 26.8409 769 23L768 23L761 29L761 18L757 20L756 17L754 17L756 23C753.505 26.563 753.308 30.337 757 33C756.408 35.5254 758.544 51.6284 754 45L751 46C748.111 41.4772 744.425 36.1216 739 35L739 36C742.579 41.9214 734.285 38.1237 732 37C729.647 41.1461 726.902 40.2438 724 37L721 41L715 41C711.424 35.1617 706.464 39.6902 712 43L710 52L711 49C705.762 49.059 699.1 45.7317 697 52C692.283 49.6797 690.643 45.8171 689 41L692 40C687.411 29.6464 692.597 11.5226 694 0L623 0z"/>
<path style="fill:#fcfcfc; stroke:none;" d="M694 0C692.647 6.59229 693.487 12.4725 692.571 19C691.426 27.1581 687.266 32.2087 692 40L689 41C690.202 46.0577 691.699 50.4307 697 52C699.865 47.026 705.899 49.3435 711 49L710 52L712 43C707.334 38.8718 711.132 36.8041 715 41L721 41L724 37C726.294 40.924 730.385 41.8497 732 37C734.703 38.8853 744.222 40.6001 739 36L739 35L751 46L754 45C754.661 48.085 758.418 48.8936 758.639 44.9722C758.883 40.6405 756.066 37.9392 757 33C753.848 29.6577 753.793 26.9755 756 23L754 17L756 17L757 20L761 18L761 29L768 23L769 23C770.066 27.4899 775.255 30.9591 777 25L791 28L793 21L798 24C799.151 10.9106 813.234 13.5826 815 0L694 0M818 0C815.13 16.6702 807.841 25.016 826 36L829 32L829 30L825 28L824 19L827 18L832 23L831 19C842.912 27.0234 833.265 11.4064 831 7L834 6L835 12C839.775 11.5511 841.896 12.2665 845 16L840 20L858 24L862 14L860 20L865 22L863 15L867 20C878.302 18.2842 887.902 11.8616 887 0L818 0M891 0C891.343 4.29663 892.751 5.51099 897 6L895 12C903.521 16.3931 890.5 22.6482 888 28L896 27C898.015 30.3604 901.345 31.2312 904 28L910 36L914 35L912 31L918 26L927 43L928 43C929.299 37.6049 928.764 30.3754 936 31L934 40C940.435 35.4769 937.951 25.7601 948 25L948 38L959 32L956 44C973.989 38.2772 969.518 26.63 971.658 13C972.377 8.42114 975.411 4.70081 976 0L891 0M982 0L982 5L984 5L984 0L982 0M991 0L991.701 13L989 32L990 32C996.402 23.1088 994 10.6096 994 0L991 0M1055 1L1057 5L1060 0L1055 1M1062 3L1065 0L1062 3M1068 0L1067 8C1070.16 5.87769 1071.23 2.5575 1068 0M1073 0L1077 4L1077 0L1073 0M1081 0L1083 7L1084 7L1089 0L1081 0M1092 0L1092 4L1094 4L1094 0L1092 0M1101 0C1101.96 8.30249 1108.8 6.25598 1115 5L1117 18L1120 21L1126 18L1125 32L1131 40L1131 41L1125 49L1130 47L1123.92 61L1122 74L1125 67L1129 68L1132 65L1134 73L1136 72L1138 75L1139 69L1142 71C1146.23 59.7558 1145.84 71.2745 1150 74L1151 69L1152 69L1152 72L1157 72L1156 65C1161.39 70.8893 1157.96 80.1812 1151 83L1152 90C1145.42 88.2254 1145.29 92.8054 1147 98L1141 97L1145 101L1141 107L1141 108C1142.29 112.95 1130.6 114.603 1127.14 117.681C1121.22 122.962 1119.28 133.498 1118 141L1122 141L1122 150L1127 146L1119 168L1120 168L1132 145L1134 145C1136.67 153.383 1135.39 165.556 1128 171L1128 174L1135 174L1136 177L1140 158L1143 158C1143.69 153.423 1144.83 149.371 1149 147L1146 156L1150 156L1157 150L1153 166L1160 159L1164 166L1173 163L1173 168C1177.79 166.356 1180.45 161.889 1181 157L1188 155L1188 161C1194.58 158.814 1189.02 146.505 1188 141L1189 141L1191 143L1191 139L1186 133L1205 129C1205.65 124.203 1209.5 129.004 1211 131L1225.46 122.059L1246 123L1244 131L1271 130C1271.06 124.979 1271.92 122.111 1276 119L1268 135L1271 137L1266 148L1271 146L1276 150L1286 142L1289 144L1291 127L1292 130L1301 123L1305 128L1309 121L1310 124L1314 119L1319 117C1321 120.538 1323.15 120.364 1327 120L1328 114L1329 114C1331.14 117.424 1332.92 117.331 1336 115L1331 133L1334 132L1334 140L1338 139L1339 143L1346 141L1343 148L1354 140L1355 144C1359.61 141.003 1360.03 130.843 1366 132L1369 132C1372.89 124.574 1376.44 116.403 1382.32 110.289C1388.95 103.41 1397.99 99.1458 1404.79 92.4197C1409.74 87.5211 1414.87 76.7479 1423 80L1424 80C1441.25 69.6743 1441.73 96.3196 1439.92 105.985C1438.3 114.654 1428.04 122.173 1424.14 130C1422.27 133.735 1419.88 138.775 1419.76 143C1419.65 146.888 1422.32 150.87 1421.09 154.714C1418.93 161.445 1410.89 165.63 1407.32 171.455C1405.28 174.774 1405 180.204 1404 184L1401 183L1397 194L1395 193C1391.3 200.284 1367.9 213.15 1382 223L1382 224C1378.68 226.146 1377.18 229.084 1378 233C1384.75 225.64 1413.03 216.59 1420 228L1441 219L1441 220L1440 224L1460 219L1455 231L1458 229L1472 229L1467 237L1467 238C1471.79 237.696 1481.35 237.081 1484 233C1508.74 237.913 1536.08 235.767 1561 233.29C1570.46 232.349 1579.67 225.541 1589 227L1592 222L1602 226L1606 221L1607 224L1610 223L1610 224L1607 225L1607 226L1615 226L1616 223L1624 227L1616 240C1622.89 238.829 1634.64 234.15 1641.43 238.104C1643.77 239.466 1641.3 242.884 1641.82 244.941C1642.94 249.328 1647.92 247.139 1651 247L1648 256L1649 256L1653 252L1651 260L1657 257L1658 260C1648.51 263.764 1655.69 274.881 1651.96 281.892C1649.41 286.683 1644.82 286.912 1644 293L1645 293C1647.52 289.056 1649.51 288.912 1654 289L1640 298L1642 296L1642 295L1637 298L1640 299L1640 300C1634.38 298.069 1631.94 300.204 1627 303L1627 304C1628.95 306.196 1628.81 306.699 1627 309L1625 306L1624 313L1627 316L1623 313L1620 320L1612 329C1601.38 326.501 1594.97 329.976 1585.91 334.196C1581.15 336.416 1578.64 334.406 1576 340L1580 342C1573.95 342.941 1569.4 343.161 1568 350L1576 352L1580 349C1577.66 354.395 1574.28 358.606 1581 362L1576 368C1578.17 368.716 1579.03 369.294 1579 367L1589 371C1585.58 375.921 1583.25 374.318 1578 375C1580.39 381.539 1585.55 392.348 1583 399L1583 400L1587.34 406.954L1609 406L1604 411L1604 412L1618 409L1620 407L1620 435C1616.02 436.599 1610.9 439.283 1616 443L1618.59 455.68L1614 472C1610.21 471.606 1597.14 473.293 1595.47 477.243C1594.06 480.555 1600.16 486.617 1594.85 488.268C1580.99 492.575 1574.02 477.338 1560 487L1564 490L1561 491L1565 500L1561 499L1557 503L1557 504L1568 515L1567 521L1569 519L1579 526C1585.13 526.587 1586.37 530.499 1585 536L1588 536L1589 542C1580.01 543.367 1589.93 551.446 1585 555L1589 559L1583 574L1588 575L1585 584C1580.85 582.244 1571.93 573.065 1568 577L1555 575L1558 580L1555 581L1554 589L1553 589L1549 584L1551 602L1550 602L1550 599L1549 599L1562 616L1557 613L1558 616C1554.77 619.413 1569.5 632.487 1572.13 636C1580.25 646.858 1581.48 660.011 1587.32 672C1590.68 678.89 1596.64 684.312 1598.5 691.985C1599.82 697.414 1595.74 701.468 1598 708L1595 707L1585 718C1576.77 715.604 1563.95 712.496 1557.39 706.431C1548.25 697.982 1538.83 671.699 1523 677L1529 681L1529 686L1525 685C1527.28 691.951 1533.36 692.248 1539 689L1539 694L1536 693L1531 700L1540 706L1538 703L1542 703L1542 706C1547.55 705.723 1550.3 708.372 1553 713L1560 716L1530.18 718.349L1520 727.577L1505 732L1513 740L1505 742C1507.98 746.781 1519.59 753.015 1525 754L1521 755L1520 760L1517 758C1512.25 760.187 1506.29 762.591 1501 762.643C1492.71 762.724 1485.45 759.151 1480 768C1472.87 765.65 1466.33 766.343 1461 772L1452 771L1456 774L1454 782L1440 782C1440.93 784.372 1442.08 787.54 1445.09 787.825C1448.29 788.127 1450.86 784.963 1454 784.599C1468.35 782.936 1482.61 780.667 1497 782.7C1505.55 783.908 1513.72 780.447 1514 792L1521 796L1523 795L1525 805L1525 806C1531.02 813.806 1521.35 811.67 1521.34 817.86C1521.34 820.102 1524.64 822.47 1526 824L1528 824L1529 821L1530 821L1531 824L1524 833L1508 835L1513 841L1512 845L1510 844L1497 857L1490 855L1487 872L1480 864L1479 865L1480 868C1473.9 869.55 1469.25 869.779 1473 877L1468 876L1467 881L1464 880C1461.15 887.31 1466.44 890.954 1473 893L1472 897L1459 893L1456 896L1456 910L1453 909L1451 926C1440.57 918.265 1437.44 924.187 1428 928C1428.31 923.898 1429.4 922.019 1433 920L1428 917L1421 921C1420.64 926.001 1423.04 930.348 1419 934C1419.48 930.561 1419 928.839 1416 927L1414 931L1415 934L1410 934L1416.18 951.681L1408 957C1410.85 957 1409.67 958.686 1409 961L1396 959C1393.97 963.798 1393.97 967.197 1396 972L1385 965L1379 966L1378 963L1376 965C1368.63 962.168 1365.14 964.755 1363 972L1362 972L1361 969L1359 969L1353 986L1352 977L1348 976L1348 984L1343 978C1337.39 980.102 1334.99 973.539 1334 969L1330 971L1330 972L1332 975L1328 973L1325 974L1318 962L1315 963L1314 960L1309 960C1308.26 964.016 1310.53 975.087 1313.03 978.412C1314.99 981.023 1318.44 980.926 1320.24 984.109C1323.48 989.856 1326.37 998.668 1334 999L1333 1005L1330 1000L1327 1001L1325 997L1312 996L1313 991L1306 988L1306 990L1303 989C1302.09 991.891 1302.46 992.32 1305 994L1298 997L1297 993L1288.33 994.698L1283.67 985L1273 971L1283.42 998.586L1291.97 1006.29L1296 1016L1291 1019C1287.16 1013.2 1284.03 1024.33 1281 1027L1280 1021L1283 1017L1279 1013C1274.86 1014.18 1275.8 1017.27 1276 1021C1269.23 1021.76 1268.78 1027.19 1265 1032L1264 1021C1259.38 1020.46 1255.85 1019.82 1253 1024C1259.86 1028.3 1258.19 1039.95 1253 1045L1250 1041L1250 1047L1246 1047L1249 1051L1249 1052L1247 1056C1242.27 1053.31 1241.42 1048.13 1241 1043C1233.09 1048.13 1242.6 1061.55 1241 1069C1236.68 1060.58 1232.5 1052.36 1230.52 1043C1227.38 1028.16 1227.47 1007.05 1213 997L1221 1020C1215.15 1019.75 1208.83 1013.28 1205 1009L1204 1009L1204 1013L1193 999L1192 999L1192 1014L1195 1013L1188 1016L1186 1001L1189 1002C1189.6 997.833 1187.96 996.15 1184 995L1184 999L1168 1001C1169.85 1005.73 1173.87 1009.33 1175.61 1013.92C1177 1017.56 1173.62 1021.85 1179 1023L1176 1036L1181 1040L1174 1046C1173.26 1032.69 1167.97 1025.42 1160.85 1014.71C1157.55 1009.75 1158.67 1005.78 1152 1004C1154.36 991.244 1147.51 982.007 1136 977L1132 988L1137 989L1135 1000L1140 999L1136 1008L1140 1007C1136.32 1016.06 1150.62 1019.52 1152 1028L1138 1016L1133 1009L1131 1009L1130 1012C1122.76 1008.59 1120.96 1000.26 1119 993L1118 993L1113 1008C1108.01 1008.25 1106.27 1013.68 1105 1018L1102 1018L1101 1015L1096 1015L1095 1015L1093 1018L1092 1018L1093 1015C1088.49 1016.76 1083.47 1020.43 1084.7 1026C1085.71 1030.54 1091.23 1035.51 1086 1039C1088.34 1048.38 1096.26 1056.7 1104.09 1062.44C1111.05 1067.54 1117.87 1069.57 1117 1080L1920 1080L1920 0L1110 0L1110 4L1107 4L1107 0L1101 0z"/>
<path style="fill:#040404; stroke:none;" d="M1107 0L1107 4L1110 4L1110 0L1107 0z"/>
<path style="fill:#fcfcfc; stroke:none;" d="M1088 4L1088 6L1090 6L1090 4L1088 4z"/>
<path style="fill:#040404; stroke:none;" d="M836 8L837 9L836 8z"/>
<path style="fill:#fcfcfc; stroke:none;" d="M1108 8L1109 9L1108 8M999 9L1002 16L1001 9L999 9M1059.67 10.3334L1060.33 10.6666L1059.67 10.3334z"/>
<path style="fill:#040404; stroke:none;" d="M869 11L868 16L869 16L872 12L869 11z"/>
<path style="fill:#fcfcfc; stroke:none;" d="M889 11L890 12L889 11z"/>
<path style="fill:#040404; stroke:none;" d="M848 12L851 20C853.473 16.2043 852.039 13.5463 848 12z"/>
<path style="fill:#fcfcfc; stroke:none;" d="M1115.33 12.6666L1115.67 13.3334L1115.33 12.6666z"/>
<path style="fill:#040404; stroke:none;" d="M774 19L775 20L774 19z"/>
<path style="fill:#fcfcfc; stroke:none;" d="M875 20C868.453 26.4363 869.503 33.5284 879 36L876 34L875 27L879 28L875 20z"/>
<path style="fill:#040404; stroke:none;" d="M775 21L775 24L776 24L775 21M747 23L747 24L750 24L747 23M905 23L904 26L905 23z"/>
<path style="fill:#fcfcfc; stroke:none;" d="M1119 25L1120 26L1119 25z"/>
<path style="fill:#040404; stroke:none;" d="M748 27L752 32L748 27z"/>
<path style="fill:#fcfcfc; stroke:none;" d="M767 34L769 34L771 28L767 34M1000 28L998 34L1000 28M1120 29L1121 30L1120 29M759 30L760 31L759 30M794 30L792 31L792 32L794 30z"/>
<path style="fill:#040404; stroke:none;" d="M693 31L693 34L694 34L693 31z"/>
<path style="fill:#fcfcfc; stroke:none;" d="M757 32L758 33L757 32M782 33L784 36L784 33L782 33M1122 33L1125 36L1124 33L1122 33z"/>
<path style="fill:#040404; stroke:none;" d="M705.667 35.3334L706.333 35.6666L705.667 35.3334z"/>
<path style="fill:#fcfcfc; stroke:none;" d="M774.667 35.3334L775.333 35.6666L774.667 35.3334M794 35L795 36L794 35M956 36L957 37L956 36M829 38L830 39L829 38M922 38L920 45L921 45L922 38z"/>
<path style="fill:#040404; stroke:none;" d="M695 41L694 46L697 46L695 41z"/>
<path style="fill:#fcfcfc; stroke:none;" d="M880 41L882 44L880 41M950 41L950 44L951 44L950 41M741 42C740.078 46.4828 740.836 48.8982 745 51L741 42M947 42L947 48L948 48L947 42M786.667 45.3334L787.333 45.6666L786.667 45.3334M726 49L727 50L726 49M716 55L715 59L716 55M723.667 55.3334L724.333 55.6666L723.667 55.3334z"/>
<path style="fill:#040404; stroke:none;" d="M1148 59L1148 60L1152 60L1148 59z"/>
<path style="fill:#fcfcfc; stroke:none;" d="M703 59L704 60L703 59z"/>
<path style="fill:#040404; stroke:none;" d="M1135 61L1136 64L1135 61z"/>
<path style="fill:#fcfcfc; stroke:none;" d="M698 64C699.099 67.3214 700.59 67.7375 704 68L698 64M1130 71L1129 75L1132 72L1130 71M1141 73L1144 82C1146.79 79.2176 1143.69 74.9569 1141 73M702 74L702 76L704 76L702 74M600 99L601 100L600 99z"/>
<path style="fill:#040404; stroke:none;" d="M506 110L507 110L509 109L509 108L507 107L506 110M581 111L582 112L581 111M588 112L589 118L590 118L590 112L588 112z"/>
<path style="fill:#fcfcfc; stroke:none;" d="M691 132L698 131L692 140L695 138L698 140L702 135L697.613 148L699 158L714 167L724.069 173.106L744 175L744 176L741 177L745 182L744 176C748.284 177.589 748.407 179.71 748 184L754 186L754 182L752 175L762 176L755 167C764.226 167.109 769.519 175.644 777.945 176.712C786.378 177.781 787.028 161.787 785 157L782 157C775.019 170.058 765.562 158.696 757 154.456C751.033 151.501 745.922 150.382 740 146.735C735.975 144.255 726.152 145.509 728 139C717.528 135.21 713.204 130.617 706.42 122.376C704.898 120.527 700.963 116.914 698.29 117.748C694.144 119.042 692.585 128.426 691 132z"/>
<path style="fill:#040404; stroke:none;" d="M590 119L591 120L590 119z"/>
<path style="fill:#fcfcfc; stroke:none;" d="M693 119L694 120L693 119M1118.67 119.333L1119.33 119.667L1118.67 119.333z"/>
<path style="fill:#040404; stroke:none;" d="M1246.67 119.333L1247.33 119.667L1246.67 119.333z"/>
<path style="fill:#fcfcfc; stroke:none;" d="M556 128L557 132L558 132L556 128M590 129L588 132C590.251 131.527 591.118 131.14 590 129M595 130L595 132L597 132L597 130L595 130M1366 132L1367 133L1366 132z"/>
<path style="fill:#040404; stroke:none;" d="M468 143L469 144L468 143M1136 143L1140 148L1136 143z"/>
<path style="fill:#fcfcfc; stroke:none;" d="M1191 143L1192 144L1191 143z"/>
<path style="fill:#040404; stroke:none;" d="M1270 143L1270 145L1272 145L1270 143z"/>
<path style="fill:#fcfcfc; stroke:none;" d="M1338 143L1339 144L1338 143M693 145L694 146L693 145M1099 147L1100 148L1099 147M1116 147L1116 150L1118 149L1118 148L1116 147z"/>
<path style="fill:#040404; stroke:none;" d="M1156 147L1157 148L1156 147z"/>
<path style="fill:#fcfcfc; stroke:none;" d="M1121 151L1122 152L1121 151M1420 151L1418 154L1420 151z"/>
<path style="fill:#040404; stroke:none;" d="M709 157L712 160L711 157L709 157z"/>
<path style="fill:#fcfcfc; stroke:none;" d="M1162 166L1159 174C1162.97 172.113 1163.86 170.336 1164 166L1162 166M699 167L699 172L700 172L699 167M1104 172L1108 172L1109 167L1104 172z"/>
<path style="fill:#040404; stroke:none;" d="M735 171L736 172L735 171z"/>
<path style="fill:#fcfcfc; stroke:none;" d="M704 176L707 173L704 176M711 180L712 175C709.364 176.513 708.346 177.94 711 180M1403 175L1404 176L1403 175z"/>
<path style="fill:#040404; stroke:none;" d="M380 179L381 180L380 179M407 179L407 184L408 184L407 179z"/>
<path style="fill:#fcfcfc; stroke:none;" d="M1100 179L1101 180L1100 179M1113 179L1112 184L1115 184L1113 179M712 181L715 184L712 181z"/>
<path style="fill:#040404; stroke:none;" d="M353 190L352 192L354 192L353 190z"/>
<path style="fill:#fcfcfc; stroke:none;" d="M479 191L480 192L479 191M726.667 191.333L727.333 191.667L726.667 191.333M1391 196L1392 197L1391 196M729 198L730 199L729 198M479 206L478 208L479 206z"/>
<path style="fill:#040404; stroke:none;" d="M345.333 209.667L345.667 210.333L345.333 209.667z"/>
<path style="fill:#fcfcfc; stroke:none;" d="M350 209L350 211L352 211L352 209L350 209z"/>
<path style="fill:#040404; stroke:none;" d="M456 209L457 210L456 209z"/>
<path style="fill:#fcfcfc; stroke:none;" d="M479 209L480 210L479 209z"/>
<path style="fill:#040404; stroke:none;" d="M330 211L330 214L331 214L330 211z"/>
<path style="fill:#fcfcfc; stroke:none;" d="M1373 217L1374 218L1373 217z"/>
<path style="fill:#040404; stroke:none;" d="M1612 217L1612 221L1615 217L1612 217z"/>
<path style="fill:#fcfcfc; stroke:none;" d="M1373 219L1374 220L1373 219M1377 221L1377 224L1378 224L1377 221M454.667 223.333L455.333 223.667L454.667 223.333M456 225L457 226L456 225z"/>
<path style="fill:#040404; stroke:none;" d="M1534 229L1533 232L1534 233L1537 232L1536 229L1534 229M1526.67 231.333L1527.33 231.667L1526.67 231.333z"/>
<path style="fill:#fcfcfc; stroke:none;" d="M474 233L478 236L474 233M456 237L457 240L458 240L456 237M466.333 238.667L466.667 239.333L466.333 238.667z"/>
<path style="fill:#040404; stroke:none;" d="M303.333 239.667L303.667 240.333L303.333 239.667z"/>
<path style="fill:#fcfcfc; stroke:none;" d="M328 253L329 254L328 253M329 256L332 256L331 254L329 256M336 257C337.089 260.345 338.534 261.545 342 262L336 257z"/>
<path style="fill:#040404; stroke:none;" d="M1657 275L1658 276L1657 275M1656 280L1659 280L1658 278L1656 280M1656 285L1656 288L1658 288L1658 285L1656 285z"/>
<path style="fill:#fcfcfc; stroke:none;" d="M336 292L340 292L339 289L336 292M330 295L331 296L330 295M328 305L330 307L328 305z"/>
<path style="fill:#040404; stroke:none;" d="M314.333 310.667L314.667 311.333L314.333 310.667z"/>
<path style="fill:#fcfcfc; stroke:none;" d="M1618 314L1617 316L1619 316L1618 314M308 332L308 325C304.056 327.192 304.264 329.679 308 332M292 341L292 345L293 345L294 341L292 341M1567 351L1568 352L1567 351z"/>
<path style="fill:#040404; stroke:none;" d="M1578 357L1579 358L1578 357z"/>
<path style="fill:#fcfcfc; stroke:none;" d="M278 389L279 390L278 389M1578.67 391.333L1579.33 391.667L1578.67 391.333M1592.67 415.333L1593.33 415.667L1592.67 415.333M264 427L265 428L264 427M268 427L268 432L270 432L270 427L268 427M371 427L372 428L371 427M379 427L380 428L379 427M388 431L389 432L388 431M277 439L278 440L277 439M1612 443L1613 444L1612 443M354.333 446.667L354.667 447.333L354.333 446.667M270.667 447.333L271.333 447.667L270.667 447.333M276 451L277 452L276 451z"/>
<path style="fill:#040404; stroke:none;" d="M323.333 467.667L323.667 468.333L323.333 467.667M325 469L324 472L325 469z"/>
<path style="fill:#fcfcfc; stroke:none;" d="M333.333 470.667L333.667 471.333L333.333 470.667z"/>
<path style="fill:#040404; stroke:none;" d="M1596 479L1597 480L1596 479z"/>
<path style="fill:#fcfcfc; stroke:none;" d="M1558 487L1559 488L1558 487M1553.67 491.333L1554.33 491.667L1553.67 491.333M262 493L264 496L262 493M278 495L279 496L278 495z"/>
<path style="fill:#040404; stroke:none;" d="M1566 511L1568 513L1568 511L1566 511M1591 541L1590 544L1591 541z"/>
<path style="fill:#fcfcfc; stroke:none;" d="M1552.67 579.333L1553.33 579.667L1552.67 579.333z"/>
<path style="fill:#040404; stroke:none;" d="M303 589L302 592L303 589z"/>
<path style="fill:#fcfcfc; stroke:none;" d="M322 591L323 592L322 591z"/>
<path style="fill:#040404; stroke:none;" d="M268 597L268 600L270 600L270 597L268 597z"/>
<path style="fill:#fcfcfc; stroke:none;" d="M1542.67 597.333L1543.33 597.667L1542.67 597.333M302 631L303 632L302 631z"/>
<path style="fill:#040404; stroke:none;" d="M283 635L284 636L283 635z"/>
<path style="fill:#fcfcfc; stroke:none;" d="M308 639L309 640L308 639z"/>
<path style="fill:#040404; stroke:none;" d="M292 648L295 651L292 648M267.333 655.667L267.667 656.333L267.333 655.667z"/>
<path style="fill:#fcfcfc; stroke:none;" d="M289.667 661.333L290.333 661.667L289.667 661.333M1518 673L1519 674L1518 673M1517 675C1516.8 679.915 1520.2 680.49 1522 676L1517 675M1536 679L1537 680L1536 679M242 681C243.642 684.486 252.59 691.545 254 685L251 686L242 681M256 687L256 688L260 688L256 687z"/>
<path style="fill:#040404; stroke:none;" d="M1536 697L1537 698L1536 697z"/>
<path style="fill:#fcfcfc; stroke:none;" d="M1528.67 699.333L1529.33 699.667L1528.67 699.333M307 721L311 724L307 721M318 725L317 731L324 732L320 729L320 725L318 725M1496 726L1496 728L1498 728L1496 726M1459 759L1459 760L1462 760L1459 759M230 763L231 764L230 763M1425 771L1426 772L1425 771M222.667 779.333L223.333 779.667L222.667 779.333z"/>
<path style="fill:#040404; stroke:none;" d="M216.667 787.333L217.333 787.667L216.667 787.333M220 789L221 790L220 789z"/>
<path style="fill:#fcfcfc; stroke:none;" d="M1519 799L1520 800L1519 799z"/>
<path style="fill:#040404; stroke:none;" d="M262 823C262.851 828.106 270.717 830.988 272 825L262 823z"/>
<path style="fill:#fcfcfc; stroke:none;" d="M288 863L289 864L288 863M1474 863L1474 865L1477 865L1477 863L1474 863M295 875L296 876L295 875M339 883L340 884L339 883M596 883L599 888L600 888L596 883M1461 886L1460 888L1462 888L1461 886M328 891L329 892L328 891M600 893L600 896L602 896L602 893L600 893M1440 893L1444 896L1440 893M1454 895L1455 896L1454 895M348 897L349 898L348 897M288 899L289 900L288 899M292 903L293 904L292 903z"/>
<path style="fill:#040404; stroke:none;" d="M602 905L604 907L604 905L602 905z"/>
<path style="fill:#fcfcfc; stroke:none;" d="M1450 907L1451 908L1450 907z"/>
<path style="fill:#040404; stroke:none;" d="M285 909L286 910L285 909z"/>
<path style="fill:#fcfcfc; stroke:none;" d="M1448 909L1445 911L1448 914L1448 909M1416.33 916.667L1416.67 917.333L1416.33 916.667M1412 917L1412 920L1414 920L1414 917L1412 917M593 920L594 921L593 920M1403 925L1405 928L1403 925z"/>
<path style="fill:#040404; stroke:none;" d="M1447 925L1447 928L1448 928L1447 925z"/>
<path style="fill:#fcfcfc; stroke:none;" d="M587 927L587 930L588 930L587 927z"/>
<path style="fill:#040404; stroke:none;" d="M342 931L338 935L338 936C341.22 935.465 343.124 934.428 342 931z"/>
<path style="fill:#fcfcfc; stroke:none;" d="M348.667 931.333L349.333 931.667L348.667 931.333M1407.33 931.667L1407.67 932.333L1407.33 931.667M1304 933L1302 939L1304 933M1409 933L1410 934L1409 933M648 934L647 936L649 936L648 934z"/>
<path style="fill:#040404; stroke:none;" d="M1416 935L1417 936L1416 935M592 937L593 938L592 937z"/>
<path style="fill:#fcfcfc; stroke:none;" d="M1306 939L1308 942L1306 939M637 941L638 942L637 941M1305 944L1303 947L1306 948L1305 944z"/>
<path style="fill:#040404; stroke:none;" d="M624 947L624 948L628 948L624 947z"/>
<path style="fill:#fcfcfc; stroke:none;" d="M346 947L347 948L346 947M1309 947L1310 948L1309 947M1266 949L1267 956L1262 958L1262 960L1271 965L1266 957L1269 956L1266 949M662 951L663 952L662 951M1309 951L1309 959L1310 959L1311 951L1309 951z"/>
<path style="fill:#040404; stroke:none;" d="M652 956L655 956L654 954L652 956z"/>
<path style="fill:#fcfcfc; stroke:none;" d="M657 955L658 956L657 955z"/>
<path style="fill:#040404; stroke:none;" d="M635 957L636 958L635 957z"/>
<path style="fill:#fcfcfc; stroke:none;" d="M656.333 958.667L656.667 959.333L656.333 958.667M1314 959L1314 960L1320 960L1314 959M376.333 962.667L376.667 963.333L376.333 962.667z"/>
<path style="fill:#040404; stroke:none;" d="M325 964L323 968L327 964L325 964M335 970L336 971L335 970z"/>
<path style="fill:#fcfcfc; stroke:none;" d="M1132 971L1133 975L1134 975L1132 971M1282 971L1283 972L1282 971M367 973L368 974L367 973M365.667 975.333L366.333 975.667L365.667 975.333M391 977L390 982C394.353 981.111 396.299 979.435 397 975L391 977M513 975L514 976L513 975z"/>
<path style="fill:#040404; stroke:none;" d="M346 977L347 978L346 977z"/>
<path style="fill:#fcfcfc; stroke:none;" d="M662 977L657 984C660.391 982.896 662.794 980.721 662 977M694 977L690 979L690 980C692.45 979.88 695.095 979.905 694 977z"/>
<path style="fill:#040404; stroke:none;" d="M1356 977L1356 983L1358 983L1356 977M351 980L351 982L353 980L351 980z"/>
<path style="fill:#fcfcfc; stroke:none;" d="M513 983L514 984L513 983z"/>
<path style="fill:#040404; stroke:none;" d="M352 985L352 988L354 988L354 985L352 985z"/>
<path style="fill:#fcfcfc; stroke:none;" d="M1300 987L1300 989L1302 989L1302 987L1300 987M652 989L651 993L652 993L652 989M1188 992L1192 989L1188 992M978.667 991.333L979.333 991.667L978.667 991.333M1156.67 991.333L1157.33 991.667L1156.67 991.333z"/>
<path style="fill:#040404; stroke:none;" d="M513 993L514 994L513 993z"/>
<path style="fill:#fcfcfc; stroke:none;" d="M1176 993L1178 996L1176 993M624 995L624 996L627 996L624 995M648 995L649 996L648 995z"/>
<path style="fill:#040404; stroke:none;" d="M1303 996L1302 999L1303 996z"/>
<path style="fill:#fcfcfc; stroke:none;" d="M624 1001L624 1006L633 997L624 1001z"/>
<path style="fill:#040404; stroke:none;" d="M1292 997L1294 1000L1294 997L1292 997M1307 997L1308 998L1307 997M505 999L506 1000L505 999z"/>
<path style="fill:#fcfcfc; stroke:none;" d="M979 999L980 1000L979 999M981 1000L982 1005L984 1005L984 1000L981 1000z"/>
<path style="fill:#040404; stroke:none;" d="M1301 1000L1299 1003L1301 1000M381.667 1003.33L382.333 1003.67L381.667 1003.33M1336.33 1003.67L1336.67 1004.33L1336.33 1003.67M1298 1004L1299 1005L1298 1004z"/>
<path style="fill:#fcfcfc; stroke:none;" d="M1129 1007L1130 1008L1129 1007M1271.33 1008.67L1271.67 1009.33L1271.33 1008.67z"/>
<path style="fill:#040404; stroke:none;" d="M1338 1008L1339 1009L1338 1008z"/>
<path style="fill:#fcfcfc; stroke:none;" d="M981 1009L980 1012L976 1012C983.044 1021.79 978.108 1028.85 974 1039L970 1037C966.882 1045.9 964.085 1047.29 955 1048C956.84 1043.91 962.352 1037.43 955 1036L952 1025L948 1026L946 1019L948.276 1032.04L944.106 1051L946.2 1066L940 1074L932 1079L934 1069L939 1072C939.854 1069.3 939.851 1068.61 937 1068L943 1064L943 1063C933.76 1052.7 939.182 1047.21 941 1036C935.058 1038.7 933.311 1037.82 929 1033L926 1035L924 1029L917 1032L915 1029L915.822 1046.42L907 1060L900 1058L908 1037C897.877 1042.78 899.994 1036.55 900 1027L892 1033C892.55 1035.44 894.323 1038.47 893.983 1040.99C893.076 1047.69 883.826 1051.06 881.998 1057.05C880.346 1062.48 885.496 1065.65 880 1070L879 1065L878 1065L874 1080L924 1080C930.493 1080 938.931 1081.97 943 1076L944 1080L1016 1080C1015.74 1071.96 1008.38 1073.57 1002 1071L998 1078L995.687 1062.43L979 1052L979 1051C986.487 1045.49 997.084 1033.89 1000 1025L983 1016L983 1009L981 1009M1285 1010L1284 1014L1285 1014L1287 1011L1285 1010M1272 1013C1271.43 1015.4 1271.52 1015.49 1274 1016L1272 1013M972 1017L968 1032L971 1033C973.595 1027.81 975.087 1022.31 972 1017M996 1017L994 1020L995 1021L996 1017z"/>
<path style="fill:#040404; stroke:none;" d="M1132 1017L1133 1020L1134 1020L1135 1017L1132 1017M416 1018L416 1020L418 1020L416 1018z"/>
<path style="fill:#fcfcfc; stroke:none;" d="M928 1019L929 1020L928 1019z"/>
<path style="fill:#040404; stroke:none;" d="M1137 1019L1138 1020L1137 1019z"/>
<path style="fill:#fcfcfc; stroke:none;" d="M1271 1019L1272 1020L1271 1019z"/>
<path style="fill:#040404; stroke:none;" d="M1290 1021L1293 1027L1294 1027L1297 1025C1295.6 1021.18 1294 1020.1 1290 1021z"/>
<path style="fill:#fcfcfc; stroke:none;" d="M1146 1022L1147 1023L1146 1022M1174.67 1023.33L1175.33 1023.67L1174.67 1023.33z"/>
<path style="fill:#040404; stroke:none;" d="M1222 1023L1222 1024L1225 1024L1222 1023M402 1024L404 1028L404 1024L402 1024z"/>
<path style="fill:#fcfcfc; stroke:none;" d="M928 1027L929 1028L928 1027z"/>
<path style="fill:#040404; stroke:none;" d="M1274.67 1027.33L1275.33 1027.67L1274.67 1027.33M1297.67 1027.33L1298.33 1027.67L1297.67 1027.33z"/>
<path style="fill:#fcfcfc; stroke:none;" d="M1255.33 1030.67L1255.67 1031.33L1255.33 1030.67M935.667 1031.33L936.333 1031.67L935.667 1031.33M957 1031L958 1032L957 1031M1076 1031L1076 1035L1079 1031L1076 1031M1248 1035L1249 1038L1251 1035L1248 1035M756 1043L757 1044L756 1043M816 1045L817 1046L816 1045M1066 1046L1069 1048L1066 1046M753 1051L753 1052L757 1055L760 1052L760 1080L768 1080L771 1063L761 1056L762 1048L753 1051M1048 1047L1050 1049L1050 1047L1048 1047M1027 1048L1028 1049L1027 1048z"/>
<path style="fill:#040404; stroke:none;" d="M1249 1048L1249 1050L1251 1050L1249 1048z"/>
<path style="fill:#fcfcfc; stroke:none;" d="M1032 1060L1023 1064L1018 1057L1019 1070L1024 1072L1019 1072C1017.35 1080.54 1024.67 1080 1031 1080C1032.1 1073.09 1036.2 1070.35 1043 1070L1036 1064L1039 1052L1034 1049C1029.26 1051.65 1030.68 1055.44 1032 1060M583 1051L590 1052L583 1051M774 1051L773 1056C776.054 1055.35 775.936 1053.99 776 1051L774 1051M768 1053L769 1054L768 1053M789 1053L788 1056L791 1056L789 1053M878 1054L876 1062C878.91 1059.94 879.326 1057.26 878 1054z"/>
<path style="fill:#040404; stroke:none;" d="M571 1055L572 1056L571 1055z"/>
<path style="fill:#fcfcfc; stroke:none;" d="M768 1055L768 1058L770 1058L770 1055L768 1055M1015.67 1055.33L1016.33 1055.67L1015.67 1055.33M1050 1056L1049 1080L1069 1080L1064 1067C1055.76 1070.27 1054.16 1062.65 1052 1056L1050 1056z"/>
<path style="fill:#040404; stroke:none;" d="M912 1057L913 1066C916.427 1063.41 915.252 1059.27 912 1057z"/>
<path style="fill:#fcfcfc; stroke:none;" d="M667 1058L666 1060L668 1060L667 1058M1063 1064L1066 1064L1065 1062L1063 1064M1010.67 1063.33L1011.33 1063.67L1010.67 1063.33M661 1065C654.396 1069.59 647.639 1071.74 645 1080L667 1080L661 1065M862 1068L866 1065L862 1068M673 1080L686 1080L685 1069C676.201 1065.29 673.173 1071.9 673 1080M686 1067L687 1068L686 1067M780 1069L777 1079L777 1080L792 1079C789.588 1073.79 786.179 1068.53 780 1069z"/>
<path style="fill:#040404; stroke:none;" d="M578 1069L577 1070L577 1071L577 1072L580 1069L578 1069z"/>
<path style="fill:#fcfcfc; stroke:none;" d="M1079 1069L1079 1074L1080 1074L1081 1069L1079 1069M1089 1071L1090 1072L1089 1071M1099 1072L1099 1080L1101 1080C1101.95 1076.41 1101.67 1074.62 1099 1072M869 1073L868 1076L869 1073M794.667 1075.33L795.333 1075.67L794.667 1075.33M862.667 1075.33L863.333 1075.67L862.667 1075.33M1111.67 1075.33L1112.33 1075.67L1111.67 1075.33M697 1076L691 1079L691 1080L699 1080L697 1076z"/>
<path style="fill:#040404; stroke:none;" d="M942 1076L941 1080C944.021 1079.35 944.086 1078.09 942 1076z"/>
<path style="fill:#fcfcfc; stroke:none;" d="M828 1077L830 1080L828 1077M772 1079L773 1080L772 1079M859.667 1079.33L860.333 1079.67L859.667 1079.33M1034.67 1079.33L1035.33 1079.67L1034.67 1079.33M1075 1079L1075 1080L1078 1080L1075 1079M1089.67 1079.33L1090.33 1079.67L1089.67 1079.33z"/>
</svg>
