<?xml version="1.0" standalone="yes"?>
<svg xmlns="http://www.w3.org/2000/svg" width="1920" height="1080">
<path style="fill:#fefefe; stroke:none;" d="M0 0L0 1080L1920 1080L1920 0L0 0z"/>
<path style="fill:#030303; stroke:none;" d="M622 139L612.61 162L610.482 176.981L601.513 182.692L598 194L597 194L595 191L591 209L588 209L588 215L586 215L582 205L581 208C568.496 204.336 570.811 219.875 572 228L564 228C556.326 235.627 544.258 213.351 542 227L539 224L536 224C531.193 229.122 527.403 225.071 522 223L525 244L523 244L518 237L519 246L508 248L508 251L504 251L505 267L496.3 266.847L486 261L488 270L482 268L483 284L472 281L478 300L458 287L458 295L452 291L452 295L429 282C432.399 279.521 432.009 276.408 428 275L429 282C426.366 282.831 421.622 283.597 420.157 286.224C417.456 291.064 425.659 301.571 415.044 299.062C413.689 298.741 412.345 298.358 411 298L413 305L410 306L410 308C418.814 314.075 414.76 317.322 417.235 326C418.84 331.625 422.299 336.849 425 342L417 344L398 347L397 352L391 351L394 360L385 357L404 384L397 385L405 395L407 404L408 404L408 401L414 403L414 404C410.236 406.506 412.56 408.733 416 410L414 416C418.712 419.481 421.235 423.074 420 429L398 418C399.582 436.994 420.888 451.573 435.015 463.935C441.921 469.979 450.534 473.916 452 484L451 484C447.042 470.647 435.409 472.445 426.039 465.457C420.193 461.096 415.986 453.931 408 454L408 456L413 466L396 461C396.048 466.353 396.527 477.801 401 481L401 482L382 483L394 491L394 492L388 492C390.151 500.471 393.804 513.44 404 515L404 516L400 520L379 527L380 532L383 529L385 529L386 530L384 536L389 532L389 544L404 545C406.666 550.808 412.197 557.071 418.17 559.767C424.424 562.59 426.812 557.409 430 566L451 565L453 572C442.491 577.904 445.48 589.547 431 590L426 598C421.84 596.289 412.794 591.809 410 596L388 587C385.932 593.968 377.162 590.431 375.737 594.476C372.915 602.485 386.518 609.858 374 617C375.109 621.847 381.578 628.869 379.517 633.848C376.548 641.021 365.236 630.81 370 644L362 645L363 652L356 654L356 656C361.338 658.862 361.674 662.512 363 668L360 669L367 684L357 685L356 702L336 698C338.925 704.435 335.074 706.812 335.533 713C336.019 719.546 340.896 723.352 344.606 728.039C346.351 730.244 347.892 732.959 346.381 735.695C341.111 745.244 325.609 736.004 321.032 745.444C319.351 748.909 322.144 755.002 322 759L325 759C324.801 763.348 320.104 770.804 321.658 774.562C323.085 778.012 329.978 775.977 332.894 777.861C338.337 781.378 336.165 786.698 337 792C338.926 791.587 344.31 789.08 345.415 791.832C346.75 795.154 342.299 798.741 343.914 802.714C345.733 807.187 350.421 809.728 352.477 814.015C355.195 819.682 354.928 825.341 359.87 830.415C362.666 833.285 366.926 833.797 369.581 837.13C373.498 842.045 370.884 855.64 381 851L384 860L380 864L392.231 879.37L416 896L422 893C424.776 899.517 435.722 898.999 439 893L441 893L446 905L459 900C459.431 903.828 460.229 905.81 464 907L465 914L468 911L471 917L475 909L489 907C489.507 900.28 494.204 897.984 499 894L502 900L504 895L508 896L510 892L517 901L516 892L522 894C524.394 890.321 527.096 891.269 530 894L536 898L537 898L537 890L542 884L547 890L556 887L560 888C561.931 885.589 563.362 886.693 566 888L564 879L568 880C566.819 876.946 564.082 862.183 571 868L572 868C574.037 854.461 583.117 847.969 596 852L596 847L613 864L614 861C616.946 861.746 618.311 862.197 619 859L622 860L621 855C629.889 863.42 635.21 872.185 648 876L644 863L651 864L649 859L653 861L654 861L659 858L659.127 841L650.272 825.185L656.493 815.945L652 801L658 802C656.353 789.768 661.371 778.708 665.862 767.83C668.691 760.977 667.31 748.025 679 755L679 756C674.957 759.556 671.991 768.689 679.108 771.204C682.101 772.261 685.822 770.63 689 771L685 786L699.014 779.222L715.698 784.473L714 792L722 790L719 794C721.938 795.422 729.497 795.814 730.659 799.279C732.353 804.329 722.812 808.961 728.438 814.03C736.19 821.014 750.65 815.318 756 825L745 826L749 832L738 835L738 836L745 849C751.022 849.897 749.134 852.967 752.613 856.415C757.576 861.332 768.113 861.494 774 859C774.813 869.529 783.781 863.079 790.579 863.954C793.362 864.312 796.063 866.631 798.911 866.124C803.247 865.352 804.942 860.399 808 866L812 865C814.062 870.822 816.218 875.671 822 871L821 880L827 884L832 882L823 907L824 908L830 907L829 918C838.448 916.086 842.155 915.83 847 907L850 923C856.594 920.704 857.756 915.01 860 909L861 909L860 916L863 917L868 912L876 932C880.162 931.806 882.657 931.674 884 936L896.171 913.353L909.741 909.042L924.682 916.03L926.693 902.144L937 894C935.461 903.489 941.904 911.528 951 914L953 907C962.553 910.475 975.979 896.077 984 904L988 903L991 909L994 903L998 904L999 899C1004.87 901.669 1017.33 906.811 1016 895C1021.23 895.581 1030.83 888.449 1030 883L1035 888L1037 888L1044 881C1044.15 897.188 1058.1 887.61 1068 888L1064 876L1078 880C1082.09 871.539 1086.33 886.699 1091 889C1097.43 873.695 1110.65 877.31 1124 878L1124 874L1129 876C1131.21 867.868 1140.68 865.556 1147 861.096C1152.9 856.922 1161.33 840.542 1169 853L1178 851L1176 856C1182.66 853.969 1194.43 841.539 1197 835L1202 844L1216 835L1223 839L1224 831L1240 836L1241 833L1250 832L1256 833L1260 838L1276 835L1278 839L1285 825L1310 822C1311.92 808.074 1318.54 810.857 1328 816L1328 812L1332 816L1334 816L1338 808L1356 802L1356 799L1366 796L1362.14 784.286L1365 761L1376 760L1372 745L1378 742C1383.45 745.651 1393.59 747.444 1394.68 737.995C1396.3 723.971 1381.16 707.148 1402 699L1400 710L1404 705C1412.31 710.753 1415.15 710.808 1416 700L1419 702L1415 687C1429.98 685.832 1403.87 663.957 1401.75 658.985C1399.85 654.534 1402.92 649.772 1400.57 645.289C1398.2 640.785 1392.17 638.622 1391.75 632.999C1391.08 624.168 1400.24 615.105 1403 607C1407.25 607.364 1410.05 605.147 1413 609L1420 605L1421 599L1418 587L1424 590C1425.13 586.154 1423.74 581.215 1425.75 577.748C1433.86 563.827 1454.03 582.373 1462 586L1462 584L1471 587C1473.36 591.615 1476.71 595.731 1479.67 599.995C1482.48 604.054 1491.21 611.585 1496.76 608.188C1499.75 606.352 1499.11 602.037 1502.01 600.103C1505.42 597.832 1509.83 601.427 1511.37 595.981C1513.32 589.09 1505.78 582.675 1504.49 576.325C1503 569 1505.87 559.738 1496 556C1498.26 552.335 1500.58 550.171 1505 550C1503.75 544.739 1500.53 539.617 1502.26 534.055C1504.07 528.287 1511.76 530.325 1508 523L1517 520C1515.76 516.912 1512.89 513.423 1512.98 510C1513.17 503.132 1519.47 497.048 1511 492L1511 487C1530.58 484.872 1510.22 468.719 1506 463L1519 458L1516 451L1534 445C1531.5 431.159 1523.81 422.574 1510 420L1519 401L1497 390L1492 387L1488 388C1485.6 384.682 1482.74 384.919 1479 386L1474.63 378.131L1484 369L1439 368L1439 367L1461 360L1459 355C1463.88 352.518 1464.4 348.121 1459 346C1453.65 350.578 1457.04 342.306 1460 340L1460 337C1451.94 333.845 1449.09 330.209 1440 332C1441.51 329.002 1444.15 324.519 1444.19 321.104C1444.27 314.003 1436.69 311.986 1448 308L1448 306L1441 302L1442 299L1438 298L1438 287L1420 288L1424 279C1418.34 276.675 1419.78 274.137 1421 269L1408 277L1408 272L1406 274L1405 274C1403.65 267.941 1407.72 265.657 1413 264L1413 261C1408.05 257.943 1405.9 257.696 1401 261C1398.84 247.696 1398.52 236.687 1382 245L1382 241C1376.93 242.172 1369.81 246.019 1368 239L1365 240L1363 228C1363.91 224.621 1371 212.672 1367 212C1370.76 201.246 1380.25 194.876 1381.71 183C1382.5 176.64 1382.72 170.977 1375 172C1368.13 154.59 1360.64 169.793 1351.9 176.644C1347.13 180.379 1337.66 185.362 1332 188L1325 184C1318.44 195.221 1317.04 190.084 1309.57 185.027C1306.19 182.739 1300.82 182.084 1297 180L1295 188L1293 188L1292 185L1291 185L1276 196L1275 196L1271 189L1270 192C1265.38 191.6 1264.31 193.868 1263 198L1259 196L1254 204L1251 195L1231 184C1229.5 188.266 1227.48 189.659 1223 190L1219 213L1201 209L1200 214L1197 213L1197 254L1195 254L1189 245C1180.79 250.39 1193.84 273.076 1196 281L1184 265L1184 271L1176 266L1174 276L1165 272L1164 294L1153 293L1162 320C1175.01 326.011 1178.96 334.667 1177 348L1172 348L1175 343L1163.96 329.414L1150 324.522L1142.42 323.498L1145 301L1139 303L1138 297C1131.38 298.442 1123.4 302.772 1118 297L1112 299L1111 289L1094 293L1094.96 279.742L1079.6 275.242L1075.74 267.148L1060 261L1059 266L1054 264L1060 251L1052 252L1049 248L1048 248L1035 252L1034 237L1024 237L1016 247L1015 247L1014 247C1012.07 244.789 1009.06 244.508 1006.63 246.603C999.707 252.595 996.727 259.581 988 264L984.938 243L985.422 233.497L978 240L978 227L962 238C959.621 232.763 955.495 230.369 950 229C949.131 231.672 948.26 234.348 947.329 237C940.4 256.732 930.989 234.6 922 232L922 240L910 223L908 223L899 238L900 234L896 233C891.899 241.869 890.523 251.581 896 260L892 257C887.26 258.493 886.436 262.597 885 267L880 263C870.987 268.288 866.808 272.127 863 282C856.983 279.135 853.569 275.526 852 269C841.602 273.966 846.67 287.063 838 292L838 282L825 294C821.214 275.471 808.977 280.131 795 283L800 264L786.399 281L781 294L781 281L772 292L772 288L768 288C768.003 283.435 767.942 279.102 770.367 275.04C773.403 269.955 778.764 268.647 777 262L768 264L768 259L754 276L750 268L755 259C751.253 257.385 749.429 257.92 746 260L745 257C741.679 254.593 743.276 250.568 744 247L743 246L738 249L738 241L737 241L730 248L729 245L721 254L719 253L712 265L709 253L694 272L693 267L692 267C687.662 271.454 686.158 267.839 686 263L680 268L672 246L668 249C665.081 239.997 672.088 217.402 660 217L665.896 174L655 141L653 141L647 143L644 152L638 145L636 147C631.84 139.54 630.071 139.138 622 139M1238 181L1237 184L1238 181z"/>
<path style="fill:#fefefe; stroke:none;" d="M575 207L576 208L575 207M661 220L661 225L662 225L661 220z"/>
<path style="fill:#030303; stroke:none;" d="M497.667 255.333L498.333 255.667L497.667 255.333z"/>
<path style="fill:#fefefe; stroke:none;" d="M753 259L754 260L753 259M1399 260L1400 261L1399 260M500.333 268.667L500.667 269.333L500.333 268.667M894 271L895 276L896 276L896 271L894 271M1065 271L1066 272L1065 271M689 272L688 275L689 275L689 272M1176 277L1176 280L1177 280L1176 277M487 279L488 280L487 279M1061 280L1058 284L1061 280M1196 281L1197 282L1196 281M1197 283L1198 284L1197 283M458 295L459 296L458 295z"/>
<path style="fill:#030303; stroke:none;" d="M1151 295L1152 296L1151 295z"/>
<path style="fill:#fefefe; stroke:none;" d="M413 305L414 306L413 305M424 343L424 344L428 344L424 343M407 400L408 401L407 400M413 462L413 464L415 464L413 462M402 482L402 483L411 486L411 480L402 482M452 484L453 485L452 484M392.333 497.667L392.667 498.333L392.333 497.667M405 515L405 516L408 516L405 515M410.333 547.667L410.667 548.333L410.333 547.667M376.667 617.333L377.333 617.667L376.667 617.333M1415 699L1416 700L1415 699M665 725L665 741C673.809 737.641 672.365 728.771 665 725z"/>
<path style="fill:#030303; stroke:none;" d="M663 845L664 846L663 845M1175 865L1174 868L1175 865M1025 921L1024 922L1027 924L1025 921z"/>
<path style="fill:#fefefe; stroke:none;" d="M876 923L877 924L876 923z"/>
</svg>
