<?xml version="1.0" standalone="yes"?>
<svg xmlns="http://www.w3.org/2000/svg" width="1920" height="1080">
<path style="fill:#fdfdfd; stroke:none;" d="M0 0L0 1080L713 1080C708.776 1066.7 715.349 1061.71 720.343 1050.01C722.273 1045.5 726.206 1044.36 725 1039L705 1060L701 1049L700 1049L699 1052L696 1052L695 1049C700.283 1047.29 700.088 1041.84 701 1037L700 1037C696.87 1043.09 695.372 1046.18 688 1046C687.929 1038.08 685.328 1032.51 677 1031L677 1039L676 1039C674.001 1034.7 667.315 1031.92 667.631 1027C668.034 1020.7 674.41 1018.44 678.911 1015.55C688.933 1009.12 694.452 999.561 705 993.618C710.665 990.426 721.159 984.183 719.627 976.045C718.78 971.545 713.111 971.675 711 968C703.541 968.469 701.911 972.205 695.561 974.945C682.051 980.774 668.874 986.654 661 1000L658 997L657 997L635 1021L634 1020L644 1002L636 1008C638.777 987.207 661.497 974.643 666 955L670 956L671 955L663 933L662 936C658.005 933.703 655.724 933.134 652 936L654 932L645 920L641 911L640 911L639 916L638 916C636.639 910.91 631.196 892.253 625.779 890.831C623.476 890.226 620.895 893.019 619 894L620 889L609 892C612.379 886.971 615.479 883.097 613 877L612 877L610 882L600 882L600 881L602 879L595 877L596.204 890.985L597 913L596 914L592 913L593 932L588 933C588.807 929.451 589.223 927.096 586 925L586 934L583 932L580 954L568 939L566 939L562 943L562 944C572.882 949.636 579.439 972.742 567 979L558 971L559 1000L558 997L554 998L555 995L548 985L546 985L545 993L540 991L534 992L527 975L522 975L519 974L516 982L514 982L512 979L506 988L505 985L503 985C502.015 986.347 501.088 987.8 499.917 989C490.718 998.426 494.859 976.255 489 975C491.586 985.868 482.864 987.733 482.095 997.001C481.182 1008 488.679 1016.81 488.682 1026.96C488.684 1032.64 483.319 1038.11 481 1043L472 1042C471.449 1032.71 462.27 1028.12 455 1023L450 1027L450 1032L445 1027L444 1027L443 1030L442 1027L438 1032L433 1031L436 1027L432 1026L431 1007L424 1008L426 1003L418 1006L417 1001L406 1010L406 1008L402 1010C401.86 1006.68 400.991 1003.19 402.268 1000C404.409 994.655 409.754 992.009 407 986L406 986L393 992L394 983C400.788 981.585 401.5 975.116 402 969C397.836 970.241 395.264 971.729 394 976L382 980L385 971L388 972L383 971L388 955L387 954L383 957L382 957L379 955L375 964L370 957L367 960L366 960L366 955L365 955L352 960L353 958L343 957L355 941L347 942C347.166 936.893 359.29 924.865 351 925L350 924L351 917L336 920L342 916L343 916C344.011 909.492 354.047 895.29 348 891C346.348 899.181 337.157 905.255 329 904C332.612 899.766 342.118 894.179 338 888L338 887L342 881L339 881L338 875L337 875L335 878L334 871L332 871L331 886L329 886L319 879L316 882L316 879L315 879L296 905L296 901L292 899L297 894C282.752 889.615 298.451 875.353 301 868L307 868L305 864L304 864L298 869L298 859C294.341 860.485 278.243 861.887 283.797 853.208C289.092 844.934 305.05 850.98 304 838L310 836C305.857 829.246 295.684 831.207 289 832L292 819L274 824L274 823C281.362 821.291 286.062 817.534 288 810L285 807L269 808L269 807L276 806L278 798L252 788L252 792C244.673 788.12 238.351 790.465 234 782L236 782L236 775L232 776L242 766L240 765L237 766L248 750L242 750L242 749L246 748C246.001 734.923 246.974 731.493 232 734L215 725L220 724C221.091 715.311 228.811 717.25 235 718L231.265 709.985L238 694L236 689C245.65 689.523 254.911 697.792 263 702.502C270.201 706.694 274.908 706.307 280 714L296 716C292.556 707.117 286.084 706.801 279.104 702.271C273.255 698.475 268.442 691.826 262.985 687.339C258.711 683.825 253.508 682.007 249.139 678.545C245.258 675.469 240.617 676.761 238 672C247.345 673.806 256.433 667.68 265 676C270.548 675.084 281.663 672.426 286 676L295 675L286 668L300 660C301.676 653.396 302.468 651.952 300 645L296 646L294 640L310 643L308 645L308 646L311 648L310 645L313 644L296 621L304 620C300.163 613.539 293.631 609.251 287 606L287 605L290 601L308 604L309 608L310 608L307 601L311 600L310 595C312.758 595.225 315.318 595.732 318 596.421C319.281 596.749 320.649 597.267 321.985 597.296C339.428 597.675 314.918 582.876 316.511 579.713C317.594 577.561 324.376 580.589 327 579L310 566C310.102 561.472 307.294 552.327 302.726 550.156C299.964 548.843 297.015 551.193 294.238 549.432C291.203 547.508 287.626 540.073 285 537C298.015 532.781 277.988 518.882 279 510L275 500L275 499C281.282 501.987 284.195 508.592 290 501L291 501L293 503L294 500L304 512L304 506L301 506L301 505L305 504L303 497L327 512C324.335 506.067 322.102 503.621 329 500L329 499L309 496C313.557 492.362 317.319 492.004 323 492L323 491L309 485L316.108 478.318L348 466L347 462L342 462L342 461L348 460L364 442L357 434C364.944 428.661 371.531 428.025 381 428L381 427C376.405 426.354 371.151 426.071 367 423.803C363.876 422.097 360.18 417.132 356.188 417.948C353.271 418.544 353.694 422.898 352.362 424.946C349.644 429.124 343.103 433.954 338.91 436.691C328.206 443.678 312.979 450.809 300 451.643C296.55 451.865 293.54 449.832 290 450L293 446C291.401 441.397 288.725 439.127 284 438L284 429L292 430L294 420L294 419L290 417L290 420L289 420C283.84 415.703 281.086 409.238 288 405L286 407L286 408L288 412L289 412L287 385L293 386L299 372L299 370L298 369L296 371L295 371L290 368L291 363L292 363L292 367L293 367L307 355C301.249 352.859 297.917 350.453 300 344L303 345L303 337L313 333L313 326L310 324L313 325L315 321L316 324L317 324C318.225 319.915 319.579 317.475 324 317L326 309C332.697 309.907 339.42 300.302 333 296L333 293C352.148 294.499 338.809 282.393 341 271L334 265L335 261L339 265L344 264L340 260C342.357 256.079 344.611 258.242 348 260C345.821 255.683 343.302 254.842 339 257L328 244L329 241L324 240L328 233L333 236L332 232L331 226L347 229L350 232C347.777 222.227 349.629 219.446 360 222L364 219L370 200L380 199L378 204L379 204L384 201L382 197L383 195L387 196L387 193C396.305 196.06 410.676 204.502 417 212L416 192L420 193L431 212L429 218L434 220L435 217L452 230L460 232L457 221C463.431 226.357 462.484 228.729 471 226C470.011 221.097 467.507 218.121 463 216L465 211L468 213L472 209L476 212L477 208L478 208L479 212L480 212L480 205L476 208L476 199L479 200L482 194C477.455 194 481.775 185.844 482 183L486 184L478 157L484 156L484 160L487 160L484 154L487 154L487 153L484 153C490.655 147.673 496.071 149.757 495 138C502.86 132.132 498.872 131.848 507 137C509.481 132.206 512.336 130.882 511 125L519 124L517 119L522 119L523 115L527 111L529 111L535 135L541 140L544 139L555 157L556 157L560 142L561 142L566 152C565.602 147.43 563.545 143.613 567 140L567 131L575 138L582 130L584 133L584 129C587.301 130.565 590.473 134.385 592 129L593 129C594.62 131.941 595.686 132.499 599 132C594.471 122.035 588.774 108.208 592 97L597 106L601 107L603 95L604 95L606 98C602.497 78.2886 601.528 63.4937 609.184 44C615.227 28.6161 626.429 17.4076 629 0L0 0z"/>
<path style="fill:#040404; stroke:none;" d="M629 0C627.008 8.60632 623.77 19.0144 619.64 26.8302C616.569 32.6436 611.716 36.5542 609.184 43C601.817 61.7574 600.54 78.9019 606 98L604 95L603 95L601 107L597 106C596.769 101.768 595.903 98.9905 592 97C588.367 106.817 593.394 123.657 599 132L593 129L592 129C589.647 133.816 587.665 129.994 584 129L584 133L582 130L575 138L567 131L567 140C562.664 142.844 565.358 147.635 566 152L561 142L560 142L556 157L555 157L544 139L541 140L535 135L529 111L527 111L523 115L522 119L517 119L519 124L511 125L507 137C500.053 130.393 501.484 130.693 495 138L491.853 149.898L484 153L487 153L487 154L484 154L487 156L487 160L484 160L484 156L478 157L486 184L482 183C481.268 185.862 477.879 193.313 482 194L479 200L476 199L476 208L480 205L480 212L479 212L478 208L477 208L476 212L472 209L471 212C469.119 210.936 467.985 210.763 468 213L465 211L463 216L471 226C462.353 227.684 464.039 224.885 457 221L460 232L452 230L435 217L434 220L429 218L431 212L420 193L416 192L417 212C412.375 204.343 395.707 195.021 387 193L387 196L383 195L382 197L384 201L379 204L378 204L380 199L370 200L364 219L360 222C349.933 218.817 346.187 222.035 350 232L347 229L331 226L332 232L333 236L328 233L324 240L329 241L328 244L339 257C343.329 255.49 345.239 256.418 348 260C344.808 257.546 341.679 255.001 340 260L344 264L339 265L335 261L334 265L341 271C337.95 282.121 351.867 293.756 333 293L333 296C337.976 301.656 332.723 309.031 326 309L324 317C319.194 316.524 317.798 319.635 317 324L316 324L315 321L310 324C310.513 326.475 310.604 326.575 313 326L313 333L303 337L303 345L300 344C297.345 350.658 300.855 353.332 307 355C302.13 359.731 294.271 359.12 293 367L292 367L292 363L291 363L290 368L295 371L296 371L298 369L299 370L299 372L293 386L291 384L287 385L289 412L288 412L286 408L286 407L288 405C279.991 408.217 283.524 417.428 290 420L290 417L291 417L294 419L294 420L292 430L284 429L284 438L293 446L290 450C293.529 450.02 296.534 452.4 300.001 452.165C312.915 451.289 329.276 443.838 339.826 436.691C343.747 434.035 349.678 429.708 352.394 425.872C353.808 423.874 353.298 418.883 356.238 418.431C360.201 417.82 363.778 422.878 367 424.495C371.209 426.608 376.406 426.646 381 427L381 428C371.881 428.005 364.064 427.464 357 434C358.742 438.289 358.896 441.13 364 442C358.218 448.61 348.983 450.462 348 460L342 461L342 462L347 462L348 466C334.129 471.219 319.664 475.411 309 485L323 491L323 492C317.479 492.001 312.885 491.598 309 496L329 499L329 500C321.633 502.569 323.421 506.601 327 512L303 497L305 504L301 505L301 506L304 506L304 512C301.271 510.232 294.364 496.795 293 503L291 501L290 501C283.136 507.128 281.948 500.991 275 499L275 500L277 501C274.521 503.693 275.016 509.146 279 510C277.026 519.49 296.762 531.479 285 537C286.845 540.032 291.348 548.322 294.187 549.954C296.688 551.391 299.322 549.656 301.867 550.482C306.679 552.044 309.794 561.505 310 566L327 579C324.248 579.779 318.6 577.034 316.778 578.747C311.956 583.281 339.054 596.666 321.985 596.907C320.66 596.925 319.277 596.435 318 596.14C315.305 595.518 312.761 595.12 310 595L311 600L307 601L310 608L309 608L308 604L290 601L287 605L287 606L304 620L296 621L313 644L310 645L311 647L311 648L310 643L294 640L296 646L300 645L300 660C294.642 660.847 288.869 663.258 286 668L295 675L286 676C282.867 671.704 269.95 674.862 265 676C258.729 667.055 246.38 672.507 238 672L258 684.673L278.194 702.373L296 716L280 714C276.254 705.602 270.922 706.531 264 702.502C255.592 697.607 246.08 689.243 236 689L238 694C233.635 705.054 229.008 706.466 235 718C228.666 716.7 220.411 714.822 220 724L215 725L232 734C246.504 733.1 246 734.214 246 748L242 749L242 750L248 750L237 766L240 765L242 766L232 776L236 775L236 782L234 782C237.056 790.613 244.519 789.397 252 792L252 788C259.201 794.408 268.686 796.439 278 798L276 806L269 807L269 808L285 807L288 810C285.093 817.003 281.132 820.655 274 823L274 824L292 819L289 832C296.362 831.612 304.574 829.977 310 836L304 838C304.402 850.978 287.904 844.446 283.198 853.208C278.375 862.19 293.77 861.471 298 859L298 869L304 864L305 864L307 868L301 868C297.864 874.413 281.919 891.05 297 894L292 899L296 901L296 905L316 879L316 882L317 882L318 882L319 879L329 886L331 886L332 871L334 871L335 878L337 875L338 875C337.867 878.419 338.641 880.001 342 881L338 887L338 888C340.271 895.169 332.331 898.5 329 904C337.381 905.897 347.031 899.691 348 891C353.11 896.635 343.666 908.601 343 916L342 916L341 914L336 920C341.654 921.53 346.133 920.082 351 917L350 924L351 925C357.03 926.621 347.066 936.394 347 942L355 941L343 957L353 958L352 960C356.792 960.273 362.298 959.169 365 955L366 955L366 960L367 960L370 957C370.501 960.707 371.357 962.785 375 964L379 955L382 957L383 957L387 954L388 955C384.753 960.675 381.556 964.199 383 971L388 972L385 971L382 980L394 976L402 969C401.182 975.073 400.306 980.786 394 983L393 992L406 986L407 986L401.833 1000L402 1010L406 1008L406 1010L417 1001L418 1006L426 1003L424 1008L431 1007L432 1026L436 1027L433 1031L438 1032L442 1027L442 1030L443 1030L444 1027L445 1027C445.728 1030.35 446.597 1031.41 450 1032L450 1027L455 1023C461.568 1029.56 470.331 1032.48 472 1042L481 1043C483.951 1038.71 488.39 1033.3 488.827 1027.91C489.671 1017.51 480.767 1008.2 482.193 997.001C483.37 987.759 492.274 986.077 489 975C493.691 978.041 491.6 998.302 500.576 988.971C501.698 987.804 502.268 986.406 503 985L505 985L506 988L512 979L514 982L516 982L519 974L522 975L523 978L527 975L534 992L540 991L545 993L546 985L548 985L555 995L554 998L559 1000L558 971L567 979C579.909 974.436 573.227 947.5 562 944L562 943L566 939L568 939C570.115 946.285 573.573 949.995 580 954L583 932L586 934L586 925L588 933L593 932L592 913L596 914L597 913L596.583 889.996L595 877L602 879L600 881L600 882L610 882L612 877L613 877C615.132 883.281 611.492 886.516 609 892L620 889L619 894C620.946 893.374 623.701 890.765 625.779 891.457C631.122 893.236 636.094 910.896 638 916L639 916L640 911L641 911L645 920L654 932L652 936L654 933L662 936L662 933L663 933L671 955L670 956L666 955C660.112 973.414 637.368 987.61 636 1008L644 1002L634 1020L635 1021C645.685 1017.37 649.828 1004.86 657 997L658 997L661 1000C671.6 987.737 681.77 981.424 696.384 974.945C702.167 972.382 704.403 969.129 711 968C712.539 972.652 720.223 971.989 719.339 978.004C717.587 989.927 701.911 993.331 694.143 999.789C689.198 1003.9 686.102 1009.59 680.714 1013.64C675.474 1017.59 665.801 1020.43 667.408 1028.95C668.138 1032.81 673.767 1035.68 676 1039L677 1039L677 1031C684.564 1033.25 687.819 1038.28 688 1046C695.64 1046.78 697.451 1043.77 700 1037L701 1037C699.797 1041.88 699.779 1046.43 695 1049L696 1052L699 1052L700 1049L701 1049L705 1060L725 1039C725.877 1049.24 712.287 1057.66 710.357 1067C709.313 1072.05 711.298 1079.42 717.018 1079.94C720.303 1080.24 723.704 1080 727 1080L740 1080L744 1064L745 1064L745 1068L748 1068C748.471 1061.45 751.436 1041.83 759 1041L760 1038L761 1038C761.143 1042.52 762.147 1046.34 766 1049L766 1040L768 1040C768.306 1049.43 774.344 1045.68 778.002 1051.07C779.485 1053.25 775.895 1058.28 776 1061C779.558 1058.69 779.901 1056.1 780 1052L781 1052L782 1062C790.125 1059.17 785.056 1048.28 785 1042L789 1043L792 1056L796 1053L796 1068C792.167 1068.84 791.099 1070.13 792 1074L799 1073L800 1076L797 1080C803.495 1077.97 803.995 1073.05 804 1067L805 1067C805.975 1071.92 804.303 1078.02 810 1080L813 1054L815 1054L815 1077L821 1072L821 1080C825.176 1079.86 827.272 1079.36 828 1075C833.912 1079.31 837.361 1081.48 844 1077C845.73 1085.07 865.513 1078.22 858 1070L858 1069L866 1064L865 1076L868 1076L870 1072L871 1064L874 1065L876 1047L877 1047L881 1048L882 1052L884 1052L898 1025L904 1030L900 1033L900 1037L909 1035C911.089 1043.78 907.027 1046.51 904 1054C919.281 1051.57 912.598 1038.95 914.523 1029C915.147 1025.77 917.683 1022.98 919 1020L920 1020L924 1026L925 1026L930 1017L932.113 1027.46L941.467 1037.91L940 1056C943.357 1053.83 943.027 1050.6 944.248 1047C948.299 1035.06 946.586 1025.09 940 1014C945.781 1018.08 948.388 1023.43 956 1021L960 1036C972.642 1031.77 965.319 1022.2 966 1014L972 1014L974 1015L972 1011C978.158 1007.97 979.5 1003.53 978 997C987.031 1000.63 985.429 990.522 984 985C990.684 989.089 988.207 1004.72 990 1012L997 1010L1004 1032L999 1031L1000 1036L996 1035L995 1044L1008 1067C1008.99 1063.39 1010.21 1062.12 1014 1062L1013 1055L1026 1053C1024.25 1045.87 1020.21 1039.7 1025 1033C1025.66 1041.48 1034.07 1038.47 1037.91 1045.01C1042.78 1053.29 1041.42 1063.36 1046 1072C1041.68 1073.67 1040.87 1077.1 1046 1078C1048.39 1071.09 1050.83 1061.32 1048.35 1054.04C1046.12 1047.5 1040.17 1042.07 1038.73 1035C1037.95 1031.17 1039.82 1026.9 1040 1023L1045.85 1036.91L1056 1053.83L1057.65 1061.4L1069 1063C1062.2 1064.28 1067.12 1071.96 1071.48 1069.69C1073.85 1068.46 1074.97 1063.32 1076 1061C1077.84 1063.76 1077.92 1066.73 1075 1066L1075 1070C1076.95 1069.61 1084.33 1063.66 1083 1069L1086 1068L1084 1061C1099.28 1061.05 1085.55 1071.79 1095 1077L1098 1069L1106 1074C1109.56 1057.35 1080.5 1051.26 1081 1033L1078 1036L1074 1035L1075 1023L1095.04 1004.15L1117 987C1119.09 994.217 1120.91 1007.43 1128 1011L1127 1006L1135 1004L1135 1001L1131 1000C1133.08 992.687 1128.33 982.95 1128.23 975.002C1128.09 964.785 1133.79 973.404 1135 978C1146.45 979.372 1149.42 987.932 1154 997L1155 997L1153 991L1153 990L1158 989L1157 1002L1160 1001L1160 1006L1165 1007L1164 1012L1166 1012L1165.52 988.104L1159 973L1163 973L1164 984L1168 983L1166 979L1184 978L1188 973L1196 1000L1211 1004L1211 987L1214 987L1225.85 1012.42L1232 1021L1235 1030L1232 1013L1236 1019L1237 1019L1235 1007L1239 1006L1239 998L1245.79 1003.82L1247.99 997.003L1249 976L1256 982L1252 972L1265.55 970.978L1272 977C1271.1 974.082 1271.49 968.98 1269.89 966.588C1267.18 962.542 1247.57 952.008 1263 948L1259 944L1258 935C1264.58 938.05 1268.47 943.171 1270.64 950C1272.16 954.8 1270.4 960.215 1276 962L1274 945L1276 945C1276.14 946.71 1276.29 948.345 1276.67 950.024C1279.89 964.202 1285.37 948.753 1292 949C1289.31 954.856 1300.83 969.466 1306 973C1306 965.048 1308.39 954.138 1300 950L1296.67 933L1296 919C1307.65 926.633 1314.87 933.775 1317 948L1326 942C1322.43 946.917 1318 957.368 1327 960C1327.12 954.94 1327.98 951.805 1333 950C1333 954.848 1340.95 955.91 1342 951L1347 953L1347 949L1356 956L1357 950L1360 951C1363.72 944.584 1370.08 949.805 1375 952L1376 949L1380 950L1380 937L1394 951L1394 942L1402 946L1403 938L1403 937L1395 919L1396 919L1400 926L1398 913C1403.56 912.57 1404.82 909.095 1408 905L1411 908L1412 904C1418.32 904.882 1419.19 901.829 1424 899L1423 904L1429 898L1430 903L1438 900L1438 899C1433.77 895.185 1432.07 892.751 1432 887L1438 889L1450 883L1447 881C1448.54 875.891 1450.69 874.174 1456 874C1458.99 868.325 1462.6 867.123 1461 860C1470.6 858.471 1473.7 859.357 1474 848L1481 848L1480 845C1487.29 841.662 1493.84 835.542 1492 827L1497 822L1500 824L1489 812L1490 808L1491 808L1492 810L1501 808L1504 806L1504 805C1499.93 800.134 1500.81 795.993 1504 791C1490.1 788.406 1476.44 781.304 1462 785.935C1455.54 788.008 1448.71 787.666 1450 796L1434 779L1451 780L1446 771C1454.67 769.138 1462.45 769.483 1468 762L1467 761L1465 764L1457 760L1457 758C1469.75 756.197 1483.8 759.948 1496.83 759.752C1502.29 759.669 1506.48 754.603 1500 752L1500 749L1505 747L1500 741L1494 738L1503 737C1500.73 734.211 1494.65 730.969 1494.75 727.02C1494.8 725.069 1496.28 723.869 1498.11 723.677C1508.95 722.538 1515.05 720.503 1525.01 716.738C1530.42 714.698 1535.45 716.841 1534 709L1531 710C1527.92 702.541 1523.61 698.72 1515 700C1516.83 696.231 1520.07 696.232 1524 696C1521.81 684.126 1520.83 681.444 1509 677L1509 673L1512 669C1514.7 669.854 1515.39 669.851 1516 667C1518.87 668.439 1520.83 669.744 1523 667L1538.57 674.228L1549.85 690.571L1575 706L1577 700L1578 700L1579 702L1580 702C1592.04 684.535 1583.45 674.132 1576.99 657C1572.98 646.347 1571.1 636.434 1563.61 627.004C1558.69 620.812 1551.65 618.256 1548 611L1554 611C1550.89 604.329 1544.38 598.966 1537 598L1543 594L1544 594C1544.89 589.68 1544.78 582.651 1550 582L1545 567C1550.77 566.591 1558.4 565.595 1564 567.421C1567.51 568.568 1571.68 573.273 1575.68 572.045C1581.45 570.274 1577.36 557.293 1574 555L1581 551L1575 531L1578 527C1567.32 523.636 1562.56 516.91 1557.51 507C1553.99 500.111 1562.02 496.195 1551 494L1552 489L1561.43 482.319L1573 477C1576.42 482.413 1582.41 484.016 1588 481L1590 484C1589 479.184 1586.49 477.584 1582 476L1582 475C1588.93 473.326 1604.35 472.658 1602 463L1607 455L1604 449L1601 450L1608 440L1608 437L1603 435L1613 428L1613 427L1610 427L1612 419L1608 420L1595.06 416.968L1577 404L1575.2 389L1577 371C1571.87 372.355 1570.27 359.734 1569 355L1563 356L1566 342C1559.29 344.306 1554.03 337.491 1560.07 332.317C1569.65 324.119 1580.91 316.735 1592.17 309.62C1598.35 305.719 1606.38 303.182 1607 295L1612 296C1614.54 291.129 1617.33 288.374 1623 289L1623 285L1604 284L1609 281L1611 270L1612 270L1613 273L1616 268L1616 267L1612 269L1604 268L1604 258L1602 262C1598.81 260.122 1598.38 258.319 1600 255L1590 253C1587.04 255.476 1584.54 255.344 1581 254L1579 258L1578 258L1582 247L1587 247L1587 246L1578 244L1576 239C1573.72 246.614 1563.88 240.922 1558 241.125C1541.65 241.69 1523.76 244.715 1508 249C1505.48 243.954 1499.84 241.35 1495 245L1494 245C1485.93 239.141 1474.7 247.892 1466 246L1466 249L1465 249L1464 249L1459 244L1464 233L1448 236L1450 227C1441.4 228.093 1434.76 230.407 1428 236L1430 228L1412 228C1410.46 222.747 1406.14 225.465 1402 225.593C1394.55 225.823 1381.97 226.192 1379 234C1376.02 229.371 1377.89 221.95 1372 220L1391 194C1397.09 192.903 1400.31 184.656 1399 179C1403.94 176.073 1414.27 163.554 1415.68 157.911C1417.68 149.936 1414.86 142.393 1417.63 134C1420.74 124.624 1448.91 92.8043 1423.99 89.3195C1421.11 88.9174 1417.88 89.2751 1415 89.5486C1409.05 90.113 1405.2 94.9062 1401.04 98.7137C1392.28 106.737 1381.84 111.795 1375.1 122C1372.6 125.788 1369.79 139.231 1364 136C1358.04 139.199 1357.35 145.83 1358 152L1356 149C1351.62 149.166 1343.65 149.478 1342 145L1337 152L1335 149L1331 153L1328 125C1323.43 125.952 1312.76 131.812 1310 128L1301 136C1298.1 134.98 1296.69 134.772 1296 138L1292 135L1288.14 148.675L1263 161C1262.34 157.033 1260.89 156.345 1257 157L1253 138L1251 138C1249.47 140.399 1247.92 141.867 1245.21 139.623C1242.26 137.179 1241.84 132.509 1237.89 131.203C1226.4 127.407 1222.15 138.175 1211 134L1210 138L1205 133L1202 133C1197.13 141.421 1197.13 144.078 1199 154L1194 151L1192 168C1186.58 166.43 1180.9 169.19 1178 174C1175.46 173.286 1171.98 171.742 1169.34 172.694C1164.33 174.501 1159.26 183.865 1156 173L1155 173L1151 180L1150 164C1141.88 168.795 1136.48 177.147 1133 186L1132 186C1131.83 180.153 1130.13 176.698 1124 176L1131 159L1128 163C1119.25 164.781 1113.39 175.663 1116 184L1111 186L1116 163C1111.2 164.91 1109.97 170.234 1109 175C1099.27 170.433 1112.39 160.562 1117 155L1117 154L1116 131L1115 131C1113.27 134.61 1112.09 135.933 1108 136L1117 129L1118 125L1114 126L1112 119L1132 108L1132 86C1122.09 89.0905 1124.11 100.582 1112 101L1115 85L1116 85L1115 92C1120.57 87.7604 1115.76 81.4406 1115.13 76C1113.77 64.2429 1123.79 54.6779 1113 45L1112 45L1106 52L1105 52L1104 37L1102 37L1097 48L1099 39L1095 38C1097.21 31.8634 1094.5 26.344 1088 25L1088 30L1092 28L1083 34L1082 31L1080 31L1079 39C1074.77 40.9614 1072.44 43.181 1073 48L1071 29L1065 32L1064 25L1058 33L1057 33L1054 9L1045 25L1044 16C1039.58 18.8337 1038.26 26.9572 1038 32L1036 32L1035 0L1030 0L1030 4L1027 4L1027 0C1023.6 0.587524 1022.73 1.64929 1022 5L1019 0L1012 0L1008 8L1008 0L1004 0C1004.08 17.0038 1002.75 35.5977 990 48C995.5 37.6829 997.797 28.3732 999 17L987 39L988 42L985 24L984 24C984.4 29.7061 984.729 37.2056 979 40L979 37L973 42L971 38L970 38L961.028 48.0579L954 60L953 54L946 57L940 42L939 42L935 51L932 47L930 47L922 54C917.131 51.2092 914.687 48.421 913 43C908.898 43.3112 907.019 44.4 905 48L903 48L898 42L900 39L890 36L890 40L882 28L884 51L883 51L882 47L878 48C877.424 43.5638 877.155 39.2374 872 39L870 35L872 42C867.642 40.9824 858.402 27.5518 856 36L854 35L854 38L852 36L845 32L842 40L841 35L837 35L840 48C829.501 49.364 827.559 37.1257 817 37L819 45L809 37C810.282 44.6066 810.435 49.5935 801 49C797.974 52.7701 795.595 52.824 791 53C787.034 48.3916 781.038 51.9784 776 52L778 47L776 49L772 52L770 52L769 49L768 49L766 56L753 60L747 65L744 57C734.277 59.8417 744.542 70.5195 745 76L741 73L740 73C736.111 80.9812 736.432 84.0699 740 92C735.298 87.6457 731.728 83.73 725 83L726 79L720 80L719 76L714 79L714 80L716 92L710 92L712 98C705.741 94.9341 702.704 97.373 699 90L696 92L695 92L692 75L683 78C684.768 74.3212 685.56 71.3972 683 68L683 67C685.958 62.4146 681.988 56.0082 681 51L680 51L678 55C679.375 48.3353 679.067 41.5587 680.379 35C682.464 24.5746 687.596 19.7032 683.918 8.8302C683.133 6.50879 684.217 2.76636 682.218 1.02771C679.365 -1.45532 671.544 0 668 0L629 0z"/>
<path style="fill:#fdfdfd; stroke:none;" d="M683 0L685.89 18.0007L680.61 33L678 55L680 51L681 51L683 67L683 68L683 78L692 75L695 92L696 92L699 90C701.696 97.6287 705.403 95.9648 712 98L710 92L716 92L714 80L714 79L719 76L720 80L726 79L725 83L740 92C737.926 83.4576 737.04 81.6823 740 73L741 73L745 76C744.623 69.1286 735.597 62.0966 744 57L747 65L753 60C758.106 63.8282 761.165 57.7185 766 56L768 49L769 49L770 52L772 52L778 47L776 52L791 53C795.713 53.3756 798.582 53.6045 801 49C810.747 51.3035 810.946 44.3591 809 37L819 45L817 37C827.539 37.3448 829.243 51.0076 840 48L837 35L841 35L842 40L845 32L854 38L856 36C859.587 28.6641 866.547 41.3744 872 42L870 35L872 39C876.867 39.5498 877.171 43.7865 878 48L882 47L883 51L884 51L882 28L890 40L890 36L900 39L898 42L903 48L905 48L913 43C914.098 48.7522 916.627 51.8037 922 54L930 47L932 47L935 51L939 42L940 42L946 57L953 54L954 60L961.028 49.0193L970 38L971 38L973 42L979 37L979 40C985.26 38.0062 984.713 29.5331 984 24L985 24C986.681 29.9254 982.456 41.0316 988 42L987 39L999 17L990 48C1004.11 38.9174 1004.26 14.9313 1004 0L683 0M1008 0L1008 8L1012 0L1008 0M1019 0L1022 5L1023 0L1019 0M1027 0L1027 4L1030 4L1030 0L1027 0M1035 0L1036 32L1038 32L1044 16L1045 25L1054 9L1057 33L1058 33L1064 25L1065 32L1071 29L1073 48C1073.27 43.4097 1075.28 41.4943 1079 39L1080 31L1082 31L1083 34C1087.12 32.1196 1091.08 33.299 1092 28L1088 30L1088 25C1094.14 27.1371 1096.16 31.797 1095 38L1099 39L1097 48L1102 37L1104 37L1105 52L1106 52L1112 45L1113 45C1121.96 56.0686 1114.19 63.5156 1115.05 76C1115.48 82.0662 1119.64 86.6421 1115 92L1116 85L1115 85C1110.5 90.7233 1111.82 94.2149 1112 101C1123.95 102.661 1123.14 90.5876 1132 86L1132 108L1112 119L1114 126L1118 125L1117 129C1112.12 128.521 1110.05 131.922 1108 136C1112.42 136.579 1113.65 135.082 1115 131L1116 131C1117.73 138.934 1110.32 148.041 1117 154L1117 155C1111.69 159.517 1097.87 171.391 1109 175L1116 163L1111 186L1116 184C1114.11 175.505 1119.68 165.854 1128 163L1131 159L1124 176C1129.56 177.146 1131.63 180.497 1132 186L1133 186L1150 164L1151 180L1155 173L1156 173C1157.9 184.524 1164.73 175.398 1169.34 173.201C1171.87 171.995 1175.43 173.473 1178 174C1181.68 169.955 1186.47 166.861 1192 168C1194.53 162.781 1195.65 156.619 1194 151L1199 154C1197.69 143.661 1198.55 142.002 1202 133L1205 133L1210 138L1211 134C1221.37 139.566 1225.58 129.708 1236.56 131.231C1241.87 131.969 1241.75 138.758 1246.06 140.914C1248.9 142.333 1250.09 140.249 1251 138L1253 138L1257 157C1260.61 156.88 1261.92 157.512 1263 161C1270.91 156.947 1283.69 157.223 1288.68 148.675C1290.86 144.936 1290.82 139.202 1292 135L1296 138L1301 136L1310 128C1311.12 133.209 1323.66 126.241 1328 125L1331 153L1335 149L1337 152L1342 145L1358 152C1357.79 145.574 1358.8 140.212 1364 136C1368.85 141.318 1373.59 125.112 1375.78 122C1381.47 113.929 1388.39 110.434 1395.71 104.458C1404.45 97.3246 1409.74 89.0787 1422 89.3434C1437.4 89.6758 1432.99 103.346 1429.98 113C1427.57 120.773 1420.18 125.319 1417.63 133C1414.83 141.48 1417.35 148.909 1415.65 156.961C1414.35 163.101 1403.71 174.78 1399 179C1399.63 184.552 1396.71 192.235 1391 194L1372 220L1379 234C1382.93 227.547 1407.29 220.533 1412 228L1430 228L1428 236L1450 227L1448 236C1454.54 237.524 1458.04 235.232 1464 233L1459 244L1466 249L1466 246L1494 245L1495 245C1500.48 242.192 1504.45 244.296 1508 249C1524.7 246.166 1541.98 240.887 1559 241.256C1564.54 241.376 1574.56 247.223 1576 239L1579 240L1578 244L1587 246L1587 247L1582 247C1579.2 250.942 1575.88 253.078 1578 258L1579 258L1581 254C1584.49 255.664 1587.54 256.414 1590 253L1600 255C1597.84 258.21 1598.21 260.67 1602 262L1604 258L1604 268L1612 269L1616 267L1616 268L1613 273L1612 270L1611 270L1609 281L1604 284L1623 285L1623 289C1617.11 287.789 1613.89 290.453 1612 296L1607 295C1605.82 302.597 1598.07 305.326 1592.17 309.049C1585.65 313.159 1577.33 317.683 1571.6 322.174C1569.67 323.683 1569.64 326.508 1567.68 328.108C1565.16 330.174 1561.62 330.074 1559.15 332.317C1553.27 337.671 1559.29 345.397 1566 342L1563 356L1569 355C1569.74 359.933 1571.62 372.93 1577 371L1577 404L1594.14 416.968L1608 420L1612 419C1611.02 422.338 1608.44 426.023 1613 427L1613 428L1603 435L1608 437L1608 440L1601 450L1604 449L1607 455L1602 463C1603.22 472.527 1588.95 472.869 1582 475L1582 476L1590 484L1588 481C1581.8 483.055 1577.44 481.791 1573 477L1552 489L1551 494C1560.93 496.714 1553.96 500.013 1556.96 506.911C1561.28 516.879 1567.21 524.777 1578 527L1575 531L1581 551L1574 555C1576.79 557.559 1581.35 570.891 1574.85 571.62C1570.87 572.065 1567.64 567.847 1564 566.896C1558.27 565.396 1550.81 566.278 1545 567L1550 582C1544.15 582.271 1544.63 589.25 1544 594L1543 594L1542 592L1537 598C1544.26 599.665 1549.81 605.048 1554 611L1548 611C1550.99 619.597 1560.13 622.532 1565.03 630C1574.48 644.396 1579.83 661.491 1585.68 677.576C1587.31 682.045 1585.31 701.889 1578 700L1577 700L1575 706C1567.59 702.755 1556.19 696.205 1550.56 690.571C1547.22 687.228 1546.13 682.038 1543.26 678.286C1538.67 672.275 1530.13 668.971 1523 667L1516 667L1512 669L1509 673L1509 677C1520.42 683.231 1520.34 683.937 1524 696C1519.99 696.08 1516.18 695.6 1515 700C1524.19 699.913 1526.59 702.784 1531 710L1534 709C1534.6 716.918 1529.54 714.62 1524.04 716.738C1516.67 719.579 1511.75 723.258 1503.27 723.775C1500.54 723.941 1496.3 721.992 1494.76 725.315C1492.46 730.306 1499.99 734.391 1503 737L1494 738L1500 741L1505 747L1500 749L1500 752C1505.88 755.637 1501.25 759.53 1495.91 759.475C1483.91 759.353 1468.42 755.153 1457 758L1457 760L1465 764L1467 761L1468 762L1446 771L1451 780L1434 779L1450 796C1449.6 788.233 1454.89 788.613 1461 786.617C1476.59 781.526 1488.97 789.639 1504 791C1500.39 795.383 1498.92 801.029 1504 805L1504 806L1501 808L1491 808L1490 808L1489 812L1500 824L1497 822L1492 827C1492.95 835.78 1486.7 840.422 1480 845L1481 848L1474 848C1473.31 859.273 1469.92 857.745 1461 860L1456 874C1450.44 874.066 1448.04 875.313 1447 881L1450 883C1445.39 884.296 1439.95 884.141 1438 889L1432 887C1432.02 892.859 1432.94 895.727 1438 899L1438 900L1430 903L1429 898L1423 904L1424 899L1412 904C1410.65 906.409 1409.64 907.764 1408 905L1398 913L1400 926L1396 919L1395 919C1393.66 925.018 1399.21 932.429 1403 937L1403 938L1402 946L1394 942L1394 951L1380 937L1380 950L1376 949L1375 952C1370.79 949.184 1362.49 943.576 1360 951L1357 950L1356 956L1347 949L1347 953L1342 951C1339.54 954.792 1334.49 954.483 1333 950C1327.39 951.198 1327.05 954.807 1327 960C1319.05 955.156 1322.86 948.2 1326 942L1317 948C1315.8 934.393 1308.36 924.645 1296 919L1296.06 933.015L1300 950C1307.69 955.731 1306 964.347 1306 973C1301.31 968.16 1290.21 955.586 1292 949C1285.11 947.7 1280.5 963.506 1276.9 950.024C1276.46 948.358 1276.23 946.703 1276 945L1274 945L1276 962C1266.14 956.939 1273.02 939.206 1258 935L1259 944L1263 948C1247.07 950.594 1266.3 963.001 1269.23 966.588C1271.15 968.941 1270.76 974.046 1272 977L1265.63 970.237L1252 972L1256 982L1249 976L1247.96 996.999L1245.38 1003.52L1239 998L1239 1006L1235 1007L1237 1019L1236 1019L1232 1013L1235 1030L1232 1021C1223.01 1016.09 1218.71 995.955 1214 987L1211 987C1209.43 993.069 1208.5 998.075 1211 1004L1196 1000L1188 973L1184 978L1166 979L1168 983L1164 984L1163 973L1159 973L1165.5 989.043L1164.54 1001L1166 1012L1164 1012L1165 1007L1160 1006L1160 1001L1157 1002L1158 989L1153 990L1153 991L1155 997L1154 997C1150.72 988.228 1146.25 977.224 1135 978C1134.16 973.68 1128.54 963.969 1128.1 974.005C1127.72 982.564 1132.65 991.994 1131 1000L1135 1001L1135 1004L1127 1006L1128 1011C1121.15 1005.74 1120.06 994.755 1117 987L1106 997.556L1094.09 1004.15L1075 1023L1074 1035L1078 1036L1078 1033L1081 1033C1079.41 1052.13 1108.25 1056.81 1106 1074L1098 1069L1095 1077C1086.63 1070 1099.4 1061.01 1084 1061C1084.29 1064.63 1086.4 1066.81 1083 1069C1082.32 1064.91 1077.14 1068.52 1075 1070L1075 1066C1077.92 1065.56 1077.43 1063.16 1076 1061C1074.78 1063.04 1073.62 1067.96 1071.45 1069.07C1067.38 1071.16 1063.04 1064.56 1069 1063L1057.81 1060.66L1056.11 1053L1045.85 1035.96L1040 1023L1038.43 1035L1048.16 1055.01L1046 1078C1041.31 1076.59 1042.2 1074.09 1046 1072L1037.91 1044.02L1025 1033C1019.46 1038.43 1023.59 1046.82 1026 1053C1020.86 1051.29 1017.78 1052.91 1013 1055L1014 1062C1009.95 1061.87 1008.64 1063.01 1008 1067L999.171 1054.71L995 1044L996 1035L1000 1036L999 1031L1004 1032L997 1010L990 1012C988.842 1005.88 990.262 986.832 984 985C985.143 990.895 986.694 998.623 978 997C979.106 1003.71 977.521 1007.11 972 1011L972 1014L966 1014C964.317 1023.09 971.9 1029.44 960 1036C960.05 1029.41 959.843 1026.47 956 1021C948.176 1022.78 946.535 1017.06 940 1014C945.205 1026.64 951.782 1044.51 940 1056L942.113 1037.91L932.772 1027.46L930 1017L925 1026L924 1026L920 1020L919 1020C911.802 1031.08 920.343 1049.72 904 1054C908.098 1047.17 911.477 1043.38 909 1035L900 1037L900 1033L904 1030L898 1025L884 1052L882 1052L881 1048L877 1047L876 1047L874 1065L871 1064L870 1072L868 1076L865 1076L866 1064L858 1069L858 1070L857 1080L863 1078C868.569 1081.9 878.398 1080 885 1080L938 1080L1143 1080L1920 1080L1920 0L1035 0M1025 1L1021 16L1022 16L1025 1z"/>
<path style="fill:#040404; stroke:none;" d="M684.333 6.66663L684.667 7.33337L684.333 6.66663M1044.67 11.3334L1045.33 11.6666L1044.67 11.3334z"/>
<path style="fill:#fdfdfd; stroke:none;" d="M1018 18L1018 20L1020 20L1018 18z"/>
<path style="fill:#040404; stroke:none;" d="M1079 27L1079 28L1082 28L1079 27M979 29L977 32L982 32L979 29z"/>
<path style="fill:#fdfdfd; stroke:none;" d="M1055 32L1056 33L1055 32M1032 34L1032 36L1034 36L1034 34L1032 34M1080 37L1081 38L1080 37z"/>
<path style="fill:#040404; stroke:none;" d="M901.667 39.3334L902.333 39.6666L901.667 39.3334z"/>
<path style="fill:#fdfdfd; stroke:none;" d="M855 41L856 42L855 41M1094 41L1093 44L1094 41z"/>
<path style="fill:#040404; stroke:none;" d="M1108 44L1111 44L1110 42L1108 44M804 45L805 46L804 45z"/>
<path style="fill:#fdfdfd; stroke:none;" d="M910 48L911 49L910 48M822 49L824 52L822 49M905.333 49.6666L905.667 50.3334L905.333 49.6666M989.333 49.6666L989.667 50.3334L989.333 49.6666M804 51L803 54L806 54L804 51M1111 51L1112 52L1111 51M933 53L932 58L935 53L933 53M925 54L924 60C927.73 59.2007 927.381 56.3809 925 54M1102 61L1105 58L1102 61M930 64L933 61L930 64z"/>
<path style="fill:#040404; stroke:none;" d="M707 75L708 88C715.338 85.3591 714.054 77.121 707 75z"/>
<path style="fill:#fdfdfd; stroke:none;" d="M1059.67 78.3333L1060.33 78.6667L1059.67 78.3333M738 79L742 86L743 81L738 79z"/>
<path style="fill:#040404; stroke:none;" d="M1139 79L1138 84L1139 79z"/>
<path style="fill:#fdfdfd; stroke:none;" d="M690 85L690 87L692 85L690 85M744 87L745 88L744 87M721 94L721 96L723 94L721 94M715.667 99.3333L716.333 99.6667L715.667 99.3333M688 136L693 133L688 144L692 143L694.028 167.96L705.714 178.015L730 201L734 196L734 195C730.62 192.09 729.399 189.453 730 185L723 182L722 185L720 185L719 181C722.846 179.344 725.438 176.8 729 180C734.042 175.547 737.658 180.291 742 183.614C745.553 186.334 749.969 187.219 753.545 189.753C757.102 192.274 758.799 196.52 763 198L758 188L763 173L785 184L785 185L784 194C790.696 189.903 785.457 184.759 785.062 178.996C784.739 174.289 787.201 170.512 787.451 166C787.759 160.461 784.885 155.953 783 151L782 151C781.427 156.557 778.557 161.95 772 160.681C767.54 159.818 764.111 155.987 760 154.21C748.753 149.347 738.854 144.727 729.714 136.219C724.885 131.723 720.381 130.5 721 123C716.754 120.312 711.969 118.046 708.9 113.956C706.606 110.899 703.107 102.521 698.915 101.921C695.111 101.377 694.313 106.366 693.954 109C692.708 118.12 689.912 127.045 688 136M1115 105L1116 106L1115 105z"/>
<path style="fill:#040404; stroke:none;" d="M506.667 107.333L507.333 107.667L506.667 107.333M582 125L582 129L584 129L584 125L582 125z"/>
<path style="fill:#fdfdfd; stroke:none;" d="M584.333 137.667L584.667 138.333L584.333 137.667M506 138L507 139L506 138M542 141L543 142L542 141z"/>
<path style="fill:#040404; stroke:none;" d="M693 143L694 144L693 143z"/>
<path style="fill:#fdfdfd; stroke:none;" d="M1099 145L1098 148L1101 148L1099 145z"/>
<path style="fill:#040404; stroke:none;" d="M1352 147L1353 148L1352 147z"/>
<path style="fill:#fdfdfd; stroke:none;" d="M1092.67 149.333L1093.33 149.667L1092.67 149.333M1330 153L1331 154L1330 153z"/>
<path style="fill:#040404; stroke:none;" d="M475 155L476 156L475 155M477.333 166.667L477.667 167.333L477.333 166.667M1165 173L1166 174L1165 173M716 175L716 176L719 176L716 175M1163 175L1164 176L1163 175z"/>
<path style="fill:#fdfdfd; stroke:none;" d="M1101 177L1100 181L1101 181L1101 177z"/>
<path style="fill:#040404; stroke:none;" d="M717.667 183.333L718.333 183.667L717.667 183.333z"/>
<path style="fill:#fdfdfd; stroke:none;" d="M1141 184L1143 188L1141 184z"/>
<path style="fill:#040404; stroke:none;" d="M414.667 187.333L415.333 187.667L414.667 187.333z"/>
<path style="fill:#fdfdfd; stroke:none;" d="M1126 187L1124 198L1132 187L1126 187M1139 191L1140 192L1139 191z"/>
<path style="fill:#040404; stroke:none;" d="M383 193L384 194L383 193M479 195L480 196L479 195z"/>
<path style="fill:#fdfdfd; stroke:none;" d="M480 200L480 204L481 204L480 200M731 205L734 203L731 205M368 213L368 216L370 216L370 213L368 213M472 231L477 237C477.58 232.954 476.155 230.935 472 231M454 232L458 240L454 232M353 233L353 236L354 236L353 233M466 237L468 240L466 237M1423 240L1426 238L1423 240z"/>
<path style="fill:#040404; stroke:none;" d="M1568 240L1571 240L1570 238L1568 240z"/>
<path style="fill:#fdfdfd; stroke:none;" d="M440 239L441 240L440 239M1499 247L1500 248L1499 247z"/>
<path style="fill:#040404; stroke:none;" d="M332 265L332 268L334 268L334 265L332 265M1605 265L1606 266L1605 265z"/>
<path style="fill:#fdfdfd; stroke:none;" d="M338 266L339 267L338 266M1611 289L1611 292L1612 292L1611 289z"/>
<path style="fill:#040404; stroke:none;" d="M1599 309L1600 310L1599 309M304 321L305 322L304 321M1575 328L1578 325L1575 328z"/>
<path style="fill:#fdfdfd; stroke:none;" d="M316 329L320 332L319 329L316 329z"/>
<path style="fill:#040404; stroke:none;" d="M1584 331L1585 332L1584 331z"/>
<path style="fill:#fdfdfd; stroke:none;" d="M311.333 334.667L311.667 335.333L311.333 334.667z"/>
<path style="fill:#040404; stroke:none;" d="M293 377L293 380L294 380L293 377M291 380L290 384L291 384L291 380z"/>
<path style="fill:#fdfdfd; stroke:none;" d="M294 425L295 426L294 425M383.667 427.333L384.333 427.667L383.667 427.333M388 429L392 432L388 429M395 435L395 436L398 436L395 435M366 442L367 443L366 442M354 457L351 459L351 464L355 464L355 460L361 460L361 459L354 457M360 461L361 462L360 461M1553 485L1554 486L1553 485z"/>
<path style="fill:#040404; stroke:none;" d="M315 490L316 491L315 490z"/>
<path style="fill:#fdfdfd; stroke:none;" d="M330 499L330 500L334 500L330 499z"/>
<path style="fill:#040404; stroke:none;" d="M300 503L301 504L300 503z"/>
<path style="fill:#fdfdfd; stroke:none;" d="M307 504L306 507L310 508L307 504M293.667 535.333L294.333 535.667L293.667 535.333M300 539L301 540L300 539z"/>
<path style="fill:#040404; stroke:none;" d="M288.667 547.333L289.333 547.667L288.667 547.333z"/>
<path style="fill:#fdfdfd; stroke:none;" d="M336 599L337 600L336 599M1549 609L1550 610L1549 609M305 619L305 620L312 622L312 619L305 619z"/>
<path style="fill:#040404; stroke:none;" d="M294.667 625.333L295.333 625.667L294.667 625.333z"/>
<path style="fill:#fdfdfd; stroke:none;" d="M321 647L322 648L321 647M307 659L308 660L307 659z"/>
<path style="fill:#040404; stroke:none;" d="M1511 675L1512 676L1511 675z"/>
<path style="fill:#fdfdfd; stroke:none;" d="M1508 677L1509 678L1508 677z"/>
<path style="fill:#040404; stroke:none;" d="M1526 693L1526 696L1528 693L1526 693z"/>
<path style="fill:#fdfdfd; stroke:none;" d="M1499 695L1499 696L1504 696L1499 695M1511 695L1512 696L1511 695M278 699L279 700L278 699z"/>
<path style="fill:#040404; stroke:none;" d="M1537 713L1537 714L1542 716L1537 713z"/>
<path style="fill:#fdfdfd; stroke:none;" d="M240 719L241 720L240 719M301 721L311 731L312 728C318.315 732.607 321.279 732.976 329 732C319.681 724.154 313.059 720.999 301 721M332 731L333 732L332 731M1487 735L1488 736L1487 735M1489 738L1489 740L1491 740L1491 738L1489 738M1442 747L1443 748L1442 747M1499.67 747.333L1500.33 747.667L1499.67 747.333M1495 749L1496 750L1495 749M1417 759L1418 760L1417 759M247 763L247 764L250 764L247 763M1419 763C1421.29 768.51 1425.23 774.839 1431 777L1419 763M242 769L243 770L242 769M239 775L239 776L243 776L239 775z"/>
<path style="fill:#040404; stroke:none;" d="M230.667 783.333L231.333 783.667L230.667 783.333M1494 813L1496 816L1494 813z"/>
<path style="fill:#fdfdfd; stroke:none;" d="M310 831L311 832L310 831M1489.33 835.667L1489.67 836.333L1489.33 835.667z"/>
<path style="fill:#040404; stroke:none;" d="M1476 855L1477 856L1476 855z"/>
<path style="fill:#fdfdfd; stroke:none;" d="M340 859L341 860L340 859M1459 859L1460 860L1459 859z"/>
<path style="fill:#040404; stroke:none;" d="M296 868L286 876L294 876L296 868z"/>
<path style="fill:#fdfdfd; stroke:none;" d="M598 871L599 872L598 871M340 872L340 874L342 874L340 872M292 883L293 884L292 883M298.667 883.333L299.333 883.667L298.667 883.333M294.333 887.667L294.667 888.333L294.333 887.667z"/>
<path style="fill:#040404; stroke:none;" d="M290.667 895.333L291.333 895.667L290.667 895.333z"/>
<path style="fill:#fdfdfd; stroke:none;" d="M1409 901L1408 902L1408 904L1409 905L1411 905L1412 904L1412 902L1411 901L1409 901z"/>
<path style="fill:#040404; stroke:none;" d="M1425 907L1426 908L1425 907z"/>
<path style="fill:#fdfdfd; stroke:none;" d="M589 909L588 912L589 909M1394 915L1396 917L1394 915z"/>
<path style="fill:#040404; stroke:none;" d="M346.333 920.667L346.667 921.333L346.333 920.667z"/>
<path style="fill:#fdfdfd; stroke:none;" d="M794 921L796 925L796 921L794 921z"/>
<path style="fill:#040404; stroke:none;" d="M335 923L336 924L335 923z"/>
<path style="fill:#fdfdfd; stroke:none;" d="M773 935C777.195 932.682 778.951 930.696 780 926C775.341 927.715 771.792 929.64 773 935z"/>
<path style="fill:#040404; stroke:none;" d="M1400 927L1401 928L1400 927z"/>
<path style="fill:#fdfdfd; stroke:none;" d="M573 935L574 936L573 935M761.667 937.333L762.333 937.667L761.667 937.333M1274 938L1273 939L1273 940L1274 941L1275 941L1276 940L1276 939L1274 938M761 939L762 940L761 939z"/>
<path style="fill:#040404; stroke:none;" d="M1303 941L1304 942L1303 941z"/>
<path style="fill:#fdfdfd; stroke:none;" d="M1393 941L1394 942L1393 941M1291.67 943.333L1292.33 943.667L1291.67 943.333M367 946L366 952L368 952L367 946M1340 947L1341 948L1340 947M1168 949L1170 952L1168 949M373 953L371 956L372 957L373 953M1049 955L1049 956L1053 956L1049 955M1241.67 955.333L1242.33 955.667L1241.67 955.333z"/>
<path style="fill:#040404; stroke:none;" d="M1357 955L1358 956L1357 955M1288 957L1290 960L1288 957M1330.67 959.333L1331.33 959.667L1330.67 959.333z"/>
<path style="fill:#fdfdfd; stroke:none;" d="M1246 961C1246.92 964.811 1248.2 966.828 1252 968C1253.6 962.529 1251.3 961.173 1246 961z"/>
<path style="fill:#040404; stroke:none;" d="M1281 964L1284 964L1283 962L1281 964z"/>
<path style="fill:#fdfdfd; stroke:none;" d="M1223.67 963.333L1224.33 963.667L1223.67 963.333M1136.33 966.667L1136.67 967.333L1136.33 966.667M1230 967C1232.99 972.384 1237.21 973.329 1243 972L1243 976L1244 976L1246 969L1243 971L1230 967M1157.67 967.333L1158.33 967.667L1157.67 967.333M1255 967L1255 968L1260 968L1255 967M1145 969L1144 972L1147 972L1145 969M1172 971L1172 972L1175 972L1172 971M513 973L513 977L514 977L513 973M665 973C658.167 980.145 648.182 989.565 645 999C651.287 996.066 667.6 980.606 665 973z"/>
<path style="fill:#040404; stroke:none;" d="M561 974L562 975L561 974z"/>
<path style="fill:#fdfdfd; stroke:none;" d="M1246 974L1245 979L1248 979L1246 974M682.667 975.333L683.333 975.667L682.667 975.333M982 979L983 980L982 979M1150 979L1151 980L1150 979z"/>
<path style="fill:#040404; stroke:none;" d="M1176 981L1182 988L1180 984L1181 981L1176 981z"/>
<path style="fill:#fdfdfd; stroke:none;" d="M487 983L488 984L487 983M545 983L546 984L545 983M1221 983L1225 988L1221 983M395 985L396 986L395 985z"/>
<path style="fill:#040404; stroke:none;" d="M1175 985L1174 988L1175 985z"/>
<path style="fill:#fdfdfd; stroke:none;" d="M1206 985L1204 992L1206 985z"/>
<path style="fill:#040404; stroke:none;" d="M388 989L388 992L390 992L390 989L388 989z"/>
<path style="fill:#fdfdfd; stroke:none;" d="M978 989L982 996L978 989z"/>
<path style="fill:#040404; stroke:none;" d="M1170 989L1171 990L1170 989z"/>
<path style="fill:#fdfdfd; stroke:none;" d="M1226 989L1229 992L1226 989M971 991L972 992L971 991z"/>
<path style="fill:#040404; stroke:none;" d="M1213 993L1213 996L1214 996L1213 993z"/>
<path style="fill:#fdfdfd; stroke:none;" d="M419 995L420 996L419 995z"/>
<path style="fill:#040404; stroke:none;" d="M493.333 995.667L493.667 996.333L493.333 995.667z"/>
<path style="fill:#fdfdfd; stroke:none;" d="M934 997L934 1000L936 1000L936 997L934 997z"/>
<path style="fill:#040404; stroke:none;" d="M559.333 1000.67L559.667 1001.33L559.333 1000.67z"/>
<path style="fill:#fdfdfd; stroke:none;" d="M1229 1002C1228.5 1005.31 1229.06 1006.38 1232 1008L1229 1002M975 1003L976 1004L975 1003z"/>
<path style="fill:#040404; stroke:none;" d="M416 1005L416 1008L417 1008L416 1005M651 1005L652 1006L651 1005z"/>
<path style="fill:#fdfdfd; stroke:none;" d="M927 1005L926 1008L927 1005M954 1013L950 1020L952 1017L955 1019L954 1013M918.333 1017.67L918.667 1018.33L918.333 1017.67z"/>
<path style="fill:#040404; stroke:none;" d="M975 1017L976 1018L975 1017z"/>
<path style="fill:#fdfdfd; stroke:none;" d="M899 1019L899 1020L902 1020L899 1019M951 1021L952 1022L951 1021M1037 1031L1037 1025C1033.53 1026.98 1033.53 1029.02 1037 1031M720.667 1027.33L721.333 1027.67L720.667 1027.33M880 1027L880 1028L884 1028L880 1027M1008 1027L1008 1029L1010 1027L1008 1027M783 1029L782 1032L783 1033L786 1032L785 1029L783 1029M706 1030L707 1031L706 1030M716 1033L719 1031L716 1033M794 1033L793 1037L796 1033L794 1033z"/>
<path style="fill:#040404; stroke:none;" d="M967.333 1034.67L967.667 1035.33L967.333 1034.67z"/>
<path style="fill:#fdfdfd; stroke:none;" d="M713.333 1035.67L713.667 1036.33L713.333 1035.67M1072 1035L1074 1038L1074 1035L1072 1035M710 1037L708 1039L708 1040L712 1037L710 1037M760 1038L759 1041C751.433 1040.23 748.194 1061.88 748 1068L745 1068L745 1064L744 1064C741.938 1067.47 737.085 1074.27 740.194 1078.4C742.607 1081.6 751.464 1080 755 1080C767.603 1080 790.151 1084.42 800 1076L800 1075L799 1073L792 1074C791.674 1070.36 792.6 1069.26 796 1068L796 1053L792 1056L789 1043L785 1042C785.02 1048.88 789.3 1057.78 782 1062L781 1052L780 1052L776 1061L778.578 1051.32L768 1040L766 1040L766 1049L760 1038M792 1038L791 1040L793 1040L792 1038M880 1038L879 1044L883 1039L880 1038M768 1039L769 1040L768 1039M849.667 1039.33L850.333 1039.67L849.667 1039.33z"/>
<path style="fill:#040404; stroke:none;" d="M484 1040L485 1041L484 1040z"/>
<path style="fill:#fdfdfd; stroke:none;" d="M861 1041L865 1044L861 1041M1007 1041L1004 1048C1007.46 1046.78 1008.32 1044.4 1007 1041z"/>
<path style="fill:#040404; stroke:none;" d="M1026 1042L1026 1044L1028 1044L1028 1042L1026 1042z"/>
<path style="fill:#fdfdfd; stroke:none;" d="M702 1048L707 1043L702 1048M807 1046L810 1043L807 1046M816 1045L816 1048L818 1045L816 1045M1066 1045C1065.86 1048.44 1066.6 1049.41 1070 1050L1069 1045L1066 1045M707 1051L707 1052L710 1052L707 1051M794 1051L795 1052L794 1051M813 1054L810 1080C816.505 1080 823.336 1080.58 821 1072L815 1077L815 1054L813 1054M800 1059L801 1060L800 1059M1081 1059L1082 1060L1081 1059z"/>
<path style="fill:#040404; stroke:none;" d="M703 1060L703 1064L704 1064L703 1060z"/>
<path style="fill:#fdfdfd; stroke:none;" d="M804 1067L800 1080L807 1080L804 1067z"/>
<path style="fill:#040404; stroke:none;" d="M1084 1071L1084 1076L1086 1071L1084 1071z"/>
<path style="fill:#fdfdfd; stroke:none;" d="M828 1075L827 1080L833 1080L828 1075M841 1080L844 1077L841 1080z"/>
<path style="fill:#040404; stroke:none;" d="M863 1078L862 1080L864 1080L863 1078z"/>
</svg>
