<?xml version="1.0" standalone="yes"?>
<svg xmlns="http://www.w3.org/2000/svg" width="1920" height="1080">
<path style="fill:#fefefe; stroke:none;" d="M0 0L0 1080L1920 1080L1920 0L0 0z"/>
<path style="fill:#030303; stroke:none;" d="M635 42L631 48L628 45L628 48L627 48C619.852 47.6816 619.788 60.3427 617.996 65C613.838 75.8052 615.307 86.7579 613.7 98C612.201 108.487 607.236 117.186 608 128L605 127L603 138L602 135L601 135L593 154L592 147L590 147L593 168L579 154L576 161L573 160L572 161C573.217 166.047 575.079 169.046 580 171C576.224 179.3 559.196 168.646 563.804 182.975C564.356 184.69 565.271 186.356 566 188L562 186L559 198L556 189L554 189L554 193L553 193C552.196 189.059 550.901 187.157 547 186L547 190L543 185L540 187L534 167L532 167L530 178L519 167L509.194 175.144L512 196L510 192L502 187L500 199L496 197L495 220L487 215L493 236C488.902 231.66 487.545 226.002 481 225L479 232L481 241L478 244L471 241L456 253L455 258L454 258L455 255L452 255C448.542 248.021 444.418 243.572 437 241L446 256L440 258L439 255L432 250L429 251L419 233L407 231L398 256L379 240L378 240L377.691 253L382 270L378 266L377 266L376 271L367 269L369 276L366 277L379 304L372 301L372 312L366 311L365 314L360 313L365 330L359 327L358 331C354.237 329.406 347.371 327.424 343.584 330.078C340.239 332.422 340.503 335.61 336 337L343 345C340.519 348.256 335.16 349.12 333.371 352.317C327.02 363.666 343.76 368.501 350 372C340.678 376.621 331.559 385.277 330 396L335 398L338 397C338.957 400.275 344.783 401.185 344.593 404.417C344.278 409.765 329.538 420.215 332.912 425.523C339.964 436.618 351.512 415.501 357 416.38C370.186 418.491 387.018 426.98 398 434.352C405.253 439.221 410.993 446.361 419 450L419 452C411.342 451.293 406.867 443.733 400.999 439.495C394.023 434.456 386.331 432.295 378 431L378 432L381 432L381 433L379 434L386 440C383.421 442.487 379.104 444.171 377.358 447.376C374.29 453.009 378.124 462.647 385 461C384.928 465.534 381.501 467.559 378 470C377.65 463.635 371.342 459.426 372 468L355 469C357.293 476.838 346.258 478.442 340 480L340 484L343 482L344 482C347.93 485.159 349.827 486.696 350 492L358 494L353 499L352 506L364 507L364 508L360 518C365.929 517.361 371.549 512.871 377 517C369.7 515.221 364.501 520.9 358.17 523.546C349.643 527.108 336.576 523.197 331 532L345 541L322 537C325.16 548.629 334.125 555.633 342 564C335.235 566.155 331.352 566.73 325 563L322 565C324.585 572.513 333.127 573.84 338.961 578.471C344.161 582.599 346.951 588.311 350 594L354 593C353.308 598.99 355.289 605.31 348 607L363 619L363 620L347 612L346 612C340.759 616.374 338.869 613.907 333 613C331.028 617.053 328.643 619.41 324 619C324.678 625.018 332.839 632.103 338 635L335 640C331.432 635.628 327.621 633.564 322 633C323.535 641.446 337.004 651.237 323 657L323 659L334 663L332 668L337 672C333.224 672.175 323.627 671.772 320.781 674.063C318.342 676.026 320.261 679.906 316.837 681.393C313.11 683.011 308.881 680.556 305 682.024C298.447 684.503 296.568 689.01 289 687C288.395 689.619 288.235 691.817 291.149 693.127C297.407 695.941 304.917 694.022 311.922 697.688C321.814 702.863 303.936 703.395 301 703C306.649 712.031 312.587 714.993 323 715L323 716C318.139 717.635 320.044 721.574 322.765 724.891C327.405 730.549 335.322 727.366 339 734C323.178 735.292 314.899 733.604 300 728L299 729L300 735L272 727L270 736L277 738C274.217 743.544 274.217 746.456 277 752L274 756L281 759C278.171 762.206 270.945 767.048 270.086 771.205C268.698 777.933 286.105 784.948 291 787C284.93 798.96 297.801 803.871 304 811C311.085 810.58 313.17 813.248 312 820L324.578 820.836L324.448 830L313 852L318 855L318 856L318 870C323.774 868.285 329.255 864.422 332 859C335.835 859.213 343.419 854.745 346.382 857.578C351.575 862.545 344.986 875.242 346.965 880.894C349.745 888.834 356.691 879.776 358 876L364 875L355 896C359.608 894.616 361.75 892.675 363 888L364 888L365 901L369 899C367.388 907.263 367.949 914.372 373 921C382.101 917.814 382.021 909.081 381 901L387 900L386 904L391 912L394 911L387 933L408 927L409 931L413 929C411.52 934.188 407.049 952.501 418 948C418.475 958.218 426.164 969.361 436 972L439 963L444 976C449.666 973.593 452.442 970.145 453 964L454 964C454.341 970.769 448.68 984.424 455 989C460.756 978.834 473.923 981.412 477 971L480 972L483 957C486.585 959.489 488.826 960.58 493 959C494.623 966.776 502.678 963.923 509 964L507 953L518.827 943.631L528 953L528 949L533 949L541 960C540.848 941.583 529.265 926.168 532 907L533 907C535.236 917.838 537.856 942.93 552 944L551 922L555 923C559.729 930.018 560.997 918.329 561 915L562 915L573 927L573 919L574 919L578 924L578 909L584 913L585 893L589 894C590.717 887.106 585.519 882.96 583 877L589 880L586 868L592 872L594 872C597.836 867.553 600.192 869.741 603 874L615 870L626.034 881.275L631.711 892.834L637 894C640.675 909.463 655.22 915.533 667 923.688C677.134 930.702 681.919 938.068 695 940L694 936C699.226 937.241 718.772 947.433 716 935L734 938L734.56 927L721 909L734.83 900.692L748 899L748 908C744.3 909.024 742.845 910.049 743 914L737 920C743.455 921.757 751.621 918.841 755 913C765.513 914.958 771.899 898.941 776 891L777 891C777 894.302 780.214 903.185 785 901.5C788.291 900.341 789.862 896.191 793.667 895.667C796.903 895.22 799.742 897.403 802 897L801 912L805 908C812.182 912.575 802.096 916.754 798 919C802.335 927.638 789.601 935.341 782 937C783.326 943.358 787.725 943.535 793 941C793.681 944.479 795.937 955.757 794.152 958.633C786.688 970.662 757.596 980.369 762 998L764 998L768 995L767 1002C770.882 1000.34 776.122 999.694 779.621 997.736C784.995 994.729 784.546 988.839 792 991L792 1003C796.145 1001.7 801.441 1001.43 803 997C808.617 1000.73 811.074 997.265 816 994L814 1006C827.112 1002.02 833.024 988.725 839 978L840 979L837.401 989.83L831.618 1006.87L837.858 1016.43L834 1028C839.101 1026.56 844.44 1022.12 846 1017L850 1018L850 1020L841 1025C844.222 1029.89 851.98 1024.88 855.961 1022.39C866.546 1015.76 881.628 1003.92 886 992L887 992C888.531 1003.37 891.507 1007.82 902 1001L901 1008C912.014 1007.18 927.783 998.895 931 988L939 992L940 976L946 977L948 968L956 975L956 976L954 980C966.46 984.889 967.553 952.572 973 945C974.63 951.6 975.914 963.418 985 961L989 969L991 969L993 965L1005 993L1007 993L1008 984L1009 984L1020 1006L1027 993L1029 993L1031 1002L1054 1001L1053 1009C1063.49 1002.53 1054.07 992.128 1051.56 984C1046.85 968.779 1044.67 945.955 1058 935L1056 944L1062 944C1066.7 951.808 1074.63 948.369 1081.96 951.587C1088.47 954.444 1093.13 960.918 1100 964L1097 961L1096 953L1097 953C1099.4 958.783 1101.54 961.605 1100 968C1112.49 970.705 1118.66 958.586 1123 949L1125 949L1128 956L1132 956C1129.91 949.454 1127.69 944.004 1132 938L1133 941C1138.94 938.039 1140.57 942.275 1146 944L1146 931C1155.53 937.732 1168.06 943.991 1180 944L1180 941C1186.26 940.982 1189.53 940.591 1191 934L1190 933L1186 934L1188 927L1172.99 914.8L1158 910L1175 901C1176.74 903.34 1192.34 901.776 1195 900L1198 902L1197 899C1202.32 905.051 1227.49 936.677 1219.58 913.005C1218.87 910.873 1218.04 908.987 1217 907L1220 910C1224.41 908.62 1225.77 905.254 1227 901L1228 901C1228.01 911.17 1237.08 922.01 1241 907C1253.03 913.225 1258.02 891.076 1271 892L1272 880L1273 880L1275 890C1282.27 886.349 1282.82 877.351 1291 886L1292 886L1298 880C1302.58 882.78 1304.54 878.093 1305 874L1306 874L1314 886L1313 874L1329 892L1330 889L1331 889L1335 901L1339 897L1340 904L1352 897C1353.16 900.338 1361.03 913.207 1364.67 906.833C1366.89 902.942 1364.04 896.35 1364 892L1368 892L1372 886L1373 886L1377 894L1378 894L1379 886L1382 888L1377.07 865.353L1396 860L1392 851L1399 852L1398 846L1399 846C1402.66 853.665 1410.51 856.706 1418 860L1419 855L1423 856C1421 847.398 1427.22 848.275 1433 844L1433 843L1427 831C1414.38 820.473 1432.83 819.407 1438 816L1438 815L1428 797C1431.43 798.922 1435.95 801.476 1439 798L1440 798L1443 800L1443 795C1428.31 784.19 1418.97 766.054 1411.36 750C1408.19 743.303 1404.39 736.525 1404 729C1412.53 739.672 1414.08 760.492 1428 766L1426 753L1427 753L1435 760L1434 755L1438 756L1443 741L1444 741L1444 744C1452.13 741.935 1460.01 754.702 1465 742L1471 744L1466 741C1466.39 733.072 1465.47 730.304 1471 724L1471 723L1464 715L1465.64 706.708L1475 707.478L1493 708C1493.69 703.485 1492.71 698.89 1488.54 696.178C1486.79 695.039 1482.12 695.297 1481.63 692.772C1481.04 689.704 1488.57 684.068 1490 681L1492 681L1495 684L1494 673C1484.42 671.06 1473.34 668.882 1466 662L1475 660C1473.07 656.362 1471.04 655.698 1467 656L1470 652L1460 641C1449.38 640.788 1460.83 631.224 1463 626L1444 624L1444 623C1447.94 619.537 1443.89 615.734 1441 613L1450 608L1464 597L1465 597L1470 608L1473 607C1477.61 619.426 1487.35 624.523 1496.96 632.515C1501.27 636.098 1504.36 640.802 1509 644.057C1513.13 646.95 1522.53 650.734 1526 646L1547 655L1546 651C1549.31 650.413 1555.83 651.765 1558.26 649.382C1562.13 645.577 1558.92 638.677 1556.67 635C1549.77 623.713 1540.03 614.768 1533.51 603C1529.17 595.169 1530.28 585.227 1523 579C1527.8 577.186 1530.36 576.058 1532 571L1525 570L1530 564L1529 559L1527 560L1522 549L1526 546L1527 546L1532 548L1531 545L1547 548L1544 542L1545 541C1558.18 543.425 1553.47 533.191 1547 528L1547 527C1553.98 520.793 1544.47 513.244 1542.32 507C1541.4 504.319 1542.84 501.705 1542.52 499C1541.55 490.825 1539.2 485.8 1542.03 477.043C1543.71 471.833 1550.4 462.631 1556 461.789C1560.48 461.115 1565.67 464.774 1569.68 461.397C1574.39 457.434 1570.37 451.129 1567 448L1567 447C1570.13 445.667 1579.79 444.555 1579.79 440.039C1579.79 437.621 1570.76 430.139 1569 427L1573 427L1569 422L1554 415L1556 412L1556 411C1552.41 404.823 1554.8 400.213 1546 400L1546 399L1549 399L1548 395C1555.9 391.313 1555.57 386.49 1557 379L1549 379C1553.56 366.135 1541.45 367.353 1533 372C1535.08 362.544 1535.33 350.983 1522 356C1521.67 350.555 1521.28 342.766 1516 340C1514.63 343.232 1514.58 347.904 1512.4 350.61C1507.73 356.387 1495.86 359.749 1489 362L1488 361L1493 356L1493 355L1490 357L1485 356L1488 349C1483.44 346.352 1481.77 342.938 1476 344L1477 337L1480 338L1486 317L1480 318L1483 302C1479.46 300.608 1476.51 299.084 1478 295C1473.41 290.089 1468.93 286.413 1462 288L1465 283L1438 270L1446 260L1446 259L1442 256L1446 249L1424 261L1434 243L1419 252L1420 247L1413 246L1413 245C1415.82 240.941 1413.36 236.835 1411 233L1407 236L1406 236L1403 231L1399 234L1398 234C1393.22 230.534 1383.06 231.891 1380 237L1372 237L1373 233L1369 232L1369 230L1373 228C1365.62 213.466 1380.25 205.229 1387.65 194C1397.52 178.994 1403 162.531 1403 145L1400 146L1405 126C1397.19 126.619 1398.94 116.467 1391 118.323C1379.95 120.905 1370.27 142.906 1362.71 150.956C1358.89 155.028 1354.39 156.729 1352 162C1347.89 161.641 1346.84 163.091 1346 167L1343 160L1337 161L1338 168L1334 168L1334 165L1322 175L1317 155L1312 157C1308.7 144.775 1301.46 154.322 1299 161L1298 161L1297 157C1291.15 159.559 1287.25 162.979 1285 169L1283 167L1282 167L1280 173L1277 170L1276 170C1271.78 176.848 1266.78 176.37 1259 176L1255 178C1254.63 173.404 1254.28 169.35 1250 167L1251 176C1245.12 171.621 1243.45 148.252 1233.46 158.713C1231.85 160.398 1230.66 162.342 1229 164L1223 154L1213 166L1209 163L1207 182L1203 180L1193 192C1186.85 188.326 1177.81 184.542 1177 195C1168.2 195.983 1169.09 201.779 1173 208C1163.8 211.754 1158.31 215.775 1154 225C1151.45 220.306 1149.93 211.341 1144 216L1144 212C1137.52 216.768 1131.66 224.389 1129 232L1128 232L1137 207C1128.53 204.931 1120.63 212.135 1113 215C1106.87 206.92 1110.97 204.207 1109 195L1103 199L1102 199L1100 195L1092 200L1090 191L1084 208C1085.9 202.795 1088.38 195.591 1083 192L1082 197L1080 197L1080 191L1078 191C1076.86 202.437 1073.47 212.177 1066 221L1071.79 204L1081 168L1062 192L1059 196L1067 169L1063 168L1064 141L1049 164L1066 125L1063 125L1064 117L1063 117L1061 122L1059 122L1060 114L1055 116L1054 111L1048 116L1048 111C1042 112.065 1037.72 114.457 1035 120L1034 120C1037.15 109.817 1032.52 104.156 1040 95L1036 94L1037 83C1017.49 83.056 1019.41 100.652 1008 111L1009 103C1003.71 104.557 1001.57 108.713 1001 114L1000 114L999 99L998 99L993 110L996 82L982 101L984 93C969.837 97.5646 966.268 125.408 966 138L964 138L964 133L959 135C958.364 131.007 956.993 129.636 953 129L953 123L950 122L947 127L946 127L941 126L940 116L935 119L933 114C924.288 118.393 930.822 129.863 923 134L918 125L908 144C911.578 137.496 913.403 125.411 911.687 118C910.565 113.156 907.786 110.261 908 105L902 104L902 95L897 93L892 102L891 102C889.961 96.6442 889.891 89.8592 884 88C884.016 95.7736 885.592 101.659 879 107L879 103L872 104L868 97C851.665 101.323 857.887 111.326 858 125L853 120L856 142L842 140L843 136L842 136L838 139L840 144L824 128L824 132L818 131L821 159L820 159L819 152L814 153L817 180C813.13 177.481 815.038 173.948 813.701 170C811.22 162.678 805.799 151.541 798 149L795 154L794 149L790 150L791 147L782 143C782.392 147.943 785.322 150.621 790 152C790.19 174.986 805.342 206.224 787 226L784 216C774.416 217.998 774.178 231.555 769 238L767 216L764 220L760 218L750 219.23L740 227L736 224L737 217C732.615 220.487 732.868 223.838 732 229L725 228C729.251 213.482 718.078 207.967 706 208L706 203L702 204L703 210L694 196L697 218L690 215L689 220L686 217L689 232L682 227L681 231L680 231L679 226C675.003 226.151 673.643 224.93 673 221C662.795 215.312 680.172 197.993 680.368 190C680.612 180.056 682.645 169.03 681.91 159C681.365 151.566 678.165 144.599 678.354 137C678.624 126.158 682.135 113.895 677.968 103.039C676.602 99.4823 673.274 97.2613 671.414 93.9854C668.956 89.6577 668.536 84.6208 664 82L663 92L662 92C661.289 88.2968 661.046 78.6041 657 78L654 49C649.074 50.5797 647.668 55.2 647 60L646 60C645.041 56.9396 644.203 56.1384 641 56L635 42M642.667 51.3334L643.333 51.6666L642.667 51.3334z"/>
<path style="fill:#fefefe; stroke:none;" d="M864 102L864 106L865 106L864 102M992 114L992 117L993 117L992 114M964 141L964 144L965 144L964 141M841 147L842 148L844 145L841 147M1399 146L1400 147L1399 146z"/>
<path style="fill:#030303; stroke:none;" d="M1084 161L1083 165L1084 165L1084 161z"/>
<path style="fill:#fefefe; stroke:none;" d="M547.667 191.333L548.333 191.667L547.667 191.333M548 193L548 196L549 196L548 193M553 195L553 200L554 200L553 195M1178 195L1179 196L1178 195M1149 220L1150 221L1149 220M700.333 228.667L700.667 229.333L700.333 228.667M739 228L742 230L739 228M1134 237L1134 240L1135 240L1134 237z"/>
<path style="fill:#030303; stroke:none;" d="M375 251L376 252L375 251M452 252L453 253L452 252z"/>
<path style="fill:#fefefe; stroke:none;" d="M1419.67 263.333L1420.33 263.667L1419.67 263.333M784 266L780 272C782.952 270.944 784.362 269.182 784 266M1411 267L1412 268L1411 267M468 269L473 276L468 269z"/>
<path style="fill:#030303; stroke:none;" d="M339 326L338 328L340 328L339 326z"/>
<path style="fill:#fefefe; stroke:none;" d="M339 341L340 342L339 341M344 345L348 348L347 345L344 345z"/>
<path style="fill:#030303; stroke:none;" d="M330.667 351.333L331.333 351.667L330.667 351.333z"/>
<path style="fill:#fefefe; stroke:none;" d="M1519 355L1520 356L1519 355M1473 363L1473 364L1485 364L1484 361L1473 363M1554 416L1553 418L1555 418L1554 416M380 449L380 452L382 452L382 449L380 449M422 455L431 464L422 455z"/>
<path style="fill:#030303; stroke:none;" d="M1548 471L1548 472L1556 472L1548 471z"/>
<path style="fill:#fefefe; stroke:none;" d="M1527 471L1528 472L1527 471M360 493L359 496L362 496L360 493M366.667 539.333L367.333 539.667L366.667 539.333M347 543L347 544L354 548L347 543M1461 596L1464 596L1463 594L1461 596M1445 605L1446 606L1445 605M1434 618L1438 616L1434 618M348 617L349 620L350 620L350 617L348 617M331 619L332 620L331 619M1443 625L1444 626L1443 625M1457 663L1457 664L1465 664L1464 661L1457 663M324 720L325 721L324 720M1399 723L1400 724L1399 723M1463 743L1464 744L1463 743M1424 751L1426 753L1426 751L1424 751M281.667 761.333L282.333 761.667L281.667 761.333M286 762L289 764L286 762M292 763L293 764L292 763M270 771L271 772L270 771M1424 795L1424 796L1428 796L1424 795M328 821L331 820L328 821M696 863L697 863L707 832C695.603 835.237 694.303 853.281 696 863M1397.33 844.667L1397.67 845.333L1397.33 844.667M698 868L697 872C701.188 875.215 703.613 878.669 704 884L703 884L702 881L701 881L704 888L706 888L714 872C711.551 870.111 712.831 868.61 714 866L698 868M1328 881L1328 888L1330 888L1328 881M1367 887L1368 888L1367 887M583 891L584 892L583 891M390 895L390 897L392 895L390 895M737 895L738 896L737 895M802 895L803 896L802 895M387 899L388 900L387 899M804 907L805 908L804 907M531 925L531 929L532 929L531 925M1063.67 931.333L1064.33 931.667L1063.67 931.333M1063 933L1064 934L1063 933M1172 934L1172 936L1174 936L1172 934M693 935L694 936L693 935M1176 938L1180 940L1176 938z"/>
<path style="fill:#030303; stroke:none;" d="M1190 941L1191 945L1192 945L1190 941z"/>
<path style="fill:#fefefe; stroke:none;" d="M419 947L420 948L419 947M951 957L951 964L954 957L951 957M944 961L945 962L944 961M947 967L948 968L947 967M472 975L473 976L472 975M843 978L842 980L844 980L843 978M840 987L841 988L840 987M768 991L769 994L771 994L772 991L768 991M1053 994L1054 997L1053 994z"/>
</svg>
