<?xml version="1.0" standalone="yes"?>
<svg xmlns="http://www.w3.org/2000/svg" width="1920" height="1080">
<path style="fill:#fcfcfc; stroke:none;" d="M0 0L0 1080L542 1080L669 1080C680.509 1080 706.707 1085.68 709 1071L701 1071L702 1075L692 1074L691 1073L694.588 1058.17L679 1064L682 1060L684 1033L678.196 1042.25L660 1060C659.398 1053.42 653.918 1046.83 647 1050C645.701 1040.39 659.203 1021.17 667.004 1015.92C671.02 1013.22 676.118 1013.33 679.957 1010.49C684.247 1007.3 686.564 1002.28 691.004 999.108C696.053 995.503 702.542 994.482 706 989L700 989L699 986C705.528 984.936 715.93 982.586 714 974L704 971C696.971 978.063 685.579 977.894 678.174 984.479C670.844 990.996 662.505 1000.21 656.094 1007.49C652.983 1011.03 651.606 1015.66 647.812 1018.67C637.583 1026.79 623.306 1031.06 611 1035C613.227 1027.64 621.557 1021.16 629 1020L630 1013L632 1016L642 1007L639 1006L637 1010L628 1010L637 996C640.092 996.522 641.14 996.081 642 993L637 994C643.357 984.42 649.508 968.714 661 964C659.462 957.014 664.994 954.869 668 949L662 947L662 945L665 943L658 944L659 936L647 943L640 942C641.016 935.737 644.765 936.462 650 937L646 932L646 930L651 927C644.785 923.341 642.767 918.741 641 912L640 912L640 918L627 891L625 891C622.387 895.133 621.2 899.152 616 900L617 893L620 892L620 891L608 894C607.722 890.958 607.876 886.56 604 888L603 883L596 879L594 884C596.555 886.514 597.174 887.599 596 891L595 897C595.948 902.37 600.225 915.208 593 916C591.498 922.147 597.387 930.454 589 933L589 938L588 938L588 925L587 925L586 939L583 938L584 961L572 949L571 949L578 984C570.997 984.96 565.805 983.594 562 977L561 977C558.415 984.255 564.982 1003.26 557 1003L557 997L556 997L556 1003L555 1003L547 991L545 998C542.393 993.032 538.006 993.206 533 992L534 989L529 983L527 984L526 981L521 983L520 979L515 988L514 988L511 982L509 992L502 987L499 991L499 996L496 995L492 1000L492 975C487.884 978.597 487.004 994.334 487 1000L485 998L484 998L496 1040L488 1033L488 1046L484 1052L478 1047L477 1047C463.96 1050.2 473.069 1029.23 460 1036L460 1031L458 1029L452 1029C449.508 1038.17 446.166 1034.32 440 1030L430 1038L432 1029L429 1030L431 1010L422 1014C421.752 1006.45 418.431 1007.68 414 1012L414 1005L399 1015C399.383 1008.7 399.091 995.197 405 992L405 991L388 997L385 990C392.402 986.603 398.773 981.4 399 973C391.087 974.992 378.842 982.752 375 990L374 990C374.122 984.94 374.982 981.805 380 980C377.848 969.521 378.522 967.663 382 958L381 957L379 957L376 966L364 972L364 969L367 966L362 968L362 964C359.909 965.098 357.412 967.315 354.911 966.995C349.948 966.359 345.841 957.447 342 964L335 961L350 943L344 945L350 928C346.546 927.549 347.428 924.373 344.889 922.333C340.731 918.993 336.168 924.684 333 927L341 913L343 915L345 901C349.292 899.697 349.861 897.265 350 893L349 893C345.357 900.587 337.597 906.197 329 905L338.802 891.96L336 883L332 883L332 892C324.474 887.523 324.311 881.892 314 882L303.878 892.09L293 909L294 903L289 902L291 898L291 897C286.499 891.066 290.109 883.584 291 877L286 873C291.831 872.12 295.741 868.834 297 863C293.512 863.015 287.634 864.554 287 860L277 860C283.005 846.369 291.328 848.73 303 844L307 833L299 833L295 836L296 831L286 834L289 821C282.606 823.632 279.034 825.305 272 824C274.886 821.924 278.818 821.979 281.411 819.973C284.406 817.657 284.495 810.197 280.606 808.694C277.171 807.366 270.94 808.585 267 808L268 805C270.938 805.619 280.56 802.369 276.113 798.066C272.942 794.997 266.894 797.458 263 793C258.197 794.196 252.958 794.22 249 791L248 791C242.208 794.775 238.645 789.26 234 786L234 789L229 789L226 777L237 772L231 758L237 758L241 752L241 750L234 748C236.809 745.132 254.763 737.482 240 733L230 738L203 725L223 716L221 709L228 708C227.231 706.506 224.376 703.577 224.774 701.85C225.937 696.803 232.511 694.754 222 692C223.031 689.576 223.536 685.448 225.589 683.693C228.007 681.625 232.301 683.15 234.985 683.833C243.563 686.017 255.441 701.113 264 697C266.794 702.181 272.325 704.988 278 706C277.214 698.385 272.752 697.761 267.615 693.306C255.509 682.805 234.047 680.375 227 665L240 670C244.828 663.553 267.79 673.431 275 674L275 669L276 669L279 670L280 673L286 672L285 668L275 665L274 660C283.817 665.666 284.817 665.36 295 661L300 656L301 651L300 649L292 643L292 637L309 642L309 637C304.133 636.45 303.829 632.214 303 628L302 628L294 628L290 620L290 619L302 620L295 613L294 616L293 616L295 612L295 611L276 604L276 603L301 598L306 600L307 592C314.742 594.985 320.453 597.573 327 591C318.096 585.827 313.59 585.873 312 575L320 576C317.69 568.839 305.463 568.548 308 560L308 559L300 556L300 555L303 552L296 556L291 550L290 550L286 552L287.699 543.205L279 533C282.081 533.312 284.242 534.467 285 531L289 532L289 531C283.536 526.94 271.06 512.591 269.698 506C268.852 501.904 270.474 497.242 270 493L286 504L284 495L296 495L303.24 487.118L313 477.653L337 470L337 469L334 468C335.701 463.212 338.893 460.443 344 460C349.521 452.616 367.666 444.027 354 436L354 434L369 427L369 426L355 417C351.599 435.616 329.019 443.735 313 449.448C302.178 453.308 294.864 460.029 286 449L280 452L279 432L278 432L278 436L275 431L278 429L281 430L276 411L287 404L283 393L281 397L278 395C281.269 392.834 284.607 388.219 281 385L282 388L280 383C285.72 382.556 286.98 378.911 289 374C283.523 372.056 284.715 369.743 286 365L283 368L282 368L283 362C289.475 363.39 297.289 360.62 301 355C293.405 355.414 293.947 348.859 295 343L296 346C299.545 342.823 300.142 339.557 299 335L302 332C307.983 332.592 309.017 330.462 309 325L304 325L302 318L307 318L308 313L310 322L320 315L319 311L323 312L325 305L327 305L330 308L329 303C333.359 300.157 332.357 296.693 332 292L329 293L328 289L331 291C333.643 291.307 337.984 293.468 340.397 291.777C343.793 289.397 340.354 275.479 338.101 272.774C335.307 269.419 329.589 269.577 327.179 265.722C325.622 263.232 326.008 259.803 326 257L334 256L332 253L335 252L335 251L323 242L315 239C318.339 233.516 321.741 231.876 328 232L328 231L325 228L321 231L320 226L324 227L323 224L345 228L339 222L339 216L337 217L336 214L355 218L354 215L359 207L360 207L363 212C362.595 204.962 363.609 199.202 367 193L368 196L376 195L379 189L380 189L381 191L386 190L386 188L403 202L408 202L408 199L409 199L410 199L412 203L413 203L413 186L420 185L416 188L421 192L422 196L426 195L430.667 202L431 216L448 226L446 224L446 223L451 225L451 221L452 221L452 230L454 227L458 232L459 232L452 217L466 228L470 224C467.905 219.893 461.054 216.855 464 212L464 211C462.545 208.357 461.898 207.27 464 205L468 210C470.247 207.052 472.857 208.917 476 210C474.995 204.503 473.885 192.316 479 189L476 183L482 183L485 176C477.058 169.791 473.709 159.868 473 150L477 154L482 152L486.711 145.738L486 137L488 137L492 142C497.738 130.649 497.197 128.55 510 128L509 115L510 115L510 118L519 112L523 114L526 101C534.987 106.194 536.797 122.74 540 132L544 129L545 129C546.45 134.616 549.892 144.922 556 146L558 152L558 137L563 141L569 123C569.906 129.507 567.078 134.15 574 138L576 131L579 132L582 119L585 123L589 122C589.539 125.232 590.898 126.725 588 126L588 132L591 129L594 129L594 132L598 132C593.375 120.839 586.004 101.842 591 90L599 104C605.35 99.1661 601.345 83.9795 601.039 77C600.368 61.6541 604.565 37.3043 617 27L616 23L619 24L628 0L0 0z"/>
<path style="fill:#040404; stroke:none;" d="M619 24L616 23L617 27C603.11 34.6194 600.127 64.9252 601.089 79C601.6 86.4629 604.271 97.9384 599 104L591 90C585.342 99.4452 592.716 123.212 598 132L594 129L591 129L588 132L588 126L589 122L585 123L582 119L579 132L576 131L574 138C568.035 133.114 570.603 129.487 569 123C565.248 127.711 562.379 134.988 563 141L558 137L558 152L556 146C550.122 144.328 547.058 134.369 545 129L544 129L540 132C537.99 123.612 534.738 104.31 526 101L523 114L519 112C517.588 114.42 510.569 119.413 510 115L509 115L510 128C497.598 125.991 495.964 130.852 492 142L488 137L486 137L482 152L477 154L473 150C473.297 159.38 476.181 171.295 485 176L482 183L476 183L479 189C473.816 190.111 474.784 205.477 476 210C472.962 208.455 469.018 205.275 468 210L464 205C461.44 206.995 462.088 208.609 464 211L464 212C459.564 216.036 467.566 220.834 470 224L466 228L452 217L459 232L458 232C456.673 227.794 455.35 227.359 452 230L452 221L451 221L451 225L446 223L446 224L448 226C442.664 222.649 437.646 215.056 431 216L433 214L430.67 202.168L426 195L422 196L421 192L416 188L419 189L420 185L413 186L413 203L412 203L408 199L408 202L403 202C399.667 194.814 392.884 191.243 386 188L386 190L381 191L379 189L376 195L374 193L368 196L368 193L367 193C362.754 198.579 362.203 205.244 363 212L360 207L359 207L355 218L336 214L337 217L339 216L339 222L345 228C337.547 224.416 331.317 222.869 323 224L324 227L320 226L321 231L325 228L328 231L328 232C321.77 231.657 317.528 232.85 315 239L323 242C325.628 247.394 329.117 249.921 335 251L335 252L332 253L334 256L326 257C326.002 259.932 325.407 263.947 327.179 266.491C329.583 269.943 334.956 269.859 337.721 272.854C340.088 275.417 339.833 279.799 340.59 283C341.194 285.552 343.041 290.07 339.681 291.597C337.3 292.68 333.604 290.811 331 291L328 289L332 292C332.159 296.684 332.512 299.559 329 303L330 308L327 305L325 305L323 312L319 311L320 315L310 322L308 313L305 314L307 318L302 318L304 325L309 325C308.533 330.197 307.822 332.317 302 332L299 335C299.578 339.652 298.995 342.36 296 346L296 343L295 343C293.398 348.74 293.13 356.411 301 355C296.268 359.879 289.832 362.918 283 362L282 368L283 368L286 365C283.867 369.807 282.802 372.707 289 374C286.5 378.367 285.374 382.145 280 383L282 388L281 385C283.575 388.865 280.988 392.092 278 395L281 397L283 393L287 404L276 411L281 430L278 429L275 431L278 436L278 432L279 432L280 452L286 449C292.651 461.156 303.363 453.91 312.91 449.91C328.155 443.523 353.653 436.743 355 417L369 426L369 427L354 434L354 436C365.633 446.332 348.776 450.58 344 460C338.54 459.527 335.103 462.769 334 468L337 469L337 470C323.652 474.903 313.136 476.135 303.24 486.451C299.714 490.127 296.47 488.86 296 495L284 495L286 504C280.806 500.192 277.008 492.735 270 493C270.295 497.349 268.078 503.003 269.248 507C271.03 513.093 283.362 528.227 289 531L289 532L285 531L279 533L286.903 543.209L286 552L290 550L291 550L296 556L303 552L300 555L300 556L308 559L308 560C303.381 566.967 317.147 570.677 320 576L312 575C312.522 585.822 317.536 587.066 327 591C319.287 596.453 315.509 594.42 307 592L306 600L301 598L276 603L276 604L295 611L295 612L293 616L294 616L295 613L302 620L290 619L290 620L294 628L302 628L303 628C303.576 632.436 303.845 636.763 309 637L309 642L292 637L292 643L300 649L301 651L300 656C296.649 656.728 295.587 657.597 295 661L283.424 665.302L274 660L275 665L285 668L286 672L280 673L279 670L276 669L275 669L275 674C265.952 673.05 258.004 669.594 249.083 668.528C245.589 668.11 240.913 665.763 240 670L227 665C230.732 678.418 247.303 680.391 257.996 685.945C262.111 688.082 264.764 691.963 268.439 694.661C273.358 698.273 276.812 699.445 278 706L264 697C254.523 699.754 245.071 685.805 236 683.731C233.112 683.071 227.354 681.004 224.988 683.618C223.218 685.574 222.785 689.53 222 692C232.618 696.193 222.212 700.38 228 708L221 709L223 716L203 725L230 738L240 733C253.665 739.892 236.717 743.809 234 748L241 750L241 752L237 758L231 758L237 772L226 777C224.738 782.762 225.12 784.352 229 789L231 787L232 787L234 789L234 786C236.895 788.895 244.576 797.574 248 791L249 791C252.191 795.159 258.532 794.776 263 793C265.455 797.245 283.952 798.551 272.628 804.826C270.155 806.196 268.693 805.528 267 808C271.249 809.089 291.858 809.225 281.41 819.397C278.774 821.964 274.775 821.166 272 824C278.755 825.608 283.112 824.492 289 821L286 834L296 831L295 836L299 833L307 833C304.343 837.394 301.352 838.212 303 844C291.46 847.23 281.149 846.191 277 860L287 860C287.574 864.737 293.237 863.105 297 863C295.067 868.401 291.471 871.386 286 873C286.948 876.102 287.749 876.866 291 877C289.802 882.728 285.686 892.362 291 897L291 898L289 902L294 903L293 909C299.873 906.145 300.018 898.717 303.878 893.039C306.773 888.781 311.438 886.536 314 882L332 892L332 883L336 883L338.423 892.384L329 905C337.486 906.839 346.369 901.165 349 893L350 893C349.692 897.089 348.7 899.135 345 901L343 915L341 913C337.395 917.249 332.425 921.049 333 927L342.977 922.106L350 928L344 945L350 943L335 961L342 964C346.388 958.825 349.09 965.916 353.965 967.239C357.207 968.119 359.589 965.795 362 964L362 968L367 966L364 969L364 972L376 966L379 957L381 957L382 958C377.059 967.15 376.802 969.778 380 980C374.385 981.198 374.047 984.807 374 990L375 990C380.517 982.914 390.669 976.355 399 973C398.407 981.397 391.657 985.599 385 990L388 997L405 991L405 992C398.447 994.012 399.164 1008.78 399 1015C407.23 1015.91 407.792 1008.22 414 1005L414 1012C418.408 1009.11 421.448 1006.79 422 1014L431 1010L429 1030L432 1029L430 1038L440 1030C445.875 1035.8 450.081 1038.69 452 1029L458 1029L460 1031L460 1036C472.019 1032.2 466.366 1053.51 477 1047L478 1047L484 1052L488 1046L488 1033L496 1040L484 998L485 998L487 1000L492 975L492 1000L496 995L499 996L499 991L502 987L509 992L511 982L514 988L515 988L520 979L521 983L526 981L527 984L529 983L534 989L533 992L545 998L547 991L555 1003L556 1003L556 997L557 997L557 1003C565.404 1004.41 559.233 984.245 561 977L562 977C564.513 984.179 571.424 985.431 578 984L571 949L572 949L584 961L583 938L586 939L587 925L588 925L588 938L589 938L589 933C597.504 931.581 592.185 921.885 593 916C600.751 915.641 596.61 902.339 595 897C597.826 895.177 597.835 893.741 596 891C598.163 887.861 597.038 885.98 594 884L596 879L603 883L604 888L606 886L608 894L620 891L620 892L617 893L616 900C621.531 899.559 622.881 895.68 625 891L627 891C629.455 898.255 633.927 913.528 640 918L640 912L641 912C642.34 918.884 644.065 924.22 651 927L646 930L646 932L650 937C644.56 936.011 640.526 935.388 640 942L647 943L659 936L658 944L665 943L662 945L662 947L668 949C664.165 954.157 658.877 957.222 661 964C649.641 967.133 641.835 984.397 637 994L642 993L637 996L628 1010L637 1010L642 1007L632 1016L630 1013L629 1020C621.708 1019.66 612.21 1027.82 611 1035C623.231 1032.2 639.005 1026.87 648.661 1018.67C659.978 1009.06 667.603 994.321 679.09 984.479C686.094 978.479 698.782 978.701 704 971L714 974C714.876 984.24 699.809 982.096 700 989L706 989C701.714 993.625 696.128 995.052 691.004 998.42C686.082 1001.65 683.671 1007.11 678.985 1010.49C675.397 1013.07 670.777 1013 667.004 1015.29C660.984 1018.93 656.401 1026.86 653.269 1033C650.387 1038.65 645.373 1043.32 647 1050C653.764 1048.16 658.976 1053.61 660 1060L678.852 1042.25L684 1033C683.911 1042.85 677.399 1049.97 682 1060L679 1064L695.053 1059.18L691 1073L692 1074L702 1075L701 1071L709 1071L706 1080L738.946 1079.85L754 1074L752.946 1053L755 1042L764 1051L769 1047L773 1054L778 1049C777.624 1055.39 764.866 1068.58 772 1074L779 1061L780 1062C776.462 1066.32 774.146 1070.32 775 1076L776 1076L787 1059L790 1060L790 1059L788 1051C794.134 1056.5 793.948 1062.19 786 1065L792 1080L804 1078L805 1078L813 1080C813.478 1073.94 809.832 1060.35 815 1057L815 1080L821 1077C821.926 1081.32 826.439 1080.52 828 1077L830 1077C833.427 1081.75 851.412 1081.76 856.737 1079.4C859.687 1078.08 861.092 1074.6 864 1073L862 1080L870 1080L868 1074C877.896 1069.8 871.656 1057.21 880 1053L879 1056C888.179 1051.49 894.781 1042.74 891 1033C895.165 1031.51 896.748 1029.18 898 1025L899 1025L900 1040L904 1036L909 1037L902 1056L910 1056C911.638 1052.28 914.572 1049.02 915.352 1044.99C916.906 1036.94 911.971 1027.45 921 1023L921 1024L918 1028C924.51 1028.44 929.52 1025.72 926 1019L934 1033L935 1029C937.132 1031.5 940.19 1034.48 940.273 1038C940.445 1045.33 933.113 1056.77 944 1060L947.952 1037L944 1019L948 1024C951.906 1024.43 953.421 1026.53 955 1030L956 1030L960 1026L960 1038L965 1037L966 1042L973 1016L975 1025C981.623 1022.34 977.835 1015.51 975 1011L980 1010C980.004 1005.26 979.643 1001.67 984 999L987 1008L984 1012L990 1013C991.807 1018.66 996.497 1016.37 994 1011L1001 1023L990.447 1046.04L999 1063L1003 1061L1001 1068C1003.23 1069.04 1006.25 1072.44 1008.89 1071.64C1012.1 1070.66 1013.77 1064.83 1010 1064L1010 1063C1016.18 1062.8 1017.66 1060.16 1014 1055L1022 1051L1026 1055L1024 1058C1031.63 1057.6 1026.3 1049.55 1024 1046L1031 1046L1030 1041C1041.95 1042.85 1038.49 1054.61 1039.97 1063C1040.54 1066.2 1043.4 1069.21 1045 1072L1036 1073C1037.78 1079.26 1042.09 1079.98 1048 1080L1049.12 1054.04L1042 1039L1057 1055L1057 1056C1050.99 1059.65 1056.61 1065.6 1061 1068L1066 1062C1061.86 1071.37 1070.75 1069.88 1073 1076L1076 1076L1082 1068L1083 1075L1083 1076L1080 1080L1087 1080C1088.29 1072.93 1087.76 1067.51 1085 1061L1091 1064C1089 1070.78 1088.62 1078.87 1097 1080L1099 1069C1102.47 1075.07 1104.34 1079.58 1112 1080L1109.13 1067.27L1085.89 1044.71L1079 1024L1079 1023C1086.51 1016.06 1094.83 1002.82 1106 1007C1106.87 1004.51 1107.81 1002.23 1109.23 999.998C1120.46 982.373 1119.88 1007.19 1129 1012L1129 1005L1131 1005L1135 1008L1130 969C1139.7 976.985 1150.47 986.196 1154 999L1155 999L1157 994L1158 994L1154 1004L1163 1007C1159.22 1012.85 1163.49 1016.52 1169 1019L1168 1024C1177.67 1017.21 1168.44 1009.69 1166.64 1001.91C1165.91 998.753 1167.54 995.134 1168 992L1172 994C1174.28 986.156 1179.06 989.813 1182 995L1187 973L1200 1008L1202 1005L1214 1012L1212 996L1219.6 1004.83L1230.69 1026.09L1235 1050L1236 1050L1236 1024L1237 1024L1244 1037L1241 1014L1246 1016L1246 1021C1250.8 1017.48 1251.27 1010.52 1252 1005L1256 1012L1258 1012C1264.48 1003.56 1260.99 998.628 1259 989C1266.66 988.748 1265.86 984.316 1267 978L1280 999L1273 968L1273 967C1265.55 962.613 1261.13 959.485 1258 951L1259 950L1263 951L1264 956L1268 945C1272.27 953.853 1267.54 964.037 1280 967L1280 968L1276 969L1283 976L1284 973L1281 972L1284 968L1284 972C1289.49 970.439 1285.42 965.161 1285 961L1278 960L1278 959L1287 957L1292 972C1296.22 970.517 1295.96 967.037 1296 963L1298 963C1298.91 975.387 1304.93 984.689 1317 988C1315.64 983.157 1311.62 980.469 1309.6 976C1307.14 970.561 1308.04 963.751 1307.47 958C1306.59 949.05 1302.68 947.171 1306 938L1300 940L1299 933L1308 929L1317 954L1320 951C1320.39 954.797 1321.35 961.503 1324.03 964.396C1328.35 969.042 1333.65 963.384 1334 959L1336 959C1336 963.892 1336.02 970.616 1340 974C1339.47 969.484 1338.71 965.626 1343 963L1343 968C1346.38 965.783 1345.59 963.381 1344 960L1354 959L1355 962L1360 963L1363 958L1362 955L1365 956L1366 953L1385 960L1386 953L1387 953L1388 956L1389 956L1387 949L1401 956L1397 946L1407 951L1401 920L1405 926L1407 926L1408 925L1406 919L1407 919L1410 922L1409 917L1407 919C1407.11 912.45 1410.58 912.251 1416 914L1417 909L1418 914L1422 913L1425 916L1429 908L1443 918L1444 909C1439.9 906.364 1442.77 902.858 1444 899L1441 900L1439 889L1446 889L1447 892L1449 889L1453 886L1457 888C1459.2 878.707 1461.89 872.91 1471 868L1466 864L1466 863C1469.58 862.394 1477.63 862.141 1480.4 859.972C1483.74 857.348 1484.45 851.553 1488.43 848.381C1492.65 845.013 1501.48 842.345 1496 836L1496 835L1505 826L1504 831C1508.15 827.542 1507.73 824.059 1508 819L1505 813L1512 812L1509 809L1509 806L1514 803L1511 805C1510.19 800.371 1510.27 797.742 1515 796L1511 790L1508 791C1504.32 783.514 1498.22 785.712 1491 784.816C1481.63 783.655 1472.37 782.416 1463 785.039C1459.47 786.028 1447.98 791.705 1445.13 790.67C1441.97 789.519 1440.13 783.835 1439 781C1446.23 781.571 1456.72 780.907 1450 771L1470 766L1470 765L1468 763C1472.4 764.666 1474.97 764.488 1477 760L1479 762L1480 762L1509 760L1506 752L1513 752C1510.72 748.22 1497.29 741.956 1507 739L1502 729C1508.45 727.753 1523.44 724.319 1525 717L1549 716L1549 715L1542 708L1536 710L1536 706L1523 700L1523 698C1527.42 697.893 1530.57 697.543 1532 693C1525.9 690.434 1523.52 687.73 1524 681L1513 678L1513 677C1532.07 656.67 1547.21 695.063 1561 702.296C1568.4 706.176 1576.76 716.241 1583 706L1586 707C1588.57 700.432 1592.03 697.998 1588 691L1593 690L1580.81 661L1571.47 637L1552 614C1560.34 607.953 1543.66 600.996 1541 596L1546 597L1546 595L1550 596L1545 583L1554 586L1551 573L1550 573L1550 579L1549 579L1547 576C1554.7 561.889 1571.6 578.535 1582 576L1580 541L1582 541C1580.86 536.228 1578.77 531.608 1583 528C1577.34 524.397 1565.23 522.717 1565 515L1556 503C1559.84 500.451 1560.54 497.465 1560 493C1556.08 493.375 1553.1 493.629 1553 489L1559 491L1557 486L1574 479C1577.99 486.272 1586.34 486.69 1593 483L1593 482C1586.29 472.424 1601.83 473.337 1606.78 468.532C1613.74 461.769 1612.24 451.192 1607 444L1616 436L1610 432L1610 431C1613.64 429.476 1614.69 427.921 1615 424L1618 424L1614 422L1615 415L1597 417L1598 415L1592 413L1596 415C1597.63 405.314 1578.77 410.368 1582 397C1575.32 392.571 1577.83 380.543 1578 373L1581 374L1582 369L1579 371L1578 371L1575 355L1572 351L1566 352L1568 337L1565 340C1563.19 332.206 1579.7 330.877 1585 332L1591 323L1600.13 316.297L1624 295C1626.49 296.866 1635.37 286.897 1635.36 283.896C1635.36 279.257 1629.43 277.136 1627 274L1634 272L1634 270L1619 260L1620 247C1615.32 245.728 1612.46 246.785 1610 251L1607 249L1610 248L1610 246L1596 247L1596 246C1600.08 243.447 1602.31 239.751 1603 235L1582 239C1585.79 227.165 1565.2 236.293 1560 237.594C1547.58 240.703 1530.97 242.679 1518.17 242.946C1512.2 243.07 1506.07 239.242 1500 238.983C1490.75 238.589 1482.7 241.326 1474 244C1469.72 237.503 1464.96 241.204 1468 231L1451 235C1455.12 219.074 1440.07 225.005 1432 232L1431 231L1434 225C1429.93 225.29 1424.91 227.573 1421.09 227.181C1417.95 226.859 1415.2 224.4 1412 223.889C1403.34 222.508 1381.49 224.668 1379 234L1376 229L1379 228L1375 214L1375 213C1380.5 209.43 1389.22 201.347 1391 195L1394 196L1403 175C1420.32 163.764 1414.01 147.779 1420.48 132C1426.27 117.885 1438.14 110.23 1437.57 93.0146C1437.27 84.144 1423.91 82.8585 1419 88L1417 84C1409 87.8077 1403.6 95.1597 1397 100.907C1383.47 112.689 1374.66 120.07 1367 137L1366 137L1362 132C1359.12 137.871 1356.15 145.546 1358 152C1351.05 142.992 1353.29 145.957 1342 148L1343 143L1336 145L1335 148L1333 148L1331 121L1317 123L1312 128C1310.75 122.187 1304.37 129.248 1300 128L1299 132L1292 134L1290 131C1289.31 137.977 1288.23 150.902 1278 148L1276 156L1275 156L1274 151C1269.44 151.081 1263.52 153.368 1259.29 152.857C1255.01 152.339 1260.93 149.392 1264 150L1266 139C1264.16 140.01 1261.13 145.566 1259.39 145.23C1256.1 144.595 1255.88 138.681 1253.49 136.786C1250.74 134.593 1247.88 137.735 1245.18 136.123C1242.42 134.467 1241.63 130.629 1238.89 128.742C1229.77 122.443 1221.59 129.051 1215 135L1209 129L1208 129L1207 134L1199 130L1199 132L1196 131C1190.45 138.283 1196.17 144.101 1198 152L1197 152L1192 147L1192.58 160.837L1182 167L1167.04 169.763L1157 176L1158 165L1152 168L1155 155L1147 158L1148 164L1141 160C1138.77 167.876 1141.32 175.213 1134 181L1126.48 171.474L1131.66 163.957L1133 148C1126.52 154.927 1126.71 163.545 1117 168L1120 161L1119 160L1114 160L1121 147C1117.95 147.654 1118.06 149.006 1118 152L1115 152L1122 115L1126 116L1134 106L1135 110L1139 104L1139 103L1142 77L1123 85L1119 92L1117.76 70L1123.39 54L1119 33L1113 38L1111 33L1107 36L1106 26L1101 27L1100 26L1097 14L1088 23L1084 17L1077 25L1070 15L1066 28L1065 14L1058 20L1054 0L1049 0L1049 8L1048 8L1046 0L1044 0C1044.09 6.14856 1042.65 11.9868 1039 17L1041 9L1039 0L1002 0L1001 20L1000 20L995 9C996.117 18.0367 995.004 25.8685 989 33L989 7L985 14L983 24L979 24C980.415 19.4839 980 17.4 975 17L975 27L976 27L978 25L976 33L961 43L957 53L958 47L954 46L951 52C945.035 47.7037 942.717 27.752 937.118 43.9954L935 50L934 50L932 37L928 48L926 48L925 38L924 38L922 52L921 52L918 37L908 40L907 34L906 34L907 40L905 37C896.464 35.7601 884.453 30.3954 883 21L886 22C884.943 18.5084 883.582 17.568 880 17L882 45L877 44L879 38C873.257 34.7313 868.231 32.0651 868 25C861.342 26.9012 852.595 22.8931 849 30L838 26L840 32L834 31L833 25C828.374 31.7802 835.11 40.6995 836 48C830.839 47.1398 831.709 43.2513 829 40C823.904 33.8851 809.622 28.512 811 23C807.597 23.7291 808.013 25.8059 808 29L799 25L807 40L801 35L800 35L800 44L792 44C792.34 42.1685 791.181 33.9897 788.106 38.6227C785.692 42.26 789.774 45.2174 785 48L780 33L778 33L769 46L768 46L767 41L769 38C762.777 41.9951 760.992 48.2267 759 55L749 49L748 49L745 54C740.054 50.8214 736.19 46.3069 730 47L736 53L736 56L731 60L729 60L726 57L729 64L725 62L730 76L720 65L712 70L713 62C709.402 64.3324 710.003 68.0129 710 72L707 67C701.255 70.7245 705.649 78.4828 706 84L700 78L699 78L694 79L696 67L687 76L687 54L682 56L690 0L646 0C641.372 0 632.457 -1.69836 628.499 1.02771C623.137 4.72083 620.572 17.9905 619 24z"/>
<path style="fill:#fcfcfc; stroke:none;" d="M690 0L682 56L687 54L687 76L696 67L694 79L699 78L700 78L706 84C705.822 77.8517 701.979 71.9177 707 67L710 72L713 62L712 70L720 65C721.359 69.4287 725.286 75.189 730 76L725 62L729 64L726 57L729 60L731 60L736 56L736 53L730 47L745 54L748 49L749 49L759 55L769 38L767 41L768 46L769 46L778 33L780 33L785 48C787.113 47.2917 793.026 30.3627 792 44L800 44L800 35L801 35L807 40L799 25L808 29L811 23C811.464 30.5222 822.305 34.0514 826.892 39.0154C830.092 42.4777 831.275 46.5796 836 48C835.494 40.0425 829.374 32.678 833 25L834 31L840 32L838 26L849 30C854.234 23.2828 861.127 28.0122 868 25C868.086 32.2563 872.426 35.4723 879 38L877 44L882 45L880 17L886 22L883 21C883.74 30.6946 896.293 36.3684 905 37C904.425 39.3964 904.525 39.4871 907 40L906 34L907 34L908 40L918 37L921 52L922 52L924 38L925 38L926 48L928 48L932 37L934 50L935 50C935.774 48.3356 936.511 46.7078 937.124 44.9753C942.996 28.3805 944 48.6212 951 52L954 46L958 47L957 53L961 43L976 33L978 25L976 27L975 27L975 17C979.721 17.7363 979.99 19.6696 979 24L983 24L985 14L989 7L989 33C995.777 27.3291 996.521 17.2217 995 9L1000 20L1001 20L1002 0L690 0M1039 0L1041 9L1039 17C1043.38 12.7601 1044.29 5.89111 1044 0L1039 0M1046 0L1048 8L1049 8L1049 0L1046 0M1054 0L1058 20L1065 14L1066 28C1070.32 24.9247 1070 19.8765 1070 15L1077 25L1084 17L1088 23L1097 14L1100 26L1101 27L1106 26L1107 36L1111 33L1113 38L1119 33L1123.12 53L1117.47 69L1119 92L1123 85C1130.49 86.4427 1135.73 79.9091 1142 77L1139 103L1139 104L1135 110L1134 106L1126 116L1122 115L1115 152L1118 152L1121 147L1114 160L1119 160L1120 161L1117 168C1126.82 165.228 1128.05 155.508 1133 148L1131.23 163.957L1126.18 171.971L1134 181C1141.9 176.865 1139.54 167.374 1141 160L1148 164L1147 158L1155 155L1152 168L1158 165L1157 176L1167.93 169.813L1182 167L1192.67 161.678L1192 147L1197 152L1198 152C1196.77 143.698 1191.94 139.064 1196 131L1199 132L1199 130L1207 134L1208 129L1209 129L1215 135C1222 130.414 1225.87 124.879 1235 127.433C1240.41 128.947 1240.86 134.625 1245.18 136.84C1248 138.285 1250.71 135.08 1253.49 137.542C1255.63 139.433 1256.25 145.723 1259.79 145.654C1261.73 145.617 1264.42 140.302 1266 139L1264 150C1260.75 148.883 1253.48 151.533 1258.45 153.258C1262.05 154.504 1269.87 151.175 1274 151L1275 156L1276 156L1278 148C1288.69 151.644 1289.65 138.323 1290 131L1292 134L1299 132L1300 128L1312 128L1317 123L1331 121C1330.56 131.148 1328.93 138.165 1333 148L1335 148L1336 145L1343 143L1342 148L1353.85 145.045L1358 152L1362 132L1366 137L1367 137L1377.68 118L1397 101.78L1417 84L1419 88C1424.18 83.9857 1435.02 83.941 1437.11 92.0401C1438.2 96.2579 1435.81 103.779 1434.84 108C1432.69 117.401 1423.96 122.52 1420.48 131C1416.91 139.712 1419.65 149.354 1416.4 158C1414.24 163.738 1407.4 170.716 1403 175L1394 196L1391 195L1375 213L1375 214L1379 228L1376 229L1379 234C1382.58 225.066 1403.13 222.969 1412 224.323C1415.22 224.817 1417.92 227.283 1421.09 227.569C1424.95 227.917 1430.02 225.541 1434 225L1431 231L1432 232C1440.68 226.468 1454.08 219.037 1451 235L1468 231C1463.96 240.705 1468.16 238.619 1474 244C1482.8 242.328 1490.48 239.498 1499.58 239.231C1505.62 239.053 1511.42 242.811 1517.29 243.335C1521.08 243.674 1525.17 241.451 1529 241.076C1539.31 240.064 1550.03 240.655 1560 237.875C1565.45 236.357 1584.71 227.472 1582 239L1603 235L1596 246L1596 247L1610 246L1610 248L1607 249L1610 251C1613.05 247.443 1615.31 246.14 1620 247L1619 260L1634 270L1634 272L1627 274L1628 277C1636.17 279.293 1634.88 284.46 1630.49 289.374C1628.72 291.354 1627 296.315 1624 295C1612.27 301.434 1603.8 319.842 1591 323L1585 332C1580.37 330.274 1561.44 332.449 1565 340L1568 337L1566 352L1572 351L1575 355C1572.6 359.226 1575.47 367.098 1578 371L1579 371L1582 369L1581 374L1578 373C1577.5 380.12 1574.64 393.677 1582 397C1576.76 410.444 1596.31 405.52 1596 415L1592 413C1592.76 416.569 1594.94 416.11 1598 415L1597 417L1598 417L1615 415L1614 422L1618 424L1615 424L1610 431L1610 432L1616 436C1611.07 437.02 1609.61 439.983 1607 444C1612.56 453.797 1613.22 465.149 1602 471.347C1599.04 472.984 1595.23 472.227 1592.49 474.028C1588.69 476.52 1590.34 479.699 1593 482L1593 483C1585.47 486.242 1579.44 485.568 1574 479L1557 486L1559 491L1553 489C1552.8 494.046 1555.78 493.741 1560 493L1556 503L1565 515C1564.73 522.614 1576.92 525.29 1583 528L1580 529L1582 541L1580 541L1582 576C1572.53 577.285 1552.21 561.386 1547 576L1549 579L1550 579L1550 573L1551 573L1554 586L1545 583L1550 596L1546 595L1546 597L1541 596C1543.07 602.445 1558.77 606.499 1552 614L1572.66 640L1593 690L1588 691C1591.19 698.229 1587.64 700.205 1586 707L1583 706C1575.92 713.821 1571.48 707.612 1564 703.395C1560.05 701.168 1556.2 699.646 1552.94 696.38C1544.76 688.206 1527.12 656.019 1513 677L1513 678L1524 681C1523.24 687.888 1525.34 691.07 1532 693C1529.94 696.929 1527.32 697.764 1523 698L1523 700L1536 706L1536 710L1542 708L1549 715L1549 716L1525 717C1520.63 724.216 1509.64 726.61 1502 729L1507 739C1495.91 740.844 1510.23 748.959 1513 752L1506 752L1509 760C1505.95 760.372 1503.09 761.944 1500 761.944C1495.38 761.944 1481.37 755.618 1480 762L1479 762L1477 760C1474.42 763.834 1472.38 763.972 1468 763L1470 765L1470 766L1450 771C1454.35 781.047 1446.71 781.33 1439 781C1439.78 784.103 1441.6 790.209 1445.13 791.252C1448.1 792.128 1458.47 786.702 1462 785.656C1473.39 782.278 1500.63 780.587 1508 791L1511 790L1515 796C1509.77 797.141 1509.9 800.322 1511 805L1514 803L1509 806L1509 809L1512 812L1505 813L1508 819L1504 831L1505 826L1496 835L1496 836C1500.26 843.039 1492.22 844.626 1487.58 848.381C1483.57 851.628 1483.59 856.237 1480.4 859.397C1477.7 862.062 1469.75 862.008 1466 863L1466 864L1471 868C1461.25 871.457 1458.62 878.886 1457 888L1453 886L1449 889L1447 892L1446 889L1439 889L1441 900L1444 899C1442.26 902.719 1438.26 907.387 1444 909L1443 918L1429 908L1425 916L1422 913L1418 914L1417 909L1416 914C1410.51 911.305 1406.09 911.865 1407 919L1409 917L1410 922L1407 919L1406 919L1408 925L1407 926L1405 926L1401 920L1407 951L1397 946L1401 956L1387 949L1389 956L1388 956L1387 953L1386 953L1385 960C1381.04 959.285 1366.17 950.696 1365 956L1362 955L1363 958L1360 963L1355 962L1354 959L1344 960C1345.17 963.499 1345.6 965.259 1343 968L1343 963C1337.92 964.485 1339.2 969.758 1340 974L1336 959L1334 959C1333.31 963.213 1328.01 968.597 1324.09 963.768C1321.76 960.88 1320.64 954.595 1320 951L1317 954L1308 929L1299 933L1300 940L1306 938C1301.52 946.556 1304.96 947.621 1306.9 956C1308.38 962.378 1306.59 969.748 1309.01 976C1310.76 980.504 1314.96 983.608 1317 988C1305.38 982.727 1299.89 976.015 1298 963L1296 963C1295.9 967.051 1295.65 969.865 1292 972L1287 957L1278 959L1278 960L1285 961C1285.09 965.407 1289.16 970.105 1284 972L1284 968L1281 972L1284 973L1283 976L1276 969L1280 968L1280 967C1267.65 962.216 1273.82 953.514 1268 945L1264 956L1263 951L1259 950L1258 951C1260.23 959.828 1265.08 963.449 1273 967L1273 968C1269.46 974.262 1278.88 991.386 1280 999L1267 978C1265.37 983.849 1266.52 988.427 1259 989C1260.38 999.221 1263.05 1002.6 1258 1012L1256 1012L1252 1005L1246 1021L1246 1016L1241 1014L1244 1037L1237 1024L1236 1024L1236 1050L1235 1050C1230.33 1034.53 1231.15 1019.21 1220.95 1005.71C1217.94 1001.73 1217.26 997.144 1212 996L1214 1012C1208.62 1008.7 1206.17 1003.09 1200 1008L1187 973L1182 995C1179.69 989.176 1173.34 985.657 1172 994L1168 992C1167.28 995.139 1165.77 998.651 1166.34 1001.91C1167.93 1010.93 1176.29 1015.2 1168 1024L1169 1019C1164.1 1015.82 1160.57 1013.02 1163 1007L1154 1004L1158 994L1157 994L1155 999L1154 999C1151.8 986.276 1144.56 984.104 1136.43 976.275C1133.81 973.752 1133.33 970.815 1130 969L1135 1008L1131 1005L1129 1005L1129 1012C1120.69 1005.52 1119.54 981.341 1108.61 999.998C1107.3 1002.24 1106.6 1004.5 1106 1007C1095.65 1001.77 1084.79 1015.4 1079 1023L1079 1024L1086.4 1046.42L1108.45 1067.27L1112.43 1078.97L1130 1080L1175 1080L1345 1080L1920 1080L1920 0L1054 0z"/>
<path style="fill:#040404; stroke:none;" d="M832.667 7.33337L833.333 7.66663L832.667 7.33337M979 8L977 12L979 8M888.667 15.3334L889.333 15.6666L888.667 15.3334M1101.67 15.3334L1102.33 15.6666L1101.67 15.3334M892 17L891 21L892 21L892 17M1106 21L1108 24L1106 21M887 24L890 24L889 22L887 24z"/>
<path style="fill:#fcfcfc; stroke:none;" d="M1059.33 22.6666L1059.67 23.3334L1059.33 22.6666z"/>
<path style="fill:#040404; stroke:none;" d="M843 23L844 24L843 23z"/>
<path style="fill:#fcfcfc; stroke:none;" d="M999 25L996 36C1000.79 33.6357 1002.4 30.1503 1001 25L999 25M1058.33 26.6666L1058.67 27.3334L1058.33 26.6666M853 28L849 33L855 32L853 28M862.333 28.6666L862.667 29.3334L862.333 28.6666M808 29L809 30L808 29M864.333 30.6666L864.667 31.3334L864.333 30.6666z"/>
<path style="fill:#040404; stroke:none;" d="M786 31L787 32L786 31z"/>
<path style="fill:#fcfcfc; stroke:none;" d="M1074.67 31.3334L1075.33 31.6666L1074.67 31.3334z"/>
<path style="fill:#040404; stroke:none;" d="M939 33L940 34L939 33z"/>
<path style="fill:#fcfcfc; stroke:none;" d="M976 33L976 36L978 36L978 33L976 33M1032 35L1033 36L1032 35M1106.33 36.6666L1106.67 37.3334L1106.33 36.6666z"/>
<path style="fill:#040404; stroke:none;" d="M760 37L760 40L763 40L763 37L760 37z"/>
<path style="fill:#fcfcfc; stroke:none;" d="M980.667 37.3334L981.333 37.6666L980.667 37.3334z"/>
<path style="fill:#040404; stroke:none;" d="M796.667 39.3334L797.333 39.6666L796.667 39.3334z"/>
<path style="fill:#fcfcfc; stroke:none;" d="M985 39L986 40L985 39M901 41L904 44L901 41z"/>
<path style="fill:#040404; stroke:none;" d="M953 41L952 44L955 44L953 41z"/>
<path style="fill:#fcfcfc; stroke:none;" d="M808.667 43.3334L809.333 43.6666L808.667 43.3334M992 43L992 45L994 43L992 43M882 45L883 46L882 45M749 53L749 58L750 58L749 53z"/>
<path style="fill:#040404; stroke:none;" d="M702 61L705 64L702 61M700 69L696 76C700.058 75.3112 702.543 72.8205 700 69M1144 73L1147 78L1144 73M1133 75L1134 76L1133 75z"/>
<path style="fill:#fcfcfc; stroke:none;" d="M713 76L713 80L714 80L713 76z"/>
<path style="fill:#040404; stroke:none;" d="M1123 77L1122 80L1123 77z"/>
<path style="fill:#fcfcfc; stroke:none;" d="M697 81L697 85L698 85L697 81M1113 90L1113 96L1114 96L1113 90z"/>
<path style="fill:#040404; stroke:none;" d="M1142 95L1143 96L1142 95z"/>
<path style="fill:#fcfcfc; stroke:none;" d="M1120 97L1121 98L1120 97z"/>
<path style="fill:#040404; stroke:none;" d="M506.667 107.333L507.333 107.667L506.667 107.333z"/>
<path style="fill:#fcfcfc; stroke:none;" d="M695 120L694 120L694 117L693 117L691 132L695 131L690 140L695 142L698 140L692 145C692 165.693 704.143 182.355 723 192L717 179L712 178L714 173L708 172L708 165L724 176L740 177C740.921 183.816 751.33 190.872 757 185L754 178L761 178L760 169C765.654 171.332 774.518 180.907 779.995 181.11C784.098 181.263 783.552 176.379 784.451 173.714C787.572 164.465 786.102 161.305 784 152L782 152C780.83 169.426 765.398 156.845 757 153.901C744.445 149.5 729.454 141.8 720.143 131.943C714.952 126.447 707.453 112.967 699.069 111.917C694.953 111.402 695.063 117.389 695 120M1114 119C1117.05 122.084 1120.78 122.097 1120 117L1114 119M505 130L506 131L505 130M505 132L506 133L505 132z"/>
<path style="fill:#040404; stroke:none;" d="M556 132L557 137L558 137L556 132z"/>
<path style="fill:#fcfcfc; stroke:none;" d="M689 133L690 134L689 133M1197 133L1198 134L1197 133M1207 134L1209 136L1207 134z"/>
<path style="fill:#040404; stroke:none;" d="M553 135L554 136L553 135z"/>
<path style="fill:#fcfcfc; stroke:none;" d="M688 135L689 136L688 135z"/>
<path style="fill:#040404; stroke:none;" d="M554 138L555 139L554 138M698.667 139.333L699.333 139.667L698.667 139.333z"/>
<path style="fill:#fcfcfc; stroke:none;" d="M558 142L558 144L560 144L560 142L558 142M490 146L489 148L491 148L490 146z"/>
<path style="fill:#040404; stroke:none;" d="M479 147L482 149L479 147z"/>
<path style="fill:#fcfcfc; stroke:none;" d="M1099.67 147.333L1100.33 147.667L1099.67 147.333M1192 149L1193 150L1192 149M1192 151L1193 152L1192 151z"/>
<path style="fill:#040404; stroke:none;" d="M1123 153L1122 156L1123 153M695 159L696 160L695 159M696.667 163.333L697.333 163.667L696.667 163.333M704 163L707 166L706 163L704 163z"/>
<path style="fill:#fcfcfc; stroke:none;" d="M1108 165L1105 173C1108.58 171.123 1109.56 168.968 1110 165L1108 165z"/>
<path style="fill:#040404; stroke:none;" d="M482 177L483 178L482 177z"/>
<path style="fill:#fcfcfc; stroke:none;" d="M721 177L722 178L721 177M1113 178L1112 184L1116 184L1113 178M1099 179L1099 180L1102 180L1099 179M1400 179L1401 180L1400 179M1133.33 181.667L1133.67 182.333L1133.33 181.667M724 184L725 195L728 195L728 200L732 196L732 195L724 184M785 186L786 190L787 186L785 186z"/>
<path style="fill:#040404; stroke:none;" d="M411 188L410 197L411 197L411 188z"/>
<path style="fill:#fcfcfc; stroke:none;" d="M757 189L760 192L759 189L757 189M478 190L478 194L480 194L480 190L478 190M1127 193L1127 196L1128 196L1127 193z"/>
<path style="fill:#040404; stroke:none;" d="M360 195L360 200L362 200L363 195L360 195M410 198L411 199L410 198z"/>
<path style="fill:#fcfcfc; stroke:none;" d="M480.333 202.667L480.667 203.333L480.333 202.667M732 203L733 204L732 203M479 205L479 211L480 211L479 205z"/>
<path style="fill:#040404; stroke:none;" d="M461 211L462 212L461 211z"/>
<path style="fill:#fcfcfc; stroke:none;" d="M1375 211L1376 212L1375 211M1374 215L1375 216L1374 215M1373 217L1372 220L1375 220L1373 217z"/>
<path style="fill:#040404; stroke:none;" d="M1435 223L1436 224L1435 223z"/>
<path style="fill:#fcfcfc; stroke:none;" d="M1412 227L1413 228L1412 227z"/>
<path style="fill:#040404; stroke:none;" d="M1586 231L1586 232L1590 230L1586 231z"/>
<path style="fill:#fcfcfc; stroke:none;" d="M474 231L478 236L474 231M1430 231L1431 232L1430 231M455 235L458 240L455 235M466 237L466 240L467 240L466 237z"/>
<path style="fill:#040404; stroke:none;" d="M1608 239L1609 240L1608 239z"/>
<path style="fill:#fcfcfc; stroke:none;" d="M1591 247L1592 248L1591 247z"/>
<path style="fill:#040404; stroke:none;" d="M1625 247L1626 248L1625 247z"/>
<path style="fill:#fcfcfc; stroke:none;" d="M1615 249L1616 250L1615 249M1588.33 250.667L1588.67 251.333L1588.33 250.667z"/>
<path style="fill:#040404; stroke:none;" d="M1621.67 251.333L1622.33 251.667L1621.67 251.333M324.667 255.333L325.333 255.667L324.667 255.333z"/>
<path style="fill:#fcfcfc; stroke:none;" d="M336 256C335.925 260.992 339.283 263.272 344 264L336 256M345 257L346 260L347 260L347 257L345 257M328 260L332 264L328 260z"/>
<path style="fill:#040404; stroke:none;" d="M338 285L340 288L338 285z"/>
<path style="fill:#fcfcfc; stroke:none;" d="M1626.67 291.333L1627.33 291.667L1626.67 291.333z"/>
<path style="fill:#040404; stroke:none;" d="M329 299L330 300L329 299M302 327L303 332L304 332L302 327z"/>
<path style="fill:#fcfcfc; stroke:none;" d="M302.667 343.333L303.333 343.667L302.667 343.333M296 349L296 352L297 352L296 349M292 375L293 376L292 375z"/>
<path style="fill:#040404; stroke:none;" d="M282 377L284 380L282 377M1598 411L1598 412L1601 412L1598 411z"/>
<path style="fill:#fcfcfc; stroke:none;" d="M283 425L286 428L283 425M370 425C370.654 428.054 372.007 427.936 375 428L370 425M377 427L377 428L380 428L377 427M383 427L384 428L383 427M388 429L391 432L388 429M282 439L283 442L284 442L284 439L282 439z"/>
<path style="fill:#040404; stroke:none;" d="M1614 455L1615 456L1614 455z"/>
<path style="fill:#fcfcfc; stroke:none;" d="M337 468C340.543 468.672 342.03 468.028 344 465C340.544 464.513 338.977 465.099 337 468M345 465L346 466L345 465z"/>
<path style="fill:#040404; stroke:none;" d="M1594 483L1595 484L1594 483z"/>
<path style="fill:#fcfcfc; stroke:none;" d="M305 489L304 492L305 489M308 491L308 492L313 492L308 491M313 497L319 504C320.116 498.638 318.261 497.173 313 497M1575 525L1576 526L1575 525M1579.33 539.667L1579.67 540.333L1579.33 539.667z"/>
<path style="fill:#040404; stroke:none;" d="M283 549L282 552L283 549z"/>
<path style="fill:#fcfcfc; stroke:none;" d="M308 599L309 600L308 599M304 601L305 602L304 601M304 603L305 604L304 603M309 607L310 608L309 607M1549 611L1550 612L1549 611z"/>
<path style="fill:#040404; stroke:none;" d="M286.667 617.333L287.333 617.667L286.667 617.333z"/>
<path style="fill:#fcfcfc; stroke:none;" d="M297 625L298 626L297 625M309 645L311 648L309 645z"/>
<path style="fill:#040404; stroke:none;" d="M295 655L296 656L295 655M224.667 663.333L225.333 663.667L224.667 663.333z"/>
<path style="fill:#fcfcfc; stroke:none;" d="M290.667 671.333L291.333 671.667L290.667 671.333M1512.67 671.333L1513.33 671.667L1512.67 671.333M304 721L310 728L312 728L315 724L304 721M316 724L315 725C316.47 729.961 317.858 731.851 323 733L324 732L316 724M1495 725L1496 730L1502 728L1495 725M1498 739L1498 740L1501 740L1498 739M1503 749L1502 752L1506 752L1506 751L1503 749M241 756L244 753L241 756M1457 759L1457 760L1463 761L1457 759M1466.67 759.333L1467.33 759.667L1466.67 759.333M1470.67 759.333L1471.33 759.667L1470.67 759.333M234 761L237 764L236 761L234 761z"/>
<path style="fill:#040404; stroke:none;" d="M1478.67 763.333L1479.33 763.667L1478.67 763.333z"/>
<path style="fill:#fcfcfc; stroke:none;" d="M238 768L239 769L238 768M1424 771L1430 776L1430 775L1424 771M1446.67 771.333L1447.33 771.667L1446.67 771.333M240.667 775.333L241.333 775.667L240.667 775.333M1436 779L1437 780L1436 779M1503 815L1504 816L1503 815M290 819L290 821L292 819L290 819z"/>
<path style="fill:#040404; stroke:none;" d="M1504.33 832.667L1504.67 833.333L1504.33 832.667z"/>
<path style="fill:#fcfcfc; stroke:none;" d="M1479 853L1480 854L1479 853M302 867L302 868L305 868L302 867M298 869L292 878L294 876L296 877L298 869M1460 872L1461 873L1460 872z"/>
<path style="fill:#040404; stroke:none;" d="M281 873L284 879L283 873L281 873z"/>
<path style="fill:#fcfcfc; stroke:none;" d="M336 879L337 880L336 879M339 882L338 885L341 885L339 882M299 883L300 884L299 883M604 883L604 885L606 885L606 883L604 883M1433.67 891.333L1434.33 891.667L1433.67 891.333z"/>
<path style="fill:#040404; stroke:none;" d="M604 893C602.867 896.041 602.273 897.935 605 900L604 893M287.333 894.667L287.667 895.333L287.333 894.667M598.667 899.333L599.333 899.667L598.667 899.333z"/>
<path style="fill:#fcfcfc; stroke:none;" d="M1442 900L1443 901L1442 900z"/>
<path style="fill:#040404; stroke:none;" d="M291 909L292 910L291 909z"/>
<path style="fill:#fcfcfc; stroke:none;" d="M589 911L590 912L589 911M1422 912L1423 913L1422 912z"/>
<path style="fill:#040404; stroke:none;" d="M1434 917L1434 920L1436 917L1434 917M1419 918C1420.13 920.006 1420.87 920.006 1422 918L1419 918z"/>
<path style="fill:#fcfcfc; stroke:none;" d="M1395 921L1395 924L1396 924L1395 921z"/>
<path style="fill:#040404; stroke:none;" d="M1429 923L1429 926L1430 926L1431 923L1429 923z"/>
<path style="fill:#fcfcfc; stroke:none;" d="M352 925L351 930L354 925L352 925z"/>
<path style="fill:#040404; stroke:none;" d="M1408.33 926.667L1408.67 927.333L1408.33 926.667z"/>
<path style="fill:#fcfcfc; stroke:none;" d="M1400 929L1401 930L1400 929M1297 931L1298 932L1297 931M573 935L574 936L573 935M584 935L585 936L584 935M1261 937C1261.54 941.766 1263.25 944.017 1268 945L1263 937L1261 937M566 942L565 943L570 948L566 942M1383 943L1384 944L1383 943M1385.67 947.333L1386.33 947.667L1385.67 947.333M1287 950L1286 952L1288 952L1287 950M1168 951L1169 952L1168 951M373 953L372 956L373 953M1049 955L1049 956L1053 956L1049 955M1379.67 955.333L1380.33 955.667L1379.67 955.333M384 957L384 960L386 960L386 957L384 957M1328 957L1328 959L1330 957L1328 957M1356 960L1357 961L1356 960M1250 962L1249 966L1253 964L1250 962z"/>
<path style="fill:#040404; stroke:none;" d="M374 969L375 970L374 969z"/>
<path style="fill:#fcfcfc; stroke:none;" d="M380 969L379 972L382 972L382 970L380 969M1239 969L1238 972L1242 972L1239 969M1144.67 971.333L1145.33 971.667L1144.67 971.333M1264.67 971.333L1265.33 971.667L1264.67 971.333M1159 973L1160 978L1161 978L1159 973M513.333 974.667L513.667 975.333L513.333 974.667M665 974L646 998C651.672 995.041 665.9 980.566 665 974M518 976L519 977L518 976M1172 984L1172 977C1167.41 978.544 1168.92 981.409 1172 984z"/>
<path style="fill:#040404; stroke:none;" d="M1294 977L1296 980L1296 977L1294 977z"/>
<path style="fill:#fcfcfc; stroke:none;" d="M1161 979L1163 983L1161 979M1176 979L1177 980L1176 979M1251.33 979.667L1251.67 980.333L1251.33 979.667M1263 983L1264 984L1263 983M1256 984L1255 992L1259 985L1258 984L1256 984M1166 985L1167 989L1168 989L1166 985M1205 987L1204 992L1207 987L1205 987M979 989C978.425 991.396 978.525 991.487 981 992L979 989M1154 989L1158 993L1154 989z"/>
<path style="fill:#040404; stroke:none;" d="M1266 989L1265 996C1270.76 996.226 1270.88 990.963 1266 989z"/>
<path style="fill:#fcfcfc; stroke:none;" d="M986 991L987 992L986 991z"/>
<path style="fill:#040404; stroke:none;" d="M636 994L637 995L636 994z"/>
<path style="fill:#fcfcfc; stroke:none;" d="M934 997L936 1000L934 997z"/>
<path style="fill:#040404; stroke:none;" d="M1190.67 997.333L1191.33 997.667L1190.67 997.333M388.333 998.667L388.667 999.333L388.333 998.667z"/>
<path style="fill:#fcfcfc; stroke:none;" d="M979.333 998.667L979.667 999.333L979.333 998.667M980 1010L975 1011C977.324 1016.15 981.017 1021.3 975 1025L973 1016L966 1042L965 1037L960 1038L960 1026L956 1030L955 1030C953.867 1026.02 952.205 1024.18 948 1024L944 1019L947.877 1037L944 1060C930.607 1053.39 946.179 1038.24 935 1029L934 1033C928.697 1028.56 933.669 1020.32 926 1019C928.55 1025.49 924.316 1028.12 918 1028L921 1024L921 1023C911.333 1025.87 916.856 1038.05 914.966 1045.56C914.024 1049.3 911.131 1052.23 910 1056L902 1056L909 1037L904 1036L900 1040L899 1025L898 1025L891 1033C893.507 1043.48 887.574 1049.95 879 1056L880 1053C871.951 1055.44 876.157 1068.92 868 1074C870.933 1084.87 899.462 1080 909 1080L1040 1080L1036 1073L1045 1072C1043.81 1068.96 1041.36 1066.14 1040.6 1063C1038.6 1054.66 1042.3 1041.93 1030 1041L1031 1046L1024 1046C1025.65 1049.74 1031.28 1056.95 1024 1058L1026 1055L1022 1051L1014 1055C1016.6 1060 1015.9 1062.55 1010 1063L1010 1064L1013 1064C1009.45 1071.75 1008.12 1070.53 1001 1068L1003 1061L999 1063L990.862 1046.04L1001 1023L994 1011C995.387 1015.89 992.472 1018.01 990 1013L984 1012L987 1008L984 999C979.111 1000.97 980.001 1005.36 980 1010z"/>
<path style="fill:#040404; stroke:none;" d="M1279 1001L1280 1002L1279 1001z"/>
<path style="fill:#fcfcfc; stroke:none;" d="M1200.67 1003.33L1201.33 1003.67L1200.67 1003.33z"/>
<path style="fill:#040404; stroke:none;" d="M658 1007L659 1008L658 1007M1135 1011L1136 1012L1135 1011z"/>
<path style="fill:#fcfcfc; stroke:none;" d="M954 1014L953 1016L955 1016L954 1014M941 1015L942 1016L941 1015M1234 1017L1236 1020L1234 1017M951 1019L952 1020L951 1019M954.667 1023.33L955.333 1023.67L954.667 1023.33z"/>
<path style="fill:#040404; stroke:none;" d="M1247 1023L1248 1024L1247 1023M1172 1025L1172 1028L1174 1028L1174 1025L1172 1025z"/>
<path style="fill:#fcfcfc; stroke:none;" d="M882 1027L883 1028L882 1027M1078 1036L1079 1029C1075.62 1030.88 1074.57 1033.53 1078 1036M1002 1031L1003 1032L1002 1031M1023 1035L1024 1040L1025 1035L1023 1035M1039 1035L1040 1036L1039 1035z"/>
<path style="fill:#040404; stroke:none;" d="M1243 1038L1245 1040L1243 1038z"/>
<path style="fill:#fcfcfc; stroke:none;" d="M1026 1039L1027 1040L1026 1039M1042 1039L1048.83 1055.01L1048 1080L1080 1080L1083 1076L1083 1075L1082 1068L1076 1076L1073 1076C1070.78 1069.74 1064.22 1070.51 1066 1062L1061 1068C1057 1064.79 1051.95 1060.31 1057 1056L1057 1055L1042 1039M862 1041L864 1044L862 1041M723 1042L722 1043L722 1044L723 1045L724 1045L725 1044L725 1043L723 1042M755 1042L752.522 1052L754 1074C748.489 1074.11 744.31 1074.54 742 1080C757.64 1080 778.015 1083.43 793 1079L786 1065C794.113 1063.03 795.56 1055.49 788 1051L790 1059L790 1060L787 1059L776 1076L775 1076L780 1062L779 1061C774.978 1064.42 772.572 1068.73 772 1074C765.767 1067.19 778.007 1056.36 778 1049L773 1054L769 1047L764 1051L755 1042M786 1043L785 1048L787 1048L786 1043M808 1043L808 1046L809 1046L810 1043L808 1043M816.667 1045.33L817.333 1045.67L816.667 1045.33M1066 1045L1069 1050L1068 1045L1066 1045M995.667 1047.33L996.333 1047.67L995.667 1047.33M788 1049L789 1050L788 1049M682.667 1051.33L683.333 1051.67L682.667 1051.33M716 1051L715 1058L718 1051L716 1051z"/>
<path style="fill:#040404; stroke:none;" d="M1020 1055L1022 1058L1023 1057L1022 1055L1020 1055z"/>
<path style="fill:#fcfcfc; stroke:none;" d="M812 1057L813 1080L815 1080L815 1057L812 1057M794 1061L792 1068C795.696 1066.7 796.073 1064.18 794 1061z"/>
<path style="fill:#040404; stroke:none;" d="M879 1061L879 1064L881 1064L881 1061L879 1061z"/>
<path style="fill:#fcfcfc; stroke:none;" d="M1085 1061L1087 1080L1093 1080L1093 1079C1089 1074.77 1089.72 1069.38 1091 1064L1088 1061L1085 1061M1091 1063L1092 1064L1091 1063M861 1068C864.559 1068.31 866.064 1067.69 866 1064L861 1068z"/>
<path style="fill:#040404; stroke:none;" d="M944 1066L943 1069L944 1066M1016 1069L1016 1071L1018 1071L1018 1069L1016 1069z"/>
<path style="fill:#fcfcfc; stroke:none;" d="M1099 1069L1097 1080L1107 1080L1107 1079L1099 1069M861 1073L858 1080L862 1080L864 1073L861 1073z"/>
<path style="fill:#040404; stroke:none;" d="M936 1073L936 1076L938 1076L938 1073L936 1073z"/>
<path style="fill:#fcfcfc; stroke:none;" d="M794.667 1075.33L795.333 1075.67L794.667 1075.33M819 1077L818 1078L818 1079L818 1080L821 1077L819 1077M827 1080L831 1080L830 1077L827 1080M803 1080L806 1080L805 1078L803 1080z"/>
<path style="fill:#040404; stroke:none;" d="M1072.67 1079.33L1073.33 1079.67L1072.67 1079.33z"/>
</svg>
