<?xml version="1.0" standalone="yes"?>
<svg xmlns="http://www.w3.org/2000/svg" width="1920" height="1080">
<path style="fill:#fefefe; stroke:none;" d="M0 0L0 1080L1920 1080L1920 0L0 0z"/>
<path style="fill:#030303; stroke:none;" d="M623 87L619.581 114L608 156L606 156L606 151L604 151L596 178L593 174L592 174L584 186L582 186L579 181L577 188L571 186C567.646 197.901 564.145 204.384 566 217L565 217L559 207L558 210L556 208L550 212L549 212L545 200L540 202L535 196L535 208L526 199L526 205L525 205L522 193C508.518 199.651 512.277 215.397 503 224L504 233L500 236L496 234L499 248L489 239L489 258L476 248L472 260C465.475 263.927 474.194 274.411 476 280L457 263L457 264C461.029 268.282 460.984 274.37 461 280L460 280C457.934 275.317 447.729 260.851 443 268L440 265L440 272C436.366 270.671 426.412 257.445 425 264C414.67 256.441 416.141 262.734 406.871 265C401.957 266.201 396.781 262.476 393 260L396.034 275L398 290L383 286L384 296L402 314L407 316C399.031 315.438 395.524 316.318 396 325C385.128 320.03 387.559 330.216 392 336L384 337L384 344L382 341C372.214 339.606 364.121 334.848 356 343L356 344L362 352L354 354C356.387 359.617 363.225 365.981 369 368L371 380L377 379L377 385L368 387L368 388L371 389L368 395C376.342 398.13 383.481 401.692 388 410C378.848 407.796 373.969 408.223 366 413C369.557 418.246 378.63 420.638 384 424.164C399.336 434.233 424.983 448.819 433 466C417.816 461.49 410.501 441.158 393 441L403 456L389 449L388 452L391 456L387 456L385 475C378.155 473.21 364.676 468.035 366 480L363 484L373 486L373 488C366.975 492.357 369.431 502.656 376 505L379 503C378.213 506.218 378.215 508.028 381 510C380.294 513.337 380.174 514.942 383 517C378.609 521.831 368.031 523.615 362.001 527.1C359.783 528.381 355.387 529.586 356.346 533.025C358.443 540.547 370.926 534.071 370.721 543.004C370.541 550.87 363.03 555.323 365 564L359 565L359 571L353 572C350.032 567.409 345.661 571.382 346.789 576.001C348.302 582.2 356.718 587.046 359.802 592.911C362.53 598.095 359.322 602.827 363 608L356 607L356 608C360.932 613.267 372.183 621.039 372 628L360 623L361 626L347 625L348 632L344 630L343 630C340.196 635.594 343.455 639.952 349 642L349 643L335 644L345 660L342 660C342.829 665.357 346.075 668.091 351 670L338 684L344 686L344 688L332.999 691.513L311 686L323 704L315 708C318.822 709.108 326.731 712.833 328.028 717.083C328.893 719.92 325.314 722.037 327.361 724.889C330.099 728.704 335.587 725.571 338.889 728.333C341.278 730.333 341.059 733.535 338.75 735.5C332.728 740.625 319.408 732.501 316 739L315 739C310.121 732.591 306.113 738.715 305 744L296 741L295 741L298 748L292 749L298 756C292.307 757.91 296.731 761.677 294.872 765.871C293.082 769.908 286.185 772.975 290.029 778.49C294.797 785.334 310.277 780.419 316.995 781.488C326.543 783.007 317.868 786.936 314.005 787.759C311.98 788.191 310.051 788.698 308 789L314 793C311.172 802.39 323.005 808.067 328 816L338 815C337.475 819.157 337.837 824.031 336.642 828C335.154 832.943 330.088 838.302 332.989 843.695C336.322 849.891 341.009 845.394 345.996 846.568C352.284 848.047 355.894 857.49 354 863L355 873L368 871C368.015 875.217 368.427 882.033 374 878L380 881L372 893C376.269 895.494 375.987 899.432 376 904L391 893C393.047 898.441 395.245 899.931 401 900C400.519 904.035 399.389 914.256 403.304 916.671C410.78 921.283 417.208 911.936 421 922L423 921L424 926C427.597 922.826 427.958 919.652 428 915L429 915L433 938L436 937L436 940L437 940L441 939L442 946L449 946C450.377 941.647 455.759 933.956 459.682 941.074C461.939 945.169 460.693 950.578 462 955L472 952L473 945C477.148 950.596 482.257 947.119 485 942L491 942C496.628 955.876 499.672 938.134 497 931L500 934L502 934L499 916L500 916L503 924L504 924L505 921C507.062 925.95 508.866 929.875 514 932L515 931L516 921L529 934C528.205 923.922 525.422 915.5 520 907L528 913L527 903C540.31 904.484 532.334 917.264 541 922L545 915L546 915L549 921L550 921L545 901L555 912L556 912L559 905L560 908L561 908L562 904L570 910L570 907L571 907L572 907L573 910L574 910L577.884 898.001L575 883L582 885L579 867L583 868L584 863L590 866C594.239 859.393 601.857 865.476 607 868L608 864L630 880L631 877L639 890L641 889C644.824 900.251 659.167 909.079 670 912.771C676.154 914.868 686.596 915.163 682 906L700 904C700.842 893.553 690.241 871.791 680 868C684.094 856.766 677.915 851.157 677.019 841.004C676.681 837.162 680.887 835.183 682.099 831.911C684.231 826.153 677.458 818.712 673 816L677 814L676 811L688 809L690 815L690 816L686 822C693.403 818.875 713.639 810.619 720.002 821.303C721.943 824.564 719.45 829.527 719.284 833C719.038 838.133 720.987 843.068 722 848L717 849L717 852C723.563 854.439 730.737 857.639 734 864C721.425 868.837 713.239 883.42 710 896L711 896C716.163 889.421 723.694 887.052 731 892L732 892L756 881L756 901L764.514 888.001L772 886.516L789 875C787.581 880.113 787.281 886.381 794 882L792 891L796 892C798.384 886.895 801.761 884.695 807 883L809 900L817 893L809 917L814 913L815 913L802 932C804.438 932.736 805.623 933.772 807.595 935.375C819.366 944.942 806.673 950.57 803 961C810.563 959.652 815.231 958.501 821 953C818.357 959.814 815.426 965.726 818 973L835 962L835 964L831 973L845 969L851 972L851 978L855.272 978.242L854.957 986.71L866 997L877 990L898 937L907 933L902 970L904 970L910 967L915 956C915.421 961.798 918.432 966.926 924 969L925 960L928 964L938 954L939 957C943.727 955.736 945.398 953.532 947 949L957 956L953 953L954 945L956 945L960 953C964.911 949.658 963.176 945.119 964.302 940C965.378 935.114 968.656 929.447 971 925L977 936L978 933L981 933L985 941L986 941L991 935C991.885 947.189 1004.85 954.758 1014 960L1016 957L1018 968L1022 968C1022.05 962.323 1022.53 957.734 1028 955L1029 958L1031 958L1031 934L1033 937L1035 937L1040 918L1041 918L1044 930C1056.43 929.384 1064.79 925.556 1070 938L1071 938C1073.41 929.844 1069.73 923.122 1066 916L1076 936L1092 940L1088 938C1085.33 930.471 1086.59 928.637 1089.67 921C1090.39 919.201 1090.73 915.288 1093 914.667C1097.08 913.549 1101.37 920.298 1105 920.667C1108.84 921.057 1109.37 914.46 1113 917L1106 902L1115 908L1120 899L1122 899C1124.15 907.112 1130.84 924.954 1141 924L1138 920L1139 915C1144.7 919.119 1154.03 922.911 1161 921C1158.54 916.356 1152.05 913.718 1151.16 908.089C1150.54 904.2 1155.59 893.097 1159.1 891.282C1162.22 889.676 1165.9 890.396 1168.91 888.402C1172.85 885.79 1177.5 879.975 1182.59 879.505C1187.46 879.056 1195.26 888.206 1200.42 884.265C1202.18 882.92 1203.33 879.795 1204.71 878C1206.58 875.566 1206.54 873.925 1206 871L1210 867C1212.44 867.292 1216.42 866.19 1218.44 867.731C1223.76 871.788 1221.71 882.594 1231 876L1232 880C1237.16 879.754 1239.7 880.967 1243 885L1248 869L1252 876L1254 876C1257.15 865.12 1260.62 874.493 1266.89 871.056C1270.73 868.949 1276.48 860.691 1279 857L1288 871L1287 863L1290 863L1290 868C1295.25 865.019 1296.54 858.685 1297 853L1305 860L1306 860L1306 843C1313.83 846.147 1313.19 858.747 1322 858L1321 852L1322 852L1324 858L1325 858L1327 856L1340 874C1346.85 875.08 1350.68 873.866 1349 866L1352 866L1352 862L1360 868L1363 860L1364 829C1369 829.677 1375.5 833.795 1379 829C1382.62 830.972 1386.27 833.488 1390 831L1391 831L1393 833L1396 825L1397 825L1401 831L1396 804L1403 804L1400 788L1402 788L1401 785L1400 785L1398 788L1400 761L1401 761C1403.59 767.183 1408.26 776.006 1415 778C1416.83 752.489 1394.02 731.78 1394 707L1396 707C1396.01 719.102 1403.45 721.669 1408.93 731.04C1411.84 736.028 1411.78 741.695 1417 745L1416 740L1416 739L1417 735L1432 744L1435 729L1432 725L1450 732L1447 717C1454.14 716.107 1448.03 702.134 1444 700L1444 699C1451.86 698.188 1463.24 702.955 1468 695L1464 696L1467 690L1462 692L1465 681C1453.08 676.42 1453.87 655.201 1441 658L1442 649L1426 643L1426 636L1426 635L1421 630L1425.84 616.089L1440 595C1435.98 591.837 1433.49 580.568 1441.61 580.139C1444.32 579.996 1445.58 583.799 1448.08 584.417C1450.6 585.038 1452.55 582.425 1454.97 583.028C1458.76 583.97 1462.98 592.122 1465.61 594.972C1468.03 597.59 1469.01 597.943 1471 595C1478.69 614.939 1500.72 634.813 1523 632C1525.42 623.856 1536.62 629.806 1537.58 624.757C1538.33 620.818 1534.59 617.083 1532.77 614C1528.65 606.977 1524.02 599.353 1520.53 592C1516.36 583.203 1517.12 572.203 1514 563L1517 562C1517.15 555.355 1518.56 548.302 1512 544L1512 543C1519.91 540.598 1527.97 537.663 1528 529L1532 530C1534.08 526.457 1536.28 527.132 1540 528C1539.84 521.367 1533 509.853 1527 507L1527 505L1530 502L1527 502L1532 496L1526 487C1530.09 486.692 1532.14 485.7 1534 482L1531 482C1530.76 476.777 1526.38 475.701 1522 474L1532 470C1529.65 466.067 1527.62 464.351 1523 464L1523 463C1526.71 463.01 1532.52 464.675 1535.86 462.934C1539.47 461.046 1541.04 456.818 1545 454.823C1549.49 452.567 1555.5 453.436 1554 447L1562 439C1557.36 436.299 1548.56 433.708 1555 428L1555 426C1548.59 422.589 1541.16 422.01 1534 423L1534.02 401.001L1542 387C1537.86 388.053 1536.24 387.438 1536 383L1511.96 374.059L1496 372C1514.34 356.387 1473.79 365.733 1465 365L1479 357L1472 356L1472 355C1475.7 353.125 1476.48 351.031 1477 347C1469.29 339.523 1475.34 337.163 1477 329L1464 321L1461 324L1460 324L1461 314L1455 312L1455 311L1465 308C1463.03 298.638 1453.51 297.479 1448.74 290.856C1446.36 287.55 1447 282.843 1447 279L1436 280L1430 276L1434 268L1434 267C1431.72 264.093 1432.53 262.26 1434 259L1408 270L1407 267C1414.31 264.268 1419.59 261.438 1423 254C1418.35 252.892 1412.1 251.617 1409 256L1408 256L1411 249C1403.15 246.11 1407.32 236.775 1396 238L1396 235L1386 238L1385 235L1370 240L1370 225L1366 224C1367.4 214.337 1376 205.961 1381.17 198C1387.29 188.569 1391.66 176.703 1395.01 166.015C1396.02 162.798 1392.52 145.881 1388 151L1387 151C1386.84 147.875 1385.93 136.472 1380.93 137.752C1376.49 138.889 1374.25 145.649 1371.48 148.83C1364.27 157.123 1347.72 176.785 1335 173L1334 173C1328.8 175.411 1324.67 176.387 1322 182C1315.88 178.712 1314.24 174.855 1311 169L1310 169L1306 172L1303 164L1281 178L1280 182L1279 182L1278 179L1276 179L1272 186L1269 180L1266 180L1260 185L1261 193L1255 185L1252 191L1249 180L1244 182L1241 173L1238 174C1236.51 171.29 1234.49 169.301 1232 172L1231 172L1224 165C1221.28 170.61 1222.36 180.016 1214 176L1215 192L1206 195L1198 203C1194.62 195.965 1185.29 193.987 1182.83 203.171C1181.72 207.326 1184.95 211.438 1184 216L1186 222C1176.5 220.578 1184.04 232.234 1184 237L1180 233L1174 235L1174 236C1179.89 246.345 1162.35 257.787 1155 263L1158 254L1152 248L1142.71 254.678L1134 254L1136 248L1136 247L1131 240L1117 243L1118 248L1116 245L1111 249L1110 246L1108 246L1100 252C1098.98 248.397 1097.18 248.607 1094 250C1093.16 239.751 1103.43 228.34 1098 218L1097 218C1093.2 222.963 1092.05 227.822 1092 234L1085 236L1084 235C1089 230.1 1089.98 225.86 1090 219L1067.02 233.093L1060.6 230.902L1060 214C1053.67 217.392 1054.02 227.741 1046 228L1042 233C1040.88 225.545 1047.8 204.539 1041 200L1043 195L1040 199C1033.94 200.78 1031.81 206.122 1031 212L1030 212L1035 192L1030 194L1026 165C1032.72 167.233 1035.82 163.53 1037 157L1031 153L1025 155C1022.81 148.928 1022.61 139.569 1016 137L1014 145C1008.08 142.113 1008.14 147.292 1007 152C1000.97 149.061 1000.43 155.998 997 160C995.656 153.483 996.669 143.033 988 144L984 139L983 160L981 160C981.195 158.353 981.532 156.642 981.54 154.979C981.601 143.14 972.607 155.331 973.126 161.982C973.26 163.708 973.133 164.965 971.719 166.143C965.752 171.114 954.179 170.735 948.974 177.433C944.35 183.383 946.963 193.035 940 197L933 177L931 178L926 173L924 178L912 161C908.842 172.49 905.878 153.739 903 151L898 164C899.936 155.093 892.598 151.543 888 145L884 168L881 168L880 155L878 155L868 197L866 197L860 180C853.078 190.271 845.008 203.433 845 216L844 216L840 203L839 203L838 229C826.486 224.845 827.131 238.921 826 246C820.726 245.212 819.685 249.454 819 254C813.341 250.605 817.645 245.227 817.942 240C818.631 227.863 818.895 219.656 814 209L812 209L808 212L807 208C800.373 211.565 801.607 219.638 799.652 226C794.733 242.009 791.329 258.491 785 274L774 282C773.897 267.935 791.144 255.549 789 240L780 249L784 242L763 260L764 243L762 245L751 243L753 234L752 233L746 236L748 229L730 240L729 233L721 242L716 235C706.483 239.535 701.52 250.216 701 260L695 255L688 266L687 255L682 257C678.872 250.702 679.239 239.1 672 237L671 240L669 240L667 224C668.838 218.971 675.267 200.633 670 198L669 203L668 203C668.298 197.04 672.377 192.701 673.61 187C675.099 180.108 674.684 171.104 674.96 164C675.273 155.965 670.301 149.764 670.018 142C669.691 133.003 673.413 119.851 666 113L665 121L664 121C661.488 111.53 656.766 100.405 648 95L647 107L642 97L636 98L632 87L624 89L623 87z"/>
<path style="fill:#fefefe; stroke:none;" d="M1393 161L1394 162L1393 161z"/>
<path style="fill:#030303; stroke:none;" d="M589 175L590 176L589 175M1044 195L1045 196L1044 195z"/>
<path style="fill:#fefefe; stroke:none;" d="M665.667 203.333L666.333 203.667L665.667 203.333M536 207L537 208L536 207M507 225L508 226L507 225M1048.33 230.667L1048.67 231.333L1048.33 230.667M745 236L746 237L745 236z"/>
<path style="fill:#030303; stroke:none;" d="M1109 240L1112 240L1111 238L1109 240z"/>
<path style="fill:#fefefe; stroke:none;" d="M504.667 243.333L505.333 243.667L504.667 243.333M1181 248C1179.99 253.881 1183.84 261.072 1189 264L1181 248M762 255L763 256L762 255M1178 257L1178 260L1180 260L1180 257L1178 257M474 262L475 264L476 264L477 262L474 262M487 265L486 268L487 265M442.333 273.667L442.667 274.333L442.333 273.667M461 280L461 282L463 282L461 280M388 294L390 297L391 296L390 294L388 294M396 325L397 326L396 325M397 327L398 328L397 327M360 341L361 342L360 341M1469 341L1470 342L1469 341M367 351L368 352L367 351M1457 363L1457 366L1461 363L1457 363M1463 363L1464 364L1463 363M1455 365L1456 366L1455 365M369 367L370 368L369 367M372 391L373 392L372 391M436.667 467.333L437.333 467.667L436.667 467.333M440 471L440 472L444 472L440 471z"/>
<path style="fill:#030303; stroke:none;" d="M381 471L381 472L384 472L381 471z"/>
<path style="fill:#fefefe; stroke:none;" d="M452.333 484.667L452.667 485.333L452.333 484.667M360 535L361 536L360 535M386 539L387 540L386 539M398 555L397 557L398 555M392 562L394 559L390 561L387 561L386 558L378 561C378.935 566.163 381.22 569.717 386 572L387 569L395 578L400 567C405.328 567.776 406.414 563.115 410 560C404.986 555.447 397.935 561.175 392 562M398 570L399 571L398 570M398 572L398 576L401 575L401 573L400 572L398 572z"/>
<path style="fill:#030303; stroke:none;" d="M338 631L340 633L340 631L338 631z"/>
<path style="fill:#fefefe; stroke:none;" d="M1450 669L1449 672L1453 672L1450 669z"/>
<path style="fill:#030303; stroke:none;" d="M1468 699L1469 700L1468 699z"/>
<path style="fill:#fefefe; stroke:none;" d="M1428 720L1427 724C1430.02 723.349 1430.09 722.086 1428 720M1444 722L1444 724L1446 724L1444 722M327 811L328 812L327 811M1363 827L1364 828L1363 827M1300 835L1301 836L1300 835M1320 851L1321 852L1320 851z"/>
<path style="fill:#030303; stroke:none;" d="M1337 873L1337 880L1337 873z"/>
<path style="fill:#fefefe; stroke:none;" d="M401 899L402 900L401 899M551 903L552 904L551 903M1147 905L1146 908L1147 905M862.667 943.333L863.333 943.667L862.667 943.333M845 947L846 948L845 947M844 959L845 960L844 959z"/>
</svg>
