<?xml version="1.0" standalone="yes"?>
<svg xmlns="http://www.w3.org/2000/svg" width="1920" height="1080">
<path style="fill:#fcfcfc; stroke:none;" d="M0 0L0 1080L550 1080C550.349 1070.69 559.019 1052.54 567.044 1047.48C573.509 1043.41 582.081 1042.17 588.946 1038.44C594.689 1035.32 600.255 1029.96 606 1026.3C613.731 1021.39 630.146 1011.86 617 1003L618 1008L602 1012C608.245 993.631 630.3 990.168 641.12 976.726C647.967 968.221 649.063 954.377 657 948L656 945C649.421 948.799 645.55 961.041 637 958L636 961L632 960L638 949C641.611 949.12 642.92 948.488 644 945L628 951L627 955L620 956C624.097 943.429 630.968 943.793 639 935L639 934L636 931L643 932L643 921L642 921L641 925L640 925L633 905L631 905L627 909L630 904L629 898L625 900L626 897L612 908L611 903L606 903L605 912L602 912L598 907L600 920L596 917C596.295 923.231 596.002 933.057 592 938L590 935L590 944C578.922 946.417 590.281 972.547 592 980L585 976L582 971L585 1000L581 1004L568 988L567 988L565 1015L556 1015L553 1001L543 1010L543 995L535 994L534 998L530 998L529 987L525 986L525 991C519.367 988.05 517.497 990.327 517 996L516 996L515 993L513 996L514 992L514 991L511 989L504 1001L503 991C498.293 992.004 498.538 998.871 498 1003L495 1001L495 1011L493 1009L490 1012C497.766 1023.44 506.731 1036.39 504.084 1050.99C503.154 1056.11 498.825 1059.52 498 1065L491 1057L492 1067L485 1067L480 1056C476.272 1057.57 473.956 1056.42 472 1053L468 1056L465 1040L461 1050L460 1050L456 1037L453 1040L447 1043C446.928 1046.23 446.311 1047.6 443 1048L442 1032L441 1032L436 1048L435 1045L427 1045L424 1048L427 1039L422 1040C422.141 1035.7 422.818 1033.54 427 1032L427 1031L425 1029L421 1029L419 1036L418 1036L424 1020L424 1019L414 1023C413.831 1017.85 417.372 1015.24 421 1012L418 1009C416.678 1011.6 415.235 1013.78 413 1011L412 1011L410 1012L403 1032L401 1023L400 1023L396 1027L396 996C389.979 999.392 386.169 1005.24 385 1012C373.672 1005.9 383.722 991.736 384 983L383 983L364 1008C368.077 1002.01 368.662 995.982 367 989L359 985L349 992L340 973L329 972L330 974L321 969C325.781 963.597 331.823 957.702 339 956L341 937L338 938L337 933C342.577 931.377 342.53 928.013 341 923L326 933L326 936L320 936L320 933C326.927 930.644 334.496 922.232 336 915L340 916L345 903L334 912L330 911L323 920L333 897L319 897C318.775 892.498 320.212 890.357 324 888C321.628 883.814 318.305 885.086 314 885C311.731 890.091 307.042 890.181 303.994 894.183C297.756 902.373 300.509 913.479 287 914L289 911L281 909L285 908L285 907L275 904L275 903L278 902L289 879L278 882L278 869L286 874L286 870L290 871L293 868L293 867L287 869L282 863L281 866L276 864C276.409 859.941 275.948 857.573 272 856L272 854C278.875 851.935 279.944 847.69 280 841C290.959 841.593 297.213 848.049 301 833L300 833L297 839C290.273 835.287 280.596 838.081 280 828C284.511 829.763 285.733 826.844 289 824L289 823L279 828L278 828L273 825C268.547 829.993 264.234 828.234 261 823C267.119 823.022 270.543 825.424 274 819L280 819L281 811L265 812C264.981 806.603 266.538 804.672 272 806C271.49 799.299 262.452 792.837 258 800C252.202 796.368 247.495 795.364 241 798C236.659 790.331 224.465 793.785 217 791L213 795L214 789L209 785C221.128 782.978 221.65 756.871 236 756L237 751L236 751C231.595 753.129 228.67 749.142 228 745C223.006 743.164 223.017 739.875 223 735L207 736C205.574 727.465 195.26 736.096 189 734C196.61 727.286 190.668 724.159 183 724C188.343 717.495 192.272 721.083 198.871 718.397C204.266 716.202 206.495 711.765 213 711L216 701C210.285 701.846 205.14 702.836 202 697L212 692L212 691L195 685L210 684C208.649 679.167 207.087 676.833 202 676L201 666L204 663L226 672L204.225 652.251L195 645C198.562 641.267 205.049 642.041 209.335 644.87C218.744 651.081 225.845 662.748 238 664L234 655C246.458 657.368 254.602 669.46 268 668L264 664L268 660L264 653L286 665L290 655L292 656L286 633L291 632L296 633L296 630C292.575 628.158 292.265 625.055 289.491 622.68C284.873 618.727 279.398 621.013 280 613L284 614C283.501 607.685 273.866 601.938 268 601L268 596L294 596L294 595L291 593L291 592L293 588L300 589C300.353 592.364 300.418 595.236 304 596L302 589L304 591L318 592L304 571L308 572C303.43 560.166 296.134 557.877 285 564C282.507 559.363 279.972 558.062 275 560L271 556L271 554C274.79 552.746 287.068 548.799 285.539 543.195C284.646 539.926 279.453 538.248 277.313 535.815C274.787 532.941 274.488 529.915 271 528L279 525L260.722 500.68L251.035 492.314L254 488L252 482L269.741 484.208L278 474L279 480L281 475L282 475L282 479L283 479L300 483.488L324 474C322.923 469.649 322.392 464.196 329 466L330 466L340 457C345.567 457.586 348.315 454.477 348 449C352.239 448.409 355.45 442.056 356 438L350 438L363 428C362.864 422.383 361.363 418.122 355 419C358.832 431.766 335.05 437.483 330 448C317.221 446.822 303.609 461.487 291 463.623C285.486 464.557 284.738 459.251 280.741 457.113C277.971 455.631 273.065 455.874 270 456C267.856 453.541 264.127 453.512 262 456L257 456L261 453L257 436L256 436L256 441L251 441L249 437C256.723 433.887 255.716 429.688 260.313 424.129C261.973 422.122 265.298 420.694 265.793 417.911C266.245 415.369 263.695 412.406 263 410L281 404C276.474 396.44 265.295 406.061 265 397C260.352 396.924 258.885 395.078 257 391L262 387L261 392L264 392L264 396L265 396L267 385L268 385L269 388C269.593 383.707 268.103 380.525 273 379L274 384C276.368 376.882 277.591 371.338 275 364C280.479 359.21 269.827 353.801 276 349C278.036 355.142 281.93 361.122 289 360L287 351L282 352L284 348L284 347L285 338L296 338L293 329L296 323L301 328C299.18 320.36 298.714 314.551 290 312L289 307L299 307C302.938 307.415 306.559 310.127 308 305L313 307L313 308L309 309L311 320L312 320L313 315L316 312L314 309L318 310L318 298L324 302L326 281L332 288C333.436 283.664 333.855 280.714 339 282C338.866 270.781 325.886 270.417 321 261L310 260L315 252C312.247 245.13 307.695 250.376 302.863 248.27C299.656 246.872 299.856 241.861 299 239C306.099 236.304 306.128 234.231 306 227L321 224L329.09 210.707L339 209L344 214L344 199L351 204C354.371 198.256 352.543 194.701 350 189L352 185L353 185L354 188L361 186L380 177L381 177L391.985 184.403L402 196L403 191L399 191C402.81 188.304 404.318 189.617 408 192L405 180C407.727 178.774 410.913 175.966 414.039 176.413C422.477 177.618 431.821 193.515 433.682 201C434.733 205.225 432.7 210.851 436.005 214.387C440.035 218.698 452.79 220.027 448 211C454.263 211.778 462.997 219.695 464 226C470.521 221.31 456.967 209.872 452 208L452 207C455.765 205.085 456.459 203.141 456 199L467 206L468 206L471 204L475 208L471 187C478.293 184.673 472.374 177.519 473 172L475 172L478 176L473 162L472 162L471 164L468 159L474 160L466 141L473 146L475 146L477 141L478 141L480 144L475 124L482 128L481 121L485 134L493 137L494 136L492 115C496.746 116.365 498.464 119.195 499 124C503.924 119.102 498.724 114.411 497 109L501 105L504 105L504 108C508.351 107.2 512.336 109.288 515 105C517.926 106.803 519.437 106.2 522 104L518 104L522 87L524 96L530 96L527 81L537.276 92.0394L540 116L541 116L542 109L543 109L551 128L555 122L557 122L561 133L562 133L564 121L567 122L570 117C572.005 123.426 567.765 133.561 574 137C575.907 130.167 578.821 122.793 580.392 116C581.417 111.567 579.407 108.558 584 106L583 112L588 119L589 119L590 111L591 115L592 115L588.133 96L594 77L595 77L594 88L600 90C599.423 73.3502 598.683 54.0841 603.803 38C605.21 33.5817 608.821 30.8937 611.066 27C614.454 21.1266 615.476 13.6428 616 7L620 8L622 0L0 0z"/>
<path style="fill:#040404; stroke:none;" d="M622 0L620 8L616 7C615.196 13.3535 614.327 20.3458 611.066 26C608.821 29.8938 605.21 32.5817 603.803 37C598.708 53.0054 598.738 73.4249 600 90L594 88L595 77L594 77L588.109 98L592 115L591 115L590 111L587 112L589 119L588 119L583 112L584 106C578.736 107.749 581.264 111.65 580.032 116C577.953 123.347 575.386 129.294 574 137L570 117L567 122L564 121L562 133L561 133L557 122L555 122L551 128L543 109L542 109L541 116L540 116C536.285 101.643 541.093 90.1304 527 81L530 96L524 96L522 87C516.674 91.7042 519.479 97.7134 518 104L522 104L515 105L504 108L501 105L497 109C498.133 114.858 502.687 118.349 499 124C498.72 118.888 497.316 115.841 492 115L494 136L493 137L485 134L481 121L482 128L475 124L480 144L478 141L477 141L475 146L473 146L466 141C468.821 147.491 467.816 155.989 474 160L468 159C468.977 160.813 470.368 164.372 472 162L473 162L478 176L475 172L473 172C471.646 177.851 477.839 183.653 471 187L475 208L471 204L468 206L467 206L456 199L452 207L452 208C456.958 210.797 468.617 220.443 464 226C463.464 219.178 454.677 211.292 448 211C451.263 219.797 439.846 218.307 436.009 213.647C432.821 209.776 434.784 204.432 433.682 200C430.35 186.6 418.601 171.314 405 180L408 192C404.662 189.205 402.297 187.461 399 191L403 191L402 196L381 177L380 177C374.255 181.136 363.153 178.996 361 186L354 188L353 185L352 185L350 189C351.829 194.938 353.427 197.928 351 204L344 199L344 214L339 209C328.1 212.381 325.088 211.76 321 224L306 227C306.04 234.371 305.568 235.611 299 239C299.663 241.774 299.416 246.929 302.317 248.411C307.447 251.033 311.049 245.508 315 252C311.4 254.019 310.311 255.898 310 260L321 261C324.538 271.406 338.628 270.629 339 282L337 280L332 288L326 281L324 302L318 298L318 310L314 309L316 312L313 315L312 320L311 320L309 309L313 308L313 307L308 305C305.677 308.708 302.864 307.136 299 307C296.322 303.983 292.428 305.914 289 307L290 312C298.048 315.822 298.711 320.278 301 328L296 323L293 329L296 338L285 338L284 347L284 348L282 352L287 351L289 360C282.023 360.141 278.872 354.774 276 349C269.234 352.975 278.959 358.533 275 364L274 384L273 379C267.504 379.92 268.895 383.416 269 388L268 385L267 385L265 396L264 396L264 392L261 392L262 387L257 391C258.463 395.555 260.001 397.641 265 397C264.709 405.972 275.678 398.27 281 404L263 410L265.522 417.41L259.602 424.129L249 437L251 441L256 441L256 436L257 436L261 453L257 456L262 456L270 456L280.741 457.772L290.001 464.243L330 448C336.039 439.237 359.673 430.883 355 419C360.86 419.136 362.698 422.486 363 428C357.517 429.49 352.943 433.17 350 438L356 438L348 449C348.027 454.222 345.106 456.732 340 457L330 466L329 466C323.527 461.207 322.579 470.387 324 474L299 483.067L283 479L282 479L282 475L281 475L279 480L278 474L269.741 483.629L252 482L254 488C251.098 489.125 249.128 490.758 251.427 493.911C259.414 504.868 272.076 512.491 279 525L271 528C273.077 529.723 285.493 542.822 285.218 544.427C284.391 549.241 274.812 552.267 271 554L271 556L275 560C279.866 558.823 281.928 560.185 285 564C297.218 559.432 301.928 560.5 308 572L304 571C305.711 581.079 310.775 585.084 318 592L304 591L304 589L302 589L304 596L300 589L293 588L291 592L291 593L294 595L294 596L268 596L268 601C273.527 602.467 283.049 608.124 284 614L280 613C278.459 621.312 284.479 618.94 289.147 622.849C292.179 625.388 291.865 628.661 296 630L296 633L291 632L286 633L292 656L290 655L286 665C278.287 660.82 273.607 653.311 264 653L268 660L264 664L268 668L234 655L238 664C225.655 661.772 219.335 649.352 208.91 644.219C204.551 642.072 197.922 640.504 195 645L204.225 652.985L226 672L204 663L201 666L202 676C206.701 677.265 208.231 679.593 210 684L195 685C198.618 692.187 205.756 688.109 212 691L212 692L202 697C204.102 703.493 210.592 702.385 216 701L213 711C205.837 710.502 203.748 716.204 197.946 718.394C191.732 720.739 186.998 716.854 183 724C191.22 724.359 194.902 726.989 189 734C195.388 737.003 204.598 728.184 207 736L223 735C223.004 739.919 222.48 743.795 228 745C228.302 748.818 232.021 755.093 236 751L237 751L236 756C221.367 755.994 220.605 781.48 209 785L214 789L213 795L217 791L241 798C247.836 796.156 251.679 797.31 258 800C263.349 794.51 270.939 799.187 272 806C266.093 803.691 264.453 806.203 265 812L281 811L280 819L274 819C269.74 824.244 266.906 822.21 261 823C263.333 828.547 269.498 830.989 273 825L278 828L279 828L289 823L289 824L280 828C278.866 837.868 290.391 836.444 297 839L300 833L301 833C295.441 846.826 291.65 841.28 280 841C279.859 847.563 278.158 851.261 272 854L272 856C275.385 858.052 276.229 860.082 276 864L281 866L282 863L287 869L293 867L293 868L290 868L290 871L286 870L286 874L278 869L278 882L289 879L278 902L275 903L275 904L285 907L285 908L281 909L289 911L287 914C300.979 914.393 297.993 902.382 304.559 894.237C307.811 890.203 312.413 890.809 314 885L324 888C319.627 889.855 318.541 892.335 319 897L321 895C324.995 898.685 328.009 898.512 333 897L323 920C327.243 918.603 328.904 915.16 330 911L334 912L345 903L340 916L336 915C333.554 922.057 326.565 929.592 320 933L320 936L326 936L326 933C332.943 932.491 336.701 927.981 341 923C341.961 927.899 341.744 930.662 337 933L338 938L341 937L339 956C331.715 956.973 324.829 962.903 321 969L330 974L329 972L330 972L340 973L349 992L359 985C360.915 988.765 362.859 989.459 367 989C368.368 996.371 367.398 1001.35 364 1008C371.749 1005.81 378.752 989.96 383 983L384 983C383.462 990.426 373.121 1008.15 385 1012C386.837 1005.35 390.726 1000.36 396 996C395.502 1005.95 391.493 1017.64 396 1027L400 1023L401 1023L403 1032L405 1019L412 1011L413 1011C414.078 1016.01 417.415 1012.25 418 1009L421 1012C416.729 1014.66 413.117 1017.7 414 1023L424 1019L424 1020C419.462 1023.02 418.161 1030.8 418 1036L419 1036L421 1029L425 1029L427 1031L427 1032C422.296 1033.03 422.053 1035.54 422 1040L427 1039L424 1048L427 1045L436 1048C441.083 1043.77 439.583 1037.95 441 1032L442 1032L443 1048C446.665 1047.83 447.532 1046.59 447 1043L453 1040L456 1037L460 1050L461 1050L465 1040L468 1056L472 1053C473.37 1057 476.392 1058.28 480 1056L485 1067L492 1067L491 1057L498 1065C499.197 1060.02 503.055 1056.76 504.344 1052.05C507.94 1038.91 498.811 1021.14 490 1012L493 1009L495 1011L495 1001L498 1003L503 991L504 1001C508.681 998.141 509.672 994.067 511 989L514 991L514 992L513 996L515 993L516 996L517 996C518.019 990.62 519.592 988.875 525 991L525 986L529 987L530 998L534 998L535 994L543 995L543 1010L553 1001L556 1015L565 1015L567 988L568 988C568.944 993.84 575.72 1001.46 581 1004L585 1000L582 971L585 976L592 980C590.757 971.777 579.102 948.01 590 944L590 935L592 938C596.57 934.478 596.776 922.435 596 917L600 920L598 907L602 912L605 912L606 903L611 903L612 908L626 897L625 900L629 898L630 904L627 909L631 905L633 905L640 925L641 925L642 921L643 921L643 932L636 931L639 934L639 935C629.695 942.431 622.94 943.3 620 956L627 955L628 951L644 945L638 949L632 960L636 961L637 958C645.18 962.186 650.41 949.659 656 945L657 948C650.659 951.371 652.087 956.229 650.062 962C648.373 966.816 644.155 971.8 641.12 975.867C631.049 989.366 605.848 992.927 602 1012L618 1008L617 1003C628.05 1014.25 612.442 1021.93 603 1027.55C597.677 1030.71 593.253 1035.67 587.982 1038.44C581.176 1042.02 572.37 1043.33 566.108 1047.48C562.181 1050.08 561.819 1054.24 559.526 1058C554.529 1066.19 550.128 1070 550 1080L568 1065L560 1076L561 1076L566 1070L571 1072L571 1067C578.24 1066.86 581.034 1060.36 587.015 1057.49C608.673 1047.12 629.633 1035.03 648 1020C645.176 1030.16 635.143 1034.87 627 1040.18C613.694 1048.85 597.143 1062.94 597 1080L602 1079L601 1075C608.065 1079.85 614.695 1080 623 1080C624.669 1071.92 633.096 1072.77 640 1072L635 1080C642.25 1080 645.784 1079.3 650 1073L651 1073L657 1075L655 1080L673 1080L675 1071L683 1071L680 1080L735 1080C742.773 1080 753.392 1081.9 760.852 1079.68C773.394 1075.96 749.513 1057.18 766 1059L765 1064L770 1064L768 1080C778.044 1080 780.999 1079.66 781 1069C786.293 1070.56 788.426 1074.71 789 1080L874 1080L873 1073L880 1067L880 1071L886 1068L882.661 1058.02L896 1044L892 1033L898 1028L899 1028L900 1044L907 1037C909.448 1047.69 898.588 1050.83 896 1060L902 1062L900 1059C915.454 1060.77 917.377 1044.65 916 1033L920 1035L923 1029L924 1039L928 1035L933 1040L941 1037L936 1041C937.847 1049.87 932.019 1056.98 943 1063C934.746 1066.67 929.792 1070.56 929 1080L941 1076L941 1080L944 1080L947.189 1064L944.279 1051L948.941 1034L945 1019L946 1019L948 1026L951 1025C952.176 1030.65 953.755 1036.08 959 1039L959 1041L953 1047L948 1045L951 1054L952 1054L953 1049C963.944 1048.87 966.14 1050 971 1040L974 1044L981.504 1023L978 1012L982 1011L982 1016L993 1027L999 1025L1000 1028C995.776 1029.58 994.57 1032.68 991.738 1035.96C986.885 1041.59 973.867 1049 975 1057L986 1057C988.526 1061.32 991.234 1061.77 996 1061C994.532 1068.91 991.56 1079.88 1002 1080L1002 1071C1006.02 1074.5 1007.74 1076.49 1013 1074L1015 1080L1020 1080L1018 1073L1024 1076L1024 1068L1027 1067L1024 1064L1024 1063L1038 1055C1036.77 1063.28 1035.06 1063.75 1042 1070C1034.62 1070.22 1031.27 1073.15 1029 1080L1050 1080L1052 1061L1053 1061C1054.98 1067.02 1056.82 1069.32 1063 1071L1061 1075L1068 1080L1119 1080C1117.8 1066.27 1107.47 1063.76 1098.83 1055.13C1096.1 1052.41 1092.56 1051.05 1092 1047C1088.95 1044.6 1087.1 1042.36 1091 1040L1089 1019L1102 1019L1106 1025C1107.02 1022.1 1107.23 1020.69 1104 1020L1104 1019L1107 1019L1114.82 1011.66L1120 994C1120.26 1002.07 1123.36 1013.19 1133 1011C1129.44 1023.17 1150.17 1022.83 1152 1036L1156 1036C1153.39 1023.3 1146.46 1019.55 1139 1010L1145 1008L1145 1006L1138 1004L1138 987L1132 988L1137 978C1143.02 982.058 1148.3 984.657 1151.04 992C1152.36 995.522 1151.05 1000.35 1153.02 1003.46C1163.57 1020.06 1173.62 1031.18 1171 1052L1182 1042C1181.7 1038.17 1180.79 1036.83 1177 1036L1179 1030L1180 1032L1181 1032C1180.13 1027.29 1180.98 1022 1176 1020L1179 1016L1169 1001C1178.91 1000.99 1189.83 999.96 1184 1014L1189 1018L1193 1017C1193.5 1021.15 1193.49 1026.68 1198 1028L1196 1013L1191 1011L1191 1010L1193 1005L1205 1016L1206 1012C1212.17 1017.75 1223.32 1023 1224 1032L1226 1032L1226 1023C1230.72 1028.37 1228.16 1035.23 1229.22 1042C1230.62 1050.91 1234.61 1058.74 1237.5 1067C1238.96 1071.19 1235.61 1078.85 1241 1080L1242.78 1066L1239 1045L1244 1065L1248 1064L1248 1055L1253 1056L1253 1060L1254 1060L1260 1044L1258 1021C1262.54 1022.36 1266.09 1037.97 1266 1043L1272 1032C1276.46 1033.08 1278.55 1031.77 1281 1028L1284 1036L1287 1034L1288 1034C1291.28 1037.46 1291.92 1031.49 1292 1029L1295 1033L1298 1031L1299 1034L1301 1034C1303.03 1025.88 1295.15 1008.27 1291 1001L1300 1009L1300 1005L1302 1008L1308 1009L1310 1005L1305 1004C1306.48 1001.84 1308.74 996.907 1311 1000L1318 999L1318 1000L1313 1004C1315.42 1003.21 1317.48 1000.81 1320.05 1000.66C1330 1000.08 1335.4 1012.2 1342 1017C1344.84 999.8 1324.38 994.74 1321 979C1313.47 979.453 1312.17 975.719 1314 969L1311 963L1314 968L1319 967L1318 971L1322 970L1335 985L1336 985L1337 979L1338 979L1338 982L1344 981L1344 987L1354 984L1356 984L1357 989C1364.98 984.717 1360.48 979.686 1358 973L1367 975L1368 965L1369 965C1372.79 969.102 1377.9 970.185 1382 966L1383 966L1398 976C1398.56 970.436 1402.85 965.059 1408 963L1415 968L1419 953C1424.01 954.139 1424.8 951.393 1426 947L1416 944L1416 941L1414 944L1412 942L1412 941L1414 938C1418.51 939.136 1429.16 938.827 1432 935C1419.75 931.553 1423.71 924.23 1429 917L1430 917L1432 920C1427.8 922.166 1427.53 924.695 1429 929C1433.27 927.85 1434.66 926.155 1436 922L1449 932L1451 927L1452 927C1452.37 931.955 1454.52 934.86 1459 937L1460 931L1454 925L1462 924L1462 915L1457 916L1459 909L1467 914L1460 898C1463.23 899.578 1464.82 899.605 1466 896L1469 902L1470 902L1474 898L1464 883L1478 878C1478.15 873.307 1479.37 870.989 1483 868C1483.94 872.938 1484.11 876.771 1490 876C1488.2 871.745 1488.29 857.099 1496 860C1502.87 859.45 1506.17 858.668 1509 852C1518.17 850.322 1512.06 841.63 1512 836L1518 838C1523.16 834.087 1526.93 836.452 1529 829L1531 829L1531 836C1538.95 834.305 1535.13 820.433 1541 816L1530.39 796.34L1522 787C1518.67 784.642 1516.12 781.66 1511.96 780.89C1505.69 779.727 1497.82 783.549 1494 777L1493 777L1482 778.684L1454 784L1460 780L1460 779C1456.25 776.904 1456.51 774.795 1458 771L1459 771L1469.29 767.924L1488 766C1491.24 760.265 1496.5 763.119 1502.01 762.95C1510.5 762.69 1521.1 761.095 1529 758L1525 749L1514 745L1511 746L1510 741L1516 744C1514.73 738.472 1511.97 732.965 1506 732L1506 731L1519 733L1531.27 719.421L1541 719.244L1568 714.944L1584 719L1583 721L1584 721L1597.44 716.383L1602 692L1602 691C1584.15 670.976 1583.95 634.797 1559 621L1560 617L1563 618L1552.46 603.115L1548 584L1555 590L1559 578L1575 580.742L1591 588L1587 579L1592 580L1587.12 570.866L1591.87 561.282L1586 543L1595 546L1594 541L1589 540L1587 533L1590 532C1587.23 526.081 1581.51 522.392 1575 522C1574.25 517.535 1572.16 517.354 1568 518L1569 510L1567 509L1566 511C1563.95 509.076 1560.35 506.506 1561.28 503.208C1562.21 499.945 1568.95 498.77 1565 495L1565 485C1575.69 483.437 1597.72 499.337 1603 483L1600 487L1599 487L1596 482L1596 475L1598 478C1606.35 474.446 1632.9 461.436 1616 450L1616 449C1619.03 445.005 1617.78 441.84 1614 439C1623.77 434.704 1625.13 422.031 1622.56 412.911C1621.82 410.278 1623.13 405.596 1619.81 404.372C1616.1 403 1612.44 407.925 1610 410L1608 402L1607 402L1587 408L1587.59 398L1585 386L1579 375C1585.3 376.948 1592.7 376.96 1594 369L1583.56 367.436L1577 360L1577 359C1582.05 355.971 1579.48 350.895 1579 346L1582 348C1581.77 338.568 1594.95 339.75 1593 331C1596.7 331 1598.83 329.696 1598 333L1625 328L1624 321L1629 322L1628 317L1630 312C1639.21 313.455 1637.57 294.327 1649 298C1649.55 293.255 1656.81 289.675 1661 288C1659.71 280.376 1660.57 275.866 1668 272L1667 265L1665 265L1660 268L1663 256L1666 256L1666 255L1662 252L1669 247L1665 246L1666 243L1662 239L1656 238L1650 241L1653 233L1649 234L1636 229L1634 229C1630.98 231.987 1628.98 232.558 1625 231L1632 228L1635 221L1630 221L1630 224L1626 224L1626 217L1620 222L1614 216C1611 217.968 1610.54 219.465 1611 223L1610 223L1608 217L1596 222C1580.92 217.585 1568.44 236.29 1553 230L1552 230C1548.98 231.803 1547.7 232.364 1545 230L1538 234L1538 227C1529.52 229.245 1512.85 236.946 1505 231L1489.96 230.211L1474 233C1472.56 223.918 1464.61 227.859 1458 228C1459.09 225.958 1460.9 224.496 1461.97 222.489C1466.49 214.028 1449.95 219.946 1447.1 219.98C1443.98 220.017 1442.23 216.695 1438.96 217.661C1432.41 219.592 1428.39 225.132 1421 226L1422 223L1401 224L1382 226L1379 232L1378 232L1382 224L1382 223C1372.12 204.59 1396.23 202.382 1399 187C1407.13 185.373 1407.05 177.645 1407 171C1421.6 166.887 1419.79 151.577 1424 141L1421 140C1427.52 129.518 1435.48 118.955 1441.23 108C1445.42 100.009 1446.98 79.0704 1437.43 73.8619C1434.12 72.0604 1422.22 74.4862 1418.75 75.9738C1411.63 79.0314 1409.23 86.8166 1403.9 91.6705C1389.81 104.501 1376.09 111.78 1369 131L1367 127L1356 137L1346 144L1346 139L1340 141L1339 137L1336 139C1335.51 131.726 1340.04 114.7 1334 111L1332 117L1330 113L1328 113L1326 120C1320.23 119.108 1313.77 112.017 1313 122L1311 119L1305 127L1304 127L1302 120L1298 119L1297 127L1292 125L1285.99 138.711L1275 150L1274 150C1270.05 139.236 1274.12 136.064 1279 127C1275.47 123.259 1276.11 119.803 1277 115C1271.26 117.346 1269.31 122.031 1269 128L1262 132L1261 132C1258.07 128.164 1255.74 127.273 1251 128L1247 124C1249.52 119.831 1250.58 116.819 1246 114L1245 115C1245.87 125.991 1230.16 117.918 1224 119.333C1220.35 120.17 1218.86 126.705 1215 124L1213 128C1205.6 124.549 1196.03 125.998 1188 127L1188 132L1184 131C1182.94 134.951 1183.63 136.694 1187 139L1187 140C1184.09 143.128 1185.23 145.099 1188 148C1184.41 149.998 1184.4 152.104 1185 156L1179 157L1174 166L1174 161C1158.89 168.462 1159.4 150.523 1160 141L1148 155L1151 145L1146 143L1138 176L1136 173L1130 172C1134.66 166.51 1136.25 160.064 1135 153C1140.49 149.871 1140.53 144.256 1138 139L1137 139L1135 145L1130 148L1129 148L1127 142L1123 144L1124 133L1128 129L1123 133C1121.83 127.407 1123.88 123.041 1128.05 119.133C1132.37 115.09 1139.25 115.312 1143.24 111.412C1146.59 108.135 1146.46 102.853 1148.85 99.0394C1154.42 90.1906 1173.39 68.5494 1155 62L1154 69L1149 68C1151.6 64.2954 1156.14 54.6273 1152 51L1153 54C1147.4 57.1022 1143.58 63.8931 1142 70L1138 69L1138 74L1134 67C1137.58 64.6436 1137.71 62.2559 1135 59L1133 65L1129 66L1128 66L1124 64L1129 60L1133 35L1130 37C1133.88 27.7104 1137.7 17.83 1124 16L1126 12L1126 11L1122 11C1122.07 7.76355 1121.22 7.13403 1118 7L1117 0L1114 4L1111 0C1101.29 0 1091.15 -1.86621 1083 4L1083 0L974 0L969.989 15L970.543 30.9846L957 44C959.202 38.6489 961.368 35.734 959 30L949 36L952 23L940 21L936 32L930 25L928 36L927 36L925 31L922 32C920.715 28.168 920.414 26.2612 924 24L924 22L923 21L905 28L907 22L904 29L899 30C896.52 25.9092 893.181 27.5283 889 28L901 11L898 12L900 0L891 4L891 0L886 0L887 8L868 20L874 12L873 9L867 14L866 14L862 9L857 24L845 5L844 12C831.912 2.09192 829.807 5.37976 831 20L828 17C821.823 18.0836 826.214 22.4991 823 26L821 21L820 21L826 33C805.804 31.541 817.632 10.2306 820 0C814.556 0.0648193 811.906 1.10339 813 7L807 12L799 10C798.758 15.1978 797.76 19.4359 792 20L791 24L777 20L780 15L772 12L763 26L766 13L765 13C759.571 18.6945 755.116 13.3881 752 8L751 8L751 23L746 19L743 23L743 24C746.442 29.0977 748.459 32.786 755 33L758 48L754 43C747.482 42.6573 747.738 38.3789 743.701 34.4946C739.874 30.8113 734.591 28.9612 731 25L729 25L725 34L730 35L728 40L727 40C724.824 36.6547 722.375 35.5486 719 38L718 38C714.194 33.0876 709.87 32.1097 704 31L700 36L701 31L697 34L693 27L695 0L622 0z"/>
<path style="fill:#fcfcfc; stroke:none;" d="M695 0L693 27L697 34L701 31L700 36C703.06 35.0405 703.862 34.2026 704 31L718 38L719 38C722.726 36.4084 724.219 37.1229 727 40L728 40L730 35L725 34L729 25L731 25C733.946 29.8964 748.917 43.5355 754 43L758 48L755 33C748.71 32.5219 747.001 28.176 743 24L743 23L746 19L751 23L751 8L752 8C754.193 13.5701 760.529 20.2173 765 13L766 13L763 26C767.944 23.2704 770.232 17.1835 772 12L780 15L777 20L791 24L792 20C798.341 20.5474 798.888 15.2524 799 10L807 12L813 7L813 0L695 0M826 33L823 32L820 21L821 21L823 26C828.546 21.6547 821.05 16.9326 831 20C830.895 16.9908 829.411 5.61511 833.149 5.172C837.071 4.70703 840.828 10.2467 844 12L845 5L857 24L862 9L866 14L867 14C869.25 10.9866 870.798 9.52026 874 12L868 20L887 8L886 0L840 0C834.864 0 826.096 -1.68762 821.419 0.603394C809.777 6.30652 810.523 32.9797 826 33M891 0L891 4L898 0L891 0M900 0L898 12L901 11L889 28C893.23 27.7673 896.025 26.5057 899 30L904 29L907 22L905 28L924 22L924 24C919.367 25.8688 919.699 31.0894 925 31L927 36L928 36L930 25L936 32L940 21C944.404 23.501 947.06 24.5709 952 23L949 36L959 30L957 44L970.543 31.9568L970.599 15L974 0L900 0M1083 0L1083 4L1087 0L1083 0M1111 0L1114 4L1114 0L1111 0M1118 7C1120.97 7.32849 1121.52 8.07056 1122 11L1126 11L1126 12L1124 16C1137.3 19.1534 1132.93 27.2814 1130 37L1133 35L1129 60L1124 64L1128 66L1129 66L1133 65L1135 59C1136.8 62.5822 1136.8 64.0868 1134 67L1138 74L1138 69L1142 70L1153 54L1152 51C1155.14 55.5714 1151.33 63.5292 1149 68L1154 69L1155 62C1171.42 70.9265 1155.2 88.2566 1148.85 98.0895C1146.19 102.212 1146.41 107.982 1142.53 111.412C1138.55 114.922 1132.23 114.688 1128.05 118.278C1123.55 122.145 1121.38 127.314 1123 133L1128 129L1124 133L1123 144L1127 142L1129 148L1130 148L1135 145L1137 139L1138 139C1140.09 144.774 1139.84 148.834 1135 153C1135.77 160.373 1133.91 165.789 1130 172L1138 176L1146 143L1151 145L1148 155L1160 141C1158.99 149.314 1159.72 171.823 1174 161L1174 166C1177.42 163.442 1179.16 161.358 1179 157L1185 156L1188 148C1185.89 144.877 1185.32 143.429 1187 140L1187 139L1184 131L1188 132L1188 127L1213 128L1215 124L1217 126C1219.83 123.409 1222.04 120.327 1226.02 119.649C1231.71 118.68 1246 125.333 1245 115L1246 114C1249.72 117.47 1248.9 119.6 1247 124L1251 128L1261 132L1262 132L1269 128C1269.6 122.15 1271.96 118.072 1277 115C1275.94 119.45 1274.92 124.06 1279 127C1272.93 134.743 1269.24 140.281 1274 150L1275 150L1285.99 139.56L1292 125L1293 128L1297 127L1298 119L1302 120L1304 127L1305 127C1308.1 122.831 1307.92 119.672 1313 122C1314.46 112.623 1320.11 119.551 1326 120L1328 113L1330 113L1332 117L1334 111C1339.63 116.259 1334.98 131.048 1336 139L1339 137L1340 141L1346 139L1346 144L1356 137L1357 140L1367 127L1369 131C1373.28 122.833 1377.56 113.707 1384.29 107.224C1390.43 101.307 1398.73 97.5328 1404.79 91.6705C1409.59 87.0261 1411.93 80.6501 1417.92 76.9884C1420.54 75.3887 1423.12 75.9008 1426 75.4877C1429.41 75 1433.21 72.3577 1436.66 73.8982C1446.15 78.1353 1444.6 96.1273 1442.43 104C1438.98 116.557 1426.63 128.011 1421 140L1424 141C1421.28 145.873 1423.18 149.167 1421.87 153.999C1420.2 160.136 1412.55 168.404 1407 171C1407 177.112 1405.45 188.613 1399 187C1395.19 199.635 1370.07 207.336 1382 223L1382 224L1378 232L1379 232L1382 226L1401 224L1422 223L1421 226C1428.55 226.525 1432.52 220.47 1438.96 218.171C1442.3 216.978 1445.87 220.652 1450 219.831C1452.63 219.309 1461.33 215.595 1462.08 220.059C1462.5 222.599 1458.79 225.558 1458 228C1464.58 227.945 1471.66 224.888 1474 233L1490 230.407L1505 231C1510.9 237.749 1531.05 229.537 1538 227L1538 234L1545 230C1547.16 233.224 1549.36 232.439 1552 230L1553 230C1565.41 238.646 1582.58 218.918 1596 222L1608 217L1610 223L1611 223L1614 216L1620 222L1626 217L1626 224L1630 224L1630 221L1635 221L1632 228L1625 231C1628.6 233.355 1631.63 232.484 1634 229L1636 229L1649 234L1653 233L1650 241L1656 238C1657.82 240.826 1659.26 240.835 1662 239L1666 243L1665 246L1669 247L1662 252L1666 256L1663 256L1663 257L1660 268L1665 265L1667 265L1668 272C1660.16 274.676 1659.02 280.636 1661 288C1656.34 289.242 1649.19 292.808 1649 298L1647 296L1646 296L1630 312L1628 317L1629 322L1624 321L1625 328C1617.48 325.411 1605.29 330.039 1598 333C1597.6 330.19 1595.64 330.713 1593 331C1593.75 339.813 1581.23 338.12 1582 348L1579 346C1579.09 351.195 1581.6 355.192 1577 359L1577 360C1585.35 362.436 1581.88 371.216 1594 369C1591.78 376.508 1585.44 376.265 1579 375L1585 386L1587.23 398L1587 408L1607 402L1608 402L1610 410C1612.62 408.509 1616.19 403.804 1619.48 404.561C1622.92 405.356 1621.78 410.469 1622.3 412.914C1624.33 422.424 1622.82 433.394 1614 439C1617.41 442.442 1618.33 444.542 1616 449L1616 450C1630.75 463.974 1606.76 472.617 1598 478L1598 475L1596 475L1596 482L1599 487L1600 487L1603 483C1595.59 498.994 1576.91 482.278 1565 485L1565 495C1568.18 501.442 1554.82 503.504 1566 511L1569 510L1568 518C1571.91 517.798 1573.79 518.094 1575 522C1581.43 522.929 1586.33 526.802 1590 532L1587 533L1589 540L1594 541L1595 546L1586 543L1590.57 555.561L1586.6 570.866L1592 580L1587 579L1591 588L1576 580.611L1559 578L1555 590L1548 584L1552.83 604.561L1563 618L1560 617L1559 621C1566.04 626.776 1575.46 636.555 1578.99 645C1585.44 660.428 1588.05 679.98 1602 691L1602 692L1598.06 714.837L1583 721L1584 719L1582 721C1578.01 719.096 1573.35 715.223 1569 714.614C1564.51 713.987 1559.49 716.811 1555 717.291C1538.88 719.015 1527.67 716.979 1519 733L1506 731L1506 732C1511.53 733.626 1514.11 738.838 1516 744L1510 741L1511 746L1514 745C1516.28 749.043 1520.62 749.482 1525 749L1529 758C1520.15 760.092 1510.14 763.004 1501 762.882C1495.94 762.814 1490.15 759.751 1488 766L1469.29 767.525L1459 771L1458 771C1456.07 774.687 1455.6 777.538 1460 779L1460 780L1454 784L1482 779.035L1493 777L1494 777C1496.62 784.46 1506.98 779.447 1512.91 781.279C1516.34 782.337 1518.76 785.467 1522 787C1521.13 792.848 1527.11 793.3 1530.39 797.188C1534.33 801.869 1538.43 810.355 1541 816L1531 836L1531 829L1529 829L1518 838L1512 836C1511.1 841.641 1517.75 849.271 1509 852C1505.31 858.147 1502.73 858.634 1496 860C1490.28 854.239 1487.79 871.858 1490 876C1484.5 875.908 1484.19 872.736 1483 868C1478.64 870.447 1478.06 873.188 1478 878L1464 883L1474 898L1470 902L1469 902C1469.58 898.628 1469.45 896.968 1466 896C1464.34 898.918 1463.15 898.931 1460 898L1467 914L1459 909L1457 916L1462 915L1462 924L1454 925L1460 931L1459 937L1452 927L1451 927L1449 932C1444.54 925.545 1443.21 924.513 1436 922L1429 929C1427.88 924.602 1428.23 922.679 1432 920L1430 917L1429 917C1422.36 923.432 1419.54 933.072 1432 935L1431 938L1414 938L1412 941L1412 942L1414 944L1416 941L1416 944L1426 947C1424.48 951.047 1423.69 953.406 1419 953L1415 968L1408 963C1402.62 964.32 1397.46 970.376 1398 976L1396 973C1390.45 972.601 1386.72 970.008 1383 966L1382 966C1377.03 969.534 1373.69 968.577 1369 965L1368 965L1367 975L1358 973C1359.89 979.973 1363.61 983.729 1357 989L1356 984L1354 984L1344 987L1344 981L1338 979L1337 979L1336 985L1335 985L1322 970L1318 971L1319 967L1314 968L1311 963C1310.2 966.434 1310.7 967.672 1314 969C1311.42 975.947 1313.17 979.835 1321 979C1323.31 995.821 1343.54 999.253 1342 1017C1332.59 1007.28 1326.75 996.738 1313 1004L1318 1000L1318 999L1311 1000L1310 997L1309 997L1305 1004L1310 1005L1308 1009L1300 1005L1300 1009L1291 1001C1294.52 1009.81 1302.4 1024.69 1301 1034L1299 1034L1298 1031L1295 1033L1292 1029C1291.78 1031.9 1291.46 1035.39 1288 1034L1287 1034L1284 1036L1281 1028C1278.21 1031.14 1276.29 1032.55 1272 1032L1266 1043C1266.37 1038.03 1262.83 1021.85 1258 1021L1260 1044L1254 1060L1253 1060L1253 1056L1248 1055L1248 1064L1244 1065L1239 1045L1242.5 1068L1241.74 1078.97L1253 1080L1281 1080L1393 1080L1920 1080L1920 0L1307 0L1161 0L1127 0C1121.28 0.000366211 1114.78 -0.453613 1118 7z"/>
<path style="fill:#040404; stroke:none;" d="M844 3L845 4L844 3M754 7L754 8C757.194 7.98645 759.271 8.40271 760 5L754 7z"/>
<path style="fill:#fcfcfc; stroke:none;" d="M991 5L992 10L993 10L991 5M836 9L837 10L836 9z"/>
<path style="fill:#040404; stroke:none;" d="M745 10L744 11L746 17L747 17L745 10M826 10L829 12L826 10M906 12C903.717 15.5819 903.102 18.5315 907 21L906 12z"/>
<path style="fill:#fcfcfc; stroke:none;" d="M845 13L842 20L850 20L845 13M1121 13L1119 18C1122.01 17.3546 1122.5 15.6129 1121 13M775 14L775 20L776 20L775 14M992 15L988 28C995.895 29.0339 994 20.6293 994 15L992 15M832 16L832 17L833 19L838 20L832 16z"/>
<path style="fill:#040404; stroke:none;" d="M953 17L952 22L956 22L955 17L953 17z"/>
<path style="fill:#fcfcfc; stroke:none;" d="M772 19C769.933 23.4653 771.731 25.9393 776 28L777 23L776 23L775 25L772 19M861.667 19.3334L862.333 19.6666L861.667 19.3334M1130 20L1129 24L1130 20z"/>
<path style="fill:#040404; stroke:none;" d="M695 23L695 25L697 23L695 23z"/>
<path style="fill:#fcfcfc; stroke:none;" d="M876 33L878 26C873.092 19.2711 865.737 30.8597 876 33M751 25L753 28L751 25z"/>
<path style="fill:#040404; stroke:none;" d="M923 26L925 29L926 28L923 26z"/>
<path style="fill:#fcfcfc; stroke:none;" d="M730.333 28.6666L730.667 29.3334L730.333 28.6666M999 29L998 32L1001 32L999 29M767 31L768 33L769 33L770 31L767 31M826.667 31.3334L827.333 31.6666L826.667 31.3334M911 32L911 36L912 36L911 32M733 36L736 33L733 36M1123 35L1124 36L1123 35M695 37L698 41L699 36L695 37M928 39L929 40L928 39M920 41L920 45L922 41L920 41M880.333 42.6666L880.667 43.3334L880.333 42.6666M950.333 42.6666L950.667 43.3334L950.333 42.6666M946 43L947 48L948 48L948 43L946 43z"/>
<path style="fill:#040404; stroke:none;" d="M1147 47L1148 48L1147 47z"/>
<path style="fill:#fcfcfc; stroke:none;" d="M743 49L744 50L743 49z"/>
<path style="fill:#040404; stroke:none;" d="M1160 58L1160 60L1162 60L1162 58L1160 58z"/>
<path style="fill:#fcfcfc; stroke:none;" d="M1148 64L1149 65L1148 64M699 66L699 67L703 68L699 66z"/>
<path style="fill:#040404; stroke:none;" d="M1178 67L1179 68L1178 67z"/>
<path style="fill:#fcfcfc; stroke:none;" d="M1144 79L1145 80L1144 79M593 89L593 92L594 92L593 89M1148 89L1147 92L1148 93L1151 92L1148 89M1142 99L1143 100L1142 99z"/>
<path style="fill:#040404; stroke:none;" d="M554 119L556 121L556 119L554 119z"/>
<path style="fill:#fcfcfc; stroke:none;" d="M699 131L699 132L697 140L698 140L697 137L701 133L702 133L698 152L708 161L712 157L713 166C718.615 165.823 721.097 169.616 724 174L737 171L737 172L734 173L734 174C736.577 175.24 739.506 176.508 740 173L761 176C758.711 171.899 754.674 168.74 750 168L747 164L747 163L753 167C763.258 165.188 768.677 176.299 777.895 175.458C785.692 174.746 789.287 161.675 782 158C776.522 169.782 766.274 160.94 758.83 156.362C754.814 153.891 750.073 154.073 746 151.991C734.931 146.331 724.723 141.419 714.424 134.162C710.542 131.427 703.613 120.971 699.961 120.327C692.649 119.038 696.254 128.577 699 131z"/>
<path style="fill:#040404; stroke:none;" d="M1280 128L1284 121C1280.31 122.223 1280.12 124.308 1280 128M1266.67 125.333L1267.33 125.667L1266.67 125.333z"/>
<path style="fill:#fcfcfc; stroke:none;" d="M1246 127L1247 128L1246 127z"/>
<path style="fill:#040404; stroke:none;" d="M1131.33 130.667L1131.67 131.333L1131.33 130.667z"/>
<path style="fill:#fcfcfc; stroke:none;" d="M588.667 131.333L589.333 131.667L588.667 131.333M1121 133L1119 140L1120 140L1121 133M1419 143L1420 144L1419 143M1267 148L1270 145L1267 148M1343 148L1346 145L1344 145L1343 148M1122.67 147.333L1123.33 147.667L1122.67 147.333M1128 150L1127 152L1129 152L1128 150M1185.67 152.333L1186.33 152.667L1185.67 152.333M1127 153L1122 164C1125.96 161.804 1128.37 157.509 1127 153M1188 154L1191 157L1188 154M1156 159L1153 164L1156 159z"/>
<path style="fill:#040404; stroke:none;" d="M1171 159L1172 160L1171 159M1176 159L1177 160L1176 159z"/>
<path style="fill:#fcfcfc; stroke:none;" d="M1119 165L1119 168L1120 168L1119 165M1104 172L1108 172L1109 167L1104 172M1160 172L1164 169L1160 172z"/>
<path style="fill:#040404; stroke:none;" d="M407 173L406 177C408.184 175.581 408.643 175.079 407 173z"/>
<path style="fill:#fcfcfc; stroke:none;" d="M705 175L706 176L705 175M479 177L480 178L479 177M483 177L484 178L483 177M709 177L709 180L710 180L709 177M742 177L744 181L744 177L742 177M1113 179L1113 184L1114 184L1113 179M410 181L411 182L410 181M752 183L753 184L752 183M1401 183L1402 184L1401 183z"/>
<path style="fill:#040404; stroke:none;" d="M402 185L403 186L402 185M468 187L468 191L469 191L470 187L468 187M346.667 189.333L347.333 189.667L346.667 189.333z"/>
<path style="fill:#fcfcfc; stroke:none;" d="M474 189L475 190L474 189M472 193L474 196L472 193M458 205L460 208L458 205M478 207L479 208L478 207M326 216L326 221L327 221L328 216L326 216z"/>
<path style="fill:#040404; stroke:none;" d="M316 219L317 220L316 219z"/>
<path style="fill:#fcfcfc; stroke:none;" d="M1377 222L1378 223L1377 222M1611 224L1614 224L1613 222L1611 224M455 223L456 224L455 223M308.333 228.667L308.667 229.333L308.333 228.667z"/>
<path style="fill:#040404; stroke:none;" d="M1660.67 231.333L1661.33 231.667L1660.67 231.333z"/>
<path style="fill:#fcfcfc; stroke:none;" d="M475 233L475 236L477 236L477 233L475 233M1645 234L1645 236L1647 236L1647 234L1645 234M1649 241L1650 242L1649 241z"/>
<path style="fill:#040404; stroke:none;" d="M297 243L296 245L297 243z"/>
<path style="fill:#fcfcfc; stroke:none;" d="M1660 246L1660 248L1662 246L1660 246M316 249L317 252L318 252L318 249L316 249z"/>
<path style="fill:#040404; stroke:none;" d="M1669 251L1670 252L1669 251z"/>
<path style="fill:#fcfcfc; stroke:none;" d="M1660 256L1663 254L1660 256z"/>
<path style="fill:#040404; stroke:none;" d="M1668 254L1669 255L1668 254M303.333 258.667L303.667 259.333L303.333 258.667M306.333 258.667L306.667 259.333L306.333 258.667z"/>
<path style="fill:#fcfcfc; stroke:none;" d="M337 259L337 260L341 262L337 259M1659 261L1657 264C1659.25 263.527 1660.12 263.14 1659 261z"/>
<path style="fill:#040404; stroke:none;" d="M1670 263L1671 264L1670 263M1668 277L1667 280L1668 277M325.333 279.667L325.667 280.333L325.333 279.667M1662 282L1662 284L1664 284L1664 282L1662 282z"/>
<path style="fill:#fcfcfc; stroke:none;" d="M339 283L340 284L339 283M337 292L340 290L337 292z"/>
<path style="fill:#040404; stroke:none;" d="M322.667 295.333L323.333 295.667L322.667 295.333M1644 302L1644 306L1645 306L1644 302z"/>
<path style="fill:#fcfcfc; stroke:none;" d="M329 307L330 308L329 307M1631 307L1631 310L1632 310L1631 307M306 325L306 331L307 331L306 325M293 341L292 344L293 341M291 347L292 348L291 347M1574 351L1575 352L1574 351z"/>
<path style="fill:#040404; stroke:none;" d="M271 352L270 354L272 354L271 352M266 353L266 356L268 356L268 353L266 353z"/>
<path style="fill:#fcfcfc; stroke:none;" d="M288.667 355.333L289.333 355.667L288.667 355.333M292.667 359.333L293.333 359.667L292.667 359.333M1577 367L1578 368L1577 367M278 371L279 372L278 371M1590 373L1591 374L1590 373z"/>
<path style="fill:#040404; stroke:none;" d="M265 381L264 384L265 381z"/>
<path style="fill:#fcfcfc; stroke:none;" d="M270 388L270 390L272 390L270 388M1585 399L1586 400L1585 399z"/>
<path style="fill:#040404; stroke:none;" d="M1590 399L1591 400L1590 399z"/>
<path style="fill:#fcfcfc; stroke:none;" d="M268 413L268 416L270 416L270 413L268 413M1592.67 415.333L1593.33 415.667L1592.67 415.333z"/>
<path style="fill:#040404; stroke:none;" d="M254 427L255 428L254 427M347 439L347 440L351 440L347 439M272 456L273 457L272 456M333 459L334 460L333 459M321 471L322 472L321 471z"/>
<path style="fill:#fcfcfc; stroke:none;" d="M1595 479L1596 480L1595 479M1564 495L1566 497L1564 495z"/>
<path style="fill:#040404; stroke:none;" d="M1564 507L1565 508L1564 507z"/>
<path style="fill:#fcfcfc; stroke:none;" d="M1565 513L1566 514L1565 513M1567.33 519.667L1567.67 520.333L1567.33 519.667M1585 535L1586 536L1585 535M284 554L283 556L285 556L284 554z"/>
<path style="fill:#040404; stroke:none;" d="M299 568L302 565L299 568z"/>
<path style="fill:#fcfcfc; stroke:none;" d="M309 576L310 577L309 576z"/>
<path style="fill:#040404; stroke:none;" d="M290 591L291 592L290 591z"/>
<path style="fill:#fcfcfc; stroke:none;" d="M296 597L300 600L296 597z"/>
<path style="fill:#040404; stroke:none;" d="M1554.33 599.667L1554.67 600.333L1554.33 599.667M274 614L277 616L274 614z"/>
<path style="fill:#fcfcfc; stroke:none;" d="M1557 617L1557 620L1559 620L1559 617L1557 617z"/>
<path style="fill:#040404; stroke:none;" d="M1563 619L1564 620L1563 619M282 633L284 636L284 633L282 633z"/>
<path style="fill:#fcfcfc; stroke:none;" d="M297 633L298 634L297 633M288 637L288 639L290 639L290 637L288 637M294 646L294 648L296 648L294 646z"/>
<path style="fill:#040404; stroke:none;" d="M199 649L200 650L199 649M199.667 653.333L200.333 653.667L199.667 653.333M264.667 659.333L265.333 659.667L264.667 659.333z"/>
<path style="fill:#fcfcfc; stroke:none;" d="M269 667L269 668L272 668L269 667M229 676L232 676L231 674L229 676M1518 677L1518 680L1520 680L1520 677L1518 677M1530 680C1530.12 683.714 1530.42 685.563 1534 687L1536 681L1530 680M246.667 683.333L247.333 683.667L246.667 683.333M1535 687L1535 688L1541 690L1541 686L1535 687M1525.33 686.667L1525.67 687.333L1525.33 686.667M1529 688L1530 692L1534 689L1529 688M1540 691L1536 694L1536 695L1552 707L1553 703L1547 700L1542 691L1540 691M1533 699L1534 700L1533 699z"/>
<path style="fill:#040404; stroke:none;" d="M200 701L201 702L200 701z"/>
<path style="fill:#fcfcfc; stroke:none;" d="M1537 701L1538 702L1537 701M218 703L219 704L218 703z"/>
<path style="fill:#040404; stroke:none;" d="M210 709L214 705L210 709z"/>
<path style="fill:#fcfcfc; stroke:none;" d="M215 709L216 710L215 709M1555 709L1552 711L1552 712L1558 712L1555 709M318 727L318 729L320 729L320 727L318 727M321 731L322 732L321 731M242 735L243 736L242 735M233 743L233 744L238 744L240 739L233 743z"/>
<path style="fill:#040404; stroke:none;" d="M1519 741L1522 744L1519 741M225 749L227 753L228 752L225 749z"/>
<path style="fill:#fcfcfc; stroke:none;" d="M1460 759L1461 760L1460 759z"/>
<path style="fill:#040404; stroke:none;" d="M1490 764L1492 768L1490 764M216 771L216 773L218 771L216 771z"/>
<path style="fill:#fcfcfc; stroke:none;" d="M224 771L225 772L224 771M1441 782L1440 783L1443 788L1451 784L1451 783L1441 782z"/>
<path style="fill:#040404; stroke:none;" d="M212 795L213 796L212 795z"/>
<path style="fill:#fcfcfc; stroke:none;" d="M274 797L273 800L277 800L274 797M1535 813L1535 818L1536 818L1535 813M1535 819L1536 820L1535 819M1532 823L1533 824L1532 823z"/>
<path style="fill:#040404; stroke:none;" d="M1540 825L1540 828L1541 828L1540 825z"/>
<path style="fill:#fcfcfc; stroke:none;" d="M1525.67 831.333L1526.33 831.667L1525.67 831.333M1503 854L1502 856L1504 856L1503 854z"/>
<path style="fill:#040404; stroke:none;" d="M1500.67 863.333L1501.33 863.667L1500.67 863.333z"/>
<path style="fill:#fcfcfc; stroke:none;" d="M294 866L294 868L296 868L294 866M1475 870L1477 873L1475 870M334 890L334 897L339 890L334 890M1459 895L1462 897L1459 895z"/>
<path style="fill:#040404; stroke:none;" d="M1473 901L1476 904L1475 901L1473 901M271 904L274 902L271 904z"/>
<path style="fill:#fcfcfc; stroke:none;" d="M602.667 903.333L603.333 903.667L602.667 903.333z"/>
<path style="fill:#040404; stroke:none;" d="M1468 903L1469 904L1468 903M608 904L609 905L608 904M275 907L275 908L278 908L275 907z"/>
<path style="fill:#fcfcfc; stroke:none;" d="M1446.67 911.333L1447.33 911.667L1446.67 911.333M1453 911L1453 918C1456.19 915.909 1456.09 913.194 1453 911M640 917L640 920L642 920L642 917L640 917z"/>
<path style="fill:#040404; stroke:none;" d="M1464 923L1465 924L1464 923M1436 924L1440 933C1440.54 928.727 1439.33 926.649 1436 924z"/>
<path style="fill:#fcfcfc; stroke:none;" d="M587 927L588 928L587 927M344 931L345 932L344 931M1407 931L1408 932L1407 931M344 933L345 934L344 933M343 935L344 936L343 935z"/>
<path style="fill:#040404; stroke:none;" d="M595 935L596 936L595 935M631 935L632 936L631 935z"/>
<path style="fill:#fcfcfc; stroke:none;" d="M647.667 935.333L648.333 935.667L647.667 935.333M1303 935L1303 938L1304 938L1303 935z"/>
<path style="fill:#040404; stroke:none;" d="M1463 935L1464 936L1463 935M334 939L335 940L334 939z"/>
<path style="fill:#fcfcfc; stroke:none;" d="M1304 945L1304 948L1305 948L1304 945M1266 949L1267 950L1266 949M342 951L343 952L342 951M624.667 951.333L625.333 951.667L624.667 951.333M1265.67 951.333L1266.33 951.667L1265.67 951.333M1415 956L1416 957L1415 956M1264 957L1263 960L1266 960L1264 957M1413 959L1413 960L1416 961L1416 958L1413 959M1269 963L1270 964L1269 963M1398 964L1397 968L1398 964M580.333 966.667L580.667 967.333L580.333 966.667M326.667 967.333L327.333 967.667L326.667 967.333M343 971L344 972L343 971M1332 971L1332 976L1332 971z"/>
<path style="fill:#040404; stroke:none;" d="M1379 973L1380 974L1379 973M1400 976L1408 976C1405.09 973.277 1402.51 972.566 1400 976z"/>
<path style="fill:#fcfcfc; stroke:none;" d="M390 979L390 980C393.194 979.987 395.271 980.403 396 977L390 979M1136 977L1137 978L1136 977M1137 978L1132 988L1138 987L1138 1004L1145 1006L1145 1008L1139 1010L1151.37 1023.21L1156 1036L1152 1036C1151.02 1022.04 1130.2 1023.37 1133 1011C1123.79 1012.42 1120.56 1001.82 1120 994L1114.56 1010.77L1104 1019L1104 1020L1107 1020L1106 1025L1102 1019L1089 1019L1091 1040C1085.96 1041.69 1088.29 1045.13 1092 1047C1092.45 1056.39 1106.42 1061.12 1112.67 1065.84C1116.84 1068.99 1118.28 1075.11 1119 1080L1238 1080C1238 1065.86 1231.5 1054.81 1229.29 1041C1228.28 1034.66 1231.31 1027.54 1226 1023L1226 1032L1224 1032C1223.71 1022.94 1213.03 1016.73 1206 1012L1205 1016L1193 1005L1191 1010L1191 1011L1196 1013L1198 1028L1193 1017L1189 1018L1184 1014C1191.67 999.546 1178.24 1000.97 1169 1001L1179 1016L1176 1020C1180.58 1022.81 1179.85 1027.19 1181 1032L1180 1032L1179 1030L1177 1036L1182 1042C1175.6 1042.5 1175.37 1048.16 1171 1052C1176.21 1030.68 1161.92 1019.66 1153.1 1002.7C1151.67 999.948 1152.53 996.026 1151.7 993C1149.46 984.867 1144.01 981.558 1137 978M660 979L660 982L662 979L660 979M361 982L360 984L362 984L361 982M386 983L386 988L387 988L386 983M658 983L659 984L658 983M1281 987L1282 992L1283 992L1281 987z"/>
<path style="fill:#040404; stroke:none;" d="M1363 987L1362 993L1364 993L1363 987M1352 988L1353 989L1352 988z"/>
<path style="fill:#fcfcfc; stroke:none;" d="M490 991L491 992L490 991M651.667 991.333L652.333 991.667L651.667 991.333M1156.67 991.333L1157.33 991.667L1156.67 991.333M1294.67 995.333L1295.33 995.667L1294.67 995.333z"/>
<path style="fill:#040404; stroke:none;" d="M536 997L537 998L536 997z"/>
<path style="fill:#fcfcfc; stroke:none;" d="M1185 1001L1189 997L1185 1001M1284 997L1284 1000L1287 1000L1287 997L1284 997M489 999L492 1003L489 999M548 999L549 1000L548 999M979 999L980 1000L979 999M1213 999L1216 1003L1213 999M1297 999L1297 1000L1300 1000L1297 999M1192 1000L1193 1001L1192 1000z"/>
<path style="fill:#040404; stroke:none;" d="M534 1001L535 1002L534 1001z"/>
<path style="fill:#fcfcfc; stroke:none;" d="M624 1004L627 1001L624 1004M981 1001L984 1004L983 1001L981 1001z"/>
<path style="fill:#040404; stroke:none;" d="M498 1003L499 1004L498 1003z"/>
<path style="fill:#fcfcfc; stroke:none;" d="M666 1003L661 1008C664.708 1008.54 667.264 1006.97 666 1003M411 1007L412 1008L411 1007M1191 1007L1192 1008L1191 1007M1218 1007L1222 1022L1226 1022L1218 1007z"/>
<path style="fill:#040404; stroke:none;" d="M619 1008L620 1009L619 1008M592 1009L595 1012L594 1009L592 1009z"/>
<path style="fill:#fcfcfc; stroke:none;" d="M487 1011L488 1012L487 1011z"/>
<path style="fill:#040404; stroke:none;" d="M493 1011L494 1012L493 1011z"/>
<path style="fill:#fcfcfc; stroke:none;" d="M658 1011L659 1012L658 1011M978 1012L981.047 1023.83L974 1044L971 1040C965.063 1048.62 964.12 1048.55 953 1049L952 1054L951 1054L948 1045L953 1047L959 1041L959 1039L951 1025L948 1026L946 1019L945 1019L948.852 1034L944.274 1050L946.976 1064.42L944 1080L995 1080L996 1061C991.333 1061.33 989.092 1060.57 986 1057L975 1057C975.344 1048.94 986.686 1042.63 991.738 1036.91C994.652 1033.61 996.068 1030.24 1000 1028L999 1025L993 1027C991.19 1021.71 987.281 1017.83 982 1016L982 1011L978 1012z"/>
<path style="fill:#040404; stroke:none;" d="M1312 1011L1313 1012L1312 1011z"/>
<path style="fill:#fcfcfc; stroke:none;" d="M649 1020C653.302 1018.79 656.069 1016.62 656 1012L649 1020M1277 1020L1282 1020C1280.23 1017.32 1278.77 1017.32 1277 1020M1286 1017C1286.86 1020.03 1287.92 1020.28 1291 1020L1291 1019L1286 1017M971 1019L973 1023L971 1019M995 1019L996 1020L995 1019M647 1020C628.703 1035.16 607.629 1046.91 586.04 1057.49C580.492 1060.21 577.672 1066.41 571 1067L571 1072L566 1070L561 1076L560 1076L568 1065C559.642 1066.73 554.552 1071.71 552 1080L597 1080C597.375 1062.4 616.207 1047.45 630 1038.9C635.664 1035.39 649.613 1028.35 647 1020z"/>
<path style="fill:#040404; stroke:none;" d="M1108 1020L1108 1025L1112 1024L1108 1020M411 1023L412 1026L414 1023L411 1023M418.667 1023.33L419.333 1023.67L418.667 1023.33z"/>
<path style="fill:#fcfcfc; stroke:none;" d="M972 1025L972 1028L973 1028L972 1025z"/>
<path style="fill:#040404; stroke:none;" d="M1101 1025L1101 1033L1104 1025L1101 1025z"/>
<path style="fill:#fcfcfc; stroke:none;" d="M1286 1027L1287 1028L1286 1027M898 1028L892 1033L896 1044C884.478 1048.61 881.78 1057.75 886 1068L880 1071L880 1067L873 1073L874 1080L912 1080L927.531 1079.4L931.803 1071.21L943 1063C933.251 1055.15 938.682 1050.37 936 1041L941 1037L933 1040L928 1035L924 1039L923 1029L920 1035L916 1033C916.669 1044.48 915.124 1059.7 900 1059L902 1062L896 1060C899.877 1051.55 910.065 1047.47 907 1037L900 1044L898 1028z"/>
<path style="fill:#040404; stroke:none;" d="M394 1029L396 1032L396 1029L394 1029z"/>
<path style="fill:#fcfcfc; stroke:none;" d="M970 1029L969 1032L970 1029M1285 1029L1286 1030L1285 1029M915 1030L915 1033L916 1033L915 1030M1296 1030L1297 1031L1296 1030M935.667 1031.33L936.333 1031.67L935.667 1031.33z"/>
<path style="fill:#040404; stroke:none;" d="M1147.33 1038.67L1147.67 1039.33L1147.33 1038.67M952.667 1039.33L953.333 1039.67L952.667 1039.33M1294 1042L1293 1044L1295 1044L1294 1042M423 1048L424 1049L423 1048z"/>
<path style="fill:#fcfcfc; stroke:none;" d="M753 1051L762 1052C758.947 1048.67 756.854 1048.87 753 1051M775 1051L774 1056L776 1056L775 1051z"/>
<path style="fill:#040404; stroke:none;" d="M962 1053C961.425 1055.4 961.525 1055.49 964 1056L962 1053M1174 1053L1175 1054L1174 1053z"/>
<path style="fill:#fcfcfc; stroke:none;" d="M789 1054L789 1056L791 1056L789 1054M878 1055L876 1062C878.518 1060.22 879.277 1057.91 878 1055M1036 1055L1024 1063L1024 1064L1024 1068L1024 1076L1018 1073L1020 1080L1042 1070C1036.56 1063.13 1037.38 1063.35 1038 1055L1036 1055z"/>
<path style="fill:#040404; stroke:none;" d="M911 1057L914 1072C918.511 1067.58 916.256 1062.49 915 1057L911 1057z"/>
<path style="fill:#fcfcfc; stroke:none;" d="M763 1080L768 1080L770 1064L765 1064L766 1059C753.565 1056.43 764.878 1072.11 763 1080M1019 1060C1017.27 1064.93 1017.83 1069.39 1024 1068L1019 1060M1052 1061L1050 1080L1068 1080C1066.81 1076.31 1064.71 1075.6 1061 1075L1063 1071L1052 1061M1064 1062L1063 1064L1065 1064L1064 1062M1011 1063L1012 1064L1011 1063M862 1067L862 1068L865 1068L862 1067M1063 1067L1062 1069L1063 1067z"/>
<path style="fill:#040404; stroke:none;" d="M1244 1068L1244 1070L1246 1068L1244 1068M577 1069L577 1074L580 1069L577 1069z"/>
<path style="fill:#fcfcfc; stroke:none;" d="M781 1069L780 1080L789 1080C788.699 1074.44 786.906 1069.96 781 1069M937.667 1069.33L938.333 1069.67L937.667 1069.33M1080 1070L1079 1072L1081 1072L1080 1070M675 1071L673 1080L680 1080L683 1071L675 1071M1002 1071L1002 1080L1015 1080L1013 1074C1007.63 1075.8 1006.4 1073.59 1002 1071M623 1080C629.849 1080 638.542 1080.54 640 1072C632.941 1072.33 623.989 1071.33 623 1080M650 1073L645 1080L655 1080L657 1075L650 1073z"/>
<path style="fill:#040404; stroke:none;" d="M880 1073L881 1074L880 1073z"/>
<path style="fill:#fcfcfc; stroke:none;" d="M1100 1073C1098.98 1075.9 1098.77 1077.31 1102 1078L1100 1073M601 1075L601 1080L610 1080L610 1079L601 1075M794.667 1075.33L795.333 1075.67L794.667 1075.33M868.667 1075.33L869.333 1075.67L868.667 1075.33M934 1079L934 1080L941 1080L941 1076L934 1079M662 1079L663 1080L662 1079M692 1079L693 1080L692 1079M697 1079L698 1080L697 1079M790 1079L791 1080L790 1079M828 1079L829 1080L828 1079M859.667 1079.33L860.333 1079.67L859.667 1079.33z"/>
</svg>
