<?xml version="1.0" standalone="yes"?>
<svg xmlns="http://www.w3.org/2000/svg" width="1920" height="1080">
<path style="fill:#fefefe; stroke:none;" d="M0 0L0 1080L1920 1080L1920 0L0 0z"/>
<path style="fill:#030303; stroke:none;" d="M624 129C618.852 138.666 614.444 151.367 611.899 162C611.003 165.743 611.872 170.367 610.397 173.867C607.003 181.916 598.522 180.604 598 192L597 192L594 188L587 211L586 211L583 203L581 203L580 206C568.262 200.879 568.496 220.315 572 227L563 225L562 228L559 227L558 232L557 232L555 223L551 224C548.762 219.862 546.667 218.761 542 219L541 224C535.942 220.698 532.857 223.419 528 226L520 220L525 240L524 240C518.264 229.11 517.689 242.858 514.667 245.169C511.888 247.295 508.005 245.944 505.184 248.438C501.392 251.788 501.004 262.916 499 268L482 257L488 270L486 270C485.656 265.668 484.1 264.259 480 263L482 265L479.632 282.554L468 279C471.738 285.187 475.742 290.458 475 298L455 285L456 292L449 287L449 290L448 290L433.446 284.099L428 275L428 280L425 278L416 281C416.25 284.929 419.953 293.387 415.682 295.883C413.006 297.447 409.025 296.606 406 298L406 300L412 304L408 305L414.684 314.104L415.058 326.911L424 340L407 341L407 346L397 345L397 351L389 349L388 356C381.787 355.049 383.541 360.36 388 362L388 364L385 365L385 368L399 382L392 383L399 391L408.826 407.302L421 428C413.653 426.904 404.601 415.073 397.094 417.038C387.245 419.615 397.28 428.607 400.385 431.83C412.511 444.417 426.136 456.151 439 468C424.64 468.712 419.979 452.225 407 453L411 465L396 460C394.299 465.755 399.272 476.563 393.735 479.972C390.094 482.215 384.122 480.56 380 481L387 489L387 490L384 491L384 493L389 495C387.793 499.941 388.938 508.709 395 509L400 520C392.003 518.769 376.715 522.739 376 532L384 531L384 538L388 533L389 533L388 544L381 548L401.406 547.144L410.05 554.455L416 563L426 559C424.699 570.732 428.957 565.954 436.039 566.694C440.42 567.152 444.53 568.783 449 569L441 588L424 591L424 594C418.843 592.595 411.117 588.423 408 594L395.015 588.823L384 583L385 590L373.333 588.308L378 612L371 615L379 636L367 634L367 642C359.363 642.251 359.916 649.114 354 653L362 668L357 666L365 684C355.139 684.431 351.15 690.596 354 700C346.318 700.429 334.349 692.029 333 704L337 708L333 709L336 724C342.477 725.705 345.163 730.265 348 736L317 745C318.973 756.7 319.235 764.766 316 776C321.827 777.387 332.577 774.457 334.691 782.043C335.688 785.624 334.068 789.304 335 793C345.291 790.957 336.275 800.255 341.229 804.711C344.659 807.795 349.599 810.259 351.049 815.004C352.054 818.295 348.961 821.621 350.743 824.625C354.66 831.227 362.285 832.815 366.66 837.523C370.431 841.582 370.775 850.766 373 856L379 853L379 868L384 867C384.925 870.595 386.777 880.795 389.568 882.977C396.716 888.565 411.087 890.075 414 900L422 896C423.109 902.308 437.037 899.795 442 898L444 910C449.01 909.781 452.729 908.965 456 905L457 905L459 910L462 909L465 920L466 917L472 922L474 922L483 912C491.451 913.571 491.116 901.14 499 898L504 904L505 899C507.946 899.746 509.311 900.197 510 897L518 905L516 893L521 897L522 897L523 893L534 895L536 902L538 902L542 887L557 894L558 890L563 892L561 887L566 889L567 888L566 880L569 882L568 866L574 872L574 857L575 857L578 860L578 855L589.014 851.188L598 856L597 851C601.143 855.16 605.186 861.288 611.015 863.387C616.421 865.333 623.071 862.432 628.13 865.363C636.505 870.213 640.791 880.98 652 880L649 868C653.191 869.313 655.139 869.172 657 865L666 864C664.288 858.738 659.683 851.553 664 847C662.249 839.616 654.608 835.446 653.114 828.019C651.591 820.445 665.616 819.415 656.852 810.316C655.698 809.119 654.457 808.694 653 808L661 804C660.132 800.277 659.457 798.078 663 796C661.13 788.221 672.79 780.476 664 776L664 774L684 773L681 790L704 783C705.076 789.443 709.478 786.765 714 785L710 796C714.291 795.111 727.903 795.033 728.427 801.055C728.856 805.995 719.992 810.657 726.153 814.911C734.755 820.85 747.332 816.34 755 824C749.867 824.131 744.72 824.157 741 828L745 831C740.171 830.288 737.205 831.59 735 836L739 846L755.001 862.005L800 871L805 864L806 868L811 867L816 878L820 877C819.862 880.923 820.961 882.816 825 883C826.178 885.153 829.326 887.502 829.169 890.104C829.075 891.666 813.482 915.954 825.265 910.315C826.864 909.55 828.371 908.712 830 908L828 924L830 924L832 919C837.28 920.632 840.025 920.497 845 918L848 931L857 925L860 928L863 922C866.249 925.801 867.542 931.744 873 932L882 944L884 944C889.556 935.865 887.227 921.428 895.058 915.393C901.979 910.059 910.217 912.906 916.896 916.865C919.429 918.367 923.698 924.725 926.958 920.396C928.904 917.813 927.584 910.366 928 907L936 904C936.431 913.3 943.616 922.393 953 924C956.432 905.526 981.3 899.012 992 917L994 917L996 912L1000 914L1000 907L1001 906L1007.82 911.655L1021 901L1025 902L1025 892C1029.34 891.856 1031.11 890.966 1033 887C1037.03 894.141 1058.31 900.746 1064 892L1065 892C1073.98 898.499 1068.27 882.153 1067 879L1080 884L1084 880C1084.52 883.805 1085.52 891.152 1090.18 892.168C1098.1 893.896 1092.82 882.665 1097.27 881.723C1100.43 881.054 1111.99 880.437 1115 881.306C1119.4 882.577 1127.83 887.728 1132.36 883.972C1134.84 881.918 1134.84 874.069 1135 871L1163 858L1162 861L1178.62 859.382L1186.33 849.299L1195 841L1202 850C1208.24 847.029 1213.68 834.994 1219 845L1224 839L1241 843C1248.53 837.979 1252.58 840.381 1260 844L1261 839L1265 838C1267.76 842.026 1272.01 843.086 1276 840L1277 840L1284 844L1283 832L1287 829C1293.41 830.383 1302.22 829.904 1307 825L1308 825L1310 827C1311.7 822.918 1313.25 816.089 1319.03 815.806C1323.11 815.605 1330.61 827.332 1332 821L1338 825C1339.88 818.604 1341.96 817.863 1348 816C1347.45 813.006 1346.34 809.129 1349.28 806.981C1353.26 804.068 1361.2 806.777 1365.97 804.132C1372.21 800.672 1368.89 790.541 1364 788L1364 779L1369 778C1369.23 769.261 1369.26 764.034 1379 764L1374 749C1377.57 748.803 1379.76 748.538 1381 745L1382 745C1385.55 751.974 1395.36 749.266 1397.1 741.985C1400.97 725.836 1384.1 717.482 1398 702C1398.01 707.332 1397.85 712.23 1403 715L1405 707L1412 716L1419 716L1417 707L1424 710C1424 699.571 1418.61 692.892 1430 688L1415.12 664.584L1406.86 658.695L1404.07 645.001L1394.06 631.957L1399.97 623L1410 606L1411 606L1413 610C1422.82 605.367 1420.28 596.705 1419 588L1425 591L1426 575L1432 576L1433 573L1463 587C1471.96 583.413 1478.04 601.02 1483.21 605.582C1486.66 608.63 1491.5 609.092 1495 612C1499.23 609.954 1500.51 607.666 1500 603L1512 602C1514.65 591.674 1508.4 587.436 1505.98 578C1503.89 569.838 1506.62 560.996 1497 556L1507 547C1500.26 541.198 1500.94 530.328 1511 530L1511 522L1513 524L1519 520L1519 518C1509.07 509.676 1523.37 499.445 1512 492L1512 487L1521 484C1519.19 476.092 1517.23 468.506 1508 468L1506 463L1510 464C1515.08 458.661 1519.98 459.568 1519 451C1523.9 450.61 1534.3 449.513 1534.85 442.985C1535.2 438.876 1532.3 435.494 1533 431L1511 420L1511 417L1521 402C1517.94 399.884 1516.66 398.787 1517 395L1494 390C1491.1 385.439 1466.17 380.872 1479.98 374.058C1481.6 373.26 1483.32 372.652 1485 372C1481.78 366.02 1476.76 367.837 1471 367.946C1460.41 368.146 1449.69 368 1439 368L1439 367L1463 360L1460 355C1464.66 352.322 1464.3 349.487 1462 345L1460 345L1455 349L1462 337C1458.13 335.565 1446.61 331.05 1445.61 326.726C1445.08 324.455 1447.21 322.462 1446.51 320.104C1444.38 312.945 1438.61 311.562 1450 308L1443 302L1437.52 285.647L1429 285L1421 288L1426 278L1418 276L1424 267L1409 276L1410 271L1405 273C1404.78 266.912 1408.74 265.423 1414 264C1410.4 256.58 1406.69 258.345 1400 260C1401.03 256.588 1402.24 254.185 1399 252C1401.56 238.201 1391.78 240.72 1382 244L1382 241L1368 243L1368 237C1364.3 237 1363.46 224.88 1364.5 222C1371.08 203.78 1384 190.255 1384 169L1382 168L1376 170L1373 159C1363.67 159.703 1359.68 168.808 1353.41 174.486C1348.98 178.497 1337.56 184.371 1332 187C1328.9 177.977 1322.06 186.506 1321 192L1313 190C1311.48 181.638 1302.83 180.395 1296 177L1295 186L1291 183L1290 188L1282 186L1276 195L1275 195L1269 187L1269 192L1268 192L1268 188L1267 188L1263 198L1257 194L1256 203C1250.67 196.044 1246.78 191.04 1238 188L1239 181L1231 181C1228.76 185.45 1227.21 187.58 1222 187L1223 191C1218.64 194.897 1218.99 206.55 1220 212L1196 209L1197 226C1191.57 226.682 1195.84 248.834 1196 254L1195 254C1193.2 249.306 1191 245.468 1186 244C1183.46 255.694 1192.47 269.976 1196 281L1184 264L1181 270L1175 265L1172 275L1164 272L1164 292L1150 293C1150.3 295.096 1152 299.524 1150.21 301.253C1147.19 304.169 1139.54 298.513 1138 296L1115 296C1123.61 280.622 1107.28 286.184 1098 288C1100.23 275.914 1091.39 278.043 1084.43 270.826C1080.7 266.963 1077.88 260.376 1072.9 258.078C1067.55 255.617 1060.92 259.486 1060 265L1055 264L1061 249C1050.33 250.231 1044.68 245.176 1035 252L1035 236L1027 235L1026 235L1023 236L1016 246C1009.44 244.162 1004.88 244.171 1004 252L996 254L996 251L992 254L991 254L990.583 237.714L995 219L986 226L985 216C980.708 216.41 978.09 217.002 976 221C970.231 217.162 964.852 223.688 961 217L958 217L949.742 222.433L944 240C940.8 239.001 935.897 238.572 933.317 236.397C928.058 231.965 927.482 222.662 918 226C916.255 217.577 911.875 213.461 903 213L900 230L899 230C892.424 221.095 890.273 244.537 890 248C884.848 247.917 884.565 252.653 884 257L880 254C874.243 264.304 865.093 260.024 863 274C856.111 270.303 854.077 266.316 852 259L842.914 277.812L825 290C824.093 279 811.761 268.046 801 272L800 261L799 261C792.862 272.441 784.115 280.105 784 294L781 281L775 290L768 287C768.081 277.893 771.946 274.867 777.562 268.486C778.912 266.953 780.162 264.438 778.353 262.703C776.302 260.737 770.678 262.074 768 262L770 254L755 276L754 276L756 267L752 268L756 257L747 259L748 255L743 256L744 245L738 246L739 241L730 248C727.801 237.738 716.103 259.547 715 263L714 263L708 253L695 271L693 266L686 270L686 261L684 261L680 268L681 262C674.684 257.753 674.02 250.981 672 244L667 247C666.768 235.816 669.236 223.4 665 213L664 213L663 216L661 216L667.786 175L659 143L656 137L650 140L647 137L645 147L644 147L643 141L638 138L637 143L636 143L631 130L624 129z"/>
<path style="fill:#fefefe; stroke:none;" d="M663 195L664 196L663 195z"/>
<path style="fill:#030303; stroke:none;" d="M587 203L588 204L587 203M996.333 214.667L996.667 215.333L996.333 214.667M988 219L988 222L990 219L988 219z"/>
<path style="fill:#fefefe; stroke:none;" d="M888 248L889 249L888 248z"/>
<path style="fill:#030303; stroke:none;" d="M497.667 255.333L498.333 255.667L497.667 255.333z"/>
<path style="fill:#fefefe; stroke:none;" d="M449 290L450 291L449 290M773.333 290.667L773.667 291.333L773.333 290.667M420.333 298.667L420.667 299.333L420.333 298.667M1148 322L1160 321C1162.26 307.011 1141.62 297.301 1145.39 314.998C1145.91 317.428 1147.07 319.711 1148 322M1161 328L1171 328L1169 325L1168 325L1166 327C1164.77 319.723 1158.51 321.341 1161 328M1173 334C1172.4 337.617 1172.75 339.194 1176 341C1176.82 337.368 1176.17 335.948 1173 334M392 355L393 356L392 355M400 381L401 382L400 381M414 463L415 464L414 463M438 469L445 473C443.266 469.699 441.726 468.643 438 469M450 479L451 484L452 484L452 479L450 479M409 480L405 484L409 485L409 480M390 491L390 492L393 492L390 491M1400 699L1401 700L1400 699M1398 701L1399 702L1398 701M668 731L668 732L671 732L668 731M673 753L672 758L676 756L675 753L673 753M671 759L672 760L671 759M668.667 763.333L669.333 763.667L668.667 763.333M1305 825L1306 826L1305 825M746 831L746 832L749 832L746 831M622 857L624 860L622 857z"/>
<path style="fill:#030303; stroke:none;" d="M1174 865L1174 868L1176 868L1176 865L1174 865z"/>
<path style="fill:#fefefe; stroke:none;" d="M1031 883L1032 884L1031 883z"/>
<path style="fill:#030303; stroke:none;" d="M1025 921L1024 924L1027 924L1025 921z"/>
</svg>
