<?xml version="1.0" standalone="yes"?>
<svg xmlns="http://www.w3.org/2000/svg" width="1920" height="1080">
<path style="fill:#fdfdfd; stroke:none;" d="M0 0L0 1080L824 1080C824.051 1073.79 826.454 1056.63 817 1057L818 1041L816 1041L815 1048L813 1041C801.603 1042.77 810.959 1052.52 803 1057L802 1051C789.481 1044.48 798.546 1038.46 801 1029L795 1029L788 1036L789 1026L783 1027C781.326 1032.66 781.708 1038.57 784 1044L778 1039L772 1046L769 1035L766 1038L764 1038L760 1033L759 1036L756 1036L755 1033L753 1038C743.708 1039.59 744.977 1051.51 740.2 1057.96C736.267 1063.26 730.803 1064.79 730 1072L720 1073L726.106 1054L733 1032L733 1031L731 1029L725 1034L726 1029L722 1025C715.572 1025.92 713.32 1025.74 709 1031L708 1024L703 1030C690.245 1023.56 708.572 1015.84 712.407 1010.62C714.986 1007.12 714.026 1002.72 717 999L712 1000L727.718 978.914L718 963L708.001 962.897L695 971L700 961L676 973L676 966L675 966C670.926 973.271 669.356 986.79 659 988C663.253 983.023 666.688 978.705 667 972L659 976C663.216 969.678 674.359 959.341 675.357 951.961C676.046 946.857 671.437 941.816 668.769 938C660.427 926.066 646.531 923.99 641 909L640 909L639 912C629.746 899.821 626.223 877.75 608 875C607.232 879.773 604.999 880.479 601 878C596.736 878.471 594.55 876.311 592 873L591 873C592.751 886.857 595.858 899.504 591 913L590 913L590 909L587 912C592.186 916.572 591.996 923.504 592 930L591 930L583 919L585 929L582 929L582 939L581 939L580 937L578 945L577 945L576 941L571 944C569.741 939.019 567.707 935.302 563 933L560 941L568.659 960L567.512 967.268L556 967L552 963L554 990L541.589 978.176L538 986L539 984L538 984L534 986C532.199 980.524 528.672 968.891 523 967L523 972L517 963L519 974L517 973L516 979L515 979L514 971L512 971L508 983L506 977L500 986L499 986L495 985L494 972C487.13 974.227 489.236 977.91 489 984C483.592 980.905 481.652 988.884 480.243 993C476.659 1003.47 481.09 1017.08 481 1028C472.394 1026.19 456.092 1013.88 449 1024L446 1019L440 1021L433 998L428 1000L428 995L427 995L422 1000L422 995L407 1000C409.049 991.893 418.722 979.076 402 983L407 963L404 961L403 961L393 973C389.003 968.147 390.688 966.737 393 962L392 947L377 951L377 949L382 948L382 947L377 949L374 948L377 945L377 944C374.421 940.266 374.726 938.241 376 934C368.435 936.253 364.232 942.191 364 950L362 948L356 952L352 948C356.879 942.23 355.607 937.882 354 931L355 930L359 932L360 909L359 909L354 915L353 912L345 916C343.154 906.124 351.862 899.272 354 890L350 892L349 887L348 887C347.573 894.8 340.95 900.931 333 901L333 899C336.341 897.172 342.232 891.927 339 888C341.916 884.42 342.912 881.282 341 877L344 876L341 870L340 870L336 872L336 866L325.892 876.806L308 882L308 879L306 879C305.384 886.074 302.934 890.796 298 896L295.642 881.015L309 865C304.074 863.474 301.8 864.657 298 868L299 859L290 860L289 855L293 856L291 851C301.025 849.954 312.176 840.854 315 831C304.764 825.396 297.482 830.931 294 817L284 821C287.937 812.121 293.458 803.372 278 806C279.014 800.431 278.284 793.61 271 796C270.383 788.26 265.62 792.116 260.3 790.806C254.314 789.332 251.962 786.443 245 786L247 773L244 772C248.984 767.776 255.516 764.382 254 757L249 760C250.552 753.464 253.686 751.943 260 752L257 743C255.088 744.086 251.704 746.073 249.981 743.508C247.344 739.58 252.769 734.821 247.721 731.009C240.528 725.578 231.981 731.215 227 721L235 723L236 723L248 713L243 703C247.315 702.962 249.945 705.567 254 706.458C261.292 708.059 265.818 706.705 272.981 710.935C276.765 713.169 278.984 717.395 283.019 719.107C291.577 722.74 303.093 722.861 308 732L330 732L330 731L304 719L306 715C299.607 711.334 289.475 707.689 286 701L272 694L272 693L275 692L258 679C265.72 676.553 270.437 677.936 278 680C282.138 672.614 292.731 678.201 296 684L297 684L300 669C297.981 667.88 294.66 666.127 296.636 663.302C299.629 659.024 304.988 663.459 308.342 660.972C310.731 659.201 301.113 644.318 300 641L315 650L316 646L318 646L320 651C325.43 644.122 312.342 637.179 309.317 631.089C308.57 629.586 302.772 623.706 306.377 622.573C309.469 621.6 315.673 625.434 319 626C315.816 616.292 302.948 616.753 297 609L300 605L315 610L312 603L319 602L316 598C321.733 599.327 334.943 607.077 339 601L345 601L344 595L324 586C333.618 577.141 322.427 575.119 316 568C314.306 566.123 312.323 559.317 314 562L315 562C312.288 554.611 306.219 547.451 298 547L298 541L307 540L297.592 533.783L284 509L289 512C294.272 507.022 307.867 515.366 312 520L313 520L313 515L318 516L314 509C319.382 512.515 326.22 519.917 332.981 519.883C338.543 519.856 340.624 512.568 337.821 508.317C336.12 505.737 331.699 505.154 329 504L329 503L342 495C335.226 496.314 329.165 498.733 324 493C337.173 489.456 323.452 486.247 320 483L316 484L317 481C323.507 482.253 325.797 477.232 331.039 474.568C341.43 469.288 352.908 465.523 364 462L361 456L356 458L355 452L355 451L372 444C369.675 440.308 364.309 440.325 362.507 436.12C359.257 428.537 377.969 428.318 382 428L382 427L352 418C353.883 425.686 348.605 428.422 343 432.714C333.369 440.088 314.917 446.797 303 444L306 438L302 438L301 433L295 436L306.088 425.736L305 411L293 412L298 386L301 388L301 385L304 379L308 382C305.579 377.414 306.188 369.523 301 368L312 355C307.103 350.768 307.01 345.458 314 344L314 343L311 342L319 333L322 336L320.708 322.409L332 315L335 316C338.622 309.852 342.594 304.897 339 298L350 295L353 300L345 275L349 278L350 278L352 267L349 255L346 256L344 252C339.211 251.361 337.514 246.102 336 242C340.748 240.695 342.248 242.179 346 245L344 236L352 240L356 238L357 243L361 241L360 232L360 231L355 225L364 228L369 224L370 221C373.934 223.333 378.996 227.018 381 221C377.409 217.483 377.892 213.655 379 209L383 213L385 213L387 205L395 208L394 202L395 202L396 208L397 208L398 204L419 219L423 215L419 201C427.218 208.887 431.416 219.577 436 230L444 226C445.806 229.201 447.42 229.403 451 229L461 247L461 237L458 234L462 234L460 227L469 231L473 229C472.587 233.382 474.492 236.069 479 236L468 213C471.469 214.665 472.015 216.227 472 220L473 220L480.015 210.985L487 178L490 180L484 163L487 164C490.631 158.674 494.049 157.707 497 164L498 164L496 151L497 151L499 156L500 156C499.509 144.172 501.615 143.833 511 138L514 144L516 133L522 148L523 148L524 134L525 134C524.524 118.713 531.938 134.513 532 142L536 142L537 148L538 145L543 156C553.68 156.153 551.6 167.46 553 175L554 175L559 157L560 157L561 164L562 164L561 150L562 150L568 160L568 137L569 137L574 141L575 138L579 140L579 135L585 145L586 145L587 135L585 136L585 135L591 136L592 136L597 136C600.42 129.414 595.836 128.208 594.394 121.996C593.16 116.676 594 110.44 594 105L599 112C610.548 99.6921 602.438 87.8379 604.129 73C605.293 62.7783 611.308 53.537 612 43L615 44L618 35L621 36L626.492 14.0393L634 0L564 0L423 0L0 0z"/>
<path style="fill:#040404; stroke:none;" d="M632 0L633 1L632 0M634 0L626.492 13.0895L621 36L618 35L615 44L612 43C610.71 52.9202 605.246 62.1978 604.129 72C602.321 87.8682 608.675 97.9332 599 112L594 105L594.394 122.985L597 136L592 136L591 136C588.688 134.255 587.021 133.717 585 136L587 135L587 136L586 145L585 145L579 135L579 140L575 138L574 141L569 137L568 137L568 160L562 150L561 150L562 164L561 164L560 157L559 157L554 175L553 175C552.119 168.032 553.634 154.308 543 156C542.37 152.742 540.952 141.961 537 148L536 142L532 142C531.976 133.431 523.781 117.841 525 134L524 134L523 132L523 148L522 148C521.245 142.034 520.957 136.929 516 133L514 144L511 138C500.778 142.225 498.696 144.792 500 156L499 156L497 151L496 151L498 164L497 164C494.76 157.09 489.931 157.784 487 164L484 163L490 180L487 178L480.426 208.999L473 220L472 220C472.202 216.093 471.906 214.212 468 213L479 236C474.959 235.053 473.421 233.112 473 229L469 231L460 227L462 234L458 234L461 237L461 247L451 229L444 226L436 230C433.148 220.399 427.335 206.715 419 201L423 215L419 219C412.651 213.205 406.634 206.081 398 204L397 208L396 208L395 202L394 202L395 208L387 205L385 213L383 213L379 209C377.745 213.246 376.9 218.342 381 221C378.098 226.112 374.312 222.772 370 221L369 224L364 228L355 225L360 231L360 232L361 241L357 243L356 238L352 240C350.09 236.361 348.052 235.25 344 236L346 245C342.609 241.583 340.67 240.271 336 242C337.145 246.541 338.788 251.743 344 252L349 255L352 267L350 278L349 278L345 275L353 300L350 295L339 298C341.393 305.327 337.787 309.339 335 316L332 315L320.619 321.656L322 336L319 333L311 342L314 343L314 344C306.868 344.821 305.857 351.522 312 355C306.659 359.203 303.206 361.309 301 368L304 368L308 382L304 379L301 388L298 386L293 412L305 411L305.627 425.736L295 436L301 433L302 438L306 438L303 444C315.229 447.605 334.156 440.261 344 432.714C349.502 428.495 354.936 425.449 352 418L382 427L382 428C377.434 428.196 356.588 428.581 362.898 437.722C364.995 440.76 369.433 441.301 372 444L355 451L355 452L356 458L361 456L364 462C349.816 465.244 335.741 471.204 323.911 479.349C321.125 481.267 318.103 481.308 316 484L320 483C322.921 487.049 336.778 487.865 324 493C327.889 499.341 335.915 496.574 342 495L329 503L329 504C331.842 505.551 336.093 506.154 337.817 509.148C340.305 513.468 337.553 520.423 331.995 519.638C325.529 518.725 319.93 511.627 314 509L318 516L313 515L313 520L312 520C309.026 515.062 292.976 505.944 289 512L284 509C287.585 522.935 296.494 532.046 307 540L298 541L298 547C305.986 547.892 311.427 555.327 315 562L314 562L313 560C310.848 573.291 333.625 573.317 324 586C329.966 589.362 337.374 596.513 344 595L345 601L339 601C333.251 606.204 322.736 598.995 316 598L319 602L312 603L315 610L300 605L297 609L319 626C316.605 625.358 314.292 624.622 311.998 623.665C297.666 617.686 310.668 636.462 315.576 640.13C317.459 641.537 319.669 643.004 320.863 645.093C322.181 647.401 321.183 648.953 320 651L318 646L316 646L315 650L300 641C300.738 644.443 309.674 658.591 308.118 660.397C305.297 663.67 298.717 658.833 295.752 663.302C293.626 666.506 297.706 668.191 300 669L297 684L296 684C293.904 677.822 280.83 671.525 278 680C271.01 677.308 265.138 675.988 258 679L275 692L272 693L272 694L286 701C288.109 707.745 299.741 712.421 306 715L304 719L330 731L330 732L308 732C305.063 723.051 291.691 721.721 284.005 718.911C279.816 717.38 277.677 713.214 273.946 710.935C266.472 706.37 261.441 708.024 254 706.078C249.775 704.973 247.566 702.248 243 703L248 713L236 723L235 723L227 721C230.259 732.102 241.039 725.684 247.707 731.653C252.089 735.575 246.544 740.996 249.707 744.306C251.892 746.593 255.142 744.398 257 743L260 752C253.498 751.797 249.945 752.936 249 760L254 757C254.597 764.5 248.246 766.937 244 772L247 773L245 786C250.908 786.947 254.712 789.725 260.039 790.968C265.229 792.179 269.832 788.863 271 796C277.94 794.415 278.624 800.557 278 806C293.177 805.104 286.755 811.8 284 821L294 817C296.629 830.868 304.149 826.848 315 831C310.221 841.036 301.413 848.172 291 851L293 856L289 855L290 860L299 859L298 868C302.073 865.369 304.152 863.896 309 865C304.522 869.882 295.549 874.589 294.917 882.004C294.535 886.473 298.045 891.034 298 896C304.009 891.802 305.73 885.898 306 879L308 882L326.775 876.937L336 866L336 872L340 870L341 870L344 876L341 877L339 888C341.342 892.105 335.972 896.611 333 899L333 901C341.577 901.389 347.799 895.311 348 887L349 887L350 892L354 890C351.027 898.359 342.487 906.768 345 916L353 912L354 915L359 909L360 909L359 932L355 930L354 931C354.729 938.218 356.124 941.443 352 948L356 952L364 950C364.506 942.443 369.213 936.993 376 934C374.278 938.099 373.68 940.733 377 944L377 945L374 948L377 949L382 947L382 948L377 949L377 951C382.594 952.492 387.309 949.972 392 947L393 962L390 964L393 973L403 961L404 961L407 963L402 983C417.983 980.211 408.286 991.762 407 1000L422 995L422 1000L427 995L428 995L428 1000L433 998L440 1021L446 1019L449 1024C458.412 1014.86 470.624 1026.97 481 1028C481.224 1017.17 476.859 1003.27 480.617 993C482.123 988.883 483.602 982.376 489 984C489.89 978.13 487.775 974.92 494 972L495 985L499 986L500 986L506 977L508 983L512 971L514 971L515 979L516 979L517 973L519 974L517 963L523 972L523 967L534 986L539 984L538 986L541.589 978.921L554 990L552 963L556 967L567.593 967.748L568.825 960.001L560 941L563 933L571 944L576 941L577 945L578 945L580 937L581 939L582 939L582 929L585 929L583 919L591 930L592 930C591.999 923.951 592.882 915.434 587 912L590 909L590 913L591 913C597.169 900.684 593.394 885.888 591 873L592 873C593.815 876.572 596.956 880.226 601 878C605.05 881.462 607.595 880.198 608 875C627.256 880.193 626.82 900.622 639 912L640 909L641 909C644.998 924.857 660.323 926.913 668.769 939C671.208 942.49 675.771 947.249 674.879 951.961C673.337 960.098 662.475 968.269 659 976L667 972L659 988C669.515 987.551 671.823 973.799 675 966L676 966L676 973L700 961L695 971L707.961 963.425L718 963L727.404 978.914L712 1000L717 999C713.119 1002.53 714.929 1005.9 712.372 1009.79C709.51 1014.15 688.396 1025.57 703 1030L708 1024L709 1031L722 1025L726 1029L725 1034L731 1029L733 1031L733 1032C727.342 1035.88 727.327 1046.81 725.852 1053C723.996 1060.79 719.493 1064.29 720 1073L730 1072C731.325 1065.44 736.427 1063.79 740.2 1058.9C745.298 1052.29 743.768 1040.77 753 1038L755 1033L756 1036L759 1036L760 1033L764 1038L766 1038L769 1035L772 1046L778 1039L784 1044L783 1027L789 1026L788 1036L795 1029L801 1029C797.505 1037.31 788.776 1046.49 802 1051L803 1057C811.876 1053.74 802.42 1044 813 1041L815 1048L816 1041L818 1041L817 1057C825.98 1057.17 824.017 1073.82 824 1080L831 1066L832 1073C836.049 1072.87 837.359 1074.01 838 1078C843.09 1074.62 843.422 1063.78 845 1058L846 1058L848 1063L848 1064C843.612 1067.1 843.944 1073.54 846 1078L849 1076L849 1069L852 1069L851 1080C855.798 1076.83 862.902 1057.92 863.477 1052C863.768 1048.99 860.238 1045.01 861.341 1042.46C862.344 1040.15 866.54 1042.47 868 1043L864 1061C872.365 1062.19 877.524 1045.65 876 1039L884 1037L884 1043C887.689 1040.97 888.403 1038.5 886 1035L888 1029C893.727 1030.23 895.346 1027.48 900 1025C900.968 1028.45 902.628 1028.58 906 1028L911 1046L914 1046C914 1033.91 911.541 1020.99 920 1011L921 1022L923 1022L927 1013L932 1015L931 1018L934 1019C931.885 1026.79 939.123 1032.83 945 1037L941 1012L949 1014L949 1016L958 1009C956.56 1012.99 955.241 1016.42 960 1018L960 1012C966.872 1014.79 970.048 1009.17 968 1003L972 1004L970 989L974 993L976 993L982 989C983.315 984.157 981.654 981.079 979 977L986 975C986.833 986.268 991.341 1006.47 1003 1011L1004.57 1020.42L1003 1044C1007.35 1042.73 1007.3 1037.99 1008 1034L1009 1034L1010 1052L1018 1050L1026 1030L1027 1037C1040.47 1037.63 1037.58 1053.1 1047 1058C1047.88 1051.25 1041.19 1040.86 1037.66 1035.09C1036.38 1032.99 1033.13 1030.22 1033.39 1027.54C1033.76 1023.84 1042.28 1016.71 1044 1012L1045 1012C1044.15 1025.26 1047.36 1036.93 1054.68 1048C1056.96 1051.45 1059.9 1056.97 1064.09 1058.35C1068.36 1059.76 1072.75 1055.39 1077 1055L1076 1060L1078 1060L1078 1055L1079 1054L1084 1059C1093.64 1055.28 1080.49 1039.01 1073 1040L1069 1036L1070 1033L1063 1032L1064 1029L1072 1032L1069 1013L1080 1014C1087.8 1004.66 1107.83 996.527 1112 985C1118.38 988.046 1119.94 993.322 1120 1000L1128 1000L1125.5 971.004L1131 962C1138.2 967.122 1134.18 979.602 1145 979C1147.72 985.412 1156.55 990.944 1163 993C1162.43 984.589 1152.04 972.24 1160 965L1160 971L1164 962L1160 957C1163.5 957.092 1167.49 961.244 1168 957L1169 957L1171 968L1176 967L1175 970L1180 969L1176 976L1188 971L1192 976L1192 971C1196.94 973.929 1193.97 979.086 1195 984L1200 981L1201 986L1210 983L1211 979L1212 979L1222 1002C1230.53 997.294 1223.58 988.555 1220 983L1221 982L1230 996L1232 996C1234.57 989.207 1230.84 985.01 1228 979L1233 978L1235 983L1236 983C1235.41 975.117 1226.44 969.126 1219 968C1218.12 959.412 1212.88 952.753 1216 944L1217 944L1222 962L1227 966L1232 964C1230.23 959.57 1227.32 957.58 1230 953L1230 957L1234 956L1233 951L1239 960L1240 960L1241 958C1238.89 953.051 1240.7 948.585 1243 944L1244 944L1250 952L1254 927L1255 927L1256 932L1259 932L1262 926L1279 938L1277 933C1283.6 933.4 1282.1 938.92 1282 944L1283 944L1284 939C1287.89 941.76 1291.09 942.434 1292 937L1294 937C1294.2 940.569 1294.46 942.757 1298 944L1287.54 917.791L1285 901C1289.26 904.928 1290.45 909.729 1297 909C1298.11 921.585 1311.32 921.632 1315 932L1336 939L1344 944L1348 939L1349 942L1351 942L1354 933C1357.92 935.479 1362.59 938.51 1367 936L1374 940L1374 936L1377 936L1375 927L1383 926L1385 933L1386 933L1387 928L1396 934L1393 910L1396 912C1395.98 908.089 1393.18 901.194 1398 900L1396 903L1401 902L1403 900L1402 891L1405 887C1409.23 890.528 1412.99 891.355 1414 885C1421.38 888.702 1423.97 887.189 1424 879L1439 880L1434 873L1453 866L1456 860L1452 855L1462 856L1459 849L1466 850L1464 838L1471 838L1479 834L1478 830C1483.18 827.975 1487.61 823.423 1481 820L1477 807L1489 804L1490 799L1485 801L1487 790C1477.62 789.342 1451.28 779.183 1450 796L1437.79 783.669L1422 767L1432 778C1444.23 777.953 1443.3 779.139 1443 767C1454.83 770.491 1454.55 762.443 1454 754C1464.42 757.014 1474.38 758.227 1485 755L1494 755L1494 753L1488 747L1492 741L1482 735L1494 736L1486 721L1491 721L1514 718.582L1528 714L1518 701L1510 697L1496 693L1520 692L1512 688L1512 687C1521.98 683.152 1509.12 679.316 1505 678L1504 671C1509.5 669.123 1514.39 663.493 1520.01 663.062C1541.81 661.393 1548.83 687.246 1567 694L1574 691L1573 688C1579.19 685.723 1577.21 681.294 1576 676L1581 676C1580.8 667.468 1576.53 661.593 1573.46 654C1569.38 643.923 1566.82 633.886 1559.57 625.301C1556.65 621.839 1552.3 620.253 1549.42 616.867C1543.06 609.388 1549.32 600.414 1536 598L1540 592L1537 587C1548.33 583.364 1541.31 577.11 1541 569L1539 570L1539 569L1541 560L1560 561.504L1571 564L1570 553L1574 552L1576 548L1576 547C1574.43 544.508 1571.72 541.57 1571.33 538.576C1570.94 535.5 1572.87 532.375 1570.99 529.454C1566.91 523.139 1560.15 518.503 1556.8 511.004C1554.43 505.694 1554.46 496.142 1549 494L1554 488L1554 487C1550.51 485.943 1549.57 484.583 1549 481L1558 482L1560 475L1559 480C1568.2 476.086 1571.73 478.793 1581 480L1581 479L1578 471C1588.93 471.831 1594.97 467.955 1598 457L1592 450L1598 448L1599 448L1601 439L1596 433L1595 433L1592 436L1604 424L1604 422L1592.42 420.602L1580 412L1581 409L1569 396C1570.67 390.491 1574.61 378.027 1568 376L1567 372C1568.37 366.176 1568.74 358.729 1561 359L1562 352L1558 352L1556 346L1551 346L1548 325L1540 323L1543 318C1552.23 322.72 1558.91 306.965 1569 312L1576 306L1576 302L1580 304L1580 297L1582 300L1585 294L1575 292L1574 287L1577 284L1578 284L1580 288L1576 278L1576 274L1568 276L1573 272L1572 267L1550 264L1550 263C1556.47 259.318 1555.05 254.019 1550 250L1549 250L1525 249.059L1511 253.105L1492 251.624L1476 254L1476 251L1460 255C1459.84 250.26 1458.72 248.671 1454 248L1460 237L1443 244L1444 231L1427 239L1421 242C1421.85 239.542 1424.72 236.494 1424.67 233.93C1424.56 228.458 1412.84 228.785 1409 229L1409 225L1399 230L1399 227C1392.1 227.925 1382.9 227.47 1379 234L1375 222L1372 223L1371 222L1373 211C1389.34 204.091 1391.92 190.246 1400.02 177C1403.56 171.213 1410.88 165.8 1412.32 159C1414.05 150.842 1411.28 142.146 1414.11 134C1418.24 122.106 1426.33 114.263 1428 101L1424 102C1420.88 96.1571 1416.45 96.6457 1411 99C1405.56 93.0495 1396.66 105.471 1392.91 108.53C1386.2 114.01 1380.34 117.689 1375.17 125C1372.42 128.886 1371.73 134.374 1368.57 137.812C1366.31 140.274 1362.98 139.587 1360.65 141.638C1355.26 146.402 1359.82 153.287 1350 151L1349 154L1347 150C1340.89 149.887 1337.4 150.084 1336 157L1335 157L1327 157L1324 131L1321 134L1319 135L1315 136L1314 136L1306 133L1294.6 140.745L1291.49 147.714L1280 162L1277 163L1276 163L1273 161C1271.24 164.695 1270.12 166.413 1266 165L1265 165L1261 168L1253.69 156.985L1252 143L1251 143L1249 150L1248 150C1242.97 140.431 1239.68 137.759 1229 137L1227 139L1227 144L1214 139L1214 148L1208 141L1206 141L1205 144L1203 141L1200 142C1201.97 150.535 1201.73 153.734 1199 162L1196 161L1194 172L1188 171C1184.53 177.67 1179.27 175.521 1173.29 177.549C1164.19 180.633 1159.21 184.541 1149 184L1151 169L1138 192L1142 177C1132.64 181.551 1131.4 199.793 1121 200L1126 179L1122 173L1111 187L1110 186L1111 176L1098 182C1100.65 175.899 1115.22 156.082 1109 152L1110 148L1109 148C1106.52 152.566 1103.19 155.243 1098 156L1098 155L1102 155C1101.35 151.002 1099.62 149.645 1096 148L1095 152L1090 150L1092 145L1096 147L1097 147L1101 144L1101 148L1103 148L1099 139C1106.35 134.151 1106.82 124.587 1112.31 118.665C1113.69 117.175 1119.32 113.507 1116.34 111.042C1110.5 106.22 1096.51 124.424 1093 128C1094.04 121.154 1099.79 116.305 1102.01 109.83C1103.35 105.924 1102.2 101.895 1103.2 98C1106.16 86.3918 1108.91 77.5619 1108 65L1106 65L1103 73L1102 72L1104 67L1099 67L1099 56L1086 65L1085 53L1088 50L1074 64L1076 59C1066.27 62.6351 1060.64 76.0491 1057 85L1056 85C1056.44 76.9409 1072.03 57.8476 1063 52L1064 49L1063 42L1062 41L1060 41L1057 51L1056 51L1052 28L1046 35C1037.57 31.174 1038.21 42.4094 1033 47L1030 39L1028 44L1024 42L1025 20L1016 33C1016.17 29.6128 1016.83 10.5511 1012.26 11.8318C1008.74 12.8191 1009.48 26.7019 1008.36 30C1006.45 35.6737 1002.38 35.729 998.651 39.3279C994.657 43.1805 992.178 48.2914 988 52L989 46C980.655 49.641 983.329 63.8302 975 64L977 59L971 60L972 47L971 47L967 58L963 55C957.481 62.7101 954.261 69.3099 946 74C943.957 65.1492 947.511 60.0983 937 56L936 68C931.713 67.68 929.279 66.1682 928 62L927 62L925 70L914 62C909.378 64.2056 907.144 58.8407 906 55L899 54L900 50L895 44L887 44L892 62L890 62C888.133 55.306 883.61 52.6611 878 49L879 64C875.946 58.5297 873.737 55.1182 867 56L868 53L863 54L863 47L860 47L861 51L860 52L858 52L853 43L852 43L852 56L846 50L845 50L844 66L828 51C829.877 56.3666 832.898 64.7369 827 68C827.5 61.0768 823.963 57.2299 817 57L816 71L813 70L810 65L808 76C803.997 72.6552 797.085 64.0081 794 73L788 72C788.216 65.8953 780.183 64.0887 782 69C776.913 70.3705 774.494 70.4243 773 65L772 65L772 70L771 70L770 65L769 65L764 72L758 71L764 83C760.612 88.4542 754.047 88.9153 758 96C749.413 97.4313 757.617 103.717 762 105L761 108L756 106L756 102L755 102C751.429 107.51 740.63 101.425 737 97L733 99L729 93L730 100L726 100C728.542 106.709 736.298 105.601 735 114L730 110C727.456 113.219 724.578 111.453 722 109L720 109C719.262 116.952 725.531 118.735 728.899 124.414C737.396 138.743 745.064 146.239 760.83 153.459C771.248 158.23 776.195 163.582 783 151L786.29 179L789 201L787 201C784.031 195.24 777.021 181.634 770.029 180.256C760.771 178.432 764.346 197.113 766 201L765 202L757 195L752 195L752 190C747.674 190.185 736.376 189.348 735.427 195.115C734.67 199.714 740.21 201.707 737 206L738 203L736 202L735 202L731 207C722.595 189.7 701.058 183.56 691.593 168.409C686.232 159.827 693.98 145.924 684 140C687.568 133.638 687.596 126.964 689.123 120C691.344 109.88 695.69 103.271 692 93L688 94L681 69L680 72L679 72L673.329 51L677.797 32L675 0L644 0L643 7L640 6L640 0L634 0z"/>
<path style="fill:#fdfdfd; stroke:none;" d="M640 0L640 6L643 7C644.679 3.11047 644.486 0.781372 640 0M664 0L665 1L664 0M675 0L677.62 32L673.194 52L679 72L680 72L681 69L688 94L692 93C695.366 106.664 689.352 126.866 684 140C693.196 148.253 685.366 160.852 692.144 170.065C695.671 174.858 702.384 178.197 706.985 182C715.735 189.233 724.495 197.67 731 207L735 202L738 203L737 205L737 206L740 205C739.01 202.137 735.783 199.024 735.748 196.015C735.673 189.71 747.867 190.326 752 190L752 195L757 195C758.181 199.221 760.93 200.776 765 202L766 201C764.921 197.316 761.088 177.288 770.976 181.35C777.906 184.197 782.69 195.26 787 201L789 201C790.93 193.765 787.076 185.346 786.304 178C785.19 167.392 788.424 161.4 783 151C780.625 154.109 779.291 158.291 774.985 159.242C770.118 160.317 766.432 155.996 762.576 153.891C750.814 147.473 741.155 142.573 732.225 131.87C730.053 129.267 730.744 126.18 728.962 123.669C725.228 118.407 720.517 116.286 720 109L722 109C723.643 112.039 728.988 114.625 730 110L735 114C736.923 105.577 729.588 106.205 726 100L730 100L729 93L733 99L737 97C739.621 101.868 752.206 108.254 755 102L756 102L756 106L761 108L762 105C758.191 103.191 750.711 98.2651 758 96C754.927 88.4553 761.375 89.2051 764 83L758 71L764 72L769 65L770 65L771 70L772 70L772 65L773 65C773.638 71.0319 776.809 70.9272 782 69L780 67C784.498 65.59 787.845 66.9037 788 72L794 73C798.39 65.3745 803.129 73.1038 808 76L810 65L813 70L816 71L817 57C823.505 57.4963 827.169 61.5851 827 68C833.522 65.8353 830.167 55.8055 828 51L844 66L845 50L846 50L852 56L852 43L853 43L858 52L860 52L861 51L860 47L863 47L863 54L868 53L867 56C873.532 55.902 875.294 59.3146 879 64L878 49L890 62L892 62C893.362 54.9965 889.851 50.1089 887 44L895 44L900 50L899 54L906 55C906.629 58.4611 909.826 66.3136 914 62L925 70L927 62L928 62C928.78 66.6403 931.358 68.4288 936 68L937 56C946.931 61.6447 943.079 64.8933 946 74C954.509 70.2831 958.712 63.233 963 55L967 58L971 47L972 47L971 60L977 59L975 64C982.921 64.3034 982.057 50.4753 989 46L988 52C993.098 49.0045 995.119 43.2175 999.464 39.3882C1002.98 36.2863 1006.65 36.0145 1008.36 30.9993C1009.54 27.5455 1008.8 13.6864 1012.27 12.4614C1015.86 11.1953 1016.05 29.5925 1016 33L1025 20L1024 42L1028 44L1030 39L1033 47C1039.23 43.1062 1037.06 32.3866 1046 35L1052 28L1056 51L1057 51L1060 41L1062 41L1063 42L1064 49L1063 52C1070.96 59.8797 1056.23 75.5072 1056 85L1057 85C1062.46 75.7478 1066.12 64.5697 1076 59L1074 64L1088 50L1085 53L1086 65L1099 56L1099 67L1104 67L1102 72L1103 73L1106 65L1108 65L1107.52 87L1102.81 98L1102.01 108.911L1093 128C1098.13 124.223 1107.72 109.37 1114.79 110.88C1118.27 111.623 1115.18 115.12 1113.98 116.336C1107.64 122.745 1105.73 132.477 1099 139L1103 148L1101 148L1101 144L1097 147L1096 147L1092 145L1090 150L1095 152L1096 148L1102 155L1098 155L1098 156C1103.48 155.602 1107.14 153.243 1109 148L1110 148L1109 152C1114.41 157.707 1100.01 174.51 1098 182L1111 176L1110 186L1111 187L1122 173L1126 179L1121 200C1130.68 200.355 1134.32 182.513 1142 177L1138 192C1148.54 188.601 1144.37 175.346 1151 169L1149 184C1159.57 185.818 1164.89 180.617 1174.17 177.549C1179.76 175.703 1185.8 178.033 1188 171L1194 172L1196 161L1199 162C1202.6 154.086 1202.69 150.273 1200 142L1203 141L1205 144L1206 141L1208 141L1214 148L1214 139L1227 144L1227 139L1229 137C1239.72 138.627 1241.78 141.264 1248 150L1249 150L1251 143L1252 143L1253.3 156.946L1261 168L1265 165L1266 165C1269.97 167.747 1271.73 164.827 1273 161L1276 163L1277 163L1280 162L1294.6 141.448L1306 133L1314 136L1315 136L1319 135L1321 134L1324 131L1327 157L1335 157L1336 157C1338.07 150.946 1341.14 150.382 1347 150L1349 154L1350 151C1360.19 154.607 1355.33 146.143 1361.39 141.769C1363.62 140.167 1366.5 140.721 1368.57 138.668C1372.02 135.252 1372.93 129.035 1375.9 125C1381.21 117.793 1387.19 114.108 1393.83 108.53C1398.23 104.833 1404.39 94.9528 1411 99C1416.7 97.4138 1420.02 97.0804 1424 102L1428 101C1425.01 113.241 1417.13 122.469 1413.79 134C1411.44 142.108 1414.07 151.084 1411.86 159C1410.06 165.434 1403.45 170.393 1400.02 176C1397.74 179.723 1397.64 184.169 1395.58 188C1390.42 197.612 1382.16 205.296 1373 211L1371 222L1372 223L1375 222L1379 234C1384.48 227.752 1391.61 229.121 1399 227L1399 230L1409 225L1409 229C1412.65 229.038 1423.37 229.042 1424.25 233.559C1424.69 235.859 1421.51 239.542 1421 242L1427 239L1444 231L1443 244L1460 237L1454 248C1458.41 249.081 1459.68 250.409 1460 255L1476 251L1476 254C1481.51 253.985 1486.61 252.146 1492 251.978C1498.29 251.783 1504.74 254.17 1511 253.346C1516.22 252.657 1520.82 249.337 1526 249.073C1533.12 248.711 1542.68 254.712 1549 250L1550 250C1554.48 254.906 1555.63 258.159 1550 263L1550 264L1572 267L1573 272L1568 276L1576 274L1576 278L1580 288L1578 284L1577 284L1574 287L1575 292L1585 294L1582 300L1582 297L1580 297L1580 304L1576 302L1576 306L1569 312C1559.72 305.754 1552.23 321.21 1543 318L1540 323L1548 325L1551 346L1556 346L1558 352L1562 352L1561 359C1568.39 359.185 1568 366.361 1567 372L1568 376C1573.83 379.121 1570.06 390.253 1569 396L1581 409L1580 412C1588.95 419.107 1593.4 419.476 1604 422L1604 424L1592 436L1595 433L1596 433L1601 439L1599 448L1598 448L1597 446L1592 450L1598 457C1593.96 467.202 1588.94 471.372 1578 471C1577.4 474.896 1577.41 477.002 1581 479L1581 480C1572.25 478.024 1567.33 474.784 1559 480L1560 475L1558 482L1549 481C1549.3 484.864 1550.09 486.348 1554 487L1554 488L1549 494L1556.8 512.001L1571.05 530.263L1576 547L1576 548L1574 552L1570 553L1571 564L1560 561.249L1541 560L1539 570L1541 569L1541 570C1541.37 578.062 1546.8 582.483 1537 587L1540 592L1536 598C1548.64 601.753 1542.79 609.013 1548.7 616.867C1551.57 620.679 1556.49 622.355 1559.57 626.174C1566.66 634.963 1569.35 644.842 1573.46 655C1576.37 662.204 1580.59 667.935 1581 676L1576 676L1574 691C1570.37 690.177 1568.95 690.829 1567 694C1550.11 684.991 1540.1 659.522 1518.09 663.148C1513.32 663.934 1508.48 668.862 1504 671L1505 678C1509.28 679.843 1520.61 682.271 1512 687L1512 688L1520 692L1496 693C1499.75 697.491 1504.51 696.969 1510 697C1511.37 700.884 1514.18 700.907 1518 701L1528 714C1522.38 712.913 1519.1 716.643 1514 718.301C1507.2 720.512 1495.31 715.031 1491 721L1486 721L1494 736L1482 735C1484.38 739.215 1487.25 740.568 1492 741L1488 747L1494 753L1494 755L1485 755C1473.72 757.717 1465.06 756.311 1454 754C1454.25 762.407 1454.27 769.645 1443 767C1442.59 779.688 1443.81 776.56 1432 778L1422 767C1424.3 775.457 1431.93 778.809 1437.79 784.464C1442.22 788.744 1443.98 793.445 1450 796C1452.73 778.481 1477.32 790.907 1487 790L1485 801L1490 799L1489 804L1487 802L1477 807L1481 820C1486.54 824.214 1482.89 827.158 1478 830L1479 834C1474.86 833.541 1472.92 834.235 1471 838L1464 838L1466 850L1459 849L1462 856L1452 855L1456 860L1453 866L1434 873L1439 880L1424 879C1423.9 887.173 1421.01 887.462 1414 885C1412.36 890.593 1409.32 889.58 1405 887L1402 891L1403 900L1401 902L1396 903L1398 900C1392.51 901.122 1395.88 907.732 1396 912L1393 910C1393.05 919.194 1390.99 925.799 1396 934L1387 928L1386 933L1385 933L1383 926L1375 927L1377 936L1374 936L1374 940L1367 936L1354 933L1351 942L1349 942L1348 939L1344 944L1336 939L1315 932C1312.79 921.502 1298.81 921.049 1297 909L1285 901L1286.95 917.791L1291.99 925.043L1298 944L1294 937L1292 937C1290.53 941.79 1287.94 941.048 1284 939L1283 944L1282 944C1282.23 938.703 1284.16 932.998 1277 933L1279 938L1262 926L1259 932L1256 932L1255 927L1254 927L1250 952L1244 944L1243 944L1240 960L1239 960L1233 951L1234 956L1230 957L1230 953C1226 957.054 1229.58 959.914 1232 964L1227 966L1222 962L1217 944L1216 944C1212.07 952.211 1217.55 959.817 1219 968C1225.95 969.889 1234.84 975.487 1236 983L1235 983L1233 978L1228 979C1230.03 985.37 1234.06 989.056 1232 996L1230 996C1229.22 990.241 1225.87 985.179 1221 982L1220 983C1223.09 989.886 1229.79 995.51 1222 1002L1212 979L1211 979L1210 983L1201 986L1200 981L1195 984C1194.41 979.206 1197.69 973.003 1192 971L1192 976L1188 971L1176 976L1180 969L1175 970L1176 967L1171 968L1169 957L1168 957L1168 960L1160 957L1164 962L1160 971L1160 965C1151.03 970.262 1162.06 985.786 1163 993L1145 979C1133.74 978.968 1139.57 966.054 1131 962C1122.29 974.177 1124.84 985.871 1128 1000L1120 1000C1119.98 993.377 1119.2 987.071 1112 985L1080 1014L1069 1013L1072 1032L1064 1029L1063 1032L1070 1033L1069 1036L1073 1040C1080.06 1039.89 1092.55 1054.3 1084 1059L1079 1054L1078 1055L1078 1060L1076 1060L1075 1059L1077 1055C1072.53 1054.57 1068.27 1059.62 1064.09 1057.86C1049.11 1051.59 1044.93 1025.74 1045 1012L1044 1012L1033.14 1027.26L1037.66 1036.04L1047 1058C1038.82 1051.58 1040.18 1036.75 1027 1037L1026 1030L1018 1050L1010 1052L1009 1034L1008 1034L1003 1044L1003 1011C991.451 1004.31 987.811 987.218 986 975L979 977L982 989C978.436 988.638 977.424 989.776 976 993L974 993L970 989L972 1004L968 1003C969.138 1009.01 966.545 1013.38 960 1012L960 1018C955.976 1015.72 956.975 1013.05 958 1009L949 1016L949 1014L941 1012L945 1037C939.92 1031.89 932.553 1026.89 934 1019L931 1018L932 1015L927 1013L923 1022L921 1022L920 1011C910.393 1019 914 1035.05 914 1046L911 1046L906 1028L900 1025L888 1029L886 1035C887.871 1038.64 887.049 1040.44 884 1043L884 1037L876 1039C876.769 1046.13 872.29 1060.64 864 1061L868 1043L861.086 1041.66L863.038 1053L853 1080L1920 1080L1920 0L675 0z"/>
<path style="fill:#040404; stroke:none;" d="M1028 19L1029 21L1030 21L1031 19L1028 19M1028 23L1029 24L1028 23M1031 29L1030 32L1031 29z"/>
<path style="fill:#fdfdfd; stroke:none;" d="M1013 31L1014 32L1013 31M1022 37L1022 40L1024 40L1024 37L1022 37M1044 39L1042 56L1043 56L1044 39M1002 42L1001 44L1003 44L1002 42M1027 47L1028 48L1027 47M1028.67 49.3334L1029.33 49.6666L1028.67 49.3334z"/>
<path style="fill:#040404; stroke:none;" d="M1091 55L1091 56L1094 56L1091 55M978.667 57.3333L979.333 57.6667L978.667 57.3333M815 59L816 60L815 59M928.333 59.6667L928.667 60.3333L928.333 59.6667z"/>
<path style="fill:#fdfdfd; stroke:none;" d="M823 61L824 62L823 61M1094.67 61.3333L1095.33 61.6667L1094.67 61.3333z"/>
<path style="fill:#040404; stroke:none;" d="M792 63L790 67L794 68L792 63z"/>
<path style="fill:#fdfdfd; stroke:none;" d="M867 63L868 64L867 63M963 63L964 64L963 63z"/>
<path style="fill:#040404; stroke:none;" d="M920 65L920 67L922 67L920 65z"/>
<path style="fill:#fdfdfd; stroke:none;" d="M970 68L974 66L970 68M1092 66L1093 67L1092 66z"/>
<path style="fill:#040404; stroke:none;" d="M950.667 67.3333L951.333 67.6667L950.667 67.3333z"/>
<path style="fill:#fdfdfd; stroke:none;" d="M783 69L784 70L783 69M1073 70L1072 72L1074 72L1073 70M783 71L784 72L783 71M924 71L925 72L924 71M794.667 75.3333L795.333 75.6667L794.667 75.3333M1063 81L1065 83L1063 81M1055 85L1055 88L1056 88L1055 85M687 94L688 95L687 94z"/>
<path style="fill:#040404; stroke:none;" d="M1126.67 95.3333L1127.33 95.6667L1126.67 95.3333M1124 97L1122 102L1126 102L1126 97L1124 97M726 98L727 99L726 98M1119 110C1122.54 108.927 1123.54 107.675 1123 104L1119 110M1104 106L1104 108L1106 108L1106 106L1104 106M506.667 107.333L507.333 107.667L506.667 107.333M1110.67 107.333L1111.33 107.667L1110.67 107.333M1104 109L1105 110L1104 109M521 129L523 132L521 129M585 132L586 133L585 132z"/>
<path style="fill:#fdfdfd; stroke:none;" d="M1317 137L1318 138L1317 137z"/>
<path style="fill:#040404; stroke:none;" d="M533 140L534 141L533 140M1109 142L1109 144L1111 144L1109 142z"/>
<path style="fill:#fdfdfd; stroke:none;" d="M1108 153L1109 154L1108 153M1107.67 155.333L1108.33 155.667L1107.67 155.333M1074 162L1074 164L1076 164L1076 162L1074 162M1094 162L1091 168C1093.66 167.465 1094.56 164.943 1096 168L1097 168L1096 162L1094 162M570 165L571 169L572 169L570 165M689 169L690 170L689 169M572 170L572 172L574 172L574 170L572 170M1089 170L1090 171L1089 170M689 171L690 172L689 171z"/>
<path style="fill:#040404; stroke:none;" d="M1112 171L1114 176L1112 171z"/>
<path style="fill:#fdfdfd; stroke:none;" d="M554 176L557 182L554 176M695 179L699 184L695 179z"/>
<path style="fill:#040404; stroke:none;" d="M1158 179L1159 180L1158 179z"/>
<path style="fill:#fdfdfd; stroke:none;" d="M1104 181L1104 184L1106 184L1106 181L1104 181M557 183L558 184L557 183M1120 183L1120 184L1123 184L1120 183z"/>
<path style="fill:#040404; stroke:none;" d="M1128.67 183.333L1129.33 183.667L1128.67 183.333M739 187L739 188L743 188L739 187z"/>
<path style="fill:#fdfdfd; stroke:none;" d="M767 187L768 188L767 187M1107 187L1108 188L1107 187z"/>
<path style="fill:#040404; stroke:none;" d="M734 199L735 200L734 199M375 207L376 208L375 207M477.333 211.667L477.667 212.333L477.333 211.667z"/>
<path style="fill:#fdfdfd; stroke:none;" d="M379 213L380 217L381 217L379 213M389 214L388 216L390 216L389 214M476 221L477 222L476 221M424 223L425 228L426 228L426 223L424 223M475 223L476 224L475 223M368 225L368 228L369 228L368 225M381 225L382 226L381 225M478 225L479 226L478 225M382 227L383 228L382 227M688 227L689 228L688 227M1375 227L1376 228L1375 227M441 231L443 233L443 234L441 236L442 237C444.333 234.346 444.02 232.823 441 231z"/>
<path style="fill:#040404; stroke:none;" d="M340 233L341 234L340 233M343 235L344 236L343 235z"/>
<path style="fill:#fdfdfd; stroke:none;" d="M463 235L464 236L463 235M466 237L466 242L467 242L468 237L466 237M441 238L440 240L442 240L441 238z"/>
<path style="fill:#040404; stroke:none;" d="M332 239L333 240L332 239M1480 251L1481 252L1480 251M348 263L349 264L348 263M349 265L350 266L349 265M1566 265L1567 266L1566 265z"/>
<path style="fill:#fdfdfd; stroke:none;" d="M350 279L351 280L350 279z"/>
<path style="fill:#040404; stroke:none;" d="M1583 283L1584 284L1583 283z"/>
<path style="fill:#fdfdfd; stroke:none;" d="M1572.33 284.667L1572.67 285.333L1572.33 284.667z"/>
<path style="fill:#040404; stroke:none;" d="M338 301L338 304L339 304L338 301z"/>
<path style="fill:#fdfdfd; stroke:none;" d="M344 307L345 308L344 307z"/>
<path style="fill:#040404; stroke:none;" d="M1562 313L1563 316L1564 316L1565 313L1562 313z"/>
<path style="fill:#fdfdfd; stroke:none;" d="M1538.67 321.333L1539.33 321.667L1538.67 321.333M1538.33 327.667L1538.67 328.333L1538.33 327.667M1502 339L1502 340L1501 354L1512 351C1510.29 345.535 1510.45 333.111 1502 339M1560 359L1561 360L1560 359M304 364L306 367L304 364M307 375L307 377L309 377L309 375L307 375M308.333 378.667L308.667 379.333L308.333 378.667z"/>
<path style="fill:#040404; stroke:none;" d="M293 399L294 400L293 399z"/>
<path style="fill:#fdfdfd; stroke:none;" d="M1583 417L1584 418L1583 417M383.667 427.333L384.333 427.667L383.667 427.333M388 429L392 432L388 429M395 435L395 436L399 436L395 435M402 439L404 441L404 439L402 439z"/>
<path style="fill:#040404; stroke:none;" d="M353 453L353 456L354 456L353 453z"/>
<path style="fill:#fdfdfd; stroke:none;" d="M369.667 457.333L370.333 457.667L369.667 457.333M379 463L380 464L379 463M1556 480L1557 481L1556 480z"/>
<path style="fill:#040404; stroke:none;" d="M1551 483L1552 484L1551 483z"/>
<path style="fill:#fdfdfd; stroke:none;" d="M1544.67 491.333L1545.33 491.667L1544.67 491.333M344.333 496.667L344.667 497.333L344.333 496.667z"/>
<path style="fill:#040404; stroke:none;" d="M311 513L311 516L313 515L313 514L311 513z"/>
<path style="fill:#fdfdfd; stroke:none;" d="M323 523L324 524L323 523M1569 535L1570 536L1569 535z"/>
<path style="fill:#040404; stroke:none;" d="M296 539L297 540L296 539z"/>
<path style="fill:#fdfdfd; stroke:none;" d="M1564 555L1564 556L1567 556L1564 555M346 601L351 604L346 601M343 605L343 608L344 608L343 605z"/>
<path style="fill:#040404; stroke:none;" d="M294 607L294 608L297 609L294 607z"/>
<path style="fill:#fdfdfd; stroke:none;" d="M316 608L316 610L318 610L316 608M1496 649L1500 648L1496 649M311 663L312 664L311 663M302.667 667.333L303.333 667.667L302.667 667.333M1498 667L1499 668L1498 667z"/>
<path style="fill:#040404; stroke:none;" d="M260.667 675.333L261.333 675.667L260.667 675.333z"/>
<path style="fill:#fdfdfd; stroke:none;" d="M1501 675L1502 676L1501 675M1575 675L1576 676L1575 675M1504 688C1506.99 687.936 1508.35 688.054 1509 685L1504 688M294.667 703.333L295.333 703.667L294.667 703.333M254 717L258 721L256 717L254 717M246 719L247 720L246 719M1481 721L1482 722L1481 721M332.667 731.333L333.333 731.667L332.667 731.333z"/>
<path style="fill:#040404; stroke:none;" d="M1494 741L1493 742L1493 743L1493 744L1496 741L1494 741z"/>
<path style="fill:#fdfdfd; stroke:none;" d="M1442 747L1445 750L1442 747M1413 750L1414 751L1413 750M1485 751L1486 752L1485 751M1414 752L1422 767L1414 752M256 771L257 772L256 771z"/>
<path style="fill:#040404; stroke:none;" d="M1446 777L1446 780L1447 780L1446 777z"/>
<path style="fill:#fdfdfd; stroke:none;" d="M264.333 778.667L264.667 779.333L264.333 778.667M250 779L251 780L250 779M265 783L266 784L265 783M259 787L260 788L259 787z"/>
<path style="fill:#040404; stroke:none;" d="M275 807L276 808L275 807z"/>
<path style="fill:#fdfdfd; stroke:none;" d="M1472.67 811.333L1473.33 811.667L1472.67 811.333M316 829L316 834L317 834L318 829L316 829z"/>
<path style="fill:#040404; stroke:none;" d="M1465.33 841.667L1465.67 842.333L1465.33 841.667z"/>
<path style="fill:#fdfdfd; stroke:none;" d="M340 859L341 860L340 859M340.667 867.333L341.333 867.667L340.667 867.333M597 871L597 872L600 872L597 871z"/>
<path style="fill:#040404; stroke:none;" d="M292.333 872.667L292.667 873.333L292.333 872.667z"/>
<path style="fill:#fdfdfd; stroke:none;" d="M300 881L297 883L297 884L300 885L300 881M1421 881L1420 884C1422.16 883.022 1422.5 882.812 1421 881z"/>
<path style="fill:#040404; stroke:none;" d="M297 889L298 890L297 889z"/>
<path style="fill:#fdfdfd; stroke:none;" d="M593 891L594 892L593 891M358 907L359 908L358 907M386.333 907.667L386.667 908.333L386.333 907.667M1184 907L1185 914L1186 914L1184 907M793 909L787 926L784 926C781.239 917.257 777.288 925.002 773 922L764 928L765 920C753.283 926.977 751.282 931.143 755.911 944C757.057 947.183 757.957 953.01 762.181 953.468C766.783 953.968 768.435 949.059 770.416 945.996C775.431 938.245 781.38 933.507 789 928.529C792.819 926.034 797.18 926.529 799 922L793 920C795.907 915.954 796.77 912.696 793 909M385 910L386 911L385 910M388 911L389 912L388 911M384 912L380 931L381 931L385 925L388 913L384 912z"/>
<path style="fill:#040404; stroke:none;" d="M792 916L793 917L792 916z"/>
<path style="fill:#fdfdfd; stroke:none;" d="M1196 919L1201 926L1196 919z"/>
<path style="fill:#040404; stroke:none;" d="M354.667 923.333L355.333 923.667L354.667 923.333z"/>
<path style="fill:#fdfdfd; stroke:none;" d="M1369 927L1371 930L1369 927M1202 928L1205 932L1202 928M1371 931L1373 933L1371 931z"/>
<path style="fill:#040404; stroke:none;" d="M1387 933L1388 934L1387 933z"/>
<path style="fill:#fdfdfd; stroke:none;" d="M1364 934L1364 936L1366 936L1364 934M573 935L574 940L575 940L575 935L573 935z"/>
<path style="fill:#040404; stroke:none;" d="M1395.67 935.333L1396.33 935.667L1395.67 935.333M369 946L373 940C369.167 940.836 368.099 942.134 369 946M1336 943L1337 944L1336 943M670 945L670 948L672 948L672 945L670 945z"/>
<path style="fill:#fdfdfd; stroke:none;" d="M1156 949L1156 952L1159 952L1159 949L1156 949M1166 949L1167 954L1169 954L1170 949L1166 949z"/>
<path style="fill:#040404; stroke:none;" d="M1242 949L1242 952L1245 952L1245 949L1242 949M391 952L392 953L391 952z"/>
<path style="fill:#fdfdfd; stroke:none;" d="M1151 953L1154 958L1151 953z"/>
<path style="fill:#040404; stroke:none;" d="M376 954L377 955L376 954z"/>
<path style="fill:#fdfdfd; stroke:none;" d="M1049 955L1049 956L1053 956L1049 955z"/>
<path style="fill:#040404; stroke:none;" d="M1251 958L1254 956L1251 958z"/>
<path style="fill:#fdfdfd; stroke:none;" d="M1056 957L1058 960L1056 957M405 959L406 960L405 959M679 963L680 964L679 963M682 963L683 964L682 963M1060 963L1061 970L1063 963L1060 963M678 965L677 968L678 965z"/>
<path style="fill:#040404; stroke:none;" d="M1264 968L1270 968L1270 967L1268 965L1264 968M1164 968L1166 972L1164 968z"/>
<path style="fill:#fdfdfd; stroke:none;" d="M1142 971L1142 972L1148 973L1147 969L1142 971M1060 971L1061 972L1060 971z"/>
<path style="fill:#040404; stroke:none;" d="M656 977L656 980L658 980L658 977L656 977z"/>
<path style="fill:#fdfdfd; stroke:none;" d="M1150 977L1149 980L1152 980L1150 977z"/>
<path style="fill:#040404; stroke:none;" d="M1201 989L1201 992L1203 992L1203 989L1201 989M1154 993L1155 994L1154 993z"/>
<path style="fill:#fdfdfd; stroke:none;" d="M934 995L936 1000L934 995M927 1004L927 1009L928 1009L927 1004M1074 1007L1075 1008L1074 1007M732 1011L726 1028C731.311 1025.3 739.516 1017.1 740 1011L739 1011L735 1016L732 1011M945 1011L946 1012L945 1011M1045 1011L1046 1012L1045 1011M899 1019L899 1020L904 1020L899 1019M873 1023L874 1024L873 1023M891 1023L892 1024L891 1023M1023 1023L1023 1024L1026 1024L1023 1023M1064.67 1023.33L1065.33 1023.67L1064.67 1023.33M1008 1025L1009 1030L1010 1025L1008 1025M734.667 1027.33L735.333 1027.67L734.667 1027.33M880 1027L880 1032L881 1032L884 1028L880 1027M862 1035L863 1036L862 1035M848 1039L848 1040L852 1041L848 1039z"/>
<path style="fill:#040404; stroke:none;" d="M776 1042L777 1046L778 1046L776 1042z"/>
<path style="fill:#fdfdfd; stroke:none;" d="M824 1042L823 1044L825 1044L824 1042z"/>
<path style="fill:#040404; stroke:none;" d="M790.667 1043.33L791.333 1043.67L790.667 1043.33z"/>
<path style="fill:#fdfdfd; stroke:none;" d="M1066 1043L1066 1056C1071.46 1052.23 1070.83 1046.93 1066 1043M854.667 1047.33L855.333 1047.67L854.667 1047.33M833 1049L837 1056L833 1049M728 1051L729 1052L728 1051M822 1051L822 1053L824 1051L822 1051M849 1051L846 1058C848.802 1056.23 850.061 1054.25 849 1051M727 1057L729 1059L729 1057L727 1057M855 1057L854 1060L855 1057z"/>
<path style="fill:#040404; stroke:none;" d="M1091 1057L1093 1060L1091 1057z"/>
<path style="fill:#fdfdfd; stroke:none;" d="M845 1058L838 1078C837.659 1073.63 836.422 1072.26 832 1073L831 1066L826 1080L851 1080L852 1069L849 1069L849 1076L846 1078C844.37 1072.93 844.204 1068.05 848 1064L848 1063L845 1058z"/>
<path style="fill:#040404; stroke:none;" d="M1045 1061L1045 1064L1048 1064L1048 1061L1045 1061z"/>
</svg>
