<?xml version="1.0" standalone="yes"?>
<svg xmlns="http://www.w3.org/2000/svg" width="1920" height="1080">
<path style="fill:#fefefe; stroke:none;" d="M0 0L0 1080L1920 1080L1920 0L0 0z"/>
<path style="fill:#030303; stroke:none;" d="M625 118L608 174L606 174L605 169C597.683 175.683 590.205 188.077 590 198L587 197L586 202L585 202L580 197L580 202L575 197C568.16 204.822 565.118 214.272 570 224L564 220L563 220L561 224L560 224C558.428 220.437 556.79 219.538 553 219L553 221L545 211L528.925 219.663L519 216L518 213L515 213L521 231L513 232L511 245L508 241L500 256L496 255L501 264L496 267C493.059 261.463 487.26 256.948 481 256L477 268L480 269L480 282L464 273L471 292C464.36 289.725 458.05 282.635 454 277L449 279L450 284L433 281L430 273L421 273L422 276L409 275L413 292L412 293C407.37 292.085 403.981 293.355 401 297L400 297L398 295L411.732 316.17L410.147 327.961L416 338L401 338L401 340L405 344C401.968 344.215 401.054 343.868 400 341C396.698 342.641 393.922 344.14 394 348C388.46 346.863 383.582 344.534 383 352L375 353L381 359C373.591 364.096 387.826 371.136 384 380C389.813 383.551 393.525 393.56 392 400L405 407C402.785 412.717 409.984 417.258 413 422C408.576 420.545 405.149 418.095 401 416.16C396.58 414.098 381.612 414.215 387.912 422.636C400.854 439.934 423.602 451.355 438 468C423.481 468.775 416.708 446.391 403 450L410 464L396 455L391 472L397 476L392 480L375 479L386 495L386 496L379 497L379 498C387.684 502.471 389.417 510.263 395 518C384.707 520.004 370.025 523.06 375 535L381 535L378 540L388 537L387 542C380.734 542.484 376.26 546.9 379 553C387.594 551.175 396.352 548.667 405 551L405 552L400 556L408 553L414 562L412 563L412 564L420 567C423.58 577.826 429.433 569.531 436 572L440 571L440 584L437 581L436 581L434 584L433 584L430 581L422 585L422 588L421 588L420 588L419 585L407 583L405 587C401.819 585.612 398.095 586.609 395.17 585.073C390.405 582.57 374.634 566.655 380 584L377 580C374.699 579.987 372.29 579.586 369.999 579.829C355.845 581.331 371.129 597.516 373 604L368 606L369 610C361.836 614.066 375.626 624.806 376 632C370.021 630.419 363.975 628.739 358 631L364 640C359.145 637.812 356.331 635.983 351 638L351 640C359.645 643.942 354.125 647.627 348 650L355 664L359 682L348 685L347 698L326 693C326.044 697.852 326.266 700.91 331 703L327 709C333.106 713.184 333.432 717.383 331 724C333.308 724.848 335.702 725.471 337.998 726.329C348.367 730.207 342.003 738.356 334 739.736C329.689 740.479 325.059 737.525 321.059 738.706C318.388 739.495 317.686 741.636 317 744L311 743L307 764L313 765L305 773L305 774C308.381 775.604 311.176 778.201 315.001 778.786C325.249 780.351 329.79 775.155 333 788C328.711 790.633 327.591 804.888 332.329 807.988C336.904 810.981 343.731 809.004 346.627 815.058C348.853 819.709 343.446 826.928 343 832L346 831L347 836L362 841C362.172 849.267 364.463 863.729 375 860C374.6 864.626 375.725 869.739 381 870L384 891C396.204 888.843 405.426 894.821 409 906L413 905L414 908L415 908L423 903C423.679 911.504 431.264 905.818 436.776 909.279C441.142 912.021 441.976 918.407 446.335 921.177C448.246 922.393 450.859 921.369 453 922L455 917L463 921L465 931L475 932C478.657 926.935 481.847 925.371 488 926L494.168 916.83L497 901L498 901C498.059 907.568 505.075 919.12 506 907L523 916L518 897L519 897L524 904L525 897L534 897C535.115 901.205 535.553 906.438 540 908L543 903L543 892L544 892L566 898L566 895L571 896L569 887C574.333 883.502 568.941 877.109 569 872L577 876L576 863L579 864C579.141 857.328 581.315 859.546 586 857.694C598.049 852.932 605.909 863.166 617 867.222C620.636 868.552 628.994 873.672 630 869L648.439 890.208L661 894L660 881L672 881L673 881C682.221 869.506 668.865 862.023 666 851L668 853L672 852C670.506 842.596 662.164 836.512 656 830L669 824L662 810L665 810L665 803L680.005 794.649L697 790L695 796L705 793L703 803C713.23 800.404 717.175 798.094 724 808L712 811C715.341 819.046 723.209 815.755 729.995 818.403C735.399 820.511 735.963 824.18 731 827L729 840L732 840L733 837L735 837C735.677 842.997 731.515 843.989 728 848C738.25 853.467 740.712 857.903 736 868C745.735 870.994 751.234 875.32 760 868C761.188 870.852 762.784 876.359 766.198 877.248C770.174 878.285 771.944 872.668 775.104 871.424C783.33 868.184 793.41 871.889 796 880L802 873L809 874L813 886L817 884L824.713 892.497L816.858 907.089L819 921L825 917L817 932C824.097 933.451 829.881 933.545 836 929L840 934C840 936.995 839.131 942.059 841.603 944.311C846.138 948.443 851.352 944.495 852 953C857.851 951.122 858.759 944.508 859 939C864.151 940.826 869.145 959.052 869 965L881 952L882 956L883 956C889.459 946.503 887.353 920.65 900.714 917.738C903.989 917.025 909.675 921.09 913 922L915 918C917.307 922.018 915.894 924.011 914 928L921 928L920 934L933 928L935 938L951.946 937.613L958.898 925.233L969 912L975 915L978 910L979 910L986 922C991.288 922.162 991.841 925.781 994 930L1001 932L1004 932L1005 926L1014 929C1017.76 918.955 1019.81 918.24 1027.61 911.441C1029.82 909.519 1030.95 905.544 1034.1 904.903C1038.41 904.029 1047.23 908.654 1052 909.401C1060.4 910.715 1069.58 908.245 1078 908L1072 885C1077.17 887.913 1078.63 896.324 1085.01 897.106C1094.41 898.258 1108.72 891.83 1095 884L1095 883C1100.11 884.558 1107.3 896.161 1112 889L1141 901L1143.18 886.213L1157 879.478L1168.9 869.341L1173 872L1176 872C1180.21 864.806 1186.6 864.209 1187 855L1203 860L1215 847L1215 854L1221 849L1225 856C1232.25 852.497 1234.15 849.75 1239 858C1244.16 856.368 1246.68 853.868 1249 849C1251.28 850.967 1254.49 854.472 1257.79 854.379C1261.26 854.281 1263.24 849.616 1267 849.018C1276.66 847.483 1283.36 853.411 1292 848L1288 841L1289 840L1304 832L1313 838L1317 825L1326.44 830.742L1336 844L1336 841L1341 842L1353.26 829.791L1355 812L1356 812C1359.65 815.743 1375.79 819.081 1377.65 811.867C1380.05 802.526 1376.2 790.482 1375 781C1380.17 780.135 1379.29 777.279 1378 773L1386 776L1380 757L1386 753L1403 757C1408.13 739.64 1391.79 723.475 1394 706C1399.96 711.671 1399.77 721.372 1409 724L1408 710C1412.39 717.806 1412.92 723.409 1422 727C1422.67 720.47 1425.72 717.514 1432 716L1430 707L1436 708L1434 698L1429 693C1445.06 696.252 1440.1 679.715 1436.17 669.185C1433.4 661.766 1422.31 661.571 1417.28 656.61C1413.21 652.601 1404.38 634.917 1405.78 629.015C1406.92 624.266 1411.97 622.099 1413 617L1411 612C1424.36 616.325 1421.21 600.616 1423 593L1427 594L1428 577L1434 579L1434 575L1453.95 580.974L1461.22 588.681L1469.24 590.889L1483.18 608.787L1506 620L1508 612L1512 609C1515.62 609.511 1520.45 609.864 1520.75 604.977C1521.25 596.769 1513.68 589.755 1510.48 583C1508.91 579.695 1510.65 576.44 1509.98 573C1508.72 566.541 1505.61 560.948 1503 555C1513.76 557.233 1510.87 545.514 1504 542L1506 533L1519 532L1518 527L1521 526L1520 523L1527 520L1519 514L1519 513L1522 512L1519 508L1522.17 498.961L1517 487L1525 484C1522.91 482.418 1523.27 481.894 1525 480C1520.85 473.88 1519.51 466.419 1512 464L1526 460L1523 456L1523 455C1531.17 453.128 1552.85 444.599 1538 436L1539 427L1537 429L1517 418L1517 417C1519.96 414.33 1520.92 412.01 1522.1 408.286C1523.12 405.089 1525.67 402.539 1525.6 399.004C1525.43 390.778 1517.78 390.693 1512.02 389.343C1508.76 388.579 1506.92 385.683 1503.87 384.529C1497.94 382.283 1490.68 383.453 1486 379C1481.79 379.47 1480.24 378.567 1478 375L1491 372C1488.97 364.628 1483.4 365.93 1477 365.996C1466.08 366.108 1455.72 367.319 1445 368L1445 367L1454 365L1469 359L1464 358L1464 353C1467.82 352.185 1469.18 350.822 1470 347L1459 344L1468 333L1457 332C1455.28 328.61 1453.81 327.674 1450 328C1450.96 320.432 1446.29 312.236 1454 308L1442.59 292L1439.67 284.067L1430 282L1429 282L1423 286L1428 275L1422 276L1426 265L1411 273C1410.57 270.028 1408.45 271.102 1406 272C1406.38 263.151 1416.29 265.663 1413 255L1404 258C1404.57 248.375 1400.27 242.887 1393 238L1392 238L1383 242L1383 239C1370.29 242.908 1363.36 235.997 1365.5 222C1367.57 208.434 1381.34 199.258 1383.8 186C1384.98 179.667 1393.07 161.85 1380 164C1372.36 144.448 1363.27 165.064 1353.57 172.401C1347.65 176.881 1340.78 176.428 1336 183L1335 183C1328.63 177.511 1321.47 182.747 1320 190L1316 185L1312 179L1301 179C1299.64 175.646 1298.72 173.937 1295 174L1295 182C1291 181.07 1289.71 182.408 1288 186C1282.05 183.75 1278.5 187.853 1276 193L1274 193L1270 185C1265.23 187.333 1263.46 190.83 1263 196L1256 191L1256 202L1255 202L1250 189C1242.24 189.126 1226.95 166.19 1226 186C1217.78 182.265 1216.2 201.267 1216 208L1210 208L1192 206L1194 248C1172.35 229.873 1193.07 267.085 1193 277L1182 261L1182 268C1177.08 263.219 1171.99 264.045 1173 272L1161 270L1162 278L1160 278C1161.34 283.665 1159.1 285.748 1154 288C1151.16 279.457 1138.09 287.808 1132 288C1134.44 281.133 1123.11 263.605 1118 272C1114.37 271.391 1112.95 271.85 1111 275L1105 267C1100.39 272.353 1090.69 270.476 1087.23 263.776C1085.7 260.792 1088.02 258.085 1088.03 255.089C1088.04 251.89 1085.71 248.203 1085 245L1083 247L1081 243L1066 252L1068 243L1058 248C1057.31 244.803 1055.95 245.254 1053 246C1052.11 239.556 1039.25 245.756 1036 248L1037 226L1036 226L1035 230C1032.28 228.785 1030.73 227.665 1030 231L1023 227L1017 238L1016 238L1015 235C1013.03 235.516 1009.72 237.726 1007.72 237.237C1003.97 236.315 1004.65 227.805 1004.98 225C1005.88 217.32 1016.55 196.161 1004 192L1000 197L1000 193C989.481 191.639 991.339 193.089 984 200C982.319 187.536 969.513 194.406 963 199L962 196C957.327 198.219 950.711 202.328 948.303 207.093C946.119 211.416 945.281 222.793 938.169 222.793C933.451 222.793 926.011 208.611 923 205L921 205L920 208L918 208L912 195L908 196L907 189C902.197 190.722 902.05 195.434 902 200L892 208L892 197C886.056 200.743 888.211 208.117 886.683 213.946C885.266 219.353 882.408 224.085 881 230L879 230L876 227L873 243L872 243L868 234L867 234L862 250L856 248L856 237C848.092 241.593 843.645 248.947 842.844 258C842.525 261.608 844.667 266.551 842.782 269.808C840.195 274.276 836.859 269.882 836 267L832 267L827 279L826 279L823 266L822 266C819.635 272.278 816.365 272.546 813.353 265.999C810.232 259.216 812.388 249.276 807 244L806 247C800.156 248.094 798.454 254.949 796.656 260C792.709 271.086 784.11 279.724 784 292L782 292L784 277C777.765 278.792 776.225 284.145 775 290L774 290L769 285L782 257L773 261L773 257L772 257L769 260L774 250L757 269L758 253C753.925 254.899 752.264 255.5 749 252L744 252L747 241L739 244L742 237C737.162 239.091 732.885 242.622 732 248L731 248L724 241L716 257L709.156 251.921L696 270L695 270L694 265L691 265L688 269L686 259L684 259L683 264L681 264L675 245L674 245L674 247L673 247L673 243L668 246C666.077 236.685 672.321 214.855 664 209L663 214C660.081 206.184 667.218 199.443 668.478 192C671.025 176.959 666.655 165.405 664.325 151C662.797 141.559 664.072 132.353 654 127L654 131L653 131L652 127L647 127L646 138L644 138C643.77 132.982 643.026 128.917 638 127L637 132L636 132L632 118L625 118z"/>
<path style="fill:#fefefe; stroke:none;" d="M1379 164L1380 165L1379 164M596 185L597 191L598 191L598 185L596 185M1268 191L1269 192L1268 191M556 221L556 225L557 225L556 221M1193 221L1194 222L1193 221M1003 227L1004 228L1003 227z"/>
<path style="fill:#030303; stroke:none;" d="M511.333 231.667L511.667 232.333L511.333 231.667M1110.67 239.333L1111.33 239.667L1110.67 239.333z"/>
<path style="fill:#fefefe; stroke:none;" d="M1410 257L1411 260L1412 260L1410 257M1403 258L1404 259L1403 258M486 265L487 269L488 269L488 265L486 265M756 269L756 272L757 272L756 269M1410 273L1411 274L1410 273z"/>
<path style="fill:#030303; stroke:none;" d="M407.333 274.667L407.667 275.333L407.333 274.667z"/>
<path style="fill:#fefefe; stroke:none;" d="M1420 275L1421 276L1420 275M1194 277L1196 280L1194 277M1129 280L1129 282L1131 280L1129 280M1160 290L1160 292L1162 292L1162 290L1160 290M472 292L474 296L472 292M1461 332L1462 333L1461 332M1457 344L1455 347L1456 348L1457 348L1458 348L1457 344z"/>
<path style="fill:#030303; stroke:none;" d="M373.667 351.333L374.333 351.667L373.667 351.333z"/>
<path style="fill:#fefefe; stroke:none;" d="M390 377L390 378L391 380L392 380L393 377L390 377M413 422L413 424L415 424L413 422M417 427L418 428L417 427z"/>
<path style="fill:#030303; stroke:none;" d="M1542 431L1543 432L1542 431M1543 449L1546 452L1543 449z"/>
<path style="fill:#fefefe; stroke:none;" d="M439 468C440.271 471.322 441.433 472.357 445 472L445 471L439 468M450 479L452 485L453 485L450 479M408 481L408 485L409 485L410 481L408 481M410 485L411 486L410 485M423 565L424 566L423 565M1464 587L1464 589L1466 589L1466 587L1464 587M1507 611L1508 612L1507 611M738.667 823.333L739.333 823.667L738.667 823.333M741 823L741 824L745 824L741 823M1303 831L1304 832L1303 831M1284 835L1284 836L1287 841L1288 841L1284 835M1191 850L1190 852L1192 852L1191 850M375.667 859.333L376.333 859.667L375.667 859.333z"/>
<path style="fill:#030303; stroke:none;" d="M1025 921L1024 924L1027 924L1025 921z"/>
<path style="fill:#fefefe; stroke:none;" d="M881.667 951.333L882.333 951.667L881.667 951.333z"/>
</svg>
