<?xml version="1.0" standalone="yes"?>
<svg xmlns="http://www.w3.org/2000/svg" width="1920" height="1080">
<path style="fill:#fefefe; stroke:none;" d="M0 0L0 1080L1920 1080L1920 0L0 0z"/>
<path style="fill:#070707; stroke:none;" d="M1323 220L1322 220C1319.1 215.549 1315.58 217.028 1311 216L1310 216L1308 220C1301.01 217.48 1285.19 218.146 1278 220L1277 217L1276 217C1272.15 221.383 1267.57 221.918 1262 221C1254.62 230.228 1242.86 239.339 1230 237C1224.31 243.484 1221.94 251.349 1223 260C1217.24 261.253 1218.4 265.858 1214.58 269.347C1211.73 271.948 1206.24 270.837 1204.04 273.742C1201.64 276.923 1205.83 281.287 1204.41 284.911C1202.52 289.763 1196.78 292.611 1195.7 297.996C1193.16 310.757 1202.17 325.655 1202.78 338C1203.26 347.8 1195.96 356.153 1199.65 366.741C1204.03 379.288 1219.77 383.053 1226.39 392.508C1231.06 399.187 1228.05 410.221 1233 418L1239 414L1240 414C1246.03 418.593 1257.66 412.372 1260 420L1263 418L1264 418C1268.64 423.581 1284.88 422.594 1287 415L1288 415L1288 421L1292 423L1288 435L1285 434L1284 444L1280 443L1269.02 464.004L1268 480L1274 500L1276 500L1277 497L1278 497C1278 504.64 1278.86 507.381 1284 513L1282 513L1284 515L1284 516L1282 518L1286 517L1287 522L1288 522L1288 518L1289 518L1290 525L1296 525L1299 530L1299 534L1304 533L1304 542L1305 542C1309.64 540.894 1310.25 545.032 1313.54 547.13C1319.16 550.705 1321.69 546.341 1326 554L1333 556L1335 551L1350 555L1351 552L1373 556.031L1387 557L1387 552L1405.08 537.611L1413 532C1416.69 532.064 1417.31 530.559 1417 527L1423 527L1428 522L1426 525L1437 516L1440 500L1436 483L1443 477L1443 481L1444 481L1445.97 464.004L1439 440L1442 440L1438 436L1438 440L1436 432L1432 432C1431.06 427.717 1429.7 424.826 1425 425L1425 419L1417 409L1413 412L1413 404L1410 406L1404 400L1405 402L1404 402L1402 399L1397 400C1396.22 393.869 1384.41 394.058 1380 396C1383.44 382.483 1396.3 376.784 1401.9 365C1404.72 359.052 1408.32 353.675 1403 348L1403 347L1408 344C1407.2 340.309 1405.01 336.733 1404.72 333C1403.96 323.231 1408.1 301.575 1394 300L1392 274C1383.46 271.564 1386.62 270.156 1382.22 264.327C1379.61 260.864 1376.72 262.045 1376 257C1369.04 257.158 1351.2 252.844 1349.63 243.741C1349.02 240.215 1353.99 236.611 1354.55 233C1355.26 228.5 1352.11 223.69 1352 219C1340.68 220.298 1330.31 206.55 1323 220M640 244L638 252L616 252.541L605 247C603.729 252.47 597.138 271.482 591 265L588 265L581 269L580 276C573.937 270.345 572.117 277.511 572 283C563.367 278.444 562.228 289.781 552 289L551 297C543 295.825 530.305 296 527 305L520 303C520.859 311.865 507.909 320.567 500 321C499.638 332.331 496.583 345.537 486 351L487 356L471 365C471.031 373.824 466.319 369.495 462.008 373.831C459.444 376.411 459.56 379.004 456 381C456.901 385.671 459.789 389.409 460.977 394C461.912 397.616 460.664 401.533 461.789 404.961C462.96 408.532 467.375 410.848 467.288 414.9C467.214 418.348 462.928 419.59 462.527 423.043C461.984 427.714 465.379 432.34 463.802 437.181C461.374 444.642 448.954 445.343 447.819 453.043C446.615 461.202 457.555 460.445 459.424 467.018C460.798 471.855 457.887 475.572 456.637 480C454.565 487.346 454.509 494.519 452 502C460.897 505.938 463.619 504.13 461 514C466.907 514.26 475.653 528.489 478.922 533.718C481.415 537.707 482.661 542.474 486.109 545.79C490.326 549.846 496.55 551.409 499.184 557.015C504.243 567.78 499.942 578.292 503 589L508 586L514.22 596.133L515.388 604.995L519.143 609.963L528 605C526.286 612.567 531.68 616.236 539 615L544 622C550.108 621.006 552.631 620.835 557 616L567 629L571 626L572 626L573 628L574 628C584.676 618.934 585.993 640.82 596 643L599 656C608.306 656.068 618.576 668.554 619 651C626.631 652.088 635.596 648.892 641.83 644.39C644.64 642.361 649.349 636.084 653.427 637.561C656.162 638.551 656.278 643.648 657 646C663.932 639.513 667.983 639.54 678 640L681 627C686.89 631.188 695.931 628.882 697.671 620.961C698.453 617.399 696.75 613.632 697 610L706.141 618.248L721 607L739 622L742 613L752 616C751.132 612.277 750.457 610.078 754 608C754.099 604.943 754.395 602.527 756.318 600.004C768.166 584.453 778.18 599.96 791 602C791.997 596.664 788.503 592.264 789.315 587.089C790.375 580.332 803.396 571.361 809 568C806.786 562.998 805.36 559.88 810 556C808.994 549.16 806.739 544.096 811.533 538.019C813.9 535.02 818.427 533.43 819.852 529.857C821.902 524.716 818.436 519.822 823 516L820 512L820 507C832.245 506.069 829.064 490.253 831.44 482C833.05 476.407 833.857 470.211 836.61 465.039C838.33 461.807 842.462 459.747 842.972 455.957C843.807 449.752 841.702 443.096 841.826 437C841.923 432.28 843.919 428.932 842.648 424.001C841.337 418.913 836.816 416.115 836 411L830 412L836 399C830.687 394.445 827.604 390.719 820 392C820 383.241 818.159 371.714 813.934 364.162C812.368 361.364 807.634 362.083 806.661 359.238C805.873 356.934 807.51 353.623 807 351L800 354C794.92 342.154 789.139 335.43 776 342L777 335L764 332L765 315L755 316L756 311C749.725 304.284 751.653 298.188 741 307L740 303L732 306L735 295L731 296L730 291L722 296L721 296L720 293L716 294L714 285L712 285C705.588 292.592 700.605 298.913 692 291L678 291L678 293C674.026 292.007 658.98 289.498 657.496 286.836C652.391 277.682 669.656 256.705 648 256C647.431 250.325 645.615 245.967 640 244M665.667 269.333L666.333 269.667L665.667 269.333M973 334L974 335L973 334M954 335L954 336L956 337L953 343L950 342C947.332 346.758 944.099 347.498 939 346L938 352L932 351L929 360L930 357L926 359C931.389 367.596 921.157 367.995 916 371L914 368L911 372L911 369L910 369L909 369L904 380L905.5 382.833L903 412L902 412L902 409L901 409L901 425L894 427L897 445L894 444C893.733 449.141 888.342 459.137 897 459L896 468C899.743 472.527 904.157 479.024 904 485L905 485L906 482L911 488L925 506L927 502L930 508L936 506L936 509L942 518L956 518L955 522L972 529L976 524L976 528L976 529L991 531C991.705 526.611 993.659 525.434 998 526L1000 521L1001 521L1001 524L1008 526L1013 528L1010 524L1011 520L1013 521C1014.59 519.34 1016 519.214 1016 522L1018 520L1024 522L1032 522L1032 518L1036 519L1037 515L1041 517L1050 512L1048 508L1048 507L1052 508L1050 501L1055 504L1060 491L1064 493L1062 486L1069 484L1073 477L1073 474L1074 476L1075 476C1075.68 473.401 1075.53 468.568 1079 471L1080 466L1084 468L1085 468L1089.31 458.985L1089 435L1086 435L1087 431L1084 429L1084 428L1083 411L1087 412L1083 395L1086 397L1087 394L1080 387C1076.15 386.098 1076.8 382.328 1076 379L1073 381L1069 367L1066 368L1062 359L1054 357L1053 361L1049 360L1043 349L1042 349L1043 352L1038 347L1017 340L1011 341L1010 337C1004.6 338.031 997.054 335.849 995 342L994 342L994 338L992 340L991 340L984 340L983 337L978 340L978 335L976 335L976 340L975 340L975 336L966 340L954 335M1003 335L1002 337L1004 337L1003 335M947 338L946 340L948 340L947 338z"/>
<path style="fill:#fefefe; stroke:none;" d="M956.667 339.333L957.333 339.667L956.667 339.333z"/>
<path style="fill:#070707; stroke:none;" d="M1032 339L1030 344L1032 339z"/>
<path style="fill:#fefefe; stroke:none;" d="M992 340L993 341L992 340M775.333 342.667L775.667 343.333L775.333 342.667z"/>
<path style="fill:#070707; stroke:none;" d="M1034 342L1034 344L1036 344L1034 342z"/>
<path style="fill:#fefefe; stroke:none;" d="M949 347L950 348L949 347z"/>
<path style="fill:#070707; stroke:none;" d="M930 351L931 352L930 351z"/>
<path style="fill:#fefefe; stroke:none;" d="M930.667 363.333L931.333 363.667L930.667 363.333M1060 363L1061 364L1060 363z"/>
<path style="fill:#070707; stroke:none;" d="M922 364L923 365L922 364z"/>
<path style="fill:#fefefe; stroke:none;" d="M1062 364L1063 365L1062 364M1062 366L1062 368L1064 368L1062 366M1067 369L1068 370L1067 369M1066 371L1067 372L1066 371M906.333 377.667L906.667 378.333L906.333 377.667z"/>
<path style="fill:#070707; stroke:none;" d="M1079.33 382.667L1079.67 383.333L1079.33 382.667z"/>
<path style="fill:#fefefe; stroke:none;" d="M1408 407L1409 408L1408 407z"/>
<path style="fill:#070707; stroke:none;" d="M899.333 414.667L899.667 415.333L899.333 414.667M1091 431L1092 432L1091 431M891 438L890 440L892 440L891 438M1277 443L1277 446L1278 446L1277 443M888 445L890 448L888 445M1442 450L1442 452L1444 452L1442 450z"/>
<path style="fill:#fefefe; stroke:none;" d="M894 457L895 458L894 457z"/>
<path style="fill:#070707; stroke:none;" d="M1267 459L1268 460L1267 459M895 461L896 462L895 461z"/>
<path style="fill:#fefefe; stroke:none;" d="M1081 463L1082 464L1081 463M1084 463L1085 464L1084 463z"/>
<path style="fill:#070707; stroke:none;" d="M1095 464L1092 470C1096.62 470.177 1098.34 467.498 1095 464z"/>
<path style="fill:#fefefe; stroke:none;" d="M1270 464L1270 467L1271 467L1270 464M898 465L900 468L898 465M1271 474L1270 480L1272 480L1271 474M905 480L908 478L905 480z"/>
<path style="fill:#070707; stroke:none;" d="M1439 481L1440 482L1439 481M1439 483L1440 484L1439 483z"/>
<path style="fill:#fefefe; stroke:none;" d="M1063 485L1064 486L1063 485M1274.33 490.667L1274.67 491.333L1274.33 490.667M922.667 495.333L923.333 495.667L922.667 495.333M1055 495L1056 496L1055 495M1279 495L1280 496L1279 495M924 498L925 499L924 498M945 514L944 516L946 516L945 514z"/>
<path style="fill:#070707; stroke:none;" d="M1280 514L1281 515L1280 514z"/>
<path style="fill:#fefefe; stroke:none;" d="M1028 519L1029 520L1028 519z"/>
<path style="fill:#070707; stroke:none;" d="M1035 521L1036 522L1035 521M1039 521L1040 522L1039 521M1033.67 523.333L1034.33 523.667L1033.67 523.333z"/>
<path style="fill:#fefefe; stroke:none;" d="M997 524L998 525L997 524z"/>
<path style="fill:#070707; stroke:none;" d="M1436 526L1434 531C1437.07 529.982 1437.89 528.761 1436 526z"/>
<path style="fill:#fefefe; stroke:none;" d="M1415 530L1414 532L1416 532L1415 530M1389.33 546.667L1389.67 547.333L1389.33 546.667z"/>
<path style="fill:#070707; stroke:none;" d="M1321 548L1320 552L1321 548z"/>
<path style="fill:#fefefe; stroke:none;" d="M786 583L788 585L788 583L786 583z"/>
</svg>
