<?xml version="1.0" standalone="yes"?>
<svg xmlns="http://www.w3.org/2000/svg" width="1920" height="1080">
<path style="fill:#fcfcfc; stroke:none;" d="M0 0L0 1080L701 1080L696 1073C693.167 1075.86 688.603 1076.75 688.917 1070.99C689.154 1066.65 693.316 1063.45 694 1059C685.728 1061.72 677.001 1069.18 668 1068C674.065 1060.41 678.183 1059.4 675 1049L664.956 1058.98L648 1070L656 1060L656 1057L634 1056L649.312 1035L662.043 1017.44L675.957 1011.06L685.043 1001.51L702 991L694 993C694.257 985.104 711.867 981.441 707.953 975.434C704.375 969.942 684.187 980.348 680.439 983.569C662.65 998.855 650.852 1020.05 631.522 1033.93C628.328 1036.23 624.515 1034.81 620.925 1035.67C612.529 1037.69 604.418 1040.58 597 1045C600.785 1030.5 616.982 1025.67 626.468 1016.37C629.308 1013.58 626.718 1010.33 627.55 1007.09C628.76 1002.39 634.138 1001.05 635 996L629 996L650.541 972.139L659 963L667 949C660.651 946.899 657.334 942.501 651 947L650 942L646 944L645 941L640 944L643 934L644 934L650 936L650 934L644 931L644 930L650 928L650 927L640 913L640 920L639 920L627 891C621.865 895.413 621.805 900.561 614 900L619 891C615.92 890.717 614.856 890.97 614 894C608.724 893.471 597.786 900.305 596.777 906.005C596.155 909.518 598.889 913.737 600 917L597 915L596 918L593 917C593.284 923.614 593.565 942.46 583 940L586 968L575 953L574 953L579 992L570 988C569.021 985.927 563.6 978.484 562.042 984.167C560.371 990.259 563.338 996.105 563.527 1001.95C563.581 1003.62 563.025 1005.29 561.279 1005.81C555.484 1007.54 551.529 996.071 548 993L546 1004L544 1004C544.292 995.375 541.957 992.363 533 994L533 989L530 991L525 981L522 985L517 983L516 988L513 982L512 982L509 992L502 988L492 1002L491 981L490 981L488 1004L487 1004L485 999L484 999L493 1026C499.752 1026.88 497.228 1038.49 497 1043C492.495 1042.31 492.132 1044.98 492 1049L488 1049L486 1056L483 1056C479.924 1049.64 473.52 1052.08 469.6 1046.7C466.127 1041.93 470.753 1036.59 464 1034L459 1040L458 1031L452 1030C451.607 1035.21 449.178 1038.02 445 1041L442 1031L437 1038L428 1040L431 1031C422.788 1031 426.314 1018.71 431 1016L429 1014L429 1013L431 1011C426.46 1011.17 424.089 1014.15 422 1018L419 1007L414 1012L411 1005L402 1019L402 1017L398 1019C396.965 1012.04 397.937 996.958 403 992L403 991L384 1000L387 996L390 983C395.399 982.397 397.402 980.052 399 975C393.151 974.597 382.899 980.982 380 986L372 992L371 978L376 968L376 967L360 977L359 976L363 972L363 971L360 969L359 969C353.458 970.879 349.958 968.837 347 964C340.917 965.803 334.724 966.921 331 961C338.229 957.463 347.026 952.719 348 944L342 948L346 923L340 921L332 928L341 913L343 915L345 901L328 906C332.163 897.148 342.771 895.437 335 885L332 894L330 894C326.767 885.873 321.832 883.803 314 882C311.265 886.529 306.64 888.768 303.727 893.04C298.572 900.599 300.282 908.206 290 910L294 903L289 902L290 897L282 897C287.581 891.115 289.223 885.032 290 877L287 878L287 872C292.797 871.873 295.354 868.206 297 863L286 864C284.36 861.72 283.362 861.5 281 863L280 863C271.225 846.315 293.667 847.53 302 844L307 833L299 833L284 834C286.655 829.658 290.094 826.293 289 821C282.729 823.581 278.922 825.647 272 824L283 820L281 808L266 807L266 806C270.336 805.463 273.182 805.885 274 801L278 800L260 794C256.897 796.116 255.013 794.963 252 793L251 793C240.771 795.351 229.632 788.641 221 784L225 780L224 775L235 772L235 769L229 765L232 761L229 757L236 757L239 750L233 745L245 744L241 733C230.314 745.466 212.606 725.824 198 729L197 725L217 720L224 705L219 697L228 696L228 695L217 689L221 688C218.571 676.653 228.686 679.608 236 682.104C249.961 686.869 259.559 698.862 275 700C270.803 695.467 264.477 689.324 259 686.442C245.387 679.279 225.777 677.581 221 660L235 668L238 668L239 665C241.892 666.227 245.081 669.178 246 665L251 665C255.592 671.552 267.078 671.062 274 674L273 659L277 662L280 661C281.88 666.397 286.422 664.602 291 664L291 659L299 649L290 644L289 641L290 635L295 634L297 638L304 638L304 631L294 628L289 618L292 612L274 601L280 602L280 597L282 600L289 600L290 597L301 600L301 597L304 598C304.263 588.822 312.991 595.148 318 595.463C321.053 595.655 323.557 593.535 326 592L326 591L320 587C312.894 586.05 306.461 574.414 316 573C314.172 569.899 312.519 569.546 309 570L304 557L300 558L301 554L293 553L286 556L285 552L278 556L286.793 544.089L277 531L283 532C282.739 520.909 274.724 515.63 268.189 507.714C266.127 505.218 265.487 501.999 263 500L263 499C267.273 497.569 268.08 494.328 264 492L264 491C275.318 489.545 277.195 498.296 286 504L282 492L288 495L289 495L294 485L300 486L301 486L302 486L304 488C306.17 474.053 320.889 479.338 328.683 472.752C334.28 468.022 333.766 460.544 343 460L361 443L357 437L353 436L353 434L369 427L369 426L357.174 418.256L352.616 426.96L330 446C317.924 444.947 302.808 456.057 291 459L286 451L278 452L280 447L275 447L280 434L278 434L278 438L271 438L268 440L270 429L280 428L280 427C273.638 424.282 269.872 423.892 271 416L272 416L272 420L276 420L276 419L275 409C279.587 411.991 281.583 410.221 281 405L286 404L282 397C278.054 396.392 276.638 394.935 276 391L280 394L282.142 375L281 360C286.973 362.233 294.733 362.766 296 355L292 356C292.974 348.765 293.859 342.549 300 338L298 336L298 335C304.604 329.482 301.667 320.273 300 313L302 316L306 311L307 311C308.068 315.491 309.079 319.154 314 320L323 310L327 304L330 308L326 297L329 296L331 299L330 301L330 302L331 302L332 294L328 287L341 292L337.486 273.46L327.028 265.857L324 253L332 256L329 249L325 250C323.938 243.34 315.695 242.037 310 240L312 234L315 236L322.148 225.049L331.276 222.383L337.148 214.022L348 218L354 214L356 204L361 204L358 193L364 192L364 196L366 196L368 188L387.741 188.421L408 201L415 182L420 183L423 195L425 194C426.763 196.817 429.545 198.93 430.911 202.018C434.105 209.237 435.293 225.405 448 221L451 224L450 219C452.35 220.41 456.144 226.036 452 225L453 228L455 226L458 228L451 215L466 228L469 221C461.998 217.364 459.532 211.475 462 204L463 204L468 210L469 205L476 210L473 200L474 200L474 203L475 203L476 192L473 190L476 191L479 189L475 179L478 182L483 182L476 161L471 147L479 154C478.358 148.776 478.526 146.125 482 142L482 146L486 146L487 146L482 133L484 133L484 139L489 137L490 140C495.994 136.695 495.547 127.152 496 121L497 121C503.775 133.406 507.199 118.971 508 113L513 116L516 110C525.083 111.215 524.893 106.155 523 99C535.221 97.0251 538.95 120.265 540 130L543 130L543 125L544 125C545.874 130.802 549.922 142.299 556 144L557 139L554 140L553 132L556 134L554 131L561 138L563 131L565 132L566 129L562 128L569 122C570.26 128.454 567.201 134.186 574 138L583 116L585 116L587 122L590 121L588 132L592 127L593 127L594 132L598 132C593.812 123.132 593.728 116.244 591.53 107C590.012 100.612 586.785 94.5656 592 89L592 96L600 101L601 101L604.58 47L625 0L0 0z"/>
<path style="fill:#040404; stroke:none;" d="M625 0L604.58 46L601 101L600 101L592 96L592 89C588.314 91.6042 588.559 96.8069 589.339 101C591.281 111.429 591.976 123.024 598 132L594 132L593 127L592 127L588 132L590 121L587 122L585 116L583 116L579.941 126.946L574 138C567.878 132.954 570.832 128.664 569 122L562 128L566 129L565 132L563 131L561 138L554 131L556 134L553 132L554 140L557 139L556 144C549.673 141.339 547.091 130.958 544 125L543 125L543 130L540 130C539.473 120.242 535.384 96.1619 523 99C524.205 106.147 524.791 110.205 516 110L513 116L508 113C506.317 119.268 505.529 131.331 497 121L496 121C495.205 127.59 495.435 135.474 490 140L489 137L484 139L484 133L482 133L487 146L486 146L485 144L482 146L482 142C477.809 145.529 478.058 148.907 479 154L471 147L476 161C471.037 165.435 483.022 175.682 483 182L478 182L475 179L479 189L473 190L476 192L475 203L474 203L474 200L473 200L476 210L469 205L468 210L463 204L462 204C458.968 211.225 461.368 218.395 469 221L466 228L451 215L458 228L453 228L452 225C455.612 224.36 451.946 220.128 450 219L451 224L448 221C433.972 224.543 431.66 201.391 425 194L423 195L420 183L415 182L408 201L387.78 187.814L368 188L366 196L364 196L364 192L358 193L361 204L356 204L354 214L348 218L337.148 213.542L331.276 221.643L322.148 224.471L315 236L312 234L310 240C315.529 242.825 323.108 243.477 325 250L329 249L332 256L324 253L327.028 266.701L337.486 274.26L341 292L328 287C328.12 290.692 328.313 292.777 332 294L331 302L330 302L331 299L329 296L326 297L330 308L327 304L323 310C318.043 310.819 315.356 315.384 314 320C309.551 318.608 308.431 315.191 307 311L306 311C304.476 315.04 303.359 314.54 300 313C301.178 321.003 303.694 328.099 298 335L298 336L300 338C293.158 341.366 292.563 349.049 292 356L296 355C293.824 362.332 287.176 361.719 281 360L281.952 374.714L280 394L276 391C276.332 395.199 277.611 397.262 282 397L286 404L281 405C280.866 409.673 279.366 410.764 275 409C273.841 412.815 272.443 416.277 276 419L276 420L272 420L272 416L271 416C268.844 423.97 273.261 424.892 280 427L280 428L270 429L268 440L271 438L278 438L278 434L280 434L275 447L280 447L278 452L286 451L291 459L330 446L352.641 427.737L356.813 418.511L369 426L369 427L353 434L353 436L357 437L361 443L343 460C333.222 458.881 333.728 468.328 327.852 472.752C319.998 478.666 305.049 474.206 304 488L302 486L301 486L300 486L300 488L294 485L289 495L288 495L282 492L286 504C278.566 496.852 274.849 488.589 264 491L264 492C266.923 494.876 266.544 496.96 263 499L263 500C269.869 508.339 282.418 520.782 283 532L277 531L285.944 544.089L278 556L285 552L286 556L293 553C295.387 556.26 297.515 555.449 301 554L300 558L304 557L309 570L316 573C306.588 573.492 311.464 586.427 320 587L326 591L326 592C323.509 593.074 320.809 595.166 318 595.053C312.796 594.845 303.654 588.304 304 598L301 597L301 600L290 597L289 600L280 597L280 602L274 601L292 612L289 618L294 628L304 631L304 638L297 638L295 634L290 635L289 641L289 642L290 644L299 649L291 659L291 664C286.197 663.663 282.907 666.096 280 661L277 662L273 659L274 674L251 665L246 665L245 668L239 665L238 668L235 668C232.22 663.066 226.5 660.566 221 660C223.663 677.585 245.263 679.74 258 686.442C264.093 689.648 269.488 695.769 275 700C259.876 698.132 249.907 685.915 236 681.785C228.699 679.617 217.619 676.208 221 688L217 689C219.588 693.099 223.273 694.516 228 695L228 696L219 697L224 705C219.194 707.938 217.802 714.644 217 720L197 725L198 729C205.65 727.908 214.876 730.892 222 733.599C229.277 736.365 235.241 743.149 241 733L245 744L233 745L239 750L236 757L229 757L232 761L229 765L235 769L235 772L224 775L225 780L221 784C227.109 788.709 243.515 797.464 251 793L252 793C254.497 795.34 257.433 796.888 260 794L278 800L274 801C272.662 805.311 269.979 805.005 266 806L266 807C271.32 809.965 275.255 809.486 281 808L283 820L272 824C278.563 825.94 283.284 824.39 289 821L284 834C288.299 834.85 296.411 836.931 299 833L307 833C303.793 836.777 300.905 838.673 302 844C294.117 846.455 268.838 847.284 280 863L281 863L286 864L297 863C294.928 867.567 292.333 871.513 287 872C286.254 875.255 286.378 877.068 290 877L282 897L290 897L289 902L294 903L290 910C300.861 909.219 298.807 900.27 304.43 893.04C307.646 888.905 311.934 887.024 314 882C321.298 885.242 325.619 886.446 330 894L332 894L335 885C341.177 896.766 330.909 895.724 328 906C335.388 908.219 338.716 904.502 345 901L343 915L341 913C336.762 917.8 332.456 921.219 332 928L340 921L346 923L342 948L348 944C346.249 952.655 337.641 956.38 331 961C333.781 967.549 341.274 966.372 347 964C349.008 968.899 354.08 972.171 359 969L360 969L363 971L363 972L359 976L360 977L376 967L376 968C371.978 970.216 371.808 973.731 371 978L373 978L372 992L380 986C384.181 981.209 392.617 975.769 399 975C396.953 979.508 394.985 981.991 390 983C388.385 988.53 383.816 989.954 387 996L384 1000L403 991L403 992C397.721 995.423 396.614 1012.97 398 1019L402 1017L402 1019L411 1005L414 1012L419 1007L422 1018L431 1011L429 1013L429 1014L431 1016C425.342 1018.85 423.448 1029.35 431 1031L428 1040L437 1038L442 1031L445 1041C450 1038.64 451.823 1035.45 452 1030L458 1031L459 1040L464 1034L469.603 1047.53L483 1056L486 1056L488 1049L492 1049C492.293 1045.16 492.936 1043.19 497 1043C497.62 1038.24 499.947 1026.86 493 1026L484 999L485 999L487 1004L488 1004L490 981L491 981L492 1002C497.141 998.669 500.141 993.739 502 988L509 992L512 982L513 982L516 988L517 983L522 985L525 981L530 991L533 989L533 994C541.571 992.994 544.099 995.634 544 1004L546 1004L548 993C550.811 996.424 556.234 1009.6 562.397 1005.65C565.647 1003.57 557.356 970.457 570 988L579 992L574 953L575 953L586 968L583 940C593.81 943.49 593.519 923.581 593 917L596 918L597 915L600 917C599.213 913.687 596.569 909.406 597.328 906.005C598.495 900.773 608.939 893.705 614 894L619 891L614 900C621.785 901.261 622.61 896.352 627 891L639 920L640 920L640 913C642.914 918.348 643.281 925.121 650 927L650 928L644 930L644 931L650 934L650 936L644 934L643 934C639.647 937.229 638.71 939.466 640 944L645 941L646 944L650 942L651 947C657.676 943.489 660.439 947.695 667 949C662.777 953.78 659.202 956.209 659 963L650.541 971.406L629 996L635 996C633.615 1000.49 628.94 1001.96 627.247 1006.17C625.963 1009.37 629.146 1012.9 626.431 1015.62C617.138 1024.95 599.395 1029.93 597 1045C604.99 1041.71 612.46 1038.05 621 1036.08C624.464 1035.29 628.398 1036.57 631.522 1034.56C651.263 1021.84 663.635 1000.26 680.439 984.343C683.994 980.975 703.412 970.721 707.338 975.473C709.354 977.913 706.958 980.559 704.941 981.968C698.792 986.26 694.11 983.725 694 993L702 991L675.957 1010.44L663.015 1015.86L649.312 1034L634 1056L656 1057L656 1060C651.56 1062.12 649.137 1065.22 648 1070L665.891 1058.98L675 1049C676.884 1060.05 672.613 1059.3 668 1068C676.424 1069.81 686.588 1062.63 694 1059C692.833 1063.2 688.626 1066.56 688.533 1071C688.409 1076.95 693.246 1077.22 696 1073C705.437 1083.75 721.127 1080 735 1080C740.117 1080 749.356 1075.53 751 1080C759.903 1076.52 758.12 1057.1 752 1052L752 1051C754.992 1048.5 755.851 1046.84 755 1043C760.552 1045.9 762.827 1050.38 765 1056L766 1056L769 1049L772 1056L778 1051C774.097 1057.18 762.835 1073.39 772 1079L776 1067L774 1076C778.397 1074.58 778.278 1069.95 782.039 1068.06C786.439 1065.85 791.117 1077.03 792 1080C798.019 1080 810.201 1082.27 814 1077L815 1077L814 1080L819 1078C821.839 1080.46 827.036 1081.5 828 1077C833.966 1081.03 855.355 1083.44 860 1077L861 1077C863.694 1080.74 867.721 1080 872 1080L872 1076L868 1076L869 1073L878 1066C875.676 1060.71 875.468 1057.73 879 1053L879 1056C888.457 1053.42 896.382 1041.87 891 1033L898 1026L899 1026L901 1041L903 1041L904 1037C914.683 1040.25 902.511 1050.24 901 1056L910 1056C912.179 1052.55 915.207 1049.15 915.737 1045C916.589 1038.31 913.274 1030.44 918 1025L918 1030L926 1027L924 1032L928 1026L929 1026L936 1038L938 1034C942.719 1041.23 930.461 1058.65 945 1061L947.957 1037L944 1019C948.563 1022.7 953.531 1025.8 954 1032L959 1029C959.043 1033.71 959.113 1038.88 965 1038L964 1041L961 1040C959.654 1045.91 965.273 1047.4 967.772 1041.94C970.752 1035.43 967.61 1020.75 974 1017L974 1028C982.951 1025.49 979.081 1016.89 976 1011L984 999C985.074 1005.79 985.744 1023.7 998 1015L996 1024L1000 1024L988.662 1044.04L988 1056C997.034 1056.77 998.665 1064.65 998 1072L1002 1069L1004 1069C1006.41 1072.69 1010.31 1073.79 1012 1069L1019 1072C1017.92 1066.88 1018.67 1058.59 1014 1056L1014 1055L1022 1062L1030 1060L1024 1046L1028 1045L1029 1048L1031 1048L1031 1043C1042.4 1043.87 1038.45 1055.3 1039.61 1062.96C1040.1 1066.2 1042.92 1068.89 1044 1072L1034 1074C1036.8 1080.99 1042.44 1080 1049 1080C1049.37 1071.36 1053.76 1054.12 1045 1049L1047 1044C1054.2 1049.8 1051.25 1071 1064 1066C1065.4 1070.4 1066.92 1073.8 1072 1073C1073.08 1076.52 1074.34 1077.32 1078 1077C1078.71 1080.33 1085.95 1082.02 1087.97 1078.67C1089.27 1076.52 1088 1071.52 1088 1069L1089 1069C1090.55 1075.49 1090.19 1079.75 1098 1080L1099 1070L1100 1070C1102.9 1077.72 1104.55 1079.99 1113 1080L1112 1074L1115 1075C1111.49 1061.57 1092.7 1057.49 1086.96 1045C1084.03 1038.62 1086.37 1027.88 1080 1024L1096 1009L1105 1011L1117 992C1121.65 998.432 1121.4 1009.43 1130 1012L1128 1008L1128 1007L1131 1005L1133 1009L1134 1009C1136.22 1005.62 1137.88 1002.55 1134 1000C1135.4 995.248 1135.73 990.61 1131 988L1132 969C1137.84 983.693 1154.06 984.899 1153 1004L1158 1008L1163 1007L1163 1008C1156.68 1012.63 1170.2 1028.12 1174 1033C1176.37 1028.96 1175.59 1025.45 1171 1024C1176.96 1013.05 1167.08 1004.69 1168 993L1170 997C1176.31 995.648 1174.84 986.337 1181 997L1191 995L1191 994C1185.07 990.306 1184.2 982.478 1186 976L1187 976L1187 980C1191.36 980 1189.48 985.102 1190.5 988C1193.1 995.38 1195.84 1002.41 1200 1009L1205 1006L1212 1011L1218 1016C1216.96 1010.33 1209.75 1000.77 1216 997L1227 1024C1231 1026.4 1230.13 1030.74 1230.73 1035C1231.92 1043.52 1234.26 1050.89 1237 1059L1238 1059L1236 1026L1243 1043L1246 1043L1245 1026L1252 1032L1249 1019L1251 1021L1252 1021C1254.86 1018.47 1258.66 1017.76 1261.35 1015.38C1266.1 1011.18 1268.13 1003.71 1276 1006L1277 1002C1282.89 1006 1282.13 998.959 1281 995C1279.09 988.312 1268.11 969.708 1277 967C1275.51 973.764 1281.45 980.069 1288 981L1290 988L1291 984L1296 983L1296 988L1297 988C1298.49 984.309 1299.39 980.744 1296 978L1296 977C1302.16 978.788 1300.92 983.505 1304 988C1308.72 983.885 1314.6 990.193 1319 993C1320.81 982.276 1308.79 981.093 1312 971C1305.16 964.187 1304.51 945.647 1306 937L1305 937L1301 940L1300 933L1307 931L1312 941C1307.73 952.284 1315.31 952.033 1320.4 958.268C1325.31 964.287 1321.93 966.448 1331 968L1335 965L1335 971L1337 970L1337 971C1336.56 975.525 1338.71 976.715 1343 976L1340 966L1348 970L1348 963L1353 968L1354 963L1361 965L1364 957L1366 957L1389 966C1390.38 954.378 1398.71 959.011 1406.45 953.593C1408.55 952.126 1412.11 951.159 1412.13 948.046C1412.15 945.57 1408.31 940.448 1407.03 938.166C1405.53 935.485 1403.05 933.256 1401 931L1406 932C1404.24 928.302 1399.55 924.724 1403 921L1411 933L1412 933L1410 925L1413 927L1420 924L1425 915L1427 917L1432 916L1430 910L1439 920C1443.85 919.996 1448.06 920.61 1449 915L1445 916C1444.17 911.725 1443.04 908.522 1446 905L1449 908L1449 904L1452 907L1453 907L1452 902L1446 905L1447 899L1441 898L1440 890L1446 896L1460 892C1457.98 883.236 1460.71 879.914 1465 873L1468 874L1470 863C1474.48 861.382 1490.76 865.115 1484 856L1484 855L1494 852L1496 846L1499 847C1501.24 842.309 1500.84 839.315 1498 835L1516 831L1520 823C1508.84 823.576 1508.9 808.425 1517 804L1517 794L1507.81 785.603L1476.83 782.88L1453.82 786.481L1445.22 789.01L1439 784L1439 782L1440 781C1444.52 782.075 1451.1 783.239 1451 777C1454.1 774.948 1453.31 773.101 1450 772L1450 771C1467.11 766.998 1482.78 761.207 1500 761.953C1505.59 762.195 1511.01 761.085 1512 755L1518 756L1518 755L1513 755L1515 750C1508.78 746.591 1502.89 744.184 1510 738L1510 737L1502 729C1506.3 728.815 1510.38 728.674 1513 725L1515 727L1530.17 717.578L1553 716L1553 715C1547.6 711.99 1543.45 706.662 1537 708C1535.14 701.428 1530.28 700.057 1524 700L1524 699C1533 698.894 1533.33 695.072 1528 689L1525 690L1524 684L1528 684L1527 681L1524 682C1520 677.452 1514 680.654 1518 672L1519 672L1537 678.299L1556.29 702.451L1575 716L1582 710L1583 710L1584 710L1586 712C1590.35 704.561 1593.75 701.476 1590 693L1594 694C1596.8 683.804 1588.31 676.526 1584.32 668C1580.57 659.969 1579.58 651.001 1575.74 643C1570.41 631.909 1561.53 623.598 1553 615L1559 612L1559 611L1541 597C1552.54 599.103 1547.89 590.815 1546 583L1553 588L1554 588L1551 577C1555.43 576.045 1552.87 573.374 1550 572L1563 571C1569.45 573.887 1577.89 580.374 1585 579L1582 544L1586 542L1585 539C1578.79 538.237 1585.71 531.974 1583.94 528.25C1581.62 523.345 1571.64 520.948 1567 522L1568 516L1568 515L1557 504L1557 503L1559 499L1563 498L1561 489L1557 488L1557 487L1574 479C1576.61 486.943 1588.04 486.52 1595 488L1595 480L1594 480L1594 484L1593 484L1590 480C1593.07 473.751 1600.37 471.784 1607 472L1608 468L1612 468C1612.61 463.058 1612.1 458.39 1617 456L1613 449L1611 450C1610.1 442.743 1609.54 437.333 1618 436L1615 432C1618.61 425.082 1618.72 419.571 1617 412L1600 416L1599 413L1602 412C1598.54 404.065 1595.67 408.926 1589.58 408.407C1586.55 408.149 1583.95 404.918 1581 404L1584 395L1577 389L1581 389L1578 373L1586 376L1583 373C1582.23 368.578 1579.94 369.022 1576 369C1577.4 361.356 1576.52 353.859 1570 349L1566 352C1568.21 347.372 1574.75 339.746 1569 336L1569 335L1576 336C1578.77 332.898 1580.93 332.466 1585 333C1591.22 325.927 1599.98 326.398 1608 323L1604 320L1604 319L1608 318L1607 315L1612 313C1612.75 316.552 1614.52 315.75 1616 313L1612 313C1613.8 306.966 1618.51 301.87 1625 302C1627.39 297.899 1630.49 296.946 1635 296L1636 288L1637 292C1641.53 289.271 1644.41 283.226 1644 278L1640 282L1637 271L1640 270L1640 269L1637 268L1640 258L1634 258L1635 262L1631 256C1634.2 255.311 1633.75 253.946 1633 251L1632 251L1628 256L1631 252L1631 251L1627 250L1631 243C1626.45 243.571 1623.53 244.32 1620 241L1619 241L1618 244L1600 246L1605 237L1606 240L1610 240C1609.55 235.053 1607.98 232.006 1604 229C1600.04 235.537 1591.22 227.554 1585 228.569C1577.43 229.805 1570.49 233.741 1563.04 235.501C1553.06 237.859 1543.11 237.798 1533 239.11C1527.47 239.828 1519.37 235.319 1516 240C1508.72 236.91 1498.65 235.74 1491 238L1490 235C1483.64 241.234 1473.61 239.976 1465 240L1471 232L1471 231C1464.59 229.155 1460.06 231.881 1454 234L1457 223C1449.05 221.555 1441.48 224.497 1435 229L1437 222L1422 226.906L1400 223.885L1387 225L1379 233L1376 231L1376 230L1379 225L1376 213L1391 195L1392 195L1393 197L1404 182L1403 175C1421.59 163.882 1414.78 146.303 1422.56 130.039C1426.32 122.181 1435.13 116.96 1437.2 108C1439 100.181 1442.29 88.3853 1433.74 83.7747C1420.99 76.8972 1411.34 86.7764 1402.96 94.9097C1395.87 101.796 1386.2 105.794 1379.76 113.289C1373.87 120.149 1371.59 129.075 1366 136L1362 131L1357 147L1356 147C1352.64 140.986 1347.76 146.175 1343 148L1344 141C1340.79 142.401 1338.91 144.635 1336 142L1334 146L1333 146L1332 119L1326 123L1316 121L1302 129L1299 126L1298 131L1293 134L1292 134L1292 129L1290 129L1289 144C1283.44 145.495 1276.71 147.837 1276 154L1275 154C1273.09 150.453 1270.97 149.454 1267 150C1266.35 145.315 1269.62 139.872 1264 138L1265 135L1264 135L1257 143L1257 133L1253 135L1252 131L1250 131L1244 136C1241.53 125.36 1233.75 124.958 1224 124C1219.59 129.764 1214.87 134.679 1209 128L1190 133L1195 146L1192 145C1187.97 156.332 1196.83 161.446 1181 161C1180.41 170.714 1171.89 165.092 1166.3 167.607C1163.1 169.048 1160.99 173.822 1158 176L1160 165L1153 168L1152 168L1156 152L1145 160L1141 159L1137 180L1135 180C1133.59 177.281 1127.51 174.275 1127.48 171.448C1127.47 169.331 1130.86 167.631 1131.82 165.87C1134.27 161.437 1136.63 148.886 1131 147C1128.43 156.014 1125.59 162.169 1118 168L1121 159L1115 160L1115 159C1120.06 155.971 1120.76 150.563 1121 145L1118 145L1117 152C1113.23 142.153 1122.91 127.502 1123 117C1127.24 116.38 1129.95 114.794 1132 111L1137 112L1141 101L1138 100L1144 96L1147 85L1138 75L1136 82L1129 81L1123 84L1126 75L1120 78C1119.75 68.3676 1120.68 59.2137 1128 52C1121.61 46.3966 1124.96 44.2198 1128 38C1122.21 37.824 1119.2 32.2554 1118 27L1114 27L1114 23L1118 24L1117 20L1114 20L1109 26L1110 15L1104 16L1105 13L1099 16L1098 3L1091 7L1090 16L1080 16L1080 9L1076 16C1070.31 12.5402 1062.68 10.3868 1060 18L1059 18L1054 0L1043 0L1043 8L1039 8L1040 0L1001 0L1001 20L1000 20C999.771 14.9905 999.232 7.0498 995 4L990 33L989 33L989 0L985 0L985 9C981.104 6.31018 975.615 5.97485 973.118 11.1296C970.735 16.0497 974.414 24.1094 972.581 29.9598C971.039 34.8812 965.571 36.942 962.329 40.5864C960.263 42.9084 960.196 45.8309 958 48L954 40L953 40L953 48L952 49L947 49L947 37L943 36L945 28C938.898 30.8795 940.386 35.5741 936.417 39.5339C931.563 44.3762 932.547 32.8834 933 31L927 45L926 45L926 37L924 37L922 46C919.199 43.3561 920.788 39.099 918.354 37.0284C914.149 33.4504 909.227 38.6301 908 31C898.296 33.8982 894.593 32.34 885 27C890.135 24.3849 895.414 19.7046 897 14L891 16C888.212 11.4049 882.083 13.5267 880.013 18.1327C877.968 22.6838 878.882 31.2488 880 36C872.559 35.7496 869.62 30.4626 868 24L874 17C868.289 20.3507 865.427 27.5824 859 21L857 25L851 23L847 28L846 21L840 21L828 27L832 43C822.948 33.9479 815.716 28.3716 810 17L804 19L805 27C798.594 23.0698 793.822 28.5437 800 33L794 38L792 33L791 36C784.251 37.1296 787.561 42.9648 788 48L780 29L772 34L778 33L772 40L771 40C768.97 32.8383 764.459 40.7119 763 44L762 44C763.471 39.6803 763.867 36.5422 759 35L756 52L749 46L747 46L746 52L737 48L738 43L729 44L731 55L718 55L724 68L715 64L708 53L702 52L706 60L700 59L704 69L698 68L696 72L696 63L690 68L684.889 40L687.711 29L692 0L625 0z"/>
<path style="fill:#fcfcfc; stroke:none;" d="M690 68L696 63L696 72L698 68L704 69L700 59L706 60L702 52L708 53L715 64L724 68L718 55L731 55L729 44L738 43L737 48L746 52L747 46L749 46L756 52L759 35C763.093 37.2062 762.896 39.7308 762 44L763 44C765.037 40.9314 768.523 33.2618 771 40L772 40L778 33L772 34L780 29L788 48C787.855 39.3918 787.552 39.7928 792 33L794 38L800 33C794.712 27.3722 799.038 24.4856 805 27L804 19L810 17C814.294 28.5165 821.856 35.8545 832 43L828 27C832.946 25.7896 837.511 25.8951 840 21L846 21L847 28L851 23L857 25L859 21C864.455 28.5502 869.238 21.2094 874 17L868 24C869.225 30.4587 872.204 37.1238 880 36C879.154 31.2308 878.099 22.501 880.471 18.1327C882.859 13.736 887.77 12.2201 891 16L897 14L885 27C892.947 33.2465 899.487 35.1748 908 31C908.671 39.6127 914.473 33.0007 918.188 37.6072C920.72 40.7469 917.661 43.5394 922 46L924 37L926 37L926 45L927 45L933 31C932.36 32.9904 931.232 45.0779 936.417 40.338C940.191 36.8877 940.064 31.5183 945 28L943 36L947 37C944.896 41.3973 945.123 44.5449 947 49L952 49L953 48L953 40L954 40L958 48C961.661 45.2893 971.746 34.441 972.811 29.9598C974.086 24.5934 971.194 15.4591 973.777 11.1296C976.486 6.58838 980.968 7.04126 985 9L985 0L769 0L713 0L692.742 1.02771L689.385 18L684.524 39L690 68M989 0L989 33L990 33C995.827 24.5125 994.236 13.9006 995 4L1000 20L1001 20L1001 0L989 0M1040 0L1039 8L1043 8L1043 0L1040 0M1054 0L1059 18L1060 18C1063.73 11.1246 1069.86 13.4803 1076 16L1080 9L1080 16L1090 16L1091 7L1098 3L1099 16L1105 13L1104 16L1110 15L1109 26L1114 20L1117 20L1118 24L1114 23L1114 27L1118 27C1118.66 32.644 1121.86 38.1945 1128 38C1123.77 43.073 1121.54 47.808 1128 52C1119.67 57.5869 1119.4 69.1411 1120 78L1126 75L1123 84L1129 81L1136 82L1138 75L1147 85C1144.67 89.4984 1141.59 90.6904 1144 96L1138 100L1141 101L1137 112L1132 111L1123 117C1122.78 126.452 1112.31 143.624 1117 152L1118 145L1121 145C1120.54 150.667 1119.36 155.169 1115 159L1115 160L1121 159L1118 168C1126.22 163.729 1129.45 155.751 1131 147C1140.98 152.798 1128.01 165.17 1127.18 171.154C1126.74 174.279 1133.21 177.719 1135 180L1137 180L1141 159L1145 160L1156 152L1152 168L1153 168L1160 165L1158 176C1161.94 174.103 1162.85 170.107 1166.3 168.042C1171.75 164.774 1181 171.471 1181 161C1183.67 161.17 1187.28 162.763 1189.85 162.137C1194.71 160.954 1191.01 149.096 1192 145L1195 146L1190 133L1209 128C1213.71 136.046 1220.75 130.236 1224 124C1233.77 125.889 1240.53 125.464 1244 136L1250 131L1252 131L1253 135L1257 133L1257 143C1261.18 141.496 1262.55 139.098 1264 135L1265 135L1264 138C1268.9 140.779 1265.85 145.292 1267 150L1275 154L1276 154C1277.24 148.078 1283.75 146.089 1289 144L1290 129L1292 129L1292 134L1293 134L1298 131L1299 126L1302 129C1306.55 127.635 1315.22 125.679 1316 121L1326 123L1332 119L1333 146L1334 146L1336 142L1337 145L1344 141L1343 148C1348.09 146.794 1351.75 142.341 1356 147L1357 147L1362 131L1366 136C1371.67 131.049 1373.88 122.214 1378.35 116.039C1383.67 108.683 1392.06 104.633 1399.04 99.1003C1408.82 91.3446 1413.33 82.3178 1427 82.1489C1441.81 81.966 1439.3 98.5418 1436.72 108C1434.32 116.825 1425.46 121.933 1422.14 130.039C1418.48 138.989 1420.4 149.074 1417.33 157.914C1415.36 163.583 1407.46 171.005 1403 175L1405 177L1404 182L1392 195L1391 195L1376 213L1379 225L1376 230L1376 231L1379 233L1387 225C1392.5 228.688 1402.56 224.194 1409 223.639C1413.89 223.217 1417.39 227.387 1422 227.402C1426.69 227.417 1432.52 223.491 1437 222L1435 229C1442.32 225.42 1448.58 222.266 1457 223L1454 234L1471 231L1471 232L1465 240C1473.32 239.995 1484.64 242.246 1490 235L1491 238C1499.2 236.048 1508.07 237.524 1516 240C1520.23 236.143 1527.2 240.264 1533 239.36C1543.5 237.724 1554.01 238.058 1564.43 235.634C1571.44 234.004 1577.83 230.013 1585 228.909C1590.82 228.012 1601.4 236.359 1604 229L1610 240L1605 237L1600 246L1618 244L1619 241L1620 241C1622.82 244.916 1626.69 243.8 1631 243L1627 250L1631 251L1631 252L1628 256L1632 251L1633 251L1631 256L1635 262L1634 258L1640 258L1637 268L1640 269L1640 270L1637 271L1640 282L1644 278C1644.13 283.228 1640.77 288.573 1637 292L1636 288C1632.74 290.387 1633.55 292.515 1635 296C1630.35 296.63 1626.78 297.342 1625 302C1618.42 300.963 1613.06 306.687 1612 313L1616 313C1614.02 314.851 1613.43 315.43 1612 313L1607 315L1608 318L1604 319L1604 320L1608 323C1600.34 325.39 1589.54 325.406 1585 333C1580.91 332.125 1578.21 332.22 1576 336L1569 335L1569 336C1573.58 340.689 1567.8 346.735 1566 352L1570 349C1575.6 354.971 1576.94 361.003 1576 369C1579.8 369.349 1581.88 368.949 1583 373L1586 376L1578 373L1581 389L1577 389C1578.12 392.96 1579.78 395.065 1584 395L1581 404C1583.61 405.321 1586.09 408.175 1589.01 408.678C1595.5 409.794 1597.37 404.678 1602 412L1599 413L1600 416L1617 412L1615 432L1618 436C1609.29 436.798 1609.65 442.713 1611 450L1613 449L1617 456C1611.68 457.696 1612.35 463.135 1612 468L1608 468L1607 472C1600.79 470.921 1591.92 473.504 1590 480L1593 484L1594 484L1594 480L1595 480L1595 488C1587.46 485.513 1578.26 486.914 1574 479L1557 487L1557 488L1561 489C1559.18 492.448 1561.09 494.828 1563 498L1559 499L1557 503L1557 504L1568 515L1568 516L1567 522C1572.2 522.226 1579.9 523.527 1583.18 528.204C1585.73 531.85 1578.42 538.23 1585 539L1586 542L1582 544L1585 579L1563 571L1550 572C1552.08 573.957 1553.51 575.057 1551 577L1554 588L1553 588L1546 583C1547.43 590.661 1551.72 598.23 1541 597L1559 611L1559 612L1553 615C1559.39 623.846 1568.06 630.431 1573.65 640C1578.96 649.09 1579.92 659.58 1584.32 669C1588.29 677.468 1595.96 683.91 1594 694L1590 693C1592.71 701.916 1589.27 703.935 1586 712L1584 710L1583 710L1582 710L1575 716C1572.42 707.218 1563.41 707.285 1557.17 702.451C1548.94 696.075 1545.91 684.804 1537.98 678.299C1531.79 673.217 1525.46 674.938 1519 672L1518 672C1513.43 679.736 1519.03 678.634 1524 682L1528 684L1524 684L1525 690L1528 689C1531.64 694.977 1533.09 698.705 1524 699L1524 700C1530.19 700.15 1534.3 702.258 1537 708L1553 715L1553 716L1529.29 717.575L1515 727L1513 725L1502 729L1510 737L1510 738C1501.06 743.36 1508.32 747.368 1515 750L1513 755L1518 755L1518 756L1512 755C1508.91 765.401 1498.49 760.257 1491 760.274C1485.06 760.287 1482.06 763.21 1476.9 764.741C1468.09 767.351 1458.62 768.076 1450 771L1450 772C1452.73 773.604 1453.07 774.561 1451 777C1449.58 782.736 1444.88 781.902 1440 781L1439 782L1439 784L1444.41 789.296L1454.91 786.72L1484 783.164L1507.81 786.028L1517 794L1517 804C1508.14 807.384 1508.42 824.796 1520 823L1516 831L1498 835C1500.27 839.547 1500.72 842.174 1499 847L1496 846L1494 852L1484 855L1484 856C1488.24 865.196 1475.23 860.489 1470 863L1468 874L1465 873C1459.59 878.989 1457.59 883.794 1460 892C1453.29 890.683 1451.23 891.632 1446 896L1440 890L1441 898L1447 899L1446 905L1452 902L1453 907L1452 907L1449 904L1449 908L1446 905L1443 906L1445 916L1449 915C1447.45 920.098 1443.78 919.983 1439 920C1438.21 915.171 1434.24 912.099 1430 910L1432 916L1427 917L1425 915L1420 924L1413 927L1410 925L1412 933L1411 933L1403 921C1398.76 924.312 1403.73 928.729 1406 932L1401 931C1403.42 934.707 1412.76 944.155 1411.39 948.899C1407.75 961.521 1389.72 950.941 1389 966L1366 957L1364 957L1361 965L1354 963L1353 968L1348 963L1348 970L1340 966L1343 976C1338.49 976.145 1337.07 974.447 1337 970L1335 971L1335 970L1335 965L1331 968C1322.33 965.525 1325.47 963.125 1320.4 957.448C1318.54 955.369 1315.56 955.972 1313.6 954.242C1310.28 951.314 1311.16 944.744 1312 941L1307 931L1300 933L1301 940L1305 937L1306 937C1303.5 946.155 1306.52 947.47 1307.78 956.001C1308.64 961.802 1306.35 967.166 1312 971C1307.7 980.356 1319.52 982.958 1319 993C1315.31 989.791 1307.91 982.577 1304 988C1301.61 983.047 1302.36 978.014 1296 977L1296 978L1297 988L1296 988L1296 983L1291 984L1290 988L1287 987L1288 981C1281.78 979.448 1276.43 973.593 1277 967C1267.19 968.637 1278.54 987.707 1280.41 994C1281.58 997.932 1283.55 1005.18 1277 1002L1276 1006C1267.92 1002.12 1265.72 1011.47 1260.61 1015.25C1257.4 1017.61 1254.63 1017.58 1252 1021L1251 1021L1249 1019L1252 1032L1245 1026L1246 1043L1243 1043L1236 1026L1238 1059L1237 1059C1235.02 1050.12 1231.72 1042.19 1230.61 1033C1230.14 1029.16 1231.32 1025.27 1227 1024L1216 997C1208.75 999.56 1216.45 1010.9 1218 1016L1212 1011L1205 1006L1200 1009L1191.14 987.995L1187 980L1187 976L1186 976C1183.79 982.114 1184.42 991.252 1191 994L1191 995L1181 997C1176.85 986.8 1175.34 993.578 1170 997L1168 993C1166.46 1005.22 1175.57 1012.31 1171 1024C1175.12 1026.18 1175.56 1028.74 1174 1033C1170.7 1026.99 1157.97 1013.87 1163 1008L1163 1007L1158 1008L1153 1004C1155.18 985.438 1139.52 982.5 1132 969L1131 988C1135.16 991.468 1135.2 994.938 1134 1000C1136.97 1003.14 1135.79 1005.35 1134 1009L1133 1009L1131 1005L1128 1007L1128 1008L1130 1012L1117 992L1105 1011L1096 1009L1080 1024L1088.06 1047.95L1115 1075L1112 1074C1111.38 1080.44 1116.96 1080 1122 1080L1156 1080L1301 1080L1920 1080L1920 0L1054 0z"/>
<path style="fill:#040404; stroke:none;" d="M832.667 7.33337L833.333 7.66663L832.667 7.33337M890 7L891 8L890 7M1071 7L1072 8L1071 7z"/>
<path style="fill:#fcfcfc; stroke:none;" d="M980 16L981 16L983 8L980 16M976 9L977 10L976 9z"/>
<path style="fill:#040404; stroke:none;" d="M892.333 10.6666L892.667 11.3334L892.333 10.6666z"/>
<path style="fill:#fcfcfc; stroke:none;" d="M1092 10L1095 12L1092 10M1040 12L1039 16L1040 16L1040 12z"/>
<path style="fill:#040404; stroke:none;" d="M839 14L844 16L844 15L839 14z"/>
<path style="fill:#fcfcfc; stroke:none;" d="M885 16L890 20L885 16M1067 16L1069 19L1067 16M1076 16L1079 20L1076 16M1103 17L1104 18L1103 17z"/>
<path style="fill:#040404; stroke:none;" d="M800 20L803 20L802 18L800 20z"/>
<path style="fill:#fcfcfc; stroke:none;" d="M980 21L980 24L982 24L982 21L980 21M885.667 24.3334L886.333 24.6666L885.667 24.3334M844 25L845 26L844 25M976 25L977 26L976 25M1000 26L996 36C999.927 33.9458 1002.61 30.1213 1000 26z"/>
<path style="fill:#040404; stroke:none;" d="M1120 28L1123 28L1122 26L1120 28z"/>
<path style="fill:#fcfcfc; stroke:none;" d="M976.333 27.6666L976.667 28.3334L976.333 27.6666z"/>
<path style="fill:#040404; stroke:none;" d="M783 30L789 32L789 30L783 30M876 29L878 32L876 29z"/>
<path style="fill:#fcfcfc; stroke:none;" d="M1112 29L1112 36L1113 36L1114 29L1112 29M852.667 31.3334L853.333 31.6666L852.667 31.3334M976 33L976 36L978 33L976 33M803 34L805 37L803 34M880 39L878 44L881 45L880 39M768 41L770 43L770 41L768 41M793 42L793 44L795 44L795 42L793 42z"/>
<path style="fill:#040404; stroke:none;" d="M717 47L717 48L722 49L721 52L725 52C723.453 47.9556 721.181 47.2311 717 47z"/>
<path style="fill:#fcfcfc; stroke:none;" d="M921 49L921 52L923 49L921 49M748 55L749 56L748 55z"/>
<path style="fill:#040404; stroke:none;" d="M696 57L696 60L698 60L698 57L696 57z"/>
<path style="fill:#fcfcfc; stroke:none;" d="M707 63L708 69L709 69L709 63L707 63z"/>
<path style="fill:#040404; stroke:none;" d="M1144 65L1144 68L1146 68L1146 65L1144 65z"/>
<path style="fill:#fcfcfc; stroke:none;" d="M703 71C700.323 75.8544 700.134 78.8243 705 82L703 71z"/>
<path style="fill:#040404; stroke:none;" d="M1139.67 71.3333L1140.33 71.6667L1139.67 71.3333M1145 72C1143.75 77.8152 1151.87 84.2518 1154 77L1149 79L1145 72M1132 75L1132 76L1136 76L1132 75M1155 75L1156 76L1155 75M592 85L592 88L593 88L592 85M595 91L596 92L595 91z"/>
<path style="fill:#fcfcfc; stroke:none;" d="M1113 91L1114 92L1113 91z"/>
<path style="fill:#040404; stroke:none;" d="M596 94L596 96L598 96L596 94z"/>
<path style="fill:#fcfcfc; stroke:none;" d="M600.333 102.667L600.667 103.333L600.333 102.667z"/>
<path style="fill:#040404; stroke:none;" d="M506.667 107.333L507.333 107.667L506.667 107.333z"/>
<path style="fill:#fcfcfc; stroke:none;" d="M697 113L695 121L693 118L691 132L696 131L693 142L697 141L698 137L699 137L698 145C692.282 144.432 690.79 150.249 692.988 154.995C695.132 159.625 699.448 161.522 704 163C707.879 161.493 710.713 165.023 713 168L718 168L716 171L736.867 176.819L754 188L753 178L762 176L758 169L783 178L788 168L784 153C774.378 167.217 769.859 158.866 757 154.094C743.201 148.974 729.576 141.8 718.104 132.39C710.653 126.279 707.207 115.905 697 113z"/>
<path style="fill:#040404; stroke:none;" d="M502.667 115.333L503.333 115.667L502.667 115.333z"/>
<path style="fill:#fcfcfc; stroke:none;" d="M1115 119L1115 120L1121 120L1115 119M556 137L557 138L556 137M1099 147L1100 148L1099 147z"/>
<path style="fill:#040404; stroke:none;" d="M1127 147L1122 156C1125.61 154.949 1127.92 150.615 1127 147z"/>
<path style="fill:#fcfcfc; stroke:none;" d="M1195 147L1197 152L1198 152L1195 147M1356 148L1356 152L1357 152L1356 148z"/>
<path style="fill:#040404; stroke:none;" d="M694 149L695 150L694 149z"/>
<path style="fill:#fcfcfc; stroke:none;" d="M1257 151L1257 152L1260 152L1257 151M694 161L695 166L696 166L696 161L694 161M699 164C695.391 171.87 712.733 185.821 720 189L720 185L717 179L712 180L714 174L699 164M1109 165L1105 173C1108.15 171.059 1110.23 168.764 1109 165z"/>
<path style="fill:#040404; stroke:none;" d="M707.333 175.667L707.667 176.333L707.333 175.667M481.667 177.333L482.333 177.667L481.667 177.333z"/>
<path style="fill:#fcfcfc; stroke:none;" d="M1113 178L1112 184L1115 184L1113 178z"/>
<path style="fill:#040404; stroke:none;" d="M746 179L747 180L746 179z"/>
<path style="fill:#fcfcfc; stroke:none;" d="M1099.67 179.333L1100.33 179.667L1099.67 179.333M779 180L780 181L779 180M417 184L418 185L417 184z"/>
<path style="fill:#040404; stroke:none;" d="M410 185L411 186L410 185z"/>
<path style="fill:#fcfcfc; stroke:none;" d="M724 186L730 195L724 186M786 187L787 188L786 187M412 189L412 192L413 192L414 189L412 189M721 189L722 190L721 189z"/>
<path style="fill:#040404; stroke:none;" d="M364 191L365 192L364 191z"/>
<path style="fill:#fcfcfc; stroke:none;" d="M478 191L480 193L480 191L478 191M412 193L412 196L414 195L414 194L412 193M728 196L728 200L730 200L730 196L728 196M480 203L481 204L480 203M479 205L479 211L480 211L479 205M1375 211L1376 212L1375 211M352.333 216.667L352.667 217.333L352.333 216.667M338 217L334 223L338 224L338 217M1373 217L1373 220L1374 220L1373 217z"/>
<path style="fill:#040404; stroke:none;" d="M1613 218L1613 220L1615 220L1613 218z"/>
<path style="fill:#fcfcfc; stroke:none;" d="M474 232L478 236L474 232M455 235L458 240L455 235M466 237L466 240L467 240L466 237M1519 238L1518 242L1519 238z"/>
<path style="fill:#040404; stroke:none;" d="M1632 243L1633 244L1632 243z"/>
<path style="fill:#fcfcfc; stroke:none;" d="M332.667 251.333L333.333 251.667L332.667 251.333M336 257L343 264L336 257z"/>
<path style="fill:#040404; stroke:none;" d="M323.333 258.667L323.667 259.333L323.333 258.667z"/>
<path style="fill:#fcfcfc; stroke:none;" d="M346.333 258.667L346.667 259.333L346.333 258.667M1636.67 259.333L1637.33 259.667L1636.67 259.333z"/>
<path style="fill:#040404; stroke:none;" d="M1642 265L1642 267L1644 267L1644 265L1642 265z"/>
<path style="fill:#fcfcfc; stroke:none;" d="M1634.67 267.333L1635.33 267.667L1634.67 267.333z"/>
<path style="fill:#040404; stroke:none;" d="M1642 268L1641 269L1644 271L1642 268M338 285L338 288L340 288L340 285L338 285M1647 289L1650 292L1649 289L1647 289z"/>
<path style="fill:#fcfcfc; stroke:none;" d="M304 332L309 332L308 325C304.313 326.223 304.12 328.308 304 332z"/>
<path style="fill:#040404; stroke:none;" d="M298 331L300 333L300 331L298 331z"/>
<path style="fill:#fcfcfc; stroke:none;" d="M297.333 341.667L297.667 342.333L297.333 341.667z"/>
<path style="fill:#040404; stroke:none;" d="M290 342L288 345L290 342z"/>
<path style="fill:#fcfcfc; stroke:none;" d="M296.667 344.333L297.333 344.667L296.667 344.333M284 373L287 376L284 373M283.667 381.333L284.333 381.667L283.667 381.333M282.333 385.667L282.667 386.333L282.333 385.667z"/>
<path style="fill:#040404; stroke:none;" d="M270 395L270 396L274 394L270 395M279 405L279 408L280 408L279 405z"/>
<path style="fill:#fcfcfc; stroke:none;" d="M1592 415L1592 416L1596 416L1592 415M1598 416L1599 417L1598 416M278 421L279 422L278 421M370 425L370 428C372.006 426.873 372.006 426.127 370 425M378 427L379 428L378 427M388.667 431.333L389.333 431.667L388.667 431.333M274 435L275 436L274 435z"/>
<path style="fill:#040404; stroke:none;" d="M356 442L357 443L356 442M274 449L275 450L274 449M274.667 451.333L275.333 451.667L274.667 451.333z"/>
<path style="fill:#fcfcfc; stroke:none;" d="M338 467L338 468L342 468L338 467M333 468L332 472L336 471L336 469L333 468M1552 491L1553 494L1557 493L1557 491L1552 491M304 491L305 492L304 491M315 499L316 500L315 499M1581 534L1582 535L1581 534M306 559L307 560L306 559M319 574L318 576L320 576L319 574z"/>
<path style="fill:#040404; stroke:none;" d="M298.667 595.333L299.333 595.667L298.667 595.333z"/>
<path style="fill:#fcfcfc; stroke:none;" d="M305 599L306 600L305 599z"/>
<path style="fill:#040404; stroke:none;" d="M285 617L288 620L285 617z"/>
<path style="fill:#fcfcfc; stroke:none;" d="M298 617L301 620L298 617M308 637L310 640L308 637M292 639L293 640L292 639M298 655L299 656L298 655z"/>
<path style="fill:#040404; stroke:none;" d="M218 660L221 660L220 658L218 660z"/>
<path style="fill:#fcfcfc; stroke:none;" d="M276 666L276 668L278 668L276 666M284 669L285 670L284 669M285 671L286 672L285 671z"/>
<path style="fill:#040404; stroke:none;" d="M1539 703L1540 704L1539 703z"/>
<path style="fill:#fcfcfc; stroke:none;" d="M306 724L311 728L312 728L313 722L306 724M314 723L315 724L314 723M200 725L201 726L200 725M317 725L317 732L323 733L324 732L317 725M1495 725L1495 729L1500 728L1500 727L1495 725M242 755L243 756L242 755M1458 759L1458 760L1462 760L1458 759M1466 759L1467 760L1466 759M1470 759L1471 760L1470 759M1482 759L1483 760L1482 759M1477 761L1478 762L1477 761M1424.67 771.333L1425.33 771.667L1424.67 771.333M240 775L241 776L240 775M1427 775L1428 776L1427 775z"/>
<path style="fill:#040404; stroke:none;" d="M1515 806C1514.27 809.447 1514.03 811.792 1518 812L1516 810L1516 809L1518 807L1515 806z"/>
<path style="fill:#fcfcfc; stroke:none;" d="M290 819L291 820L290 819M1511 820L1511 824L1512 824L1511 820z"/>
<path style="fill:#040404; stroke:none;" d="M263 825L263 826L270 828L270 827L263 825z"/>
<path style="fill:#fcfcfc; stroke:none;" d="M1483.67 859.333L1484.33 859.667L1483.67 859.333M303.667 867.333L304.333 867.667L303.667 867.333M298 871L295 876L298 871z"/>
<path style="fill:#040404; stroke:none;" d="M279 874L280 880L286 878C284.017 874.832 282.785 873.436 279 874z"/>
<path style="fill:#fcfcfc; stroke:none;" d="M292 877L293 878L292 877M596 879L594 884C598.842 887.937 600.082 892.754 595 897L598 900L598 896L602 898L606 891L606 890L602 883L596 879M299 883L300 884L299 883M338 883L339 885L340 885L341 883L338 883M597 891L598 892L597 891z"/>
<path style="fill:#040404; stroke:none;" d="M326.667 893.333L327.333 893.667L326.667 893.333z"/>
<path style="fill:#fcfcfc; stroke:none;" d="M349 893L346 901C349.139 898.96 350.401 896.62 349 893z"/>
<path style="fill:#040404; stroke:none;" d="M284 904L288 901L284 904z"/>
<path style="fill:#fcfcfc; stroke:none;" d="M1441 905L1441 908L1442 908L1441 905z"/>
<path style="fill:#040404; stroke:none;" d="M289 907L290 908L289 907z"/>
<path style="fill:#fcfcfc; stroke:none;" d="M589 911L590 912L589 911M1416 911L1416 915L1408 913C1409.2 917.921 1412.09 920.808 1417 922L1418 911L1416 911M1407 917L1408 918L1407 917z"/>
<path style="fill:#040404; stroke:none;" d="M1434 921L1435 921L1437 917L1434 921M1430 921L1428 928L1432 921L1430 921z"/>
<path style="fill:#fcfcfc; stroke:none;" d="M587 925L587 932L588 932L587 925z"/>
<path style="fill:#040404; stroke:none;" d="M644 925L646 927L644 925z"/>
<path style="fill:#fcfcfc; stroke:none;" d="M352.333 927.667L352.667 928.333L352.333 927.667z"/>
<path style="fill:#040404; stroke:none;" d="M328.667 929.333L329.333 929.667L328.667 929.333z"/>
<path style="fill:#fcfcfc; stroke:none;" d="M348 929L348 933L349 933L348 929M573 935L574 936L573 935M587.333 937.667L587.667 938.333L587.333 937.667M658 937L656 940C658.251 939.527 659.118 939.14 658 937M653 939L654 940L653 939M1262 939L1264 943L1262 939z"/>
<path style="fill:#040404; stroke:none;" d="M632 943L632 944L636 944L632 943z"/>
<path style="fill:#fcfcfc; stroke:none;" d="M1265 943L1265 944L1268 944L1265 943M567 944L569 948L570 948L567 944M1265 956L1260 954C1261.28 960.338 1265.59 964.286 1272 965L1268 948L1265 956M1259 953L1262 952L1259 953M1287 951L1288 952L1287 951M1401 951L1404 954L1404 951L1401 951M372.667 955.333L373.333 955.667L372.667 955.333M1328.67 957.333L1329.33 957.667L1328.67 957.333M378 959L376 965L377 965L378 959M381 959L382 960L381 959M1278.67 959.333L1279.33 959.667L1278.67 959.333M1286 959L1287 960L1286 959M1285.67 961.333L1286.33 961.667L1285.67 961.333M1296 963L1296 967L1297 967L1296 963z"/>
<path style="fill:#040404; stroke:none;" d="M1348 967L1349 968L1348 967z"/>
<path style="fill:#fcfcfc; stroke:none;" d="M1283 969L1282 972L1283 969M1239 972L1242 972L1241 970L1239 972M375 971L376 972L375 971M1296 972L1296 974L1298 974L1296 972M374.333 974.667L374.667 975.333L374.333 974.667M491 975L492 976L491 975M513 975L514 976L513 975M656 986L666 975L656 986M490 977L491 978L490 977z"/>
<path style="fill:#040404; stroke:none;" d="M1345 977L1344 978L1344 979L1344 980L1347 977L1345 977z"/>
<path style="fill:#fcfcfc; stroke:none;" d="M1169 978L1169 980L1171 980L1169 978M1292 979L1293 980L1292 979M519 980L520 981L519 980M1161.33 980.667L1161.67 981.333L1161.33 980.667M1296.33 981.667L1296.67 982.333L1296.33 981.667z"/>
<path style="fill:#040404; stroke:none;" d="M1351.33 982.667L1351.67 983.333L1351.33 982.667z"/>
<path style="fill:#fcfcfc; stroke:none;" d="M1267 984L1271 988L1267 984z"/>
<path style="fill:#040404; stroke:none;" d="M519 985L520 986L519 985z"/>
<path style="fill:#fcfcfc; stroke:none;" d="M1257 985L1258 986L1257 985M638 986L639 987L638 986M1205 987L1204 992L1205 992L1207 987L1205 987z"/>
<path style="fill:#040404; stroke:none;" d="M572 988L573 992L574 992L572 988z"/>
<path style="fill:#fcfcfc; stroke:none;" d="M653 988L647 996C650.496 994.852 653.546 991.839 653 988M979 989L978 992L981 992L979 989M1154 989L1158 993L1154 989M636.333 990.667L636.667 991.333L636.333 990.667z"/>
<path style="fill:#040404; stroke:none;" d="M630 991L631 992L630 991z"/>
<path style="fill:#fcfcfc; stroke:none;" d="M1261 991L1262 992L1261 991M1272 991L1274 995L1264 996L1265 1007L1266 1007L1270 1000L1276 1003L1277 1002L1272 991z"/>
<path style="fill:#040404; stroke:none;" d="M507.333 992.667L507.667 993.333L507.333 992.667M502 994L504 996L504 994L502 994z"/>
<path style="fill:#fcfcfc; stroke:none;" d="M1157 994L1156 999L1157 999L1157 994M639.667 995.333L640.333 995.667L639.667 995.333z"/>
<path style="fill:#040404; stroke:none;" d="M628 996L628 998L630 998L628 996M1190 996L1190 1000L1191 1000L1190 996z"/>
<path style="fill:#fcfcfc; stroke:none;" d="M934.333 997.667L934.667 998.333L934.333 997.667M979 999L980 1000L979 999M976 1011C978.407 1017.62 982.497 1024.12 974 1028L974 1017C967.493 1019.18 970.302 1035.14 967.771 1040.98C965.495 1046.24 960.472 1046.09 961 1040L965 1038C959.624 1037.76 959.114 1033.7 959 1029L954 1032C953.796 1025.72 949.321 1021.91 944 1019L947.952 1036L945 1061C929.833 1056.54 944.851 1040.79 938 1034L936 1038L929 1026L928 1026L924 1032L926 1027L918 1030L918 1025C912.645 1029.08 916.402 1038.97 915.351 1045C914.656 1048.99 911.614 1052.32 910 1056L901 1056C903.098 1051.08 915.388 1038.9 904 1037L903 1041L901 1041L899 1026L898 1026L891 1033C895.206 1042.55 888.213 1052 879 1056L879 1053C874.86 1056.96 875.3 1061.25 878 1066L868 1076L872 1076L872 1080L1037 1080L1034 1074L1044 1072C1043.3 1068.63 1040.7 1066.23 1040.05 1062.96C1038.49 1055.13 1042.83 1043.39 1031 1043L1031 1048L1029 1048L1028 1045L1024 1046L1030 1060L1022 1062C1020.37 1057.84 1018.48 1055.71 1014 1055L1014 1056L1019 1072L1012 1069C1009.58 1073.02 1006.97 1072.02 1004 1069L1002 1069L998 1072C999.213 1064.34 997.494 1056.21 988 1056L989.276 1044.04L1000 1024L996 1024L998 1015C985.4 1021.54 985.663 1006.26 984 999L976 1011z"/>
<path style="fill:#040404; stroke:none;" d="M1285 1004L1288 1007L1290 1010C1289.43 1006.42 1288.49 1005.06 1285 1004M1138.67 1007.33L1139.33 1007.67L1138.67 1007.33M1279 1007L1280 1008L1279 1007M1275 1008L1274 1012L1277 1009L1275 1008M1134 1012L1138 1011L1136 1009L1134 1012z"/>
<path style="fill:#fcfcfc; stroke:none;" d="M634 1010L637 1012L634 1010M630.667 1011.33L631.333 1011.67L630.667 1011.33M996 1011L997 1012L996 1011M1214.67 1011.33L1215.33 1011.67L1214.67 1011.33M1253.67 1011.33L1254.33 1011.67L1253.67 1011.33z"/>
<path style="fill:#040404; stroke:none;" d="M427 1015L428 1016L427 1015z"/>
<path style="fill:#fcfcfc; stroke:none;" d="M941 1015L942 1016L941 1015M953.667 1015.33L954.333 1015.67L953.667 1015.33M1243 1017L1245 1024L1243 1017M927 1019L927 1020L930 1020L927 1019z"/>
<path style="fill:#040404; stroke:none;" d="M1292 1021L1293 1022L1292 1021z"/>
<path style="fill:#fcfcfc; stroke:none;" d="M1000 1023L1001 1024L1000 1023z"/>
<path style="fill:#040404; stroke:none;" d="M423.667 1027.33L424.333 1027.67L423.667 1027.33z"/>
<path style="fill:#fcfcfc; stroke:none;" d="M882 1027L883 1028L882 1027M935 1029L934 1032L938 1032L935 1029M1077 1030L1076 1036L1078 1036L1077 1030z"/>
<path style="fill:#040404; stroke:none;" d="M972 1033L973 1034L972 1033z"/>
<path style="fill:#fcfcfc; stroke:none;" d="M682 1034L678 1044C683.233 1043.09 683.398 1038.65 684 1034L682 1034M489 1035L490 1036L489 1035z"/>
<path style="fill:#040404; stroke:none;" d="M972 1035L973 1036L972 1035z"/>
<path style="fill:#fcfcfc; stroke:none;" d="M1024 1036L1023 1040L1024 1040L1024 1036M964.333 1041.67L964.667 1042.33L964.333 1041.67M1031 1041L1032 1042L1031 1041M755 1043L752 1051L752 1052C757.296 1058.32 758.827 1072.52 753 1079L753 1080L792 1080C791.351 1076.42 786.64 1064.7 781.389 1067.89C778.113 1069.88 777.62 1074.06 774 1076L776 1067C772.134 1069.7 772.092 1074.58 772 1079C763.823 1071.36 774.598 1058.76 778 1051C774.305 1051.17 773.366 1052.65 772 1056L769 1049L766 1056L765 1056L758 1043L755 1043M808 1043L809 1044L808 1043M862.667 1043.33L863.333 1043.67L862.667 1043.33M1047 1044L1045 1049C1053 1055.93 1049.2 1070.47 1049 1080C1054.56 1080 1076.78 1082.71 1078 1077L1072 1073C1067.23 1072.89 1065.83 1070.07 1064 1066C1049.93 1069.34 1056.26 1048.94 1047 1044M786.333 1045.67L786.667 1046.33L786.333 1045.67M816.667 1045.33L817.333 1045.67L816.667 1045.33M1066 1045L1069 1050L1066 1045M788 1051L791 1057L787 1064L788 1064C791.409 1059.59 793.569 1054.69 788 1051M1020 1051L1019 1056L1022 1051L1020 1051M639.333 1053.67L639.667 1054.33L639.333 1053.67M1023.67 1055.33L1024.33 1055.67L1023.67 1055.33z"/>
<path style="fill:#040404; stroke:none;" d="M639 1057L640 1058L639 1057M771 1057L772 1058L771 1057z"/>
<path style="fill:#fcfcfc; stroke:none;" d="M813 1057L813 1067L814 1067L813 1057z"/>
<path style="fill:#040404; stroke:none;" d="M912 1059L913 1060L912 1059M880 1060C878.724 1063.22 878.954 1064.28 882 1066L880 1060M769.667 1061.33L770.333 1061.67L769.667 1061.33z"/>
<path style="fill:#fcfcfc; stroke:none;" d="M1063 1064L1064 1065L1066 1062L1063 1064M1086 1062L1089 1064L1089 1063L1086 1062M777 1063L778 1064L777 1063M793 1066L796 1063L793 1066z"/>
<path style="fill:#040404; stroke:none;" d="M945 1063L940 1073L935 1071L933 1075C939.732 1076.79 947.779 1070.19 945 1063z"/>
<path style="fill:#fcfcfc; stroke:none;" d="M1010.67 1063.33L1011.33 1063.67L1010.67 1063.33M1014 1063L1015 1064L1014 1063M864 1065L861 1067L861 1068L866 1068L864 1065M1013 1066L1012 1067L1012 1068L1013 1069L1014 1069L1015 1068L1015 1067L1013 1066M1080 1068L1078 1075C1081.14 1073.16 1082.13 1071.12 1080 1068M1088 1069L1088 1080L1092 1080L1088 1069M1099 1070L1098 1080L1104 1080L1099 1070M814 1072L814 1076L815 1076L814 1072M704 1073L703 1076L704 1077L707 1076L704 1073M861 1073L862 1077L864 1073L861 1073M794.667 1075.33L795.333 1075.67L794.667 1075.33M745 1080L751 1080C749.791 1075.73 746.95 1076.7 745 1080M814 1077L813 1080L814 1077M820 1077L821 1078L820 1077M828 1077L831 1080L828 1077M860 1077L859 1080L862 1080L860 1077M819 1078L818 1080L820 1080L819 1078M804 1079L805 1080L804 1079z"/>
<path style="fill:#040404; stroke:none;" d="M1072.67 1079.33L1073.33 1079.67L1072.67 1079.33z"/>
</svg>
