<?xml version="1.0" standalone="yes"?>
<svg xmlns="http://www.w3.org/2000/svg" width="1920" height="1080">
<path style="fill:#ffffff; stroke:none;" d="M0 0L0 1080L1920 1080L1920 0L0 0z"/>
<path style="fill:#131313; stroke:none;" d="M1327 247L1327 253L1328 253L1327 247M1293 255L1292 258L1285 255L1284 255L1280 256L1280 258C1273.08 256.309 1260.54 262.765 1259 270L1253 269L1243 290L1240 289L1239 297L1235 296L1231 329L1234 328C1235.09 331.267 1234.65 333.663 1232 333L1231 340L1232 340L1232 338L1233 338L1233 352L1234 352L1234 349L1235 349L1242 372L1253 372L1252 376L1256 374L1254 382L1254 383L1267 390C1269.23 392.51 1271.25 391.455 1274 390L1274 393L1279 393L1280 396L1281 396L1283 390L1293.91 392.768L1325 400L1329 393L1330 396L1332 393C1337.92 393.498 1343.04 387.257 1345 382L1346 384L1347 384L1354 371L1356 374L1359 366L1360 366L1360 368L1361 368C1360.43 364.409 1366.41 354.603 1367 359L1368 359L1373.04 341L1371 329L1373 332L1374 332L1370 315L1371 315L1371 317L1372 317L1372 313L1369 315L1366 309L1366 297L1370 300L1369 295L1363 292L1364 286L1361 287L1360 281L1356 282L1346 271L1343 274C1341.55 270.968 1335.77 260.787 1332 264L1331 264C1330.05 260.898 1329.25 260.134 1326 260L1326 254L1293 255z"/>
<path style="fill:#ffffff; stroke:none;" d="M1262 265L1263 266L1262 265M1353 280L1353 282L1355 280L1353 280M1248 282L1249 283L1248 282M1243 290L1244 291L1243 290z"/>
<path style="fill:#131313; stroke:none;" d="M1366 291L1367 292L1366 291M1368 293L1369 294L1368 293M1368 305L1370 308L1368 305M627 309L624 317L634 316L627 309M624 318L624 321L626 320L626 319L624 318M619 322L617 329L613 325L614 328L603 332L602 338L601 338L601 335L598 344L597 344L597 341L591 343L591 348L590 348L587 345L586 350L584 347L583 347L581 351L580 351L580 347L578 347L578 359L577 359L577 353L576 353L569 364L568 364L568 353C563.168 356.067 559.293 362.238 560 368L554 362L555 366L553 371L552 371L550 365L549 365C545.373 372.815 541.438 378.77 543 388L537 391L535 387L533 406L529 401L528 401L526 410L526 403L525 403L523 414C527.76 412.743 527.451 416.104 528 420L526 417L523 418L523 421L525 420L525 421C524.426 424.626 524.812 426.99 528 429L525 439L524 439L524 427L523 427L522 452L521 452L523 448L523 447C519.196 449.466 518.611 456.695 519 461L520 461L520 457L524 457L524 472L522 472L523 462C515.926 465.568 520.296 475.083 520 482L522 479L526 480C521.869 484.904 521.556 489.384 529 489L527 504C530.054 503.346 529.936 501.993 530 499L534 501C531.281 506.096 530.424 513.923 537 516L538 513L540 513L541 514L540 518L542 516L543 516L546 529L545 529L540 525C544.835 531.753 543.299 536.472 544 544L545 544L548 533L549 533L550 542L557 553L559 560L564 553L565 553L564 561L564 568L571 560L568 568L578 566L580 562L581 562L582 565L580 564L581 568L577 567L577 568C580.493 570.654 583.911 573.374 584 578L592 580L592 574L597 572L596 576C598.975 576.235 600.588 577.399 601 574L602 574L602 580L603 580L604 575L610 575L609 582L618 573L615 580L626 592L626 585L627 585L629 594L635 596L637 589L638 589L638 592L647 589L648 591L648 592L646 596L647 596C649.251 592.468 650.847 591.785 655 592L655 587L656 587L657 592L658 592L660 590L659 587L663 586L666 590L668 585L665 583L671 584L670 575L682 574L683 577L685 577L693 571L693 569L696 569C696.968 572.445 698.628 572.579 702 572L703 576L706 571L709 574C714.343 571.967 714.477 569.436 720 572L717 568L718 562L726 568L725 564L728 570L731 561L732 561L734 564L737 556L738 556L738 560L741 560L744 553L746 557C745.395 551.797 744.892 547.8 749 544L749 548L753 548L754 539L758 540C759.966 536.205 765.953 530.032 762 526L762 525L766 521L762 519L766 518L766 517L763 517L769 509L772 512L774 498L775 501L776 501L773 484L775 486L776 486L778 479L777 479L776 481L777 472L775 472L780 444L782 445L782 439L780 439L780 444L778 444L775.602 417.039L764 395L761 397L760 394L763 394L760 389L760 394C754.406 391.334 752.18 387.065 752 381L751 381L750 384L744 380L741 374L744 372L740 368L740 372L737 363L734 364L733 349L728 349L729 357L728 357L727 353L720 352L719 345L718 345L718 352L717 352C716.409 348.586 715.467 347.645 712 348L712 343L708 335L707 335L706 344L703 339L702 339L697 346L697 337L696 337L695 340L684 338L678 340L672 333L675 340L669 338L670 336L662 337L659 333L660 339L659 339C657.547 331.879 650.957 329.01 647 336C644.194 331.199 641.664 329.104 636 330L636 323L633 326L626 323L625 323L624 327L619 322M607 325L607 330L608 330L607 325M611 325L612 326L611 325M644 325L646 328L644 325z"/>
<path style="fill:#ffffff; stroke:none;" d="M633 327L634 328L633 327M637 331L637 334L638 334L637 331M610 333L610 336L611 336L612 333L610 333z"/>
<path style="fill:#131313; stroke:none;" d="M668 333L669 334L668 333z"/>
<path style="fill:#ffffff; stroke:none;" d="M673.333 335.667L673.667 336.333L673.333 335.667z"/>
<path style="fill:#131313; stroke:none;" d="M680 335L681 338L682 338L682 335L680 335M692.667 335.333L693.333 335.667L692.667 335.333z"/>
<path style="fill:#ffffff; stroke:none;" d="M667 336L668 337L667 336M1372 336L1373 337L1372 336z"/>
<path style="fill:#131313; stroke:none;" d="M587 337L588 338L587 337M588 339L589 340L588 339z"/>
<path style="fill:#ffffff; stroke:none;" d="M605 339L606 340L605 339z"/>
<path style="fill:#131313; stroke:none;" d="M716 342L716 344L718 344L716 342z"/>
<path style="fill:#ffffff; stroke:none;" d="M1371 343L1372 344L1371 343z"/>
<path style="fill:#131313; stroke:none;" d="M720 345L721 346L720 345M723.667 347.333L724.333 347.667L723.667 347.333M1372 347L1373 348L1372 347z"/>
<path style="fill:#ffffff; stroke:none;" d="M714 348L715 349L714 348M591 349L592 350L591 349M1366 351L1367 352L1366 351M731 352L732 353L731 352M584.333 354.667L584.667 355.333L584.333 354.667M727 357L728 358L727 357M730 357L730 360L732 360L732 357L730 357z"/>
<path style="fill:#131313; stroke:none;" d="M556 359L557 360L556 359z"/>
<path style="fill:#ffffff; stroke:none;" d="M580 359L581 360L580 359z"/>
<path style="fill:#131313; stroke:none;" d="M737 359L738 360L737 359z"/>
<path style="fill:#ffffff; stroke:none;" d="M562 361L563 362L562 361M735 367L736 368L735 367z"/>
<path style="fill:#131313; stroke:none;" d="M543 369L544 370L543 369M538.667 371.333L539.333 371.667L538.667 371.333z"/>
<path style="fill:#ffffff; stroke:none;" d="M551 371L552 372L551 371z"/>
<path style="fill:#131313; stroke:none;" d="M749 371L750 372L749 371z"/>
<path style="fill:#ffffff; stroke:none;" d="M545.667 373.333L546.333 373.667L545.667 373.333M739 373L739 380L740 380L739 373M741 375L742 376L741 375z"/>
<path style="fill:#131313; stroke:none;" d="M747 376L748 377L747 376z"/>
<path style="fill:#ffffff; stroke:none;" d="M546 377L547 378L546 377z"/>
<path style="fill:#131313; stroke:none;" d="M1255.33 377.667L1255.67 378.333L1255.33 377.667M779 379L781 382L782 379L779 379z"/>
<path style="fill:#ffffff; stroke:none;" d="M545.333 380.667L545.667 381.333L545.333 380.667z"/>
<path style="fill:#131313; stroke:none;" d="M536 385L541 381L536 385z"/>
<path style="fill:#ffffff; stroke:none;" d="M550 381L552 384L552 381L550 381M739 381L740 382L739 381M746 381L747 382L746 381M746 383L746 392L748 383L746 383z"/>
<path style="fill:#131313; stroke:none;" d="M1347 385L1348 386L1347 385M537 386L538 387L537 386z"/>
<path style="fill:#ffffff; stroke:none;" d="M546.667 387.333L547.333 387.667L546.667 387.333z"/>
<path style="fill:#131313; stroke:none;" d="M755.667 387.333L756.333 387.667L755.667 387.333z"/>
<path style="fill:#ffffff; stroke:none;" d="M751 389L752 390L751 389M749.667 391.333L750.333 391.667L749.667 391.333M537 394L537 395L540 396L540 393L537 394M759 396L758 400L759 396z"/>
<path style="fill:#131313; stroke:none;" d="M765 400L768 398L765 400M771 401L771 404L772 404L771 401z"/>
<path style="fill:#ffffff; stroke:none;" d="M765 405L764 410L765 410L765 405z"/>
<path style="fill:#131313; stroke:none;" d="M770 405L771 406L770 405z"/>
<path style="fill:#ffffff; stroke:none;" d="M533 406L532 408L533 406M530 409L531 410L530 409M530 411L531 412L530 411M770 412L770 422L774 422L774 415L770 412z"/>
<path style="fill:#131313; stroke:none;" d="M519 419L520 420L519 419M519 423L520 424L519 423z"/>
<path style="fill:#ffffff; stroke:none;" d="M525 423L526 424L525 423M773 425L774 426L773 425z"/>
<path style="fill:#131313; stroke:none;" d="M786 427L787 428L786 427z"/>
<path style="fill:#ffffff; stroke:none;" d="M775 429L775 432L776 432L775 429M528 431L527 435L528 435L528 431z"/>
<path style="fill:#131313; stroke:none;" d="M782 434L781 438L782 438L782 434z"/>
<path style="fill:#ffffff; stroke:none;" d="M530 435L531 436L530 435z"/>
<path style="fill:#131313; stroke:none;" d="M519.333 444.667L519.667 445.333L519.333 444.667z"/>
<path style="fill:#ffffff; stroke:none;" d="M774 445L774 448L776 448L776 445L774 445z"/>
<path style="fill:#131313; stroke:none;" d="M782 446L782 448L784 448L782 446z"/>
<path style="fill:#ffffff; stroke:none;" d="M777 447L778 448L777 447M526 449L526 452L527 452L528 449L526 449M530 449L531 450L530 449M773 449L771 452C773.251 451.527 774.118 451.14 773 449z"/>
<path style="fill:#131313; stroke:none;" d="M512 451L513 452L512 451M515 455L516 456L515 455z"/>
<path style="fill:#ffffff; stroke:none;" d="M524 455L525 456L524 455M775 455L776 456L775 455z"/>
<path style="fill:#131313; stroke:none;" d="M780.667 455.333L781.333 455.667L780.667 455.333M783 458L782 460L784 460L783 458z"/>
<path style="fill:#ffffff; stroke:none;" d="M773 461L773 464L774 464L773 461z"/>
<path style="fill:#131313; stroke:none;" d="M514.667 463.333L515.333 463.667L514.667 463.333z"/>
<path style="fill:#ffffff; stroke:none;" d="M520 468L521 469L520 468z"/>
<path style="fill:#131313; stroke:none;" d="M780 468L780 471L781 471L780 468z"/>
<path style="fill:#ffffff; stroke:none;" d="M773 471L774 472L773 471M773 475L774 476L773 475M530 486L529 487L529 488L530 489L531 489L532 488L532 487L530 486z"/>
<path style="fill:#131313; stroke:none;" d="M776 489L779 496L778 489L776 489M527 490L528 491L527 490M522 492L525 496L522 492z"/>
<path style="fill:#ffffff; stroke:none;" d="M762 495L763 496L762 495M771 497L772 498L771 497M766 498L766 500L768 498L766 498M535 499L536 500L535 499M534 507L534 515L535 515L536 507L534 507M544 507L545 508L544 507M765 507L766 508L765 507z"/>
<path style="fill:#131313; stroke:none;" d="M768.667 515.333L769.333 515.667L768.667 515.333M541 520L540 522L542 522L541 520z"/>
<path style="fill:#ffffff; stroke:none;" d="M755 521L756 522L755 521z"/>
<path style="fill:#131313; stroke:none;" d="M771 521L772 522L771 521z"/>
<path style="fill:#ffffff; stroke:none;" d="M758 529L760 532L758 529M749.333 539.667L749.667 540.333L749.333 539.667M748 542L750 544L748 542M752 544L753 545L752 544M560 547L561 548L560 547M559 549L558 552L559 549z"/>
<path style="fill:#131313; stroke:none;" d="M748 549L749 550L748 549z"/>
<path style="fill:#ffffff; stroke:none;" d="M738 550L738 556L741 555L738 550M740 552L741 553L740 552M562 553L563 554L562 553M557 554L558 558L559 558L557 554M733 559L734 560L733 559z"/>
<path style="fill:#131313; stroke:none;" d="M745 559L746 560L745 559M738 561L739 562L738 561z"/>
<path style="fill:#ffffff; stroke:none;" d="M727.333 562.667L727.667 563.333L727.333 562.667z"/>
<path style="fill:#131313; stroke:none;" d="M555 563L556 564L555 563z"/>
<path style="fill:#ffffff; stroke:none;" d="M697 567L697 569L699 569L699 567L697 567M605 569L604 572L608 573L607 569L605 569z"/>
<path style="fill:#131313; stroke:none;" d="M577.667 571.333L578.333 571.667L577.667 571.333z"/>
<path style="fill:#ffffff; stroke:none;" d="M589 571L588 578C590.326 575.581 590.66 573.981 589 571M682 571L683 572L682 571M704 571L705 572L704 571M711 571L712 572L711 571z"/>
<path style="fill:#131313; stroke:none;" d="M674.667 579.333L675.333 579.667L674.667 579.333M681 579L682 580L681 579M726.667 579.333L727.333 579.667L726.667 579.333M671 585L672 586L671 585M618 586L620 590L618 586M615 587L616 588L615 587M636 593L637 597L638 597L636 593z"/>
</svg>
