<?xml version="1.0" standalone="yes"?>
<svg xmlns="http://www.w3.org/2000/svg" width="1920" height="1080">
<path style="fill:#fefefe; stroke:none;" d="M0 0L0 1080L1920 1080L1920 0L0 0z"/>
<path style="fill:#030303; stroke:none;" d="M608 168L602 167C599.926 173.467 597.372 181.467 590 183L590 192L587 191L586 196L584 196L580 193L577 198L577 195L576 195L571 197C567.783 206.802 564.53 213.901 569 224L561 217L561 222L560 222C558.586 217.264 555.004 216.188 551 219L545 207L544 207C543.491 210.896 533.815 214.128 530 214L529 218L521 209L514 209C512.542 215.361 515.093 219.473 518 225L515 231L508 230L512 241L506 239L508 244L501 241L500 241C501.08 245.636 500.836 249.908 495 248C493.517 253.519 495.047 256.062 499 260L496 264C489.844 258.886 484.256 253.395 476 253L480 259L480 260L476 270L479 269L479 272L480 280L477 279L464 271L470 292C463.699 286.079 456.225 273.586 447 275L448 280L440 280L439 277C432.892 277.226 421.734 263.776 419 272C415.484 272.178 407.484 269.826 404.761 272.053C400.662 275.406 408.531 284.505 407.427 288.856C406.275 293.397 398.509 292.988 395 294L398 304C402.256 305.917 410.425 313.087 410.965 318.046C411.291 321.045 407.777 322.561 407.025 325.208C405.785 329.572 409.197 332.548 411 336L398 333L397 334L396 342L391 342L392 347C385.948 343.725 374.867 345.428 368 347L373 355L373 356C367.853 361.608 381.747 370.886 385 376L382 373L380 373C379.726 379.991 383.878 393.301 391 395L391 396L387 397L407 419C398.673 414.163 391.937 411.063 382 414C383.094 422.302 390.824 425.322 396.576 430.339C409.812 441.886 422.96 458.115 438 467L438 468C422.962 467.22 414.313 449.874 400 445L399 448L409 464L395 453C393.859 456.448 389.07 462.412 392 465C389.242 470.039 388.954 473.022 392 478L375 475L378.239 487.975L375 496L376 496L378 494C377.538 499.389 381.128 501.117 386 502C383.416 508.555 387.558 512.115 390 518C382.419 520.775 369.036 523.515 367 532L372 531C373.07 536.122 374.578 539.87 380 541L372 552L377 556L400 552L400 558L409 555L417 574L428 577C426.639 580.864 425.171 582.359 421 582L419 585C415.654 580.23 406.107 578.384 403 584L395 585C390.544 576.401 383.354 572.973 375 569L375 577L370 573L366 579L357 581L370 600C367.166 601.139 366.637 602.114 365.785 605.044C364.817 608.373 362.174 612.244 364.619 615.485C366.964 618.595 375.932 622.281 374.334 627.413C373.869 628.906 357.377 629.572 354 631L357 636L348 637L356 643C352.685 648.887 349.438 646.346 344 645L353 664C347.07 668.001 356.826 671.043 356.454 675.971C356.06 681.185 348.757 681.095 345 682L345 697L322 690C322.495 696.263 323.083 701.588 330 703L330 704C324.481 705.612 324.174 709.752 330 711L330 724C337.841 727.646 350.826 735.379 334 739.219C324.898 741.297 310.405 732.858 308 748C311.38 752.144 306.942 753.702 303 754L308 760L301 764L306 766L306 768L298 776L315.039 779.796L327.682 779.067L332 788L323 793L323 800L331.126 809.672L343.221 816.108L343.228 837.682L356.366 841.188L365 866L373 866C374.005 870.496 375.116 872.639 380 872L380 892L404 895L407 910L412 912L421 904L423 913C430.604 910.241 435.568 912.456 439 920L442 919L446 930C450.662 929.594 452.621 928.017 455 924L456 924C461.665 929.596 463.977 931.518 464 940L475 937L479 930L480 930L492 933C491.271 927.913 490.99 924.633 496 922L497 903L498 903C498.016 907.694 505.02 923.492 508 913L512 915C517.277 910.197 521.271 918.838 525 922L519 903L525 906C524.845 901.201 529.212 897.095 533.571 901.333C536.605 904.282 538.347 910.139 540 914L541 914L542 906L546 908L544 896L553 900L557 898L560 900L561 897L565 903L567 903C569.695 898.332 572.313 896.785 571 891C576.186 887.596 571.295 879.844 570 875L577 880L578 880L576 865L586 860L587 857L606.714 861.765L622 874C622.782 867.779 633.101 875.473 636 877.5C641.656 881.455 643.721 889.025 648.417 893.889C651.453 897.034 662.657 899.909 667 900C667.408 896.158 667.177 889.71 671.483 888.024C674.777 886.734 679.331 889.069 681.682 885.678C686.962 878.064 675.084 863.058 671 857C684.861 851.424 649.942 827.297 674 828L674 823L666 816L666 815C668.393 812.216 668.051 809.092 669.884 806.147C673.987 799.56 684.543 794.753 692 795L692 800L703 797C698.98 810.021 712.331 801.97 721 803L722 808L709 812C714.628 818.921 737.019 815.413 728.892 830.624C727.814 832.641 725.465 834.243 724 836L729 841L735 838L727 849L733 856L740 857L724 876L736 873L737 873C743.349 881.333 752.67 875.352 760 871L760 884L777 871C777.409 879.817 785.309 872.306 789.787 873.608C793.484 874.683 795.075 880.79 796 884C800.293 882.614 801.27 879.218 802 875C808.838 877.739 809.985 888.603 817 885L823 892L814.937 908L816.387 918L814 934L821 934L819 944L822 944L823 938L828 940L829 933C838.066 939.982 836.308 942.912 832 952C838.158 953.483 841.947 948.907 847 946L848 947C847.049 949.767 845.01 964.451 851.835 960.914C858.237 957.596 860.487 947.439 861 941C866.206 943.546 861.004 955.513 861 961L864 961L869 979C873.787 975.644 877.947 960.878 878 955L880 955L880 960C894.64 952.803 885.823 932.575 895.649 922.398C899.927 917.967 905.137 923.418 909.957 923.523C913.084 923.591 914.902 920.916 917 919L912 933L918 931L915 944C920.654 944.837 924.446 942.06 929 939L931 949L942 944L944 940L945 940L948 945L950 945C954.369 937.962 959.245 936.247 960 927L964 928L969 916L976 922L981 915L983 927C992.623 924.21 991.365 936.954 1001 936L1003 942C1006.8 940.263 1016.86 938.098 1019.19 935.562C1023.87 930.45 1020.98 925.517 1022.94 920.038C1023.89 917.376 1035.9 911.184 1039 911.047C1044.18 910.818 1047.11 917.035 1053 916.965C1063.22 916.844 1064.92 908.835 1074 919L1075 919L1081 918C1084.62 909.397 1079.95 902.422 1078 894L1079 894L1087 906L1088 901L1093 904L1094 899L1102 904L1103 890C1111.54 899.028 1113.08 890.584 1122 893.064C1128.52 894.877 1131 901.469 1138 903C1136.82 908.285 1139.86 911.253 1145 912C1139.87 892.927 1158.7 887.725 1166 873C1176.5 878.907 1172.82 871.6 1182.09 868.558C1185.04 867.59 1189.02 869.556 1192 870L1192 860L1199 866L1212 854C1214.7 858.108 1218.28 855.866 1222 854L1225 863L1233 856L1237 864L1249.95 857.991L1260.61 859.381L1269 853C1269 848.11 1279.82 849.3 1280 856L1290 856L1290 849L1292 852L1295 851L1294 845L1297 846L1299 833L1303 838L1304 835L1317 843L1316 831L1317 831L1320 837L1321 837C1327.09 834.431 1331.81 851.106 1338 854L1338 851C1342.5 851.166 1344.3 849.4 1345 845C1361.56 843.748 1354.89 826.844 1357 817L1383 821L1384 820L1382 810C1387.22 808.881 1381.44 791.57 1380 787L1384 788L1384 779L1385 779L1389 783C1389.37 774.294 1387.65 770.42 1383 763L1388 762L1389 756L1393 758L1394 755L1408 764C1408 752.635 1403.96 738.354 1399.11 728C1395.99 721.323 1390.1 713.797 1396 707C1396.89 717.137 1405.01 725.37 1413 731L1409 717C1414.99 722.636 1415.76 732.866 1426 730C1424.71 723.609 1424.77 721.403 1430 717L1438 722C1437.84 716.684 1436.35 714.042 1432 711L1439 713L1437 696L1441 696L1441 693C1455.68 692.189 1440.64 675.494 1443 667C1435.75 663.544 1426.46 657.699 1422 651L1418 652L1410.44 630.005L1417 615L1421 614L1427.33 594.625L1431 577C1432.61 579.977 1435.16 580.902 1436 577L1449 582L1450 578C1456.5 582.796 1461.01 592.85 1470 591C1475.09 602.814 1490.4 622.466 1505 621.927C1513.03 621.63 1515 612.744 1524 615C1529.74 602.463 1512.02 590.816 1511 579L1514 580C1511.54 573.446 1507.26 563.832 1509 557L1511 558L1512 558L1511 555C1516.36 551.07 1509.63 543.442 1505 542L1509 534L1514 536L1531 519L1523 515L1523 514C1525.22 510.995 1524.35 509.348 1521 508C1527.55 497.226 1513.22 488.986 1529 486C1528.03 477.267 1519.57 475.793 1525 467L1514 463L1531 459C1531.82 451.526 1540.06 449.871 1546 452L1550 441L1541 435L1546 429C1539.61 426.502 1525.61 423.209 1522.04 416.968C1520.4 414.103 1524.86 411.421 1523 408L1523 407C1528.92 402.237 1528.15 397.766 1529 391L1524 390L1525 387L1510 388L1511 383L1483 377C1487.59 372.186 1493.74 373.804 1494 366L1454 366L1471 360L1465 358L1465 353L1473 352L1465.33 340.306L1470 333L1463 329C1455.17 328.874 1452 321.947 1454 315L1450 315L1457 308L1443.2 290.83L1442 281L1432 284L1426 282L1429 273L1424 272L1427 265L1426 264L1412 272L1411 269L1406 272L1418 258L1405 256L1407 251C1401.2 249.233 1402.98 244.053 1403 239C1399.24 239.462 1396.27 240.458 1394 237C1389.58 238.738 1387.46 239.371 1382.83 239.091C1379.02 238.861 1376.04 242.024 1372.13 240.303C1366.32 237.748 1367.48 231.94 1366.95 227C1365.17 210.575 1381.49 201.208 1384.82 186C1386.22 179.572 1395.65 158.843 1382 160C1381.07 157.912 1379.2 149.392 1376.68 149.346C1372.38 149.267 1366.37 157.095 1363.73 160.039C1356.35 168.264 1348.47 174.41 1338 178.53C1330 181.676 1325.07 177.263 1320 187C1315.56 184.149 1312.43 182.599 1312 177L1301 177L1298 169L1297 169C1294.47 174.226 1294.87 179.026 1288 179C1286.57 183.769 1280.47 185.07 1276 186L1275 191L1274 191L1267 183L1262 196L1258 189L1255 197L1249.44 187.754L1227 173L1225 184L1218 182L1217.99 195.961L1214 205L1191 202L1189 208L1192 219L1189 220L1192 245L1180 237L1193 277L1192 277L1182 259L1182 268L1181 268L1178 261L1176 261L1170 267L1171 270L1163 267L1162 267C1157.74 274.234 1138.42 290.283 1138 273C1130.78 274.589 1128.2 264.89 1124 260L1119 262L1121 259C1116.99 260.054 1114.24 261.98 1113 266L1107 261L1100 268L1098 268L1096 262L1088 264L1089 240L1084 243L1083 242C1083.67 237.669 1079.8 235.682 1076.19 238.654C1071.64 242.39 1072.49 248.957 1067 252L1070 238L1048 241.22L1039.41 241.508L1040 225L1032 228L1029 219C1024.86 220.573 1022 221.41 1021 226L1020 226L1020 223L1011 230L1015.87 192L1010 177L1006 183L994 177L992 177L988 188L986 188L982 178L976 181C972.048 176.528 969.481 185.336 966.541 187.138C964.29 188.518 961.553 187.098 959.259 188.657C948.646 195.867 945.479 203.982 943 216C928.836 213.203 931.873 191.901 917 199C917.957 191.476 909.741 179.253 902 179L896 198L895 198C894.818 196.025 892.577 180.381 888.012 185.662C884.892 189.272 885.901 201.15 885 206L884 206L884 201C879.148 202.705 879.197 208.431 879 213C873.374 214.928 873.652 221.846 873 227L872 227L867 217L865 217L862 236L859 236C858.712 230.796 857.223 229.174 852 229L850 241L843 237L842 237L841 268L840 268C835.775 252.2 829.001 259.133 829 272L827 272L820 262L819 271L817 271L812 235C804.073 234.089 801.923 238.132 798.792 245C795.873 251.404 795.523 258.415 793.327 265C790.292 274.104 785.332 281.539 783 291L782 291L785 277C778.023 276.403 776.204 283.258 775 289L774 289L770.573 278.985L780.142 266.911L782 253L776 259L774 259L775 249L758 267L760 250L755 255L751 254L752 249L746 250L748 238L743 241L743 235L732 245L726 241L727 237L716 254L712 247L708 247L698 264C693.662 261.721 690.814 266.058 687 268L686 257L683 263L681 263C680.642 258.213 677.622 255.643 676.298 251.286C674.735 246.142 678.626 242.462 673 239L673 242L668 242L667 211L669 205L665 206L661 212C668.396 197.964 672.225 182.845 670.877 167C669.845 154.882 666 143.815 666 131L661 127L657 118L655 122L648 117L646 128L645 128L639 120L637 123L636 123L632 108C622.173 109.946 623.595 115.794 620.617 124C615.37 138.457 611.448 152.959 608 168z"/>
<path style="fill:#fefefe; stroke:none;" d="M669 185L670 186L669 185M667 209L668 210L667 209z"/>
<path style="fill:#030303; stroke:none;" d="M529 210L530 213L529 210z"/>
<path style="fill:#fefefe; stroke:none;" d="M1019.33 226.667L1019.67 227.333L1019.33 226.667z"/>
<path style="fill:#030303; stroke:none;" d="M1110.67 239.333L1111.33 239.667L1110.67 239.333z"/>
<path style="fill:#fefefe; stroke:none;" d="M741 240L739 244C741.649 243.432 742.355 242.412 741 240M1400 240L1401 241L1400 240M674 242L675 243L674 242M708 248L709 249L708 248z"/>
<path style="fill:#030303; stroke:none;" d="M1427 263L1428 264L1427 263z"/>
<path style="fill:#fefefe; stroke:none;" d="M696.333 264.667L696.667 265.333L696.333 264.667M486 265L486 268L488 268L488 265L486 265z"/>
<path style="fill:#030303; stroke:none;" d="M474 270L476 272L474 270z"/>
<path style="fill:#fefefe; stroke:none;" d="M1194 277L1195 278L1194 277M1195 279L1196 280L1195 279M1425 283L1426 284L1425 283M410 289L412 292L410 289M472 293L472 296L473 296L472 293M401 341L404 344L403 341L401 341M1459 343L1460 344L1459 343M1456 345L1456 348L1458 345L1456 345M373 347L376 350L373 347M1445 367L1445 368L1450 368L1445 367M1480.67 375.333L1481.33 375.667L1480.67 375.333M408 418L407 420L409 420L408 418M1541 429L1542 430L1541 429M1527 455L1528 456L1527 455M439 469L445 472L439 469M392 473L396 476L392 473z"/>
<path style="fill:#030303; stroke:none;" d="M371 479L372 480L371 479z"/>
<path style="fill:#fefefe; stroke:none;" d="M450 479L451 480L450 479M451.333 481.667L451.667 482.333L451.333 481.667M1522 481L1523 484L1524 484L1524 481L1522 481M408 483L409 484L408 483M452 484L453 485L452 484M375 535L376 536L375 535M386 538L386 540L388 540L388 538L386 538M401 551L401 552L404 552L401 551M436 574L432 575L431 580L439 580L436 574M1511.33 615.667L1511.67 616.333L1511.33 615.667M1408 711L1409 712L1408 711M696 799L697 800L696 799M1315.33 829.667L1315.67 830.333L1315.33 829.667M672 855L673 856L672 855M603 859L604 860L603 859M380 871L381 872L380 871M632 871L633 872L632 871M742 875L743 876L742 875M1096.67 883.333L1097.33 883.667L1096.67 883.333M666 887L667 888L666 887M1112 891L1112 892L1115 893L1112 891z"/>
<path style="fill:#030303; stroke:none;" d="M1024 921L1025 925L1026 925L1027 921L1024 921z"/>
</svg>
