<?xml version="1.0" standalone="yes"?>
<svg xmlns="http://www.w3.org/2000/svg" width="1920" height="1080">
<path style="fill:#fcfcfc; stroke:none;" d="M0 0L0 1080L477 1080L598 1080L628 1080C632.292 1080 637.678 1080.95 641.138 1077.85C642.375 1076.75 643.282 1075.38 643.856 1073.83C649.058 1059.76 631.167 1067.59 625 1068C622.241 1051.67 632.683 1046.23 642.957 1035.96C651.932 1026.98 658.303 1018.07 668.896 1010.79C672.847 1008.07 674.415 1002.54 679 1001C679.357 990.093 693.402 987.141 697 978L696 977C678.255 981.471 671.053 996.399 659.407 1008.73C653.46 1015.02 646.47 1020.9 640.039 1026.83C633.351 1033 620.723 1043.7 611 1042L610 1042L588 1056L591 1051L582 1051L583 1054L575 1053C579.297 1047.51 585.464 1046.18 590.911 1042.3C602.055 1034.38 611.898 1018.81 626 1016C625.434 1009.15 617.791 1001.53 620.613 995.004C623 989.484 628.41 988.399 632.911 985.319C642.308 978.889 651.923 971.776 654 960L657 961L658 955L654 954L661 948C653.868 940.753 645.117 953.188 640 958L645 943L641 946L640 946L629 948L644.468 928L641 913L640 913L641 923L640 923C637.546 915.354 635.069 903.031 628.46 897.786C624.932 894.987 613.275 906.488 614 897L614 896L609 895L596 907L596 908L600 920L597 917L594 934L585 944L584 941L583 941L589 972L583 970L577 957L576 957C576.225 966.586 581.475 975.164 580.914 985C580.132 998.716 572.732 995.002 568 985C563.137 986.51 563.834 989.672 565 994L563 1010L561 1009L561 1011C555.572 1008.72 554.542 1004.33 553 999L550 1000L550 996L549 996L544 1006L544 995L532 995L532 991L523 983C520.959 988.553 516.32 988.567 511 988L507 997L506 997C506.55 985.2 499.244 992.69 498 1000L495 999L492 1005L491 989C486.67 995.078 489.093 1001.26 490 1008L487 1007C485.02 1015.12 497.566 1024.98 499.817 1034C501.965 1042.61 495.095 1047.03 495 1055L490 1053L489 1061L478 1052L474 1056L466 1036L465 1036L462 1042L457 1033C451.484 1034.77 446.878 1040.31 446 1046L445 1046L442 1031L440 1031L439 1042L433 1038L431 1043L429 1043L423 1033L427 1034C427.681 1029.48 425.092 1028.58 421 1028L425 1025L426 1015L424 1015L422 1019L421 1019L418 1008L414 1013L412 1006L411 1006L404 1022L396 1023C396 1013.91 401.809 1001.03 397 993C394.767 995.355 389.644 1001.8 386.102 1001.22C379.882 1000.19 385.163 989.308 389 988L388 981C379.724 984.279 374.678 989.92 371 998L370 998L371 985L369 987L368 987L364 976C361.379 978.345 358.179 985.601 355 981L358 978L355 975C348.541 976.658 350.339 970.143 345.698 968.417C342.98 967.407 339.095 969.591 336.09 969.279C332.116 968.865 330.169 965.987 327 964L346 949L341 950C342.689 939.51 346.789 932.848 342 923L326 933L337 915L340 916L341 913L343 915L346 903L330 909L329 912L328 912L329.781 902.301L339 889L334 888L333 896C330.421 895.379 326.448 895.713 324.577 893.527C322.74 891.38 324.271 888.56 323.347 886.152C321.815 882.158 316.246 883.863 313 884C310.849 888.604 306.746 889.431 303.99 893.238C301.324 896.921 292.158 922.999 288 905L285 905L284 901L289 900L289 899L284 897L279 900L290 879L279 880C278.302 873.914 280.003 870.268 285 876L287 871L296 868L292 863C288.513 866.86 286.389 864.95 284 861L282 861L281 864C275.105 859.327 276.059 847.933 283.394 844.201C286.876 842.43 294.282 845.299 298 846C299.909 841.919 303.636 836.097 299 833C295.317 839.12 284.85 835.375 281 831L290 823L272 824L282 820L282 809L266 811L265 806L273 806L278 800L262 795L261 795C256.667 798.011 249.87 796.537 246 793L227 792L227 789L217 784L224 780L224 779L219 780L226 773L227 776L228 776C229.053 773.439 230.352 770.486 227 770L231 764L227 760L227 759L237 756L238 751L231 746L243 744L241 740L241 739L244 735L231 740.253L220.985 734.243L205.575 730.082L197.302 730.678L190 724L190 722L197 723L198 723C203.348 719.356 211.541 712.664 218 713L216 708L216 707L221 701L211 688L215 684L210 675L240 681C237.491 677.007 232.753 676.133 229.039 673.402C221.255 667.678 213.28 659.08 210 650C219.366 656.377 230.396 666.277 242 664L242 661L267 672L268 672L271 668L272 668L274 670C272.836 666.127 270.833 665.012 267 664L269 657L286 666L288 661L291 662L290 658L298 652L298 651L295 650L295 645L288 644L291 640L286 633L291 633L292 636L293 636L294 633L300 636C297.468 627.689 289.888 621.377 282 619L285 615L289 617L291 613L272 599L283.729 597.754L300 600L298 592L303 597C307.81 588.804 319.564 597.923 319 587C307.128 586.035 311.259 570.19 304.312 562.299C300.17 557.594 293.938 559.662 289 557L288 557L284 560L285 553L283 553C280.269 555.678 278.209 556.546 276 553C281.305 551.882 285.294 547.561 288 543C282.193 539.082 275.542 535.954 277 528L281 530C282.99 519.806 266.196 504.784 260 497L266 496L259 487C265.292 486.967 270.252 487.708 275 492L276 492L284 490L283 487L288 490L288 484L303 486C308.703 475.707 320.489 476.217 330 472L330 469L327 468L327 467C336.261 463.765 348.669 457.157 351 447L356 448L357 437L352 438L365 426L366 426L368 428C366.043 422.447 359.889 417.446 354 419C356.954 428.208 334.506 444.197 326 445C319.522 452.754 309.668 452.755 301 457.142C298.24 458.539 293.452 461.855 290.228 460.633C287.253 459.505 286.299 454.571 285 452C275.572 455.465 275.118 452.005 271 445L270 450L269 450C267.846 445.842 268.17 440.916 263 441C261.441 433.45 268.86 433.135 272 427L268 426L265 428L264 423L268 423C269.611 412.305 272.634 407.602 282 404L283 400L283 399L275 395L267 399L268 391L274 392L282 376L275 353C282.731 359.262 285.723 363.283 296 359L296 357C291.71 354.699 289.331 352.067 293 348L293 347L286 348L289 339L291 345C297.925 340.916 296.004 333.796 297 327L302 332C300.214 322.377 299.731 317.267 294 309C298.609 311.696 301.943 311.064 307 310L310 320C316.398 317.918 319.597 309.269 320 303C329.041 301.584 325.91 291.822 327 285L335 289L334 282L340 284C338.973 271.008 326.262 267.063 320 256L319 256L316 258L316 253L319 255L324 247L310 241L307 243L312 227C317.71 226.54 322.96 225.392 324 219L325 219L326 222L333 220C332.602 209.749 339.654 214.373 346 216L348 214L349 214L349 208L350 208L350 212L352 212L352 202L354 205L357 204L356 191C361.576 191.462 368.409 182.817 372 188L376 187L376 182L385 187C385 181.426 391.002 189.42 392 191L394 191L395 188L404 198L404 193L409 196L408 185L413 185L414 179C419.639 181.636 421.018 186.147 422 192C434.923 198.017 429.115 208.124 437.188 216.98C443.017 223.373 449.267 220.852 451 213L464 226L466 226L468 221L458 212L460 203L468 210L468 205L476 210L472 199L474 202L475 202L472 188L477 189L473 175L475 178L483 177L481 182L482 182C485.64 172.118 471.626 169.163 475 159C470.912 154.957 470.05 150.611 470 145L476 149L477 142L478 142L481 144C480.737 138.853 482.941 133.291 478 130L478 129C483.406 129.862 483.941 132.993 484 138L485 138L486 135L488 135L492 140L495 118L498 124L504 124L506 117L502 118L501 114L513 114C515.104 109.949 518.408 107.959 523 108L524 107L521 93C524.043 97.462 527.081 96.618 532 96L532 91C537.449 95.8094 534.477 100.682 535.304 107C536.335 114.872 539.939 122.16 541 130L542 130L542 120L552 138L553 138C552.29 133.663 553.347 131.312 558 132L560 129L560 136L562 136C562.004 130.893 561.702 124.746 568 124L568 121L569 121L570 121C571.312 127.109 566.566 134.156 574 137L577 123C580.73 122.469 581.542 117.406 582 114L593 126C592.962 112.087 583.159 94.2939 594 83C593.52 86.9597 591.404 90.2983 595 93L595 89L599 96L600 96L600 57C603.854 56.371 602.98 47.3843 603.894 44C607.179 31.8331 616.361 24.3103 616 11L618 11L618 15L619 15L623 0L0 0z"/>
<path style="fill:#040404; stroke:none;" d="M623 0L619 15L618 15L618 11L616 11L603 45L600 57L600 96L599 96L595 89L595 93L592 92L594 83C581.918 91.3331 592.901 114.007 593 126L582 114L577 123L574 137L568 121L568 124C561.2 124.299 562.001 130.653 562 136L560 136L560 129L558 132C552.981 130.032 551.814 133.507 553 138L552 138C549.428 131.321 548.943 123.529 542 120L542 130L541 130C540.302 121.462 535.595 113.581 535.263 105C535.052 99.5454 537.665 94.3098 532 91L532 96C527.161 96.3649 524.464 96.7648 521 93C519.431 98.4729 521.469 102.164 524 107L523 108C518.233 107.715 514.48 109.268 513 114C508.779 111.248 505.582 112.565 501 114L502 118L506 117L504 124L498 124L495 118L492 140L488 135L486 135L485 138L484 138C483.981 132.738 483.907 129.46 478 129L478 130L481 144L478 142L477 142L476 149L470 145C470.016 150.455 470.128 155.72 475 159C470.192 169.242 484.839 172.04 482 182L481 182L483 177L480 176C477.109 178.814 475.955 176.442 473 175L477 189L472 188L475 202L474 202L472 199L476 210L468 205L468 210L460 203L458 212L468 221L466 226L464 226C461.506 219.65 456.564 216.566 451 213C448.256 221.653 441.919 221.835 436.34 214.998C429.605 206.746 435.216 195.762 422 192C421.452 186.051 420.26 180.782 414 179L413 185L408 185L409 196L404 193L404 198L395 188L394 191L392 191C391.105 188.937 385.859 181.928 385 187L376 182L376 187L372 188C370.534 181.16 360.706 191.265 356 191C356 195.489 357.986 202.428 354 205L352 202L352 212L350 212L350 208L349 208L349 214L348 214L347 212L346 216C339.692 213.404 331.992 209.48 333 220L326 222L325 219L324 219C322.282 224.807 317.48 226.024 312 227L307 243L310 241C312.811 245.923 318.761 246.27 324 247L319 255L316 253L316 258L319 256L320 256C325.307 268.186 338.314 270.743 340 284L334 282L335 289L327 285C325.22 291.968 328.954 300.624 320 303C319.207 309.331 315.751 316.891 310 320L307 310L294 309L302 332L297 327C295.09 334.057 297.168 339.555 291 345L289 339L286 348L293 347L293 348C288.185 351.489 291.445 355.4 296 357L296 359C284.825 362.34 283.992 357.838 275 353L282 376L274 392L268 391L267 399L270 398C272.522 400.648 273.949 397.489 275 395L283 399L283 400L282 404C272.082 406.321 268.784 412.397 268 423L264 423L265 428L268 426L272 427C268.056 432.601 260.821 433.348 263 441C267.474 442.155 267.393 446.11 269 450L270 450L271 445C274.08 452.509 275.989 456.841 285 452C286.038 454.778 286.94 460.262 290.228 461.208C293.535 462.16 298.167 459.059 301 457.652C309.147 453.608 321.224 453.396 326 445C334.291 445.696 358.308 427.939 354 419C359.869 418.043 365.158 423.128 368 428L366 426L365 426L352 438L357 437L356 448L351 447C347.271 457.166 336.259 462.401 327 467L327 468L330 469L330 472C320.945 474.784 306.752 475.666 303 486L288 484L288 490L283 487L284 490L276 492L275 492C271.089 486.881 265.171 486.23 259 487L266 496L260 497C265.551 506.913 281.755 518.425 281 530L277 528C274.834 535.981 281.538 539.943 288 543L276 553C277.318 557.69 280.892 556.604 283 553L285 553L284 560L288 557L289 557C293.253 560.815 299.243 557.848 303.585 562.299C310.658 569.55 306.945 588.231 319 587C319.042 598.271 306.88 587.515 303 597L298 592L300 600L283.424 597.389L272 599C274.077 604.774 285.393 610.31 291 613L289 617L285 615L282 619C289.844 622.228 296.08 628.246 300 636L294 633L293 636L292 636L291 633L286 633L291 640L288 644L295 645L295 650L298 651L298 652L290 658L291 662L288 661L286 666L269 657L267 664L274 670L272 668L271 668L268 672L267 672C261.633 667.755 248.758 661.219 242 661L242 664C229.352 665.236 220.914 654.992 210 650C213.821 666.197 230.01 670.471 240 681C228.751 678.811 221.66 672.336 210 675L215 684L211 688L221 701L216 707L216 708L218 713C211.843 711.947 202.405 718.738 198 723L197 723L190 722L190 724L197.299 731.257L204.285 730.264L221.025 734.579L231 740.624L244 735L241 739L241 740L243 744L231 746L238 751L237 756L227 759L227 760L231 764L227 770C230.751 770 228.818 773.477 228 776L227 776L226 773L219 780L224 779L224 780L217 784L227 789L228 790L227 792L246 793C248.947 797.438 257.441 799.109 261 795L262 795L278 800C274.205 800.827 273.304 802.171 273 806L265 806L266 811L268 809L282 809L282 820C277.731 820.091 274.513 820.308 272 824L290 823L281 831C283.932 835.897 296.566 839.896 299 833C302.593 837.008 299.535 841.461 298 846C294.351 845.101 286.004 841.87 282.652 844.067C276.33 848.212 273.69 860.164 281 864L282 861L284 861C285.789 865.465 289.116 868.189 292 863L296 868L287 871L285 876C280.41 868.654 277.844 873.658 279 880L290 879L279 900L284 897L289 899L289 900L284 901L288 905C287.939 909.054 292.029 914.014 296.277 910.392C300.619 906.69 300.837 898.793 303.99 894.123C306.898 889.815 311.448 889.506 313 884L322.844 886.188L324.372 894.244L333 896L334 888L339 889L329.19 902.301L328 912L329 912L330 909L346 903L343 915L341 913L340 916L337 915L326 933L342 923C345.364 933.255 341.996 939.309 341 950L346 949L327 964C334.461 970.711 337.65 966.203 345.431 968.661C350.363 970.22 348.03 977.371 355 975L358 978L355 981C356.582 988.383 362.126 978.219 364 976L368 987L369 987L371 985L370 998L371 998C376.072 990.484 379.992 985.435 388 981L389 988C380.356 989.85 381.07 1008.74 393.062 997.455C394.629 995.98 395.835 994.794 397 993L396 1023L404 1022L411 1006L412 1006L414 1013L418 1008L421 1019L422 1019L424 1015L426 1015L425 1025L421 1028C424.891 1028.95 426.9 1029.74 427 1034L423 1033L429 1043L431 1043L433 1038L439 1042L440 1031L442 1031L445 1046L446 1046C447.507 1040.63 452.106 1035.61 457 1033C457.381 1037.2 458.184 1039.95 462 1042L465 1036L466 1036L474 1056L478 1052L489 1061L490 1053L495 1055L500.175 1034L487 1007L490 1008C489.414 1000.83 487.575 995.826 491 989L492 1005L495 999L498 1000C499.675 993.755 506.122 985.893 506 997L507 997L511 988C516.221 989.019 521.709 988.917 523 983L532 991L532 995L544 995L544 1006L549 996L550 996L550 1000L553 999C554.156 1004.53 555.088 1009.35 561 1011L563 1010L565 994C564.139 989.612 563.482 986.987 568 985C569.824 990.726 579.657 1002.65 580.79 989.985C581.855 978.082 576.591 968.386 576 957L577 957L583 970L589 972L583 941L584 941L585 944L594 934L597 917L600 920L596 908L596 907C599.929 903.576 609.081 900.15 609 895L614 896L614 897C612.777 899.157 613.034 900.935 616.062 901.254C620.128 901.683 623.544 896.624 626.911 897.612C634.307 899.783 637.254 916.858 640 923L641 923L640 913L641 913L643.997 928.039L629 948L640 946L641 946L645 943L640 958C646.469 953.63 652.732 942.315 661 948C657.068 948.812 655.361 950.214 654 954L658 955L657 961L654 960C650.71 971.613 642.35 977.73 632.911 984.637C627.997 988.232 621.62 989.284 619.844 996.001C618.084 1002.66 625.079 1009.32 626 1016C611.548 1017.6 601.173 1034.54 589.961 1042.3C584.707 1045.94 578.138 1046.95 575 1053L583 1054L582 1051L591 1051L588 1056L610 1042L611 1042C617.12 1045.51 632.564 1034.38 637.3 1030.11C644.953 1023.21 653.241 1016.25 660.138 1008.73C671.743 996.067 679.125 983.216 696 977L697 978C691.925 986.518 679.132 989.903 679 1001C673.912 1002 672.222 1007.97 667.957 1010.79C657.588 1017.64 651.503 1026.2 642.957 1034.98C633.239 1044.97 620.652 1051.8 625 1068C630.529 1067.84 649.235 1060.53 643.505 1073.83C642.569 1076 641.01 1077.86 640 1080L658 1068L669 1055L670 1055C667.927 1063.82 657.127 1075.29 672 1080C673.207 1068.29 679.557 1069.38 688 1066C682.059 1074.48 685.005 1079.7 695 1079L696 1075L699 1080L739 1080C744.01 1080 752.113 1081.54 756.721 1079.4C764.65 1075.71 757.235 1056.04 753 1052L753 1051L757 1045L762 1047C762.005 1053.26 763.59 1059.85 769 1052L771 1063L768 1080C771.143 1079.88 774.983 1080.2 777.297 1077.66C779.232 1075.53 779.264 1070.62 782.249 1069.61C786.44 1068.2 790.792 1077.15 792 1080C800.054 1080 824.449 1083.92 829 1077C831.989 1081.14 837.313 1080 842 1080L874 1080L876 1072L880 1065L880 1070C884.983 1065.47 880.289 1062.23 882.364 1057.05C886.549 1046.62 896.331 1046.13 892 1033L900 1027C899.988 1031.42 900.036 1049.55 906 1037L907 1037C909.171 1046.23 894.096 1056.15 907 1059C917.014 1047.51 914.02 1040.87 916 1027L917 1027L917 1031L924 1029C925.08 1032.49 926.389 1033.12 930 1033C932.628 1038.44 935.948 1038.77 941 1036C937.93 1047.05 934.086 1054.84 944 1064L938 1066L940 1068L939 1072L936 1069L935 1069L932 1078C938.698 1076.59 946.41 1073.05 946.347 1065C946.309 1060.14 943.143 1055.93 943.941 1051C945.015 1044.36 949.092 1039.18 948.415 1032C947.95 1027.07 943.932 1024.05 946 1019L948 1026L952 1025C953.303 1030.1 953.332 1035.57 959 1031L956 1048C964.181 1047.51 968.523 1046.18 969 1037L974 1038C979.14 1027.57 982.632 1021.41 976 1011L980 1012L983 1008L983 1016L997 1017C995.711 1021.28 994.835 1024.13 1000 1025C996.621 1031.34 980.745 1044.79 982.046 1051.74C983.009 1056.89 993.944 1060.67 998 1063L998 1064C995.511 1067.97 996.369 1072.49 1001 1074L1023 1072L1023 1071C1016.39 1068.92 1017.77 1062.66 1018 1057C1026.06 1064.86 1031.85 1060.16 1029 1050L1038 1047L1035 1048L1036 1052L1039 1051C1040.25 1058.14 1035.23 1063.82 1043 1068L1043 1070C1036.7 1071.56 1030.82 1072.07 1032 1080L1034 1078L1035 1078L1049 1080L1049 1046L1050 1046C1053.13 1055.03 1051.54 1071.08 1065 1067C1059.49 1083.46 1089.53 1079.95 1098 1080L1099 1071C1106.07 1078.53 1105.22 1080 1117 1080C1116.73 1067.43 1102.39 1058.61 1093.13 1051.2C1088.99 1047.88 1084.42 1041.55 1089 1037C1087.04 1028.74 1079.89 1018.48 1092.73 1014.41C1095.31 1013.6 1098.29 1014.58 1101 1014L1102 1018C1107.52 1014.82 1115.68 999.265 1117 993C1122.94 998.725 1121.18 1009.5 1130 1012L1129 1007L1145 1023L1140 1007L1137 1009L1139 999L1135 1000L1137 990L1132 988L1136 977C1145.41 982.957 1154.87 990.519 1152 1003C1157.83 1006.35 1157.65 1009.62 1160.85 1015C1166.63 1024.74 1173.65 1031.99 1174 1044L1180 1040L1180 1037L1174 1024C1175.01 1020.69 1176.17 1016.42 1175.06 1013C1172.68 1005.67 1164.03 999.596 1177 1000L1175 991L1176 991C1177.51 994.564 1180.77 999.795 1184 995L1190 1002L1186 1002L1188 1016L1193 998L1194 998C1194.46 1004.15 1198.51 1009.33 1204 1012L1204 1010L1221 1020L1213 997C1228.02 1011.23 1226.93 1029.98 1231.76 1048C1233.61 1054.94 1238.93 1061.31 1240 1068L1241 1068L1238 1039L1244 1055L1248 1052L1248 1051C1247.17 1048.09 1247.37 1047.54 1250 1046L1249 1033L1250 1040L1254 1044L1255 1044L1258 1033L1254 1032C1257.23 1023.84 1252.22 1018.64 1265 1021C1264.28 1025.12 1263.93 1028.52 1269 1028C1267.9 1022.77 1269.33 1019.69 1275 1020L1276 1019L1275 1016L1272 1018L1271 1012L1280 1013L1281 1009L1282 1009L1283 1012L1284 1009L1287 1010L1281 1012L1279 1016L1284 1017L1286 1021L1288 1013L1289 1013L1293 1017L1294 1016L1293 1006C1281 997.471 1276.72 982.722 1272 969L1286.02 989.161L1298 996L1300 996L1302 991L1299 992L1301 985L1303 989L1314 991L1312 996L1329 1000C1327.36 995.136 1322.62 986.372 1319.16 982.563C1317.21 980.421 1313.86 980.394 1312.36 977.721C1307.97 969.939 1306.94 954.643 1309 946L1310 946L1312 960C1315.86 958.135 1317.89 957.877 1321 961L1318 961L1321 962C1319.92 968.478 1325.21 971.541 1329 976L1332 973L1329 969L1334 968L1335 969L1339 980L1341 980L1352 970C1350.39 972.642 1349.37 974.019 1352 976L1352 971L1355 972L1355 967L1370.29 963.079L1394 970C1393.94 958.177 1399.03 962.762 1408 960C1407.79 953.659 1413.38 954.499 1418 952L1406 936L1406 930L1410 934L1412 934L1416 927L1419 927L1423 932C1420.73 926.138 1419.44 921.564 1427 920L1426 917L1433 918L1433 920C1429.05 921.746 1428.23 923.772 1428 928L1434 926L1433 920L1434 920L1434 923L1452 924L1453 921L1450 920C1452.71 914.927 1458.28 904.033 1456 899L1452 900L1454 894L1458 896C1460.49 893.934 1461.23 894.352 1464 896L1465 896L1468 894L1472 896L1463 888L1462 888L1460 890L1465 877L1466 880L1467 880L1468 875L1473 876C1471.15 871.344 1472.74 868.104 1478 868L1478 865L1474 866L1475 862C1479.19 863.431 1482.61 864.551 1484 869L1485 869C1489.25 860.799 1487.25 854.95 1498 856L1500 849C1509.38 848.695 1509.08 842.437 1507 835L1518 834L1519 828L1521 832L1527 825L1519 815C1524.16 812.399 1524.39 807.148 1526 802L1523 803L1518 800L1520 794C1514.95 791.671 1514.08 786.951 1509.78 784.319C1505.82 781.903 1491.87 781.165 1487 781.143C1476.11 781.092 1464.86 783.51 1454 784.397C1446.34 785.023 1445.85 788.813 1439 783L1454 782L1452 771L1480 768C1488.11 758.07 1494.88 764.682 1505 762.249C1509.88 761.077 1514.78 756.138 1519 760L1520 760L1519 750L1504 743L1512 740C1511.45 735.122 1509.58 733.472 1505 732L1520.83 727.301L1531.04 718.263L1558 716L1558 713C1554.42 712.524 1551.23 711.625 1550 708L1545 710L1546 707L1541 706L1542 703L1538 703L1540 706L1531 700L1536 692L1539 693L1539 689C1532.97 691.659 1528.22 691.33 1525 685L1528 686L1529 681C1523.06 680.011 1515.84 680.558 1518 673L1533.87 678.197L1557.39 706.566L1567.91 710.433L1577 718L1578 718L1587 716L1597 707C1595.93 701.457 1599.28 697.733 1598.56 693C1596.92 682.279 1588.11 673.687 1583.56 664C1580.32 657.122 1580.37 648.785 1576.58 642C1573.38 636.261 1568.86 629.803 1564.03 625.389C1561.84 623.39 1556.17 619.436 1556.06 616.222C1555.9 611.942 1560.55 615.3 1562 616L1549 599L1551 601L1548 584L1555 588L1556 574C1560.77 575.654 1564.65 577.405 1569 574L1570 574L1584 584C1585.62 579.932 1587.33 576.607 1583 574C1584.93 566.652 1590.22 561.414 1584 555L1588 554C1586.15 548.403 1582.71 545.614 1588 541L1584 536C1587.06 530.802 1585.9 525.416 1579 526C1577.27 521.084 1570.52 521.432 1566 520L1568 515L1560 508L1557 504L1557 503L1561 499L1564 500L1560 492L1560 491L1564 490L1557 488L1557 487L1571.73 482.088L1598 488C1597.65 484.867 1594.17 480.006 1595.19 477.163C1596.33 473.969 1601.36 474.522 1604 473.768C1609.19 472.283 1612.82 469.853 1615.23 464.985C1619.79 455.789 1613.08 452.479 1615 444L1611 444L1618.54 434.586L1622 419L1622 418C1617 408.7 1613.62 411.273 1604 412C1601.74 401.596 1594.29 409.484 1588.52 407.44C1585.65 406.42 1585.5 401.793 1583 400C1585.54 392.94 1580.87 381.755 1578 375L1587 376C1587.15 371.232 1584.5 369.824 1581 367L1576 368C1579.9 364.358 1578.27 355.34 1578 350L1573 352L1573 349L1568 351C1569.09 343.934 1573.87 343.26 1580 342L1580 341L1575 340C1584.74 324.019 1613.73 335.503 1620 317L1616 317L1618 312C1624.54 315.695 1623.87 307.955 1626.86 304.028C1630.86 298.78 1639.63 293.409 1645 296C1642.97 287.148 1648.85 288.699 1651.56 282.571C1652.65 280.102 1650.71 276.389 1650 274L1653 270L1652 270L1650 272L1654 260L1650 259L1652 253L1651 253L1647 258L1648 249L1644 252L1642 252L1642 237L1628 240L1627 237L1615 240L1620 227L1616 228L1607 227L1605 223C1600.88 227.211 1596.01 224.829 1591 223L1589 228L1558.04 233.957L1484 234L1466 240L1466 237C1469.27 235.658 1474.7 230.051 1467.94 229.167C1462.9 228.507 1458.21 231.564 1453 231L1459 221L1438 224L1439 219L1420 228C1418.56 223.08 1411.48 222.751 1407 223.259C1396.77 224.42 1384.02 223.581 1378 233L1382 224L1382 223C1371.52 216.71 1382.98 205.265 1390 200C1393.42 197.435 1395.12 193.529 1397 194L1401 183C1406.8 181.885 1404.96 176.496 1407.3 172.259C1411.01 165.571 1418.12 161.448 1421 154L1417 154C1421.95 148.103 1419.42 141.944 1421.94 135C1425.56 125.02 1434.35 118.419 1438.81 109C1440.73 104.966 1440.08 99.3946 1441.13 95C1442.77 88.1107 1439.11 79.2317 1431 80L1430 77L1422 81L1421 78C1412.75 81.6052 1409.3 88.0204 1402.96 93.8117C1389.2 106.375 1374.59 113.604 1369 133L1368 133C1367.42 131.09 1367.01 129.666 1366 132C1360.15 128.99 1357.82 141.69 1357 146L1356 146L1354 141L1343 148L1344 140L1339 143L1338 140L1335 141L1334 133L1331 134L1335 117L1328 116C1325.38 120.468 1322.43 121.001 1319 117L1318 117L1318 120L1315 119L1314 124L1302 128L1301 124L1299 124C1295.76 128.358 1294.59 129.131 1290 127L1289 144L1285 142L1275 151L1266 148L1271 137L1267 136L1267 135L1271 131L1261.04 132.677L1250 129L1244 132L1246 123L1225.09 122.203L1211 131C1207.97 126.408 1197.89 127.55 1195 132C1191.45 129.858 1189.27 131.949 1186 134L1191 138L1190 144L1193 143L1193 144C1185.19 149.079 1196.76 160.607 1185 160L1185 159L1187 155L1172 168L1173 163L1158 174L1163 163L1152 166L1158 151L1151 153C1148.85 155.075 1147.8 155.56 1146 153L1143 159C1137.01 159.723 1138.34 173.148 1137 178L1136 178L1127 174C1132.63 165.897 1138.64 155.128 1134 145L1132 145C1128.22 154.747 1125.99 160.968 1118 168L1121 157C1126.16 155.641 1127.97 150.971 1127 146L1121 152L1121 141L1118 142C1120.74 125.865 1125.99 117.496 1141 111L1144 101L1140 97L1146 98C1145.16 93.1865 1145.31 89.2505 1151 89L1150 83C1159.14 80.5548 1159.16 72.8158 1150 71L1150 74L1149 74L1148 74L1144 64L1142 71L1139 70L1137 78L1136 78L1136 73L1128 76L1127 75L1127 73C1129.86 71.3964 1133.12 68.8872 1130 66C1130 68.7954 1128.52 68.2653 1126 68L1122 76L1123.58 61.7145L1129 48L1125 50L1126 41L1129 42C1128.96 37.9633 1129.22 34.4829 1125 33L1125 38L1126 19L1121 23L1119 23L1118 22L1119 19L1111 16L1114 11L1106 6L1102 8L1100 0L1094 0L1094 4L1092 4L1089 0L1090 7L1088 5C1083.19 6.13977 1080.5 5.23022 1080 0L1077 11L1070 0L1072 4L1069 9L1067 9L1065 3L1060 2L1056 5L1056 0L994 0C994 11.5341 995.135 21.661 990 32L989 32L991 0C986.317 0.15564 984.551 1.21716 984 6L982 0L976 0L971.522 13L970.973 31.8156L957 45L958 38L950 39L951 44L948 43L949 48L946 48L947 25L940 27C938.409 31.7843 937.878 37.8582 933 40L935 31C928.161 29.9644 928.635 38.9772 928 44L927 44C926.925 35.6898 922.58 33.2286 918 27L916 27L915 28C915.021 32.6604 913.772 35.2227 909 36C909.318 25.9713 899.762 33.087 896 27L888 29L899 13L894 13L896 7L891 0C886.118 1.04602 889.339 5.34204 887.278 8.77783C882.252 17.1544 877.831 16.8707 879 28L876 27L879 36C869.978 32.2521 867.879 26.3948 876 20L876 18C871.973 17.3907 868.423 19.7831 866 23L858 17L858 24L825 19L825 28L829 29L826 36C819.485 30.588 812.477 26.5466 812.652 17C812.711 13.7968 814.226 11.2123 814 8C806.697 13.2839 798.894 13.8325 798 24L793 23C789.405 29.8083 786.966 24.8003 781.17 26.2639C775.059 27.8069 771.573 30.9751 767 35L770 28L770 27L759 32C760.152 27.3103 761.495 22.7062 756 21C754.522 25.736 752.318 30.7161 758 33L757 49L754 45L745 44L742 37L745 52L743 52L740 41L734 43L734 39L722 39L721 43L712 41L712 37L710 37C710.134 40.2506 710.898 41.0518 714 42L714 43C711.078 45.5698 712.638 48.7828 714 52L710 53L710 49L690 51C690.41 46.467 689.683 41.6294 685 40L685 39L692 40C686.989 32.0249 691.277 30.8348 691.778 22.9105C692.293 14.7692 692.127 8.09656 694 0L623 0z"/>
<path style="fill:#fcfcfc; stroke:none;" d="M692 40L685 39L685 40C689.052 42.3428 690.212 46.4524 690 51L710 49L710 53L714 52L714 43L714 42L710 37L712 37L713 38L712 41L721 43L722 39C726.83 40.9507 729.272 41.4897 734 39L734 43L740 41L743 52L745 52L742 37L745 44L754 45L757 49L758 33C752.837 29.8297 754.961 26.0636 756 21C761.07 23.4349 759.917 27.1257 759 32L770 27L770 28L767 35C770.205 33.0637 772.408 29.8831 775.951 28.473C782.36 25.922 790.435 30.2321 793 23L798 24C799.537 13.7888 807.585 14.4852 814 8C812.398 21.7161 813.226 28.2732 826 36L829 29L825 28L825 19C833.102 24.0968 834.943 20.2529 843.039 20.3411C848.252 20.3978 852.988 23.2396 858 24L858 17L866 23L876 18L876 20C866.764 24.9524 869.859 33.6462 879 36L876 27L879 28L888 0L755 0L715 0C709.312 0 701.69 -1.33276 696.225 0.317871C687.698 2.89331 692.712 17.9606 691.412 23.8302C690.69 27.0909 688.071 29.432 688.252 32.9993C688.401 35.9539 690.194 37.8647 692 40M896 7L894 13L899 13L888 29L896 27C898.072 34.3708 909.048 25.6526 909 36C914.713 35.5458 915.457 32.1938 916 27L918 27L927 44L928 44C928.964 38.8259 928.393 31.3018 935 31L933 40C938.142 38.4084 938.965 31.8624 940 27L947 25L946 48L949 48L948 43L951 44L950 39L958 38L957 45L971.4 31.8156L971.908 13L976 0L914 0C909.126 0 895.535 -2.37195 891.801 1.02307C888.743 3.80347 894.102 6.22839 896 7M982 0L984 6L985 0L982 0M991 0L991.026 14.2855L989 32L990 32C996.402 23.1088 994 10.6096 994 0L991 0M998 0L999 1L998 0M1056 0L1056 5L1060 2L1065 3L1067 9L1069 9L1072 4L1070 0L1056 0z"/>
<path style="fill:#040404; stroke:none;" d="M1061 0L1062 1L1061 0z"/>
<path style="fill:#fcfcfc; stroke:none;" d="M1072 0L1077 11L1078 0L1072 0M1088 5L1088 7L1090 7L1089 0C1078.07 0.00842285 1079.23 8.4325 1088 5M1092 0L1092 4L1094 4L1094 0L1092 0M1100 0L1102 8L1106 6L1114 11L1111 16L1119 19L1118 22L1119 23L1121 23L1126 19C1124.55 23.9181 1121.47 34.38 1125 38L1125 33C1128.65 35.135 1128.9 37.9495 1129 42L1126 41L1125 50L1129 48L1122 76L1126 68C1128.58 68.6337 1130 68.8188 1130 66C1131.79 69.2697 1129.63 70.8158 1127 73L1127 75L1128 76L1136 73L1136 78L1137 78L1139 70L1142 71L1144 64L1150 74L1150 71C1158.66 73.3527 1158.25 79.682 1150 83L1151 89C1144.84 88.0999 1144.88 93.2272 1146 98L1144 96L1140 97L1144 101L1141 111C1125.66 115.83 1119.58 126.184 1118 142L1121 141L1121 152L1127 146C1127.33 151.067 1125.6 154.71 1121 157L1118 168C1126.75 162.715 1129.41 154.452 1132 145L1134 145C1137.65 156.641 1131.53 164.232 1127 174L1136 178L1137 178C1139.04 173.501 1136.89 159.889 1143 159L1146 153C1146.82 156.822 1149.6 156.145 1151 153L1158 151L1152 166L1163 163L1158 174L1173 163L1172 168L1187 155L1185 159L1185 160C1196.39 161.767 1186.98 149.773 1193 144L1193 143L1190 144L1191 138L1186 134L1195 132C1198.72 128.245 1207.11 127.29 1211 131L1225.95 122.281L1246 123L1244 132L1250 129L1260.09 133.142L1271 131L1267 135L1267 136L1271 137L1266 148L1275 151L1285 142L1289 144L1290 127L1292 130L1299 124L1301 124L1302 128L1314 124L1315 119C1317.54 119.523 1317.69 119.595 1318 117L1319 117C1321.72 121.917 1326.09 120.985 1328 116L1335 117L1331 134L1334 133L1335 141L1338 140L1339 143L1344 140L1343 148L1354 141L1356 146L1357 146C1358.38 141.52 1360.01 130.838 1366 132L1368 133L1369 133C1376.6 114.735 1388.59 106.951 1402.96 94.6605C1409.46 89.0972 1413.51 82.6979 1421 78L1422 81L1430 77L1431 80C1440.43 80.9625 1441.98 89.3016 1440.33 97C1439.58 100.516 1440.16 104.705 1438.74 108C1434.79 117.178 1426.06 123.579 1422.32 133C1419.48 140.162 1420.9 147.406 1417 154L1421 154L1407.3 171.455L1401 183L1397 194C1389.24 193.954 1369.07 216.608 1382 223L1382 224C1378.56 226.217 1377.34 228.999 1378 233C1384.68 225.716 1413.09 216.701 1420 228L1439 219L1438 224L1459 221L1453 231C1456.77 231.814 1480.97 227.815 1466 237L1466 240L1484 234C1508.64 236.948 1533.42 236.331 1558 234.088C1568.06 233.17 1579.31 226.116 1589 228L1591 223C1595.52 225.189 1601.72 227.863 1605 223L1607 227L1616 228L1620 227L1615 240L1628 240L1642 237L1642 252L1644 252L1648 249L1647 258L1651 253L1652 253L1650 259L1654 260L1650 272L1652 270L1653 270L1650 274C1650.47 276.231 1652.24 279.978 1651.36 282.197C1648.88 288.486 1642.29 286.759 1645 296L1643 293C1637.95 294.558 1630.4 299.182 1626.95 303.262C1623.52 307.308 1624.66 313.035 1618 312L1616 317L1620 317C1613.46 330.199 1597.69 327.447 1585.83 333.17C1580.8 335.598 1577.49 333.991 1575 340L1580 341L1580 342C1573.43 342.53 1568.56 343.541 1568 351L1573 349L1573 352L1578 350L1576 368L1581 367L1587 376L1578 375C1580.44 382.677 1584.51 391.923 1583 400C1584.82 402.162 1585.35 406.56 1588.16 407.643C1594.4 410.048 1600.44 402.27 1604 412C1614.02 411.942 1615.74 409.785 1622 418L1622 419L1618.48 434.255L1611 444L1615 444C1612.62 452.147 1619.46 455.338 1615.23 463.996C1612.81 468.953 1609.35 471.841 1604 473.372C1601.13 474.195 1595.47 473.531 1594.34 477.149C1593.38 480.21 1597.36 484.832 1598 488L1572.01 481.884L1557 487L1557 488L1564 490L1560 491L1560 492L1564 500L1561 499L1557 503L1557 504L1560 508L1568 515L1566 520L1579 526C1585.53 526.622 1586.48 530.63 1584 536L1588 541C1581.89 544.684 1585.53 549 1588 554L1584 555C1589.06 562.08 1584.5 566.276 1583 574C1586.7 577.283 1585.22 579.679 1584 584L1570 574L1569 574C1563.96 576.772 1561.22 575.16 1556 574L1555 588L1548 584L1549 599C1548.37 606.433 1558.67 609.599 1562 616L1560 613C1549.88 616.144 1566.45 628.72 1569.55 633C1577.37 643.77 1578.57 654.497 1584.12 666C1588.31 674.676 1595.91 682.414 1597.68 692C1598.65 697.229 1595.4 701.225 1597 707L1587 716L1578 718L1577 718L1558.21 706.566L1534.74 678.197L1518 673C1515.07 680.883 1522.94 680.447 1529 681L1528 686L1525 685C1527.18 692.025 1533.36 692.25 1539 689L1539 693L1536 692L1531 700L1540 706L1538 703L1542 703L1541 706L1545 710L1550 708C1550.84 712.127 1554.09 712.737 1558 713L1558 716L1530.87 717.688L1519.91 727.3L1505 732C1509.08 733.879 1511.08 735.506 1512 740L1504 743L1519 750L1520 760L1519 760C1515.59 754.82 1509.62 760.746 1505 761.977C1495.86 764.412 1485.99 756.922 1480 768C1471.92 764.182 1460.41 769.22 1452 771L1454 782L1439 783C1445.68 791.002 1447.78 784.523 1456 784.684C1473.23 785.022 1488.56 781.386 1506 783.448C1512.34 784.198 1513.78 792.002 1520 794L1518 800L1526 802L1519 815C1520 819.946 1522.58 822.687 1527 825L1521 832L1519 828L1518 834L1507 835C1508.43 842.224 1509.05 848.322 1500 849L1498 856C1487.41 853.921 1488.2 860.316 1485 869L1484 869C1483.15 864.079 1479.49 863.068 1475 862L1474 866L1478 865L1478 868C1472.28 867.792 1469.82 871.079 1473 876L1468 875L1467 880L1466 880L1465 877L1460 890L1462 888L1463 888L1472 896L1468 894L1465 896L1464 896C1461.61 893.632 1460 893.031 1458 896L1454 894L1452 900L1456 899L1450 920L1453 921L1452 924L1434 920L1433 920L1434 926L1428 928L1433 920L1433 918L1426 917L1427 920C1419.17 920.893 1419.83 926.228 1423 932L1419 927L1416 927L1412 934L1410 934L1406 930L1406 936L1418 952C1413.01 953.971 1406.88 953.352 1408 960C1398.48 961.948 1393.79 957.79 1394 970L1370 962.879L1361.99 968.33L1355 967L1355 972L1352 971L1352 976L1349 975L1352 970L1341 980L1339 980L1335 969L1334 968L1329 969L1332 973L1329 976L1318 961L1321 961C1318.43 956.944 1315.66 957.473 1312 960L1310 946L1309 946C1306.6 954.11 1307.48 971.347 1312.32 978.487C1313.95 980.885 1317.33 981.019 1319.16 983.303C1322.69 987.715 1326.4 994.912 1329 1000L1312 996L1314 991L1303 989L1301 985L1299 992L1302 991L1300 996L1298 996L1286.02 988.446L1272 969C1274.72 981.523 1281.13 1000.12 1293 1006L1294 1016L1293 1017L1289 1013L1288 1013L1286 1021L1284 1017L1279 1016L1281 1012C1287.4 1015.62 1286.58 1006.66 1283 1012L1282 1009L1281 1009L1280 1013L1271 1012L1272 1018L1275 1016L1276 1019L1275 1020C1269.01 1018.93 1267.47 1022.65 1269 1028C1264.47 1027.5 1264.61 1025.06 1265 1021C1252.27 1017.97 1256.08 1023.42 1254 1032L1258 1033L1255 1044L1254 1044L1250 1040L1249 1033L1250 1046C1246.93 1047.02 1246.11 1048.24 1248 1051L1248 1052L1244 1055L1238 1039L1241 1068L1240 1068C1239.48 1061.36 1234.02 1054.67 1232.04 1048C1227.33 1032.11 1229.53 1007.37 1213 997L1221 1020L1204 1010L1204 1012C1199.31 1008.54 1194.91 1003.91 1194 998L1193 998L1188 1016L1186 1002L1190 1002C1189.37 997.939 1187.97 996.15 1184 995C1180.2 998.101 1178.08 994.38 1176 991L1175 991L1177 1000C1163.73 998.999 1171.5 1005.29 1174.53 1013C1175.89 1016.48 1174.84 1020.52 1174 1024L1180 1037L1180 1040L1174 1044C1173.87 1032.23 1167.79 1024.34 1161.5 1015C1157.9 1009.67 1158.54 1005.68 1152 1003C1155.49 991.085 1146.17 981.424 1136 977L1132 988L1137 990L1135 1000L1139 999L1137 1009L1140 1007L1145 1023L1129 1007L1130 1012L1117 993L1102 1018L1101 1014C1094.73 1014.59 1083.76 1014.38 1083.74 1024C1083.73 1028.11 1087.66 1033.06 1089 1037C1084.38 1040.49 1087.91 1047.28 1091.44 1050.51C1100.43 1058.72 1116.4 1066.99 1117 1080L1920 1080L1920 0L1100 0M1041 1L1041 4L1042 4L1041 1z"/>
<path style="fill:#040404; stroke:none;" d="M815.667 3.33337L816.333 3.66663L815.667 3.33337z"/>
<path style="fill:#fcfcfc; stroke:none;" d="M978 4L979 5L978 4z"/>
<path style="fill:#040404; stroke:none;" d="M1111 8L1114 8L1113 6L1111 8M832 7L832 8L835 8L832 7z"/>
<path style="fill:#fcfcfc; stroke:none;" d="M1000 7L1000 17L1001 17L1000 7M1059 12L1062 9L1059 12M1083 9L1086 12L1085 9L1083 9z"/>
<path style="fill:#040404; stroke:none;" d="M834 11C833.896 17.6501 840.011 18.636 845 16C842.257 11.3052 838.972 11.6006 834 11M870 11L869 13L870 11z"/>
<path style="fill:#fcfcfc; stroke:none;" d="M889 11L890 12L889 11M1107 12L1106 14L1108 14L1107 12M1111 12L1112 13L1111 12z"/>
<path style="fill:#040404; stroke:none;" d="M849 13L850 18L852 18L849 13z"/>
<path style="fill:#fcfcfc; stroke:none;" d="M893 13L892 16L893 13z"/>
<path style="fill:#040404; stroke:none;" d="M1116.67 15.3334L1117.33 15.6666L1116.67 15.3334M864 17L867 20L868 17L864 17z"/>
<path style="fill:#fcfcfc; stroke:none;" d="M886 17L887 18L886 17z"/>
<path style="fill:#040404; stroke:none;" d="M760 19L761 20L760 19M774 19L775 20L774 19M832 19L833 20L832 19z"/>
<path style="fill:#fcfcfc; stroke:none;" d="M889 19L890 20L889 19z"/>
<path style="fill:#040404; stroke:none;" d="M775 22L776 23L775 22z"/>
<path style="fill:#fcfcfc; stroke:none;" d="M804.667 23.3334L805.333 23.6666L804.667 23.3334M1118.67 25.3334L1119.33 25.6666L1118.67 25.3334z"/>
<path style="fill:#040404; stroke:none;" d="M749 27L750 28L749 27z"/>
<path style="fill:#fcfcfc; stroke:none;" d="M1000 27L998 34L1002 27L1000 27M793 29L794 36L795 36L795 29L793 29M1121 30L1121 33L1123 32L1123 31L1121 30M758 32L759 33L758 32M782 32L784 37L782 32M920 33L921 34L920 33z"/>
<path style="fill:#040404; stroke:none;" d="M957 33L959 36L957 33z"/>
<path style="fill:#fcfcfc; stroke:none;" d="M763 34L765 37L763 34M776 34L774 35L774 36L776 34M921 36L918 44L921 45C922.973 41.4064 923.976 39.1398 921 36M827 37L827 38L830 39L827 37M689 38L690 39L689 38M880 41L882 44L880 41z"/>
<path style="fill:#040404; stroke:none;" d="M694.667 43.3334L695.333 43.6666L694.667 43.3334z"/>
<path style="fill:#fcfcfc; stroke:none;" d="M786 44L786 46L788 46L786 44M726 48L727 52L728 52L726 48M716 53L715 62L716 62L718 53L716 53M722 55L722 56L725 56L722 55M692 57L692 64L693 64L692 57M702 57L704 60L702 57z"/>
<path style="fill:#040404; stroke:none;" d="M1148 59L1148 60L1152 60L1148 59M1135.33 62.6667L1135.67 63.3333L1135.33 62.6667z"/>
<path style="fill:#fcfcfc; stroke:none;" d="M698 63C698.652 66.9108 700.136 67.6998 704 68L698 63z"/>
<path style="fill:#040404; stroke:none;" d="M1156 65L1160 72L1156 65z"/>
<path style="fill:#fcfcfc; stroke:none;" d="M702 73L704 76L702 73M1141 73C1141.86 76.9903 1142.95 80.5938 1147 82L1141 73M1134 78L1136 81L1134 78M1125.67 82.3333L1126.33 82.6667L1125.67 82.3333M600.667 99.3333L601.333 99.6667L600.667 99.3333z"/>
<path style="fill:#040404; stroke:none;" d="M506.667 107.333L507.333 107.667L506.667 107.333M509 109L510 110L509 109M588 114L590 117L590 114L588 114M542.667 116.333L543.333 116.667L542.667 116.333z"/>
<path style="fill:#fcfcfc; stroke:none;" d="M691 132L697 130L693 141L698 140L701 135L699 146L693 145L696 148L697 160L702 159L714 168L718 166C720.079 170.626 722.637 173.871 728 173L741 177L744 183L746 177L748 177L747 184L753 188L754 188L752 175L760 177L756 168L781 178C781.821 175.742 792.373 156.545 783.1 157.921C779.468 158.459 778.375 162.886 773.996 162.836C767.957 162.768 763.925 157.892 759 155.225C750.06 150.382 729.089 148.035 727 137L708 128L710 123C697.241 115.449 695.571 119.124 691 132z"/>
<path style="fill:#040404; stroke:none;" d="M542 118L543 119L542 118z"/>
<path style="fill:#fcfcfc; stroke:none;" d="M693 119L694 120L693 119M1117 119L1117 120L1120 120L1117 119z"/>
<path style="fill:#040404; stroke:none;" d="M1272 122C1271.06 125.45 1270.95 127.841 1274 130L1274 122L1272 122M553 129L558 127C555.159 126.157 554.335 126.331 553 129z"/>
<path style="fill:#fcfcfc; stroke:none;" d="M590 129L588 132C590.251 131.527 591.118 131.14 590 129M596.333 130.667L596.667 131.333L596.333 130.667M1366 132L1367 133L1366 132M1260 136L1258 140L1260 136M1338.33 143.667L1338.67 144.333L1338.33 143.667z"/>
<path style="fill:#040404; stroke:none;" d="M1137 144L1138 145L1137 144M1138.33 146.667L1138.67 147.333L1138.33 146.667z"/>
<path style="fill:#fcfcfc; stroke:none;" d="M1099 147L1100 148L1099 147M1116 147L1116 150L1118 147L1116 147z"/>
<path style="fill:#040404; stroke:none;" d="M1147 147L1148 148L1147 147z"/>
<path style="fill:#fcfcfc; stroke:none;" d="M1419 149L1420 150L1419 149M1197 151L1198 152L1197 151M1275 153L1276 154L1275 153M1120 155L1121 156L1120 155z"/>
<path style="fill:#040404; stroke:none;" d="M709 158L709 160L711 160L711 158L709 158z"/>
<path style="fill:#fcfcfc; stroke:none;" d="M698 167L699 172L700 172L700 167L698 167z"/>
<path style="fill:#040404; stroke:none;" d="M755 167L756 168L755 167z"/>
<path style="fill:#fcfcfc; stroke:none;" d="M1104 172L1110 167L1104 172M704 171L704 176L707 175L704 171M717 171L718 172L717 171M711 180L713 175C709.882 175.946 707.709 177.678 711 180z"/>
<path style="fill:#040404; stroke:none;" d="M741.667 175.333L742.333 175.667L741.667 175.333z"/>
<path style="fill:#fcfcfc; stroke:none;" d="M1403 175L1404 176L1403 175z"/>
<path style="fill:#040404; stroke:none;" d="M407 179L408 180L407 179z"/>
<path style="fill:#fcfcfc; stroke:none;" d="M1099.67 179.333L1100.33 179.667L1099.67 179.333M1113 179C1111.98 181.899 1111.77 183.308 1115 184L1113 179M712 180L715 184L712 180z"/>
<path style="fill:#040404; stroke:none;" d="M407 182L408 183L407 182z"/>
<path style="fill:#fcfcfc; stroke:none;" d="M717.667 187.333L718.333 187.667L717.667 187.333M479 190L478 192L480 192L479 190M726.667 191.333L727.333 191.667L726.667 191.333M1391 196L1392 197L1391 196M728 197L730 200L730 197L728 197M479 205L479 212L480 212L479 205z"/>
<path style="fill:#040404; stroke:none;" d="M345 209L346 210L345 209z"/>
<path style="fill:#fcfcfc; stroke:none;" d="M1373 217L1373 220L1374 220L1373 217z"/>
<path style="fill:#040404; stroke:none;" d="M1612 217L1613 221L1614 221L1615 217L1612 217M328 219L329 220L328 219M1459 219L1460 220L1459 219z"/>
<path style="fill:#fcfcfc; stroke:none;" d="M454 221L457 226L454 221M1377 221L1379 225L1377 221z"/>
<path style="fill:#040404; stroke:none;" d="M1608 223L1609 224L1608 223z"/>
<path style="fill:#fcfcfc; stroke:none;" d="M457 227L458 228L457 227M1610 228L1611 232L1612 232L1610 228M317 229L317 232L318 232L317 229z"/>
<path style="fill:#040404; stroke:none;" d="M1534.67 231.333L1535.33 231.667L1534.67 231.333M1622.67 231.333L1623.33 231.667L1622.67 231.333z"/>
<path style="fill:#fcfcfc; stroke:none;" d="M476 232L475 236L478 236L476 232M456 237L458 239L456 237M466.333 238.667L466.667 239.333L466.333 238.667M1636 245L1636 247L1638 247L1638 245L1636 245z"/>
<path style="fill:#040404; stroke:none;" d="M1648 247L1649 248L1648 247z"/>
<path style="fill:#fcfcfc; stroke:none;" d="M327 253L332 256L327 253M336 257L343 264L336 257M1642 260L1646 258C1643.59 256.645 1642.57 257.351 1642 260M1646 270L1646 273L1648 270L1646 270z"/>
<path style="fill:#040404; stroke:none;" d="M1656 280L1659 280L1658 278L1656 280M1656.67 287.333L1657.33 287.667L1656.67 287.333z"/>
<path style="fill:#fcfcfc; stroke:none;" d="M338 288L337 292L340 288L338 288z"/>
<path style="fill:#040404; stroke:none;" d="M1646 289L1646 294L1651 289L1646 289M1652 289L1652 291L1654 289L1652 289z"/>
<path style="fill:#fcfcfc; stroke:none;" d="M328 295L331 298L328 295z"/>
<path style="fill:#040404; stroke:none;" d="M1638 299L1639 300L1638 299M1628.33 306.667L1628.67 307.333L1628.33 306.667z"/>
<path style="fill:#fcfcfc; stroke:none;" d="M329 307L330 308L329 307z"/>
<path style="fill:#040404; stroke:none;" d="M291 309L291 312L292 312L291 309z"/>
<path style="fill:#fcfcfc; stroke:none;" d="M1620 310L1621 311L1620 310z"/>
<path style="fill:#040404; stroke:none;" d="M314 311L315 312L314 311z"/>
<path style="fill:#fcfcfc; stroke:none;" d="M306 325C304.419 328.847 304.91 330.747 309 332L308 325L306 325z"/>
<path style="fill:#040404; stroke:none;" d="M295 331L296 332L295 331M292 337L292 341L294 341L294 337L292 337z"/>
<path style="fill:#fcfcfc; stroke:none;" d="M1567 351L1568 352L1567 351M278 389L279 390L278 389M1579 390L1581 394L1579 390z"/>
<path style="fill:#040404; stroke:none;" d="M1606 407L1606 408L1609 408L1606 407z"/>
<path style="fill:#fcfcfc; stroke:none;" d="M1601 413L1602 414L1601 413M1592 415L1592 416L1595 416L1592 415z"/>
<path style="fill:#040404; stroke:none;" d="M261 426L261 428L263 426L261 426z"/>
<path style="fill:#fcfcfc; stroke:none;" d="M371 426L370 428L372 428L371 426M379 427L380 428L379 427M388.667 431.333L389.333 431.667L388.667 431.333M279 437L280 438L279 437M277.333 438.667L277.667 439.333L277.333 438.667M276 450L276 452L278 452L276 450z"/>
<path style="fill:#040404; stroke:none;" d="M323 467L324 468L323 467z"/>
<path style="fill:#fcfcfc; stroke:none;" d="M340.667 467.333L341.333 467.667L340.667 467.333z"/>
<path style="fill:#040404; stroke:none;" d="M326 468L327 469L326 468z"/>
<path style="fill:#fcfcfc; stroke:none;" d="M333 470L332 472L334 472L333 470z"/>
<path style="fill:#040404; stroke:none;" d="M325 471L326 472L325 471M282 488L283 489L282 488z"/>
<path style="fill:#fcfcfc; stroke:none;" d="M1553 491L1553 492L1556 492L1553 491z"/>
<path style="fill:#040404; stroke:none;" d="M256 493C256.654 496.054 258.007 495.936 261 496L256 493z"/>
<path style="fill:#fcfcfc; stroke:none;" d="M277 493L280 496L277 493M282 498L286 503L282 498z"/>
<path style="fill:#040404; stroke:none;" d="M1566.67 511.333L1567.33 511.667L1566.67 511.333M1590.67 543.333L1591.33 543.667L1590.67 543.333z"/>
<path style="fill:#fcfcfc; stroke:none;" d="M1586 559L1587 560L1586 559M1551 577L1552 578L1551 577M1552 579L1555 581L1552 579M1547 583L1548 584L1547 583z"/>
<path style="fill:#040404; stroke:none;" d="M303 589L303 593L304 593L303 589M299 591L300 592L299 591z"/>
<path style="fill:#fcfcfc; stroke:none;" d="M322 591L323 592L322 591z"/>
<path style="fill:#040404; stroke:none;" d="M294.667 593.333L295.333 593.667L294.667 593.333M269 597L269 600L270 600L269 597z"/>
<path style="fill:#fcfcfc; stroke:none;" d="M1542 597L1543 600L1544 600L1544 597L1542 597M301 631L302 634L303 634L304 631L301 631M297 637L298 638L297 637M308 639L309 640L308 639M270 661L271 662L270 661M272 661L272 664L273 664L272 661M241 680C243.521 688.57 256.459 689.963 264 692C259.731 685.008 248.482 682.401 241 680M1594.67 697.333L1595.33 697.667L1594.67 697.333z"/>
<path style="fill:#040404; stroke:none;" d="M210 699L210 700L214 700L210 699z"/>
<path style="fill:#fcfcfc; stroke:none;" d="M1524 699L1525 700L1524 699M1528.67 699.333L1529.33 699.667L1528.67 699.333M212 715L213 716L212 715M307 721L311 724L307 721M318 725L317 732L324 732L320 725L318 725M1496 725L1498 728L1496 725z"/>
<path style="fill:#040404; stroke:none;" d="M1522 755L1522 756L1525 756L1522 755z"/>
<path style="fill:#fcfcfc; stroke:none;" d="M1459 759L1459 760L1462 760L1459 759z"/>
<path style="fill:#040404; stroke:none;" d="M1514.67 759.333L1515.33 759.667L1514.67 759.333M226 766L224 767L224 768L226 766z"/>
<path style="fill:#fcfcfc; stroke:none;" d="M1424.67 771.333L1425.33 771.667L1424.67 771.333z"/>
<path style="fill:#040404; stroke:none;" d="M217 779L218 780L217 779M217 787L218 788L217 787M1528.67 823.333L1529.33 823.667L1528.67 823.333M262 825C264.428 828.151 270.9 830.135 272 825L262 825z"/>
<path style="fill:#fcfcfc; stroke:none;" d="M1501 835L1502 836L1501 835z"/>
<path style="fill:#040404; stroke:none;" d="M1511 841L1510 844L1513 844L1511 841z"/>
<path style="fill:#fcfcfc; stroke:none;" d="M288 863L289 864L288 863M298 871L299 872L298 871M295 875L296 876L295 875M1465 876L1466 877L1465 876M596 881L600 896C605.838 891.55 600.044 884.593 596 881M338.667 883.333L339.333 883.667L338.667 883.333M287 889L288 890L287 889M327.667 891.333L328.333 891.667L327.667 891.333M1439 891L1445 896L1439 891M348 897L348 899L350 897L348 897M596 897L597 898L596 897M596 899L597 900L596 899M291.667 903.333L292.333 903.667L291.667 903.333M291 907L292 908L291 907M1445 910L1445 912L1452 908L1445 910z"/>
<path style="fill:#040404; stroke:none;" d="M327 912L326 914L328 914L327 912z"/>
<path style="fill:#fcfcfc; stroke:none;" d="M1416 915L1416 918L1417 918L1416 915M1412 920L1415 917L1412 920M593.333 920.667L593.667 921.333L593.333 920.667M1403 925L1405 928L1403 925M587 926L587 931L588 931L587 926M646.333 926.667L646.667 927.333L646.333 926.667M348.667 931.333L349.333 931.667L348.667 931.333M1301 935L1302 940L1303 940L1306 933L1301 935M647 934L647 936L649 936L649 934L647 934z"/>
<path style="fill:#040404; stroke:none;" d="M592 937L593 938L592 937z"/>
<path style="fill:#fcfcfc; stroke:none;" d="M1306 939L1303 948L1307 948L1310 944L1306 939M637 941L638 942L637 941M346 947L347 948L346 947M664 949L661 951L661 952C663.348 951.706 664.951 951.507 664 949M1266 949C1265.23 952.811 1265.59 955.905 1261 956C1263.16 961.1 1266.49 964.108 1272 965L1268 949L1266 949z"/>
<path style="fill:#040404; stroke:none;" d="M653 955L654 956L653 955z"/>
<path style="fill:#fcfcfc; stroke:none;" d="M377 961L376 964L377 961z"/>
<path style="fill:#040404; stroke:none;" d="M326 964L324 968L326 964z"/>
<path style="fill:#fcfcfc; stroke:none;" d="M337.667 967.333L338.333 967.667L337.667 967.333M373 967L374 968L373 967M1327 967L1328 968L1327 967M1350 967L1350 969L1352 967L1350 967M369.667 971.333L370.333 971.667L369.667 971.333M1131 971L1133 976L1134 976L1131 971M1239 971L1240 972L1239 971M1282.67 971.333L1283.33 971.667L1282.67 971.333M366 974L366 978L367 978L366 974M391 977L390 982C394.436 981.095 396.328 979.159 398 975L391 977M513 975L514 976L513 975M702 975L702 976L705 976L702 975M663 976L657 984C660.749 982.846 663.598 980.121 663 976z"/>
<path style="fill:#040404; stroke:none;" d="M1345 976L1345 983L1347 983L1347 976L1345 976M1352 979L1351 985L1354 984L1352 979z"/>
<path style="fill:#fcfcfc; stroke:none;" d="M1187 981L1187 987C1189.3 984.546 1189.3 983.454 1187 981z"/>
<path style="fill:#040404; stroke:none;" d="M1356.67 981.333L1357.33 981.667L1356.67 981.333z"/>
<path style="fill:#fcfcfc; stroke:none;" d="M512.667 983.333L513.333 983.667L512.667 983.333z"/>
<path style="fill:#040404; stroke:none;" d="M352 985L352 987L354 985L352 985z"/>
<path style="fill:#fcfcfc; stroke:none;" d="M517 985L518 986L517 985M1205 987L1206 988L1205 987M652 989L651 993L652 993L652 989M1187 989L1187 992L1192 992L1192 989L1187 989M1156 990L1156 992L1158 992L1156 990M978 991L978 992L981 992L978 991z"/>
<path style="fill:#040404; stroke:none;" d="M502 993L502 996L504 996L504 993L502 993M513 993L514 994L513 993z"/>
<path style="fill:#fcfcfc; stroke:none;" d="M625 993L624 996L627 996L625 993M649 993L648 996L649 993z"/>
<path style="fill:#040404; stroke:none;" d="M1302.67 993.333L1303.33 993.667L1302.67 993.333M1287 994L1287 996L1289 996L1287 994z"/>
<path style="fill:#fcfcfc; stroke:none;" d="M624 1001L624 1007L629 1000L634 1000L634 998L633 997L624 1001z"/>
<path style="fill:#040404; stroke:none;" d="M1302.67 997.333L1303.33 997.667L1302.67 997.333z"/>
<path style="fill:#fcfcfc; stroke:none;" d="M979 999L980 1000L979 999M982 999L982 1005L984 1005L985 1004L984 999L982 999z"/>
<path style="fill:#040404; stroke:none;" d="M1332 1000C1331.15 1002.7 1331.15 1003.39 1334 1004L1332 1000M382 1003L383 1004L382 1003M543 1007L544 1008L543 1007z"/>
<path style="fill:#fcfcfc; stroke:none;" d="M1271 1007L1270 1011L1273 1007L1271 1007M1282 1007L1283 1008L1282 1007M982 1008L980 1012L976 1011C981.115 1022.71 978.321 1026.26 974 1038L969 1037C968.081 1045.91 963.676 1046.75 956 1048L959 1031L957 1034L952 1025L948 1026L946 1019C943.233 1023.95 947.724 1027.95 948.125 1033C948.667 1039.84 944.667 1044.61 943.671 1051C942.936 1055.72 945.696 1059.44 945.968 1064C946.461 1072.25 938.692 1076.04 932 1078L935 1069L936 1069L939 1072L938 1066L944 1064C935.16 1052.65 939.048 1048.4 941 1036C935.855 1037.93 933.364 1037.51 930 1033C926.534 1032.9 925.394 1032.18 924 1029L917 1031L917 1027L916 1027L915.567 1046L907 1059C895.383 1055.31 909.785 1046.44 907 1037L906 1037C898.913 1047.23 899.997 1031.86 900 1027L892 1033L893.652 1041.39L881.836 1057.05L880 1070L880 1065L876 1072C872.627 1073.33 870.785 1077.77 875.25 1079.67C879.336 1081.4 886.585 1080 891 1080L927 1080C932.26 1080 939.819 1081.83 943 1077C946.655 1082.07 956.312 1080 962 1080L1016 1080L1017 1076L1018 1076L1019 1080L1032 1080C1031.79 1072.4 1036.88 1071.95 1043 1070L1043 1068C1036.58 1062.81 1040.66 1058.08 1039 1051L1036 1052L1038 1047L1029 1050C1031.21 1060.77 1026.59 1062.64 1018 1057C1017.56 1062.57 1015.81 1069.76 1023 1071L1023 1072L1001 1074C996.835 1071.78 995.956 1068.21 998 1064L998 1063L983.046 1052.54L986.663 1044.01L1000 1025C995.539 1023.6 996.292 1021.08 997 1017L983 1016L982 1008M428 1016L429 1017L428 1016M972 1017L968 1032C975.241 1032.12 975.154 1021.62 972 1017z"/>
<path style="fill:#040404; stroke:none;" d="M1132 1017L1134 1019L1134 1017L1132 1017z"/>
<path style="fill:#fcfcfc; stroke:none;" d="M927 1019L927 1020L930 1020L927 1019z"/>
<path style="fill:#040404; stroke:none;" d="M1292 1020L1292 1026L1296 1025L1294 1020L1292 1020M1148 1023L1152 1027L1151 1023L1148 1023M1223 1023L1224 1024L1223 1023M402 1025L404 1028L402 1025z"/>
<path style="fill:#fcfcfc; stroke:none;" d="M928 1027L928 1030L929 1030L928 1027M1237.33 1027.67L1237.67 1028.33L1237.33 1027.67z"/>
<path style="fill:#040404; stroke:none;" d="M1275 1027L1276 1028L1275 1027z"/>
<path style="fill:#fcfcfc; stroke:none;" d="M935 1029L938 1032L935 1029M1076 1031L1076 1036L1077 1036L1079 1031L1076 1031M756.667 1043.33L757.333 1043.67L756.667 1043.33M604 1044L605 1045L604 1044M757 1045L753 1051L753 1052C758.677 1059.71 760.88 1070.91 758 1080L768 1080L771 1063L769 1052C763.332 1057.89 762.023 1053.37 762 1047L757 1045M816 1045L817 1046L816 1045M1066 1045L1068 1049L1069 1048L1066 1045M1049 1046L1049 1080L1070 1080L1065 1067C1049.91 1069.73 1056.03 1053.64 1049 1046z"/>
<path style="fill:#040404; stroke:none;" d="M445 1047L446 1048L445 1047z"/>
<path style="fill:#fcfcfc; stroke:none;" d="M1026 1047L1029 1050L1026 1047M671 1051L672 1052L671 1051M774 1051L773 1056C776.054 1055.35 775.936 1053.99 776 1051L774 1051z"/>
<path style="fill:#040404; stroke:none;" d="M584 1053L584 1056L585 1056L584 1053z"/>
<path style="fill:#fcfcfc; stroke:none;" d="M788 1053L788 1056L791 1056L791 1053L788 1053M1020 1053L1021 1054L1020 1053M878 1054L876 1062C879.268 1059.98 879.807 1057.39 878 1054M669 1055L658 1068C651.096 1068.15 646.759 1074.2 644 1080L669 1080L663.931 1069L669 1055M906.667 1055.33L907.333 1055.67L906.667 1055.33M1015.67 1055.33L1016.33 1055.67L1015.67 1055.33M1023 1055L1024 1056L1023 1055z"/>
<path style="fill:#040404; stroke:none;" d="M912 1057L914 1066L914 1057L912 1057z"/>
<path style="fill:#fcfcfc; stroke:none;" d="M770 1060L771 1061L770 1060M692 1061L693 1062L692 1061M1064 1061L1063 1065L1066 1064L1064 1061M813 1062L814 1063L813 1062M629.667 1063.33L630.333 1063.67L629.667 1063.33M1010.67 1063.33L1011.33 1063.67L1010.67 1063.33M1087 1063L1088 1064L1087 1063M813 1064L814 1065L813 1064M861 1067L861 1068C863.993 1067.94 865.346 1068.05 866 1065L861 1067M672 1080L687 1080C684.378 1073.97 685.218 1071.68 688 1066C678.836 1068.3 672.604 1068.37 672 1080M775 1067L776 1068L775 1067M776 1080L792 1080C791.182 1076.86 786.203 1066.47 781.545 1069.29C778.855 1070.92 777.418 1077.22 776 1080z"/>
<path style="fill:#040404; stroke:none;" d="M577 1072L580 1069L577 1072z"/>
<path style="fill:#fcfcfc; stroke:none;" d="M1003 1069L1004 1070L1003 1069M1079 1069L1078 1074L1081 1069L1079 1069M1088 1071L1088 1073L1090 1073L1090 1071L1088 1071M1099 1071L1098 1080L1104 1080L1104 1079L1099 1071M773 1074L774 1075L773 1074M869 1074L868 1076L870 1076L869 1074M696 1075L695 1079L691 1079L691 1080L699 1080L696 1075M704.667 1075.33L705.333 1075.67L704.667 1075.33M794.667 1075.33L795.333 1075.67L794.667 1075.33M862.667 1075.33L863.333 1075.67L862.667 1075.33M1070.67 1075.33L1071.33 1075.67L1070.67 1075.33M1111.67 1075.33L1112.33 1075.67L1111.67 1075.33M772 1076L773 1077L772 1076z"/>
<path style="fill:#040404; stroke:none;" d="M1017 1076L1016 1080L1019 1080L1017 1076z"/>
<path style="fill:#fcfcfc; stroke:none;" d="M828 1077L830 1080L828 1077z"/>
<path style="fill:#040404; stroke:none;" d="M942 1077L944 1080L942 1077z"/>
<path style="fill:#fcfcfc; stroke:none;" d="M1033 1080L1036 1080L1035 1078L1033 1080M772.667 1079.33L773.333 1079.67L772.667 1079.33M859.667 1079.33L860.333 1079.67L859.667 1079.33M1075 1079L1075 1080L1078 1080L1075 1079M1089.67 1079.33L1090.33 1079.67L1089.67 1079.33z"/>
</svg>
