<?xml version="1.0" standalone="yes"?>
<svg xmlns="http://www.w3.org/2000/svg" width="1920" height="1080">
<path style="fill:#fdfdfd; stroke:none;" d="M0 0L0 1080L712 1080C711.123 1075.73 708.65 1070.52 710.464 1066.17C713.809 1058.14 726.557 1048.26 725 1039L702 1065L701 1051C697.553 1051.96 696.417 1051.65 694 1049L699 1048L700 1042L687 1049C686.322 1044.74 687.708 1040.01 685.543 1036.06C681.599 1028.87 678.06 1034.94 678 1040L673 1035L672 1035L668 1043L668 1033L662 1032C665.065 1028.2 666.292 1022.87 669.638 1019.43C672.531 1016.46 677.58 1015.82 681 1013.33C686.486 1009.33 689.76 1003.56 695.018 999.637C700.519 995.535 707.554 993.02 712.674 988.443C719.96 981.931 721.8 972.139 710 972L711 968C700.479 969.799 682.102 978.592 674.015 986.105C669.525 990.277 664.391 1001.51 657 998L652 1006L643.851 1014.57L629 1024L644 1003L634 1008C639.363 997.892 649.494 972.485 661 969L666 954L671 954L671 953L668 953C669.937 944.843 666.105 940.205 663 933L662 933L662 936L655 933L651 936C654.527 926.229 646.088 927.564 645 920L641 911L640 911L639 916L638 916L627 890L620 896L620 889L614 889L610 893L613 877L610 882L601 882L602 879L595 877L596 914L593 913C590.673 920.948 597.307 928.57 588 933L588 925L586 934L583 933L580 955L579 955L568 939L563 944C574.008 952.619 576.37 969.89 571 982L570 979L567 980L564 973L563 973L562 975L561 975L558 973L561 1002L557 997L555 1000L546 986L546 992L534 992L527 977L518 975C517.629 979.916 516.04 982.162 511 981C509.166 986.547 508.523 988.457 503 985L494 994C493.518 989.409 493.684 976.004 489 975C490.257 980.281 491.111 988.987 484 990C478.782 1003.93 486.543 1018.86 491 1032C485.416 1033.76 485.415 1038.85 485 1044L483 1042C472.79 1046.73 474.183 1039.99 469.397 1034.43C466.77 1031.38 458.797 1026.35 455 1025L454 1028L451 1027L449 1033C444.37 1030.98 440.272 1027.73 437 1033C434.146 1031.22 433.531 1030.1 435 1027L428 1024L431 1007L424 1010L426 1004L426 1003L416 1008L416 1002C411.325 1003.25 409.384 1005.39 408 1010L402 1010L407 986C401.271 989.62 396.769 991.801 390 990L390 993L388 993L389 988L392 989C395.813 981.586 402.544 978.595 401 969L394 976L381 980C383.439 973.655 382.887 969.422 381 963L388 955L387 954L384 958L381 955L379 955L375 964L370 957L368 960L342 956L355 941L346 942C347.254 937.366 360.525 922.308 349 926L352 919L347 922L346 922L336 921L340 914L342 916L343 916C343.72 909.323 354.231 895.421 348 891C346.787 898.856 336.799 906.244 329 904L338.374 893.907L342 881L337 877L332 871L331 887L329 887C326.588 881.298 321.633 879.901 316 882L315 879C306.478 886.518 300.88 895.306 297 906L296 906L292 898L297 894L292 894L293 891C285.6 884.021 298.955 875.827 300 868L307 867L307 865L305 864L304 864L298 869L298 859L290 864C288.138 860.749 286.759 859.876 283 860C280.483 843.573 306.098 852.307 303 839L310 836C307.194 831.437 302.818 831.75 298 833L297 830C292.769 831.4 290.297 832.483 287 829C291.635 827.461 290.761 823.155 292 819L273 824L273 823C281.051 821.333 285.325 817.939 288 810L285 807L268 808L268 807C274.294 806.654 276.14 803.727 278 798L254 792L252 788L252 792L236 788L233 781L236 777L232 776C234.911 773.136 242.981 769.872 237 766L239 755C245.238 756.421 244.274 752.209 242 748L246 748L246.562 734.603L237 733.862L213 728C216.618 721.013 224.161 715.616 232 717L227 712C233.541 705.758 238.585 697.051 231 691C242.197 685.776 251.63 694.815 261 701.011C270.944 707.586 282.209 712.266 294 714C291.572 705.423 284.132 705.969 278.129 701.521C271.731 696.781 266.88 689.914 260 685.559C252.136 680.582 241.05 677.891 235 671C238.774 671.886 241.728 672.501 244 669C252.504 671.538 263.128 674.962 271.999 675.518C277.365 675.854 281.405 671.793 286 676L291 676C291.898 672.161 290.88 670.606 287 672C286.962 661.281 300.033 663.315 302.303 653.995C303.04 650.97 300.981 647.765 300 645L296 646L294 639L312 645L313 644L304 627L295 623L303 620L290 604C290.898 596.696 301.084 604.163 304.917 603.556C306.952 603.233 309.098 600.884 311 600L310 595L324 598L324 596L327 597C329.684 587.709 322.667 589.592 317.453 583.866C316.003 582.274 314.83 578.472 318.184 578.297C321.488 578.124 324.428 580.276 328 580L328 579C313.751 575.321 312.576 559.792 303.914 551.086C299.24 546.388 291.296 554.62 292 543L284 537L290 536C289.7 526.556 281.231 517.479 274 512L274 511L274 497C283.295 503.559 282.261 504.317 293 502L292 499L304 512L300 503L304 505L302 497L306 496L321 507C320.933 511.09 323.187 511.71 327 512L321 505L328 500L328 499L308 496L308 495L315 490L316 490L323 492L323 491C319.69 489.793 315.146 489.66 312.202 487.836C308.298 485.417 311.471 479.513 314.684 477.972C324.249 473.386 341.662 474.082 348 464L341 463L348 460L364 442L356 434L375 428L356.188 417.948L351.424 426.625L329.576 442.744L300.039 452.4L288 452L292 446C290.163 441.44 287.756 439.257 283 438L284 428L291 430L292 424L288 420C282.451 415.587 281.644 406.333 290 405L289 399L284 396L286 394L286 393C284.526 388.824 286.19 386.034 290 384L292 379L292 385L293 385L294 380L293 380L299 372L296 369L296 373L295 373L289 368L290 363L306 358L307 356L307 355C301.427 353.633 299.517 351.064 297 346L304 344L302 337C307.823 335.66 311.351 332.27 314 327L310 328L310 324L324 317L326 309L334 308C333.762 303.689 337.053 298.737 333 296L334 292C351.368 297.349 341.909 269.37 334 265L335 268L334 260L344 264L336 254L337 251L324 240C326.134 236.39 327.66 234.365 332 235C331.959 232.577 330.842 227.618 333.407 226.136C337.196 223.947 347.437 233.4 346 224L348 224L347 221L357 218C366.554 219.318 366.942 208.022 367 201L372 199L372 201L384 200L384 199L383 193L392.999 194.532L402.17 202.107L417 211C417.69 208.301 418.141 205.469 415 205L416 191L417 191L428.174 206.166L433 220L434 217L436 217L452 230L460 232L456 221L457 220L466 230L471 226C470.011 221.097 467.507 218.121 463 216L464 210L472 209L473 209L476 212L476 198L479 200L484 184L485 184L476 157L482 158L484 150L487 149L488 149L490 152L491 152L493 143L504 129L504 136L507 133L512 132L511 122L516 122L519 124L518 117L523 118L529 109L536.564 132.995L555 155L557 155L560 143L564 152L566 152L566 138L566 129L567 129C570.298 142.602 580.996 133.729 582 124L584 126L588 125L586 128L587 132L593 129L595 133L599 132C593.963 122.063 588.437 108.375 592 97C595.72 99.2275 596.614 101.763 597 106L601 106L602 95L605 98C606.194 87.8243 599.812 77.2433 602.47 66C604.604 56.9727 607.035 46.2629 611.273 38.0039C617.76 25.3651 626.452 14.7953 629 0L0 0z"/>
<path style="fill:#040404; stroke:none;" d="M629 0L602.262 66L605 98L602 95L601 106L597 106C596.797 101.638 596.298 98.6864 592 97C587.714 106.363 593.232 124.095 599 132L595 133L593 129L592 132L587 132L586 128L588 125L582 124C580.312 133.314 571.267 141.106 567 129L566 129L566 138L566 152L564 152L560 143L557 155L555 155L536.564 131.999L529 109L523 118L518 117L519 124L516 122L511 122L512 132L504 136L504 129C496.23 130.229 496.573 137.544 493 143L491 152L490 152L488 149L487 149L484 150L482 158L476 157L485 184L484 184L483 182L479 200L476 198L476 212L473 209L472 209L464 210L463 216L471 226L466 230L457 220L456 221L460 232L452 230L436 217L434 217L433 220L428.84 206.166L417 191L416 191L415 205C418.26 205 417.55 208.389 417 211C409.983 200.622 393.877 196.158 383 193L384 199L384 200C378.606 198.681 376.778 197.063 372 201L372 199L367 201C366.849 208.315 366.086 217.79 357 218L347 221L348 224L346 224C345.575 233.126 337.006 222.561 332.643 226.043C330.487 227.764 331.9 232.632 332 235C327.431 233.229 325.648 235.8 324 240L337 251L336 254L344 264L334 260C333.475 263.374 330.579 267.048 335 268L334 265C341.155 270.972 350.768 295.428 334 292L333 296L334 308L326 309L324 317L310 324L310 328L314 327L302 337L304 344L297 346C298.881 351.454 301.164 354.211 307 355L306 358L290 363L289 368L295 373L296 373L296 369L299 372L293 380L294 380L295 378L293 385L292 385L292 379L290 384C283.513 384.701 285.393 391.667 284 396L289 399L290 405C281.749 405.643 281.278 416.472 288 420C288.144 423.039 289.026 423.494 292 424L291 430L284 428L283 438L292 446L288 452C292.903 450.399 296.302 453.484 301.015 452.512C313.864 449.861 326.732 444.801 337.985 438.216C342.593 435.52 348.867 430.891 352.106 426.625C353.689 424.539 353.218 418.891 356.238 418.431C359.699 417.903 371.654 425.82 375 428C367.306 428.402 362.374 429.349 356 434C357.707 438.288 359.213 441.184 364 442C358.2 448.631 348.993 450.366 348 460L341 463L348 464C338.934 473.547 324.377 471.954 313.942 477.819C301.492 484.817 317.542 489.556 323 491L323 492L316 490L315 490L308 495L308 496L328 499L328 500L321 505L327 512C323.408 511.437 321.88 510.578 321 507L306 496L302 497L304 505L300 503L304 512L292 499L293 502L284.17 504.222L274 497L274 511L274 512C280.22 518.563 289.309 526.491 290 536L284 537L292 543C291.576 545.658 290.943 548.613 293.576 550.387C296.795 552.556 301.089 548.918 303.775 551.853C311.698 560.509 313.784 576.936 328 579L328 580C324.478 580.068 322.348 578.416 319.045 577.843C315.101 577.158 314.733 581.429 316.684 583.866C321.643 590.058 328.441 587.461 327 597L324 596L324 598L310 595L311 600C308.746 600.721 306.311 602.862 303.94 602.815C299.851 602.734 290.779 597.357 290 604L303 620L295 623L304 627C304.441 633.846 308.858 638.798 313 644L312 645C306.449 641.669 300.617 638.115 294 639L296 646L300 645C300.729 648.239 302.936 651.71 301.378 654.981C297.454 663.223 285.997 661.364 287 672C290.709 671.017 291.405 672.384 291 676L286 676C282.577 670.852 276.938 675.354 272 675.277C263.234 675.139 252.591 671.051 244 669L235 671C239.426 678.101 251.838 681.032 259 685.559C266.211 690.118 271.262 697.716 278.129 702.326C284.284 706.459 290.379 706.301 294 714C277.708 710.276 266.14 701.452 251.001 694.29C243.185 690.593 239.617 685.721 231 691C237.354 698.088 232.806 704.541 227 712L232 717C224.34 715.198 215.407 720.28 213 728L234 734.273L245.998 734.438L246 748L242 748C243.49 752.141 244.627 755.493 239 755L237 766C241.462 770.733 234.543 772.328 232 776L236 777L233 781L236 788L252 792L252 788L255 789L254 792L278 798C275.646 803.145 273.975 806.332 268 807L268 808L285 807L288 810C284.392 817.344 280.896 820.753 273 823L273 824C281.213 824.164 284.813 823.074 292 819L287 829C289.645 833.476 292.922 832.013 297 830L298 833C302.981 832.345 306.45 832.153 310 836L303 839C304.282 853.056 279.05 842.544 283 860L290 864L298 859L298 869L304 864L305 864L307 865L307 867L300 868C298.449 874.54 284.117 885.752 293 891L292 894L297 894L292 898L296 906L297 906L315 879L316 882C321.866 880.754 325.762 881.789 329 887L331 887L332 871L337 877L342 881L337.799 893.907L329 904C336.987 906.957 347.377 899.263 348 891C353.246 896.785 343.408 908.433 343 916L342 916L340 914L336 921L346 922L347 922L352 919L349 926C359.587 923.661 347.078 936.543 346 942L355 941L342 956C350.707 958.493 361.683 963.558 370 957C370.275 960.902 371.117 962.903 375 964L379 955L381 955L384 958L387 954L388 955L381 963L381 980L394 976L401 969L392 989L389 988L390 993L390 990L391 990C396.932 992.4 402.35 989.971 407 986L402 1010L408 1010L416 1002L416 1008L426 1003L426 1004L424 1010L431 1007L428 1024L435 1027C432.891 1030.1 433.571 1031.63 437 1033C441.015 1028.92 444.192 1031.54 449 1033L451 1027L454 1028L455 1025L469.833 1035L472.167 1043.5L485 1044C486.044 1038.91 485.981 1034.63 491 1032C487.321 1017.79 479.818 1004.88 484 990C491.356 989.641 490.57 980.312 489 975C493.831 978.132 492.986 988.556 494 994L503 985C508.485 989.39 509.56 986.711 511 981C516.412 982.711 517.83 980.192 518 975L527 977L534 992L546 992L546 986L555 1000L557 997L561 1002L558 973L561 975L562 975L563 973L564 973L567 980L571 982C577.179 971.841 574.417 949.918 563 944L568 939L579 955L580 955L583 933L586 934L588 925L588 933C597.757 929.765 591.238 920.671 593 913L596 914L595 877L602 879L601 882L610 882L613 877L610 893L614 889L620 889L620 896L627 890L638 916L639 916L640 911L641 911L645 920L651 936L655 933C657.796 934.457 661.094 937.121 662 933L663 933L671 953L671 954L666 954L661 969C650.312 970.863 637.569 998.383 634 1008L644 1003L629 1024L652 1006L657 998C663.297 1002.26 668.373 993.054 672.104 989.004C680.774 979.594 698.956 971.434 711 968L710 972C722.055 972.39 718.936 982.41 711.816 988.443C706.531 992.921 699.533 995.397 694.055 999.637C688.87 1003.65 685.537 1009.3 680 1013.33C676.715 1015.72 671.609 1016.43 668.969 1019.43C665.993 1022.81 664.326 1028.1 662 1032L668 1033L668 1043L672 1035L673 1035L678 1040C678.178 1034.57 682.039 1030.25 685.539 1037.02C687.473 1040.76 686.001 1045.05 687 1049L700 1042L699 1048L694 1049C696.076 1052.11 697.558 1052.31 701 1051L702 1065L725 1039L709.912 1066.17L712 1080L740 1080C739.793 1074 741.316 1069.78 745 1065L746 1070L748 1070C751.375 1058.33 751.323 1048.24 760 1040L761 1040L765 1050L767 1042L768 1042C769.135 1049.33 774.106 1048.95 780 1051L780 1052L775 1062L781 1054L782 1054L783 1063L785 1063L786 1042L787 1042C788.284 1046.79 789.739 1054.47 795 1056L796 1068C792.205 1068.83 791.304 1070.17 791 1074L797 1074L796 1080C800.896 1079.24 803.242 1076.9 804 1072L805 1072C805.409 1076.49 806.274 1079.22 811 1080L813 1054L814 1054L815 1080L816 1080L822 1073L821 1080C824.692 1079.88 826.777 1079.69 828 1076C832.292 1078.93 838.317 1082.68 842 1077L843 1077C852.245 1091.26 860.908 1067.53 866 1064L865 1076L871 1072L870 1065C876.909 1064.68 872.904 1058.57 874.607 1054.04C875.712 1051.11 878.508 1049.6 881 1048L881 1052L885 1052L898 1025L904 1030L900 1037L902 1035L909 1035L904 1054C925.269 1052.4 904.563 1019.22 926 1026L925 1019L929 1017L932.113 1027.46L943 1040C937.892 1043.31 937.703 1053.91 942 1058C946.083 1041.43 949.373 1029.73 940 1014C945.394 1017.88 949.013 1025.4 956 1021L960 1036L966 1032L967 1038L968 1038L966 1014L969 1017L974 1016L972 1011C978.187 1009.29 979.649 1003.74 978 998C986.895 999.131 985.977 991.253 984 985C993.992 991.297 981.502 1009.61 994 1014L993 1011L998 1011L1004 1032L999 1031L1000 1036L996 1035L994 1044C1000.17 1049.54 1000.1 1067.21 1010 1068L1008 1063C1013.11 1061.61 1016.18 1060.37 1013 1055L1028 1054C1024.53 1047.05 1021.32 1040.82 1024 1033L1025 1033L1028 1040L1025 1040L1029 1044L1028 1040C1039.48 1039.71 1043.16 1054.79 1040 1064L1046 1072L1041 1074L1045 1079C1048.53 1072.2 1050.94 1061.66 1048.35 1054.04C1046.23 1047.81 1040.83 1042.6 1039.06 1036C1037.97 1031.93 1039.91 1027.19 1040 1023L1045.72 1036.91L1055.86 1053.83L1058 1064L1069 1063C1062.15 1064.28 1066.1 1071.36 1072 1070L1083 1067L1084 1078C1088.7 1074.66 1085.62 1066.67 1084 1062L1093 1061L1093 1067L1092 1067L1092 1065L1091 1065C1091 1070.64 1090.09 1075.52 1096 1078L1098 1069L1101 1069L1104 1076L1105 1076L1109 1072C1103.19 1055.04 1081.44 1051.39 1081 1031L1078 1036C1073.03 1030.76 1078.23 1022.64 1082.2 1018.17C1086.37 1013.46 1090.81 1007.12 1096.01 1003.59C1103.34 998.623 1111.37 997.281 1115 988L1117 988C1119.33 994.046 1121.28 1010.12 1129 1010C1128.11 1006.61 1129 1005.66 1132 1004L1132 1006L1134 1006L1129.54 989L1129 969L1135 978C1146.46 979.786 1149.32 987.741 1154 997L1155 997L1154 989L1158 989L1156 1002L1160 1003L1159 1006L1164 1007L1162 1012L1168 1012L1169 1016L1170 1016L1167 1011C1167.95 1002.96 1161.17 984.035 1169.6 977.743C1172.28 975.744 1176.9 979.216 1180.11 978.687C1183.51 978.128 1185.15 974.61 1188 973L1197 1001L1202 999L1212 1008L1211 987C1217.08 990.336 1217.55 997.054 1220.12 1002.91C1225.26 1014.61 1231.96 1022.86 1233 1036L1235 1036L1232 1013L1233 1013L1237 1020L1238 1020L1239 1003C1249.6 1006.78 1249.68 999.986 1247 991L1252 994L1250 977L1255 984L1256 984L1253 973C1257.74 972.937 1260.9 972.853 1264 969L1265 969L1272 981L1273 981L1272 968L1272 967C1263.81 962.43 1258.12 959.409 1257 949L1265 948L1265 947L1259 935C1263.94 938.529 1268.42 943.042 1270.22 949C1271.99 954.872 1269.85 961.671 1277 964L1274 946L1276 946C1276.56 952.821 1278.22 958.592 1286 956C1285.93 951.607 1286.76 949.538 1291 948C1289.71 953.637 1291.87 956.431 1295 961L1297 960L1307 974L1296 920C1308.47 925.078 1315.39 935.733 1316 949L1326 943L1326 944C1318.09 947.583 1322.87 954.636 1324 961L1327 961C1327.36 956.122 1327.44 952.497 1332 950C1334.28 954.532 1340.78 957.934 1342 951L1348 954L1347 949L1348 949C1350.62 953.339 1353.84 956.392 1359 955L1357 951L1360 950L1361 950L1363 952L1364 948L1376 950L1381 951L1383 948L1381 937L1382 937C1383.77 942.933 1388.92 948.561 1394 952L1394 942L1403 946L1401.6 933.985L1395 919L1396 919L1400 928L1401 928L1398 913L1400 915L1401 915L1407 906L1408 909L1414 905L1415 908L1420 903L1425 905L1430 899C1429.5 904.951 1433.49 904.699 1437 908L1438 908L1435 904L1435 903L1438 898C1434.25 895.042 1432.2 892.908 1433 888L1438 890C1438.99 888.549 1459.02 878.191 1449 876L1449 875L1457 876L1456 871L1462 870L1462 859C1468.27 860.165 1471.89 860.013 1477 856L1474 849C1488.98 849.856 1490.16 828.993 1501 824L1496 820L1495 812L1491 813L1492 810L1494 811L1504 806L1500 795L1506 792C1495.86 784.942 1474.78 782.18 1463 785.591C1456.57 787.452 1448.25 787.567 1450 796L1434 780L1434 779L1438 782L1451 780L1446 772L1446 771C1451.24 770.113 1462.2 770.419 1464 765L1467 766L1468 761L1463 764L1457 760C1468 750.344 1497.53 770.296 1506 754L1500 749L1505 748C1501.91 744.012 1499.2 740.596 1494 740L1494 739L1504 735L1499 731C1496.6 730.27 1492.49 727.457 1496.32 725.033C1499.13 723.261 1505.56 724.465 1509 723.584C1521.99 720.257 1530.08 715.684 1544 716C1541.41 712.011 1536.86 711.444 1533.03 708.817C1525.94 703.953 1524.7 699.892 1515 699L1515 697L1524 696C1522.3 686.415 1520.19 677.393 1509 675L1512 670L1517 670L1516 668L1516 667C1518.78 668.742 1522.02 671.557 1523 667C1527.74 669.709 1533.71 670.982 1538 674.313C1544.09 679.047 1545.52 686.414 1550.56 691.698C1553.44 694.724 1558.11 696.073 1561.42 698.721C1565.57 702.028 1573.13 709.815 1577 703C1584.29 701.729 1588.39 689.819 1588.33 683C1588.27 675.796 1582.31 667.339 1579.26 661C1573.85 649.78 1572.4 638.375 1564.47 628C1560.02 622.184 1551.94 619.223 1550 612L1555 612C1551.78 604.984 1544.76 599.015 1537 598L1544 594L1545 583L1550 582L1545 567C1550.8 567 1559.65 565.883 1565 568.024C1568.42 569.392 1573.4 574.836 1577.39 571.806C1581.4 568.765 1577.88 555.181 1577 551L1579 550L1580 552L1581 552L1577.41 538.004L1576.96 527.485L1565.38 519.695L1555 506C1560.85 495.734 1553.4 497.766 1552 489L1572 477L1573 477C1576.2 482.672 1582.56 484.479 1588 481L1590 484C1589.23 479.133 1586.57 477.363 1582 476L1582 475C1589.48 473.585 1604.67 473.243 1603 463C1609.47 461.196 1607.88 451.889 1603 449L1602 446L1602 445L1609 437L1604 436L1613 428L1612 419C1606.68 417.923 1599.95 418.927 1595.06 416.852C1577.8 409.536 1572.14 387.709 1578 371L1572 372L1570 354L1563 356C1565.77 350.991 1567.24 346.705 1566 341L1560 344C1559.48 341.402 1556.98 337.721 1558.16 335.15C1561.2 328.529 1571.33 332.31 1571 323L1593.29 309.594L1607.51 301.19L1620 289L1620 292L1624 292L1623 284L1610 283L1609 274L1612 276L1616 266L1604 264L1606 258L1603 257L1601 261L1600 261L1603 252L1603 251L1580 257L1576 256L1578 252L1580 253L1588 245L1578 244L1579 239L1570 242L1571 237L1532 243.603L1511.91 247.16L1500 242.339L1466 245L1466 248L1464 244L1461 244L1465 233L1448 236L1451 227C1443 227.349 1433.52 228.528 1429 236L1428 236L1428.88 227.647L1412 228C1409.05 219.642 1381.92 226.965 1379 234L1378 227L1378 226L1372 220L1375 218C1374.52 215.091 1374.14 211.285 1377 212L1391 195L1394 196C1396.08 190.459 1401.06 184.993 1399 179C1404.28 175.889 1414.16 163.962 1415.68 158C1418.07 148.64 1415.14 140.52 1419.36 131C1424.68 119.019 1434.74 111.688 1434.55 97.0146C1434.45 89.3475 1422.77 86.1818 1418 91L1417 91L1415 88L1414 88C1401.46 96.7556 1385.45 107.708 1376.35 120C1371.24 126.909 1371.35 138.721 1361 135L1358 152L1352 146L1354 150L1342 145L1337 152L1335 149L1334 152L1331 152L1329 125L1316 127L1311 131L1310 127L1295 137L1293 135L1292 135L1289 150L1279 153C1277.69 155.948 1264.22 158.237 1264 155L1256 156L1253 137L1251 137L1249 142L1239.7 131.757L1226 129C1220.8 137.133 1217.88 135.7 1210 133L1210 138L1202 133L1198 136L1198 153L1194 151C1195.11 157.737 1194.94 167.135 1186 165L1177 174L1176 174C1172.5 168.603 1166.43 172.68 1162 175L1162 176L1166 176L1163 177L1162 180L1155 173L1154 178L1149 163L1144 168L1143 163L1139.39 174.985L1133 186L1132 186C1131.86 180.052 1130.36 176.483 1124 176L1130 157L1129 157C1124.73 166.274 1111.44 171.878 1116 184L1111 186L1116 163C1110.91 164.539 1109.83 169.12 1109 174L1103 173L1115.93 155.754L1114.38 147.961L1119 126L1118 125L1114 126L1112 119L1132 108L1132 84C1124.88 87.9524 1123.79 101.575 1115 99L1115 102L1112 101C1112.91 94.9053 1109.83 91.007 1116 87L1115 92C1120.71 87.9653 1116.49 79.6528 1116.01 74C1114.81 59.9135 1125.14 49.7421 1108 41L1110 44L1110 45L1110 46L1106 48L1103 35L1099 48L1098 48C1098.02 44.3022 1100.38 38.944 1096 38L1098 33L1088 25L1088 30L1092 29L1087 32L1084 28L1085 32C1080.43 31.2551 1078.31 32.9436 1075 36L1075 37L1077 40L1073 44L1072 44L1070 28L1069 28L1065 31L1064 25L1056 32L1054 8C1047.92 9.99768 1047.55 18.463 1048 24L1045 24L1044 15L1038 30L1036 30L1036 0L1030 0L1030 4L1029 4L1028 0L1022 4L1020 4C1017.6 -1.96167 1009.44 0 1004 0C1003.96 13.5751 1002.73 27.8279 996 39L995 39L999 17L989 36L988 36L986 20L984 20L983 31L979 28C977.834 31.507 978.223 33.2882 982 34L982 40L980 40L970 37L955 60L954 60L954 53L946 56L941 40L940 40L936 51L932 47L928 50L924 49L922 53C916.446 50.7494 914.94 46.3772 913 41L902 47L899 44L899 41L904 40L904 39L889 34L890 40L883 27C877.032 31.3207 883.449 43.6812 884 50L883 50L882 47L878 48C877.218 41.9829 875.188 36.9606 869 35L871 42L860.885 32.9159L852 34.9637L844 31L843 40L842 35L837 34L837.813 46.5864L832.843 47.4722L815 34L819 45L812 36L809 36C808.349 42.7587 812.217 49.1212 802 48C796.417 53.9795 781.466 52.0566 780 43C773.979 46.2289 766.414 48.5342 766 56L748 64L747 64L744 62C744.67 57.9864 743.834 56.4131 740 55L739 59L738 59L742 76L741 73C736.803 76.8902 734.716 81.3422 736 87L726 78L721 80C718.407 75.4041 714.809 77.0375 715 82L712 75L707 73L707 88L712 86L713 86L715 93L709 91C703.045 100.973 701.132 88.7394 693 90L694 83C689.916 82.454 692.542 77.1462 692 74L684 76C688.018 62.4065 678.255 50.5558 680.21 37C681.584 27.4688 691.299 17.1298 684 8L687 9L685 0L629 0z"/>
<path style="fill:#fdfdfd; stroke:none;" d="M685 0L687 9L684 8L687 10L680.001 41L684 76L692 74C692.214 77.3742 689.771 82.4599 694 83L693 90C700.381 89.6192 704.437 102.254 709 91L715 93L713 86L712 86L707 88L707 73L712 75L715 82C715.09 77.2971 717.943 76.757 721 80L726 78C726.825 82.811 731.897 84.9081 736 87C735.557 84.1319 737.771 71.7257 742 76C747.022 72.2856 738.488 64.3751 738 59L739 59L740 61L740 55C743.251 56.8625 744.124 58.2413 744 62L747 64L748 64L766 56C766.848 48.4758 774.596 47.2333 780 43C780.696 51.804 797.285 55.4425 802 48C812.409 50.3436 809.429 42.8607 809 36L812 36L819 45L815 34L832.258 47.5811L837.933 47.3279L837 34L842 35L843 40L844 31L852 35.3696L860.885 33.4614L871 42L869 35C874.587 37.8319 876.819 42.0217 878 48L882 47L883 50L884 50C883.678 42.9553 877.788 32.6888 883 27C883.475 32.2778 885.334 37.167 890 40L889 34L904 39L904 40L899 41L899 44L902 47L913 41C914.413 46.6674 916.01 51.3854 922 53L924 49L928 50L932 47L936 51L940 40L941 40L946 56L954 53L954 60L955 60L970 37L980 40L982 40L982 34C978.569 33.062 978.166 31.3091 979 28L983 31L984 20L986 20L988 36L989 36L999 17L995 39L996 39C1004.22 29.7354 1003.99 12.3976 1004 0L685 0M1019 0L1020 4L1022 4L1023 0L1019 0M1028 0L1029 4L1030 4L1030 0L1028 0M1036 0L1036 30L1038 30L1044 15L1045 24L1048 24C1047.8 18.1892 1048.46 11.0232 1054 8L1056 32L1064 25L1065 31L1069 28L1070 28L1072 44L1073 44L1077 40L1075 37L1075 36L1085 32L1084 28L1087 32C1089.99 31.9358 1091.35 32.0541 1092 29L1088 30L1088 25L1098 33L1096 38L1098 48L1099 48L1103 35L1106 48L1110 46L1110 45L1110 44L1108 41C1111.91 43.9614 1118.57 48.7052 1119.03 54C1119.54 59.8793 1115.19 65.1315 1115.62 71C1116.11 77.7336 1120.09 86.5511 1115 92L1116 87C1110.06 89.6245 1109.62 98.3429 1115 102L1115 99C1122.99 102.626 1126.22 88.7144 1132 84L1132 108L1112 119L1114 126L1118 125L1119 126L1113.86 147.961L1115.3 155.754L1103 173L1109 174C1110.27 169.254 1111.43 165.297 1116 163L1111 186L1116 184C1112.42 171.36 1125.74 167.163 1129 157L1130 157L1124 176C1129.77 176.899 1131.69 180.426 1132 186L1133 186L1139.39 175.961L1143 163L1144 168L1149 163L1154 178L1155 173L1162 180L1163 177L1165 179L1166 176L1162 176L1162 175C1167.13 173.137 1171.45 169.415 1176 174L1177 174L1186 165C1195.1 168.592 1195.51 157.576 1194 151L1198 153L1198 136L1202 133L1210 138L1210 133C1217.26 136.656 1222.18 137.821 1226 129L1238.86 131.832L1249 142L1251 137L1253 137L1256 156L1264 155C1264 158.889 1278.3 156.269 1279 153L1289 150L1292 135L1293 135L1295 137L1310 127L1311 131L1316 127L1329 125C1327.07 135.355 1328.16 141.997 1331 152L1334 152L1335 149L1337 152L1342 145C1343.3 149.565 1349.87 148.47 1354 150L1352 146L1358 152L1361 135C1363.48 136.339 1366.6 138.543 1368.86 135.663C1374.12 128.982 1375.94 120.618 1382.17 114.039C1391.41 104.28 1404.34 97.5343 1414 88L1415 88L1417 91L1418 91C1423.08 87.5661 1432.4 88.8732 1434.1 96.0394C1435.12 100.364 1432.24 107.291 1431.22 111.576C1429.35 119.438 1421.81 123.624 1418.96 131C1415.37 140.255 1417.94 148.132 1415.68 157.001C1413.99 163.641 1404.14 174.427 1399 179L1394 196L1391 195L1377 212C1374.09 212.462 1374.66 215.383 1375 218L1372 220L1378 226L1378 227C1376.11 229.953 1376.58 231.566 1379 234C1383.03 227.386 1407.26 220.133 1412 228C1421.24 225.396 1429.44 225.952 1428 236L1429 236C1435.04 229.387 1442.49 227.91 1451 227L1448 236L1465 233L1463 235L1461 244L1464 244L1466 248L1466 245C1475.84 247.262 1488.77 243.112 1499 242.665C1503.99 242.447 1507.11 247.229 1512 247.558C1522.5 248.265 1532.74 243.667 1543 242.208C1552.01 240.927 1563.69 242.625 1571 237L1570 242L1579 239L1578 244L1588 245L1580 253L1578 252L1576 256L1580 257L1603 251L1603 252C1599.54 254.181 1599.18 257.143 1600 261L1601 261L1603 257L1606 258L1604 264L1616 266L1612 276L1609 274L1610 283L1623 284L1624 292L1620 292L1620 289C1612.8 290.138 1611.84 297.13 1606.73 301.19C1597.32 308.658 1582.41 319.689 1571 323C1570.75 331.942 1560.07 328.469 1557.66 335.15C1556.65 337.951 1559.16 341.392 1560 344L1566 341L1563 356L1570 354L1572 372L1578 371C1570.47 387.163 1577.96 409.511 1594.14 416.852C1599.01 419.058 1606.66 418.393 1612 419L1613 428L1604 436L1609 437L1602 445L1602 446L1603 449C1606.95 452.746 1609.04 460.342 1603 463C1603.32 472.999 1589.57 473.114 1582 475L1582 476C1586.09 477.807 1588.74 479.6 1590 484L1588 481C1582.02 484.052 1577.26 481.997 1573 477L1572 477L1552 489C1552.68 497.728 1559.06 495.762 1555 506L1565.38 520.518L1576.36 527.499L1576.92 539L1581 552L1580 552L1579 550L1577 551C1577.44 555.606 1581.1 567.647 1577.36 571.214C1573.93 574.483 1569.03 569.299 1566 567.988C1560.38 565.559 1551.12 567 1545 567L1550 582L1545 583L1544 594C1540.19 593.445 1538.85 594.698 1537 598C1544.61 599.747 1550.77 605.631 1555 612L1550 612C1551.25 619.642 1559.93 623.061 1564.47 629C1571.96 638.809 1573.53 649.271 1578.31 660C1581.3 666.693 1587.24 674.598 1587.92 682C1588.55 688.928 1584.01 700.877 1577 703C1571.71 708.531 1565.22 700.842 1560.58 697.36C1557.38 694.964 1553.21 693.916 1550.56 690.856C1546.06 685.664 1544.64 678.773 1538.98 674.313C1534.67 670.91 1528.08 669.087 1523 667C1520.89 669.817 1518.9 668.227 1516 667L1517 670L1512 670L1509 675L1514.11 679.667L1520.75 682.333L1524 696L1515 697L1515 699C1524.05 700.515 1525.31 703.849 1532.07 708.802C1536.02 711.699 1540.56 712.397 1544 716C1529.55 715.271 1521.45 720.267 1508 723.58C1504.67 724.401 1498.99 722.746 1496.23 724.252C1491.64 726.757 1495.95 730.49 1499 731L1504 735L1494 739L1494 740L1505 748L1500 749L1506 754C1499.31 762.522 1482.94 760.079 1473.04 758.742C1468.2 758.088 1460.13 755.709 1457 760L1463 764L1468 761L1467 766L1464 765C1460.99 770.466 1451.71 769.489 1446 771L1446 772L1451 780L1438 782L1434 779L1434 780L1450 796C1449.1 787.885 1456.72 787.705 1463 785.888C1475.99 782.132 1494.15 786.19 1506 792L1500 795L1504 806L1494 811L1492 810L1491 813L1495 812L1496 820L1501 824C1489.43 827.713 1489 849.083 1474 849L1477 856C1471.32 859.164 1468.52 859.823 1462 859L1462 870L1456 871L1457 876L1449 875L1449 876L1452 876L1438 890L1433 888C1431.68 893.018 1433.56 895.618 1438 898L1435 903L1435 904L1438 908L1437 908L1430 899L1425 905L1420 903C1417.92 904.835 1416.23 907.139 1414 905C1410.99 906.324 1409.83 908.569 1407 906L1401 915L1400 915L1398 913L1401 928L1400 928L1396 919L1395 919L1401.07 934L1403 946L1394 942L1394 952L1382 937L1381 937L1383 948L1381 951L1376 950L1364 948L1363 952L1361 950L1360 950L1357 951L1359 955C1353.83 955.864 1351.26 952.665 1348 949L1347 949L1348 954L1342 951C1340.04 957.536 1334.98 953.936 1332 950C1326.93 951.951 1327.12 956.097 1327 961L1324 961C1323.29 954.1 1318.83 948.769 1326 944L1326 943L1316 949C1315.73 936.144 1309.15 923.577 1296 920L1307 974L1297 960L1295 961L1291 948C1286.21 949.024 1285.38 951.336 1286 956C1278.58 957.407 1276.89 952.579 1276 946L1274 946L1277 964C1266.54 958.338 1272.38 941.406 1259 935L1265 947L1265 948L1257 949C1257.57 959.644 1263.13 963.163 1272 967L1272 968C1269.19 971.916 1271.84 976.666 1273 981L1272 981L1265 969L1264 969L1253 973L1256 984L1255 984L1250 977L1252 994L1247 991C1249.13 999.909 1249.27 1005.44 1239 1003L1238 1020L1237 1020L1233 1013L1232 1013L1235 1036L1233 1036C1232.41 1022.35 1225.27 1014.04 1220.13 1001.96C1217.78 996.445 1217.47 989.135 1211 987L1212 1008L1202 999L1197 1001L1188 973C1184.79 974.099 1183.35 977.791 1179.95 978.312C1176.7 978.81 1172.52 975.198 1169.6 977.084C1161.3 982.453 1166.64 1003.39 1167 1011L1170 1016L1169 1016L1168 1012L1162 1012L1164 1007L1159 1006L1160 1003L1156 1002L1158 989L1154 989L1155 997L1154 997C1150.69 988.132 1146.26 977.474 1135 978C1134.13 973.596 1133.6 970.396 1129 969L1134 1006L1132 1004C1128.56 1005.33 1127.77 1006.5 1129 1010C1120.95 1008.1 1120.41 994.508 1117 988L1115 988C1109.94 996.675 1102.6 998.36 1095.04 1003.59C1089.65 1007.32 1084.85 1014.1 1080.58 1019.09C1077.22 1023.02 1072.44 1032.35 1078 1036L1081 1031C1081.17 1051.17 1100.71 1056.15 1109 1072L1105 1076L1104 1076L1101 1069L1098 1069L1096 1078C1090.71 1074.69 1091 1070.79 1091 1065L1092 1065L1092 1067L1093 1067L1093 1061L1084 1062C1085.14 1067.14 1087.8 1073.76 1084 1078L1083 1067L1072 1070C1067.07 1070.43 1063.06 1064.94 1069 1063C1066.05 1059.7 1061.63 1062.94 1058 1064L1055.97 1053L1045.72 1035.96L1040 1023C1039.82 1026.94 1037.96 1031.12 1038.48 1035C1039.44 1042.04 1045.28 1047.72 1047.84 1054.04C1051.05 1062 1047.74 1071.56 1045 1079L1041 1074L1046 1072L1040 1064C1044.29 1054.93 1039.36 1039.19 1028 1040L1029 1044L1025 1040L1028 1040L1025 1033L1024 1033C1020.61 1040.18 1023.61 1047.95 1028 1054C1021.51 1052.41 1019.3 1052.61 1013 1055C1015.43 1060.41 1012.92 1061.2 1008 1063L1010 1068C999.992 1066.44 1001.36 1048.5 994 1044L996 1035L1000 1036L999 1031L1004 1032L998 1011L993 1011L994 1014C983.343 1009.23 993.479 987.021 984 985C985.573 991.389 986.385 997.864 978 998C979.271 1003.86 977.648 1008.46 972 1011L974 1016L969 1017L966 1014L968 1038L967 1038L966 1032L960 1036C960.05 1029.41 959.843 1026.47 956 1021C948.657 1024.66 946.135 1016.97 940 1014L947.027 1038L942 1058C938.127 1052.81 938.253 1044.64 943 1040L932.772 1027.46L929 1017L925 1019L926 1026C906.372 1016.52 923.135 1051.05 904 1054C907.605 1046.9 910.527 1043.25 909 1035L900 1037L904 1030L898 1025L892.151 1033.29L891.358 1040.83L885 1052L881 1052L881 1048L870 1065L871 1072L865 1076L866 1064C858.956 1067.44 859.497 1073.29 857 1080L863 1077L864 1077L864 1080L1920 1080L1920 0L1036 0M1009 1L1010 2L1009 1z"/>
<path style="fill:#040404; stroke:none;" d="M1051 1L1051 6L1052 6L1051 1z"/>
<path style="fill:#fdfdfd; stroke:none;" d="M1009 4L1008 8L1009 4M1024 4L1023 9L1024 9L1024 4z"/>
<path style="fill:#040404; stroke:none;" d="M1044.67 11.3334L1045.33 11.6666L1044.67 11.3334M1063 18L1062 20L1064 20L1063 18z"/>
<path style="fill:#fdfdfd; stroke:none;" d="M1018 19L1019 20L1018 19z"/>
<path style="fill:#040404; stroke:none;" d="M1078 27L1078 28L1082 28L1078 27M1102 31L1103 32L1102 31z"/>
<path style="fill:#fdfdfd; stroke:none;" d="M1032 34L1032 36L1034 36L1034 34L1032 34z"/>
<path style="fill:#040404; stroke:none;" d="M973 35L974 36L973 35z"/>
<path style="fill:#fdfdfd; stroke:none;" d="M853 36L852 38L854 38L853 36M987 36L984 41L988 42L989 37L987 36M1080 37L1081 38L1080 37M972 39L974 42L972 39M994 39L991 48L992 48L994 39z"/>
<path style="fill:#040404; stroke:none;" d="M771 43L771 44L775 44L771 43M804.667 45.3334L805.333 45.6666L804.667 45.3334M917 47L918 50L919 50L919 47L917 47z"/>
<path style="fill:#fdfdfd; stroke:none;" d="M776 52L779 53L780 49L776 52M989 49L989 52L990 52L989 49M933 52L932 58L935 52L933 52M925 56L924 60L927 56L925 56M1103 58L1104 61L1103 58M930 64L933 61L930 64M683 67L684 68L683 67z"/>
<path style="fill:#040404; stroke:none;" d="M714.667 71.3333L715.333 71.6667L714.667 71.3333M719 71L720 72L719 71M717 73L717 74L720 74L717 73z"/>
<path style="fill:#fdfdfd; stroke:none;" d="M683.667 77.3333L684.333 77.6667L683.667 77.3333z"/>
<path style="fill:#040404; stroke:none;" d="M1138 79L1138 84L1141 84L1141 79L1138 79z"/>
<path style="fill:#fdfdfd; stroke:none;" d="M740 80L739 84L742 84L740 80M714.667 83.3333L715.333 83.6667L714.667 83.3333M714 85L715 86L714 85z"/>
<path style="fill:#040404; stroke:none;" d="M1140 85L1142 88L1140 85M1136.33 86.6667L1136.67 87.3333L1136.33 86.6667z"/>
<path style="fill:#fdfdfd; stroke:none;" d="M737 88L740 90L737 88z"/>
<path style="fill:#040404; stroke:none;" d="M1136.33 89.6667L1136.67 90.3333L1136.33 89.6667z"/>
<path style="fill:#fdfdfd; stroke:none;" d="M721 94L721 96L723 96L723 94L721 94M688 136L689 136L694 133L688 143L691 142L693.938 166.985L704.83 177.096L730 201L734 196L734 195L720 183L716 184C718.656 180.946 724.843 175.618 728 180L729 180C733.886 175.178 737.668 180.319 742 183.533C748.282 188.194 756.349 194.269 763 198L760 194C760.71 190.943 760.669 189.732 758 188L763 173C769.447 174.243 775.296 183.394 780.945 183.248C785.67 183.127 784.715 177.079 785.224 174C786.743 164.804 787.738 160.712 783 152L782 152C781.039 157.29 778.094 161.748 772 160.707C767.545 159.945 764.033 156.346 760 154.518C749.21 149.626 739.217 145.566 730.424 137.128C725.522 132.424 719.834 130.91 721 123C714.188 121.144 701.314 110.379 701 103C691.912 101.284 689.65 128.695 688 136M1116 105L1117 106L1116 105z"/>
<path style="fill:#040404; stroke:none;" d="M506.667 107.333L507.333 107.667L506.667 107.333z"/>
<path style="fill:#fdfdfd; stroke:none;" d="M601 107L602 108L601 107M582 129L582 133L584 133L584 129L582 129M1113 129L1108 136L1113 137L1115 129L1113 129z"/>
<path style="fill:#040404; stroke:none;" d="M1195 135L1196 136L1195 135M486.667 139.333L487.333 139.667L486.667 139.333M693 143L694 144L693 143z"/>
<path style="fill:#fdfdfd; stroke:none;" d="M1099 145C1098.43 147.396 1098.53 147.487 1101 148L1099 145M1093 149L1094 150L1093 149z"/>
<path style="fill:#040404; stroke:none;" d="M475 153L475 156L476 156L475 153z"/>
<path style="fill:#fdfdfd; stroke:none;" d="M484 157L484 160L487 160L487 157L484 157z"/>
<path style="fill:#040404; stroke:none;" d="M477 165L477 168L478 168L477 165M715 172C715.856 175.05 718.108 177.244 719 173L715 172z"/>
<path style="fill:#fdfdfd; stroke:none;" d="M1101 177L1099 180L1100 181L1101 177M785 184L784 194C788.062 191.305 788.41 187.381 785 184M1141 185L1143 188L1141 185z"/>
<path style="fill:#040404; stroke:none;" d="M414.667 187.333L415.333 187.667L414.667 187.333z"/>
<path style="fill:#fdfdfd; stroke:none;" d="M1126 187L1125 197C1129.19 194.801 1130.06 191.457 1131 187L1126 187M1139 191L1140 192L1139 191M481 195L482 196L481 195M480 200L480 204L481 204L480 200M378 203L379 204L378 203M731 203L731 205L733 203L731 203M479 205L479 212L480 212L479 205M368 213L370 216L368 213z"/>
<path style="fill:#040404; stroke:none;" d="M341 219L341 220L344 220L341 219M345 219L346 220L345 219z"/>
<path style="fill:#fdfdfd; stroke:none;" d="M359 220L360 221L359 220M347 229L350 232L347 229M473 230L477 237C477.549 233.185 476.405 231.719 473 230M455 234L458 240L455 234z"/>
<path style="fill:#040404; stroke:none;" d="M322 235L323 238L324 238L324 235L322 235z"/>
<path style="fill:#fdfdfd; stroke:none;" d="M466 237L468 240L466 237M1425 237L1423 240L1425 237M440 239L441 240L440 239z"/>
<path style="fill:#040404; stroke:none;" d="M1591 251L1592 252L1591 251z"/>
<path style="fill:#fdfdfd; stroke:none;" d="M341 255L342 256L341 255M344 256L348 260L344 256z"/>
<path style="fill:#040404; stroke:none;" d="M1613.67 259.333L1614.33 259.667L1613.67 259.333M1608.67 263.333L1609.33 263.667L1608.67 263.333z"/>
<path style="fill:#fdfdfd; stroke:none;" d="M1607 283L1608 284L1607 283z"/>
<path style="fill:#040404; stroke:none;" d="M1616.67 295.333L1617.33 295.667L1616.67 295.333M1599 309L1600 310L1599 309M304.667 321.333L305.333 321.667L304.667 321.333z"/>
<path style="fill:#fdfdfd; stroke:none;" d="M316.333 322.667L316.667 323.333L316.333 322.667z"/>
<path style="fill:#040404; stroke:none;" d="M1572 330L1580 324C1575.72 324.488 1573.72 326.06 1572 330z"/>
<path style="fill:#fdfdfd; stroke:none;" d="M316 329L319 332L318 329L316 329z"/>
<path style="fill:#040404; stroke:none;" d="M1584 331L1585 332L1584 331z"/>
<path style="fill:#fdfdfd; stroke:none;" d="M292 365L293 366L292 365z"/>
<path style="fill:#040404; stroke:none;" d="M288 368L289 369L288 368z"/>
<path style="fill:#fdfdfd; stroke:none;" d="M286 407L288 412L289 412L289 406L286 407z"/>
<path style="fill:#040404; stroke:none;" d="M1594.67 411.333L1595.33 411.667L1594.67 411.333z"/>
<path style="fill:#fdfdfd; stroke:none;" d="M291.333 418.667L291.667 419.333L291.333 418.667M290 421L291 422L290 421M376 427L376 428L381 428L376 427M383.667 427.333L384.333 427.667L383.667 427.333M388 429L392 432L388 429M396.667 435.333L397.333 435.667L396.667 435.333z"/>
<path style="fill:#040404; stroke:none;" d="M281 437L280 440L281 437z"/>
<path style="fill:#fdfdfd; stroke:none;" d="M1602 449L1603 450L1602 449M351 464L356 464L355 460L361 460C355.805 457.509 352.764 458.559 351 464M360.667 461.333L361.333 461.667L360.667 461.333z"/>
<path style="fill:#040404; stroke:none;" d="M307 488L308 489L307 488z"/>
<path style="fill:#fdfdfd; stroke:none;" d="M330 499L330 500L333 500L330 499M308 505L310 508L308 505M276 511L276 512L279 512L276 511z"/>
<path style="fill:#040404; stroke:none;" d="M289 545L288 548L289 545z"/>
<path style="fill:#fdfdfd; stroke:none;" d="M1575 555L1576 556L1575 555M1543 573L1544 574L1543 573z"/>
<path style="fill:#040404; stroke:none;" d="M1540 595L1541 596L1540 595z"/>
<path style="fill:#fdfdfd; stroke:none;" d="M308 605L310 608L308 605M1548.67 611.333L1549.33 611.667L1548.67 611.333M305.667 619.333L306.333 619.667L305.667 619.333M309 619L312 622L312 619L309 619z"/>
<path style="fill:#040404; stroke:none;" d="M294.667 625.333L295.333 625.667L294.667 625.333z"/>
<path style="fill:#fdfdfd; stroke:none;" d="M308 645L311 648L308 645M321 647L322 648L321 647z"/>
<path style="fill:#040404; stroke:none;" d="M282 667L283 668L282 667z"/>
<path style="fill:#fdfdfd; stroke:none;" d="M293 673L295 675L295 673L293 673M1510 675L1511 676L1510 675z"/>
<path style="fill:#040404; stroke:none;" d="M1526 696L1529 693L1526 696z"/>
<path style="fill:#fdfdfd; stroke:none;" d="M1500 695L1500 696L1504 696L1500 695M1511 695L1512 696L1511 695M302 721L309 730L328 732C319.711 723.939 313.369 720.992 302 721M219 723L220 724L219 723M1499 723L1500 724L1499 723M311 731L312 732L311 731M332 731L333 732L332 731M1487 735L1488 736L1487 735M1489 738L1489 740L1491 740L1491 738L1489 738M1442 747L1443 748L1442 747M1499 747L1500 748L1499 747M246 751L247 752L246 751z"/>
<path style="fill:#040404; stroke:none;" d="M236 759L237 760L236 759z"/>
<path style="fill:#fdfdfd; stroke:none;" d="M1417 759L1418 760L1417 759M248 763L249 764L248 763M1419 763L1419 765L1421 763L1419 763M1422 767C1423.57 771.536 1426.44 775.294 1431 777L1422 767M242 769L243 770L242 769M238 775L238 776L242 776L238 775z"/>
<path style="fill:#040404; stroke:none;" d="M230 781L231 785L232 785L230 781M1504 801L1505 802L1504 801M1506.67 803.333L1507.33 803.667L1506.67 803.333z"/>
<path style="fill:#fdfdfd; stroke:none;" d="M310 831L311 832L310 831z"/>
<path style="fill:#040404; stroke:none;" d="M297 833L298 834L297 833z"/>
<path style="fill:#fdfdfd; stroke:none;" d="M1472 855L1473 856L1472 855M340 859L341 860L340 859z"/>
<path style="fill:#040404; stroke:none;" d="M296 868L286 874L286 876L294 876L296 868M1463 869L1464 870L1463 869z"/>
<path style="fill:#fdfdfd; stroke:none;" d="M340 872L342 874L340 872M337 875L338 876L337 875M1449 877L1447 879L1447 880C1449.25 879.527 1450.12 879.14 1449 877z"/>
<path style="fill:#040404; stroke:none;" d="M336 881L336 884L337 884L336 881z"/>
<path style="fill:#fdfdfd; stroke:none;" d="M299 883L300 884L299 883z"/>
<path style="fill:#040404; stroke:none;" d="M291 894L290 896L292 896L291 894z"/>
<path style="fill:#fdfdfd; stroke:none;" d="M1410 901L1408 904L1412 904L1410 901M1432 903L1433 904L1432 903z"/>
<path style="fill:#040404; stroke:none;" d="M1425 907L1426 908L1425 907z"/>
<path style="fill:#fdfdfd; stroke:none;" d="M589 909L588 912L589 909z"/>
<path style="fill:#040404; stroke:none;" d="M1404 915L1405 916L1404 915M1400 917L1401 918L1400 917M335 921L335 924L336 924L335 921z"/>
<path style="fill:#fdfdfd; stroke:none;" d="M794 921L796 925L796 921L794 921M772 932C776.364 932.829 777.861 931.125 779 927L772 932M573 935L574 936L573 935M1273 940L1276 940L1275 938L1273 940z"/>
<path style="fill:#040404; stroke:none;" d="M1403 939L1404 940L1403 939z"/>
<path style="fill:#fdfdfd; stroke:none;" d="M1259 941L1259 944L1260 944L1259 941z"/>
<path style="fill:#040404; stroke:none;" d="M1302.67 941.333L1303.33 941.667L1302.67 941.333z"/>
<path style="fill:#fdfdfd; stroke:none;" d="M1291.67 943.333L1292.33 943.667L1291.67 943.333M367 947L367 952L368 952L367 947M1361 947L1361 950L1362 950L1363 947L1361 947M1168 949L1170 952L1168 949M373 953L372 956L373 953M365 955L365 958L366 958L365 955M1049 955L1049 956L1053 956L1049 955z"/>
<path style="fill:#040404; stroke:none;" d="M1289 956L1288 960L1289 956M1336.33 956.667L1336.67 957.333L1336.33 956.667M1331 957L1329 961L1333 960L1331 957M1337 959L1338 960L1337 959M1343 959L1344 960L1343 959z"/>
<path style="fill:#fdfdfd; stroke:none;" d="M1246 961C1248.81 970.671 1257.43 961.372 1246 961z"/>
<path style="fill:#040404; stroke:none;" d="M1282 962L1284 966L1284 962L1282 962z"/>
<path style="fill:#fdfdfd; stroke:none;" d="M1224 963L1225 964L1224 963z"/>
<path style="fill:#040404; stroke:none;" d="M370.667 965.333L371.333 965.667L370.667 965.333M379 965L380 966L379 965z"/>
<path style="fill:#fdfdfd; stroke:none;" d="M1231 967C1234 973.112 1238.7 971.597 1244 974L1245 969L1243 971L1231 967M1136 967L1137 968L1136 967M1157.67 967.333L1158.33 967.667L1157.67 967.333M1257 967L1258 968L1257 967M384 969L385 970L384 969M1145 969L1144 972L1147 972L1145 969M386.667 971.333L387.333 971.667L386.667 971.333M559 971L560 972L559 971M1173 971L1174 972L1173 971M513 973L513 977L514 977L513 973M1159 973C1159.29 978.213 1159.66 983.049 1165 985L1163 973L1159 973M645 998L646 999C653.299 993.844 663.894 982.88 666 974C657.704 977.951 649.506 990.091 645 998M1246 974L1247 979L1246 974z"/>
<path style="fill:#040404; stroke:none;" d="M560 975L561 976L560 975M1263.67 975.333L1264.33 975.667L1263.67 975.333z"/>
<path style="fill:#fdfdfd; stroke:none;" d="M512 979L513 980L512 979z"/>
<path style="fill:#040404; stroke:none;" d="M522.667 979.333L523.333 979.667L522.667 979.333M1177 980L1174 988L1176 984L1177 984L1182 988L1184 983L1177 980M1260 981L1260 984L1261 984L1260 981z"/>
<path style="fill:#fdfdfd; stroke:none;" d="M545 983L546 984L545 983M1221 983L1225 987L1221 983M1206 985L1204 992L1206 985M978 989L982 996L981 989L978 989z"/>
<path style="fill:#040404; stroke:none;" d="M1169.67 989.333L1170.33 989.667L1169.67 989.333z"/>
<path style="fill:#fdfdfd; stroke:none;" d="M971 991L972 992L971 991M1227.67 991.333L1228.33 991.667L1227.67 991.333z"/>
<path style="fill:#040404; stroke:none;" d="M1213 992L1213 996L1215 996L1215 992L1213 992M498 993L499 994L498 993M493 994L493 1000L494 1000L493 994z"/>
<path style="fill:#fdfdfd; stroke:none;" d="M419 995L420 996L419 995M934 997L934 1000L936 1000L936 997L934 997M1239 999L1239 1002L1240 1002L1241 999L1239 999M975 1003L976 1004L975 1003M1228 1003L1230 1006L1228 1003M926.667 1007.33L927.333 1007.67L926.667 1007.33M1235 1007L1236 1008L1235 1007M954 1013L952 1016L955 1017L954 1013z"/>
<path style="fill:#040404; stroke:none;" d="M975 1017L975 1020L977 1020L977 1017L975 1017z"/>
<path style="fill:#fdfdfd; stroke:none;" d="M951 1018L950 1020L952 1020L951 1018M455 1023L456 1024L455 1023z"/>
<path style="fill:#040404; stroke:none;" d="M1238.67 1023.33L1239.33 1023.67L1238.67 1023.33z"/>
<path style="fill:#fdfdfd; stroke:none;" d="M1033 1027L1037 1031L1038 1027L1033 1027M444 1027L445 1028L444 1027M720.667 1027.33L721.333 1027.67L720.667 1027.33M881 1027L881 1028L884 1028L881 1027M1008.67 1027.33L1009.33 1027.67L1008.67 1027.33M783 1029L782 1032L783 1033L786 1032L785 1029L783 1029M717.667 1031.33L718.333 1031.67L717.667 1031.33M793 1036L796 1034L793 1036M1072 1035L1074 1038L1074 1035L1072 1035M880 1038L879 1043L883 1039L880 1038M709 1039L710 1040L709 1039M760 1040C750.549 1046.6 750.344 1058.67 748 1070L746 1070L745 1065C740.545 1069.07 739.529 1074.15 740 1080L796 1080L797 1074L791 1074L796 1068L795 1056L787 1042L786 1042L785 1063L783 1063L782 1054L781 1054L775 1062L780 1052L780 1051C774.605 1048.29 769.908 1048.77 768 1042L767 1042L765 1050L760 1040M861 1041L865 1044L864 1041L861 1041M1007 1041L1004 1048C1007.46 1046.78 1008.32 1044.4 1007 1041z"/>
<path style="fill:#040404; stroke:none;" d="M469 1043L470 1044L469 1043z"/>
<path style="fill:#fdfdfd; stroke:none;" d="M808 1043L807 1046L808 1043M704 1045L702 1048C704.251 1047.53 705.118 1047.14 704 1045M816 1045L816 1048L817 1048L818 1045L816 1045M1066 1045L1066 1050L1070 1049L1069 1045L1066 1045M813 1054L811 1080L815 1080C815.022 1072.1 818.128 1060.77 813 1054M795 1055L796 1056L795 1055M1076 1061L1075 1065L1078 1064L1076 1061M804 1067L806 1071L804 1067M804 1072L800 1080L807 1080L804 1072M820 1073L816 1080C820.783 1079.62 821.745 1077.61 822 1073L820 1073M798 1075L799 1076L798 1075M828 1076L827 1080L832 1080L828 1076M842 1077L841 1080L844 1080L842 1077z"/>
<path style="fill:#040404; stroke:none;" d="M863 1077L862 1080L863 1077z"/>
</svg>
