<?xml version="1.0" standalone="yes"?>
<svg xmlns="http://www.w3.org/2000/svg" width="1920" height="1080">
<path style="fill:#ffffff; stroke:none;" d="M0 0L0 1080L1920 1080L1920 0L0 0z"/>
<path style="fill:#040404; stroke:none;" d="M1339 197C1335.68 200.794 1328.82 211.134 1324 205L1310 207L1309 212L1308 209L1273 207C1269.32 216.354 1263.19 212.373 1256.22 216.632C1253.66 218.198 1252.12 221.713 1248.98 222.275C1245.72 222.859 1241.24 219.776 1238 219L1236 224L1232 223C1229.91 229.885 1222.74 226.694 1218.76 231.51C1213.79 237.515 1222.84 251.407 1211 255L1213 264C1209.44 264.587 1204.26 263.288 1201.15 265.042C1192.58 269.872 1204.24 284.361 1196 292L1195 286L1192 289L1191 289L1184 285L1180 291L1183 300C1178.44 301.401 1178.55 304.099 1180.88 308C1183.61 312.563 1188.47 315.87 1190.96 320.325C1192.58 323.228 1191.14 326.771 1192.61 329.791C1193.9 332.436 1196.94 333.892 1197.24 337.043C1198.05 345.701 1189.05 350.184 1192 360C1184.86 362.872 1188.69 370.28 1195 371L1194 379L1209.78 387.228L1220 395L1226 428C1232.27 425.943 1238.92 425.552 1244.71 423.667C1247.23 422.847 1249.76 419.761 1252.67 421.217C1257.78 423.777 1255.25 435.649 1251.74 438.477C1249.02 440.666 1245.25 440.038 1242 440L1242 446L1238 447L1238 448C1248.16 458.115 1237.47 469.558 1227 473C1228.39 477.427 1231.65 478.345 1236 479C1232.37 493.195 1239.66 497.915 1244.93 509.996C1246.42 513.434 1245.41 517.552 1247.32 520.755C1249.47 524.361 1254.03 526.546 1255.82 530.375C1257.51 533.958 1256.87 538.25 1258.83 542C1262.77 549.517 1270.78 553.64 1270 563L1287 577.721L1295.98 578.695L1303.13 584.936L1312 584.87L1333 589L1334 592L1336 592L1337 589C1344.69 592.323 1351.09 592.579 1353 583L1356 586L1366 583C1368.44 591.587 1385.88 593.427 1386 583L1390 584L1392 580L1393 580C1395.42 585.708 1400.02 585.176 1401 579L1404 580L1404 577L1405 577L1410 580L1410 569L1433.9 553.902L1443.21 563.061L1455 565L1456 565C1461.69 559.535 1463.32 545.745 1473 546L1471 531L1475 530L1475 514L1478 513C1475.65 503.729 1480.21 498.796 1483.4 490.83C1486.32 483.549 1487.48 471.816 1487.51 464C1487.54 456.525 1479.55 448.976 1478.29 441C1477.19 434.031 1483.07 421.777 1478.01 415.727C1474.67 411.736 1467.39 409.85 1463.06 407.066C1459.4 404.715 1455.42 398.175 1452.73 394.625C1449.5 390.369 1452.34 384.651 1449.57 380.333C1447.41 376.984 1443.21 380.22 1440.26 378.292C1432.18 373.009 1430.18 361.41 1418 365C1413.17 355.066 1420.83 341.179 1412 334L1412 333C1416.11 328.833 1415.31 324.329 1414 319C1424.25 311.976 1409.27 298.392 1402 296L1402 283C1396.23 278.441 1397.41 275.463 1396 269C1385.87 269.046 1391.05 260.75 1385.6 255.403C1381.28 251.161 1375.01 253.675 1370 255L1356.91 242.896L1359.76 229L1356.52 217.871L1360 204L1353 206L1339 197M604 209L605 210L604 209M644 209L640 220L637 219L636 222L629 217L626 221L624 217L623 217L621 219L620 215L616 219C612.304 219.166 611.046 220.477 610 224L609 224L606 218L601 239L599 238L596 250L585.299 244.881L576.697 258.953L566 257L568 268C561.094 262.311 557.609 269.347 550 270L549 275L545 273C543.429 277.269 541.334 277.899 537 277L536 280L528 277C527.26 287.129 517.305 280.551 514 289L506 287L510 299L510 300L488 313L489 320L484 319C484.268 325.68 485.677 336.297 475.999 335.923C472.998 335.807 470.103 333.5 467.17 333.883C464.32 334.255 462.006 336.537 459 337L459 346C450.302 347.814 456.991 352.8 453.458 357.772C449.591 363.216 440.895 364.795 437.319 371.209C433.498 378.062 447.81 390.257 452 396L448 397C448.689 407.152 455.67 411.687 444 417L455 431L449 438L442 435L441 438L439 437C436.807 440.647 433.633 444.461 434.612 449C437.932 464.397 468.202 478.249 448 496C450.299 487.218 443.014 474.243 440 488L426 487L431 495L431 496L424 497L434.37 512.872L428 520L453 534.698L465.54 537.858L476 555L479 553L490.022 560.069L489.393 578L489 596L499 597L493 607L493 608C495.225 611.61 495.603 617.179 499.39 619.605C506.854 624.386 518.716 613.339 515 629C527.752 634.002 542.971 634.189 556 630C558.306 636.576 561.237 637.976 568 638L570 634L568 640L575 636L575 640C580.388 640 580.836 649.979 582 654L588 653C588.032 661.963 592.753 670.244 597 678L613 684L617 671C621.147 671.066 622.545 668.711 624 665C627.423 665.579 628.865 665.397 630 662L635 668C636.956 663.396 642.116 644.111 650.682 649.917C653.827 652.048 653.163 657.222 656 660L661 651C667.532 654.46 670.546 658.054 675 650L676 650L682 655L682 641L687 642L689 637L695 639C696.343 633.796 699.413 622.529 704 620L710 628L722 624L724 611L739 635L748 625L756 628C756.122 622.966 758.979 620.352 759.949 615.83C761.187 610.06 761.744 589.385 773 600L774 600L774 595C780.232 601.699 803.361 624.465 798 601C804.929 600.46 803.476 593.453 806 588L812 590L822 588L823 588C821.45 582.098 813.435 573.812 817.066 567.274C818.867 564.032 822.937 562.376 825 559C817.995 555.692 813.57 554.031 815 545C831.279 552.823 830.108 533.129 834.106 524C836.105 519.434 841.472 511.716 841.724 507C842.089 500.153 839.633 494.155 841 487L837 486C844.504 477.659 852.325 480.022 862 479C862.108 485.043 860.891 491.092 867 494L866 498C880.784 506.242 884.822 523.599 902 527C898.629 538.875 912.443 542.544 919.56 548.549C926.985 554.813 928.033 560.376 937.83 564.455C942.952 566.588 949.276 573.685 954 567L969.004 572.663L976.665 568.661L984.001 570.096L1006 569L1008 565C1018.14 567.896 1022.16 562.689 1023 553L1028 556L1034 553L1035 549C1038.46 553.071 1045.62 558.76 1048 551L1059 553L1059 543L1064 537L1065 537L1068 543C1072.53 541.055 1074.02 538.901 1073 534L1077 530L1083 532C1082.92 528.772 1080.85 524.198 1081.67 521.209C1082.39 518.603 1085.6 517.029 1087.13 514.896C1090.41 510.31 1094.81 495.597 1102.06 495.635C1105.97 495.656 1108.73 500.198 1112 501.821C1116.85 504.229 1123.64 501.758 1127.94 499.027C1135.98 493.907 1129.77 479.301 1141 474L1135.15 460.05L1136.29 443L1131.35 420L1134.4 410.001L1131 379C1122.69 371.98 1116.42 365.96 1111.24 356.17C1108.84 351.635 1112.27 347.228 1107 344C1112.67 325.428 1091.6 331.251 1082.18 325.887C1078.09 323.554 1068.64 316.823 1066.03 312.956C1063.78 309.606 1064.78 304.243 1061.57 301.623C1057.79 298.543 1054.86 304.117 1050.96 302.864C1043.57 300.487 1036.81 293.795 1029 291L1020 296L1019 292C1011.81 293.186 1001.68 290.527 996 296L995 296C990.515 291.979 977.624 298.096 972 300L956 291C953.401 299.372 941.975 294.243 936 293L937 302C926.443 298.466 918.705 307.7 917 317L907 320C903.222 339.968 879.219 323.748 871.137 339.379C869.766 342.03 872.572 344.469 872.731 347.089C873.196 354.773 873.454 371.906 866 375C868.553 384.158 861.065 387.057 869 396C857.444 400.601 870.375 408.248 874 412C858.748 413.261 873.783 425.831 862.905 431.994C859.369 433.997 858.298 429.545 857.889 426.998C856.455 418.074 852.878 409.121 853 400L846 400C849.537 394.562 849.311 383.746 840.853 382.082C838.127 381.545 834.665 383.446 832 384L835.099 369L826.596 356.83L826.095 340.056L816.054 335.643L807.946 328.212L786 328L786 320L782 323C779.728 319.309 777.792 319.081 774 321L778 305L769 308L768 304L761 305L758 289L748 296C746.447 291.367 742.91 292.548 739 294L741 283L735 284L734 277L730 279L730 275L725 279L724 273L719 278L718 278L718 275L702 288L701 283C694.174 283.646 686.199 286.93 681 281L680 281L679 284L672 284C670.14 279.48 668.675 270.551 664 269L660 276L665.738 260L657 239L654 244L652 242L647 243L649 217L645 219L644 209z"/>
<path style="fill:#ffffff; stroke:none;" d="M718 279L719 280L718 279M856 446C855.277 449.336 856.765 453.735 854.968 456.726C852.187 461.356 844.623 462.685 846.029 469.811C847.215 475.829 854.718 472.753 857.351 469.725C863.654 462.476 862.037 452.685 856 446M837 511L838 512L837 511M795 599L796 600L795 599z"/>
<path style="fill:#040404; stroke:none;" d="M851 649L848 651L848 652C850.348 651.706 851.951 651.507 851 649M831 659L826 658L825 658C823.606 662.694 820.674 663.744 816 664C814.193 667.116 812.509 667.184 809 667L801 676L796 674L788 677L784 688L781 686L777 706L774 705C773.34 708.584 773.015 720.511 767 716L765 731L763 729C762.583 734.128 765.756 738.193 767.248 743C769.478 750.19 766.092 762.141 773 767L775 773L778 770L785 792L788 791C789.805 796.19 793.434 799.121 799 799L814 809L817 808L819 813L825 819L841.089 819.949L865 819L865 814C869.78 816.331 872.618 813.836 874 809C881.455 812.46 894.617 819.369 896 806L899 808C901.723 802.39 902.878 787.866 910 787L914 776L916 778L917 778L922 776L930 757L931 757L931 760L932 760C935.038 748.124 934.407 736.271 931.009 725C929.847 721.144 931.969 715.576 927 715L916 687C913.804 685.182 910.934 680.306 910 685C906.332 680.103 903.576 666.207 896 672L897 667L896 667L895 669C892.045 665.743 889.407 664.3 885 665L871 663L870 659L865 661L864 656L863 656L859 656L855 654C850.016 657.007 832.284 650.955 831 659M875 659L876 660L875 659M783 668L783 673L786 672L786 669L783 668z"/>
<path style="fill:#ffffff; stroke:none;" d="M901 674L902 675L901 674z"/>
<path style="fill:#040404; stroke:none;" d="M908 675L909 676L908 675M783.667 679.333L784.333 679.667L783.667 679.333z"/>
<path style="fill:#ffffff; stroke:none;" d="M910.333 686.667L910.667 687.333L910.333 686.667z"/>
<path style="fill:#040404; stroke:none;" d="M918.333 690.667L918.667 691.333L918.333 690.667z"/>
<path style="fill:#ffffff; stroke:none;" d="M928 728L929 729L928 728M931 731L932 732L931 731z"/>
<path style="fill:#040404; stroke:none;" d="M764 753L764 756L766 756L766 753L764 753z"/>
<path style="fill:#ffffff; stroke:none;" d="M915 775L916 776L915 775z"/>
<path style="fill:#040404; stroke:none;" d="M906 792L906 795L907 795L906 792z"/>
<path style="fill:#ffffff; stroke:none;" d="M869 812L870 813L869 812z"/>
</svg>
