<?xml version="1.0" standalone="yes"?>
<svg xmlns="http://www.w3.org/2000/svg" width="1920" height="1080">
<path style="fill:#fcfcfc; stroke:none;" d="M0 0L0 1080L703 1080L703 1079C697.145 1074.1 697.295 1074.04 690 1076L696 1059L671 1068C676.647 1057.47 683.893 1045.72 684 1033C680.862 1035.21 680.855 1038.82 678.853 1041.98C674.449 1048.94 662.26 1063.08 654 1064C657.637 1059.35 658.523 1054.41 651 1056L653 1051C646.808 1052.96 644.589 1052.48 640 1048L640 1047L664.015 1017.33L678.896 1009.86L690.424 998.343L703 989L697 990L713 977L709 973C682.556 971.559 665.048 1000.86 649.741 1017.91C644.971 1023.22 636.74 1026.21 633 1032L632 1029L604 1039C605.444 1031.69 618.672 1019.97 626 1020L638 1010C622.968 1007.55 632.817 1006.31 636 996L632 993L637 993C640.842 985.398 650.568 965.133 660 964C659.66 956.708 664.06 954.548 668 949C661.536 947.318 657.682 942.458 651 946L650 942L647 944C644.272 941.473 643.04 942.006 640 944C638.682 935.477 643.897 937.244 650 936L650 934L645 932L651 928L651 927C644.441 923.568 642.697 918.81 641 912L640 912L640 919L639 919L627 891C622.658 894.719 621.487 900.205 615 900L615 897L618 896L619 891C610.381 890.573 605.952 894.724 603 883L597 879L596 879L594 884L599 890L596 891L596 892L599 892L595 897L595 900L598 901C594.746 907.81 600.191 914.04 592 918C595.177 928.021 589.679 930.234 589 939L588 939L586 936L587 941L584 939L586 968L580 958L576 953C571.747 956.218 576.668 971.492 577.093 976.999C577.291 979.57 579.231 984.213 575.901 985.523C571.02 987.443 565.145 981.17 560 981L559 991C561.859 995.888 563.283 1000.4 562 1006L547 992L547 998L545 998C542.348 993.457 538.953 992.581 534 994L534 990L533 989L530 990L529 984L527 985L525 981L524 981L523 984L521 984L520 979L519 979L516 988L514 988L513 982L512 982L512 988L509 992L503 987L496 995L493 1002L492 975L491 975L488 1001L485 998L484 998C484.349 1013.28 499.09 1026.79 496 1041L493 1040L487 1047L485 1055L484 1055L472 1047L469 1048C467.85 1041.03 469.71 1030.54 460 1038C459.211 1032.29 457.719 1030.08 452 1029L447 1040L446 1040L442 1031L440 1031L430 1039L431 1031C422.182 1023.06 432.274 1018.46 430 1010L422 1016L420 1007L419 1007L414 1012L413 1005L411 1005L402 1018L398 1017C398.144 1010.86 398.626 994.972 404 992L404 991L400 993C394.759 992.398 391.869 995.288 390 1000L385 999L391 983C397.194 982.697 399.634 978.796 398 973L396 973L373 990L376 979L378 980L379 980L379 979L378 971L377 971L377 976L376 976L376 971L375 971L373 976L372 976L376 969L381 958L374.833 965.833L360 976L364 969L361 970L360 967C353.854 969.46 349.197 967.309 347 961L346 961L346 964L333 962C338.159 955.161 347.005 953.629 348 944L343 946L347 931L349 933L350 928L347 929C344.013 917.996 339.006 923.09 332 928L341 913L342 916L343 916L345 901C349.044 899.453 349.769 897.181 350 893L349 893C345.832 901.05 336.651 907.42 328 906L338.802 892.025L336 883L330 893L320 881L319 881L317 884L316 884L314 882C311.345 886.371 306.929 888.295 303.994 892.301C298.946 899.19 300.053 906.807 291 910L294 903L289 902L291 897L285 896C288.168 890.829 290.612 883.078 290 877L287 878L286 873C291.188 872.217 294.513 869.585 297 865C292.485 862.986 281.946 863.543 278.751 859.438C276.921 857.087 279.939 853.812 281.275 852.015C287.269 843.949 293.955 847.937 302 844L307 833L299 833L286 835L289 821C282.729 823.581 278.922 825.647 272 824C274.918 821.9 277.675 821.947 280.683 820.401C284.168 818.611 283.844 812.052 281.217 809.643C276.851 805.64 270.911 811.844 267 805C270.436 805.603 281.587 800.475 275.508 797.714C266.053 793.418 253.168 795.331 243 792.988C238.97 792.059 235.034 789.33 231 788L231 790L223 781L226 780L225 777C229.753 776.156 234.342 773.735 236 769C230.41 767.328 231.487 761.928 230 757C235.267 756.711 238.032 754.956 240 750L234 745L245 744C244.996 739.175 245.237 735.896 241 733C232.008 742.52 213.342 729.624 202 727C204.822 721.401 211.216 720.779 217 720L222 716L221 707L227 708C224.02 702.716 222.257 700.56 229 698C226.626 693.92 223.573 692.689 219 692C219.948 690.186 222.48 681.682 223.447 681.173C226.806 679.402 235.686 682.92 238.985 684.249C252.213 689.576 262.745 702.355 278 704C272.35 689.587 251.909 683.966 239.001 678.54C235.915 677.243 230.754 670.433 228 672L227 672L222 661L235.996 667.746L251 668.089L275 674L274 659L280 661C281.867 667.145 286.014 664.758 291 664L294 661L294 655L299 656L291 636L304 640L305 640C304.093 632.871 302.13 627.908 294 628L290 619L296 617L292 616C292.297 606.629 280.223 606.492 275 601L280 602L280 599L290 600L290 598C294.148 599.935 299.12 602.646 301 597L306 600L304 593C312.859 592.085 317.738 597.667 326 592L326 591C321.93 588.786 314.486 586.951 312.002 582.865C308.36 576.875 315.688 574.409 320 576C317.574 571.679 313.995 569.177 309 570L307 559L300 557L300 553C296.299 555.345 294.578 553.945 291 552L291 554L285 551L284 551L279 554L279 553L289 543C284.128 539.903 279.925 536.993 279 531C285.981 533.459 283.737 525.858 281.471 522.015C276.978 514.396 260.249 505.291 270 496L269 490L284 504L286 504C286.917 499.041 284.753 496.904 282 493L291 496C294.62 490.899 297.513 487.674 304 488C306.055 474.963 327.294 474.684 337 470L332 468C335.63 463.479 337.728 460.197 344 460L361 443L353 436L369 427L369 426C366.07 424.1 360.106 416.988 356.356 418.422C353.664 419.451 353.521 426.096 350.81 428.316C338.06 438.756 326.09 445.089 311 450.725C306.346 452.463 300.077 457.485 295.001 456.781C290.743 456.19 287.752 451.816 284 450L278 452L282 448L280 433L276 438L275 438L275 433L274 433L274 437C270.799 435.194 270.597 433.58 271 430L281 428L275 411C279.715 411.527 282.244 409.947 281 405L287 404L287 403L277 396L277 395L281 394L281 382C285.471 382.175 285.949 379.533 288 376L288 375L282 374L282 361C286.317 361.79 301.925 360.037 293 354L294 343L298 345L298 339L298 335L302 334L301 326L304 332L310 331L309 325L303 326C303.212 319.86 302.472 317.027 308 313L311 322C317.892 317.426 320.896 303.611 330 308L327 300L331 302L332 293L329 294L328 289L334 289C335.746 291.694 340.164 293.324 341.435 289.022C342.463 285.545 340.362 279.403 339.28 276.054C337.411 270.266 331.047 270.712 327.603 266.582C325.1 263.579 325.881 258.525 324 255L333 256C328.25 246.85 321.449 243.38 312 240L312 237C318.736 234.573 318.043 228.304 323.148 224.983C329.473 220.869 340.164 228.55 339 217L335 218L336 213C340.511 215.106 346.198 220.206 350 215L354 218L357 205L361 207L362 207L359 194L366 196L369 190L375 193L387 187L388 187L390 192L396 191C398.229 196.748 402.102 200.248 408 202L415 183L416 186L420 185L422 195L426 195L425 198C428.116 198.337 429.999 199.887 431.167 203C432.307 206.042 431.094 209.927 432.333 213C434.146 217.495 450.053 228.809 451 221L454 223L453 230L454 227L459 230C457.403 224.771 455.657 221.166 450 220L450 219C458.565 216.053 460.085 224.332 466 228L469 224L469 221C461.607 216.72 462.159 212.68 461 205L468 210L469 206L476 210C474.713 204.58 473.92 192.293 479 189L476 182L482 183C485.424 174.839 479.351 172.792 476.084 166C474.125 161.927 472.738 153.669 472 149L479 154L478 146L479 145L488 146L486 137L488 137L489 140C495.134 138.179 496.58 130.696 498 125L503 125L504 128L506 128L507 124L508 124L509 127L510 127L508 115L514 116L515 113L516 116L517 116L518 111C526.28 111.873 525.046 105.098 525 99C539.076 103.286 530.74 127.713 543 131L543 127L544 127C546.911 133.757 549.288 142.538 556 146L557 136L556 136L555 139L553 134L556 135L555 131L561 140L562 140L566 132C565.578 127.898 566.877 125.63 570 123C569.376 129.443 567.339 134.273 574 138L576 130C581.704 128.388 581.312 121.975 583 117L586 122L589 121L588 128L588 132L591 128L594 132L598 132C594.217 122.869 593.74 115.359 591.391 106C589.915 100.119 587.274 95.0439 592 90L592 96C596.361 97.236 598.534 99.4462 599 104C604.849 99.5474 601 83.8192 601 77C601 60.3642 604.093 38.6228 616 26L617 21L618 24L619 24L627 0L0 0z"/>
<path style="fill:#040404; stroke:none;" d="M627 0L619 24L618 24L617 21L616 26C601.209 36.3806 601 66.0049 601 82C601 88.9888 603.898 98.3679 599 104C599.466 99.0529 596.741 96.7383 592 96L592 90C586.763 93.7003 589.606 100.904 591.1 106C593.871 115.457 592.627 123.064 598 132L594 132L591 128L588 132L590 130L590 129L588 128L589 121L586 122L583 117L576 130L574 138C568.119 133.169 569.668 129.789 570 123C566.391 125.058 565.077 127.924 566 132C562.24 132.806 562.364 136.536 562 140L561 140L555 131L556 135L553 134L555 139L556 136L557 136L556 146L544 127L543 127L543 131C531.163 125.261 539.917 101.489 525 99C525.013 105.361 525.862 110.608 518 111L517 116L516 116L515 113L514 116L508 115L510 127L509 127L508 124L507 124L506 128L504 128L503 125L498 125C495.944 130.711 494.763 137.157 489 140L488 137L486 137L488 146L479 145L478 146L479 154L472 149C472.437 153.823 473.877 162.643 476.009 166.83C479.316 173.323 484.41 175.125 482 183L476 182L479 189C473.92 190.089 474.409 205.648 476 210L469 206L468 210L461 205C461.372 212.517 461.054 217.909 469 221L469 224L466 228C461.046 223.362 458.124 214.89 450 219L450 220C455.147 221.788 456.933 225.187 459 230C456.113 228 455.195 226.725 453 230L454 223L451 221L450 224C444.188 220.767 438.114 219.507 433.702 213.544C429.634 208.046 433.999 199.523 425 198L426 195L422 195L420 185L415 183L408 202L396 191L390 192L388 187L387 187C382.715 188.961 376.167 187.403 375 193L369 190L366 196L364 194L359 194L362 207L361 207L357 205L354 218L350 215C345.302 219.115 341.08 214.608 336 213L335 218L339 217C339.634 228.605 328.433 220.098 322.317 224.908C317.898 228.384 317.708 233.911 312 237L312 240C321.168 244.684 326.955 247.349 333 256L324 255C325.506 258.555 325.041 264.547 327.603 267.302C331.376 271.356 337.383 270.927 339.28 277.018C340.694 281.559 342.365 297.437 334 289L328 289L329 294L332 293L331 302L327 300L330 308L328 305C320.12 307.425 316.396 316.372 311 322L308 313C301.59 316.09 302.79 319.944 303 326L309 325L310 331L304 332L301 326L302 334L298 335L298 339L298 345L294 343L293 354C300.064 361.018 286.565 361.539 282 361L282 374L288 375L288 376L281 382L281 394L277 395L277 396L287 403L287 404L281 405C281.314 409.527 279.372 410.878 275 411L281 428L271 430C270.232 433.688 270.199 435.735 274 437L274 433L275 433L275 438L276 438L280 433L282 448L278 452L284 450C287.128 452.246 290.111 456.298 294.004 457.121C299.458 458.275 306.12 453.118 310.985 451.15C326.057 445.053 337.48 438.947 350.811 428.965C353.603 426.875 354.228 419.433 356.812 418.681C359.944 417.769 365.983 424.645 369 426L369 427C362.951 429.015 356.705 430.345 353 436L361 443L344 460C337.521 459.27 335.05 462.929 332 468L337 470C327.293 473 304.96 475.53 304 488C297.509 487.328 293.796 490.191 291 496L282 493L286 504L284 504C281.096 497.771 275.462 492.39 269 490L270 496C258.443 503.283 276.862 515.835 280.868 522.015C283.142 525.523 285.962 533.036 279 531C279.481 537.377 283.384 540.53 289 543L279 553L279 554L284 551L285 551L291 554L291 552C294.498 554.737 296.424 556.262 300 553L300 557L307 559L309 570C313.886 569.829 316.961 572.353 320 576C314.925 573.379 307.884 577.333 311.871 583.517C314.299 587.282 321.957 589.461 326 591L326 592L304 593L306 600L301 597C298.241 601.876 294.434 599.472 290 598L290 600L280 599L280 602L275 601C279.109 607.527 291.697 606.55 292 616L296 617L290 619L294 628C301.706 628.362 303.722 633.245 305 640L304 640C301.531 636.216 295.314 635.778 291 636L299 656L294 655L294 661L291 664C285.995 663.745 282.815 666.51 280 661L274 659L275 674L237 667.232L222 661L227 672L228 672L229 670C239.706 686.761 266.964 685.131 278 704L237.996 683.595L222.657 681.029L219 692L229 698C221.996 699.856 223.072 703.124 227 708L221 707L222 716C218.749 716.134 217.948 716.898 217 720C211.364 720.46 203.845 720.917 202 727C211.607 730.126 234.361 743.322 241 733C244.584 736.451 244.983 739.145 245 744L234 745L240 750C237.468 754.275 235.009 756.441 230 757C230.948 762.37 229.548 767.967 236 769L225 777L226 780L223 781L231 790L231 788C245.013 795.427 261.97 791.644 275.422 798.193C280.836 800.829 269.486 805.236 267 805C269.581 812.53 275.819 806.501 280.511 809.762C283.638 811.936 283.924 817.81 280.683 819.974C277.685 821.976 274.724 821.218 272 824C278.563 825.94 283.284 824.39 289 821L286 835L299 833L307 833C303.793 836.777 300.905 838.673 302 844C296.961 845.847 291.661 844.216 287.04 845.908C284.914 846.687 283.396 848.39 282.005 850.094C271.432 863.043 287.529 862.268 297 865L286 873L287 878L290 877L285 896L291 897L289 902L294 903L291 910C300.72 907.642 299.127 899.031 304.649 892.301C307.862 888.385 311.975 886.896 314 882L316 884L317 884L319 881L320 881L330 893L336 883L338.164 893.249L328 906C336.61 908.221 346.773 901.507 349 893L350 893L345 901L343 916L342 916L341 913C336.84 917.714 332.495 921.366 332 928L342.853 922.346L350 928C349.741 930.464 349.538 932.777 347 931L343 946L348 944L333 962C336.782 963.478 344.968 967.466 346 961L347 961C348.394 967.748 354.003 970.147 360 967L361 970L364 969L360 976C369.801 972.733 377.076 962.905 381 958L376 969C372.482 969.435 372.401 972.736 372 976L373 976L375 971L376 971L376 976L377 976L377 971L378 971L379 979L379 980L376 979L373 990C379.445 987.746 392.227 978.923 396 973L398 973C398.961 978.674 396.944 982.19 391 983L385 999L390 1000C392.5 995.778 394.968 993.297 400 993L404 991L404 992C398.401 993.859 398.051 1011.29 398 1017L402 1018L411 1005L413 1005L414 1012L419 1007L420 1007L422 1016L430 1010C431.263 1017.57 421.085 1025.09 431 1031L430 1039L440 1031L442 1031L446 1040L447 1040L452 1029C457.403 1030.65 458.79 1032.39 460 1038C469.896 1032.87 467.307 1040.63 469 1048L472 1047L484 1055L485 1055L487 1047C491.342 1046.28 491.906 1044 493 1040L496 1041C500.16 1027.73 484.881 1012.44 484 998L485 998L488 1001L491 975L492 975C490.104 981.897 490.744 995.169 493 1002L496 995L499 996L503 987L509 992L512 988L512 982L513 982L514 988L516 988L519 979L520 979L521 984L523 984L524 981L525 981L527 985L529 984L530 990L533 989L534 990L534 994C539.048 992.92 541.671 994.118 545 998L547 998L547 992C552.35 997.481 554.301 1003.9 562 1006C563.547 1000.71 562.543 995.268 559 991L560 981C565.426 981.414 569.487 986.973 575.057 986.058C579.698 985.296 577.537 980.079 577.184 977C576.546 971.451 572.263 956.74 576 953L580 958L586 968L584 939L587 941L586 936L588 939L589 939C590.36 930.4 596.152 927.84 592 918C601.155 915.665 595.62 907.736 598 901L595 900L595 897C597.894 896.064 600.375 892.53 596 892L596 891L599 890L594 884L596 879L597 879L603 883C604.807 895.615 610.516 891.053 619 891L618 896L615 897L615 900C621.638 901.09 623.294 895.505 627 891L639 919L640 919L640 912L641 912C642.31 918.93 643.715 924.502 651 927L651 928L645 932L650 934L650 936C643.421 936.356 638.075 935.567 640 944L647 944L650 942L651 946L668 949C662.901 954.061 659.138 956.499 660 964C650.444 964.429 639.976 985.033 637 993L632 993L636 996C631.162 1005.51 622.741 1008.84 638 1010C632.649 1013.67 628.729 1013.29 626 1020C618.564 1019 604.835 1031.47 604 1039C611.778 1038.87 627.464 1026.42 633 1032C637.856 1026.87 644.813 1024.14 649.741 1018.83C667.381 999.81 680.82 976.204 709 973L713 977L697 990L703 989L690.424 997.764L677.957 1009.86L664.015 1016.53L640 1047L640 1048C643.856 1053.18 647.124 1053.48 653 1051L651 1056C658.182 1055.19 656.559 1059.32 654 1064C668.797 1063.19 675.538 1041.99 684 1033L671 1068L696 1059C691.927 1064.85 690.006 1068.8 690 1076L697.486 1074.61L705.018 1079.77L733 1080L754 1076L753.603 1052.09L755 1042L763 1047L763 1051L769 1048L773 1054L777 1050L778 1051C774.915 1056.45 764.557 1071.17 772 1076L776 1067L774 1076L785 1065L792 1080L813 1080L814 1070L815 1070L815 1080L821 1077L820 1080C823.511 1080 827.146 1080.99 828 1077C836.204 1082.54 849.41 1080 859 1080L863 1073L862 1080L872 1080L868 1076L869 1073L872 1074C873.371 1070.47 876.357 1052.48 880 1056C884.749 1053.26 898.53 1040.94 891 1036L891 1033L898 1026L899 1026L901 1041L904 1037C914.54 1040.2 902.831 1049.83 902 1056L910 1056C911.887 1052.34 915.186 1049.2 915.736 1045C916.622 1038.24 912.945 1030.4 918 1025L918 1029C924.381 1028.36 930.667 1025.77 926 1019L936 1037L937 1033L934 1032L935 1029C936.82 1031.29 939.977 1034.52 940.303 1037.58C940.848 1042.69 932.401 1061.88 945 1060L947.895 1038L944 1019C949.046 1021.96 953.239 1026.45 955 1032L959 1027L960 1038L964 1037L965 1037L966 1043L967 1043C970.277 1036.19 967.218 1020.94 974 1017L976 1028C980.977 1021.66 979.374 1017.35 975 1011L984 999C986.72 1008.01 983.118 1014.56 995 1018L997 1013L998 1013L997 1022L1001 1023C998.046 1029.72 991.012 1037.48 989.347 1044.06C988.539 1047.26 989.745 1051.54 993 1052L992 1056L1001 1064L998 1072L1004 1069C1009.6 1077.59 1016.18 1063.29 1018 1058L1014 1056L1014 1055L1021 1060C1031.45 1058.7 1028.94 1053.35 1024 1046L1031 1048L1031 1041C1041.83 1045.92 1038.11 1053.66 1039.84 1063C1040.43 1066.15 1042.97 1068.93 1044 1072L1035 1074C1036.88 1079.36 1046.67 1083.78 1048.88 1076.23C1052.38 1064.27 1048.69 1054.35 1044 1044L1049 1043C1051.47 1049.54 1055.52 1053.02 1052 1060C1056.38 1063.91 1057.42 1068.45 1064 1066L1068 1074L1072 1073L1075 1077L1081 1068L1078 1075L1079 1080C1091.64 1079.96 1087.58 1070.06 1086 1061C1089.91 1066.28 1087.8 1072.87 1091.03 1077.68C1093.66 1081.61 1097.26 1078.92 1097.83 1075.41C1098.13 1073.56 1098.51 1071.82 1099 1070L1100 1070C1102.62 1076.73 1104.51 1079.8 1112 1080C1111.03 1076.01 1112.17 1069.56 1109.39 1066.5C1102.31 1058.69 1090.96 1053.91 1085.99 1044C1083.29 1038.6 1084.52 1033.28 1083.05 1027.83C1081.31 1021.4 1089.4 1008.13 1097 1009L1098 1009L1101 1006L1105 1009L1112 995L1116 996L1117 991L1118 991C1121.01 998.086 1121.59 1009.49 1130 1012L1129 1005L1131 1005L1134 1009C1136.72 1004.7 1136.56 990.581 1131 989L1131 969L1132 969C1137.84 983.693 1154.06 984.899 1153 1004L1159 1008L1163 1007L1163 1008L1160 1009L1168 1024C1179.46 1017.8 1166.32 1003.1 1168 993L1173 996L1173 989C1177.57 989.873 1179.36 991.292 1180 996C1186.57 994.05 1187.41 984.622 1183 980L1183 979L1186 975L1187 975L1200 1008L1202 1008L1203 1005L1208 1007L1207 1010L1217 1016L1214 1013L1213.42 998.06L1218.78 1003.96L1228 1024L1230 1023L1231 1023C1229.4 1033.39 1231.75 1044.49 1236 1054L1237 1054L1236 1025L1243 1042C1249.72 1037.1 1242.29 1021.66 1241 1015L1245 1016L1247 1025L1248 1025L1252 1007L1253 1007L1260 1016L1263.93 1003L1261 989L1262 989C1266.66 1001.26 1274.69 992.241 1267 988L1267 981L1282 1003C1279.71 993.527 1272.12 979.659 1272.3 970.306C1272.37 966.881 1275.45 966.753 1278 967C1273.71 976.359 1285.87 980.478 1293 978L1291 982L1294 983L1297 980L1297 970L1299 970L1300 971L1303 986L1310 983C1311.26 987.271 1313.84 988.759 1318 990C1318.46 984.014 1305.99 976.277 1312 972L1312 971C1304.33 964.303 1311.47 953.48 1302 948L1306 938L1301 940C1300.43 933.961 1302.11 932.034 1308 931L1313 945L1311 944L1311 945L1314 956C1323.01 953.523 1319.36 962.527 1324.43 965.971C1329.88 969.67 1334.46 963.777 1335 959L1336 959C1336 964.905 1334.64 974.771 1342 976L1340 965L1346 970L1348 962L1354 966L1354 962L1360 964L1360 960L1367 955C1367.84 958.857 1370.81 956.813 1374 958.111C1380.44 960.736 1388.39 965.084 1390 955L1401 957L1402 956L1400 951C1405.48 951.126 1408.32 951.636 1412 947L1406 944L1406 943L1400 921L1411 930L1410 922L1412 926L1414 923L1407 918C1407.67 911.997 1413.99 914.159 1418 911L1417 924L1422 918C1420.18 916.159 1419.93 915.608 1422 914L1422 917L1423 917L1430 916L1430 909L1432 909L1440 920L1445 920L1440 905L1443 906L1445 905L1444 897L1440 898L1438 891L1445 890L1446 894L1458 891C1458.48 879.7 1462.43 877.908 1468.73 869.562C1470.48 867.245 1469.53 863.28 1472.25 861.862C1475.11 860.371 1479 861.621 1482 862C1484.39 851.049 1505.27 846.501 1497 835L1505 835L1507 831C1510.72 831.584 1512.34 830.342 1514 827L1511 829L1506 816L1506 815L1512 812L1510 807L1515 802L1512 801L1513 797L1516 796L1516 795C1512.74 792.383 1510.75 788.136 1506.98 786.179C1502.51 783.86 1496.81 785.459 1492 784.791C1475.55 782.505 1458.59 783.214 1444 792L1439 782L1440 781C1444.52 782.075 1451.1 783.239 1451 777L1454 776L1450 772L1450 771L1477 764L1476 762L1476 761L1479 764L1480 759C1493.57 762.58 1508.98 765.87 1514 750L1502 744L1503 740L1508 739L1502 732L1502 729L1519.12 724.878L1530 717.478L1550 716L1543 707L1537 709C1535.03 702.002 1529.75 700.061 1523 700L1523 699C1538.51 697.273 1524.22 689.896 1524 681L1515 680L1518 671L1519 671L1523 674C1526.46 671.484 1529.8 672.41 1532 676C1541.52 676.905 1545.85 689.388 1551.31 695.995C1554.51 699.862 1558.8 702.276 1562 706C1567.65 706.291 1570.78 711.622 1576 712.123C1584.07 712.899 1587.23 705.279 1592 701L1589 692L1593 693C1595.83 683.318 1587.85 676.081 1583.81 668C1574.72 649.815 1573.01 626.166 1552 616L1552 614L1556 614C1555.71 605.163 1546.52 602.627 1541 597L1550 597L1546 583L1554 587L1553 575L1548 574L1564 570L1565 570C1569.78 574.359 1576.51 577.663 1583 578L1584 564L1585 541L1580 534C1591.01 526.612 1569.26 522.812 1566.6 519.7C1562.23 514.597 1562.72 507.485 1556 504L1556 503L1562 498L1560 492C1556.21 493.274 1553.1 493.825 1553 489L1560 490L1560 489L1557 487L1574 479C1577.53 485.794 1585.16 486.424 1592 485L1593 488L1594 488L1596 485L1595 481L1594 481L1594 485L1593 485L1589 477L1609.67 467.945L1616 456C1610.78 449.902 1604.82 440.01 1616 436L1611 431C1621.14 428.885 1616.33 420.009 1617 413L1600 417L1598 413L1602 412C1597.38 404.614 1593.78 410.728 1587.83 407.897C1581.75 405.005 1583.22 401.489 1581.11 396.464C1579.53 392.714 1576.59 391.605 1580 388L1578 373L1582 374L1582 369C1573.32 368.826 1576.29 355.849 1571 350L1570 350L1566 352L1572 339L1569 339L1568 335L1586 332C1588.65 326.894 1593.74 325.525 1599 324L1599 317L1602 319L1626.81 297.276L1638 287L1638 292L1639 292C1640.2 285.54 1640.22 280.849 1637 275L1636 275L1636 280C1633.63 275.6 1636.46 269.814 1631 268C1633.71 263.57 1632.35 259.794 1628 257C1625.89 259.485 1623.79 258.223 1621 257L1625 257L1628 248L1628 246L1627 245L1600 246C1600.98 242.192 1608.14 229.999 1598 236L1597 232L1594 232L1593 236L1590 236L1591 229L1541 238.765L1521 239L1517 243C1509.71 232.251 1482.9 238.283 1474 244L1475 241L1465 240L1469 231L1453 234C1452.43 230.56 1453.39 224.349 1456 225C1451.48 219.828 1439.09 226.73 1434 229L1436 223L1422.04 227.155L1412 223.612L1389 228L1388 225C1383.45 227.45 1380.41 228.724 1379 234L1376 229L1379 225L1373 217L1374 217L1378 219L1376 214L1376 213L1391 195L1394 196L1404 182L1403 175C1420.65 163.551 1414.68 147.242 1421.65 131C1425.19 122.733 1434.24 117.162 1436.36 108C1437.32 103.829 1439.64 96.1789 1439.02 92.0394C1437.6 82.4542 1425.18 82.3874 1419 86L1419 83C1410.6 85.4266 1407.16 91.7387 1400.91 97.196C1385.91 110.286 1374.92 117.718 1367 137L1366 137L1366 133L1362 132L1357 152L1356 152C1355.71 139.859 1349.62 146.252 1342 148L1344 141L1338 147L1337 147L1335 143L1336 146L1333 147L1330 138L1331 119C1325.37 121.905 1323.57 123.237 1317 122L1302 130L1301 127L1298 132L1294 131L1293 134L1291 130L1290 130C1289.74 134.03 1289.36 141.454 1286.64 144.531C1281.78 150.037 1277.2 147.723 1276 156C1273.05 150.996 1270.76 150.052 1265 150L1268 139C1263.41 138.604 1262.11 140.785 1261 145C1257.17 142.763 1256.24 140.355 1256 136L1252 133L1247 138C1239.83 131.25 1239.15 126.002 1228.04 125.483C1220.34 125.124 1217.26 137.981 1210 129L1191 134L1195 147L1192 145C1189.22 154.186 1197.15 165.434 1182 161C1180.11 170.212 1172.32 167.61 1165 168L1157 176C1158.85 170.069 1160 162.032 1152 168L1156 154L1146 157L1146 162L1141 160L1135 181L1126 169C1134.73 167.137 1133.85 154.286 1134 147L1118 168L1121 160L1120 159L1115 160C1118.39 155.678 1121.46 151.682 1120 146L1119 146L1118 152C1112.53 145.333 1122.05 124.075 1124 116C1128.34 115.83 1130.79 113.066 1132 109L1136 111L1140 102C1137.3 98.4738 1140.56 96.5511 1144 96L1144 95L1140 94L1145 85L1142 84C1143.78 77.2802 1138.41 75.3196 1136 82L1122 84L1126 75L1120 78C1119.5 74.3166 1118.2 70.6983 1119.18 67C1120.6 61.6453 1125.35 56.6481 1124.39 51C1123.83 47.7228 1125.62 38.275 1121 40L1115 30L1112 37L1113 25L1112 25L1108 28L1107 28L1109 24L1109 16L1105 18L1106 22L1102 23L1100 19L1100 18L1104 13L1100 18L1099 18L1097 12L1091 17L1083 19L1082 19L1079 17L1076 22L1072 13L1066 27L1066 13L1058 19L1054 0L1048 0L1048 4L1047 4L1044 0L1042 10L1039 0L1002 0L1001 20L1000 20L997 6L996 6C993.178 15.6147 996.001 24.6771 989 33L989 0L985 3C986.268 7.62695 982.992 21.412 979 24L982 7C970.509 8.89209 975.593 21.0159 973.276 28.9961C971.661 34.5593 964.818 40.0873 960 43L958 49C957.397 45.1261 955.79 42.3048 952 41L954 48L950 51C946.247 46.2042 944.918 43.1038 946 37L939 36L939 35L945 32L945 31C937.651 30.2727 938.508 40.4343 933 44L932 37L927 46L926 46L925 37L924 37L921 47C918.054 42.645 916.152 29.4912 909 40L908 40L908 33L901.385 35.3032L889 32L884 24C890.02 23.9283 892.618 22.0002 894 16L887 14L890 17L891 20C887.252 19.6815 885.561 18.4138 884 15C876.132 17.6968 879.487 31.489 880 38C873.311 35.0155 869.426 31.2024 868 24L859 23C856.911 25.6432 854.876 24.1986 852 23L847 29L843 26L845 23C840.72 22.2108 838.79 24.2413 837 28L835 28L834 25C826.68 29.0238 833.369 37.5286 833 44L836 48L831 46L810 19L806 20L807 28C792.672 21.9086 802.765 32.7994 806 40L797 35L795 39L793 36L786 38L788 48L786 48C784.468 42.0952 783.437 34.5614 778 31L770 40C768.35 32.3416 759.856 47.8647 759 51L756 50L756 54L749 47L748 47L745 53L736 44C727.872 47.7527 731.551 50.5836 730 58L728 55L726 55L725 60L721 57L721 61L724 60L728 74C723.794 69.8961 720.597 62.9509 714 66C713.104 60.4643 707.787 54.5273 702 55L702 56L707 61L701 61L702 66L709 62L707 70L708 67C701.036 69.3114 705.63 77.5786 705 83L699 69L699 72L696 72L696 65L694 65L689 69L684.225 40L689.192 17L691 0L627 0z"/>
<path style="fill:#fcfcfc; stroke:none;" d="M689 69L694 65L696 65L696 72L699 69L705 83C706.372 77.0856 701.278 70.7064 708 67L707 70C711.258 69.0876 709.365 65.4784 709 62L702 66L701 61L707 61L702 56L702 55C707.514 54.8285 712.533 60.9913 714 66C720.919 64.1147 723.047 70.7432 728 74L724 60L721 61L721 57L725 60L726 55L728 55L730 58C732.015 50.922 728.863 48.4139 736 44L745 53L748 47L749 47L756 54L756 50L759 51C760.21 47.7675 766.38 35.381 770 40C774.297 38.078 777.229 35.7809 778 31L786 48L788 48L786 38L793 36L795 39L797 35L799 37L806 40C803.301 31.3855 793.358 24.3805 807 28L806 20L810 19L831 46L836 48L833 44C833.694 37.1318 828.009 30.4167 834 25L835 28L837 28C839.19 24.9583 841.052 22.6764 845 23L843 26L847 29L852 23C854.768 24.8263 858.049 27.4169 859 23C862.465 25.2513 864.235 25.808 868 24C868.962 31.3824 872.756 35.808 880 38C879.698 30.8582 876.719 19.147 884 15C885.078 18.8517 886.998 20.4285 891 20L890 17L887 14L894 16C892.033 21.3434 889.802 23.8101 884 24L889 32L908 33L908 40L909 40C917.804 31.2004 916.591 42.6327 921 47L924 37L925 37L926 46L927 46L932 37L933 44L945 31L945 32L939 35L939 36L946 37C944.595 42.9708 945.5 46.7695 950 51L954 48L952 41L958 49L960 43C965.302 40.8108 972.238 34.7799 973.517 28.9961C975.381 20.5634 971.104 10.2252 982 7L979 24C982.869 23.171 986.728 6.80786 985 3L987 0L769 0L712 0L691.603 1.02771L688.985 17L684.094 39L689 69M989 0L990.072 17.2855L989 33C996.914 26.3724 993.928 15.0142 996 6L997 6L1000 20L1001 20L1002 0L989 0M1039 0L1042 10L1044 0L1039 0M1046 0L1047 4L1048 4L1048 0L1046 0M1054 0L1058 19L1066 13L1066 27L1072 13L1076 22L1079 17L1082 19L1083 19L1091 17L1097 12L1099 18L1100 18L1104 13L1100 18L1100 19L1102 23L1106 22L1105 18L1109 16L1109 24L1107 28L1108 28L1112 25L1113 25L1112 37L1115 30L1116 33C1120.1 33.4746 1120.17 36.3698 1121 40L1123 38L1120 78L1126 75L1122 84L1136 82C1139.14 76.2576 1143.12 77.4624 1142 84L1145 85L1140 94L1144 95L1144 96C1138.05 96 1135.58 101.116 1140 102L1136 111L1132 109L1124 116C1121.36 124.617 1119.56 133.343 1117 142C1115.89 145.761 1114.48 149.433 1118 152L1119 146L1120 146L1115 160L1120 159L1121 160L1118 168L1134 147C1133.67 154.599 1134.36 165.996 1126 169L1135 181C1141.11 175.418 1139.24 167.387 1141 160L1146 162L1146 157L1156 154L1152 168C1160.19 163.768 1158.35 169.432 1157 176C1161.65 175.218 1163.56 172.325 1165 168C1172.24 168.969 1180.97 170.064 1182 161C1197.21 167.304 1190.36 154.026 1192 145L1195 147L1191 134L1210 129C1215.2 138.281 1225.82 123.848 1235 126.433C1241.08 128.146 1242.12 134.873 1247 138L1252 133L1256 136C1256.11 140.485 1256.56 143.302 1261 145C1262.51 141.225 1263.85 139.405 1268 139L1265 150C1270.64 150.136 1272.56 151.8 1276 156L1287.38 144.532L1290 130L1291 130L1293 134L1294 131L1298 132L1301 127L1302 130L1317 122C1323.25 123.535 1325.95 122.839 1331 119L1330 138L1333 147L1336 146L1335 144L1335 143L1337 147L1338 147L1344 141L1342 148C1349.25 147.05 1355.37 140.531 1356 152L1357 152L1362 132L1366 133L1366 137L1367 137L1382 112.325L1400.91 97.9993L1419 83L1419 86L1420 86C1426.1 82.4537 1436.39 83.3319 1438.67 91.7538C1439.65 95.3816 1436.96 104.279 1435.96 108C1433.62 116.677 1425.24 122.142 1421.58 129.996C1417.52 138.727 1420.16 149.242 1416.71 158C1414.43 163.764 1407.45 170.671 1403 175L1404 182C1398.55 183.798 1395.64 190.819 1394 196L1391 195L1376 213L1376 214L1378 219L1374 217L1373 217L1376 220L1379 225L1376 229L1379 234L1388 225L1389 228L1411 223.843L1422.04 227.558L1436 223L1434 229C1440.2 227.091 1450.07 220.585 1456 225C1452.47 225.552 1452.35 230.969 1453 234L1469 231L1465 240L1475 241L1474 244C1485.23 238.991 1506.83 232.801 1517 243L1521 239L1540 239.039L1591 229L1590 236L1593 236L1594 232L1597 232L1598 236C1607.69 231.645 1600.63 241.704 1600 246L1628 246L1628 248L1625 257L1621 257C1623.52 258.933 1627.11 261.074 1628 257C1631.54 260.436 1633.33 263.392 1631 268L1636 280L1636 275L1637 275L1639 292L1638 292L1638 287L1625.91 297.276L1602 319L1599 317L1599 324C1593.67 325.114 1587.78 326.316 1586 332L1568 335L1569 339L1572 339L1566 352L1570 350L1571 350C1575.04 356.074 1573.82 369.916 1582 369L1582 374L1578 373L1580 388C1575.21 391.103 1579.64 393.463 1580.98 397.3C1581.84 399.773 1580.92 402.278 1582.62 404.532C1588.27 412.048 1595.96 405.165 1602 412L1598 413L1600 417L1617 413C1615.69 420.468 1620.32 427.301 1611 431L1616 436C1604.57 438.433 1609.94 450.908 1616 456L1608.81 467.945L1589 477L1593 485L1594 485L1594 481L1595 481L1596 485L1594 488L1593 488L1592 485C1584.65 485.484 1578.86 485.196 1574 479L1557 487L1560 489L1560 490L1553 489C1552.79 494.221 1556.02 493.885 1560 492L1562 498L1556 503L1556 504C1561.74 508.496 1562.02 515.712 1566.6 520.437C1570.17 524.125 1589.06 525.182 1580 534L1585 541L1583.61 551L1583 578L1565 570L1564 570L1548 574L1553 575L1554 587L1546 583L1550 597L1541 597C1545.37 603.535 1555.32 605.195 1556 614L1552 614L1552 616C1571.42 629.95 1574.02 648.11 1583.32 668C1587.2 676.29 1595.23 683.197 1593 693L1589 692L1592 701C1586.64 704.275 1584.1 712.307 1576 711.478C1570.52 710.917 1568.12 705.36 1562 706C1559.89 702.32 1555.85 700.203 1553 696.981C1547.38 690.625 1541.78 675.181 1532 676C1530.85 672.082 1525.55 670.512 1523 674L1519 671L1518 671L1515 680L1524 681C1524.09 690.637 1536.89 695.816 1523 699L1523 700C1529.65 700.161 1534.14 702.883 1537 709L1543 707L1550 716L1529 717.474L1518.33 724.632L1502 729L1502 732L1508 739L1503 740L1502 744L1514 750C1507.12 765.787 1494.67 761.444 1480 759L1479 764L1476 761L1477 764L1450 771L1450 772L1454 776L1451 777C1449.58 782.736 1444.88 781.902 1440 781L1439 782L1444 792C1460.61 785.116 1474.04 783.226 1492 784.896C1496.2 785.287 1500.97 784.195 1505 785.742C1509.77 787.576 1511.64 792.686 1516 795L1516 796L1513 797L1512 801L1515 802L1510 807L1512 812L1506 815L1506 816L1511 829L1514 827L1507 831L1505 835L1497 835C1503.8 847.436 1483.68 849.847 1482 862C1467.73 859.351 1458.26 877.753 1458 891C1453.08 888.704 1450.28 891.371 1446 894L1445 890L1438 891L1440 898L1444 897L1445 905L1443 906L1440 905L1445 920L1440 920L1432 909L1430 909L1430 916L1422 917L1422 914L1420 914L1422 918L1417 924L1418 911L1416 914C1411.34 912.821 1407.26 912.051 1407 918L1409 916L1414 923L1412 926L1410 922L1411 930L1400 921L1406 943L1406 944L1412 947L1400 951L1402 956L1401 957L1390 955C1386.64 963.558 1371.89 961.247 1367 955L1360 960L1360 964L1354 962L1354 966L1348 962L1346 970L1340 965L1342 976C1335.1 973.905 1336 965.047 1336 959L1335 959C1334.1 963.354 1329.36 969.55 1324.43 965.392C1319.86 961.523 1322.75 952.75 1314 956L1311 944L1313 945L1313 944L1308 931C1301.65 931.494 1299.9 933.667 1301 940L1306 938L1302 948L1312 971L1312 972L1309 972L1318 990L1310 983L1303 986L1300 971L1299 970L1297 970L1297 980L1291 982L1293 978C1285.7 979.537 1275.42 976.569 1278 967C1274.79 966.259 1271.73 966.863 1272.07 971.019C1272.79 980.054 1278.58 994.481 1282 1003L1267 981L1267 988C1274.05 993.887 1266.91 998.462 1262 989L1261 989L1263.81 1003L1260 1016L1253 1007L1252 1007L1248 1025L1247 1025L1245 1016L1241 1015C1241.72 1022.89 1249.02 1035.21 1243 1042L1236 1025L1237 1054L1236 1054C1232.66 1043.59 1230.09 1034.07 1231 1023L1228 1024C1226.37 1015.25 1223.28 1010.5 1218.78 1002.99C1217.95 1001.6 1215.52 995.322 1213.01 997.89C1210.4 1000.56 1214.26 1009.21 1214 1013L1217 1013L1217 1016L1207 1010L1208 1007L1203 1005L1202 1008L1200 1008L1187 975L1186 975L1183 979L1183 980C1186.06 985.535 1186.16 992.949 1180 996C1179.63 991.06 1177.86 989.446 1173 989L1173 996L1168 993C1164.95 1004.56 1178.73 1015.22 1168 1024L1160 1009L1163 1008L1163 1007L1159 1008L1153 1004C1155.18 985.438 1139.52 982.5 1132 969L1131 969L1131 989C1136.38 991.621 1136.08 1004.22 1134 1009L1131 1005L1129 1005L1130 1012C1121.76 1007.99 1121.91 998.282 1118 991L1117 991L1116 996L1112 995L1105 1009L1101 1006L1098 1009L1097 1009C1093.53 1006.04 1080.74 1019.69 1081.21 1024C1082.11 1032.27 1083.8 1043.17 1089.31 1049.79C1094.89 1056.49 1103.8 1060.71 1109.33 1067.19C1112.37 1070.74 1108.38 1076.99 1113.39 1079.4C1118.13 1081.67 1126.82 1080 1132 1080L1178 1080L1341 1080L1920 1080L1920 0L1054 0z"/>
<path style="fill:#040404; stroke:none;" d="M1093 8L1096 6L1093 8M832.667 7.33337L833.333 7.66663L832.667 7.33337M1096 9L1096 11L1098 9L1096 9z"/>
<path style="fill:#fcfcfc; stroke:none;" d="M1040 11L1038 16L1042 11L1040 11M976 13L976 16L978 13L976 13z"/>
<path style="fill:#040404; stroke:none;" d="M1078 13L1080 15L1080 13L1078 13M895 15L896 16L895 15M872 18L870 22L874 19L872 18M1116.33 22.6666L1116.67 23.3334L1116.33 22.6666M869 23L870 24L869 23z"/>
<path style="fill:#fcfcfc; stroke:none;" d="M1105 23L1106 24L1105 23z"/>
<path style="fill:#040404; stroke:none;" d="M887 25L888 26L887 25z"/>
<path style="fill:#fcfcfc; stroke:none;" d="M976 25L976 30L977 30L976 25M1000 25L996 36C1000.37 33.7272 1002.92 29.4889 1000 25M837.333 28.6666L837.667 29.3334L837.333 28.6666z"/>
<path style="fill:#040404; stroke:none;" d="M784 32L788 32L787 29L784 32z"/>
<path style="fill:#fcfcfc; stroke:none;" d="M853 29L852 32L855 32L853 29z"/>
<path style="fill:#040404; stroke:none;" d="M797.667 31.3334L798.333 31.6666L797.667 31.3334M876 31L877 32L876 31M932 31L933 32L932 31z"/>
<path style="fill:#fcfcfc; stroke:none;" d="M850.333 32.6666L850.667 33.3334L850.333 32.6666M976 33L976 36L978 36L978 33L976 33z"/>
<path style="fill:#040404; stroke:none;" d="M759 37L761 42L764 40L764 39L762 36L759 37z"/>
<path style="fill:#fcfcfc; stroke:none;" d="M880 38C878.603 41.526 878.042 43.67 882 45L880 38M769 40L768 44L769 44L769 40M794 40L793 44L794 40M797 41L797 42L800 42L797 41M902 43L903 44L902 43M936 44L934 45L934 46L936 44M921 48L922 52L921 48z"/>
<path style="fill:#040404; stroke:none;" d="M722.667 51.3334L723.333 51.6666L722.667 51.3334z"/>
<path style="fill:#fcfcfc; stroke:none;" d="M683.333 52.6666L683.667 53.3334L683.333 52.6666M732 53L732 56L735 56L735 53L732 53M757 55L760 54L757 55M748.667 55.3334L749.333 55.6666L748.667 55.3334M688 73L687 76L688 73z"/>
<path style="fill:#040404; stroke:none;" d="M1144 73L1148 79L1147 73L1144 73M1132 75L1132 76L1135 76L1132 75z"/>
<path style="fill:#fcfcfc; stroke:none;" d="M713 78L714 79L713 78z"/>
<path style="fill:#040404; stroke:none;" d="M1152 79L1153 80L1152 79z"/>
<path style="fill:#fcfcfc; stroke:none;" d="M1418 86L1419 87L1418 86M1113 91L1114 92L1113 91z"/>
<path style="fill:#040404; stroke:none;" d="M506.667 107.333L507.333 107.667L506.667 107.333M516 111L517 112L516 111z"/>
<path style="fill:#fcfcfc; stroke:none;" d="M696 120L693 118L691 132L695 131C694.329 135.424 690.083 139.119 695 142L698 140L697 144L695 143L692 145C692.001 151.47 691.15 161.25 696 166L699 162C694.759 172.077 712.768 186.753 722 190L717 179L712 180L714 174C708.657 170.953 703.605 167.752 704 161C716.9 168.823 724.175 175.664 740 177C741.423 183.975 747.969 185.625 754 188C756.301 179.937 752.925 178.792 762 176L759 169C765.536 170.641 774.099 180.453 779.846 180.368C783.074 180.32 783.296 176.244 784.12 173.999C787.407 165.04 787.572 160.767 783 152C776.873 167.357 769.697 159.015 758 154.279C738.894 146.544 726.236 137.384 711.942 123.093C708.305 119.457 693.485 106.4 696 120M1119 117L1114 119C1116.67 121.011 1121.18 121.427 1119 117z"/>
<path style="fill:#040404; stroke:none;" d="M496 123L498 125L496 123M563 127L564 128L563 127M592 127L593 128L592 127M483 135L483 138L484 138L483 135M554 139L555 140L554 139M698.667 139.333L699.333 139.667L698.667 139.333z"/>
<path style="fill:#fcfcfc; stroke:none;" d="M692 143L693 144L692 143z"/>
<path style="fill:#040404; stroke:none;" d="M697 144L698 145L697 144z"/>
<path style="fill:#fcfcfc; stroke:none;" d="M490 146L491 147L490 146M1099 147L1100 148L1099 147M1195 147L1197 152L1198 152L1195 147z"/>
<path style="fill:#040404; stroke:none;" d="M1125 149L1122 156L1127 149L1125 149z"/>
<path style="fill:#fcfcfc; stroke:none;" d="M1256 152L1260 153L1259 150L1256 152M1264 150L1265 151L1264 150z"/>
<path style="fill:#040404; stroke:none;" d="M694.667 159.333L695.333 159.667L694.667 159.333z"/>
<path style="fill:#fcfcfc; stroke:none;" d="M1108 165L1105 173L1107 173L1110 165L1108 165z"/>
<path style="fill:#040404; stroke:none;" d="M716 168L717 169L716 168M481.667 177.333L482.333 177.667L481.667 177.333z"/>
<path style="fill:#fcfcfc; stroke:none;" d="M1113 178L1112 184L1116 184L1113 178M1099.67 179.333L1100.33 179.667L1099.67 179.333M1400 179L1401 180L1400 179M724 185L728 200C733.371 195.892 728.602 187.815 724 185M786 186L785 188L787 188L786 186M412 188L412 197L414 197L413 191L418 192L419 192L412 188M478 190L478 193L480 193L480 190L478 190z"/>
<path style="fill:#040404; stroke:none;" d="M473 191L474 192L473 191z"/>
<path style="fill:#fcfcfc; stroke:none;" d="M757 191L757 192L760 192L757 191M412 198L412 202L413 202L412 198M480 203L481 204L480 203M479 205L479 211L480 211L479 205M361 208L361 212L362 212L361 208M1375 211L1376 212L1375 211z"/>
<path style="fill:#040404; stroke:none;" d="M451.333 215.667L451.667 216.333L451.333 215.667M1613 218L1613 220L1615 220L1613 218M337 219L338 220L337 219z"/>
<path style="fill:#fcfcfc; stroke:none;" d="M341 224L345 228L341 224M1432 229L1432 232L1433 232L1432 229M475 231C474.478 234.092 474.919 235.14 478 236L475 231z"/>
<path style="fill:#040404; stroke:none;" d="M1592 232L1593 233L1592 232z"/>
<path style="fill:#fcfcfc; stroke:none;" d="M1584 236L1588 233L1584 236z"/>
<path style="fill:#040404; stroke:none;" d="M1607 234L1608 235L1607 234z"/>
<path style="fill:#fcfcfc; stroke:none;" d="M455 235L458 240L455 235M466 237L466 240L467 240L466 237z"/>
<path style="fill:#040404; stroke:none;" d="M1607 237L1607 240L1610 240L1610 237L1607 237z"/>
<path style="fill:#fcfcfc; stroke:none;" d="M332 251L332 252L335 252L332 251M335 257L343 264C341.695 259.955 339.031 258.102 335 257M346.333 258.667L346.667 259.333L346.333 258.667M329 263L330 264L329 263M1629 263L1630 264L1629 263z"/>
<path style="fill:#040404; stroke:none;" d="M1643 269L1644 270L1643 269M1642 283L1643 284L1642 283M338 285L338 288L340 288L340 285L338 285M1647 290L1647 292L1649 292L1649 290L1647 290M1632 295L1633 296L1632 295M327 296L330 300L330 299L330 298L327 296M1612.67 313.333L1613.33 313.667L1612.67 313.333M301 315L302 316L301 315M1613 315L1614 316L1613 315M1604 321L1604 323L1606 323L1606 321L1604 321M290 343L291 344L290 343M279 367L280 368L279 367z"/>
<path style="fill:#fcfcfc; stroke:none;" d="M284 367L285 368L284 367z"/>
<path style="fill:#040404; stroke:none;" d="M1584 374L1585 375L1584 374M282 377L281 381L284 377L282 377z"/>
<path style="fill:#fcfcfc; stroke:none;" d="M282.333 385.667L282.667 386.333L282.333 385.667M282 388L283 389L282 388M282 395L283 396L282 395z"/>
<path style="fill:#040404; stroke:none;" d="M279.333 406.667L279.667 407.333L279.333 406.667z"/>
<path style="fill:#fcfcfc; stroke:none;" d="M1593 413L1592 416L1596 416L1593 413z"/>
<path style="fill:#040404; stroke:none;" d="M271 417L272 418L271 417M270 421L278 425L277 420L270 421z"/>
<path style="fill:#fcfcfc; stroke:none;" d="M370 425C370.654 428.054 372.007 427.936 375 428L370 425M377 427L377 428L380 428L377 427z"/>
<path style="fill:#040404; stroke:none;" d="M270 429L271 430L270 429z"/>
<path style="fill:#fcfcfc; stroke:none;" d="M388 430L391 432L388 430M282.667 439.333L283.333 439.667L282.667 439.333z"/>
<path style="fill:#040404; stroke:none;" d="M276 441L276 446L278 441L276 441z"/>
<path style="fill:#fcfcfc; stroke:none;" d="M339 465L338 468L341 469L342 465L339 465z"/>
<path style="fill:#040404; stroke:none;" d="M295 487L296 488L295 487z"/>
<path style="fill:#fcfcfc; stroke:none;" d="M304 490L304 492L306 490L304 490M309 491L309 492L312 492L309 491M313 497L313 498L318 503L319 499L313 497M1581.33 529.667L1581.67 530.333L1581.33 529.667M288 531L289 532L288 531M1547 575L1548 576L1547 575z"/>
<path style="fill:#040404; stroke:none;" d="M285 617L288 620L285 617z"/>
<path style="fill:#fcfcfc; stroke:none;" d="M298 617L301 620L298 617z"/>
<path style="fill:#040404; stroke:none;" d="M290 635L291 636L290 635z"/>
<path style="fill:#fcfcfc; stroke:none;" d="M308 637L310 640L308 637M309.667 647.333L310.333 647.667L309.667 647.333M276 665L276 669L278 669L278 665L276 665M283 669L286 672L283 669M280 670L281 671L280 670M290 671L291 672L290 671M1513 671L1514 672L1513 671M281 672L282 673L281 672z"/>
<path style="fill:#040404; stroke:none;" d="M1526 681L1528 684L1526 681M1551 715L1552 716L1551 715z"/>
<path style="fill:#fcfcfc; stroke:none;" d="M305 721L311 728L313 721L305 721M314 723L315 724L314 723M317 725C316.016 730.303 317.983 731.879 323 733L324 732L317 725M1495 725L1496 730L1500 728L1495 725M1487 735L1488 736L1487 735M1498.67 739.333L1499.33 739.667L1498.67 739.333M1511 752L1512 753L1511 752M242 755L243 756L242 755M1509 755L1510 756L1509 755z"/>
<path style="fill:#040404; stroke:none;" d="M1514 755L1514 756L1517 756L1514 755z"/>
<path style="fill:#fcfcfc; stroke:none;" d="M1457 759L1457 760L1462 760L1457 759M1466 759L1467 760L1466 759M235.667 763.333L236.333 763.667L235.667 763.333M1468 763L1471 765L1468 763M1424 771L1426 773L1426 771L1424 771M240.667 775.333L241.333 775.667L240.667 775.333M1427.67 775.333L1428.33 775.667L1427.67 775.333M1511 802L1512 803L1511 802z"/>
<path style="fill:#040404; stroke:none;" d="M1515.67 807.333L1516.33 807.667L1515.67 807.333z"/>
<path style="fill:#fcfcfc; stroke:none;" d="M290 819L291 820L290 819z"/>
<path style="fill:#040404; stroke:none;" d="M266 827L266 828L269 828L266 827z"/>
<path style="fill:#fcfcfc; stroke:none;" d="M1489 847L1490 848L1489 847M303.667 867.333L304.333 867.667L303.667 867.333M294 876L300 872L294 876M333 871L334 872L333 871z"/>
<path style="fill:#040404; stroke:none;" d="M286 878L283 873C277.965 875.898 281.727 878.347 286 878z"/>
<path style="fill:#fcfcfc; stroke:none;" d="M292 876L292 878L294 878L292 876M299 883L300 884L299 883M338 885L341 883L338 885M604 883L605 884L604 883M1433 891L1434 892L1433 891z"/>
<path style="fill:#040404; stroke:none;" d="M605 892L602 900C605.734 898.908 606.581 895.401 605 892M283 895L284 896L283 895M598 897L601 900L598 897M285 904L288 901L285 904M1451 903L1452 904L1451 903M1447 907L1448 908L1447 907z"/>
<path style="fill:#fcfcfc; stroke:none;" d="M589 911L590 912L589 911z"/>
<path style="fill:#040404; stroke:none;" d="M1447 915L1448 916L1447 915M1434 917L1434 920L1436 920L1436 917L1434 917z"/>
<path style="fill:#fcfcfc; stroke:none;" d="M1406 919L1407 920L1406 919M1407 921L1408 922L1407 921z"/>
<path style="fill:#040404; stroke:none;" d="M1430 922L1428 927L1432 922L1430 922z"/>
<path style="fill:#fcfcfc; stroke:none;" d="M1395 923L1396 924L1395 923M587 925L587 933L588 933L587 925M352 926L352 929L354 928L354 927L352 926M1307 929L1308 930L1307 929M1400 929L1401 930L1400 929z"/>
<path style="fill:#040404; stroke:none;" d="M1404 931L1405 932L1404 931z"/>
<path style="fill:#fcfcfc; stroke:none;" d="M573 935L574 936L573 935M584 935L585 936L584 935M658 937L652 939L652 940L660 940L658 937M1262 937C1261.46 941.69 1263.38 943.633 1268 944L1268 943L1262 937M349 943L350 944L349 943M566 943L570 948L566 943z"/>
<path style="fill:#040404; stroke:none;" d="M634 943L635 944L634 943z"/>
<path style="fill:#fcfcfc; stroke:none;" d="M663 943L664 944L663 943z"/>
<path style="fill:#040404; stroke:none;" d="M342.333 946.667L342.667 947.333L342.333 946.667z"/>
<path style="fill:#fcfcfc; stroke:none;" d="M1268 946L1265 956L1262 951L1258 951C1260.32 958.596 1264.43 963.355 1272 966L1273 963L1268 946M572 951L573 952L572 951M1287 951L1288 952L1287 951M373 954L372 956L374 956L373 954M1050.67 955.333L1051.33 955.667L1050.67 955.333M385 957L384 960L385 957M1328.33 957.667L1328.67 958.333L1328.33 957.667M1279 958L1278 960L1280 960L1279 958M1285 959C1285.04 962.271 1284.3 965.41 1288 966L1285 959M1353.33 960.667L1353.67 961.333L1353.33 960.667M344 961L345 962L344 961M1346.33 961.667L1346.67 962.333L1346.33 961.667M1250 963L1250 964L1253 964L1250 963M1296 963L1296 967L1298 967L1298 963L1296 963M365.667 967.333L366.333 967.667L365.667 967.333M1240 969L1238 972L1242 972L1240 969M1283 969L1282 972L1283 969M1290 969L1285 977L1288 975L1292 977L1292 976L1290 969M380 971L381 972L380 971M1145 971L1146 972L1145 971M1265 971L1266 972L1265 971M513.333 974.667L513.667 975.333L513.333 974.667M1159 974L1161 977L1159 974M655 988L656 988L666 975C660.421 977.604 656.746 982.12 655 988M713 975L714 976L713 975M1168 977L1171 981L1170 977L1168 977M1161 980L1161 982L1163 982L1161 980M1171 983L1172 984L1171 983z"/>
<path style="fill:#040404; stroke:none;" d="M1297 983L1298 984L1297 983M1351 983L1352 984L1351 983z"/>
<path style="fill:#fcfcfc; stroke:none;" d="M1257 984L1256 987L1257 984z"/>
<path style="fill:#040404; stroke:none;" d="M519 985L520 986L519 985M635 989L638 986L635 989z"/>
<path style="fill:#fcfcfc; stroke:none;" d="M1206 986L1204 992L1206 986z"/>
<path style="fill:#040404; stroke:none;" d="M1288.33 986.667L1288.67 987.333L1288.33 986.667z"/>
<path style="fill:#fcfcfc; stroke:none;" d="M1166.67 987.333L1167.33 987.667L1166.67 987.333M653 988L648 997L653 988M979 989L978 992L981 992L979 989M1154 989L1155 1000C1158.34 996.436 1159.45 990.809 1154 989z"/>
<path style="fill:#040404; stroke:none;" d="M507 992L508 993L507 992z"/>
<path style="fill:#fcfcfc; stroke:none;" d="M639 994L639 996L641 996L639 994z"/>
<path style="fill:#040404; stroke:none;" d="M503 995L504 996L503 995z"/>
<path style="fill:#fcfcfc; stroke:none;" d="M934 997L934 1000L935 1000L934 997z"/>
<path style="fill:#040404; stroke:none;" d="M1190 997L1190 999L1192 997L1190 997z"/>
<path style="fill:#fcfcfc; stroke:none;" d="M556 998L556 1000L558 1000L556 998M979 999L980 1000L979 999M975 1011C978.533 1018.26 980.022 1020.73 976 1028L974 1017C967.346 1019.23 969.272 1036.75 967 1043L966 1043L965 1037L964 1037L960 1038L959 1027L955 1032C953.96 1026.46 949.405 1020.94 944 1019C944.513 1025.23 948.421 1030.71 947.891 1037C947.145 1045.86 941.098 1050.75 945 1060C932.68 1059.45 940.652 1044.15 940.692 1038C940.715 1034.48 937.417 1031.15 935 1029L934 1032L937 1033L936 1037L926 1019C929.194 1025.7 924.18 1027.93 918 1029L918 1025C912.023 1029.22 916.939 1039.64 915.154 1046C914.139 1049.62 911.224 1052.39 910 1056L902 1056C903.279 1050.66 915.289 1038.88 904 1037L901 1041L899 1026L898 1026L891 1033L891 1036C896.846 1042.2 884.757 1052.3 880 1056L879 1053L872 1074L869 1073L868 1076C879.597 1084.35 902.019 1080 916 1080L1038 1080L1035 1074L1044 1072C1043.34 1068.7 1041.17 1066.19 1040.44 1063C1038.39 1054.05 1042.31 1044.58 1031 1041L1031 1048L1024 1046C1027.56 1053.88 1031 1057.5 1021 1060L1014 1055L1014 1056L1018 1058C1015.22 1063.44 1010.46 1075.52 1004 1069L998 1072L1001 1064L992 1056L993 1052C990.086 1052 988.354 1046.82 989.333 1044C990.298 1041.23 993.124 1041.05 994.5 1038.83C996.954 1034.88 999.64 1027.7 1001 1023L997 1022L998 1013L997 1013L995 1018C983.653 1012.61 987.913 1008.28 984 999L975 1011z"/>
<path style="fill:#040404; stroke:none;" d="M1272 1001L1271 1003L1272 1001z"/>
<path style="fill:#fcfcfc; stroke:none;" d="M1200 1003L1201 1004L1200 1003M638 1007L638 1009L640 1007L638 1007z"/>
<path style="fill:#040404; stroke:none;" d="M1134 1012L1137 1012L1136 1010L1134 1012z"/>
<path style="fill:#fcfcfc; stroke:none;" d="M995 1011L997 1013L997 1011L995 1011M954 1014L953 1016L955 1016L954 1014z"/>
<path style="fill:#040404; stroke:none;" d="M1252 1014L1253 1015L1252 1014z"/>
<path style="fill:#fcfcfc; stroke:none;" d="M941 1015L942 1016L941 1015M1234 1018L1234 1020L1236 1020L1234 1018M951 1019L952 1020L951 1019M918 1023L918 1025L920 1023L918 1023M954 1023L955 1024L954 1023z"/>
<path style="fill:#040404; stroke:none;" d="M1172 1024C1171.5 1027.31 1172.06 1028.38 1175 1030L1172 1024M423.667 1027.33L424.333 1027.67L423.667 1027.33z"/>
<path style="fill:#fcfcfc; stroke:none;" d="M882 1027L883 1028L882 1027z"/>
<path style="fill:#040404; stroke:none;" d="M925 1028L925 1030L927 1030L927 1028L925 1028z"/>
<path style="fill:#fcfcfc; stroke:none;" d="M1076 1036L1078 1036L1079 1029C1075.88 1030.81 1075.82 1032.49 1076 1036z"/>
<path style="fill:#040404; stroke:none;" d="M629 1034L632 1032L629 1034z"/>
<path style="fill:#fcfcfc; stroke:none;" d="M489 1034L488 1036L490 1036L489 1034M1024 1035L1023 1040L1024 1040L1024 1035M490 1037L492 1040L490 1037z"/>
<path style="fill:#040404; stroke:none;" d="M600 1040L603 1040L602 1038L600 1040z"/>
<path style="fill:#fcfcfc; stroke:none;" d="M1043 1040L1043 1044L1044 1044L1043 1040M862 1041L864 1044L862 1041M755 1042L752.973 1052.09L754 1076C749.327 1075 746.302 1075.61 744 1080L792 1080L785 1065L774 1076L776 1067L772 1076C765.434 1069.47 775.406 1057.76 778 1051L777 1050L773 1054L769 1048L763 1051L763 1047L755 1042M722 1043L722 1044L725 1044L722 1043M786 1043L785 1048L786 1043M808 1043L809 1044L808 1043M1044 1044L1049.12 1054.09L1048 1080L1079 1080L1078 1075C1081.27 1073.19 1081.81 1071.62 1081 1068L1075 1077L1072 1073L1068 1074L1064 1066C1057.36 1067.34 1056.94 1062.92 1052 1060C1056.46 1053.61 1052.32 1048.99 1049 1043L1044 1044M816.667 1045.33L817.333 1045.67L816.667 1045.33z"/>
<path style="fill:#040404; stroke:none;" d="M964 1045L965 1046L964 1045z"/>
<path style="fill:#fcfcfc; stroke:none;" d="M1066 1045L1069 1050L1066 1045M996 1047L997 1048L996 1047M788 1051L790 1060L785 1065C793.085 1062.87 793.151 1057.79 790 1051L788 1051M1020 1051L1019 1056L1022 1054L1023 1058L1024 1058L1025 1055L1020 1051M717.333 1052.67L717.667 1053.33L717.333 1052.67z"/>
<path style="fill:#040404; stroke:none;" d="M765 1052L765 1054L767 1054L765 1052z"/>
<path style="fill:#fcfcfc; stroke:none;" d="M813 1057C811.72 1061.34 811.667 1064.74 815 1068L815 1057L813 1057z"/>
<path style="fill:#040404; stroke:none;" d="M878 1062L881 1066L882 1061L878 1062z"/>
<path style="fill:#fcfcfc; stroke:none;" d="M1064 1061L1064 1065L1064 1061M1086 1061L1085 1064C1088.82 1067.85 1088.17 1074.93 1087 1080L1092 1080L1086 1061M776 1065L779 1064L776 1065M792 1065L792 1066L795 1068L796 1063L792 1065M1010 1063L1012 1065L1012 1063L1010 1063M861 1067C863.696 1068.76 865.137 1068.04 866 1065L861 1067z"/>
<path style="fill:#040404; stroke:none;" d="M940 1072L941 1073L946 1065L940 1072M1015 1065L1018 1072L1015 1065z"/>
<path style="fill:#fcfcfc; stroke:none;" d="M814 1070L813 1080C815.789 1077.56 815.361 1073.24 814 1070M1099 1070L1097 1080L1105 1080L1099 1070z"/>
<path style="fill:#040404; stroke:none;" d="M1112 1071L1113 1074L1114 1074L1112 1071z"/>
<path style="fill:#fcfcfc; stroke:none;" d="M702 1073C702.491 1079.14 706.212 1078.05 708 1073L702 1073M862 1073L859 1080C862.428 1078.77 863.896 1076.25 862 1073z"/>
<path style="fill:#040404; stroke:none;" d="M935 1073L935 1076L939 1076L939 1073L935 1073z"/>
<path style="fill:#fcfcfc; stroke:none;" d="M794.667 1075.33L795.333 1075.67L794.667 1075.33M818 1080L821 1077L818 1080M828 1077L831 1080L828 1077M804 1079L805 1080L804 1079z"/>
<path style="fill:#040404; stroke:none;" d="M1072.67 1079.33L1073.33 1079.67L1072.67 1079.33z"/>
<path style="fill:#fcfcfc; stroke:none;" d="M1106 1079L1107 1080L1106 1079z"/>
</svg>
