<?xml version="1.0" standalone="yes"?>
<svg xmlns="http://www.w3.org/2000/svg" width="1920" height="1080">
<path style="fill:#fcfcfc; stroke:none;" d="M0 0L0 1080L492 1080L607 1080C619.586 1080 641.938 1085.5 642 1068C634.223 1068.37 629.975 1069.4 622.911 1072.36C621.206 1073.08 618.284 1073.97 616.812 1072.31C614.076 1069.2 620.947 1052.95 623.307 1050C628.099 1044.02 635.224 1040.48 641 1035.62C650.398 1027.72 659.946 1017.47 668.699 1008.91C674.746 1002.99 672.221 993.99 682 992L689 984L689 983C678.673 980.492 667.457 999.254 661.579 1006.15C653.171 1016.02 641.15 1028.41 630 1035.15C614.254 1044.66 592.897 1049.64 579 1061L580 1054L577 1058L573 1055L566 1058C569.338 1057.53 570.118 1054.11 570 1051C585.237 1045.88 596.266 1035.04 609 1025.91C613.999 1022.33 618.863 1017.25 625 1016C624.137 1009.75 616.039 1000.8 619.067 995.005C621.917 989.549 628.178 988.13 632.911 984.911C642.133 978.636 655.544 966.172 655 954L654 957L651 956L660 948C654.719 939.895 644.062 956.179 640 960L639 950L641 952L645 943L642 946L637 944C635.78 945.874 629.082 951.023 630.06 945.042C630.976 939.438 641.184 935.354 643.81 929.911C646.203 924.95 642.308 918.852 641 914L640 914L642 924C635.288 917.301 636.291 903.682 628.281 898.047C622.884 894.25 618.112 906.049 611 899L600 902L600 904L605 906L605 907L602 908L597 907L600 920L596 917L594 934C590.157 935.276 588.397 947.325 584 942L583 942C583.763 950.752 591.253 966.531 587 974L576 961C582.231 974.426 582 986.465 581 1001L580 1001L580 997L569 992C568.737 988.59 568.321 987.099 565 986L566 996L563 995C564.898 1001.57 565.126 1005.45 563 1012L556 1012L553 999L548 998C547.561 1002.82 546.141 1005.43 542 1008C542.737 1004.94 544.62 999.357 542.883 996.434C540.372 992.208 535.203 994.376 534 998L530 996L529 987L523 983C522.117 988.664 517.818 988.486 513 990L513 988L511 988L506 1000L505 1000L505 996C502.307 995.64 502.62 994.56 503 992L507 992L505 989L495 1000L496 1008L488 995L490 1010L486 1009L489 1016L491 1014C499.586 1030.96 504.329 1039.98 496 1058L495 1058L491 1055L490 1063L479 1054L478 1058L468.573 1048L465 1037L463 1043C458.734 1040.98 457.188 1038.49 456 1034C450.468 1037.85 446.334 1040.92 447 1048L442 1032L441 1032L440 1043L432 1039L434 1042C427.243 1043.62 428.015 1038.75 423 1036L424 1032L426 1033L427 1032L421 1028L425 1015L420 1020L418 1008L416 1014L415 1014L412 1007L411 1007L404 1028L401 1027L403 1023L397 1026L396 1026L398 995L384 1002L380 1004C381.979 1000.33 384.481 995.718 382 992L382 991C386.248 988.651 387.837 986.912 388 982C378.663 984.046 373.17 992.356 370 1001L369 1001L364 977L355 986L356 980L356 979L355 977L354 977L353 980L348 976L348 978L344 973L348 972L346 968C339.099 971.61 336.253 971.068 329 969L330 965L323 968C328.269 961.65 337.165 954.751 345 952L345 949L341 951L346 931L342 923L324 935L336 915L340 916L340 913L343 914L346 903C337.198 903.639 330.965 911.314 325 917L329.179 903.174L339 889L334 889L334 896L330 895L320 894L324 890C323.35 881.484 316.547 883.423 311.75 887.964C309.299 890.285 305.734 891.469 303.709 894.158C300.464 898.468 297.03 918.651 289 909L283 910L283 909L287 905L282 906L286 898L278 900L290 879L280 881C276.971 873.396 278.65 870.022 286 875L287 871L296 868L296 866L287 868L284 861L282 861L281 865L274 856L274 855L282.564 843.812L297 846C298.95 842.176 303.258 836.262 299 833C295.486 839.212 283.253 836.145 281 830L290 824L272 824L272 822L281 820C279.721 808.094 278.247 811.236 268 809L267 812C264.09 805.78 267.267 805.337 273 806L278 800L274 797L273 800C267.677 798.291 261.67 794.08 258 800C248.02 790.87 229.739 796.304 219 788L223 788L218 786L219 788L216 788L215 783L219 781L216 779L219 775L229 771L223 768L224 765L227 766L227 760L227 759L238 751L228 748L238.667 743.361L243 738L244 736L244 735L241 737C236.516 737.192 233.518 742.459 229.043 741.922C225.368 741.481 224.787 736.998 221.726 735.603C211.466 730.928 203.409 731.506 193 734C195.63 727.491 190.732 725.627 189 720L200.981 719.771L218 712L216 705L220 701C215.065 699.926 209.886 701.922 207 697C212.368 697.894 214.095 694.98 215 690L202 687L202 685C208.31 684.571 216.983 681.036 207 676L207 673C219.692 670.179 227.279 677.432 239 681L227.171 671.779L206 650L206 649C212.165 647.424 224.553 658.617 230 662.183C237.646 667.189 238.281 660.079 245.039 660.891C254.885 662.074 262.048 675.668 273 667L266 664L266 661L269 660L269 656L265 655C266.795 654.641 278.885 657.461 278 661L287 665L295 651L288 644L291 640L291 637L286 633L292 636L293 636L294 633L300 636L281 617L285 613L286 616L290 616C288.429 608.032 280.109 607.973 275.028 603.75C272.527 601.671 272.097 596.243 274 600L278 600C283.632 594.527 293.334 599.083 300 600L294 593L300 591L303 597C306.584 589.491 312.192 593.564 319 592L319 589C314.079 586.672 310.118 584.152 308 579C313.512 578.124 307.032 566.061 305 563.324C300.703 557.536 290.768 558.421 285 561L285 553L276 558L274 553C277.757 552.582 287.771 548.574 286.248 543.286C284.694 537.889 276.422 533.436 274 527L282 528L253 491L260 492L257 484C264.637 485.819 269.73 485.289 275 492L276 492L276 486L278 489L286 486L285 481L299.961 484.748L312.91 477.052L329 472L329 471L324 472L327 465C332.425 465.623 337.537 461.718 340 457L342 459C349.323 454.208 354.901 445.376 357 437L351 438L365 426L368 428C365.189 422.727 360.278 417.334 354 419C356.831 427.83 347.654 430.405 342.255 435.474C331.785 445.302 320.689 449.189 308 454.353C298.516 458.212 294.362 463.427 284 460L285 453C279.245 455.454 275.268 456.064 271 451L264 450L267 443L262 443L264 430L260 425C271.579 419.371 268.753 407.765 281 404L276 397L267 400L268 389L273 391L273 386L277 387L280 372L280 371L274 351C279.752 355.441 287.76 367.639 295 357C290.838 355.686 290.361 352.871 289 349L292 346L285 348L289 337L295 339L296 339L296 325L300 330L301 330C300.642 322.863 300.3 312.379 291 312L291 308L298 306L298 311C309.159 307.305 305.895 315.85 313 320L319 302C328.382 301.284 326.084 290.245 327 283L335 288L334 281L336 281L337 284L340 284C339.392 270.047 325.722 271.12 321 259C310.666 260.168 317.311 253.034 324 252L324 251L321 251L322 247L312 248L304 247L302 239L305 241C308.849 236.576 312.939 232.862 310 227C316.402 224.78 321.49 225.589 325 219L328 222L329 212L333 213C337.741 211.854 340.05 213.43 344 216L347 210L345 208L348 209L348 205L349 205L350 208L352 201L356 202L352 189L354 192L364 188C366.51 183.387 369.637 184.01 374 186L378 181L380 184L380 179L381 179L383 184C387.485 184.013 389.903 186.172 392 190L396 188L403 197C404.132 192.88 405.826 191.984 410 192L407 179L408 179L408 184L412 184L411 177C416.332 178.764 419.487 180.204 421 186L422 186L422 183L423 183L426 188L423 192C434.095 195.253 430.966 202.881 433.704 210.996C435.17 215.343 439.23 218.481 442 222C447.46 220.112 449.809 217.873 450 212C455.359 216.268 461.651 219.179 464 226L468 221L457 212L457 211L460 203L468 209L468 205L475 209L472 199L474 202L475 202L472 187L474 190C478.864 184.934 473.896 178.56 472 173L476 178L480 178L475 159L471 158L470 145L473 145L476 148L477 141L478 141L480 144C480.636 135.943 479.212 133.211 476 126C480.983 128.83 484.025 129.884 485 136L491 140L494 117L499 124L509 107L511 112L524 106L519 91L522 96L531 96L530 87C539.611 92.2744 538.114 114.881 541 125L542 125L542 113L544 113L551 134L554 125L557 132L560 129L562 136L565 121L566 121L568 124L568 120C573.681 125.417 565.595 133.701 574 137L582 112L590 120L588 111L590 111L593 126C592.146 112.908 583.385 93.3333 594 83L595 92L598 89L598 93L600 93C600.295 76.4722 599.042 59.03 603.433 43C606.714 31.0214 615.824 23.1921 616 10L620 12L623 0L0 0z"/>
<path style="fill:#040404; stroke:none;" d="M623 0L620 12L616 10C615.524 22.656 606.708 30.4633 603.429 42C598.782 58.3505 600.094 76.115 600 93L598 93L598 89L595 92L592 91L594 83C582.635 90.3244 591.701 115.01 593 126L590 111L588 111L590 120L582 112L574 137C566.196 132.312 575.176 124.407 568 120L568 124L566 121L565 121L562 136L560 129L557 132C557.279 128.363 557.875 126.289 554 125L551 134L544 113L542 113L542 125L541 125C539.43 116.162 538.79 90.1613 530 87L531 96L522 96C522.522 92.9078 522.081 91.8601 519 91L524 106L511 112L509 107C498.736 109.93 504.815 118.599 499 124L494 117L491 140L485 136C484.411 129.535 481.54 128.421 476 126L480 144L478 141L477 141L476 148L473 145L470 145L471 158L475 159C471.288 166.113 478.432 170.972 480 178L476 178L472 173C473.366 179.312 477.675 183.766 474 190L472 187L475 202L474 202L472 199L475 209L468 205L468 209L460 203L457 211L457 212L468 221L464 226C462.573 219.049 455.834 215.267 450 212C449.579 217.567 446.789 219.602 442 222C439.841 217.995 435.879 215.206 434.093 210.996C430.837 203.321 435.123 193.955 423 192L426 188L423 183L422 183L422 186L421 186C420.075 179.689 416.683 178.432 411 177L412 184L408 184L408 179L407 179L410 192C405.623 191.774 403.725 192.492 403 197L396 188L392 190C390.398 185.542 387.734 183.738 383 184L381 179L380 179L380 184L378 181L374 186C369.876 183.366 365.743 182.623 364 188L352 189L356 202L352 201L350 208L349 205L348 205L348 209L345 208L347 210L344 216C340.229 212.545 337.929 211.08 333 213L329 212L328 222L325 219L310 227C312.069 232.927 308.023 236.161 305 241L302 239L304 247L312 248L322 247C321.423 249.711 321.233 250.395 324 251L324 252C321.464 252.129 317.571 251.657 315.619 253.627C311.266 258.022 317.793 259.676 321 259C324.333 271.8 338.861 270.07 340 284L337 284L336 281L334 281L335 288L327 283C325.664 290.196 328.296 300.548 319 302L313 320C307.355 315.019 307.946 306.045 298 311L298 306L291 308L291 312C300.027 312.963 299.959 323.107 301 330L300 330L296 325L296 339L295 339L289 337L285 348L292 346L289 349C290.088 353.135 290.388 356.199 295 357C285.523 366.481 281.645 354.909 274 351L280 371L280 372L277 387L273 386L273 391L268 389L267 400L276 397L281 404C268.936 406.915 270.099 417.746 260 425L264 430C261.386 434.683 260.029 437.814 262 443L267 443L264 444L264 450L271 451C274.301 456.866 279.655 455.897 285 453L284 460C293.67 464.648 299.128 458.83 308 454.8C320.42 449.158 331.734 446.12 342.255 436.218C347.571 431.213 358.199 427.717 354 419C360.233 417.978 364.361 423.469 368 428L365 426L351 438L357 437C355.247 441.164 346.422 461.817 340 457C336.708 461.225 332.479 464.68 327 465L324 472L329 471L329 472L312 476.991L299.961 484.476L285 481L286 486L278 489L276 486L276 492L275 492C271.014 484.545 264.394 485.373 257 484L260 492L253 491L282 528L274 527C276.015 534.516 283.645 537.322 285.654 543.286C287.199 547.871 277.264 552.341 274 553L276 558L285 553L285 561C290.379 559.207 300.125 556.906 305 563C308.001 566.751 312.695 580.174 308 579C309.533 584.606 313.616 587.284 319 589L319 592C312.158 593.124 305.723 588.789 303 597L300 591L294 593L295 596L300 600C294.291 598.61 282.015 593.745 278 600L274 600L273 597L272 597C271.15 606.038 285.901 608.321 290 616L286 616L285 613L281 617L289.701 622.589L300 636L294 633L293 636L292 636L286 633L291 637L291 640L288 644L295 651L287 665L278 661C277.439 656.866 268.883 653.987 265 655L269 656L269 660L266 661L266 664L273 667C260.498 673.746 255.981 661.533 245.039 660.458C240.083 659.971 238.026 666.37 232.83 663.424C226.348 659.748 213.026 646.644 206 649L206 650L239 681C228.289 676.44 218.896 668.877 207 673L207 676C215.051 682.156 208.671 684.231 202 685L202 687L215 690C213.641 694.557 212.012 697.161 207 697C208.916 702.447 215.238 700.32 220 701L216 705L218 712C209.26 710.789 207.051 716.935 199.995 719.757C196.488 721.16 192.646 720.154 189 720L193 734C203.316 732.449 210.67 731.296 220.867 735.603C224.321 737.062 224.951 742.119 229.043 742.418C233.745 742.762 236.572 737.588 241 737L244 735L244 736L243 738L237.782 743.245L228 748L238 751L227 759L227 760L227 766L224 765L223 768L229 771L219 775L216 779L219 781L215 783L216 788L218 786L223 788L219 788L232.961 792.392L258 800C262.699 795.1 267.269 798.807 273 800L274 797L278 800C274.205 800.827 273.304 802.171 273 806C267.576 805.009 262.836 805.878 267 812L268 809C278.169 812.06 278.704 808.406 281 820L272 822L272 824L290 824L281 830C282.396 836.417 296.72 839.848 299 833C302.5 836.912 298.555 841.716 297 846L282.564 843.132L274 855L274 856L281 865L282 861L284 861L287 868L296 866L296 868L287 871L286 875C278.839 868.534 275.961 873.753 280 881L290 879L278 900L286 898L282 906L287 905L283 909L283 910L289 909C295.808 920.341 301.058 898.703 303.724 895.093C305.58 892.58 308.479 891.583 310.83 889.66C315.476 885.859 322.516 880.581 324 890L320 894C323.252 895.517 327.199 898.077 330 895L334 896L334 889L339 889L329.179 902.301L325 917L346 903L343 914L340 913L340 916L336 915L324 935L342 923L346 931C342.679 937.107 340.371 943.957 341 951L345 949L345 952C337.511 953.586 326.736 961.386 323 968L330 965L329 969C335.823 971.78 339.719 972.415 346 968L348 972L344 973L348 978L348 976L353 980L354 977L355 977L356 980L355 986L364 977L369 1001L370 1001C374.42 992.738 378.668 984.917 388 982C387.642 986.638 385.593 988.269 382 991L382 992L380 1004L384 1002L398 995L396 1026L397 1026L403 1023C401.878 1025.66 401.606 1026.33 404 1028L411 1007L412 1007L415 1014L416 1014L418 1008L420 1020L425 1015L421 1028L427 1032L424 1032L423 1036C427.502 1039.73 427.315 1044.65 434 1042L432 1039L440 1043L441 1032L442 1032C442.468 1036.7 442.96 1045.38 447 1048C446.976 1041.19 451.43 1038.48 456 1034C456.51 1038.89 458.114 1041.61 463 1043L465 1037C470.434 1045 467.875 1052.14 478 1058L479 1054L490 1063L491 1055L495 1058L496 1058C503.574 1048.91 502.694 1039.08 499 1028C497.533 1023.6 492.406 1011.74 489 1016L486 1009L490 1010L488 995L496 1008L495 1000L505 989L507 992L503 992C502.171 994.747 502.012 996 505 996L505 1000L506 1000L511 988L513 990C518.133 988.918 522.52 989.004 523 983L529 987L530 996L534 998C540.217 986.765 543.042 1002.41 542 1008C546.783 1006.01 547.768 1002.97 548 998L553 999L556 1012L563 1012C565.818 1005.63 565.533 1001.41 563 995L566 996L565 986L569 992L580 997L580 1001L581 1001C582.454 987.77 583.58 972.639 576 961L587 974C591.975 968.797 584.087 949.396 583 942L584 942L584 945L594 934L596 917L600 920L597 907L605 907L605 906L600 904L600 902L611 899C616.851 907.91 623.359 894.534 628.281 898.662C635.719 904.902 634.152 918.814 642 924L640 914L641 914C641.882 918.471 645.522 924.526 643.676 928.975C641.143 935.081 630.487 938.775 629.582 945.046C628.671 951.36 635.672 947.008 637 944L642 946L645 943L641 952L639 950L640 960C645.386 956.362 653.51 941.672 660 948L651 956L655 954L656 957C651.23 959.784 651.947 965.569 648.519 969.625C643.334 975.76 637.885 981.264 630.985 985.536C626.157 988.525 618.926 990.446 617.797 997C616.812 1002.72 623.737 1010.19 625 1016L607.004 1026.62L570 1051L566 1058L569 1060L573 1055L577 1058L580 1054L579 1061C595.375 1051.9 614.611 1045.04 631 1035.15C641.251 1028.96 651.045 1018.09 659.407 1009.61C666.604 1002.32 677.256 981.498 689 983L689 984C684.841 985.672 682.905 987.564 682 992C671.657 993.162 673.441 1004.78 665.961 1010.51C655.918 1018.2 648.867 1028.54 639.089 1036.39C632.355 1041.8 622.813 1045.96 620.624 1055C619.784 1058.47 612.975 1070.03 616.647 1072.93C620.521 1075.99 626.593 1070.2 630.039 1069.02C633.822 1067.73 638.07 1068.56 642 1068L638 1080L661 1067C659.804 1074.35 666.017 1079.77 673 1080C673.675 1071.82 676.566 1066.35 685 1070C680.064 1079.95 688.882 1079.24 696 1080L699 1077C700.085 1082.06 709.712 1080 714 1080L761 1080L757 1056L760 1056L760 1051L753 1052C762.086 1043.92 762.044 1059.56 771 1063L768 1080C770.925 1080 775.12 1080.68 777.682 1078.97C780.628 1077.01 779.021 1072.76 781.589 1070.75C785.61 1067.61 790.378 1077.24 791 1080L819 1080C822.654 1080 827.096 1081.22 828 1077L829 1077C831.617 1081.04 836.606 1080 841 1080L874 1080L878 1065L879 1065L880 1070L885 1068C884.054 1064.68 881.477 1060.56 882.647 1057.05C886.238 1046.29 897.314 1046.6 892 1033L898 1027L899 1027C899.842 1030.58 900.455 1050.23 906 1037L907 1037L900 1058L907 1060C915.491 1048.64 916.809 1043.02 915 1029L917 1032L924 1029C925.269 1036.96 934.473 1039.48 941 1037C935.733 1047.81 934.333 1054.34 943 1064L937 1067L937 1068L939 1070L935 1068C931.827 1071.97 930.573 1075.02 932 1080C938.474 1076.98 946.932 1073.49 946.71 1065C946.582 1060.12 943.513 1056.07 944.217 1051C945.162 1044.2 949.448 1038.38 948.531 1031.09C947.974 1026.66 944.776 1023.81 945 1019L946 1019L948 1026L952 1025L958.61 1039.67L954 1048C964.113 1047.8 967.222 1047.62 970 1037L972 1040C980.253 1033.27 983.049 1020.14 976 1012L981 1009L983 1009L983 1016L1000 1025C994.024 1036.16 969.904 1051.13 988.998 1059.21C991.308 1060.19 993.533 1060.66 996 1061C996 1066.71 994.384 1075.83 1001 1078L1002 1071C1006.66 1073.75 1014.41 1073.15 1015 1079L1020 1080L1019 1072L1024 1074C1023.05 1070.9 1022.25 1070.13 1019 1070L1018 1057L1023 1064L1033 1059L1032 1049C1038.54 1054.26 1039.54 1056.23 1036 1064L1043 1070C1035.87 1070.39 1031.43 1072.13 1031 1080L1048.86 1078.4L1053 1057C1052.5 1063.09 1056.14 1070.81 1063 1068C1065.6 1084.58 1086.65 1079.97 1099 1080L1099 1072L1101 1080C1104.63 1080 1114.58 1081.74 1116.93 1078.4C1119.18 1075.2 1115.2 1068.58 1112.78 1066.51C1102.65 1057.9 1090.5 1052.72 1086 1039L1090 1038C1087.21 1027.79 1083.58 1025.4 1090 1016L1091 1016L1092 1018L1093 1018L1101 1016L1102 1019L1104 1019L1118 993L1119 993C1120.88 1002.48 1123.19 1011.67 1134 1011L1134 1020L1139 1017L1137 1019L1137 1020L1140 1019L1152 1029C1151.76 1021.63 1144.48 1014.98 1138 1012L1140 1007L1135 1008L1135 1007L1140 999L1136 998C1136.62 993.083 1137.78 989.26 1132 988L1136 977C1146.63 983.956 1153.68 990.416 1152 1004C1158.18 1006.5 1157.5 1010.68 1160.85 1015.58C1168.3 1026.48 1174.68 1034.12 1172 1048L1181 1040L1176 1036C1179.34 1021.38 1175.4 1013.47 1168 1001C1174.02 999.673 1181.6 1001.2 1185 995L1189 1002L1186 1001C1186.16 1008.75 1185.92 1015.89 1195 1016L1192 999L1193 999C1193.79 1004.4 1199.37 1011.27 1204 1014L1204 1010L1221 1021L1213 997C1226.22 1010.86 1226.96 1027.66 1230.51 1045C1232.31 1053.77 1236.47 1061.86 1240 1070L1241 1070C1244.4 1060.95 1233.29 1050.55 1241 1043L1245 1057L1246 1057L1252 1051L1252 1042L1253 1046C1258.97 1041.8 1260.87 1028.08 1254 1024L1264 1021L1264 1032L1269 1031L1270 1031L1270 1022L1276 1021L1277 1013L1283 1017L1280 1021L1281 1028L1288.19 1017.62L1291.65 1024.74L1299 1028C1298.03 1023.99 1297.1 1021.29 1293 1020L1296 1017C1290.53 1003.02 1278.35 994.283 1278 978C1282.6 983.264 1284.24 997.016 1292 996L1294 1000L1292 995L1297 994L1298 997L1300 997L1301 994L1302 994L1298 1005C1304.48 1001.45 1305.27 995.533 1303 989L1314.3 996.4L1333 1005L1334 999L1331 1000C1325.06 987.517 1305.23 975.211 1310 960L1314 964L1318 963L1324 974L1332 975L1330 971L1334 970L1340 981L1341 981L1343 979L1348 984L1352 977L1351 986L1353 986C1354.75 980.096 1353.69 969.178 1363 972C1370 961.082 1373.39 967.387 1384 965C1386.58 969.263 1391.06 971.629 1396 972L1397 959L1398 959L1412 962C1410.05 955.626 1416.68 953.152 1422 952L1421 949L1418 950L1419 946C1412.32 943.943 1410.08 941.012 1410 934L1414 936L1416 927C1419.31 930.359 1418.61 932.407 1416 936L1417 937C1424.04 932.03 1419.97 930.736 1421.88 924.108C1422.74 921.11 1426.43 919.63 1428 917L1432 918L1432 920C1428.6 922.085 1428.13 924.097 1428 928L1442 921L1443 921L1446 928L1448 928L1448 924L1452 926L1453 909L1456 911L1459 893L1464 897L1465 897C1468.73 896.127 1471.62 897.102 1473 893C1467.28 890.223 1463.45 887.744 1463 881L1468 880L1477 874C1466.39 874.352 1478.99 868.567 1480 865L1485 874L1486 874L1490.89 858.357L1499 853L1501 854L1508 850L1513 845C1513 841.325 1507.32 838.804 1509 836C1511.16 832.406 1513.97 836.514 1517 835C1519.63 833.684 1524.13 831.48 1523 836L1524 836L1531 821L1527 824L1522 815L1530 812L1523 793L1514 792C1515.33 779.293 1506.84 783.746 1498 782.546C1482.96 780.503 1466.95 781.489 1452 784.353C1449.6 784.813 1447.7 786.978 1445.33 787.237C1442.57 787.537 1441.09 783.921 1440 782L1454 783L1456 779L1453 779L1456 773L1453 772L1453 771L1461 772C1467.47 767.396 1472.3 766.554 1480 768C1490.42 756.476 1505.1 767.134 1517 758L1520 760L1526 756L1526 755L1523 751L1505 744L1505 743L1514 741C1511.81 736.221 1510.29 733.397 1505 732L1520 728.296L1531.1 718.603L1560 716C1557.07 711.34 1547.52 704.669 1542 706L1542 703L1538 701L1536 704L1536 700L1532 700L1536 693L1539 694L1539 689C1534.1 689.645 1526 692.714 1525 685L1529 686L1530 681L1525 681L1523 677C1538.67 674.816 1547.8 697.156 1556.56 706.772C1559.44 709.933 1563.34 709.795 1567 711.418C1576.81 715.777 1582.13 721.121 1592.69 713.661C1594.96 712.056 1595.62 709.506 1598 708L1596 699L1601 691L1588.92 674L1576.53 641L1556 616L1558 613L1562 616L1549 599L1550 599L1550 602L1551 602C1551.78 597.919 1551.6 594.47 1548 592L1549 584L1553 589L1554 589L1555 581L1558 580L1556 575L1570 578L1568 575C1572.21 576.696 1578.79 583.865 1583.03 583.694C1588.3 583.481 1588.46 574.915 1583 574L1583 573L1588 566L1589 559L1586 556L1589 555L1586 542L1593 544L1588 535L1587 535L1586 537C1586.53 531.098 1587.05 524.558 1579 526L1569 518L1568 518L1567 521L1568 515L1557 504L1557 503L1565 500L1562 491L1565 492L1560 488L1560 487C1564.26 485.329 1567.98 481.841 1572.91 483.048C1579.67 484.706 1586.81 491.357 1594.85 488.919C1601.24 486.983 1593.88 480.621 1595.97 477.098C1597.96 473.738 1610.27 472.226 1614 472L1619.19 456.089L1616 443L1613 442L1619.23 433.857L1621 406L1607 409L1610 408L1609 405L1588.23 406.759L1583 399C1587.89 393.192 1579.18 381.356 1580 374C1584.37 376.646 1587.47 376.152 1589 371L1579 366L1579 365C1582.1 362.261 1578.76 360.314 1576 359L1579 348L1577 348L1574 352L1574 347L1568 350C1570.51 343.59 1574.13 343.658 1580 342L1578 340L1583 335L1582 338L1594.02 329.839L1623 322L1623 314L1627 316C1628.52 312.457 1631.28 306.982 1628 304L1628 303L1634 304L1633 299C1641.83 300.542 1646.46 294.316 1654 291L1654 289L1647 288L1644 292C1645.99 287.87 1648.39 286.106 1653 286L1657 277L1657 281L1659 275L1654 277L1652 266L1654 261L1658 257L1654 258L1656 252L1653 247L1652 247L1648 253L1651 247C1642.97 245.163 1641.59 245.293 1646 238L1637 238C1631.21 235.157 1624 237.314 1618 239L1624 226L1604 221C1599.54 226.078 1595.79 221.754 1590.42 223.684C1574.98 229.24 1558.84 235.987 1542 233C1536.24 238.232 1527.81 234.741 1521 234.246C1505.95 233.154 1485.95 230.771 1472 237L1472 229L1456 230L1460 218L1440 224L1439 221L1442 220C1436.49 217.102 1425.87 226.097 1420 228C1418.73 223.641 1413.16 223.04 1409 223.037C1400.24 223.03 1381.95 223.428 1379 233L1378 233L1382 224L1382 223C1369.78 209.956 1391.95 202.99 1395 193L1397 194L1401 183L1404 184C1405.8 180.254 1405.42 175.589 1407.74 172.17C1411.66 166.384 1419.27 161.929 1421.43 154.999C1422.7 150.92 1420.25 147.383 1420.3 143.385C1420.36 138.856 1423.26 132.903 1425.41 129C1429.38 121.811 1437.19 115.611 1440.13 107.985C1441.36 104.787 1440.11 101.312 1440.8 98C1441.54 94.4459 1443.63 90.848 1442.25 87.1697C1437.85 75.4318 1429.66 80.9627 1422 77L1396 97C1386.27 109.421 1374.57 115.943 1369 132L1363 129L1356 144L1355 144L1354 140L1343 148L1346 141L1339 142C1338.31 138.803 1336.95 139.254 1334 140L1334 131L1332 132L1336 115L1328 114C1325.82 118.811 1323.12 121.536 1319 117C1315.24 118.522 1313.64 119.943 1313 124L1309 120L1305 128L1303 128L1300 122C1296.88 126.105 1295.41 128.865 1290 127L1288 144C1282.69 141.863 1278.38 145.15 1276 150L1271 146L1270 146L1266 148C1268.48 144.242 1271.87 140.199 1269 136L1269 135C1275.29 130.783 1274.4 125.703 1276 119L1264 131.238L1244 130L1244 129C1246.69 127.536 1245.94 124.624 1245 122L1225.46 121.394L1211 130L1205 125L1204 129L1186 132L1189 139L1189 140L1191 161L1189 161L1187 154L1173 168L1173 163L1164 166L1160 162L1160 158L1159 158L1153 166L1157 150L1149 156C1145.77 152.424 1147.4 150.125 1149 146C1140.5 150.71 1137.28 167.023 1138 176L1128 171C1136.07 167.019 1134.86 155.715 1137 148L1135 145C1130.03 146.654 1121.69 162.939 1120 168L1119 168C1120.99 159.886 1129.38 153.741 1127 145L1122 150L1122 141L1118 140C1120.62 133.209 1121.34 125.008 1126.42 119.44C1134.24 110.853 1141.89 113.941 1145 101L1141 97L1146 100L1146 89L1153 90C1152.49 86.3469 1151.48 83.3107 1156 83C1158.37 77.0083 1162.81 69.472 1156 65L1153 72L1152 69L1148 74L1147 63L1142 71L1139 69L1138 75L1136 72L1134 73L1132 65L1129 68C1118.64 63.0522 1130.5 54.3776 1132 47L1126 49L1130.11 39.8711L1127 17L1118 19C1118.75 14.1799 1117.62 12.1641 1114 9L1115 4L1101 4L1101 0C1094.32 0.0369873 1082.09 6.7677 1081 0C1074.37 0 1067.41 -1.32898 1062 3L1063 0L1056 4L1056 0L993 0C994.097 8.69128 997.444 24.7368 989 30L991 0L984 0L984 4L982 4L982 0C966.5 0.515015 974.344 20.807 971.697 29.9598C970.16 35.2745 960.743 41.5133 956 44L959 40L957 31L949 38L949 25C937.951 25.0391 940.117 32.3174 934 39L936 31C928.316 29.2659 929.026 37.4781 928 43L927 43L918 25L912 31L912 32L914 35L910 36C910.257 31.0238 908.805 29.2728 904 28C900.818 30.3687 898.784 29.6191 896 27L888 28C891.755 22.7152 904.497 16.3813 895 11L898 5L891 5L891 0L887 0C887.398 11.7472 877.524 17.1641 867 20C867.245 9.93518 855.569 14.9661 858 24L846 10L851 20L841 20C845.738 13.5192 842.124 10.7042 835 11L837 7L831 7L832 14C837.936 17.8605 838.987 22.7385 831 19L832 22L827 17L824 18L824 30L829 32L826 35C823.628 33.6183 821.161 32.271 819.018 30.54C807.474 21.2162 817.432 11.0684 818 0C813.791 1.47961 814.511 5.3606 811.683 8.38037C805.83 14.6296 800.009 12.8549 797 22L793 21L790 28L788 23L778 24C774.534 29.2316 771.167 27.8672 770 22L762 28L762 19L761 18L757 20L756 17C750.418 20.2465 754.164 39.8649 759 43L758 48L754 45L751 46C748.256 41.7034 744.324 35.2421 739 35L741 40L735 40L732 37L714 40L714 37L708 34L704 35L704 36L712 43L712 49L704 50L703 47L695 48L696 51C688.487 46.949 694.425 33.6819 689 33L694 0L623 0z"/>
<path style="fill:#fcfcfc; stroke:none;" d="M694 0L689 33C695.72 33.8783 685.681 48.1179 696 51L695 48L703 47L704 50L712 49L712 43L704 36L704 35L708 34C708.729 37.4028 710.806 36.9865 714 37L714 40C718.871 39.843 730.514 41.2083 732 37L735 40L741 40L739 35L751 46L754 45L758 48L759 43C754.655 38.7449 750.542 21.1964 756 17L757 20L761 18L762 19L762 28L770 22C770.677 27.9316 775.211 30.1395 778 24L788 23L790 28L793 21L797 22C801.801 11.4427 812.658 12.3425 815 0L694 0M818 0C816.512 14.8496 806.201 27.0259 826 35L829 32L828 29L824 30L827 17L832 22L831 19C838.633 24.1407 839.119 17.2111 832 14L831 7L837 7L835 11C841.913 12.1448 844.608 13.1946 841 20L851 20L846 10L858 24C857.058 16.4875 864.85 10.1331 867 20C878.165 18.2728 887.889 11.686 887 0L818 0M891 0L891 5L898 5L895 11C902.712 17.7545 891.059 21.576 888 28L896 27C898.13 29.9543 901.403 30.9713 904 28C908.354 29.7069 910.018 31.2534 910 36L914 35L912 32L912 31L918 25L927 43L928 43C929.309 37.5165 928.575 30.3627 936 31L934 39L937 38C936.934 30.1975 941.331 25.0906 949 25L949 38L957 31L959 40L956 44C973.726 38.3608 969.966 26.7572 971.622 13C972.164 8.49927 974.763 4.32715 976 0L891 0M982 0L982 4L984 4L984 0L982 0M991 0L989 30C995.987 27.0349 997.039 4.59741 991 0M1056 0L1056 4L1060 0L1056 0M1063 0L1062 3L1063 0M1081 0C1081.57 7.27405 1086.29 5.05212 1089 0L1081 0M1093 0L1094 1L1093 0M1101 0L1101 4C1106.92 5.14685 1109.16 6.91565 1115 4L1114 9L1118 19L1127 17L1129.55 38.9459L1126 49L1132 47C1129.69 53.8259 1117.63 64.2279 1129 68L1132 65L1134 73L1136 72L1138 75L1139 69L1142 71L1147 63L1148 74L1152 69L1153 72C1156.12 70.1932 1156.18 68.5088 1156 65C1161.87 70.8194 1157.98 76.1467 1156 83C1151.29 83.2225 1152.11 86.1774 1153 90L1146 89L1146 100L1141 97L1145 101L1141.09 110.775L1126.42 118.619L1118 140L1122 141L1122 150L1127 145L1119 168L1120 168L1135 145L1137 148C1133.66 156.257 1135.85 165.15 1128 171L1138 176C1137.65 166.013 1141.1 152.607 1149 146C1146.9 149.823 1144.93 153.05 1149 156L1157 150L1153 166L1159 158L1160 158L1160 162L1164 166L1173 163L1173 168L1187 154L1189 161L1191 161L1189 140L1189 139L1186 132L1204 129L1205 125L1211 130L1225.46 121.763L1245 122L1244 129L1244 130L1264.99 131.387L1276 119C1274.01 125.727 1274.51 129.841 1269 135L1269 136L1266 148L1270 146L1271 146L1276 150C1279.15 145.759 1282.57 142.946 1288 144L1290 127C1295.41 129.745 1297.44 126.749 1300 122L1303 128L1305 128L1309 120L1313 124L1319 117C1322.62 122.43 1326.47 118.986 1328 114C1331.11 116.194 1332.54 116.669 1336 115L1332 132L1334 131L1334 140L1339 142L1346 141L1343 148L1354 140L1355 144L1356 144L1363 129L1369 132L1382.32 110.093L1396 97C1406.05 96.5786 1412.69 81.4024 1422 77C1424.46 79.5471 1427.69 77.3185 1431 77.7384C1435.7 78.3339 1440.8 83.5974 1442.17 88.0895C1443.19 91.4288 1441.14 94.7799 1440.53 98C1439.91 101.343 1441.13 104.809 1439.65 107.985C1434.77 118.415 1425.74 125.801 1421.68 137C1419.39 143.321 1422.88 148.227 1421.38 154C1420.36 157.93 1416.64 161.131 1414.14 164.166C1410.4 168.696 1405.72 181.788 1401 183L1397 194L1395 193C1391.34 200.202 1368.08 213.164 1382 223L1382 224L1378 233L1379 233C1383.78 224.064 1413.75 217.771 1420 228L1442 220L1439 221L1440 224L1460 218L1456 230L1472 229L1472 237C1487.58 232.508 1505.81 232.898 1522 234.714C1527.77 235.36 1538.03 238.603 1542 233C1558.42 236.863 1576.1 229.417 1591.12 223.85C1596.2 221.965 1600.6 227.113 1604 221L1624 226L1618 239L1637 238L1646 238C1639.95 244.88 1643.31 246.113 1651 247L1648 253C1651.32 251.901 1651.74 250.41 1652 247L1653 247C1653.06 249.993 1652.95 251.346 1656 252L1654 258L1658 257L1654 261L1652 266L1654 277L1659 275L1657 281L1657 277C1653.7 279.288 1652.88 282.051 1653 286C1648.18 285.341 1645.34 287.351 1644 292L1647 288L1654 289L1654 291L1633 299L1634 304L1632 302L1628 303L1628 304L1627 316L1623 314L1623 322L1610 328.194L1592.14 330.148L1582 338L1583 335L1578 340L1580 342C1573.91 342.947 1569.62 343.255 1568 350L1574 347L1574 352L1577 348L1579 348L1576 359C1578.61 360.809 1580.78 361.945 1579 365L1579 366L1589 371C1586.75 375.594 1584.49 376.181 1580 374L1583 399L1587.34 406.929L1609 405L1610 408L1607 409C1611.88 413.78 1615.51 406.853 1621 406L1618.97 432.942L1613 442L1616 443L1618.7 457.039L1614 472C1610.31 471.619 1597.08 473.457 1595.47 477.243C1593.95 480.801 1600.5 487.198 1594.23 488.767C1585.92 490.843 1579.31 483.347 1572.25 482.403C1567.55 481.775 1563.81 484.823 1560 487L1560 488L1565 492L1562 491L1565 500L1557 503L1557 504L1568 515L1567 521L1568 518L1569 518L1579 526C1587.47 524.663 1586.65 535.81 1587 535L1588 535L1593 544L1586 542C1583.28 547.323 1586.68 550.135 1589 555L1586 556L1589 559L1588 566L1583 573L1583 574C1587.45 575.396 1587.71 583.748 1582.69 583.307C1578.06 582.901 1573.09 576.281 1568 575L1570 578L1556 575L1558 580L1555 581L1554 589L1553 589L1549 584L1548 592L1551 602L1550 602L1550 599L1549 599L1562 616L1558 613L1556 616L1572.13 636L1593.21 680.576L1601 691L1596 699L1598 708C1593.72 708.918 1590.14 715.362 1584.39 717.083C1578.23 718.925 1564.2 712.031 1559.03 708.5C1547.7 700.772 1540.71 672.311 1523 677L1525 681L1530 681L1529 686L1525 685L1527 687C1529.87 692.792 1533.92 690.81 1539 689L1539 694L1536 693L1532 700L1536 700L1536 704L1538 701L1542 706C1547.73 705.275 1556.09 711.887 1560 716L1530.21 718.603L1519 728.283L1505 732L1514 741L1505 743L1505 744L1523 751L1526 755L1526 756C1522.59 756.263 1521.1 756.679 1520 760L1517 758C1505.64 764.659 1487.25 756.237 1480 768C1472.66 766.192 1466.6 766.341 1461 772L1453 771L1453 772L1456 773L1453 779L1456 779L1454 783L1440 782C1440.9 784.285 1442.06 787.649 1445.09 787.659C1447.94 787.668 1450.16 784.885 1453 784.484C1468.21 782.332 1482.71 780.881 1498 782.707C1506.83 783.761 1514.4 779.781 1514 792L1523 793L1530 812L1522 815L1527 824L1531 821L1524 836L1523 836C1522.43 831.709 1512.2 832.852 1509.89 835.644C1507.68 838.327 1512.34 842.353 1513 845L1508 850C1504.31 850.12 1502.22 850.313 1501 854L1499 853L1490.89 857.617L1486 874L1485 874C1484.23 869.958 1484.25 866.411 1480 865C1478.81 867.561 1464.93 876.032 1477 874L1468 880L1463 881C1463.21 887.916 1466.63 890.866 1473 893L1465 897L1464 897L1459 893L1456 911L1453 909L1452 926L1448 924L1448 928L1446 928L1443 921L1442 921L1428 928L1432 920L1432 918L1428 917L1421.76 923.224L1417 937L1416 936C1418.99 932.812 1420.02 929.709 1416 927L1414 936L1410 934C1410.02 941.07 1411.73 944.625 1419 946L1418 950L1422 952C1416.3 952.714 1409.45 955.348 1412 962L1398 959L1397 959C1394.08 963.767 1394.39 966.805 1396 972L1384 965C1373.68 966.495 1368.43 960.085 1363 972C1353.74 967.483 1354.36 980.277 1353 986L1351 986L1352 977C1348.45 978.039 1348.25 980.53 1348 984L1343 979L1341 981L1340 981L1334 970L1330 971L1332 975L1324 974L1318 963L1314 964L1310 960C1306.25 969.605 1314.15 976.685 1319.28 982.433C1323.55 987.224 1327.17 994.599 1331 1000L1334 999L1333 1005L1314.3 995.974L1303 989C1304.49 996.057 1303.92 1000.23 1298 1005L1302 994L1301 994L1300 997L1298 997L1297 994L1292 995L1294 1000L1292 996C1283.63 995.861 1284.05 982.87 1278 978C1278.05 984.279 1279.85 994.303 1283.94 999.316C1286.21 1002.1 1290.07 1003.04 1291.97 1006.29C1293.85 1009.5 1294.13 1013.6 1296 1017L1293 1020L1299 1028L1288.2 1016.92L1281 1028L1280 1021L1283 1017L1277 1013L1276 1021L1270 1022L1270 1031L1269 1031L1268 1029L1264 1032L1264 1021L1254 1024C1260.26 1029.46 1258.26 1040.41 1253 1046L1252 1042C1249.67 1045.12 1250.56 1047.57 1252 1051L1246 1057L1245 1057L1241 1043C1232.89 1048.25 1243.31 1062.17 1241 1070L1240 1070C1237.17 1061.17 1232.4 1053.18 1230.51 1044C1227.42 1028.9 1227.59 1007.13 1213 997L1221 1021L1204 1010L1204 1014L1193 999L1192 999L1195 1016C1186.28 1015.71 1186.31 1008.32 1186 1001L1189 1002C1189.14 998.29 1188.28 996.736 1185 995C1180.34 1000.61 1174.3 999.155 1168 1001C1173.75 1014.69 1178.28 1020.53 1176 1036L1181 1040L1172 1048C1175.63 1033.98 1168.23 1025.69 1160.85 1014.71C1157.57 1009.84 1158.5 1005.75 1152 1004C1154.4 991 1147.42 982.313 1136 977L1132 988C1137.2 989.916 1136.37 993.135 1136 998L1140 999L1135 1007L1135 1008L1140 1007L1138 1012C1143.72 1015.92 1151.45 1021.72 1152 1029L1140 1019L1137 1020L1137 1019L1139 1017L1134 1020L1134 1011C1123.49 1009.71 1121.64 1002.8 1119 993L1118 993L1104 1019L1102 1019L1101 1016L1093 1018L1092 1018L1091 1016L1090 1016C1082.43 1024.04 1086.47 1028.92 1090 1038L1086 1039C1088.32 1048.27 1096.35 1056.76 1104.09 1062.44C1110.97 1067.48 1118.45 1069.48 1117 1080L1920 1080L1920 0L1110 0L1110 4L1108 4L1108 0L1101 0z"/>
<path style="fill:#040404; stroke:none;" d="M1108 0L1108 4L1110 4L1110 0L1108 0z"/>
<path style="fill:#fcfcfc; stroke:none;" d="M1068 2L1067 8L1070 2L1068 2M1075.33 2.66663L1075.67 3.33337L1075.33 2.66663M1092 2L1092 4L1094 4L1094 2L1092 2M999 9L1001 12L999 9z"/>
<path style="fill:#040404; stroke:none;" d="M869 11L868 16L869 16L872 11L869 11z"/>
<path style="fill:#fcfcfc; stroke:none;" d="M1000 13L1002 16L1000 13M862 16L860 20L865 22L862 16z"/>
<path style="fill:#040404; stroke:none;" d="M774 19L775 20L774 19M953.667 19.3334L954.333 19.6666L953.667 19.3334M775 21L775 24L776 24L775 21z"/>
<path style="fill:#fcfcfc; stroke:none;" d="M876 35L875 27L879 28C877.295 17.2281 864.265 27.4139 876 35M797 22L798 23L797 22z"/>
<path style="fill:#040404; stroke:none;" d="M1132 22L1128 27L1128 28C1131.04 26.9602 1132.54 25.2778 1132 22M746 23L746 24L750 24L746 23M905 23L904 26L905 23M749 26C748.46 29.6748 749.464 30.9271 753 32L749 26z"/>
<path style="fill:#fcfcfc; stroke:none;" d="M1000 28L998 34L1000 28z"/>
<path style="fill:#040404; stroke:none;" d="M692 29L693 34L694 34L692 29z"/>
<path style="fill:#fcfcfc; stroke:none;" d="M768 34L769 34L771 29L768 34z"/>
<path style="fill:#040404; stroke:none;" d="M727 31L728 32L727 31z"/>
<path style="fill:#fcfcfc; stroke:none;" d="M782 33L783 36L784 36L784 33L782 33M1122 33L1125 36L1122 33M689 34L690 35L689 34M775 35L776 36L775 35M794 35L795 36L794 35M877 35L878 36L877 35M955 35L956 36L955 35M922 38L920 45L921 45L922 38z"/>
<path style="fill:#040404; stroke:none;" d="M693 41C693.386 45.9523 696.074 47.736 699 43L693 41z"/>
<path style="fill:#fcfcfc; stroke:none;" d="M880 41L882 44L880 41M950 41L950 44L951 44L950 41M741 42C740.078 46.4828 740.836 48.8982 745 51L741 42M947 42L947 48L948 48L947 42M786.667 45.3334L787.333 45.6666L786.667 45.3334M726 49L727 50L726 49M711.333 50.6666L711.667 51.3334L711.333 50.6666M716 55L715 60L716 60L716 55M724 55L725 56L724 55z"/>
<path style="fill:#040404; stroke:none;" d="M1149 57L1148 60L1152 61L1151 57L1149 57z"/>
<path style="fill:#fcfcfc; stroke:none;" d="M703 59L704 60L703 59z"/>
<path style="fill:#040404; stroke:none;" d="M1135 61L1134 64L1135 61z"/>
<path style="fill:#fcfcfc; stroke:none;" d="M699 64L699 68L704 68L699 64M1123 67L1122 74C1124.76 71.9747 1124.84 69.7932 1123 67M1129 74L1132 72L1129 74M1141 73L1144 78L1141 73M1144 79L1146 81L1146 79L1144 79z"/>
<path style="fill:#040404; stroke:none;" d="M1155 84L1154 86L1156 86L1155 84M1149 94L1150 95L1149 94M581.333 110.667L581.667 111.333L581.333 110.667M498 111L500 113L500 111L498 111z"/>
<path style="fill:#fcfcfc; stroke:none;" d="M506 111L507 112L506 111M504.333 117.667L504.667 118.333L504.333 117.667M698 117L691 132L696 129L698 131L698 132L692 140L695 138L698 140L702 135L699 158L714 167L728 173L750 178L748 184L754 186L754 182L753 174L762 176L755 167C764.295 167.109 769.474 175.616 777.895 176.712C786.335 177.811 787.017 161.759 785 157L782 157C775.495 169.237 766.372 160.01 758 155.363C751.979 152.022 746.047 150.401 740 146.738C735.954 144.288 726.062 145.833 728 139L698 117z"/>
<path style="fill:#040404; stroke:none;" d="M1247 118L1246 120L1248 120L1247 118z"/>
<path style="fill:#fcfcfc; stroke:none;" d="M693 119L694 120L693 119M1118.67 119.333L1119.33 119.667L1118.67 119.333M590 129L588 132C590.251 131.527 591.118 131.14 590 129M596 131L597 132L596 131M1190 139L1189 142L1190 139z"/>
<path style="fill:#040404; stroke:none;" d="M1137 142C1136.2 145.435 1136.7 146.672 1140 148L1137 142M468.667 143.333L469.333 143.667L468.667 143.333M1157 143L1157 144L1160 144L1157 143M1270 143L1270 145L1272 145L1272 143L1270 143z"/>
<path style="fill:#fcfcfc; stroke:none;" d="M693 145L694 146L693 145M1099 147L1100 148L1099 147M1116 147L1116 150L1117 150L1116 147z"/>
<path style="fill:#040404; stroke:none;" d="M1156 147L1157 148L1156 147z"/>
<path style="fill:#fcfcfc; stroke:none;" d="M1420 151L1418 154L1420 151z"/>
<path style="fill:#040404; stroke:none;" d="M709 157L712 160L711 157L709 157M750.667 165.333L751.333 165.667L750.667 165.333z"/>
<path style="fill:#fcfcfc; stroke:none;" d="M1163 166L1159 174C1162.73 172.224 1164.69 170.134 1163 166M699 167L699 171L700 171L699 167M1104 172L1108 172L1109 167L1104 172z"/>
<path style="fill:#040404; stroke:none;" d="M735 171L736 172L735 171z"/>
<path style="fill:#fcfcfc; stroke:none;" d="M704 176L707 173L704 176M481 175L484 178L481 175M710 175L709 180L712 175L710 175M742 176C741.362 179.332 741.706 180.842 745 182L744 176L742 176M482 179L481 181L482 179M1099.67 179.333L1100.33 179.667L1099.67 179.333M1113 179L1112 184C1115.24 183.292 1114.77 181.398 1113 179M712 181L715 184L712 181z"/>
<path style="fill:#040404; stroke:none;" d="M475 186L476 187L475 186M404 189L405 190L404 189z"/>
<path style="fill:#fcfcfc; stroke:none;" d="M479 191L480 192L479 191M726.667 191.333L727.333 191.667L726.667 191.333M408 195L409 196L408 195M1391 196L1392 197L1391 196M479 206L478 208L479 206z"/>
<path style="fill:#040404; stroke:none;" d="M455 207L456 208L455 207M456 209L457 210L456 209z"/>
<path style="fill:#fcfcfc; stroke:none;" d="M479 209L480 210L479 209z"/>
<path style="fill:#040404; stroke:none;" d="M327 211L328 212L327 211z"/>
<path style="fill:#fcfcfc; stroke:none;" d="M1373 217L1374 218L1373 217z"/>
<path style="fill:#040404; stroke:none;" d="M1612 217L1612 221L1615 217L1612 217z"/>
<path style="fill:#fcfcfc; stroke:none;" d="M1373 219L1374 220L1373 219M1377 221L1377 224L1378 224L1377 221M454.667 223.333L455.333 223.667L454.667 223.333M456 225L457 226L456 225z"/>
<path style="fill:#040404; stroke:none;" d="M1526 231L1526 232L1538 232L1526 231z"/>
<path style="fill:#fcfcfc; stroke:none;" d="M1455 230L1456 231L1455 230M475 233L475 236L478 236L478 233L475 233M456 237L458 239L456 237M466.333 238.667L466.667 239.333L466.333 238.667M1617 239L1618 240L1617 239M1648.33 254.667L1648.67 255.333L1648.33 254.667M330.667 255.333L331.333 255.667L330.667 255.333M336 257L341 262L336 257z"/>
<path style="fill:#040404; stroke:none;" d="M1656 285L1656 289L1657 289L1658 285L1656 285z"/>
<path style="fill:#fcfcfc; stroke:none;" d="M336 292L340 289L336 292M330 295L331 296L330 295M1640 295L1641 296L1640 295M1639 298L1640 299L1639 298M328 305L330 307L328 305M1625.67 307.333L1626.33 307.667L1625.67 307.333z"/>
<path style="fill:#040404; stroke:none;" d="M314.333 310.667L314.667 311.333L314.333 310.667z"/>
<path style="fill:#fcfcfc; stroke:none;" d="M1624 311L1624 312L1627 312L1624 311M306 325L304 330L308 332L308 325L306 325M293 341L292 344L293 341z"/>
<path style="fill:#040404; stroke:none;" d="M283 345L284 346L283 345z"/>
<path style="fill:#fcfcfc; stroke:none;" d="M1572 348L1573 349L1572 348M1567 351L1568 352L1567 351z"/>
<path style="fill:#040404; stroke:none;" d="M290 357L291 358L290 357M1578 357L1579 358L1578 357z"/>
<path style="fill:#fcfcfc; stroke:none;" d="M1577.67 367.333L1578.33 367.667L1577.67 367.333M280 373L280 376L281 376L280 373z"/>
<path style="fill:#040404; stroke:none;" d="M275 383L276 384L275 383M272 385L273 386L272 385z"/>
<path style="fill:#fcfcfc; stroke:none;" d="M1578.67 391.333L1579.33 391.667L1578.67 391.333z"/>
<path style="fill:#040404; stroke:none;" d="M1586.67 397.333L1587.33 397.667L1586.67 397.333M267 410L266 415L267 415L267 410z"/>
<path style="fill:#fcfcfc; stroke:none;" d="M1605 411L1606 412L1605 411M1592 415L1592 416L1595 416L1592 415M371 427L372 428L371 427M379 427L380 428L379 427M269 428L268 432L269 428M388 431L389 432L388 431M277 439L278 440L277 439z"/>
<path style="fill:#040404; stroke:none;" d="M349.667 439.333L350.333 439.667L349.667 439.333z"/>
<path style="fill:#fcfcfc; stroke:none;" d="M354.333 446.667L354.667 447.333L354.333 446.667M271 447L272 448L271 447z"/>
<path style="fill:#040404; stroke:none;" d="M322 467L324 469L324 467L322 467M1596 479L1597 480L1596 479z"/>
<path style="fill:#fcfcfc; stroke:none;" d="M267 487L268 488L267 487M1558 487L1559 488L1558 487M1553.67 491.333L1554.33 491.667L1553.67 491.333M278 495L279 496L278 495z"/>
<path style="fill:#040404; stroke:none;" d="M1566 511L1566 513L1568 513L1568 511L1566 511M1572.33 518.667L1572.67 519.333L1572.33 518.667z"/>
<path style="fill:#fcfcfc; stroke:none;" d="M1589 542L1590 543L1589 542M1585 555L1586 556L1585 555z"/>
<path style="fill:#040404; stroke:none;" d="M307 573L308 574L307 573M307 575L308 576L307 575z"/>
<path style="fill:#fcfcfc; stroke:none;" d="M1553 579L1554 580L1553 579z"/>
<path style="fill:#040404; stroke:none;" d="M1590 579L1591 580L1590 579M303 589L302 592L303 589z"/>
<path style="fill:#fcfcfc; stroke:none;" d="M322 591L323 592L322 591z"/>
<path style="fill:#040404; stroke:none;" d="M268 597L268 600L270 600L270 597L268 597z"/>
<path style="fill:#fcfcfc; stroke:none;" d="M1542 597L1543 598L1542 597z"/>
<path style="fill:#040404; stroke:none;" d="M280 615L281 616L280 615z"/>
<path style="fill:#fcfcfc; stroke:none;" d="M302 631L303 632L302 631z"/>
<path style="fill:#040404; stroke:none;" d="M283 635L284 636L283 635z"/>
<path style="fill:#fcfcfc; stroke:none;" d="M308 639L309 640L308 639M294 645L294 649L295 649L294 645M296 651L297 652L296 651z"/>
<path style="fill:#040404; stroke:none;" d="M239 659L240 660L239 659z"/>
<path style="fill:#fcfcfc; stroke:none;" d="M289.667 661.333L290.333 661.667L289.667 661.333M1517 676L1517 680C1520.49 679.419 1521.55 678.56 1521 675L1517 676M243 683L249 686C247.842 682.706 246.332 682.362 243 683M256 687L256 688L260 688L256 687M1535 690L1536 691L1535 690z"/>
<path style="fill:#040404; stroke:none;" d="M1536.67 697.333L1537.33 697.667L1536.67 697.333z"/>
<path style="fill:#fcfcfc; stroke:none;" d="M1528.67 699.333L1529.33 699.667L1528.67 699.333M1539 705L1540 706L1539 705M308 721L310 724L308 721M318 725L317 731L324 732L320 730L320 725L318 725M1496 726L1498 728L1496 726M1459.67 759.333L1460.33 759.667L1459.67 759.333z"/>
<path style="fill:#040404; stroke:none;" d="M1486 764L1487 765L1486 764z"/>
<path style="fill:#fcfcfc; stroke:none;" d="M1425 771L1426 772L1425 771M222 779L223 780L222 779z"/>
<path style="fill:#040404; stroke:none;" d="M215 780L216 781L215 780M262 823C263.246 828.948 269.587 829.961 273 825L272 824L262 823M1532 835L1533 836L1532 835z"/>
<path style="fill:#fcfcfc; stroke:none;" d="M288 863L289 864L288 863M292 863L293 864L292 863M1475 863L1475 865L1477 863L1475 863M339 883L340 884L339 883M596 883L598 885L598 883L596 883M1461.33 886.667L1461.67 887.333L1461.33 886.667M599 887L600 888L599 887M328 891L329 892L328 891M600 893L600 896L602 895L602 894L600 893M1441.67 893.333L1442.33 893.667L1441.67 893.333M348 897L349 898L348 897M288 899L289 900L288 899z"/>
<path style="fill:#040404; stroke:none;" d="M278 903L279 904L278 903z"/>
<path style="fill:#fcfcfc; stroke:none;" d="M1450 907L1451 908L1450 907M1448 909L1445 911L1445 912L1448 913L1448 909M1412 917L1412 920L1414 920L1414 917L1412 917M1416 917L1417 918L1416 917M1403 925L1405 928L1403 925M587.333 927.667L587.667 928.333L587.333 927.667M646 927L647 928L646 927z"/>
<path style="fill:#040404; stroke:none;" d="M342 931L338 935L338 936C341.22 935.465 343.124 934.428 342 931z"/>
<path style="fill:#fcfcfc; stroke:none;" d="M348.667 931.333L349.333 931.667L348.667 931.333M1407 931L1408 932L1407 931M648 934L647 936L649 936L648 934M1303 934L1302 939L1305 934L1303 934z"/>
<path style="fill:#040404; stroke:none;" d="M592 937L593 938L592 937z"/>
<path style="fill:#fcfcfc; stroke:none;" d="M1306 940L1306 942L1308 942L1306 940M1305 944L1304 948L1305 944z"/>
<path style="fill:#040404; stroke:none;" d="M624 945L628 948L624 945z"/>
<path style="fill:#fcfcfc; stroke:none;" d="M346 947L347 948L346 947M1266 949L1267 956L1262 958L1262 960L1271 965L1266 957L1269 956L1266 949M1309.33 954.667L1309.67 955.333L1309.33 954.667M1410 955L1411 956L1410 955z"/>
<path style="fill:#040404; stroke:none;" d="M634 957L634 960L636 960L636 957L634 957z"/>
<path style="fill:#fcfcfc; stroke:none;" d="M1315 959L1315 960L1319 960L1315 959M376.333 962.667L376.667 963.333L376.333 962.667M1273 971L1278 978L1273 971M1282 971L1283 972L1282 971M365.667 975.333L366.333 975.667L365.667 975.333M391 977L390 982C394.322 981.106 396.106 979.322 397 975L391 977M513 975L514 976L513 975M1348 976L1349 977L1348 976M662 977L658 984C660.825 982.317 662.72 980.37 662 977z"/>
<path style="fill:#040404; stroke:none;" d="M1356 977L1357 984L1358 984L1358 977L1356 977z"/>
<path style="fill:#fcfcfc; stroke:none;" d="M691 979L691 980L695 980L691 979z"/>
<path style="fill:#040404; stroke:none;" d="M351 980L351 982L353 980L351 980M352 985L352 988L354 988L354 985L352 985z"/>
<path style="fill:#fcfcfc; stroke:none;" d="M369.667 987.333L370.333 987.667L369.667 987.333M1300.67 987.333L1301.33 987.667L1300.67 987.333M490 989L490 993L491 993L490 989M652 989L651 993L652 993L652 989M1188 992L1192 992L1191 989L1188 992M978.667 991.333L979.333 991.667L978.667 991.333M1156.67 991.333L1157.33 991.667L1156.67 991.333M1312 991L1313 992L1312 991z"/>
<path style="fill:#040404; stroke:none;" d="M513 993L514 994L513 993z"/>
<path style="fill:#fcfcfc; stroke:none;" d="M625 995L626 996L625 995M648 995L649 996L648 995M1176.67 995.333L1177.33 995.667L1176.67 995.333z"/>
<path style="fill:#040404; stroke:none;" d="M1307.33 996.667L1307.67 997.333L1307.33 996.667z"/>
<path style="fill:#fcfcfc; stroke:none;" d="M632 997L630 1001L632 997z"/>
<path style="fill:#040404; stroke:none;" d="M397 999L398 1000L397 999M615 999L616 1000L615 999z"/>
<path style="fill:#fcfcfc; stroke:none;" d="M979 999L980 1000L979 999M1135 999L1136 1000L1135 999M628 1000L624 1006L628 1000M982 1000L984 1005L984 1000L982 1000z"/>
<path style="fill:#040404; stroke:none;" d="M368 1001L369 1002L368 1001M613 1003L613 1006L615 1006L615 1003L613 1003M1336 1003L1340 1010L1338 1003L1336 1003z"/>
<path style="fill:#fcfcfc; stroke:none;" d="M1129 1007L1130 1008L1129 1007M981 1009L976 1012C982.123 1021.61 979.509 1031.43 972 1040L970 1037C966.621 1046.72 963.913 1047.44 954 1048C961.462 1038.32 955.056 1035.44 952 1025L948 1026L946 1019L945 1019C944.531 1024.2 947.87 1027.23 948.276 1032.04C948.842 1038.75 945.159 1043.73 944.213 1050C943.381 1055.52 946.35 1059.76 946.458 1065C946.622 1072.87 938.8 1075.96 933 1079L933 1080C937.625 1079.98 940.12 1079.83 943 1076L944 1080L1016 1080C1015.03 1072.49 1008.18 1073.49 1002 1071L1001 1078C994.909 1074.67 996 1067.1 996 1061C993.529 1060.46 991.314 1059.78 988.998 1058.75C970.029 1050.28 996.029 1037.11 1000 1025L983 1016L983 1009L981 1009M1285 1011L1284 1013L1285 1011M1192 1013L1193 1014L1192 1013M1271 1016L1274 1016L1273 1014L1271 1016M972 1017L969 1032C974.813 1029.92 974.693 1021.69 972 1017z"/>
<path style="fill:#040404; stroke:none;" d="M415 1018L419 1020L415 1018z"/>
<path style="fill:#fcfcfc; stroke:none;" d="M994 1020L995 1021L997 1018L994 1020M928 1019L929 1020L928 1019M1174.67 1023.33L1175.33 1023.67L1174.67 1023.33z"/>
<path style="fill:#040404; stroke:none;" d="M1222 1023L1222 1024L1225 1024L1222 1023M1276 1023L1274 1028L1277 1027L1276 1023z"/>
<path style="fill:#fcfcfc; stroke:none;" d="M898 1027L892 1033L894.099 1040.99L882.607 1056.13L885 1068L880 1070L879 1065L878 1065L874 1080L932 1080L935 1068L939 1070L937 1068L937 1067L943 1064C935.432 1052.4 937.272 1049.2 941 1037C934.324 1038.44 926.161 1036.45 924 1029L917 1032L915 1029L915.528 1047.29L907 1060L900 1058C901.313 1049.49 909.251 1046.57 907 1037L906 1037C898.99 1048.08 900.609 1030.44 898 1027M928 1027L929 1028L928 1027M935.667 1031.33L936.333 1031.67L935.667 1031.33M957 1031L958 1032L957 1031M1077 1031L1077 1036L1078 1036L1077 1031M1249 1035L1250 1036L1249 1035M756 1043L757 1044L756 1043z"/>
<path style="fill:#040404; stroke:none;" d="M461 1044L460 1046L462 1046L461 1044z"/>
<path style="fill:#fcfcfc; stroke:none;" d="M816 1045L817 1046L816 1045M753 1052L760 1051L760 1056L757 1056L761 1080L768 1080L771 1063C763.953 1058.91 760.547 1042.59 753 1052M1048 1047L1050 1049L1050 1047L1048 1047M1066 1047L1067 1049L1068 1049L1069 1047L1066 1047M1246 1047L1248 1050L1248 1047L1246 1047M1032 1049L1033 1059L1023 1064L1018 1057L1019 1070L1024 1074L1019 1072C1017.35 1080.54 1024.67 1080 1031 1080C1031.82 1072.67 1036.32 1070.91 1043 1070L1036 1064C1040.68 1056.78 1039.19 1053.24 1032 1049z"/>
<path style="fill:#040404; stroke:none;" d="M1253 1049L1253 1051L1255 1051L1255 1049L1253 1049z"/>
<path style="fill:#fcfcfc; stroke:none;" d="M584 1051L584 1052L589 1052L584 1051M775 1051L773 1056C776.012 1055.35 776.498 1053.61 775 1051M789 1053L788 1056L791 1056L789 1053M756 1054L757 1055L756 1054M878 1054L876 1062C878.91 1059.94 879.326 1057.26 878 1054M768 1055L768 1058L770 1055L768 1055M1015 1055L1016 1056L1015 1055z"/>
<path style="fill:#040404; stroke:none;" d="M912 1057C911.547 1061.56 912.207 1067.05 916 1070L914 1057L912 1057z"/>
<path style="fill:#fcfcfc; stroke:none;" d="M1050 1057L1049 1080L1069 1080L1063 1068C1056.09 1069.47 1053.58 1062.98 1053 1057L1050 1057M1063 1064L1066 1064L1065 1062L1063 1064M1011 1063L1012 1064L1011 1063M862 1068L866 1065L862 1068M645 1080L667 1080L661 1067C653.742 1068.57 647.333 1072.75 645 1080M673 1080L685 1080L685 1070C676.4 1064.79 673.354 1071.89 673 1080M1063 1067L1064 1068L1063 1067M939 1068L940 1069L939 1068z"/>
<path style="fill:#040404; stroke:none;" d="M578 1069L578 1073L579 1073L580 1069L578 1069z"/>
<path style="fill:#fcfcfc; stroke:none;" d="M778 1080L792 1079C790.799 1076.41 784.748 1066.19 781.023 1070.62C779.255 1072.72 779.113 1077.37 778 1080M1080 1069L1079 1074L1080 1074L1080 1069M1099 1072L1099 1080L1101 1080C1101.95 1076.41 1101.67 1074.62 1099 1072M869 1074L868 1076L870 1076L869 1074M794.667 1075.33L795.333 1075.67L794.667 1075.33M862.667 1075.33L863.333 1075.67L862.667 1075.33M1111.67 1075.33L1112.33 1075.67L1111.67 1075.33z"/>
<path style="fill:#040404; stroke:none;" d="M942 1076L941 1080C944.021 1079.35 944.086 1078.09 942 1076z"/>
<path style="fill:#fcfcfc; stroke:none;" d="M697 1077L696 1078L696 1079L696 1080L699 1077L697 1077M828 1077L830 1080L828 1077M691 1079L691 1080L694 1080L691 1079M859.667 1079.33L860.333 1079.67L859.667 1079.33M1034.67 1079.33L1035.33 1079.67L1034.67 1079.33M1075 1079L1075 1080L1078 1080L1075 1079M1090 1079L1091 1080L1090 1079z"/>
</svg>
