<?xml version="1.0" standalone="yes"?>
<svg xmlns="http://www.w3.org/2000/svg" width="1920" height="1080">
<path style="fill:#fcfcfc; stroke:none;" d="M0 0L0 1080L492 1080L607 1080C619.308 1080 641.939 1085.25 642 1068L621.576 1073.48L615.397 1074.42L614 1061L617 1062L622.318 1050.04L640.83 1035.4L667.334 1009.6L674.478 996.133L689 983C678.327 981.033 667.835 999.079 661.589 1006.13C652.965 1015.87 641.362 1028.72 629.996 1035.19C613.529 1044.55 590.238 1050.64 577 1064C573.946 1056.55 568.953 1059.66 563 1062C566.141 1058.36 568.405 1052.85 572.224 1049.99C578.451 1045.33 586.815 1043.56 592.911 1038.59C601.884 1031.27 613.246 1018.36 625 1016L618 1000L614 1000L638.996 980.123L650 970L651 956L651 955L659 948L659 946C650.88 944.211 645.662 955.354 640 960L639 950L641 952L645 943L642 946L639 944L638 944C636.608 945.555 628.711 951.992 629.907 945.056C630.944 939.037 641.761 935.328 644.091 928.961C645.744 924.443 642.536 919.188 641 915L640 915L642 924L629 897L616.996 901.914L600 902L600 904L605 905L604 908L597 907L600 920L596 917C595.374 924.935 592.582 930.105 590.294 937.208C589.331 940.197 587.59 946.348 584 942L583 942C583.696 949.975 592.206 968.493 586 974L576 961C582.264 974.48 582.568 987.306 581 1002L569 992L568 986L566 986L564 1012L556 1012L553 999L552 999L550 1001L549 998L548 998C548.005 1002.94 546.17 1005.43 542 1008C542.753 1004.85 544.349 999.475 542.651 996.434C540.316 992.251 535.201 994.583 534 998L523 983C522.127 988.35 518.251 988.627 514 991L513 988L511 988L506 1000L505 997C500.263 997 503.44 993.074 506 992L504 989L503 989L498 1001L495 1000L496 1008L491 997L489 997L488 1011L487 1008L486 1008L500.676 1033L501 1052L496 1060L495 1060L491 1056L491 1062C485.074 1062 483.117 1057.48 479 1054L478 1058L469 1053L468 1053L468 1039L465 1037L461 1048L460 1048L456 1034C450.671 1038.04 447.083 1041.07 447 1048L444 1048L442 1032L441 1032L439 1044C435.184 1042.65 433 1042.04 430 1045L429 1045L423 1037L424 1032L426 1033L427 1032L421 1025C424.494 1022.88 425.489 1019.98 425 1016L414 1019L414 1018L420 1019L418 1008L414 1014L412 1007L411 1007L403 1029L403 1023L397 1026C392.876 1017.43 396.867 1008.63 399 1000L396 999L398 995C392.93 996.351 390.123 999.253 388 1004L385 1002L381 1007L387 982C377.868 985.232 372.629 994.341 369 1003L368 1003L366 982L364 977L352 988C353.95 982.528 354.194 978.316 348 976L348 978L343 976L343 973L347 972L346 968L332 972L332 969L331 969L328 969L328 965L327 965L324 969C325.768 961.323 338.719 954.595 345 950L345 949L341 952L340 952L344.873 932L342 923L324 935L336 915L340 916L340 913L343 914L346 903L330 910L325 917L329.179 903.174L339 889L334 889L334 896C330.143 895.956 325.53 898.049 322.461 894.504C319.82 891.452 327.165 883.311 319.151 883.883C306.235 884.807 303.526 899.058 298.718 907.557C296.198 912.012 292.128 912.76 289 909L283 911L286 906L281 906L286 900L286 899L278 900L289 879L280 881C276.971 873.396 278.65 870.022 286 875L287 870L289 872L290 872L296 868L296 866L287 868L284 861L282 861L281 865L273 856L283.148 843.353L297 846C298.764 842.233 302.995 836.127 299 833C295.255 839.721 282.144 836.44 281 829L288 828L286 826L290 824L272 824L272 822L281 820C279.221 808.875 278.363 810.971 268 809L267 812C264.151 805.911 267.206 804.986 273 806L277 800L277 798L276 797C269.82 799.023 261.626 794.151 258 800C248.82 791.602 216.139 796.976 215 782L219 782L219 781L215 781L227 772L223 769L224 764L227 765L227 759L232 755C235.651 755.556 236.593 754.314 238 751L228 748C233.577 743.973 239.547 745.176 240 737C233.024 739.1 225.976 747.4 224 735L203.996 730.894L193 734L195 732L189 720L199.996 719.976L218 712L216 705L220 701C214.8 700.142 209.011 702.149 206 697L212 698L215 691L201 687L201 685C211.349 683.291 214.623 681.508 205 673C219.406 667.674 225.292 679.08 239 680L239 679C225.864 671.806 209.96 660.303 204 646C214.834 650.019 222.949 661.055 233.985 664.469C238.952 666.006 240.911 658.767 246.001 660.847C254.375 664.27 263.609 674.431 273 667L266 661L269 660L265 654L286 665L295 651L288 644L291 637L286 633L292 636L293 636L294 633L300 636C295.297 626.932 290.215 622.366 281 619L281 617L284 613L290 616C286.897 606.342 273.035 607.127 272 597L278 600L295 596L293 593L300 591L302 597L303 597L303 589L304 592L319 592L307 579L310 580C309.903 569.176 299.202 550.847 287 562L286 562L285 553C280.636 555.663 276.952 558.665 274 553C280.3 551.999 285.246 548.249 287 542C279.915 538.629 276.701 534.179 274 527L282 528L252 491L260 492L260 491L256 483L276 491L276 486L278 488C283.109 486.464 284.826 484.314 285 479L303 485L328 471L325 473L327 465C332.338 465.617 337.555 461.629 340 457C348.384 457.878 355.912 444.417 356 437L351 438L365 426L368 428C366.242 423.022 360.354 417.796 355 419C356.178 427.998 348.589 429.521 343 434.745C327.662 449.082 307.168 456.178 288 464L284 460L285 453L284 453L284 456C277.966 454.262 270.386 454.632 265.559 449.608C256.353 440.026 260.449 422.133 271 416L269 412L269 411L281 404C277.956 397.852 272.932 399.18 267 400L268 389L272 391L273 386L277 387L280 372L280 371L273 351C280.7 354.763 281.256 360.918 291 361L289 358L289 357L288 349L292 348L292 347L286 349L283 346L283 345C286.762 341.941 289.807 335.29 295 339L296 339L296 325L300 330L301 330C300.076 321.562 298.944 317.956 294 311L291 312L292 307L296 308L295 306L298 305L298 311C307.042 307.839 307.694 313.181 311 320L312 320C316.063 314.177 318.935 309.215 319 302C328.431 301.281 325.924 290.235 327 283L334 288L333 282L334 281L336 281L337 284L340 284C338.371 270.092 325.797 271.312 321 259C313.133 260.295 313.133 251.705 321 253L322 247L309 248L308 245L304 247L302 239L306 240C307.683 237.069 310.359 227.586 312.446 226.063C317.849 222.122 321.76 225.922 325 218L326 218L326 222L328 222L329 211L337 210L338 210L344 215L344 207C346.711 207.577 347.395 207.768 348 205L351 207L352 201L356 202L352 189L354 192L359 187L364 188C365.762 182.441 369.648 183.852 374 186L373 183L378 181L380 184L380 179L383 183L385 182L403 196C404.665 192.531 406.227 191.985 410 192L406 179L408 184L412 184L411 177L426 188L423 192L428 192C429.045 195.572 432.25 197.592 433.308 201.039C435.172 207.114 432.312 210.855 437.24 216.42C443.134 223.075 451.69 220.472 449 211C454.875 214.493 461.715 219.366 464 226C470.636 221.959 460.683 214.341 457 211L460 203L468 209C468.355 203.63 472.32 207.105 475 209L472 199L476 200L471 192L473 187L474 190L477 187L472 173L480 178L475 159C469.17 155.122 469.327 147.433 468 141L469 141L475 148L477 141L478 141L480 144L476 126L483 127L485 136L491 140C495.764 133.292 493.158 124.653 493 117L499 124C504.745 120.75 500.637 115.353 498 111L501 113C506.856 106.87 506.512 110.699 513.089 110.127C516.785 109.805 520.187 106.69 524 106L524 105C520.031 101.333 519.416 96.2279 519 91L522 96L531 96L528 86C541.522 93.6635 534.067 108.742 540 121L542 112L543 112L550 133L554 125L558 125L557 132L560 129L562 136L565 121L567 124L568 119C573.077 125.084 565.997 133.859 574 137L582 112L590 120L588 111L590 111L591 126L592 126C595.284 112.046 581.329 93.8996 594 83L595 92L598 89L598 93L600 93C600 76.4977 598.973 59.057 603.289 43C606.532 30.9402 615.824 23.23 616 10L620 12L621.879 1.60339L613 0L588 0L476 0L0 0z"/>
<path style="fill:#040404; stroke:none;" d="M622 0L620 12L616 10C615.522 22.7102 606.422 30.3473 603.289 42C598.855 58.4944 600 76.0482 600 93L598 93L598 89L595 92L594 83C580.961 90.4254 594.103 114.144 592 126L591 126L590 111L588 111L590 120L582 112L574 137C566.087 132.246 574.955 124.798 568 119L567 124L565 121L562 136L560 129L557 132L558 125L554 125L550 133L543 112L542 112L540 121C535.743 109.341 541.156 91.3469 528 86L531 96L522 96C522.522 92.9078 522.081 91.8601 519 91C519.216 96.0065 519.416 102.196 524 105L524 106C520.08 106.404 516.801 109.193 513.089 109.493C506.64 110.014 505.88 105.862 501 113L498 111C500.074 115.839 503.538 119.77 499 124C497.906 120.003 497.342 117.724 493 117L491 140L485 136L483 127L476 126L480 144L478 141L477 141L475 148L469 141L468 141C468.821 147.096 468.86 156.219 475 159C471.288 166.113 478.432 170.972 480 178L472 173L477 187L474 190L473 187L471 192L476 200L472 199L475 209C472.394 206.48 468.277 203.401 468 209L460 203L457 211C460.297 215.108 469.369 221.354 464 226C462.61 219.233 455.205 213.493 449 211C450.961 220.53 442.823 221.934 437.24 215.574C432.345 209.998 435.534 206.026 433.383 200.089C432.293 197.083 429.407 194.91 428 192L423 192L426 188C421.969 181.809 418.065 178.776 411 177L412 184L408 184L406 179L410 192C406.093 191.798 404.212 192.094 403 196L385 182L383 183L380 179L380 184L378 181L373 183L374 186C369.837 183.264 365.063 181.877 364 188L359 187L354 192L354 189L352 189L356 202L352 201L351 207L348 205L344 207L344 215L338 210L337 210L329 211L328 222L326 222L326 218L325 218L311.649 226.031L306 240L302 239L304 247L308 245L309 248L322 247L321 253C312.577 250.757 312.577 261.243 321 259C323.693 269.344 331.481 267.736 337.261 274.495C339.385 276.979 339.329 280.934 340 284L337 284L336 281L334 281L333 282L334 288L327 283C325.166 290.154 328.451 300.524 319 302L312 320L311 320C308.405 312.896 306.901 306.455 298 311L298 305L295 306L296 308L292 307L291 312L294 311L301 330L300 330L296 325L296 339L295 339C290.564 333.95 285.836 341.754 283 345L283 346L286 349L292 347L292 348L288 349L289 357L289 358L291 361L273 351L280 371L280 372L277 387L273 386L272 391L268 389L267 400C273.168 399.578 277.01 398.549 281 404C274.915 405.453 272.477 405.477 269 411L269 412L271 416C258.64 418.672 258.704 436.741 262.833 445C263.88 447.093 263.73 450.214 266 451.5C269.182 453.303 283.243 459.247 284 453L285 453L284 460L288 464C306.6 458.693 328.929 448.908 343 435.475C348.716 430.018 357.009 428.391 355 419C360.262 418.55 365.438 423.628 368 428L365 426L351 438L356 437C355.761 444.354 347.784 456.593 340 457C336.721 461.133 332.397 464.683 327 465L325 473L328 471C320.076 477.259 308.805 474.924 303 485L285 479C284.619 484.015 282.498 485.998 278 488L278 486L276 486L276 491C269.728 484.932 263.872 485.495 256 483L260 491L260 492L252 491L261.138 500.468L282 528L274 527C276.01 534.498 279.335 539.553 287 542C284.396 547.584 279.975 551.44 274 553C276.055 559.743 281.012 556.352 285 553L286 562L287 562C299.651 553.402 309.723 568.205 310 580L307 579L319 592C314.094 593.259 306.809 592.602 303 589L303 597L302 597L300 591L293 593L295 596L278 600L272 597C271.15 606.038 285.901 608.321 290 616L284 613L281 617L281 619C290.054 623.389 293.726 627.757 300 636L294 633L293 636L292 636L286 633L291 637L288 644L295 651L286 665L265 654L269 660L266 661L273 667C261.819 673.032 255.673 663.951 246.001 660.222C240.782 658.211 239.08 665.393 234.561 664.264C223.283 661.446 215.418 649.089 204 646C207.606 659.769 226.349 674.015 239 679L239 680C225.883 678.292 218.721 665.635 205 673C212.387 682.208 211.78 682.514 201 685L201 687L215 691L212 698L206 697C207.968 702.596 215.076 700.589 220 701L216 705L218 712C209.314 710.641 206.982 716.292 199.996 719.504C196.619 721.056 192.588 720.072 189 720L195 732L193 734L204.282 731.097L224 735C225.139 747.509 233.251 740.335 240 737C239.079 745.18 232.684 743.198 228 748L238 751L232 755L227 759L227 765L224 764L223 769L227 772C221.639 773.356 217.603 776.045 215 781L219 781L219 782L215 782C215.457 795.961 248.193 793.687 258 800C262.495 795.313 270.692 798.895 277 798L277 800L273 806C267.515 804.71 262.917 805.998 267 812L268 809C277.828 812.541 278.145 808.855 281 820L272 822L272 824L290 824C287.637 825.262 286.732 825.582 288 828L281 829C280.518 837.079 296.671 840.013 299 833C302.207 836.747 298.408 841.839 297 846L282.318 843.121L273 856L281 865L282 861L284 861L287 868L296 866L296 868L290 872L289 872L287 870L286 875C278.839 868.534 275.961 873.753 280 881L289 879L278 900L286 899L286 900L281 906L286 906L283 911L289 909C291.35 912.914 295.452 912.711 298.316 908.955C304.036 901.456 305.673 884.643 319.15 884.396C326.463 884.262 319.223 891.446 321.662 894.505C324.835 898.483 329.946 896.27 334 896L334 889L339 889L329.179 902.301L325 917L330 910L346 903L343 914L340 913L340 916L336 915L324 935L342 923L344.566 932.424L340 952L341 952L345 949L345 950C339.011 952.948 323.897 962.138 324 969L327 965L328 965L328 969L332 969L332 972L333 972L346 968L347 972L343 973L343 976L348 978L348 976C353.614 979.203 353.308 982.338 352 988L364 977L366 982L368 1003L369 1003C374.06 994.452 377.89 986.543 387 982L381 1007L385 1002L388 1004L398 995L396 999L399 1000C396.59 1007.55 392.026 1018.72 397 1026L403 1023L403 1029L411 1007L412 1007L414 1014L418 1008L420 1019L414 1018L414 1019C418.743 1020.35 421.307 1019.12 425 1016L421 1025L427 1032L424 1032L423 1037L429 1045L430 1045L439 1044L441 1032L442 1032L444 1048L447 1048C447.22 1041.27 451.675 1038.61 456 1034L460 1048L461 1048L465 1037L468 1039L468 1053L469 1053L470 1051L478 1058L479 1054C482.511 1058.19 484.953 1062.98 491 1062L491 1056L495 1060L496 1060L501 1052C501.406 1039.24 501.55 1030.66 494.613 1019.09C492.026 1014.78 487.708 1012.92 486 1008L487 1008L488 1011C492.092 1006.93 489.151 1002.21 489 997L491 997C491.36 1001.51 491.705 1005.75 496 1008L495 1000L498 1001L503 989L504 989L506 992L503 992L506 1000L511 988L513 988L514 991C518.693 988.967 522.545 988.706 523 983L534 998C540.544 986.838 543.012 1002.56 542 1008C546.731 1006.04 548.306 1003.06 548 998L549 998L550 1001L552 999L553 999L556 1012L564 1012L566 986L568 986L569 992L581 1002C583.507 989.152 583.33 972.22 576 961L586 974C592.711 970.26 584.062 949.188 583 942L584 942L584 945C593.323 942.485 595.634 925.531 596 917L600 920L597 907L605 905L600 904L600 902L617.985 902.093L629 897C630.431 903.563 636.383 920.288 642 924L640 915L641 915C642.045 918.882 645.08 923.997 643.88 928.025C641.734 935.229 631.869 937.708 629.662 944.194C627.179 951.492 635.973 947.178 638 944L639 944L642 946L645 943L641 952L639 950L640 960C646.805 956.237 650.557 945.292 659 946L659 948L651 955L651 956L650 970L638.996 979.402L614 1000L618 1000L625 1016C612.903 1017.35 601.041 1031.37 591.961 1038.59C580.649 1047.57 571.066 1049.03 563 1062C569.165 1060.3 573.015 1057.56 577 1064C593.59 1052.13 614.797 1045.91 631.961 1034.58C641.944 1027.99 650.978 1017.86 659.407 1009.48C667.103 1001.82 676.883 982.552 689 983C684.344 985.718 676.624 991.518 673.877 996.133C671.179 1000.66 671.397 1004.77 667.334 1008.81C658.991 1017.12 649.716 1026.67 640.83 1034.62C629.912 1044.4 622.481 1047.98 617 1062L614 1061L614.797 1074.51L620.711 1074.56L642 1068L637 1080C645.292 1079.99 645.757 1076 652.005 1071.57C654.289 1069.95 657.571 1069.73 658 1067C662.942 1073.31 663.326 1079.88 673 1080C673.292 1076.45 675.694 1065.33 681.628 1069.16C684.182 1070.81 682.3 1074.48 683.446 1076.85C685.957 1082.04 694.891 1079.45 699 1078C701.848 1081.26 707.932 1080 712 1080L747 1080C750.476 1080 758.532 1081.48 760.972 1078.4C765.8 1072.3 757.587 1063.16 757 1057L760 1056L759 1052L753 1051L757 1047L767 1063L770 1063L768 1080C770.83 1079.89 775.252 1080.6 777.697 1078.96C780.624 1076.99 779.026 1072.75 781.589 1070.75C785.325 1067.83 790.825 1077.35 792 1080C801.736 1080 820.94 1083.65 829 1078L843 1080L874 1080L878 1065L879 1065L880 1070L885 1068C884.054 1064.68 881.477 1060.56 882.647 1057.05C886.006 1046.99 899.546 1045.45 891 1033L899 1027C899.842 1030.58 900.455 1050.23 906 1037L907 1037C908.646 1046.32 901.174 1049.67 899 1058L907 1060C915.528 1048.59 916.786 1043.06 915 1029L917 1032L924 1029C924.959 1037.33 934.245 1039.56 941 1037L937 1041C937.545 1050.99 935.221 1055.66 943 1064C935.143 1066.46 930.373 1071.58 931 1080L941 1076L944 1080L941 1076C949.411 1067.59 944.074 1062.85 944.086 1053C944.096 1045.84 948.731 1039.55 948.571 1032.04C948.476 1027.55 945.222 1023.77 945 1019L946 1019L948 1026L952 1025L958.404 1039.63L954 1048C963.511 1047.91 967.14 1048.05 970 1038L971 1038L972 1042L973 1042C977.632 1031.73 984.463 1021.77 976 1012L980 1012L982 1009L983 1016L1000 1026C995.491 1031.04 979.046 1046.13 980.059 1052.94C980.838 1058.18 991.77 1060.45 996 1061L997 1078L1000 1080L1001 1080L1002 1071L1013.35 1074.62L1020 1080L1019 1072L1024 1074C1022.85 1067.09 1016.48 1067.27 1019 1059L1020 1059L1022 1063L1033 1060L1031 1051C1039.66 1052.12 1038.91 1057.44 1036 1064L1043 1070C1035.81 1070.08 1031.42 1072.35 1031 1080C1035.8 1079.75 1043.24 1081.56 1047.57 1079.4C1053.4 1076.48 1050.93 1062.03 1050 1057C1054.83 1062.18 1054.92 1072.73 1064 1067C1061.12 1084.63 1088.77 1080 1099 1080L1099 1073L1101 1073L1101 1080L1118 1080C1116.99 1060.28 1087.63 1058.56 1087 1039C1093.74 1038.14 1083.12 1026.1 1085.77 1021.75C1089.35 1015.84 1095.46 1019.34 1100 1016L1104 1019L1109 1009C1114.59 1008.07 1115.81 997.828 1119 993C1120.72 999.413 1123.01 1014.12 1132 1010L1133 1020C1141.44 1019.81 1146.18 1024.9 1152 1030C1153.44 1022.13 1144.44 1015.3 1138 1012L1141 1006L1135 1008L1135 1007L1140 999L1136 998C1136.62 993.083 1137.78 989.26 1132 988L1136 977C1146.85 983.477 1153.64 990.771 1152 1004C1158.16 1006.49 1157.56 1010.64 1160.84 1015.58C1168.21 1026.65 1173.82 1034.17 1172 1048L1181 1040L1176 1036L1179 1021L1176 1022C1175.7 1012.75 1172.7 1008.92 1168 1001C1174.18 1000 1181.53 1001.35 1185 995C1187.31 996.76 1190.81 1000.32 1186 1001C1186.16 1008.87 1185.79 1015.89 1195 1016L1192 1000L1193 1000C1194.48 1005.22 1199.75 1012.3 1205 1014L1204 1011L1222 1022L1217 1004L1218 1004L1228.75 1027L1230.51 1045L1240 1070L1241 1070C1243.59 1061.15 1233.78 1050.08 1241 1043L1245 1057L1246 1057C1248.43 1052.86 1250.19 1051.68 1255 1052L1254 1048L1250 1048L1253 1043L1253 1046C1261.57 1040.51 1257.82 1029 1256 1021L1264 1021L1264 1032L1267 1030L1270 1032C1270.04 1027.16 1270.1 1022.48 1276 1023L1274 1028C1280.14 1026.69 1276.18 1017.66 1277 1013L1283 1017L1281 1028L1290 1016L1292 1028L1299 1029L1300 1028C1296.62 1018.23 1294.66 1002.12 1283 1000L1278 979C1283.18 983.407 1284.48 998.28 1292 995C1291.72 998.081 1291.97 999.144 1295 1000L1293 995L1297 994L1298 997L1303 995L1298 1001L1298 1005L1308 990L1309 990C1312.04 996.113 1328.16 1004.32 1335 1004L1334 999C1326.58 995.541 1324.83 989.427 1320.6 983.148C1318.76 980.417 1315.69 980.596 1313.61 978.401C1311.19 975.85 1309.4 964.716 1309 961L1314 964L1332 976L1330 971L1334 970C1335.04 975.723 1337.74 980.197 1344 980L1348 985L1352 977L1351 986L1353 986C1354.51 980.911 1353.84 969.368 1362 972L1363 972L1373 963C1375.65 967.809 1379.47 966.917 1384 965C1386.51 969.757 1390.73 971.829 1396 972C1394.28 959.72 1401.55 960.03 1412 964L1411 956L1422 952C1419.05 943.434 1410.25 944.56 1410 934L1414 936L1416 927L1418 927L1417 938L1418 938L1419 935C1425.81 933.612 1420.67 928.491 1421.89 924.133C1422.7 921.207 1426.49 919.645 1428 917L1432 918L1432 920C1428.6 922.085 1428.13 924.097 1428 928L1435 926L1434 923L1437 921L1438 921L1448 929L1449 925L1452 926L1452 911L1461 907L1456 898L1459 898L1458 895L1463 897C1467.15 896.208 1471.46 897.578 1473 893C1467.73 890.397 1463.19 887.398 1464 881L1468 882L1468 877L1477 877L1476 873L1474 875L1473 875L1480 866L1480 865L1487 874C1486.77 866.804 1488.68 855.291 1498 858L1510 845L1514 846C1510.62 835.66 1510.64 836.778 1521 833L1525 836L1531 821L1525 818L1523 820L1522 815C1533.81 815.993 1528.22 800.791 1523.93 795.303C1521.66 792.394 1517.35 791.944 1514 791C1516.61 778.818 1504.54 783.424 1497 781.992C1482.01 779.145 1468.78 783.833 1454 784.147C1446.57 784.306 1445.77 788.335 1439 783C1445.57 782.655 1452.3 784.578 1457 779L1454 778L1460 772L1461 772C1467.59 767.652 1472.24 766.866 1480 768L1484 766C1484 762.706 1485.81 764.296 1488 765L1488 761L1502 762.78L1520 760L1521 756L1527 756L1526 752L1523 754C1521.29 748.355 1510.52 745.263 1505 744L1505 743L1515 742C1512.43 737.014 1510.68 733.499 1505 732L1505 731L1511 731L1512 731C1514.68 728.782 1518.92 729.607 1522 727.528C1525.68 725.039 1527.58 719.283 1532.06 718.218C1538.69 716.64 1557.46 721.682 1560 713L1543 704L1544 706L1543 706C1540.81 702.778 1539.53 702.28 1536 704L1536 699L1532 700L1537 693L1539 694L1539 689C1531.19 690.166 1527.39 690.597 1530 681L1524 680L1524 677L1532 680L1535 679C1538.92 687.349 1551.24 704.28 1559.04 709.208C1563.31 711.9 1572.23 716.303 1577 717.773C1579.5 718.545 1581.89 717.458 1584 719L1594 715C1596.61 709.049 1598.38 705.357 1596 699L1601 691C1598.69 691 1591.21 677.815 1589.33 675C1582.78 665.175 1583.1 652.072 1577.5 642C1571.93 631.983 1556.83 623.845 1558 613L1559 613L1562 616L1548 601L1551 602C1552.12 597.869 1551.72 594.469 1548 592L1549 584L1550 584L1555 589L1555 581C1558.57 580.235 1558.11 578.059 1557 575C1561.47 576.628 1566.69 578.571 1571 576C1575.23 580.011 1580.96 584.984 1587 584L1587 578L1591 580C1587.81 573.462 1582.03 569.896 1590 564L1587 555L1588 555L1589 557L1586 542L1593 544L1593 541C1589.51 539.943 1588.57 538.582 1588 535L1585 536C1587.97 530.954 1586.94 525.011 1580 526C1578.58 522.488 1568.45 517.261 1568 521L1567 521L1568 511L1566 514L1565 514C1563.8 509.439 1561.67 505.451 1557 504L1557 503L1565 500C1563.86 494.902 1566.07 489.321 1560 488L1560 487L1565 483L1589 487C1594.23 493.377 1597.63 485.968 1598 481C1594.56 480.548 1595.5 477.885 1596 475C1606.65 476.043 1618.95 470.019 1619.53 458.011C1619.83 451.724 1615.06 449.033 1617 442C1612.44 438.779 1620.84 434.269 1623 431L1619 432C1621 422.24 1622.52 414.894 1620 405L1608 411L1610 408L1609 405L1587.49 406.461L1585.12 397L1580 374C1585.24 377.292 1586.84 374.273 1592 373L1592 372C1583.17 368.505 1581.91 363.784 1576 357L1579 358L1579 357L1579 348L1577 348L1574 352L1574 347L1568 350C1571.01 343.618 1575.4 344.699 1580.54 341.351C1585.36 338.204 1589.54 331.278 1595.02 329.688C1600.45 328.112 1606.56 330.084 1612 328.185C1618.32 325.981 1624.65 322.195 1622 315L1630 312L1628 304L1628 303L1634 304L1633 299C1641.56 300.052 1649.24 295.336 1655 289L1648 286L1653 286L1652 283L1660 280L1659 274L1656 275L1652 267L1656 266L1658 257L1654 258L1654 247L1641 244L1646 237C1637.16 236.411 1627.44 234.478 1619 238L1624 234L1625 226L1616 223L1612 225L1604 221L1601 225L1591 222L1561 233L1542 233L1537 236L1537 234L1530 236L1538 232L1538 230L1526 231L1528 235C1510.13 231.682 1488.52 232.131 1471 236C1474.5 225.799 1463.41 227.974 1457 230L1460 218L1458 218L1457 221C1451.37 219.387 1445.11 221.325 1440 224L1443 220L1443 219C1436.4 217.491 1426.88 224.717 1421 228L1421 224C1409.59 225.18 1384.06 218.541 1379 233L1378 233L1382 223C1373.24 209.725 1387.61 200.472 1398 194L1401 183L1404 184C1405.8 180.254 1405.42 175.588 1407.74 172.17C1411.74 166.273 1419.22 162.14 1421.43 155C1423.9 147.044 1419.98 140.726 1424.12 132C1428.2 123.396 1439.04 115.383 1440.77 105.999C1442.86 94.6484 1441.53 66.5194 1423 80C1418.22 72.9464 1409.15 86.2011 1406.22 89.8303C1400.06 97.426 1390.17 101.59 1383.1 108.213C1376.72 114.198 1371.84 123.812 1369 132L1368 132L1367 129L1363 129L1356 144L1355 144L1355 140L1343 148L1346 141L1339 142C1338.31 138.803 1336.95 139.254 1334 140L1333.03 127.911L1336 114L1328 114C1325.86 118.718 1323.25 120.96 1319 117C1314.77 118.141 1313.34 119.603 1313 124L1309 120L1305 128L1303 128L1300 121C1297.03 125.365 1295.8 128.582 1290 127L1288 142L1284 141L1273 150L1272 146L1266 148L1268 144L1272 145L1269 136L1269 135C1275.52 131.01 1275.12 124.974 1276 118L1265.96 130.13L1245 128L1248 117L1246 121L1225.05 121.321L1211 130L1204 125C1200.37 128.814 1196.75 128.913 1192 127C1190.2 129.225 1185.82 132.077 1185.85 135.129C1185.92 142.424 1193.93 155.532 1189 161L1188 155L1173 168L1173 163L1168 166L1160 162L1159 157L1158 157L1153 166L1157 149L1149 156C1145.77 152.424 1147.4 150.125 1149 146C1140.47 150.723 1137.07 166.978 1138 176L1129 174L1140 148L1136 142L1121 164C1123.18 157.04 1128.66 152.751 1127 145L1126 145L1122 150C1122.79 145.224 1122.72 142.137 1118 140C1123.48 125.764 1125.77 114.506 1143 112L1148 98L1148 97L1146 89L1152 90L1148 96C1151.94 93.6001 1153.78 90.5999 1153 86C1155.4 86.5746 1155.49 86.4753 1156 84L1151 85L1151 84L1161 74L1157 64L1155 71L1153 69L1148 74L1147 63L1142 71L1139 69L1138 75L1132 65L1129 67L1124 67L1131 46L1126 49L1125 48L1132 39L1130 31C1126.53 27.4281 1125.49 23.7709 1127 19L1129 20L1130 20L1130 19L1118 19C1118.63 14.9846 1118.61 12.2896 1115 10L1115 4L1107 7L1110 0L1108 0L1107 5L1101 0C1092.83 0 1088.57 -0.464844 1084 7L1083 7L1081 0L1064 2L1063 2L1059 0L1056 4L1057 0L993 0C993.693 8.85718 997.642 24.6136 989 30L991 0L984 2L983 2C977.57 -4.2135 973.531 5.76196 972.019 10C970.255 14.9449 972.712 18.1377 972.61 23C972.401 32.9286 964.389 39.6014 956 44C958.117 39.1152 961.546 35.5033 957 31L949 38L949 25C939.754 24.3535 941.134 28.7251 935 34L935 29C928.968 31.1195 929.004 35.2498 929 41L928 41L918 24L917 24C914.446 27.952 912.526 30.2828 914 35L910 36C910.257 31.0238 908.805 29.2728 904 28L897 30L896 27L888 28L900 13L896 12L899 5C894.735 4.86108 892.303 4.29187 891 0L887 0C887.39 11.4979 877.451 17.1837 867 20L872 11L868 16L864 11C859.294 13.9415 856.547 18.4919 858 24L841 20L845 16C842.686 11.2164 840.017 10.7917 835 11L835 9L838 8L838 7C831.547 4.7301 832.406 8.9696 832 14C837.748 18.0184 839.053 22.7697 831 19L832 22L827 17L824 18L824 30L828 29L829 31L829 32L826 35C823.628 33.6183 821.161 32.271 819.018 30.54C807.345 21.1125 817.677 11.1188 818 0L814 0C813.608 12.0826 800.189 11.0143 797 22L793 21L788 27L787 22C780.482 23.3787 771.538 32.2469 770 22L762 28L761 17L753 17L752 24L754 28L749 26C747.863 31.9689 752.332 31.7493 757 33L758 48L755 48L755 45L751 46C748.267 41.2283 743.98 34.1625 738 35L741 40L732 37L715 40L707 33L706 33L704 37L711 43L712 48L697 48C699.018 43.7036 697.482 41.9353 693 41L692 46L695 47L692 50C690.723 43.6754 690.214 38.0452 695 33L692 29L693 33L689 32C694.358 21.3055 692.911 11.3264 694 0L622 0z"/>
<path style="fill:#fcfcfc; stroke:none;" d="M694 0L689 32L693 33L692 29L695 33C689.527 36.9287 690.22 44.2804 692 50L695 47L692 46L693 41C696.953 42.4041 698.14 43.8755 697 48L712 48L711 43L704 37L706 33L707 33L715 40L732 37L741 40L738 35C744.099 35.1434 747.303 41.6469 751 46L755 45L755 48L758 48L757 33C752.54 31.4047 748.791 31.5635 749 26L754 28L752 24L753 17L761 17L762 28L770 22C770.834 32.7869 780.843 23.9386 787 22L788 27L793 21L797 22C801.167 11.5554 813.855 12.2393 814 0L694 0M818 0C817.045 14.8721 805.832 26.8772 826 35L829 32L828 29L824 30L827 17L832 22L831 19C838.641 24.1467 838.987 17.4094 832 14C833.041 9.03345 831.434 5.20618 838 7L838 8L835 9L835 11L836 12C840.426 11.3004 842.342 12.4569 845 16L841 20L858 24C857.081 18.4502 860.031 14.6434 864 11L868 16L872 11L867 20C878.116 18.2804 887.876 11.5132 887 0L818 0M891 0C891.802 4.80554 894.566 4.94751 899 5L896 12L900 13L888 28L896 27L897 30L904 28C908.354 29.7069 910.018 31.2534 910 36L914 35L917 24L918 24L928 41L929 41C929.02 35.2727 929.681 31.8518 935 29L935 34C941.63 30.2245 939.864 24.8282 949 25L949 38L957 31C960.579 36.3153 957.467 38.6155 956 44C965.338 41.0293 972.417 32.6562 972.787 23C972.912 19.7448 970.949 16.7522 971.294 13.5756C971.791 9.00378 974.781 4.45728 976 0L891 0M983.333 0.666626L983.667 1.33337L983.333 0.666626M991 0L989 30C997.867 26.2372 994.008 7.98352 993 0L991 0M1057 0L1056 4L1059 0L1057 0M1063.33 0.666626L1063.67 1.33337L1063.33 0.666626M1081 0L1083 7L1084 7L1088 0L1081 0M1101 0L1107 5L1108 0L1101 0M1110 0L1107 7L1115 4L1115 10L1118 19L1130 19L1130 20L1127 19C1125.22 23.5254 1125.88 28.1106 1130 31C1128.99 34.5266 1128.77 36.9059 1132 39L1125 48L1126 49L1131 46L1124 67L1129 67L1132 65C1132.21 69.4681 1134.07 72.7805 1138 75L1139 69L1142 71L1147 63L1148 74L1153 69L1153 71L1155 71L1157 64L1161 74L1151 84L1151 85L1156 84L1153 86L1148 96L1152 90L1146 89L1148 97L1148 98C1144.03 102.039 1142.47 106.403 1143 112C1126 113.441 1121.99 125.378 1118 140C1122.1 142.733 1122.38 145.266 1122 150L1126 145L1127 145L1121 164C1128.44 162.618 1127.55 153.422 1130.92 148.028C1132.62 145.299 1135.31 145.214 1136 142L1140 148C1133.47 149.393 1135.44 159.992 1133.5 165C1132.2 168.366 1129.64 170.357 1129 174L1138 176C1137.72 165.926 1141.01 152.682 1149 146C1146.9 149.823 1144.93 153.05 1149 156L1157 149L1153 166L1158 157L1159 157L1160 162L1168 166L1173 163L1173 168L1188 155L1189 161C1194.88 156.742 1186.24 142.002 1186.48 135.129C1186.58 132.239 1190.6 129.527 1192 127C1196.31 129.267 1201.19 129.464 1204 125L1211 130L1226.02 121.356L1246 121L1248 117L1245 128C1250.19 129.665 1262.48 133.45 1266.86 130.142C1271.06 126.963 1271.53 121.292 1276 118C1274.66 125.199 1274.89 129.924 1269 135L1269 136L1272 145L1268 144L1266 148L1272 146L1273 150L1284 141L1288 142L1290 127L1292 129C1296.66 127.717 1297.98 125.199 1300 121L1303 128L1305 128L1309 120L1313 124C1313.64 119.943 1315.24 118.522 1319 117C1322.64 122.051 1326.52 118.829 1328 114C1331.4 116.211 1332.6 116.211 1336 114L1332.65 127.911L1334 140L1339 142L1346 141L1343 148L1355 140L1355 144L1356 144L1363 129L1367 129L1368 132L1369 132C1372.85 124.122 1376.81 115.372 1383.1 109.105C1389.76 102.478 1399.15 98.4979 1405.47 91.571C1409.24 87.4365 1416.42 74.6473 1423 80C1441.23 69.9343 1443.08 92.4258 1440.77 105C1439.24 113.328 1429.84 120.81 1425.68 128C1423.15 132.367 1419.85 138.838 1419.97 144C1420.05 147.4 1422.28 150.559 1421.38 154C1419.55 161.059 1411.7 165.589 1407.74 171.286C1404.71 175.637 1407.17 181.414 1401 183L1398 194C1388.06 198.203 1371.3 211.578 1382 223L1378 233L1379 233C1386.77 218.457 1408.55 226.664 1421 224L1421 228L1443 219L1443 220L1440 224L1457 221L1458 218L1460 218L1457 230C1463.57 228.381 1473.61 225.969 1471 236C1489.71 233.316 1508.92 232.589 1528 235L1526 231L1538 230L1538 232L1530 236L1537 234C1537.32 235.841 1556.15 233.238 1560 232.866C1571.43 231.758 1580.98 225.717 1591.87 223.259C1601.95 220.982 1614.82 223.368 1625 226L1624 234L1619 238L1646 237L1641 244L1654 247L1654 258L1658 257L1656 266L1652 267L1656 275L1659 274L1660 280L1652 283L1653 286L1648 286L1655 289C1648.19 294.287 1641.87 299.596 1633 299L1634 304L1628 303L1628 304L1630 312L1622 315C1624.05 322.462 1616.67 326.694 1610 328.502C1604.61 329.964 1598.25 327.702 1593.11 330.01C1588.15 332.233 1584.47 338.363 1579.7 341.351C1574.63 344.531 1569.94 343.161 1568 350L1574 347L1574 352L1577 348L1579 348L1579 357L1579 358L1576 357C1580.4 364.603 1583.22 369.458 1592 372L1592 373L1589 372C1586.11 375.579 1584.17 375.786 1580 374L1584.7 396.424L1587.4 406.929L1609 405L1610 407L1610 408L1608 411L1620 405L1619 432L1623 431C1620.77 433.451 1609.79 440.455 1617 442C1614.15 449.374 1618.95 451.187 1619.13 457.844C1619.44 469.638 1605.85 475.435 1596 475C1595.29 477.997 1594.53 480.563 1598 481C1597.23 486.37 1594.76 491.83 1589 487L1565 483L1560 487L1560 488C1565.48 490.022 1563.26 495.096 1565 500L1557 503L1557 504L1565 514L1566 514L1568 511L1567 521L1568 521L1568 518L1571 519L1580 526C1586.61 526.28 1587.42 530.765 1585 536L1588 535C1588.3 538.864 1589.09 540.348 1593 541L1593 544L1586 542L1588 555L1587 555L1590 564C1581.27 568.328 1587.11 574.588 1591 580L1587 578L1587 584L1571 576L1557 575L1555 581L1555 589L1550 584L1549 584L1548 592C1551.07 595.075 1551.79 597.748 1551 602L1548 601L1562 616L1559 613L1558 613C1555.69 621.462 1563.52 624.889 1568.35 631C1580.16 645.932 1580.98 665.622 1592.94 680C1595.62 683.234 1596.71 690.435 1601 691L1596 699L1594 715L1584 719C1581.98 717.246 1579.92 718.434 1577.42 717.623C1572.8 716.12 1563.86 711.758 1559.73 709.103C1550.92 703.439 1540.92 687.728 1535 679L1532 680C1529.98 676.555 1527.81 676.297 1524 677L1524 680L1530 681C1526.38 690.746 1531.03 691.317 1539 689L1539 694L1537 693L1532 700L1536 699L1536 704L1544 706L1543 704L1544 704L1560 713C1555.06 721.069 1540.03 716.834 1532.09 718.149C1527.17 718.965 1524.95 724.804 1521 727.411C1518.14 729.297 1514.37 728.71 1512 731L1511 731L1505 731L1505 732L1515 742L1513 740L1505 743L1505 744C1510.72 746.083 1520.21 748.461 1523 754L1526 752L1527 756L1521 756L1520 760L1502 762.588L1488 761L1488 765L1486 763L1485 763L1484 766L1481 765L1480 768C1472.66 766.324 1466.69 766.671 1461 772L1460 772C1456.88 769.291 1454.97 775.565 1454 778L1457 779C1450.98 784.076 1446.04 781.809 1439 783C1445.14 789.772 1446.68 784.72 1454 784.317C1468.59 783.513 1482.21 779.46 1497 782.194C1504.59 783.598 1515.56 779.087 1514 791C1516.77 792.048 1520.32 792.543 1522.58 794.564C1528.37 799.736 1532.9 813.961 1522 815C1522.19 817.711 1522.25 819.907 1525 818L1531 821L1525 836L1521 833C1510.15 835.87 1509.3 835.913 1514 846L1510 845L1498 858C1488.57 853.758 1486.27 867.039 1487 874L1480 865L1480 866L1482 867C1477.46 868.82 1470.6 868.874 1473 875L1474 875L1476 873L1477 877L1468 877L1468 882L1464 881C1462.43 887.525 1467.25 891.058 1473 893L1463 897L1458 895L1459 898L1456 898L1456 899L1456 900L1461 907L1452 911L1452 926L1449 925L1448 929L1438 921L1437 921L1434 923L1435 926L1428 928L1432 920L1432 918L1428 917C1426.26 919.168 1422.71 920.651 1421.63 923.199C1419.88 927.348 1425.42 933.38 1419 935L1418 938L1417 938L1418 927L1416 927L1414 936L1410 934C1410.1 944.612 1417.83 943.792 1422 952L1411 956L1412 964C1402.07 958.571 1393.24 959.481 1396 972C1390.83 971.62 1387.18 969.004 1384 965C1379.18 966.486 1376.46 967.135 1373 963C1367.06 963.768 1365.76 967.087 1363 972L1362 972C1354.42 966.647 1353.99 981.854 1353 986L1351 986L1352 977L1348 985L1344 980C1338.11 979.821 1335.56 975.246 1334 970L1330 971L1332 976L1314 964L1309 961C1309.2 964.781 1310.79 975.487 1313.03 978.402C1315.03 981.01 1318.63 980.91 1320.6 984.059C1324.45 990.234 1326.23 996.819 1334 999L1335 1004C1327.8 1003.94 1313.1 995.705 1309 990L1308 990L1298 1005L1298 1001L1303 995L1298 997L1297 994L1293 995L1295 1000L1292 995C1283.57 996.932 1284.68 982.764 1278 979L1283 1000C1295.01 1003.56 1295.15 1018.02 1300 1028L1299 1029L1292 1028L1290 1016L1281 1028L1283 1017L1277 1013C1275.62 1018.13 1279.05 1024.78 1274 1028L1276 1023C1269.67 1021.53 1270.01 1027.11 1270 1032L1267 1030L1264 1032L1264 1021L1256 1021C1257.28 1030.17 1260.67 1038.59 1253 1046L1253 1043L1250 1048L1254 1048L1255 1052C1250.12 1050.94 1247.86 1052.45 1246 1057L1245 1057L1241 1043C1233.37 1047.95 1242.75 1062.38 1241 1070L1240 1070L1230.75 1045L1229.26 1027L1218 1004L1217 1004L1222 1022L1204 1011L1205 1014L1193 1000L1192 1000C1191.53 1007.41 1191.64 1009.37 1195 1016C1186.13 1015.71 1186.32 1008.43 1186 1001C1191.32 1000.41 1188.17 996.622 1185 995C1180.27 1000.73 1174.45 999.317 1168 1001L1176 1022L1179 1021L1176 1036L1181 1040L1172 1048C1174.88 1033.98 1168.18 1025.93 1160.84 1014.71C1157.63 1009.81 1158.47 1005.74 1152 1004C1154.34 991.37 1147.6 981.785 1136 977L1132 988C1137.2 989.916 1136.37 993.135 1136 998L1140 999L1135 1007L1135 1008L1141 1006L1138 1012C1143.87 1016.36 1152.59 1021.99 1152 1030C1147.31 1024.23 1140.99 1018.74 1133 1020L1132 1010C1122.93 1012.45 1121.34 999.459 1119 993L1109 1009L1104 1019L1100 1016C1095.08 1019.1 1089.17 1014.82 1085.33 1021C1082.81 1025.07 1092.86 1039 1087 1039C1087.23 1058.8 1116.07 1060.7 1118 1080L1920 1080L1920 0L1110 0M982 2L983 3L982 2M1067 3L1067 7L1070 3L1067 3z"/>
<path style="fill:#040404; stroke:none;" d="M1120 7L1121 8L1120 7M847 9C846.638 13.6041 848.532 16.6599 853 18L847 9z"/>
<path style="fill:#fcfcfc; stroke:none;" d="M999.333 10.6666L999.667 11.3334L999.333 10.6666M1000 13L1002 16L1000 13M862 16L860 20L864 22L862 16z"/>
<path style="fill:#040404; stroke:none;" d="M774 19L775 20L774 19M953.667 19.3334L954.333 19.6666L953.667 19.3334M774 21L776 24L776 21L774 21z"/>
<path style="fill:#fcfcfc; stroke:none;" d="M876 35L875 28L876 27L879 28C876.742 17.0896 864.602 27.6317 876 35z"/>
<path style="fill:#040404; stroke:none;" d="M1132 21L1128 28C1131.49 26.8708 1133.07 24.6444 1132 21M746 23L746 24L751 24L746 23M905 23L906 26L905 23z"/>
<path style="fill:#fcfcfc; stroke:none;" d="M1000 28L998 34L1000 28M768 34L769 34L771 29L768 34z"/>
<path style="fill:#040404; stroke:none;" d="M726 32L729 32L728 30L726 32z"/>
<path style="fill:#fcfcfc; stroke:none;" d="M1121.33 30.6666L1121.67 31.3334L1121.33 30.6666M782 33L783 36L784 36L784 33L782 33M1122 33L1124 36L1124 33L1122 33M775 35L776 36L775 35M877 35L878 36L877 35M935 35C934.425 37.3962 934.525 37.4871 937 38L935 35M922 38L920 45L921 45L922 38M880 41L882 44L880 41M950 41L950 44L951 44L950 41M927 42L928 43L927 42M741 43C740.32 47.1617 741.226 49.0918 745 51L741 43M946 43L947 48L948 48L948 43L946 43M695 49L696 50L695 49M716 55L715 59L716 59L716 55z"/>
<path style="fill:#040404; stroke:none;" d="M1149 57C1148.48 60.0923 1148.92 61.1399 1152 62L1151 57L1149 57M1135 61L1134 64L1135 61z"/>
<path style="fill:#fcfcfc; stroke:none;" d="M699 64L699 68L704 68L704 67L699 64M1123 67L1123 72L1124 72L1123 67M1130.67 72.3333L1131.33 72.6667L1130.67 72.3333M1141 73L1145 81L1146 81L1141 73M1141 98L1145 101L1141 98z"/>
<path style="fill:#040404; stroke:none;" d="M581 109L581 112L582 112L581 109z"/>
<path style="fill:#fcfcfc; stroke:none;" d="M506 111L507 112L506 111M691 132L697 129L698 130C696.286 133.679 694.031 137.348 698 140L702 134L697 152L699 157L699 158L702 157L714 167L725.835 173.525L750 177L748 184L754 184L753 174L762 176L756 166C762.821 167.829 771.409 176.662 777.957 176.658C786.531 176.653 787.21 162.216 785 157L782 157C780.094 160.631 777.601 164.035 773 163.612C766.699 163.032 762.433 157.466 757 154.919C746.768 150.122 736.8 146.424 726 143L727 139C720.389 137.109 712.885 133.363 708.559 127.827C706.132 124.72 703.638 116.951 698.109 119.172C694.063 120.797 692.623 128.344 691 132M693 119L694 120L693 119M1118.67 119.333L1119.33 119.667L1118.67 119.333M1192 128L1193 129L1192 128M590 129L588 132C590.251 131.527 591.118 131.14 590 129M1244.67 129.333L1245.33 129.667L1244.67 129.333M596 131L597 132L596 131M692.667 139.333L693.333 139.667L692.667 139.333M1190 140L1191 141L1190 140z"/>
<path style="fill:#040404; stroke:none;" d="M1157 144L1160 144L1159 142L1157 144M1421 143L1422 144L1421 143M1157 145L1158 146L1157 145z"/>
<path style="fill:#fcfcfc; stroke:none;" d="M1135 146L1136 147L1135 146M1099 147L1100 148L1099 147z"/>
<path style="fill:#040404; stroke:none;" d="M1156 147L1157 148L1156 147z"/>
<path style="fill:#fcfcfc; stroke:none;" d="M1116.33 148.667L1116.67 149.333L1116.33 148.667M1197 151L1198 152L1197 151M1419 152L1418 154L1420 154L1419 152z"/>
<path style="fill:#040404; stroke:none;" d="M709 157L712 160L711 157L709 157M750.667 165.333L751.333 165.667L750.667 165.333z"/>
<path style="fill:#fcfcfc; stroke:none;" d="M1119 165L1119 168L1120 168L1119 165z"/>
<path style="fill:#040404; stroke:none;" d="M751 167L752 168L751 167z"/>
<path style="fill:#fcfcfc; stroke:none;" d="M1104 172L1108 172L1109 167L1104 172M1159 174C1162.54 172.315 1163.69 170.931 1164 167L1159 174M698.667 169.333L699.333 169.667L698.667 169.333z"/>
<path style="fill:#040404; stroke:none;" d="M735 171L736 172L735 171z"/>
<path style="fill:#fcfcfc; stroke:none;" d="M704 173L706 176L706 173L704 173z"/>
<path style="fill:#040404; stroke:none;" d="M407 175L408 176L407 175z"/>
<path style="fill:#fcfcfc; stroke:none;" d="M482 175L484 178L482 175M710 175L709 180L710 180L712 175L710 175M1403 175L1404 176L1403 175M741 177L745 182L744 176L741 177M482 179L481 181L482 179M1099.67 179.333L1100.33 179.667L1099.67 179.333M1113 179L1115 184L1113 179M713 182L713 184L715 184L715 182L713 182M421.333 184.667L421.667 185.333L421.333 184.667z"/>
<path style="fill:#040404; stroke:none;" d="M403.667 189.333L404.333 189.667L403.667 189.333z"/>
<path style="fill:#fcfcfc; stroke:none;" d="M479 191L480 192L479 191M727 191L728 192L727 191M1391 196L1392 197L1391 196M474 201L475 202L474 201M479 206L478 208L480 208L479 206z"/>
<path style="fill:#040404; stroke:none;" d="M455 207L458 210L455 207z"/>
<path style="fill:#fcfcfc; stroke:none;" d="M479 209L480 210L479 209z"/>
<path style="fill:#040404; stroke:none;" d="M327 211L328 212L327 211M440 215L441 216L440 215z"/>
<path style="fill:#fcfcfc; stroke:none;" d="M1373 217L1374 218L1373 217z"/>
<path style="fill:#040404; stroke:none;" d="M1612 217L1611 220L1614 221L1615 217L1612 217z"/>
<path style="fill:#fcfcfc; stroke:none;" d="M1373 219L1374 220L1373 219M1377 221L1377 224L1378 224L1377 221M455 223L456 224L455 223M456 225L457 226L456 225M475 233L475 236L478 236L478 233L475 233M456 237L457 238L456 237M466.333 238.667L466.667 239.333L466.333 238.667M457 239L458 240L457 239M1650 249L1649 253L1652 252L1650 249M330.667 255.333L331.333 255.667L330.667 255.333M336 257L340 263L341 263L336 257M1654 274L1655 275L1654 274z"/>
<path style="fill:#040404; stroke:none;" d="M1656 285L1655 286L1656 289L1659 288L1659 286L1658 285L1656 285z"/>
<path style="fill:#fcfcfc; stroke:none;" d="M336 292L340 289L336 292M1645.33 289.667L1645.67 290.333L1645.33 289.667M329 306L330 307L329 306z"/>
<path style="fill:#040404; stroke:none;" d="M314 309L314 312L315 312L316 309L314 309z"/>
<path style="fill:#fcfcfc; stroke:none;" d="M1625 311L1626 312L1625 311z"/>
<path style="fill:#040404; stroke:none;" d="M313 315L314 316L313 315z"/>
<path style="fill:#fcfcfc; stroke:none;" d="M306 325L304 330L308 332L308 325L306 325M1581 335L1582 336L1581 335M293 341L292 344L293 341M292 360L295 357L292 360M1577 367L1578 368L1577 367M280 375L281 376L280 375z"/>
<path style="fill:#040404; stroke:none;" d="M270 383L271 384L270 383M275 383L276 384L275 383M272 385L273 386L272 385z"/>
<path style="fill:#fcfcfc; stroke:none;" d="M1578.67 391.333L1579.33 391.667L1578.67 391.333z"/>
<path style="fill:#040404; stroke:none;" d="M1586 397L1587 398L1586 397M267 409L266 415L267 415L267 409z"/>
<path style="fill:#fcfcfc; stroke:none;" d="M1607 409L1608 410L1607 409M1592 415L1592 416L1595 416L1592 415M371 427L372 428L371 427M268 430L268 432L270 432L268 430M277 439L278 440L277 439z"/>
<path style="fill:#040404; stroke:none;" d="M349.667 439.333L350.333 439.667L349.667 439.333z"/>
<path style="fill:#fcfcfc; stroke:none;" d="M354 446L355 447L354 446z"/>
<path style="fill:#040404; stroke:none;" d="M322 467L323 470L324 470L324 467L322 467M279 483L280 484L279 483M1601 483L1602 484L1601 483z"/>
<path style="fill:#fcfcfc; stroke:none;" d="M1558 487L1559 488L1558 487M1553.67 491.333L1554.33 491.667L1553.67 491.333M1563 491L1564 492L1563 491z"/>
<path style="fill:#040404; stroke:none;" d="M1572 518L1572 520L1574 520L1574 518L1572 518z"/>
<path style="fill:#fcfcfc; stroke:none;" d="M1589 542L1590 543L1589 542z"/>
<path style="fill:#040404; stroke:none;" d="M1590 565L1591 566L1590 565M307 573L307 576L308 576L307 573z"/>
<path style="fill:#fcfcfc; stroke:none;" d="M1569 575L1570 576L1569 575z"/>
<path style="fill:#040404; stroke:none;" d="M306 577L307 578L306 577z"/>
<path style="fill:#fcfcfc; stroke:none;" d="M1553 579L1554 580L1553 579M296 596L295 597L295 599L300 600L296 596z"/>
<path style="fill:#040404; stroke:none;" d="M268 600L271 597L268 600z"/>
<path style="fill:#fcfcfc; stroke:none;" d="M1542 597L1543 598L1542 597M1549 599L1550 600L1549 599z"/>
<path style="fill:#040404; stroke:none;" d="M280 615L281 616L280 615z"/>
<path style="fill:#fcfcfc; stroke:none;" d="M302 631L303 632L302 631z"/>
<path style="fill:#040404; stroke:none;" d="M283.333 634.667L283.667 635.333L283.333 634.667z"/>
<path style="fill:#fcfcfc; stroke:none;" d="M308 639L309 640L308 639M294 645L294 649L295 649L294 645M296 651L297 652L296 651z"/>
<path style="fill:#040404; stroke:none;" d="M238.667 659.333L239.333 659.667L238.667 659.333z"/>
<path style="fill:#fcfcfc; stroke:none;" d="M290 661L291 662L290 661M1520 675L1517 680C1520.31 679.423 1521.75 678.176 1520 675M244 683L244 684L248 684L244 683M1525 685L1525 688L1526 688L1525 685M256 687L256 688L259 688L256 687z"/>
<path style="fill:#040404; stroke:none;" d="M1536 697L1538 699L1538 697L1536 697z"/>
<path style="fill:#fcfcfc; stroke:none;" d="M1528.67 699.333L1529.33 699.667L1528.67 699.333M308 722L308 724L310 724L308 722M318 725L317 731L324 732L320 730L320 725L318 725M1496 726L1498 728L1496 726M241 737L244 736L241 737M1460 759L1461 760L1460 759M1424.67 771.333L1425.33 771.667L1424.67 771.333M1453 771L1453 772L1456 772L1453 771M216 785L217 786L216 785M220 786L220 788L222 788L220 786z"/>
<path style="fill:#040404; stroke:none;" d="M262 823C263.317 829.054 269.523 830.09 273 825L272 824L262 823M1532 835L1533 836L1532 835z"/>
<path style="fill:#fcfcfc; stroke:none;" d="M288 863L289 864L288 863M292 863L293 864L292 863M1475 863L1475 865L1477 863L1475 863M596 883L597 884L596 883M599 887L600 888L599 887M1461 887L1462 888L1461 887M328 891L329 892L328 891M1441.67 893.333L1442.33 893.667L1441.67 893.333M600.333 894.667L600.667 895.333L600.333 894.667M348 897L349 898L348 897M288 899L289 900L288 899z"/>
<path style="fill:#040404; stroke:none;" d="M277 903L277 904L280 904L277 903z"/>
<path style="fill:#fcfcfc; stroke:none;" d="M292 903L293 904L292 903M1450 907L1451 908L1450 907M1445 911L1448 914L1449 911L1445 911z"/>
<path style="fill:#040404; stroke:none;" d="M289 912L290 913L289 912z"/>
<path style="fill:#fcfcfc; stroke:none;" d="M1412 917L1412 920L1414 920L1414 917L1412 917M1403 925L1403 928L1404 928L1403 925M587.333 927.667L587.667 928.333L587.333 927.667M348 931L349 932L348 931M1407 931L1408 932L1407 931z"/>
<path style="fill:#040404; stroke:none;" d="M342 932L341 935L338 935L338 936C340.891 935.872 342.688 935.13 342 932z"/>
<path style="fill:#fcfcfc; stroke:none;" d="M648 934L647 936L649 936L648 934M1303 934L1302 938L1305 934L1303 934z"/>
<path style="fill:#040404; stroke:none;" d="M592 937L593 938L592 937M625 945L624 946L625 949L628 948L628 946L627 945L625 945z"/>
<path style="fill:#fcfcfc; stroke:none;" d="M1304 945L1304 948L1306 948L1306 945L1304 945M346 947L347 948L346 947M1266 949L1267 956L1262 958L1262 960L1271 964L1266 957L1269 956L1266 949M654.333 954.667L654.667 955.333L654.333 954.667z"/>
<path style="fill:#040404; stroke:none;" d="M634 957L634 960L636 960L636 957L634 957z"/>
<path style="fill:#fcfcfc; stroke:none;" d="M1315.67 959.333L1316.33 959.667L1315.67 959.333M376.333 962.667L376.667 963.333L376.333 962.667M329 965L330 966L329 965M1274 971L1277 976L1274 971M366 975L367 976L366 975M396 975L391 982C394.425 980.611 397.267 978.987 396 975M513 975L514 976L513 975M354 977L355 978L354 977z"/>
<path style="fill:#040404; stroke:none;" d="M1356 977L1357 984L1358 984L1358 977L1356 977z"/>
<path style="fill:#fcfcfc; stroke:none;" d="M661 978L658 984L663 978L661 978M355 979L356 980L355 979M691 979L691 980L694 980L691 979z"/>
<path style="fill:#040404; stroke:none;" d="M351 980L350 984L353 980L351 980M1360 983L1361 984L1360 983z"/>
<path style="fill:#fcfcfc; stroke:none;" d="M369 987L370 988L369 987M652 989L651 992L652 989M1190 989L1188 992L1192 992L1190 989M1303 989L1303 992L1304 992L1303 989M490 990L490 993L492 992L492 991L490 990M979 991L980 992L979 991M1156.67 991.333L1157.33 991.667L1156.67 991.333z"/>
<path style="fill:#040404; stroke:none;" d="M512 993L513 996L514 996L514 993L512 993z"/>
<path style="fill:#fcfcfc; stroke:none;" d="M488.667 995.333L489.333 995.667L488.667 995.333M625 995L626 996L625 995M648 995L649 996L648 995M1177 995L1178 996L1177 995M632 997L630 1001L632 997M1214 997C1213.13 1000.57 1213.34 1002.71 1217 1004L1214 997z"/>
<path style="fill:#040404; stroke:none;" d="M1306 997L1306 1000L1307 1000L1308 997L1306 997z"/>
<path style="fill:#fcfcfc; stroke:none;" d="M579 998L580 999L579 998M979 999L980 1000L979 999M1135 999L1136 1000L1135 999M628 1000L624 1006L628 1000M982 1000L984 1005L982 1000z"/>
<path style="fill:#040404; stroke:none;" d="M613 1002L612 1006L616 1003L613 1002M1336 1003L1339 1012L1340 1012L1336 1003z"/>
<path style="fill:#fcfcfc; stroke:none;" d="M1129 1007L1130 1008L1129 1007M981 1009L980 1012L976 1012C983.29 1023.44 976.642 1030.27 973 1042L972 1042L971 1038L970 1038C966.533 1046.97 963.285 1047.7 954 1048C960.775 1038.03 955.165 1035.43 952 1025L948 1026L946 1019L945 1019C945.109 1024.11 948.254 1028.18 948.281 1033.01C948.319 1039.9 944.338 1045.37 944.047 1052C943.582 1062.62 948.082 1066.27 941 1076L944 1080L1000 1080L997 1078L996 1061C992.008 1060.21 981.547 1057.85 980.779 1052.94C979.645 1045.7 996.223 1032.24 1000 1026L983 1016L981 1009M1284 1011L1284 1013L1286 1011L1284 1011M1192 1013L1193 1014L1192 1013M1271 1015L1271 1016L1274 1016L1271 1015M1136 1017L1136 1019L1138 1017L1136 1017M971 1018L968 1032L972 1032C973.375 1027.48 975.434 1021.22 971 1018M994 1020L997 1020L996 1018L994 1020M1294 1019L1295 1020L1294 1019z"/>
<path style="fill:#040404; stroke:none;" d="M1104 1021L1106 1024L1104 1021M1222 1023L1222 1024L1225 1024L1222 1023z"/>
<path style="fill:#fcfcfc; stroke:none;" d="M898 1027L891 1033C897.229 1045.83 886.725 1045.92 882.607 1056.13C881.022 1060.06 883.55 1064.44 885 1068L880 1070L879 1065L878 1065L874 1080L931 1080C930.77 1071.85 935.841 1067.22 943 1064C936.795 1054.8 938.533 1050.95 937 1041L941 1037C934.235 1038.46 925.644 1036.89 924 1029L917 1032L915 1029L915.413 1047L907 1060L899 1058C902.159 1049.95 909.224 1046.46 907 1037L906 1037C898.99 1048.08 900.609 1030.44 898 1027M928 1027L929 1028L928 1027M935.667 1031.33L936.333 1031.67L935.667 1031.33M957 1031L958 1032L957 1031M1077 1031L1077 1035L1079 1031L1077 1031M433 1039L434 1040L433 1039M816 1045L817 1046L816 1045M757 1047L753 1051L759 1052L760 1056L757 1057L761 1080L768 1080L770 1063L767 1063C766.244 1058.35 761.059 1049.28 757 1047M1048.67 1047.33L1049.33 1047.67L1048.67 1047.33M1066 1047L1066 1048L1069 1048L1066 1047M1247 1047L1247 1050L1248 1050L1247 1047M1031 1051L1033 1060L1022 1063L1020 1059L1019 1059C1015.48 1067.4 1021.94 1067.17 1024 1074L1019 1072L1020 1080L1031 1080C1031.78 1072.98 1036.24 1070.2 1043 1070L1036 1064C1039.58 1058.11 1039.93 1050.41 1031 1051M584 1051L584 1052L588 1052L584 1051M775 1051L774 1056L776 1056L775 1051M789 1053L788 1056L791 1056L789 1053M878 1054L876 1062C878.91 1059.94 879.326 1057.26 878 1054M578 1055L577 1060L580 1055L578 1055M768.667 1055.33L769.333 1055.67L768.667 1055.33M1015 1055L1016 1056L1015 1055z"/>
<path style="fill:#040404; stroke:none;" d="M912 1057C911.487 1061.71 911.845 1067.15 916 1070L914 1057L912 1057z"/>
<path style="fill:#fcfcfc; stroke:none;" d="M1050 1057L1049 1080L1069 1080L1064 1067C1054.11 1071.31 1056.03 1061.29 1050 1057M1064 1061L1063 1065C1065.18 1063.58 1065.64 1063.08 1064 1061M1011 1063L1012 1064L1011 1063M862 1068L866 1065L862 1068M658 1067L645 1080L666 1080L658 1067M673 1080L685 1080C683.87 1077.02 684.542 1072.07 682.923 1069.66C677.549 1061.66 673.154 1076.48 673 1080M936 1068L940 1069L936 1068z"/>
<path style="fill:#040404; stroke:none;" d="M577 1069L578 1073L579 1073L580 1069L577 1069z"/>
<path style="fill:#fcfcfc; stroke:none;" d="M778 1080L792 1080C791.165 1076.93 785.883 1067.17 781.589 1070.09C779.387 1071.58 779.045 1077.53 778 1080M1080 1069L1079 1074L1080 1074L1080 1069M1002 1071L1001 1080L1016 1080C1015.24 1072.75 1008.03 1073.46 1002 1071M1099 1073L1099 1080L1101 1080L1101 1073L1099 1073M869 1074L868 1076L870 1076L869 1074M794.667 1075.33L795.333 1075.67L794.667 1075.33M862.667 1075.33L863.333 1075.67L862.667 1075.33M1111.67 1075.33L1112.33 1075.67L1111.67 1075.33M934 1080L941 1080L941 1076L934 1080M696 1080L699 1078L696 1080M828 1078L828 1080L830 1080L828 1078M691 1079L691 1080L695 1080L691 1079M772 1079L773 1080L772 1079M859.667 1079.33L860.333 1079.67L859.667 1079.33M1034 1079L1035 1080L1034 1079M1076 1079L1077 1080L1076 1079z"/>
</svg>
