<?xml version="1.0" standalone="yes"?>
<svg xmlns="http://www.w3.org/2000/svg" width="1920" height="1080">
<path style="fill:#fdfdfd; stroke:none;" d="M0 0L0 1080L1920 1080L1920 0L0 0z"/>
<path style="fill:#030303; stroke:none;" d="M633 25L630 25L626 38L623 37L611.295 69.0895L609.892 99L605 118L600 115L600.07 131.001L595 147L589 141L589 158C585.853 154.86 584.867 149.763 580.38 148.099C569.603 144.102 565.427 168.231 579 171L579 172C570.161 172.412 570.079 165.771 564 161C564.551 166.545 567.425 173.387 559 172L560 195L559 195L551 177L550 180L545 171L544 171L543 178L542 178L541 170L538 172C537.999 163.491 536.42 155.115 528 151L531 160L526 153L525 153L526 164C518.346 158.35 510.754 146.711 510 164L508 162L507 162C501.073 169.426 504.621 175.775 507 184L506 184C498.734 167.675 495.001 188.66 495 196L494 196L493 193L491 193L491 210L490 210L489 205L483 213L485 220C479.57 220.625 479.121 222.987 480 228L475 225L479 240L468 239L470 243L464 241L462 248L460 248L452 241L454 252L453 252L447 241L446 244L430 227L430 244L429 244L417.957 225.938L404 221C388.341 218.285 395.613 241.252 400 249L385 242L380 233L377 233L377 236L370 233L370 240L376 244L367 243L372 250L373 256L372 257L368 255C368.951 258.433 368.652 259.626 366 262L366 258L354 258L361 267L361 268C351.744 268.437 368.064 288.18 368 294L360 292L358.477 303.142L351.894 306.167L356 320L353 319L352 324L351 324L350 320L349 320L348 326L346 323L334 323L335 332L329 331L328 340C331.978 344.557 327.042 345.579 323 347L321 364L324 365L324 366L321 367L322 371L325 369L326 369L332 371L321 384L326 388C319.241 388.615 310.372 394.567 311 402L323 403L323 404L318 408L332 405L327 415L327 419C315.075 415.025 322.987 434.054 323 434L329 431L328 434C338.454 435.109 351.866 428.36 352 417C358.567 417.023 362.091 419.858 368 422.12C376.335 425.312 386.981 425.698 393 433C384.359 430.413 378.739 428.862 370 432L372 438L378 437C377.126 442.549 373.129 445.299 368 447C369.549 451.788 371.283 456.697 376 459L376 460L368 461L367 466C363.027 464.013 355.199 464.946 351 468C347.702 470.399 350.13 472.783 347 472L348 476L333 480C338.429 482.014 337.26 487.117 339 492L355 495L355 496L351 496C345.867 502.95 342.509 510.964 355 508L357 514L353 515L354 520L359 519L347 521.694L327.196 529.461L319 531C316.433 527.977 304.504 521.226 306.752 531.025C307.678 535.063 313.079 538.079 315.714 541.015C323.055 549.195 326.272 558.474 338 561C333.157 569.541 324.186 555.955 318 555C318 571.137 324.985 574.042 339 579L339 580C336.534 584.923 349.153 599.116 354 601C352.087 604.853 350.219 605.669 346 605L345 610L337 607L337 608C339.413 610.337 340.233 611.336 338 614L340 612L340 611L334 610L334 609L336 606C333.253 605.171 332 605.012 332 608L323 607L325 609L325 610C320.628 612.406 317.351 615.071 316 620L331 629L331 632L314 629L318 638L327 642C322.386 651.871 322.244 652.167 312 653L327 670L311 667L312 678C302.223 676.477 300.246 684.032 293 688C292.529 683.529 291.354 681.521 287 680L283 688L282 685L281 685C278.893 692.986 286.967 693.913 290 700C297.351 700.404 296.927 704.615 301.279 709.27C305.228 713.495 310.542 715.156 314.961 718.684C321.81 724.153 323.979 731.302 334 729L335 734L329 733C322.767 742.338 302.761 725.251 295 725C294.652 728.205 291.919 732.772 287.885 731.048C279.228 727.347 275.674 715.879 265 716L262 728L256 729L256 732C263.656 735.962 266.411 739.559 265 748C268.033 750.761 267.331 752.359 266 756L271 760C260.836 762.068 252.444 781.19 267 774C270.058 780.713 272.576 782.974 280 783C275.743 793.285 284.145 794.826 286 804L300 809L299 816C303.875 816.737 305.634 819.185 306 824L310 821L312 821L313 824L324 823C318.579 833.241 313.34 841.398 304 849L303 860C318.556 861.182 304.491 870.692 304 878L331.979 864.718L341.392 860.596L343.754 867.004L341 894L348 887L352 888L353 885L356 886L354 884L354 883L359 877L360 877C359.221 884.828 346.805 902.81 354 908L356 899L364 908L365 905L367 905L366 916L359 918L359 920L367 921L365 931C376.581 924.68 386.48 918.163 382 903C399.458 912.276 379.217 928.906 381 941C390.009 940.948 392.2 936.896 400 933C401.941 940.025 406.922 948.211 400 954L400 956L401 957L415 955C413.224 961.654 410.811 968.301 420 969L420 987L431 985L440 980L444 1000L448 992L449 992C449.178 999.375 452.066 1002.12 459 1004L460 995L469 998L469 995L471 998L480 977L483 978L483 962L487 963L486 970L491 965L502 974L503 967L507 972C513.287 969.835 513.244 962.539 515 957L518 958L518 949C524.043 954.598 528.539 963.303 531 971C534.848 968.235 535.103 963.367 534 959L546 972L534 923L535 923C535.626 935.047 546.762 955.111 560 956L554 932L559 936C558.01 930.393 558.686 925.917 564 923C562.653 928.781 571.643 930.766 576 934L580 929L579 917L586 917L589 920L586 895L588 898C594.765 893.816 589.57 886.174 587 881L588 881L589 883L591 869L598 876L596 869L605 877L613 871L614 871C616.628 877.722 623.236 879.269 627.03 885.015C629.991 889.501 630.158 895.599 633.56 899.741C646.211 915.143 663.569 928.562 679 941.095C685.443 946.328 704.265 958.969 711 948L735 963L733 955L738 956L739 953C748.461 960.446 750.919 946.313 748.157 939C747.178 936.409 744.527 933.951 744.442 931.091C744.373 928.771 746.706 926.711 748 925L745 924L745 923C757.648 926.537 768.292 911.837 771 901L772 901C772.062 906.205 773.125 909.68 779 909L780 912L798 899C798.302 904.912 802.38 913.397 796 917L799.253 924.046L790 934C776.33 934.122 773.268 944.92 769 956C774.813 954.126 785.708 936.94 783.139 953.995C782.835 956.01 782.397 958.002 782 960L791 955C777.743 974.791 743.826 973.737 734 996L740 993L740 1000C746.045 998.984 748.364 990.274 754 996C750.099 997.569 749.271 1000.59 753 1003L750 1010L759 1006L760 1007L752 1024C768.015 1022.36 774.272 1009.13 785 1000L781 1007L782 1014L787 1008L788 1008C791.659 1023.18 795.618 1012.89 807 1013C805.984 1017.27 805.125 1021.21 809 1024L817 1008L819 1008C819.55 1015.89 817.354 1025.89 823 1032L826 1029L827 1048L833 1045L835 1045L840 1048L841 1053C849.268 1048.46 841.976 1031.14 849 1033L850 1033L855 1029L853 1037C864.21 1034.73 867.183 1024.75 869 1015L873 1016L872 1018L879 1019L872 1032L876 1032L879 1025L889 1024C894.376 1019.09 908.113 1012.34 909 1024L921 1005L926 1006L927 997L932 1000L933 993L937 1010C941.672 1002.99 945.81 997.893 946 989L947 989L948 994C952.667 991.274 952.134 986.777 951 982L955 981L956 998L959 994L964 996L961 983L967 984L973 959L975 959L979 970C984.68 961.805 986.513 971.394 988 977C996.259 977.63 994.114 983.826 996.243 990C999.552 999.596 1005.99 1017.33 1016 1020L1016 1001L1017 1001C1018.48 1008.95 1017.9 1019.85 1028 1021L1027 1028L1028 1028L1032 1012C1039.86 1016.16 1042.15 1011.93 1048 1007C1048 1018.93 1046.28 1035.62 1062 1038C1058.99 1029.09 1062.73 1024.78 1062.66 1016C1062.61 1009.92 1063.88 996.407 1062.02 991.133C1060.71 987.441 1055.34 986.904 1054.61 982.956C1054.11 980.259 1056.6 977.715 1056.75 975C1057.11 968.212 1052.75 960.299 1049 955L1056 956C1055.13 949.504 1051.25 942.93 1055 937C1056.31 942.45 1056.58 952.541 1062.38 955.411C1066.45 957.422 1078.91 954.07 1080.79 957.408C1083.15 961.616 1077.41 971.288 1077 976L1086 976L1086 972L1087 972L1088 988L1094 988C1101.93 986.297 1112.52 973.355 1117 984L1119 984L1124 956C1134.25 959.939 1136.67 966.232 1139 976L1141 976C1142.54 970.261 1145.21 968.689 1151 970L1132 949L1137 951L1139 948L1140 952C1146.37 951.648 1154.95 952.158 1157 945L1154 941L1161 941L1162 945C1178.21 944.226 1166.84 956.93 1173.77 963.282C1177.88 967.056 1182.75 960.406 1179 957L1188 945C1186.28 955.455 1194.89 961.122 1204 964L1197.91 949L1199.08 937L1190.62 923.723L1183.2 918.687L1182 904C1185.19 905.813 1186.95 909.546 1190.17 911.025C1193.45 912.532 1196.77 910.123 1199.95 911.286C1204.36 912.904 1210.28 921.536 1211 926L1224 939.114L1233 937L1232 931C1240.62 932.408 1240.51 924.339 1239 918L1243 912L1244 912L1246 922L1253 914L1256 916L1261 907L1263 908L1264 905L1266 905L1270 916L1273 916L1272 908L1272 907C1277.59 902.274 1282.24 896.394 1283 889C1288.84 891.046 1291.65 893.664 1292 900C1296.01 899.51 1301.12 896.355 1304 900L1305 900L1310 889L1317 903L1318 903C1318.88 897.765 1318.27 893.773 1324 892C1325.63 898.337 1326.71 910.134 1329.98 915.541C1332.22 919.23 1337.26 922.097 1340 918L1343 920L1343 915L1348 916C1347.19 898.549 1360.49 917.263 1363 924L1365 924L1371 905L1374 906L1378 902L1384 909L1384 901L1388 902L1384 879L1387 880L1386 875L1394 880C1395.96 872.597 1399.83 874.342 1406 873L1407 861L1425 869L1434 864L1430 855L1440 855C1445.83 845.721 1441.9 840.875 1436 833L1450 830L1457 824C1456.41 818.635 1453.85 814.463 1449 812L1469 796L1469 795C1464.6 791.494 1460.61 790.636 1455.09 792.274C1452.26 793.115 1449.69 796.511 1446.58 795.092C1442.19 793.097 1439.08 787.753 1435.67 784.486C1422.89 772.217 1413.67 757.886 1408 741L1409 741C1414.33 752.088 1421.16 770.186 1434 774C1431.81 764.583 1438.63 767.345 1442.04 761.022C1445.38 754.831 1442.49 750.563 1440 745L1448 745L1447 752L1465 753L1480 748L1480 747L1475 744L1475.58 733.143L1481 725C1476.3 722.527 1475.09 719.98 1479 716L1467 708L1484 709.688L1506 714L1500 699L1488 688L1490 683L1501 689L1504 680L1504 679L1493 663L1492 663L1492 667L1489 666L1491 663L1484 664L1491 654L1476 652L1476 651C1485.87 649.347 1472.87 640.447 1470 637L1476 636C1474.43 626.031 1482 625.894 1489 629.856C1499.71 635.917 1504.41 647.858 1516 653.812C1522.85 657.335 1530.95 653.926 1538 659L1539 659L1541 657C1543.85 663.395 1550.08 671.03 1557 673L1556 666C1558.99 665.573 1563.14 666.365 1565.81 664.934C1572.17 661.528 1568.42 654.984 1567.12 650C1562.85 633.667 1549.36 625.247 1542 611C1539.55 606.275 1535.79 601.004 1534.21 596C1532.53 590.657 1533.75 586.581 1530 582C1541.5 579.483 1536.46 568.697 1527 568L1533 567C1532.66 560.354 1531.36 555.222 1525 552L1525 551L1544.58 550.671L1556 554L1556 553L1551 552L1551 551L1562 546C1560.84 537.877 1560.6 535.284 1555 529L1558 528C1555.88 522.545 1554.3 515.016 1549 512C1551.1 504.05 1544.5 495.841 1540 490L1548 478L1546 473L1563 473L1564 469L1557 468L1557 467L1572.99 467.732L1584 462L1575 450C1579.72 445.992 1582.9 444.213 1589 446C1588.26 436.234 1579.28 433.618 1582 423L1565 416C1566.55 405.927 1560.84 399.338 1557 391L1566 384C1563.67 378.224 1561 375.523 1555 374C1560.02 364.384 1550.06 356.863 1542 364C1542.04 359.328 1542.67 345.023 1538.4 342.138C1536.67 340.972 1533.06 341.457 1531 341L1528 347L1527 347C1524.8 341.087 1525.25 332.761 1519 330L1518 333L1515 332L1511.67 349.772L1492 361L1491 358L1498 351L1490 354L1490 343L1486 344C1484.66 332.754 1489.07 322.718 1500 317.806C1503.36 316.296 1508.93 316.963 1511 314L1514 315L1514 314L1509 312L1516 308L1516 312L1517 312C1516.88 301.845 1509.88 303.561 1502 302C1507.51 296.045 1511.37 283.188 1512 275L1503 275C1504.64 267.652 1497.26 268.045 1492.01 265.826C1478.27 260.01 1459.1 275.772 1447.29 267.012C1442.64 263.568 1452.45 257.785 1452 253L1448 254L1451 245L1450 244L1434 252L1437 238L1426.96 244.812L1415 248L1420 237L1405 228L1392 232C1388.5 228.076 1382.11 232.337 1380 236L1373 236C1374.76 228.006 1372.25 225.903 1369 219L1376.06 209.039L1392.63 189L1397.01 177L1407.94 155L1406.34 136L1415 115L1410 116C1407.23 107.565 1397.87 108.949 1392 113.019C1386.09 117.121 1380.27 122.871 1376.47 129C1372.36 135.62 1369.48 144.253 1361 146C1359.5 151.701 1355.32 156.922 1349 156L1347 160C1344.13 154.668 1342.21 155.96 1337 157L1336 166L1334 166L1334 161L1332 164C1326.75 164.604 1325.76 167.364 1324 172L1323 172L1318 145L1317 149L1316 149L1315 146L1314 150L1313 150L1311 142C1304.67 144.496 1300.65 146.853 1300 154L1299 154L1298 150L1286 162C1282.01 162.193 1280.68 164.546 1279 168L1276 167L1273 169L1273 175C1267.59 173.001 1265 172.874 1260 176L1260 171L1257 176L1256 176L1252 159L1247 166C1244.7 156.322 1243.93 153.529 1237 146L1236 146L1229 158L1224 147L1220 147L1220 152C1213.43 153.082 1213.16 158.108 1206 155L1204 174L1200 173C1197.77 176.537 1196.17 177.471 1192 177L1191 185L1179 181L1174 192C1156.43 187.479 1147.83 206.592 1137 216C1140.43 209.696 1147.48 200.214 1146 193L1132.24 195.078L1123 203.262L1114 202C1114.42 196.908 1114.49 191.524 1108 193L1102 185L1091 184L1091 182C1094.91 179.824 1096.3 177.387 1097 173L1085 186L1085 180L1082 181L1087 169L1083 171L1092 138C1080.04 144.279 1082.24 161.095 1072 168L1070 157L1067 158L1072.43 145.83L1078.67 129.015L1087.24 115L1084 95L1080 89L1072 98L1072 91L1066 97C1058.74 92.0402 1052.98 94.4991 1056 104C1036.62 109.2 1053 85.9952 1043 80L1050 60L1041 68L1035 61C1027.65 62.5198 1025.96 72.7366 1023 79L1018 78L1015 83L1009 79L1012 71L1007 71C1007.72 76.0773 1007.64 78.168 1004 82L1002 59L1001 59L995 63L990 76L989 63C983.062 67.1431 979.533 84.8785 977 92L976 92L976 88L975 88L969 105L968 105L968 99C962.023 101.073 960.495 110.325 960 116L958 116C958.549 111.652 963.378 92.1833 954.978 93.0293C950.875 93.4426 947.211 98.6943 944 101L935 84C927.952 85.2239 928.859 95.6317 925.583 100.922C921.96 106.773 920.66 100.605 921 97L913 108C914.306 101.972 912.993 96.5449 906 98C908.261 93.6401 909.496 90.8197 908 86C900.758 84.3278 900.933 76.017 902 70L896 70L898 76L891 80L885 69C873.248 75.2933 876.189 85.4852 879 96L861 78L860 74L856 81C852.784 79.7243 851.721 79.9537 850 83C843.247 78.8571 842.187 82.3875 843 89L845 88L846 96L844 93L838 93L850 129L849 129L840 106L827.424 105.383L818.054 99.8904L809.946 103.411L792 99L791 108C794.578 109.877 795.557 112.032 796 116L792 113L791 113L798 130L796 127L780 132C776.949 126.748 772.838 130.458 768 129.421C764.718 128.718 761.78 124.937 758.189 125.817C753.38 126.996 752.961 138.933 754.603 142.586C756.821 147.516 769.842 154.261 774.985 154.367C778.338 154.437 781.68 151.281 784.79 153.542C791.184 158.188 789.337 167.468 789.34 174C789.345 188.22 799.582 209.642 788 222C788 212.748 786.503 197.386 776 194C777.205 200.275 782.638 212.449 772.259 213.745C769.489 214.091 759.193 200.415 758 209L753 209L742 224L739 211L736 212L735 209L733 209L733 214L728 211L728 216L726 216L716 193L711 193L711 202L691 186L691 179L681 178C689.075 162.401 680.753 153.276 680.87 138C680.937 129.415 687.916 121.101 685.588 112C683.861 105.249 683.911 97.4456 681.394 91C680.525 88.7774 678.573 83.2651 676 86C666.915 77.894 664.055 68.4946 666 57L665 57L661 67L660 67L658 64L658 63C667.973 50.5741 660.018 35.957 662 22L661 22L654 31L652 23L648 29C642.08 18.4989 638.906 30.5621 633 25M1044 51L1045 52L1044 51M1003 54L1004 55L1003 54M1013 75L1013 76L1016 76L1013 75z"/>
<path style="fill:#fdfdfd; stroke:none;" d="M1008 81L1009 86L1010 86L1011 81L1008 81M1014 83L1015 84L1014 83M907 88L908 89L907 88M1005 94L1006 95L1005 94z"/>
<path style="fill:#030303; stroke:none;" d="M914 95L914 96L917 96L914 95M967 95L968 96L967 95z"/>
<path style="fill:#fdfdfd; stroke:none;" d="M1036.67 103.333L1037.33 103.667L1036.67 103.333M1045 105L1046 106L1045 105M798 117L798 120L800 120L800 117L798 117M957 121L957 124L959 124L959 121L957 121M756.667 128.333L757.333 128.667L756.667 128.333M850 131L851 132L850 131M851.333 133.667L851.667 134.333L851.333 133.667z"/>
<path style="fill:#030303; stroke:none;" d="M1094 137L1094 140L1096 137L1094 137z"/>
<path style="fill:#fdfdfd; stroke:none;" d="M1069 139L1070 140L1069 139M761 141L763 144L761 141M1068 141L1068 144L1070 144L1070 141L1068 141z"/>
<path style="fill:#030303; stroke:none;" d="M1074.33 149.667L1074.67 150.333L1074.33 149.667M1079.33 150.667L1079.67 151.333L1079.33 150.667z"/>
<path style="fill:#fdfdfd; stroke:none;" d="M588 159L590 165L591 165L588 159M531 161L532 162L531 161M1066 161L1066 164L1068 164L1068 161L1066 161M532 163L533 164L532 163M1082 171L1079 177L1082 171M1077 177L1075 185C1077.59 182.523 1078.84 180.277 1077 177M1081 181L1080 184L1081 181M1075 186L1076 187L1075 186M676 217L677 217C680.752 211.723 676.167 198.321 686 201L686 188C677.959 190.597 669.916 210.71 676 217M1075 188L1074 198L1075 198L1075 188M1090 190L1091 191L1090 190z"/>
<path style="fill:#030303; stroke:none;" d="M708.667 191.333L709.333 191.667L708.667 191.333z"/>
<path style="fill:#fdfdfd; stroke:none;" d="M688 201L689 202L688 201M1073 201L1072 207L1073 207L1073 201M1160 201C1160.86 204.043 1162.3 204.765 1165 203L1160 201M1070 209L1067 218L1068 218L1070 209M491.333 211.667L491.667 212.333L491.333 211.667M758 211L759 212L758 211M773 215L772 219L775 218L775 215L773 215M680 217L680 220L682 220L682 217L680 217M682 221L683 222L682 221M776 221L777 222L776 221M486.333 223.667L486.667 224.333L486.333 223.667M687 225L686 227L686 228L689 229L689 225L687 225M383 240L382 242L384 242L383 240M433 242L432 244L434 244L433 242M400 249L400 252L401 252L400 249M436 253L438 256L436 253M784 267L785 268L784 267M1442 267L1443 268L1442 267M469 271L470 272L469 271M1497 292C1501.53 292.512 1504.53 291.524 1506 287L1497 292M1499.67 301.333L1500.33 301.667L1499.67 301.333M362 303L363 304L362 303M323 363L324 364L323 363M1476 363L1476 364L1482 364L1476 363M336 372L339 372L338 370L336 372z"/>
<path style="fill:#030303; stroke:none;" d="M313 391L314 392L313 391M1583 423L1583 424L1586 424L1583 423M316.667 427.333L317.333 427.667L316.667 427.333z"/>
<path style="fill:#fdfdfd; stroke:none;" d="M394 433L400 437L394 433M401 437L409 444L413 448L419 452L401 437M371 452L372 453L371 452M374 455L375 456L374 455M425.667 459.333L426.333 459.667L425.667 459.333M378 461L379 468L382 463L378 461M384 461L386 464L384 461M1549 468L1552 468L1551 466L1549 468M343 485L346 488L343 485M341 487L342 488L341 487M358 509L358 512L360 512L360 509L358 509z"/>
<path style="fill:#030303; stroke:none;" d="M350.667 515.333L351.333 515.667L350.667 515.333z"/>
<path style="fill:#fdfdfd; stroke:none;" d="M1553 547L1553 548L1556 548L1553 547M1526 579L1527 580L1526 579M1458 603L1460 605L1460 606L1450 611L1450 612L1456 613L1458 620L1472.6 616.401L1467 601L1458 603M347 609L349 612L347 609M356 613L359 616L356 613z"/>
<path style="fill:#030303; stroke:none;" d="M312.667 615.333L313.333 615.667L312.667 615.333z"/>
<path style="fill:#fdfdfd; stroke:none;" d="M1453 615L1454 616L1453 615M1467 636L1467 637L1470 637L1470 636L1467 636M1455 639L1456 640L1455 639M1473 663L1473 664L1477 664L1473 663M332.667 671.333L333.333 671.667L332.667 671.333M294 697L294 698L306 703L306 701L312 703C311.352 699.078 309.764 698.015 306 697L306 701L305 701L305 697L294 697M296 729L296 732L297 732L296 729M1467 730L1466 732L1468 732L1467 730M1469 732L1472 732L1471 730L1469 732M1404 731L1407 741L1408 741C1407.9 736.858 1407.63 733.406 1404 731M292 733L293 734L292 733z"/>
<path style="fill:#030303; stroke:none;" d="M1480 749L1482 752L1482 749L1480 749z"/>
<path style="fill:#fdfdfd; stroke:none;" d="M1438 759L1438 760L1439 762L1440 762L1438 759z"/>
<path style="fill:#030303; stroke:none;" d="M267 779L268 780L267 779M274.667 787.333L275.333 787.667L274.667 787.333z"/>
<path style="fill:#fdfdfd; stroke:none;" d="M344 859L344 861L346 859L344 859z"/>
<path style="fill:#030303; stroke:none;" d="M590 899L591 900L590 899z"/>
<path style="fill:#fdfdfd; stroke:none;" d="M1376 899L1377 900L1376 899M739 903C734.591 905.122 719.741 911.812 733 916C733.421 910.483 735.98 909.363 741 908L739 903M1373 903L1374 904L1373 903M1169 905L1167 910C1170.01 909.354 1170.5 907.613 1169 905M1350 905L1351 906L1350 905M532 910L533 919L534 919L532 910M738 913L739 914L738 913M736.667 915.333L737.333 915.667L736.667 915.333M402 931L402 932L405 932L402 931M551 935L552 936L551 935M1148 935L1149 936L1148 935z"/>
<path style="fill:#030303; stroke:none;" d="M1242 939L1243 940L1242 939z"/>
<path style="fill:#fdfdfd; stroke:none;" d="M791 943L789 948L793 943L791 943z"/>
<path style="fill:#030303; stroke:none;" d="M1160 945L1159 948L1160 945z"/>
<path style="fill:#fdfdfd; stroke:none;" d="M1137 947L1138 948L1137 947M1072.67 951.333L1073.33 951.667L1072.67 951.333M514 955L515 956L514 955z"/>
<path style="fill:#030303; stroke:none;" d="M523 959L524 960L523 959z"/>
<path style="fill:#fdfdfd; stroke:none;" d="M1177 959L1178 960L1177 959M954 975L955 976L954 975M785 999L786 1000L785 999M829 1012L828 1016C831.021 1015.35 831.086 1014.09 829 1012M837 1015L838 1016L837 1015z"/>
<path style="fill:#030303; stroke:none;" d="M1036.33 1016.67L1036.67 1017.33L1036.33 1016.67z"/>
<path style="fill:#fdfdfd; stroke:none;" d="M836 1017L834 1020C836.251 1019.53 837.118 1019.14 836 1017z"/>
<path style="fill:#030303; stroke:none;" d="M749 1027L749 1028L752 1028L749 1027z"/>
<path style="fill:#fdfdfd; stroke:none;" d="M858 1031L859 1032L858 1031M832.667 1039.33L833.333 1039.67L832.667 1039.33z"/>
</svg>
