<?xml version="1.0" standalone="yes"?>
<svg xmlns="http://www.w3.org/2000/svg" width="1920" height="1080">
<path style="fill:#fefefe; stroke:none;" d="M0 0L0 1080L1920 1080L1920 0L0 0z"/>
<path style="fill:#030303; stroke:none;" d="M631 75L629 80L628 77L623 76L618.79 109L612.286 125L607 150L605 145C601.125 147.794 601.984 151.733 603 156L599 161C593.115 161.708 594.866 169.604 595 174L592 171L590 171L588 176L584 175C581.001 179.737 574.664 183.593 569 183L564 208L550 204L550 208L548 208L545 198L543 198L540 201L536 191L533 200L528 191L524 193C519.912 180.068 515.189 200.177 511 199L510 199L503 221C497.497 222.185 503.487 225.259 501.417 228.278C499.816 230.611 494.536 230.734 492 231L497 245L496 245L487 235L487 253L474 247L471 257L468 254L467 255L469 258L464 257L464 264C469.252 266.561 472.364 271.48 474 277L451 258L458 274L444 263L443 266L434 261L438 270C433.707 266.368 431.008 260.576 425.999 257.835C419.148 254.085 404.605 252.388 407 264L387 257C387.202 263.796 392.416 267.691 393.367 273.961C394.845 283.704 385.616 283.312 380 281L384 300C390.209 301.489 400.391 312.894 389 314L388 320C373.409 322.018 384.808 329.647 390 336L384 333L379 333L384 344L383 344C375.336 331.037 361.537 336.78 351 341L351 344C361.71 348.393 346.958 351.579 349.623 358.826C351.397 363.651 357.43 363.807 359 369C368.444 368.527 364.045 375.473 368 380L356 392C362.898 393.498 369.326 397.26 372 404C365.822 405.89 359.761 408.854 363 416C369.972 416.304 377.074 421.303 383 424.67C400.538 434.634 419.499 447.931 432 464C426.748 463.463 425.398 459.957 421.741 456.708C415.769 451.404 407.121 444.195 400 440.595C385.823 433.427 393.631 447.563 401 452L387 448L388 452C380.69 454.941 387.256 461.029 385.794 466.468C385.051 469.232 381.084 470.41 379 472L382 473L382 474C373.487 471.359 370.687 470.329 362 473L362.013 483.7L367.397 493.015L368 506L370 505C371.112 507.521 375.417 511.814 376 507L377 507L380 520C375.094 520.388 365.203 520.355 364 526L361 525L353 531L350 529L350 536C357.979 538.06 360.999 541.543 369 537L364 556L359 555L359 560L353 558L352 559L353 568L346 563L345 572L340 571L353.83 587.04L360 606L355 607C359.897 614.673 363.35 618.746 372 622C366.796 627.598 359.914 620.988 354 619L356 624L344 621L344 628L334 627C336.121 631.167 348.923 645.851 335.025 641.791C333.332 641.296 331.675 640.556 330 640C333.517 650.254 344.674 648.756 336 660C349.825 670.563 344.001 674.597 331 679L338 690L306 685C307.547 694.949 327.951 701.212 311 707C317.284 714.162 330.28 712.042 324 724C329.238 728.116 333.54 728 340 728L340 736L304 735L305 742L289 738C288.58 742.939 291.486 746.322 286 749C287.576 754.849 289.579 760.002 295 763L295 764L286 769C286.403 771.94 285.979 777.299 287.718 779.695C291.665 785.134 304.838 783.268 311 785L304 789C304.739 792.878 306.531 799.266 309.563 801.995C315.206 807.075 322.245 806.672 322 816L334 815C335.343 821.256 334.567 831.294 329 835C330.596 840.918 325.671 843.256 323 848C333.6 851.424 357.486 846.915 351 865C354.552 867.449 353.032 872.036 353 876C365.87 872.243 363.103 872.151 366 884L376 881L377 881L379 884C370.242 887.235 369.934 894.189 372 902L375 901L376 908L381.263 899.483L391 893L392 902C402.53 901.741 399.273 913.243 398 920L420 919L423 923L421 930L427 929C427.08 936.268 429.097 947.38 438 946L448 956L449 956L457 939L460 962C465.083 960.331 469.658 957.941 472 953L474 953L475 956C480.109 954.247 484.669 951.434 486 946L492 947L495 953C495 949.612 498.476 951.535 501 952L501 935C507.325 937.271 506.051 930.366 502 928L505 923L513 936C520.248 933.794 520.042 929.454 518 923L519 923C521.509 930.088 527.207 936.329 533 941L524 911L525 911L529 916C528.972 912.623 529.408 898.9 535.047 908.074C539.265 914.936 533.386 922.994 544 926L543 919L548 919L548 924L550 924L547 907L558 915L557 909L562 911L564 907L565 907L569 914L571 909L572 909L575 913C576.296 907.11 575.277 903.628 581 900L578 886L584 888L580.974 875.59L584 862L585 862L592 868C596.726 860.529 602.912 868.539 608 871C612.768 861.722 625.976 879.055 630 884L634 882C640.788 897.027 649.678 903.243 663 911.843C667.31 914.625 671.186 919.288 675.999 921.089C680.027 922.596 684.765 921.709 689 923L692 920L691 913L695 915L707.396 911.917L710 900L705 902L689 871C686.496 871 685.826 854.916 684.833 851C684.187 848.449 681.469 846.611 681.167 844C680.849 841.262 685.478 838.791 686.5 836C687.809 832.426 684.494 828.044 686.333 825.167C690.475 818.688 703.022 816.201 710 818.333C719.041 821.096 717.86 833.561 716 841C715.232 844.073 711.62 847.67 713.5 851C714.933 853.538 719.449 854.194 722 855C721.927 859.525 724.966 859.869 729 860C723.414 870.767 705.638 885.196 709 899L714 897L715 902C717.881 900.689 722.193 897.119 717 896L717 895L732 896C737.564 887.119 744.946 889.252 754 886L755 887L754 906C761.936 903.724 762.089 895.576 765 889L766 896L785 880C785.69 895.149 798.763 890.593 807 885L807 902L816 898C813.561 910.263 796.935 924.306 799 937C804.402 935.702 810.272 936.821 813 942L803 949C804.787 959.298 796.065 961.353 793 970L799 968L800 972L810 964C809.754 967.307 810.495 968.999 811.796 972C812.766 974.237 811.902 977.494 813.152 979.393C817.927 986.647 827.502 968.141 830 966C829.307 968.423 828.356 970.652 827.45 973.002C825.929 976.947 825.863 986.512 832.829 982.663C837.678 979.984 840.997 974.163 846 971L847 982L850 982L853 978C852.588 982.231 848.031 987.794 848.878 991.736C850.182 997.805 860.034 995.078 864 995L858 1004C864.915 1001.15 869.733 997.778 873 991L875 996C882.094 989.803 883.655 980.406 886.911 972C890.827 961.893 897.001 952.412 900 942L905 943L898.4 966L898.042 975.168L912 976L914 966L915 966C915.396 974.52 920.258 975.622 928 976L928 967L933 972L935 959L936 959L938 964C943.41 960.034 952.889 950.286 956 962L973 933L976 942L978 942L979 939L987 950L988 943C996.635 949.077 1000 953.588 1000 964C1010.39 957.457 1007.64 967.013 1016 970C1014.61 975.266 1017.03 978.621 1021 982L1022 969L1023 969L1025 976L1027 976L1027 967L1035 970C1039.16 955.913 1035.5 945.442 1044 932C1048.33 939.03 1060.46 931.734 1067 930L1066 940L1074 944L1073 936C1075.93 937.542 1092.94 949.777 1093.25 940.031C1093.38 936.041 1087.83 934.895 1088.5 930.571C1089.36 924.982 1093.61 920.88 1094 915C1099.12 917.961 1103.98 927.195 1109.17 928.539C1113.03 929.537 1121.5 911.269 1121.23 923.957L1121 928L1122 928L1123 926L1143 926L1154 927L1154 925L1149 923L1168 924L1151 907C1156.41 904.696 1155.51 900.112 1157 895C1163.71 897.791 1170.53 894.267 1172 887L1173 887L1174 890C1181.55 885.752 1182.45 885.11 1191 885L1199 891L1202 887L1202 896L1211 893L1206 879L1208 873L1218 877L1221 876C1222.37 886.811 1230.26 887.523 1240 884L1246 896L1247 896L1248 880L1256 881L1258 873L1260 873L1261 876L1268 876L1280 861C1282.18 866.543 1284.51 873.148 1290 876L1290 871L1293 872L1298 855L1308 865L1308 847C1311.29 848.429 1320.32 872.788 1322 865L1328 865C1330.68 870.461 1336.35 880.758 1342 883L1342 879L1352 886L1355 869C1355.96 869.816 1357.02 870.95 1358.16 871.592C1371.06 878.833 1364 859.293 1364.52 854C1365.33 845.806 1372.36 843.76 1367 835L1380 838L1384 833L1384 838L1399 838L1397 836L1397 835L1408 837L1406 829L1409 830L1402 810L1408 812L1406 794L1409 793L1402 767L1403 767C1406.9 774.657 1411.54 781.368 1420 784L1423 780L1402.57 731L1394 707L1395 707C1395.23 718.29 1402.58 722.245 1408 731.015C1412.59 738.448 1412.37 746.425 1421 751L1421 737L1423 737L1427 748L1437 740C1434.26 726.701 1447.08 736.826 1453 738L1448 728L1448 727L1453 728L1451 721L1454 720L1450 704L1450 703C1456.39 700.344 1465.29 700.403 1472 702L1474 695L1471 694L1472 690L1465 688L1477 684C1474.94 677.123 1462.32 674.392 1456 672L1458 670L1456 667L1453 668C1453.47 661.825 1455.44 655.205 1448 653C1450.23 645.178 1445.17 644.755 1439 647L1431 640L1434 636L1434 635C1431.01 630.82 1428.16 628.225 1430 623C1422.59 618.692 1430.87 613.115 1436 612L1436 611C1432.97 607.273 1436.27 605.288 1440 604L1450 594L1438 592L1441 583C1453.66 583.584 1462.87 586.765 1468 600L1472 598C1473.52 603.356 1474.78 610.836 1481 612C1485.09 620.216 1491.55 621.598 1498 627.188C1501.34 630.08 1504.5 634.838 1509 635.922C1514.24 637.184 1530.22 640.1 1526 631L1533 634L1534 631C1537.01 632.269 1544.12 634.6 1544.29 628.956C1544.44 623.579 1537.32 618.808 1534.64 614.714C1527.68 604.095 1524.53 593.482 1520.56 582C1518.99 577.466 1514.48 567.195 1521 565C1519.9 558.094 1514.45 544.26 1521.89 539.978C1524.41 538.526 1528.98 539.069 1532 538L1531 533L1542 532C1542 524.614 1539.64 511.072 1532 508L1535 503L1535 502L1531 497L1534 496L1529 492L1537 486C1535.11 479.017 1530.04 475.631 1524 472L1524 471L1533 472L1534 471C1532.6 464.662 1536.41 466.299 1540.73 463.683C1543.38 462.074 1544.32 458.854 1547.11 457.317C1550.84 455.256 1555.23 455.294 1558.4 451.968C1562.21 447.975 1562.67 443.708 1568 440L1555 432L1560 423C1555.21 422.071 1544.03 422.613 1540.6 419.258C1535.79 414.544 1542.59 407.763 1535 404L1535 397L1547 390L1546 386L1541 380C1528.47 378.675 1522.25 378.786 1515 368L1502 370L1508 358C1493.63 361.405 1480.98 364.888 1466 364L1466 363C1471.17 362.89 1480.06 362.514 1482 357L1477 356C1481.39 347.689 1474.9 344.487 1472 337C1477.8 334.484 1479.76 330.833 1477 325L1471 328L1467 321C1463.81 320.282 1463.9 318.821 1465 316L1465 315L1461 310L1471 308L1471 305L1457.99 294.024L1449.23 289.772L1447.99 278.618L1432 274L1435 256C1425.36 260.212 1418.4 268.819 1407 268L1407 267C1414.25 265.313 1425.51 259.712 1425 251C1419.26 253.414 1414.6 253.19 1412 247L1407 248C1407.64 240.56 1405.89 232.631 1396 237L1395 234L1386 237L1386 234L1379 240L1370 240C1370.38 233.046 1366.29 223.209 1368.96 216.999C1372.41 208.979 1379.57 202.446 1384.19 195C1388.26 188.434 1389.2 181.884 1392.17 175C1394.81 168.907 1398.89 163.878 1397 157L1394 159L1394 143L1390 145C1389.3 141.73 1388.62 133.914 1384.86 132.89C1381.06 131.857 1378.47 136.376 1376.81 139.001C1371.32 147.715 1363.69 154.366 1358 163L1357 163L1355 161L1346 172C1336.63 169.769 1326.47 171.622 1322 181L1312 167L1308 168L1306 161L1281 176L1280 181L1279 181L1277 176L1276 176L1274 183C1264.59 178.573 1260.01 180.958 1260 192L1259 192L1255 181L1254 186C1250.41 182.064 1249.18 176.331 1243 179C1242.24 173.977 1236.37 162.391 1231 170L1230 170L1222 162L1219 176L1215 176L1212 173C1209.12 184.245 1215.74 190.039 1202 193L1203 200L1198 201C1194.88 195.61 1189.97 194.165 1184 195L1178 203L1178 204C1180.33 207.381 1184.68 213.421 1181.56 217.517C1180.27 219.22 1177.41 219.108 1176.72 221.328C1175.94 223.814 1177.69 227.451 1178 230L1171 231C1172.56 239.237 1172.24 241.185 1169 249L1161 245L1157 247L1156 246L1157 237L1140 252C1140.86 246.941 1143.11 243.038 1139 239C1139.14 242.986 1135.38 244.193 1132 244L1135 231L1126 241C1121.44 238.341 1121.05 235.009 1121 230L1108 235L1104 248L1104 241L1097 246L1102 209C1093.06 210.848 1091.18 224.209 1092 232L1088 232L1091 211L1084 220L1083 214L1077 225L1076 225L1076 218C1068.88 221.724 1072.05 231.309 1063 232L1060 228L1062.33 219L1065.17 205.817L1058.39 208.214L1044 224C1044.63 218.442 1044.39 212.386 1045.94 207C1048.88 196.761 1055.12 193.25 1048 183L1047 183L1043 190C1038.93 184.484 1033.88 174.524 1034.24 167.424C1034.65 159.178 1045.16 144.034 1033 141L1026 152L1029.36 141.039L1027 131L1020 122L1005.76 134.714L999 151L998 151L999 141L995 141L984 124L981 141L972 137L973.492 146.96L968 164C962.211 166.051 955.795 168.519 952 162C947.928 164.589 946.324 167.18 946 172L943 169L942 169L942 176L939 184L936 184L936 165L932 166L931 157L930 157L921 173L924 159L920 162L919 162L917 155L911 155L909 163C906.776 153.633 910.123 147.541 900 142L897 147L900 131L892 140L894 127C885.045 131.548 884 142.034 884 151L883 151L879 137L873.124 154L866.667 169L867 181L865 181L864 163C856.504 162.351 857.444 170.738 859 176L852 173L850 183L844 180L842 197L841 197L837 188L836 188L835.517 204.911L833 217L832 217L832 213L828 213L820.916 237L817 248L820.667 216L813 193L811 193L810 194L811 201L804.39 198.175L800.065 209L794 239L793 236C787.681 236.855 786.37 238.993 785 244L783 241C780.431 243.261 779.569 243.261 777 241L776 241L766 252L769 243C763.023 240.409 761.552 239.079 756 243L754 229L753 229L748 233L749 226L734 236L735 229L731 234L728 232L727 232C717.345 240.808 722.816 223.562 713.132 227.962C707.677 230.441 709.392 236.45 706.861 240.733C705.355 243.282 701.34 244.286 699 246L698 240L696 240L694 247L694 248L696 252L688 246L689 255L682 256L682 253L679 254C679.072 245.137 680.005 235.112 668 238C668.044 227.963 668.164 217.707 671.343 207.996C672.645 204.021 675.067 199.717 671 197C674.704 184.139 678.383 170.783 676.684 157C676.027 151.665 672.445 147.342 672.055 142C671.089 128.789 673.562 119.789 668 107L666 107L664 116L663 116L653 87L652 87L650 89L649 83L648 83L646 96L639 86L638 88L637 88L631 75M1020 115L1021 116L1020 115z"/>
<path style="fill:#fefefe; stroke:none;" d="M1007 136L1006 140L1007 136z"/>
<path style="fill:#030303; stroke:none;" d="M604.333 142.667L604.667 143.333L604.333 142.667z"/>
<path style="fill:#fefefe; stroke:none;" d="M1216 176L1217 177L1216 176M668.667 199.333L669.333 199.667L668.667 199.333M1087 232L1085 235L1087 232M747 234L748 235L747 234M730 236L730 240L731 240L732 236L730 236M793 240C787.143 250.302 784.249 261.297 777.918 271.17C775.96 274.224 773.784 278.569 777 281C779.112 276.278 783.172 274.678 785.865 270.701C790.083 264.473 793.698 247.409 793 240M699 249L700 250L699 249M698 251L699 252L698 251M763 251L764 252L763 251z"/>
<path style="fill:#030303; stroke:none;" d="M419.333 254.667L419.667 255.333L419.333 254.667z"/>
<path style="fill:#fefefe; stroke:none;" d="M689 255L690 256L689 255M408 262L409 263L408 262M486 266L486 268L488 268L488 266L486 266M474 277L476 280L474 277M392 280L391 286C393.215 283.78 393.778 282.662 392 280M381 289L383 293L381 289M398.667 311.333L399.333 311.667L398.667 311.333M1475 355L1476 356L1475 355z"/>
<path style="fill:#030303; stroke:none;" d="M347 359L348 360L347 359z"/>
<path style="fill:#fefefe; stroke:none;" d="M1457 366L1460 363L1457 366M1455 365L1456 366L1455 365M1499.67 371.333L1500.33 371.667L1499.67 371.333M369 381L369 383L375 384L369 381M372.667 399.333L373.333 399.667L372.667 399.333M372 404C374.548 407.97 378.596 407.887 383 408L372 404z"/>
<path style="fill:#030303; stroke:none;" d="M359 413L360 414L359 413z"/>
<path style="fill:#fefefe; stroke:none;" d="M1555 423L1556 424L1555 423M436 467L437 468L436 467M441 470L444 472L444 471L441 470M1523.33 472.667L1523.67 473.333L1523.33 472.667M364.333 478.667L364.667 479.333L364.333 478.667z"/>
<path style="fill:#030303; stroke:none;" d="M356 481L357 482L356 481M359 481L360 482L359 481z"/>
<path style="fill:#fefefe; stroke:none;" d="M370 485L371 486L370 485M370.667 487.333L371.333 487.667L370.667 487.333M389 565C391.955 573.895 405.651 562.979 408 558L389 565M384 560L380 561C379.497 565.371 381.232 568.695 385 571L384 560M394 575L395 576L394 575M360 606L361 607L360 606M340 628L341 629L340 628M1446.67 653.333L1447.33 653.667L1446.67 653.333z"/>
<path style="fill:#030303; stroke:none;" d="M1459 669L1460 670L1459 669z"/>
<path style="fill:#fefefe; stroke:none;" d="M1450.67 671.333L1451.33 671.667L1450.67 671.333M1447 719L1448 720L1447 719M1427 724L1430 724L1429 722L1427 724M1434.67 727.333L1435.33 727.667L1434.67 727.333M1400 763L1401 764L1400 763M328 847L327 849L328 847M729 859L730 860L729 859M591 863L592 864L591 863M1288 863L1288 868L1289 868L1290 863L1288 863M1218 870L1219 871L1218 870M632.333 879.667L632.667 880.333L632.333 879.667M373 895L374 898L375 898L375 895L373 895M816 895L817 896L816 895M810 917L809 918L809 919L809 920L812 917L810 917M1139 919L1139 920L1144 922L1139 919M500 921L501 926L502 926L502 921L500 921M862 943L863 944L862 943M955 945C953.998 948.712 954.32 950.521 958 952L955 945z"/>
<path style="fill:#030303; stroke:none;" d="M1040 956L1043 954L1040 956z"/>
<path style="fill:#fefefe; stroke:none;" d="M926 962L927 963L926 962M832 963L833 964L832 963z"/>
<path style="fill:#030303; stroke:none;" d="M847 994L846 996L848 996L847 994M851 997L851 1000L852 1000L851 997z"/>
</svg>
