<?xml version="1.0" standalone="yes"?>
<svg xmlns="http://www.w3.org/2000/svg" width="1920" height="1080">
<path style="fill:#ffffff; stroke:none;" d="M0 0L0 1080L1920 1080L1920 0L0 0z"/>
<path style="fill:#030303; stroke:none;" d="M1324 213C1322.03 207.121 1314.94 211.307 1310 211L1309 214L1289 214L1288 211L1276 212L1275 209C1269.35 217.342 1265.73 214.327 1258.11 218.863C1255.01 220.708 1253.51 225.483 1249.95 226.292C1241.41 228.227 1229.89 226.915 1222.24 234.054C1216.59 239.324 1224.86 254.521 1213 257C1214.37 271.02 1204.4 261.444 1200.6 270.214C1196.54 279.603 1205.06 285.262 1195 294L1194 293L1194 289L1187 289C1185.71 293.6 1183.11 302.081 1184.65 306.714C1188.07 316.981 1197.78 325.349 1199.02 337C1200.05 346.674 1188.19 357.399 1193.02 367.911C1195.3 372.861 1199.87 379.152 1204.17 382.488C1208.8 386.077 1213.93 385.216 1215 392L1223 393C1224.88 404.398 1222.1 413.926 1229 424C1237.21 420.935 1248.24 418.052 1257 419L1256 424L1262 423L1253 444L1246 441L1248 448C1242.25 450.309 1244.86 455.957 1243.15 460.911C1241.19 466.591 1236.54 470.736 1234 476C1241.86 482.186 1238.95 490.616 1242.97 499C1245.61 504.516 1247.45 511.96 1250.72 516.961C1253.57 521.31 1258.41 524.444 1260.83 529.089C1262.43 532.179 1261.71 535.818 1263.09 539C1265.08 543.602 1269.37 546.098 1272.12 550.089C1279.42 560.695 1281.11 568.298 1294.99 571.895C1303.15 574.012 1303.7 582.082 1313 577C1316.5 583.348 1342.9 588.438 1347 581L1350 582L1353 577L1354 577C1357.62 579.646 1372.1 585.513 1375 583L1376 583C1381.93 588.129 1387.96 581.504 1391 576L1392 576L1398 580L1398 574L1408 572C1410.17 565.755 1426.3 547.95 1433.95 549.751C1439.85 551.141 1440.68 559.131 1448.41 557.568C1453.34 556.57 1453.09 550.879 1455.35 547.286C1461.17 538.009 1468.22 538.464 1465 526C1474.86 519.95 1470.04 505.333 1472.31 496C1474.81 485.742 1482.4 475.149 1481.3 464C1480.55 456.438 1473.67 449.731 1472.1 442C1470.61 434.668 1474.4 427.878 1470.44 420.414C1467.15 414.23 1459.86 411.015 1455.72 405.79C1451.15 400.015 1450.51 390.272 1446.14 385.421C1442.13 380.964 1438 384.497 1435 377C1429.75 376.962 1410.24 370.596 1409.62 364.995C1408.66 356.352 1419.33 340.076 1408 336C1411.08 328.854 1417.25 312.77 1408 308L1410 304L1410 303C1403.52 297.41 1392.43 292.303 1400 283L1393 280L1394 271C1386.05 269.768 1386.75 260.702 1381.14 255.61C1378.24 252.98 1374.37 255.473 1371 254.979C1366.55 254.328 1360.31 250.006 1357.27 246.79C1350.37 239.477 1357.29 237.201 1358.49 230C1359.18 225.828 1355.6 223.693 1355 219.961C1354.37 216.109 1356.98 213.07 1356 209L1344 209C1338.55 197.452 1330.43 208.027 1324 213M641 222L637 235L636 235L635 230L628 229L625 237L624 237L619 232L617 227L611 229L610 234L609 234L606 227L602 248L601 248L598 245L597 259L586 251L584 258L581 257C578.326 263.488 575.557 263.302 569 264L570 274L566 269C561.459 270.366 559.339 273.577 558 278L554 277L546 281L546 286C542.806 284.962 540.432 284.186 540 288L532 282C531.285 291.447 522.608 286.847 519 294L511 291L511 308L506 312C495.947 312.036 495.643 319.029 488 323C488.093 326.974 490.095 331.747 488.883 335.571C486.521 343.031 480.596 340.11 475.22 341.126C472.281 341.681 470.158 344.353 467 345L460 362C455.376 362.62 443.675 372.811 443.635 377.792C443.609 381.087 450.428 385.729 453 387L452 399L452 400L457.507 413.722L451.546 420.089L457.624 429.055L455 440C446.642 439.364 435.353 443.14 440.533 454C443.511 460.243 449.504 462.82 453.062 468.209C457.538 474.989 455.1 492.102 448 496L447 485L445 485L434.043 491.322L436.746 506.791L442.249 513.015L440 520L445 521C448.435 526.905 457.359 527.49 463.004 530.785C471.469 535.728 471.334 542.755 477.317 548.567C481.928 553.046 489.342 552.664 492.821 559.09C497.837 568.354 493.238 580.072 494.669 589.892C495.619 596.415 503.222 595.529 501 604L504.496 613.682L520 617L520 624L532 623L533 630C539.996 629.116 550.555 625.749 557.428 627.333C565.269 629.139 560.767 639.651 571 631L574 634L577 630C579.187 634.982 583.507 649.088 589 649L597.498 668.285L610 676L612 676L617 667L620 668C621.78 663.954 623.319 661.151 628 661L629 657L636 660C637.775 651.202 645.873 645.922 654 644L654 656C657.038 654.157 658.797 649.431 662.095 648.341C667.862 646.436 669.533 653.17 675 646L676 646L680 649L681.032 639.314L689 633C698.887 636.316 699.504 623.437 699 617L709.911 623.797L720 620L722 611C729.905 611.353 735.353 625.817 739 632C744.253 624.268 746.657 622.879 756 624C755.572 616.205 756.788 601.436 764.044 596.746C767.673 594.4 772.104 595.928 776 594C777.876 602.823 788.44 609.221 797 608L793 595C800.348 598.207 798.281 590.559 797 586C801.035 585.464 813.568 581.731 815.214 577.721C817.794 571.439 811.163 567.463 818 562L818 559C800.367 545.686 825.323 542.936 829.127 532.999C832.439 524.35 826.44 512.193 837 508L835 502L835 501L838 490C834.079 488.825 832.907 485.857 835.731 482.364C838.017 479.538 841.963 478.477 843.397 474.907C844.891 471.184 842.991 466.774 845.028 463.184C846.802 460.058 851.376 458.766 852.007 454.96C852.504 451.958 850.188 449.075 850.314 446C850.585 439.371 851.951 432.764 851.995 426C852.039 419.367 850.148 403.26 841 405L840 404C845.899 394.351 840.706 394.281 840 385C827.429 389.913 827.233 383.446 831 373C824.795 367.518 821.882 361.091 823 353C819.224 350.192 818.14 347.662 818 343C814.686 342.991 808.521 343.811 806.407 340.552C804.875 338.191 806.3 334.99 803.667 333.179C798.478 329.609 787.618 331.719 782 333L782 326L775 323L771 325L774 309L767 312L766 308L760 310L756 293L744 301L745 296L736 296L738 287L735 288L732 282L728 285L727 282L723 284L721 277L720 277L720 280C709.648 279.437 708.623 288.04 701 292L700 287C695.101 287.55 684.077 289.229 681 285L678 288L677 288L665 277L662 282L660 282C657.449 270.112 666.994 263.667 661 251L659 252C656.548 247.63 653.784 246.642 649 248L646 227L644 229L643 229L643 222L641 222M607 225L608 226L607 225M665 269L665 272L667 269L665 269z"/>
<path style="fill:#ffffff; stroke:none;" d="M1388 271L1389 272L1388 271z"/>
<path style="fill:#030303; stroke:none;" d="M997 304L976 304.141L962 299.412L940 301C939.74 309.102 933.845 308.257 927 309L915 326L912 325L910 336C896.362 333.989 890.115 340.419 878 344L880 352C870.009 355.284 878.313 369.441 872 375C873.529 381.502 867.395 391.322 874 395L874 399C866.712 403.126 870.732 408.674 877 411L877 412C872.946 412.906 870.916 413.79 870 418L874 419L868 434L860 435C865.72 448.274 862.272 463.276 857 476C866.501 476.863 864.916 482.956 868.954 489.714C873.79 497.806 881.93 508.04 888.557 514.567C892.605 518.554 899.312 519.497 903.581 523.633C906.669 526.626 907.046 531.327 909.785 534.625C913.576 539.187 918.754 540.273 923.076 543.799C927.323 547.263 929.077 552.578 934.015 555.331C946.26 562.158 958.287 559.072 970 567L971 567L975 561C981.959 564.085 984.151 561.559 991 561.479C1004 561.327 1014.5 561.762 1020 548L1034.01 546.995L1042.89 549.971L1047 546L1055 549L1061 533L1063 533C1066.39 538.517 1070.55 535.819 1069 530L1078 524L1089 497C1093.8 497.078 1095.38 492.162 1099.96 491.582C1105.6 490.868 1117.84 502.996 1121.31 490.956C1121.98 488.636 1121.21 486.337 1121.47 484C1121.83 480.73 1123.67 479.013 1122 476L1122 475C1130.28 469.977 1133.22 463.996 1126 456L1126 455C1134.01 447.157 1125.56 432.025 1124.02 423.004C1121.77 409.833 1128.77 394.97 1123.06 382.005C1120.06 375.181 1111.22 369.609 1106.95 363C1103.74 358.029 1105.9 349.882 1100 348C1102.8 335.775 1084.58 332.874 1077.21 328.062C1069.64 323.119 1066.2 313.475 1059.58 308.661C1056.59 306.487 1053.26 309.806 1050 308.258C1039.29 303.173 1030.69 304.242 1019 302.367C1012.13 301.266 1002.36 295.693 997 304z"/>
<path style="fill:#ffffff; stroke:none;" d="M791 591L792 592L791 591z"/>
</svg>
