<?xml version="1.0" standalone="yes"?>
<svg xmlns="http://www.w3.org/2000/svg" width="1920" height="1080">
<path style="fill:#ffffff; stroke:none;" d="M0 0L0 1080L1920 1080L1920 0L0 0z"/>
<path style="fill:#020202; stroke:none;" d="M622 169C614.622 178.336 615.232 187.85 610.476 197.728C608.298 202.252 604.018 195.496 600.854 199.337C594.64 206.882 597.707 221.25 596 230C592.839 227.329 590.716 225.554 587 228L582 225L583 232C579.175 229.52 580 225.192 580 221L579 221L573 241C567.443 238.115 564.696 239.769 564 246L553 238L551 249L545 245L540 241C534.501 245.848 533.685 250.159 532 257C513.803 253.17 520.267 269.311 507.003 275.238C502.019 277.466 497.366 270.456 492.438 274.654C489.477 277.176 491.119 281.664 491 285L487 282L486 292L491 304L485 303C482.755 310.394 467.353 296.72 469.881 308.96C470.158 310.299 470.651 311.678 471 313L466 311L466 316C460.014 312.843 454.983 306.39 448.996 304.189C439.693 300.77 434.186 306.631 437 316C430.584 317.058 430.024 322.41 431 328C423.736 329.211 437.11 346.73 438 350C428.748 351.909 415.548 354.389 408 360L413.039 372.911L428 392L424 393L428 404L422 401C423.495 412.562 430.629 412.32 437 420L432 421L435 430L430 429C425.908 436.421 417.501 430.035 411 431C417.88 453.143 446.584 462.082 453 484C442.829 476.544 434.138 468.94 421 467L432 481C422.89 474.54 418.197 469.563 407 473C408.824 478.221 419.945 484.535 408 488L408 492L400 489L405 495L402 500L406.237 508.482L415 516C397.662 519.682 407.349 536.552 420 539C417.197 552.032 433.345 549.607 442 550.759C446.953 551.419 449.815 554.382 455 553C456.739 559.233 462.045 560.51 468 561L473.755 574.005L472 594L466 589C459.295 595.403 450.068 592.366 449 604C445.218 602.675 443.628 602.949 441 606L440 606L437 604L434 613C426.57 613.873 418.318 607.642 413 614L412 614L404 609L404 612L393 613L396 623C385.089 629.671 392.982 645.436 380 650L373.216 662.015L378 672C367.502 672.811 371.53 684.396 379 687L379 688C376.468 688.269 370.773 687.616 369.067 689.781C367.349 691.962 369.025 696.355 368.502 698.985C366.811 707.492 359.754 707.539 353 706L352 707L354 714L348 715C357.31 729.733 353.02 741.027 337 747L346.547 756.147L349 771L349 772L347 776C359.15 781.029 357.626 794.616 363.178 803.726C365.674 807.821 371.58 810.108 373.811 814.414C375.554 817.778 374.658 822.357 376.418 826C379.401 832.175 385.297 835.867 389.185 841.209C391.747 844.729 391.145 849.094 393.174 852.714C395.838 857.469 400.828 859.631 404.537 863.273C412.319 870.915 414.926 867.506 423.892 870.779C430.973 873.363 432.963 884.938 441 874L442 874C448.281 883.799 461.874 881.264 472 885L473 881C481.834 885.948 491.114 884.632 492 873L496 877L504 876L505 873L507 873L511 880L515 882L516 882L520 877L521 877C527.217 882.344 531.899 881.536 532 873C536.479 872.286 537.677 870.172 539 866L540 866L542 874L549 874L549 867L560 868C560 864.133 558.829 857.656 561.742 854.599C564.251 851.966 568.544 852.299 571.117 849.387C574.603 845.439 576.095 840.541 582 840C588.325 826.224 594.421 844.34 602.004 846.847C607.01 848.503 615.19 845.768 620 844C618.912 837.376 622.133 830.199 627.414 825.839C629.661 823.985 633.111 823.576 634.393 820.66C636.621 815.588 630.932 812.137 631.39 807.553C631.868 802.774 638.714 801.797 635 796L635 795C639.216 791.363 637.119 789.301 635 785L639 784C637.097 778.661 636.094 775.783 641 772C636.902 764.708 642.232 763.648 644.137 756.961C646.891 747.294 648.187 735.275 648.403 725.286C648.525 719.613 642.508 715.67 640.171 711C637.236 705.133 636.828 698.167 635 692L658 689C658.099 700.833 664.564 700.988 671.91 708.044C676.824 712.764 680.409 718.576 688 717L699 723L692 739L705 737C706.857 746.331 702.822 752.199 714 755C711.676 760.028 714.771 760.861 717.093 765.089C718.291 767.271 717.74 770.241 719.61 772.03C725.243 777.417 737.359 781.21 736 790C748.849 797.431 736.596 802.03 741.222 810.852C743.486 815.168 748.321 812.828 751.895 814.488C757.415 817.05 762.487 828.454 758 833C759.963 839.466 764.816 837.064 770 836L770 840C790.171 842.087 810.196 842.957 821 862C828.007 861.2 838.179 870.299 841 863L844.992 887.342L852.714 885.39L868 867C869.436 876.016 874.547 874.314 880.853 878.026C887.17 881.745 887.771 887.716 895 879L896 879L900 888C904.029 886.082 906.214 882.31 910.039 880.161C915.527 877.077 919.009 879.892 924.015 878.703C928.344 877.675 931.358 873.721 936 872.934C950.486 870.476 968.571 887.298 974 867C983.145 871.784 987.782 868.393 992 859L994 859L999 868L1003 864L1004 864L1005 869C1015.92 866.999 1044.25 866.023 1048 853L1057 856L1059 852C1061.62 852.644 1064.67 851.708 1067.09 852.847C1069.97 854.2 1072.28 857.706 1075.79 857.454C1084.19 856.852 1093.32 846.15 1099.43 842.027C1103.93 838.986 1111.82 839.177 1116.98 836.826C1121.2 834.905 1123.37 830.728 1127 828L1124 819C1131.86 816.506 1127.6 811.031 1133.12 807.149C1137.95 803.759 1142.02 808.235 1146.57 806.354C1158.91 801.252 1152.39 789.308 1150 781L1167 775C1168.76 781.088 1164.42 798.452 1171.15 801.339C1173.89 802.516 1181.89 800.577 1185 800C1193.63 810.109 1200.2 813.101 1212 806C1215.29 811.344 1222.34 808.428 1228 810L1230 805C1235.27 806.836 1249.38 803.56 1254 800L1255 800L1277 804L1278 804L1292.61 799.972L1301 792L1318 777C1328.78 780.831 1330.65 769.478 1340 768C1340.97 761.916 1345 760.384 1347.99 755.561C1351.97 749.126 1353.61 736.545 1362 734L1370.4 725.895L1369.6 718L1373.29 711L1372.32 701.089L1377.68 673L1376 660L1376 659C1366.52 645.825 1375.92 629.46 1376.39 615.911C1376.58 610.633 1373.24 605.481 1373 600L1378 602L1379 599L1387 601L1390 606L1395 595L1397 595L1398 598L1401 596L1402 596L1407 600L1407 598C1417.8 598.004 1414.86 586.248 1415 579L1420 581L1433 565C1436.63 567.486 1438.84 569.001 1443 567C1444.86 576.146 1453.08 577.333 1461 578L1463 574C1466.6 582.439 1475.58 588.94 1484 592C1483.41 587.207 1482.68 583.617 1488 582L1495 576C1494.07 571.205 1495.37 565.391 1494.04 561C1492.69 556.535 1487.85 553.159 1487.4 548.34C1487.08 544.898 1492.09 544.115 1492.89 540.892C1493.79 537.277 1489.97 534.668 1490.57 531.259C1491.47 526.116 1495.95 518.649 1498.57 514C1501.58 508.648 1497.17 504.385 1504 501L1509 479L1501 478C1501.58 470.715 1506.88 457.905 1499 454C1501.41 448.087 1510.61 444.542 1511.64 439.856C1513.7 430.464 1502.38 428.7 1500.81 422.852C1499.61 418.382 1505.62 412.861 1502.93 408.688C1497.74 400.652 1473.37 408.12 1477 391L1465 390C1465.3 385.439 1468.75 380.614 1467.55 376.094C1464.31 363.897 1441.86 375.57 1436 365L1446 364L1443 357C1457.29 355.395 1446.61 346.203 1443 340L1433 340L1434 333L1429 333L1427 336C1426.04 330.221 1430.32 328.186 1431.29 323C1433.38 311.917 1431 284.116 1412 296L1416 286C1410.67 284.377 1410.77 279.956 1414 276L1414 275L1404 279C1400.78 270.867 1405.88 263.269 1395 264L1392 245C1386.36 246.849 1381.33 246.477 1378 252L1377 252L1377 245C1357.88 248.091 1362.12 233.299 1364.53 220C1365.31 215.681 1363.87 210.832 1365.58 206.714C1367.25 202.717 1370.85 199.896 1372.65 196C1374.14 192.767 1373.63 188.509 1374 185L1365 188L1363 179C1356.14 176.076 1350.63 181.91 1348 188C1339.65 185.049 1336.15 191.794 1333 199L1323 193C1319.03 197.887 1312.78 200.091 1309 194L1304 198C1299.7 187.733 1285.87 198.626 1279.01 200.031C1275.55 200.741 1271.67 197.272 1268 197L1262 210L1257 211L1250 205C1245.34 213.495 1242.73 199.814 1237.97 198.832C1227.14 196.596 1224 213.088 1224 220C1208.62 215.972 1204.26 223.006 1209 238C1206.15 238.614 1206.15 239.303 1207 242L1206 243L1203 242L1203 254L1204 258L1191 254L1199 288C1197.15 286.544 1187.92 270.437 1187 278L1180 273C1178.91 278.693 1178.32 281.442 1172 280C1169.71 285.987 1168.78 290.223 1172 296L1169 295C1151.85 309.607 1185.16 321.149 1186.38 336C1187.13 345.043 1176.88 353.938 1175.83 363C1175.02 370.015 1177.35 375.606 1184 378L1180 388L1155 388L1158 377C1145.57 374.076 1131.98 358.335 1148 350C1148.04 344.544 1144.7 335.814 1138.83 333.693C1136.24 332.758 1132.94 334.665 1130.78 332.382C1127.42 328.83 1130.44 317.437 1131 313L1109 315.914L1094 312L1095 305L1080 308C1080.01 303.192 1082.15 296.577 1080.14 292.109C1075.47 281.714 1059.04 291.943 1052 292.808C1048.34 293.257 1044.64 292.287 1041 292L1041 289C1045.95 288.551 1048.99 286.981 1052 283L1045 280C1049.84 276.392 1053.63 275.655 1054 269L1048 268L1049 263L1041 260L1038 264C1032.39 262.35 1030.54 260.652 1029 255C1023.61 257.159 1015.07 258.233 1010.41 261.302C1001.32 267.295 1004.47 277.16 991 275C986.47 280.496 975.421 288.611 972 279L969 280L967 276L966 276L952 272L951 280L949 280C948.236 270.662 937.697 263.143 932 274L928 272L930 284C926.751 281.925 920.754 274.213 916.484 277.043C914.517 278.347 915.616 282.176 913.441 282.843C910.363 283.786 907.654 279.839 904.394 281.368C901.391 282.776 900.638 287.415 899.006 289.996C896.254 294.349 891.736 298.463 888 302L887 297L884 297C879.498 303.901 876.895 315.641 866.986 316.548C863.337 316.882 860.596 312.984 857.197 313.704C852.254 314.752 850.631 319.533 845 319L845 313C838.166 315.09 831.866 313.222 828 307C823.557 307.88 816.991 306.489 813.094 308.198C806.513 311.085 807.739 317.412 799 316L803 301L794 305L795 301L789 300L790 281L776 303L775 303L777 291L773 296L762 288C764.215 283.318 771.584 275.404 766 271C764.921 274.549 763.479 275.617 760 274L749 283C748.578 277.467 742.943 264.908 737 265L736 256L731 258L728 253L723 264L722 264L722 261C715.282 262.136 712.904 269.967 712 276L707 265C703.3 267.002 696.108 276.771 693 273C688.125 276.011 685.404 276.906 683 271L677 269L672 270L671 257L667 258L662 229L659 230C658.997 225.863 659.654 221.582 656 219L655 223L654 223L659 182L654 182L652 169L651 169C646.092 175.966 641.749 178.836 641 188L640 188L629 170L622 169M664.333 230.667L664.667 231.333L664.333 230.667M497.667 255.333L498.333 255.667L497.667 255.333z"/>
<path style="fill:#ffffff; stroke:none;" d="M721 266L722 267L721 266M692 277L693 278L692 277M1187.33 278.667L1187.67 279.333L1187.33 278.667M1173 285L1174 286L1173 285M1173 287L1174 288L1173 287M787.333 294.667L787.667 295.333L787.333 294.667z"/>
<path style="fill:#020202; stroke:none;" d="M467.333 302.667L467.667 303.333L467.333 302.667z"/>
<path style="fill:#ffffff; stroke:none;" d="M472 313L475 316L472 313M1211 432C1211.93 426.046 1216.76 421.072 1214.44 415C1212.44 409.787 1212.42 403.649 1209.91 398.714C1207.11 393.173 1194 386.055 1189.07 393.514C1187.04 396.582 1186.58 407.459 1188.99 410.412C1190.83 412.675 1194.09 412.676 1195.88 415.228C1200.52 421.874 1202.11 429.663 1211 432M1216 431L1217 432L1216 431M1242 433L1245 436L1242 433M1224 439L1212 451C1224.2 478.506 1181.17 471.241 1175 490L1178 491L1177 494C1179.19 495.103 1182.58 496.238 1182.85 499.108C1183.14 502.113 1179.67 505.507 1182.61 508.169C1188.48 513.483 1199.44 509.794 1205.99 509.586C1208.72 509.5 1211.28 511.946 1213.92 511.258C1216.02 510.709 1217.6 508.484 1219 507L1220 516C1226.48 515.81 1230.21 517.128 1233 510L1232 509L1226 511C1224.6 498.486 1223.07 498.272 1211 496L1216 485C1208.24 483.746 1214.9 476.629 1212 471L1217 466C1224.2 469.464 1230.14 467.061 1237 464L1226 439L1224 439M432.667 483.333L433.333 483.667L432.667 483.333M408 497C408.692 500.228 410.101 500.02 413 499L408 497M639 679L640 679L642 668C636.825 669.723 638.808 674.512 639 679M640 680L641 681L640 680z"/>
<path style="fill:#020202; stroke:none;" d="M1026 923L1027 924L1026 923z"/>
</svg>
