<?xml version="1.0" standalone="yes"?>
<svg xmlns="http://www.w3.org/2000/svg" width="1920" height="1080">
<path style="fill:#fefefe; stroke:none;" d="M0 0L0 1080L1920 1080L1920 0L0 0z"/>
<path style="fill:#030303; stroke:none;" d="M633 54L630 60L629 60C621.928 53.6772 618.612 70.2774 617.964 75C616.624 84.7723 617.6 95.4373 615.657 104.985C614.835 109.023 611.766 112.059 610.599 116.004C608.084 124.505 608.073 135.17 608 144L606 144L608 134C601.067 136.277 597.576 149.45 599 156L594 158L591 155L593 171L592 171L589 165L587 165L583 168C584.194 160.299 579.981 161.623 575 165L575 167C583.307 173.87 576.349 180.223 568 175L563 201L558 201L556 194L555 194L556 200L552 200L551 189L550 189L549 200L548 200C547.446 195.186 545.716 194.006 541 195C539.433 189.26 536.927 178.438 532 175L531 185L524 177C521.089 177.085 516.953 175.556 514.275 176.646C509.339 178.655 512.013 193.359 512 198L504 193C500.871 200.413 498.6 222.96 490 222L495 240L484 229C483.04 232.654 483.278 243.07 480.397 245.365C477.79 247.442 474.953 243.507 472.174 243.92C467.786 244.571 464.916 252.362 464 256L462 254L458 255L459 259L442 245L449 261C439.178 257.988 429.686 256.433 425 246L424 246L424 252L423 252L422 243L417 246L418 242L416 239L410 239L410 247L406 245L404 256L400 260L393 251L392 251L385 248L384 248L380 250L385 275L383 274L382 274L384 280L372 271C370.938 277.365 373.06 287.695 376.819 292.985C378.995 296.047 385.408 300.616 385.688 304.444C386.022 309.029 380.035 308.964 377 309L367 320L376 327L376 328L374 333L360 329C356.843 332.766 352.558 331.311 348 331L340 338L347.387 348.11L340 356L336 355L347 368L350 367L356 371L354 380C342.449 375.353 337.904 395.167 349 395L350 400L358 402L348.615 406.434L338 419L339 423L340 423C342.094 421.732 344.615 422.558 346.795 421.165C349.433 419.479 350.598 415.589 354.043 415.237C358.862 414.745 366.491 418.908 371 420.59C389.773 427.595 404.986 438.925 420 452C406.738 453.002 399.405 432.983 384 434L390 446C383.237 442.76 381.297 445.576 384 452L379 453C380.26 464.016 387.257 461.832 378 472C373.817 465.181 364.754 469.491 358 469C356.798 475.406 354.171 477.484 348 479L348 482L356 492L363 493L363 496L357 504C362.7 505.154 365.063 508.775 367 514L377 515L377 519L374 517C366.736 528.334 341.417 521.989 335 532C343.951 532.991 357.081 543.039 357 552C347.869 548.676 342.19 544.449 332 546C334.233 550.575 339.587 553.322 341.545 557.68C345.04 565.46 334.441 568.76 329 567L346.505 583.39L357 594L355 597C357.81 602.198 354.376 605.314 352 610L370 624L349 615L351 621L347 617L345 619L344 619C336.99 613.346 336.59 620.518 336 626L327 622L327 624C332.322 627.78 337.837 633.756 340 640C334.549 640.603 327.452 632.616 325 640C335.091 645.736 328.219 651.297 331.252 658.737C333.004 663.036 341.413 665.694 338.446 672.196C335.295 679.1 319.991 671.017 327 684C316.303 684.633 303.281 679.054 297 691C307.716 691.587 325.035 706.073 305 705C307.534 712.567 316.852 714.936 324 715C314.155 731.028 340.953 724.944 338 735L324 736.18L301 731C302.09 743.585 281.704 732.526 276 731L275 736L282 744L278 744C279.608 755.317 284.907 758.155 293 764L280 765C279.418 767.655 276.346 772.269 276.902 774.791C278.751 783.177 294.503 785.174 301 787C287.809 795.87 303.69 809.061 315 807L313 810L316 811L316 809L321 811L321 812L316 819L332 817L326.555 833.335L317.948 848.001L321 862L349 855L348 880L350 883L364 873L360 891L361 891L362 886L363 886L367 896C371.468 896 369.971 906.445 371 910L374 909L374 916C382.755 912.526 378.323 908.632 381.236 902.299C382.288 900.012 386.059 898.464 388 897L392 908L393 908L395 906L391 928L407 921L406 924L421 928C413.63 929.165 412.492 935.59 414 942L422 941L421 948C426.458 951.538 425.114 966.178 435.975 960.374C437.724 959.44 439.352 958.098 441 957L446 968C452.998 963.229 455.618 955.293 454 947L457 978L459 978L469 968C478.395 971.503 477.349 963.308 482.43 958.56C485.317 955.862 488.589 955.427 491 952C492.369 956.47 498.805 964.72 503.973 958.386C506.138 955.733 505.858 949.3 506 946L510 948L513 937L523 948L527 941L538 952C537.716 939.88 522.128 917.418 534 907C535.308 916.759 537.545 932.62 547 938L546 929L547 929L549 932L550 915L557 923L559 923L560 922L560 913L563 916L572 922L572 915L573 915L577 920L578 903L581 909L583 909C584.886 902.618 583.871 895.923 581 890L587 892L584 874L588 876L586 866L593 870C598.526 864.864 600.657 870.628 606.155 872.164C609.384 873.065 611.756 869.302 614.714 870.329C623.969 873.545 626.553 887.219 634 892L634 887C637.784 891.331 638.122 897.46 642.213 901.83C650.2 910.363 659.241 913.823 667.83 920.72C674.276 925.896 678.319 932.433 687 934L686 931L687 930L708 933C710.04 926.667 717.481 926.926 723 928C726.768 921.115 724.766 916.031 718 912L721 903C729.876 904.384 731.911 897.763 738 893C741.056 898.548 743.992 898.029 749 895L745 917L761 907L764 908C767.671 901.406 772.415 887.687 781 888L783 897L799 892L800 892L803 893L802 908L804 905L810 907L801.772 918.455L799.255 926.911L787 940L796 938L795 944L803 945L795.568 959.561L771 986C776.206 985.417 776.842 987.326 778 992C781.34 989.687 792.917 980.109 797.034 985.307C798.952 987.728 794.186 992.919 798.323 994.187C803.676 995.828 808.932 989.608 815 991L816 987L820 987L820 1000L821 1000C828.471 991.155 834.64 987.304 839 976L840 976L840 992L843 996C834.554 998.939 841.12 1010.21 843 1016L852 1007C849.634 1011.51 849.943 1015.07 855 1017L873 1001L874 1001C880.169 1004.14 889.751 981.255 891 976L893 976L894 996L896 994L911 996L914 990L915 990L916 993C927.947 989.534 940.422 981.893 937 967L945 974L945 959L946 962L952 956L953 956L952 968L957 968L959 978C965.013 966.47 968.991 951.126 969 938L971 938C972.586 950.174 979.231 957.045 990 962L990 959L991 959L997 959L1003 979L1005 979L1005 961L1006 961C1007.43 968.681 1006.99 981.086 1011.18 987.726C1015.48 994.546 1022.66 994.383 1025 987L1046 995C1046.33 989.871 1048.38 985.237 1047.9 980C1046.35 963.355 1037.84 943.149 1059 935L1058 940C1067.9 944.059 1078 953.257 1090 949C1090.14 953.767 1090.88 957.131 1096 958L1094 949L1101 957L1102 957L1102 943L1093 936L1093 935L1099 933L1102 936L1103 933L1105 933C1105.86 935.77 1107.13 938.289 1108.12 941C1109.18 943.921 1108.64 947.891 1110.86 950.292C1113.82 953.501 1117.98 951.492 1120.41 948.807C1127.39 941.07 1129.24 932.192 1141 930.022C1147.94 928.741 1159.58 936.475 1167 938L1164 932L1164 931L1169 932L1172 929L1175 936L1184 936L1173.96 916.769L1155 912L1166 904C1170.99 896.546 1188.72 891.864 1196.96 896.758C1204.56 901.28 1206.27 910.46 1216 913L1212 902L1215 899L1216 899L1217 901L1222 896L1226 900L1227 893L1231 900L1235 897L1236 897L1236 908C1239.79 906.833 1245.42 905.579 1248.24 902.683C1252.39 898.417 1252.95 891.14 1260 891L1261 883L1270 886L1271 876L1275 883L1282 870L1283 870L1289 882C1293.33 880.717 1296.43 877.2 1298 873L1300 875L1302 866L1309 875L1312 861L1320 881L1326 880L1325 874L1334 890L1335 890L1337 888L1340 896L1343 894L1344 894L1346 896C1346 888.579 1357.87 900.146 1359 903L1360 903L1364 887L1365 878L1375 885L1372 875L1377 877L1367 852C1371.42 855.442 1378.32 858.399 1378 850L1379 849L1381 849L1383 854L1392 842L1395 846L1396 842C1402.96 846.888 1407.66 853.62 1417 851L1415 843L1423 843L1415 826L1419 821C1413.7 816.358 1418.42 812.422 1424 812L1414 786L1415 785C1421.63 790.73 1425.5 792.143 1434 792L1420.23 769L1401 725L1402 725C1407.9 735.498 1413.94 755.212 1425 761L1426 760L1422 742L1423 742C1424.37 747.771 1426.46 753.276 1432 756L1432 751C1437.55 749.366 1441.59 743.096 1444 738C1447.29 739.906 1458.69 750.054 1460.28 740.891C1460.84 737.713 1458.86 734.32 1459 731L1462 732C1462.98 726.211 1465.82 720.9 1458 720L1461.6 706.333L1488 704L1488 701C1486.43 700.201 1485.02 699.423 1483.59 698.381C1470.59 688.926 1492.22 686.05 1485.9 675.367C1482.45 669.546 1472.6 675.147 1470 667L1456 663C1458.97 661.444 1465.25 657.584 1462 654C1463.33 647.993 1451.48 638.358 1446 636L1450 632L1450 629C1440.67 626.771 1439.83 626.638 1441 617L1432 620L1431 620C1436.56 609.147 1447.35 602.941 1458 598L1456 588L1456 584C1456.95 589.289 1462.57 590.555 1465.36 595C1471.63 604.966 1476.87 614.743 1486 622.917C1491.23 627.598 1497.65 629.441 1502.19 635C1504.83 638.222 1518.04 650.157 1520 641L1538 648L1539 642L1552 644L1554 634L1547 626L1535 607L1528 599L1530 597L1523.04 579.039L1523 563C1528.43 559.321 1520.9 553.289 1520.61 548.379C1520.26 542.582 1535.29 541.572 1539 542L1551 536L1551 535L1544 528C1547.63 521.128 1544.31 509.773 1536 508C1539 504.413 1540.79 500.97 1535 500L1535 499C1542.33 497.712 1535.7 493.73 1536.3 489.489C1537.11 483.729 1541 484.355 1537 478C1540.4 477.271 1539.99 475.194 1540 472L1545 471L1545 469L1537 468L1537 467C1543.16 466.445 1562.55 460.386 1565.81 454.942C1567.66 451.842 1565.7 449.224 1566.67 446.188C1567.74 442.842 1572.35 444.4 1574.11 441.672C1577.77 435.984 1566.14 434.405 1563 434L1568 425L1568 424C1560.01 417.734 1554.52 418.118 1545 420L1550 404L1542 403L1553 381C1545.78 381.626 1549.74 375.963 1545.53 373.042C1541.26 370.088 1532.14 374.392 1528 376L1530 362L1515 362L1518 353L1516 354L1517 347L1516 347C1511.89 360.668 1482.82 364 1471 364L1471 363L1487 360L1487 357L1481 356L1486 352C1483.37 347.836 1480.94 345.005 1476 344L1483 321L1470 319L1470 311C1474.46 309.939 1482.99 302.618 1474 304C1468.73 292.146 1463.7 290.362 1451 292L1450 273L1442 276L1434 272L1442 261L1439 262L1442 252L1423 261L1418 264C1423.36 259.225 1429.45 254.587 1430 247L1419.46 251.517L1411 246L1410 234C1406.58 235.414 1404.21 236.363 1402 233L1398 235C1394.49 232.58 1391.83 233.604 1388 235C1384.5 231.082 1380.94 235.747 1379 239L1378 239L1371 238L1372 233C1370.11 230.789 1370.11 230.211 1372 228C1368.34 219.123 1370.38 207.422 1381 204C1389.15 185.346 1401 170.074 1401 149L1398 150L1399 132L1395 133L1394 124C1379.09 121.409 1370.87 147.161 1360.7 155.441C1355.72 159.496 1348.33 162.633 1346 169L1344 169L1342 163C1338.97 163.856 1338.72 164.92 1339 168L1330 167L1323 177L1318 175L1320 169C1314.05 168.416 1314.02 164.132 1314 159L1313 159L1311 162L1306 153L1299 163L1297 160C1291.59 162.41 1287.21 166.036 1286 172C1281.02 171.163 1280.15 173.34 1280 178L1279 178L1278 173L1272 180L1268 176C1263.61 176.759 1260.17 177.964 1258 182L1253 169L1252 169L1252 178L1237.98 160.948L1227 165C1226.41 160.917 1224.69 158.806 1221 157L1216 171L1215 171L1210 165L1210 187C1202.15 183.843 1198.83 187.719 1197 195C1191.06 191.369 1185.81 188.671 1179 191C1180.56 196.555 1176.12 196.623 1172 199C1173.22 201.941 1177.45 207.474 1176.47 210.682C1175.71 213.176 1172.21 212.743 1170.43 214.023C1167.01 216.493 1168.86 220.846 1170 224L1160 226L1160 223L1146 232L1145 223L1144 223L1141 229L1140 229L1142 217C1136.59 220.304 1131.09 228.041 1129 234L1124 233C1125.58 228.793 1130.28 221.702 1129.55 217.232C1128.09 208.335 1117.18 221.28 1116 224L1107 228L1106 225L1104 227L1103 227C1104.97 219.064 1108.36 209.215 1106 201L1104 201L1100 207L1099 201C1095.23 202.384 1094.3 204.044 1094 208L1091 208L1092 197L1090 197L1085 217L1085 200L1081 206L1080 206L1079 201L1078 201L1065 225L1064 225L1074 185C1069.99 187.333 1070.46 191.395 1067.49 194.582C1061.21 201.313 1053.52 202.019 1050 212L1049 212L1057.08 195L1062 171L1055 172L1057 163L1055 163L1046 172L1056 142L1048 144L1051 125L1045 126L1044 120C1029.6 126.199 1037.5 114.972 1029 110C1030.29 103.816 1032.81 99.6666 1029 94L1028 94C1019.7 98.8304 1013 108.259 1012 118L1011 118L1009 113L1008 113C1003.44 116.869 999.593 122.456 996 115L993 130L992 130L990 100C979.341 102.867 982.045 116.411 980 125L979 125L978 107L973.046 121L966.649 135L965 164L962 164L960 143L950 138L948 144L944 142L944 146L943 146C941.479 137.838 940.479 132.61 931 132L925 149L920 146L919 150L918 150C919.005 146.837 921.438 141.655 920.227 138.333C917.966 132.133 915.024 142.016 915 144L907 144C914.058 133.143 905.208 116.935 900 107L895 112L896 110L896 109L888 101L887 101L885 121L870 110L870 118L864 115L866 137L860 135L860 144C847.003 146.055 859.942 156.413 854 162C853.946 157.189 853.348 154.459 849 152L850 159L848 165L840 153C833.382 153.511 832.141 157.99 832 164L831 164L827 148C821.423 156.962 833.553 176.554 824 180L820 202L819 202C816.919 190.957 816.042 173.566 805 168L804 174L800 166L798 166L797.982 193L794 226L792 224L785 234C778.591 219.141 777.222 231.942 769 239L765 225L763 225L760 232L759 232L760 222L752 224L752 221L743 227L743 231L736 232L736 221L734 221C733.346 227.337 731.051 229.12 725 230C723.59 224.148 720.686 209.687 711.205 212.694C708.547 213.537 706.46 216.593 704 218L700 211L700 222L703 221C703.097 225.983 703.417 230.299 698 232L694 223L693 236C687.165 231.91 684.979 235.505 679.246 236.581C675.492 237.286 672.991 235.425 669 237L668 236L669.709 214L677.467 196.985L677.274 185.714L676.06 137L675.701 108.129L666 90L664 100L663 100C660.398 91.0898 657.625 70.477 650 65L651 62C646.892 64.3918 646.369 68.4946 646 73L645 73L639 62L638 65L637 65L633 54z"/>
<path style="fill:#fefefe; stroke:none;" d="M1026 96L1027 97L1026 96z"/>
<path style="fill:#030303; stroke:none;" d="M1003.67 111.333L1004.33 111.667L1003.67 111.333z"/>
<path style="fill:#fefefe; stroke:none;" d="M886.667 127.333L887.333 127.667L886.667 127.333M865 139L864 147L866 147L865 139M919 139L920 140L919 139z"/>
<path style="fill:#030303; stroke:none;" d="M840 151L841 152L840 151z"/>
<path style="fill:#fefefe; stroke:none;" d="M588 169L588 172L589 172L588 169M922 170L921 172L923 172L922 170M808 172L809 173L808 172M1251 179L1252 180L1251 179M1259 187L1259 191L1260 191L1259 187M675 190L676 191L675 190M1079.33 206.667L1079.67 207.333L1079.33 206.667M1102 229L1103 230L1102 229M1139 231L1140 232L1139 231M1135 233L1134 243L1135 243L1137 233L1135 233M682 249L684 251L684 249L682 249z"/>
<path style="fill:#030303; stroke:none;" d="M456 257L457 258L456 257z"/>
<path style="fill:#fefefe; stroke:none;" d="M458 260L460 262L460 260L458 260M461 262L461 264L463 264L461 262M450 264L451 265L450 264M465 265L473 276L465 265M784 265L779 273C783.777 272.005 784.991 269.583 786 265L784 265M453.667 267.333L454.333 267.667L453.667 267.333M1410.67 267.333L1411.33 267.667L1410.67 267.333M1414.67 267.333L1415.33 267.667L1414.67 267.333z"/>
<path style="fill:#030303; stroke:none;" d="M383 271L384 272L383 271z"/>
<path style="fill:#fefefe; stroke:none;" d="M385.667 275.333L386.333 275.667L385.667 275.333M393 275L394 276L393 275M475 279L476 280L475 279z"/>
<path style="fill:#030303; stroke:none;" d="M382.667 303.333L383.333 303.667L382.667 303.333z"/>
<path style="fill:#fefefe; stroke:none;" d="M386 309L387 310L386 309z"/>
<path style="fill:#030303; stroke:none;" d="M367 327L367 328L370 329L367 327z"/>
<path style="fill:#fefefe; stroke:none;" d="M1468.67 363.333L1469.33 363.667L1468.67 363.333M1563 427L1564 428L1563 427M390 446L391 447L390 446M420 452C422.278 457.471 425.851 463.043 432 464L420 452M441 470L441 472L443 472L441 470M1527 471L1528 472L1527 471M1538 471L1539 472L1538 471M359 475L360 476L359 475M1535 478L1536 479L1535 478M361 548L362 548L369 539C363.226 539.724 359.177 541.764 361 548M362 549L364 552L362 549M1446.67 587.333L1447.33 587.667L1446.67 587.333M1445 601L1446 602L1445 601M1435 607L1435 608L1438 608L1435 607M345 619L346 620L345 619z"/>
<path style="fill:#030303; stroke:none;" d="M1540 647L1541 648L1540 647M1464 658L1467 658L1466 656L1464 658z"/>
<path style="fill:#fefefe; stroke:none;" d="M1464 669L1465 672L1466 672L1466 669L1464 669M326.667 685.333L327.333 685.667L326.667 685.333z"/>
<path style="fill:#030303; stroke:none;" d="M295 689L294 692L295 689z"/>
<path style="fill:#fefefe; stroke:none;" d="M324 716L324 722L325 722L324 716M1397 719L1398 720L1397 719M1398 721L1399 724L1400 724L1398 721M1437 735L1438 736L1437 735z"/>
<path style="fill:#030303; stroke:none;" d="M1424 806L1425 807L1424 806z"/>
<path style="fill:#fefefe; stroke:none;" d="M694 846L690 847L697 876C693.033 880.353 703.211 889.195 707 891C713.022 881.541 718.471 872.153 718 861C715.474 861.192 712.487 861.979 710.019 861.168C694.836 856.179 723.973 824.426 700.002 826.083C697.602 826.248 695.349 826.493 693 827L695 823C687.679 825.229 692.995 839.709 694 846M1266 879L1267 880L1266 879M1217 885L1217 892L1218 892L1219 885L1217 885z"/>
<path style="fill:#030303; stroke:none;" d="M1269 887L1270 888L1269 887z"/>
<path style="fill:#fefefe; stroke:none;" d="M1236 893L1236 896L1237 896L1236 893M390 895L390 898L392 898L392 895L390 895M1222 895L1223 896L1222 895M1209.67 899.333L1210.33 899.667L1209.67 899.333z"/>
<path style="fill:#030303; stroke:none;" d="M1218 901L1218 904L1219 904L1220 901L1218 901M1215 903L1216 904L1215 903z"/>
<path style="fill:#fefefe; stroke:none;" d="M549 911L549 915L550 915L549 911z"/>
<path style="fill:#030303; stroke:none;" d="M743.333 916.667L743.667 917.333L743.333 916.667z"/>
<path style="fill:#fefefe; stroke:none;" d="M527 919L528 920L527 919M529.333 923.667L529.667 924.333L529.333 923.667M1092 927L1092 928L1096 926L1092 927M1062 936L1066 931L1062 936M1088 931L1092 935L1088 931z"/>
<path style="fill:#030303; stroke:none;" d="M1127 945L1128 946L1127 945M953 971L954 972L953 971z"/>
<path style="fill:#fefefe; stroke:none;" d="M1021.67 971.333L1022.33 971.667L1021.67 971.333M842 977L842 980L844 980L844 977L842 977M801.667 983.333L802.333 983.667L801.667 983.333z"/>
</svg>
