<?xml version="1.0" standalone="yes"?>
<svg xmlns="http://www.w3.org/2000/svg" width="1920" height="1080">
<path style="fill:#fefefe; stroke:none;" d="M0 0L0 1080L1920 1080L1920 0L0 0z"/>
<path style="fill:#060606; stroke:none;" d="M647 189L637 205L634 196L629 202L628 202L627 195L621 193L619 193L610.582 207.553L602.603 210.336L596 239L578 236L578 251L572 254L566 247L564 256L557 252L555 260C545.814 257.142 536.659 255.344 539 268L530 270L524 265C523.83 283.778 499.804 273.673 495 287L506 295L506 296L496 297L491 308L488 307L477 313L477 314L481 324C476.542 323.431 471.023 322.728 470 328L452 315L451 323L450 320L448 320L440 335C440.3 337.669 439.665 341.146 441.041 343.536C442.661 346.351 447.261 348.106 446.248 351.992C444.322 359.38 427.703 357.495 423.751 364.228C419.491 371.484 437.008 385.452 439.11 392C440.632 396.738 437.206 401.889 442 405C440.063 410.253 436.716 408.961 432 410C434.359 415.059 444.625 421.203 443.338 426.995C441.321 436.073 422.545 431.642 425.584 444C428.195 454.618 439.899 461.693 446.671 469.105C450.932 473.769 452.157 479.223 454 485C446.516 483.319 441.656 471.104 433 476L437 486L424 477L423 480L418 479L417 480L420 488L414 490L418 497L415 505C420.088 507.364 421.982 510.884 424 516L417 517L416 524L426 527L426 528C422.229 531.446 428.354 535.639 430.83 538.245C437.957 545.746 450.538 543.757 460 542L462.742 553.015L482.758 566.275L479 584L484 584L485 585L482 604L491 601L483 614C487.874 615.511 486.221 620.107 485 624L498 627L496 635L500 636L499 640L494 637L494 640L491 640C490.563 636.534 487.996 637.289 485 638L485 633L483 633L484 640L474 636L473 641L475 644L472 640L471 640L471 643L468 641L467 644L464 642L464 638L460 643L455 640L453 643L454 652L453 652L450 648L449 654L440 660L440 656L439 656L438 659C434.823 657.238 430.916 655.016 428 658L426 656L425 656L424 656L421 659L422 664L417 662L416 672C409.972 675.798 409.662 685.959 412 692L408 694L408 690L407 690L408 701L407 701L404 697L403 712L400 708L394 709L393 729L391 727C381.466 735.774 387.573 746.59 392 756C388.083 756.658 386.567 758.417 385 762L386 762L388 760C389.181 769.29 399.599 775.255 395 784L400 788L404 786C402.579 789.485 401.46 794.027 406 795L405 799L409 793L410 793L410 801L416 803L415 808L416 808L417 806L424 820L429 819L435 830L438 832L437 829L450 836L448 834L449 830L455 838L461 842L460 839L468 842L468 836L474 837L475 840L483 841L484 841L484 836L489 837L489 836L487 836L487 835L492 835L494 838L492 840L492 841L497 844L496 838L504 843L507 839L506 844C511.302 843.18 517.457 840.396 519 835L520 835L520 840L532 831L542 830L545 825L552 817L554 820L552 815L556 815C557.812 813.499 558.022 813.842 559 816L560 816L561 812L563 813L563 805L567 807L575 799L579 802C584.523 797.139 586.844 790.281 587 783L589 784L590 778L587 769C591.365 768.446 588.615 764.583 587 762L593 760C592.7 754.948 589.282 745.221 596 745L594 721L596 721L590.04 699L597 685C602.239 687.64 603.645 693.42 604 699L612 698L615.857 685.104L624 673L628 678L629 678L631 673L638 678C636.274 668.699 639.694 661.571 643 653L648 653L656 670L657 670L663 656L668 666L676 657L678 657L685 662L685.607 652.213L691 642L692 642L695 648C697.753 643.971 698.159 627.293 705.094 627.345C709.156 627.375 713.158 631.688 718 632L719 629C725.631 629.746 726.789 624.692 728 619L729 619C732.979 629.872 738.414 636.097 735 648L739 644L743 647L745 643L747 648L739 651L741 654L736 660L740 656L744 657L744 650L747 656L738 663L738 664L743 678L744 678L748 671L747 680L748 680L749 678L751 684C746.962 686.646 748.372 693.057 745.761 697.286C741.554 704.099 733.602 716.847 733.44 725.004C733.322 730.924 737.44 736.907 737.657 743C738.199 758.274 735.377 768.087 745.742 781.286C750.542 787.399 750.216 804.464 759 803C763.062 817.963 786.505 824.685 799.166 829.94C804.762 832.262 809.839 837.34 816 837C817.977 846.719 830.084 846.261 837 852L838 852C844.072 847.25 852.673 850.506 859.946 847.45C865.173 845.254 868.899 839.038 875.171 838.943C881.401 838.849 900.039 848.716 902 837C909.097 837.228 911.925 831.32 912 825C921.442 822.204 920.776 809.627 927 804L930 808L928 805L931 798L933 805L934 805L936 791L939 800L940 800L940 793L943 797L944 797L945 794L949 795L948 788L951 798L953 796L954 796L960 800L961 796L968 797L972 785L972 789L976 788L977 792L976 792L975 790L975 797L982 792L983 798L988 796L982 792L981 779L991 792L996 789L995 782L997 784L998 784L1004 778L1001 784L1008 783L1012 775L1016 780L1017 774C1021.35 774.372 1025.43 773.771 1028 770L1029 770L1029 776L1032 772C1037.34 771.398 1043.05 766.392 1046 762L1040 761L1040 759L1041 758L1046 759L1046 755L1047 755L1049 763C1045.21 763.632 1048.04 769.425 1049 772L1050 772L1051 762L1055 766L1060 762L1056 763L1059 750L1064 759L1065 759L1064 750L1077 751L1076.59 734.874L1082 730L1083 730L1085 736L1086 736L1089 727L1090 730L1092 730L1093 729L1092 725C1098.6 723.04 1101.58 715.468 1101 709C1104.4 708.271 1103.99 706.194 1104 703L1103 703L1102 707L1101 707L1100 701L1104 702L1104 697L1108 698L1104 690L1109 691L1109 680L1107 682L1106 682C1108.6 676.676 1112.55 675.394 1110 669L1119 653L1120 659L1118 663L1115 662L1115 678L1116 678L1117 668L1120 670L1122 656L1124 656L1126 664L1131 660L1130 656C1121.03 655.805 1129.77 650.342 1133 648L1132 637L1134 637L1135 642C1139.58 640.262 1141.7 638.938 1143 634L1142 633L1140 633L1138 637L1134 630L1137 633L1138 627L1141 626C1140.46 623.399 1137.74 619.833 1138.74 617.251C1141.36 610.448 1149.3 611.187 1147 602L1146 602L1143 610C1139.44 604.724 1138.58 598.19 1140 592L1141 592L1141 599L1145 598L1148 588L1142 591C1137.77 588.398 1138.44 585.527 1139 581L1128 582L1128 577L1134 579L1136 568L1136 567L1126 564C1128.38 559.589 1129.05 557.15 1124 555L1124 553L1128 552L1128 551L1124 551L1129 545L1130 537C1124.29 537.44 1122.37 540.483 1122 546L1116 540C1124.46 529.236 1120.59 523.388 1117 512L1125 514C1128.85 501.119 1143.06 508.159 1152 508C1148.76 502.997 1146.7 500.227 1152 496L1150 491C1166.75 484.801 1150.73 475.336 1147.02 466.339C1145.92 463.671 1149.72 461.188 1149.31 457.982C1148.79 453.951 1146.16 451.462 1149 448L1142 441L1146 440C1145.03 428.829 1143.58 423.74 1148 413L1145 412L1149 395C1139.22 391.674 1139.51 383.837 1140 375L1126.86 362.01L1129.17 352.271L1125 339C1121.8 337.194 1121.6 335.58 1122 332L1119 332L1116 321L1104 325C1100.16 318.983 1092.23 319.737 1086 320L1085 311C1077.27 313.183 1076.42 311.992 1070 308C1073.42 301.789 1074.44 292.915 1065 293.02C1055.7 293.124 1037.73 300.843 1036 284L1041 287C1044.79 272.91 1035.22 269.711 1024 277L1023 270L1021 270L1016 273C1010.18 283.365 1000.53 283.005 991 285.088C986.499 286.072 983.513 290.445 979 291.436C972.225 292.924 960.592 285.481 956 281L942 285C937.696 277.22 932.215 284.882 930 290C924.568 288.555 922.921 291.217 921 296C913.223 294.19 914.024 304.118 910.853 308.927C906.168 316.03 899.112 312.553 901 324C892.158 322.498 864.563 320.118 860.357 331.209C859.177 334.318 861.833 338.111 862.718 341C865.189 349.064 869.398 369.074 858 368L860 376C855.578 377.631 855.111 379.83 857 384L841 374L849 357L841 353L833 352C835.088 348.69 835.79 346.949 833 344L833 343L840 332C835.155 331.332 836.142 325.851 835 322C832.249 323.373 829.916 326.214 828 323L825 325L824 325C821.684 322.377 820.188 321.221 817 323L817 319L808 317C803.568 322.995 800.612 321.993 794 322L793 310L786 313C786.71 309.942 786.669 308.732 784 307L781 310L782 296L772 307L772 299C759.448 300.643 761.128 289.288 763 281L755 287C750.774 283.639 747.572 286.559 743 288L743 278L738 280L739 270L733 272L733 263L730 272L728 272L728 263L719 272L719 266L704 282L704 272L689 284L691 279C686.858 279.894 684.292 281.19 682 277C668.367 277.807 671.958 271.007 669 261L668 261L664 268C665.625 260.082 668.641 243.922 662 238L661 242L660 242L656 229L652 230C652 215.776 654.737 201.829 647 189M1340 191L1328 204C1324.55 197.138 1319.85 200.558 1317 206L1314 202L1295 204L1270 201L1270 209L1253 211C1249.63 222.591 1243.8 210.405 1238.87 209.181C1230.33 207.058 1227.77 218.408 1229 224L1214.6 224.117L1212 250L1207 249L1209 260C1205.6 260.859 1199.26 259.907 1196.6 262.028C1190.93 266.557 1200.39 283.281 1198 290L1192 281L1190 286L1189 286C1187.24 281.66 1183.38 278.093 1181 284L1178 283L1177 297L1172 297C1172.52 309.201 1175.36 316.112 1187 321L1191.52 338.83L1181 368L1184 374L1192 374C1188.27 378.301 1184.68 386.48 1194 383C1197.09 388.584 1203.14 388.951 1209 389C1209.98 393.872 1213.57 396.56 1215.38 401C1219.11 410.182 1217.2 418.666 1216 428L1222 427C1220.58 432.338 1222.85 433.831 1228 434C1230.08 427.153 1236.72 427.337 1241 432C1244.44 427.914 1246.19 423.594 1252 423L1250 438L1234 435C1234.79 439.919 1231.77 443.473 1232.19 447.985C1232.7 453.623 1241.54 457.732 1237.38 463.891C1234.15 468.677 1220.3 466.69 1219.83 472.344C1219.49 476.438 1224.56 479.601 1225.99 483.089C1227.82 487.569 1223.12 491.602 1225.08 495.911C1227.98 502.286 1236.06 503.71 1239.29 509.109C1241.89 513.447 1236.76 518.211 1239.03 523C1241.83 528.911 1247.64 537.998 1252.02 542.942C1253.98 545.15 1257.4 545.89 1258.97 548.313C1260.77 551.087 1259.83 554.974 1261.31 557.996C1267.21 570.083 1278.96 592.277 1296 589C1297.42 594.13 1300.11 594.358 1305 595C1310.64 588.707 1310.93 595.904 1316.22 597.642C1326.22 600.922 1332.39 606.982 1342 600C1346.2 607.348 1353.84 597.707 1356 593L1358 596C1364.54 593.729 1366.99 592.136 1371 599C1377.91 593.758 1380.46 596.905 1388 598L1388 591L1392 592L1393 589C1404.6 595.381 1414.98 586.504 1412 574L1429 563.306L1436 559L1447.04 571.106L1460.83 570.442L1473 576C1471.65 571.08 1472.93 568.972 1477 566L1476 563L1483 562L1484 557L1487 558L1478 539C1484.82 537.161 1488.29 524.135 1482 520L1482 519C1487.97 516.467 1488.4 506.986 1488 501L1490 497C1495.49 495.185 1497.35 486.146 1499 481C1491.73 474.232 1497.36 468.349 1495.52 460.004C1494.42 455.049 1490.09 451.6 1488 447C1491.9 445.284 1496.79 439.347 1492 436L1491 410C1483 410.413 1465.14 404.997 1468 395C1464.13 393.89 1458.4 394.303 1457.46 389.161C1456.61 384.522 1462.64 380.398 1458.26 375.703C1450.98 367.906 1433.61 377.754 1433 360L1438 362L1441 356C1437.92 349.928 1432.3 347.025 1426 350L1418 331L1424 328C1422.93 320.83 1420.14 317.01 1427 312L1427 306L1416.53 297.113L1409.6 295.218L1405 288L1407 279L1405 281L1401 281C1399.59 275.255 1398.37 272.669 1401 267C1391.08 265.142 1391.86 256.692 1388 249L1385 252L1384 252L1383 249L1373 252L1373 249L1363 248C1358.42 237.082 1362.06 233.956 1362.62 223C1362.81 219.288 1360.94 215.731 1361.65 212C1362.9 205.4 1366.94 201.162 1367 194L1365 196L1359 196C1355.69 185.81 1347.18 192.72 1340 191z"/>
<path style="fill:#fefefe; stroke:none;" d="M652 231L653 232L652 231M651 233L649 238L651 233M785.333 313.667L785.667 314.333L785.333 313.667M902 317L902 320L903 320L902 317M791 319L792 320L791 319M1435 351L1436 352L1435 351M855 395L860 391L855 395M446 426L446 428L448 428L446 426z"/>
<path style="fill:#060606; stroke:none;" d="M1159 483L1160 484L1159 483z"/>
<path style="fill:#fefefe; stroke:none;" d="M1108 503L1108 506L1109 506L1110 503L1108 503M1108 509L1111 512L1108 509M1112 509L1116 516L1112 509z"/>
<path style="fill:#060606; stroke:none;" d="M1120 513L1119 517L1123 516L1123 514L1122 513L1120 513z"/>
<path style="fill:#fefefe; stroke:none;" d="M1103 517L1107 516L1103 517z"/>
<path style="fill:#060606; stroke:none;" d="M1124.67 515.333L1125.33 515.667L1124.67 515.333z"/>
<path style="fill:#fefefe; stroke:none;" d="M1116 518L1112 524L1120 528L1118 518L1116 518z"/>
<path style="fill:#060606; stroke:none;" d="M1126 528L1126 532L1126 528z"/>
<path style="fill:#fefefe; stroke:none;" d="M1111 537L1112 538L1111 537M1111 539L1112 540L1111 539z"/>
<path style="fill:#060606; stroke:none;" d="M1132 548L1134 552L1134 548L1132 548M1133 554L1134 558L1133 554z"/>
<path style="fill:#fefefe; stroke:none;" d="M1121 558L1121 561L1123 558L1121 558z"/>
<path style="fill:#060606; stroke:none;" d="M1137 565L1141 568L1137 565M1136 576L1145 576C1144.07 571.638 1136.93 571.638 1136 576M1143 581L1142 584L1143 581M1145 583L1145 584L1148 584L1145 583M1151 586L1150 590L1151 590L1151 586z"/>
<path style="fill:#fefefe; stroke:none;" d="M1129 589L1128 592L1129 589M495 597L493 600C495.251 599.527 496.118 599.14 495 597M1131 606L1131 608L1133 608L1133 606L1131 606z"/>
<path style="fill:#060606; stroke:none;" d="M1149 620L1149 625L1150 625L1149 620z"/>
<path style="fill:#fefefe; stroke:none;" d="M1135 621L1137 624L1135 621M502 640L507 643L512 623C504.719 626.398 501.189 632.116 502 640M1134 624L1133 627L1137 628L1137 627L1134 624z"/>
<path style="fill:#060606; stroke:none;" d="M1145 624L1146 636L1150 631L1146 632L1145 624z"/>
<path style="fill:#fefefe; stroke:none;" d="M533 639L524 644L524 645L529 649L532 645L533 651L536 649L538 653L547 656L547 655L545 655L545 654C547.883 653.651 547.561 653.308 546 651C549.599 653.599 551.017 655.534 551 660L556 657L556 663L556 664L560 667L560 660L561 660L566 676L577 681L581 691L582 691L580 686L584 685L583 696C588.8 696.864 589.555 691.803 590.154 687C591.47 676.467 585.363 670.91 584 661C576.41 661.388 572.472 651.716 571 645C562.849 645.014 554.109 643.899 552 635L533 639M750 637L750 639L752 639L752 637L750 637M1128 637L1129 638L1128 637z"/>
<path style="fill:#060606; stroke:none;" d="M467 639L468 640L467 639z"/>
<path style="fill:#fefefe; stroke:none;" d="M756 639L757 640L756 639M1127 639L1128 640L1127 639M750 640L748 648C751.884 646.634 751.907 643.816 752 640L750 640M518.333 641.667L518.667 642.333L518.333 641.667M456.333 642.667L456.667 643.333L456.333 642.667M517 645L517 650L518 650L517 645M520 648L521 648L523 646L520 648z"/>
<path style="fill:#060606; stroke:none;" d="M1137 645L1140 648L1137 645M731 653L732 654L731 653z"/>
<path style="fill:#fefefe; stroke:none;" d="M449 655L450 656L449 655M1120.67 655.333L1121.33 655.667L1120.67 655.333z"/>
<path style="fill:#060606; stroke:none;" d="M420 656L421 657L420 656z"/>
<path style="fill:#fefefe; stroke:none;" d="M738 656L739 657L738 656M432.667 658.333L433.333 658.667L432.667 658.333z"/>
<path style="fill:#060606; stroke:none;" d="M560 658L561 659L560 658M413 666L413 668L415 666L413 666M1124 667L1121 676L1126 667L1124 667M739 668L738 672L739 668M1130 671L1131 672L1130 671z"/>
<path style="fill:#fefefe; stroke:none;" d="M1105 672L1106 673L1105 672z"/>
<path style="fill:#060606; stroke:none;" d="M408 674L408 676L410 676L410 674L408 674z"/>
<path style="fill:#fefefe; stroke:none;" d="M1104 674L1105 675L1104 674z"/>
<path style="fill:#060606; stroke:none;" d="M571 675L572 676L571 675z"/>
<path style="fill:#fefefe; stroke:none;" d="M1096 675L1097 676L1096 675z"/>
<path style="fill:#060606; stroke:none;" d="M1127 675L1128 676L1127 675M406 679L407 680L406 679M1110 679L1111 684L1114 681L1113 679L1110 679z"/>
<path style="fill:#fefefe; stroke:none;" d="M570 680L571 684L572 684L570 680z"/>
<path style="fill:#060606; stroke:none;" d="M1119 681L1119 684L1120 684L1119 681M1121 683L1123 685L1123 683L1121 683M407.333 684.667L407.667 685.333L407.333 684.667z"/>
<path style="fill:#fefefe; stroke:none;" d="M574.333 685.667L574.667 686.333L574.333 685.667M1102 685L1103 690L1105 685L1102 685z"/>
<path style="fill:#060606; stroke:none;" d="M1114 688L1118 688L1117 685L1114 688M1112 691L1110 696L1114 691L1112 691z"/>
<path style="fill:#fefefe; stroke:none;" d="M1093 699L1094 700L1093 699z"/>
<path style="fill:#060606; stroke:none;" d="M1113 700L1112 704L1115 700L1113 700z"/>
<path style="fill:#fefefe; stroke:none;" d="M586 701L587 702L586 701M1097 703L1098 704L1097 703M586 704L587 705L586 704z"/>
<path style="fill:#060606; stroke:none;" d="M1108 705L1103 716C1110.01 715.466 1110 711.048 1110 705L1108 705z"/>
<path style="fill:#fefefe; stroke:none;" d="M1091 707L1092 708L1091 707M591 709L592 710L591 709z"/>
<path style="fill:#060606; stroke:none;" d="M1116.67 711.333L1117.33 711.667L1116.67 711.333z"/>
<path style="fill:#fefefe; stroke:none;" d="M1087 718L1087 719L1092 722L1093 722L1094 722L1096 717L1087 718z"/>
<path style="fill:#060606; stroke:none;" d="M1141 717L1139 722L1144 718L1143 717L1141 717M389 719L390 720L389 719z"/>
<path style="fill:#fefefe; stroke:none;" d="M592 719L593 720L592 719M1075 721L1076 725L1077 725L1075 721M1084 724L1088 721L1084 724z"/>
<path style="fill:#060606; stroke:none;" d="M1102 723L1104 726L1105 726L1104 722L1102 723M1098 723L1098 726L1099 726L1100 723L1098 723M384 728L385 729L384 728M600 729L600 732L601 732L600 729M1089 732L1088 737L1089 737L1089 732M1083 738C1082.1 741.337 1082.14 742.934 1085 745C1085.9 741.663 1085.86 740.065 1083 738z"/>
<path style="fill:#fefefe; stroke:none;" d="M1062 739L1061 741L1062 739M1076 740L1077 741L1076 740M1073 741L1072 747L1076 744L1076 743L1073 741M1066 743L1067 744L1066 743M1054 745L1056 748L1056 745L1054 745M392.333 750.667L392.667 751.333L392.333 750.667M586.667 751.333L587.333 751.667L586.667 751.333M1052.67 751.333L1053.33 751.667L1052.67 751.333z"/>
<path style="fill:#060606; stroke:none;" d="M385 753L386 754L385 753M387 753L388 754L387 753z"/>
<path style="fill:#fefefe; stroke:none;" d="M1026 762L1030 757L1026 762M1051 757L1050 761L1051 761L1051 757z"/>
<path style="fill:#060606; stroke:none;" d="M1069 759L1070 760L1069 759z"/>
<path style="fill:#fefefe; stroke:none;" d="M1036 760L1036 763L1037 763L1036 760z"/>
<path style="fill:#060606; stroke:none;" d="M1065 760L1063 764L1065 760M1080 761L1080 764L1082 764L1082 761L1080 761z"/>
<path style="fill:#fefefe; stroke:none;" d="M394.333 766.667L394.667 767.333L394.333 766.667M1032 768L1035 768L1034 766L1032 768M1023 768L1024 769L1023 768M1008 769L1010 772L1008 769z"/>
<path style="fill:#060606; stroke:none;" d="M1036 773L1036 776L1039 776L1039 773L1036 773M590 775L591 776L590 775M1022 776L1021 783C1024.05 781.014 1024.13 778.865 1022 776z"/>
<path style="fill:#fefefe; stroke:none;" d="M968 777L968 780L969 780L968 777M400 778L400 780L402 780L402 778L400 778M991 778L991 781L992 781L991 778z"/>
<path style="fill:#060606; stroke:none;" d="M1031 778L1032 779L1031 778z"/>
<path style="fill:#fefefe; stroke:none;" d="M973 779L973 783L974 783L973 779z"/>
<path style="fill:#060606; stroke:none;" d="M1027 779L1028 780L1027 779M1017 781L1018 782L1017 781z"/>
<path style="fill:#fefefe; stroke:none;" d="M398.333 782.667L398.667 783.333L398.333 782.667z"/>
<path style="fill:#060606; stroke:none;" d="M1010 782L1010 784L1012 784L1010 782z"/>
<path style="fill:#fefefe; stroke:none;" d="M989 783L990 789L991 789L992 783L989 783z"/>
<path style="fill:#060606; stroke:none;" d="M1016 784L1017 785L1016 784M1047 785L1048 786L1047 785z"/>
<path style="fill:#fefefe; stroke:none;" d="M964 786L964 788L967 788L967 786L964 786z"/>
<path style="fill:#060606; stroke:none;" d="M1003.33 786.667L1003.67 787.333L1003.33 786.667z"/>
<path style="fill:#fefefe; stroke:none;" d="M405 787L406 790L407 790L405 787z"/>
<path style="fill:#060606; stroke:none;" d="M997.333 789.667L997.667 790.333L997.333 789.667M589 790L590 791L589 790z"/>
<path style="fill:#fefefe; stroke:none;" d="M953 790L953 792L955 792L953 790M960 791L962 795L960 791z"/>
<path style="fill:#060606; stroke:none;" d="M1039 791L1040 792L1039 791z"/>
<path style="fill:#fefefe; stroke:none;" d="M965.333 792.667L965.667 793.333L965.333 792.667M975 792L976 793L975 792M958 794L957 796L959 796L958 794z"/>
<path style="fill:#060606; stroke:none;" d="M993 794L994 795L993 794z"/>
<path style="fill:#fefefe; stroke:none;" d="M928 795L929 796L928 795z"/>
<path style="fill:#060606; stroke:none;" d="M949 797L949 800L950 800L949 797z"/>
<path style="fill:#fefefe; stroke:none;" d="M578 799L579 800L578 799z"/>
<path style="fill:#060606; stroke:none;" d="M945 799L947 802L945 799M589 801L587 808L591 808L591 801L589 801M952 801L952 805L953 805L954 801L952 801M966 801L966 803L968 803L968 801L966 801M991.333 802.667L991.667 803.333L991.333 802.667M944 805L944 808L946 808L946 805L944 805M960 806L960 808L962 808L960 806M420 816L421 817L420 816M548 823L549 824L548 823z"/>
<path style="fill:#fefefe; stroke:none;" d="M532 827L535 829L532 827M460 833L461 834L460 833M460.667 835.333L461.333 835.667L460.667 835.333M528 835L529 836L528 835z"/>
<path style="fill:#060606; stroke:none;" d="M531 836L531 843L532 843L535 840L531 836M489 838L490 839L489 838z"/>
<path style="fill:#fefefe; stroke:none;" d="M466 839L467 840L466 839z"/>
<path style="fill:#060606; stroke:none;" d="M487 840L489 843L490 842L489 840L487 840z"/>
<path style="fill:#fefefe; stroke:none;" d="M508.333 840.667L508.667 841.333L508.333 840.667z"/>
<path style="fill:#060606; stroke:none;" d="M468 858L468 860L470 860L468 858z"/>
</svg>
