<?xml version="1.0" standalone="yes"?>
<svg xmlns="http://www.w3.org/2000/svg" width="1920" height="1080">
<path style="fill:#fcfcfc; stroke:none;" d="M0 0L0 1080L670 1080L669 1071L666 1072L674 1051L671 1050L670 1051C669.443 1060.35 652.842 1070.52 645 1074L651 1061L645 1061L644 1057L636 1064L635 1064L631 1060L630 1060L626 1064C634.821 1046.48 646.921 1029.24 662 1016.13C667.386 1011.45 674.231 1009.67 679.575 1004.54C687.361 997.069 690.529 988.13 700 982L700 981L699 977C688.585 975.778 679.344 985.036 673 992C662.411 1003.62 652.562 1015.21 641.015 1025.93C634.12 1032.32 628.019 1038.33 618 1038L618 1040C609.494 1036.97 601.831 1046.14 594 1048C598.069 1031.72 613.7 1026.85 624.397 1015.97C626.742 1013.58 625.341 1010.27 626.413 1007.43C628.005 1003.2 632.57 1001.27 634 997L626 1000C627.392 996.61 627.96 994.125 624 993L624 998L621 995L632 988L651 972L658 962C657.942 956.802 654.679 951 661 949L659 954L666 949C657.886 947.71 657.719 944.435 649 948L649 943L648 943L647 946L643 942L642 945C634.09 940.724 643.028 929.807 649 928L649 927L644 926L641 913L640 913L640 920L638 920C637.072 910.689 632.448 899.879 625 894C621.395 898.844 619.287 901.423 613 900L613 898L617 896L616 893L614 895L599 901L599 920L598 920L598 917C593.286 920.292 594.106 928.697 594 934L590 933L585 944L584 941L583 941L587 968C581.377 965.374 578.8 960.313 576 955L575 955C575.595 968.661 584.248 982.824 577 996L576 996L564 982L564.222 1003L561 1011L553 999L550 1000L548 994L544 1006C544 998.06 542.91 990.318 533 995L533 989L532 989L530 991L524 982C522.46 984.168 518.667 989.172 518 984L517 984L516 988C510.182 987.812 509.487 992.274 506 996C506.699 982.467 495.119 998.715 494 1004L493 1004L492 989C486.597 992.405 487.693 1000.51 489 1006C482.348 1010.33 496.644 1026.26 498.598 1033C499.947 1037.65 499.679 1043.74 494 1044L494 1052C488.589 1052.42 488.059 1054.98 488 1060L478 1051L477 1054L474 1054L464 1035C459.199 1044.11 458.24 1032.68 452 1031C451.573 1036.67 448.071 1040.3 444 1044L442 1031L439 1040C435.474 1038.6 433.33 1038.04 432 1042C425.927 1038.79 431.191 1028.17 423 1029L423 1025L426 1027L429 1014L426 1016L427 1014L426 1014L420 1018L420 1008L418 1008L416 1013L412 1005L411 1005L403 1021L397 1021L399 993C395.232 994.707 391.595 999.428 387.84 1000.39C384.011 1001.37 384.46 997.846 386 996C382.814 985.08 399.073 983.329 397 974L371 995C371.118 990.532 373.951 982.938 367 984L371 970L359 982L358 982L359 976L356 976L356 971L354 971L354 975L353 975L346 966L345 966C339.145 968.464 333.476 966.614 328 964C333.891 958.627 346.987 954.138 347 945L342 949L341 948C342.751 943.833 350.141 924.27 341.853 923.056C338.166 922.517 330.328 929.87 327 932L331 928L341 913L343 915L344.363 909.975C347.881 897.119 335.093 908.038 328 906L339 889L334 887L332 895L328 896L327 896C320.78 887.333 325.214 884.735 313 883C311.465 888.335 306.935 888.998 303.878 893.133C298.929 899.825 300.605 910.212 290 910L293 903L284 904L290 899L281 897L286 894L285 891L288 890L290 879L279 880C278.745 874.523 280.334 870.814 285 876C288.32 872.356 300.127 867.518 292 863L291 866L290 866L289 863L288 863L288 866L284 861L282 861L281 864L279 864L276 855L282 846L284 847L301 844C300.991 839.585 303.414 835.591 299 833C296.129 836.468 294.363 835.567 291 833L290 833C286.335 835.266 284.781 834.03 282 831C286.352 829.117 288.87 826.654 290 822L272 824L282 820C282 807.661 277.377 808.095 266 810L266 805L273 806L273 801L278 800L252 794L251 794L246 793L245 793L225 790L218 784L225 780L224 773L225 773C230.015 780.757 229.937 769.058 228 765L232 762L227 760L227 759L236 757L238 750L232 745L243 744L244 735L243 734C239.476 735.429 234.873 740.034 231 739.748C227.584 739.496 225.806 735.701 222.91 734.309C214.696 730.361 204.616 729.081 196 731C195.699 727.048 194.882 725.178 191 724L191 723C198.573 723.122 211.524 721.56 214 713L218 714L217 707C223.292 703.428 218.691 690.87 213 688L218.276 677.198L230 679.741L268 696L272 700L272 699C267.796 695.244 264.978 689.959 259.999 687.089C243.017 677.298 224.518 676.007 215 656C223.565 659.284 237.42 671.265 244 661L273 672L272 665L272 664L274 661L271 657L272 657C276.689 663.014 283.953 664.927 291 664L295 650L295 645L288 641C291.669 638.572 289.58 636.597 286 636L290 633C291.835 635.603 293.216 635.283 296 634L298 638L299 638L304 636L304 631C297.085 629.805 287.342 622.264 283 617C301.669 616.779 275.3 603.939 273 600C276.535 600.462 278.032 600.001 280 597L282 597L283 600C288.848 597.275 293.23 599.326 299 601L298 593L301 597L303 597C308.596 587.47 316.998 598.927 324 591L319 587C308.666 586.416 311.62 578.093 313 571L298 558L300 555L293 558L293 553L292 553C291.417 555.178 290.499 558.12 289 555L288 555L287 557L285 553L283 553L277 556L286.793 544.004L276 529L282 531C284.318 520.019 266.967 505.586 261 497L266 496L263 488L281 496L279 490C284.168 492.028 291.087 490.752 293 485L304 487C307.624 474.36 320.084 479.481 327.687 473.121C333.463 468.29 333.797 460.542 343 460L352 447C356.34 447.912 358.261 447.147 360 443L356 444L357 437L353 436L353 434L368 428C366.102 422.613 359.703 416.856 354 419L354 420C356.513 427.572 346.827 430.708 342.17 435.039C331.193 445.25 319.192 448.552 306 453.927C301.996 455.559 296.729 460.678 292.105 459.292C288.67 458.262 287.24 453.957 286 451C281.003 452.962 279.197 451.721 277 447L276 447L276 454L272 444L271 444L269 447C267.872 438.922 267.208 435.087 272 428L272 427C266.288 419.543 273.925 413.427 274 405L277 406L280 411L281 407L280 407L279 410L284 403L282 398C276.51 397.898 275.094 393.936 276 389L277 389L279 393L280 393L281.512 374.911L278 357C283.583 361.038 294.317 365.181 296 355L292 356L290 349L300 338L298 329L302 332L298 312L302 311L303 314L304 314L304 311L308 311L310 320L313 320L318 309C324.79 307.869 325.942 299.767 327 294L332 299L332 294C327.807 293.526 327.262 290.886 327 287L335 292L341 289L335 287L340 284L337.436 273.61L326.357 265.856L324 245L312 244L309 240L316 228L319 232L324 221C333.282 225.448 330.43 214.831 336.267 213.518C339.664 212.755 344.456 216.44 348 217L353 212L353 207L356 208L359 197L358 197L356 200L356 191C362.136 193.062 364.789 188.659 370 186C372.672 189.665 378.07 187.305 375 184L375 183L383 188C387.767 186.358 389.336 187.954 392 192L396 190L403 200L404 200L407 196L406 200C410.895 195.922 409.9 190.819 409 185L413 186L415 180L423 194L426 193C432.258 205.937 433.46 219.581 450 222L450 215C456.834 216.21 461.236 220.86 464 227L466 227L468 221C464.43 218.457 459.72 214.767 461 210L461 204L468 210L469 205L471 205L476 210L472 189L479 187L474 178L479 180L480 175L483 177L483 178L480 181L481 182C486.083 175.914 478.286 169.139 473 166L476 159C472.092 155.137 470.176 150.489 471 145L472 145L476 150L477 144L481 144L482 131L483 131L484 138L486 135L490 140L492 140L496 120L497 120L504 125L508 111L514 114L516 109L525 108L520 97L535 96C533.439 108.361 537.865 118.287 541 130L542 130L542 122C548.062 126.696 549.593 133.771 551 141L554 141L554 130L560 138L561 138L563 125L569 121C569.935 123.345 568.508 138.598 573.46 135.824C575.629 134.609 576.91 130.732 579 129L577 126L580 126L582 115L590 121C590.552 125.881 593.207 130.395 598 132C593.546 122.995 583.557 96.2686 592 88L594 96L596 90L597 90L602 100C598.516 83.1008 598.559 57.1377 605.269 41C611.299 26.496 620.988 15.4664 625 0L0 0z"/>
<path style="fill:#040404; stroke:none;" d="M602 100L597 90L596 90L594 96L592 88C588.277 90.4139 588.806 94.8531 589.043 99C589.624 109.141 592.112 123.674 598 132C593.801 129.683 590.953 125.694 590 121L582 115L580 126L577 126L579 129C576.235 130.518 575.859 133.609 573.46 135.079C569.181 137.702 570.343 123.258 569 121L563 125L561 138L560 138C559.997 133.676 557.863 131.683 554 130L554 141L551 141C550.105 134.079 548.694 125.433 542 122L542 130L541 130L535 96L520 97L525 108L516 109L514 114L508 111L504 125L497 120L496 120L492 140L490 140L486 135L484 138L483 131L482 131L481 144L477 144L476 150L472 145L471 145C469.695 150.224 471.453 155.939 476 159L473 166C477.835 170.217 484.986 175.419 481 182L480 181L483 178L483 177L480 175L479 180L474 178L479 187L472 189L476 210L471 205L469 205L468 210L461 204L461 210C457.532 213.961 464.625 219.408 468 221L466 227L464 227C462.031 220.724 457.046 214.73 450 215L450 222C432.526 217.994 434.794 205.26 426 193L423 194C421.662 188.633 420.167 182.604 415 180L413 186L409 185C409.47 191.075 410.146 195.082 406 200L407 196L404 200L403 200L396 190L392 192C389.894 187.366 387.788 185.57 383 188L375 183L375 184C376.225 188.214 372.592 188.219 370 186L356 191L356 200L358 197L359 197L356 208L353 207L353 212L348 217C344.595 216.121 339.682 212.09 336.239 212.97C330.195 214.514 333.086 223.84 324 221L319 232L316 228L309 240L312 244L324 245L326.322 266.698L336.697 273.61L340 284L335 287L341 289L335 292C333.936 288.18 330.66 287.62 327 287C327.133 291.09 327.496 293.792 332 294L332 299L327 294C325.391 299.69 324.488 307.037 318 309L313 320L310 320L308 311L304 314L303 314L302 311L298 312L302 332L298 329L300 338L290 349L292 356L296 355C293.004 364.965 284.23 360.099 278 357L281.112 374.911L280 393L279 393L277 389L276 389C274.591 394.189 276.17 398.217 282 398L284 403C280.287 404.487 278.388 405.876 279 410L280 407L281 407L280 411L274 405C273.817 412.793 264.727 420.791 272 427L272 428C266.47 433.761 266.875 439.76 269 447L271 444L272 444L276 454L276 447L277 447C278.686 452.203 280.975 453.631 286 451C289.913 464.542 297.765 457.69 307 453.927C319.822 448.703 331.388 445.74 342.17 435.907C346.339 432.105 358.621 426.798 354 420L354 419C359.68 417.276 365.287 423.349 368 428L353 434L353 436L357 437L356 444L360 443C357.77 446.537 356.173 447.471 352 447L343 460C333.24 458.883 332.887 468.598 326.853 473.12C319.417 478.693 305.99 474.393 304 487L302 485L293 485C290.26 489.954 284.32 491.698 279 490L281 496L263 488L266 496L261 497C266.126 507.481 283.399 518.975 282 531L276 529L285.945 544.004L277 556L283 553L285 553C285.841 554.798 286.569 557.108 288 555L289 555L290 558L292 553L293 553L293 558L300 555L298 558L313 571C311.105 578.246 308.073 587.034 319 587L324 591C316.677 596.78 306.824 587.652 303 597L301 597L298 593L299 601C293.388 598.602 288.58 596.195 283 600L282 597L280 597L273 600C274.524 603.983 300.184 616.44 283 617C286.384 622.71 297.17 630.315 304 631L304 636L299 638L298 638L296 634L294 636L290 633L286 636C289.266 637.014 290.34 638.221 288 641C289.897 644.072 291.374 645.218 295 645L295 650L298 651C293.83 654.894 291.374 658.187 291 664C283.357 663.463 278.417 662.453 272 657L271 657L274 661L272 664L272 665L273 672L259 668.818L244 661C235.835 669.664 224.626 658.733 215 656C220.897 676.357 243.595 678.237 259 687.089C264.273 690.119 266.898 695.897 272 699L272 700L268 696L230 679.47L217.367 677.067L213 688C218.13 691.908 222.29 702.275 217 707L218 714L214 713C209.97 721.386 199.101 721.964 191 723L191 724L196 731C204.598 729.869 214.216 730.441 222.385 734.45C225.516 735.987 227.17 740.18 231 740.289C235.013 740.403 239.685 735.938 243 734L244 735L243 744L232 745C232.661 748.814 234.259 749.57 238 750L236 757L227 759L227 760L232 762L228 765C229.04 768.233 231.815 779.452 225 773L224 773L225 780L218 784L225 790L245 793L246 793L251 794L252 794L278 800L273 801L273 806L266 805L266 810C277.106 809.311 281.999 807.154 282 820L272 824L290 822L282 831C284.213 834.478 286.679 835.917 290 833L291 833C293.886 836.078 296.669 836.995 299 833L301 844L284 847L282 846L276 855L279 864L281 864L282 861L284 861C284.925 863.344 287.419 867.793 288 863L289 863L290 866L291 866L292 863C298.179 868.584 288.024 871.5 285 876C280.591 869.006 278.331 874.164 279 880L290 879L288 890L286 894L281 897L290 899L284 904L293 903L290 910C300.822 911.705 299.373 899.398 304.569 893.133C307.891 889.126 312.106 888.652 313 883L321.3 883.978L327 896L328 896L332 895L334 887L339 889L328 906L344.211 903.831L343 915L341 913C336.885 917.458 331.009 921.487 331 928L327 932C330.628 930.365 338.243 923.176 341.821 923.782C349.591 925.098 342.27 943.894 341 948L342 949L347 945C346.311 954.475 333.112 957.381 328 964C332.552 967.112 340.124 969.555 345 966L346 966L353 975L354 975L354 971L356 971L356 976L359 976L358 982L359 982L371 970L367 984C373.716 984.31 370.416 990.381 371 995L397 974C397.781 983.242 381.211 985.423 386 996C383.178 997.879 383.668 1002 387.835 1001.03C391.401 1000.2 395.778 995.079 399 993L397 1021L403 1021L411 1005L412 1005L416 1013L418 1008L420 1008L420 1018L427 1014L426 1016L427 1016L429 1014L426 1027L423 1025L423 1029C431.735 1029.96 424.198 1039.54 432 1042C433.89 1038.82 435.554 1039.17 439 1040L442 1031L444 1044C448.947 1040.95 451.811 1036.82 452 1031C457.289 1033.14 460.411 1045.14 464 1035L474 1054L477 1054L478 1051L488 1060C488.154 1055.27 489.077 1052.79 494 1052L494 1044C499.489 1044.84 500.197 1038.52 499.277 1034C497.644 1025.97 483.331 1011.72 489 1006C487.864 999.879 487.156 993.612 492 989L493 1004L494 1004C495.532 999.638 506.048 983.47 506 996L516 988L517 984L518 984L518 987L524 982L530 991L532 989L533 989L533 995C542.759 992.037 543.999 997.413 544 1006C547.866 1003.3 547.908 998.423 548 994L551 995L550 1000L553 999C554.222 1004.08 556.377 1008.32 561 1011L564.667 1004L562.333 995L564 982L576 996L577 996C585.45 984.253 576.036 967.669 575 955L576 955C578.035 960.586 580.991 966.285 587 968L583 941L584 941L585 944C589.612 941.307 589.714 937.966 590 933L594 934C594.041 931.583 595.602 915.011 598 920L599 920L599 901L616 893L617 896L613 898L613 900C619.293 901.839 622.035 899.477 625 894C631.615 901.356 636.334 910.197 638 920L640 920L640 913L641 913L644 926L649 927L649 928C643.099 928.983 632.269 941.847 642 945L643 942L647 946L648 943L649 943L649 948L657.32 945.318L666 949L659 954L661 949C653.825 950.245 657.849 956.817 658 962C653.064 962.595 652.795 968.062 649.636 971.201C641.804 978.981 632.235 984.142 624.244 991.498C621.781 993.764 621.468 996.05 624 998L624 993C627.495 994.703 627.057 996.535 626 1000L634 997C632.102 1000.44 628.409 1002.43 626.684 1006.02C625.247 1009 626.718 1012.72 624.396 1015.32C613.964 1026.96 597.283 1030.65 594 1048L618 1040L618 1038C628.35 1039.8 636.071 1031.36 643.001 1025C658.607 1010.67 675.993 978.148 699 977L700 981L700 982C689.379 987.099 686.809 996.902 678.75 1004.54C673.621 1009.41 667.302 1011.06 662 1015.28C654.862 1020.95 651.09 1028.1 645.61 1035C637.382 1045.35 630.623 1050.98 626 1064L630 1060L631 1060L635 1064L636 1064L644 1057L645 1061L651 1061L645 1074C653.295 1071.74 670.003 1060.31 670 1051L671 1050L674 1051L666 1072L669 1071L672 1080C671.287 1066.62 684.441 1066.04 693 1060C690.292 1068.95 686.461 1069.54 688 1080L696 1075L698 1075C701.138 1081.6 707.607 1080 714 1080L757 1080C758.34 1073.07 759.659 1057.25 753 1053L756 1043L767 1056L768 1049L769 1049L771 1063L768 1080C776.333 1078.98 778.904 1074.68 781 1067C786.204 1069.54 789.932 1074.65 792 1080C800.869 1080 809.753 1079.78 818.611 1079.78C822.328 1079.78 827.037 1081.49 828 1077C833.567 1081 855.831 1083.43 860 1077L861 1077L861 1080L873 1080L878 1064L882 1067L879 1059L878 1064L877 1064L878 1054L880 1057C887.922 1051.26 897.055 1042.97 891 1033L900 1027L901 1042L903 1042L908 1037C908.907 1045.82 903.166 1048.58 900 1056L906 1055L910 1056C916.848 1045.16 913.502 1038.49 916 1027L918 1031L924 1029L925 1033L927 1033L928 1027L929 1027C929.437 1031.19 933.52 1041.93 938 1035L940 1035L937.133 1051L942.327 1062.88L940 1072C935.672 1071.33 933.581 1071.71 932 1076C949.829 1080.31 943.073 1060.46 943.855 1052C944.485 1045.18 948.45 1040.25 947.946 1033C947.599 1028.01 944.006 1023.87 946 1019C947.366 1022.35 948.306 1023.83 952 1024L954 1034L959 1030L958 1046C975.116 1053.77 965.574 1020.1 974 1017L974 1030C982.629 1025.84 980.191 1017.66 976 1011L980 1012L981 1007L983 1007L984 1015L994 1020L997 1016L995 1024L1000 1025L982 1052C986.315 1054.17 996.356 1060.13 996 1065L996 1066L999 1074L1000 1074L1003 1069C1007.81 1074.59 1011.71 1071.46 1018 1073L1018 1057L1022 1062C1031.3 1060.05 1032.93 1052.89 1024 1048L1024 1047C1026.86 1047.2 1034.65 1045.11 1036.53 1046.17C1042.19 1049.37 1038.03 1058.57 1038.86 1063C1039.38 1065.81 1041.82 1068.4 1043 1071C1037.43 1071.12 1032.98 1071.86 1032 1078L1036 1077C1037.04 1081.85 1044.9 1080 1049 1080C1049.77 1070.18 1053.61 1055.43 1046 1048L1048 1045C1054.04 1052.79 1051.14 1071.16 1065 1067C1064.72 1071.84 1067.42 1074.05 1072 1075L1072 1076L1069 1077C1071.45 1079.48 1073.09 1080.09 1076 1078L1077 1078L1098 1080L1098 1071L1104.43 1078.97L1116 1080C1115.84 1062.4 1094.03 1059.21 1086.98 1044.83C1083.24 1037.2 1088.87 1030.71 1081 1024L1081 1023C1089.32 1016.68 1091.74 1014.46 1102 1013L1104 1016L1117 993C1122.7 998.531 1121.38 1009.63 1130 1012L1128 1008L1128 1007L1131 1005L1134 1014L1140 1016L1137 1013L1135 1008L1136 989L1131 988L1135 977L1131 970C1140.5 981.711 1153.66 986.788 1153 1004C1158.53 1006.01 1158.43 1010.37 1161.08 1015C1165.2 1022.17 1171.74 1027.23 1172 1036C1177.96 1033.9 1175.83 1027.78 1174.82 1023C1174.1 1019.63 1175.39 1016.34 1174.16 1013C1171.63 1006.15 1165.84 1002.71 1169 995L1176 1000L1174 991L1190 1000L1194 995L1195 995C1194.5 1002.15 1196.15 1006.72 1203 1010L1204 1007L1205 1007C1207.63 1011.87 1214.49 1017.19 1220 1018C1218.51 1012.39 1209.58 1000.19 1216 997C1216.41 1004.59 1222.08 1008.38 1224.85 1015C1229.99 1027.27 1227.87 1054.74 1240 1062L1238 1036L1239 1036L1246 1052L1248 1044L1247 1032L1254 1034L1254 1028C1248.05 1019.98 1260.31 1019.18 1265 1017L1264 1020L1270 1017L1267 1016L1270 1006L1273 1006L1275 1014L1276 1014L1280 1012L1281 1006L1287 1012C1289.43 1010.51 1291.73 1008.46 1289.95 1005.34C1288.4 1002.6 1284.95 1001.58 1283.23 998.87C1278.97 992.153 1272.54 975.746 1273 968L1274 968C1276.71 973.727 1280.52 981.221 1287 983L1287 984L1285 988L1290 989L1291 986L1296 989L1294 992L1298 992L1299 985L1303 988L1315 991L1314 995L1324 996C1323.03 992.405 1320.92 985.419 1318.4 982.698C1316.3 980.441 1313.15 980.085 1311.98 976.892C1309.25 969.432 1311.06 951.163 1303 948L1306 937L1305 937L1304 940L1302 940C1301.56 936.032 1302.06 934.207 1306 933L1311 941L1312 959L1322 959L1321 966L1324 972L1328 971L1326 967L1334 967C1334.9 972.134 1340.58 983.249 1344 973C1348.81 972.216 1349.75 969.605 1350 965L1351 965L1352 968L1363 968L1364 959L1366 962C1376.24 961.305 1391.9 972.451 1391 959C1399.6 960.934 1401.39 957.565 1408.13 954.059C1410.24 952.96 1414.49 953.858 1415.12 950.816C1415.88 947.082 1407.99 937.935 1405 936L1406 929L1411 934L1412 934L1416 925L1420 926L1426 915L1433 918L1433 920L1428 928C1431.18 926.238 1432.22 924.625 1432 921L1433 920L1449 921L1450 924L1451 924L1452 921L1449 920L1452 914L1445 914L1446 908L1448 909L1449 904L1453 908L1457 904L1449 900L1449 899L1450 893L1453 894L1454 891L1455 891L1456 894L1464 894L1464 890L1460 890C1460 878.595 1465.6 874.862 1474 868L1472 863C1476.77 861.541 1480.86 865.797 1484.68 864.543C1490.52 862.628 1485.77 852.872 1496 854L1496 847C1502.27 849.163 1507.2 848.063 1508 841L1500 836L1500 835C1506.57 837.266 1517.75 833.545 1518 826L1521 829L1525 828C1523.22 824.868 1520.06 821.599 1519.35 818.015C1518.44 813.45 1524.04 810.3 1519 807L1521 802C1518.23 799.515 1518.01 798.167 1520 795C1515.55 792.337 1512.97 787.632 1508.79 785.179C1502.88 781.713 1484.99 781.732 1478 782.22C1465.25 783.109 1449.88 790.901 1439 784L1439 782L1440 781L1453 782C1453.47 777.819 1455.09 774.48 1451 772L1451 771L1480 767L1482 763L1484 764C1490.38 757.972 1497.4 763.517 1504.91 762.286C1510.31 761.402 1513.35 757.058 1519 758L1517 753L1518 751L1504 744L1504 742L1512 740L1510 733L1504 732L1520.99 725.696L1532 717.322L1555 716L1555 715L1550 711L1538 703L1538 704L1539 707L1538 707L1531 700L1535 696L1536 691L1532 693L1531 693L1525 689L1525 685L1528 686L1529 681C1522.55 680.892 1514.97 679.718 1518 672C1523.38 676.566 1530.87 674.124 1536.71 679.174C1544.8 686.167 1549.45 696.929 1556.78 704.697C1559.77 707.865 1564.41 707.539 1568.05 709.623C1570.78 711.187 1572.66 714.381 1575.43 715.64C1586.62 720.726 1596.01 704.899 1593 696C1601.09 690.285 1591.45 679.535 1588.09 674C1582.38 664.571 1581.68 653.714 1577.02 644C1572.47 634.53 1564.36 627.892 1558.13 619.729C1555.44 616.204 1556.79 614.283 1560 612L1560 611L1547 599L1551 598L1546 584L1546 583L1555 588L1551 577L1555 580L1556 580L1552 572L1552 571C1555.68 572.541 1561.72 577.543 1565 574C1569.59 574.818 1580.05 582.576 1583.68 580.829C1586.22 579.603 1586.06 561.028 1583 560L1583 555L1588 540L1588 539C1584.97 535.349 1586.56 532.932 1584.8 529.14C1582.09 523.288 1572.67 521.18 1567 522L1568 515L1557 504L1557 503L1563 498L1559 491L1562 490L1557 488L1557 487L1570.83 481.323L1579.29 485.436L1597 488L1594.33 476.383L1614 468L1613 458L1618 455C1612.49 448.496 1608.33 438.715 1619 436C1617.99 430.848 1622.02 415.423 1617.38 412.072C1614.66 410.107 1610.24 413.446 1607.17 413.16C1602.72 412.745 1601.82 407.738 1597.95 406.406C1595 405.393 1592.84 408.034 1590 407.838C1583.8 407.409 1583.02 399.503 1584 395L1577 392L1578 389L1581 390L1578 374L1586 376C1585.68 371.916 1583.48 367.826 1579 370L1578 370L1576 366L1579 351L1574 353L1572 349L1566 352L1578.02 334.742L1598 325L1599 325C1601.87 327.165 1604.13 327.165 1607 325L1608 325L1616 324L1616 320L1609 321L1610 315L1611 315L1612 318L1614 318L1620 309L1616 309L1621 306L1622 310L1623 310C1624.7 303.475 1636.75 292.156 1643 290L1645 279C1656.04 273.998 1642.46 257.164 1639 250L1635 252L1635 248L1629 248L1635 244L1634 240L1613 240L1614 243L1606 244L1614 238L1612 234L1617 235L1617 234L1610 234C1608.17 230.208 1603.95 226.219 1602 232C1599.8 230.767 1596.95 229.623 1600 228L1600 227L1560.42 234.866L1524 239L1524 235L1516 235L1516 238C1508.11 235.125 1489.64 232.279 1485 240C1480.45 233.746 1471.98 239.222 1466 240L1472 230L1453 231L1453 230L1457 221L1436 227L1438 220C1433.4 222.146 1427.39 226.897 1422.17 226.946C1418.78 226.978 1415.41 223.854 1411.91 223.356C1401.76 221.913 1383.66 224.36 1378 233L1379.89 224L1379.46 210.015L1391 196C1396.23 195.729 1399.35 187.487 1401 183C1406.16 181.994 1406.26 172.628 1409.89 168.714C1419.93 157.883 1416.47 149.684 1420.75 136.996C1424.37 126.246 1432.93 115.776 1440 107L1440 106C1437.61 99.0538 1443.57 92.7216 1439.38 86.0548C1433.27 76.326 1418.52 78.6968 1411.09 85.3256C1401.58 93.8154 1388.65 102.431 1380.47 112.039C1374.81 118.683 1372.56 128.373 1366 134L1367 131L1365 130L1356 146C1352.15 139.811 1347.79 145.784 1343 148L1345 142C1341.7 141.492 1340.74 142.162 1339 145L1337 141L1335 141L1334 144L1333 144C1333.21 140.767 1334.93 136.502 1331 136C1330.88 132.418 1333.44 108.895 1326 122L1320 122L1319 119C1315.04 122.101 1313.2 123.987 1308 123L1302 129L1301 125L1299 125L1297 130L1292 127L1291 127L1289 144L1284 143L1275 152L1265 148L1270 137L1265 138L1269 134L1269 133L1258 140C1257.75 129.754 1252.75 130.949 1245 134L1244 125C1234.39 125.425 1224.32 118.847 1219 130L1211 132L1206 127L1189 132L1191.73 142L1190.28 151L1190.59 160.133L1182 159C1179.79 163.866 1177.32 166.734 1172 168L1172 164L1158 176C1159.24 168.812 1162.38 161.519 1152 166L1157 151C1152.22 153.596 1149.75 156.229 1144 155L1144 159L1140 159C1139.17 165.534 1140.38 173.521 1135 178L1127 174C1131.49 164.377 1136.51 157.552 1134 146L1132 146C1127.22 154.768 1126.19 161.344 1118 168L1121 143L1118 145C1118.14 132.331 1123.36 113.956 1138 112L1143 101L1139 100L1139 98L1145 96L1150 84L1143 83L1141 71L1138 71L1138 72C1137.12 78.3102 1130.11 81.0809 1125 84L1128 80C1127.09 75.6526 1125.2 75.1111 1121 76C1121.01 65.3207 1124.77 59.3707 1129 50C1120.35 48.6523 1127.27 41.5104 1128 36L1125 38L1124 38C1122.07 34.312 1117.02 15.5673 1112 21L1111 21L1111 12L1104 16L1106 8L1100 13L1100 3L1089 8L1086 14L1078 6L1078 12L1061 7C1057.31 5.46802 1055.82 3.93799 1055 0L1042 0L1042 8L1040 8L1040 0L1011 0L1001.35 1.60339L1001 18L1000 18L1000 4L995 0C994.568 10.0682 996.782 25.606 988 32L990 0L985 0L984 6C966.459 4.54016 976.177 21.4944 971.691 30.9607C968.864 36.9286 961.609 38.7744 959 45L957 45L956 37L954 37L952 46L949 45L946 48L947 26L933 40L934 31L926 44L927 37L924 35L923 35L921 46L917 32L909 36C908.293 27.1348 900.564 34.6216 896 29L886 26C891.653 25.0444 897.558 18.6882 898 13L894 16C877.917 5.23877 879 24.7292 879 36C866.685 32.6891 871.221 26.1644 875 18L874 17L872 17L868 24L862 24L859 18L858 24L851 21L850 25L849 25C845.393 16.0259 834.809 26.6322 828 22L826 28L828 33L831 41C821.079 32.1333 812.299 27.467 812 13C807.088 15.0814 795.581 15.0957 801 23L792 28L797 35L796 36L794 36C791.43 30.7251 787.888 27.7712 782 27L786 38C782.349 35.8893 782.794 32.4674 780.066 29.7817C775.737 25.5208 769.157 33.7687 766 36L767 27L758.111 36L758.972 45L752 49L751 49C749.913 45.5562 748.582 44.6494 745 45L745 52L738 42L732 45L733 42L724 41L730 56L721 56L721 55C728.003 51.0228 723.177 44.6862 717 43L717 62C711.074 58.971 708.918 55.6727 710 49L706 52C696.885 46.7417 694.006 56.5341 694 64L691 64L693 55L692 54L688 56L685.758 39L689 24L692 26L693 0L646 0C640.57 0 631.262 -1.79187 626.314 0.603394C622.067 2.65942 620.931 13.6804 618.229 17.7145C602.985 40.4777 594.328 72.7002 602 100z"/>
<path style="fill:#fcfcfc; stroke:none;" d="M693 0C691.049 9.45959 689.908 16.6116 692 26L689 24L685.413 39L688 56L692 54L693 55L691 64L694 64C694.027 56.3176 697.165 48.7339 706 52L710 49C708.47 55.6793 710.498 59.7064 717 62L717 43C722.715 45.5424 726.412 50.1913 721 55L721 56L730 56L724 41L733 42L732 45L738 42C739.275 46.7123 740.437 49.8011 745 52L745 45L751 49L752 49L753 47L754 47C755.99 48.9941 758.281 47.7444 759.154 44.9406C760.09 41.9332 757.843 39.0354 758.708 36.0393C759.768 32.3656 764.353 29.5353 767 27L766 36C769.564 34.3269 775.16 26.728 779.438 29.9167C782.726 32.3684 781.603 36.47 786 38L782 27C787.615 28.2893 790.767 31.3767 794 36L796 36L797 35C796.205 31.3926 795.643 29.1963 792 28L801 23C796.851 14.9288 807.19 15.5676 812 13C812.115 26.8809 819.813 33.7645 831 41L828 33L826 28L828 22C835.199 28.7468 843.326 15.75 849 25L850 25L851 21L858 24L859 18L862 24L868 24L872 17L874 17L875 18C869.837 25.4542 866.554 34.1096 879 36C879 29.9417 876.49 13.1415 886.005 12.608C888.714 12.4561 891.609 14.9347 894 16L898 13C897.159 18.2966 891.081 24.4382 886 26C889.036 29.4283 891.582 29.7135 896 29C899.806 35.5239 907.619 27.6234 909 36L917 32L921 46L923 35L924 35L927 37L926 44L934 31L933 40L947 26L946 48L949 45L952 46L954 37L956 37L957 45L959 45C962.279 39.6713 968.887 37.3942 971.796 31.9252C976.874 22.3813 966.38 5.51685 984 6L985 0L981 2L980 2C976.111 -2.45068 962.681 0 957 0L890 0L894 12C888.906 9.45374 888.115 5.38232 888 0L693 0z"/>
<path style="fill:#040404; stroke:none;" d="M888 0C888.045 5.37073 888.219 10.2607 894 12L890 0L888 0M980.333 0.666626L980.667 1.33337L980.333 0.666626z"/>
<path style="fill:#fcfcfc; stroke:none;" d="M990 0L988 32C997.06 27.6335 994.814 9.00903 995 0L990 0M997 0L1000 4L1000 18L1001 18L1001 0L997 0M1040 0L1040 8L1042 8L1042 0L1040 0M1055 0C1055.49 4.27966 1056.85 5.85413 1061 7L1068.14 10.9907L1078 12L1078 6L1086 14L1089 8L1100 3L1100 13L1106 8L1104 16L1111 12L1111 21L1112 21C1117.95 17.7471 1121.07 33.853 1124 38L1125 38L1128 36C1126.75 41.3315 1119.85 49.2679 1129 50C1123.34 58.7973 1121 65.4943 1121 76C1125.06 75.5283 1126.48 76.2041 1128 80L1125 84C1130.81 81.9922 1138.81 77.9885 1138 71L1141 71L1141 72L1143 83L1150 84C1147.65 88.6307 1143.61 90.2919 1145 96L1139 98L1139 100L1143 101L1138 112C1122.72 113.025 1118.04 132.301 1118 145L1121 143L1118 168C1126.97 163.093 1128.51 154.862 1132 146L1134 146C1135.74 158.216 1129.96 163.552 1127 174L1135 178C1140.68 174.866 1139.53 164.943 1140 159L1144 159L1144 155C1149.66 156.622 1152.65 154.474 1157 151L1152 166C1161.79 163.303 1158.72 168.776 1158 176L1172 164L1172 168C1177.76 167.23 1180.29 164.405 1182 159C1198.68 164.989 1190.46 142.063 1189 132C1193.59 131.946 1203.53 130.773 1206 127L1211 132L1219 130C1226.24 119.59 1233.49 125.957 1244 125L1245 134C1252.62 132.104 1257.43 129.509 1258 140L1269 133L1269 134L1265 138L1270 137L1265 148L1275 152L1284 143L1289 144L1291 127L1292 127L1292 130L1297 130L1299 125L1301 125L1302 129L1308 123C1313.42 124.805 1315.33 123.057 1319 119L1320 122L1326 122C1334.8 112.141 1330.66 131.798 1331 136C1334.76 136.503 1333.05 140.935 1333 144L1334 144L1335 141L1337 141L1339 145L1345 142L1343 148C1348.22 146.54 1351.31 141.263 1356 146C1360.13 140.417 1359.17 132.34 1367 131L1366 134C1371.73 130.751 1373.9 122.358 1377.52 117C1383.31 108.423 1392.09 103.811 1400 97.4861C1409.51 89.881 1423.99 70.2759 1437.32 84.2778C1444.52 91.8431 1435.39 98.8545 1440 106L1440 107C1431.03 114.486 1421.73 129.51 1419.25 141C1418.06 146.529 1419.8 153.768 1417.22 159C1415.23 163.022 1411.09 166.233 1408.2 169.588C1405.01 173.293 1406.19 181.69 1401 183C1398.84 187.044 1395.88 195.279 1391 196L1380.01 208.089L1379.63 223.576L1378 233C1384.81 225.575 1400.66 222.528 1411 223.468C1414.94 223.828 1418.44 227.481 1422.17 227.424C1427.26 227.347 1433.89 222.709 1438 220L1436 227L1457 221L1453 230L1453 231L1472 230L1466 240C1472.64 239.559 1479.19 234.823 1485 240C1491.2 232.542 1507.16 235.661 1516 238L1516 235L1524 235L1524 239L1562 234.819L1600 227L1600 228L1597 228L1602 232C1604.69 227.549 1607.61 230.75 1610 234L1617 234L1617 235L1612 234L1614 238L1606 244L1614 243L1613 240L1634 240L1635 244L1629 248L1635 248L1635 252L1639 250C1641.97 258.689 1655.14 272.253 1645 279L1643 290C1636.63 291.317 1623.98 303.27 1623 310L1622 310L1621 306L1616 309L1620 309L1614 318L1612 318L1611 315L1610 315L1609 321L1616 320L1616 324L1608 325L1607 325L1599 325L1598 325L1577.06 334.742L1566 352L1572 349L1574 353L1579 351L1576 366L1578 370L1579 370C1583.33 368.855 1585.35 371.985 1586 376L1578 374L1581 390L1578 389L1577 391L1577 392L1584 395C1582.61 399.629 1583.44 408.134 1590 408.38C1592.6 408.478 1594.8 405.856 1597.41 406.607C1601.44 407.771 1602.43 412.879 1607.02 413.515C1610 413.93 1614.9 410.463 1617.31 412.711C1621.82 416.916 1617.22 430.25 1619 436C1608.1 437.739 1611.42 449.527 1618 455L1613 458L1614 468L1593.75 476.348L1597 488L1580.17 485.436L1571 481.053L1557 487L1557 488L1562 490L1559 491L1563 498L1557 503L1557 504L1568 515L1567 522C1572.9 522.187 1580.83 523.3 1584.1 529.143C1586.22 532.923 1584.34 535.783 1588 539L1588 540L1583 555L1583 560C1585.61 561.56 1585.24 579.884 1582.83 580.41C1578.39 581.38 1570.44 574.471 1565 574L1552 571L1552 572L1556 580L1555 580L1551 577L1555 588L1546 583L1546 584L1551 598L1547 599C1548.64 604.782 1554.76 608.482 1560 611L1560 612C1550.26 617.027 1564.37 626.946 1568.14 632C1578.43 645.818 1579.61 661.86 1588.71 676C1592.65 682.109 1599.36 689.2 1593 696C1595.19 704.594 1586.94 719.526 1575.84 715.431C1573.49 714.566 1571.92 711.545 1569.81 710.153C1566.02 707.649 1560.78 707.894 1557.53 704.693C1549.69 696.977 1545.28 685.391 1536.71 678.434C1530.88 673.706 1523.98 675.64 1518 672C1513.78 680.052 1522.42 681.338 1529 681L1528 686L1525 685L1525 689L1531 693L1532 693L1536 691L1535 696L1531 700L1538 707L1539 707L1538 704L1538 703L1550 711L1555 715L1555 716L1530.04 717.603L1519.01 726.132L1504 732L1510 733L1512 740L1504 742L1504 744L1518 751L1517 753L1519 758C1513.37 756.501 1511 760.491 1505.83 761.742C1498.89 763.422 1488.96 757.12 1484 764L1482 763L1480 767C1471.52 764.274 1459.63 769.138 1451 771L1451 772C1454.42 775.079 1453.24 777.744 1453 782L1440 781L1439 782L1439 784C1448.64 792.844 1470.1 782.216 1483 782.35C1489.01 782.413 1502.79 782.357 1507.9 785.179C1512.68 787.821 1514.54 792.691 1520 795C1517.25 798.033 1517.35 799.972 1521 802L1519 807L1518.74 817.039L1525 828L1521 829L1518 826C1517.45 833.204 1506.36 836.263 1500 835L1500 836L1508 841C1506.2 847.67 1502.29 848.678 1496 847L1496 854C1485.38 851.816 1490.43 860.587 1484.95 863.968C1482.23 865.651 1476.19 861.327 1472 863L1474 868C1464.52 873.148 1460 879.332 1460 890L1464 890L1464 894L1456 894C1454.88 891.392 1453.66 890.932 1453 894L1450 893L1449 899L1449 900L1457 904L1453 908L1449 904L1448 909L1446 908L1445 914L1452 914L1449 920L1451 924L1450 924L1449 921L1433 920L1432 921L1428 928L1433 920L1433 918L1426 915L1420 926L1416 925L1412 934L1411 934L1406 929L1405 936C1407.6 938.473 1415.17 947.142 1414.55 950.766C1414.05 953.666 1410.09 952.793 1408.11 953.613C1401.04 956.544 1399.79 960.005 1391 959L1389.81 966.556L1382.97 963.333L1364 959L1363 968C1358.6 966.142 1356.25 965.62 1352 968L1351 965L1350 965C1349.52 969.335 1348.29 971.727 1344 973C1339.16 981.606 1335.5 971.92 1334 967L1326 967L1328 971L1324 972L1321 966L1322 959C1317.99 957.181 1315.82 956.632 1312 959L1311 941L1306 933C1301.55 933.743 1301.13 935.822 1302 940L1304 940L1305 937L1306 937L1303 948C1311.38 953.017 1308.13 969.326 1311.9 977.775C1313.2 980.674 1316.49 981.124 1318.4 983.418C1320.87 986.383 1322.42 992.368 1324 996L1314 995L1315 991C1310.76 988.36 1307.96 986.258 1303 988L1299 985L1298 992L1294 992L1296 989L1291 986L1290 989L1285 988L1287 984L1287 983L1274 968L1273 968C1271.59 975.279 1278.99 992.158 1282.72 998.87C1285.73 1004.29 1293.88 1005.72 1287 1012C1286.62 1008.07 1284.79 1006.8 1281 1006L1280 1012L1276 1014L1275 1014L1273 1006L1270 1006L1267 1016L1270 1017L1264 1020L1265 1017C1260.98 1018.3 1245.9 1020.91 1254 1028L1254 1034L1247 1032L1248 1044C1244.87 1046.26 1244.97 1048.42 1246 1052L1239 1036L1238 1036L1240 1062C1228.47 1051.87 1230.04 1028.78 1225.24 1015C1222.91 1008.32 1216.81 1004.31 1216 997C1208.68 999.149 1218.23 1013.09 1220 1018L1205 1007L1204 1007L1203 1010C1197.14 1005.81 1194.87 1002.17 1195 995L1194 995L1190 1000C1188.38 995.413 1178.85 992.45 1174 991L1176 1000L1169 995C1164.5 1002.52 1171.83 1007.21 1174.14 1014C1175.19 1017.09 1173.53 1019.92 1174.16 1022.99C1175.24 1028.24 1177.87 1032.57 1172 1036C1171.9 1026.67 1165.47 1021.63 1161.08 1014C1158.5 1009.49 1158.72 1005.24 1153 1004C1154.35 987.709 1141.97 979.609 1131 970L1135 977L1131 988L1136 989L1135 1008L1137 1013L1140 1016L1134 1014L1131 1005L1128 1007L1128 1008L1130 1012L1117 993L1104 1016L1102 1013C1091.67 1013.18 1088.25 1015.33 1081 1023L1081 1024C1087.32 1031.65 1082.9 1039.3 1087.5 1046.57C1095.32 1058.94 1115.62 1064.05 1116 1080L1920 1080L1920 0L1296 0L1132 0L1089.58 0.138916L1071 2L1055 0z"/>
<path style="fill:#040404; stroke:none;" d="M1070 0L1072 2L1072 0L1070 0M1090 0L1091 1L1090 0M1070 5L1070 10C1073.03 9.14429 1073.28 8.08044 1073 5L1070 5M832.667 7.33337L833.333 7.66663L832.667 7.33337M1085 7L1085 8L1088 9L1085 7z"/>
<path style="fill:#fcfcfc; stroke:none;" d="M1059 8L1058 12L1059 13L1061 13L1063 9L1059 8M981 9L980 12L981 9z"/>
<path style="fill:#040404; stroke:none;" d="M812 11L813 12L812 11M834 13C837.159 15.9144 839.766 16.7792 844 16C841.622 11.5221 838.544 11.6772 834 13z"/>
<path style="fill:#fcfcfc; stroke:none;" d="M1093 11L1094 12L1093 11M1099 13L1100 14L1099 13z"/>
<path style="fill:#040404; stroke:none;" d="M617 14L618 15L617 14M850 15L850 17L852 15L850 15M865 17L864 19L865 17z"/>
<path style="fill:#fcfcfc; stroke:none;" d="M886.667 17.3334L887.333 17.6666L886.667 17.3334M1077.33 17.6666L1077.67 18.3334L1077.33 17.6666M888.667 19.3334L889.333 19.6666L888.667 19.3334z"/>
<path style="fill:#040404; stroke:none;" d="M1123 20L1120 28L1124 30L1123 20z"/>
<path style="fill:#fcfcfc; stroke:none;" d="M804 21L803 25L806 24L804 21M981 21L980 24L981 21M1110 23L1111 24L1110 23z"/>
<path style="fill:#040404; stroke:none;" d="M755 25L755 32L758 32L755 25M768 27L769 28L768 27z"/>
<path style="fill:#fcfcfc; stroke:none;" d="M976 27L977 28L976 27M1000 27L998 34L1002 27L1000 27z"/>
<path style="fill:#040404; stroke:none;" d="M876 28L876 32L878 32L878 28L876 28M916 29L916 31L918 31L918 29L916 29z"/>
<path style="fill:#fcfcfc; stroke:none;" d="M1112.33 30.6666L1112.67 31.3334L1112.33 30.6666M762 33L764 38L765 38L762 33M775 33L774 37L777 33L775 33M788 33L788 36L790 33L788 33M977 33L978 34L977 33z"/>
<path style="fill:#040404; stroke:none;" d="M688 36L687 38L688 36M743 37L743 41L744 41L743 37z"/>
<path style="fill:#fcfcfc; stroke:none;" d="M772 37L771 39L772 37M785 40L788 47L785 40M879 41L880 45L881 45L882 41L879 41M959 45L960 46L959 45M752 49L753 50L752 49M921 49L922 50L921 49z"/>
<path style="fill:#040404; stroke:none;" d="M727 53L728 54L727 53z"/>
<path style="fill:#fcfcfc; stroke:none;" d="M748 55L749 56L748 55M702 57L703 61L704 61L704 57L702 57M697 60C695.992 65.2222 698.454 69.0461 704 68L699 60L697 60M707 63L706 65L708 65L707 63z"/>
<path style="fill:#040404; stroke:none;" d="M1143 66L1144 70L1146 70L1147 65L1143 66M1125 70L1125 72L1127 72L1127 70L1125 70M1143 71C1143.85 82.4382 1155.79 86.3425 1157 73L1153 78L1150 78L1143 71z"/>
<path style="fill:#fcfcfc; stroke:none;" d="M702 73L702 78L703 78L702 73z"/>
<path style="fill:#040404; stroke:none;" d="M1150.67 73.3333L1151.33 73.6667L1150.67 73.3333M1131 76L1136 76L1131 76z"/>
<path style="fill:#fcfcfc; stroke:none;" d="M704 78L703 80L705 80L704 78M1135 80L1136 81L1135 80z"/>
<path style="fill:#040404; stroke:none;" d="M592 83L592 88L593 88L592 83M506.667 107.333L507.333 107.667L506.667 107.333M502 113L502 116L504 116L504 113L502 113z"/>
<path style="fill:#fcfcfc; stroke:none;" d="M696 115L694 119L693 119L691 132L696 130L693 142L694 139L698 140L701 136L698 146L693 145L695 154L697 160L718 167L717 172L718 172L719 170L720 170C723.982 175.622 734.551 176.343 741 177L745 183L748 178L747 184L753 188L754 188L753 176L762 176L756 170L756 169C765.382 167.199 769.567 176.078 777.945 177.339C789.679 179.104 785.028 156.811 784 152C782.046 155.936 781.039 161.409 775.96 162.476C768.892 163.961 763.613 157.411 758 154.606C743.404 147.314 726.785 142.394 714.595 130.877C708.082 124.723 706.308 116.505 696 115z"/>
<path style="fill:#040404; stroke:none;" d="M494.667 119.333L495.333 119.667L494.667 119.333z"/>
<path style="fill:#fcfcfc; stroke:none;" d="M1117 119L1117 120L1120 120L1117 119z"/>
<path style="fill:#040404; stroke:none;" d="M1272 124L1272 128L1273 128L1272 124M554 127L555 128L554 127M556 127L557 128L556 127z"/>
<path style="fill:#fcfcfc; stroke:none;" d="M590 128L588 132C590.649 131.432 591.355 130.412 590 128M564.333 130.667L564.667 131.333L564.333 130.667M484 141L483 146L484 146L484 141M555 141L556 142L555 141M1117 145L1116 151L1117 151L1117 145M1099 147L1100 148L1099 147z"/>
<path style="fill:#040404; stroke:none;" d="M1125 147L1121 156C1125.88 155.161 1127.19 151.559 1128 147L1125 147z"/>
<path style="fill:#fcfcfc; stroke:none;" d="M1356 148L1356 152L1357 152L1356 148z"/>
<path style="fill:#040404; stroke:none;" d="M694.667 149.333L695.333 149.667L694.667 149.333z"/>
<path style="fill:#fcfcfc; stroke:none;" d="M1196 149L1197 150L1196 149M1197 151L1198 152L1197 151M477 152L478 153L477 152M1275.33 152.667L1275.67 153.333L1275.33 152.667z"/>
<path style="fill:#040404; stroke:none;" d="M1420 155L1421 156L1420 155M1185.67 157.333L1186.33 157.667L1185.67 157.333M710 159L711 160L710 159z"/>
<path style="fill:#fcfcfc; stroke:none;" d="M1116 159L1117 160L1116 159M698 165L701 172L700 165L698 165M1105 173L1110 166C1106.29 167.487 1104.39 168.876 1105 173M702 171L704 176L708 175L706 170L702 171M711 181L714 175C709.435 174.317 706.932 177.968 711 181M1403 175L1404 176L1403 175M1099.67 179.333L1100.33 179.667L1099.67 179.333M1113 179C1111.98 181.899 1111.77 183.308 1115 184L1113 179M712 180L716 185L715 180L712 180M717 187L717 188L720 189L717 187M725 188L726 189L725 188M727 189L727 194L728 194L727 189M478 190L478 193L480 193L480 190L478 190M412 192L413 193L412 192M728 197L728 200L730 200L730 197L728 197z"/>
<path style="fill:#040404; stroke:none;" d="M473 199L473 202L474 202L473 199z"/>
<path style="fill:#fcfcfc; stroke:none;" d="M479 205L479 211L480 211L479 205M1373 217L1373 220L1374 220L1373 217z"/>
<path style="fill:#040404; stroke:none;" d="M1613 217L1615 220L1613 217M448 220L449 221L448 220z"/>
<path style="fill:#fcfcfc; stroke:none;" d="M335 221L337 224L335 221M454 221L458 228L454 221M1377 221L1379 225L1377 221z"/>
<path style="fill:#040404; stroke:none;" d="M1590.67 225.333L1591.33 225.667L1590.67 225.333z"/>
<path style="fill:#fcfcfc; stroke:none;" d="M1435 227L1436 228L1435 227z"/>
<path style="fill:#040404; stroke:none;" d="M1612 227L1613 228L1612 227M1617 228L1618 229L1617 228M1616.33 230.667L1616.67 231.333L1616.33 230.667z"/>
<path style="fill:#fcfcfc; stroke:none;" d="M314 231L315 232L314 231M474 233L478 236L477 232L474 233M456 237L458 239L456 237M466 238L466 241L467 241L466 238M1515 239L1516 240L1515 239M1518.67 239.333L1519.33 239.667L1518.67 239.333z"/>
<path style="fill:#040404; stroke:none;" d="M1640 239L1641 240L1640 239z"/>
<path style="fill:#fcfcfc; stroke:none;" d="M1602 244L1606 242L1602 244z"/>
<path style="fill:#040404; stroke:none;" d="M1638 241L1638 244L1639 244L1638 241z"/>
<path style="fill:#fcfcfc; stroke:none;" d="M326 252L332 256L326 252M1635 253L1640 256L1639 252L1635 253z"/>
<path style="fill:#040404; stroke:none;" d="M317 253L317 256L318 256L317 253M321 253L320 256L322 262C325.419 259.369 323.181 255.962 321 253z"/>
<path style="fill:#fcfcfc; stroke:none;" d="M336 257L343 264L336 257z"/>
<path style="fill:#040404; stroke:none;" d="M1649.67 265.333L1650.33 265.667L1649.67 265.333z"/>
<path style="fill:#fcfcfc; stroke:none;" d="M1639 266L1639 268L1641 268L1641 266L1639 266M1646 268L1640 276L1645 278L1648 268L1646 268z"/>
<path style="fill:#040404; stroke:none;" d="M1647 281L1647 284L1652 281L1647 281M1646 290L1646 292L1647 293L1649 293L1650 289L1646 290M1642 291L1643 292L1642 291z"/>
<path style="fill:#fcfcfc; stroke:none;" d="M330 301L331 302L330 301M327 303L328 304L327 303M1622 303L1621 305L1622 303M328 305L330 308L330 305L328 305z"/>
<path style="fill:#040404; stroke:none;" d="M296 311L297 312L296 311z"/>
<path style="fill:#fcfcfc; stroke:none;" d="M1609 323L1612 325L1611 322L1609 323M309 332L308 325C302.905 326.696 304.165 331.16 309 332z"/>
<path style="fill:#040404; stroke:none;" d="M297 327L298 328L297 327M293 337L292 340L293 337M287 347L292 341L287 347z"/>
<path style="fill:#fcfcfc; stroke:none;" d="M284 375L284 376L287 376L284 375z"/>
<path style="fill:#040404; stroke:none;" d="M1581.67 391.333L1582.33 391.667L1581.67 391.333M268 393L273 399C274.24 394.344 272.926 392.172 268 393z"/>
<path style="fill:#fcfcfc; stroke:none;" d="M1582 401L1583 402L1582 401M1581 403L1582 404L1581 403z"/>
<path style="fill:#040404; stroke:none;" d="M1607 407L1608 408L1607 407z"/>
<path style="fill:#fcfcfc; stroke:none;" d="M1601 412L1600 416L1601 412M1592 416L1595 416L1594 414L1592 416M371 425L370 428L371 425M277 427L278 428L277 427M378.667 427.333L379.333 427.667L378.667 427.333M388.667 431.333L389.333 431.667L388.667 431.333z"/>
<path style="fill:#040404; stroke:none;" d="M263.667 435.333L264.333 435.667L263.667 435.333z"/>
<path style="fill:#fcfcfc; stroke:none;" d="M278 435L279 438L276 439L276 440L280 435L278 435z"/>
<path style="fill:#040404; stroke:none;" d="M353 437L354 438L353 437M269 448L270 449L269 448M327 467L328 468L327 467z"/>
<path style="fill:#fcfcfc; stroke:none;" d="M339 467L339 468L342 468L339 467M333 469L332 472L335 470L333 469z"/>
<path style="fill:#040404; stroke:none;" d="M262 487L263 488L262 487z"/>
<path style="fill:#fcfcfc; stroke:none;" d="M1553 493L1557 492L1553 493M281 497L285 504L286 504L281 497z"/>
<path style="fill:#040404; stroke:none;" d="M1563 499L1564 500L1563 499z"/>
<path style="fill:#fcfcfc; stroke:none;" d="M1582 536L1583 537L1582 536M319 575L320 576L319 575z"/>
<path style="fill:#040404; stroke:none;" d="M303 591L304 592L303 591z"/>
<path style="fill:#fcfcfc; stroke:none;" d="M1542 597L1545 600L1542 597M305 599L306 600L305 599z"/>
<path style="fill:#040404; stroke:none;" d="M1560 613L1562 616L1560 613z"/>
<path style="fill:#fcfcfc; stroke:none;" d="M298 618L300 620L300 618L298 618z"/>
<path style="fill:#040404; stroke:none;" d="M300.333 632.667L300.667 633.333L300.333 632.667z"/>
<path style="fill:#fcfcfc; stroke:none;" d="M292 639L293 640L292 639M308 639L309 640L308 639z"/>
<path style="fill:#040404; stroke:none;" d="M213 654L213 656L215 656L213 654M271.333 662.667L271.667 663.333L271.333 662.667M268 663L269 664L268 663z"/>
<path style="fill:#fcfcfc; stroke:none;" d="M243 665L244 666L243 665z"/>
<path style="fill:#040404; stroke:none;" d="M1537.67 691.333L1538.33 691.667L1537.67 691.333z"/>
<path style="fill:#fcfcfc; stroke:none;" d="M220 693C221.135 696.397 222.577 696.579 226 696L226 695L220 693M1591.67 695.333L1592.33 695.667L1591.67 695.333M1524 699L1524 700L1527 700L1524 699M1528.67 699.333L1529.33 699.667L1528.67 699.333M1583 712L1584 713L1583 712M216.333 717.667L216.667 718.333L216.333 717.667M307 721L312 726L307 721M314 723L315 724L314 723M318 725L317 732L324 732L320 725L318 725M1496 725L1495 728L1499 728L1496 725M1503 730L1504 731L1503 730M244 743L245 744L244 743M1459 759L1459 760L1462 760L1459 759M1424.67 771.333L1425.33 771.667L1424.67 771.333z"/>
<path style="fill:#040404; stroke:none;" d="M220 777L221 778L220 777z"/>
<path style="fill:#fcfcfc; stroke:none;" d="M1518 807L1519 808L1518 807M1512 815L1512 816L1516 817L1515 814L1512 815z"/>
<path style="fill:#040404; stroke:none;" d="M263 825L271 828L271 827L263 825M271 825L272 826L271 825z"/>
<path style="fill:#fcfcfc; stroke:none;" d="M305 835L306 836L305 835z"/>
<path style="fill:#040404; stroke:none;" d="M1510.67 841.333L1511.33 841.667L1510.67 841.333M1496.67 855.333L1497.33 855.667L1496.67 855.333z"/>
<path style="fill:#fcfcfc; stroke:none;" d="M303 867L304 868L303 867M298 871L299 872L298 871M295 875L296 876L295 875z"/>
<path style="fill:#040404; stroke:none;" d="M1471.67 875.333L1472.33 875.667L1471.67 875.333z"/>
<path style="fill:#fcfcfc; stroke:none;" d="M596 880C595.393 884.189 598.486 894.465 602 897C604.035 889.224 602.12 885.313 596 880M338.667 883.333L339.333 883.667L338.667 883.333M326 892L329 890L326 892M1439 891L1440 896L1446 897C1444.64 893.214 1442.93 891.812 1439 891z"/>
<path style="fill:#040404; stroke:none;" d="M332 895L333 896L332 895z"/>
<path style="fill:#fcfcfc; stroke:none;" d="M349 895L348 900L349 900L349 895M596 897L596 900L597 900L598 897L596 897M1448.33 897.667L1448.67 898.333L1448.33 897.667z"/>
<path style="fill:#040404; stroke:none;" d="M282 898L281 900L283 900L282 898z"/>
<path style="fill:#fcfcfc; stroke:none;" d="M1447 900L1447 904L1447 900z"/>
<path style="fill:#040404; stroke:none;" d="M287 904L290 908L290 904L287 904M1450.33 910.667L1450.67 911.333L1450.33 910.667z"/>
<path style="fill:#fcfcfc; stroke:none;" d="M1430.67 911.333L1431.33 911.667L1430.67 911.333M1417 914L1412 915C1411.74 921.538 1418.04 919.247 1417 914M593 918L593 922L594 922L593 918z"/>
<path style="fill:#040404; stroke:none;" d="M640 921L641 922L640 921z"/>
<path style="fill:#fcfcfc; stroke:none;" d="M1402 923L1405 928L1402 923M587 926L587 932L588 932L587 926M348.667 931.333L349.333 931.667L348.667 931.333M1402 931L1403 932L1402 931M645 933L650 936L645 933M657.667 939.333L658.333 939.667L657.667 939.333z"/>
<path style="fill:#040404; stroke:none;" d="M635 940L630 948C634.351 946.939 637.388 944.526 635 940z"/>
<path style="fill:#fcfcfc; stroke:none;" d="M1263 941L1264 942L1263 941z"/>
<path style="fill:#040404; stroke:none;" d="M644 948L642 954C644.946 952.366 645.949 950.939 644 948M648 948L649 949L648 948z"/>
<path style="fill:#fcfcfc; stroke:none;" d="M1265 949L1266 956L1261 955C1262.55 960.93 1265.82 964.311 1272 965C1270.28 960.143 1270.07 950.681 1265 949M372 955L373 956L372 955M1316 955L1317 956L1316 955M377 960L376 964L377 960z"/>
<path style="fill:#040404; stroke:none;" d="M325 965L326 966L325 965M324 967L325 968L324 967z"/>
<path style="fill:#fcfcfc; stroke:none;" d="M373 967L374 968L373 967M1239.67 971.333L1240.33 971.667L1239.67 971.333M1282.67 971.333L1283.33 971.667L1282.67 971.333M701 975L704 979L708 975L701 975M513 975L514 976L513 975M664 975L657 985C660.723 983.098 664.379 979.409 664 975z"/>
<path style="fill:#040404; stroke:none;" d="M1344 977L1345 982L1347 977L1344 977z"/>
<path style="fill:#fcfcfc; stroke:none;" d="M1300 979L1301 980L1300 979M1191 993L1189 988L1189 980C1184.19 983.469 1185.69 990.887 1191 993z"/>
<path style="fill:#040404; stroke:none;" d="M1351 981L1350 982L1350 983L1350 984L1353 981L1351 981M356 983L357 984L356 983z"/>
<path style="fill:#fcfcfc; stroke:none;" d="M512.667 983.333L513.333 983.667L512.667 983.333M520 983L521 984L520 983z"/>
<path style="fill:#040404; stroke:none;" d="M521 987L522 988L521 987z"/>
<path style="fill:#fcfcfc; stroke:none;" d="M1205 987L1205 990L1206 990L1205 987M652 989L648 996L652 989M1155 989L1158 992L1155 989M978 992L981 992L980 990L978 992M1204 991L1205 992L1204 991z"/>
<path style="fill:#040404; stroke:none;" d="M502 993L502 996L504 996L504 993L502 993M1299 993L1300 994L1299 993z"/>
<path style="fill:#fcfcfc; stroke:none;" d="M1274 994L1273 1000L1274 1000L1274 994M1157 995L1156 998L1157 995M979 999L980 1000L979 999M982 999L982 1006L984 999L982 999M1266.67 999.333L1267.33 999.667L1266.67 999.333z"/>
<path style="fill:#040404; stroke:none;" d="M621.667 1001.33L622.333 1001.67L621.667 1001.33M1188 1002L1188 1007L1190 1007L1191 1003L1188 1002z"/>
<path style="fill:#fcfcfc; stroke:none;" d="M485 1005L486 1006L485 1005M981 1007L980 1012L976 1011C979.409 1018.86 982.194 1024.03 974 1030L974 1017C969.405 1018.31 971.745 1021.22 971.102 1025C969.708 1033.21 969.589 1049.16 958 1046L959 1030L954 1034L952 1024L946 1019C943.364 1023.71 947.305 1028.1 947.87 1033C948.7 1040.18 944.236 1045.19 943.558 1052C942.65 1061.12 949.843 1078.32 932 1076C934.082 1072.37 935.889 1071.79 940 1072L942.752 1063.17L937.263 1050L940 1035L938 1035C932.8 1039.92 930.117 1031.35 929 1027L928 1027L927 1033L925 1033L924 1029L918 1031L916 1027L915.853 1044L910 1056L906 1055L900 1056C904.338 1049.12 909.551 1045.78 908 1037L903 1042L901 1042L900 1027L891 1033C895.831 1043.91 887.344 1049.78 880 1057L878 1054L877 1064L878 1064L879 1059L882 1067L878 1064L873 1080L998 1080L1027 1080C1030.65 1080 1035.1 1081.22 1036 1077L1032 1078C1033.6 1072.48 1037.62 1071.25 1043 1071C1042.21 1068.15 1040.15 1065.83 1039.46 1063C1038.48 1058.98 1042.25 1047.87 1036.59 1045.65C1034.27 1044.73 1026.8 1046.71 1024 1047L1024 1048C1031.37 1053.94 1031.27 1059.28 1022 1062L1018 1057L1018 1073L1003 1069L1000 1074L999 1074L996 1066L996 1065C998.413 1060.72 986.073 1053.26 982 1052L1000 1025L995 1024L997 1016L994 1020L984 1015L983 1007L981 1007z"/>
<path style="fill:#040404; stroke:none;" d="M1138.67 1007.33L1139.33 1007.67L1138.67 1007.33z"/>
<path style="fill:#fcfcfc; stroke:none;" d="M428.333 1011.67L428.667 1012.33L428.333 1011.67M634.667 1011.33L635.333 1011.67L634.667 1011.33z"/>
<path style="fill:#040404; stroke:none;" d="M1287 1013L1287 1016L1288 1016L1287 1013M1290 1013L1293 1016L1290 1013M1280 1015L1280 1016L1284 1016L1280 1015z"/>
<path style="fill:#fcfcfc; stroke:none;" d="M941 1015L942 1016L941 1015M953 1015L954 1016L953 1015z"/>
<path style="fill:#040404; stroke:none;" d="M1132 1017L1134 1019L1134 1017L1132 1017M1140 1017L1146 1022L1140 1017z"/>
<path style="fill:#fcfcfc; stroke:none;" d="M927 1019L927 1020L930 1020L927 1019z"/>
<path style="fill:#040404; stroke:none;" d="M1284 1019L1285 1020L1284 1019M396 1021L397 1022L396 1021M1291 1022L1291 1023L1294 1024L1294 1021L1291 1022z"/>
<path style="fill:#fcfcfc; stroke:none;" d="M1237 1027L1237 1033L1238 1033L1237 1027M935 1029L934 1032L938 1032L935 1029M1076 1031L1076 1036L1078 1036L1079 1031L1076 1031z"/>
<path style="fill:#040404; stroke:none;" d="M970 1036L974 1037L975 1033L970 1036M424 1033L425 1034L424 1033z"/>
<path style="fill:#fcfcfc; stroke:none;" d="M1084.33 1033.67L1084.67 1034.33L1084.33 1033.67z"/>
<path style="fill:#040404; stroke:none;" d="M1253.67 1035.33L1254.33 1035.67L1253.67 1035.33M1175 1037L1175 1042L1180 1039L1175 1037M613 1040L612 1042L614 1042L613 1040M584 1047L584 1048C588.925 1049.06 592.551 1048.18 594 1043L584 1047z"/>
<path style="fill:#fcfcfc; stroke:none;" d="M756 1043L753 1053C759.094 1059.17 758.031 1072 757 1080L768 1080L771 1063L769 1049L768 1049L767 1056L756 1043M808 1043L809 1044L808 1043M862.667 1043.33L863.333 1043.67L862.667 1043.33M816.667 1045.33L817.333 1045.67L816.667 1045.33M1048 1045L1046 1048C1052.69 1057.05 1049.46 1069.38 1049 1080L1071 1080L1069 1077L1072 1076L1072 1075C1067.78 1073.53 1065.67 1071.46 1065 1067C1050.15 1069.57 1055.86 1052.07 1048 1045M1066 1046L1068 1050L1066 1046M774 1051L772 1058L777 1051L774 1051M988 1051L989 1052L988 1051M1021 1052L1020 1054L1022 1054L1021 1052M788 1053L792 1058L791 1053L788 1053M1015.67 1055.33L1016.33 1055.67L1015.67 1055.33M1023 1055L1024 1056L1023 1055z"/>
<path style="fill:#040404; stroke:none;" d="M912 1057L914 1061L912 1057z"/>
<path style="fill:#fcfcfc; stroke:none;" d="M651.333 1058.67L651.667 1059.33L651.333 1058.67M634.667 1059.33L635.333 1059.67L634.667 1059.33M813 1059L813 1066L814 1066L813 1059M691 1060C683.043 1069.06 674.634 1065.14 671 1079L688 1080L687.123 1070.02L693 1060L691 1060M772 1061L773 1062L772 1061M787 1061L788 1062L787 1061z"/>
<path style="fill:#040404; stroke:none;" d="M642 1062L642 1064L644 1062L642 1062M913 1062L913 1064L915 1064L913 1062z"/>
<path style="fill:#fcfcfc; stroke:none;" d="M1063 1064L1064 1065L1066 1062L1063 1064M1010.67 1063.33L1011.33 1063.67L1010.67 1063.33M1086.67 1063.33L1087.33 1063.67L1086.67 1063.33M861 1067L861 1068C863.993 1067.94 865.346 1068.05 866 1065L861 1067M774.667 1067.33L775.333 1067.67L774.667 1067.33M781 1067C778.864 1072.54 777.609 1076.4 772 1079L772 1080L792 1080C790.654 1074.34 786.724 1068.68 781 1067M1079 1069L1078 1074L1081 1069L1079 1069M1088 1071L1088 1076L1089 1076L1090 1071L1088 1071M1098 1071L1098 1080L1104 1080L1101 1071L1098 1071M773 1072L772 1077L773 1077L773 1072M869 1073L868 1076L869 1073M862 1074L862 1076L864 1076L864 1074L862 1074M696 1075L690 1079L690 1080L700 1080L698 1075L696 1075M704.667 1075.33L705.333 1075.67L704.667 1075.33M794.667 1075.33L795.333 1075.67L794.667 1075.33M1111 1075L1113 1077L1113 1075L1111 1075M1072 1076L1072 1079L1073 1079L1072 1076M828 1077L831 1080L828 1077M860 1077L859 1080L860 1077M1075 1080L1078 1080L1077 1078L1075 1080M818 1079L819 1080L818 1079M1089 1079L1089 1080L1092 1080L1089 1079z"/>
</svg>
