<?xml version="1.0" standalone="yes"?>
<svg xmlns="http://www.w3.org/2000/svg" width="1920" height="1080">
<path style="fill:#fdfdfd; stroke:none;" d="M0 0L0 1080L709 1080L711 1059L708 1065L697 1068L701 1054L694 1056L694 1050L684 1056L686 1049L683 1045C686.846 1042.64 686.616 1031.85 681.364 1033.75C679.203 1034.53 679.361 1038.49 677.647 1040.03C673.99 1043.33 668.205 1045.32 664 1048L667 1039C650.07 1042.85 661.125 1025.78 667.339 1019.13C671.237 1014.96 677.422 1014.02 681.995 1010.7C686.528 1007.41 689.053 1002.4 693.429 999.018C698.805 994.867 706.113 991.634 712 988C710.65 981.984 716.392 979.942 719 975L705 970.248L697 974.583L677.286 984.63L663 999L661 1003L656 1001C650.663 1014.27 635.53 1026.42 621 1028C627.296 1019.21 642.14 1014.83 643 1003C638.768 1005.63 636.304 1009.1 632 1005C641.068 1000.41 643.841 989.342 648.416 980.999C653.807 971.169 668.815 960.294 668.642 948C668.577 943.413 664.709 938.229 663 934L662 934L662 938L660 935L651 938L651.353 928.213L641 911L640 911L638 916L630.359 898.001L625.768 891.346L618 899L620 891L614 889L608 892C610.847 887.21 616.773 882.273 612 877L610 883L600 882L602 879L595 878C593.112 885.172 600.752 890.9 594 897L594 913L593 913C591.707 920.072 596.972 930.336 588 933L588 925L587 925L586 935L583 934L584 952L581 951L582 956C574.742 952.606 570.009 946.235 567 939L563 944C571.854 948.497 577.176 966.533 574.566 975.998C572.131 984.83 566.324 979.159 564 974C552.993 981.056 561.3 993.182 561 1003L558 997L555 1000L550 990L547 990L549 987C544.783 987.904 546 992.356 546 996C542.257 993.376 539.585 991.857 535 993L528 979L524 981L519 976L518 976L516 985L515 985L511 981C509.785 986.523 508.14 989.043 503 985L500 994L496 993L492 1000C493.622 995.195 494.311 976.138 489 975C491.56 985.755 483.488 989.399 483.047 999C482.49 1011.14 489.237 1021.86 493 1033L492 1034L488 1033C483.005 1046.84 481.525 1043.45 468 1044C471.293 1034.95 463.049 1029.52 455 1026L451 1027L449 1035L439 1029L437 1034L433 1028C424.098 1023.06 433.204 1015.53 431 1008L424 1012L424 1004L415 1008L416 1003L405 1011L404 1011L400 1012L408 989L388 994L387 989C395.072 986.084 400.332 979.387 401 971C396.445 971.74 384.495 983.978 381.562 977.857C380.192 974.995 381.754 970.3 381 967L380 967L378 970L380 955L375 966L370 968L369 961L367 963L366 963L364 959C361.383 960.428 358.212 962.954 355.054 962.549C348.426 961.698 347.453 954.071 341 962L340 962L336 959C342.526 956.39 351.757 947.705 354 941L344 944L346 935C350.432 932.699 353.628 929.886 355 925L348 928L352 919L348 924C342.532 920.071 339.336 921.643 334 925L341 913L342 913L342 916L343 916C344.256 910.281 352.977 895.325 348 892C347.093 899.889 336.23 905.979 329 904C335.992 895.242 339.526 891.49 341 880L336 884L337 877L336 877L334 878L331 890L327 883L315 880L314 880C307.161 888.226 299.975 894.919 298 906L294 905L295 901C292.251 900.716 291.901 899.701 292 897L289 896L290.667 883.039L300 868L294 876L286 876L286 874C294.228 871.377 296.993 867.442 297 859L296 859L290 864C287.478 859.606 284.722 859.853 280 860C282.394 846.786 294.25 848.323 304 844L303 837L309 836L309 834L296 834L298 831L286 831L286 830L291 828L292 819L273 824L273 823C277.033 821.527 293.01 813.611 281.721 808.212C278.414 806.63 271.985 808.729 268 808L268 807C270.802 806.609 280.944 802.567 276.128 798.063C272.632 794.793 267.218 798.278 264 793L240 792L235 785L233 787L232 787L230 780L234 781L232 776L232 774L237 769L238 769L239 771L240 767L236 767C237.155 763.915 237.803 762.067 235 760L235 759L239 758L241 753L244 756L241 746L246 748C245.775 744.51 247.834 737.436 245.883 734.604C243.305 730.863 234.338 735.138 231 736L211 725L226 715L224 710C228.475 709.286 234.528 700.149 237 696C227.987 695.018 229.563 683.444 238.999 686.498C255.094 691.708 270.649 713.355 289 709C286.391 703.711 282.45 704.348 278.039 701.401C271.521 697.046 266.701 690.009 260 685.843C250.956 680.221 236.827 678.321 232 668L242 672L241 669C252.755 670.486 272.673 679.396 283.679 672.648C286.311 671.035 285.802 667.372 288.198 665.379C291.739 662.432 294.89 661.393 297 657L301 657L299 645L296 646L293 638L311 642L303 627L299 628L298 625L294 626L294 620L303 620L303 618L284 605C293.119 600.496 296.406 601.905 306 604L310 600L309 593C311.145 593.849 331.53 599.206 326.824 590.516C323.111 583.66 314.009 587.513 315 577L320 576L323 580C320.601 572.55 313.603 567.702 307 564L303 550L298 554L288 550L291 545L282 535L286 534L290 536L275.001 512L272 495L284 506L289 497L303 510L303 507L299 501L304 504L300 491L306 496L314 492L314 489L307 487L308 490L305 489C312.608 473.757 332.801 473.609 347 466L347 465L338 464L345 458L348 460L352 449C357.483 449.743 359.784 447.076 363 443L355 436L355 434L375 428C372.758 425.718 371.757 425.3 369 427C366.529 424.143 360.698 416.717 356.332 417.832C353.743 418.493 353.983 423.967 352.527 425.946C349.328 430.295 342.551 434.785 337.985 437.681C327.253 444.487 312.054 451.861 299.285 453.525C295.503 454.018 292.214 451.352 288 452L284 448L284 447L289 447L287 439L283 439L282 429L291 427L291 425L283 424C282.849 416.652 280.768 407.445 289 404L283 385L286 383L290 384L291 373L292 373L292 379L293 379L294 370L286 370L303 355L298 354L296 346L303 335C311.628 334.48 310.944 325.913 304 323L307 319L306 323L313 324L324 315L325 307L330 309L330 303L332 305L333 305L332 301L336 300L333 292C345.291 294.247 342.92 286.818 340.431 278C339.644 275.212 339.823 270.724 337.411 268.718C335.556 267.174 332.219 267.983 330 268L333 259L344 264C339.785 255.562 332.727 247.779 324 244C324.074 241.541 322.099 238.589 322.61 236.313C323.903 230.558 328.793 232.839 326 225L327 225L328 227C334.889 223.437 338.526 226.426 345 229C346.453 223.896 345.138 221.386 340 220L340 218L341 217L356 221L357 220L356 217L363 217L365 198L373 200L381 198L383 193L386 194L387 191C392.743 193.833 403.286 205.911 409 202L410 202L414 205L414 191L429 202L429 212L432 211C431.382 214.536 430.811 216.91 434 219L434 216L447 228L448 228L448 225L452 230L454 227L460 232L456 221L457 220L459 220C461.99 227.256 463.829 228.838 471 225L464 208L465 208L476 210L477 196L480 198L478 196L478 195C486.34 184.005 481.867 174.6 479 163L478 163L479 168L476 157L481 156L482 155L483 149L484 149L485 151L487 147L490 150C493.198 146.951 495.678 126.627 502.478 129.832C504.682 130.871 504.657 134.524 507 136L511 128L511 119L517 122L519 117L520 117L522 114L522 118L523 118L528 105L529 105L537.649 131.892L548 145L556 155L557 155L560 141L561 141L565 152L566 152C565.176 142.553 561.31 134.925 569 127C566.877 134.823 573.926 140.684 577 131L579 132L582 123L589 123L586 127L586 128L587 132L593 129L597 133C597.961 126.882 592.926 112.899 591.549 106C591.13 103.904 589.328 97.1763 593.881 97.9213C596.518 98.3528 598.515 103.492 601 105L603 94L606 97C598.347 78.5891 601.769 55.6648 610.67 38C616.896 25.6434 626.723 14.5317 628 0L0 0z"/>
<path style="fill:#040404; stroke:none;" d="M628 0C625.878 14.1705 616.837 24.7596 610.67 37C602.54 53.1346 596.411 80.489 606 97L603 94L601 105C598.918 103.146 597.078 98.6721 594.615 97.662C589.885 95.7224 590.402 102.585 591.004 105C592.974 112.906 596.851 125.273 597 133L593 129L592 132L587 132L586 128L586 127L589 123L582 123L579 132L577 131C573.251 139.135 567.661 134.304 569 127C560.222 132.988 564.776 143.678 566 152L565 152L561 141L560 141L557 155L556 155C554.641 150.085 552.981 146.745 548 145C548.701 137.535 541.404 137.219 538.139 131.892C533.256 123.925 533.467 113.389 529 105L528 105L523 118L522 118L522 114L520 117L519 117L518 115L517 122L511 119L511 128L507 136C505.374 134.279 504.586 130.189 502.532 129.176C495.706 125.808 492.509 146.54 490 150L487 147L484 149L483 149L482 155L481 156L476 157L479 168L478 163L479 163C481.331 175.364 484.462 182.906 478 195L478 196L480 198L477 196L476 210L465 208L464 208C462.81 217.409 466.758 217.053 471 225C463.355 227.864 462.996 226.974 459 220L457 220L456 221L460 232L454 227L454 230L452 230C451.763 226.749 449.067 223.044 448 228L447 228L434 216L434 219L432 211L429 212L429 202L414 191L414 205L410 202L409 202C402.193 204.406 393.978 193.57 387 191L386 194L383 193L381 198C377.473 196.995 375.094 196.771 373 200L365 198L363 217L356 217L357 220L356 221L340 218L340 220C344.664 221.892 346.026 224.029 345 229L334.985 224.7L327 225L326 225L321.913 236.313L324 244C332.605 249.373 338.064 255.767 344 264L333 259L330 268C332.246 268.334 335.634 267.947 337.411 269.573C339.786 271.746 339.615 276.109 340.431 279C342.896 287.736 344.444 293.343 333 292L336 300L332 301L333 305L332 305L330 303L330 309L325 307L324 315C318.82 316.231 315.261 319.192 313 324L306 323L307 319L304 323C312.412 327.206 309.56 336.64 303 335L296 346L298 354L303 355L286 370L294 370L293 379L292 379L292 373L291 373L290 384L286 383L283 385L289 404C280.094 406.46 282.691 416.8 283 424L291 425L291 427L282 429L283 439L287 439L289 447L284 447L284 448L288 452C291.952 451.787 295.286 454.096 299 453.884C311.641 453.164 329.702 444.132 339.91 437.06C344.01 434.22 350.547 430.127 353.244 425.946C354.415 424.13 354.155 419.205 356.407 418.461C360.093 417.244 366.386 424.871 369 427L375 428C367.104 428.413 361.612 429.324 355 434L355 436L363 443C359.336 446.404 357.296 449.024 352 449L348 460L345 458L338 464L347 465L347 466C339.284 468.999 331.906 472.729 324.17 475.556C320.487 476.902 316.591 475.865 313.005 477.938C309.281 480.091 303.198 486.581 308 490L307 487L314 489L314 492L306 496L300 491L304 504L299 501L303 507L303 510L289 497L284 506C281.71 500.636 277.689 496.551 272 495L274.796 513L290 536L286 534L282 535L291 545C288.017 545.37 288.137 547.084 288 550L298 554L303 550L307 564L323 580L320 576L315 577C313.135 587.689 322.03 583.751 326.079 590.516C330.84 598.473 310.813 593.525 309 593L310 600L306 604C297.141 600.872 292.123 599.256 284 605L303 618L303 620L294 620L294 626L298 625L299 628L303 627L311 642L293 638L296 646L299 645L301 657L297 657C294.181 660.931 289.419 662.625 286.75 666.299C285.195 668.44 285.5 671.198 282.838 672.517C270.712 678.524 253.669 669.998 241 669L242 672L232 668C234.358 676.377 241.671 676.18 248 680.181C258.341 686.718 267.046 694.514 277.09 701.401C281.528 704.445 285.504 704.309 289 709C269.642 711.321 256.207 691.122 238.999 686.178C228.78 683.242 227.118 695.577 237 696L224 710L226 715L211 725L231 736L245.227 734.619L246 748L241 746L244 756L241 753L239 758L235 759L235 760L236 767L240 767L238 769L237 769L232 774L232 776L234 781L230 780L232 787L233 787L235 785L240 792L264 793C265.312 797.488 286.216 799.485 271.954 806.042C270.757 806.592 269.268 806.739 268 807L268 808C272.117 808.977 277.151 807.252 280.866 808.542C293.01 812.758 276.273 821.413 273 823L273 824C281.426 824.361 284.636 823.19 292 819L291 828L286 830L286 831L298 831L296 834L309 834L309 836L303 837L304 844C294.046 847.061 281.334 847.061 280 860C284.76 859.958 286.98 860.101 290 864L296 859L297 859C296.971 867.292 293.396 870.688 286 874L286 876L294 876L300 868L290.654 882.089L289 896L292 897C291.928 899.923 292.108 900.687 295 901L294 905L298 906L314 880L315 880L327 883L331 890L332 882L336 877L337 877L336 884L341 880L337.748 893.907L329 904C336.294 907.171 347.709 900.043 348 892C352.214 896.722 343.673 909.425 343 916L342 916L342 913L341 913L334 925C339.812 922.479 342.041 920.743 348 924L352 919L348 928L355 925L346 935L344 944L354 941C350.314 947.686 342.602 955.134 336 959L340 962L341 962C349.32 954.89 354.135 966.29 364 959L366 963L367 963L369 961L370 968L375 966L380 955L378 970L380 967L381 967C381.542 970.443 380.152 974.577 381.161 977.772C383.588 985.456 396.847 972.107 401 971C399.903 979.443 394.396 984.989 387 989L388 994L408 989C401.748 997.397 402.192 1002.54 400 1012L404 1011L405 1011L406 1013L416 1003L415 1008L424 1004L424 1012L431 1008C432.522 1014.7 423.424 1024.8 433 1028C432.45 1031.66 433.587 1032.74 437 1034L439 1029L449 1035L451 1027L455 1026C462.566 1030.85 470.476 1034.51 468 1044C480.91 1044.28 484.653 1047.63 488 1033L492 1034L493 1033C490.336 1021.75 482.918 1011.86 483.083 1000C483.22 990.121 492.29 986.129 489 975C494.611 978.822 492.946 993.883 492 1000L496 993L500 994L499 991L503 985C507.904 990.392 510.244 986.82 511 981L515 985L516 985L518 976L519 976L524 981L528 979L535 993L546 996L549 987L547 990L550 990L555 1000L558 997L561 1003C561.959 991.85 553.953 983.459 564 974C565.319 978.204 569.861 986.019 573.821 978.937C578.635 970.326 572.624 946.942 563 944L567 939C568.644 946.306 574.677 953.922 582 956L581 951L584 952L583 934L586 935L587 925L588 925L588 933C597.337 931.476 592.2 919.781 593 913L594 913L594 916C599.104 912.389 595.617 902.144 594 897C601.605 891.944 593.899 884.735 595 878L602 879L600 882L610 883L612 877C615.975 882.947 610.213 886.492 608 892C611.314 892.499 612.38 891.941 614 889L620 891L618 899L625.486 891.77L629.576 897.004L638 916L640 911L641 911L650.869 928.213L651 938C656.121 936.064 657.353 935.759 662 938L662 934L663 934C664.297 938.439 668.932 944.446 668.226 949C666.495 960.17 655.587 969.155 649.634 978C643.397 987.267 641.34 997.857 632 1005C635.618 1010.49 639.225 1006.29 643 1003C641.22 1015.18 625.914 1017.76 621 1028C635.04 1027.24 652.471 1014.78 656 1001L661 1003L663 999L678.17 984.63L697.999 974.584L705.424 970.589L719 975C715.717 979.515 709.456 982.043 712 988C699.556 993.234 692.226 1002.13 681.995 1009.96C677.275 1013.57 670.456 1014.64 666.553 1019.13C661.131 1025.37 649.837 1045.16 667 1039L664 1048C668.281 1046.13 675.116 1043.4 678.386 1040.04C679.746 1038.64 679.431 1034.72 681.415 1034.18C687.132 1032.6 685.184 1042.9 683 1045L686 1049L684 1056L694 1050L694 1056L701 1054L697 1068L708 1065L711 1059L709 1080L741 1080C740.699 1071.19 744.697 1074.96 749.889 1070.67C752.799 1068.26 752.529 1064.76 749 1064L754 1060L755 1041L764 1050L767 1047L780 1051L780 1052C775.082 1056.32 773.289 1061.72 772 1068L781 1059L782 1064C790.459 1059.56 785.465 1050.32 785 1043L788 1043C788.323 1048.03 789.84 1054.23 795 1056L796 1068L788 1067L792 1076L793 1076L794 1073L795 1073L794 1080L805 1076L806 1080L812 1080L813 1055L815 1080L820 1074L821 1074L821 1080C824.692 1079.88 826.777 1079.69 828 1076C833.906 1080.25 849.882 1083.32 856.698 1078.97C859.203 1077.37 860.381 1073.44 862 1071L860 1067L866 1064C866.34 1068.94 863.226 1074.63 868 1078L872 1072L870 1065L874 1066L875.333 1054.29L885.251 1050.64L892.467 1034.21L898 1025L903 1032L900 1038L902 1035C913.759 1038.71 907.34 1046.45 903 1054C921.909 1053.77 910.335 1035.5 916.089 1026.13C919.376 1020.78 922.795 1027.63 926.151 1024.92C928.155 1023.29 925.879 1020.44 925 1019L930 1018L932 1031C937.891 1030.14 940.211 1035.55 943 1040C937.619 1042.97 936.511 1055.72 943 1058L947.617 1038L943 1017L949 1024L960 1025L961 1037L966 1033L966 1040L968 1040C968 1032.92 967.427 1020.89 973 1016L975 1021L977 1021C977.938 1015.99 973.158 1011.6 979 1009C979.716 1003.82 981.73 997.486 988 998C986.483 1004.95 986.396 1014.56 995 1016L994 1011C1006.87 1017.93 996.156 1038.44 992 1048L995 1045L996 1045C997.409 1048.57 996.006 1051.37 996.861 1054.73C997.547 1057.42 1001.26 1058.72 1002.76 1061.02C1005.51 1065.22 1006.89 1074.08 1012 1065L1009 1063C1014.49 1062.43 1017.03 1060.25 1014 1055L1020 1051L1022 1051L1028 1055L1023 1048L1029 1044L1028 1041C1042.02 1039.68 1038.84 1053.97 1040.81 1063C1041.5 1066.17 1043.95 1068.89 1045 1072L1039 1074L1039 1076L1048 1078C1048.25 1070.2 1050.77 1061.89 1048.68 1054.09C1046.38 1045.47 1033.59 1036.7 1043 1028C1040.67 1038.6 1051.23 1043.56 1054.93 1053C1056.29 1056.46 1054.43 1061.98 1058.22 1064.17C1061.06 1065.82 1063.91 1062.55 1066 1061C1063.55 1069.67 1068.55 1071.37 1076 1073L1082 1067L1084 1080C1087.64 1077.3 1087.83 1073.39 1085 1070L1085 1069L1087 1068L1087 1067L1085 1061L1094 1063L1094 1064L1090 1065C1091.37 1070.75 1090.31 1076.6 1096 1080L1098 1069L1104 1077C1107.71 1075.04 1111.06 1072.54 1108.24 1068.05C1099.33 1053.88 1082.07 1050.22 1082 1031L1078 1036C1073.81 1031.13 1078.38 1023.16 1082.11 1019C1089.89 1010.31 1097.8 1006.25 1106.42 999.529C1110.6 996.269 1113.28 991.407 1118 989C1119.97 996.442 1121.57 1008.35 1129 1012C1128.36 1007.94 1128.54 1004.04 1133 1008C1134.51 1006.25 1135.77 1004.66 1135.32 1002.17C1133.8 993.619 1130.38 985.857 1129.28 977.004C1128.26 968.899 1133.31 970.566 1135 977C1145.98 979.751 1150.29 988.073 1154 998C1156.71 995.512 1157.37 991.528 1153 991C1160.48 986.779 1156.62 1000.09 1156 1003L1164 1007C1161.34 1012.8 1165.63 1015.6 1171 1017L1165.91 1002L1166 984L1167 984L1168 990C1175.74 989.037 1177.02 988.534 1184 992L1182 989C1183.51 985.4 1184.66 983.16 1182 980L1182 979L1188 973L1196 1001L1205 1002L1210 1009L1214 1008C1211.07 1000.39 1210.36 994.987 1212 987L1213 987L1212 996L1216 993L1217 993C1218.05 1000.9 1225.31 1018.94 1232 1023C1231.15 1028.37 1231.35 1034.77 1235 1039C1238.34 1030.71 1234.42 1022.01 1232 1014L1240 1030L1242 1030L1243 1029C1240.56 1021.72 1237.15 1015.87 1239 1008L1241 1008L1247 1014L1250 999L1254 1000C1255.15 995.381 1254.23 990.58 1250 988L1251 977L1254 984L1264 988L1261 980L1256 980L1259 974L1268 975C1269.07 980.131 1270.67 984.456 1276 986C1275.16 981.149 1273.43 970.388 1270.89 966.588C1269.35 964.29 1252.36 956.235 1259.53 950.39C1261.08 949.121 1264.15 948.809 1266 948L1266 947L1260 936C1272.9 945.167 1266.45 965.518 1284 968L1284 961C1279.82 961.921 1278.39 961.08 1277 957C1285.84 958.182 1283.71 951.765 1290 949C1288.27 952.685 1285.56 960.835 1291 962L1290 957L1294 965L1295 965L1296 961L1297 961C1297.88 963.048 1298.88 964.998 1299.84 967.005C1308.39 984.721 1308.5 963.791 1305.89 955C1305.02 952.043 1302.41 949.253 1302.2 946.17C1302.03 943.773 1304.06 941.116 1305 939L1301 941L1295 932L1295 931L1297 929L1298 929L1302 930L1302 929L1297 922C1310.46 928.26 1312.35 936.866 1316 950L1320 949C1320.67 952.758 1321.99 958.644 1324.73 961.471C1331.07 968.024 1332.49 956.959 1332 953L1333 953L1337 961L1341 957L1342 957L1344 960L1344 954L1351 954L1355 959L1366 950.477L1377 952C1384.89 952.641 1383.17 946.667 1382 941L1394 953L1396 943L1404 948L1400 919L1404 920C1408.11 908.523 1414.72 910.471 1425 906L1424 910C1428.73 907.663 1432.25 906.772 1435 912C1438.51 910.796 1441.25 906.975 1438 904C1439.26 897.895 1435.55 895.484 1432 891L1438 892L1453 877C1456.64 877.133 1465.24 871.011 1465.37 866.946C1465.46 864.233 1463.28 861.744 1463 859L1476 860L1491.07 842.681L1497 832L1496 829C1501.84 826.822 1503.93 821.5 1498 818L1500 813L1497 812L1497 809L1502 807L1506 808L1505 804L1510 804L1510 803C1505.84 799.867 1502.51 796.174 1507 792C1500.43 782.3 1472.47 782.493 1462 785.661C1455.94 787.492 1449.57 787.596 1449 795L1438 784C1441.43 780.851 1446.66 783.286 1449.47 780.207C1451.97 777.469 1448.77 773.589 1450.9 770.894C1453.64 767.433 1460.27 769.711 1463.94 767.566C1467.07 765.741 1467.87 760.946 1471.23 759.885C1482.29 756.385 1500.83 766.835 1507 754L1501 752L1501 750L1506 749L1497 740L1503 739C1503.84 733.547 1498.87 730.793 1494 730C1495.46 720.929 1515.25 728.374 1521 719L1523 720C1529.02 714.151 1536.51 716.821 1544 716C1542.96 711.215 1540.45 710.247 1536 712L1532 703L1520 700L1520 697L1531 696C1529.27 693.586 1525.59 693.213 1524.31 690.683C1522.98 688.064 1524.36 684.972 1522.11 682.599C1517.07 677.305 1514.22 679.107 1512 671C1514.99 670.936 1516.35 671.054 1517 668C1521.02 670.717 1524.07 669.098 1528.29 670.572C1539.32 674.428 1548.33 684.462 1551 696C1559.17 696.12 1569.93 711.004 1577.57 706.961C1584.71 703.188 1589.65 690.932 1589.53 683.17C1589.42 676.504 1582.95 667.977 1580.23 662C1572.82 645.689 1569.94 625.021 1551 617L1555 612C1552.76 605.461 1546.16 600.774 1540 598L1541 594L1544 596L1545 583L1550 582C1549.06 578.874 1546.68 574.837 1547.38 571.483C1548.25 567.342 1553.82 568.044 1556.91 568.34C1565.79 569.194 1571.57 572.748 1580 576L1579 552L1582 553L1578.14 540L1579.31 529.028L1575 523C1563.09 524.517 1563.67 509.491 1555 505C1563.2 494.972 1553.39 497.464 1552 489L1573 478L1575 482L1592 484C1590.11 479.317 1588.25 476.408 1583 476L1583 475C1594.23 474.875 1608.3 470.547 1608.33 457C1608.34 452.932 1604.45 450.003 1604.71 446.015C1605.12 439.877 1609.9 439.526 1606 433C1613.48 429.429 1613.44 425.549 1614 418L1592 416L1596 412L1595 409L1591 412C1586.08 406.594 1577.99 405.818 1580 397C1576.19 393.369 1576.09 389.746 1578 385L1575 381L1576 381L1576 383L1577 383L1577 370L1573 372C1573.56 367.555 1575.29 362.779 1571 360L1570 353L1565 355L1567 340C1561.22 342.353 1558.18 337.704 1563.47 333.603C1566.64 331.154 1570.46 332.543 1574 331.434C1577.82 330.239 1581.72 327.275 1585 325L1582 324L1582 319L1587 320L1594 316L1592 311L1597 309L1598 312L1604 312L1606 308L1599 308L1599 307C1606.09 304.855 1617.74 300.005 1619 292C1623.28 292.635 1625.27 290.094 1628 287C1624.31 284.418 1620.73 281.833 1620.06 277.05C1619.35 271.911 1623.27 265.381 1618 262L1618 265L1614 264L1616 259L1612 261L1608 260L1610 255L1604 249C1600 250.061 1594.86 252.926 1592 249L1591 249L1584 252L1584 250L1595 244L1588 237L1581 242L1580 237L1573 240L1576 238L1576 237L1573 237L1573 236L1577 236L1577 235C1571.51 235.252 1567.26 237.925 1562 238.958C1547.18 241.867 1527.95 245.513 1513 245.403C1508.78 245.372 1505.95 242.303 1502 241.434C1494.27 239.737 1476.34 241.394 1470 246L1463.61 240.853L1464.34 233.137L1450 237L1451 226L1429 233C1432.67 221.974 1421.98 230.02 1417 225L1412 228L1413 225C1404.31 223.134 1382.13 224.549 1379 234L1378 225L1373 217L1377 216L1377 215L1391 195L1394 196L1402 175C1420.15 163.667 1412.75 148.402 1419.48 132C1423.05 123.308 1431.27 118.688 1433.2 108.999C1435.34 98.2218 1434.29 80.3454 1418 89L1417 86C1409.2 89.5516 1403.8 95.7511 1397.42 101.323C1383.38 113.592 1375.59 121.201 1367 138L1366 138L1361 134L1358 152L1354 145C1349.72 146.22 1344.99 149.549 1342 145L1337 152L1336 152L1336 149L1331 151L1328.22 136L1329 122L1317 125L1312 130L1311 127L1300 131L1300 134C1297.02 132.993 1294.57 132.415 1294 136L1291 135C1288.22 142.814 1289.79 150.587 1279 151L1267 157L1264 153C1253.67 158.364 1255.6 143.997 1254 137L1249 141C1244.18 138.438 1243.53 133.797 1239.58 130.781C1230.98 124.213 1222.55 133.993 1215 136L1210 132L1210 137L1204 132L1203 132L1194 135L1198 152L1194 149C1193.2 155.801 1195.96 166.109 1186 165L1185 168L1183 165C1176.99 172.269 1164.98 167.938 1162 178C1157.54 176.415 1156.93 174.478 1158 170L1154 172L1151 161L1147 167L1145 167L1141 161L1133 186L1132 186C1131.95 180.293 1131.35 176.491 1125 176L1132 155L1115 172L1119 161L1115 163L1118 153C1112.4 148.036 1118.14 129.452 1121 123L1115 124L1113 120L1113 119C1128.08 112.971 1135.32 103.292 1139 88L1141 89L1141 77L1136 84C1126.97 82.3098 1124.64 94.257 1116 96L1116.2 71L1121.28 55L1120 40L1113 44L1116 37L1113 40L1111 40L1110 35L1109 35L1108 44L1105 44L1105 30L1101 31L1099 37L1101 34L1101 33C1098.07 30.8448 1096.54 26.8466 1093.59 25.0424C1088.34 21.8431 1080.11 26.0526 1075 27L1075 28C1078.12 31.0858 1077.47 33.0048 1073 33L1075 29C1070.86 27.0533 1068.72 27.3567 1065 30C1065 25.4553 1066.07 19.8788 1062 17L1059 29L1058 29L1053 0L1050 0L1048 14L1047 7L1037 26L1040 12L1040 11L1037 0L1022 2L1021 2L1020 2L1003 0C1003.12 10.1837 1005.13 32.1592 995 37C997.848 30.63 1002.38 19.9272 997 14L988 35L989 15L983 18L983 28L978 25L976 31L976 32L979 36L976 37L975 33C966.2 37.2682 960.32 47.175 957 56L953 50L947 55L944 39C937.914 38.9064 936.764 46.1006 935 51L934 51L930 43L928 49L924 48L917 51L920 50L915 46L916 38L905 41L904 46L900 41L904 37L888 33L889 38C886.135 35.0288 883.782 31.1376 885 27L881 25C878.687 32.8278 881.991 40.4244 884 48L868 34L870 41L859 27L850 36L844 27L843 27C841.73 31.377 839.454 32.663 835 33C835.035 36.1672 838.22 44.1405 836.209 46.4537C834.449 48.4788 832.034 46.365 830.88 44.8718C826.135 38.7357 818.716 31.2625 811 29L810 32L814 36L802 29C804.912 34.8644 809.817 37.7554 803 43L804 48L792 46L792 47L796 46L796 51L784 49L781 41C776.416 41.173 771.261 40.2537 771 46L765 54L761 53C758.947 58.5341 756.975 60.7062 751 59L746 62C745.555 56.3672 738.325 52.0287 735.622 59.0941C733.881 63.6445 738.883 66.0063 739.498 70.0038C739.996 73.2333 736.933 75.8657 735 78L732 74L734 85L733 85L728 80L729 78L724 76L721 78L722 71L719 67C713.515 68.7394 714.94 72.2782 718 76L712 80C711.84 75.1811 710.513 73.6301 706 72C704.15 79.592 711.788 91.5207 702 96L700 87L695 81L692 82L692 71L690 76L685 75L680.684 45L687.383 17L686 0L628 0z"/>
<path style="fill:#fdfdfd; stroke:none;" d="M686 0L687.37 16L680.414 45L685 75L690 76L692 71L692 82L695 81L700 87L702 96C712.468 93.0698 705.023 79.1949 706 72C709.955 74.0329 711.649 75.4543 712 80L718 76C715.74 72.0674 714.52 69.44 719 67L722 71L721 78L724 76L729 78L728 80L733 85L734 85L732 74L735 78C745.559 69.8192 732.322 66.6824 736.083 59.0949C739.197 52.8109 745.192 57.0057 746 62L751 59C757.035 61.4841 759.558 59.0262 761 53L765 54L771 46C771.6 40.7019 776.62 41.3805 781 41L784 49L796 51L796 46L792 47L792 46L804 48L803 43C810.836 39.0452 805.712 34.0262 802 29L814 36L810 32L811 29L831.544 46.547L836.878 46.6382L835 33C839.725 32.8462 842.215 31.9231 843 27L844 27L850 36L859 27L870 41L868 34L884 48L881 25L885 27C883.537 31.0758 885.422 35.5289 889 38L888 33C892.884 36.3002 898.057 37.707 904 37L900 41L904 46L905 41L916 38L914 40L915 46C918.69 46.9862 919.865 48.1566 917 51C920.632 51.8228 922.052 51.1709 924 48L928 49L930 43L934 51L935 51C937.441 46.1339 938.15 40.38 944 39L947 55L953 50L957 56C961.522 47.1858 966.767 38.8989 975 33L976 37L979 36L976 32L976 31L978 25L983 28L983 18L989 15L988 35C994.56 29.5773 995.419 21.9277 997 14C1001.43 21.6232 997.452 29.36 995 37C1005.53 33.9713 1003.37 9.3396 1003 0L686 0M1020 0L1020 2L1022 2L1022 0L1020 0M1037 0L1040 11L1040 12L1037 26L1047 7L1048 14L1050 0L1037 0M1053 0L1058 29L1059 29L1062 17L1065 30L1075 29L1073 33C1077.66 33.6904 1078.97 30.668 1075 28L1075 27L1092.78 25.1304L1101 33L1101 34L1099 37L1101 31L1105 30L1105 44L1108 44L1109 35L1110 35L1111 40L1113 40L1116 37L1113 44L1120 40L1121.02 54L1116.12 70L1116 96L1136 84L1141 77L1141 89L1139 88C1134.18 103.823 1127.26 110.668 1113 119L1113 120L1115 124L1121 123C1117.78 128.594 1111.79 149.537 1118 153C1115.62 156.595 1113.59 158.709 1115 163L1119 161L1115 172L1132 155L1125 176C1130.8 176.917 1131.87 180.589 1132 186L1133 186L1141 161L1145 167L1147 167L1151 161L1154 172L1158 170C1156.16 174.658 1156.94 176.944 1162 178C1167.06 167.715 1177.64 174.192 1183 165L1185 168L1186 165C1196.21 167.118 1193.6 155.84 1194 149L1198 152L1194 135C1197.99 135.59 1200.24 134.972 1203 132L1204 132L1210 137L1210 132L1215 136C1223.79 135.078 1227.93 126.068 1237.89 130.461C1242.95 132.69 1243.19 138.975 1249 141L1254 137C1254.99 143.721 1253.79 160.246 1264 153L1267 157L1279 151C1289.85 152.332 1289.14 142.619 1291 135L1294 136L1295 133L1300 134L1300 131L1311 127L1312 130L1317 125C1321.57 125.987 1325.46 125.078 1329 122L1328.09 136L1331 151C1333.7 150.716 1335.58 148.867 1336 152L1337 152L1342 145C1343.26 150.892 1350.37 146.42 1354 145L1358 152L1361 134L1366 138L1367 138C1370.81 132.401 1372.34 125.742 1376.52 120.286C1386.31 107.494 1403.48 94.6543 1417 86L1418 89C1434.54 82.6099 1435.46 98.2426 1432.79 109.996C1430.81 118.64 1422.73 123.084 1419.48 131C1415.74 140.128 1418.62 149.038 1416.12 157.83C1414.55 163.319 1406.22 171.128 1402 175L1394 196L1391 195C1388.84 199.618 1373.09 210.437 1377 215L1377 216L1373 217L1378 225C1376.65 228.816 1376.03 231 1379 234C1383.28 225.001 1403.86 223.771 1413 225L1412 228L1417 225C1421.13 231.37 1431.08 222.101 1429 233L1451 226L1450 237L1464.08 233.831L1462.92 240.853L1470 246C1478.07 242.541 1492.24 240.128 1501 241.522C1505.61 242.255 1508.62 245.941 1513.58 245.74C1534.77 244.879 1556.23 236.827 1577 235L1577 236L1573 236L1573 237L1576 237L1576 238L1573 240L1580 237L1581 242L1588 237L1595 244L1584 250L1584 252C1587.62 252.81 1589.19 252.272 1591 249L1592 249L1592 252L1604 249L1610 255L1608 260L1612 261L1616 259L1614 264L1618 265L1618 262L1619 262L1620 262C1621.75 272.076 1616.51 281.378 1628 287L1619 292C1616.78 299.745 1605.94 304.076 1599 307L1599 308L1606 308L1604 312L1598 312L1597 309L1592 311L1594 316C1590.08 315.491 1588.43 316.279 1587 320L1582 319L1582 324L1585 325C1581.09 326.91 1577.15 330.232 1573 331.398C1569.75 332.312 1566.45 330.875 1563.47 332.985C1558.13 336.773 1560.46 343.794 1567 340L1565 355L1570 353L1571 360C1574.66 363.602 1573.37 367.26 1573 372L1577 370L1577 383L1576 383L1576 381L1575 381L1578 385C1575.73 389.315 1575.54 394.187 1580 397C1577.3 405.726 1585.19 407.507 1591 412L1596 412L1592 416L1614 418C1612.23 425.358 1612.83 428.316 1606 433C1608.6 439.305 1604.66 440.197 1604.36 446.015C1604.15 450.069 1607.81 452.999 1607.95 457C1608.41 470.092 1593.52 474.689 1583 475L1583 476C1587.91 476.779 1589.61 479.908 1592 484L1575 482L1573 478L1552 489C1552.72 498.028 1561.52 494.093 1555 505C1562.05 510.523 1563.91 525.672 1575 523C1575.6 525.958 1578.47 527.367 1579.04 530.404C1579.74 534.137 1576.94 537.228 1578.2 541.001C1579.48 544.828 1585.19 550.279 1579 552L1580 576C1569.29 570.35 1539.73 558.79 1550 582L1545 583L1544 596L1541 594L1540 598L1555 612L1551 617C1568.47 627.93 1571.77 643.763 1579.31 661C1582.14 667.477 1588.15 675.286 1589.07 682.286C1590.08 689.943 1584.09 703.697 1576.71 706.867C1568.89 710.23 1559.8 694.772 1551 696C1549.62 684.398 1539.65 674.151 1529 670.488C1524.91 669.084 1521.08 669.911 1517 668L1512 671C1512.91 680.494 1517.29 677.224 1522.09 683.317C1524.05 685.801 1522.52 689.006 1524.12 691.401C1525.44 693.385 1529.16 694.25 1531 696L1520 697L1520 700L1532 703L1536 712C1540.44 710.677 1542.42 711.576 1544 716C1537.14 716.444 1527.64 713.384 1523 720L1521 719C1514.29 726.45 1494.67 721.412 1494 730C1498.71 731.249 1502.83 733.814 1503 739L1497 740L1506 749L1501 750L1501 752L1507 754C1498.66 765.488 1483.32 756.838 1471.23 759.473C1467.67 760.249 1466.3 765.707 1462.98 767.566C1459.57 769.475 1453.3 767.568 1450.78 770.603C1448.48 773.364 1451.78 777.471 1448.81 780.113C1445.42 783.135 1441.07 779.749 1438 784L1449 795C1450.1 788.059 1456.15 787.692 1462 785.979C1473.63 782.573 1498.31 782.888 1507 792C1501.71 795.571 1505.39 800.703 1510 803L1510 804L1505 804L1506 808L1502 807L1497 809L1497 812L1500 813L1498 818C1505.25 824.216 1496.82 825.462 1497 832C1492.29 833.007 1493.38 838.231 1491.01 841.791C1485.38 850.234 1478 848.716 1476 860L1463 859C1463.2 865.821 1463.81 876.664 1453 877L1438 892L1432 891L1438 904C1440.14 907.49 1438.31 910.111 1435 912C1433.13 906.076 1428.4 907.112 1424 910L1425 906C1414.73 909.239 1406.75 908.32 1404 920L1400 919L1404 948L1396 943L1394 953L1382 941C1382.7 946.322 1384.33 952.244 1377 952C1377 953.721 1377.07 954.263 1375 953.5C1364.64 949.675 1363.01 950.096 1355 959L1351 954L1344 954L1344 960L1342 957L1341 957L1337 961L1333 953L1332 953C1333.14 969.958 1322.67 958.344 1320 949L1316 950C1313.9 937.646 1310.54 925.854 1297 922L1302 929L1302 930L1298 929L1297 929L1295 931L1295 932L1301 941L1305 939C1303.7 941.061 1301.54 943.579 1301.69 946.17C1301.89 949.336 1304.55 952.071 1305.58 955C1308.29 962.683 1308.2 983.809 1300.32 967.005C1299.34 964.92 1298.19 962.968 1297 961L1296 961L1295 965L1294 965L1290 957L1291 962C1286.33 958.97 1288.57 953.513 1290 949L1277 957C1277.95 961.414 1279.73 962.367 1284 961L1284 968C1265.67 963.488 1275.39 943.239 1260 936L1266 947L1266 948C1258.44 950.605 1255.08 956.349 1263.3 962.853C1265.5 964.587 1269.32 964.665 1270.69 967.314C1273.26 972.292 1274.21 980.393 1276 986C1271.21 983.695 1269.58 979.894 1268 975L1259 974L1256 980L1261 980L1264 988L1254 984L1251 977L1250 988C1253.62 991.331 1254.73 995.163 1254 1000L1250 999L1247 1014L1241 1008L1239 1008L1242 1030L1240 1030L1232 1014C1233.83 1022.53 1237.89 1030.15 1235 1039L1232 1023C1225.37 1017.08 1218.96 1001.79 1217 993L1216 993L1212 996L1213 987L1212 987C1209.87 994.587 1210.3 1000.94 1214 1008L1210 1009L1205 1002L1196 1001L1188 973L1182 979L1182 980L1182 989L1184 992C1177.4 987.159 1175.71 988.354 1168 990L1167 984L1166 984C1163.6 996.247 1169.26 1005.39 1171 1017C1166.08 1015.07 1162.49 1012.62 1164 1007L1156 1003C1156.82 1000.51 1159.18 984.181 1153 991C1157.34 991.564 1155.89 995.349 1154 998C1151.33 988.001 1146.13 978.602 1135 977C1134.18 971.881 1128.49 966.771 1128.93 975.005C1129.43 984.408 1137.55 1000.12 1133 1008C1129.18 1002.69 1127.94 1007.95 1129 1012C1121.87 1006.82 1120.87 996.874 1118 989C1112.69 990.631 1109.9 996.182 1105.57 999.529C1096.9 1006.24 1088.81 1009.97 1081.21 1019C1077.98 1022.84 1072.85 1032.31 1078 1036L1082 1031C1082.01 1038.73 1083.4 1045.27 1089.17 1050.83C1094.72 1056.18 1106.02 1062.3 1108.59 1069.99C1109.75 1073.44 1106.34 1075.29 1104 1077L1098 1069L1096 1080L1108 1080L1108 1076L1109 1076C1111.07 1081.15 1116.16 1080 1121 1080L1155 1080L1302 1080L1920 1080L1920 0L1053 0M1045 15L1046 16L1045 15z"/>
<path style="fill:#040404; stroke:none;" d="M881 18L880 22L885 20L881 18M978 18L977 22L980 18L978 18z"/>
<path style="fill:#fdfdfd; stroke:none;" d="M1045 18L1046 19L1045 18z"/>
<path style="fill:#040404; stroke:none;" d="M1092 19L1092 21L1094 21L1094 19L1092 19M1084 21L1085 22L1084 21M1099 23L1100 24L1099 23z"/>
<path style="fill:#fdfdfd; stroke:none;" d="M844 35L845 36L844 35M1032 35L1033 36L1032 35M980 36L980 39L983 38L983 37L980 36M987 37L984 39L987 42L987 37M1072 37L1071 38L1072 42L1075 38L1074 37L1072 37z"/>
<path style="fill:#040404; stroke:none;" d="M775 39L776 40L775 39z"/>
<path style="fill:#fdfdfd; stroke:none;" d="M814 39L814 40L817 44L818 44L814 39M888 39L889 40L888 39M808 40L806 48C809.609 46.0088 810.523 43.4023 808 40z"/>
<path style="fill:#040404; stroke:none;" d="M789 41L788 42L788 43L788 44L791 41L789 41z"/>
<path style="fill:#fdfdfd; stroke:none;" d="M993 42L991 48L992 48L993 42z"/>
<path style="fill:#040404; stroke:none;" d="M764 45L764 48L766 48L766 45L764 45z"/>
<path style="fill:#fdfdfd; stroke:none;" d="M774.667 45.3334L775.333 45.6666L774.667 45.3334z"/>
<path style="fill:#040404; stroke:none;" d="M923 45L924 46L923 45M747 51L747 54L749 51L747 51z"/>
<path style="fill:#fdfdfd; stroke:none;" d="M932 56L935 53L932 56z"/>
<path style="fill:#040404; stroke:none;" d="M752 54L755 56L755 55L752 54z"/>
<path style="fill:#fdfdfd; stroke:none;" d="M925 57L925 60L926 60L925 57M1103 59L1104 60L1103 59M931 63L932 64L931 63z"/>
<path style="fill:#040404; stroke:none;" d="M734.667 69.3333L735.333 69.6667L734.667 69.3333M731 71L732 72L731 71z"/>
<path style="fill:#fdfdfd; stroke:none;" d="M743 73L742 76L743 73z"/>
<path style="fill:#040404; stroke:none;" d="M1145 75L1146 76L1145 75z"/>
<path style="fill:#fdfdfd; stroke:none;" d="M740 81L740 84L741 84L742 81L740 81M695 87L696 88L695 87z"/>
<path style="fill:#040404; stroke:none;" d="M1123 87L1124 88L1123 87z"/>
<path style="fill:#fdfdfd; stroke:none;" d="M712 89L713 92L714 92L712 89M1112 89L1112 96L1116 97L1115 89L1112 89M1134 89L1134 92L1136 91L1136 90L1134 89z"/>
<path style="fill:#040404; stroke:none;" d="M703 90L705 92L705 90L703 90z"/>
<path style="fill:#fdfdfd; stroke:none;" d="M1134 94L1134 96L1136 96L1136 94L1134 94M721 95L722 96L721 95M1120 96L1119 100L1122 96L1120 96M695 105L688 136L689 136L691 132L694 132L690 140L695 144C689.305 145.22 692.474 155.653 692.917 160C694.687 177.378 717.899 181.172 724 196L728 196L728 200L733 196L729 185L723 183L722 186L716 184L714 171L720 173L720 180L723 176L727 176L728 179C739.144 173.758 743.624 188.507 755 188L760 193L761 192L757 188C759.754 182.234 763.603 177.346 761 171C767.923 172.999 773.766 182.036 779.995 182.94C784.861 183.646 784.685 177.02 785.14 174C786.551 164.633 787.701 161.013 783 152L782 152C779.401 168.315 765.649 156.452 757 153.522C740.506 147.936 727.654 136.935 716.621 124.089C712.156 118.89 706.767 115.535 704 109L695 105M601 106L602 107L601 106z"/>
<path style="fill:#040404; stroke:none;" d="M506.667 107.333L507.333 107.667L506.667 107.333z"/>
<path style="fill:#fdfdfd; stroke:none;" d="M510 129L512 132L510 129M583 130L582 132L583 130M1111 133L1109 136C1111.25 135.527 1112.12 135.14 1111 133M565.333 138.667L565.667 139.333L565.333 138.667z"/>
<path style="fill:#040404; stroke:none;" d="M486 139L488 146L489 146L491 144L491 143L486 139M559 139L560 140L559 139z"/>
<path style="fill:#fdfdfd; stroke:none;" d="M689 141L690 142L689 141z"/>
<path style="fill:#040404; stroke:none;" d="M557 143L558 144L557 143z"/>
<path style="fill:#fdfdfd; stroke:none;" d="M1099 145C1098.43 147.396 1098.53 147.487 1101 148L1099 145M1351 147L1352 148L1351 147M1353.33 148.667L1353.67 149.333L1353.33 148.667M1093 149L1094 150L1093 149z"/>
<path style="fill:#040404; stroke:none;" d="M1118.67 150.333L1119.33 150.667L1118.67 150.333M474 153L474 156L476 156L476 153L474 153z"/>
<path style="fill:#fdfdfd; stroke:none;" d="M485 157L485 160L487 157L485 157z"/>
<path style="fill:#040404; stroke:none;" d="M1151 158L1151 160L1153 160L1153 158L1151 158z"/>
<path style="fill:#fdfdfd; stroke:none;" d="M1112 162C1108.24 166.022 1104.44 168.109 1104 174C1109.06 172.603 1112.52 167.298 1112 162z"/>
<path style="fill:#040404; stroke:none;" d="M1155 166L1155 168L1157 168L1157 166L1155 166z"/>
<path style="fill:#fdfdfd; stroke:none;" d="M1153 172L1152 176L1153 172M1115 174L1116 175L1115 174z"/>
<path style="fill:#040404; stroke:none;" d="M722 175L723 176L722 175z"/>
<path style="fill:#fdfdfd; stroke:none;" d="M1114 176L1112 186C1114.92 183.114 1115.36 179.876 1114 176M1164 177L1165 178L1164 177z"/>
<path style="fill:#040404; stroke:none;" d="M756 178L759 180L756 178z"/>
<path style="fill:#fdfdfd; stroke:none;" d="M1101 178L1099 179L1099 180L1101 178M1399 179L1400 180L1399 179z"/>
<path style="fill:#040404; stroke:none;" d="M755 181L757 184L755 181M479 183L480 184L479 183z"/>
<path style="fill:#fdfdfd; stroke:none;" d="M484 183L485 184L484 183M785 185L784 192C787.656 190.715 787.871 188.573 787 185L785 185z"/>
<path style="fill:#040404; stroke:none;" d="M722 186L723 187L722 186M413 187L413 188L416 188L413 187z"/>
<path style="fill:#fdfdfd; stroke:none;" d="M1130 187C1125.66 189.091 1124.43 191.229 1124 196C1128.59 195.242 1130.97 191.614 1130 187z"/>
<path style="fill:#040404; stroke:none;" d="M723 188L724 192L725 192L723 188z"/>
<path style="fill:#fdfdfd; stroke:none;" d="M1139 191L1140 192L1139 191z"/>
<path style="fill:#040404; stroke:none;" d="M477 192L476 194L478 194L477 192M373 196L374 197L373 196M369 198L370 199L369 198z"/>
<path style="fill:#fdfdfd; stroke:none;" d="M480 201L480 204L481 204L480 201M732 203L733 204L732 203M479 205L479 211L480 211L479 205M415 206L416 211L417 211L415 206z"/>
<path style="fill:#040404; stroke:none;" d="M462.667 207.333L463.333 207.667L462.667 207.333z"/>
<path style="fill:#fdfdfd; stroke:none;" d="M475 211L476 212L475 211M368 215L369 216L368 215M1374 215L1375 216L1374 215z"/>
<path style="fill:#040404; stroke:none;" d="M454 219L456 221L456 219L454 219M1432 227L1433 228L1432 227z"/>
<path style="fill:#fdfdfd; stroke:none;" d="M329 229L332 232L329 229M348 229L349 230L348 229M474 230C473.649 233.582 474.556 234.913 478 236L474 230M1428 233L1429 234L1428 233M455 235L458 240L457 235L455 235M466 237L468 240L466 237M1424 239L1425 240L1424 239M1510 247L1511 248L1510 247M345 256L348 260L345 256z"/>
<path style="fill:#040404; stroke:none;" d="M330.667 259.333L331.333 259.667L330.667 259.333M327 261L327 264L328 264L327 261M335 268L336 269L335 268z"/>
<path style="fill:#fdfdfd; stroke:none;" d="M1613 278L1613 280L1615 280L1615 278L1613 278z"/>
<path style="fill:#040404; stroke:none;" d="M1624 279L1624 280L1628 281L1628 280L1624 279M1630 281L1629 285L1632 281L1630 281M339 287L340 288L339 287M329 291L330 292L329 291z"/>
<path style="fill:#fdfdfd; stroke:none;" d="M1615 291L1616 292L1615 291M1615 293L1616 294L1615 293M333 307L334 308L333 307z"/>
<path style="fill:#040404; stroke:none;" d="M306.667 315.333L307.333 315.667L306.667 315.333M308 319L309 320L308 319z"/>
<path style="fill:#fdfdfd; stroke:none;" d="M312 327L312 330L313 330L312 327M317.333 329.667L317.667 330.333L317.333 329.667z"/>
<path style="fill:#040404; stroke:none;" d="M1584 329L1584 332L1585 332L1584 329M304 333L305 334L304 333z"/>
<path style="fill:#fdfdfd; stroke:none;" d="M1557 335L1558 336L1557 335M302 340L304 344L302 340M304.667 355.333L305.333 355.667L304.667 355.333M1563.67 355.333L1564.33 355.667L1563.67 355.333z"/>
<path style="fill:#040404; stroke:none;" d="M1580 370L1580 372L1582 372L1580 370z"/>
<path style="fill:#fdfdfd; stroke:none;" d="M292 380L291 384L292 380z"/>
<path style="fill:#040404; stroke:none;" d="M280 395L281 396L280 395M276 413L276 416L280 416L280 413L276 413z"/>
<path style="fill:#fdfdfd; stroke:none;" d="M1612 422L1613 423L1612 422M376 427L376 428L381 428L376 427M383 427L384 428L383 427M290 429L291 430L290 429M388 429L392 432L392 431L388 429z"/>
<path style="fill:#040404; stroke:none;" d="M279 431L280 432L279 431M281 431L282 432L281 431M282 433L283 434L282 433M1610.33 434.667L1610.67 435.333L1610.33 434.667M276 435L277 436L276 435M280 435L281 441L282 441L280 435z"/>
<path style="fill:#fdfdfd; stroke:none;" d="M354 458C352.337 460.387 351.679 461.971 354 464L353 461L354 458M358 459L359 460L358 459M361 461L362 462L361 461M316 489L320 492L316 489z"/>
<path style="fill:#040404; stroke:none;" d="M1557 489L1558 490L1557 489z"/>
<path style="fill:#fdfdfd; stroke:none;" d="M310 497C311.471 499.883 314.443 504.645 318.035 505.079C321.125 505.453 324.718 501.355 322.338 498.603C319.912 495.799 313.307 497 310 497M326 499L327 500L326 499M308 507L309 508L308 507M324.667 511.333L325.333 511.667L324.667 511.333M325 579L325 580L328 580L325 579M1539 595L1540 596L1539 595z"/>
<path style="fill:#040404; stroke:none;" d="M287 599L288 600L287 599M284 601L285 602L284 601M286 602L287 603L286 602z"/>
<path style="fill:#fdfdfd; stroke:none;" d="M308 605L309 608L310 608L308 605M1549 611L1550 614L1551 614L1549 611M310.667 619.333L311.333 619.667L310.667 619.333z"/>
<path style="fill:#040404; stroke:none;" d="M292 641L293 642L292 641z"/>
<path style="fill:#fdfdfd; stroke:none;" d="M308 645L311 648L308 645z"/>
<path style="fill:#040404; stroke:none;" d="M282.667 667.333L283.333 667.667L282.667 667.333z"/>
<path style="fill:#fdfdfd; stroke:none;" d="M1516 667L1517 668L1516 667M289 671L289 674L292 674L292 671L289 671M286 673L286 676L288 676L288 673L286 673M293 673L294 674L293 673M1511 673L1512 674L1511 673M1510 675L1511 676L1510 675M1499 695L1499 696L1504 696L1499 695M1524 695L1525 696L1524 695M1516.67 697.333L1517.33 697.667L1516.67 697.333M291.667 711.333L292.333 711.667L291.667 711.333z"/>
<path style="fill:#040404; stroke:none;" d="M1546 715L1547 716L1546 715z"/>
<path style="fill:#fdfdfd; stroke:none;" d="M302 721L309 730L312 727C317.096 730.948 320.342 734.987 327 731C318.017 724.095 313.472 720.992 302 721M1487 735L1488 736L1487 735M246 751L247 752L246 751M1457 759C1461.27 761.929 1465.25 763.165 1468 758L1463 760L1462 757L1457 759M1417 759L1418 760L1417 759z"/>
<path style="fill:#040404; stroke:none;" d="M1471 761L1470 764L1473 764L1471 761z"/>
<path style="fill:#fdfdfd; stroke:none;" d="M1419 763L1419 765L1421 763L1419 763M1422 767L1429 776L1422 767M1446.67 771.333L1447.33 771.667L1446.67 771.333M239 775L239 776L242 776L239 775M1435 779L1438 782L1435 779M253 789L254 790L253 789z"/>
<path style="fill:#040404; stroke:none;" d="M1507 793L1508 794L1507 793z"/>
<path style="fill:#fdfdfd; stroke:none;" d="M1503 800L1504 801L1503 800M1504 806L1505 807L1504 806z"/>
<path style="fill:#040404; stroke:none;" d="M1504 809L1504 810L1508 810L1504 809z"/>
<path style="fill:#fdfdfd; stroke:none;" d="M287 811L288 812L287 811M286 813L287 814L286 813M1474 851L1475 853L1476 853L1477 851L1474 851M340 859L341 860L340 859M302 868L307 865L302 868M341 873L342 874L341 873z"/>
<path style="fill:#040404; stroke:none;" d="M282 875L283 876L282 875z"/>
<path style="fill:#fdfdfd; stroke:none;" d="M299 883L300 884L299 883M295 895L296 896L295 895M1428 899L1429 900L1428 899M1425 904L1428 902L1425 904M1409 903L1410 904L1409 903z"/>
<path style="fill:#040404; stroke:none;" d="M293 905L293 908L294 908L293 905z"/>
<path style="fill:#fdfdfd; stroke:none;" d="M589.333 910.667L589.667 911.333L589.333 910.667z"/>
<path style="fill:#040404; stroke:none;" d="M1420 911L1421 912L1420 911z"/>
<path style="fill:#fdfdfd; stroke:none;" d="M1398.67 915.333L1399.33 915.667L1398.67 915.333M1395 919L1395 924L1396 924L1395 919M794.667 923.333L795.333 923.667L794.667 923.333M1396.67 925.333L1397.33 925.667L1396.67 925.333M1398.67 927.333L1399.33 927.667L1398.67 927.333M773 932L776 930L773 932M573 935L574 936L573 935z"/>
<path style="fill:#040404; stroke:none;" d="M585 936L586 937L585 936M643 937L640 939L640 940C642.348 939.706 643.951 939.507 643 937z"/>
<path style="fill:#fdfdfd; stroke:none;" d="M1381.33 938.667L1381.67 939.333L1381.33 938.667M1274 939L1275 940L1274 939M1291.67 943.333L1292.33 943.667L1291.67 943.333M1322 945L1326 944L1322 945M1320 947L1321 948L1320 947M367 949L367 952L368 952L367 949M1168 950L1168 952L1170 952L1168 950M1276 951L1277 952L1276 951M1329 951L1328 960L1329 960L1332 951L1329 951M373 953L372 956L373 953M669.667 953.333L670.333 953.667L669.667 953.333z"/>
<path style="fill:#040404; stroke:none;" d="M1263 953L1264 954L1263 953z"/>
<path style="fill:#fdfdfd; stroke:none;" d="M385 955L384 960L388 955L385 955M1049 955L1049 956L1054 956L1049 955M368 958L369 959L368 958M340 959L341 960L340 959M1247 961C1247.83 964.795 1249.17 965.696 1253 966C1251.94 962.508 1250.58 961.568 1247 961z"/>
<path style="fill:#040404; stroke:none;" d="M1337 962L1336 966L1337 962z"/>
<path style="fill:#fdfdfd; stroke:none;" d="M1280 965L1281 966L1280 965M1136 967L1137 968L1136 967M1232 967L1232 968L1235 968L1232 967M1236 969L1236 972L1245 972L1236 969M1144 972L1147 972L1146 970L1144 972M1264 970L1266 975L1266 970L1264 970M386 971L387 972L386 971M1159 973C1159.43 977.656 1159.91 982.304 1164 985L1159 973M513.333 974.667L513.667 975.333L513.333 974.667M664 974C658.164 981.192 647.854 989.779 646 999C653.302 993.642 663.418 982.692 666 974L664 974M559 975L560 976L559 975M1168 977L1169 987C1173.69 985.59 1175.8 983.31 1178 979L1168 977z"/>
<path style="fill:#040404; stroke:none;" d="M1308 977L1310 980L1308 977M379 980L378 984L381 980L379 980M1264 980L1264 983L1265 983L1264 980M521 981L522 982L521 981M527 981L528 982L527 981M644 982L644 984L646 984L646 982L644 982z"/>
<path style="fill:#fdfdfd; stroke:none;" d="M1221 983L1223 985L1223 983L1221 983M985 985L988 994L985 985M1206 985L1204 992L1206 985M406 987L407 988L406 987M979 989L981 994L979 989M1227 991L1228 992L1227 991M419 995L420 996L419 995z"/>
<path style="fill:#040404; stroke:none;" d="M1266 995L1267 996L1266 995z"/>
<path style="fill:#fdfdfd; stroke:none;" d="M934 997L934 1000L936 1000L936 997L934 997M979 1009C972.648 1010.98 977.225 1016.06 977 1021L975 1021L973 1016C966.768 1019.47 968 1033.46 968 1040L966 1040L966 1033L961 1037L960 1025L949 1024L943 1017L947.323 1038L943 1058C936.726 1054.33 937.96 1044.2 943 1040C940.87 1035.13 937.998 1028.68 932 1031L930 1018L925 1019C925.571 1020.22 927.619 1023.28 926.034 1024.54C923.018 1026.93 919.353 1020.76 916.09 1025.25C909.672 1034.07 922.071 1053.38 903 1054C905.604 1050.76 908.983 1047.32 909.496 1043C910.287 1036.35 904.612 1034.45 900 1038L903 1032L898 1025L892.14 1033.38L890.642 1042.71L883.737 1051.03L875.319 1053.52L874 1066L870 1065L872 1072L868 1078L866 1064L860 1067L862 1071L857 1080L863 1077L864 1080L1084 1080L1082 1067L1076 1073C1068.81 1070.78 1064.86 1069.26 1066 1061C1064.08 1061.97 1060.94 1065.13 1058.69 1063.96C1054.99 1062.04 1056.74 1056.24 1055.48 1053C1051.82 1043.62 1041.77 1038.37 1043 1028C1032.03 1034.71 1046.77 1047.62 1048.68 1055.04C1050.59 1062.4 1047.75 1070.61 1048 1078L1039 1076L1039 1074L1045 1072C1044.33 1068.69 1042.22 1066.2 1041.42 1063C1039.18 1053.99 1042.17 1038.54 1028 1041L1029 1044L1023 1048L1028 1055L1022 1051L1020 1051L1014 1055C1016.16 1060.32 1014.34 1061.63 1009 1063L1012 1065C1003.24 1075.27 998.685 1050.14 996 1045L995 1045L992 1048C996.454 1040.08 1007.53 1015.38 994 1011L995 1016C987.01 1013.56 986.991 1005.07 988 998C981.216 996.749 979.457 1003.45 979 1009M979 999L979 1001L981 999L979 999M1229 1003L1230 1004L1229 1003M650 1007L651 1008L650 1007M926 1007L927 1008L926 1007M1242.67 1007.33L1243.33 1007.67L1242.67 1007.33M941 1014L940 1015L940 1016L941 1017L942 1017L943 1016L943 1015L941 1014M953 1014L953 1016L955 1016L955 1014L953 1014M966 1015L968 1018L968 1015L966 1015M951 1019L952 1020L951 1019z"/>
<path style="fill:#040404; stroke:none;" d="M1079.33 1026.67L1079.67 1027.33L1079.33 1026.67z"/>
<path style="fill:#fdfdfd; stroke:none;" d="M720 1027L721 1028L720 1027M881.667 1027.33L882.333 1027.67L881.667 1027.33z"/>
<path style="fill:#040404; stroke:none;" d="M919 1027L920 1028L919 1027z"/>
<path style="fill:#fdfdfd; stroke:none;" d="M1008.67 1027.33L1009.33 1027.67L1008.67 1027.33M1034 1027L1036 1030L1037 1027L1034 1027M1002 1029L1004 1032L1002 1029M782 1031L782 1032L786 1032L782 1031M717 1031L718 1032L717 1031z"/>
<path style="fill:#040404; stroke:none;" d="M431 1032L432 1033L431 1032z"/>
<path style="fill:#fdfdfd; stroke:none;" d="M998 1033L999 1034L998 1033M660.667 1035.33L661.333 1035.67L660.667 1035.33M794.667 1035.33L795.333 1035.67L794.667 1035.33M1023 1035L1024 1043L1025 1043L1028 1040L1028 1039L1025 1035L1023 1035M1073 1035L1074 1036L1073 1035M879 1039L880 1042L881 1042L882 1039L879 1039M722 1041L723 1045L726 1041L722 1041M755 1041C753.114 1048.06 751.405 1052.88 754 1060L749 1064C755.006 1068.08 740.505 1073.12 741 1080L783 1080C788.7 1080 796.782 1081 795 1073L794 1073L793 1076L792 1076L788 1067L796 1068L795 1056C790.455 1053.41 788.627 1048.03 788 1043L785 1043C785.236 1051.17 789.698 1057.9 782 1064L781 1059L772 1068L780 1052L780 1051L767 1047L764 1050C762.659 1045.23 759.775 1042.34 755 1041M862 1041L861 1042L861 1043L861 1044L865 1044L864 1041L862 1041M1007.33 1042.67L1007.67 1043.33L1007.33 1042.67M808 1043L808 1046L809 1046L808 1043M721 1045L722 1046L721 1045M816.667 1045.33L817.333 1045.67L816.667 1045.33M1006 1045L1005 1048L1006 1045M1066 1045L1066 1050L1069 1050L1066 1045M719 1046L713 1060C718.393 1058.17 720.251 1051.21 719 1046M696 1047L696 1048L699 1048L696 1047M781.333 1055.67L781.667 1056.33L781.333 1055.67M813 1055L812 1080L815 1080C815.158 1072.36 817.515 1061.71 813 1055M707 1059L708 1060L707 1059M799 1059L800 1060L799 1059M1068 1061L1069 1062L1068 1061M1085 1061L1087 1067L1087 1068L1085 1069L1085 1070L1086 1080L1094 1080L1090 1065L1094 1064L1085 1061z"/>
<path style="fill:#040404; stroke:none;" d="M792 1063L793 1064L792 1063z"/>
<path style="fill:#fdfdfd; stroke:none;" d="M1076.67 1063.33L1077.33 1063.67L1076.67 1063.33M743 1067L744 1068L743 1067M820 1074L817 1080L821 1080L820 1074M804 1076L801 1080L806 1080L804 1076M828 1076L827 1080L832 1080L830 1076L828 1076z"/>
<path style="fill:#040404; stroke:none;" d="M1108 1076L1110 1080L1108 1076M862 1077L862 1080L864 1080L864 1077L862 1077z"/>
</svg>
