<?xml version="1.0" standalone="yes"?>
<svg xmlns="http://www.w3.org/2000/svg" width="1920" height="1080">
<path style="fill:#fcfcfc; stroke:none;" d="M0 0L0 1080L707 1080C708.705 1074.53 709.306 1070.5 704 1067L705 1070L692 1072L698 1061L698 1060C691.496 1055.47 686.389 1061.34 680 1064L684 1052L684 1051L680 1051L683 1033L682 1033C678.757 1042.89 669.453 1051 661 1057L659 1049C654.702 1049.98 651.097 1047.71 652 1043C649.806 1036.92 656.563 1029.88 659.695 1025C665.335 1016.21 670.897 1016.02 678.96 1011.35C683.826 1008.53 686.513 1003.07 691.004 999.709C696.341 995.713 702.611 994.31 707 989L700 985L702 987C706.11 985.526 712.852 982.901 714.878 978.643C717.17 973.828 706.447 970.826 703.286 971.975C695.407 974.836 683.203 979.273 677.184 985.188C670.884 991.38 665.862 1003.84 656 1004C650.959 1018.45 628.961 1034.49 613 1032L613 1031C616.669 1028.93 617.91 1025.23 621.224 1022.92C627.453 1018.57 641.941 1014.6 641 1005L637 1010L629 1009C631.236 1002.48 637.678 1000.91 640.918 995.445C642.586 992.632 639.642 989.219 640.957 986.011C643.981 978.635 654.726 968.794 661 964C660.758 958.047 672.539 947.794 662 946L662 945L666 944L660 942L660 935L648 942L640 942L645 935L647 939C649.624 936.401 650.323 934.186 647 932L648 929L652 930L641 912L640 918C634.695 912.099 629.355 898.867 628 891C623.123 891.839 621.814 895.441 621 900L616 900L620 891L608 894L605 881C601.451 882.558 599.674 881.647 597 879L595 879C594.239 883.652 597.055 886.507 597.366 890.996C597.694 895.74 595.165 899.998 595.468 905C595.747 909.621 600.115 915.22 593 916C591.383 922.616 596.858 929.037 589 933L589 938L588 938L588 925L587 925L586 939C576.956 935.985 587.564 955.391 582 954L585 959L581 960C578.139 954.087 570.858 944.917 565 942L572.657 954.004L577 983C571.351 984.693 568.52 983.826 565 979L560 977C559.081 984.27 563.78 999.56 559 1004L557 997L556 997L556 1003L555 1003C553.495 997.859 551.722 993.833 547 991L546 998C542.451 993.86 539.334 993.048 534 993C532.955 986.379 527.875 980.547 521 983L520 979L515 987L514 987L513 981L512 981L509 992L502 987L499 991L499 996L496 994L492 1000C492 994.832 494.543 976.194 489 975L487 1000L485 997L484 997C484 1011.98 491.149 1024.04 496 1038L493 1039L488 1033L484 1050L476 1048C473.734 1047.07 470.317 1046.29 469.287 1043.77C467.347 1039.02 469.911 1030.07 461 1036C459.731 1030.32 457.557 1029.36 452 1029L447 1037L439 1030L437 1035L431 1037L432 1029C422.868 1023.29 431.808 1017.09 431 1009L423 1014L422 1007L414 1012L413 1004C408.412 1007.93 406.838 1014.78 400 1015L400 994L405 992L405 991L392 993L388 997C385.723 985.268 398.394 986.751 399.087 977.04C399.424 972.324 395.357 973.804 392.829 975.438C386.483 979.543 380.019 983.443 374 988L380 980L382 969L379 972L378 972L381 957L379 957L376 966L369 968L364 972L368 965L364 968L363 968L363 964L358 968L353 963L348 964C346.47 959.428 343.293 960.483 341 964L335 961L351 944L351 943L344 945L350 928L351 928C353.304 930.653 354.055 927.262 354 925L347 928C345.57 917.425 339.015 923.208 333 926L341 913L342 916L343 916L350 893L349 893C346.167 897.888 342.21 901.818 337 904.227C335.367 904.982 331.272 906.126 330.77 903.265C329.524 896.161 342.835 895.999 337 886L341 882L338 884L333 882L332 892L327 883C317.276 882.615 312.154 881.42 305.171 890.129C300.597 895.833 300.135 906.703 292 908L294 903L290 901L292 897C285.541 890.681 290.215 882.327 294 876L296 877L299 869C295.499 872.851 289.435 880.792 286 873L297 868L297 862L279 861C277.689 846.279 294.134 847.931 303 844L303 836L308 834L295 836L297 831L285 834L291 828L289 821L292 820L292 819C284.477 821.893 280.32 827.003 272 823C280.897 819.756 285.87 818.697 282 808C276.03 808.767 272.224 809.564 267 806C269.57 805.823 281.331 802.943 276.125 798.066C272.828 794.978 266.943 797.513 263 793C258.561 793.895 252.48 794.358 249 791C242.317 793.52 239.343 789.731 234 786L234 789L228 785L224 781L227 784L228 784L228 781L226 781L226 777L237 772L232 758L233 757L237 758L242 752L241 756C248.438 754.398 236.144 747.736 235 745L244 746C247.159 733.171 241.093 733.623 231 738C227.832 732.354 210.497 727.104 204 728C207.263 722.767 218.215 717.955 224 716L221 709L228 708L224 701C231.844 699.749 229.533 693.334 223 692C229.536 676.75 239.305 686.562 249 692.083C252.218 693.916 260.921 701.907 262 697C267.185 701.758 273.574 707.581 281 706L276 697C268.95 695.582 265.821 689.694 259.961 686.277C248.236 679.441 233.42 678.767 227 665L241 672L240 667L275 675L279 671L280 674L286 672C284.614 667.818 278.133 665.161 274 664L275 660C284.036 667.327 285.366 665.412 295 661L295 657C300.634 655.774 300.856 651.881 299 647L297 648L292 642L292 637L309 642L301 627L302 630L298 625L294 627L291 619L302 620C297.694 612.143 285.908 604.646 277 604L277 603C283.351 601.869 299.237 595.974 304 602L305 602C306.879 598.573 308.269 596.443 306 593L327 593L315.318 584.686L312 575L320 576L309.201 565.857L301 555L304 554L303 551L296 556L291 549L288 552L287 552L285 550L285 549L291 544L291 543C285.988 541.058 282.285 537.887 280 533C283.74 533.927 287.455 533.893 289 530C284.34 527.875 283.506 523.872 280.583 520C272.564 509.38 269.86 506.658 271 493L284 505C286.906 502.51 287.615 500.789 287 497L296 498L297 490C304.344 488.82 306.781 481.42 313 477.728C321.98 472.396 337.416 475.176 344 465L338 464L336 467L335 463L344 460C345.719 458.292 345.96 457.777 347 460L348 460L361 442L354 436L354 434L369 427L369 426L355 417C350.521 435.595 329.558 443.506 313 449.179C302.072 452.923 295.219 460.036 286 449L282 450L278 429L282 430L282 427L287 425L280 425L280 417L276 411C282.188 413.052 282.395 406.741 287 404L282 383C287.038 381.424 288.494 376.944 289 372L288 372L287 374L283 372C284.71 367.736 286.077 366.817 283 363C290.137 363.688 297.282 360.303 302 355C295.527 354.272 294.767 350.857 294 345C298.697 345.073 309.367 329.474 309 325L302 318L304 320L308 318L308 317L305 316L305 314L308 313C308.533 317.102 308.754 320.596 313 322L320 316L320 311L323 312L327 305L331 308C330.794 304.067 331.512 301.952 335 300L335 299L332 292L329 293L328 289C331.255 290.242 336.073 293.691 339.682 292.303C345.154 290.2 339.338 275.249 339 271C329.264 270.137 326.006 265.044 326 256L327 256L329 265L332 264L330 257L334 258L332 253L335 252C331.898 248.951 306.915 236.009 323.066 232.559C324.65 232.22 326.392 232.191 328 232L324 224L345 228L340 216L356 220C355.343 214.168 358.513 212.368 364 212C362.464 204.98 364.142 199.443 367 193L368 196L374 193L374 196L375 196L377 192C380.385 194.104 381.745 192.43 383 189L385 191L388 188C389.741 191.695 406.412 206.555 408 199L412 204L413 204L415 189L422 196L425 195L429 199L431 216L448 226L447 223L452 224L452 230L454 227L458 232L459 232L453 217L466 228L470 224L462 205L468 210L468 207L476 210L476 189L480 188L478 182C488.635 183.609 479.649 169.886 480 165L479 165L476 168L473 151L476 154L479 152L481 153C485.689 145.846 485.916 145.386 486 137L488 137L492 142C494.454 137.198 502.797 118.198 505 134L506 134C506.259 130.595 506.595 128.916 510 128C509.394 119.331 513.777 114.049 523 114L526 102C534.225 106.754 533.668 117.049 536.826 124.999C538.476 129.151 540.527 133.028 545 130C547.347 137.427 551.466 147.435 558 152L557 141L560 144L559 138L560 138L563 143L564 143C562.432 135.612 565.457 130.891 568 124L569 124C569.076 130.232 567.75 134.524 574 138L576 131L579 132L583 119L585 124L589 122L590 127L588 132L593 129L594 132L598 132C593.256 120.55 587.699 104.58 590 92L591 92L598 103L601 104L603.11 60L607 49C606.911 41.3129 610.885 30.6425 618 27L617 24C621.433 23.0503 627.405 4.88696 628 0L0 0z"/>
<path style="fill:#040404; stroke:none;" d="M628 0C626.25 6.1189 622.221 20.6313 617 24L618 27L615 27C610.904 33.6929 606.457 40.8795 607 49L602.271 62L601 104L598 103L600 101L591 92L590 92C587.355 103.141 592.192 122.342 598 132L593 129L592 132L588 132L590 127L589 122L585 124L583 119L579 132L576 131L574 138C568.492 133.489 569.98 130.245 569 124L568 124C564.823 130.426 561.883 135.855 564 143L563 143L560 138L559 138L560 144L557 141L558 152L545 130C540.243 132.238 538.441 128.083 536.826 124C533.931 116.678 534.512 105.224 526 102L523 114C513.412 112.447 508.965 119.622 510 128L507 127L506 134L505 134C503.855 117.717 493.985 136.452 492 142L488 137L486 137L481 153L479 152L476 154L476 151L473 151L476 168L479 165L480 165C479.06 170.804 488.137 181.544 478 182L480 188L476 189L476 210L468 207L468 210L462 205C463.25 214.12 464.376 216.638 470 224L466 228L453 217L459 232L458 232C456.673 227.794 455.35 227.359 452 230L452 224L447 223L448 226C442.542 222.586 437.787 215.431 431 216L429 199L425 195L422 196L415 189L413 204L412 204L408 199C404.22 204.358 391.268 191.815 388 188L383 189C381.358 191.887 380.292 193.206 377 192L375 196L374 193L367 193C363.472 198.8 361.763 205.482 364 212C358.2 212.172 354.679 213.712 356 220L340 216L345 228L324 224L328 232C326.302 232.089 324.481 232.002 322.8 232.26C318.835 232.869 315.157 237.712 318.603 241.228C323.212 245.929 329.905 248.143 335 252L332 253L334 258L330 257L332 264L329 265L327 256L326 256C326.001 265.154 328.615 270.848 339 271C339.189 275.383 345.04 290.598 338.852 292.071C335.379 292.897 331.3 289.807 328 289L332 292L335 299L335 300C330.891 301.372 330.301 303.924 331 308L327 305L323 312L320 311L320 316L313 322L308 313L305 314L305 316L308 317L308 318L302 318C303.269 322.136 304.92 323.651 309 325C308.725 329.616 298.681 343.887 294 345C294.342 351.264 295.007 354.614 302 355C296.464 359.383 290.274 363.304 283 363L286 365L283 372L288 372L289 372C288.145 376.796 286.426 380.701 282 383L287 404C281.835 405.977 282.3 412.586 276 411C276.263 414.41 276.679 415.901 280 417L280 425L287 425L286 428L282 427L282 430L278 429L282 450L286 449C292.644 460.683 302.658 454.19 312 450.07C327.888 443.064 352.526 437.489 355 417L369 426L369 427L354 434L354 436L361 442C357.639 450.467 348.316 449.366 348 460L347 460L347 457L344 460L335 463L336 467L338 464L344 465C335.54 473.903 322.901 472.34 313 477.175C306.311 480.442 304.244 488.087 297 490L296 498L287 497L284 505C281.486 499.609 276.811 494.631 271 493C268.738 506.697 272.673 510.545 280.583 520.999C283.415 524.743 284.135 528.639 289 530L288 533L280 533C281.535 538.453 285.558 541.706 291 543L291 544L285 549L285 550L287 552L288 552L291 549L296 556L303 551L304 554L301 555L308.336 565.86L320 576L312 575C314.214 586.876 320.457 584.67 327 593L306 593L305 602L304 602L304 599L277 603L277 604C286.42 605.369 296.131 612.783 302 620L291 619L294 627L298 625L302 630L301 627L309 642L292 637L292 642L297 648L299 647C300.13 651.921 300.17 655.103 295 657L295 661C284.573 663.997 285.232 665.906 275 660L274 664L286 672L280 674L279 671L275 675L240 667L241 672L227 665C231.087 679.56 249.253 679.795 259.961 686.875C265.673 690.652 268.689 696.187 276 697L281 706C273.407 706.925 267.942 700.926 262 697L261 700C252.591 691.794 229.119 672.852 223 692C228.77 693.987 231.02 698.956 224 701L228 708L221 709L224 716C219.355 716.588 204.999 723.312 204 728C211.351 727.901 226.392 732.409 231 738C240.839 734.846 246.332 733.571 244 746L235 745C236.279 748.69 245.279 752.474 241 756L242 752L237 758L233 757L232 758L237 772L226 777L226 781L228 781L228 784L227 784L224 781L228 785L234 789L234 786C238.627 790.571 242.613 794.547 249 791C251.374 795.495 258.987 794.484 263 793C264.98 796.424 285.487 800.339 271.921 805.262C270.449 805.797 268.538 805.78 267 806C271.551 810.524 276.229 809.119 282 808C284.742 819.137 280.746 818.784 272 823C279.158 827.89 285.69 822.59 292 819L292 820L289 821L291 828C287.192 828.828 286.202 830.373 285 834L297 831L295 836L308 834L303 836L303 844C294.422 846.637 275.789 846.766 279 861L297 862L297 868L286 873C288.676 881.612 296.214 873.271 299 869L296 877L294 876C289.66 881.034 284.806 892.34 292 897L290 901L294 903L292 908C300.699 907.323 301.358 894.964 306.669 889.259C314.063 881.318 317.815 884.017 327 883C326.814 887.073 327.974 890.558 332 892L333 882L338 884L341 882L337 886C341.263 895.541 328.434 897.205 330.461 903.682C333.056 911.971 347.73 896.27 349 893L350 893L343 916L342 916L341 913L333 926C339.392 924.191 344.538 917.769 347 928L354 925C353.882 927.462 353.541 928.958 351 928L350 928L344 945L351 943L351 944L335 961L341 964C343.774 961.198 345.813 960.265 348 964L353 963L352 966L358 968L363 964L363 968L364 968L368 965L364 972L369 968L376 966L379 957L381 957L378 972L379 972L382 969L380 980C376 981.516 374.754 983.874 374 988C377.152 986.372 379.866 984.062 383.001 982.359C385.058 981.241 387.072 980.203 388.996 978.854C391.689 976.967 403.557 971.014 397.845 979.779C392.952 987.287 384.726 986.417 388 997L392 993L405 991L405 992L400 994L400 1015C407.065 1015.22 409.044 1008.81 413 1004L414 1012L422 1007L423 1014L431 1009C431.395 1016.28 422.001 1024.81 432 1029L431 1037L437 1035L439 1030L447 1037C450.849 1035.46 451.229 1032.87 452 1029C457.174 1029.84 459.348 1030.87 461 1036C470.713 1031.74 466.335 1039.87 469.082 1044.57C470.394 1046.82 473.726 1047.33 476 1048L484 1050L488 1033L496 1038L484 997L485 997L487 1000L489 975C494.517 978.966 492 993.72 492 1000L496 994L499 996L499 991L502 987L509 992L512 981L513 981L514 987L515 987L520 979L521 983C527.779 981.79 532.242 986.706 534 993L546 998L547 991L555 1003L556 1003L556 997L557 997L559 1004C564.114 1001.11 559.476 983.638 560 977L562 980L565 979C567.656 984.379 571.714 985.519 577 983L572.301 952.039L565 942L581 960L585 959L582 954C587.475 953.086 578.389 940.953 586 939L587 925L588 925L588 938L589 938L589 933C597.161 930.523 592.145 922.169 593 916C600.475 915.654 596.282 909.782 595.812 905C595.308 899.877 597.987 895.906 597.771 890.996C597.58 886.649 594.846 883.419 595 879L597 879C599.226 882.272 601.586 883.191 605 881L608 894L620 891L616 900L621 900C622.229 895.746 623.588 892.38 628 891C628.699 897.979 634.376 913.859 640 918L641 912L652 930L648 929L647 931L647 932C649.527 934.728 648.994 935.961 647 939L645 935L640 942L648 942L660 935L660 942L666 944L662 945L662 946C671.886 948.992 659.888 957.42 661 964C654.661 967.298 642.791 979.064 640.569 986.011C639.645 988.897 641.871 992.15 640.713 994.714C638.006 1000.71 630.497 1001.64 629 1009L637 1010L641 1005C639.937 1014.99 627.097 1017.83 620.415 1022.92C617.546 1025.11 615.9 1028.65 613 1031L613 1032C619.734 1033.7 625.057 1029.89 631 1027.19C642.671 1021.91 652.716 1017.67 656 1004C665.668 1005.23 671.316 992.158 677.184 986.093C682.797 980.294 696.293 973.98 704.17 972.194C719.197 968.785 713.401 987.992 700 985C700.76 988.545 703.716 988.379 707 989C701.735 993.487 695.414 995.609 690.015 999.709C685.812 1002.9 683.365 1007.81 678.96 1010.74C671.307 1015.82 665.318 1015.24 659.695 1024C656.622 1028.79 648.828 1037.17 652 1043C649.558 1047.9 654.724 1050.4 659 1049L661 1057C670.064 1052.74 679.598 1042.61 682 1033L683 1033L680 1051L684 1051L684 1052L680 1064C686.755 1062.05 691.041 1056.54 698 1060L698 1061L692 1072L705 1070L704 1067C708.493 1071.4 708.175 1074.18 707 1080L742 1080C743.268 1073.92 747.455 1073.71 753 1074L752.754 1053L755 1042L764 1047L764 1051L769 1047L773 1053L779 1051L779 1052C773.923 1057.22 770.653 1064.75 770 1072L780 1061L774 1074L781 1065C788.162 1063.92 787.797 1054.75 788 1049L789 1049L796 1068L791 1065L794 1062L786 1065L794 1076L793 1080L812 1080C813.288 1073.76 809.799 1060.37 815 1057L815 1080L821 1076L821 1080C824.692 1079.88 826.777 1079.69 828 1076C833.321 1081.15 849.736 1082.55 856.726 1079.4C860.426 1077.73 860.422 1074.21 865 1074L862 1080L870 1080L868 1074C874.421 1070.95 874.598 1052.33 880 1055L881 1055C888.354 1048.75 894.831 1043.01 891 1033L898 1026L899 1026L900 1040L903 1036L909 1037L902 1055L903 1056L910 1056C911.513 1052.6 914.179 1049.65 914.895 1045.96C916.353 1038.45 912.209 1027.44 920 1023L918 1028C924.357 1027.72 929.698 1026.06 926 1019L934 1033L935 1029L943 1040C935.208 1042.58 936.516 1057.66 944 1060L947.931 1037L944 1019L948 1024L955 1029L960 1026L960 1038L965 1037L967 1042L973 1016L978 1024C979.05 1018.81 977.781 1015.43 975 1011L980 1010L979 999C988.055 1000.71 986.057 1005.25 984 1012L996 1016L994 1011C1007.8 1018.61 991.925 1036.12 991.603 1046C991.395 1052.39 996.705 1057.19 1000 1062L1004 1061C1001.17 1070.39 1008.56 1074.63 1013 1065L1010 1064L1010 1063L1017 1062L1014 1055L1022 1051L1026 1055L1025 1058C1029.92 1054.25 1025.92 1049.42 1024 1045L1031 1046L1030 1041C1042.15 1041.37 1040.44 1063.74 1045 1072L1037 1073L1040 1080L1048 1080L1049.12 1054.04L1041 1038L1057 1056C1052.6 1060.46 1055.82 1065.14 1061 1067L1066 1061C1063.52 1069.59 1067.92 1069.71 1073 1075L1076 1075L1082 1068L1080 1080C1091 1079.64 1087.78 1068.27 1085 1061L1093 1063L1093 1064C1088.6 1066.85 1090 1073.26 1090 1078L1093 1077C1093 1079.83 1094.14 1079.79 1097 1080L1098 1069L1100 1069C1102.44 1075.5 1104.52 1079.59 1112 1080C1110.68 1076.29 1111.11 1071.4 1109.1 1068.1C1103.85 1059.48 1092.88 1054.75 1086.98 1046.57C1082.51 1040.38 1081.91 1032.32 1081 1025C1079.87 1015.94 1097.77 1003.08 1106 1006C1108.23 999.532 1112.46 993.987 1118 990C1119.92 997.241 1122 1008.31 1129 1012C1128.92 1009.62 1129.3 1003.32 1132 1008C1136.99 1005.24 1135.18 1001.78 1134.24 997.001C1132.42 987.63 1128.25 978.891 1130 969C1140.24 977.38 1149.8 985.984 1154 999L1155 999C1156.66 994.853 1156.43 992.748 1154 989C1161.05 993.119 1154.93 998.329 1154 1004L1155 1004L1155 1001L1156 1001C1157.27 1005.29 1159.66 1006.52 1164 1007L1164 1008C1156.85 1012.35 1167.53 1017.27 1169 1022C1175.87 1015.27 1168.44 1009 1166.6 1002C1165.6 998.196 1167.67 993.841 1168 990L1172 993L1178 987L1181 994C1186.45 992.324 1186.63 982.812 1182 980L1186 973L1187 973C1188.53 979.442 1194.3 1003.28 1201 1001L1200 1008L1201 1008L1202 1004L1212 1012L1212 996C1220.79 999.18 1229.83 1018.97 1230.98 1028.01C1231.76 1034.09 1230.62 1044.04 1236 1048L1236 1024L1237 1024L1244 1034L1240 1014L1246 1015L1247 1019L1248 1019L1251 1005C1265.4 1016.02 1257.77 998.037 1259.89 991.264C1260.74 988.557 1264.19 988.931 1265.39 986.542C1267.07 983.216 1265.41 980.141 1268 977L1277 994L1278 994L1273 968L1273 967C1265.12 962.362 1262.01 958.6 1257 951L1264 951L1267 948L1261 937C1272.03 945.899 1266.28 962.925 1280 967L1280 968L1277 972L1281 973L1284 968L1284 972C1289.2 968.638 1284.42 960.455 1279 961L1278 957C1285.26 958.811 1285.2 954.403 1289 950C1286.19 958.904 1289.7 963.672 1292 972C1295.65 969.865 1295.9 967.051 1296 963L1298 963C1298.93 975.698 1306.3 981.552 1316 988L1313 981L1312 983L1311 983C1310.04 969.641 1300.06 950.677 1306 939L1300 940L1303 929L1308 929C1310.05 935.667 1312.21 949.728 1320 951C1320.47 954.597 1321.82 961.577 1324.18 964.392C1327.89 968.832 1333.41 962.605 1334 959L1336 959L1339 969L1345 958L1360 961L1359 957C1366.12 954.769 1373.11 951.565 1378 960C1385.74 958.466 1387.23 954.543 1385 947C1389.42 950.157 1392.16 954.338 1398 953L1398 945C1400.24 948.834 1402.7 949.647 1407 950L1405 946L1400 919L1407 926C1405.57 917.381 1406.17 911.218 1416 913L1417 909L1418 909L1419 913L1423 910L1423 916L1428 907C1433.43 909.827 1436.52 914.552 1443 912C1440.41 906.523 1437.53 894.841 1439 889L1448 890L1448 888L1452 889L1453 882L1454 882L1457 888L1457 879L1471 868L1467 861C1478.95 862.99 1478.53 857.395 1485.15 850.733C1488.03 847.836 1492.74 846.15 1495.24 843.102C1497.08 840.857 1495.47 837.595 1496.69 835C1500.27 827.36 1504.47 824.838 1505 816L1502 817L1502 811L1509 812C1509.01 807.278 1508.79 798.567 1513 796L1509 794C1506.69 785.153 1498.75 785.633 1491 784.911C1481.84 784.056 1473.21 782.836 1464 784.91C1458.57 786.131 1451.35 790.892 1446.38 791.274C1443.34 791.507 1440.62 785.485 1438 784L1452 780L1453 775C1449.18 768.126 1463.9 768.034 1469 766L1472 759L1471 765L1474 764L1473 760L1477 761C1484.28 755.57 1495.01 763.895 1502.98 761.282C1509.6 759.114 1507.77 753.233 1502 752L1503 749L1511 750L1511 749L1498 740L1498 739L1506 738L1501 729L1495.92 726.704L1505.87 727.667L1525 720L1525 717L1548 716L1548 715C1543.76 711.272 1541.93 708.646 1536 710L1532 706L1533 703L1523 700L1523 698L1532 696L1532 694L1524 692C1523.99 688.909 1524.39 685.042 1522.11 682.588C1519.96 680.283 1513.06 679.722 1515.06 675.058C1518.13 667.894 1530.46 672.185 1535 674.795C1543.46 679.66 1544.93 688.841 1551.44 695.247C1558.38 702.081 1568.38 705.84 1576 712L1577 712L1586 700C1591.39 699.717 1589.89 694.549 1588 691L1592 690C1587.45 671.092 1578.23 648.637 1567.91 632C1564.38 626.312 1557.7 622.672 1554.6 616.961C1553.03 614.066 1555.33 611.134 1553.92 608.3C1551 602.451 1542.98 601.595 1541 595L1547 595L1545 583L1552 586L1553 586L1552 574L1550 579L1549 579C1544.5 559.422 1574.02 577.082 1582 576L1580.83 557L1584 551L1580 540L1581 540L1582 527C1576.13 524.452 1565.23 522.756 1565 515L1556 503C1559.5 500.043 1560.27 497.517 1560 493C1555.63 493.611 1553.28 494.063 1553 489L1559 490L1557 486L1574 479C1576.15 482.65 1587.55 489.422 1590.87 483.372C1592.47 480.454 1589.28 477.365 1592.4 474.603C1595.94 471.47 1601.81 472.555 1605.7 469.095C1609.36 465.839 1609.7 459.884 1613 456L1613 455L1605 447L1615 435L1610 431C1615.77 428.087 1614.36 422.532 1616 417L1615 415C1608.81 415.989 1595.87 419.041 1592 413L1596 415C1596.79 404.772 1577.41 410.812 1582 397C1572.15 391.15 1582.98 376.688 1576 369L1575 372L1574 372L1572 351L1566 352L1568 337L1564 340C1564.81 332.132 1575.77 331.892 1582 329L1586 332C1586 323.073 1599.53 316.516 1606 311.667C1609.69 308.901 1610.93 304.827 1614.83 302.167C1619.31 299.12 1621.28 294.161 1627 296C1627.58 293.289 1627.77 292.605 1625 292L1625 291C1639.53 288.782 1629.46 279.563 1626 273L1632 272C1630.53 267.812 1626.97 268.168 1623 268L1623 267L1626 267C1624.44 262.599 1622.65 260.761 1618 260L1618 255L1615 256C1614.33 251.672 1614.71 249.581 1619 248L1619 247L1606 252L1609 245L1596 248L1596 245L1603 237C1595.22 236.411 1587.81 235.983 1581 240L1584 236L1584 235L1580 236C1573.17 230.59 1561.06 238.618 1553 239.314C1541.79 240.283 1528.97 243.264 1518 243.187C1512.32 243.147 1506.68 240.158 1501.09 239.438C1492.2 238.292 1482.33 241.439 1474 244L1466.62 240.308L1467 231L1452 236L1451 236L1453 226C1445.03 222.528 1437.15 228.895 1430 232L1434 225L1418 228L1418 225L1397.96 224.741L1388 226C1383.02 227.392 1380.39 228.8 1379 234C1375.76 228.582 1376.43 220.948 1378 215L1375 214L1375 212C1380.87 208.766 1389.17 201.523 1391 195L1394 196C1395.76 192.241 1403.17 183.476 1400 180L1400 179L1416.28 160L1419.47 134L1431.75 116L1438 91C1431.25 86.0779 1425.45 83.1651 1418 88C1416.21 79.6709 1403.73 95.0714 1401.22 97.3611C1388.22 109.228 1371.06 117.328 1368 137L1361 133L1358 152C1351.38 143.653 1352.35 146.133 1342 148L1343 143L1338 147L1336 146L1332 149L1330 121L1312 128L1311 125L1300 129L1295 131L1293 135L1291 131L1287.28 145.451L1276 156L1275 156L1274 151L1263 151L1260 156L1259 156L1254 136C1243.53 138.572 1244.03 133.643 1237 127L1226.18 127.042L1215 135L1208 130L1209 136L1199 131L1194 133L1198 152L1197 152L1193 148C1192.24 158.84 1194.93 164.23 1182 164C1177.4 173.251 1164.92 164.857 1162 177L1157 176L1157 165L1155 165L1154 168L1152 168L1154 155L1153 155L1147 159L1148 165L1141 160C1138.28 169.807 1140.58 176.419 1132 184L1133 177L1126 176L1131.62 162.985L1133 149L1132 149L1118 169L1120 161L1115 162L1121 147C1117.95 147.654 1118.06 149.006 1118 152L1115 152L1121 121L1116 123L1113 120L1113 119L1122 119L1122 115L1126 116L1133 105L1134 105L1136 107L1139 104L1139 103L1142 77L1123 85L1119 93L1117.59 69L1123.32 53L1120 34L1111 38L1111 34L1108 40L1106 40C1106.3 32.9714 1107.72 25.2264 1098 28L1101 24L1093 15L1087 24L1087 17L1085 17L1083 22L1080 21L1078 26C1074.4 23.9811 1073.31 22.1016 1073 18L1066 28L1065 16L1065 15C1059.88 17.7573 1060.24 22.8424 1059 28L1058 28C1059.31 20.635 1058.22 1.60022 1049 0L1050 8L1046 6L1045 6L1039 17L1039 0L1002 0L1001 22L1000 22C999.955 17.0138 999.528 12.7798 995 10C996.479 18.3387 995.083 27.7225 988 33L989 7L988 7L986 14L982 25L979 24L980 17C973.085 19.1052 977.484 27.1617 976 33C965.851 34.6421 962.371 46.391 956 53L957 47L950 53C945.98 47.4943 944.277 43.842 945 37C937.786 37.5573 937.37 44.1844 935 50L934 50L932 37L926 48L926 41L920 52L918 37L904 40L905 37C899.51 36.282 889.833 33.8794 887 29L884 31L883 21L886 22C884.943 18.5084 883.582 17.568 880 17C878.505 27.4691 880.378 36.8921 883 47L876.679 37.7461L867 26L853 25L852 25L847 31C844.772 27.3518 842.317 25.5581 838 26L841 32L835 32L833 25C829.994 29.6432 832.558 39.8651 837 43L836 48L826.888 38.5872L809 23L809 30L800 27L807 40L801 40L801 35L800 35L800 44L792 44L790 37L789 37L789 48L785 48L784 39L779 33L767 47L769 39L755 60C755.957 54.4247 753.39 52.8041 749 50L748 50C741.897 56.0995 738.609 48.0464 732 47C733.452 54.0358 735.752 55.8621 729 61L730 65L732 62L732 68L725 63L731 76C725.094 75.0786 722.269 70.1861 720 65C715.017 65.8444 709.698 75.8027 707 67C701.101 70.8242 706.374 80.0048 705 86L700 80L699 85C693.798 80.3199 694.186 75.445 695 69L687 76L686 55L682 56L684 44L683 44L683 46L682 46L690 0L688 2L670 0L628 0z"/>
<path style="fill:#fcfcfc; stroke:none;" d="M687.333 0.666626L687.667 1.33337L687.333 0.666626M690 0L682 46L683 46L683 44L684 44L682 56L686 55L687 76L695 69C693.896 74.9459 693.109 81.4913 699 85L700 80L705 86L707 67C708.652 76.8895 715.598 66.3545 720 65C721.555 70.7668 724.774 75.5255 731 76L725 63L732 68L732 62L730 65L729 61C736.862 56.9727 734.285 53.6676 732 47C737.994 48.7059 742.879 57.4613 748 50L749 50C752.676 53.2787 755.281 54.6088 755 60L769 39L767 47L779 33L784 39L785 48L789 48L789 37L790 37L792 44L800 44L800 35L801 35L801 40L807 40L800 27L809 30L809 23L826.877 39.4136L836 48L837 43C832.916 38.646 830.9 30.6134 833 25L835 32L841 32L838 26L847 31L852 25L853 25L867 26L876.093 37.75L883 47L880 17L886 22L883 21L884 31L887 29C889.097 34.3267 899.556 36.6383 905 37L904 40L918 37L920 52L926 41L926 48L932 37L934 50L935 50C938.018 44.619 937.973 38.1111 945 37C943.827 43.6135 945.096 48.2687 950 53L957 47L956 53L976 33C978.151 27.0592 973.794 20.2035 980 17L979 24L982 25L986 14L988 7L989 7L988 33C995.681 29.2113 996.794 17.6233 995 10C998.739 13.4677 999.879 16.9716 1000 22L1001 22L1002 0L690 0M1039 0L1039 17L1045 6L1046 6L1050 8L1049 0L1046 0L1046 4L1045 4L1044 0L1039 0z"/>
<path style="fill:#040404; stroke:none;" d="M1044 0L1045 4L1046 4L1046 0L1044 0z"/>
<path style="fill:#fcfcfc; stroke:none;" d="M1053 0L1058 28L1059 28L1065 15L1065 16L1063 17L1066 28L1073 18C1073.14 22.3019 1073.82 24.4624 1078 26L1080 21L1083 22L1085 17L1087 17L1087 24L1093 15L1101 24L1098 28C1107.28 26.1399 1106.14 32.8417 1106 40L1108 40L1111 34L1111 38L1120 34L1122.84 53L1117.31 69L1119 93L1123 85C1130.46 86.7063 1135.79 79.951 1142 77L1139 103L1139 104L1136 107L1134 105L1133 105L1126 116L1122 115L1122 119L1113 119L1113 120L1116 123L1121 121L1115 152L1118 152L1121 147L1115 162L1120 161L1118 169C1125.5 163.328 1128.15 157.297 1132 149L1133 149L1131.57 162.166L1126 176L1133 177L1132 184C1141.8 178.513 1138.99 169.101 1141 160L1148 165L1147 159L1153 155L1154 155L1152 168L1154 168L1155 165L1157 165L1157 176L1162 177C1166.34 165.929 1179.19 173.465 1182 164C1195.28 164.561 1192.78 159.399 1193 148L1197 152L1198 152L1194 133C1196.95 133.746 1198.31 134.197 1199 131L1209 136L1208 130L1215 135L1226.67 127.206L1237 127C1242.89 134.708 1243.93 139.618 1254 136L1259 156L1260 156L1263 151L1274 151L1275 156L1276 156L1287.83 145.451L1291 131L1293 135L1295 131L1300 129L1311 125L1312 128L1330 121L1332 149L1336 146L1338 147L1343 143L1342 148L1353.57 145.877L1358 152L1361 133L1368 137C1374.55 117.475 1388.08 110.386 1402.13 97.3348C1405.33 94.3668 1413.69 82.351 1418 88C1426.58 84.1021 1429.91 86.8965 1438 91L1432.18 113.999L1419.63 133L1416.4 158L1406.84 170.286L1400 179L1400 180L1394 196L1391 195L1375 212L1375 214L1378 215C1376.06 220.332 1374.79 229.708 1379 234C1380.9 229.257 1383.49 227.958 1388 226L1398 225.248L1418 225L1418 228L1434 225L1430 232C1438.05 229.834 1444.14 223.544 1453 226L1451 236L1452 236L1467 231C1465.38 242.448 1466.88 237.517 1474 244C1482.78 242.333 1490.99 239.326 1500.17 239.723C1506.14 239.982 1511.99 243.686 1518.09 243.569C1528.83 243.363 1540.97 240.57 1552 239.714C1560.6 239.046 1572.19 231.455 1580 236L1584 235L1584 236L1581 236L1581 240L1603 237L1596 245L1596 248L1609 245L1606 252L1619 247L1619 248C1614.2 249.048 1613.98 251.548 1615 256L1618 255L1618 260C1621.17 260.853 1626.7 263.592 1623 267L1623 268L1632 272L1626 273C1628.34 280.197 1639.04 287.186 1625 291L1625 292L1628 292L1627 296L1625 294L1624 294C1613.99 301.842 1604.67 309.868 1595.59 318.68C1591.02 323.114 1586.23 325.132 1586 332L1582 329C1575.99 330.899 1563.28 332.419 1564 340L1568 337L1566 352L1572 351L1574 372L1575 372L1576 369C1581.39 376.974 1571.76 393.02 1582 397C1575.57 410.687 1596.17 405.29 1596 415L1592 413C1593.35 419.287 1610.43 416.594 1615 415L1616 417L1610 431L1615 435L1605 447L1613 455L1613 456C1608.82 459.473 1609.44 464.802 1605.7 468.39C1601.65 472.272 1595.21 471.198 1591.59 474.603C1588.67 477.35 1591.98 480.702 1590.1 483.267C1586.06 488.766 1576.83 482.179 1574 479L1557 486L1559 490L1553 489C1552.53 494.359 1555.63 494.018 1560 493L1556 503L1565 515C1564.73 522.803 1575.68 525.306 1582 527L1581 540L1580 540L1579 538L1583.19 550L1582 576C1575.27 576.05 1541.68 559.75 1549 579L1550 579L1552 574L1553 586L1552 586L1545 583L1547 595L1541 595L1553.67 609.174L1553.74 616.961L1574.65 644L1579.4 659.089L1592 690L1588 691C1589.48 694.529 1591.06 699.249 1586 700L1577 712L1576 712C1569.45 704.545 1559.25 701.989 1552.16 695.247C1545.27 688.696 1543.96 679.095 1535 674.265C1530.25 671.709 1517.21 667.694 1514.33 675.044C1512.43 679.873 1519.01 680.342 1521.43 682.588C1524.06 685.039 1523.96 688.692 1524 692L1532 694L1532 696L1523 698L1523 700L1533 703L1532 706L1536 710C1541.86 709.094 1543.38 712.209 1548 715L1548 716L1525 717L1525 720C1518.4 721.058 1512.42 726.005 1505.87 727.358C1502.63 728.027 1498.67 723.981 1495.66 726.099C1491.59 728.968 1499.83 729.181 1501 729L1506 738L1498 739L1498 740L1511 749L1511 750L1502 752C1507.55 753.997 1508.68 759.398 1502 761.207C1495.25 763.031 1482.16 755.1 1477 761L1473 760L1474 764L1471 765L1472 759C1468.3 759.789 1468.14 762.714 1469 766C1464.33 767.171 1447.74 768.767 1453 775L1452 780L1438 784C1440.28 785.955 1442.81 791.5 1446.02 791.67C1449.15 791.836 1453.68 787.822 1457 787.001C1470.17 783.749 1502.38 778.423 1509 794L1513 796C1508.56 796.946 1508.32 807.934 1509 812L1502 811L1502 817L1505 816C1503.64 824.383 1499.2 827.463 1496.06 835C1494.97 837.626 1496.51 840.859 1494.53 843.102C1492.08 845.874 1487.86 847.194 1485.15 849.884C1478.05 856.93 1479.28 861.542 1467 861L1466 864L1471 868C1461.09 868.607 1457.94 880.097 1457 888L1454 882L1453 882L1452 889L1448 888L1448 890L1439 889C1437.19 894.536 1439.86 907.161 1443 912C1436.39 913.984 1433.83 909.007 1428 907L1423 916L1423 910L1419 913L1418 909L1417 909L1416 913C1405.8 909.908 1405.01 917.451 1407 926L1400 919L1405 946L1407 950L1398 945L1398 953L1385 947C1386.77 954.443 1385.5 957.963 1378 960C1374.46 950.672 1365.44 953.657 1359 957L1360 961L1345 958L1339 969L1336 959L1334 959C1329.45 974.156 1321.53 957.774 1320 951C1312.16 948.672 1311 935.769 1308 929L1303 929C1299.96 932.884 1299.44 935.136 1300 940L1306 939C1300.69 946.752 1305.1 948.078 1306.72 956C1308.48 964.568 1309.77 974.395 1311 983L1312 983L1313 981L1316 988C1307.3 979.964 1299.93 976.245 1298 963L1296 963L1292 972L1289 950L1286 951C1286.17 956.412 1283 957.737 1278 957L1279 961C1284.32 961.58 1288 967.822 1284 972L1284 968L1281 973L1277 972L1280 968L1280 967C1265.75 960.73 1274.63 944.283 1261 937L1267 948L1264 951L1257 951C1261.11 959.413 1264.46 963.173 1273 967L1273 968L1278 994L1277 994L1268 977C1264.3 979.696 1267.13 983.046 1265.05 986.481C1263.61 988.852 1260.05 988.048 1259.48 991.232C1257.96 999.841 1265.27 1012.24 1251 1005L1248 1019L1247 1019L1246 1015L1240 1014L1244 1034L1237 1024L1236 1024L1236 1048C1230.57 1041.88 1232.56 1032.65 1230.7 1025.17C1228.89 1017.86 1224.53 1011.08 1220.52 1004.83C1217.81 1000.6 1217.36 997.17 1212 996L1212 1012L1202 1004L1201 1008L1200 1008L1201 1001C1194.17 1002.65 1189.18 979.417 1187 973L1186 973L1182 980C1185.66 983.329 1185.48 991.549 1181 994L1178 987L1172 993L1168 990C1167.43 993.883 1165.55 998.044 1166.32 1002C1167.89 1010.05 1174.89 1013.8 1169 1022C1168.06 1016.53 1158.01 1013.18 1164 1008L1164 1007L1156 1001L1155 1001L1155 1004L1154 1004C1155.42 999.129 1161.73 991.719 1154 989L1155 999L1154 999C1151.49 986.968 1140.47 974.686 1130 969C1127.49 979.678 1140.33 1000.97 1132 1008L1129 1005L1129 1012C1122.37 1006.83 1120.79 997.637 1118 990C1111.83 992.936 1107.44 999.385 1106 1006C1098.01 1001.93 1079.76 1015.3 1080.11 1024C1080.97 1045.22 1094.74 1052.99 1107.71 1067.19C1110.84 1070.63 1108.75 1077.38 1113.23 1079.4C1118.38 1081.72 1127.41 1080 1133 1080L1180 1080L1344 1080L1920 1080L1920 0L1053 0z"/>
<path style="fill:#040404; stroke:none;" d="M978 9L978 12L980 12L980 9L978 9z"/>
<path style="fill:#fcfcfc; stroke:none;" d="M985 15L986 16L985 15M1095 16L1096 17L1095 16z"/>
<path style="fill:#040404; stroke:none;" d="M891.667 19.3334L892.333 19.6666L891.667 19.3334z"/>
<path style="fill:#fcfcfc; stroke:none;" d="M1096 21L1096 24L1098 23L1098 22L1096 21M1038 22L1039 23L1038 22z"/>
<path style="fill:#040404; stroke:none;" d="M616 23L617 24L616 23M888.667 23.3334L889.333 23.6666L888.667 23.3334M1106.67 23.3334L1107.33 23.6666L1106.67 23.3334z"/>
<path style="fill:#fcfcfc; stroke:none;" d="M999 25L996 36C1000.94 34.4543 1003.88 28.4642 999 25M802 28L803 29L802 28M849 33C853.097 33.5992 854.368 31.9667 855 28L849 33M861 28L866 32L861 28M1074.67 31.3334L1075.33 31.6666L1074.67 31.3334M976 33L976 36L978 36L978 33L976 33z"/>
<path style="fill:#040404; stroke:none;" d="M905.667 35.3334L906.333 35.6666L905.667 35.3334z"/>
<path style="fill:#fcfcfc; stroke:none;" d="M1032 35L1033 36L1032 35z"/>
<path style="fill:#040404; stroke:none;" d="M760 37L763 40L760 37z"/>
<path style="fill:#fcfcfc; stroke:none;" d="M779 37L780 38L779 37M980.667 37.3334L981.333 37.6666L980.667 37.3334z"/>
<path style="fill:#040404; stroke:none;" d="M796 39L797 40L796 39z"/>
<path style="fill:#fcfcfc; stroke:none;" d="M985 39L986 40L985 39M1073 39L1074 40L1073 39M903 40C901.702 42.1846 901.789 42.6934 904 44L903 40M808.667 43.3334L809.333 43.6666L808.667 43.3334z"/>
<path style="fill:#040404; stroke:none;" d="M952.667 43.3334L953.333 43.6666L952.667 43.3334z"/>
<path style="fill:#fcfcfc; stroke:none;" d="M992 43L992 45L994 43L992 43M883 47L884 48L883 47M749 53L749 58L750 58L749 53M933 55L934 56L933 55z"/>
<path style="fill:#040404; stroke:none;" d="M711 62L710 68C712.535 66.2225 712.972 64.4505 711 62M702.667 63.3333L703.333 63.6667L702.667 63.3333z"/>
<path style="fill:#fcfcfc; stroke:none;" d="M737 69L738 72L739 72L737 69z"/>
<path style="fill:#040404; stroke:none;" d="M700 70L697 76C699.751 74.3846 701.513 73.0939 700 70z"/>
<path style="fill:#fcfcfc; stroke:none;" d="M712.667 72.3333L713.333 72.6667L712.667 72.3333z"/>
<path style="fill:#040404; stroke:none;" d="M1144 76L1147 76L1146 74L1144 76z"/>
<path style="fill:#fcfcfc; stroke:none;" d="M713 80L714 80L717 76C713.799 75.3202 712.941 77.0086 713 80z"/>
<path style="fill:#040404; stroke:none;" d="M1123 77L1122 80L1123 77z"/>
<path style="fill:#fcfcfc; stroke:none;" d="M1113 89L1112 96L1114 96L1113 89M1124 89L1125 90L1124 89M590 95L591 96L590 95M604 95L605 96L604 95M1120.67 97.3333L1121.33 97.6667L1120.67 97.3333z"/>
<path style="fill:#040404; stroke:none;" d="M506.667 107.333L507.333 107.667L506.667 107.333z"/>
<path style="fill:#fcfcfc; stroke:none;" d="M695 120L694 120L694 117L693 117L691 132L695 132L690 140L695 142L698 140C685.267 156.555 696.076 167.273 708.424 179.616C713.273 184.462 717.835 190.869 725 192L725 196L728 195L728 200L732 196L732 195L725 183L724 191L716 184L716 177L712 178L712 177L715 176L709 166L724 176L740 177C740.857 184.613 750.165 189.297 757 186L757 185C754.388 180.307 755.432 177.688 761 179L761 169C765.431 171.643 775.24 181.155 779.995 181.249C784.078 181.33 783.555 176.371 784.451 173.714C787.572 164.465 786.102 161.305 784 152L782 152C780.108 168.975 765.387 156.722 757 153.89C744.682 149.732 730.705 141.903 721.188 132.775C715.236 127.067 708.319 113.193 699.915 110.89C694.845 109.501 695.027 116.992 695 120M689 133L690 134L689 133z"/>
<path style="fill:#040404; stroke:none;" d="M557 135L559 138L557 135z"/>
<path style="fill:#fcfcfc; stroke:none;" d="M688 135L689 136L688 135M1111 135L1112 136L1111 135z"/>
<path style="fill:#040404; stroke:none;" d="M698.667 139.333L699.333 139.667L698.667 139.333M1263 140L1261 150L1266 140L1263 140z"/>
<path style="fill:#fcfcfc; stroke:none;" d="M490 145L488 147L488 148L492 145L490 145M1417.33 145.667L1417.67 146.333L1417.33 145.667M564.333 146.667L564.667 147.333L564.333 146.667M1099 146L1099 148L1101 148L1099 146z"/>
<path style="fill:#040404; stroke:none;" d="M479.667 147.333L480.333 147.667L479.667 147.333M1191 148L1191 151L1192 151L1191 148M1123 153L1122 156L1123 153M695 159L696 160L695 159M704 163L707 166L704 163z"/>
<path style="fill:#fcfcfc; stroke:none;" d="M1111 163L1112 164L1111 163M1108 165L1105 173C1109.04 171.453 1109.77 169.181 1110 165L1108 165M1114 177L1112 185C1115.07 182.997 1115.12 180.376 1114 177M1101 178L1099 179L1099 180L1101 178z"/>
<path style="fill:#040404; stroke:none;" d="M413 186L414 189L420 186L413 186z"/>
<path style="fill:#fcfcfc; stroke:none;" d="M785 185L785 190C787.369 188.171 786.927 187.115 785 185z"/>
<path style="fill:#040404; stroke:none;" d="M410 189L410 195L411 195L412 189L410 189z"/>
<path style="fill:#fcfcfc; stroke:none;" d="M756 189L760 192L756 189z"/>
<path style="fill:#040404; stroke:none;" d="M379 190L378 192L380 192L379 190z"/>
<path style="fill:#fcfcfc; stroke:none;" d="M478 190L478 194L480 194L480 190L478 190M785 191L786 192L785 191M1126 191L1127 196L1129 191L1126 191z"/>
<path style="fill:#040404; stroke:none;" d="M361 196L361 200L362 200L361 196z"/>
<path style="fill:#fcfcfc; stroke:none;" d="M478 197L479 198L478 197M480 201L480 204L481 204L480 201M732 203L733 204L732 203M479 205L479 211L480 211L479 205z"/>
<path style="fill:#040404; stroke:none;" d="M359 207L360 208L359 207M336.667 215.333L337.333 215.667L336.667 215.333z"/>
<path style="fill:#fcfcfc; stroke:none;" d="M1374 215L1375 218L1376 218L1374 215M1373 217L1372 220L1375 220L1373 217z"/>
<path style="fill:#040404; stroke:none;" d="M451 221L452 224L453 224L451 221M320 227L320 230L323 230L323 227L320 227z"/>
<path style="fill:#fcfcfc; stroke:none;" d="M1412 227L1413 228L1412 227M473 231L478 236L473 231z"/>
<path style="fill:#040404; stroke:none;" d="M1587.67 231.333L1588.33 231.667L1587.67 231.333z"/>
<path style="fill:#fcfcfc; stroke:none;" d="M455 235L458 240L455 235M466 237L466 240L467 240L466 237M1596 238L1597 239L1596 238M1591 246L1588 252L1591 248L1594 250L1591 246z"/>
<path style="fill:#040404; stroke:none;" d="M1616 251L1617 252L1616 251z"/>
<path style="fill:#fcfcfc; stroke:none;" d="M335 256L340 265L344 264L335 256M345 256L346 260L347 260L345 256M336 267L337 268L336 267M1625 281L1626 282L1625 281z"/>
<path style="fill:#040404; stroke:none;" d="M338 286L338 288L340 288L340 286L338 286M329 299L330 300L329 299z"/>
<path style="fill:#fcfcfc; stroke:none;" d="M323 313L324 314L323 313z"/>
<path style="fill:#040404; stroke:none;" d="M303 331L304 332L303 331z"/>
<path style="fill:#fcfcfc; stroke:none;" d="M1561 339L1562 340L1561 339M303 342L302 344L304 344L303 342z"/>
<path style="fill:#040404; stroke:none;" d="M295 343L296 344L295 343z"/>
<path style="fill:#fcfcfc; stroke:none;" d="M296 349L298 352L296 349M1571 353L1572 354L1571 353z"/>
<path style="fill:#040404; stroke:none;" d="M1574 355L1575 356L1574 355M282.333 366.667L282.667 367.333L282.333 366.667M1580 369L1580 374L1581 374L1582 369L1580 369z"/>
<path style="fill:#fcfcfc; stroke:none;" d="M292 375L293 376L292 375z"/>
<path style="fill:#040404; stroke:none;" d="M282.667 379.333L283.333 379.667L282.667 379.333z"/>
<path style="fill:#fcfcfc; stroke:none;" d="M292.333 381.667L292.667 382.333L292.333 381.667z"/>
<path style="fill:#040404; stroke:none;" d="M278 395L278 396L282 394L278 395M1598.67 411.333L1599.33 411.667L1598.67 411.333M1617 423L1618 424L1617 423z"/>
<path style="fill:#fcfcfc; stroke:none;" d="M370 425C370.654 428.054 372.007 427.936 375 428L370 425M377 427L377 428L380 428L377 427M383 427L384 428L383 427M388 429L391 432L388 429z"/>
<path style="fill:#040404; stroke:none;" d="M277 432L276 436L277 432z"/>
<path style="fill:#fcfcfc; stroke:none;" d="M396 435L397 436L396 435M282 439L285 443L282 439M362 443L363 444L362 443M283 445L284 446L283 445z"/>
<path style="fill:#040404; stroke:none;" d="M1594 483L1595 484L1594 483z"/>
<path style="fill:#fcfcfc; stroke:none;" d="M304 489L304 493L305 493L306 489L304 489M308 492L313 490L308 492M298.333 496.667L298.667 497.333L298.333 496.667M312 497C314.904 503.03 319.723 505.449 320 497L312 497M1555 504L1556 505L1555 504z"/>
<path style="fill:#040404; stroke:none;" d="M285 531L286 532L285 531M283 549L282 552L283 549z"/>
<path style="fill:#fcfcfc; stroke:none;" d="M326 579L327 580L326 579z"/>
<path style="fill:#040404; stroke:none;" d="M1548.33 594.667L1548.67 595.333L1548.33 594.667z"/>
<path style="fill:#fcfcfc; stroke:none;" d="M308 599L309 600L308 599M304 603L305 604L304 603M308 605L309 606L308 605M309 607L310 608L309 607M1549 611L1550 612L1549 611z"/>
<path style="fill:#040404; stroke:none;" d="M286 617L287 618L286 617z"/>
<path style="fill:#fcfcfc; stroke:none;" d="M310 619L311 620L310 619M309 645L311 648L309 645z"/>
<path style="fill:#040404; stroke:none;" d="M295 655L296 656L295 655M275 671L276 672L275 671z"/>
<path style="fill:#fcfcfc; stroke:none;" d="M290.667 671.333L291.333 671.667L290.667 671.333M1512.67 671.333L1513.33 671.667L1512.67 671.333M1509 674L1510 675L1509 674z"/>
<path style="fill:#040404; stroke:none;" d="M1523 681L1524 682L1523 681z"/>
<path style="fill:#fcfcfc; stroke:none;" d="M1500 695L1500 696L1503 696L1500 695M233 698L235 700L235 698L233 698M1521 699L1522 700L1521 699M283 704L287 708L283 704M303 720L310 728L312 728L315 725C312.472 720.536 307.605 721.122 303 720M316 724C316.088 731.443 318.783 733.314 326 732L326 731L321 725L316 724M1501 733L1502 734L1501 733M1457 759L1457 760L1468 760L1468 759L1464 761L1457 759M234 760L237 764L234 760z"/>
<path style="fill:#040404; stroke:none;" d="M1478.67 763.333L1479.33 763.667L1478.67 763.333z"/>
<path style="fill:#fcfcfc; stroke:none;" d="M238 767L238 770L240 769L240 768L238 767M1423 768L1430 776L1430 775L1423 768M1447 771L1448 772L1447 771M240.667 775.333L241.333 775.667L240.667 775.333M234 777L235 778L234 777M233 779L234 780L233 779M1435 779L1438 782L1435 779z"/>
<path style="fill:#040404; stroke:none;" d="M1511 791L1512 792L1511 791z"/>
<path style="fill:#fcfcfc; stroke:none;" d="M1507 799L1508 800L1507 799M287 811L288 812L287 811z"/>
<path style="fill:#040404; stroke:none;" d="M1506.67 825.333L1507.33 825.667L1506.67 825.333M1505 829L1506 830L1505 829M1504 832L1505 833L1504 832z"/>
<path style="fill:#fcfcfc; stroke:none;" d="M1478 853L1480 856L1480 853L1478 853M304 866L302 867L302 868L304 866M1460.33 871.667L1460.67 872.333L1460.33 871.667z"/>
<path style="fill:#040404; stroke:none;" d="M281 874L281 878L285 878L281 874z"/>
<path style="fill:#fcfcfc; stroke:none;" d="M336 879L337 880L336 879M612 879L612 881L614 879L612 879M299 883L300 884L299 883M612 885L613 886L612 885M1433.67 891.333L1434.33 891.667L1433.67 891.333z"/>
<path style="fill:#040404; stroke:none;" d="M1447 891L1448 892L1447 891M604 895L604 900L605 900L604 895M599 899L600 900L599 899z"/>
<path style="fill:#fcfcfc; stroke:none;" d="M589.333 910.667L589.667 911.333L589.333 910.667z"/>
<path style="fill:#040404; stroke:none;" d="M1408 917L1410 922L1408 917M1420.67 919.333L1421.33 919.667L1420.67 919.333M1434 919L1435 920L1434 919z"/>
<path style="fill:#fcfcfc; stroke:none;" d="M1395 920L1395 924L1396 924L1395 920z"/>
<path style="fill:#040404; stroke:none;" d="M1429 923L1429 926L1430 926L1431 923L1429 923z"/>
<path style="fill:#fcfcfc; stroke:none;" d="M1300.33 926.667L1300.67 927.333L1300.33 926.667z"/>
<path style="fill:#040404; stroke:none;" d="M351 927L352 928L351 927z"/>
<path style="fill:#fcfcfc; stroke:none;" d="M1400 929L1401 930L1400 929M1296 931L1296 932L1299 933L1296 931M573 935L574 936L573 935M583 935L583 937L585 937L585 935L583 935M662 935L663 936L662 935M353 941L354 942L353 941M1383.33 942.667L1383.67 943.333L1383.33 942.667M367 951L368 952L367 951M1168.67 951.333L1169.33 951.667L1168.67 951.333M1330 951L1331 952L1330 951z"/>
<path style="fill:#040404; stroke:none;" d="M1263 952L1263 956L1264 956L1265 952L1263 952M1316.33 952.667L1316.67 953.333L1316.33 952.667z"/>
<path style="fill:#fcfcfc; stroke:none;" d="M373 953L372 956L373 953z"/>
<path style="fill:#040404; stroke:none;" d="M1387 953L1389 956L1387 953z"/>
<path style="fill:#fcfcfc; stroke:none;" d="M1379 957L1382 954L1379 957M1049 955L1049 956L1053 956L1049 955z"/>
<path style="fill:#040404; stroke:none;" d="M1399.67 955.333L1400.33 955.667L1399.67 955.333z"/>
<path style="fill:#fcfcfc; stroke:none;" d="M385 956L384 960L385 956M1329 956L1328 960L1329 960L1329 956M1250 962L1249 966L1253 963L1250 962z"/>
<path style="fill:#040404; stroke:none;" d="M1344 963L1344 967L1345 967L1344 963z"/>
<path style="fill:#fcfcfc; stroke:none;" d="M364 964L365 965L364 964M1237 972L1242 972L1241 969L1237 972z"/>
<path style="fill:#040404; stroke:none;" d="M1338 970L1339 974L1340 974L1340 970L1338 970z"/>
<path style="fill:#fcfcfc; stroke:none;" d="M1144.67 971.333L1145.33 971.667L1144.67 971.333M1264.67 971.333L1265.33 971.667L1264.67 971.333M1159 973L1160 978L1161 978L1159 973M513.333 974.667L513.667 975.333L513.333 974.667M665 974L646 998C651.959 994.998 665.944 980.882 665 974M518 976L519 977L518 976M1174 984L1172 977C1166.5 978.844 1169.16 983.782 1174 984z"/>
<path style="fill:#040404; stroke:none;" d="M1295.33 977.667L1295.67 978.333L1295.33 977.667z"/>
<path style="fill:#fcfcfc; stroke:none;" d="M1263 978L1264 979L1263 978M1175.67 979.333L1176.33 979.667L1175.67 979.333M1251.33 979.667L1251.67 980.333L1251.33 979.667M1258.67 979.333L1259.33 979.667L1258.67 979.333M1161 980L1162 984L1163 984L1161 980M1222 983L1223 984L1222 983M1263 983L1264 984L1263 983M1256 984L1255 993L1256 993L1259 985L1258 984L1256 984M1166 985L1167 990L1168 990L1166 985M406 987L407 988L406 987M644 987L645 988L644 987M1205 987L1204 992L1207 987L1205 987M979 989L978 992L981 992L979 989z"/>
<path style="fill:#040404; stroke:none;" d="M1267 990L1265 996L1270 996L1269 990L1267 990z"/>
<path style="fill:#fcfcfc; stroke:none;" d="M986 991L987 992L986 991z"/>
<path style="fill:#040404; stroke:none;" d="M1277 995L1278 998L1279 998L1280 995L1277 995z"/>
<path style="fill:#fcfcfc; stroke:none;" d="M934 997L934 1000L936 1000L936 997L934 997z"/>
<path style="fill:#040404; stroke:none;" d="M1190.67 997.333L1191.33 997.667L1190.67 997.333z"/>
<path style="fill:#fcfcfc; stroke:none;" d="M979 999L980 1010L975 1011L978 1024L973 1016C967.133 1021.76 969.349 1034.39 967 1042L965 1037L960 1038L960 1026L955 1029C953.494 1025.33 952.041 1023.85 948 1024L944 1019L947.827 1037L944 1060C936.895 1056.31 935.567 1044.09 943 1040L935 1029L934 1033C928.706 1028.31 934.016 1020.31 926 1019C928.681 1025.83 924.237 1027.49 918 1028L920 1023C911.595 1025.88 916.465 1039.12 914.712 1045.96C913.787 1049.57 911.094 1052.38 910 1056L903 1056L902 1055C905.956 1048.17 909.263 1045.25 909 1037L903 1036L900 1040L899 1026L898 1026L891 1033C893.492 1043.99 887.182 1047.14 881 1055L880 1055C878.244 1053.15 876.165 1053.5 875.19 1056.23C872.685 1063.23 875.115 1069.11 868 1074C870.933 1084.87 899.462 1080 909 1080L1040 1080L1037 1073L1045 1072C1041.79 1063.64 1041.6 1040.64 1030 1041L1031 1046L1024 1045C1025.34 1049.99 1028.93 1053.39 1025 1058L1026 1055L1022 1051L1014 1055L1017 1062L1010 1063L1010 1064L1013 1065C1007.9 1073.27 1002.4 1070.24 1004 1061L1000 1062C997.544 1056.65 991.71 1052.47 992.024 1046C992.549 1035.17 1000.81 1029.89 998.298 1018.91C997.407 1015.02 998.287 1012.42 994 1011L996 1016L984 1012C987.269 1005.28 987.894 999.78 979 999z"/>
<path style="fill:#040404; stroke:none;" d="M631 1014L632 1015L631 1014z"/>
<path style="fill:#fcfcfc; stroke:none;" d="M954 1014L952 1017L954 1014M941 1015L942 1016L941 1015M1234 1017L1235 1021L1236 1021L1234 1017M951 1019L952 1020L951 1019M954.667 1023.33L955.333 1023.67L954.667 1023.33z"/>
<path style="fill:#040404; stroke:none;" d="M1172 1026L1173 1027L1172 1026z"/>
<path style="fill:#fcfcfc; stroke:none;" d="M882 1027L883 1028L882 1027M1008 1027L1009 1028L1008 1027M1078 1036L1079 1029C1075.62 1030.88 1074.57 1033.53 1078 1036M1080 1030L1081 1031L1080 1030M783.667 1031.33L784.333 1031.67L783.667 1031.33M901.667 1031.33L902.333 1031.67L901.667 1031.33M1002 1031L1003 1032L1002 1031M1039.33 1034.67L1039.67 1035.33L1039.33 1034.67M1023 1035L1024 1040L1025 1035L1023 1035z"/>
<path style="fill:#040404; stroke:none;" d="M489 1036L489 1040L490 1040L489 1036z"/>
<path style="fill:#fcfcfc; stroke:none;" d="M1041 1038L1048.83 1055.01L1048 1080L1083 1078L1082 1068L1076 1075L1073 1075C1069.13 1068.93 1064.65 1069.79 1066 1061L1061 1067C1056.11 1064.33 1053.9 1061.02 1057 1056C1051.98 1048.52 1049.87 1041.73 1041 1038M879 1041L882 1039L879 1041M1026 1039L1027 1040L1026 1039M723 1041L723 1045L724 1045L723 1041M862 1041L861 1044L864 1044L862 1041M755 1042L752.403 1053L753 1074C747.387 1073.05 742.719 1073.76 742 1080L781 1080C785.998 1080 791.835 1081.39 794 1076L786 1065L794 1062L791 1065L796 1068L789 1049L788 1049C787.561 1054.71 787.704 1063.16 781 1065L774 1074L780 1061L770 1072L779 1052L779 1051C775.851 1049.91 774.739 1050.1 773 1053L769 1047L764 1051L764 1047L755 1042M786 1043L785 1048L788 1043L786 1043M808 1043L808 1046L809 1046L810 1043L808 1043z"/>
<path style="fill:#040404; stroke:none;" d="M487 1045L488 1046L487 1045z"/>
<path style="fill:#fcfcfc; stroke:none;" d="M816.667 1045.33L817.333 1045.67L816.667 1045.33M1066 1045L1066 1050C1069.87 1048.9 1069.26 1046.6 1066 1045M994 1047L994 1048L997 1048L994 1047M717 1050L714 1060L715 1060C717.201 1056.6 719.275 1053.75 717 1050z"/>
<path style="fill:#040404; stroke:none;" d="M1021.33 1056.67L1021.67 1057.33L1021.33 1056.67z"/>
<path style="fill:#fcfcfc; stroke:none;" d="M812 1057L812 1080C818.655 1078.57 814.476 1062.2 815 1057L812 1057M699 1059L700 1060L699 1059z"/>
<path style="fill:#040404; stroke:none;" d="M788.667 1059.33L789.333 1059.67L788.667 1059.33M879 1061L879 1064L881 1064L881 1061L879 1061z"/>
<path style="fill:#fcfcfc; stroke:none;" d="M1067 1061L1068 1062L1067 1061M1085 1061L1086 1080L1093 1080L1093 1077L1090 1078C1090 1072.88 1089.12 1067.8 1093 1064L1085 1061M861 1068C864.332 1068.64 865.842 1068.29 867 1065L861 1068z"/>
<path style="fill:#040404; stroke:none;" d="M943.667 1067.33L944.333 1067.67L943.667 1067.33z"/>
<path style="fill:#fcfcfc; stroke:none;" d="M1098 1069L1097 1080L1107 1080L1107 1079L1100 1069L1098 1069M858 1080L862 1080L865 1074C860.473 1073.32 859.398 1076.05 858 1080M794.667 1075.33L795.333 1075.67L794.667 1075.33M820 1076L818 1080C820.649 1079.43 821.355 1078.41 820 1076M828 1076L827 1080L831 1080L828 1076M802 1079L802 1080L806 1080L802 1079z"/>
<path style="fill:#040404; stroke:none;" d="M1072 1079L1073 1080L1072 1079z"/>
</svg>
