<?xml version="1.0" standalone="yes"?>
<svg xmlns="http://www.w3.org/2000/svg" width="1920" height="1080">
<path style="fill:#ffffff; stroke:none;" d="M0 0L0 1080L1920 1080L1920 0L0 0z"/>
<path style="fill:#020202; stroke:none;" d="M650 173L642 188C638.626 185.11 635.718 180.113 631 183L630 183L628 175L623 178L622 174L606 204C604.731 200.181 601.061 199.396 600.133 204.059C598.318 213.184 598.429 223.139 596 232L583 225L583 232L580 225C574.343 228.567 574.15 237.899 573 244L572 244C568.389 237.902 564.557 243.014 564 248L554 240L552 251L542 245L540 245L539 248L536 247L533 260C529.755 258.974 524.482 257.123 521.279 259.042C518.168 260.906 518.414 265.095 516.836 267.961C512.281 276.228 505.32 277.599 498 273L497 276L493 275L491 285L488 284L491 304L486 303C483.154 308.2 476.184 304.376 471 304L476 319L475 319L469 313C461.233 320.945 451.552 307.463 443 304C438.799 311.123 429.934 325.517 430.998 334C431.848 340.787 438.082 344.95 439 352L411 359L411 360L414 360C414.042 364.683 414.304 370.845 416.663 375C419.81 380.544 432.636 388.801 426 395L431 404L424 403C424.901 413.004 432.054 411.452 435.945 418.224C437.486 420.905 435.259 426.173 437 430L436 431L430 429C426.758 434.965 416.29 429.936 414.956 434.322C413.453 439.262 421.488 445.788 424.282 449C432.822 458.82 452.399 470.92 452 485L451 485C446.379 475.749 434.261 469.325 424 469L432 481C424.508 476.065 418.435 470.832 409 473C410.705 478.391 419.68 485.48 409 488L408 492L401 489C403.024 496.041 409.859 496.001 415 500L404 499L404 500L407.614 508.532L416 516L410 517L411 520L405 523C408.199 531.054 414.148 532.583 419.265 538.509C421.738 541.372 421.098 545.313 425.109 546.921C432.066 549.711 438.521 547.826 445.196 549.198C454.893 551.19 471.974 562.087 475.039 572.004C476.741 577.511 473.316 592.156 472 598C457.829 587.979 451.616 606.588 438 607L435 616L417 613L396 617C397.313 625.334 390.883 648.003 383 651L377.117 663.989L379 674L375 673C371.495 680.41 375.975 683.632 379 690L370 690C371.969 698.962 367.891 702.369 364 710L355 707L358 716L353 717C355.043 725.484 355.118 733.593 349.767 740.896C347.712 743.701 342.691 745.705 341.752 749.076C340.381 753.994 348.955 751.921 350.366 755.032C351.846 758.296 348.856 764.764 348 768C357.423 776.482 359.314 791.385 365.171 801.871C367.781 806.546 374.07 808.444 376.55 812.927C378.673 816.764 377.294 821.965 379.14 826C382.076 832.42 388.274 835.563 392.147 841.054C394.543 844.452 394.386 848.837 396.853 852.111C407.509 866.252 423.478 864.647 435 877C442.182 873.82 450.114 875.311 458 877.545C463.18 879.012 468.573 883.154 472 877C481.113 883.734 487.368 879.215 492 870L493 870L505.946 871.874L513.129 877.4L530 880L538 865L539 865C543.082 878.777 549.522 861.283 559 863C559.115 850.297 572.546 848.992 576 837C580.008 836.701 585.033 831.869 588.532 832.681C591.754 833.427 593.694 838.559 596.104 840.606C602.088 845.688 609.812 843.399 616 840C615.046 834.119 618.342 826.823 622.599 822.598C625.328 819.889 629.74 820.489 630.929 815.981C631.952 812.104 628.419 806.564 627 803C639.376 802.442 632.814 773.261 634.872 765.004C637.987 752.507 647.66 739.071 645.167 725C643.23 714.06 629.985 706.172 631.158 694C631.617 689.238 636.491 686.224 638.003 681.83C639.266 678.16 637.82 674.694 638.263 671C638.869 665.954 641.342 661.178 642 656L648 659L646 664C655.208 670.93 643.778 680.064 647 688L666 687C660.479 694.713 666.979 699.12 672.988 703.899C683.048 711.897 689.58 717.175 702 722L699 736C715.512 731.071 706.94 750.039 721 751C719.644 754.567 718.719 757.784 723 759C714.66 773.152 732.228 775.198 737.988 784.225C740.146 787.607 744.599 795.047 744.693 799.001C744.779 802.615 741.96 807.071 743.618 810.566C745.411 814.346 750.84 811.686 753.772 813.693C758.258 816.764 762.213 828.775 763 834C766.968 833.375 769.737 832.144 772 836L796 843.316L809 845.603L824 860L824 856L825 856L839 865L841 859L842 859L847.811 869.831L848 883C858.239 880.405 858.134 870.164 866.275 865.832C870.104 863.794 886.384 875.981 888 880L890 880C893.96 874.093 903.279 869.416 903 880C914.409 875.209 925.21 870.166 937.576 868.971C952.846 867.494 966.418 880.455 973 861C981.553 871.379 983.778 857.493 991.971 855.206C997.036 853.793 998.401 863.826 1003 857L1004 857C1009.55 868.522 1030.87 861.18 1039.96 855.992C1042.83 854.35 1044.21 850.972 1047.21 849.588C1051.43 847.64 1059.44 845.849 1064 847.144C1067.03 848.004 1069.57 851.747 1072.79 851.658C1075.36 851.588 1077.01 848.185 1079.1 847.009C1084.51 843.967 1089.13 841.324 1094.38 838.024C1106.94 830.122 1121.65 831.651 1118 812L1124 812L1123 805L1150 798C1153.06 790.243 1146.14 784.305 1144 777L1158.97 774.357L1164 765C1165.42 771.719 1171.44 778.601 1174.47 784.999C1175.38 786.916 1175.68 790.5 1177.6 791.696C1181.1 793.872 1187.66 793.402 1191.98 795.681C1201.16 800.529 1198.62 803.795 1210 801.108C1214.52 800.041 1218.88 803.39 1222 799C1226.56 801.403 1229.11 801.57 1233 798L1254 794.739L1280 796C1283.31 792.719 1287.08 794.259 1291 792.143C1297 788.898 1301.38 783.566 1307 779.849C1316.74 773.412 1325.86 773.569 1329 761L1336 762L1343.14 751.561L1345.45 743.514L1352 729L1356 730L1363.06 715.17L1370.81 687L1365.74 658L1369.45 621.999L1367 601L1373 606L1373 598L1374 598L1390 604L1396 593L1398 598L1414 596L1415 578L1420 580C1422.71 569.995 1429.93 564.154 1440 568L1442 565L1452 578L1458 578L1459 578L1461 572C1466.77 579.261 1472.22 586.649 1482 588L1480 579L1485 580C1489.32 574.797 1495.17 568.713 1493.02 561C1491.81 556.66 1487.58 553.657 1486.94 549.015C1486.33 544.646 1491.02 543.661 1491.75 539.896C1492.52 535.883 1488.6 532.329 1489 528L1494 528C1491.51 519.922 1496.19 504.962 1503 500L1507 479C1495.2 477.669 1503.52 466.29 1502.78 459.089C1502.37 455.122 1497.16 452.541 1499.13 448.105C1501.01 443.873 1507.13 443.72 1508.22 438.895C1510.02 430.881 1501.5 429.046 1499.4 423.698C1497.72 419.413 1502.67 414.702 1501.31 410.379C1498.91 402.744 1490.51 407.38 1485.75 405.334C1480.9 403.248 1478.4 398.695 1473 397L1475 391L1463 391C1463.5 386.407 1467.37 381.609 1466.47 377.019C1464.42 366.573 1441.6 372.698 1435 365L1445 364L1443 357L1450 352L1450 351L1446 348L1447 346C1440.87 341.811 1432.86 344.091 1433 335L1424 336L1431 324L1431 323C1425.63 316.301 1431.61 310.714 1432 303C1423.33 297.468 1421.63 292.739 1411 296L1414 287C1409.97 284.516 1410.29 282.136 1412 278L1403 280C1401.6 274.367 1399.04 271.488 1404 267L1404 265L1394 264L1392 246L1376 252L1377 245C1374.53 245.52 1371.55 247.065 1369.01 246.704C1356.02 244.855 1362.48 229.154 1363.74 222C1364.54 217.41 1362.81 212.405 1364.51 208C1366.1 203.883 1369.64 200.925 1371.53 197C1373 193.951 1372.36 190.28 1373 187L1364 190L1359 179L1348.13 186.488L1341.16 188.127L1333 200C1327.58 196.342 1322.74 192.302 1319 200L1311 200L1309 196C1304.91 196.978 1303.16 196.735 1301 193C1293.86 196.27 1279.37 203.6 1273 197L1257 211L1251 206L1250 211C1244.8 208.949 1243.26 202.338 1238.78 200.851C1228.35 197.393 1224.87 213.737 1225 220C1220.94 219.927 1214.02 218.066 1210.37 220.074C1205.62 222.682 1208.81 238.987 1208 244C1201.47 245.138 1205.5 254.516 1203 260L1192 255L1199 288C1195.59 285.142 1191.49 273.167 1187 280L1181 274C1179.07 279.493 1178.18 281.586 1172 281L1175 288L1171 287L1172 296C1162.92 298.406 1166 307.904 1169.9 314.532C1174.73 322.755 1185.66 324.486 1187.3 336C1188.58 344.988 1177.42 354.827 1176.72 364C1176.15 371.606 1184.99 376.635 1182 383L1182 384C1188.84 389.518 1198.73 387.315 1205.03 391.912C1211.21 396.426 1216.37 411.581 1215.54 419C1214.98 424.071 1211.83 426.512 1213 432L1217 430C1217.03 434.033 1220.76 446.206 1224 437C1226.85 440.061 1226.97 445.055 1228.59 448.961C1232.11 457.419 1237.54 458.671 1233 468L1216 467L1213 471L1216 480L1210 481L1210 484C1221.77 485.278 1211.19 489.424 1215.08 495.432C1216.66 497.871 1220.62 497.211 1222.86 498.734C1226.71 501.348 1226.09 505.956 1226 510C1236.11 509.318 1232.15 513.664 1230 521L1215 514C1211.49 516.304 1208.92 513.531 1205 513.773C1197.52 514.234 1181.28 517.303 1177.02 508.27C1175.65 505.368 1178.52 502.315 1177.38 499.209C1175.08 492.898 1170.89 489.947 1173.69 482.109C1176 475.624 1193.18 476.815 1198.91 472.366C1208.63 464.82 1204.6 455.672 1212 448L1212 447L1205 444L1209 440L1209 438C1204.19 436.682 1199.38 437.34 1195.46 433.622C1187.29 425.895 1191.8 415.625 1179 418C1178.31 411.868 1181.2 404.678 1179.49 399.015C1176.25 388.323 1156.49 389.783 1148 392L1152 384L1152 383L1147 382C1146.05 377.876 1145.24 372.802 1142.92 369.209C1140.92 366.123 1137.01 364.134 1136.93 359.996C1136.81 353.518 1147.14 351.337 1144.39 344.103C1140.21 333.114 1126.02 337.719 1129 325L1126 324C1128.87 318.519 1126.25 314.541 1120 316L1105 318C1102.14 313.095 1098.3 313.015 1093 313L1094 306C1088.65 304.477 1084.8 306.668 1080 309C1078.55 303.515 1081.8 295.862 1078.11 291.314C1068.99 280.081 1051.07 300.109 1040 289L1052 284L1052 283L1045 280L1053 270L1041 261L1040 261L1032 266L1029 257C1014.27 262.543 1007.83 270.514 996 280C991.595 272.765 981.219 283 979 288L972 281L969 282L968 278L952 274L951 275L952 280C948.884 278.101 948.831 274.975 946.298 272.624C941.239 267.931 932.992 272.874 928 275L930 284L921 277L916 279L917 286C913.458 286.677 912.705 288.542 912 292L904 289C902.847 294.589 902.401 302.484 896.154 304.686C892.421 306.002 887.689 304.295 884.213 306.113C880.918 307.837 880.171 312.2 877.61 314.686C872.774 319.379 864.93 317.749 859 317L844 325L843 324C843.651 321.708 844.591 318.646 842.396 316.773C840.037 314.76 835.217 315.951 832.304 315.161C826.125 313.485 820.677 306.803 813.089 309.621C805.138 312.575 807.106 319.961 797 318L797 317C801.434 313.738 802.957 306.969 801 302L795 308L794 308L793 301C784.199 298.364 788.859 289.776 789 283L788 283L774 304L776 293C770.332 296.067 762.468 294.377 763.341 286C763.815 281.455 767.504 277.817 768 273L748 284C747.926 277.803 743.138 264.669 736 266L736 257L731 262L730 262L729 255L720 268L721 261C714.689 264.271 707.015 285.697 707 266L692 278L693 274L684 278L683 277L683 273L678 274L677 271L671 272C671 267.085 672.436 260.134 668 257L668 260L666 260C665.505 248.295 665.668 239.948 661 229L658 231L658 221L653 224L658 185C650.757 183.49 653.377 177.943 650 173z"/>
<path style="fill:#ffffff; stroke:none;" d="M1266 203L1267 204L1266 203M1250 212L1251 213L1250 212z"/>
<path style="fill:#020202; stroke:none;" d="M497.667 255.333L498.333 255.667L497.667 255.333z"/>
<path style="fill:#ffffff; stroke:none;" d="M1037.67 287.333L1038.33 287.667L1037.67 287.333M492 289L492 292L496 292L496 291L492 289M497.667 291.333L498.333 291.667L497.667 291.333M477 317L478 318L477 317M796.333 318.667L796.667 319.333L796.333 318.667M476 319L477 320L476 319M1232 431L1233 432L1232 431M1242 431L1242 436L1246 436L1244 431L1242 431M432 481L434 484L432 481M418 514L421 516L418 514z"/>
</svg>
