<?xml version="1.0" standalone="yes"?>
<svg xmlns="http://www.w3.org/2000/svg" width="1920" height="1080">
<path style="fill:#fefefe; stroke:none;" d="M0 0L0 1080L1920 1080L1920 0L0 0z"/>
<path style="fill:#030303; stroke:none;" d="M633 60L627 62C618.542 66.1365 618.623 75.7719 617.83 84C617.142 91.1373 618.178 99.0023 616.606 106C615.547 110.719 611.97 114.372 610.638 119C608.441 126.637 608.626 136.072 608 144L606 144L606 136L605 136C601.769 143.109 598.532 147.973 600 156L592 157L593 172L591 169L590 172L587 171L589 167C585.186 167.428 583.191 167.124 583 163L576 168C585.031 172.856 575.879 180.652 568 177L569 188C562.86 191.097 564.4 197.118 563 203L559 203L557 197L556 197L555 202L553 202L551 192L550 192L549 201L548 201C547.283 196.447 545.242 194.788 541 197L534 178L533 178L533 190C528.973 185.878 525.036 180.543 519 183C517.42 179.277 516.03 178.085 512 179L513 198L504 195C504.789 199.733 498.886 215.472 497 215L500 224C487.595 225.092 492.877 233.638 496 242L487 230L486 230L479.405 247.531L471 244L461 258L460 255L459 255L463 264L443 245L452 266L427 252L427 256L426 256L426 250L422 252L420 245L415 245L413 247L411 243L410 248L406 247C405.23 253.314 403.513 258.28 397 260L395 253L384 250C380.1 257.695 387.34 270.173 389 278L384 277L384 280L383 280L382 280L372 273C374.212 282.72 375.56 297.511 387 301L388 310L379 310L379 316L377 314L370 319L377 333L376 333L376 329L375 329L377 334L360 330C355.654 333.841 350.591 330.35 350 338L348 335L341 338C343.411 341.695 355.651 349.749 344 351L343 356L342 356L342 353L341 353C339.812 363.342 350.793 366.169 357 373L364 372L364 373C360.386 374.596 359.251 376.061 360 380L346 382L348 388L344 389C345.482 393.234 349.909 394.061 354 395C354.166 398.655 355.433 399.315 359 399L366 403L366 404L350 405L345 420C348.311 418.929 350.59 414.975 354.09 414.836C360.657 414.574 369.207 419.064 375 421.78C391.899 429.703 405.914 439.733 420 452C406.994 453.67 399.501 432.855 384 435L384 436L392 447L382 445L386 452C375.629 454.263 386.096 460.173 384.878 464.976C384.101 468.04 379.421 470.403 377 472C373.501 464.117 362.596 473.388 360 471L359 471L360 476L350 482L353 481L355 488L365 493L365 498C360.522 497.322 359.538 500.172 358 504L369 510L368 513C370.65 513.123 381.432 515.935 374.752 519.437C366.472 523.778 346.105 524.342 341 532L349 540C357.002 541.095 360.465 542.646 368 538L369 539L364 552L362 552L359 548L358 552L338 548L338 550C346.91 557.817 342.377 565.858 333 570L333 572L352.107 590.586L357.508 597.055L353 610L370 621L369 625L352 616L352 621L337 617L342 624L338 622L337 626L328 623C329.884 625.297 343.824 639.511 336.241 640.674C332.849 641.194 330.256 636.674 326 637L336 654L331 660C336.117 661.639 344.594 668.82 337.683 674.139C334.492 676.594 328.833 675.682 325 677L325 680L330 686C323.482 686.287 306.372 678.969 302.086 686.351C298.21 693.028 327.855 700.388 311.023 705.427C309.379 705.92 307.694 705.921 306 706C311.313 712.505 325.339 712.699 325 722L322 721C325.739 729.319 331.863 729 340 729C336.801 740.683 320.977 734.925 313 733.44C306.611 732.25 302.162 732.939 304 740L280 733C280.141 737.454 283.397 742.35 279 745C281.677 754.117 283.611 759.563 293 762L293 764C284.31 766.093 281.535 766.936 277 775C287.262 779.918 289.493 785 302 785L303 788C295.586 790.726 298.074 799.818 303.39 803.95C307.159 806.88 311.561 806.489 316 807L315 809L315 810L316 810L317 808L322 811L322 812L316 818C321.539 817.609 328.629 816.119 333 820C328.513 822.467 327.601 827.12 331 831L331 832C326.391 834.673 318.996 842.103 319.45 848.089C319.764 852.235 322.759 855.593 323 860C335.578 859.356 340.431 852.956 353 858L353 860C345.977 864.103 350.981 875.213 351 882L359 873C369.179 874.914 360.086 881.715 360 889L362 889L362 885L369 888L371 908L374 907L375 914L377 912L379 913C382.897 904.759 379.88 902.126 388 896L388 902L392 907L396 906L392 925C397.902 925.729 402.087 925.906 405 920L408 920L410 925L421 925L421 928C415.602 929.881 413.492 933.443 415 939C420.021 938.199 421.626 940.069 422 945L427 943C425.008 949.312 425.996 953.251 429 959C436.86 957.332 443.759 955.666 447 965L448 965C452.872 958.403 453.999 953.107 454 945L457 946L458 975L471 964L472 967C477.165 965.228 487.541 955.005 490 950L491 950L496 959L497 955L503 958L504 941L508 945L511 935L525 944L527 937L528 937L537 950C536.448 937.333 521.082 916.866 534 906C536.809 915.997 536.688 929.173 546 936L546 926L547 926L548 931L549 931L549 909L550 909L550 914L557 920L558 920L560 913L567 913L572 919L572 915L573 915L576 918L578 903L583 907C584.386 901.498 582.459 895.024 580 890L588 889L583.132 879L585 864L586 864C589.973 870.799 593.283 865.642 599 867.537C601.82 868.472 603.835 871.226 606.91 871.539C609.911 871.845 612.028 868.354 614.989 870.001C623.12 874.523 626.091 885.947 634 890L634 885L635 885C639.245 903.34 653.15 908.374 666.711 918.387C673.104 923.108 677.098 929.497 685 932L683 927C689.322 929.902 697.4 931.66 704 929L699 924L699 923C704.403 922.938 720.01 928.934 721.623 919.941C722.755 913.636 713.518 910.393 720 905L729.75 900.889L738 892C740.426 895.956 744.068 897.062 747 893L749 893L747 915L765 905C770.343 897.073 773.301 884.345 785 887L785 888L781 889L783 896L805 891C803.948 899.328 802.924 904.325 812 907L793 936L798 943L803 937C807.703 948.065 794.363 961.521 787.714 969C785.419 971.582 778.137 976.489 780.288 980.62C784.106 987.954 792.131 980.162 796.998 979.954C799.976 979.827 801.997 982.166 804 984L798 992L819 986L823 996C831.509 989.201 835.437 985.548 839 975L840 978L844 977L841 992L844 993L840 1004L845 1001L844 1008L859 999L859 1000C853.247 1002.92 847.125 1012.96 856 1016C856.279 1001.6 870.814 1007.3 878.034 1000.39C886.064 992.693 892.682 973.505 896 963L897 963C896.102 971.549 893.371 978.276 896.333 987C897.687 990.985 903.768 994.748 905 989L912 992L914 983L915 983L917 990C924.314 987.329 927.126 986.631 930 979C937.959 982.12 936.135 970.768 935 966L942 972L944 972L944 959L949 961L952 956L953 956L953 968L957 967L958 974C963.107 970.777 961.026 966.074 962.433 961.039C963.387 957.624 966.438 955.417 967.428 951.985C968.91 946.853 967.595 941.998 970 937C973.592 944.375 986.306 968.841 995 953L1003 976L1005 976L1004 961L1008 961L1012 988L1017 986C1020.32 991.907 1023.8 990.235 1024 984L1043 992L1044.87 975L1043.85 947.129L1059 934C1063.82 943.933 1072.8 949.635 1084 947C1085.13 949.006 1085.87 949.006 1087 947L1095 956L1094 949L1100 955L1101 955C1106.24 944.562 1092.76 938.538 1089 931L1094 933L1095 932C1093.02 926.497 1093.35 923.609 1099 921L1101 930C1108.19 933.574 1114.42 953.914 1122.91 942.891C1124.08 941.363 1125.03 939.633 1126.05 938.002C1127.49 935.698 1128.84 933.455 1130 931L1142 929.078L1157 931L1164 934L1163 929L1173 928L1174 932C1179.45 928.657 1178.61 921.658 1173.67 917.819C1169.25 914.379 1159.53 913.816 1154 912L1178 891L1195 893.957L1212 908L1209 899L1213 902C1218.06 894.622 1214.34 888.887 1213 881L1220 883L1220 894L1224 893L1224 898L1225 898C1226.44 892.807 1230.29 890.845 1232 897L1239 891L1238 904C1247.06 902.823 1250.9 898.148 1251 889C1257.54 888.941 1259.92 887.791 1260 881L1265 882L1264 877L1268 884L1269 884L1270 875L1274 880L1278 880L1281 868L1290 881L1291 881L1293 875L1296 876L1294 870L1299 872L1302 858L1307 872L1308 872L1312 857L1313 857C1314.95 864.29 1315.51 872.54 1321 878L1325 872L1332 883L1336 881C1336.39 885.38 1339.86 895.637 1345 889L1354 896C1360.19 894.936 1362.63 882.722 1364 877L1374 882L1373.3 868.039L1367 851L1375 854L1374 851L1377 847L1386 850L1385 843L1392 841L1399 841L1406 848L1406 846L1414 850C1414.47 844.36 1411.17 839.595 1419 840C1416.51 832.647 1412.55 823.257 1414.4 815.424C1415.43 811.096 1419.52 807.883 1419.4 803.08C1419.22 796.062 1412.52 789.444 1412 782L1427 792L1431 788L1399 722L1400 722C1402.12 726.096 1405.64 729.028 1407.91 733C1412.47 740.965 1413.86 755.086 1424 758L1422 740L1423 740C1424.2 745.73 1425.71 750.941 1431 754L1432 749L1436 750C1440.86 734.744 1445.82 741.173 1457 744C1459.97 739.505 1457.32 737.618 1458.22 733C1458.84 729.831 1461.64 727.55 1461.22 724.089C1460.55 718.618 1453.79 708.655 1461.3 704.042C1464.96 701.795 1478.26 703.869 1483 704L1477.81 691.174L1485 679C1478.56 673.556 1471.39 672.135 1463 671L1463 669L1466 666L1456 665C1457.09 661.377 1462.48 657.232 1459 654C1461.22 643.321 1443.78 642.063 1445 631C1437.49 629.483 1436.54 625.198 1440 619L1429 620L1441 609L1435 608L1435 607C1440.8 605.225 1463.94 596.561 1451 589L1456 583C1457.51 588.281 1462.22 590.606 1465.24 595.004C1471.67 604.382 1477.29 614.197 1486 621.87C1489.88 625.288 1495.04 626.553 1498.71 630.143C1502.87 634.203 1512.43 647.517 1519 640L1537 644C1540.07 638.239 1551.01 642.084 1551.86 635.941C1552.92 628.31 1540.46 620.357 1537.32 614C1531.7 602.603 1523.05 591.237 1522.11 578C1521.7 572.209 1524.35 565.966 1524.05 560C1523.84 555.718 1518.87 550.777 1519.7 546.673C1521.13 539.558 1535.58 543.86 1538 537C1552.62 536.32 1545.3 510.198 1535 508L1539 504C1537.9 500.679 1536.41 500.263 1533 500L1533 499L1539 497L1533 490L1533 489L1539 486L1533 477C1535.99 476.656 1540.53 475.117 1537 472L1537 471L1544 470L1544 469L1535 468C1541.42 464.632 1556.75 462.13 1559 455L1560 455C1565.32 459.359 1564.33 448.708 1563 446C1575.61 440.397 1573.6 438.228 1562 434L1565 423C1557.48 418.729 1552.39 419.994 1544 420L1546 403L1540 404L1552 388L1552 384L1545 382C1550.17 364.343 1526.52 383.08 1525.37 370.537C1525.19 368.483 1526.47 365.958 1527 364L1524 362L1523 362L1511 364C1512.56 361.797 1517.35 356.482 1513.68 354.086C1510.56 352.052 1502.98 357.751 1500 358.994C1489.3 363.451 1478.39 364 1467 364L1467 363C1472.73 362.996 1483.76 363.368 1486 357L1480 356L1484 352L1476 335C1482.83 333.02 1481.74 327.88 1481 322L1476 324L1475 324L1468 311L1477 308L1468 294L1450 292C1451.76 276.285 1448.4 274.434 1433 272L1441 254L1418 264C1422.51 258.83 1428.19 255.259 1429 248L1419.09 251.521L1409 246L1410 235C1406.22 235.689 1403.27 236.495 1401 233L1400 233L1387 236C1386.05 231.598 1373.16 237.403 1372 240L1371 240L1368 232L1368 231C1370.81 227.63 1370.89 224.388 1367 222C1377.96 202.718 1395.66 184.919 1399.67 162C1401.16 153.514 1397.38 144.064 1398 135L1394 136L1392 126C1380.2 124.859 1378.21 136.114 1372.21 143.911C1368.13 149.208 1363.06 152.857 1360 159C1354.07 158.492 1347.68 164.515 1346 170L1339 165C1336.75 168.998 1334.23 169.037 1330 168L1323 178C1317.26 174.107 1314.32 168.937 1314 162L1310 164L1306 155L1300 164L1297 161L1280 173L1280 179L1279 179L1278 173L1273 180C1266.46 177.466 1261.94 177.425 1257 183L1253 171L1252 171L1252 181L1251 181C1248.91 176.962 1241.65 163.381 1236.94 162.742C1233.68 162.298 1230.12 165.199 1227 166C1224.46 149.599 1218.22 170.224 1215 174L1210 167L1210 188C1199.79 185.782 1201.21 191.428 1197 198C1189.24 184.917 1183.83 196.622 1175 198C1174.55 203.269 1176.15 207.373 1180 211L1180 212C1171.19 217.737 1169.19 215.122 1172 227C1166.09 225.848 1162.69 227.679 1158 231L1159 225L1157 225L1147 238L1145 238L1144 229L1138 232L1140 221L1139 221L1123 238L1128 217C1118.9 220.402 1117.36 224.419 1112 232L1111 231L1114 227L1101 232L1106 203L1102 208L1099 208L1099 203L1091 215L1091 204L1090 204L1085 218L1085 202C1079.71 205.24 1079.44 212.441 1078 218L1077 218L1079 205L1071.78 217.95L1062 227L1073 190L1048 213L1055.81 195L1060 173L1054 175L1053 174L1054 171L1044 179L1043 175L1047 176C1043.06 166.152 1049.73 154.936 1052 145L1040 156C1045.92 146.245 1047.98 138.29 1048 127L1041 132L1041 125L1036 131L1034 131C1030.97 120.727 1027.02 109.662 1029 99L1028 99C1025.02 101.991 1020.56 102.914 1017.97 106.225C1015.37 109.534 1015 114.524 1012.2 117.549C1008.05 122.023 1000.78 117.234 1002 128L996 122L993 131L992 131L987 105L985 105L980 126L978 126L977 113C967.56 128.024 965 146.79 965 164L961 165L958 147L953 149L951 145L949 145C947.026 149.848 945.521 153.14 940 154L941 141L935 144L933 138L927 150L917 151C918.421 146.517 920.321 141.29 916 138L916 146L906 144L909 137L905 136C907.713 131.605 909.757 125.248 903 124L900 111L894 114L888 108C886.708 114.953 889.768 129.76 882 131L885 127L873 113L871 124L870 124L869 121C866.43 129.695 865.415 143.062 867 152C865.383 150.462 864.613 148.241 863.029 146.792C854.831 139.288 856.546 160.68 856 163L854 163L853 160L851 160L844 166L840 157L839 157L836 170L829 161L828 161L830.566 174L829 190C821.376 188.835 824.12 200.26 825 205L822 212L821 212C817.847 200.889 817.891 182.535 807 176L805 185L804 185C803.073 181.12 803.758 176.25 799 176L799 171C794.578 174.267 798.58 185.625 799.049 190.714C800.043 201.485 798.898 224.117 791 232L791 227L785 235L780 227L779 227L773 242L762 229C758.732 234.572 757.841 228.416 758 225L751 231L750 231L750 222L748 222C745.533 227.599 742.37 231.523 736 232L736 225L726.147 230.863L721.977 223.001L713 214L712 214L704 220L701 214C701.709 223.865 704.485 226.479 700 236L699 236L695 230L694 236L687 237L688 242L683 237L682 237L681 240L669.196 236.022L670.256 230L668.784 216.17L676.352 198L679.286 164L674.815 137L675.521 113L668 95L665 95L664 104L662 104C661.897 101.087 662.114 98.4306 659 98C660.127 87.0993 652.905 78.5337 649 69L648 69L644 78L642 71L638 73L633 60M638 68L639 69L638 68z"/>
<path style="fill:#fefefe; stroke:none;" d="M916 151L917 152L916 151z"/>
<path style="fill:#030303; stroke:none;" d="M850 155L851 158L852 158L850 155z"/>
<path style="fill:#fefefe; stroke:none;" d="M922 169L921 172L922 169M1252 182L1252 184L1254 184L1252 182M1258 186L1259 191L1260 191L1258 186M675 189L674 192L675 189M1091 216L1091 220L1092 220L1093 216L1091 216M1075 221L1076 222L1075 221z"/>
<path style="fill:#030303; stroke:none;" d="M734.667 223.333L735.333 223.667L734.667 223.333z"/>
<path style="fill:#fefefe; stroke:none;" d="M1068.67 224.333L1069.33 224.667L1068.67 224.333M706 227L707 228L706 227M1090 231L1091 232L1090 231M704 232L705 233L704 232M1137 232C1133.58 235.707 1132.6 239.128 1134 244L1137 232M680 247L685 252L680 247M788 255L779 274C785.343 271.482 790.602 261.733 788 255M465 265L473 276L465 265M453 266L453 268L455 268L455 266L453 266M1415 266L1414 268L1416 268L1415 266M1410 267L1410 268L1413 268L1410 267M392 273L394 276L392 273M475 279L476 280L475 279M384 280L388 284L384 280M376.667 283.333L377.333 283.667L376.667 283.333M388 303L389 304L388 303M1473 339L1474 340L1473 339M352 347L353 348L352 347z"/>
<path style="fill:#030303; stroke:none;" d="M357 375L357 378L358 378L357 375z"/>
<path style="fill:#fefefe; stroke:none;" d="M393 447L394 448L393 447M420 452C420.98 457.85 426.149 463.211 432 464L420 452M441 470L441 472L443 472L441 470M1526 471L1526 472L1529 472L1526 471M406 559L407 560L406 559M1445 592C1448.53 591.45 1450.04 590.509 1451 587C1446.95 586.868 1445.64 588.009 1445 592z"/>
<path style="fill:#030303; stroke:none;" d="M1447 589L1449 591L1449 589L1447 589M1528 595L1529 596L1528 595z"/>
<path style="fill:#fefefe; stroke:none;" d="M1517 639L1518 640L1517 639z"/>
<path style="fill:#030303; stroke:none;" d="M1462.67 655.333L1463.33 655.667L1462.67 655.333z"/>
<path style="fill:#fefefe; stroke:none;" d="M330.333 683.667L330.667 684.333L330.333 683.667M1472 687L1472 688L1476 688L1472 687M1454 715L1456 717L1456 715L1454 715M1397 719L1399 722L1397 719M1437 735L1439 737L1437 735M1441 735L1442 736L1441 735M692 875L692 876L707 893C710.428 887.125 723.543 868.975 720.408 863.059C717.309 857.21 707.628 861.861 706.647 853.985C705.772 846.97 712.611 839.936 711.427 832.003C710.7 827.131 706.19 825.013 704 821C700.687 822.166 693.22 821.782 691.019 823.912C687.44 827.373 690.945 831.975 690.939 836C690.932 840.964 687.494 845.306 687.865 850.011C688.501 858.072 695.635 867.466 692 875M1412.67 823.333L1413.33 823.667L1412.67 823.333M1299.33 859.667L1299.67 860.333L1299.33 859.667M1360 879L1361 880L1360 879M788.333 889.667L788.667 890.333L788.333 889.667M1232 891L1233 892L1232 891M390 895L390 898L392 898L392 895L390 895M1211 895L1212 897L1213 897L1214 895L1211 895M558 911L559 912L558 911M526 917L527 921L528 921L526 917M1173.33 926.667L1173.67 927.333L1173.33 926.667M509 931L510 932L509 931M1061 936C1064.4 935.412 1065.27 934.351 1066 931L1061 936z"/>
<path style="fill:#030303; stroke:none;" d="M1176 933L1176 934L1180 936C1181.1 933.095 1178.45 933.12 1176 933M791 939L792 940L791 939z"/>
<path style="fill:#fefefe; stroke:none;" d="M807 941L806 942L806 943L806 944L809 941L807 941M1021.67 971.333L1022.33 971.667L1021.67 971.333M1012.67 973.333L1013.33 973.667L1012.67 973.333z"/>
<path style="fill:#030303; stroke:none;" d="M777 981L776 984L779 982L777 981z"/>
<path style="fill:#fefefe; stroke:none;" d="M845 989L845 991L847 989L845 989M844 992L845 993L844 992z"/>
</svg>
