<?xml version="1.0" standalone="no"?>
<!DOCTYPE svg PUBLIC "-//W3C//DTD SVG 20010904//EN"
 "http://www.w3.org/TR/2001/REC-SVG-20010904/DTD/svg10.dtd">
<svg version="1.0" xmlns="http://www.w3.org/2000/svg"
 width="1024.000000pt" height="1024.000000pt" viewBox="0 0 1024.000000 1024.000000"
 preserveAspectRatio="xMidYMid meet">

<g transform="translate(0.000000,1024.000000) scale(0.100000,-0.100000)"
fill="#000000" stroke="none">
<path d="M2600 8880 c-226 -22 -489 -117 -689 -249 -96 -64 -295 -248 -332
-307 -13 -22 -35 -38 -67 -49 -178 -64 -297 -120 -407 -195 -41 -28 -81 -48
-87 -44 -6 4 -8 3 -4 -4 3 -6 2 -13 -4 -17 -5 -3 -10 -1 -10 6 0 7 -7 4 -15
-7 -18 -24 -18 -20 0 40 8 27 13 51 12 53 -8 7 -86 -176 -115 -268 -26 -85
-46 -179 -36 -179 1 0 20 12 41 26 263 180 727 226 1082 108 387 -128 676
-414 740 -732 28 -138 2 -256 -83 -368 -86 -115 -176 -182 -391 -289 -105 -52
-196 -95 -204 -95 -8 0 -11 6 -7 16 11 29 18 64 13 64 -3 0 -38 -18 -79 -39
-73 -40 -151 -64 -240 -75 -29 -3 -48 -2 -48 4 0 6 4 10 10 10 6 0 5 10 -1 28
-13 31 -27 80 -38 134 -6 29 -5 38 6 40 10 2 4 16 -22 50 -50 63 -94 176 -107
273 -6 44 -17 89 -25 100 -7 11 -13 16 -13 11 0 -5 -7 -3 -15 4 -20 17 -20
117 0 195 23 85 57 156 116 237 l51 70 -17 62 c-22 77 -56 145 -96 191 -19 21
-29 41 -25 51 4 12 1 14 -13 9 -12 -4 -24 1 -33 12 -7 10 -25 24 -40 32 -15 8
-25 17 -23 21 3 4 -14 11 -37 14 -33 5 -45 3 -54 -9 -18 -24 -72 -199 -85
-275 -8 -43 -14 -374 -19 -980 -4 -503 -8 -916 -9 -917 0 -2 -7 -2 -13 0 -17
3 -26 25 -27 60 -1 15 -8 30 -16 33 -10 4 -15 20 -15 45 0 26 -5 42 -15 45 -8
4 -15 14 -15 23 -1 20 -25 53 -33 44 -4 -3 -7 2 -7 11 0 12 -5 16 -15 12 -10
-4 -15 1 -15 15 0 11 -4 17 -10 14 -6 -3 -10 5 -10 19 0 13 -3 32 -6 41 -5 13
-8 14 -15 3 -6 -10 -9 -8 -9 7 0 17 -2 17 -10 5 -8 -13 -10 -12 -10 3 0 9 5
17 10 17 6 0 5 8 -2 20 -16 25 -38 26 -39 3 0 -16 -1 -16 -8 1 -4 10 -6 36 -5
57 1 22 -1 39 -5 39 -4 0 -6 28 -4 61 2 37 -1 67 -8 75 -6 8 -8 14 -3 14 5 0
3 4 -4 9 -7 4 -15 21 -17 37 -2 16 -4 31 -5 34 -1 3 -1 20 0 39 1 18 -2 31 -8
28 -5 -4 -10 -262 -11 -629 -2 -343 -4 -641 -6 -663 -2 -22 -4 -663 -6 -1425
-3 -1543 -5 -1476 66 -1748 41 -157 68 -227 137 -367 269 -544 792 -932 1373
-1020 231 -34 466 -38 2365 -31 1020 3 2161 7 2535 7 374 1 727 5 785 10 224
18 467 86 695 193 60 29 280 166 295 185 3 3 33 30 67 60 35 29 60 57 57 62
-3 5 2 9 11 9 9 0 13 5 10 10 -3 6 1 10 10 10 9 0 13 5 10 10 -3 6 1 10 9 10
10 0 13 6 9 17 -4 11 -3 14 5 9 8 -4 11 3 9 24 -2 27 -17 45 -17 20 0 -5 -5
-10 -11 -10 -6 0 -9 7 -5 15 6 17 -2 19 -23 6 -12 -8 -13 -12 -1 -25 11 -14
10 -16 -4 -10 -9 3 -16 11 -16 17 0 7 -4 7 -12 -1 -18 -18 -38 -15 -38 6 0 14
-2 14 -9 3 -8 -12 -10 -12 -14 0 -2 8 -2 3 0 -9 3 -16 0 -23 -9 -20 -7 3 -17
-4 -23 -15 -5 -11 -14 -19 -19 -18 -5 2 -13 -3 -17 -11 -7 -10 -9 -9 -9 4 0
21 17 32 23 16 3 -8 6 -6 6 5 1 9 -2 17 -6 17 -16 -1 -40 -26 -36 -37 3 -7 0
-13 -6 -13 -6 0 -11 6 -11 13 -1 6 -8 0 -16 -16 -8 -15 -19 -27 -25 -27 -6 0
-8 4 -5 8 6 11 -71 8 -81 -2 -5 -4 -2 -6 6 -4 9 2 16 -6 18 -17 3 -11 1 -16
-4 -10 -11 15 -53 10 -65 -6 -8 -12 -9 -11 -5 1 6 23 -21 46 -36 31 -9 -10 -9
-12 2 -9 8 2 16 -4 18 -12 4 -17 -50 -47 -55 -30 -2 5 -10 10 -18 10 -8 0 -11
-7 -8 -18 5 -14 3 -14 -11 3 -17 20 -17 20 -10 -2 4 -14 2 -23 -4 -23 -6 0
-11 8 -12 18 0 13 -2 14 -6 2 -3 -8 -12 -19 -20 -23 -10 -6 -11 -12 -4 -21 7
-9 4 -12 -12 -13 -12 0 -16 1 -9 4 10 4 10 8 0 21 -11 13 -11 14 1 7 10 -5 12
-4 7 4 -9 14 -26 5 -26 -15 0 -8 -6 -21 -12 -28 -11 -11 -16 -10 -30 7 -17 19
-18 19 -18 1 0 -15 -2 -16 -9 -5 -7 11 -9 11 -14 0 -4 -10 -6 -10 -6 -1 -1 6
-5 12 -11 12 -5 0 -7 -6 -4 -14 4 -11 -3 -12 -35 -6 -34 6 -41 5 -41 -9 0 -14
-2 -14 -10 -1 -5 8 -10 11 -10 5 0 -5 -19 -11 -43 -13 -23 -1 -55 -3 -72 -5
-16 -1 -36 2 -42 7 -9 5 -13 4 -13 -4 0 -6 -6 -10 -12 -7 -7 2 -21 0 -30 -5
-12 -6 -18 -5 -18 3 0 7 -7 8 -17 4 -10 -4 -24 -8 -30 -8 -7 0 -13 -5 -13 -11
0 -6 -5 -4 -10 4 -5 8 -10 10 -10 4 0 -7 -14 -11 -35 -10 -19 1 -35 -1 -35 -5
0 -11 -38 -3 -52 12 -11 10 -41 14 -121 14 -58 0 -98 3 -88 7 10 3 75 7 143 7
303 1 587 87 846 254 88 57 232 194 306 291 52 68 126 183 126 196 0 8 -338
210 -351 210 -4 0 -9 17 -11 37 -2 24 -9 39 -18 41 -9 1 -56 -22 -105 -53 -50
-30 -133 -81 -185 -111 -52 -31 -118 -71 -147 -90 l-51 -33 -44 39 c-23 22
-56 46 -73 54 -26 13 -32 13 -58 -2 -16 -9 -48 -38 -70 -63 l-40 -46 -56 37
c-31 20 -118 74 -194 119 l-138 83 3 78 c3 65 0 81 -16 99 -36 39 -91 23 -169
-48 -28 -25 -29 -25 -42 -7 -8 10 -16 24 -18 30 -3 8 -8 7 -18 -1 -18 -17 -26
-16 -31 5 -5 18 -71 61 -278 182 -69 40 -127 75 -129 76 -9 8 24 34 80 63 51
26 63 29 84 19 20 -9 32 -8 58 4 32 15 36 15 101 -13 97 -41 110 -37 51 17
l-50 46 28 24 c34 29 47 30 54 4 4 -15 9 -17 21 -11 10 5 23 4 34 -3 24 -14
46 12 54 65 9 55 19 67 44 52 23 -15 70 -17 70 -3 0 5 -9 14 -21 21 -19 10
-14 14 60 50 61 30 87 38 108 33 16 -4 69 -7 118 -8 78 -1 90 1 89 15 -1 14 4
15 27 9 43 -13 29 1 -37 35 -48 25 -54 30 -33 33 59 6 116 28 137 51 l23 26
16 -23 c18 -25 33 -29 33 -7 0 22 34 18 56 -6 12 -14 25 -18 41 -14 14 3 23 1
23 -6 0 -8 13 -10 39 -6 60 8 65 -5 14 -37 -35 -23 -42 -31 -30 -38 16 -9 50
0 43 11 -3 4 40 22 94 41 89 30 102 32 137 22 64 -20 72 -29 43 -52 -29 -22
-188 -117 -309 -184 -77 -42 -85 -45 -104 -31 -44 31 -47 24 -47 -125 l0 -140
48 -35 c37 -28 54 -35 82 -32 26 3 44 -3 70 -24 37 -29 190 -102 190 -91 0 8
-108 79 -152 102 -41 20 -28 23 17 4 48 -20 81 -15 230 31 61 18 130 37 155
42 l45 8 -67 42 c-36 23 -81 49 -100 57 -19 8 -26 15 -16 15 15 1 146 -63 204
-99 18 -11 24 -9 46 11 29 27 167 99 189 99 8 0 -20 -20 -61 -45 -148 -88
-151 -84 54 -78 150 4 185 2 222 -12 l43 -16 -32 -29 c-34 -32 -24 -39 22 -15
39 20 79 26 84 12 2 -6 8 9 14 33 16 65 37 350 27 360 -8 7 -343 190 -427 233
-20 10 -48 20 -62 21 -19 1 -28 8 -32 26 -10 41 -11 41 -76 9 -121 -60 -187
-104 -193 -126 l-6 -23 -19 24 c-10 13 -39 32 -64 42 -25 11 -44 23 -42 28 2
5 50 38 107 72 58 35 106 67 108 73 2 5 -7 13 -20 17 -28 9 -353 180 -390 206
-33 23 -45 23 -51 1 -4 -15 -5 -15 -6 2 -1 14 -26 33 -89 67 l-88 47 -95 -53
c-153 -85 -443 -257 -460 -272 -21 -19 -26 -18 -32 8 -8 30 12 50 108 107 356
212 424 252 456 265 35 15 37 14 105 -26 38 -22 130 -73 204 -113 74 -40 187
-100 250 -135 63 -35 178 -95 255 -135 128 -66 401 -217 517 -286 l48 -29 0
896 c0 492 2 900 5 905 4 5 3 14 0 19 -8 13 -113 -67 -155 -118 -34 -41 -116
-200 -126 -246 l-7 -30 23 22 c13 12 29 22 34 23 6 0 19 2 29 4 14 3 17 -5 17
-48 -1 -80 -25 -200 -54 -262 -31 -67 -91 -148 -211 -280 -49 -55 -106 -120
-126 -144 -29 -35 -40 -42 -55 -36 -11 4 -26 9 -34 11 -8 2 -22 12 -32 23 -9
12 -21 21 -27 21 -15 0 5 30 101 158 43 56 78 109 78 117 0 20 -221 136 -236
124 -9 -7 -14 -4 -18 9 -8 25 -138 92 -144 74 -9 -27 -23 -10 -20 25 2 31 10
42 43 64 64 42 373 209 387 209 7 0 33 -12 57 -25 24 -14 47 -22 51 -18 4 4
14 29 24 54 53 146 236 369 365 445 l31 18 0 294 0 293 -27 -19 c-16 -11 -57
-34 -93 -52 -36 -18 -72 -39 -81 -47 -14 -12 -21 -11 -50 6 -42 24 -95 35
-103 23 -3 -6 15 -20 41 -32 45 -21 46 -23 28 -37 -11 -8 -47 -28 -80 -44 -33
-17 -61 -32 -63 -34 -2 -2 45 -28 104 -58 l108 -54 -54 -35 c-30 -19 -148 -89
-261 -155 -113 -67 -277 -165 -365 -218 -87 -54 -232 -143 -322 -198 -156 -95
-200 -113 -155 -64 24 26 62 100 88 172 10 28 25 58 34 68 17 20 153 103 374
226 l147 83 -175 86 c-96 47 -175 88 -175 91 0 3 23 18 50 33 49 27 62 49 38
64 -7 4 10 18 43 35 52 26 76 29 63 7 -4 -7 -2 -8 5 -4 6 4 9 12 6 17 -4 5 -2
9 4 9 5 0 11 -5 13 -11 2 -7 18 -3 41 11 43 26 48 34 11 20 -31 -12 -34 -12
-34 -1 0 5 9 11 21 14 12 3 18 10 15 16 -6 9 49 27 67 23 5 -2 6 1 3 6 -3 5
11 14 30 21 29 10 34 16 28 33 -9 28 44 75 79 69 4 0 7 3 7 7 0 4 8 8 18 9 45
3 86 13 100 25 8 7 37 13 64 13 36 0 52 5 59 17 11 20 103 78 141 89 38 11 44
-6 8 -21 -17 -7 -33 -17 -37 -23 -3 -5 17 2 44 17 l50 28 42 -22 c24 -12 48
-19 54 -16 7 2 4 5 -5 5 -10 1 -18 5 -18 10 0 5 -9 13 -21 16 -37 12 -7 24 69
26 l22 1 0 360 c0 205 -4 358 -9 356 -5 -1 -52 -25 -106 -53 l-97 -50 7 -82 7
-82 -44 -22 c-88 -44 -354 -193 -370 -207 -15 -13 -19 -12 -34 2 -16 17 -127
76 -141 76 -4 0 -8 -52 -9 -116 -1 -109 -2 -117 -24 -134 -12 -9 -113 -65
-224 -124 -268 -142 -320 -172 -310 -179 5 -3 68 -35 139 -72 72 -37 142 -76
157 -86 14 -11 31 -19 37 -19 24 0 8 -17 -43 -44 l-55 -29 -196 99 -197 99
-34 71 c-18 39 -50 95 -71 125 -90 131 -245 388 -264 439 -28 74 -43 175 -35
233 13 85 109 182 208 212 63 18 73 11 69 -51 -2 -31 1 -44 8 -40 6 4 11 14
11 22 0 8 11 19 25 24 17 7 25 17 25 34 0 29 14 33 85 26 l50 -5 3 -133 c2
-83 6 -131 12 -127 6 4 17 -1 26 -10 11 -11 20 -13 28 -5 7 5 16 7 19 3 4 -3
7 -1 7 6 0 8 5 7 16 -4 9 -9 18 -14 20 -12 2 1 4 56 5 121 2 107 4 119 21 124
18 4 18 6 2 23 -25 27 -21 290 4 325 9 13 22 24 29 24 26 0 33 -43 34 -202 1
-90 4 -172 7 -183 9 -27 57 -32 71 -8 6 10 12 14 13 8 1 -5 5 78 8 185 l5 195
-28 41 c-21 30 -30 57 -34 103 -6 60 -5 63 26 95 l32 33 -35 59 c-32 56 -46
104 -61 217 -4 27 -9 47 -11 44 -3 -2 -8 -55 -13 -117 -8 -111 -9 -114 -41
-143 -21 -19 -36 -25 -42 -19 -6 6 -12 67 -15 136 -5 97 -9 126 -19 126 -19 0
-17 20 3 42 15 17 13 27 -30 156 -25 75 -49 154 -53 175 -7 43 -12 42 -24 -5
-26 -97 -70 -237 -84 -263 -14 -27 -14 -31 5 -51 29 -31 39 -78 39 -191 0 -81
-3 -103 -14 -103 -28 0 -35 98 -12 165 8 22 13 41 12 43 -2 1 -13 -1 -26 -6
-22 -8 -22 -12 -21 -123 l2 -114 47 -42 c61 -54 75 -57 108 -22 29 30 44 36
44 19 0 -6 -15 -20 -33 -30 -19 -11 -39 -31 -47 -44 l-13 -25 -49 55 c-28 30
-54 54 -60 54 -5 0 -7 -4 -4 -8 2 -4 -4 -13 -14 -19 -15 -10 -17 -9 -12 9 5
19 0 17 -37 -13 -24 -18 -49 -45 -57 -59 -9 -17 -13 -20 -14 -9 0 9 20 39 45
67 25 27 45 57 45 67 0 9 -12 33 -27 52 -25 33 -29 49 -38 157 l-10 121 -17
-116 c-16 -111 -29 -154 -64 -209 -16 -24 -15 -28 15 -75 37 -59 38 -75 7
-141 -13 -29 -30 -77 -37 -108 -7 -31 -16 -56 -20 -56 -16 0 -91 102 -118 162
-57 126 -58 233 -2 394 59 173 219 383 388 510 78 59 170 113 157 93 -4 -7 1
-18 11 -26 11 -7 16 -13 12 -13 -4 0 8 -13 26 -30 19 -16 43 -30 54 -30 11 0
23 -3 27 -7 3 -4 19 -8 35 -9 28 -2 28 -1 35 64 3 37 6 84 6 104 0 32 4 38 33
47 17 6 51 13 75 17 l42 7 -17 -39 c-12 -27 -17 -67 -17 -134 -1 -80 3 -101
21 -135 12 -22 22 -35 23 -29 0 18 33 50 56 56 18 4 24 -2 37 -41 9 -25 21
-66 27 -91 18 -73 18 -74 34 -61 11 10 17 8 25 -6 8 -13 11 52 10 242 l-1 260
38 3 39 3 2 -83 c3 -99 12 -158 23 -158 5 0 11 15 13 33 3 28 4 27 5 -10 1
-23 8 -48 15 -55 6 -7 19 -22 27 -33 11 -16 9 -15 -12 3 l-25 23 -47 -53 -46
-53 0 -90 0 -91 117 -13 c127 -13 175 -31 83 -31 -30 0 -126 7 -214 15 -87 9
-160 14 -162 13 -5 -6 -9 -427 -6 -768 2 -322 8 -383 27 -273 4 24 11 45 16
49 5 3 9 4 10 2 0 -2 4 -66 8 -143 8 -150 13 -174 37 -154 11 9 14 8 16 -2 7
-65 16 196 17 512 l1 387 33 48 c18 27 45 66 59 86 l25 37 40 -62 c23 -34 46
-72 52 -84 7 -15 11 -129 11 -351 0 -358 8 -548 22 -534 5 5 10 19 11 31 l1
23 18 -22 c10 -12 18 -34 18 -49 0 -14 3 -37 7 -49 5 -21 10 -23 42 -16 20 4
52 7 73 8 20 1 34 4 31 9 -2 4 4 7 14 7 10 0 46 12 81 26 l62 27 0 67 c0 65 0
67 34 82 30 15 34 22 39 70 4 29 7 281 7 561 l0 507 -59 0 -58 0 -6 118 c-6
146 -23 222 -49 222 -19 0 -23 12 -32 92 -5 46 -5 46 21 42 14 -3 41 -11 59
-19 42 -17 54 -58 54 -185 0 -52 4 -100 8 -107 9 -14 56 -33 83 -33 13 0 18 4
13 12 -4 6 -3 8 3 5 6 -4 24 -2 41 2 21 7 33 6 37 -2 10 -22 -6 97 -21 158
-84 332 -230 620 -418 821 -193 207 -465 351 -795 420 l-116 24 -1760 0 -1760
0 51 -34 c61 -41 154 -143 182 -200 84 -168 61 -376 -55 -492 -35 -35 -115
-77 -197 -104 -24 -8 -34 -15 -26 -20 7 -4 14 -37 17 -74 4 -51 8 -63 17 -52
15 19 57 27 73 14 10 -8 18 -7 31 5 12 11 22 13 33 7 14 -8 16 -4 15 29 -1 22
-8 46 -15 55 -22 27 -4 18 51 -24 59 -44 70 -47 88 -24 19 22 48 36 54 25 3
-5 -8 -24 -24 -41 -27 -28 -29 -35 -17 -49 8 -9 19 -31 27 -48 15 -39 21 -40
45 -13 10 12 25 18 32 15 8 -2 11 0 8 5 -3 6 0 10 8 10 8 0 25 14 39 30 l25
30 11 -82 c7 -46 12 -108 12 -138 0 -56 27 -150 43 -150 4 0 6 4 2 9 -11 19 7
87 27 100 16 10 19 10 12 -1 -14 -23 60 38 88 73 l27 34 1 232 1 232 60 67 59
67 1 136 c1 152 11 253 22 211 3 -14 9 -97 12 -184 6 -173 2 -158 80 -252 l40
-47 0 -96 c0 -53 1 -160 3 -239 l2 -143 47 -50 c25 -27 52 -48 59 -45 8 3 19
-12 30 -40 9 -24 22 -44 28 -44 7 0 20 15 31 32 10 18 36 52 58 75 38 41 38
42 27 85 -7 24 -25 67 -41 97 -16 30 -27 56 -25 58 11 11 154 -109 186 -156
79 -115 94 -156 98 -268 3 -71 1 -103 -7 -103 -6 0 -11 11 -11 23 0 52 -43
187 -87 274 -26 51 -48 91 -50 89 -10 -10 44 -183 84 -269 42 -91 45 -101 38
-155 -7 -61 -25 -107 -25 -65 0 22 -17 40 -27 29 -4 -3 1 -30 10 -59 9 -28 25
-106 37 -172 32 -188 51 -268 60 -259 5 5 21 72 35 149 39 215 51 257 99 360
42 89 66 117 66 78 0 -15 2 -15 9 -4 5 8 16 11 25 8 9 -4 29 -1 44 5 15 6 40
10 56 9 45 -2 56 14 56 86 0 65 0 65 25 59 14 -4 31 -3 37 0 7 4 27 8 46 8 24
1 38 7 46 21 6 11 15 23 19 26 4 3 3 26 -2 50 -6 26 -9 192 -7 400 l2 356 27
45 c52 89 168 110 287 51 143 -71 251 -190 290 -322 19 -63 43 -310 33 -337
-11 -28 20 -21 76 18 l61 42 0 80 c0 313 -203 580 -514 675 -37 12 -94 21
-125 21 -73 1 -48 18 47 31 175 25 359 -47 513 -200 117 -118 185 -249 219
-429 18 -96 18 -97 -3 -111 -238 -167 -634 -574 -805 -828 -61 -91 -66 -91
-62 0 1 20 -1 37 -3 37 -3 0 -24 -30 -48 -67 -24 -38 -45 -70 -47 -73 -13 -17
-21 38 -16 110 9 127 38 239 91 348 61 125 60 120 34 97 -84 -74 -197 -305
-221 -450 -7 -38 -21 -106 -32 -150 -30 -116 -23 -313 14 -402 l25 -62 -38 19
c-55 28 -76 25 -120 -19 -33 -32 -39 -45 -39 -80 0 -47 11 -52 30 -16 21 39
57 58 96 51 33 -7 68 -41 58 -58 -3 -4 19 -8 49 -8 72 0 91 -14 316 -246 213
-218 296 -315 280 -325 -8 -5 -8 -8 0 -13 6 -4 11 -12 11 -17 0 -6 -5 -7 -11
-3 -6 3 -4 -8 5 -24 9 -17 20 -34 26 -37 5 -3 10 -15 10 -26 0 -13 4 -18 12
-13 7 4 8 3 4 -5 -6 -9 -11 -9 -24 1 -13 11 -15 10 -9 -5 11 -29 -11 -9 -29
26 -16 31 -54 74 -54 61 0 -3 38 -86 85 -183 47 -98 87 -191 90 -207 5 -25 -3
-40 -52 -99 -95 -116 -314 -412 -402 -543 -45 -67 -84 -122 -86 -122 -2 0 -15
5 -28 11 -20 9 -34 3 -108 -42 -46 -29 -121 -67 -166 -84 l-82 -31 62 -62 c35
-34 70 -75 80 -91 16 -28 16 -28 -111 27 -162 69 -425 161 -581 203 -67 18
-119 34 -117 36 2 2 66 -10 142 -27 75 -17 141 -29 146 -28 4 2 -40 40 -100
85 -118 90 -312 209 -388 238 -45 17 -47 19 -24 25 14 4 63 8 110 9 139 3 129
30 -18 50 -127 17 -271 52 -247 61 l20 7 -20 6 c-20 7 -55 76 -55 108 0 9 7
36 15 59 8 23 11 48 7 56 -9 16 -49 -31 -95 -110 -27 -47 -28 -49 -21 -16 5
19 9 85 10 147 1 105 2 113 27 143 15 17 27 38 27 47 0 13 -4 13 -27 -2 -16
-10 -38 -27 -50 -38 -28 -25 -40 -17 -20 15 8 12 17 35 21 50 9 41 69 136 91
146 11 5 46 21 77 36 50 24 62 26 96 17 21 -6 48 -21 61 -35 l22 -23 -23 -29
c-48 -58 -61 -88 -66 -149 -4 -60 11 -135 27 -135 5 0 11 17 14 38 12 74 105
152 182 152 38 0 42 -8 21 -48 -7 -15 -16 -37 -20 -48 -6 -21 -5 -21 30 -9 25
8 48 10 68 4 41 -11 101 -79 120 -136 20 -58 21 -145 1 -182 -18 -35 -71 -81
-93 -81 -12 0 -13 -3 -5 -11 16 -16 151 -13 203 6 64 23 169 87 209 128 26 27
34 46 38 84 l6 48 -34 -37 c-43 -47 -84 -59 -92 -27 -3 13 2 38 14 60 30 60
26 75 -14 45 -40 -31 -63 -34 -52 -8 4 9 9 28 10 42 2 14 6 37 10 53 8 31 -4
35 -40 11 -36 -24 -47 -10 -41 54 8 97 18 167 27 177 4 6 13 42 19 80 6 39 15
74 20 79 13 13 66 -3 89 -28 14 -15 23 -38 24 -65 1 -22 3 -41 5 -41 2 0 30
16 62 36 33 20 64 33 70 29 12 -7 9 -51 -5 -87 -10 -26 9 -22 44 8 36 30 58
26 67 -11 5 -19 1 -32 -17 -51 -27 -29 -21 -30 33 -4 23 11 45 20 49 20 13 0
31 -70 27 -101 l-5 -30 38 37 c60 58 92 142 97 251 2 51 8 90 13 87 5 -3 9 3
9 14 0 25 -42 128 -55 133 -5 2 -14 -12 -20 -32 -12 -42 -41 -79 -63 -79 -9 0
-51 14 -94 31 -75 31 -92 44 -141 113 -10 15 -53 49 -95 78 -252 169 -582 440
-582 478 0 9 91 -55 246 -172 88 -66 284 -199 284 -193 0 22 -239 352 -289
399 -17 17 -31 28 -31 25 0 -2 13 -37 30 -76 35 -87 47 -143 31 -143 -6 0 -31
20 -55 44 -25 24 -48 45 -53 47 -15 6 -113 118 -113 129 0 5 -18 27 -40 49
-22 22 -40 44 -40 50 0 5 -5 13 -12 17 -8 5 -9 2 -4 -12 5 -14 -1 -11 -23 10
-34 33 -43 50 -11 21 11 -10 20 -14 20 -8 0 13 -240 213 -255 213 -4 0 9 -19
28 -42 58 -72 112 -159 160 -255 26 -50 60 -113 77 -139 16 -26 28 -49 26 -52
-8 -7 -167 111 -261 194 -85 76 -115 108 -84 89 5 -4 -70 74 -168 172 -98 98
-179 176 -181 172 -6 -14 60 -193 107 -295 81 -171 159 -285 327 -482 l36 -43
-28 6 c-178 40 -265 80 -392 180 -64 51 -79 59 -72 40 12 -31 51 -237 46 -242
-2 -2 -9 17 -15 43 -17 67 -26 46 -11 -26 7 -33 11 -62 9 -65 -14 -13 -162
-28 -279 -27 -97 0 -163 6 -235 21 -54 11 -101 18 -103 16 -16 -15 188 -158
293 -205 97 -44 100 -47 66 -76 -16 -13 -33 -24 -37 -24 -15 -1 -55 -38 -52
-48 3 -11 -99 -122 -112 -122 -4 0 -36 -42 -71 -92 -68 -100 -84 -120 -91
-112 -3 2 -12 -15 -21 -38 -18 -45 -40 -149 -33 -155 2 -2 17 9 34 25 18 16
51 39 74 50 62 29 186 67 194 59 4 -3 -8 -24 -26 -46 -29 -37 -31 -44 -21 -73
11 -35 7 -60 -28 -163 -11 -33 -28 -87 -38 -120 -11 -37 -23 -59 -31 -57 -15
3 -10 -49 12 -135 l12 -46 34 58 c33 55 104 125 115 113 3 -3 0 -27 -6 -55 -9
-38 -9 -54 0 -69 10 -15 11 -15 7 -2 -3 12 -1 15 10 11 14 -5 14 -11 18 -196
l1 -59 -37 6 c-52 8 -119 31 -211 73 -78 35 -79 35 -100 15 -27 -23 -57 -35
-57 -21 0 5 -11 21 -25 35 -14 14 -25 31 -25 39 0 8 -7 15 -15 15 -22 0 -19
-9 21 -67 32 -47 37 -73 14 -73 -17 0 -218 254 -270 343 -12 20 -23 37 -25 37
-7 0 8 -41 16 -46 5 -3 9 -10 9 -16 0 -6 -8 -4 -18 5 -10 10 -21 15 -24 12 -3
-3 -20 12 -38 35 -18 23 -30 43 -27 46 5 5 -3 39 -19 79 -7 18 -6 19 8 5 8 -9
22 -30 31 -46 9 -17 24 -37 33 -45 12 -9 9 1 -9 31 -40 66 -104 203 -122 262
-8 28 -18 93 -21 144 -4 52 -10 94 -15 94 -4 0 -19 -15 -33 -32 l-26 -33 9 30
c16 55 30 85 68 143 59 91 93 160 93 186 0 13 6 27 13 29 9 4 9 6 -1 6 -9 1
-10 6 -2 20 5 11 7 27 4 35 -7 19 300 330 403 409 79 61 98 67 196 67 82 0 82
0 110 35 19 23 36 35 53 35 33 0 82 -49 91 -90 8 -43 23 -19 23 39 0 97 -88
169 -161 131 -27 -15 -24 -4 16 55 20 28 47 85 62 126 22 64 27 96 31 227 4
129 7 150 18 135 19 -25 1 37 -38 136 -39 97 -91 173 -165 242 -65 60 -170
135 -178 127 -3 -2 16 -31 41 -64 72 -91 151 -263 163 -355 9 -68 3 -170 -11
-185 -3 -2 -31 21 -63 53 -31 32 -54 49 -50 38 3 -11 9 -32 12 -47 10 -52 -21
-30 -117 84 -223 263 -462 501 -673 667 -43 34 -76 65 -73 70 8 13 -102 79
-279 166 -254 125 -418 174 -675 200 -149 16 -185 27 -157 50 6 6 13 35 15 64
1 30 7 58 14 62 9 6 8 11 -1 23 -10 12 -11 16 -1 16 9 0 8 7 -4 25 -16 25 -16
25 12 25 44 0 120 -26 165 -56 41 -27 45 -28 188 -29 l146 0 148 -75 c176 -89
248 -148 301 -249 19 -36 32 -56 29 -43 -8 28 3 29 126 16 44 -5 59 -3 72 11
10 9 15 21 11 26 -3 6 6 7 23 4 20 -4 13 2 -22 20 -92 47 -135 107 -135 188 0
58 13 91 46 122 38 35 101 35 134 0 l24 -25 -28 -29 c-24 -25 -26 -31 -15 -50
17 -27 62 -45 93 -37 40 10 79 70 79 120 -2 79 -73 175 -158 210 -137 58 -266
35 -397 -70 l-57 -45 44 -61 c25 -33 45 -65 45 -70 0 -5 -22 10 -49 34 -111
99 -332 198 -443 198 -40 0 -34 17 10 29 93 26 190 6 306 -64 55 -33 76 -37
76 -14 0 6 -4 7 -10 4 -5 -3 -10 1 -10 9 0 9 4 16 9 16 5 0 11 20 13 45 2 25
0 45 -4 45 -17 0 -7 24 21 51 16 15 27 30 23 33 -8 8 -370 5 -462 -4z m5169
-147 c52 -104 115 -188 190 -253 71 -62 105 -114 125 -190 13 -49 13 -52 -8
-59 -19 -8 -22 -3 -33 49 -16 83 -36 115 -126 205 -44 44 -95 103 -113 131
-30 47 -84 166 -84 186 0 20 13 2 49 -69z m-1944 -661 c-7 -8 -45 10 -40 19 4
5 14 3 25 -3 11 -7 17 -14 15 -16z m138 -102 c14 -11 30 -20 36 -20 14 0 14
-17 0 -26 -12 -7 -66 29 -61 41 2 4 -2 12 -10 16 -7 5 -8 9 -2 9 6 0 23 -9 37
-20z m2794 -242 c-3 -7 -5 -2 -5 12 0 14 2 19 5 13 2 -7 2 -19 0 -25z m19
-239 c15 -25 23 -87 17 -137 -6 -52 -6 -53 -37 -50 l-31 3 3 85 c3 79 12 110
33 110 4 0 11 -5 15 -11z m308 -21 c3 -13 6 -53 6 -90 0 -66 -1 -68 -25 -68
-24 0 -25 2 -25 68 0 79 8 112 25 112 7 0 15 -10 19 -22z m-5395 -355 c67 -73
87 -104 59 -87 -7 4 -4 -3 7 -15 l19 -22 -52 20 c-73 29 -92 43 -99 71 -3 14
-8 30 -12 35 -3 6 -7 21 -9 34 -2 14 -8 33 -13 43 -21 38 27 0 100 -79z m4974
21 c7 -7 -16 -55 -36 -76 -7 -7 -18 -22 -25 -33 -6 -11 -12 -14 -12 -7 0 9 -8
7 -27 -5 -25 -16 -23 -12 12 32 22 27 46 56 53 63 6 7 12 18 12 23 0 10 14 12
23 3z m-5056 -305 c30 -17 81 -56 115 -87 73 -68 78 -66 -134 -76 -114 -6
-148 -4 -148 5 0 7 3 9 7 6 10 -11 51 56 59 97 5 27 9 34 16 24 6 -9 8 -4 7
17 -2 57 2 57 78 14z m4326 -23 c3 -8 2 -16 -4 -18 -5 -2 9 -32 31 -68 l40
-65 0 -142 c0 -79 -2 -143 -5 -143 -3 0 -32 13 -64 29 l-58 30 1 148 c2 124 5
154 21 183 11 19 18 41 17 48 -4 17 15 15 21 -2z m64 -68 c-3 -8 -6 -5 -6 6
-1 11 2 17 5 13 3 -3 4 -12 1 -19z m-233 -53 c4 -14 10 -23 15 -21 13 8 21
-27 28 -121 5 -69 3 -83 -9 -83 -18 0 -108 57 -108 68 0 16 40 125 50 137 6 7
8 20 4 29 -3 9 -2 16 4 16 5 0 13 -11 16 -25z m-817 -91 c-3 -3 -12 -4 -19 -1
-8 3 -5 6 6 6 11 1 17 -2 13 -5z m-41 -205 c24 -6 44 -16 44 -21 0 -6 8 -8 19
-5 14 3 17 0 13 -15 -3 -14 2 -21 16 -25 14 -3 32 -26 49 -61 15 -30 37 -67
50 -83 16 -18 20 -30 13 -34 -10 -6 -34 10 -80 55 -8 8 -24 20 -35 26 -11 6
-26 24 -34 41 -11 24 -23 33 -50 38 -46 9 -56 15 -40 26 11 6 9 13 -9 29 -42
39 -29 47 44 29z m-4491 -113 c122 -26 223 -104 277 -214 31 -62 33 -73 33
-172 0 -177 -43 -269 -160 -342 -80 -49 -88 -49 -69 5 28 79 36 131 28 197 -7
71 -6 72 -44 -48 l-24 -74 -21 66 c-49 150 -170 249 -358 290 -15 4 -27 12
-25 19 3 17 -21 85 -48 135 -21 37 -22 43 -8 49 17 6 130 -2 156 -12 25 -10
10 35 -19 58 -13 10 -23 22 -23 27 0 29 200 39 305 16z m4720 -146 c3 -5 -1
-10 -10 -10 -9 0 -13 5 -10 10 3 6 8 10 10 10 2 0 7 -4 10 -10z m-1138 -73
c59 -60 65 -77 28 -77 -45 0 -83 26 -90 62 -4 18 -9 41 -11 51 -9 31 18 18 73
-36z m-647 7 l65 -13 -75 4 c-41 3 -95 11 -120 19 l-45 15 55 -6 c30 -3 84
-12 120 -19z m1147 -156 c-3 -7 -5 -2 -5 12 0 14 2 19 5 13 2 -7 2 -19 0 -25z
m-4251 -163 c127 -63 203 -252 160 -400 l-14 -50 -1 52 c-2 122 -93 252 -213
303 -42 18 -56 29 -53 41 3 9 -4 27 -15 42 -11 14 -20 28 -20 31 0 3 24 6 53
6 37 0 69 -8 103 -25z m-84 -301 c60 -30 129 -97 157 -152 48 -94 48 -219 1
-312 -24 -47 -47 -65 -36 -29 14 48 18 127 8 144 -9 16 -14 12 -46 -38 -40
-62 -51 -72 -36 -31 6 14 10 50 10 79 0 174 -169 321 -250 218 -29 -37 -25 -6
6 38 24 35 25 39 10 67 -9 17 -26 34 -38 38 l-23 8 25 6 c43 10 159 -9 212
-36z m5649 -343 c71 -27 185 -106 234 -163 42 -48 109 -180 102 -200 -3 -9 -7
-6 -12 7 -4 11 -11 29 -16 40 -9 19 -9 19 -5 -2 2 -15 0 -20 -9 -16 -20 7 -35
-30 -35 -89 0 -246 -218 -483 -516 -560 -49 -13 -94 -27 -101 -31 -7 -4 -26
-34 -44 -67 -67 -125 -221 -248 -457 -363 -137 -67 -179 -94 -246 -156 -21
-20 -37 -31 -35 -26 18 47 98 199 129 245 47 69 144 169 199 206 42 27 53 41
26 30 -12 -4 -14 0 -11 19 l5 25 -95 0 c-119 0 -149 -12 -226 -91 -63 -65 -96
-126 -118 -219 -31 -133 -80 -210 -173 -273 -58 -40 -140 -66 -304 -96 -61
-12 -126 -28 -145 -36 -33 -14 -32 -14 25 -8 35 4 57 2 57 -4 0 -6 56 -12 138
-16 200 -7 316 -48 431 -152 77 -70 114 -133 136 -230 6 -29 5 -28 -24 12 -67
92 -215 180 -354 210 -138 29 -339 1 -501 -71 -70 -31 -74 -43 -5 -16 28 11
61 21 75 22 13 1 26 8 28 15 6 15 36 18 36 3 0 -6 -3 -9 -7 -8 -5 2 -8 -1 -8
-7 0 -5 3 -9 7 -8 4 2 5 -7 3 -18 -3 -12 0 -30 6 -40 6 -13 6 -19 -1 -19 -5 0
-10 -5 -10 -11 0 -5 5 -7 12 -3 7 4 8 3 4 -4 -4 -6 -2 -19 3 -29 13 -25 24
-57 23 -65 -1 -4 10 -3 24 2 51 20 41 1 -19 -37 -44 -26 -97 -72 -97 -83 0 -3
20 -12 45 -19 48 -14 80 -41 57 -48 -7 -3 -17 -14 -23 -25 -9 -16 -6 -27 15
-57 20 -29 56 -53 154 -105 151 -80 236 -135 239 -156 1 -10 -27 -29 -79 -55
-89 -44 -111 -53 -88 -35 12 9 10 11 -12 6 -14 -3 -34 -9 -45 -12 -18 -6 29
26 88 59 27 15 30 20 18 31 -20 18 -202 124 -233 136 -23 8 -26 15 -26 55 0
30 -5 47 -14 51 -17 6 -335 -180 -354 -207 -7 -11 -20 -19 -29 -19 -25 0 -253
-136 -268 -160 -3 -5 -27 5 -53 23 -116 81 -230 145 -240 135 -7 -7 -22 2 -49
29 -47 46 -295 196 -326 197 -19 1 -22 -5 -25 -41 -3 -39 -7 -45 -50 -69 -119
-67 -180 -104 -202 -122 l-23 -19 106 -72 c59 -40 110 -77 113 -83 12 -19 -3
-18 -28 1 -14 11 -49 33 -79 48 -118 63 -208 119 -206 128 4 12 123 90 243
160 48 28 99 63 113 78 14 16 71 58 126 95 55 37 105 73 112 82 7 8 13 11 13
6 0 -6 7 -1 15 10 8 10 15 15 15 11 0 -4 15 6 33 22 17 17 36 31 40 31 5 0 24
12 43 26 18 14 41 24 49 20 32 -12 12 4 -57 47 -40 24 -190 114 -333 199 -376
224 -1012 608 -1290 778 -132 81 -319 195 -415 253 -97 59 -191 120 -210 137
l-35 30 47 -17 c41 -15 54 -15 90 -4 24 7 64 17 89 23 l46 11 234 -140 c129
-77 261 -156 294 -175 33 -19 168 -100 300 -180 132 -79 308 -184 390 -233 83
-49 258 -154 390 -233 340 -205 320 -195 355 -187 16 4 30 11 30 16 0 5 9 9
20 9 10 0 24 8 29 18 6 10 46 42 89 70 83 54 124 94 182 179 l35 51 0 -111 c0
-105 4 -127 40 -235 7 -20 229 177 292 259 20 27 39 47 41 44 2 -2 -5 -28 -16
-57 -23 -62 -37 -174 -23 -182 5 -3 11 -3 13 1 5 13 70 58 148 103 41 23 99
61 128 83 59 45 142 149 142 179 0 10 5 16 10 13 11 -7 56 85 80 160 7 22 23
66 36 98 13 32 21 63 18 69 -9 14 -26 -18 -34 -62 l-7 -35 -16 35 c-8 19 -28
75 -42 125 -39 130 -99 243 -193 362 l-42 52 31 -11 c25 -9 32 -7 43 7 11 16
15 16 52 1 82 -35 92 -40 87 -51 -2 -7 31 -27 76 -48 l80 -36 19 -63 c11 -35
23 -83 27 -108 l8 -45 41 46 c51 57 117 110 173 138 57 29 68 26 44 -8 -60
-84 -79 -187 -42 -232 l18 -23 69 36 c38 20 90 42 117 48 26 7 47 15 47 19 0
4 -10 45 -21 91 -30 118 -24 270 16 389 50 147 204 348 338 440 61 41 165 90
242 113 87 26 287 20 366 -11z m-6000 -364 c41 -23 139 -77 216 -120 78 -43
147 -85 155 -94 10 -13 13 -91 13 -387 0 -480 -6 -707 -16 -616 -3 36 -7 122
-8 193 0 70 -5 127 -9 127 -14 0 -36 -30 -67 -88 -16 -28 -30 -50 -32 -48 -9
8 47 116 71 137 24 21 26 28 26 112 0 85 -13 160 -32 182 -4 5 -8 -12 -8 -37
0 -38 -13 -72 -67 -179 -49 -95 -68 -142 -68 -170 0 -38 -14 -56 -17 -21 -3
42 7 75 62 197 33 72 62 144 66 161 7 37 -9 72 -76 164 -26 36 -55 80 -64 98
-15 29 -19 31 -39 21 -12 -7 -34 -22 -50 -35 -15 -13 -34 -21 -41 -18 -16 6
-141 -48 -168 -73 -16 -14 -18 -38 -20 -212 -1 -174 -2 -185 -8 -96 -4 55 -8
144 -9 198 -1 115 -1 114 -127 188 -44 25 -128 75 -187 109 -59 35 -110 68
-114 73 -3 5 3 17 13 27 31 30 473 250 502 250 15 0 61 -19 103 -43z m894 19
c19 -8 41 -28 49 -45 20 -37 21 -105 2 -120 -11 -9 -18 -3 -35 32 -12 24 -21
48 -21 54 0 6 -18 27 -40 46 -22 19 -40 37 -40 40 0 12 50 7 85 -7z m483 -46
c23 -10 42 -21 42 -23 0 -2 -22 -2 -48 1 -121 11 -183 -105 -106 -198 30 -35
136 -90 175 -90 26 0 27 1 16 30 -15 39 3 58 63 66 37 5 50 2 72 -15 37 -29
62 -108 48 -147 -13 -33 -38 -64 -53 -64 -6 0 -2 8 7 19 22 25 31 84 16 107
-10 17 -11 17 -6 1 8 -26 -40 -75 -87 -88 -48 -13 -83 -6 -173 37 -106 50
-178 140 -190 236 -8 69 6 100 56 126 54 27 111 28 168 2z m759 -395 c101 -50
186 -144 260 -290 69 -136 94 -170 143 -195 53 -27 196 -67 267 -75 137 -16
304 64 395 189 45 62 33 20 -33 -111 -86 -174 -160 -238 -318 -279 -164 -41
-327 56 -429 256 -54 105 -57 108 -85 103 -18 -4 -31 4 -50 27 -15 17 -27 38
-27 47 0 8 -12 49 -26 91 -39 117 -84 170 -230 270 -41 28 61 3 133 -33z
m4495 -47 c-129 -191 -166 -346 -126 -523 27 -117 28 -125 12 -125 -7 0 -38
16 -68 35 l-55 36 -3 -33 c-2 -18 4 -62 12 -98 8 -35 14 -65 13 -66 -1 -2 -33
27 -71 64 l-68 67 10 77 c29 198 155 436 306 574 39 35 74 64 78 64 5 0 -13
-33 -40 -72z m-3132 26 c298 -94 465 -413 372 -709 -19 -58 -19 -59 -27 -30
-19 71 -54 122 -110 160 -50 33 -65 38 -136 42 l-80 6 38 34 c48 43 73 53 131
53 26 0 54 5 62 10 13 9 11 14 -13 35 -22 19 -39 25 -76 25 l-48 0 5 54 c3 36
0 56 -8 61 -10 6 -12 0 -7 -27 3 -19 1 -41 -4 -49 -7 -12 -9 -12 -9 1 0 8 -12
45 -26 82 -55 144 -172 227 -359 254 l-50 7 50 13 c69 18 200 8 295 -22z
m-3355 -103 c54 -84 66 -113 54 -132 -7 -11 -9 -11 -9 -1 0 8 -18 45 -41 84
l-41 70 -23 -22 c-13 -12 -37 -56 -54 -97 -24 -59 -28 -80 -20 -97 10 -20 10
-20 -5 -2 -9 11 -16 27 -17 35 0 14 101 228 109 230 1 1 23 -30 47 -68z m-190
-36 c-27 -40 -40 -71 -46 -113 -7 -54 -7 -53 -6 26 2 83 2 84 40 119 21 19 41
32 44 29 4 -3 -11 -31 -32 -61z m4275 -129 c91 -60 205 -159 222 -191 6 -11
-27 14 -73 55 -46 40 -114 96 -151 123 -38 27 -68 51 -68 54 0 5 12 -2 70 -41z
m1638 -107 c-50 -73 -112 -128 -188 -168 -56 -30 -237 -87 -246 -78 -3 3 27
31 66 62 39 31 84 70 101 86 16 16 35 29 43 29 16 0 181 81 221 109 48 33 49
25 3 -40z m-5869 -75 c34 -41 61 -82 61 -90 0 -16 -85 -154 -95 -154 -8 0 12
36 46 87 16 23 29 50 29 60 0 11 -22 44 -48 74 -53 59 -78 99 -63 99 5 0 37
-34 70 -76z m732 -155 c90 -56 191 -115 224 -131 68 -34 105 -64 106 -87 0
-11 3 -10 11 5 12 26 91 69 112 61 8 -3 16 -2 18 3 4 12 84 15 118 6 14 -4 3
5 -23 19 -56 30 -65 29 -159 -26 l-67 -39 -27 25 c-14 13 -35 27 -46 31 -10 3
-17 11 -16 16 4 11 218 130 254 142 19 6 208 -92 271 -141 l28 -21 -58 -26
c-53 -24 -60 -25 -80 -11 -35 24 -41 17 -8 -10 l30 -26 60 31 c33 16 68 30 78
30 10 0 79 -35 153 -78 173 -100 173 -102 35 -176 -78 -41 -104 -61 -117 -87
-10 -19 -18 -26 -18 -17 0 19 -47 78 -63 78 -6 0 -1 -10 11 -23 23 -24 30 -57
12 -57 -6 0 -85 -43 -177 -95 -144 -82 -168 -93 -182 -81 -9 7 -65 41 -126 76
-60 34 -129 76 -153 92 -25 17 -50 27 -59 24 -14 -6 -14 -4 1 19 16 24 16 25
-7 14 -20 -9 -39 -1 -140 58 -76 44 -116 73 -114 83 1 8 46 38 99 65 54 28
102 55 108 61 8 8 -2 20 -37 42 -26 16 -58 33 -70 37 -30 9 -29 21 5 39 15 8
22 15 17 16 -6 0 -27 -11 -48 -25 -28 -20 -37 -22 -37 -11 0 8 -29 36 -65 61
-43 31 -65 54 -65 67 0 17 -5 20 -29 16 -17 -2 -27 0 -24 5 9 14 67 47 84 47
9 0 90 -45 180 -101z m-657 -95 c-20 -22 -30 -28 -20 -14 9 14 22 35 28 48 7
13 15 19 20 14 6 -6 -6 -25 -28 -48z m5233 -54 c127 -40 248 -161 286 -285 30
-98 28 -112 -5 -46 -42 81 -87 113 -168 119 -66 5 -138 -15 -195 -54 -20 -13
-38 -24 -40 -24 -3 0 -5 15 -5 33 0 28 9 42 53 82 l52 48 -40 15 c-63 24 -253
21 -330 -5 -33 -11 -62 -19 -64 -17 -8 8 63 75 112 106 26 17 65 37 85 44 51
19 169 12 259 -16z m2280 -82 c-3 -8 -6 -5 -6 6 -1 11 2 17 5 13 3 -3 4 -12 1
-19z m-6 -41 c-10 -9 -11 -8 -5 6 3 10 9 15 12 12 3 -3 0 -11 -7 -18z m-7039
-181 c32 -23 58 -43 58 -46 0 -3 -19 -11 -41 -18 -60 -19 -309 -139 -309 -149
0 -12 61 -69 80 -76 12 -4 11 -6 -3 -6 -10 -1 -41 -11 -69 -23 -36 -15 -54
-30 -63 -51 -12 -29 -13 -29 -20 -9 -5 18 -155 117 -219 146 -21 10 24 35 434
246 41 21 79 36 85 33 5 -4 36 -25 67 -47z m1547 -13 c368 -217 371 -218 371
-233 0 -5 -66 -46 -147 -92 -80 -45 -148 -90 -150 -99 -4 -14 -8 -13 -27 6
-12 12 -29 25 -37 28 -11 5 -10 9 6 19 47 30 105 96 105 120 0 28 -50 61 -202
133 l-98 46 0 40 c0 43 34 89 66 89 10 0 60 -25 113 -57z m3538 -255 c18 -17
23 -31 21 -67 -1 -45 -1 -45 -5 -8 -2 21 -11 41 -18 44 -14 5 -106 -44 -443
-237 -133 -76 -161 -95 -150 -106 7 -7 60 -38 118 -69 148 -80 147 -77 66
-116 -38 -18 -73 -41 -79 -51 -14 -22 -27 -23 -27 -3 0 8 -17 25 -37 38 -21
13 -82 50 -135 82 -54 33 -97 65 -98 72 0 20 67 68 179 129 58 32 196 109 306
172 288 166 264 156 302 120z m-5113 -3 c36 -8 99 -18 141 -21 71 -5 81 -9
158 -58 45 -30 120 -75 167 -101 47 -25 94 -54 105 -63 55 -47 134 -92 161
-92 10 0 85 37 168 83 83 46 168 91 188 102 l37 19 58 -30 c96 -50 203 -114
203 -123 0 -4 -80 -51 -177 -103 -98 -53 -188 -105 -201 -117 -13 -12 -28 -19
-34 -15 -5 3 -23 -4 -40 -16 -16 -12 -31 -20 -32 -18 -1 1 -13 18 -25 36 -13
18 -25 31 -28 28 -3 -2 2 -15 11 -28 9 -12 16 -28 16 -35 0 -7 -31 -30 -68
-52 -37 -22 -79 -49 -92 -60 -24 -19 -26 -19 -45 -1 -33 30 -237 150 -256 150
-9 0 -20 -6 -22 -12 -3 -7 -6 -1 -6 13 -1 20 -13 34 -58 63 -32 20 -63 36 -69
36 -18 0 -19 -30 -14 -493 l5 -439 25 -20 c14 -10 41 -29 60 -42 19 -12 35
-29 35 -38 0 -8 7 -23 14 -32 13 -16 12 -16 -11 -6 -22 11 -36 5 -129 -48 -58
-33 -117 -66 -132 -73 -15 -7 -27 -15 -27 -18 0 -9 68 -51 82 -51 8 0 73 34
146 76 74 41 139 73 145 71 7 -2 -1 -12 -18 -21 -16 -9 -86 -48 -153 -86
l-124 -69 -51 34 c-29 19 -56 35 -61 35 -5 0 -45 -22 -90 -49 -102 -61 -258
-141 -275 -141 -19 0 -68 28 -135 77 -33 25 -62 46 -64 48 -4 4 138 89 268
160 58 32 124 71 148 87 l42 29 0 170 c0 138 -3 171 -14 175 -8 3 -58 -17
-111 -45 -90 -47 -98 -50 -123 -37 -54 28 -65 50 -58 112 7 60 30 114 48 114
6 0 49 -21 95 -46 l84 -46 -2 411 c-2 353 -4 413 -17 423 -8 7 -41 29 -74 49
-63 39 -63 41 -1 73 46 23 65 20 124 -19 28 -20 57 -38 63 -41 18 -9 -47 46
-86 73 -41 28 -48 43 -20 43 9 1 28 7 42 15 31 18 26 18 104 0z m1328 -89 c31
-19 65 -33 75 -30 23 5 127 -57 131 -78 2 -11 -9 -20 -31 -27 -34 -12 -70 -43
-80 -71 -4 -11 -7 -9 -12 7 -5 16 -47 45 -132 94 l-125 71 48 34 c26 19 52 34
58 34 6 0 37 -15 68 -34z m-1831 -722 c30 -20 76 -47 102 -61 27 -13 47 -27
44 -29 -7 -7 -52 17 -130 67 -63 41 -94 46 -152 25 -11 -4 -4 2 15 13 48 28
60 26 121 -15z m-202 -38 c-2 -2 -15 -9 -29 -15 -24 -11 -24 -11 -6 3 16 13
49 24 35 12z m2666 -81 c-12 -96 -2 -112 119 -187 l49 -30 -54 -34 c-30 -18
-60 -36 -66 -40 -7 -3 -70 30 -140 74 -71 44 -142 87 -160 96 -19 9 -30 22
-27 29 9 25 259 161 276 151 5 -3 6 -30 3 -59z m-2738 37 c-25 -27 -21 -32 21
-33 28 0 32 -2 17 -8 -21 -8 -85 7 -85 20 0 7 47 37 59 39 2 0 -3 -8 -12 -18z
m5036 -44 c62 -33 122 -70 135 -81 l22 -21 -36 -12 c-47 -16 -238 -132 -265
-160 l-20 -22 -55 36 c-61 39 -65 50 -11 27 50 -21 70 -19 95 8 17 18 19 26
10 35 -7 7 -9 12 -6 12 3 0 2 16 -2 35 -4 20 -4 38 1 41 5 3 9 41 9 85 0 43 3
79 6 79 3 0 56 -28 117 -62z m-4673 12 c13 -8 13 -10 -2 -10 -9 0 -20 5 -23
10 -8 13 5 13 25 0z m-438 -37 c25 -24 28 -33 28 -94 0 -62 -2 -69 -27 -87
-16 -10 -35 -21 -44 -25 -20 -7 -54 16 -70 45 l-12 21 28 -21 c34 -27 65 -28
96 -3 22 18 22 21 11 77 -7 33 -13 65 -14 72 -2 18 -32 15 -100 -13 -34 -14
-63 -23 -66 -21 -3 4 124 74 137 76 3 0 18 -12 33 -27z m320 -22 c24 -10 57
-23 73 -28 21 -6 31 -16 33 -32 3 -18 0 -22 -12 -18 -24 9 -20 -18 7 -46 12
-13 46 -36 76 -51 30 -16 50 -31 45 -36 -10 -10 -300 -170 -308 -170 -3 0 -53
32 -112 70 -58 39 -112 70 -119 70 -8 0 -21 7 -30 16 -15 16 -14 18 13 36 17
10 54 27 83 37 34 12 56 27 61 40 6 18 4 21 -22 21 -51 0 -36 28 35 66 90 48
116 52 177 25z m3155 -2 l-28 -21 78 -51 c147 -96 356 -217 375 -217 10 0 36
9 58 20 60 30 61 24 3 -15 -29 -19 -57 -35 -63 -35 -5 0 -36 17 -68 39 -46 31
-251 159 -386 241 l-29 18 39 21 c50 26 56 26 21 0z m906 -26 c6 -6 -66 -44
-82 -43 -10 1 53 50 65 50 6 0 14 -3 17 -7z m-1913 -189 c0 -14 -3 -14 -15 -4
-13 11 -21 10 -43 -8 -26 -20 -85 -57 -242 -150 -41 -24 -79 -51 -83 -59 -5
-7 -84 -51 -175 -97 -187 -93 -318 -168 -315 -180 0 -5 14 -17 30 -27 l29 -18
90 53 c175 104 380 224 444 259 73 40 150 74 135 59 -11 -11 -304 -183 -420
-247 -38 -22 -109 -63 -157 -92 l-88 -53 -45 28 c-25 15 -44 31 -42 37 4 11
134 94 237 151 36 20 139 80 230 133 415 245 430 253 430 215z m764 -93 c66
-44 142 -90 169 -102 26 -13 47 -26 47 -30 0 -3 -27 -21 -61 -39 -54 -28 -62
-30 -77 -17 -32 27 -277 178 -299 183 -13 4 -23 10 -23 14 0 9 97 67 114 69 4
0 63 -35 130 -78z m2171 -1 c33 -20 88 -51 123 -70 34 -18 62 -36 62 -40 0 -3
-27 -19 -59 -35 -54 -25 -61 -26 -75 -13 -8 9 -35 26 -60 37 -78 38 -96 62
-96 126 0 64 -8 64 105 -5z m-3943 -86 c21 -15 38 -30 38 -34 0 -13 -162 -112
-169 -103 -3 4 -25 21 -49 37 -23 16 -40 31 -37 34 10 11 160 91 169 92 6 0
27 -12 48 -26z m4333 -157 c139 -88 263 -170 250 -165 -6 1 -57 29 -113 62
-114 64 -197 100 -255 111 -48 9 -47 -4 4 -35 22 -14 49 -33 60 -43 11 -10 95
-66 186 -124 l165 -105 49 27 c70 38 80 27 15 -16 -30 -20 -58 -33 -63 -29 -4
5 -22 16 -40 27 -17 10 -87 52 -154 93 -267 164 -295 181 -327 192 -18 7 -31
17 -29 22 6 18 107 65 125 59 9 -4 67 -38 127 -76z m-2089 -78 c77 -50 165
-104 197 -119 39 -19 52 -30 42 -34 -19 -7 -97 18 -152 50 -41 24 -93 32 -93
15 0 -5 -13 -14 -29 -19 -28 -10 -30 -9 -41 24 -6 19 -17 34 -23 34 -16 0
-147 81 -147 91 0 14 62 49 86 49 12 0 84 -41 160 -91z m-2751 -109 c3 -5 -7
-17 -22 -28 -51 -35 -229 -132 -243 -132 -8 0 24 22 70 49 47 26 106 62 132
78 l47 30 -27 28 -27 28 32 -22 c18 -12 35 -26 38 -31z m619 -74 c13 -21 29
-10 -162 -117 -78 -44 -147 -79 -153 -77 -5 2 12 14 38 28 67 35 224 127 247
145 19 14 19 15 1 35 -10 11 -30 20 -44 20 -20 0 -23 2 -11 10 17 11 67 -15
84 -44z m-114 23 c-25 -16 -109 -59 -117 -59 -11 0 110 69 122 70 6 0 3 -5 -5
-11z m1326 -77 c-3 -2 -14 2 -26 8 -12 6 -24 10 -26 7 -3 -2 10 -10 28 -17 74
-28 86 -35 82 -41 -2 -4 -34 -24 -70 -44 l-66 -37 -26 25 c-15 13 -49 41 -75
61 l-49 36 62 29 62 30 54 -27 c29 -14 52 -28 50 -30z m-458 -77 c10 -9 5 -17
-25 -37 -37 -24 -45 -25 -253 -31 -247 -7 -242 -15 -60 90 68 39 116 61 118
54 2 -6 8 -8 14 -5 11 7 6 -65 -6 -84 -10 -17 11 -23 24 -7 16 20 61 19 105
-2 28 -14 38 -14 48 -4 10 10 6 17 -18 37 -48 39 -99 72 -115 76 -21 4 -31 21
-18 30 10 5 143 -78 186 -117z m5147 65 c-3 -5 -12 -10 -18 -10 -7 0 -6 4 3
10 19 12 23 12 15 0z m-1315 -21 l25 -20 -32 16 c-18 8 -33 18 -33 20 0 10 16
4 40 -16z m-440 -45 c49 -33 50 -37 5 -18 -48 19 -69 18 -113 -9 -20 -13 -48
-30 -62 -37 -23 -11 -24 -11 -10 3 13 14 129 87 137 87 2 0 21 -12 43 -26z
m-3155 -36 c24 -13 45 -25 45 -28 0 -4 -180 -5 -205 -1 -15 3 77 50 98 51 9 0
37 -10 62 -22z m304 -12 c15 -18 -3 -25 -48 -18 l-34 5 24 13 c31 17 44 17 58
0z m2774 -33 c-7 -2 -19 -2 -25 0 -7 3 -2 5 12 5 14 0 19 -2 13 -5z m-340 -10
c-13 -2 -35 -2 -50 0 -16 2 -5 4 22 4 28 0 40 -2 28 -4z m225 0 c-27 -2 -69
-2 -95 0 -27 2 -5 3 47 3 52 0 74 -1 48 -3z m413 -5 c-20 -7 -90 -2 -99 7 -2
2 23 3 57 2 40 -1 55 -4 42 -9z m202 5 c-29 -2 -77 -2 -105 0 -29 2 -6 3 52 3
58 0 81 -1 53 -3z"/>
<path d="M7524 4996 c-64 -30 -150 -114 -188 -186 -36 -67 -46 -177 -23 -252
17 -53 84 -147 107 -148 8 0 28 -7 44 -15 39 -21 49 -19 35 8 l-12 22 23 -20
22 -20 -17 40 c-9 22 -20 49 -23 60 -10 36 -39 78 -44 63 -3 -7 -6 1 -6 17 -1
17 -4 48 -7 70 -5 27 -2 53 8 75 l15 35 1 -35 c1 -19 14 -57 29 -85 70 -127
221 -146 326 -42 123 124 83 317 -84 406 -73 39 -133 41 -206 7z"/>
<path d="M7359 4903 l-24 -28 28 24 c15 14 27 26 27 28 0 8 -8 1 -31 -24z"/>
<path d="M6326 3953 c-6 -14 -5 -15 5 -6 7 7 10 15 7 18 -3 3 -9 -2 -12 -12z"/>
<path d="M5209 2693 c-156 -93 -181 -111 -174 -124 3 -4 52 -36 108 -70 56
-34 127 -78 157 -96 40 -24 62 -32 80 -28 46 11 331 189 328 204 -2 9 -35 34
-73 57 -39 23 -108 64 -154 93 -46 28 -94 51 -106 51 -12 0 -87 -39 -166 -87z"/>
<path d="M1960 4372 c0 -6 12 -24 26 -39 l26 -28 -23 35 c-29 46 -29 45 -29
32z"/>
<path d="M2026 4275 c9 -14 18 -25 20 -25 2 0 -2 11 -8 25 -6 14 -15 25 -20
25 -5 0 -1 -11 8 -25z"/>
<path d="M2768 3417 c-42 -23 -90 -52 -105 -64 l-28 -22 27 0 c27 -1 188 102
188 120 0 12 7 15 -82 -34z"/>
<path d="M3295 3429 c60 -76 132 -118 150 -88 8 13 -10 27 -100 75 -63 34 -68
36 -50 13z"/>
<path d="M2758 2663 c-32 -14 -58 -30 -58 -34 0 -18 105 -79 135 -79 l30 1
-35 16 c-19 9 -39 17 -44 17 -5 1 -15 11 -23 22 -13 20 -11 24 24 53 45 37 44
38 -29 4z"/>
<path d="M1997 1993 c-11 -11 -8 -25 4 -18 6 4 31 -1 55 -10 56 -21 68 -13 23
14 -34 21 -70 27 -82 14z"/>
<path d="M6787 1640 c-4 -15 5 -25 37 -43 69 -40 106 -51 119 -38 8 8 6 11 -8
11 -16 0 -17 2 -6 9 15 10 6 17 -82 58 -59 28 -54 27 -60 3z m114 -57 c13 -15
12 -15 -8 -4 -24 12 -29 21 -14 21 5 0 15 -7 22 -17z"/>
<path d="M2805 1554 c-27 -20 -51 -40 -53 -44 -2 -5 11 -16 27 -25 34 -17 46
-13 135 42 l38 25 -31 19 c-43 26 -58 24 -116 -17z"/>
<path d="M7087 1474 c-16 -9 -27 -18 -24 -20 7 -7 57 18 57 28 0 10 1 10 -33
-8z"/>
<path d="M3700 8881 c0 -1 29 -34 65 -73 101 -109 145 -217 145 -359 0 -144
-69 -286 -174 -358 -25 -18 -46 -33 -46 -35 0 -2 9 -24 21 -50 13 -30 20 -69
21 -109 l0 -62 16 32 c18 38 29 41 121 38 53 -2 77 -8 93 -21 18 -16 17 -12
-7 29 -30 53 -49 177 -26 177 7 0 9 6 6 13 -4 6 2 2 13 -10 21 -23 62 -32 62
-13 0 7 6 8 17 1 26 -14 179 44 221 85 20 19 67 44 120 64 135 51 211 140 241
278 15 71 14 106 -4 177 -14 53 -49 123 -89 177 -12 16 -48 18 -414 20 -221 2
-402 1 -402 -1z"/>
<path d="M7460 8134 c0 -16 5 -36 10 -44 6 -10 7 -2 3 25 -7 49 -13 58 -13 19z"/>
<path d="M7450 8029 c-14 -11 -18 -18 -10 -15 8 3 23 9 33 12 9 4 17 10 17 15
0 14 -13 10 -40 -12z"/>
<path d="M6648 7578 c9 -9 15 -9 24 0 9 9 7 12 -12 12 -19 0 -21 -3 -12 -12z"/>
<path d="M6708 7573 c7 -3 16 -2 19 1 4 3 -2 6 -13 5 -11 0 -14 -3 -6 -6z"/>
<path d="M1877 7300 c-76 -13 -149 -55 -209 -118 -65 -68 -93 -118 -113 -204
-62 -263 97 -518 348 -558 86 -13 149 0 226 50 82 53 151 154 177 256 6 22 0
19 -40 -24 -92 -98 -204 -120 -320 -63 -99 48 -146 123 -146 231 0 69 14 110
56 159 72 86 211 94 272 16 27 -34 28 -61 3 -101 -22 -36 -64 -49 -87 -27 -12
13 -14 12 -14 -2 0 -9 13 -30 29 -46 56 -56 157 -31 205 51 29 48 28 149 -1
205 -28 54 -112 131 -170 157 -53 23 -145 31 -216 18z"/>
<path d="M9405 6813 c-31 -87 -34 -93 -54 -93 -23 0 -52 -36 -44 -56 7 -20 32
-17 71 6 24 15 34 17 37 8 2 -7 6 -20 8 -28 3 -8 6 36 6 98 1 61 -1 112 -3
112 -2 0 -12 -21 -21 -47z"/>
<path d="M7840 6221 c0 -6 5 -13 10 -16 6 -3 10 1 10 9 0 9 -4 16 -10 16 -5 0
-10 -4 -10 -9z"/>
<path d="M910 6104 c0 -8 5 -12 10 -9 6 3 10 10 10 16 0 5 -4 9 -10 9 -5 0
-10 -7 -10 -16z"/>
<path d="M7680 6066 c0 -2 7 -6 15 -10 8 -3 15 -1 15 4 0 6 -7 10 -15 10 -8 0
-15 -2 -15 -4z"/>
<path d="M7725 6060 c-6 -9 24 -381 31 -389 13 -15 20 30 24 168 4 112 9 163
19 174 12 15 10 20 -10 37 -26 21 -54 26 -64 10z"/>
<path d="M7920 6034 c-14 -8 -38 -19 -53 -24 -28 -10 -28 -11 -23 -73 3 -34 8
-101 12 -150 4 -62 9 -85 17 -80 7 4 22 6 34 5 29 -4 32 9 35 191 2 81 3 147
3 146 0 0 -11 -7 -25 -15z"/>
<path d="M8375 5878 c-44 -28 -93 -54 -109 -57 l-29 -6 2 -82 c2 -76 5 -85 32
-114 16 -17 33 -28 37 -25 4 4 6 33 6 64 -2 53 -1 54 11 26 16 -40 115 -123
115 -98 0 10 -14 32 -30 49 -38 39 -32 62 18 71 l37 7 -42 19 c-24 10 -43 23
-43 29 0 14 38 88 62 120 38 50 13 49 -67 -3z"/>
<path d="M6724 5625 c24 -94 -4 -177 -82 -246 -78 -68 -159 -76 -306 -29 -52
17 -105 40 -118 51 -12 11 -17 18 -10 14 6 -3 12 -2 12 2 0 13 -59 33 -65 23
-3 -5 -26 0 -50 10 -25 11 -45 17 -45 14 0 -12 249 -166 299 -185 158 -60 317
3 372 147 31 82 28 185 -6 230 -12 16 -12 12 -1 -31z m-539 -203 c-3 -3 -11 0
-18 7 -9 10 -8 11 6 5 10 -3 15 -9 12 -12z"/>
<path d="M8840 4945 c0 -41 4 -75 8 -75 8 0 122 69 122 74 0 6 -81 57 -105 66
l-25 10 0 -75z"/>
<path d="M8896 4030 c-103 -63 -112 -74 -61 -67 22 3 53 9 68 12 21 6 31 3 41
-10 16 -22 20 -16 39 58 11 41 12 57 4 56 -7 0 -47 -22 -91 -49z"/>
<path d="M8880 2230 c0 -5 5 -10 11 -10 5 0 7 5 4 10 -3 6 -8 10 -11 10 -2 0
-4 -4 -4 -10z"/>
<path d="M8738 2174 c-16 -8 -28 -17 -28 -19 0 -10 16 -4 40 15 30 23 25 25
-12 4z"/>
<path d="M8755 1100 c-8 -13 3 -30 18 -29 9 0 9 2 0 5 -7 3 -9 12 -6 20 6 16
-3 19 -12 4z"/>
<path d="M8587 1003 c3 -7 9 -10 14 -7 14 8 11 21 -5 21 -8 0 -12 -6 -9 -14z"/>
<path d="M8138 953 c7 -3 16 -2 19 1 4 3 -2 6 -13 5 -11 0 -14 -3 -6 -6z"/>
</g>
</svg>
